<svg width="89" height="30" viewBox="0 0 89 30" fill="none" xmlns="http://www.w3.org/2000/svg">
<path fill-rule="evenodd" clip-rule="evenodd" d="M3.6729 9.07897C4.48619 6.47734 6.76864 4.60742 9.41837 4.60742H17.6037L14.2194 19.7836L13.8783 21.2741C13.065 23.686 10.9138 25.3933 8.39521 25.3933H0L3.48926 9.81067L3.62043 9.24157C3.63355 9.21447 3.64011 9.18737 3.64667 9.16027C3.65323 9.13317 3.65979 9.10607 3.6729 9.07897ZM7.73989 9.83739L7.87107 9.81029L15.0595 9.89159L15.0332 9.99999C14.9021 10.5962 14.5872 11.1111 14.0888 11.5447C13.5641 11.9512 13.0131 12.168 12.436 12.168H7.34637L6.95284 13.9024H12.8033L12.777 14.0108C12.6458 14.607 12.3048 15.1219 11.8063 15.5555C11.3079 15.9892 10.7307 16.206 10.1535 16.206H6.42814L6.00838 18.0488C5.8772 18.645 5.53615 19.1599 5.03768 19.5935C4.53922 20.0271 3.98828 20.2439 3.38488 20.2439H3.27994L5.16886 11.8157C5.2738 11.4092 5.58862 10.8943 6.08708 10.4878C6.61178 10.0542 7.16272 9.83739 7.73989 9.83739Z" fill="#141416"/>
<path fill-rule="evenodd" clip-rule="evenodd" d="M19.3356 4.52575C20.0439 1.92412 22.3526 0 25.1073 0H33.2926L27.6521 25.2846C26.9962 27.9946 24.6351 30 21.8279 30H13.6426L19.2044 5.12195C19.2306 4.93225 19.2831 4.71545 19.3356 4.52575ZM27.337 9.78317C27.8617 9.78317 28.2815 9.97287 28.5963 10.2981C28.9374 10.6504 29.0948 11.0569 29.0685 11.5718C29.0685 11.7137 29.0485 11.835 29.026 11.9717C29.0227 11.9916 29.0194 12.0118 29.0161 12.0325L28.5701 13.9566C28.4389 14.5799 28.0716 15.2574 27.5731 15.6639C27.0747 16.0704 26.55 16.1517 25.9728 16.1517H21.0144L20.5946 17.9946C20.4635 18.5908 20.1224 19.1057 19.6239 19.5393C19.1255 19.9729 18.5745 20.1897 17.9711 20.1897H17.8662V20.1626L20.1749 9.78317H27.337ZM21.5391 13.8482H26.3663L26.7599 12.1138H21.9326L21.5391 13.8482Z" fill="#141416"/>
<path fill-rule="evenodd" clip-rule="evenodd" d="M33.1079 8.78086C33.9737 6.34184 36.1774 4.60742 38.7485 4.60742H46.9338L43.3921 20.4611C42.7099 23.3066 40.3226 25.3933 37.5154 25.3933H29.3301L32.898 9.43127C32.898 9.43127 33.0555 8.91637 33.1079 8.78086ZM41.9229 9.81039C42.4476 9.81039 42.8673 10.0001 43.1822 10.3253C43.497 10.6505 43.6544 11.057 43.6282 11.599C43.6282 11.7345 43.6019 11.8971 43.5757 12.0597L43.5494 12.141H39.8241L38.5123 18.0218C38.3812 18.618 38.0401 19.1329 37.5416 19.5665C37.0432 20.0001 36.4922 20.2169 35.8888 20.2169H35.7839L37.5941 12.141H36.02C35.4953 12.141 35.0755 11.9513 34.7607 11.6261C34.4459 11.2738 34.2885 10.8673 34.2885 10.3524C34.2885 10.2169 34.3147 10.0543 34.341 9.89169L34.3672 9.81039H38.5648H38.7747H41.9229Z" fill="#141416"/>
<path d="M44.6528 23.605C44.6528 22.6294 45.4399 21.8164 46.3843 21.8164C47.3288 21.8164 48.1158 22.6294 48.1158 23.605C48.1158 24.5806 47.3288 25.3936 46.3843 25.3936C45.4399 25.3936 44.6528 24.5806 44.6528 23.605ZM47.6961 23.605C47.6961 22.7649 47.1189 22.1687 46.3843 22.1687C45.6498 22.1687 45.0726 22.7649 45.0726 23.605C45.0726 24.4451 45.6498 25.0413 46.3843 25.0413C47.1189 25.0413 47.6961 24.4451 47.6961 23.605ZM45.7285 22.5752H46.463C46.9353 22.5752 47.1976 22.7378 47.1976 23.1714C47.1976 23.5237 47.014 23.6863 46.6729 23.7134L47.1976 24.6077H46.8303L46.3319 23.7405H46.122V24.6077H45.7547V22.5752H45.7285ZM46.0958 23.4424H46.4106C46.6205 23.4424 46.8041 23.4153 46.8041 23.1443C46.8041 22.9004 46.5942 22.8733 46.4106 22.8733H46.0958V23.4424Z" fill="#141416"/>
<path d="M54.5167 12.3646V19.3293H53.3099V12.3646H51.5259V11.3077H56.3007V12.3646H54.5167Z" fill="#141416"/>
<path d="M61.705 16.3213L57.8747 16.8633C58.0059 17.9473 58.5831 18.4893 59.6325 18.4893C60.2621 18.4893 60.7868 18.3809 61.2328 18.137L61.5738 19.0313C61.0491 19.3023 60.3933 19.4649 59.5538 19.4649C58.6618 19.4649 57.9534 19.1939 57.455 18.6248C56.9565 18.0828 56.7204 17.324 56.7204 16.3484C56.7204 15.427 56.9565 14.6953 57.4287 14.1262C57.9009 13.5571 58.5306 13.259 59.3439 13.259C60.0784 13.259 60.6819 13.5029 61.1016 13.9636C61.5214 14.4243 61.7313 15.0747 61.7313 15.8877C61.705 16.0503 61.705 16.2129 61.705 16.3213ZM60.6031 15.6709C60.6031 14.6411 60.1572 14.1262 59.3176 14.1262C58.8716 14.1262 58.5044 14.2888 58.242 14.6411C57.9534 14.9934 57.8222 15.4541 57.8222 16.0774L60.6031 15.6709Z" fill="#141416"/>
<path d="M62.5448 19.3293V10.6572H63.7253V19.3293H62.5448Z" fill="#141416"/>
<path d="M69.5493 16.3213L65.719 16.8633C65.8501 17.9473 66.4273 18.4893 67.4767 18.4893C68.1064 18.4893 68.6311 18.3809 69.077 18.137L69.4181 19.0313C68.8934 19.3023 68.2375 19.4649 67.398 19.4649C66.506 19.4649 65.7977 19.1939 65.2992 18.6248C64.8007 18.0828 64.5646 17.324 64.5646 16.3484C64.5646 15.427 64.8007 14.6953 65.273 14.1262C65.7452 13.5571 66.3748 13.259 67.1881 13.259C67.9227 13.259 68.5261 13.5029 68.9459 13.9636C69.3656 14.4243 69.5755 15.0747 69.5755 15.8877C69.5493 16.0503 69.5493 16.2129 69.5493 16.3213ZM68.4212 15.6709C68.4212 14.6411 67.9752 14.1262 67.1357 14.1262C66.6897 14.1262 66.3224 14.2888 66.06 14.6411C65.7714 14.9934 65.6403 15.4541 65.6403 16.0774L68.4212 15.6709Z" fill="#141416"/>
<path d="M74.167 19.0313C73.7734 19.3023 73.275 19.4378 72.6978 19.4378C71.9895 19.4378 71.4123 19.1939 70.9401 18.7061C70.4153 18.137 70.153 17.3511 70.153 16.3484C70.153 15.3457 70.4153 14.5598 70.9401 13.9907C71.386 13.5029 71.9895 13.259 72.6978 13.259C73.3012 13.259 73.7734 13.3945 74.167 13.6655L73.7734 14.5327C73.5111 14.343 73.1963 14.2346 72.829 14.2346C72.4092 14.2346 72.0682 14.3972 71.8058 14.7224C71.5172 15.1018 71.3598 15.6167 71.3598 16.3213C71.3598 16.9988 71.5172 17.5408 71.832 17.9202C72.0944 18.2725 72.4355 18.4351 72.8552 18.4351C73.2225 18.4351 73.5373 18.3267 73.7997 18.137L74.167 19.0313Z" fill="#141416"/>
<path d="M79.0463 18.5434C78.6003 19.1396 77.9707 19.4377 77.1574 19.4377C76.3704 19.4377 75.7407 19.1396 75.2685 18.5434C74.8225 17.9743 74.6126 17.2426 74.6126 16.3212C74.6126 15.3998 74.8225 14.668 75.2685 14.0989C75.7145 13.5027 76.3441 13.2046 77.1574 13.2046C77.9445 13.2046 78.5741 13.5027 79.0463 14.0989C79.4923 14.668 79.7022 15.3998 79.7022 16.3212C79.7022 17.2426 79.4923 18.0014 79.0463 18.5434ZM78.1806 14.7764C77.9445 14.397 77.6034 14.2073 77.1574 14.2073C76.7114 14.2073 76.3704 14.397 76.1343 14.7764C75.8982 15.1558 75.7932 15.6708 75.7932 16.3212C75.7932 16.9716 75.8982 17.4865 76.1343 17.8659C76.3704 18.2453 76.7114 18.4621 77.1574 18.4621C77.6034 18.4621 77.9445 18.2724 78.1806 17.8659C78.4167 17.4865 78.5216 16.9716 78.5216 16.3212C78.5216 15.6708 78.4167 15.1558 78.1806 14.7764Z" fill="#141416"/>
<path d="M87.1792 19.3293V15.2913C87.1792 14.939 87.0743 14.6951 86.8907 14.5054C86.6808 14.3157 86.4184 14.2344 86.0774 14.2344C85.6051 14.2344 85.2641 14.3699 85.028 14.6409V19.3564H83.8474V15.1829C83.8474 14.8848 83.7425 14.6409 83.5326 14.4783C83.3227 14.3157 83.0341 14.2344 82.6668 14.2344C82.2733 14.2344 81.9585 14.2886 81.6699 14.4241V19.3564H80.5155V13.6653C81.1714 13.3943 81.8535 13.2317 82.5881 13.2317C83.4276 13.2317 84.031 13.4485 84.4246 13.8821C84.8968 13.4485 85.5527 13.2317 86.3397 13.2317C86.9431 13.2317 87.4416 13.3943 87.8089 13.7466C88.1762 14.0989 88.3336 14.5596 88.3336 15.1558V19.3022H87.1792V19.3293Z" fill="#141416"/>
</svg>
