<svg width="118" height="40" viewBox="0 0 118 40" fill="none" xmlns="http://www.w3.org/2000/svg">
<path fill-rule="evenodd" clip-rule="evenodd" d="M4.8972 12.1046C5.98159 8.6358 9.02485 6.14258 12.5578 6.14258H23.4716L18.9592 26.3775L18.5044 28.3648C17.4201 31.5807 14.5517 33.8571 11.1936 33.8571H0L4.65234 13.0802L4.82724 12.3214C4.84473 12.2853 4.85348 12.2492 4.86223 12.213C4.87097 12.1769 4.87971 12.1408 4.8972 12.1046ZM10.3194 13.1164L10.4943 13.0802L20.0789 13.1886L20.0439 13.3332C19.869 14.1281 19.4492 14.8147 18.7846 15.3928C18.085 15.9348 17.3504 16.2239 16.5809 16.2239H9.79475L9.27005 18.5364H17.0706L17.0356 18.681C16.8607 19.4759 16.406 20.1624 15.7414 20.7406C15.0767 21.3187 14.3072 21.6078 13.5376 21.6078H8.57045L8.01077 24.0649C7.83587 24.8598 7.38113 25.5464 6.71651 26.1245C6.05188 26.7026 5.3173 26.9917 4.51276 26.9917H4.37284L6.89141 15.7541C7.03133 15.2121 7.45109 14.5256 8.11571 13.9836C8.81531 13.4054 9.54989 13.1164 10.3194 13.1164Z" fill="#1169B0"/>
<path fill-rule="evenodd" clip-rule="evenodd" d="M25.7801 6.03433C26.7246 2.56549 29.8028 0 33.4757 0H44.3895L36.8688 33.7127C35.9943 37.3261 32.8461 40 29.1032 40H18.1895L25.6052 6.82927C25.6402 6.57633 25.7102 6.28726 25.7801 6.03433ZM36.4487 13.0442C37.1483 13.0442 37.708 13.2971 38.1278 13.7307C38.5825 14.2004 38.7924 14.7424 38.7574 15.429C38.7574 15.6183 38.7308 15.78 38.7007 15.9622C38.6963 15.9888 38.6919 16.0157 38.6875 16.0433L38.0928 18.6088C37.9179 19.4398 37.4282 20.3432 36.7636 20.8852C36.0989 21.4272 35.3993 21.5356 34.6298 21.5356H28.0186L27.4589 23.9927C27.284 24.7876 26.8292 25.4742 26.1646 26.0523C25.5 26.6304 24.7654 26.9195 23.9609 26.9195H23.821V26.8834L26.8992 13.0442H36.4487ZM28.7182 18.4642H35.1545L35.6792 16.1517H29.2429L28.7182 18.4642Z" fill="#FF6F32"/>
<path fill-rule="evenodd" clip-rule="evenodd" d="M44.1445 11.7072C45.2989 8.45514 48.2372 6.14258 51.6653 6.14258H62.579L57.8567 27.2808C56.9472 31.0748 53.7641 33.8571 50.0212 33.8571H39.1074L43.8647 12.5744C43.8647 12.5744 44.0746 11.8878 44.1445 11.7072ZM55.8979 13.0802C56.5975 13.0802 57.1572 13.3332 57.577 13.7668C57.9967 14.2004 58.2066 14.7424 58.1716 15.4651C58.1716 15.6457 58.1367 15.8625 58.1017 16.0793L58.0667 16.1877H53.0995L51.3505 24.0287C51.1756 24.8237 50.7209 25.5102 50.0563 26.0884C49.3917 26.6665 48.6571 26.9556 47.8525 26.9556H47.7126L50.1262 16.1877H48.0274C47.3278 16.1877 46.7682 15.9348 46.3484 15.5012C45.9286 15.0315 45.7188 14.4895 45.7188 13.8029C45.7188 13.6222 45.7537 13.4054 45.7887 13.1886L45.8237 13.0802H51.4205H51.7003H55.8979Z" fill="#16B14B"/>
<path d="M59.5361 31.4727C59.5361 30.1719 60.5855 29.0879 61.8448 29.0879C63.1041 29.0879 64.1535 30.1719 64.1535 31.4727C64.1535 32.7735 63.1041 33.8575 61.8448 33.8575C60.5855 33.8575 59.5361 32.7735 59.5361 31.4727ZM63.5938 31.4727C63.5938 30.3526 62.8243 29.5576 61.8448 29.5576C60.8654 29.5576 60.0958 30.3526 60.0958 31.4727C60.0958 32.5929 60.8654 33.3878 61.8448 33.3878C62.8243 33.3878 63.5938 32.5929 63.5938 31.4727ZM60.9703 30.0996H61.9498C62.5794 30.0996 62.9292 30.3164 62.9292 30.8946C62.9292 31.3643 62.6843 31.5811 62.2296 31.6173L62.9292 32.8097H62.4395L61.7749 31.6534H61.495V32.8097H61.0053V30.0996H60.9703ZM61.46 31.2559H61.8798C62.1596 31.2559 62.4045 31.2198 62.4045 30.8584C62.4045 30.5332 62.1246 30.4971 61.8798 30.4971H61.46V31.2559Z" fill="#1169B0"/>
<path d="M72.6889 16.4864V25.7728H71.0798V16.4864H68.7012V15.0772H75.0675V16.4864H72.6889Z" fill="#1169B0"/>
<path d="M82.2734 21.762L77.1663 22.4847C77.3412 23.93 78.1107 24.6527 79.5099 24.6527C80.3495 24.6527 81.0491 24.5082 81.6437 24.183L82.0985 25.3754C81.3989 25.7367 80.5244 25.9535 79.405 25.9535C78.2157 25.9535 77.2712 25.5922 76.6066 24.8334C75.942 24.1107 75.6272 23.099 75.6272 21.7982C75.6272 20.5696 75.942 19.594 76.5716 18.8352C77.2013 18.0764 78.0408 17.6789 79.1252 17.6789C80.1046 17.6789 80.9091 18.0041 81.4688 18.6184C82.0285 19.2327 82.3083 20.0999 82.3083 21.1839C82.2734 21.4007 82.2734 21.6175 82.2734 21.762ZM80.8042 20.8948C80.8042 19.5217 80.2095 18.8352 79.0902 18.8352C78.4955 18.8352 78.0058 19.052 77.656 19.5217C77.2712 19.9915 77.0963 20.6058 77.0963 21.4368L80.8042 20.8948Z" fill="#1169B0"/>
<path d="M83.393 25.7727V14.21H84.9671V25.7727H83.393Z" fill="#1169B0"/>
<path d="M92.7324 21.762L87.6253 22.4847C87.8002 23.93 88.5697 24.6527 89.969 24.6527C90.8085 24.6527 91.5081 24.5082 92.1027 24.183L92.5575 25.3754C91.8579 25.7367 90.9834 25.9535 89.864 25.9535C88.6747 25.9535 87.7302 25.5922 87.0656 24.8334C86.401 24.1107 86.0862 23.099 86.0862 21.7982C86.0862 20.5696 86.401 19.594 87.0306 18.8352C87.6603 18.0764 88.4998 17.6789 89.5842 17.6789C90.5636 17.6789 91.3681 18.0041 91.9278 18.6184C92.4875 19.2327 92.7674 20.0999 92.7674 21.1839C92.7324 21.4007 92.7324 21.6175 92.7324 21.762ZM91.2282 20.8948C91.2282 19.5217 90.6336 18.8352 89.5142 18.8352C88.9195 18.8352 88.4298 19.052 88.08 19.5217C87.6952 19.9915 87.5203 20.6058 87.5203 21.4368L91.2282 20.8948Z" fill="#1169B0"/>
<path d="M98.8893 25.3754C98.3646 25.7367 97.7 25.9174 96.9304 25.9174C95.9859 25.9174 95.2164 25.5922 94.5867 24.9418C93.8871 24.183 93.5373 23.1351 93.5373 21.7982C93.5373 20.4612 93.8871 19.4133 94.5867 18.6545C95.1814 18.0041 95.9859 17.6789 96.9304 17.6789C97.735 17.6789 98.3646 17.8596 98.8893 18.2209L98.3646 19.3772C98.0148 19.1243 97.595 18.9797 97.1053 18.9797C96.5456 18.9797 96.0909 19.1965 95.7411 19.6301C95.3563 20.136 95.1464 20.8226 95.1464 21.762C95.1464 22.6654 95.3563 23.388 95.7761 23.8939C96.1259 24.3637 96.5806 24.5805 97.1403 24.5805C97.63 24.5805 98.0498 24.4359 98.3996 24.183L98.8893 25.3754Z" fill="#1169B0"/>
<path d="M105.395 24.7248C104.8 25.5198 103.961 25.9172 102.877 25.9172C101.827 25.9172 100.988 25.5198 100.358 24.7248C99.7634 23.966 99.4835 22.9904 99.4835 21.7619C99.4835 20.5333 99.7634 19.5577 100.358 18.7989C100.953 18.004 101.792 17.6065 102.877 17.6065C103.926 17.6065 104.765 18.004 105.395 18.7989C105.99 19.5577 106.27 20.5333 106.27 21.7619C106.27 22.9904 105.99 24.0022 105.395 24.7248ZM104.241 19.7023C103.926 19.1964 103.471 18.9434 102.877 18.9434C102.282 18.9434 101.827 19.1964 101.512 19.7023C101.198 20.2081 101.058 20.8947 101.058 21.7619C101.058 22.6291 101.198 23.3156 101.512 23.8215C101.827 24.3274 102.282 24.6164 102.877 24.6164C103.471 24.6164 103.926 24.3635 104.241 23.8215C104.556 23.3156 104.696 22.6291 104.696 21.7619C104.696 20.8947 104.556 20.2081 104.241 19.7023Z" fill="#1169B0"/>
<path d="M116.239 25.7727V20.3887C116.239 19.919 116.099 19.5938 115.854 19.3409C115.574 19.0879 115.225 18.9795 114.77 18.9795C114.14 18.9795 113.685 19.1602 113.371 19.5215V25.8088H111.797V20.2442C111.797 19.8467 111.657 19.5215 111.377 19.3047C111.097 19.0879 110.712 18.9795 110.222 18.9795C109.698 18.9795 109.278 19.0518 108.893 19.2325V25.8088H107.354V18.2207C108.229 17.8594 109.138 17.6426 110.117 17.6426C111.237 17.6426 112.041 17.9316 112.566 18.5098C113.196 17.9316 114.07 17.6426 115.12 17.6426C115.924 17.6426 116.589 17.8594 117.079 18.3291C117.568 18.7989 117.778 19.4131 117.778 20.2081V25.7365H116.239V25.7727Z" fill="#1169B0"/>
</svg>
