<svg width="24" height="19" viewBox="0 0 24 19" fill="none" xmlns="http://www.w3.org/2000/svg">
<path opacity="0.2" d="M18.8235 0.657587C20.2876 0.657587 21.5163 1.14881 22.5098 2.13127C23.5033 3.11373 24 4.32887 24 5.7767C24 6.50062 23.817 7.32795 23.451 8.25869C23.1373 9.03432 22.5882 9.96507 21.8039 11.0509L16.7843 18.3418L13.5686 16.2476L17.4902 10.2753C16.4967 10.1202 15.634 9.62896 14.902 8.80163C14.1699 8.02601 13.8039 7.0177 13.8039 5.7767C13.8039 4.32887 14.3007 3.11373 15.2941 2.13127C16.2876 1.14881 17.4641 0.657586 18.8235 0.657587ZM5.2549 0.657585C6.71896 0.657586 7.94771 1.14881 8.94118 2.13127C9.93464 3.11373 10.4314 4.32887 10.4314 5.7767C10.4314 6.50061 10.2484 7.32795 9.88235 8.25869C9.56863 9.03432 9.01961 9.96506 8.23529 11.0509L3.21569 18.3418L1.83079e-07 16.2476L3.92157 10.2753C2.92811 10.1202 2.06536 9.62896 1.33333 8.80163C0.601308 8.02601 0.235295 7.0177 0.235295 5.7767C0.235296 4.32887 0.732026 3.11372 1.72549 2.13127C2.71896 1.14881 3.89543 0.657585 5.2549 0.657585Z" fill="#000B2D"/>
</svg>
