<svg width="69" height="36" viewBox="0 0 69 36" fill="none" xmlns="http://www.w3.org/2000/svg">
<g clip-path="url(#clip0_2225_38757)">
<g filter="url(#filter0_i_2225_38757)">
<rect width="68.2" height="35.2" rx="17.6" fill="#D1D1D1"/>
</g>
<path d="M43.1682 21.3467C40.6955 21.3467 39.1545 19.665 39.1545 16.9756V16.9639C39.1545 14.2803 40.7073 12.5986 43.1682 12.5986C45.635 12.5986 47.176 14.2803 47.176 16.9639V16.9756C47.176 19.665 45.6409 21.3467 43.1682 21.3467ZM43.1682 20.0342C44.6975 20.0342 45.6409 18.8389 45.6409 16.9756V16.9639C45.6409 15.0889 44.6799 13.9111 43.1682 13.9111C41.6623 13.9111 40.6955 15.083 40.6955 16.9639V16.9756C40.6955 18.8564 41.6565 20.0342 43.1682 20.0342ZM48.623 21.2002V12.7451H54.0137V14.0166H50.1348V16.5186H53.6797V17.749H50.1348V21.2002H48.623ZM55.3552 21.2002V12.7451H60.7459V14.0166H56.867V16.5186H60.4119V17.749H56.867V21.2002H55.3552Z" fill="white"/>
<g filter="url(#filter1_d_2225_38757)">
<ellipse cx="18.6543" cy="17.6003" rx="15.125" ry="15.0857" transform="rotate(-180 18.6543 17.6003)" fill="white"/>
<g clip-path="url(#clip1_2225_38757)">
<path d="M27.4075 9.8813C24.7009 11.2315 21.9981 12.5817 19.2915 13.9355L12.1162 12.1122C14.8562 11.3661 17.5962 10.6201 20.3362 9.87402C22.6933 9.87402 25.0504 9.87766 27.4075 9.8813Z" fill="url(#paint0_linear_2225_38757)"/>
<path d="M26.4298 20.548C20.8903 22.1966 15.3471 23.8452 9.80762 25.4938C12.9454 22.9463 16.087 20.4024 19.2248 17.8549L26.0246 15.2236C26.1584 16.9996 26.2923 18.7756 26.4261 20.5516L26.4298 20.548Z" fill="url(#paint1_linear_2225_38757)"/>
<path d="M26.0245 15.2237L19.2246 17.8549C17.4326 17.8186 15.6407 17.7858 13.8487 17.7494C13.2724 15.8715 12.6925 13.9936 12.1162 12.1157L19.2915 13.939C19.299 13.939 19.3064 13.939 19.3138 13.9427L19.3213 13.9427C21.5594 14.3685 23.7938 14.7979 26.0282 15.2237L26.0245 15.2237Z" fill="url(#paint2_linear_2225_38757)"/>
</g>
</g>
</g>
<defs>
<filter id="filter0_i_2225_38757" x="0" y="0" width="68.2002" height="37.4002" filterUnits="userSpaceOnUse" color-interpolation-filters="sRGB">
<feFlood flood-opacity="0" result="BackgroundImageFix"/>
<feBlend mode="normal" in="SourceGraphic" in2="BackgroundImageFix" result="shape"/>
<feColorMatrix in="SourceAlpha" type="matrix" values="0 0 0 0 0 0 0 0 0 0 0 0 0 0 0 0 0 0 127 0" result="hardAlpha"/>
<feOffset dy="2.2"/>
<feGaussianBlur stdDeviation="2.2"/>
<feComposite in2="hardAlpha" operator="arithmetic" k2="-1" k3="1"/>
<feColorMatrix type="matrix" values="0 0 0 0 0 0 0 0 0 0 0 0 0 0 0 0 0 0 0.12 0"/>
<feBlend mode="normal" in2="shape" result="effect1_innerShadow_2225_38757"/>
</filter>
<filter id="filter1_d_2225_38757" x="-0.870703" y="0.314648" width="39.05" height="38.9714" filterUnits="userSpaceOnUse" color-interpolation-filters="sRGB">
<feFlood flood-opacity="0" result="BackgroundImageFix"/>
<feColorMatrix in="SourceAlpha" type="matrix" values="0 0 0 0 0 0 0 0 0 0 0 0 0 0 0 0 0 0 127 0" result="hardAlpha"/>
<feOffset dy="2.2"/>
<feGaussianBlur stdDeviation="2.2"/>
<feComposite in2="hardAlpha" operator="out"/>
<feColorMatrix type="matrix" values="0 0 0 0 0 0 0 0 0 0 0 0 0 0 0 0 0 0 0.12 0"/>
<feBlend mode="normal" in2="BackgroundImageFix" result="effect1_dropShadow_2225_38757"/>
<feBlend mode="normal" in="SourceGraphic" in2="effect1_dropShadow_2225_38757" result="shape"/>
</filter>
<linearGradient id="paint0_linear_2225_38757" x1="19.3994" y1="9.13524" x2="20.4162" y2="14.6058" gradientUnits="userSpaceOnUse">
<stop stop-color="#74F706"/>
<stop offset="1" stop-color="#00FF00"/>
</linearGradient>
<linearGradient id="paint1_linear_2225_38757" x1="13.2844" y1="11.8078" x2="20.395" y2="25.4701" gradientUnits="userSpaceOnUse">
<stop stop-color="#74F706"/>
<stop offset="1" stop-color="#00FF00"/>
</linearGradient>
<linearGradient id="paint2_linear_2225_38757" x1="8.42514" y1="21.2924" x2="24.3631" y2="9.35177" gradientUnits="userSpaceOnUse">
<stop stop-color="#00AE00"/>
<stop offset="1" stop-color="#00FF00"/>
</linearGradient>
<clipPath id="clip0_2225_38757">
<rect width="68.2" height="35.2" fill="white"/>
</clipPath>
<clipPath id="clip1_2225_38757">
<rect width="17.6" height="17.6" fill="white" transform="translate(9.80762 8.80029)"/>
</clipPath>
</defs>
</svg>
