<svg width="27" height="27" viewBox="0 0 27 27" fill="none" xmlns="http://www.w3.org/2000/svg">
<rect width="26.4" height="26.4" rx="13.2" fill="#FF0000" fill-opacity="0.2"/>
<mask id="mask0_2050_38504" style="mask-type:alpha" maskUnits="userSpaceOnUse" x="4" y="4" width="18" height="18">
<rect x="4.39941" y="4.40039" width="17.6" height="17.6" fill="#D9D9D9"/>
</mask>
<g mask="url(#mask0_2050_38504)">
<path d="M11.4033 15.5112L17.6183 9.29617C17.7649 9.14951 17.936 9.07617 18.1316 9.07617C18.3271 9.07617 18.4983 9.14951 18.6449 9.29617C18.7916 9.44284 18.8649 9.61701 18.8649 9.81867C18.8649 10.0203 18.7916 10.1945 18.6449 10.3412L11.9166 17.0878C11.7699 17.2345 11.5988 17.3078 11.4033 17.3078C11.2077 17.3078 11.0366 17.2345 10.8899 17.0878L7.73659 13.9345C7.58992 13.7878 7.51965 13.6137 7.52576 13.412C7.53187 13.2103 7.60826 13.0362 7.75492 12.8895C7.90159 12.7428 8.07576 12.6695 8.27742 12.6695C8.47909 12.6695 8.65326 12.7428 8.79992 12.8895L11.4033 15.5112Z" fill="#FF0000"/>
</g>
</svg>
