<svg width="24" height="24" viewBox="0 0 24 24" fill="none" xmlns="http://www.w3.org/2000/svg">
<rect width="24" height="24" rx="12" fill="#EF4444" fill-opacity="0.2"/>
<mask id="mask0_674_37559" style="mask-type:alpha" maskUnits="userSpaceOnUse" x="4" y="4" width="17" height="17">
<rect x="4.35742" y="4.29639" width="16" height="16" fill="#D9D9D9"/>
</mask>
<g mask="url(#mask0_674_37559)">
<path d="M12.3579 13.2298L9.09128 16.4964C8.96905 16.6186 8.8135 16.6798 8.62461 16.6798C8.43572 16.6798 8.28016 16.6186 8.15794 16.4964C8.03572 16.3742 7.97461 16.2186 7.97461 16.0298C7.97461 15.8409 8.03572 15.6853 8.15794 15.5631L11.4246 12.2964L8.15794 9.02975C8.03572 8.90753 7.97461 8.75197 7.97461 8.56309C7.97461 8.3742 8.03572 8.21864 8.15794 8.09642C8.28016 7.9742 8.43572 7.91309 8.62461 7.91309C8.8135 7.91309 8.96905 7.9742 9.09128 8.09642L12.3579 11.3631L15.6246 8.09642C15.7468 7.9742 15.9024 7.91309 16.0913 7.91309C16.2802 7.91309 16.4357 7.9742 16.5579 8.09642C16.6802 8.21864 16.7413 8.3742 16.7413 8.56309C16.7413 8.75197 16.6802 8.90753 16.5579 9.02975L13.2913 12.2964L16.5579 15.5631C16.6802 15.6853 16.7413 15.8409 16.7413 16.0298C16.7413 16.2186 16.6802 16.3742 16.5579 16.4964C16.4357 16.6186 16.2802 16.6798 16.0913 16.6798C15.9024 16.6798 15.7468 16.6186 15.6246 16.4964L12.3579 13.2298Z" fill="#EF4444"/>
</g>
</svg>
