<svg width="27" height="27" viewBox="0 0 27 27" fill="none" xmlns="http://www.w3.org/2000/svg">
<rect x="0.5" y="0.400391" width="26.4" height="26.4" rx="13.2" fill="#00FF66" fill-opacity="0.2"/>
<mask id="mask0_1116_30411" style="mask-type:alpha" maskUnits="userSpaceOnUse" x="4" y="4" width="19" height="19">
<rect x="4.89941" y="4.7998" width="17.6" height="17.6" fill="#D9D9D9"/>
</mask>
<g mask="url(#mask0_1116_30411)">
<path d="M11.9033 15.9096L18.1183 9.69461C18.2649 9.54794 18.436 9.47461 18.6316 9.47461C18.8271 9.47461 18.9983 9.54794 19.1449 9.69461C19.2916 9.84128 19.3649 10.0154 19.3649 10.2171C19.3649 10.4188 19.2916 10.5929 19.1449 10.7396L12.4166 17.4863C12.2699 17.6329 12.0988 17.7063 11.9033 17.7063C11.7077 17.7063 11.5366 17.6329 11.3899 17.4863L8.23659 14.3329C8.08992 14.1863 8.01965 14.0121 8.02576 13.8104C8.03187 13.6088 8.10826 13.4346 8.25492 13.2879C8.40159 13.1413 8.57576 13.0679 8.77742 13.0679C8.97909 13.0679 9.15326 13.1413 9.29992 13.2879L11.9033 15.9096Z" fill="url(#paint0_linear_1116_30411)"/>
</g>
<defs>
<linearGradient id="paint0_linear_1116_30411" x1="7.14239" y1="17.4026" x2="19.0231" y2="7.29557" gradientUnits="userSpaceOnUse">
<stop stop-color="#21E746"/>
<stop offset="1" stop-color="#13DB5A"/>
</linearGradient>
</defs>
</svg>
