<svg width="24" height="24" viewBox="0 0 24 24" fill="none" xmlns="http://www.w3.org/2000/svg">
<path d="M16.9995 2.00416L14.406 2C11.4922 2 9.60923 3.9319 9.60923 6.92203V9.19141H7.00156C6.77622 9.19141 6.59375 9.37409 6.59375 9.59943V12.8875C6.59375 13.1128 6.77643 13.2953 7.00156 13.2953H9.60923V21.5922C9.60923 21.8175 9.7917 22 10.017 22H13.4193C13.6446 22 13.8271 21.8173 13.8271 21.5922V13.2953H16.8761C17.1014 13.2953 17.2839 13.1128 17.2839 12.8875L17.2851 9.59943C17.2851 9.49123 17.2421 9.38762 17.1657 9.31105C17.0894 9.23448 16.9853 9.19141 16.8771 9.19141H13.8271V7.26763C13.8271 6.34298 14.0475 5.87358 15.2519 5.87358L16.9991 5.87295C17.2242 5.87295 17.4067 5.69027 17.4067 5.46514V2.41197C17.4067 2.18705 17.2244 2.00458 16.9995 2.00416Z" fill="url(#paint0_linear_2294_38825)"/>
<defs>
<linearGradient id="paint0_linear_2294_38825" x1="4.00049" y1="12" x2="22.0005" y2="8" gradientUnits="userSpaceOnUse">
<stop stop-color="#01CB41"/>
<stop offset="1" stop-color="#279FFF"/>
</linearGradient>
</defs>
</svg>
