<svg width="24" height="24" viewBox="0 0 24 24" fill="none" xmlns="http://www.w3.org/2000/svg">
<path d="M5.13812 16.8101C10.2099 18.7894 14.526 19.1749 19.4171 16.0941C19.3813 16.1479 18.4138 17.5812 15.8695 18.3158C16.407 19.0504 17.1416 19.8925 17.1416 19.8925C18.7721 19.8925 20.3667 19.4266 21.7463 18.5308C22.8214 17.8141 23.4305 16.5778 23.3051 15.2878C23.0901 13.084 22.5705 10.9339 21.7642 8.87351C20.743 6.18596 18.2883 4.32255 15.4395 4.05378C15.1887 4.03585 15.0095 4.03585 14.902 4.03585L14.6154 4.3225C17.8942 5.2542 19.5247 6.70548 19.5605 6.75925C14.5257 4.215 8.57727 4.1792 3.50669 6.65176C3.50669 6.65176 5.11924 5.05713 8.68472 4.215L8.46972 4C8.09344 4 7.73509 4.03585 7.35887 4.08957C4.72504 4.5375 2.52126 6.34713 1.57163 8.83761C0.747431 10.9877 0.209931 13.2452 0.0128561 15.5386C-0.0946439 16.757 0.478707 17.9574 1.48206 18.6562C2.80791 19.5341 4.38461 20 5.97924 20C5.97924 20 6.62424 19.1579 7.26929 18.4054C4.85046 17.6887 3.86504 16.2553 3.84711 16.2015L4.30232 16.434C4.57445 16.573 4.85344 16.699 5.13812 16.8101ZM7.95014 15.252C6.78552 15.2161 5.87174 14.2307 5.90759 13.0481C5.94344 11.9373 6.83929 11.0414 7.95014 11.0056C9.11477 11.0414 10.0285 12.0269 9.9927 13.2094C9.93892 14.3203 9.06099 15.2162 7.95014 15.252ZM15.2603 15.252C14.0957 15.2161 13.1819 14.2307 13.2177 13.0481C13.2536 11.9373 14.1495 11.0414 15.2603 11.0056C16.4249 11.0414 17.3387 12.0269 17.3029 13.2094C17.2671 14.3203 16.3712 15.2162 15.2603 15.252Z" fill="url(#paint0_linear_2294_38826)"/>
<defs>
<linearGradient id="paint0_linear_2294_38826" x1="-1.37184" y1="14.084" x2="24.9476" y2="9.11109" gradientUnits="userSpaceOnUse">
<stop stop-color="#01CB41"/>
<stop offset="1" stop-color="#279FFF"/>
</linearGradient>
</defs>
</svg>
