<svg width="18" height="16" viewBox="0 0 18 16" fill="none" xmlns="http://www.w3.org/2000/svg">
<path d="M17.9997 0.00745449C15.2316 1.39049 12.4673 2.77354 9.69927 4.1603L2.36084 2.29264C5.16313 1.52843 7.96542 0.764213 10.7677 0C13.1784 0 15.589 0.00372662 17.9997 0.00745449Z" fill="url(#paint0_linear_2108_32686)"/>
<path d="M17.0001 10.9339C11.3346 12.6226 5.66542 14.3113 0 16C3.20913 13.3905 6.42207 10.7847 9.63121 8.17523L16.5856 5.47998C16.7225 7.29918 16.8594 9.11838 16.9962 10.9376L17.0001 10.9339Z" fill="url(#paint1_linear_2108_32686)"/>
<path d="M16.5852 5.47999L9.63082 8.17524C7.79812 8.13796 5.96541 8.10441 4.13271 8.06713C3.54335 6.14355 2.9502 4.21997 2.36084 2.29639L9.69927 4.16405C9.70687 4.16405 9.71448 4.16405 9.72208 4.16778H9.72968C12.0187 4.60394 14.3038 5.04382 16.589 5.47999H16.5852Z" fill="url(#paint2_linear_2108_32686)"/>
<defs>
<linearGradient id="paint0_linear_2108_32686" x1="9.80953" y1="-0.756758" x2="10.8526" y2="4.84633" gradientUnits="userSpaceOnUse">
<stop stop-color="#74F706"/>
<stop offset="1" stop-color="#00FF00"/>
</linearGradient>
<linearGradient id="paint1_linear_2108_32686" x1="3.55578" y1="1.98107" x2="10.846" y2="15.9664" gradientUnits="userSpaceOnUse">
<stop stop-color="#74F706"/>
<stop offset="1" stop-color="#00FF00"/>
</linearGradient>
<linearGradient id="paint2_linear_2108_32686" x1="-1.41413" y1="11.6963" x2="14.9044" y2="-0.510351" gradientUnits="userSpaceOnUse">
<stop stop-color="#00AE00"/>
<stop offset="1" stop-color="#00FF00"/>
</linearGradient>
</defs>
</svg>
