<svg width="24" height="24" viewBox="0 0 24 24" fill="none" xmlns="http://www.w3.org/2000/svg">
<path d="M20.7616 7.01562C19.6202 7.01562 18.5671 6.6375 17.7214 5.99961C16.7515 5.26836 16.0546 4.1957 15.8085 2.95937C15.7476 2.65391 15.7147 2.33867 15.7116 2.01562H12.4511V10.925L12.4472 15.8051C12.4472 17.1098 11.5976 18.216 10.4198 18.6051C10.078 18.718 9.70888 18.7715 9.3245 18.7504C8.83388 18.7234 8.37411 18.5754 7.9745 18.3363C7.12411 17.8277 6.54755 16.9051 6.53193 15.8496C6.50732 14.2 7.84091 12.8551 9.48935 12.8551C9.81474 12.8551 10.1272 12.9082 10.4198 13.0047V10.5695V9.69414C10.1112 9.64844 9.79716 9.62461 9.47958 9.62461C7.67529 9.62461 5.98778 10.3746 4.78154 11.7258C3.86982 12.7469 3.32294 14.0496 3.23857 15.4156C3.12802 17.2102 3.78466 18.916 5.0581 20.1746C5.24521 20.3594 5.44169 20.5309 5.64716 20.6891C6.73896 21.5293 8.07372 21.9848 9.47958 21.9848C9.79716 21.9848 10.1112 21.9613 10.4198 21.9156C11.7331 21.7211 12.9448 21.1199 13.9011 20.1746C15.0761 19.0133 15.7253 17.4715 15.7323 15.8305L15.7155 8.54297C16.2761 8.97539 16.889 9.3332 17.5468 9.61094C18.5698 10.0426 19.6546 10.2613 20.771 10.2609V7.89336V7.01484C20.7718 7.01562 20.7624 7.01562 20.7616 7.01562Z" fill="url(#paint0_linear_2294_38827)"/>
<defs>
<linearGradient id="paint0_linear_2294_38827" x1="1.49902" y1="15.5" x2="21.999" y2="11" gradientUnits="userSpaceOnUse">
<stop stop-color="#01CB41"/>
<stop offset="1" stop-color="#279FFF"/>
</linearGradient>
</defs>
</svg>
