<svg width="147" height="32" viewBox="0 0 147 32" fill="none" xmlns="http://www.w3.org/2000/svg">
<path d="M0.97168 16C0.97168 7.16344 8.13512 0 16.9717 0H131C139.836 0 147 7.16344 147 16C147 24.8366 139.836 32 131 32H16.9717C8.1351 32 0.97168 24.8366 0.97168 16Z" fill="#203D30"/>
<path d="M16.5986 21.1709C13.7207 21.1709 11.9296 19.2158 11.9296 16.0303V16.0234C11.9296 12.8926 13.7207 10.9648 16.5644 10.9648C18.9023 10.9648 20.4199 12.3184 20.7959 14.1367L20.8232 14.2461H19.0322L19.0117 14.1709C18.6357 13.1113 17.7812 12.4961 16.5713 12.4961C14.7939 12.4961 13.7275 13.7949 13.7275 16.0098V16.0166C13.7275 18.2793 14.8418 19.6396 16.6191 19.6396C18.1093 19.6396 19.1347 18.7236 19.1689 17.3428L19.1757 17.1924H16.7285V15.8184H20.8984V16.8848C20.8984 19.5645 19.2988 21.1709 16.5986 21.1709ZM26.0866 12.9336H24.8971L26.1208 10.7051H27.6999L26.0866 12.9336ZM25.6559 21.1436C23.5231 21.1436 22.1491 19.7217 22.1491 17.377V17.3633C22.1491 15.0391 23.5436 13.6035 25.6491 13.6035C27.7614 13.6035 29.1628 15.0254 29.1628 17.3633V17.377C29.1628 19.7285 27.7819 21.1436 25.6559 21.1436ZM25.6628 19.7695C26.736 19.7695 27.4264 18.8945 27.4264 17.377V17.3633C27.4264 15.8525 26.7292 14.9844 25.6491 14.9844C24.5895 14.9844 23.8854 15.8594 23.8854 17.3633V17.377C23.8854 18.9014 24.5759 19.7695 25.6628 19.7695ZM31.4389 12.7148C30.9057 12.7148 30.4887 12.291 30.4887 11.7852C30.4887 11.2656 30.9057 10.8486 31.4389 10.8486C31.9721 10.8486 32.3822 11.2656 32.3822 11.7852C32.3822 12.291 31.9721 12.7148 31.4389 12.7148ZM30.5844 21V13.7539H32.2865V21H30.5844ZM37.1737 21V11.1357H38.8758V16.7617H38.91L41.617 13.7539H43.5858L40.7147 16.8711L43.702 21H41.7401L39.45 17.8828L38.8758 18.4844V21H37.1737ZM44.6861 21V11.1357H46.3882V14.9707H46.4293C46.8052 14.1025 47.5777 13.6035 48.6646 13.6035C50.2232 13.6035 51.2213 14.7383 51.2213 16.4883V21H49.5191V16.8232C49.5191 15.709 48.9586 15.0391 47.981 15.0391C47.0172 15.0391 46.3882 15.7705 46.3882 16.8232V21H44.6861ZM55.343 21.1436C53.7503 21.1436 52.8411 20.1182 52.8411 18.4365V13.7539H54.5432V18.1016C54.5432 19.127 55.0218 19.708 55.9925 19.708C56.97 19.708 57.5921 19.0039 57.5921 17.9512V13.7539H59.2942V21H57.5921V19.8652H57.5579C57.1819 20.6377 56.4368 21.1436 55.343 21.1436ZM61.9463 23.4062C61.6182 23.4062 61.2764 23.3652 61.0713 23.3311V22.0322C61.2012 22.0596 61.3994 22.0938 61.6387 22.0938C62.2881 22.0938 62.6504 21.9092 62.8691 21.3008L62.9717 21.0068L60.3672 13.7539H62.2266L63.9219 19.5508H63.9697L65.6719 13.7539H67.4629L64.8584 21.2461C64.3047 22.8389 63.457 23.4062 61.9463 23.4062ZM72.6853 10.5889L73.7859 8.58594H75.2829L73.7175 10.5889H72.6853ZM69.1238 12.9678L70.7302 10.8691H72.2068L73.82 12.9678H72.5212L71.4616 11.5938L70.4226 12.9678H69.1238ZM71.5095 21.1436C69.3357 21.1436 68.0232 19.7012 68.0232 17.3975V17.3906C68.0232 15.1074 69.3562 13.6035 71.4275 13.6035C73.4988 13.6035 74.7839 15.0596 74.7839 17.2471V17.7939H69.7116C69.739 19.0654 70.4363 19.8174 71.5437 19.8174C72.3913 19.8174 72.945 19.3662 73.1091 18.8809L73.1228 18.833H74.7155L74.695 18.9082C74.4695 20.0225 73.403 21.1436 71.5095 21.1436ZM71.448 14.9365C70.5456 14.9365 69.8689 15.5449 69.7322 16.6592H73.1296C73.0066 15.5107 72.3503 14.9365 71.448 14.9365ZM76.1645 21V13.7539H77.8666V14.8887H77.9008C78.2768 14.1094 79.0151 13.6035 80.1157 13.6035C81.7084 13.6035 82.6176 14.6289 82.6176 16.3105V21H80.9155V16.6523C80.9155 15.6201 80.437 15.0391 79.4662 15.0391C78.4887 15.0391 77.8666 15.75 77.8666 16.7959V21H76.1645ZM87.3475 21V13.7539H89.0497V14.8887H89.0839C89.4598 14.1094 90.1981 13.6035 91.2987 13.6035C92.8915 13.6035 93.8007 14.6289 93.8007 16.3105V21H92.0985V16.6523C92.0985 15.6201 91.62 15.0391 90.6493 15.0391C89.6718 15.0391 89.0497 15.75 89.0497 16.7959V21H87.3475ZM98.7154 23.5361C96.7945 23.5361 95.5846 22.6611 95.3795 21.5264L95.3658 21.4648H97.0406L97.0611 21.5195C97.2457 21.9365 97.8268 22.251 98.7154 22.251C99.8229 22.251 100.431 21.6631 100.431 20.7402V19.6943H100.397C99.9938 20.4668 99.1734 20.959 98.1344 20.959C96.316 20.959 95.1471 19.5645 95.1471 17.3086V17.3018C95.1471 15.0117 96.3297 13.6035 98.1617 13.6035C99.1871 13.6035 99.9801 14.1504 100.39 14.9844H100.431V13.7539H102.133V20.7949C102.133 22.4355 100.814 23.5361 98.7154 23.5361ZM98.6676 19.6465C99.7271 19.6465 100.438 18.751 100.438 17.3428V17.3359C100.438 15.9346 99.7203 15.0391 98.6676 15.0391C97.5738 15.0391 96.8834 15.9209 96.8834 17.3291V17.3359C96.8834 18.7646 97.5738 19.6465 98.6676 19.6465ZM103.856 21V11.1357H105.558V14.9707H105.599C105.975 14.1025 106.747 13.6035 107.834 13.6035C109.393 13.6035 110.391 14.7383 110.391 16.4883V21H108.689V16.8232C108.689 15.709 108.128 15.0391 107.151 15.0391C106.187 15.0391 105.558 15.7705 105.558 16.8232V21H103.856ZM112.947 12.7148C112.414 12.7148 111.997 12.291 111.997 11.7852C111.997 11.2656 112.414 10.8486 112.947 10.8486C113.481 10.8486 113.891 11.2656 113.891 11.7852C113.891 12.291 113.481 12.7148 112.947 12.7148ZM112.093 21V13.7539H113.795V21H112.093ZM112.947 23.8984C112.414 23.8984 111.997 23.4746 111.997 22.9688C111.997 22.4561 112.414 22.0391 112.947 22.0391C113.481 22.0391 113.891 22.4561 113.891 22.9688C113.891 23.4746 113.481 23.8984 112.947 23.8984Z" fill="url(#paint0_linear_1036_29546)"/>
<path d="M137 8.00745C134.227 9.39049 131.459 10.7735 128.686 12.1603L121.336 10.2926C124.143 9.52843 126.95 8.76421 129.756 8C132.171 8 134.585 8.00373 137 8.00745Z" fill="url(#paint1_linear_1036_29546)"/>
<path d="M135.998 18.9339C130.324 20.6226 124.646 22.3113 118.972 24C122.186 21.3905 125.404 18.7847 128.618 16.1752L135.583 13.48C135.72 15.2992 135.857 17.1184 135.994 18.9376L135.998 18.9339Z" fill="url(#paint2_linear_1036_29546)"/>
<path d="M135.583 13.48L128.618 16.1752C126.782 16.138 124.947 16.1044 123.111 16.0671C122.521 14.1435 121.927 12.22 121.336 10.2964L128.686 12.164C128.694 12.164 128.702 12.164 128.709 12.1678H128.717C131.009 12.6039 133.298 13.0438 135.587 13.48H135.583Z" fill="url(#paint3_linear_1036_29546)"/>
<defs>
<linearGradient id="paint0_linear_1036_29546" x1="4.85403" y1="17.3025" x2="47.9986" y2="-40.8627" gradientUnits="userSpaceOnUse">
<stop stop-color="#01CB41"/>
<stop offset="1" stop-color="#279FFF"/>
</linearGradient>
<linearGradient id="paint1_linear_1036_29546" x1="128.797" y1="7.24324" x2="129.838" y2="12.8469" gradientUnits="userSpaceOnUse">
<stop stop-color="#74F706"/>
<stop offset="1" stop-color="#00FF00"/>
</linearGradient>
<linearGradient id="paint2_linear_1036_29546" x1="122.533" y1="9.98107" x2="129.817" y2="23.9758" gradientUnits="userSpaceOnUse">
<stop stop-color="#74F706"/>
<stop offset="1" stop-color="#00FF00"/>
</linearGradient>
<linearGradient id="paint3_linear_1036_29546" x1="117.556" y1="19.6963" x2="133.881" y2="7.46519" gradientUnits="userSpaceOnUse">
<stop stop-color="#00AE00"/>
<stop offset="1" stop-color="#00FF00"/>
</linearGradient>
</defs>
</svg>
