<svg width="16" height="16" viewBox="0 0 16 16" fill="none" xmlns="http://www.w3.org/2000/svg">
<circle cx="8.00004" cy="7.99968" r="6.66667" fill="url(#paint0_linear_15703_84258)"/>
<path d="M6.42411 12.4017C6.11797 12.4017 5.87157 12.3083 5.68491 12.1217C5.49824 11.935 5.40491 11.6886 5.40491 11.3825V5.39048C5.40491 5.08434 5.48704 4.84914 5.65131 4.68488C5.81557 4.52061 6.05077 4.43848 6.35691 4.43848H10.1201C10.4561 4.43848 10.7025 4.50568 10.8593 4.64008C11.0161 4.76701 11.0945 4.97234 11.0945 5.25608C11.0945 5.53234 11.0124 5.73394 10.8481 5.86088C10.6913 5.98781 10.4486 6.05128 10.1201 6.05128H7.43211V7.50728H9.89611C10.2246 7.50728 10.4673 7.57448 10.6241 7.70888C10.7884 7.84328 10.8705 8.04861 10.8705 8.32488C10.8705 8.60114 10.7884 8.80274 10.6241 8.92968C10.4673 9.05661 10.2246 9.12008 9.89611 9.12008H7.43211V11.3825C7.43211 11.6961 7.33877 11.9462 7.15211 12.1329C6.97291 12.3121 6.73024 12.4017 6.42411 12.4017Z" fill="url(#paint1_linear_15703_84258)"/>
<defs>
<linearGradient id="paint0_linear_15703_84258" x1="8.48489" y1="1.33301" x2="8.48489" y2="14.6663" gradientUnits="userSpaceOnUse">
<stop stop-color="#FFEAB4"/>
<stop offset="1" stop-color="#F0C164"/>
</linearGradient>
<linearGradient id="paint1_linear_15703_84258" x1="8.24971" y1="4.43848" x2="8.24971" y2="12.4017" gradientUnits="userSpaceOnUse">
<stop stop-color="#FFBD12"/>
<stop offset="1" stop-color="#D8860A"/>
</linearGradient>
</defs>
</svg>