<svg width="28" height="28" viewBox="0 0 28 28" fill="none" xmlns="http://www.w3.org/2000/svg">
<rect width="28" height="28" rx="14" fill="url(#paint0_linear_3376_97719)"/>
<path fill-rule="evenodd" clip-rule="evenodd" d="M12.1098 16.6402C11.9634 16.4937 11.9634 16.2563 12.1098 16.1098L13.8447 14.375L12.1098 12.6402C11.9634 12.4937 11.9634 12.2563 12.1098 12.1098C12.2563 11.9634 12.4937 11.9634 12.6402 12.1098L14.6402 14.1098C14.7866 14.2563 14.7866 14.4937 14.6402 14.6402L12.6402 16.6402C12.4937 16.7866 12.2563 16.7866 12.1098 16.6402Z" fill="white"/>
<path fill-rule="evenodd" clip-rule="evenodd" d="M16.6402 12.1098C16.7866 12.2563 16.7866 12.4937 16.6402 12.6402L14.9053 14.375L16.6402 16.1098C16.7866 16.2563 16.7866 16.4937 16.6402 16.6402C16.4937 16.7866 16.2563 16.7866 16.1098 16.6402L14.1098 14.6402C13.9634 14.4937 13.9634 14.2563 14.1098 14.1098L16.1098 12.1098C16.2563 11.9634 16.4937 11.9634 16.6402 12.1098Z" fill="white"/>
<defs>
<linearGradient id="paint0_linear_3376_97719" x1="24.64" y1="-19.6875" x2="-5.44555" y2="-11.0753" gradientUnits="userSpaceOnUse">
<stop stop-color="#FF0220"/>
<stop offset="1" stop-color="#FF5C00"/>
</linearGradient>
</defs>
</svg>
