<svg width="20" height="20" viewBox="0 0 20 20" fill="none" xmlns="http://www.w3.org/2000/svg">
<path fill-rule="evenodd" clip-rule="evenodd" d="M9.79167 2.5C5.76459 2.5 2.5 5.76459 2.5 9.79167C2.5 13.8187 5.76459 17.0833 9.79167 17.0833C11.5802 17.0833 13.2184 16.4394 14.4869 15.3707L16.8498 17.7336C17.0939 17.9777 17.4896 17.9777 17.7337 17.7336C17.9778 17.4895 17.9778 17.0938 17.7337 16.8497L15.3708 14.4868C16.4394 13.2183 17.0833 11.5802 17.0833 9.79167C17.0833 5.76459 13.8187 2.5 9.79167 2.5ZM3.75 9.79167C3.75 6.45495 6.45495 3.75 9.79167 3.75C13.1284 3.75 15.8333 6.45495 15.8333 9.79167C15.8333 13.1284 13.1284 15.8333 9.79167 15.8333C6.45495 15.8333 3.75 13.1284 3.75 9.79167Z" fill="#141416"/>
</svg>
