<svg width="48" height="48" viewBox="0 0 48 48" fill="none" xmlns="http://www.w3.org/2000/svg">
<path fill-rule="evenodd" clip-rule="evenodd" d="M24 43.5C13.2304 43.5 4.5 34.7696 4.5 24C4.5 13.2304 13.2304 4.5 24 4.5C34.7696 4.5 43.5 13.2304 43.5 24C43.5 34.7696 34.7696 43.5 24 43.5ZM7.5 24C7.5 33.1127 14.8873 40.5 24 40.5C33.1127 40.5 40.5 33.1127 40.5 24C40.5 14.8873 33.1127 7.5 24 7.5C14.8873 7.5 7.5 14.8873 7.5 24Z" fill="white"/>
<path fill-rule="evenodd" clip-rule="evenodd" d="M24 20.5C24.8284 20.5 25.5 21.1716 25.5 22V32C25.5 32.8284 24.8284 33.5 24 33.5C23.1716 33.5 22.5 32.8284 22.5 32V22C22.5 21.1716 23.1716 20.5 24 20.5Z" fill="white"/>
<path d="M25.5 15.5C25.5 16.3284 24.8284 17 24 17C23.1716 17 22.5 16.3284 22.5 15.5C22.5 14.6716 23.1716 14 24 14C24.8284 14 25.5 14.6716 25.5 15.5Z" fill="white"/>
</svg>
