<svg width="16" height="17" viewBox="0 0 16 17" fill="none" xmlns="http://www.w3.org/2000/svg">
<path d="M7.99967 1.76562C4.32634 1.76562 1.33301 4.75896 1.33301 8.43229C1.33301 12.1056 4.32634 15.099 7.99967 15.099C11.673 15.099 14.6663 12.1056 14.6663 8.43229C14.6663 4.75896 11.673 1.76562 7.99967 1.76562ZM11.1863 6.89896L7.40634 10.679C7.31301 10.7723 7.18634 10.8256 7.05301 10.8256C6.91967 10.8256 6.79301 10.7723 6.69967 10.679L4.81301 8.79229C4.61967 8.59896 4.61967 8.27896 4.81301 8.08562C5.00634 7.89229 5.32634 7.89229 5.51967 8.08562L7.05301 9.61896L10.4797 6.19229C10.673 5.99896 10.993 5.99896 11.1863 6.19229C11.3797 6.38562 11.3797 6.69896 11.1863 6.89896Z" fill="#4564ED"/>
</svg>
