<?xml version="1.0" standalone="no"?>
<!DOCTYPE svg PUBLIC "-//W3C//DTD SVG 1.1//EN" "http://www.w3.org/Graphics/SVG/1.1/DTD/svg11.dtd" >
<svg xmlns="http://www.w3.org/2000/svg" xmlns:xlink="http://www.w3.org/1999/xlink" version="1.1">
<metadata>
Created by FontForge 20170731 at Tue May 22 14:46:44 2018
 By Aleksey,,,
Copyright (c) 2018 by Daniel Uzquiano Cruz. All rights reserved.
</metadata>
<defs>
<font id="Polar-Medium" horiz-adv-x="1243" >
  <font-face 
    font-family="Polar Medium"
    font-weight="500"
    font-stretch="normal"
    units-per-em="2048"
    panose-1="0 0 6 0 0 0 0 0 0 0"
    ascent="1638"
    descent="-410"
    x-height="1122"
    cap-height="1411"
    bbox="-745 -522 2687 2161"
    underline-thickness="0"
    underline-position="0"
    unicode-range="U+0009-FB02"
  />
<missing-glyph horiz-adv-x="1433" 
d="M999 1513q180 0 253 -99t73 -318v-449q0 -217 -71.5 -314t-247.5 -97h-590q-176 0 -248 97t-72 314v449q0 219 72 318t252 99h579zM995 1436h-569q-133 0 -190.5 -64.5t-57.5 -243.5v-514q0 -176 57.5 -239.5t190.5 -63.5h569q131 0 188.5 63.5t57.5 239.5v514
q0 178 -57.5 243t-188.5 65zM393 494q-20 0 -8 16l250 375q4 6 4 14t-4 14l-217 322q-6 8 -3 13t11 5h104q12 0 19 -8l149 -237q6 -8 16.5 -8.5t16.5 8.5l150 237q6 8 18 8h105q8 0 11 -5t-3 -13l-217 -322q-4 -6 -4 -14t4 -14l249 -375q12 -16 -8 -16h-106q-10 0 -17 8
l-184 284q-6 8 -14 8.5t-15 -8.5l-184 -284q-6 -8 -16 -8h-107z" />
    <glyph glyph-name="uniFB01" unicode="fi" horiz-adv-x="1273" 
d="M1090 1122q18 0 18 -18v-1077q0 -18 -18 -19h-152q-18 0 -18 19v929h-437q-43 0 -57 13q12 -18 12 -49v-893q0 -18 -18 -19h-152q-18 0 -18 19v893q0 31 10 49q-14 -12 -57 -13h-113q-20 0 -20 21v125q0 20 20 20h113q45 0 57 -14q-10 16 -10 53v144q-2 147 91 246.5
t247 99.5h475q18 0 18 -19v-127q0 -23 -20 -22l-422 2q-201 0 -201 -195v-129q0 -35 -12 -51q14 12 61 12h603z" />
    <glyph glyph-name="uniFB02" unicode="fl" horiz-adv-x="1337" 
d="M1161 1651q10 0 10 -11v-1613q0 -18 -18 -19h-152q-18 0 -18 19v1456h-332h-2l-10 2q-201 0 -201 -195v-129q0 -35 -12 -51q14 12 61 12h201q20 0 21 -20v-125q0 -20 -21 -21h-205q-43 0 -57 13q12 -20 12 -49v-893q0 -18 -18 -19h-152q-18 0 -18 19v893q0 31 10 49
q-14 -12 -57 -13h-113q-20 0 -20 21v125q0 20 20 20h113q45 0 57 -14q-10 16 -10 53v144q-2 147 91 245.5t247 100.5h76h2h495z" />
    <glyph glyph-name="f_f.liga" unicode="ff" horiz-adv-x="1492" 
d="M1425 1122q20 0 21 -20v-125q0 -20 -21 -21h-202q-43 0 -58 13q12 -20 13 -49v-893q0 -18 -21 -19h-151q-18 0 -19 19v893q0 31 12 49q-14 -12 -57 -13h-115h-4h-131h-4h-205q-43 0 -57 13q12 -20 12 -49v-893q0 -18 -18 -19h-152q-18 0 -18 19v893q0 31 10 49
q-14 -12 -57 -13h-113q-20 0 -20 21v125q0 20 20 20h113q45 0 57 -14q-10 16 -10 53v144q-2 147 91 245.5t247 100.5h74q18 0 18 -19v-127q0 -23 -21 -22l-20 2q-201 0 -201 -195v-129q0 -35 -12 -51q12 12 59 12h457q45 0 57 -14q-12 18 -12 53v348q0 147 102.5 251
t245.5 104h66q18 0 18 -19v-127q0 -23 -20 -22h-56q-80 0 -122.5 -45t-42.5 -127v-363q0 -35 -13 -51q12 12 60 12h200z" />
    <glyph glyph-name="f_f_i.liga" unicode="ffi" horiz-adv-x="2013" 
d="M1829 1122q18 0 18 -18v-1077q0 -18 -18 -19h-152q-18 0 -18 19v929h-227h-7h-202q-43 0 -58 13q12 -20 13 -49v-893q0 -18 -21 -19h-151q-18 0 -19 19v893q0 31 12 49q-14 -12 -57 -13h-115h-4h-131h-4h-205q-43 0 -57 13q12 -18 12 -49v-893q0 -18 -18 -19h-152
q-18 0 -18 19v893q0 31 10 49q-14 -12 -57 -13h-113q-20 0 -20 21v125q0 20 20 20h113q45 0 57 -14q-10 16 -10 53v144q-2 147 91 246.5t247 99.5h74q18 0 18 -19v-127q0 -23 -21 -22l-20 2q-201 0 -201 -195v-129q0 -35 -12 -51q14 12 59 12h457q45 0 57 -14q-12 18 -12 53
v348q0 147 102.5 251t245.5 104h66q18 0 18 -19v-127q0 -23 -20 -22h-56q-80 0 -122.5 -45t-42.5 -127v-363q0 -35 -13 -51q12 12 60 12h106h2h342h2h152zM1677 1278q-18 0 -18 18v170q0 18 18 19h152q18 0 18 -19v-170q0 -18 -18 -18h-152z" />
    <glyph glyph-name="f_f_l.liga" unicode="ffl" horiz-adv-x="2082" 
d="M1907 1651q10 0 10 -11v-1613q0 -18 -19 -19h-151q-18 0 -18 19v1456h-334l-11 2q-201 0 -200 -195v-129q0 -35 -13 -51q12 12 60 12h203q20 0 20 -20v-125q0 -20 -20 -21h-205q-43 0 -58 13q12 -20 13 -49v-893q0 -18 -19 -19h-151q-18 0 -19 19v893q0 31 11 49
q-14 -12 -58 -13h-112h-7h-137h-4h-205q-43 0 -57 13q12 -20 12 -49v-893q0 -18 -18 -19h-152q-18 0 -18 19v893q0 31 10 49q-14 -12 -57 -13h-113q-20 0 -20 21v125q0 20 20 20h113q45 0 57 -14q-10 16 -10 53v144q-2 147 91 245.5t247 100.5h76q16 0 16 -19v-127
q0 -23 -21 -22l-20 2q-201 0 -201 -195v-129q0 -35 -12 -51q14 12 59 12h88h2h259h2h112q45 0 58 -14q-10 16 -11 53v144q-2 147 91.5 245.5t246.5 100.5h74h4h496z" />
    <glyph glyph-name="f_f_t.liga" unicode="fft" horiz-adv-x="2260" 
d="M2161 1122q20 0 20 -20v-123q0 -23 -20 -23h-205q-41 0 -58 13q10 -18 11 -49v-893q0 -18 -19 -19h-151q-18 0 -19 19v893q0 29 13 47q-23 -10 -58 -11h-94h-6h-352q-43 0 -58 13q12 -20 13 -49v-893q0 -18 -21 -19h-151q-18 0 -19 19v893q0 31 12 49q-14 -12 -57 -13
h-115h-4h-133h-2h-205q-43 0 -57 13q12 -20 12 -49v-893q0 -18 -18 -19h-152q-18 0 -18 19v893q0 31 10 49q-14 -12 -57 -13h-113q-20 0 -20 21v125q0 20 20 20h113q45 0 57 -14q-10 16 -10 53v144q-2 147 91 245.5t247 100.5h74q18 0 18 -19v-127q0 -23 -21 -22l-20 2
q-201 0 -201 -195v-129q0 -35 -12 -51q12 12 59 12h457q45 0 57 -14q-12 18 -12 53v312q0 145 102.5 248.5t245.5 103.5h66q18 0 18 -17v-129q0 -20 -20 -20h-56q-80 0 -122.5 -45t-42.5 -127v-326q0 -35 -13 -51q12 12 60 12h254h2h194q35 0 58 -10q-12 18 -13 49v256
q0 12 17 19q4 2 6 2l145 67q20 8 21 -14v-330q0 -35 -11 -51q12 12 60 12h203z" />
    <glyph glyph-name="f_t.liga" unicode="ft" horiz-adv-x="1515" 
d="M1413 1122q20 0 21 -20v-123q0 -23 -21 -23h-203q-41 0 -57 13q10 -20 10 -49v-893q0 -18 -18 -19h-152q-18 0 -18 19v893q0 29 10 47q-20 -10 -57 -11h-70h-4h-162h-4h-205q-43 0 -57 13q12 -20 12 -49v-893q0 -18 -18 -19h-152q-18 0 -18 19v893q0 31 10 49
q-14 -12 -57 -13h-113q-20 0 -20 21v125q0 20 20 20h113q45 0 57 -14q-10 16 -10 53v144q-2 147 91 245.5t247 100.5h76q16 0 16 -19v-127q0 -23 -21 -22l-20 2q-201 0 -201 -195v-129q0 -35 -12 -51q14 12 59 12h248h2h193q37 0 59 -10q-12 18 -12 49v256q0 12 16 19
q4 2 6 2l146 67q20 8 20 -14v-330q0 -35 -10 -51q12 12 59 12h201z" />
    <glyph glyph-name="g_i.liga" unicode="gi" horiz-adv-x="1656" 
d="M1319 1278q-18 0 -19 18v170q0 18 19 19h151q20 0 21 -19v-170q0 -18 -21 -18h-151zM399 -508q-141 0 -235 82t-94 215v80q0 76 38.5 142.5t98.5 94.5q-41 20 -65.5 58.5t-24.5 77.5v37q0 106 121 153q-123 88 -121 254v119q2 152 99 241t245 89h176q106 0 192 -50
q14 -10 21 -20q2 10 14 16q74 49 168 49h441q18 0 18 -18v-1085q0 -18 -18 -19h-152q-18 0 -18 19v942h-277q-59 0 -92 -8q-6 -2 -12 0q23 -25 22 -35q35 -49 35 -121v-119q-2 -147 -99.5 -238.5t-242.5 -91.5h-199q-156 0 -155 -82v-28q-2 -82 157 -82h277q137 0 228 -83
t91 -214v-74q0 -133 -99 -217t-239 -84h-299zM469 522h158q80 0 122 44t42 128v103q0 172 -164 172h-158q-80 0 -122 -43t-42 -129v-103q0 -172 164 -172zM416 -348h276q82 0 132 45t50 123v28q0 80 -48 124t-134 44h-297q-63 0 -112.5 -44t-49.5 -124v-24q0 -82 48.5 -127
t134.5 -45z" />
    <glyph glyph-name="j_j.liga" unicode="jj" horiz-adv-x="1048" 
d="M190 1278q-18 0 -18 18v170q0 18 18 19h152q20 0 20 -19v-170q0 -18 -20 -18h-152zM866 1485q20 0 21 -19v-170q0 -18 -21 -18h-151q-18 0 -19 18v170q0 18 19 19h151zM864 1122q18 0 19 -18v-1260q0 -145 -101.5 -248.5t-244.5 -103.5h-72q-127 0 -223 88
q-98 -88 -230 -88h-45q-20 0 -20 21v131q0 16 16 18h35q84 2 128 53.5t44 145.5v1243q0 18 18 18h152q18 0 18 -18v-1260q0 -59 -18 -116q37 -68 141 -68q2 0 6 2h35q84 2 128 53.5t44 145.5v1243q0 18 19 18h151z" />
    <glyph glyph-name=".notdef" horiz-adv-x="1433" 
d="M999 1513q180 0 253 -99t73 -318v-449q0 -217 -71.5 -314t-247.5 -97h-590q-176 0 -248 97t-72 314v449q0 219 72 318t252 99h579zM995 1436h-569q-133 0 -190.5 -64.5t-57.5 -243.5v-514q0 -176 57.5 -239.5t190.5 -63.5h569q131 0 188.5 63.5t57.5 239.5v514
q0 178 -57.5 243t-188.5 65zM393 494q-20 0 -8 16l250 375q4 6 4 14t-4 14l-217 322q-6 8 -3 13t11 5h104q12 0 19 -8l149 -237q6 -8 16.5 -8.5t16.5 8.5l150 237q6 8 18 8h105q8 0 11 -5t-3 -13l-217 -322q-4 -6 -4 -14t4 -14l249 -375q12 -16 -8 -16h-106q-10 0 -17 8
l-184 284q-6 8 -14 8.5t-15 -8.5l-184 -284q-6 -8 -16 -8h-107z" />
    <glyph glyph-name="glyph1" horiz-adv-x="0" 
 />
    <glyph glyph-name="glyph2" horiz-adv-x="681" 
 />
    <glyph glyph-name="uni0009" unicode="&#x9;" horiz-adv-x="651" 
 />
    <glyph glyph-name="space" unicode=" " horiz-adv-x="651" 
 />
    <glyph glyph-name="exclam" unicode="!" horiz-adv-x="636" 
d="M258 360q-18 0 -20 23l-15 1104q0 20 21 20h149q20 0 21 -20l-15 -1104q-2 -23 -20 -23h-121zM260 2q-20 0 -20 21v170q0 20 20 20h117q20 0 20 -20v-170q0 -20 -20 -21h-117z" />
    <glyph glyph-name="quotedbl" unicode="&#x22;" horiz-adv-x="798" 
d="M268 1591q23 0 21 -20l-29 -352q0 -23 -20 -23h-80q-20 0 -21 23l-28 352q-2 20 20 20h137zM614 1589q23 0 21 -20l-27 -352q-2 -23 -20 -23h-82q-18 0 -21 23l-28 352q-2 20 20 20h137z" />
    <glyph glyph-name="numbersign" unicode="#" horiz-adv-x="1689" 
d="M1526 1081q25 0 24 -18v-105q0 -18 -24 -18h-287l-70 -424h289q27 0 27 -18v-107q0 -18 -27 -18h-311l-60 -371q-4 -14 -20 -14h-96q-20 0 -23 22l56 363h-416l-60 -371q-4 -14 -20 -14h-96q-20 0 -23 22l55 363h-262q-27 0 -26 18v107q0 18 26 18h285l65 424h-284
q-27 0 -27 18v105q0 18 27 18h305l55 361q4 14 23 14h104q23 0 25 -22l-58 -353h410l57 361q4 14 21 14h104q23 0 25 -22l-57 -353h264zM1026 516l66 424h-412l-70 -424h416z" />
    <glyph glyph-name="dollar" unicode="$" horiz-adv-x="1144" 
d="M848 723q197 -78 196 -283v-118q0 -137 -99 -232.5t-240 -95.5h-60l-2 -199q0 -23 -20 -22h-119q-20 0 -21 22v199h-45q-139 0 -237.5 96t-98.5 234v120q0 23 21 23h153q23 0 21 -23v-108q0 -78 48 -124t122 -46h223q68 0 114 47t46 123v110q0 100 -117 150l-432 178
q-92 35 -143.5 109.5t-51.5 156.5v54q0 135 98.5 229t237.5 94h50v236q0 20 20 20h119q20 0 20 -20v-236h39q143 0 236.5 -96t93.5 -236v-53q0 -20 -23 -20h-151q-23 0 -23 20v66q0 61 -46 104t-113 43h-215q-61 0 -105.5 -45t-44.5 -106v-41q0 -104 107 -150z" />
    <glyph glyph-name="percent" unicode="%" horiz-adv-x="2332" 
d="M406 504q-109 0 -183 86t-73 203v512q0 117 71 202q76 88 185 88h153q104 0 178 -84q78 -86 78 -206v-512q0 -117 -74 -203t-182 -86h-153zM440 664h84q61 0 92 38q31 37 31 111v471q0 74 -30.5 113t-92.5 39h-84q-61 0 -92 -39t-31 -113v-471q0 -74 31 -111
q31 -38 92 -38zM1421 1128q10 0 16.5 -6t2.5 -16l-418 -901q-8 -18 -21 -19h-110q-12 0 -18.5 6.5t-2.5 16.5l418 901q8 18 21 18h112zM1772 -207q-106 0 -183 86q-74 84 -73 203v510q0 117 73 203q76 88 183 88h155q104 0 178 -82q78 -86 78 -209v-510q0 -119 -74 -203
q-76 -86 -182 -86h-155zM1808 -49h82q63 0 95 39q31 39 30 110v473q0 72 -30.5 111t-94.5 39h-82q-63 0 -94 -39t-31 -111v-473q0 -72 31 -110q31 -39 94 -39z" />
    <glyph glyph-name="ampersand" unicode="&#x26;" horiz-adv-x="1505" 
d="M532 -6q-143 0 -243.5 101.5t-100.5 246.5v188q0 141 95 234q8 8 8 20.5t-8 18.5q-86 86 -86 231v127q0 145 99 244.5t241 99.5h161q143 0 241.5 -99t98.5 -245v-37q0 -18 -18 -18h-152q-16 0 -16 18v27q0 88 -51 138t-144 50h-77q-94 0 -144.5 -50t-50.5 -138v-115
q0 -88 50 -136t143 -48h817q18 0 18 -18v-107q0 -18 -18 -18h-174v-369q0 -145 -100.5 -245.5t-243.5 -100.5h-345zM565 160h279q92 2 141 51t49 145l-2 353h-461q-197 0 -196 -201v-152q0 -96 49 -145t141 -51z" />
    <glyph glyph-name="quotesingle" unicode="'" horiz-adv-x="452" 
d="M295 1589q23 0 20 -20l-28 -352q-2 -23 -21 -23h-80q-20 0 -20 23l-29 352q-2 20 21 20h137z" />
    <glyph glyph-name="parenleft" unicode="(" horiz-adv-x="657" 
d="M506 -457q-147 12 -236.5 114.5t-89.5 256.5v1282q0 156 89 257t237 114q23 0 22 -21v-94q0 -20 -20 -22q-84 -12 -129 -75t-45 -173v-1258q0 -221 174 -243q20 -2 20 -23v-94q1 -23 -22 -21z" />
    <glyph glyph-name="parenright" unicode=")" horiz-adv-x="657" 
d="M152 -457q-23 -2 -23 21v94q0 20 21 23q174 23 174 243v1258q0 111 -45.5 173t-128.5 75q-20 2 -21 22v94q0 20 23 21q147 -12 236 -113.5t89 -257.5v-1282q0 -154 -89 -256.5t-236 -114.5z" />
    <glyph glyph-name="asterisk" unicode="*" horiz-adv-x="1112" 
d="M506 758q-20 0 -21 22v217q0 6 3.5 24.5t5.5 34.5l2 15l-12 -10q-11 -10 -25.5 -23.5t-22.5 -17.5l-172 -123q-16 -12 -28 6l-56 94q-12 20 6 29l207 139l53 23q-41 14 -55 22l-205 138q-18 10 -6 30l56 92q12 20 28 9l174 -125l58 -54q-10 61 -11 76v217q0 23 21 23h100
q20 0 21 -23v-217l-11 -76q43 41 58 54l172 125q16 14 28 -6l58 -95q10 -18 -6 -28l-205 -140l-59 -22q43 -14 57 -23l207 -139q18 -8 6 -29l-58 -94q-12 -18 -28 -6l-172 123l-58 51q10 -59 11 -74v-217q0 -23 -21 -22h-100z" />
    <glyph glyph-name="plus" unicode="+" horiz-adv-x="1110" 
d="M973 770q18 0 18 -18v-111q0 -18 -18 -18h-346v-365q0 -18 -19 -18h-106q-16 0 -17 18v365h-348q-16 0 -16 18v111q0 18 16 18h348v344q0 18 17 19h106q18 0 19 -19v-344h346z" />
    <glyph glyph-name="comma" unicode="," horiz-adv-x="512" 
d="M348 18v-2v-94q0 -74 -39 -118t-102 -50h-27q-10 -2 -10 10v64q0 8 8 10h10q29 6 41.5 25.5t12.5 70.5v68h-52q-20 0 -20 21v167q0 20 20 21h138q20 0 20 -21v-167v-5z" />
    <glyph glyph-name="hyphen" unicode="-" horiz-adv-x="897" 
d="M715 668q18 0 18 -17v-108q0 -18 -18 -19h-533q-18 0 -18 19v108q0 16 18 17h533z" />
    <glyph glyph-name="period" unicode="." horiz-adv-x="505" 
d="M322 211q20 0 20 -21v-167q0 -20 -20 -21h-138q-20 0 -20 21v167q0 20 20 21h138z" />
    <glyph glyph-name="slash" unicode="/" horiz-adv-x="675" 
d="M-4 -10q-23 0 -21 22l531 1403q6 14 22 15h154q20 0 18 -21l-538 -1403q-6 -16 -25 -16h-141z" />
    <glyph glyph-name="zero" unicode="0" horiz-adv-x="1202" 
d="M492 -4q-143 0 -242.5 107.5t-99.5 256.5v687q0 152 99 260t243 108h219q143 0 243.5 -108.5t100.5 -259.5v-687q0 -150 -100.5 -257t-243.5 -107h-219zM543 164h116q100 0 151.5 58.5t51.5 164.5v633q0 109 -51 167t-152 58h-116q-100 0 -151.5 -58.5t-51.5 -166.5v-633
q0 -106 51.5 -164.5t151.5 -58.5z" />
    <glyph glyph-name="one" unicode="1" horiz-adv-x="786" 
d="M715 164q20 0 20 -21v-123q0 -20 -20 -20h-611q-20 0 -20 20v123q0 20 20 21h160q35 0 70 -17q-18 29 -19 56v1001q0 23 17 53q-43 -18 -68 -18h-215q-18 0 -18 16v138q0 16 18 16h430q20 0 21 -20v-1186q0 -33 -17 -56q37 16 70 17h162z" />
    <glyph glyph-name="two" unicode="2" horiz-adv-x="1071" 
d="M948 164q20 0 21 -21v-123q0 -20 -21 -20h-876q-20 0 -21 20v199q0 68 27.5 113t101.5 86l520 393q37 31 55.5 58.5t18.5 72.5v98q0 92 -47 148.5t-133 56.5h-170q-68 0 -114 -30.5t-62 -86.5l-2 -18q0 -16 -21 -16h-155q-18 0 -17 18l2 10q20 127 108.5 210t219.5 83
h233q145 0 247 -108.5t102 -255.5v-115q0 -80 -44 -146.5t-120 -111.5l-525 -389q-33 -23 -32 -49v-39q0 -29 -13 -54q35 16 54 17h663z" />
    <glyph glyph-name="three" unicode="3" horiz-adv-x="1087" 
d="M868 745q53 -43 89 -113.5t36 -146.5v-129q0 -150 -101 -255t-249 -105h-266q-131 0 -220 82t-110 209l-2 14q0 20 16 21h158q18 0 21 -17v-26q16 -53 62 -84t114 -31h184q98 0 149.5 57.5t51.5 165.5v78q0 106 -51.5 164.5t-149.5 58.5h-172q-12 0 -12 10v115
q0 10 12 10h150q94 0 146 53.5t52 129.5v38q0 96 -50 148.5t-148 52.5h-150q-70 0 -115 -30.5t-61 -86.5l-2 -18q-2 -16 -21 -16h-155q-18 0 -17 18v10q20 127 109.5 210t220.5 83h238q147 0 245.5 -100.5t98.5 -249.5v-61q0 -57 -28 -119t-71 -99q-25 -20 -39 -24
q17 -3 37 -17z" />
    <glyph glyph-name="four" unicode="4" horiz-adv-x="1153" 
d="M1098 473q20 0 20 -18v-113q0 -20 -20 -20h-129q-29 0 -51 12q12 -23 12 -49v-269q0 -16 -19 -16h-157q-16 0 -17 16v269q0 27 13 51q-25 -14 -54 -14h-635q-16 0 -16 16l2 131q0 10 4 18l613 912q6 10 20 10h231q14 0 15 -14v-883q0 -29 -15 -51q29 12 52 12h131z
M287 473h409q27 0 52 -12q-10 23 -11 47v657q0 29 6 64q-16 -41 -26 -58l-457 -655q-18 -29 -57 -55q41 12 84 12z" />
    <glyph glyph-name="five" unicode="5" horiz-adv-x="1081" 
d="M668 877q145 0 246.5 -107.5t101.5 -257.5v-152q0 -150 -101.5 -257t-246.5 -107h-271q-131 0 -220 82t-109 209v14q-2 20 16 21h156q18 0 20 -19v-22q16 -53 62.5 -84t113.5 -31h207q88 0 134 56.5t46 146.5v153q0 90 -46 146.5t-134 56.5h-207q-23 0 -39 -4l-61 -23
q-25 -6 -39 -6h-131q-23 0 -23 25v672q0 20 21 20h762q20 0 20 -20v-132q0 -18 -20 -18h-549q-25 0 -60 16q18 -37 19 -55v-330q0 -10 -14 -36q35 20 36 20l43 16q25 6 50 7h217z" />
    <glyph glyph-name="six" unicode="6" horiz-adv-x="1159" 
d="M492 -4q-152 0 -247 106.5t-95 259.5v701q0 147 100 249.5t248 102.5h215q131 0 220 -83t107 -210l2 -10q2 -18 -16 -18h-156q-20 0 -20 16l-2 18q-35 117 -168 117h-160q-88 0 -134 -50t-46 -142v-201q0 -14 -12 -39q31 14 34 16l44 15q23 4 45 4h280
q145 0 246.5 -107.5t101.5 -257.5v-123q0 -150 -101 -257t-247 -107h-239zM530 166h179q86 0 133 56.5t47 146.5v120q0 94 -48 149.5t-139 55.5h-245q-25 0 -47 -4l-48 -16q-4 0 -32 6q12 -23 12 -31v-282q0 -90 49 -145.5t139 -55.5z" />
    <glyph glyph-name="seven" unicode="7" horiz-adv-x="915" 
d="M848 1409q14 0 14 -18v-134q0 -10 -6 -22l-440 -1221q-6 -14 -21 -14h-157q-20 0 -13 20l434 1168q18 47 54 78l-15 -8q-16 -9 -33.5 -14t-33.5 -5h-580q-20 0 -20 18v132q0 20 20 20h797z" />
    <glyph glyph-name="eight" unicode="8" horiz-adv-x="1150" 
d="M932 745q53 -35 89 -108.5t36 -151.5v-129q0 -150 -101.5 -255t-248.5 -105h-263q-147 0 -247.5 105.5t-100.5 254.5v129q0 78 35 152t90 108q27 14 47 19q-20 4 -49 20q-45 31 -72.5 94.5t-27.5 125.5v61q0 150 97 250t247 100h227q147 0 244.5 -100.5t97.5 -249.5v-61
q0 -61 -27.5 -125t-72.5 -95q-33 -20 -51 -20q18 -1 51 -19zM311 1044v-38q0 -76 52.5 -129.5t146.5 -53.5h131q94 0 146.5 53.5t52.5 129.5v38q0 96 -50.5 148.5t-148.5 52.5h-131q-98 0 -148.5 -52.5t-50.5 -148.5zM864 387v78q0 106 -51 164.5t-149 58.5h-175
q-100 0 -151 -58.5t-51 -164.5v-78q0 -109 51 -166t151 -57h175q98 -2 149 56t51 167z" />
    <glyph glyph-name="nine" unicode="9" horiz-adv-x="1159" 
d="M1010 1047v-699q0 -147 -100.5 -250.5t-247.5 -101.5h-232q-133 0 -222 82t-108 209l-2 6q-2 20 17 20h157q18 0 21 -18v-12q35 -117 170 -117h176q88 -2 133 48t45 144v191q0 14 17 43q-2 0 -9.5 -4t-15.5 -9.5t-14 -7.5l-45 -14q-18 -4 -43 -4h-279
q-147 0 -248.5 107.5t-101.5 257.5v133q0 150 101.5 257t248.5 107h240q152 0 247 -107t95 -261zM702 707q20 0 39 4l52 16q6 2 38 -6q-14 25 -14 31v292q0 90 -50 145.5t-140 55.5h-176q-88 0 -134.5 -56t-46.5 -149v-129q0 -94 47.5 -149t139.5 -55h245z" />
    <glyph glyph-name="colon" unicode=":" horiz-adv-x="505" 
d="M322 901q20 0 20 -22v-166q0 -23 -20 -23h-138q-20 0 -20 23v166q0 23 20 22h138zM322 211q20 0 20 -21v-167q0 -20 -20 -21h-138q-20 0 -20 21v167q0 20 20 21h138z" />
    <glyph glyph-name="semicolon" unicode=";" horiz-adv-x="512" 
d="M322 690h-138q-20 0 -20 21v168q0 20 20 20h138q20 0 20 -20v-168q0 -21 -20 -21zM348 18v-2v-94q0 -74 -39 -118t-102 -50h-27q-10 -2 -10 10v64q0 8 8 10h10q29 6 41.5 25.5t12.5 70.5v68h-52q-20 0 -20 21v167q0 20 20 21h138q20 0 20 -21v-167v-5z" />
    <glyph glyph-name="less" unicode="&#x3c;" horiz-adv-x="1097" 
d="M967 1026l-506 -295q-33 -18 -96 -31q63 -12 96 -30l506 -293q12 -6 12 -21v-145q0 -25 -23 -12l-829 493q-16 8 0 17l829 495q23 12 23 -12v-143q0 -17 -12 -23z" />
    <glyph glyph-name="equal" unicode="=" horiz-adv-x="1130" 
d="M137 758q-16 0 -16 18v109q0 16 16 16h856q18 0 19 -16v-109q0 -18 -19 -18h-856zM137 365q-16 0 -16 18v109q0 18 16 18h856q18 0 19 -18v-109q0 -18 -19 -18h-856z" />
    <glyph glyph-name="greater" unicode="&#x3e;" horiz-adv-x="1097" 
d="M131 1026q-10 6 -10 23v143q0 25 20 12l832 -495q14 -8 0 -17l-832 -493q-20 -12 -20 12v145q0 14 10 21l506 293q35 18 96 30q-61 12 -96 31z" />
    <glyph glyph-name="question" unicode="?" horiz-adv-x="1159" 
d="M666 1505q143 0 244.5 -96t101.5 -240v-125q0 -94 -50.5 -175t-140.5 -119l-127 -58q-115 -55 -114 -162l-5 -149q0 -20 -20 -21h-117q-20 0 -20 23l-2 162q-2 203 190 293l115 55q96 45 96 158v123q0 66 -43 112.5t-108 48.5h-174q-70 0 -119 -46t-49 -113v-115
q0 -20 -21 -21h-133q-20 0 -20 21v104q0 147 95 243.5t242 96.5h179zM442 0q-20 0 -20 20v166q0 20 20 21h115q20 0 21 -21v-166q0 -20 -21 -20h-115z" />
    <glyph glyph-name="at" unicode="@" horiz-adv-x="1968" 
d="M1819 604q0 -131 -39 -256t-120 -214t-187 -89q-143 0 -183 145q-27 -37 -47 -49q-29 -39 -87 -67.5t-124 -28.5h-133q-141 0 -242.5 103.5t-101.5 248.5v324q0 145 98.5 247.5t235.5 102.5h106q86 0 181 -70q33 -23 53 -57q-4 35 -6 80l-2 18q0 16 20 17h141
q20 0 21 -21v-727q0 -117 92 -116q47 0 84 44t57.5 109.5t29.5 129t9 114.5q0 348 -174 539.5t-495 191.5q-332 0 -523.5 -207t-191.5 -549q0 -344 191.5 -552t523.5 -208q205 0 362 93q10 8 16 -2l60 -95q6 -12 -4 -18q-182 -113 -432 -113q-381 0 -619.5 247t-238.5 648
t230 647t626 246q373 0 593 -229.5t220 -626.5zM1210 406v303q0 197 -196 196h-76q-195 0 -195 -196v-303q0 -197 195 -197h76q196 0 196 197z" />
    <glyph glyph-name="A" unicode="A" horiz-adv-x="1247" 
d="M1180 20q8 -20 -15 -20h-166q-16 0 -20 14l-82 344q-2 6 -2 45q-27 -8 -49 -8h-445q-23 0 -47 8q-2 -41 -2 -45l-84 -344q-4 -14 -20 -14h-166q-20 0 -14 20l372 1377q4 14 21 14h325q16 0 21 -14zM813 551q20 0 53 -10q-25 33 -30 55l-148 592q-10 33 6 57
q-10 -10 -24 -10h-92q-14 0 -25 10q16 -25 8 -57l-149 -592q-6 -23 -31 -55q33 10 55 10h377z" />
    <glyph glyph-name="B" unicode="B" horiz-adv-x="1210" 
d="M203 0q-23 0 -23 20v1371q0 20 23 20h585q139 0 235.5 -94t96.5 -234v-100q0 -63 -26.5 -124.5t-69.5 -94.5q-10 -10 -23 -19q12 -6 23 -16q45 -39 75.5 -99.5t30.5 -119.5v-182q0 -137 -99 -232.5t-238 -95.5h-590zM365 797q33 14 53 14h323q88 0 136.5 46t48.5 130v84
q0 82 -48.5 128t-136.5 46h-323q-8 0 -18.5 2t-16.5 5l-12 6l-6 2q10 -33 10 -48v-368q0 -8 -10 -47zM365 150l9 4t20.5 8t23.5 4h323q86 0 135.5 45t49.5 125v164q0 82 -48.5 128t-136.5 46h-323q-18 0 -53 16q10 -41 10 -49v-444z" />
    <glyph glyph-name="C" unicode="C" horiz-adv-x="1177" 
d="M909 983q-18 0 -18 18v60q0 92 -50 138t-139 46h-172q-88 0 -137 -46t-49 -138v-713q0 -90 49 -136t137 -46h172q90 0 139.5 46t49.5 136v72q0 18 18 18h158q18 0 18 -18v-94q0 -137 -98 -233.5t-233 -96.5h-275q-135 0 -232 96t-97 234v757q0 137 97 235.5t232 98.5h275
q135 0 233 -98t98 -236v-82q0 -18 -18 -18h-158z" />
    <glyph glyph-name="D" unicode="D" horiz-adv-x="1275" 
d="M199 0q-18 0 -19 18v1375q0 18 19 18h589q141 0 240.5 -97t99.5 -237v-743q0 -139 -99 -236.5t-241 -97.5h-589zM362 158q39 14 56 14h330q86 0 135 46t49 126v723q0 80 -49 126t-135 46h-330q-18 0 -53 16q10 -31 10 -49v-1003q-1 -16 -13 -45z" />
    <glyph glyph-name="E" unicode="E" horiz-adv-x="1067" 
d="M203 0q-23 0 -23 20v1371q0 20 23 20h745q18 0 19 -18v-136q0 -18 -19 -18h-530q-16 0 -53 14q10 -31 10 -47v-346q0 -16 -13 -47q37 16 56 16l477 -2q18 0 18 -16v-119q0 -18 -18 -18h-477q-12 0 -56 14q12 -27 13 -47v-436q0 -20 -13 -49q43 16 56 16h571q18 0 19 -18
v-136q0 -18 -19 -18h-786z" />
    <glyph glyph-name="F" unicode="F" horiz-adv-x="976" 
d="M948 1411q18 0 19 -18v-136q0 -18 -19 -18h-530q-12 0 -56 14q12 -27 13 -47v-356q0 -16 -13 -45q37 14 56 14h436q18 0 18 -18v-119q0 -18 -18 -18h-436q-16 0 -56 16q12 -31 13 -49v-613q0 -18 -19 -18h-157q-18 0 -19 18v1373q0 20 23 20h745z" />
    <glyph glyph-name="G" unicode="G" horiz-adv-x="1212" 
d="M487 -6q-141 0 -239 97t-98 235v757q0 139 98 236.5t239 97.5h258q139 0 237.5 -96t98.5 -227v-47q0 -18 -18 -19h-156q-18 0 -18 19v28q0 82 -49 126t-138 44h-174q-88 0 -136 -47t-48 -129v-721q0 -90 49 -136t137 -46h172q88 0 137.5 46t49.5 136v230q0 12 14 49
q-39 -16 -55 -17h-164q-18 0 -18 19v104q2 18 20 19h379q18 0 18 -19v-407q0 -137 -99 -234.5t-239 -97.5h-258z" />
    <glyph glyph-name="H" unicode="H" horiz-adv-x="1310" 
d="M1120 1411q18 0 19 -18v-1375q0 -18 -19 -18h-157q-18 0 -19 18v600q0 18 12 48q-39 -14 -55 -15h-491q-18 0 -56 15q12 -31 13 -48v-600q0 -18 -19 -18h-158q-18 0 -18 18v1375q0 18 18 18h158q18 0 19 -18v-555q0 -18 -13 -47q37 14 56 14h491q18 0 55 -14
q-12 29 -12 47v555q0 18 19 18h157z" />
    <glyph glyph-name="I" unicode="I" horiz-adv-x="555" 
d="M354 1411q20 0 21 -18v-1375q0 -18 -21 -18h-153q-20 0 -21 18v1375q0 18 21 18h153z" />
    <glyph glyph-name="J" unicode="J" horiz-adv-x="598" 
d="M20 -154q-23 0 -22 23v115q0 20 20 20h37q82 0 132.5 42t50.5 126v1219q0 23 22 22h152q23 0 22 -22v-1211q0 -137 -99 -235.5t-239 -98.5h-76z" />
    <glyph glyph-name="K" unicode="K" horiz-adv-x="1181" 
d="M199 0q-18 0 -19 18v1375q0 18 19 18h157q18 0 19 -18v-559q0 -57 -13 -121q29 53 70 104l471 584q8 10 23 10h196q10 0 14.5 -7t-3.5 -15l-428 -517q-14 -16 -33 -24l6 -4t12 -9.5t10 -11.5l494 -800q6 -10 3 -16.5t-15 -6.5h-174q-14 0 -21 12l-405 664q-10 14 -15 53
q-14 -33 -30 -51l-142 -178q-6 -6 -14 -10.5t-15.5 -6.5t-9.5 -4l10 -10q9 -10 9 -20v-431q0 -18 -19 -18h-157z" />
    <glyph glyph-name="L" unicode="L" horiz-adv-x="901" 
d="M203 0q-23 0 -23 20v1371q0 20 23 20h149q23 0 23 -20v-1182q0 -18 -13 -49q33 12 56 12h465q23 0 22 -20v-132q0 -20 -22 -20h-680z" />
    <glyph glyph-name="M" unicode="M" horiz-adv-x="1703" 
d="M1501 1411q23 0 23 -20v-1371q0 -20 -23 -20h-149q-23 0 -23 20v914q0 41 17 164q-12 -39 -60 -156l-371 -924q-4 -14 -20 -14h-86q-16 0 -21 14l-370 924q-47 115 -60 154q16 -123 17 -164v-912q0 -20 -23 -20h-149q-23 0 -23 20v1371q0 20 23 20h182q18 0 25 -16
l415 -1016q16 -41 27 -100q10 59 27 102l415 1014q6 16 25 16h182z" />
    <glyph glyph-name="N" unicode="N" horiz-adv-x="1378" 
d="M1176 1411q23 0 22 -20v-1371q0 -20 -20 -20h-144q-16 0 -24 14l-594 1002q-47 80 -58 102q0 -4 5.5 -27.5t8.5 -47t3 -42.5v-981q0 -20 -23 -20h-149q-23 0 -23 20v1371q0 20 23 20h151q16 0 25 -14l586 -981q45 -74 55 -101q0 4 -4 27t-8 47.5t-4 42.5v959q0 20 22 20
h150z" />
    <glyph glyph-name="O" unicode="O" 
d="M479 -4q-135 0 -232 96t-97 234v757q0 137 97 235.5t232 98.5h285q135 0 232.5 -98t97.5 -236v-757q0 -137 -97.5 -233.5t-232.5 -96.5h-285zM530 166h183q88 0 137 46t49 136v713q0 92 -49 138t-137 46h-183q-88 0 -137 -46t-49 -138v-713q0 -90 49 -136t137 -46z" />
    <glyph glyph-name="P" unicode="P" horiz-adv-x="1138" 
d="M193 0q-20 0 -21 20v1371q0 20 21 20h561q141 0 239.5 -95t98.5 -233v-211q0 -137 -98.5 -231t-239.5 -94h-338q-25 0 -62 16q12 -33 13 -55v-488q0 -20 -23 -20h-151zM897 883v184q0 80 -49 126t-137 46h-301q-16 0 -56 14q12 -29 13 -49v-459q0 -18 -13 -49
q35 16 56 17h301q88 0 137 46t49 124z" />
    <glyph glyph-name="Q" unicode="Q" 
d="M573 -238q-23 0 -22 21v178q0 23 12 47q-31 -14 -43 -12h-51q-133 4 -226 100.5t-93 229.5v757q0 137 97 235.5t232 98.5h285q135 0 232.5 -98t97.5 -236v-757q0 -133 -93.5 -229.5t-226.5 -100.5h-49q-14 0 -43 12q10 -27 10 -47v-178q0 -20 -20 -21h-99zM530 166h183
q88 0 137 46t49 136v713q0 92 -49 138t-137 46h-183q-88 0 -137 -46t-49 -138v-713q0 -90 49 -136t137 -46z" />
    <glyph glyph-name="R" unicode="R" horiz-adv-x="1202" 
d="M203 0q-23 0 -23 20v1371q0 20 23 20h561q139 0 238.5 -95t99.5 -233v-147q0 -111 -70.5 -196t-177.5 -105q-27 -2 -63 6q33 -35 40 -51l302 -565q6 -10 0.5 -17.5t-15.5 -7.5h-157q-16 0 -25 14l-299 566q-2 4 -12 45q-23 -14 -37 -15h-176q-18 0 -45 13q8 -27 8 -48
v-555q0 -20 -23 -20h-149zM365 754q35 14 53 14h301q88 0 137 46t49 126v127q0 80 -49 126t-137 46h-301q-16 0 -56 14q12 -29 13 -47v-405q0 -14 -10 -47z" />
    <glyph glyph-name="S" unicode="S" horiz-adv-x="1118" 
d="M440 -6q-141 0 -239.5 97t-98.5 237v118q0 20 21 21h151q23 0 23 -21v-98q0 -90 49 -136t137 -46h156q86 0 135 47t49 135v94q0 100 -114 154l-408 176q-92 37 -143.5 110.5t-51.5 155.5v49q0 135 98.5 232.5t237.5 97.5h222q143 0 237 -96t94 -238v-51q0 -20 -22 -20
h-152q-23 0 -22 20v51q0 74 -47 118t-129 44h-156q-78 0 -123 -45t-45 -119v-28q0 -100 107 -148l417 -182q100 -43 147.5 -110.5t47.5 -172.5v-116q0 -137 -100.5 -233.5t-241.5 -96.5h-236z" />
    <glyph glyph-name="T" unicode="T" horiz-adv-x="884" 
d="M897 1411q20 0 21 -20v-131q0 -20 -21 -21h-313q-14 0 -56 16q10 -29 11 -47v-1188q0 -20 -21 -20h-151q-20 0 -21 20v1188q0 20 10 45l-6 -3t-12 -5t-17.5 -4t-19.5 -2h-313q-20 0 -21 21v131q0 20 21 20h909z" />
    <glyph glyph-name="U" unicode="U" horiz-adv-x="1263" 
d="M1083 1411q23 0 23 -20v-1063q0 -137 -99.5 -234.5t-240.5 -97.5h-268q-141 0 -239.5 97t-98.5 235v1063q0 20 20 20h152q23 0 22 -20v-1043q0 -90 49.5 -136t137.5 -46h182q88 0 137 46t49 136v1043q0 20 23 20h151z" />
    <glyph glyph-name="V" unicode="V" horiz-adv-x="1187" 
d="M528 0q-23 0 -26 16l-492 1370q-10 25 17 25h159q18 0 25 -16l358 -1039q10 -31 25 -114q14 86 24 114l359 1039q6 16 24 16h160q27 0 17 -25l-490 -1370q-6 -16 -29 -16h-131z" />
    <glyph glyph-name="W" unicode="W" horiz-adv-x="1726" 
d="M393 0q-18 0 -22 18l-379 1368q-8 25 18 25h158q18 0 25 -18l260 -1047q12 -47 20 -137q10 90 23 137l266 1047q4 18 22 18h156q20 0 25 -18l266 -1049q12 -45 20 -135q10 92 23 137l260 1047q4 18 25 18h157q27 0 19 -25l-379 -1368q-6 -18 -25 -18h-149q-18 0 -23 18
l-274 1014q-12 49 -23 131q-8 -80 -20 -129l-275 -1016q-4 -18 -24 -18h-150z" />
    <glyph glyph-name="X" unicode="X" horiz-adv-x="1167" 
d="M1165 27q8 -12 4 -19.5t-18 -7.5h-182q-16 0 -25 12l-332 516q-16 27 -30 70q-14 -49 -29 -72l-330 -514q-8 -12 -24 -12h-185q-12 0 -16 7t2 20l455 694q4 8 26 20q-23 14 -26 21l-424 622q-8 12 -4 19.5t18 7.5h182q18 0 27 -14l299 -455q14 -20 31 -74q14 49 28 72
l301 457q8 14 25 14h184q14 0 18.5 -8t-3.5 -19l-424 -622q-4 -4 -29 -21q25 -16 29 -20z" />
    <glyph glyph-name="Y" unicode="Y" horiz-adv-x="1064" 
d="M455 0q-20 0 -21 20v496q0 4 1 8l2 8l1 3q-12 14 -16 22l-457 827q-6 12 -2 19.5t19 7.5h161q18 0 25 -14l336 -619q14 -29 28 -84q14 57 27 84l336 619q8 14 27 14h161q12 0 17.5 -7t-0.5 -20l-457 -827q-4 -8 -16 -22l1 -3l2 -8t1 -8v-496q0 -20 -23 -20h-153z" />
    <glyph glyph-name="Z" unicode="Z" horiz-adv-x="980" 
d="M936 172q23 0 22 -20v-132q0 -20 -22 -20h-893q-16 0 -16 25v112q0 20 10 39l622 1014q8 12 20.5 25.5t24 21.5t13.5 10q-29 -8 -76 -8h-528q-23 0 -23 21l2 131q0 20 21 20h782q10 0 13 -5t3 -20v-114q0 -18 -12 -39l-620 -1010q-10 -14 -23.5 -28.5t-26 -24.5
t-12.5 -12q35 14 86 14h633z" />
    <glyph glyph-name="bracketleft" unicode="[" horiz-adv-x="655" 
d="M221 -461q-20 0 -20 23v1986q0 20 20 21h285q20 0 20 -21v-94q0 -20 -20 -20h-152v-1760h152q20 0 20 -20v-92q0 -23 -20 -23h-285z" />
    <glyph glyph-name="backslash" unicode="\" horiz-adv-x="675" 
d="M539 -10q-16 0 -25 16l-539 1403q-2 20 21 21h151q16 0 25 -15l528 -1403q2 -23 -18 -22h-143z" />
    <glyph glyph-name="bracketright" unicode="]" horiz-adv-x="655" 
d="M150 -461q-20 0 -21 23v92q0 20 21 20h153v1760h-153q-20 0 -21 20v94q0 20 21 21h284q20 0 21 -21v-1986q0 -23 -21 -23h-284z" />
    <glyph glyph-name="asciicircum" unicode="^" horiz-adv-x="1331" 
d="M233 918q-6 -10 -22 -11h-143q-25 0 -13 21l496 831q8 14 16 0l494 -831q12 -20 -12 -21h-146q-14 0 -20 11l-293 505q-18 35 -31 97q-12 -61 -31 -97z" />
    <glyph glyph-name="underscore" unicode="_" horiz-adv-x="1030" 
d="M782 158q16 0 17 -17v-123q0 -18 -17 -18h-534q-16 0 -17 18v123q0 16 17 17h534z" />
    <glyph glyph-name="grave" unicode="`" horiz-adv-x="587" 
d="M258 1550q14 0 23 -12l172 -252q4 -8 1 -13t-14 -5h-94q-12 0 -22 10l-211 250q-6 8 -3 15t13 7h135z" />
    <glyph glyph-name="a" unicode="a" horiz-adv-x="1110" 
d="M647 1135q129 0 223.5 -97.5t94.5 -234.5v-778q0 -16 -19 -17h-135q-20 0 -20 17v16q0 12 3 28.5t7 31t4 16.5q-14 -27 -55 -58q-33 -29 -85.5 -46t-101.5 -17h-162q-127 0 -220 85t-93 214v67q0 129 92 210t238 81h319q27 0 47 -10q-8 27 -8 41v117q0 82 -45 126
t-127 44h-129q-78 0 -119 -42t-41 -120v-8q0 -14 -14 -15h-149q-18 0 -19 17v24q0 123 91 215.5t216 92.5h207zM604 160q84 0 128 43t44 123v168q0 2 8 38q-20 -10 -47 -10h-288q-82 0 -127.5 -46t-45.5 -126v-18q0 -172 185 -172h143z" />
    <glyph glyph-name="b" unicode="b" horiz-adv-x="1157" 
d="M707 1135q139 0 231 -97.5t92 -246.5v-451q0 -150 -94 -247t-236 -97h-131q-94 0 -178 70q-37 27 -55 57q8 -45 8 -62v-34q0 -18 -18 -19h-142q-18 0 -18 17v1609q0 16 18 17h152q18 0 18 -17v-540q0 -14 -3 -32t-7 -32t-4 -16q14 27 55 57q76 63 193 64h119zM842 360
v410q0 201 -187 201h-137q-164 0 -164 -172v-469q0 -170 164 -170h137q187 -1 187 200z" />
    <glyph glyph-name="c" unicode="c" horiz-adv-x="1077" 
d="M633 1135q152 0 247 -103.5t95 -234.5v-33q0 -18 -19 -19h-151q-18 0 -19 19v20q0 184 -184 185h-96q-92 0 -139.5 -48.5t-47.5 -152.5v-406q0 -104 47.5 -153t139.5 -49h96q184 0 184 184v21q0 18 19 18h151q18 0 19 -18v-33q0 -131 -95.5 -234.5t-246.5 -103.5h-160
q-147 0 -244.5 101.5t-97.5 252.5v432q0 152 97.5 253.5t244.5 101.5h160z" />
    <glyph glyph-name="d" unicode="d" horiz-adv-x="1159" 
d="M457 -4q-141 0 -235.5 97t-94.5 247v451q0 150 92 247t232 97h118q117 0 193 -64q41 -31 55 -57q0 2 -4 16t-7 31.5t-3 32.5v540q0 16 18 17h152q18 0 18 -17v-1609q0 -16 -18 -17h-139q-18 0 -19 19v34q0 16 6 62q-16 -31 -53 -57q-86 -70 -180 -70h-131zM502 160h139
q162 0 162 170v469q0 172 -162 172h-139q-186 0 -187 -201v-410q1 -200 187 -200z" />
    <glyph glyph-name="e" unicode="e" horiz-adv-x="1099" 
d="M657 1135q137 0 242 -100.5t105 -241.5v-248q0 -18 -19 -19h-623q-41 0 -57 13q10 -18 10 -45v-150q0 -86 45.5 -135t135.5 -49h139q78 0 120 41t42 118l2 9q0 14 16 14h152q18 0 16 -18v-19q-10 -127 -103.5 -219t-217.5 -92h-189q-143 0 -244.5 102.5t-101.5 249.5v436
q0 145 101.5 249t244.5 104h184zM768 659q37 0 57 -12q-10 25 -10 51v107q0 80 -45 123t-127 43h-154q-84 0 -129 -43t-45 -123v-107q0 -25 -10 -51q20 12 57 12h406z" />
    <glyph glyph-name="f" unicode="f" horiz-adv-x="753" 
d="M688 1122q20 0 21 -20v-125q0 -20 -21 -21h-205q-43 0 -57 13q12 -20 12 -49v-893q0 -18 -18 -19h-152q-18 0 -18 19v893q0 31 10 49q-14 -12 -57 -13h-113q-20 0 -20 21v125q0 20 20 20h113q45 0 57 -14q-10 16 -10 53v144q-2 147 91 245.5t247 100.5h76q16 0 16 -19
v-127q0 -23 -21 -22l-20 2q-201 0 -201 -195v-129q0 -35 -12 -51q14 12 61 12h201z" />
    <glyph glyph-name="g" unicode="g" horiz-adv-x="1122" 
d="M1047 969q-53 0 -97 -15q-6 0 -13 1t-11 3l-4 3q23 -20 22 -35q35 -51 35 -121v-119q-2 -147 -99.5 -238.5t-242.5 -91.5h-199q-156 0 -155 -82v-28q0 -82 157 -82h277q137 0 228 -83t91 -214v-74q0 -133 -99 -217t-239 -84h-299q-141 0 -235 82t-94 215v80
q0 76 38.5 142.5t98.5 94.5q-41 20 -65.5 58.5t-24.5 77.5v37q0 106 121 153q-123 88 -121 254v119q2 152 99 241t243 89h178q106 0 192 -50q10 -8 21 -20q4 12 14 16q74 49 168 49h86q18 0 19 -18v-125q0 -18 -19 -18h-71zM791 694v103q0 172 -164 172h-158q-80 0 -122 -43
t-42 -129v-103q0 -172 164 -172h158q80 0 122 44t42 128zM692 16h-297q-63 0 -112.5 -44t-49.5 -124v-24q0 -82 48.5 -127t134.5 -45h276q82 0 132 45t50 123v28q0 80 -48 124t-134 44z" />
    <glyph glyph-name="h" unicode="h" horiz-adv-x="1155" 
d="M686 1135q139 0 230.5 -97.5t91.5 -246.5v-762q0 -20 -21 -21h-147q-20 0 -21 21v741q0 201 -186 201h-90q-94 0 -140.5 -49.5t-46.5 -153.5v-741q0 -18 -20 -19h-152q-18 0 -18 17v1609q0 16 18 17h154q18 0 18 -17v-540q0 -14 -4 -32t-7 -32t-5 -16q16 27 57 57
q76 63 193 64h96z" />
    <glyph glyph-name="i" unicode="i" horiz-adv-x="520" 
d="M184 1278q-18 0 -18 18v170q0 18 18 19h152q18 0 18 -19v-170q0 -18 -18 -18h-152zM336 1122q18 0 18 -18v-1077q0 -18 -18 -19h-152q-18 0 -18 19v1077q0 18 18 18h152z" />
    <glyph glyph-name="j" unicode="j" horiz-adv-x="524" 
d="M190 1278q-18 0 -18 18v170q0 18 18 19h152q20 0 20 -19v-170q0 -18 -20 -18h-152zM340 1122q18 0 18 -18v-1260q0 -145 -101 -248.5t-245 -103.5h-45q-20 0 -20 21v131q0 16 16 18h35q84 2 128 53.5t44 145.5v1243q0 18 18 18h152z" />
    <glyph glyph-name="k" unicode="k" horiz-adv-x="1017" 
d="M184 8q-18 0 -18 19v1599q0 18 18 19h152q18 0 18 -19v-889q0 -74 -18 -153q31 70 82 135l330 418q10 12 24 12h178q12 0 15.5 -8t-4.5 -19l-328 -401q-14 -18 -33 -27q18 -8 31 -26l379 -633q6 -12 2 -19.5t-17 -7.5h-164q-14 0 -24 15l-287 495q-12 23 -18 62
q-4 -27 -27 -54l-115 -143q-4 -8 -14 -8l4 -4t4 -11v-333q0 -18 -18 -19h-152z" />
    <glyph glyph-name="l" unicode="l" horiz-adv-x="522" 
d="M336 1636q18 0 18 -18v-1591q0 -18 -18 -19h-152q-18 0 -18 19v1591q0 18 18 18h152z" />
    <glyph glyph-name="m" unicode="m" horiz-adv-x="1832" 
d="M1362 1135q133 0 228.5 -99.5t95.5 -242.5v-766q0 -18 -19 -19h-151q-18 0 -19 19v743q0 201 -192 201h-103q-84 0 -129 -44t-45 -128v-772q0 -18 -18 -19h-152q-18 0 -18 19v743q0 201 -193 201h-121q-82 0 -127 -44t-45 -128v-772q0 -18 -18 -19h-152q-18 0 -18 19
v1077q0 18 18 18h135q20 0 21 -18v-10q0 -18 -6 -52t-6 -36q18 39 53 65q33 29 85 46.5t101 17.5h133q72 0 135.5 -31t106.5 -80q8 -8 12 -18.5t5.5 -16.5t1.5 -13v-7q4 16 40 57q45 49 112 79t138 30h111z" />
    <glyph glyph-name="n" unicode="n" horiz-adv-x="1181" 
d="M707 1135q135 0 231 -98.5t96 -241.5v-768q0 -18 -20 -19h-152q-18 0 -18 19v743q0 201 -191 201h-127q-82 0 -127 -44t-45 -128v-772q0 -18 -18 -19h-152q-18 0 -18 19v1077q0 18 18 18h135q20 0 21 -18v-10q0 -20 -7 -53t-7 -35q20 39 55 65q33 29 85 46.5t101 17.5
h140z" />
    <glyph glyph-name="o" unicode="o" horiz-adv-x="1116" 
d="M645 1135q150 0 247 -101.5t97 -253.5v-434q0 -150 -97 -251t-245 -101h-178q-147 0 -244.5 101.5t-97.5 250.5v434q0 152 97.5 253.5t244.5 101.5h176zM614 969h-112q-92 0 -139.5 -48.5t-47.5 -152.5v-410q0 -102 47.5 -151t139.5 -49h112q92 0 139.5 49t47.5 151v410
q0 104 -47.5 152.5t-139.5 48.5z" />
    <glyph glyph-name="p" unicode="p" horiz-adv-x="1159" 
d="M184 -522q-18 0 -18 18v1608q0 18 18 18h142q18 0 18 -18v-35q0 -16 -8 -63q18 31 55 59q84 70 178 70h133q139 0 234.5 -97.5t95.5 -246.5v-451q0 -150 -92 -247t-233 -97h-119q-117 0 -193 63q-41 31 -55 58q0 -2 4 -16.5t7 -32t3 -31.5v-541q0 -18 -18 -18h-152z
M518 160h139q186 0 187 200v410q0 201 -187 201h-139q-164 0 -164 -172v-467q0 -172 164 -172z" />
    <glyph glyph-name="q" unicode="q" horiz-adv-x="1159" 
d="M817 -522q-18 0 -18 18v541q0 14 3 31.5t7 32t4 16.5q-14 -27 -55 -58q-76 -63 -193 -63h-114q-139 0 -231.5 97t-92.5 247v451q0 150 94 247t236 97h127q94 0 180 -70q37 -29 53 -59q-6 47 -6 63v35q0 18 18 18h144q18 0 18 -18v-1608q0 -18 -18 -18h-156zM502 160h133
q164 0 164 172v467q0 172 -162 172h-135q-186 0 -187 -201v-410q1 -200 187 -200z" />
    <glyph glyph-name="r" unicode="r" horiz-adv-x="722" 
d="M674 1135q18 0 18 -19v-129q0 -18 -18 -18h-146q-82 0 -128 -44t-46 -126v-772q0 -18 -18 -19h-152q-18 0 -18 19v1077q0 18 18 18h138q20 0 18 -18l2 -10q0 -18 -7 -51t-7 -37q20 39 53 65q35 29 86 46.5t100 17.5h107z" />
    <glyph glyph-name="s" unicode="s" horiz-adv-x="1011" 
d="M362 -6q-113 0 -191.5 79t-82.5 187v82q0 18 21 18h139q20 0 22 -16l2 -84q2 -45 35 -72.5t80 -27.5h262q45 0 76 30.5t31 75.5v105q0 39 -20.5 65.5t-53.5 36.5l-363 86q-102 18 -159.5 85t-57.5 161v61q0 113 78 191t193 78h262q113 0 191.5 -78t80.5 -187v-45
q0 -16 -18 -16h-139q-20 0 -25 14l-2 47q0 43 -33 72t-80 29h-235q-45 0 -75 -32t-30 -77v-63q0 -35 23.5 -58.5t60.5 -33.5l361 -89q100 -18 153.5 -85.5t53.5 -159.5v-111q0 -111 -77 -189.5t-192 -78.5h-291z" />
    <glyph glyph-name="t" unicode="t" horiz-adv-x="882" 
d="M780 1122q20 0 21 -20v-123q0 -23 -21 -23h-205q-39 0 -57 13q12 -20 12 -49v-893q0 -18 -18 -19h-152q-18 0 -18 19v893q0 29 10 47q-23 -10 -57 -11h-193q-20 0 -20 23v123q0 20 20 20h193q37 0 57 -10q-10 18 -10 49v256q0 12 16 19q4 2 7 2l145 67q20 8 20 -14v-330
q0 -35 -12 -51q12 12 62 12h200z" />
    <glyph glyph-name="u" unicode="u" horiz-adv-x="1171" 
d="M479 -4q-135 0 -231 98.5t-96 241.5v768q0 18 18 18h152q18 0 18 -18v-742q0 -201 192 -200h113q82 0 127 44t45 126v772q0 18 19 18h151q18 0 19 -18v-1077q0 -18 -19 -19h-135q-20 0 -21 17v12q0 16 7.5 50t7.5 38q-20 -39 -55 -66q-33 -29 -85.5 -46t-101.5 -17h-125z
" />
    <glyph glyph-name="v" unicode="v" horiz-adv-x="1024" 
d="M963 1130q25 0 16 -26l-383 -1088q-6 -16 -23 -16h-122q-16 0 -23 16l-383 1088q-8 27 16 26h142q18 0 24 -18l258 -758q18 -55 27 -143q8 86 29 143l258 758q4 18 22 18h142z" />
    <glyph glyph-name="w" unicode="w" horiz-adv-x="1695" 
d="M1634 1130q25 0 17 -26l-365 -1088q-6 -16 -22 -16h-115q-18 0 -25 16l-266 838q-4 14 -10 53q-6 -41 -10 -53l-267 -838q-6 -16 -22 -16h-117q-16 0 -22 16l-365 1088q-8 27 16 26h142q18 0 22 -16l242 -768q16 -49 22 -117q6 68 25 119l246 758q6 18 24 18h129
q16 0 23 -18l248 -756q16 -53 22 -119q6 66 23 115l241 768q6 16 23 16h141z" />
    <glyph glyph-name="x" unicode="x" horiz-adv-x="978" 
d="M983 27q6 -12 2 -19.5t-16 -7.5h-160q-16 0 -25 14l-268 412q-20 31 -27 66q-6 -35 -26 -66l-268 -412q-8 -14 -25 -14h-160q-12 0 -16 7t4 20l371 555q6 8 26 20q-20 14 -26 23l-324 479q-6 10 -3 18t17 8h158q18 0 27 -14l219 -342q23 -37 26 -72q6 35 29 72l217 342
q8 14 27 14h158q14 0 17 -8t-3 -18l-324 -479q-4 -8 -26 -23q23 -12 26 -20z" />
    <glyph glyph-name="y" unicode="y" horiz-adv-x="1001" 
d="M956 1130q25 0 17 -26l-463 -1313q-51 -147 -129 -223t-201 -76h-63q-20 0 -21 21v131q0 18 19 18h75q39 0 67 10.5t47.5 38t29.5 51t26 72.5l54 158q2 2 11 9l9 7q-2 0 -13 1t-13 5l-383 1090q-10 27 16 26h141q16 0 23 -18l272 -799q16 -49 21 -92q4 45 20 94l273 797
q6 16 22 18h143z" />
    <glyph glyph-name="z" unicode="z" horiz-adv-x="935" 
d="M874 174q20 0 21 -22v-123q0 -20 -21 -21h-808q-23 0 -23 25v127q0 4 4 8l559 735q35 43 92 68q-41 -8 -123 -8h-423q-20 0 -21 22v123q0 23 21 22h702q20 0 20 -26l-2 -115q0 -6 -4 -12l-555 -744q-33 -43 -86 -69q39 10 117 10h530z" />
    <glyph glyph-name="braceleft" unicode="{" horiz-adv-x="843" 
d="M664 -502q-123 0 -215.5 78t-92.5 207v446q0 125 -46 186.5t-156 61.5h-13q-18 0 -18 21v106q0 20 18 21h19q111 0 159 61.5t48 187.5v445q0 129 93 207t214 78h84q20 0 20 -21v-94q0 -20 -20 -21h-66q-84 0 -128 -44t-44 -128v-493q0 -139 -110 -225q-27 -20 -48 -29
q20 -10 48 -31q100 -86 100 -219l-2 -494q0 -84 45 -128t129 -44h76q20 0 20 -20v-94q0 -20 -20 -21h-94z" />
    <glyph glyph-name="bar" unicode="|" horiz-adv-x="526" 
d="M184 -512q-18 0 -18 16v1989q0 16 18 16h158q18 0 18 -16v-1989q0 -16 -18 -16h-158z" />
    <glyph glyph-name="braceright" unicode="}" horiz-adv-x="843" 
d="M180 -502h-94q-20 0 -20 21v94q0 20 20 20h76q84 0 129 44t45 128v494q0 133 100 219q25 20 47 31q-23 8 -49 29q-111 86 -110 225l2 493q0 84 -45 128t-129 44h-66q-20 0 -20 21v94q0 20 20 21h84q123 0 215 -78t92 -207v-445q0 -127 48 -188t159 -61h18q20 0 21 -21
v-106q0 -20 -21 -21h-10q-113 0 -159 -61.5t-46 -186.5v-446q0 -129 -92 -207t-215 -78z" />
    <glyph glyph-name="asciitilde" unicode="~" horiz-adv-x="1169" 
d="M729 420q-66 0 -166 63q-80 51 -114 52q-43 0 -70 -28t-33 -67q-4 -14 -18 -14h-101q-18 0 -16 18q12 102 71.5 168t155.5 66q10 0 18.5 -1t18.5 -3t17.5 -4t17.5 -6.5t16 -7.5t18.5 -9t17.5 -9t21.5 -12.5t22.5 -11.5q76 -51 115 -51q41 0 67.5 27.5t32.5 66.5
q4 14 19 15h100q18 0 16 -19q-12 -102 -71.5 -167.5t-155.5 -65.5z" />
    <glyph glyph-name="uni00A0" unicode="&#xa0;" horiz-adv-x="651" 
 />
    <glyph glyph-name="exclamdown" unicode="&#xa1;" horiz-adv-x="636" 
d="M260 965q-20 0 -20 20v143q0 23 20 23h117q20 0 20 -23v-143q0 -20 -20 -20h-117zM244 -354q-20 0 -21 20l15 1104q2 20 20 21h121q18 0 20 -21l15 -1104q0 -20 -21 -20h-149z" />
    <glyph glyph-name="cent" unicode="&#xa2;" horiz-adv-x="1077" 
d="M805 745q-18 0 -19 19v20q0 184 -184 185h-96q-92 0 -139.5 -48.5t-47.5 -152.5v-406q0 -104 47.5 -153t139.5 -49h96q184 0 184 184v21q0 18 19 18h151q18 0 19 -18v-33q0 -127 -91 -229.5t-239 -108.5v-277q0 -20 -20 -20h-111q-20 0 -20 20v277h-21
q-147 0 -244.5 101.5t-97.5 252.5v432q0 152 97.5 253.5t244.5 101.5h21v233q0 23 20 23h111q20 0 20 -23v-233q147 -4 238.5 -106.5t91.5 -231.5v-33q0 -18 -19 -19h-151z" />
    <glyph glyph-name="sterling" unicode="&#xa3;" horiz-adv-x="1341" 
d="M127 -6q-16 0 -16 18v117q0 18 16 18h37q197 0 196 205v277h-229q-16 0 -16 16v113q0 16 16 16h229v291q0 145 99.5 248.5t238.5 103.5h215q137 0 237.5 -99t100.5 -245v-55q0 -18 -18 -19h-160q-16 0 -16 19v24q0 201 -197 201h-108q-199 0 -199 -201v-268h344
q18 0 18 -16v-113q0 -16 -18 -16h-344v-287q0 -102 -72 -174h375q197 0 197 197v20q0 18 16 18h160q18 0 18 -18v-39q0 -145 -100 -248.5t-238 -103.5h-782z" />
    <glyph glyph-name="currency" unicode="&#xa4;" horiz-adv-x="1658" 
d="M291 -66l-76 78q-12 12 0 25l162 170q-121 154 -121 364q0 215 123 369l-168 172q-12 14 0 27l76 78q12 14 24 0l168 -175q147 115 349 115t352 -115l166 175q12 14 24 0l76 -78q12 -12 0 -27l-166 -172q123 -156 123 -369q0 -211 -123 -364l162 -170q12 -12 0 -25
l-74 -78q-12 -14 -25 0l-163 168q-147 -115 -350 -114.5t-353 114.5l-162 -168q-12 -14 -24 0zM828.5 160q179.5 0 293 115.5t113.5 296t-113.5 297t-293 116.5t-292 -116.5t-112.5 -297t112.5 -296t292 -115.5z" />
    <glyph glyph-name="yen" unicode="&#xa5;" horiz-adv-x="1064" 
d="M1083 1411q12 0 17.5 -7t-0.5 -20l-369 -667h254q18 0 19 -19v-110q0 -18 -19 -19h-334l-8 -12q-4 -8 -16 -22l1 -3l2 -8t1 -8v-113h354q18 0 19 -18v-111q0 -18 -19 -18h-354v-236q0 -20 -23 -20h-153q-20 0 -21 20v236h-356q-16 0 -17 18v111q0 18 17 18h356v113
q0 4 1 8l2 8l1 3q-12 14 -16 22l-8 12h-336q-16 0 -17 19v110q0 18 17 19h256l-369 667q-6 12 -2 19.5t19 7.5h161q18 0 25 -14l336 -619q12 -23 22 -61h13q8 37 20 61l336 619q8 14 27 14h161z" />
    <glyph glyph-name="brokenbar" unicode="&#xa6;" horiz-adv-x="526" 
d="M184 680q-18 0 -18 18v795q0 16 18 16h158q18 0 18 -16v-795q0 -18 -18 -18h-158zM184 -512q-18 0 -18 16v797q0 16 18 16h158q18 0 18 -16v-797q0 -16 -18 -16h-158z" />
    <glyph glyph-name="section" unicode="&#xa7;" horiz-adv-x="1382" 
d="M553 -504q-143 0 -243.5 102.5t-100.5 247.5l-2 129q0 20 22 21h154q20 0 20 -21v-116q0 -84 50.5 -133.5t128.5 -49.5h231q72 0 120 51.5t48 131.5v129q0 109 -121 162l-448 190q-90 35 -144.5 113.5t-54.5 169.5v41q0 143 109 237q-109 92 -109 217v43
q0 143 100.5 243.5t241.5 100.5h244q147 0 242.5 -102.5t95.5 -247.5v-59q0 -20 -21 -21h-155q-20 0 -21 21v69q0 66 -48 113t-118 47h-211q-66 0 -111.5 -48t-45.5 -114v-30q0 -55 29.5 -97.5t80.5 -62.5l459 -195q201 -82 201 -297v-141q0 -94 -50 -174q49 -76 50 -182
v-140q0 -145 -102.5 -246.5t-246.5 -101.5h-274zM961 270q20 39 20 86v129q0 109 -121 162l-364 162q-41 -20 -65.5 -59t-24.5 -84v-31q0 -53 29.5 -95t80.5 -65l391 -174q29 -13 54 -31z" />
    <glyph glyph-name="dieresis" unicode="&#xa8;" horiz-adv-x="788" 
d="M152 1280q-20 0 -21 20v166q0 20 21 21h116q20 0 21 -21v-166q0 -20 -21 -20h-116zM520 1280q-20 0 -20 20v166q0 20 20 21h117q20 0 20 -21v-166q0 -20 -20 -20h-117z" />
    <glyph glyph-name="copyright" unicode="&#xa9;" horiz-adv-x="1607" 
d="M804 256q-263 0 -436 176t-173 445.5t173 445.5t436 176t435 -176t172 -445.5t-172 -445.5t-435 -176zM802.5 336q233.5 0 381 152.5t147.5 389t-147.5 389t-381 152.5t-381 -152.5t-147.5 -389t147.5 -389t381 -152.5zM737 479q-98 0 -166.5 71t-68.5 171v307
q0 100 69.5 172t167.5 72h111q82 0 146.5 -53.5t82.5 -133.5q2 -16 -12 -16h-102q-12 0 -15 14q-23 76 -127 76h-61q-135 0 -135 -141v-287q0 -141 135 -141h61q100 0 125 74q4 12 15 12h102q16 0 12 -14q-18 -80 -81.5 -131.5t-147.5 -51.5h-111z" />
    <glyph glyph-name="ordfeminine" unicode="&#xaa;" horiz-adv-x="854" 
d="M483 1491q92 0 159 -68.5t67 -167.5v-550q0 -12 -13 -13h-96q-14 0 -14 13v12q0 8 2 19.5t5 21.5t3 12q-10 -18 -39 -41q-53 -45 -133 -45h-115q-90 0 -155.5 60.5t-65.5 150.5v49q0 92 65.5 148.5t168.5 56.5h227q18 0 33 -6q-6 18 -7 28v82q0 57 -31.5 89t-90.5 32h-91
q-55 0 -83.5 -29.5t-28.5 -84.5v-7q0 -10 -10 -10h-107q-12 0 -12 12v19q0 86 64.5 151.5t152.5 65.5h145zM453 801q123 0 122 117v118q0 2 7 29q-14 -8 -33 -8h-205q-59 0 -91 -32t-32 -89v-14q0 -121 131 -121h101zM135 479q-12 0 -12 13v73q0 14 12 15h529q12 0 12 -15
v-73q0 -12 -12 -13h-529z" />
    <glyph glyph-name="guillemotleft" unicode="&#xab;" horiz-adv-x="1067" 
d="M432 276q0 -10 -6 -14t-12 2l-240 236q-14 12 -14 26v125q0 14 14 27l240 235q6 6 12 2t6 -14v-131q0 -12 -10 -22l-129 -136q-12 -14 -12 -23t12 -24l129 -135q10 -12 10 -22v-132zM909 276q0 -10 -6 -14t-12 2l-240 236q-14 12 -14 26v125q0 14 14 27l240 235q6 6 12 2
t6 -14v-131q0 -12 -10 -22l-129 -136q-12 -14 -12 -23t12 -24l129 -135q10 -12 10 -22v-132z" />
    <glyph glyph-name="logicalnot" unicode="&#xac;" horiz-adv-x="1452" 
d="M1085 319q-20 0 -20 23v332q0 6 -6 6h-832q-20 0 -20 22v115q0 23 20 23h979q20 0 21 -23v-475q0 -23 -21 -23h-121z" />
    <glyph glyph-name="uni00AD" unicode="&#xad;" horiz-adv-x="808" 
d="M672 668q16 0 16 -17v-108q0 -18 -16 -19h-535q-16 0 -16 19v108q0 16 16 17h535z" />
    <glyph glyph-name="registered" unicode="&#xae;" horiz-adv-x="1224" 
d="M612 891q-176 0 -292.5 118.5t-116.5 300t116.5 300.5t292.5 119t293 -119t117 -300.5t-117 -300t-293 -118.5zM612.5 950q155.5 0 254 101.5t98.5 259t-98.5 259t-254 101.5t-254 -101.5t-98.5 -259t98.5 -259t254 -101.5zM662 1538q45 0 77.5 -31.5t32.5 -79.5v-49
q0 -39 -23.5 -67.5t-58.5 -34.5q-14 -2 -6 -14l98 -193q4 -8 -4 -8h-59q-6 0 -8 6l-101 195q-4 6 -12 6h-61q-8 0 -9 -8v-193q0 -6 -12 -6h-55q-6 0 -6 6v465q0 6 6 6h201zM643 1473h-108q-6 0 -7 -9v-127q0 -8 7 -8h108q55 0 55 57v29q0 58 -55 58z" />
    <glyph glyph-name="macron" unicode="&#xaf;" horiz-adv-x="942" 
d="M184 1268q-20 0 -20 22v84q0 20 20 21h574q20 0 20 -21v-84q0 -23 -20 -22h-574z" />
    <glyph glyph-name="degree" unicode="&#xb0;" horiz-adv-x="825" 
d="M442 1614q106 0 181 -77t75 -185v-107q0 -109 -74.5 -184.5t-181.5 -75.5h-59q-106 0 -182 76t-76 184v107q0 109 75.5 185.5t182.5 76.5h59zM432 1485h-35q-72 0 -110.5 -41t-38.5 -113v-65q0 -72 39 -113t110 -41h35q68 0 107 40t39 114v63q0 74 -39 115t-107 41z" />
    <glyph glyph-name="plusminus" unicode="&#xb1;" horiz-adv-x="1146" 
d="M973 1012q18 0 18 -19v-110q0 -18 -18 -19h-346v-364q0 -18 -19 -19h-106q-16 0 -17 19v364h-348q-16 0 -16 19v110q0 18 16 19h348v344q0 18 17 18h106q18 0 19 -18v-344h346zM154 217q-18 0 -19 16v109q0 18 19 18h856q18 0 18 -18v-109q0 -16 -18 -16h-856z" />
    <glyph glyph-name="uni00B2" unicode="&#xb2;" horiz-adv-x="825" 
d="M694 664q12 0 21.5 -8.5t9.5 -22.5v-92q0 -31 -31 -31h-614q-31 0 -31 31v149q0 55 22.5 92t75.5 70l365 293q43 37 43 84v71q0 63 -29 99q-29 37 -84 37h-118q-80 0 -103 -74l-2 -10q-2 -29 -31 -29h-108q-14 0 -23 10q-8 10 -6 23v8q16 100 80 164q70 70 168 69h162
q111 0 186 -88q76 -84 76 -200v-86q0 -127 -123 -207l-369 -289q-8 -8 -14 -10q2 -4 2 -15v-24q0 -10 -2 -16q4 4 14 4z" />
    <glyph glyph-name="uni00B3" unicode="&#xb3;" horiz-adv-x="837" 
d="M657 1083q37 -35 60.5 -88t23.5 -108v-96q0 -119 -74.5 -203t-185.5 -84h-186q-100 0 -167 65.5t-81 167.5l-2 11q0 14 8 23t21 9h110q29 0 31 -28v-13q25 -78 104 -77h140q57 0 85.5 37.5t28.5 101.5v82q0 63 -28.5 100t-85.5 37h-129q-25 0 -25 24v78q0 25 25 25h114
q53 0 83 33.5t30 81.5v45q0 127 -115 127h-112q-84 0 -107 -76l-2 -8q-2 -29 -31 -29h-108q-14 0 -22.5 10t-6.5 23l2 8q14 100 78 164q70 70 168 69h166q111 0 184 -79q74 -80 74 -199v-45q0 -94 -68 -166q-8 -8 -8 -12q0 -5 8 -11z" />
    <glyph glyph-name="acute" unicode="&#xb4;" horiz-adv-x="587" 
d="M152 1268q-10 0 -14.5 5t1.5 13l172 252q8 12 23 12h133q10 0 14 -7t-2 -15l-211 -250q-10 -10 -22 -10h-94z" />
    <glyph glyph-name="mu" unicode="&#xb5;" horiz-adv-x="1200" 
d="M1014 1128q20 0 20 -20v-1085q0 -20 -20 -21h-150q-20 0 -20 16q0 27 12 93q-16 -37 -49 -64q-68 -53 -162 -53h-129q-72 2 -121 39q-37 29 -53 59q12 -57 12 -88v-483q0 -23 -20 -23h-148q-20 0 -20 23v1587q0 20 20 20h146q23 0 22 -20v-750q0 -201 195 -200h100
q195 0 195 200v750q0 20 20 20h150z" />
    <glyph glyph-name="paragraph" unicode="&#xb6;" horiz-adv-x="1484" 
d="M1214 1509q20 0 21 -20v-1970q0 -20 -21 -21h-112q-20 0 -21 21v1808h-217v-1808q0 -20 -20 -21h-111q-20 0 -20 21v1077h-250q-113 0 -193 81t-80 197v359q0 115 80 195.5t193 80.5h751z" />
    <glyph glyph-name="periodcentered" unicode="&#xb7;" horiz-adv-x="505" 
d="M322 745q20 0 20 -20v-168q0 -20 -20 -20h-138q-20 0 -20 20v168q0 20 20 20h138z" />
    <glyph glyph-name="cedilla" unicode="&#xb8;" horiz-adv-x="651" 
d="M358 18q10 0 16.5 -5t2.5 -13l-51 -78h22q72 0 124 -56t52 -134v-35q0 -76 -51 -136.5t-125 -60.5h-196q-18 0 -19 19v57q0 18 19 18h149q53 0 82 36t29 94q0 51 -29 82.5t-82 31.5h-108q-8 0 -14.5 5t-2.5 14l86 143q0 2 2 7t3 6t4 3t8 2h79z" />
    <glyph glyph-name="uni00B9" unicode="&#xb9;" horiz-adv-x="724" 
d="M641 668q33 0 33 -33v-92q0 -31 -33 -31h-578q-33 0 -32 31v92q0 33 32 33h189q16 0 24 -6q-2 10 -2 26v719q0 23 5 33q-10 -6 -31 -6h-187q-29 0 -28 30v101q0 12 8 20t20 8h345q31 0 30 -30v-873q0 -16 -4 -26q10 4 29 4h180z" />
    <glyph glyph-name="ordmasculine" unicode="&#xba;" horiz-adv-x="864" 
d="M494 1491q106 0 174.5 -71.5t68.5 -180.5v-307q0 -106 -68.5 -177t-172.5 -71h-127q-104 0 -173 70.5t-69 177.5v307q0 109 68.5 180.5t175.5 71.5h123zM471 1372h-78q-133 0 -133 -141v-289q0 -143 133 -143h78q133 0 133 143v289q0 141 -133 141zM180 479q-12 0 -12 13
v73q0 14 12 15h518q12 0 13 -15v-73q0 -12 -13 -13h-518z" />
    <glyph glyph-name="guillemotright" unicode="&#xbb;" horiz-adv-x="1142" 
d="M160 276v132q0 10 12 22l129 135q10 14 10 23.5t-10 23.5l-129 136q-12 10 -12 22v131q0 10 7 14.5t13 -2.5l240 -235q12 -12 12 -27v-125q0 -14 -12 -26l-240 -236q-6 -6 -13 -2t-7 14zM715 276v132q0 10 10 22l129 135q12 14 12 23.5t-12 23.5l-129 136q-10 10 -10 22
v131q0 10 6 14.5t12 -2.5l240 -235q12 -12 12 -27v-125q0 -14 -12 -26l-240 -236q-6 -6 -12 -2t-6 14z" />
    <glyph glyph-name="onequarter" unicode="&#xbc;" horiz-adv-x="2062" 
d="M647 668q31 0 31 -33v-92q0 -31 -31 -31h-579q-31 0 -31 31v92q0 33 31 33h188q16 0 27 -6q-4 10 -4 26v719q0 23 4 33q-10 -6 -31 -6h-184q-31 0 -31 30v101q0 12 8 20t21 8h346q31 0 30 -30v-873q0 -16 -4 -26q10 4 29 4h180zM1315 1128q10 0 16 -6t2 -16l-418 -901
q-8 -18 -22 -19h-111q-10 0 -16 6.5t-2 16.5l416 901q10 18 22 18h113zM2001 182q31 0 31 -32v-84q0 -31 -31 -31h-84q-12 0 -19 2q2 -6 3 -19v-194q0 -29 -29 -29h-111q-29 0 -28 29v194q0 12 2 19q-8 -2 -21 -2h-438q-12 0 -20.5 8t-8.5 20l2 99q0 10 4 22l430 678
q8 16 29 17h162q27 0 27 -29v-649q0 -14 -5 -23q8 4 23 4h82zM1712 182q14 0 23 -4q-2 8 -2 21v424v28q-4 -10 -13 -24l-282 -424q-10 -16 -21 -25q10 4 29 4h266z" />
    <glyph glyph-name="onehalf" unicode="&#xbd;" horiz-adv-x="2093" 
d="M647 668q31 0 31 -33v-92q0 -31 -31 -31h-579q-31 0 -31 31v92q0 33 31 33h188q16 0 27 -6q-4 10 -4 26v719q0 23 4 33q-10 -6 -31 -6h-184q-31 0 -31 30v101q0 12 8 20t21 8h346q31 0 30 -30v-873q0 -16 -4 -26q10 4 29 4h180zM1315 1128q10 0 16 -6t2 -16l-418 -901
q-8 -18 -22 -19h-111q-10 0 -16 6.5t-2 16.5l416 901q10 18 22 18h113zM2028 -51q12 0 21 -8.5t9 -22.5v-92q0 -31 -30 -31h-615q-31 0 -31 31v149q0 55 22.5 92t76.5 70l364 293q43 37 43 84v72q0 63 -28 98q-29 37 -84 37h-119q-80 0 -105 -74v-10q-2 -29 -30 -29h-109
q-14 0 -22 10t-7 23v8q16 100 80 164q68 70 168 70h162q111 0 186 -88q76 -84 76 -201v-86q0 -127 -123 -207l-368 -289q-8 -8 -15 -10q2 -4 2 -14v-25q0 -10 -2 -16q4 2 15 2h463z" />
    <glyph glyph-name="threequarters" unicode="&#xbe;" horiz-adv-x="2267" 
d="M664 1083q39 -35 62.5 -88t23.5 -108v-96q0 -119 -76 -203t-187 -84h-186q-98 0 -165.5 65.5t-82.5 167.5v11q-2 14 6.5 23t22.5 9h108q29 0 31 -28v-13q25 -78 105 -77h139q59 0 88 37.5t29 101.5v82q0 63 -30 100t-87 37h-127q-27 0 -27 24v78q0 25 27 25h113
q55 0 84.5 33.5t29.5 81.5v45q0 127 -116 127h-113q-84 0 -107 -76v-8q-2 -29 -30 -29h-111q-14 0 -21.5 10t-7.5 23l2 8q14 100 80 164q68 70 168 69h166q109 0 182 -79q76 -80 76 -199v-45q0 -94 -67 -166q-8 -8 -9 -12q-1 -5 7 -11zM1446 1128q10 0 16 -6t2 -16
l-417 -901q-8 -18 -21 -19h-111q-12 0 -18 6.5t-2 16.5l418 901q8 18 20 18h113zM2132 182q33 0 33 -32v-84q0 -31 -33 -31h-82q-12 0 -20 2q2 -6 2 -19v-194q0 -29 -29 -29h-111q-29 0 -28 29v194q0 12 2 19q-6 -2 -21 -2h-436q-12 0 -20.5 8t-8.5 20v99q0 10 6 22l429 678
q8 16 28 17h162q27 0 27 -29v-651q0 -12 -2 -21q8 4 20 4h82zM1845 182q14 0 21 -4q-2 8 -2 21v424q0 16 2 28q-4 -10 -13 -24l-284 -424q-10 -16 -21 -25q12 4 31 4h266z" />
    <glyph glyph-name="questiondown" unicode="&#xbf;" horiz-adv-x="1159" 
d="M719 1208q20 0 20 -20v-164q0 -23 -20 -23h-117q-20 0 -20 23v164q0 20 20 20h117zM494 -295q-143 0 -243.5 96.5t-100.5 239.5v125q0 92 50 173t138 120l129 59q115 55 115 162l2 147q0 20 20 21h119q18 0 20 -21l2 -161q0 -203 -190 -293l-115 -56q-98 -47 -98 -157
v-123q0 -66 44 -114t108 -50h174q70 0 120 46t50 114v114q0 23 20 23h133q20 0 21 -23v-104q0 -147 -95.5 -242.5t-244.5 -95.5h-178z" />
    <glyph glyph-name="Agrave" unicode="&#xc0;" horiz-adv-x="1247" 
d="M563 1794q14 0 23 -12l166 -236q6 -8 2 -13t-13 -5h-94q-12 0 -22 10l-205 236q-6 6 -3 13t13 7h133zM1180 20q8 -20 -15 -20h-166q-16 0 -20 14l-82 344q-2 6 -2 45q-27 -8 -49 -8h-445q-23 0 -47 8q-2 -41 -2 -45l-84 -344q-4 -14 -20 -14h-166q-20 0 -14 20l372 1377
q4 14 21 14h325q16 0 21 -14zM813 551q20 0 53 -10q-25 33 -30 55l-148 592q-10 33 6 57q-10 -10 -24 -10h-92q-14 0 -25 10q16 -25 8 -57l-149 -592q-6 -23 -31 -55q33 10 55 10h377z" />
    <glyph glyph-name="Aacute" unicode="&#xc1;" horiz-adv-x="1247" 
d="M526 1528q-10 0 -13 5t1 13l168 236q8 12 23 12h131q10 0 14 -7t-2 -13l-207 -236q-8 -10 -20 -10h-95zM1180 20q8 -20 -15 -20h-166q-16 0 -20 14l-82 344q-2 6 -2 45q-27 -8 -49 -8h-445q-23 0 -47 8q-2 -41 -2 -45l-84 -344q-4 -14 -20 -14h-166q-20 0 -14 20
l372 1377q4 14 21 14h325q16 0 21 -14zM813 551q20 0 53 -10q-25 33 -30 55l-148 592q-10 33 6 57q-10 -10 -24 -10h-92q-14 0 -25 10q16 -25 8 -57l-149 -592q-6 -23 -31 -55q33 10 55 10h377z" />
    <glyph glyph-name="Acircumflex" unicode="&#xc2;" horiz-adv-x="1247" 
d="M358 1516q-10 0 -13 6t1 12l199 223q12 14 20 15h133q10 0 23 -15l197 -223q6 -6 1.5 -12t-14.5 -6h-98q-10 0 -23 10l-129 121q-23 20 -22 30q-2 -10 -23 -30l-131 -121q-12 -10 -22 -10h-99zM1180 20q8 -20 -15 -20h-166q-16 0 -20 14l-82 344q-2 6 -2 45
q-27 -8 -49 -8h-445q-23 0 -47 8q-2 -41 -2 -45l-84 -344q-4 -14 -20 -14h-166q-20 0 -14 20l372 1377q4 14 21 14h325q16 0 21 -14zM813 551q20 0 53 -10q-25 33 -30 55l-148 592q-10 33 6 57q-10 -10 -24 -10h-92q-14 0 -25 10q16 -25 8 -57l-149 -592q-6 -23 -31 -55
q33 10 55 10h377z" />
    <glyph glyph-name="Atilde" unicode="&#xc3;" horiz-adv-x="1247" 
d="M893 1712q18 0 16 -16q-10 -84 -60 -134.5t-120 -50.5q-66 0 -135 56q-57 45 -90 45q-35 0 -57.5 -23.5t-26.5 -56.5q-4 -14 -19 -14h-67q-18 0 -17 16q10 82 61.5 133t121.5 51q66 0 135 -57q55 -43 90 -43q33 0 56.5 23.5t27.5 54.5q2 16 16 16h68zM1180 20
q8 -20 -15 -20h-166q-16 0 -20 14l-82 344q-2 6 -2 45q-27 -8 -49 -8h-445q-23 0 -47 8q-2 -41 -2 -45l-84 -344q-4 -14 -20 -14h-166q-20 0 -14 20l372 1377q4 14 21 14h325q16 0 21 -14zM813 551q20 0 53 -10q-25 33 -30 55l-148 592q-10 33 6 57q-10 -10 -24 -10h-92
q-14 0 -25 10q16 -25 8 -57l-149 -592q-6 -23 -31 -55q33 10 55 10h377z" />
    <glyph glyph-name="Adieresis" unicode="&#xc4;" horiz-adv-x="1247" 
d="M393 1511q-20 0 -20 21v154q0 20 20 20h113q20 0 20 -20v-154q0 -20 -20 -21h-113zM752 1511q-20 0 -21 21v154q0 20 21 20h114q20 0 21 -20v-154q0 -20 -21 -21h-114zM1180 20q8 -20 -15 -20h-166q-16 0 -20 14l-82 344q-2 6 -2 45q-27 -8 -49 -8h-445q-23 0 -47 8
q-2 -41 -2 -45l-84 -344q-4 -14 -20 -14h-166q-20 0 -14 20l372 1377q4 14 21 14h325q16 0 21 -14zM813 551q20 0 53 -10q-25 33 -30 55l-148 592q-10 33 6 57q-10 -10 -24 -10h-92q-14 0 -25 10q16 -25 8 -57l-149 -592q-6 -23 -31 -55q33 10 55 10h377z" />
    <glyph glyph-name="Aring" unicode="&#xc5;" horiz-adv-x="1247" 
d="M1180 20q8 -20 -15 -20h-166q-16 0 -20 14l-82 344q-2 6 -2 45q-27 -8 -49 -8h-445q-23 0 -47 8q-2 -41 -2 -45l-84 -344q-4 -14 -20 -14h-166q-20 0 -14 20l372 1377q4 14 21 14h2q-59 59 -60 141v23q0 84 63.5 145.5t154.5 61.5h8q88 0 151.5 -61.5t63.5 -145.5v-23
q0 -82 -60 -141h2q16 0 21 -14zM516 1569v-15q0 -49 31 -82.5t74 -33.5h6q43 0 73.5 33.5t30.5 82.5v15q0 49 -30.5 83t-73.5 34h-6q-43 0 -74 -34t-31 -83zM813 551q20 0 53 -10q-25 33 -30 55l-148 592q-10 33 6 57q-10 -10 -24 -10h-92q-14 0 -25 10q16 -25 8 -57
l-149 -592q-6 -23 -31 -55q33 10 55 10h377z" />
    <glyph glyph-name="AE" unicode="&#xc6;" horiz-adv-x="1736" 
d="M1661 172q18 0 18 -18v-136q0 -18 -18 -18h-723q-16 0 -16 14l4 344q0 4 12 45q-29 -8 -53 -8h-461q-23 0 -49 8q-6 -41 -8 -45l-154 -344q-6 -14 -23 -14h-163q-23 0 -13 20l654 1377q8 14 22 14h928q18 0 18 -18v-136q0 -18 -18 -18h-463q-16 0 -55 14q12 -31 12 -47
v-346q0 -16 -12 -47q37 16 55 16l410 -2q18 0 18 -16v-119q0 -18 -18 -18h-410q-12 0 -55 14q12 -27 12 -47v-436q0 -20 -12 -49q41 16 55 16h506zM940 541q-14 31 -14 55l2 592q0 33 24 57q-14 -10 -26 -10h-160q-14 0 -23 10q12 -25 -2 -57l-268 -592q-10 -25 -39 -55
q37 10 58 10h395q22 0 53 -10z" />
    <glyph glyph-name="Ccedilla" unicode="&#xc7;" horiz-adv-x="1177" 
d="M909 983q-18 0 -18 18v60q0 92 -50 138t-139 46h-172q-88 0 -137 -46t-49 -138v-713q0 -90 49 -136t137 -46h172q90 0 139.5 46t49.5 136v72q0 18 18 18h158q18 0 18 -18v-94q0 -137 -98 -233.5t-233 -96.5h-80l-47 -70h22q70 0 121 -53t51 -125v-33q0 -72 -50 -128
t-122 -56h-192q-16 0 -17 16v56q0 16 17 16h147q49 0 77 34t28 87q0 47 -28 77.5t-77 30.5h-106q-10 0 -16.5 5.5t-2.5 11.5l80 131h-80q-135 0 -232 96t-97 234v757q0 137 97 235.5t232 98.5h275q135 0 233 -98t98 -236v-82q0 -18 -18 -18h-158z" />
    <glyph glyph-name="Egrave" unicode="&#xc8;" horiz-adv-x="1067" 
d="M512 1798q14 0 25 -12l165 -236q4 -8 1 -13t-13 -5h-94q-12 0 -21 10l-204 236q-8 6 -4 13t14 7h131zM203 0q-23 0 -23 20v1371q0 20 23 20h745q18 0 19 -18v-136q0 -18 -19 -18h-530q-16 0 -53 14q10 -31 10 -47v-346q0 -16 -13 -47q37 16 56 16l477 -2q18 0 18 -18
v-119q0 -16 -18 -16h-477q-12 0 -56 14q12 -27 13 -47v-436q0 -20 -13 -49q43 16 56 16h571q18 0 19 -18v-136q0 -18 -19 -18h-786z" />
    <glyph glyph-name="Eacute" unicode="&#xc9;" horiz-adv-x="1067" 
d="M475 1532q-8 0 -12 5t2 13l166 236q10 12 22 12h133q10 0 14.5 -7t-3.5 -13l-205 -236q-10 -10 -23 -10h-94zM203 0q-23 0 -23 20v1371q0 20 23 20h745q18 0 19 -18v-136q0 -18 -19 -18h-530q-16 0 -53 14q10 -31 10 -47v-346q0 -16 -13 -47q37 16 56 16l477 -2
q18 0 18 -18v-119q0 -16 -18 -16h-477q-12 0 -56 14q12 -27 13 -47v-436q0 -20 -13 -49q43 16 56 16h571q18 0 19 -18v-136q0 -18 -19 -18h-786z" />
    <glyph glyph-name="Ecircumflex" unicode="&#xca;" horiz-adv-x="1067" 
d="M309 1520q-10 0 -14 6t2 12l197 223q12 14 22 15h133q10 0 23 -15l196 -223q4 -6 1 -12t-13 -6h-98q-10 0 -23 12l-131 119q-20 20 -20 30q-2 -10 -23 -30l-131 -119q-12 -12 -22 -12h-99zM989 172q18 0 19 -18v-136q0 -18 -19 -18h-786q-23 0 -23 20v1371q0 20 23 20
h745q18 0 19 -18v-136q0 -18 -19 -18h-530q-16 0 -53 14q10 -31 10 -47v-346q0 -16 -13 -47q37 16 56 16l477 -2q18 0 18 -18v-119q0 -16 -18 -16h-477q-12 0 -56 14q12 -27 13 -47v-436q0 -20 -13 -49q43 16 56 16h571z" />
    <glyph glyph-name="Edieresis" unicode="&#xcb;" horiz-adv-x="1067" 
d="M342 1516q-20 0 -20 20v154q0 20 20 20h115q20 0 20 -20v-154q0 -20 -20 -20h-115zM702 1516q-20 0 -20 20v154q0 20 20 20h115q18 0 19 -20v-154q0 -20 -19 -20h-115zM203 0q-23 0 -23 20v1371q0 20 23 20h745q18 0 19 -18v-136q0 -18 -19 -18h-530q-16 0 -53 14
q10 -31 10 -47v-346q0 -16 -13 -47q37 16 56 16l477 -2q18 0 18 -18v-119q0 -16 -18 -16h-477q-12 0 -56 14q12 -27 13 -47v-436q0 -20 -13 -49q43 16 56 16h571q18 0 19 -18v-136q0 -18 -19 -18h-786z" />
    <glyph glyph-name="Igrave" unicode="&#xcc;" horiz-adv-x="555" 
d="M205 1798q14 0 22 -12l168 -236q4 -8 1 -13t-13 -5h-94q-12 0 -21 10l-207 236q-6 6 -2 13t15 7h131zM354 1411q20 0 21 -18v-1375q0 -18 -21 -18h-153q-20 0 -21 18v1375q0 18 21 18h153z" />
    <glyph glyph-name="Iacute" unicode="&#xcd;" horiz-adv-x="555" 
d="M168 1532q-8 0 -12 5t2 13l166 236q8 12 22 12h133q10 0 13.5 -7t-3.5 -13l-204 -236q-10 -10 -23 -10h-94zM354 1411q20 0 21 -18v-1375q0 -18 -21 -18h-153q-20 0 -21 18v1375q0 18 21 18h153z" />
    <glyph glyph-name="Icircumflex" unicode="&#xce;" horiz-adv-x="555" 
d="M559 1538q6 -6 3 -12t-13 -6h-98q-12 0 -23 12l-131 119q-20 20 -23 30q0 -10 -20 -30l-131 -119q-12 -12 -23 -12h-100q-8 0 -12 6t2 12l196 223q12 14 23 15h133q10 0 20 -15zM354 1411q20 0 21 -18v-1375q0 -18 -21 -18h-153q-20 0 -21 18v1375q0 18 21 18h153z" />
    <glyph glyph-name="Idieresis" unicode="&#xcf;" horiz-adv-x="555" 
d="M35 1516q-20 0 -21 20v154q0 20 21 20h115q20 0 20 -20v-154q0 -20 -20 -20h-115zM395 1516q-20 0 -20 20v154q0 20 20 20h113q20 0 20 -20v-154q0 -20 -20 -20h-113zM354 1411q20 0 21 -18v-1375q0 -18 -21 -18h-153q-20 0 -21 18v1375q0 18 21 18h153z" />
    <glyph glyph-name="Eth" unicode="&#xd0;" horiz-adv-x="1251" 
d="M768 1411q139 0 238.5 -97t99.5 -237v-743q0 -139 -99.5 -236.5t-238.5 -97.5h-569q-18 0 -19 18v1375q0 18 19 18h569zM911 344v719q0 84 -48 130t-138 46h-307q-16 0 -53 16q10 -33 10 -53v-383q0 -31 -15 -61q31 14 56 14h329q16 0 17 -16v-103q0 -16 -17 -16h-329
q-23 0 -58 12q16 -23 17 -53v-391q0 -18 -10 -47q37 14 53 14h307q90 0 138 44t48 128z" />
    <glyph glyph-name="Ntilde" unicode="&#xd1;" horiz-adv-x="1378" 
d="M965 1716q18 0 16 -16q-10 -84 -60.5 -134t-119.5 -50q-66 0 -135 55q-57 45 -91 45q-35 0 -57 -23.5t-26 -56.5q-4 -14 -19 -14h-67q-18 0 -17 16q10 84 61.5 134t120.5 50q66 0 136 -57q55 -43 90 -43q33 0 56.5 23.5t27.5 56.5q2 14 16 14h68zM1176 1411q23 0 22 -20
v-1371q0 -20 -20 -20h-144q-16 0 -24 14l-594 1002q-47 80 -58 102q0 -4 5.5 -27.5t8.5 -47t3 -42.5v-981q0 -20 -23 -20h-149q-23 0 -23 20v1371q0 20 23 20h151q16 0 25 -14l586 -981q45 -74 55 -101q0 4 -4 27t-8 47.5t-4 42.5v959q0 20 22 20h150z" />
    <glyph glyph-name="Ograve" unicode="&#xd2;" 
d="M563 1798q14 0 23 -12l166 -236q6 -8 3 -13t-14 -5h-94q-12 0 -20 10l-207 236q-6 6 -3 13t13 7h133zM479 -4q-135 0 -232 96t-97 234v757q0 137 97 235.5t232 98.5h285q135 0 232.5 -98t97.5 -236v-757q0 -137 -97.5 -233.5t-232.5 -96.5h-285zM530 166h183q88 0 137 46
t49 136v713q0 92 -49 138t-137 46h-183q-88 0 -137 -46t-49 -138v-713q0 -90 49 -136t137 -46z" />
    <glyph glyph-name="Oacute" unicode="&#xd3;" 
d="M526 1532q-8 0 -12 5t2 13l166 236q8 12 23 12h133q10 0 13 -7t-3 -13l-205 -236q-10 -10 -22 -10h-95zM479 -4q-135 0 -232 96t-97 234v757q0 137 97 235.5t232 98.5h285q135 0 232.5 -98t97.5 -236v-757q0 -137 -97.5 -233.5t-232.5 -96.5h-285zM530 166h183
q88 0 137 46t49 136v713q0 92 -49 138t-137 46h-183q-88 0 -137 -46t-49 -138v-713q0 -90 49 -136t137 -46z" />
    <glyph glyph-name="Ocircumflex" unicode="&#xd4;" 
d="M358 1520q-8 0 -12 6t2 12l197 223q12 14 22 15h133q8 0 21 -15l197 -223q6 -6 1.5 -12t-12.5 -6h-98q-12 0 -23 12l-131 119q-20 20 -22 30q0 -10 -23 -30l-131 -119q-10 -12 -22 -12h-99zM764 1417q135 0 232.5 -98t97.5 -236v-757q0 -137 -97.5 -233.5t-232.5 -96.5
h-285q-135 0 -232 96t-97 234v757q0 137 97 235.5t232 98.5h285zM899 348v713q0 92 -49 138t-137 46h-183q-88 0 -137 -46t-49 -138v-713q0 -90 49 -136t137 -46h183q88 0 137 46t49 136z" />
    <glyph glyph-name="Otilde" unicode="&#xd5;" 
d="M895 1716q18 0 14 -16q-8 -84 -59 -134t-121 -50q-66 0 -135 55q-57 45 -90 45q-35 0 -57.5 -23.5t-26.5 -56.5q-4 -14 -17 -14h-69q-18 0 -15 16q8 84 59.5 134t121.5 50q66 0 135 -57q57 -43 90 -43q35 0 57.5 23.5t26.5 56.5q4 14 16 14h70zM479 -4q-135 0 -232 96
t-97 234v757q0 137 97 235.5t232 98.5h285q135 0 232.5 -98t97.5 -236v-757q0 -137 -97.5 -233.5t-232.5 -96.5h-285zM530 166h183q88 0 137 46t49 136v713q0 92 -49 138t-137 46h-183q-88 0 -137 -46t-49 -138v-713q0 -90 49 -136t137 -46z" />
    <glyph glyph-name="Odieresis" unicode="&#xd6;" 
d="M393 1516q-20 0 -20 20v154q0 20 20 20h115q18 0 18 -20v-154q0 -20 -18 -20h-115zM752 1516q-18 0 -19 20v154q0 20 19 20h114q20 0 21 -20v-154q0 -20 -21 -20h-114zM479 -4q-135 0 -232 96t-97 234v757q0 137 97 235.5t232 98.5h285q135 0 232.5 -98t97.5 -236v-757
q0 -137 -97.5 -233.5t-232.5 -96.5h-285zM530 166h183q88 0 137 46t49 136v713q0 92 -49 138t-137 46h-183q-88 0 -137 -46t-49 -138v-713q0 -90 49 -136t137 -46z" />
    <glyph glyph-name="multiply" unicode="&#xd7;" horiz-adv-x="942" 
d="M817 446q12 -12 0 -24l-76 -78q-12 -14 -24 0l-246 248l-246 -248q-12 -14 -24 0l-74 78q-14 12 0 24l244 250l-244 250q-14 12 0 27l74 78q12 12 24 0l246 -250l246 250q12 12 24 0l76 -78q12 -14 0 -27l-246 -250z" />
    <glyph glyph-name="Oslash" unicode="&#xd8;" 
d="M954 1354q66 -45 104 -117t38 -154v-757q0 -137 -97.5 -233.5t-234.5 -96.5h-229q-31 0 -50 14l2 -9t1 -19.5t-3 -20.5l-65 -186q-8 -14 -25 -15h-94q-20 0 -18 21l69 207q6 18 25 43q-33 -4 -53 8q-80 45 -127 121t-47 166v757q0 137 97 235.5t232 98.5h240q51 0 76 -18
q-2 37 2 49l59 174q6 14 23 14h104q20 0 18 -20l-69 -203q-6 -18 -25 -47q29 2 47 -12zM901 348v709q0 188 -188 188h-183q-186 0 -186 -188v-709q0 -182 186 -182h183q188 0 188 182z" />
    <glyph glyph-name="Ugrave" unicode="&#xd9;" horiz-adv-x="1263" 
d="M561 1798q14 0 23 -12l168 -236q4 -8 1 -13t-14 -5h-94q-12 0 -20 10l-207 236q-6 6 -2 13t14 7h131zM1083 1411q23 0 23 -20v-1063q0 -137 -99.5 -234.5t-240.5 -97.5h-268q-141 0 -239.5 97t-98.5 235v1063q0 20 20 20h152q23 0 22 -20v-1043q0 -90 49.5 -136
t137.5 -46h182q88 0 137 46t49 136v1043q0 20 23 20h151z" />
    <glyph glyph-name="Uacute" unicode="&#xda;" horiz-adv-x="1263" 
d="M524 1532q-8 0 -12 5t2 13l166 236q8 12 22 12h134q10 0 13 -7t-3 -13l-205 -236q-10 -10 -23 -10h-94zM1083 1411q23 0 23 -20v-1063q0 -137 -99.5 -234.5t-240.5 -97.5h-268q-141 0 -239.5 97t-98.5 235v1063q0 20 20 20h152q23 0 22 -20v-1043q0 -90 49.5 -136
t137.5 -46h182q88 0 137 46t49 136v1043q0 20 23 20h151z" />
    <glyph glyph-name="Ucircumflex" unicode="&#xdb;" horiz-adv-x="1263" 
d="M356 1520q-8 0 -12 6t2 12l197 223q12 14 22 15h133q10 0 21 -15l196 -223q6 -6 3 -12t-13 -6h-98q-12 0 -23 12l-131 119q-20 20 -22 30q0 -10 -21 -30l-131 -119q-12 -12 -22 -12h-101zM1083 1411q23 0 23 -20v-1063q0 -137 -99.5 -234.5t-240.5 -97.5h-268
q-141 0 -239.5 97t-98.5 235v1063q0 20 20 20h152q23 0 22 -20v-1043q0 -90 49.5 -136t137.5 -46h182q88 0 137 46t49 136v1043q0 20 23 20h151z" />
    <glyph glyph-name="Udieresis" unicode="&#xdc;" horiz-adv-x="1263" 
d="M391 1516q-20 0 -20 20v154q0 20 20 20h115q20 0 20 -20v-154q0 -20 -20 -20h-115zM752 1516q-20 0 -21 20v154q0 20 21 20h112q20 0 21 -20v-154q0 -20 -21 -20h-112zM1083 1411q23 0 23 -20v-1063q0 -137 -99.5 -234.5t-240.5 -97.5h-268q-141 0 -239.5 97t-98.5 235
v1063q0 20 20 20h152q23 0 22 -20v-1043q0 -90 49.5 -136t137.5 -46h182q88 0 137 46t49 136v1043q0 20 23 20h151z" />
    <glyph glyph-name="Yacute" unicode="&#xdd;" horiz-adv-x="1064" 
d="M428 1532q-10 0 -13 5t1 13l166 236q10 12 24 12h131q10 0 14.5 -7t-3.5 -13l-205 -236q-10 -10 -23 -10h-92zM455 0q-20 0 -21 20v496q0 4 1 8l2 8l1 3q-12 14 -16 22l-457 827q-6 12 -2 19.5t19 7.5h161q18 0 25 -14l336 -619q14 -29 28 -84q14 57 27 84l336 619
q8 14 27 14h161q12 0 17.5 -7t-0.5 -20l-457 -827q-4 -8 -16 -22l1 -3l2 -8t1 -8v-496q0 -20 -23 -20h-153z" />
    <glyph glyph-name="Thorn" unicode="&#xde;" horiz-adv-x="1187" 
d="M768 995q137 0 234.5 -94t97.5 -229v-113q0 -135 -98.5 -229t-239.5 -94h-338q-35 0 -55 8q6 -18 6 -47v-177q0 -20 -21 -20h-151q-20 0 -21 20v1369q0 20 21 20h151q20 0 21 -20v-361q0 -23 -4 -39q16 6 43 6h354zM905 571v78q0 84 -48 130t-138 46h-295q-35 0 -55 11
q6 -18 6 -50v-348q0 -29 -6 -47q20 8 55 8h295q92 0 139 45t47 127z" />
    <glyph glyph-name="germandbls" unicode="&#xdf;" horiz-adv-x="1220" 
d="M772 1608q139 0 236.5 -94.5t97.5 -231.5v-197q0 -158 -72 -219q-6 -8 -22 -18q10 -6 22 -17q45 -39 75 -99t30 -120v-284q0 -137 -98.5 -232.5t-239.5 -95.5h-195q-23 0 -22 25v122q0 18 20 19h148q88 0 136 44t48 126v266q0 82 -48 128t-136 46h-152q-16 0 -16 19v102
q0 16 16 16h152q88 0 122.5 35t34.5 119v201q0 82 -47 128t-137 46h-166q-88 0 -136 -46t-48 -128l-4 -1243q0 -25 -23 -25h-143q-25 0 -25 25v1257q0 137 96.5 231.5t235.5 94.5h260z" />
    <glyph glyph-name="agrave" unicode="&#xe0;" horiz-adv-x="1110" 
d="M475 1554q14 0 23 -14l172 -252q6 -8 2 -13t-13 -5h-96q-12 0 -22 10l-211 250q-6 8 -2 16t14 8h133zM647 1135q129 0 223.5 -97.5t94.5 -234.5v-778q0 -16 -19 -17h-135q-20 0 -20 17v16q0 12 3 28.5t7 31t4 16.5q-14 -27 -55 -58q-33 -29 -85.5 -46t-101.5 -17h-162
q-127 0 -220 85t-93 214v67q0 129 92 210t238 81h319q27 0 47 -10q-8 27 -8 41v117q0 82 -45 126t-127 44h-129q-78 0 -119 -42t-41 -120v-8q0 -14 -14 -15h-149q-18 0 -19 17v24q0 123 91 215.5t216 92.5h207zM604 160q84 0 128 43t44 123v168q0 2 8 38q-20 -10 -47 -10
h-288q-82 0 -127.5 -46t-45.5 -126v-18q0 -172 185 -172h143z" />
    <glyph glyph-name="aacute" unicode="&#xe1;" horiz-adv-x="1110" 
d="M438 1270q-8 0 -12 5t2 13l172 252q8 14 23 14h133q10 0 14 -8t-4 -16l-211 -250q-8 -10 -20 -10h-97zM647 1135q129 0 223.5 -97.5t94.5 -234.5v-778q0 -16 -19 -17h-135q-20 0 -20 17v16q0 12 3 28.5t7 31t4 16.5q-14 -27 -55 -58q-33 -29 -85.5 -46t-101.5 -17h-162
q-127 0 -220 85t-93 214v67q0 129 92 210t238 81h319q27 0 47 -10q-8 27 -8 41v117q0 82 -45 126t-127 44h-129q-78 0 -119 -42t-41 -120v-8q0 -14 -14 -15h-149q-18 0 -19 17v24q0 123 91 215.5t216 92.5h207zM604 160q84 0 128 43t44 123v168q0 2 8 38q-20 -10 -47 -10
h-288q-82 0 -127.5 -46t-45.5 -126v-18q0 -172 185 -172h143z" />
    <glyph glyph-name="acircumflex" unicode="&#xe2;" horiz-adv-x="1110" 
d="M266 1257q-10 0 -13 6.5t1 12.5l205 237q12 16 22 17h133q10 0 23 -17l203 -237q6 -6 2 -12.5t-13 -6.5h-100q-10 0 -22 11l-136 129q-23 20 -22 33q-2 -12 -25 -33l-135 -129q-12 -10 -22 -11h-101zM647 1135q129 0 223.5 -97.5t94.5 -234.5v-778q0 -16 -19 -17h-135
q-20 0 -20 17v16q0 12 3 28.5t7 31t4 16.5q-14 -27 -55 -58q-33 -29 -85.5 -46t-101.5 -17h-162q-127 0 -220 85t-93 214v67q0 129 92 210t238 81h319q27 0 47 -10q-8 27 -8 41v117q0 82 -45 126t-127 44h-129q-78 0 -119 -42t-41 -120v-8q0 -14 -14 -15h-149q-18 0 -19 17
v24q0 123 91 215.5t216 92.5h207zM776 494q0 2 8 38q-20 -10 -47 -10h-288q-82 0 -127.5 -46t-45.5 -126v-18q0 -172 185 -172h143q84 0 128 43t44 123v168z" />
    <glyph glyph-name="atilde" unicode="&#xe3;" horiz-adv-x="1110" 
d="M817 1466q18 0 17 -18q-10 -88 -62.5 -142.5t-124.5 -54.5q-68 0 -139 62q-23 16 -33 24.5t-26.5 15.5t-34.5 7q-35 0 -58.5 -25.5t-27.5 -60.5q-4 -16 -19 -17h-69q-18 0 -17 19q10 88 62.5 142.5t124.5 54.5q68 0 139 -62q23 -16 33 -24.5t26.5 -15.5t34.5 -7
q35 0 58.5 25.5t27.5 60.5q4 16 19 16h69zM647 1135q129 0 223.5 -97.5t94.5 -234.5v-778q0 -16 -19 -17h-135q-20 0 -20 17v16q0 12 3 28.5t7 31t4 16.5q-14 -27 -55 -58q-33 -29 -85.5 -46t-101.5 -17h-162q-127 0 -220 85t-93 214v67q0 129 92 210t238 81h319
q27 0 47 -10q-8 27 -8 41v117q0 82 -45 126t-127 44h-129q-78 0 -119 -42t-41 -120v-8q0 -14 -14 -15h-149q-18 0 -19 17v24q0 123 91 215.5t216 92.5h207zM604 160q84 0 128 43t44 123v168q0 2 8 38q-20 -10 -47 -10h-288q-82 0 -127.5 -46t-45.5 -126v-18q0 -172 185 -172
h143z" />
    <glyph glyph-name="adieresis" unicode="&#xe4;" horiz-adv-x="1110" 
d="M303 1251q-20 0 -20 23v164q0 20 20 20h115q20 0 20 -20v-164q0 -23 -20 -23h-115zM672 1251q-20 0 -21 23v164q0 20 21 20h114q20 0 21 -20v-164q0 -23 -21 -23h-114zM647 1135q129 0 223.5 -97.5t94.5 -234.5v-778q0 -16 -19 -17h-135q-20 0 -20 17v16q0 12 3 28.5
t7 31t4 16.5q-14 -27 -55 -58q-33 -29 -85.5 -46t-101.5 -17h-162q-127 0 -220 85t-93 214v67q0 129 92 210t238 81h319q27 0 47 -10q-8 27 -8 41v117q0 82 -45 126t-127 44h-129q-78 0 -119 -42t-41 -120v-8q0 -14 -14 -15h-149q-18 0 -19 17v24q0 123 91 215.5t216 92.5
h207zM604 160q84 0 128 43t44 123v168q0 2 8 38q-20 -10 -47 -10h-288q-82 0 -127.5 -46t-45.5 -126v-18q0 -172 185 -172h143z" />
    <glyph glyph-name="aring" unicode="&#xe5;" horiz-adv-x="1110" 
d="M727 1124q102 -29 170 -117.5t68 -203.5v-778q0 -16 -19 -17h-135q-20 0 -20 17v16q0 12 3 28.5t7 31t4 16.5q-14 -27 -55 -58q-33 -29 -85.5 -46t-101.5 -17h-162q-127 0 -220 85t-93 214v67q0 129 92 210t238 81h319q27 0 47 -10q-8 27 -8 41v117q0 82 -45 126t-127 44
h-129q-78 0 -119 -42t-41 -120v-8q0 -14 -14 -15h-149q-18 0 -19 17v24q0 104 66.5 188.5t169.5 110.5q-45 57 -45 131v25q0 88 64.5 153.5t156.5 65.5h8q92 0 156.5 -65.5t64.5 -153.5v-25q0 -74 -47 -133zM436 1276v-16q0 -51 32 -87t79 -36h4q45 0 76.5 35.5t31.5 87.5
v16q0 51 -31.5 87t-76.5 36h-4q-47 0 -79 -36t-32 -87zM776 494q0 2 8 38q-20 -10 -47 -10h-288q-82 0 -127.5 -46t-45.5 -126v-18q0 -172 185 -172h143q84 0 128 43t44 123v168z" />
    <glyph glyph-name="ae" unicode="&#xe6;" horiz-adv-x="1751" 
d="M401 -4q-127 0 -220 85t-93 212v76q0 129 92 208.5t238 79.5h319q27 0 47 -10q-8 27 -8 43v109q0 82 -45 126t-129 44h-127q-78 0 -119 -42t-41 -120v-6q0 -14 -14 -15h-149q-18 0 -19 17v24q0 123 91 215.5t216 92.5h207q70 0 131.5 -33t100.5 -90q41 57 105.5 90
t137.5 33h187q137 0 240.5 -100.5t103.5 -241.5v-248q0 -18 -17 -19h-624q-39 0 -58 13q12 -18 13 -45v-148q-2 -86 44 -135t136 -49h139q76 0 119 41t43 116v9q2 14 18 14h152q18 0 16 -18v-19q-10 -127 -103 -219t-218 -92h-172q-80 0 -150.5 37t-113.5 98
q-35 -63 -101.5 -98t-138.5 -35h-236zM954 647q20 12 58 12h407q37 0 58 -12q-10 25 -11 51v105q0 80 -45 123t-129 43h-153q-82 0 -127 -43t-45 -123v-105q-1 -24 -13 -51zM461 160h143q84 0 128 43t44 123v174l8 37q-20 -10 -47 -11h-288q-82 0 -127.5 -45t-45.5 -125v-24
q1 -172 185 -172z" />
    <glyph glyph-name="ccedilla" unicode="&#xe7;" horiz-adv-x="1077" 
d="M805 745q-18 0 -19 19v20q0 184 -184 185h-96q-92 0 -139.5 -48.5t-47.5 -152.5v-406q0 -104 47.5 -153t139.5 -49h96q184 0 184 184v21q0 18 19 18h151q18 0 19 -18v-33q0 -131 -95.5 -234.5t-246.5 -103.5h-2l-47 -72h22q72 0 124 -56t52 -134v-35q0 -76 -51 -136.5
t-125 -60.5h-196q-18 0 -19 19v57q0 18 19 18h149q53 0 82 36t29 94q0 51 -29 82.5t-82 31.5h-108q-8 0 -14.5 5t-2.5 14l82 137h-43q-147 0 -244.5 101.5t-97.5 252.5v432q0 152 97.5 253.5t244.5 101.5h160q152 0 247 -103.5t95 -234.5v-33q0 -18 -19 -19h-151z" />
    <glyph glyph-name="egrave" unicode="&#xe8;" horiz-adv-x="1099" 
d="M500 1554q14 0 22 -14l172 -252q6 -6 2 -12t-12 -6h-96q-12 0 -23 10l-211 252q-6 6 -2 14t15 8h133zM657 1135q137 0 242 -100.5t105 -241.5v-248q0 -18 -19 -19h-623q-41 0 -57 13q10 -18 10 -45v-150q0 -86 45.5 -135t135.5 -49h139q78 0 120 41t42 118l2 9
q0 14 16 14h152q18 0 16 -18v-19q-10 -127 -103.5 -219t-217.5 -92h-189q-143 0 -244.5 102.5t-101.5 249.5v436q0 145 101.5 249t244.5 104h184zM768 659q37 0 57 -12q-10 25 -10 51v107q0 80 -45 123t-127 43h-154q-84 0 -129 -43t-45 -123v-107q0 -25 -10 -51
q20 12 57 12h406z" />
    <glyph glyph-name="eacute" unicode="&#xe9;" horiz-adv-x="1099" 
d="M463 1270q-8 0 -12.5 6t2.5 12l172 252q8 14 22 14h133q10 0 14.5 -8t-3.5 -14l-211 -252q-8 -10 -21 -10h-96zM657 1135q137 0 242 -100.5t105 -241.5v-248q0 -18 -19 -19h-623q-41 0 -57 13q10 -18 10 -45v-150q0 -86 45.5 -135t135.5 -49h139q78 0 120 41t42 118l2 9
q0 14 16 14h152q18 0 16 -18v-19q-10 -127 -103.5 -219t-217.5 -92h-189q-143 0 -244.5 102.5t-101.5 249.5v436q0 145 101.5 249t244.5 104h184zM768 659q37 0 57 -12q-10 25 -10 51v107q0 80 -45 123t-127 43h-154q-84 0 -129 -43t-45 -123v-107q0 -25 -10 -51
q20 12 57 12h406z" />
    <glyph glyph-name="ecircumflex" unicode="&#xea;" horiz-adv-x="1099" 
d="M291 1257q-10 0 -13.5 6.5t1.5 12.5l204 237q12 16 23 17h133q10 0 23 -17l202 -237q6 -6 2 -12.5t-12 -6.5h-100q-12 0 -23 13l-135 127q-23 20 -23 33q-2 -12 -24 -33l-135 -127q-12 -12 -23 -13h-100zM657 1135q137 0 242 -100.5t105 -241.5v-248q0 -18 -19 -19h-623
q-41 0 -57 13q10 -18 10 -45v-150q0 -86 45.5 -135t135.5 -49h139q78 0 120 41t42 118l2 9q0 14 16 14h152q18 0 16 -18v-19q-10 -127 -103.5 -219t-217.5 -92h-189q-143 0 -244.5 102.5t-101.5 249.5v436q0 145 101.5 249t244.5 104h184zM768 659q37 0 57 -12
q-10 25 -10 51v107q0 80 -45 123t-127 43h-154q-84 0 -129 -43t-45 -123v-107q0 -25 -10 -51q20 12 57 12h406z" />
    <glyph glyph-name="edieresis" unicode="&#xeb;" horiz-adv-x="1099" 
d="M328 1253q-20 0 -21 21v164q0 23 21 22h114q20 0 21 -22v-164q0 -20 -21 -21h-114zM696 1253q-20 0 -20 21v164q0 23 20 22h115q20 0 20 -22v-164q0 -20 -20 -21h-115zM657 1135q137 0 242 -100.5t105 -241.5v-248q0 -18 -19 -19h-623q-41 0 -57 13q10 -18 10 -45v-150
q0 -86 45.5 -135t135.5 -49h139q78 0 120 41t42 118l2 9q0 14 16 14h152q18 0 16 -18v-19q-10 -127 -103.5 -219t-217.5 -92h-189q-143 0 -244.5 102.5t-101.5 249.5v436q0 145 101.5 249t244.5 104h184zM768 659q37 0 57 -12q-10 25 -10 51v107q0 80 -45 123t-127 43h-154
q-84 0 -129 -43t-45 -123v-107q0 -25 -10 -51q20 12 57 12h406z" />
    <glyph glyph-name="igrave" unicode="&#xec;" horiz-adv-x="522" 
d="M190 1554q14 0 25 -14l172 -252q4 -6 1 -12t-13 -6h-94q-14 0 -23 10l-211 252q-6 6 -3 14t13 8h133zM336 1122q18 0 18 -18v-1077q0 -18 -18 -19h-152q-18 0 -18 19v1077q0 18 18 18h152z" />
    <glyph glyph-name="iacute" unicode="&#xed;" horiz-adv-x="522" 
d="M156 1270q-10 0 -13.5 6t0.5 12l172 252q8 14 23 14h133q12 0 15 -8t-3 -14l-211 -252q-10 -10 -22 -10h-94zM336 1122q18 0 18 -18v-1077q0 -18 -18 -19h-152q-18 0 -18 19v1077q0 18 18 18h152z" />
    <glyph glyph-name="icircumflex" unicode="&#xee;" horiz-adv-x="522" 
d="M557 1276q4 -6 1 -12.5t-13 -6.5h-101q-10 0 -22 13l-135 127q-23 20 -23 33q-2 -12 -22 -33l-138 -127q-10 -12 -22 -13h-100q-8 0 -12.5 6.5t1.5 12.5l203 237q12 16 23 17h135q10 0 20 -17zM336 1122q18 0 18 -18v-1077q0 -18 -18 -19h-152q-18 0 -18 19v1077
q0 18 18 18h152z" />
    <glyph glyph-name="idieresis" unicode="&#xef;" horiz-adv-x="522" 
d="M18 1253q-20 0 -20 21v164q0 23 20 22h115q20 0 21 -22v-164q0 -20 -21 -21h-115zM387 1253q-20 0 -20 21v164q0 23 20 22h115q20 0 20 -22v-164q0 -20 -20 -21h-115zM336 1122q18 0 18 -18v-1077q0 -18 -18 -19h-152q-18 0 -18 19v1077q0 18 18 18h152z" />
    <glyph glyph-name="eth" unicode="&#xf0;" horiz-adv-x="1120" 
d="M963 713q45 -109 45 -152v-176q0 -147 -107.5 -269t-245.5 -122h-204q-135 0 -243 122t-108 269v176q0 150 107.5 271.5t243.5 121.5h215l-109 240l-135 -84q-10 -4 -16.5 -1t-6.5 13v78q0 14 13 23l104 63l-90 197q-4 10 0 16t12 6h156q12 0 18 -14l52 -113l157 97
q10 6 16.5 3t6.5 -14v-78q0 -14 -13 -22l-126 -78zM819 395v154q0 16 -4 31.5t-13 39t-11 29.5q-37 84 -91 142h-204q-92 0 -150.5 -69t-58.5 -173v-154q0 -102 58 -169.5t151 -67.5h114q94 0 151.5 67.5t57.5 169.5z" />
    <glyph glyph-name="ntilde" unicode="&#xf1;" horiz-adv-x="1181" 
d="M893 1466q18 0 16 -18q-10 -88 -62 -142.5t-124 -54.5q-68 0 -139 62q-23 18 -33 25.5t-27.5 14.5t-34.5 7q-35 0 -58 -25.5t-28 -60.5q-4 -16 -18 -17h-70q-18 0 -16 19q10 88 62.5 142.5t123.5 54.5q68 0 140 -60q23 -18 33 -26.5t26 -14.5t35 -6q35 0 58.5 24.5
t27.5 59.5q4 16 18 16h70zM707 1135q135 0 231 -98.5t96 -241.5v-768q0 -18 -18 -19h-152q-18 0 -18 19v743q0 201 -193 201h-125q-84 0 -129 -44t-45 -128v-772q0 -18 -18 -19h-152q-18 0 -18 19v1077q0 18 18 18h135q20 0 21 -18v-10q0 -20 -6 -53t-6 -35q18 39 53 65
q33 29 85 46.5t101 17.5h140z" />
    <glyph glyph-name="ograve" unicode="&#xf2;" horiz-adv-x="1116" 
d="M494 1554q14 0 24 -14l170 -252q6 -6 2 -12t-12 -6h-96q-12 0 -21 10l-211 252q-8 6 -4 14t14 8h134zM645 1135q150 0 247 -101.5t97 -253.5v-434q0 -150 -97 -251t-245 -101h-178q-147 0 -244.5 101.5t-97.5 250.5v434q0 152 97.5 253.5t244.5 101.5h176zM614 969h-112
q-92 0 -139.5 -48.5t-47.5 -152.5v-410q0 -102 47.5 -151t139.5 -49h112q92 0 139.5 49t47.5 151v410q0 104 -47.5 152.5t-139.5 48.5z" />
    <glyph glyph-name="oacute" unicode="&#xf3;" horiz-adv-x="1116" 
d="M459 1270q-10 0 -14.5 6t1.5 12l172 252q8 14 23 14h133q10 0 14.5 -8t-2.5 -14l-211 -252q-10 -10 -22 -10h-94zM645 1135q150 0 247 -101.5t97 -253.5v-434q0 -150 -97 -251t-245 -101h-178q-147 0 -244.5 101.5t-97.5 250.5v434q0 152 97.5 253.5t244.5 101.5h176z
M614 969h-112q-92 0 -139.5 -48.5t-47.5 -152.5v-410q0 -102 47.5 -151t139.5 -49h112q92 0 139.5 49t47.5 151v410q0 104 -47.5 152.5t-139.5 48.5z" />
    <glyph glyph-name="ocircumflex" unicode="&#xf4;" horiz-adv-x="1116" 
d="M285 1257q-8 0 -12.5 6.5t1.5 12.5l203 237q12 16 23 17h135q8 0 20 -17l205 -237q4 -6 1 -12.5t-13 -6.5h-100q-10 0 -23 13l-135 127q-23 20 -23 33q-2 -12 -22 -33l-137 -127q-12 -12 -23 -13h-100zM645 1135q150 0 247 -101.5t97 -253.5v-434q0 -150 -97 -251
t-245 -101h-178q-147 0 -244.5 101.5t-97.5 250.5v434q0 152 97.5 253.5t244.5 101.5h176zM801 358v410q0 104 -47 152.5t-140 48.5h-112q-92 0 -139.5 -48.5t-47.5 -152.5v-410q0 -102 47.5 -151t139.5 -49h112q92 0 139.5 49t47.5 151z" />
    <glyph glyph-name="otilde" unicode="&#xf5;" horiz-adv-x="1116" 
d="M836 1466q18 0 16 -18q-10 -88 -62.5 -142.5t-123.5 -54.5q-68 0 -140 62q-23 18 -33 25.5t-26 14.5t-35 7q-35 0 -58.5 -25.5t-27.5 -60.5q-4 -16 -18 -17h-70q-18 0 -16 19q10 88 62 142.5t124 54.5q68 0 139 -60q23 -18 33 -26.5t27.5 -14.5t34.5 -6q35 0 58 24.5
t28 59.5q4 16 18 16h70zM645 1135q150 0 247 -101.5t97 -253.5v-434q0 -150 -97 -251t-245 -101h-178q-147 0 -244.5 101.5t-97.5 250.5v434q0 152 97.5 253.5t244.5 101.5h176zM614 969h-112q-92 0 -139.5 -48.5t-47.5 -152.5v-410q0 -102 47.5 -151t139.5 -49h112
q92 0 139.5 49t47.5 151v410q0 104 -47.5 152.5t-139.5 48.5z" />
    <glyph glyph-name="odieresis" unicode="&#xf6;" horiz-adv-x="1116" 
d="M322 1253q-20 0 -21 21v164q0 23 21 22h114q20 0 21 -22v-164q0 -20 -21 -21h-114zM690 1253q-20 0 -20 21v164q0 23 20 22h115q20 0 20 -22v-164q0 -20 -20 -21h-115zM645 1135q150 0 247 -101.5t97 -253.5v-434q0 -150 -97 -251t-245 -101h-178q-147 0 -244.5 101.5
t-97.5 250.5v434q0 152 97.5 253.5t244.5 101.5h176zM614 969h-112q-92 0 -139.5 -48.5t-47.5 -152.5v-410q0 -102 47.5 -151t139.5 -49h112q92 0 139.5 49t47.5 151v410q0 104 -47.5 152.5t-139.5 48.5z" />
    <glyph glyph-name="divide" unicode="&#xf7;" horiz-adv-x="1132" 
d="M500 1028q-20 0 -21 21v159q0 20 21 21h131q20 0 20 -21v-159q0 -20 -20 -21h-131zM137 623q-16 0 -16 18v111q0 18 16 18h856q18 0 19 -18v-111q0 -18 -19 -18h-856zM500 145q-20 0 -21 21v160q0 20 21 20h131q20 0 20 -20v-160q0 -20 -20 -21h-131z" />
    <glyph glyph-name="oslash" unicode="&#xf8;" horiz-adv-x="1116" 
d="M645 -6h-127q-23 0 -45 6q-6 2 -29 12l2 -6q3 -6 4 -11t-1 -15l-80 -238q-8 -16 -25 -16h-96q-20 0 -19 22l86 258q4 18 19 33q-20 -6 -35 2q-78 47 -125 128t-47 177v436q0 145 101.5 249t244.5 104h152q23 0 39 -5q8 0 28 -10q-6 27 -4 35l74 219q6 16 24 17h105
q20 0 18 -23l-86 -258q-4 -14 -22 -29q27 -4 30 -6q72 -43 115 -122t43 -171v-436q0 -147 -100.5 -249.5t-243.5 -102.5zM801 358v408q0 203 -193 203h-102q-190 0 -191 -203v-408q0 -201 191 -200h102q193 -1 193 200z" />
    <glyph glyph-name="ugrave" unicode="&#xf9;" horiz-adv-x="1173" 
d="M512 1554q14 0 25 -14l172 -252q4 -6 1 -12t-14 -6h-94q-12 0 -22 10l-211 252q-6 6 -3 14t13 8h133zM479 -4q-135 0 -231 98.5t-96 241.5v768q0 18 18 18h152q18 0 18 -18v-742q0 -201 192 -200h113q82 0 127 44t45 126v772q0 18 19 18h151q18 0 19 -18v-1077
q0 -18 -19 -19h-135q-20 0 -21 17v12q0 16 7.5 50t7.5 38q-20 -39 -55 -66q-33 -29 -85.5 -46t-101.5 -17h-125z" />
    <glyph glyph-name="uacute" unicode="&#xfa;" horiz-adv-x="1173" 
d="M477 1270q-10 0 -13 6t1 12l172 252q8 14 22 14h136q10 0 13 -8t-3 -14l-211 -252q-10 -10 -23 -10h-94zM479 -4q-135 0 -231 98.5t-96 241.5v768q0 18 18 18h152q18 0 18 -18v-742q0 -201 192 -200h113q82 0 127 44t45 126v772q0 18 19 18h151q18 0 19 -18v-1077
q0 -18 -19 -19h-135q-20 0 -21 17v12q0 16 7.5 50t7.5 38q-20 -39 -55 -66q-33 -29 -85.5 -46t-101.5 -17h-125z" />
    <glyph glyph-name="ucircumflex" unicode="&#xfb;" horiz-adv-x="1173" 
d="M303 1257q-8 0 -12 6.5t2 12.5l205 237q10 16 20 17h135q10 0 21 -17l205 -237q6 -6 2 -12.5t-15 -6.5h-100q-10 0 -23 13l-135 127q-23 20 -22 33q0 -12 -23 -33l-137 -127q-10 -12 -23 -13h-100zM987 1122q18 0 19 -18v-1077q0 -18 -19 -19h-135q-20 0 -21 17v12
q0 16 7.5 50t7.5 38q-20 -39 -55 -66q-33 -29 -85.5 -46t-101.5 -17h-125q-135 0 -231 98.5t-96 241.5v768q0 18 18 18h152q18 0 18 -18v-742q0 -201 192 -200h113q82 0 127 44t45 126v772q0 18 19 18h151z" />
    <glyph glyph-name="udieresis" unicode="&#xfc;" horiz-adv-x="1173" 
d="M340 1253q-20 0 -21 21v164q0 23 21 22h117q18 0 18 -22v-164q0 -20 -18 -21h-117zM709 1253q-20 0 -21 21v164q0 23 21 22h116q20 0 21 -22v-164q0 -20 -21 -21h-116zM479 -4q-135 0 -231 98.5t-96 241.5v768q0 18 18 18h152q18 0 18 -18v-742q0 -201 192 -200h113
q82 0 127 44t45 126v772q0 18 19 18h151q18 0 19 -18v-1077q0 -18 -19 -19h-135q-20 0 -21 17v12q0 16 7.5 50t7.5 38q-20 -39 -55 -66q-33 -29 -85.5 -46t-101.5 -17h-125z" />
    <glyph glyph-name="yacute" unicode="&#xfd;" horiz-adv-x="1001" 
d="M395 1270q-10 0 -13 6t1 12l172 252q10 14 25 14h133q10 0 13 -8t-3 -14l-211 -252q-10 -10 -23 -10h-94zM956 1130q25 0 17 -26l-463 -1313q-51 -147 -129 -223t-201 -76h-63q-20 0 -21 21v131q0 18 19 18h75q39 0 67 10.5t47.5 38t29.5 51t26 72.5l54 158q2 2 11 9l9 7
q-2 0 -13 1t-13 5l-383 1090q-10 27 16 26h141q16 0 23 -18l272 -799q16 -49 21 -92q4 45 20 94l273 797q6 16 22 18h143z" />
    <glyph glyph-name="thorn" unicode="&#xfe;" horiz-adv-x="1148" 
d="M690 1135q135 0 231.5 -99.5t96.5 -244.5v-453q0 -143 -96.5 -242.5t-231.5 -99.5h-100q-117 0 -193 63q-41 31 -55 58q0 -2 4 -16.5t7 -32t3 -31.5v-541q0 -18 -18 -18h-156q-18 0 -18 18v2138q0 16 18 17h156q18 0 18 -17v-540q0 -14 -3 -32t-7 -32t-4 -16q14 27 55 57
q76 63 193 64h100zM829 768q0 201 -194 201h-111q-82 0 -125 -44t-43 -128v-463q0 -84 43 -128t125 -44h111q195 0 194 200v406z" />
    <glyph glyph-name="ydieresis" unicode="&#xff;" horiz-adv-x="1001" 
d="M258 1253q-20 0 -20 21v164q0 23 20 22h117q20 0 20 -22v-164q0 -20 -20 -21h-117zM627 1253q-20 0 -21 21v164q0 23 21 22h116q20 0 21 -22v-164q0 -20 -21 -21h-116zM956 1130q25 0 17 -26l-463 -1313q-51 -147 -129 -223t-201 -76h-63q-20 0 -21 21v131q0 18 19 18h75
q39 0 67 10.5t47.5 38t29.5 51t26 72.5l54 158q2 2 11 9l9 7q-2 0 -13 1t-13 5l-383 1090q-10 27 16 26h141q16 0 23 -18l272 -799q16 -49 21 -92q4 45 20 94l273 797q6 16 22 18h143z" />
    <glyph glyph-name="Amacron" unicode="&#x100;" horiz-adv-x="1247" 
d="M348 1540q-20 0 -20 19v79q0 20 20 21h555q20 0 21 -21v-79q0 -18 -21 -19h-555zM1180 20q8 -20 -15 -20h-166q-16 0 -20 14l-82 344q-2 6 -2 45q-27 -8 -49 -8h-445q-23 0 -47 8q-2 -41 -2 -45l-84 -344q-4 -14 -20 -14h-166q-20 0 -14 20l372 1377q4 14 21 14h325
q16 0 21 -14zM813 551q20 0 53 -10q-25 33 -30 55l-148 592q-10 33 6 57q-10 -10 -24 -10h-92q-14 0 -25 10q16 -25 8 -57l-149 -592q-6 -23 -31 -55q33 10 55 10h377z" />
    <glyph glyph-name="amacron" unicode="&#x101;" horiz-adv-x="1110" 
d="M254 1282q-20 0 -21 21v86q0 20 21 20h573q20 0 21 -20v-86q0 -20 -21 -21h-573zM647 1135q129 0 223.5 -97.5t94.5 -234.5v-778q0 -16 -19 -17h-135q-20 0 -20 17v16q0 12 3 28.5t7 31t4 16.5q-14 -27 -55 -58q-33 -29 -85.5 -46t-101.5 -17h-162q-127 0 -220 85
t-93 214v67q0 129 92 210t238 81h319q27 0 47 -10q-8 27 -8 41v117q0 82 -45 126t-127 44h-129q-78 0 -119 -42t-41 -120v-8q0 -14 -14 -15h-149q-18 0 -19 17v24q0 123 91 215.5t216 92.5h207zM604 160q84 0 128 43t44 123v168q0 2 8 38q-20 -10 -47 -10h-288
q-82 0 -127.5 -46t-45.5 -126v-18q0 -172 185 -172h143z" />
    <glyph glyph-name="Abreve" unicode="&#x102;" horiz-adv-x="1247" 
d="M901 1745q16 0 14 -16q-4 -90 -73.5 -150.5t-159.5 -58.5h-107q-86 0 -153.5 59t-73.5 150q0 16 17 16h79q12 0 15 -14q6 -43 46 -74t103 -31h49q61 0 101.5 31t46.5 74q4 14 16 14h80zM1180 20q8 -20 -15 -20h-166q-16 0 -20 14l-82 344q-2 6 -2 45q-27 -8 -49 -8h-445
q-23 0 -47 8q-2 -41 -2 -45l-84 -344q-4 -14 -20 -14h-166q-20 0 -14 20l372 1377q4 14 21 14h325q16 0 21 -14zM813 551q20 0 53 -10q-25 33 -30 55l-148 592q-10 33 6 57q-10 -10 -24 -10h-92q-14 0 -25 10q16 -25 8 -57l-149 -592q-6 -23 -31 -55q33 10 55 10h377z" />
    <glyph glyph-name="abreve" unicode="&#x103;" horiz-adv-x="1110" 
d="M823 1501q16 0 17 -18q-6 -96 -78 -159.5t-164 -63.5h-109q-88 2 -157.5 65.5t-75.5 157.5q-2 18 16 18h80q12 0 17 -14q6 -47 47 -80t106 -33h49q66 0 108 33t48 80q2 14 16 14h80zM647 1135q129 0 223.5 -97.5t94.5 -234.5v-778q0 -16 -19 -17h-135q-20 0 -20 17v16
q0 12 3 28.5t7 31t4 16.5q-14 -27 -55 -58q-33 -29 -85.5 -46t-101.5 -17h-162q-127 0 -220 85t-93 214v67q0 129 92 210t238 81h319q27 0 47 -10q-8 27 -8 41v117q0 82 -45 126t-127 44h-129q-78 0 -119 -42t-41 -120v-8q0 -14 -14 -15h-149q-18 0 -19 17v24
q0 123 91 215.5t216 92.5h207zM604 160q84 0 128 43t44 123v168q0 2 8 38q-20 -10 -47 -10h-288q-82 0 -127.5 -46t-45.5 -126v-18q0 -172 185 -172h143z" />
    <glyph glyph-name="Aogonek" unicode="&#x104;" horiz-adv-x="1247" 
d="M1188 -322q16 0 16 -24v-51q0 -16 -16 -17h-154q-88 0 -141 51.5t-53 126.5v23q0 115 125 205l18 14l-4 8l-82 344q-2 6 -2 45q-27 -8 -49 -8h-445q-23 0 -47 8q-2 -41 -2 -45l-84 -344q-4 -14 -20 -14h-166q-20 0 -14 20l372 1377q4 14 21 14h325q16 0 21 -14l373 -1377
q8 -20 -15 -20h-26l-84 -61q-57 -43 -82 -78t-25 -80q0 -49 29 -76t78 -27h133zM813 551q20 0 53 -10q-25 33 -30 55l-148 592q-10 33 6 57q-10 -10 -24 -10h-92q-14 0 -25 10q16 -25 8 -57l-149 -592q-6 -23 -31 -55q33 10 55 10h377z" />
    <glyph glyph-name="aogonek" unicode="&#x105;" horiz-adv-x="1110" 
d="M1006 -336q16 0 16 -26v-56q0 -18 -16 -18h-158q-90 0 -146.5 55t-56.5 135v25q0 121 129 217l23 16q-6 4 -6 13v16q0 12 3 28.5t7 31t4 16.5q-14 -27 -55 -58q-33 -29 -85.5 -46t-101.5 -17h-162q-127 0 -220 85t-93 214v67q0 129 92 210t238 81h319q27 0 47 -10
q-8 27 -8 41v117q0 82 -45 126t-127 44h-129q-78 0 -119 -42t-41 -120v-8q0 -14 -14 -15h-149q-18 0 -19 17v24q0 123 91 215.5t216 92.5h207q129 0 223.5 -97.5t94.5 -234.5v-778q0 -6 -2 -11q-2 -4 -9 -8l-86 -67q-61 -45 -86.5 -82t-25.5 -86q0 -51 29.5 -79t82.5 -28
h138zM776 494q0 2 8 38q-20 -10 -47 -10h-288q-82 0 -127.5 -46t-45.5 -126v-18q0 -172 185 -172h143q84 0 128 43t44 123v168z" />
    <glyph glyph-name="Cacute" unicode="&#x106;" horiz-adv-x="1177" 
d="M502 1534q-10 0 -13.5 5t0.5 13l166 236q10 14 25 14h131q10 0 14 -7t-4 -15l-205 -236q-10 -10 -22 -10h-92zM909 983q-18 0 -18 18v60q0 92 -50 138t-139 46h-172q-88 0 -137 -46t-49 -138v-713q0 -90 49 -136t137 -46h172q90 0 139.5 46t49.5 136v72q0 18 18 18h158
q18 0 18 -18v-94q0 -137 -98 -233.5t-233 -96.5h-275q-135 0 -232 96t-97 234v757q0 137 97 235.5t232 98.5h275q135 0 233 -98t98 -236v-82q0 -18 -18 -18h-158z" />
    <glyph glyph-name="cacute" unicode="&#x107;" horiz-adv-x="1077" 
d="M455 1270q-10 0 -13.5 6t0.5 12l172 252q8 14 23 14h133q12 0 15 -8t-3 -14l-211 -252q-10 -10 -22 -10h-94zM633 1135q152 0 247 -103.5t95 -234.5v-33q0 -18 -19 -19h-151q-18 0 -19 19v20q0 184 -184 185h-96q-92 0 -139.5 -48.5t-47.5 -152.5v-406q0 -104 47.5 -153
t139.5 -49h96q184 0 184 184v21q0 18 19 18h151q18 0 19 -18v-33q0 -131 -95.5 -234.5t-246.5 -103.5h-160q-147 0 -244.5 101.5t-97.5 252.5v432q0 152 97.5 253.5t244.5 101.5h160z" />
    <glyph glyph-name="Ccircumflex" unicode="&#x108;" horiz-adv-x="1177" 
d="M326 1520q-10 0 -13.5 6t2.5 14l203 236q12 16 23 16h133q10 0 22 -16l203 -236q6 -8 2 -14t-12 -6h-101q-10 0 -22 12l-135 127q-23 20 -23 33q-2 -12 -24 -33l-135 -127q-12 -12 -23 -12h-100zM909 983q-18 0 -18 18v60q0 92 -50 138t-139 46h-172q-88 0 -137 -46
t-49 -138v-713q0 -90 49 -136t137 -46h172q90 0 139.5 46t49.5 136v72q0 18 18 18h158q18 0 18 -18v-94q0 -137 -98 -233.5t-233 -96.5h-275q-135 0 -232 96t-97 234v757q0 137 97 235.5t232 98.5h275q135 0 233 -98t98 -236v-82q0 -18 -18 -18h-158z" />
    <glyph glyph-name="ccircumflex" unicode="&#x109;" horiz-adv-x="1077" 
d="M281 1257q-8 0 -12.5 6.5t1.5 12.5l203 237q12 16 23 17h135q8 0 20 -17l205 -237q4 -6 1 -12.5t-13 -6.5h-101q-10 0 -22 13l-135 127q-23 20 -23 33q-2 -12 -22 -33l-138 -127q-10 -12 -22 -13h-100zM805 745q-18 0 -19 19v20q0 184 -184 185h-96q-92 0 -139.5 -48.5
t-47.5 -152.5v-406q0 -104 47.5 -153t139.5 -49h96q184 0 184 184v21q0 18 19 18h151q18 0 19 -18v-33q0 -131 -95.5 -234.5t-246.5 -103.5h-160q-147 0 -244.5 101.5t-97.5 252.5v432q0 152 97.5 253.5t244.5 101.5h160q152 0 247 -103.5t95 -234.5v-33q0 -18 -19 -19h-151
z" />
    <glyph glyph-name="Cdotaccent" unicode="&#x10a;" horiz-adv-x="1177" 
d="M528 1542q-18 0 -18 17v159q0 18 18 19h152q18 0 18 -19v-159q0 -16 -18 -17h-152zM909 983q-18 0 -18 18v60q0 92 -50 138t-139 46h-172q-88 0 -137 -46t-49 -138v-713q0 -90 49 -136t137 -46h172q90 0 139.5 46t49.5 136v72q0 18 18 18h158q18 0 18 -18v-94
q0 -137 -98 -233.5t-233 -96.5h-275q-135 0 -232 96t-97 234v757q0 137 97 235.5t232 98.5h275q135 0 233 -98t98 -236v-82q0 -18 -18 -18h-158z" />
    <glyph glyph-name="cdotaccent" unicode="&#x10b;" horiz-adv-x="1077" 
d="M483 1278q-18 0 -18 18v170q0 18 18 19h152q18 0 18 -19v-170q0 -18 -18 -18h-152zM633 1135q152 0 247 -103.5t95 -234.5v-33q0 -18 -19 -19h-151q-18 0 -19 19v20q0 184 -184 185h-96q-92 0 -139.5 -48.5t-47.5 -152.5v-406q0 -104 47.5 -153t139.5 -49h96
q184 0 184 184v21q0 18 19 18h151q18 0 19 -18v-33q0 -131 -95.5 -234.5t-246.5 -103.5h-160q-147 0 -244.5 101.5t-97.5 252.5v432q0 152 97.5 253.5t244.5 101.5h160z" />
    <glyph glyph-name="Ccaron" unicode="&#x10c;" horiz-adv-x="1177" 
d="M502 1534l-199 223q-6 6 -2 12.5t14 6.5h99q10 0 22 -13l131 -121q20 -18 23 -28q0 10 20 28l131 121q12 12 23 13h98q10 0 13.5 -6.5t-1.5 -12.5l-196 -223q-12 -14 -23 -14h-133q-10 0 -20 14zM909 983q-18 0 -18 18v60q0 92 -50 138t-139 46h-172q-88 0 -137 -46
t-49 -138v-713q0 -90 49 -136t137 -46h172q90 0 139.5 46t49.5 136v72q0 18 18 18h158q18 0 18 -18v-94q0 -137 -98 -233.5t-233 -96.5h-275q-135 0 -232 96t-97 234v757q0 137 97 235.5t232 98.5h275q135 0 233 -98t98 -236v-82q0 -18 -18 -18h-158z" />
    <glyph glyph-name="ccaron" unicode="&#x10d;" horiz-adv-x="1077" 
d="M455 1270l-205 237q-4 6 -1 12.5t13 6.5h100q10 0 23 -13l135 -127q23 -20 25 -32q0 12 22 32l135 127q12 12 23 13h100q8 0 12.5 -6.5t-1.5 -12.5l-203 -237q-12 -16 -23 -17h-133q-10 1 -22 17zM805 745q-18 0 -19 19v20q0 184 -184 185h-96q-92 0 -139.5 -48.5
t-47.5 -152.5v-406q0 -104 47.5 -153t139.5 -49h96q184 0 184 184v21q0 18 19 18h151q18 0 19 -18v-33q0 -131 -95.5 -234.5t-246.5 -103.5h-160q-147 0 -244.5 101.5t-97.5 252.5v432q0 152 97.5 253.5t244.5 101.5h160q152 0 247 -103.5t95 -234.5v-33q0 -18 -19 -19h-151
z" />
    <glyph glyph-name="Dcaron" unicode="&#x10e;" horiz-adv-x="1275" 
d="M514 1532l-197 223q-6 6 -2 12.5t13 6.5h98q12 0 23 -13l131 -121q23 -18 22 -28q2 10 23 28l131 121q10 12 22 13h99q8 0 12 -6.5t-2 -12.5l-197 -223q-12 -14 -20 -14h-133q-11 0 -23 14zM788 1411q141 0 240.5 -97t99.5 -237v-743q0 -139 -99 -236.5t-241 -97.5h-589
q-18 0 -19 18v1375q0 18 19 18h589zM932 344v723q0 80 -49 126t-135 46h-330q-16 0 -53 16q10 -31 10 -49v-1003q0 -16 -13 -45q39 14 56 14h330q86 0 135 46t49 126z" />
    <glyph glyph-name="dcaron" unicode="&#x10f;" horiz-adv-x="1210" 
d="M457 -4q-141 0 -235.5 97t-94.5 247v451q0 150 92 247t232 97h118q117 0 193 -64q41 -31 55 -57q0 2 -4 16t-7 31.5t-3 32.5v540q0 16 18 17h152q18 0 18 -17v-1609q0 -16 -18 -17h-139q-18 0 -19 19v34q0 16 6 62q-16 -31 -53 -57q-86 -70 -180 -70h-131zM1268 1638
q25 0 20 -22l-37 -356q-4 -29 -20 -29l-64 -2h-14t-9 3t-3 11v373q0 23 20 22h107zM502 160h139q162 0 162 170v469q0 172 -162 172h-139q-186 0 -187 -201v-410q1 -200 187 -200z" />
    <glyph glyph-name="Dcroat" unicode="&#x110;" horiz-adv-x="1275" 
d="M336 1544q-20 0 -21 21v77q0 20 21 21h557q18 0 18 -21v-77q0 -20 -18 -21h-557zM199 0q-18 0 -19 18v1375q0 18 19 18h589q141 0 240.5 -97t99.5 -237v-743q0 -139 -99 -236.5t-241 -97.5h-589zM362 158q39 14 56 14h330q86 0 135 46t49 126v723q0 80 -49 126t-135 46
h-330q-18 0 -53 16q10 -31 10 -49v-1001q-1 -18 -13 -47z" />
    <glyph glyph-name="dcroat" unicode="&#x111;" horiz-adv-x="1089" 
d="M1182 1409q20 0 20 -23v-83q0 -20 -20 -21h-191v-1257q0 -16 -18 -17h-139q-18 0 -19 19v34q0 16 6 62q-16 -31 -53 -57q-86 -70 -180 -70h-131q-141 0 -235.5 97t-94.5 247v451q0 150 92 247t232 97h118q117 0 193 -64q41 -31 55 -57q0 2 -4 16t-7 31.5t-3 32.5v188
h-195q-20 0 -20 21v83q0 23 20 23h195v225q0 16 18 17h152q18 0 18 -17v-225h191zM803 330v469q0 172 -162 172h-139q-186 0 -187 -201v-410q0 -201 187 -200h139q162 0 162 170z" />
    <glyph glyph-name="Emacron" unicode="&#x112;" horiz-adv-x="1067" 
d="M297 1544q-18 0 -18 21v77q0 20 18 21h557q20 0 20 -21v-77q0 -20 -20 -21h-557zM203 0q-23 0 -23 20v1371q0 20 23 20h745q18 0 19 -18v-136q0 -18 -19 -18h-530q-16 0 -53 14q10 -31 10 -47v-346q0 -16 -13 -47q37 16 56 16l477 -2q18 0 18 -18v-119q0 -16 -18 -16
h-477q-12 0 -56 14q12 -27 13 -47v-436q0 -20 -13 -49q43 16 56 16h571q18 0 19 -18v-136q0 -18 -19 -18h-786z" />
    <glyph glyph-name="emacron" unicode="&#x113;" horiz-adv-x="1099" 
d="M279 1282q-20 0 -21 23v84q0 20 21 20h573q20 0 20 -20v-84q0 -23 -20 -23h-573zM657 1135q137 0 242 -100.5t105 -241.5v-248q0 -18 -19 -19h-623q-41 0 -57 13q10 -18 10 -45v-150q0 -86 45.5 -135t135.5 -49h139q78 0 120 41t42 118l2 9q0 14 16 14h152q18 0 16 -18
v-19q-10 -127 -103.5 -219t-217.5 -92h-189q-143 0 -244.5 102.5t-101.5 249.5v436q0 145 101.5 249t244.5 104h184zM768 659q37 0 57 -12q-10 25 -10 51v107q0 80 -45 123t-127 43h-154q-84 0 -129 -43t-45 -123v-107q0 -25 -10 -51q20 12 57 12h406z" />
    <glyph glyph-name="Ebreve" unicode="&#x114;" horiz-adv-x="1067" 
d="M858 1761q16 0 16 -16q-6 -96 -77.5 -159.5t-163.5 -63.5h-109q-88 0 -157.5 63.5t-75.5 159.5q-2 16 16 16h80q12 0 16 -14q6 -45 48.5 -79t105.5 -34h49q66 0 108 33t48 80q2 14 16 14h80zM203 0q-23 0 -23 20v1371q0 20 23 20h745q18 0 19 -18v-136q0 -18 -19 -18
h-530q-16 0 -53 14q10 -31 10 -47v-346q0 -16 -13 -47q37 16 56 16l477 -2q18 0 18 -18v-119q0 -16 -18 -16h-477q-12 0 -56 14q12 -27 13 -47v-436q0 -20 -13 -49q43 16 56 16h571q18 0 19 -18v-136q0 -18 -19 -18h-786z" />
    <glyph glyph-name="ebreve" unicode="&#x115;" horiz-adv-x="1099" 
d="M848 1501q16 0 16 -16q-6 -96 -77.5 -160.5t-163.5 -64.5l-109 2q-88 0 -157.5 63.5t-75.5 159.5q-2 16 16 16h80q12 0 16 -14q6 -47 47 -80t107 -33h49q66 0 107.5 33t48.5 80q2 14 16 14h80zM657 1135q137 0 242 -100.5t105 -241.5v-248q0 -18 -19 -19h-623
q-41 0 -57 13q10 -18 10 -45v-150q0 -86 45.5 -135t135.5 -49h139q78 0 120 41t42 118l2 9q0 14 16 14h152q18 0 16 -18v-19q-10 -127 -103.5 -219t-217.5 -92h-189q-143 0 -244.5 102.5t-101.5 249.5v436q0 145 101.5 249t244.5 104h184zM768 659q37 0 57 -12
q-10 25 -10 51v107q0 80 -45 123t-127 43h-154q-84 0 -129 -43t-45 -123v-107q0 -25 -10 -51q20 12 57 12h406z" />
    <glyph glyph-name="Edotaccent" unicode="&#x116;" horiz-adv-x="1067" 
d="M504 1540q-18 0 -19 16v160q0 16 19 17h151q18 0 19 -17v-160q0 -16 -19 -16h-151zM203 0q-23 0 -23 20v1371q0 20 23 20h745q18 0 19 -18v-136q0 -18 -19 -18h-530q-16 0 -53 14q10 -31 10 -47v-346q0 -16 -13 -47q37 16 56 16l477 -2q18 0 18 -18v-119q0 -16 -18 -16
h-477q-12 0 -56 14q12 -27 13 -47v-436q0 -20 -13 -49q43 16 56 16h571q18 0 19 -18v-136q0 -18 -19 -18h-786z" />
    <glyph glyph-name="edotaccent" unicode="&#x117;" horiz-adv-x="1099" 
d="M494 1278q-18 0 -19 18v170q0 18 19 19h151q18 0 19 -19v-170q0 -18 -19 -18h-151zM657 1135q137 0 242 -100.5t105 -241.5v-248q0 -18 -19 -19h-623q-41 0 -57 13q10 -18 10 -45v-150q0 -86 45.5 -135t135.5 -49h139q78 0 120 41t42 118l2 9q0 14 16 14h152q18 0 16 -18
v-19q-10 -127 -103.5 -219t-217.5 -92h-189q-143 0 -244.5 102.5t-101.5 249.5v436q0 145 101.5 249t244.5 104h184zM768 659q37 0 57 -12q-10 25 -10 51v107q0 80 -45 123t-127 43h-154q-84 0 -129 -43t-45 -123v-107q0 -25 -10 -51q20 12 57 12h406z" />
    <glyph glyph-name="Eogonek" unicode="&#x118;" horiz-adv-x="1067" 
d="M1042 -328q18 0 19 -24v-51q0 -18 -19 -19h-151q-88 0 -142.5 51.5t-54.5 126.5v23q0 115 125 205l21 16h-637q-23 0 -23 20v1371q0 20 23 20h745q18 0 19 -18v-136q0 -18 -19 -18h-530q-16 0 -53 14q10 -31 10 -47v-346q0 -16 -13 -47q37 16 56 16l477 -2q18 0 18 -18
v-119q0 -16 -18 -16h-477q-12 0 -56 14q12 -27 13 -47v-436q0 -20 -13 -49q43 16 56 16h571q18 0 19 -18v-136q0 -10 -4 -14q-2 -6 -9 -10l-86 -64q-57 -41 -81.5 -75.5t-24.5 -81.5q0 -49 28.5 -75t79.5 -26h131z" />
    <glyph glyph-name="eogonek" unicode="&#x119;" horiz-adv-x="1099" 
d="M657 1135q137 0 242 -100.5t105 -241.5v-248q0 -18 -19 -19h-623q-41 0 -57 13q10 -18 10 -45v-150q0 -86 45.5 -135t135.5 -49h139q78 0 120 41t42 118l2 9q0 14 16 14h152q18 0 16 -18v-19q-10 -127 -103.5 -219t-217.5 -92h-13l-88 -68q-61 -45 -85.5 -82t-24.5 -86
q0 -51 29.5 -78.5t80.5 -27.5h137q16 0 17 -27v-55q0 -18 -17 -19h-157q-90 0 -145.5 54.5t-55.5 136.5v25q0 121 129 217l14 10h-10q-143 0 -244.5 102.5t-101.5 249.5v436q0 145 101.5 249t244.5 104h184zM768 659q37 0 57 -12q-10 25 -10 51v107q0 80 -45 123t-127 43
h-154q-84 0 -129 -43t-45 -123v-107q0 -25 -10 -51q20 12 57 12h406z" />
    <glyph glyph-name="Ecaron" unicode="&#x11a;" horiz-adv-x="1067" 
d="M475 1532l-196 223q-6 6 -2 12.5t14 6.5h98q10 0 23 -13l131 -121q20 -18 20 -28q2 10 23 28l131 121q12 12 22 13h99q10 0 13 -6.5t-1 -12.5l-197 -223q-12 -14 -22 -14h-133q-11 0 -23 14zM989 172q18 0 19 -18v-136q0 -18 -19 -18h-786q-23 0 -23 20v1371q0 20 23 20
h745q18 0 19 -18v-136q0 -18 -19 -18h-530q-16 0 -53 14q10 -31 10 -47v-346q0 -16 -13 -47q37 16 56 16l477 -2q18 0 18 -18v-119q0 -16 -18 -16h-477q-12 0 -56 14q12 -27 13 -47v-436q0 -20 -13 -49q43 16 56 16h571z" />
    <glyph glyph-name="ecaron" unicode="&#x11b;" horiz-adv-x="1099" 
d="M465 1270l-205 237q-6 6 -2 12.5t14 6.5h99q12 0 24 -13l135 -127q23 -20 23 -32q2 12 22 32l136 127q12 12 24 13h99q10 0 14 -6.5t-2 -12.5l-203 -237q-12 -16 -22 -17h-136q-8 1 -20 17zM657 1135q137 0 240.5 -100.5t103.5 -241.5v-248q0 -18 -16 -19h-623
q-41 0 -57 13q10 -18 10 -45v-150q0 -86 45.5 -135t135.5 -49h139q78 0 120 41t42 118l2 9q0 14 16 14h152q18 0 16 -18v-19q-10 -127 -103.5 -219t-217.5 -92h-189q-143 0 -244.5 102.5t-101.5 249.5v436q0 145 101.5 249t244.5 104h184zM768 659q37 0 57 -12
q-10 25 -10 51v107q0 80 -45 123t-127 43h-154q-84 0 -129 -43t-45 -123v-107q0 -25 -10 -51q20 12 57 12h406z" />
    <glyph glyph-name="Gcircumflex" unicode="&#x11c;" horiz-adv-x="1212" 
d="M324 1518q-10 0 -14.5 6t1.5 14l205 236q12 16 21 16h135q10 0 22 -16l203 -236q6 -8 2 -14t-14 -6h-99q-12 0 -24 12l-135 127q-20 20 -23 33q0 -12 -22 -33l-136 -127q-12 -12 -24 -12h-98zM1065 752q18 0 18 -19v-407q0 -137 -99 -234.5t-239 -97.5h-258
q-141 0 -239 97t-98 235v757q0 139 98 236.5t239 97.5h258q139 0 237.5 -96t98.5 -227v-47q0 -18 -18 -19h-156q-18 0 -18 19v28q0 82 -49 126t-138 44h-174q-88 0 -136 -47t-48 -129v-721q0 -90 49 -136t137 -46h172q88 0 137.5 46t49.5 136v230q0 12 14 49
q-39 -16 -55 -17h-164q-18 0 -18 19v104q2 18 20 19h379z" />
    <glyph glyph-name="gcircumflex" unicode="&#x11d;" horiz-adv-x="1122" 
d="M297 1257q-10 0 -14 6.5t2 12.5l204 237q12 16 21 17h135q10 0 23 -17l202 -237q6 -6 2 -12.5t-14 -6.5h-98q-12 0 -25 13l-135 127q-20 20 -22 33q0 -12 -23 -33l-135 -127q-12 -12 -25 -13h-98zM1118 1130q18 0 19 -18v-125q0 -18 -19 -18h-69q-55 0 -99 -15
q-6 0 -13 1t-11 3l-4 3q23 -20 22 -35q35 -51 35 -121v-119q-2 -147 -99.5 -238.5t-242.5 -91.5h-199q-156 0 -155 -82v-28q0 -82 157 -82h277q137 0 228 -83t91 -214v-74q0 -133 -99 -217t-239 -84h-299q-141 0 -235 82t-94 215v80q0 76 38.5 142.5t98.5 94.5
q-41 20 -65.5 58.5t-24.5 77.5v37q0 106 121 153q-123 88 -121 254v119q2 152 99 241t243 89h178q106 0 192 -50q10 -8 21 -20q4 12 14 16q74 49 168 49h86zM627 522q80 0 122 44t42 128v103q0 172 -164 172h-158q-80 0 -122 -43t-42 -129v-103q0 -172 164 -172h158zM395 16
q-63 0 -112.5 -44t-49.5 -124v-24q0 -82 48.5 -127t134.5 -45h276q82 0 132 45t50 123v28q0 80 -48 124t-134 44h-297z" />
    <glyph glyph-name="Gbreve" unicode="&#x11e;" horiz-adv-x="1212" 
d="M872 1749q16 0 17 -16q-6 -90 -76 -149.5t-160 -59.5h-106q-86 0 -153.5 60.5t-74.5 148.5q0 16 17 16h80q12 0 14 -12q8 -45 48 -76t102 -31h49q61 0 101 31t46 76q4 12 17 12h79zM487 -6q-141 0 -239 97t-98 235v757q0 139 98 236.5t239 97.5h258q139 0 237.5 -96
t98.5 -227v-47q0 -18 -18 -19h-156q-18 0 -18 19v28q0 82 -49 126t-138 44h-174q-88 0 -136 -47t-48 -129v-721q0 -90 49 -136t137 -46h172q88 0 137.5 46t49.5 136v230q0 12 14 49q-39 -16 -55 -17h-164q-18 0 -18 19v104q2 18 20 19h379q18 0 18 -19v-407
q0 -137 -99 -234.5t-239 -97.5h-258z" />
    <glyph glyph-name="gbreve" unicode="&#x11f;" horiz-adv-x="1122" 
d="M854 1501q16 0 14 -16q-4 -96 -76.5 -160.5t-164.5 -64.5l-107 2q-90 0 -159.5 63.5t-73.5 159.5q-2 16 14 16h82q12 0 16 -14q6 -47 47 -80t107 -33h49q66 0 107 33t47 80q4 14 16 14h82zM1047 969q-53 0 -97 -15q-6 0 -13 1t-11 3l-4 3q23 -20 22 -35q35 -51 35 -121
v-119q-2 -147 -99.5 -238.5t-242.5 -91.5h-199q-156 0 -155 -82v-28q0 -82 157 -82h277q137 0 228 -83t91 -214v-74q0 -133 -99 -217t-239 -84h-299q-141 0 -235 82t-94 215v80q0 76 38.5 142.5t98.5 94.5q-41 20 -65.5 58.5t-24.5 77.5v37q0 106 121 153q-123 88 -121 254
v119q2 152 99 241t243 89h178q106 0 192 -50q10 -8 21 -20q4 12 14 16q74 49 168 49h86q18 0 19 -18v-125q0 -18 -19 -18h-71zM791 694v103q0 172 -164 172h-158q-80 0 -122 -43t-42 -129v-103q0 -172 164 -172h158q80 0 122 44t42 128zM692 16h-297q-66 0 -114 -44
t-48 -124v-24q0 -82 48.5 -127t134.5 -45h276q82 0 132 45t50 123v28q0 80 -48 124t-134 44z" />
    <glyph glyph-name="Gdotaccent" unicode="&#x120;" horiz-adv-x="1212" 
d="M526 1540q-18 0 -18 16v160q0 16 18 17h150q18 0 18 -17v-160q0 -16 -18 -16h-150zM487 -6q-141 0 -239 97t-98 235v757q0 139 98 236.5t239 97.5h258q139 0 237.5 -96t98.5 -227v-47q0 -18 -18 -19h-156q-18 0 -18 19v28q0 82 -49 126t-138 44h-174q-88 0 -136 -47
t-48 -129v-721q0 -90 49 -136t137 -46h172q88 0 137.5 46t49.5 136v230q0 12 14 49q-39 -16 -55 -17h-164q-18 0 -18 19v104q2 18 20 19h379q18 0 18 -19v-407q0 -137 -99 -234.5t-239 -97.5h-258z" />
    <glyph glyph-name="gdotaccent" unicode="&#x121;" horiz-adv-x="1122" 
d="M498 1278q-18 0 -19 18v170q0 18 19 19h151q20 0 21 -19v-170q0 -18 -21 -18h-151zM1047 969q-53 0 -97 -15q-6 0 -13 1t-11 3l-4 3q23 -20 22 -35q35 -51 35 -121v-119q-2 -147 -99.5 -238.5t-242.5 -91.5h-199q-156 0 -155 -82v-28q0 -82 157 -82h277q137 0 228 -83
t91 -214v-74q0 -133 -99 -217t-239 -84h-299q-141 0 -235 82t-94 215v80q0 76 38.5 142.5t98.5 94.5q-41 20 -65.5 58.5t-24.5 77.5v37q0 106 121 153q-123 88 -121 254v119q2 152 99 241t243 89h178q106 0 192 -50q10 -8 21 -20q4 12 14 16q74 49 168 49h86q18 0 19 -18
v-125q0 -18 -19 -18h-71zM791 694v103q0 172 -164 172h-158q-80 0 -122 -43t-42 -129v-103q0 -172 164 -172h158q80 0 122 44t42 128zM692 16h-297q-63 0 -112.5 -44t-49.5 -124v-24q0 -82 48.5 -127t134.5 -45h276q82 0 132 45t50 123v28q0 80 -48 124t-134 44z" />
    <glyph glyph-name="uni0122" unicode="&#x122;" horiz-adv-x="1212" 
d="M487 -6q-141 0 -239 97t-98 235v757q0 139 98 236.5t239 97.5h258q139 0 237.5 -96t98.5 -227v-47q0 -18 -18 -19h-156q-18 0 -18 19v28q0 82 -49 126t-138 44h-174q-88 0 -136 -47t-48 -129v-721q0 -90 49 -136t137 -46h172q88 0 137.5 46t49.5 136v230q0 12 14 49
q-39 -16 -55 -17h-164q-18 0 -18 19v104q2 18 20 19h379q18 0 18 -19v-407q0 -137 -99 -234.5t-239 -97.5h-258zM700 -102q10 0 16.5 -6.5t4.5 -14.5l-37 -336q-4 -27 -20 -26l-62 -2h-14t-9.5 3t-3.5 11v350q0 20 19 21h106z" />
    <glyph glyph-name="uni0123" unicode="&#x123;" horiz-adv-x="1122" 
d="M618 1683q23 0 21 -20l-37 -358q-4 -29 -20 -29l-64 -2h-14t-9 4t-3 12v373q0 20 20 20h106zM1047 969q-53 0 -97 -15q-6 0 -13 1t-11 3l-4 3q23 -20 22 -35q35 -51 35 -121v-119q-2 -147 -99.5 -238.5t-242.5 -91.5h-199q-156 0 -155 -82v-28q0 -82 157 -82h277
q137 0 228 -83t91 -214v-74q0 -133 -99 -217t-239 -84h-299q-141 0 -235 82t-94 215v80q0 76 38.5 142.5t98.5 94.5q-41 20 -65.5 58.5t-24.5 77.5v37q0 106 121 153q-123 88 -121 254v119q2 152 99 241t243 89h178q106 0 192 -50q10 -8 21 -20q4 12 14 16q74 49 168 49h86
q18 0 19 -18v-125q0 -18 -19 -18h-71zM791 694v103q0 172 -164 172h-158q-80 0 -122 -43t-42 -129v-103q0 -172 164 -172h158q80 0 122 44t42 128zM692 16h-297q-66 0 -114 -44t-48 -124v-24q0 -82 48.5 -127t134.5 -45h276q82 0 132 45t50 123v28q0 80 -48 124t-134 44z
" />
    <glyph glyph-name="Hcircumflex" unicode="&#x124;" horiz-adv-x="1310" 
d="M377 1518q-8 0 -12.5 6t2.5 14l204 236q10 16 21 16h135q10 0 21 -16l204 -236q6 -8 2 -14t-14 -6h-100q-10 0 -23 12l-135 127q-23 20 -23 33q-2 -12 -22 -33l-137 -127q-10 -12 -23 -12h-100zM1120 1411q18 0 19 -18v-1375q0 -18 -19 -18h-157q-18 0 -19 18v600
q0 18 12 48q-39 -14 -55 -15h-491q-18 0 -56 15q12 -31 13 -48v-600q0 -18 -19 -18h-158q-18 0 -18 18v1375q0 18 18 18h158q18 0 19 -18v-555q0 -18 -13 -47q37 14 56 14h491q18 0 55 -14q-12 29 -12 47v555q0 18 19 18h157z" />
    <glyph glyph-name="hcircumflex" unicode="&#x125;" horiz-adv-x="1155" 
d="M360 1767q-10 0 -13 6.5t1 14.5l205 235q12 16 22 17h134q10 0 22 -17l203 -235q6 -8 2 -14.5t-12 -6.5h-101q-10 0 -22 13l-135 127q-23 20 -23 32q-2 -12 -25 -32l-135 -127q-12 -12 -22 -13h-101zM686 1135q139 0 230.5 -97.5t91.5 -246.5v-762q0 -20 -21 -21h-147
q-20 0 -21 21v741q0 201 -186 201h-90q-94 0 -140.5 -49.5t-46.5 -153.5v-741q0 -18 -20 -19h-152q-18 0 -18 17v1609q0 16 18 17h154q18 0 18 -17v-540q0 -14 -4 -32t-7 -32t-5 -16q16 27 57 57q76 63 193 64h96z" />
    <glyph glyph-name="Hbar" unicode="&#x126;" horiz-adv-x="1423" 
d="M1315 1300q20 0 20 -16v-121q0 -18 -20 -18h-90q-18 0 -54 16q10 -31 11 -47v-1096q0 -18 -19 -18h-157q-18 0 -19 18v600q0 18 12 48q-39 -14 -53 -15h-469q-18 0 -53 15q10 -31 10 -48v-600q0 -18 -18 -18h-158q-18 0 -18 18v1096q0 16 12 47q-37 -16 -53 -16h-90
q-20 0 -21 18v121q0 16 21 16h90q16 0 53 -14q-12 29 -12 47v60q0 18 18 18h158q18 0 18 -18v-60q0 -18 -10 -47q37 14 53 14h469q16 0 53 -14q-12 29 -12 47v60q0 18 19 18h157q18 0 19 -18v-60q0 -18 -11 -47q37 14 54 14h90zM946 805q16 0 53 -14q-12 29 -12 47v276
q0 16 12 47q-37 -16 -53 -16h-469q-18 0 -53 16q10 -31 10 -47v-276q0 -18 -10 -47q37 14 53 14h469z" />
    <glyph glyph-name="hbar" unicode="&#x127;" horiz-adv-x="1155" 
d="M686 1135q139 0 230.5 -97.5t91.5 -246.5v-762q0 -20 -21 -21h-147q-20 0 -21 21v741q0 201 -186 201h-90q-94 0 -140.5 -49.5t-46.5 -153.5v-741q0 -18 -20 -19h-152q-18 0 -18 17v1257h-180q-20 0 -21 23v84q0 20 21 20h180v225q0 16 18 17h154q18 0 18 -17v-225h203
q20 0 21 -20v-84q0 -23 -21 -23h-203v-188q0 -14 -4 -32t-7 -32t-5 -16q16 27 57 57q76 63 193 64h96z" />
    <glyph glyph-name="Itilde" unicode="&#x128;" horiz-adv-x="555" 
d="M537 1716q18 0 16 -16q-10 -84 -61.5 -134t-120.5 -50q-66 0 -135 55q-55 45 -91 45q-33 0 -56 -23.5t-28 -56.5q-2 -14 -16 -14h-68q-18 0 -16 16q10 84 60.5 134t119.5 50q66 0 135 -57q57 -43 91 -43q35 0 57 23.5t27 56.5q4 14 18 14h68zM354 1411q20 0 21 -18v-1375
q0 -18 -21 -18h-153q-20 0 -21 18v1375q0 18 21 18h153z" />
    <glyph glyph-name="itilde" unicode="&#x129;" horiz-adv-x="522" 
d="M532 1466q18 0 17 -18q-10 -88 -62.5 -142.5t-124.5 -54.5q-68 0 -139 62q-23 18 -33 25.5t-26.5 14.5t-32.5 7q-37 0 -60.5 -25.5t-27.5 -60.5q-4 -16 -18 -17h-68q-18 0 -16 19q10 88 61 142.5t123 54.5q68 0 139 -60q23 -18 33 -26.5t27.5 -14.5t33.5 -6
q35 0 59.5 24.5t28.5 59.5q2 16 17 16h69zM336 1122q18 0 18 -18v-1077q0 -18 -18 -19h-152q-18 0 -18 19v1077q0 18 18 18h152z" />
    <glyph glyph-name="Imacron" unicode="&#x12a;" horiz-adv-x="555" 
d="M-10 1544q-20 0 -21 21v77q0 20 21 21h557q20 0 20 -21v-77q0 -20 -20 -21h-557zM354 1411q20 0 21 -18v-1375q0 -18 -21 -18h-153q-20 0 -21 18v1375q0 18 21 18h153z" />
    <glyph glyph-name="imacron" unicode="&#x12b;" horiz-adv-x="522" 
d="M-29 1282q-20 0 -20 23v84q0 20 20 20h574q20 0 20 -20v-84q0 -23 -20 -23h-574zM336 1122q18 0 18 -18v-1077q0 -18 -18 -19h-152q-18 0 -18 19v1077q0 18 18 18h152z" />
    <glyph glyph-name="Ibreve" unicode="&#x12c;" horiz-adv-x="555" 
d="M551 1761q16 0 16 -16q-6 -96 -77.5 -159.5t-163.5 -63.5h-109q-90 0 -159.5 63.5t-73.5 159.5q-2 16 16 16h80q12 0 16 -14q6 -45 47 -79t107 -34h49q66 0 106.5 33t49.5 80q2 14 14 14h82zM354 1411q20 0 21 -18v-1375q0 -18 -21 -18h-153q-20 0 -21 18v1375
q0 18 21 18h153z" />
    <glyph glyph-name="ibreve" unicode="&#x12d;" horiz-adv-x="522" 
d="M539 1501q18 0 16 -16q-6 -96 -77.5 -160.5t-164.5 -64.5l-106 2q-90 0 -160 63.5t-76 159.5q0 16 17 16h80q14 0 16 -14q6 -47 48 -80t108 -33h49q66 0 106.5 33t46.5 80q4 14 17 14h80zM336 1122q18 0 18 -18v-1077q0 -18 -18 -19h-152q-18 0 -18 19v1077q0 18 18 18
h152z" />
    <glyph glyph-name="Iogonek" unicode="&#x12e;" horiz-adv-x="555" 
d="M387 -328q18 0 19 -24v-51q0 -18 -19 -19h-154q-86 0 -140 51.5t-54 126.5v25q0 113 125 203l24 18q-8 6 -8 16v1375q0 18 21 18h153q20 0 21 -18v-1375q0 -18 -21 -18h-8q-2 -4 -6 -6l-86 -64q-57 -41 -82 -75.5t-25 -81.5q0 -49 29 -75t80 -26h131z" />
    <glyph glyph-name="iogonek" unicode="&#x12f;" horiz-adv-x="522" 
d="M184 1278q-18 0 -18 18v170q0 18 18 19h152q18 0 18 -19v-170q0 -18 -18 -18h-152zM373 -332q18 0 18 -26v-54q0 -18 -18 -18h-158q-90 0 -145.5 54t-55.5 134v25q0 123 129 217l25 20q-2 2 -2 7v1077q0 18 18 18h152q18 0 18 -18v-1077q0 -18 -18 -19h-19l-81 -63
q-61 -45 -86 -82t-25 -86q0 -53 29.5 -81t81.5 -28h137z" />
    <glyph glyph-name="Idotaccent" unicode="&#x130;" horiz-adv-x="555" 
d="M197 1540q-18 0 -19 16v160q0 16 19 17h149q18 0 19 -17v-160q0 -16 -19 -16h-149zM354 1411q20 0 21 -18v-1375q0 -18 -21 -18h-153q-20 0 -21 18v1375q0 18 21 18h153z" />
    <glyph glyph-name="dotlessi" unicode="&#x131;" horiz-adv-x="522" 
d="M336 1122q18 0 18 -18v-1077q0 -18 -18 -19h-152q-18 0 -18 19v1077q0 18 18 18h152z" />
    <glyph glyph-name="IJ" unicode="&#x132;" horiz-adv-x="1153" 
d="M575 -154q-23 0 -22 23v115q0 20 20 20h35q84 0 134.5 42t50.5 126v1219q0 23 22 22h152q23 0 22 -22v-1211q0 -137 -99 -235.5t-239 -98.5h-76zM354 1411q20 0 21 -18v-951q0 -18 -21 -18h-153q-20 0 -21 18v951q0 18 21 18h153z" />
    <glyph glyph-name="ij" unicode="&#x133;" horiz-adv-x="1046" 
d="M184 1278q-18 0 -18 18v170q0 18 18 19h152q18 0 18 -19v-170q0 -18 -18 -18h-152zM713 1278q-18 0 -19 18v170q0 18 19 19h151q18 0 19 -19v-170q0 -18 -19 -18h-151zM862 1122q18 0 19 -18v-1260q0 -145 -101.5 -248.5t-244.5 -103.5h-46q-20 0 -20 21v131q0 16 16 18
h35q84 2 128 53.5t44 145.5v1243q0 18 19 18h151zM336 1122q18 0 18 -18v-1077q0 -18 -18 -19h-152q-18 0 -18 19v1077q0 18 18 18h152z" />
    <glyph glyph-name="Jcircumflex" unicode="&#x134;" horiz-adv-x="598" 
d="M625 1538q6 -8 2 -14t-15 -6h-100q-10 0 -23 12l-135 127q-23 20 -22 33q-2 -12 -23 -33l-137 -127q-10 -12 -22 -12h-101q-8 0 -12 6t2 14l205 236q10 16 20 16h135q10 0 21 -16zM412 1413q23 0 22 -22v-1211q0 -137 -99 -235.5t-239 -98.5h-76q-23 0 -22 23v115
q0 20 20 20h37q82 0 132.5 42t50.5 126v1219q0 23 22 22h152z" />
    <glyph glyph-name="jcircumflex" unicode="&#x135;" horiz-adv-x="524" 
d="M563 1276q6 -6 2 -12.5t-14 -6.5h-100q-10 0 -23 13l-135 127q-20 20 -23 33q0 -12 -22 -33l-137 -127q-10 -12 -23 -13h-98q-10 0 -14.5 6.5t1.5 12.5l205 237q12 16 21 17h135q10 0 22 -17zM340 1122q18 0 18 -18v-1260q0 -145 -101 -248.5t-245 -103.5h-45
q-20 0 -20 21v131q0 16 16 18h35q84 2 128 53.5t44 145.5v1243q0 18 18 18h152z" />
    <glyph glyph-name="uni0136" unicode="&#x136;" horiz-adv-x="1181" 
d="M199 0q-18 0 -19 18v1375q0 18 19 18h157q18 0 19 -18v-559q0 -57 -13 -121q29 53 70 104l471 584q8 10 23 10h196q10 0 14.5 -7t-3.5 -15l-428 -517q-14 -16 -33 -24l6 -4t12 -9.5t10 -11.5l494 -800q6 -10 3 -16.5t-15 -6.5h-174q-14 0 -21 12l-405 664q-10 14 -15 53
q-14 -33 -30 -51l-142 -178q-6 -6 -14 -10.5t-15.5 -6.5t-9.5 -4l10 -10q9 -10 9 -20v-431q0 -18 -19 -18h-157zM686 -102q10 0 15.5 -6.5t3.5 -14.5l-35 -336q-4 -27 -21 -26l-63 -2h-14.5t-9.5 3t-3 11v350q0 20 21 21h106z" />
    <glyph glyph-name="uni0137" unicode="&#x137;" horiz-adv-x="1017" 
d="M184 8q-18 0 -18 19v1599q0 18 18 19h152q18 0 18 -19v-889q0 -74 -18 -153q31 70 82 135l330 418q10 12 24 12h178q12 0 15.5 -8t-4.5 -19l-328 -401q-14 -18 -33 -27q18 -8 31 -26l379 -633q6 -12 2 -19.5t-17 -7.5h-164q-14 0 -24 15l-287 495q-12 23 -18 62
q-4 -27 -27 -54l-115 -143q-4 -8 -14 -8l4 -4t4 -11v-333q0 -18 -18 -19h-152zM604 -111q23 0 21 -20l-37 -356q-4 -29 -21 -31h-63h-16.5t-9.5 3t-3 11v373q0 20 21 20h108z" />
    <glyph glyph-name="kgreenlandic" unicode="&#x138;" horiz-adv-x="1017" 
d="M184 8q-18 0 -18 19v1103q0 18 18 19h152q18 0 18 -16v-396q0 -74 -18 -153q31 70 82 135l330 418q10 12 26 12h176q12 0 15.5 -8t-4.5 -19l-328 -401q-14 -18 -33 -27q18 -8 31 -26l379 -635q6 -10 2 -17.5t-17 -7.5h-161q-16 0 -25 15l-289 495q-12 23 -18 62
q-4 -27 -27 -54l-115 -143q-4 -8 -14 -8l4 -4t4 -11v-333q0 -18 -18 -19h-152z" />
    <glyph glyph-name="Lacute" unicode="&#x139;" horiz-adv-x="901" 
d="M498 1532q-10 0 -13.5 5t0.5 13l166 236q10 12 25 12h131q10 0 14 -7t-4 -13l-205 -236q-8 -10 -20 -10h-94zM203 0q-23 0 -23 20v1371q0 20 23 20h149q23 0 23 -20v-1182q0 -18 -13 -49q33 12 56 12h465q23 0 22 -20v-132q0 -20 -22 -20h-680z" />
    <glyph glyph-name="lacute" unicode="&#x13a;" horiz-adv-x="522" 
d="M203 1763q-10 0 -13.5 6.5t0.5 14.5l172 252q10 12 25 12h133q10 0 13.5 -7t-3.5 -16l-211 -251q-10 -10 -22 -11h-94zM336 1636q18 0 18 -18v-1591q0 -18 -18 -19h-152q-18 0 -18 19v1591q0 18 18 18h152z" />
    <glyph glyph-name="uni013B" unicode="&#x13b;" horiz-adv-x="901" 
d="M203 0q-23 0 -23 20v1371q0 20 23 20h149q23 0 23 -20v-1182q0 -18 -13 -49q33 12 56 12h465q23 0 22 -20v-132q0 -20 -22 -20h-680zM590 -102q8 0 14 -6.5t4 -14.5l-35 -336q-4 -27 -20 -26l-64 -2h-14t-9 3t-3 11v350q0 20 20 21h107z" />
    <glyph glyph-name="uni013C" unicode="&#x13c;" horiz-adv-x="522" 
d="M336 1636q18 0 18 -18v-1591q0 -18 -18 -19h-152q-18 0 -18 19v1591q0 18 18 18h152zM317 -111q25 0 21 -20l-37 -356q-4 -29 -20 -31h-64h-14t-9.5 3t-3.5 11v373q0 20 21 20h106z" />
    <glyph glyph-name="Lcaron" unicode="&#x13d;" horiz-adv-x="901" 
d="M498 1532l-199 223q-6 6 -2 12.5t14 6.5h99q10 0 22 -13l131 -121q20 -18 23 -28q0 10 20 28l131 121q12 12 23 13h98q10 0 13 -6.5t-1 -12.5l-196 -223q-12 -14 -23 -14h-133q-10 0 -20 14zM883 172q23 0 22 -20v-132q0 -20 -22 -20h-680q-23 0 -23 20v1371q0 20 23 20
h149q23 0 23 -20v-1182q0 -18 -13 -49q33 12 56 12h465z" />
    <glyph glyph-name="lcaron" unicode="&#x13e;" horiz-adv-x="690" 
d="M336 1636q18 0 18 -18v-1591q0 -18 -18 -19h-152q-18 0 -18 19v1591q0 18 18 18h152zM657 1604q25 0 21 -21l-37 -356q-4 -29 -20 -31h-64h-14t-9.5 3t-3.5 11v373q0 20 21 21h106z" />
    <glyph glyph-name="Ldot" unicode="&#x13f;" horiz-adv-x="1062" 
d="M203 0q-23 0 -23 20v1371q0 20 23 20h149q23 0 23 -20v-1182q0 -18 -13 -49q33 12 56 12h465q23 0 22 -20v-132q0 -20 -22 -20h-680zM918 803q20 0 20 -21v-161q0 -20 -20 -21h-138q-20 0 -20 21v161q0 20 20 21h138z" />
    <glyph glyph-name="ldot" unicode="&#x140;" horiz-adv-x="942" 
d="M336 1636q18 0 18 -18v-1591q0 -18 -18 -19h-152q-18 0 -18 19v1591q0 18 18 18h152zM803 801q20 0 20 -23v-166q0 -23 -20 -22h-139q-20 0 -21 22v166q0 23 21 23h139z" />
    <glyph glyph-name="Lslash" unicode="&#x141;" horiz-adv-x="952" 
d="M934 172q23 0 22 -20v-132q0 -20 -22 -20h-680q-23 0 -23 20v564l-161 -105q-6 -4 -13.5 1t-7.5 16v129q0 20 19 28l163 107v631q0 20 23 20h149q23 0 23 -20v-506l133 86q10 4 18.5 1t8.5 -14v-127q0 -23 -17 -32l-143 -90v-500q0 -18 -12 -49q33 12 55 12h465z" />
    <glyph glyph-name="lslash" unicode="&#x142;" horiz-adv-x="573" 
d="M537 1049q10 6 18 2t8 -15v-133q0 -25 -16 -33l-158 -104v-739q0 -18 -18 -19h-152q-18 0 -18 19v612l-144 -96q-8 -4 -14 1t-6 15v135q0 23 16 31l148 98v863q0 20 18 20h152q18 0 18 -20v-736z" />
    <glyph glyph-name="Nacute" unicode="&#x143;" horiz-adv-x="1378" 
d="M598 1532q-10 0 -13 5t1 13l168 236q8 12 22 12h131q10 0 14.5 -7t-1.5 -13l-207 -236q-8 -10 -21 -10h-94zM1176 1411q23 0 22 -20v-1371q0 -20 -20 -20h-144q-16 0 -24 14l-594 1002q-47 80 -58 102q0 -4 5.5 -26.5t8.5 -47t3 -43.5v-981q0 -20 -23 -20h-149
q-23 0 -23 20v1371q0 20 23 20h151q16 0 25 -14l586 -981q45 -74 55 -101q0 4 -4 27t-8 47.5t-4 42.5v959q0 20 22 20h150z" />
    <glyph glyph-name="nacute" unicode="&#x144;" horiz-adv-x="1181" 
d="M514 1270q-8 0 -12 6t2 12l170 252q10 14 24 14h133q10 0 14.5 -8t-3.5 -14l-211 -252q-8 -10 -21 -10h-96zM707 1135q135 0 231 -98.5t96 -241.5v-768q0 -18 -18 -19h-152q-18 0 -18 19v743q0 201 -193 201h-125q-84 0 -129 -44t-45 -128v-772q0 -18 -18 -19h-152
q-18 0 -18 19v1077q0 18 18 18h135q20 0 21 -18v-10q0 -20 -6 -53t-6 -35q18 39 53 65q33 29 85 46.5t101 17.5h140z" />
    <glyph glyph-name="uni0145" unicode="&#x145;" horiz-adv-x="1378" 
d="M1176 1411q23 0 22 -20v-1371q0 -20 -20 -20h-144q-16 0 -24 14l-594 1002q-47 80 -58 102q0 -4 5.5 -27.5t8.5 -47t3 -42.5v-981q0 -20 -23 -20h-149q-23 0 -23 20v1371q0 20 23 20h151q16 0 25 -14l586 -981q45 -74 55 -101q0 4 -4 27t-8 47.5t-4 42.5v959q0 20 22 20
h150zM762 -102q10 0 16 -6.5t4 -14.5l-34 -336q-4 -27 -21 -26l-63 -2h-14.5t-9.5 3t-3 11v350q0 20 20 21h105z" />
    <glyph glyph-name="uni0146" unicode="&#x146;" horiz-adv-x="1181" 
d="M707 1135q135 0 231 -98.5t96 -241.5v-768q0 -18 -18 -19h-152q-18 0 -18 19v743q0 201 -193 201h-125q-84 0 -129 -44t-45 -128v-772q0 -18 -18 -19h-152q-18 0 -18 19v1077q0 18 18 18h135q20 0 21 -18v-10q0 -20 -6 -53t-6 -35q18 39 53 65q33 29 85 46.5t101 17.5
h140zM662 -111q25 0 20 -20l-35 -356q-4 -29 -20 -31h-64h-16t-9 3t-3 11v373q0 20 20 20h107z" />
    <glyph glyph-name="Ncaron" unicode="&#x147;" horiz-adv-x="1378" 
d="M598 1532l-199 223q-4 6 -1 12.5t14 6.5h98q10 0 22 -13l132 -121q20 -18 22 -28q0 10 21 28l131 121q12 12 22 13h98q10 0 14.5 -6.5t-1.5 -12.5l-197 -223q-12 -14 -22 -14h-134q-10 0 -20 14zM1176 1411q23 0 22 -20v-1371q0 -20 -20 -20h-144q-16 0 -24 14l-594 1002
q-47 80 -58 102q0 -4 5.5 -27.5t8.5 -47t3 -42.5v-981q0 -20 -23 -20h-149q-23 0 -23 20v1371q0 20 23 20h151q16 0 25 -14l586 -981q45 -74 55 -101q0 4 -4 27t-8 47.5t-4 42.5v959q0 20 22 20h150z" />
    <glyph glyph-name="ncaron" unicode="&#x148;" horiz-adv-x="1181" 
d="M516 1270l-205 237q-6 6 -2 12.5t15 6.5h98q12 0 24 -13l136 -127q23 -20 22 -32q2 12 23 32l135 127q12 12 24 13h99q10 0 14 -6.5t-2 -12.5l-203 -237q-12 -16 -22 -17h-135q-9 1 -21 17zM707 1135q135 0 231 -98.5t96 -241.5v-768q0 -18 -18 -19h-152q-18 0 -18 19
v743q0 201 -193 201h-125q-84 0 -129 -44t-45 -128v-772q0 -18 -18 -19h-152q-18 0 -18 19v1077q0 18 18 18h135q20 0 21 -18v-10q0 -20 -6 -53t-6 -35q18 39 53 65q33 29 85 46.5t101 17.5h140z" />
    <glyph glyph-name="napostrophe" unicode="&#x149;" horiz-adv-x="1230" 
d="M96 1528q23 0 21 -21l-37 -358q-4 -29 -21 -29l-63 -2h-14.5t-10.5 4t-4 13v372q0 20 21 21h108zM754 1135q135 0 231 -98.5t96 -241.5v-768q0 -18 -18 -19h-152q-18 0 -18 19v743q0 201 -193 201h-125q-84 0 -129 -44t-45 -128v-772q0 -18 -18 -19h-152q-18 0 -18 19
v1077q0 18 18 18h136q20 0 20 -18v-10q0 -20 -6 -53t-6 -35q18 39 53 65q33 29 85 46.5t101 17.5h140z" />
    <glyph glyph-name="Eng" unicode="&#x14a;" horiz-adv-x="1380" 
d="M1198 74v-4v-84q0 -100 -29.5 -172t-81 -108t-104.5 -51t-113 -15h-67q-18 0 -19 18v111q0 16 13 16h28q94 0 147.5 35t53.5 125q0 31 -12 63q-2 2 -4 6l-594 1002q-47 80 -58 102q0 -4 5.5 -26.5t8.5 -47t3 -43.5v-981q0 -20 -23 -20h-149q-23 0 -23 20v1371q0 20 23 20
h151q16 0 25 -14l586 -981q45 -74 55 -101q0 4 -4 27t-8 47.5t-4 42.5v959q0 20 22 20h150q23 0 22 -20v-1317z" />
    <glyph glyph-name="eng" unicode="&#x14b;" horiz-adv-x="1181" 
d="M1034 209v-221q0 -98 -31.5 -172t-83 -115t-108.5 -60.5t-117 -19.5h-67q-18 0 -19 19v114q0 18 15 19h12q106 0 158.5 48t52.5 156v43q-2 2 -2 7v743q0 201 -191 201h-127q-82 0 -127 -44t-45 -128v-772q0 -18 -18 -19h-152q-18 0 -18 19v1077q0 18 18 18h135
q20 0 21 -18v-10q0 -20 -7 -53t-7 -35q20 39 55 65q33 29 85 46.5t101 17.5h140q135 0 231 -98.5t96 -241.5v-586z" />
    <glyph glyph-name="Omacron" unicode="&#x14c;" 
d="M348 1544q-20 0 -20 21v77q0 20 20 21h557q18 0 19 -21v-77q0 -20 -19 -21h-557zM479 -4q-135 0 -232 96t-97 234v757q0 137 97 235.5t232 98.5h285q135 0 232.5 -98t97.5 -236v-757q0 -137 -97.5 -233.5t-232.5 -96.5h-285zM530 166h183q88 0 137 46t49 136v713
q0 92 -49 138t-137 46h-183q-88 0 -137 -46t-49 -138v-713q0 -90 49 -136t137 -46z" />
    <glyph glyph-name="omacron" unicode="&#x14d;" horiz-adv-x="1116" 
d="M272 1282q-20 0 -20 23v84q0 20 20 20h574q20 0 20 -20v-84q0 -23 -20 -23h-574zM645 1135q150 0 247 -101.5t97 -253.5v-434q0 -150 -97 -251t-245 -101h-178q-147 0 -244.5 101.5t-97.5 250.5v434q0 152 97.5 253.5t244.5 101.5h176zM614 969h-112q-92 0 -139.5 -48.5
t-47.5 -152.5v-410q0 -102 47.5 -151t139.5 -49h112q92 0 139.5 49t47.5 151v410q0 104 -47.5 152.5t-139.5 48.5z" />
    <glyph glyph-name="Obreve" unicode="&#x14e;" 
d="M909 1761q16 0 15 -16q-4 -96 -77 -159.5t-165 -63.5h-107q-90 0 -159.5 63.5t-73.5 159.5q-2 16 14 16h82q12 0 15 -14q8 -45 49 -79t106 -34h49q66 0 107 33t47 80q4 14 16 14h82zM479 -4q-135 0 -232 96t-97 234v757q0 137 97 235.5t232 98.5h285q135 0 232.5 -98
t97.5 -236v-757q0 -137 -97.5 -233.5t-232.5 -96.5h-285zM530 166h183q88 0 137 46t49 136v713q0 92 -49 138t-137 46h-183q-88 0 -137 -46t-49 -138v-713q0 -90 49 -136t137 -46z" />
    <glyph glyph-name="obreve" unicode="&#x14f;" horiz-adv-x="1116" 
d="M842 1501q16 0 16 -16q-6 -96 -77.5 -160.5t-164.5 -64.5l-108 2q-88 0 -157.5 63.5t-76.5 159.5q0 16 17 16h80q14 0 16 -14q6 -47 48 -80t106 -33h51q66 0 106.5 33t46.5 80q2 14 17 14h80zM645 1135q150 0 247 -101.5t97 -253.5v-434q0 -150 -97 -251t-245 -101h-178
q-147 0 -244.5 101.5t-97.5 250.5v434q0 152 97.5 253.5t244.5 101.5h176zM614 969h-112q-92 0 -139.5 -48.5t-47.5 -152.5v-410q0 -102 47.5 -151t139.5 -49h112q92 0 139.5 49t47.5 151v410q0 104 -47.5 152.5t-139.5 48.5z" />
    <glyph glyph-name="Ohungarumlaut" unicode="&#x150;" 
d="M356 1481q-8 0 -12 5t2 13l164 234q10 16 22 16h138q10 0 14 -6t-2 -12l-203 -236q-14 -14 -22 -14h-101zM698 1481q-10 0 -13 5t1 13l166 234q10 16 20 16h140q8 0 12 -6t0 -12l-205 -236q-14 -14 -22 -14h-99zM479 -4q-135 0 -232 96t-97 234v757q0 137 97 235.5
t232 98.5h285q135 0 232.5 -98t97.5 -236v-757q0 -137 -97.5 -233.5t-232.5 -96.5h-285zM530 166h183q88 0 137 46t49 136v713q0 92 -49 138t-137 46h-183q-88 0 -137 -46t-49 -138v-713q0 -90 49 -136t137 -46z" />
    <glyph glyph-name="ohungarumlaut" unicode="&#x151;" horiz-adv-x="1116" 
d="M285 1214q-10 0 -13.5 6.5t0.5 14.5l170 250q10 14 23 14h139q10 0 14.5 -6t-2.5 -12l-208 -250q-14 -16 -23 -17h-100zM633 1214q-10 0 -13.5 6.5t1.5 14.5l170 250q12 14 22 14h139q10 0 14.5 -6t-1.5 -12l-209 -250q-14 -16 -23 -17h-100zM645 1135q150 0 247 -101.5
t97 -253.5v-434q0 -150 -97 -251t-245 -101h-178q-147 0 -244.5 101.5t-97.5 250.5v434q0 152 97.5 253.5t244.5 101.5h176zM614 969h-112q-92 0 -139.5 -48.5t-47.5 -152.5v-410q0 -102 47.5 -151t139.5 -49h112q92 0 139.5 49t47.5 151v410q0 104 -47.5 152.5t-139.5 48.5
z" />
    <glyph glyph-name="OE" unicode="&#x152;" horiz-adv-x="1787" 
d="M1710 172q18 0 19 -18v-136q0 -18 -19 -18h-1231q-135 0 -232 97.5t-97 234.5v745q0 137 97 235.5t232 98.5h1190q18 0 19 -18v-136q0 -18 -19 -18h-530q-16 0 -56 14q12 -31 13 -47v-346q0 -16 -13 -47q37 16 56 16l477 -2q18 0 18 -16v-119q0 -18 -18 -18h-477
q-14 0 -56 14q12 -27 13 -47v-436q0 -20 -13 -49q41 16 56 16h571zM530 172h308q61 0 61 61v949q0 57 -53 57h-316q-88 0 -137 -47t-49 -137v-701q0 -90 49 -136t137 -46z" />
    <glyph glyph-name="oe" unicode="&#x153;" horiz-adv-x="1785" 
d="M1343 1135q137 0 241 -100.5t104 -241.5v-248q0 -18 -17 -19h-622q-41 0 -60 13q12 -18 12 -45v-150q0 -86 45.5 -135t135.5 -49h139q78 0 120 41t42 118l2 9q0 14 16 14h152q18 0 16 -18v-19q-10 -127 -103 -219t-218 -92h-189q-154 0 -256 115q-98 -115 -256 -115h-178
q-147 0 -244.5 101.5t-97.5 250.5v434q0 152 97.5 253.5t244.5 101.5h176q160 0 258 -115q102 115 256 115h184zM1454 659q37 0 57 -12q-10 27 -10 51v107q0 80 -45 123t-129 43h-153q-82 0 -127.5 -43t-45.5 -123v-107q0 -27 -10 -51q20 12 58 12h405zM801 358v410
q0 104 -47 152.5t-140 48.5h-112q-92 0 -139.5 -48.5t-47.5 -152.5v-410q0 -102 47.5 -151t139.5 -49h112q92 0 139.5 49t47.5 151z" />
    <glyph glyph-name="Racute" unicode="&#x154;" horiz-adv-x="1202" 
d="M504 1536q-8 0 -12.5 5t2.5 11l170 238q10 12 24 12h133q10 0 14.5 -7t-4.5 -13l-210 -238q-8 -8 -21 -8h-96zM203 0q-23 0 -23 20v1371q0 20 23 20h559q141 0 240.5 -95t99.5 -233v-147q0 -111 -70.5 -196t-177.5 -105q-27 -2 -63 6q33 -35 40 -51l302 -565
q6 -10 0.5 -17.5t-15.5 -7.5h-157q-16 0 -25 14l-299 566q-2 4 -12 45q-23 -14 -37 -15h-176q-18 0 -45 13q8 -27 8 -48v-555q0 -20 -23 -20h-149zM365 754q35 14 53 14h301q88 0 137 46t49 126v127q0 80 -49 126t-137 46h-301q-16 0 -56 14q12 -29 13 -47v-405
q0 -14 -10 -47z" />
    <glyph glyph-name="racute" unicode="&#x155;" horiz-adv-x="722" 
d="M303 1270q-10 0 -14 6t2 12l172 252q8 14 22 14h133q10 0 14.5 -8t-1.5 -14l-211 -252q-10 -10 -23 -10h-94zM674 1135q18 0 18 -19v-129q0 -18 -18 -18h-146q-82 0 -128 -44t-46 -126v-772q0 -18 -18 -19h-152q-18 0 -18 19v1077q0 18 18 18h138q20 0 18 -18l2 -10
q0 -18 -7 -51t-7 -37q20 39 53 65q35 29 86 46.5t100 17.5h107z" />
    <glyph glyph-name="uni0156" unicode="&#x156;" horiz-adv-x="1202" 
d="M203 0q-23 0 -23 20v1371q0 20 23 20h561q139 0 238.5 -95t99.5 -233v-147q0 -111 -70.5 -196t-177.5 -105q-27 -2 -63 6q33 -35 40 -51l302 -565q6 -10 0.5 -17.5t-15.5 -7.5h-157q-16 0 -25 14l-299 566q-2 4 -12 45q-23 -14 -37 -15h-176q-18 0 -45 13q8 -27 8 -48
v-555q0 -20 -23 -20h-149zM365 754q35 14 53 14h301q88 0 137 46t49 126v127q0 80 -49 126t-137 46h-301q-16 0 -56 14q12 -29 13 -47v-405q0 -14 -10 -47zM666 -102q10 0 16 -6.5t4 -14.5l-37 -336q-4 -27 -20 -26l-62 -2h-14t-9 3t-3 11v350q0 20 18 21h107z" />
    <glyph glyph-name="uni0157" unicode="&#x157;" horiz-adv-x="722" 
d="M674 1135q18 0 18 -19v-129q0 -18 -18 -18h-146q-82 0 -128 -44t-46 -126v-772q0 -18 -18 -19h-152q-18 0 -18 19v1077q0 18 18 18h138q20 0 18 -18l2 -10q0 -18 -7 -51t-7 -37q20 39 53 65q35 29 86 46.5t100 17.5h107zM330 -111q23 0 20 -20l-37 -356q-4 -29 -20 -31
h-64h-16t-9 3t-3 11v373q0 20 20 20h109z" />
    <glyph glyph-name="Rcaron" unicode="&#x158;" horiz-adv-x="1202" 
d="M506 1536l-197 221q-6 8 -2 13.5t12 5.5h101q10 0 22 -11l131 -120q20 -18 21 -31q2 12 22 31l132 120q10 10 22 11h98q8 0 12.5 -5.5t-1.5 -13.5l-197 -221q-10 -16 -20 -16h-134q-10 0 -22 16zM1133 25q6 -10 0.5 -17.5t-15.5 -7.5h-157q-16 0 -25 14l-299 566
q-2 4 -12 45q-23 -14 -37 -15h-176q-18 0 -45 13q8 -27 8 -48v-555q0 -20 -23 -20h-149q-23 0 -23 20v1371q0 20 23 20h559q141 0 240.5 -95t99.5 -233v-147q0 -111 -70.5 -196t-177.5 -105q-27 -2 -63 6q33 -35 40 -51zM418 768h301q88 0 137 46t49 126v127q0 80 -49 126
t-137 46h-301q-16 0 -56 14q12 -29 13 -47v-405q0 -14 -10 -47q35 14 53 14z" />
    <glyph glyph-name="rcaron" unicode="&#x159;" horiz-adv-x="722" 
d="M326 1253q-10 0 -23 17l-205 237q-4 6 -1 12.5t14 6.5h100q10 0 22 -13l136 -127q23 -20 22 -32q2 12 25 32l135 127q10 12 22 13h101q8 0 12 -6.5t-2 -12.5l-203 -237q-12 -16 -22 -17h-133zM674 1135q18 0 18 -19v-129q0 -18 -18 -18h-146q-82 0 -128 -44t-46 -126
v-772q0 -18 -18 -19h-152q-18 0 -18 19v1077q0 18 18 18h138q20 0 18 -18l2 -10q0 -18 -7 -51t-7 -37q20 39 53 65q35 29 86 46.5t100 17.5h107z" />
    <glyph glyph-name="Sacute" unicode="&#x15a;" horiz-adv-x="1118" 
d="M449 1532q-8 0 -12.5 5t1.5 13l166 236q10 12 23 12h133q10 0 14 -7t-4 -13l-205 -236q-10 -10 -22 -10h-94zM440 -6q-141 0 -239.5 97t-98.5 237v118q0 20 21 21h151q23 0 23 -21v-98q0 -90 49 -136t137 -46h156q86 0 135 47t49 135v94q0 100 -114 154l-408 176
q-92 37 -143.5 110.5t-51.5 155.5v49q0 135 98.5 232.5t237.5 97.5h222q143 0 237 -96t94 -238v-51q0 -20 -22 -20h-152q-23 0 -22 20v51q0 74 -47 118t-129 44h-156q-78 0 -123 -45t-45 -119v-28q0 -100 107 -148l417 -182q100 -43 147.5 -110.5t47.5 -172.5v-116
q0 -137 -100.5 -233.5t-241.5 -96.5h-236z" />
    <glyph glyph-name="sacute" unicode="&#x15b;" horiz-adv-x="1011" 
d="M416 1270q-10 0 -13.5 6t0.5 12l172 252q8 14 23 14h135q10 0 13.5 -8t-3.5 -14l-211 -252q-10 -10 -22 -10h-94zM362 -6q-113 0 -191.5 79t-82.5 187v82q0 18 21 18h139q20 0 22 -16l2 -84q2 -45 35 -72.5t80 -27.5h262q45 0 76 30.5t31 75.5v105q0 39 -20.5 65.5
t-53.5 36.5l-363 86q-102 18 -159.5 85t-57.5 161v61q0 113 78 191t193 78h262q113 0 191.5 -78t80.5 -187v-45q0 -16 -18 -16h-139q-20 0 -25 14l-2 47q0 43 -33 72t-80 29h-235q-45 0 -75 -32t-30 -77v-63q0 -35 23.5 -58.5t60.5 -33.5l361 -89q100 -18 153.5 -85.5
t53.5 -159.5v-111q0 -111 -77 -189.5t-192 -78.5h-291z" />
    <glyph glyph-name="Scircumflex" unicode="&#x15c;" horiz-adv-x="1118" 
d="M274 1518q-10 0 -13 6t1 14l205 236q12 16 22 16h134q10 0 22 -16l203 -236q6 -8 2 -14t-12 -6h-101q-12 0 -22 12l-135 127q-23 20 -23 33q-2 -12 -25 -33l-135 -127q-12 -12 -22 -12h-101zM823 723q100 -43 147.5 -110.5t47.5 -172.5v-116q0 -137 -100.5 -233.5
t-241.5 -96.5h-236q-141 0 -239.5 97t-98.5 237v118q0 20 21 21h151q23 0 23 -21v-98q0 -90 49 -136t137 -46h156q86 0 135 47t49 135v94q0 100 -114 154l-408 176q-92 37 -143.5 110.5t-51.5 155.5v49q0 135 98.5 232.5t237.5 97.5h222q143 0 237 -96t94 -238v-51
q0 -20 -22 -20h-152q-23 0 -22 20v51q0 74 -47 118t-129 44h-156q-78 0 -123 -45t-45 -119v-28q0 -100 107 -148z" />
    <glyph glyph-name="scircumflex" unicode="&#x15d;" horiz-adv-x="1011" 
d="M244 1257q-10 0 -14.5 6.5t1.5 12.5l205 237q10 16 21 17h135q10 0 22 -17l203 -237q6 -6 2 -12.5t-14 -6.5h-100q-10 0 -23 13l-135 127q-20 20 -23 33q0 -12 -22 -33l-137 -127q-10 -12 -23 -13h-98zM715 618q100 -18 153.5 -85.5t53.5 -159.5v-111q0 -111 -77 -189.5
t-192 -78.5h-291q-113 0 -191.5 79t-82.5 187v82q0 18 21 18h139q20 0 22 -16l2 -84q2 -45 35 -72.5t80 -27.5h262q45 0 76 30.5t31 75.5v105q0 39 -20.5 65.5t-53.5 36.5l-363 86q-102 18 -159.5 85t-57.5 161v61q0 113 78 191t193 78h262q113 0 191.5 -78t80.5 -187v-45
q0 -16 -18 -16h-139q-20 0 -25 14l-2 47q0 43 -33 72t-80 29h-235q-45 0 -75 -32t-30 -77v-63q0 -35 23.5 -58.5t60.5 -33.5z" />
    <glyph glyph-name="Scedilla" unicode="&#x15e;" horiz-adv-x="1118" 
d="M823 723q100 -43 147.5 -110.5t47.5 -172.5v-116q0 -137 -100.5 -233.5t-241.5 -96.5h-64l-45 -68h23q70 0 121 -53t51 -125v-33q0 -72 -50 -128t-122 -56h-193q-16 0 -16 16v56q0 16 16 16h146q51 0 78.5 34t27.5 87q0 47 -27.5 77.5t-78.5 30.5h-107q-8 0 -14 5.5
t-2 11.5l80 129h-60q-141 0 -239.5 97t-98.5 237v118q0 20 21 21h151q23 0 23 -21v-98q0 -90 49 -136t137 -46h156q86 0 135 47t49 135v94q0 100 -114 154l-408 176q-92 37 -143.5 110.5t-51.5 155.5v49q0 135 98.5 232.5t237.5 97.5h222q143 0 237 -96t94 -238v-51
q0 -20 -22 -20h-152q-23 0 -22 20v51q0 74 -47 118t-129 44h-156q-78 0 -123 -45t-45 -119v-28q0 -100 107 -148z" />
    <glyph glyph-name="scedilla" unicode="&#x15f;" horiz-adv-x="1011" 
d="M715 618q100 -18 153.5 -85.5t53.5 -159.5v-111q0 -111 -77 -189.5t-192 -78.5h-96l-49 -72h24q72 0 124.5 -56t52.5 -134v-35q0 -76 -51.5 -136.5t-125.5 -60.5h-196q-18 0 -19 19v57q0 18 19 18h149q53 0 82 36t29 94q0 51 -29.5 82.5t-81.5 31.5h-108q-10 0 -16.5 5
t-2.5 14l84 137h-80q-113 0 -191.5 79t-82.5 187v82q0 18 21 18h139q20 0 22 -16l2 -84q2 -45 35 -72.5t80 -27.5h262q45 0 76 30.5t31 75.5v105q0 39 -20.5 65.5t-53.5 36.5l-363 86q-102 18 -159.5 85t-57.5 161v61q0 113 78 191t193 78h262q113 0 191.5 -78t80.5 -187
v-45q0 -16 -18 -16h-139q-20 0 -25 14l-2 47q0 43 -33 72t-80 29h-235q-45 0 -75 -32t-30 -77v-63q0 -35 23.5 -58.5t60.5 -33.5z" />
    <glyph glyph-name="Scaron" unicode="&#x160;" horiz-adv-x="1118" 
d="M449 1532l-197 223q-6 6 -2 12.5t14 6.5h98q10 0 23 -13l131 -121q20 -18 21 -28q2 10 22 28l131 121q12 12 23 13h98q10 0 13 -6.5t-1 -12.5l-198 -223q-10 -14 -21 -14h-133q-10 0 -22 14zM823 723q100 -43 147.5 -110.5t47.5 -172.5v-116q0 -137 -100.5 -233.5
t-241.5 -96.5h-236q-141 0 -239.5 97t-98.5 237v118q0 20 21 21h151q23 0 23 -21v-98q0 -90 49 -136t137 -46h156q86 0 135 47t49 135v94q0 100 -114 154l-408 176q-92 37 -143.5 110.5t-51.5 155.5v49q0 135 98.5 232.5t237.5 97.5h222q143 0 237 -96t94 -238v-51
q0 -20 -22 -20h-152q-23 0 -22 20v51q0 74 -47 118t-129 44h-156q-78 0 -123 -45t-45 -119v-28q0 -100 107 -148z" />
    <glyph glyph-name="scaron" unicode="&#x161;" horiz-adv-x="1011" 
d="M416 1270l-203 237q-6 6 -2 12.5t12 6.5h101q10 0 22 -13l137 -127q20 -20 23 -32q0 12 22 32l136 127q12 12 22 13h100q10 0 13.5 -6.5t-0.5 -12.5l-205 -237q-12 -16 -21 -17h-135q-10 1 -22 17zM715 618q100 -18 153.5 -85.5t53.5 -159.5v-111q0 -111 -77 -189.5
t-192 -78.5h-291q-113 0 -191.5 79t-82.5 187v82q0 18 21 18h139q20 0 22 -16l2 -84q2 -45 35 -72.5t80 -27.5h262q45 0 76 30.5t31 75.5v105q0 39 -20.5 65.5t-53.5 36.5l-363 86q-102 18 -159.5 85t-57.5 161v61q0 113 78 191t193 78h262q113 0 191.5 -78t80.5 -187v-45
q0 -16 -18 -16h-139q-20 0 -25 14l-2 47q0 43 -33 72t-80 29h-235q-45 0 -75 -32t-30 -77v-63q0 -35 23.5 -58.5t60.5 -33.5z" />
    <glyph glyph-name="uni0162" unicode="&#x162;" horiz-adv-x="884" 
d="M897 1411q20 0 21 -20v-131q0 -20 -21 -21h-313q-14 0 -56 16q10 -29 11 -47v-1188q0 -20 -21 -20h-14l-49 -74h22q70 0 121 -53t51 -125v-33q0 -72 -50 -128t-122 -56h-192q-16 0 -17 16v56q0 16 17 16h145q51 0 79 34t28 87q0 47 -28 77.5t-79 30.5h-104
q-10 0 -16.5 5.5t-2.5 11.5l84 135h-24q-20 0 -21 20v1188q0 20 10 45l-6 -3t-12 -5t-17.5 -4t-19.5 -2h-313q-20 0 -21 21v131q0 20 21 20h909z" />
    <glyph glyph-name="uni0163" unicode="&#x163;" horiz-adv-x="882" 
d="M780 1122q20 0 21 -20v-123q0 -23 -21 -23h-205q-39 0 -57 13q12 -20 12 -49v-893q0 -18 -18 -19h-18l-52 -78h23q74 0 126 -56t52 -132v-35q0 -78 -51 -138.5t-127 -60.5h-197q-16 0 -16 19v59q0 16 16 17h150q53 0 81.5 36.5t28.5 94.5q2 49 -27.5 80.5t-82.5 31.5
h-107q-10 0 -16 6.5t-2 12.5l84 143h-17q-18 0 -18 19v893q0 29 10 47q-23 -10 -57 -11h-193q-20 0 -20 23v123q0 20 20 20h193q37 0 57 -10q-10 18 -10 49v256q0 12 16 19q4 2 7 2l145 67q20 8 20 -14v-330q0 -35 -12 -51q12 12 62 12h200z" />
    <glyph glyph-name="Tcaron" unicode="&#x164;" horiz-adv-x="884" 
d="M354 1532l-196 223q-6 6 -2 12.5t12 6.5h98q12 0 23 -13l131 -121q20 -18 22 -28q2 10 23 28l129 121q12 12 22 13h101q8 0 12 -6.5t-2 -12.5l-197 -223q-12 -14 -20 -14h-135q-9 0 -21 14zM897 1411q20 0 21 -20v-131q0 -20 -21 -21h-313q-14 0 -56 16q10 -29 11 -47
v-1188q0 -20 -21 -20h-151q-20 0 -21 20v1188q0 20 10 45l-6 -3t-13 -5t-17.5 -4t-18.5 -2h-313q-20 0 -21 21v131q0 20 21 20h909z" />
    <glyph glyph-name="tcaron" unicode="&#x165;" horiz-adv-x="751" 
d="M866 1647q23 0 21 -23l-37 -356q-4 -29 -21 -31h-63h-14.5t-9.5 3t-3 11v373q0 23 21 23h106zM780 1122q20 0 21 -20v-123q0 -23 -21 -23h-205q-39 0 -57 13q12 -20 12 -49v-893q0 -18 -18 -19h-152q-18 0 -18 19v893q0 29 10 47q-23 -10 -57 -11h-193q-20 0 -20 23v123
q0 20 20 20h193q37 0 57 -10q-10 18 -10 49v256q0 12 16 19q4 2 7 2l145 67q20 8 20 -14v-330q0 -35 -12 -51q12 12 62 12h200z" />
    <glyph glyph-name="Tbar" unicode="&#x166;" horiz-adv-x="884" 
d="M897 1411q20 0 21 -20v-131q0 -20 -21 -21h-313q-14 0 -56 16q10 -29 11 -47v-352h176q20 0 20 -20v-80q0 -18 -20 -19h-176v-717q0 -20 -21 -20h-151q-20 0 -21 20v717h-188q-18 0 -19 19v80q0 20 19 20h188v352q0 20 10 45l-6 -3t-12 -5t-17.5 -4t-19.5 -2h-313
q-20 0 -21 21v131q0 20 21 20h909z" />
    <glyph glyph-name="tbar" unicode="&#x167;" horiz-adv-x="882" 
d="M780 1122q20 0 21 -20v-123q0 -23 -21 -23h-205q-39 0 -57 13q12 -20 12 -49v-211h140q18 0 18 -21v-86q0 -20 -18 -20h-140v-555q0 -18 -18 -19h-152q-18 0 -18 19v555h-135q-18 0 -19 20v86q0 20 19 21h135v211q0 29 10 47q-23 -10 -57 -11h-193q-20 0 -20 23v123
q0 20 20 20h193q37 0 57 -10q-10 18 -10 49v256q0 12 16 19q4 2 7 2l145 67q20 8 20 -14v-330q0 -35 -12 -51q12 12 62 12h200z" />
    <glyph glyph-name="Utilde" unicode="&#x168;" horiz-adv-x="1263" 
d="M893 1716q18 0 16 -16q-10 -84 -61 -134t-121 -50q-66 0 -135 55q-55 45 -90 45q-33 0 -56.5 -23.5t-27.5 -56.5q-2 -14 -17 -14h-67q-18 0 -17 16q10 84 60.5 134t120.5 50q66 0 135 -57q57 -43 90 -43q35 0 57.5 23.5t26.5 56.5q4 14 18 14h68zM1083 1411q23 0 23 -20
v-1063q0 -137 -99.5 -234.5t-240.5 -97.5h-268q-141 0 -239.5 97t-98.5 235v1063q0 20 20 20h152q23 0 22 -20v-1043q0 -90 49.5 -136t137.5 -46h182q88 0 137 46t49 136v1043q0 20 23 20h151z" />
    <glyph glyph-name="utilde" unicode="&#x169;" horiz-adv-x="1173" 
d="M854 1466q18 0 16 -18q-10 -88 -62 -142.5t-124 -54.5q-68 0 -139 62q-23 18 -33 25.5t-26.5 14.5t-32.5 7q-37 0 -60.5 -25.5t-27.5 -60.5q-4 -16 -19 -17h-67q-18 0 -17 19q10 88 61.5 142.5t125.5 54.5q66 0 137 -60q23 -18 33 -26.5t27.5 -14.5t33.5 -6
q35 0 59.5 24.5t28.5 59.5q2 16 16 16h70zM479 -4q-135 0 -231 98.5t-96 241.5v768q0 18 18 18h152q18 0 18 -18v-742q0 -201 192 -200h113q82 0 127 44t45 126v772q0 18 19 18h151q18 0 19 -18v-1077q0 -18 -19 -19h-135q-20 0 -21 17v12q0 16 7.5 50t7.5 38
q-20 -39 -55 -66q-33 -29 -85.5 -46t-101.5 -17h-125z" />
    <glyph glyph-name="Umacron" unicode="&#x16a;" horiz-adv-x="1263" 
d="M346 1544q-18 0 -18 21v77q0 20 18 21h557q20 0 21 -21v-77q0 -20 -21 -21h-557zM1083 1411q23 0 23 -20v-1063q0 -137 -99.5 -234.5t-240.5 -97.5h-268q-141 0 -239.5 97t-98.5 235v1063q0 20 20 20h152q23 0 22 -20v-1043q0 -90 49.5 -136t137.5 -46h182q88 0 137 46
t49 136v1043q0 20 23 20h151z" />
    <glyph glyph-name="umacron" unicode="&#x16b;" horiz-adv-x="1173" 
d="M293 1282q-20 0 -21 23v84q0 20 21 20h573q20 0 21 -20v-84q0 -23 -21 -23h-573zM479 -4q-135 0 -231 98.5t-96 241.5v768q0 18 18 18h152q18 0 18 -18v-742q0 -201 192 -200h113q82 0 127 44t45 126v772q0 18 19 18h151q18 0 19 -18v-1077q0 -18 -19 -19h-135
q-20 0 -21 17v12q0 16 7.5 50t7.5 38q-20 -39 -55 -66q-33 -29 -85.5 -46t-101.5 -17h-125z" />
    <glyph glyph-name="Ubreve" unicode="&#x16c;" horiz-adv-x="1263" 
d="M899 1749q16 0 16 -16q-6 -90 -75.5 -149.5t-159.5 -59.5h-105q-88 0 -155.5 60.5t-71.5 148.5q-2 16 14 16h80q12 0 17 -12q6 -45 46 -76t101 -31h49q63 0 103.5 31t46.5 76q2 12 14 12h80zM1083 1411q23 0 23 -20v-1063q0 -137 -99.5 -234.5t-240.5 -97.5h-268
q-141 0 -239.5 97t-98.5 235v1063q0 20 20 20h152q23 0 22 -20v-1043q0 -90 49.5 -136t137.5 -46h182q88 0 137 46t49 136v1043q0 20 23 20h151z" />
    <glyph glyph-name="ubreve" unicode="&#x16d;" horiz-adv-x="1173" 
d="M860 1501q18 0 17 -16q-6 -96 -78 -160.5t-164 -64.5l-107 2q-90 0 -159.5 63.5t-75.5 159.5q0 16 16 16h80q14 0 17 -14q8 -47 49 -80t106 -33h49q66 0 107 33t47 80q4 14 16 14h80zM479 -4q-135 0 -231 98.5t-96 241.5v768q0 18 18 18h152q18 0 18 -18v-742
q0 -201 192 -200h113q82 0 127 44t45 126v772q0 18 19 18h151q18 0 19 -18v-1077q0 -18 -19 -19h-135q-20 0 -21 17v12q0 16 7.5 50t7.5 38q-20 -39 -55 -66q-33 -29 -85.5 -46t-101.5 -17h-125z" />
    <glyph glyph-name="Uring" unicode="&#x16e;" horiz-adv-x="1263" 
d="M627 1786q90 0 153.5 -61.5t63.5 -145.5v-23q0 -84 -63.5 -145t-153.5 -61h-9q-88 0 -151.5 61.5t-63.5 144.5v23q0 84 63.5 145.5t151.5 61.5h9zM625 1690h-4q-43 0 -75 -34t-32 -81v-16q0 -47 32 -81t75 -34h4q43 0 74.5 33.5t31.5 81.5v16q0 47 -31.5 81t-74.5 34z
M1083 1411q23 0 23 -20v-1063q0 -137 -99.5 -234.5t-240.5 -97.5h-268q-141 0 -239.5 97t-98.5 235v1063q0 20 20 20h152q23 0 22 -20v-1043q0 -90 49.5 -136t137.5 -46h182q88 0 137 46t49 136v1043q0 20 23 20h151z" />
    <glyph glyph-name="uring" unicode="&#x16f;" horiz-adv-x="1173" 
d="M580 1376q92 0 156.5 -65.5t64.5 -153.5v-24q0 -90 -64.5 -155t-156.5 -65h-9q-92 0 -156.5 64.5t-64.5 155.5v24q0 88 64.5 153.5t156.5 65.5h9zM578 1274h-5q-45 0 -77.5 -36t-32.5 -87v-16q0 -51 32.5 -87t77.5 -36h5q45 0 76.5 35.5t31.5 87.5v16q0 51 -31.5 87
t-76.5 36zM479 -4q-135 0 -231 98.5t-96 241.5v768q0 18 18 18h152q18 0 18 -18v-742q0 -201 192 -200h113q82 0 127 44t45 126v772q0 18 19 18h151q18 0 19 -18v-1077q0 -18 -19 -19h-135q-20 0 -21 17v12q0 16 7.5 50t7.5 38q-20 -39 -55 -66q-33 -29 -85.5 -46
t-101.5 -17h-125z" />
    <glyph glyph-name="Uhungarumlaut" unicode="&#x170;" horiz-adv-x="1263" 
d="M354 1481q-8 0 -12 5t2 13l166 234q10 16 20 16h140q8 0 12 -6t0 -12l-205 -236q-14 -14 -22 -14h-101zM696 1481q-10 0 -13 5t1 13l166 234q10 16 20 16h140q10 0 14 -6t-2 -12l-205 -236q-14 -14 -22 -14h-99zM1083 1411q23 0 23 -20v-1063q0 -137 -99.5 -234.5
t-240.5 -97.5h-268q-141 0 -239.5 97t-98.5 235v1063q0 20 20 20h152q23 0 22 -20v-1043q0 -90 49.5 -136t137.5 -46h182q88 0 137 46t49 136v1043q0 20 23 20h151z" />
    <glyph glyph-name="uhungarumlaut" unicode="&#x171;" horiz-adv-x="1173" 
d="M303 1214q-10 0 -13 6.5t1 14.5l170 250q12 14 22 14h140q10 0 14 -6t-2 -12l-209 -250q-14 -16 -23 -17h-100zM651 1214q-8 0 -12 6.5t2 14.5l170 250q10 14 20 14h142q8 0 12 -6t0 -12l-211 -250q-14 -16 -22 -17h-101zM479 -4q-135 0 -231 98.5t-96 241.5v768
q0 18 18 18h152q18 0 18 -18v-742q0 -201 192 -200h113q82 0 127 44t45 126v772q0 18 19 18h151q18 0 19 -18v-1077q0 -18 -19 -19h-135q-20 0 -21 17v12q0 16 7.5 50t7.5 38q-20 -39 -55 -66q-33 -29 -85.5 -46t-101.5 -17h-125z" />
    <glyph glyph-name="Uogonek" unicode="&#x172;" horiz-adv-x="1263" 
d="M1083 1411q23 0 23 -20v-1063q0 -137 -99.5 -234.5t-240.5 -97.5h-33l-2 -2l-86 -64q-59 -41 -82.5 -75.5t-23.5 -81.5q0 -49 28.5 -75t77.5 -26h133q16 0 17 -24v-51q0 -18 -17 -19h-153q-88 0 -141.5 51.5t-53.5 126.5v23q0 115 125 205l14 12h-71q-141 0 -239.5 97
t-98.5 235v1063q0 20 20 20h152q23 0 22 -20v-1043q0 -90 49.5 -136t137.5 -46h182q88 0 137 46t49 136v1043q0 20 23 20h151z" />
    <glyph glyph-name="uogonek" unicode="&#x173;" horiz-adv-x="1173" 
d="M997 -342q18 0 19 -27v-53q0 -18 -19 -18h-157q-90 0 -145.5 54t-55.5 134v25q0 123 129 217l63 51q2 16 8.5 48t6.5 36q-20 -39 -55 -66q-33 -29 -85.5 -46t-101.5 -17h-125q-135 0 -231 98.5t-96 241.5v768q0 18 18 18h152q18 0 18 -18v-742q0 -201 192 -200h113
q82 0 127 44t45 126v772q0 18 19 18h151q18 0 19 -18v-1077q0 -18 -19 -19h-33q-2 -4 -6 -8l-88 -66q-61 -45 -85.5 -81.5t-24.5 -85.5q0 -53 29.5 -81t80.5 -28h137z" />
    <glyph glyph-name="Wcircumflex" unicode="&#x174;" horiz-adv-x="1726" 
d="M594 1520q-8 0 -12 6t2 12l196 223q12 14 23 15h133q10 0 20 -15l197 -223q6 -6 2 -12t-12 -6h-99q-12 0 -22 12l-131 119q-20 20 -23 30q0 -10 -20 -30l-131 -119q-12 -12 -23 -12h-100zM1716 1411q27 0 19 -25l-379 -1368q-6 -18 -25 -18h-149q-18 0 -23 18l-274 1014
q-12 49 -23 131q-8 -80 -20 -129l-275 -1016q-4 -18 -24 -18h-150q-18 0 -22 18l-379 1368q-8 25 18 25h158q18 0 25 -18l260 -1047q12 -47 20 -137q10 90 23 137l266 1047q4 18 22 18h156q20 0 25 -18l266 -1049q12 -45 20 -135q10 92 23 137l260 1047q4 18 25 18h157z" />
    <glyph glyph-name="wcircumflex" unicode="&#x175;" horiz-adv-x="1695" 
d="M616 1257q-10 0 -13 6.5t3 12.5l203 237q12 16 22 17h134q10 0 22 -17l203 -237q6 -6 3 -12.5t-13 -6.5h-101q-10 0 -22 13l-135 127q-23 20 -23 33q-2 -12 -22 -33l-138 -127q-12 -12 -22 -13h-101zM1634 1130q25 0 17 -26l-365 -1088q-6 -16 -22 -16h-115q-18 0 -25 16
l-266 838q-4 14 -10 53q-6 -41 -10 -53l-267 -838q-6 -16 -22 -16h-117q-16 0 -22 16l-365 1088q-8 27 16 26h142q18 0 22 -16l242 -768q16 -49 22 -117q6 68 25 119l246 758q6 18 24 18h129q16 0 23 -18l248 -756q16 -53 22 -119q6 66 23 115l241 768q6 16 23 16h141z" />
    <glyph glyph-name="Ycircumflex" unicode="&#x176;" horiz-adv-x="1064" 
d="M260 1520q-10 0 -14 6t2 12l198 223q10 14 21 15h133q10 0 23 -15l196 -223q4 -6 1 -12t-13 -6h-98q-10 0 -23 12l-131 119q-20 20 -20 30q-2 -10 -23 -30l-131 -119q-12 -12 -23 -12h-98zM1083 1411q12 0 17.5 -7t-0.5 -20l-457 -827q-4 -8 -16 -22l1 -3l2 -8t1 -8v-496
q0 -20 -23 -20h-153q-20 0 -21 20v496q0 4 1 8l2 8l1 3q-12 14 -16 22l-457 827q-6 12 -2 19.5t19 7.5h161q18 0 25 -14l336 -619q14 -29 28 -84q14 57 27 84l336 619q8 14 27 14h161z" />
    <glyph glyph-name="ycircumflex" unicode="&#x177;" horiz-adv-x="1001" 
d="M223 1257q-10 0 -14 6.5t2 12.5l205 237q12 16 20 17h135q10 0 23 -17l203 -237q6 -6 2 -12.5t-15 -6.5h-98q-12 0 -24 13l-136 127q-20 20 -22 33q0 -12 -23 -33l-135 -127q-12 -12 -24 -13h-99zM956 1130q25 0 17 -26l-463 -1313q-51 -147 -129 -223t-201 -76h-63
q-20 0 -21 21v131q0 18 19 18h75q39 0 67 10.5t47.5 38t29.5 51t26 72.5l54 158q2 2 11 9l9 7q-2 0 -13 1t-13 5l-383 1090q-10 27 16 26h141q16 0 23 -18l272 -799q16 -49 21 -92q4 45 20 94l273 797q6 16 22 18h143z" />
    <glyph glyph-name="Ydieresis" unicode="&#x178;" horiz-adv-x="1064" 
d="M293 1516q-20 0 -21 20v154q0 20 21 20h115q20 0 20 -20v-154q0 -20 -20 -20h-115zM653 1516q-20 0 -20 20v154q0 20 20 20h115q18 0 18 -20v-154q0 -20 -18 -20h-115zM455 0q-20 0 -21 20v496q0 4 1 8l2 8l1 3q-12 14 -16 22l-457 827q-6 12 -2 19.5t19 7.5h161
q18 0 25 -14l336 -619q14 -29 28 -84q14 57 27 84l336 619q8 14 27 14h161q12 0 17.5 -7t-0.5 -20l-457 -827q-4 -8 -16 -22l1 -3l2 -8t1 -8v-496q0 -20 -23 -20h-153z" />
    <glyph glyph-name="Zacute" unicode="&#x179;" horiz-adv-x="980" 
d="M416 1532q-8 0 -12.5 5t2.5 13l165 236q10 12 23 12h133q10 0 14 -7t-4 -13l-205 -236q-10 -10 -22 -10h-94zM936 172q23 0 22 -20v-132q0 -20 -22 -20h-893q-16 0 -16 25v114q0 18 10 37l622 1014q8 12 20.5 25.5t24 21.5t13.5 10q-29 -8 -76 -8h-528q-23 0 -23 21
l2 131q0 20 21 20h782q10 0 13 -5t3 -20v-114q0 -18 -12 -39l-620 -1010q-10 -14 -23.5 -28.5t-26 -24.5t-12.5 -12q35 14 86 14h633z" />
    <glyph glyph-name="zacute" unicode="&#x17a;" horiz-adv-x="935" 
d="M422 1270q-10 0 -13 6t1 12l172 252q8 14 22 14h135q10 0 13.5 -8t-2.5 -14l-211 -252q-10 -10 -23 -10h-94zM874 174q20 0 21 -22v-123q0 -20 -21 -21h-808q-23 0 -23 25v127q0 4 4 8l559 735q35 43 92 68q-41 -8 -123 -8h-423q-20 0 -21 22v123q0 23 21 22h702
q20 0 20 -26l-2 -115q0 -6 -4 -12l-555 -744q-33 -43 -86 -69q39 10 117 10h530z" />
    <glyph glyph-name="Zdotaccent" unicode="&#x17b;" horiz-adv-x="980" 
d="M444 1540q-18 0 -18 16v160q0 16 18 17h152q18 0 18 -17v-160q0 -16 -18 -16h-152zM936 172q23 0 22 -20v-132q0 -20 -22 -20h-893q-16 0 -16 25v112q0 20 10 39l622 1014q8 12 20.5 25.5t24 21.5t13.5 10q-29 -8 -76 -8h-528q-23 0 -23 21l2 131q0 20 21 20h782
q10 0 13 -5t3 -20v-114q0 -18 -12 -39l-620 -1010q-10 -14 -23.5 -28.5t-26 -24.5t-12.5 -12q35 14 86 14h633z" />
    <glyph glyph-name="zdotaccent" unicode="&#x17c;" horiz-adv-x="935" 
d="M451 1278q-18 0 -19 18v170q0 18 19 19h151q18 0 19 -19v-170q0 -18 -19 -18h-151zM874 174q20 0 21 -22v-123q0 -20 -21 -21h-808q-23 0 -23 25v127q0 4 4 8l559 735q35 43 92 68q-41 -8 -123 -8h-423q-20 0 -21 22v123q0 23 21 22h702q20 0 20 -26l-2 -115q0 -6 -4 -12
l-555 -744q-33 -43 -86 -69q39 10 117 10h530z" />
    <glyph glyph-name="Zcaron" unicode="&#x17d;" horiz-adv-x="980" 
d="M416 1532l-197 223q-6 6 -2 12.5t14 6.5h99q10 0 22 -13l131 -121q20 -18 21 -28q2 10 22 28l131 121q12 12 23 13h98q10 0 13.5 -6.5t-0.5 -12.5l-197 -223q-12 -14 -23 -14h-133q-10 0 -22 14zM936 172q23 0 22 -20v-132q0 -20 -22 -20h-893q-16 0 -16 25v112
q0 20 10 39l622 1014q8 12 20.5 25.5t24 21.5t13.5 10q-29 -8 -76 -8h-528q-23 0 -23 21l2 131q0 20 21 20h782q10 0 13 -5t3 -20v-114q0 -18 -12 -39l-620 -1010q-10 -14 -23.5 -28.5t-26 -24.5t-12.5 -12q35 14 86 14h633z" />
    <glyph glyph-name="zcaron" unicode="&#x17e;" horiz-adv-x="935" 
d="M422 1270l-203 237q-6 6 -2 12.5t12 6.5h101q10 0 22 -13l137 -127q20 -20 23 -32q0 12 23 32l135 127q12 12 22 13h101q10 0 13 -6.5t-1 -12.5l-205 -237q-12 -16 -20 -17h-136q-10 1 -22 17zM874 174q20 0 21 -22v-123q0 -20 -21 -21h-808q-23 0 -23 25v127q0 4 4 8
l559 735q35 43 92 68q-41 -8 -123 -8h-423q-20 0 -21 22v123q0 23 21 22h702q20 0 20 -26l-2 -115q0 -6 -4 -12l-555 -744q-33 -43 -86 -69q39 10 117 10h530z" />
    <glyph glyph-name="uni018F" unicode="&#x18f;" horiz-adv-x="1241" 
d="M494 -6q-137 0 -240.5 100.5t-103.5 241.5v455q0 18 16 18h692q39 0 57 -12q-10 18 -10 45v225q0 88 -46 137t-134 49h-217q-78 0 -120 -41t-42 -118v-9q-2 -16 -18 -16l-152 2q-18 0 -16 19l2 16q8 129 101 220t218 91h267q143 0 244.5 -102.5t101.5 -247.5v-719
q0 -145 -101.5 -249.5t-244.5 -104.5h-254zM383 676q-37 0 -57 12q10 -25 10 -51v-313q0 -78 45 -121t129 -43h221q84 0 129 43t45 121v313q0 27 10 51q-20 -12 -57 -12h-475z" />
    <glyph glyph-name="florin" unicode="&#x192;" horiz-adv-x="972" 
d="M913 1649q18 0 15 -19l-25 -149q-4 -20 -24 -21h-56q-82 0 -133 -44t-65 -126l-21 -123q-4 -20 -22 -55q31 18 55 18h170q16 0 16 -22v-123q0 -20 -22 -20h-193q-29 0 -51 16q10 -35 6 -55l-160 -920q-29 -152 -142.5 -252t-262.5 -100l-70 2q-16 0 -14 18l25 148
q4 23 24 22h55q82 0 133.5 44t65.5 126l158 912q4 27 24 53q-35 -14 -55 -14h-113q-16 0 -16 18v129q0 18 21 18h137q20 0 49 -16q-8 37 -6 53l22 131q29 154 144.5 253.5t263.5 99.5z" />
    <glyph glyph-name="uni019D" unicode="&#x19d;" horiz-adv-x="1380" 
d="M1176 1411q23 0 22 -20v-1371q0 -20 -20 -20h-146q-16 0 -24 14l-592 1006q-49 80 -58 100q0 -2 5.5 -25.5t8.5 -47t3 -43.5v-1018q0 -100 -30 -172t-81 -107t-104.5 -50t-114.5 -15h-68q-16 0 -16 16v111q0 18 12 18h29q88 0 133 35t45 129v72v1368q0 20 23 20h153
q16 0 25 -14l584 -983q45 -76 55 -101q0 4 -4 26.5t-7 47.5t-3 43v961q0 20 20 20h150z" />
    <glyph glyph-name="Ohorn" unicode="&#x1a0;" horiz-adv-x="1280" 
d="M1268 1552q12 0 12 -12v-274q0 -66 -42 -105t-99 -39h-47q2 -18 2 -39v-757q0 -137 -97.5 -233.5t-232.5 -96.5h-285q-135 0 -232 96t-97 234v757q0 137 97 235.5t232 98.5h285q96 0 177 -52t122 -138h29h12q29 0 41 13t12 48v252q0 12 12 12h99zM899 348v713
q0 92 -49 138t-137 46h-183q-88 0 -137 -46t-49 -138v-713q0 -90 49 -136t137 -46h183q88 0 137 46t49 136z" />
    <glyph glyph-name="ohorn" unicode="&#x1a1;" horiz-adv-x="1171" 
d="M1171 1323q12 0 13 -12v-293q0 -70 -43 -111t-101 -41h-49h-12q10 -41 10 -86v-434q0 -150 -97 -251t-245 -101h-178q-147 0 -244.5 101.5t-97.5 250.5v434q0 152 97.5 253.5t244.5 101.5h176q94 0 170 -42t121 -116h36h21h13q29 0 41 14.5t12 50.5v269q0 12 14 12h98z
M801 358v410q0 104 -47 152.5t-140 48.5h-112q-92 0 -139.5 -48.5t-47.5 -152.5v-410q0 -102 47.5 -151t139.5 -49h112q92 0 139.5 49t47.5 151z" />
    <glyph glyph-name="Uhorn" unicode="&#x1af;" horiz-adv-x="1263" 
d="M1343 1552q14 0 15 -12v-274q0 -66 -42 -105t-99 -39h-48q-33 0 -63 6v-800q0 -137 -99.5 -234.5t-240.5 -97.5h-268q-141 0 -239.5 97t-98.5 235v1063q0 20 20 20h152q23 0 22 -20v-1043q0 -90 49.5 -136t137.5 -46h182q88 0 137 46t49 136v1043q0 20 23 20h151
q23 0 23 -20v-164h63h13q29 0 41 13t12 48v252q0 12 12 12h96z" />
    <glyph glyph-name="uhorn" unicode="&#x1b0;" horiz-adv-x="1173" 
d="M1200 1354q12 0 12 -15v-290q0 -70 -42 -111t-101 -41l-47 -2q-8 0 -16 2v-870q0 -18 -19 -19h-135q-20 0 -21 17v12q0 16 7.5 50t7.5 38q-20 -39 -55 -66q-33 -29 -85.5 -46t-101.5 -17h-125q-135 0 -231 98.5t-96 241.5v768q0 18 18 18h152q18 0 18 -18v-742
q0 -201 192 -200h113q82 0 127 44t45 126v772q0 18 19 18h151q18 0 19 -18v-98h16h14q29 0 41.5 14t12.5 51v268q0 14 12 15h98z" />
    <glyph glyph-name="uni01C4" unicode="&#x1c4;" horiz-adv-x="2117" 
d="M1550 1530l-202 237q-6 6 -2 12.5t12 6.5h100q10 0 23 -10l137 -129q20 -20 22 -33q0 12 23 33l135 129q12 10 23 10h100q10 0 13 -6t-1 -13l-204 -237q-12 -16 -21 -17h-135q-11 1 -23 17zM2073 172q20 0 20 -20v-132q0 -20 -20 -20h-895q-16 0 -17 25v114q0 18 13 37
l622 1014q8 12 20.5 25.5t23.5 21.5t13 10q-29 -8 -75 -8h-529q-23 0 -22 21v131q0 20 22 20h783q10 0 13 -5t3 -20l-2 -114q0 -18 -12 -39l-621 -1010q-8 -14 -21.5 -28.5t-25.5 -24.5t-14 -12q37 14 88 14h633zM788 1411q141 0 240.5 -97t99.5 -237v-743
q0 -139 -99 -236.5t-241 -97.5h-589q-18 0 -19 18v1375q0 18 19 18h589zM932 344v723q0 80 -49 126t-135 46h-330q-16 0 -53 16q10 -31 10 -49v-1003q0 -16 -13 -45q39 14 56 14h330q86 0 135 46t49 126z" />
    <glyph glyph-name="uni01C5" unicode="&#x1c5;" horiz-adv-x="2213" 
d="M1700 1270l-205 237q-6 6 -2 12.5t12 6.5h101q12 0 22 -13l137 -127q20 -20 23 -32q0 12 22 32l136 127q12 12 22 13h100q10 0 13.5 -6.5t-0.5 -12.5l-205 -237q-10 -16 -21 -17h-135q-10 1 -20 17zM788 1411q141 0 240.5 -97t99.5 -237v-743q0 -139 -99 -236.5
t-241 -97.5h-589q-18 0 -19 18v1375q0 18 19 18h589zM932 344v723q0 80 -49 126t-135 46h-330q-18 0 -53 16q10 -31 10 -49v-1001q0 -18 -13 -47q39 14 56 14h330q86 0 135 46t49 126zM2150 174q20 0 21 -22v-123q0 -20 -21 -21h-809q-20 0 -20 25v127q0 4 2 8l559 735
q35 43 94 68q-43 -8 -125 -8h-424q-20 0 -20 22v123q0 23 20 22h703q20 0 20 -26l-2 -115q0 -6 -4 -12l-553 -744q-35 -43 -88 -69q39 10 119 10h528z" />
    <glyph glyph-name="uni01C6" unicode="&#x1c6;" horiz-adv-x="2095" 
d="M973 1651q18 0 18 -17v-1609q0 -16 -18 -17h-139q-18 0 -19 19v34q0 16 6 62q-16 -31 -53 -57q-86 -70 -180 -70h-131q-141 0 -235.5 97t-94.5 247v451q0 150 92 247t232 97h118q117 0 193 -64q41 -31 55 -57q0 2 -4 16t-7 31.5t-3 32.5v540q0 16 18 17h152zM1581 1270
l-205 237q-6 6 -2 12.5t15 6.5h100q10 0 22 -13l136 -127q23 -20 22 -32q2 12 25 32l135 127q10 12 22 13h101q8 0 12 -6.5t-2 -12.5l-203 -237q-12 -16 -22 -17h-133q-11 1 -23 17zM2034 174q20 0 20 -22v-123q0 -20 -20 -21h-811q-20 0 -21 25v127q0 4 4 8l559 735
q35 43 93 68q-43 -8 -125 -8h-422q-20 0 -21 22v123q0 23 21 22h702q20 0 21 -26l-2 -115q0 -6 -4 -12l-555 -744q-33 -43 -87 -69q39 10 117 10h531zM803 330v469q0 172 -162 172h-139q-186 0 -187 -201v-410q0 -201 187 -200h139q162 0 162 170z" />
    <glyph glyph-name="uni01C7" unicode="&#x1c7;" horiz-adv-x="1499" 
d="M922 -317q-20 0 -21 20v115q0 23 21 22h32q186 0 187 166v1385q0 23 20 22h154q20 0 20 -22v-1375q0 -137 -99 -235t-239 -98h-75zM203 0q-23 0 -23 20v1371q0 20 23 20h149q23 0 23 -20v-1182q0 -18 -13 -49q33 12 56 12h465q23 0 22 -20v-132q0 -20 -22 -20h-680z" />
    <glyph glyph-name="uni01C8" unicode="&#x1c8;" horiz-adv-x="1425" 
d="M1094 1278q-20 0 -21 18v170q0 18 21 19h151q18 0 19 -19v-170q0 -18 -19 -18h-151zM203 0q-23 0 -23 20v1371q0 20 23 20h149q23 0 23 -20v-1182q0 -18 -13 -49q33 12 56 12h465q23 0 22 -20v-132q0 -20 -22 -20h-680zM1243 1122q18 0 19 -18v-1260
q0 -145 -102.5 -248.5t-246.5 -103.5h-45q-20 0 -20 21v131q0 16 18 18h33q84 2 129 53.5t45 145.5v1243q0 18 19 18h151z" />
    <glyph glyph-name="uni01C9" unicode="&#x1c9;" horiz-adv-x="1046" 
d="M336 1636q18 0 18 -18v-1591q0 -18 -18 -19h-152q-18 0 -18 19v1591q0 18 18 18h152zM713 1278q-18 0 -19 18v170q0 18 19 19h151q18 0 19 -19v-170q0 -18 -19 -18h-151zM862 1122q18 0 19 -18v-1260q0 -145 -101.5 -248.5t-244.5 -103.5h-46q-20 0 -20 21v131
q0 16 16 18h35q84 2 128 53.5t44 145.5v1243q0 18 19 18h151z" />
    <glyph glyph-name="uni01CA" unicode="&#x1ca;" horiz-adv-x="1976" 
d="M1399 -154q-20 0 -21 23v115q0 20 21 20h35q82 0 133 42t51 126v1219q0 23 20 22h154q20 0 20 -22v-1211q0 -137 -99 -235.5t-238 -98.5h-76zM1176 1411q23 0 22 -20v-1371q0 -20 -20 -20h-144q-16 0 -24 14l-594 1002q-47 80 -58 102q0 -4 5.5 -27.5t8.5 -47t3 -42.5
v-981q0 -20 -23 -20h-149q-23 0 -23 20v1371q0 20 23 20h151q16 0 25 -14l586 -981q45 -74 55 -101q0 4 -4 27t-8 47.5t-4 42.5v959q0 20 22 20h150z" />
    <glyph glyph-name="uni01CB" unicode="&#x1cb;" horiz-adv-x="1902" 
d="M1571 1278q-18 0 -19 18v170q0 18 19 19h151q18 0 19 -19v-170q0 -18 -19 -18h-151zM1176 1411q23 0 22 -20v-1371q0 -20 -20 -20h-144q-16 0 -24 14l-594 1002q-47 80 -58 102q0 -4 5.5 -27.5t8.5 -47t3 -42.5v-981q0 -20 -23 -20h-149q-23 0 -23 20v1371q0 20 23 20
h151q16 0 25 -14l586 -981q45 -74 55 -101q0 4 -4 27t-8 47.5t-4 42.5v959q0 20 22 20h150zM1720 1122q18 0 19 -18v-1260q0 -145 -102.5 -248.5t-243.5 -103.5h-45q-20 0 -21 21v131q0 16 16 18h33q84 2 129 53.5t45 145.5v1243q0 18 19 18h151z" />
    <glyph glyph-name="uni01CC" unicode="&#x1cc;" horiz-adv-x="1705" 
d="M1372 1278q-18 0 -18 18v170q0 18 18 19h152q20 0 20 -19v-170q0 -18 -20 -18h-152zM707 1135q135 0 231 -98.5t96 -241.5v-768q0 -18 -18 -19h-152q-18 0 -18 19v743q0 201 -193 201h-125q-84 0 -129 -44t-45 -128v-772q0 -18 -18 -19h-152q-18 0 -18 19v1077
q0 18 18 18h135q20 0 21 -18v-10q0 -20 -6 -53t-6 -35q18 39 53 65q33 29 85 46.5t101 17.5h140zM1522 1122q20 0 20 -18v-1260q0 -145 -102.5 -248.5t-245.5 -103.5h-45q-20 0 -21 21v131q0 16 17 18h35q84 2 128 53.5t44 145.5v1243q0 18 18 18h152z" />
    <glyph glyph-name="Gcaron" unicode="&#x1e6;" horiz-adv-x="1212" 
d="M496 1530l-203 237q-6 6 -2 12.5t12 6.5h100q12 0 23 -10l137 -129q20 -20 23 -33q0 12 22 33l135 129q12 10 23 10h100q10 0 13.5 -6t-0.5 -13l-205 -237q-10 -16 -21 -17h-135q-10 1 -22 17zM1065 752q18 0 18 -19v-407q0 -137 -99 -234.5t-239 -97.5h-258
q-141 0 -239 97t-98 235v757q0 139 98 236.5t239 97.5h258q139 0 237.5 -96t98.5 -227v-47q0 -18 -18 -19h-156q-18 0 -18 19v28q0 82 -49 126t-138 44h-174q-88 0 -136 -47t-48 -129v-721q0 -90 49 -136t137 -46h172q88 0 137.5 46t49.5 136v230q0 12 14 49
q-39 -16 -55 -17h-164q-18 0 -18 19v104q2 18 20 19h379z" />
    <glyph glyph-name="gcaron" unicode="&#x1e7;" horiz-adv-x="1122" 
d="M469 1270l-203 237q-6 6 -2 12.5t12 6.5h101q12 0 22 -13l138 -127q20 -20 22 -32q0 12 23 32l135 127q12 12 22 13h101q10 0 13 -6.5t-1 -12.5l-205 -237q-10 -16 -20 -17h-135q-11 1 -23 17zM1118 1130q18 0 19 -18v-125q0 -18 -19 -18h-71q-53 0 -97 -15q-6 0 -13 1
t-11 3l-4 3q23 -20 22 -35q35 -51 35 -121v-119q-2 -147 -99.5 -238.5t-242.5 -91.5h-199q-156 0 -155 -82v-28q0 -82 157 -82h277q137 0 228 -83t91 -214v-74q0 -133 -99 -217t-239 -84h-299q-141 0 -235 82t-94 215v80q0 76 38.5 142.5t98.5 94.5q-41 20 -65.5 58.5
t-24.5 77.5v37q0 106 121 153q-123 88 -121 254v119q2 152 99 241t243 89h178q106 0 192 -50q10 -8 21 -20q4 12 14 16q74 49 168 49h86zM627 522q80 0 122 44t42 128v103q0 172 -164 172h-158q-80 0 -122 -43t-42 -129v-103q0 -172 164 -172h158zM395 16q-66 0 -114 -44
t-48 -124v-24q0 -82 48.5 -127t134.5 -45h276q82 0 132 45t50 123v28q0 80 -48 124t-134 44h-297z" />
    <glyph glyph-name="uni01EA" unicode="&#x1ea;" 
d="M764 1417q135 0 232.5 -98t97.5 -236v-757q0 -137 -97.5 -233.5t-232.5 -96.5h-68l-2 -2l-88 -68q-61 -45 -85.5 -82t-24.5 -86q0 -51 29.5 -78.5t80.5 -27.5h137q18 0 19 -27v-55q0 -18 -19 -19h-157q-90 0 -145.5 55.5t-55.5 135.5v25q0 121 129 217l16 12h-51
q-135 0 -232 96t-97 234v757q0 137 97 235.5t232 98.5h285zM899 348v713q0 92 -49 138t-137 46h-183q-88 0 -137 -46t-49 -138v-713q0 -90 49 -136t137 -46h183q88 0 137 46t49 136z" />
    <glyph glyph-name="uni01EB" unicode="&#x1eb;" horiz-adv-x="1116" 
d="M645 1135q150 0 247 -101.5t97 -253.5v-434q0 -150 -97 -251t-245 -101h-6h-2l-88 -68q-61 -45 -86 -82t-25 -86q0 -51 30 -78.5t83 -27.5h135q18 0 19 -27v-55q0 -18 -19 -19h-158q-90 0 -145 55.5t-55 135.5v25q0 121 129 217l14 10h-4q-147 0 -244.5 101.5
t-97.5 250.5v434q0 152 97.5 253.5t244.5 101.5h176zM801 358v410q0 104 -47 152.5t-140 48.5h-112q-92 0 -139.5 -48.5t-47.5 -152.5v-410q0 -102 47.5 -151t139.5 -49h112q92 0 139.5 49t47.5 151z" />
    <glyph glyph-name="uni01F1" unicode="&#x1f1;" horiz-adv-x="2117" 
d="M2073 172q20 0 20 -20v-132q0 -20 -20 -20h-895q-16 0 -17 25v112q0 20 13 39l622 1014q8 12 20.5 25.5t23.5 21.5t13 10q-29 -8 -75 -8h-529q-23 0 -22 21v131q0 20 22 20h783q10 0 13 -5t3 -20l-2 -114q0 -18 -12 -39l-621 -1010q-8 -14 -21.5 -28.5t-25.5 -24.5
t-14 -12q37 14 88 14h633zM199 0q-18 0 -19 18v1375q0 18 19 18h589q141 0 240.5 -97t99.5 -237v-743q0 -139 -99 -236.5t-241 -97.5h-589zM362 158q39 14 56 14h330q86 0 135 46t49 126v723q0 80 -49 126t-135 46h-330q-16 0 -53 16q10 -31 10 -49v-1003q-1 -16 -13 -45z
" />
    <glyph glyph-name="uni01F2" unicode="&#x1f2;" horiz-adv-x="2213" 
d="M199 0q-18 0 -19 18v1375q0 18 19 18h589q141 0 240.5 -97t99.5 -237v-743q0 -139 -99 -236.5t-241 -97.5h-589zM362 158q39 14 56 14h330q86 0 135 46t49 126v723q0 80 -49 126t-135 46h-330q-18 0 -53 16q10 -31 10 -49v-1003q-1 -16 -13 -45zM2150 174q20 0 21 -22
v-123q0 -20 -21 -21h-809q-20 0 -20 25v127q0 4 2 8l559 735q35 43 94 68q-43 -8 -125 -8h-424q-20 0 -20 22v123q0 23 20 22h703q20 0 20 -26l-2 -115q0 -6 -4 -12l-553 -744q-35 -43 -88 -69q39 10 119 10h528z" />
    <glyph glyph-name="uni01F3" unicode="&#x1f3;" horiz-adv-x="1935" 
d="M457 -4q-141 0 -235.5 97t-94.5 247v451q0 150 92 247t232 97h118q117 0 193 -64q41 -31 55 -57q0 2 -4 16t-7 31.5t-3 32.5v540q0 16 18 17h152q18 0 18 -17v-1609q0 -16 -18 -17h-139q-18 0 -19 19v34q0 16 6 62q-16 -31 -53 -57q-86 -70 -180 -70h-131zM1874 174
q20 0 20 -22v-123q0 -20 -20 -21h-811q-20 0 -21 25v127q0 4 5 8l559 735q35 43 92 68q-41 -8 -123 -8h-424q-20 0 -21 22v123q0 23 21 22h702q20 0 21 -26l-2 -115q0 -6 -4 -12l-555 -744q-33 -43 -86 -69q39 10 116 10h531zM502 160h139q162 0 162 170v469q0 172 -162 172
h-139q-186 0 -187 -201v-410q1 -200 187 -200z" />
    <glyph glyph-name="uni01F4" unicode="&#x1f4;" horiz-adv-x="1212" 
d="M496 1530q-10 0 -13.5 6t0.5 14l172 250q10 14 25 15h133q10 0 13 -7.5t-3 -15.5l-211 -252q-10 -10 -22 -10h-94zM487 -6q-141 0 -239 97t-98 235v757q0 139 98 236.5t239 97.5h258q139 0 237.5 -96t98.5 -227v-47q0 -18 -18 -19h-156q-18 0 -18 19v28q0 82 -49 126
t-138 44h-174q-88 0 -136 -47t-48 -129v-721q0 -90 49 -136t137 -46h172q88 0 137.5 46t49.5 136v230q0 12 14 49q-39 -16 -55 -17h-164q-18 0 -18 19v104q2 18 20 19h379q18 0 18 -19v-407q0 -137 -99 -234.5t-239 -97.5h-258z" />
    <glyph glyph-name="uni01F5" unicode="&#x1f5;" horiz-adv-x="1122" 
d="M469 1270q-10 0 -13 6t1 12l172 252q10 14 24 14h133q10 0 13.5 -8t-2.5 -14l-211 -252q-8 -10 -23 -10h-94zM1047 969q-53 0 -97 -15q-6 0 -13 1t-11 3l-4 3q23 -20 22 -35q35 -51 35 -121v-119q-2 -147 -99.5 -238.5t-242.5 -91.5h-199q-156 0 -155 -82v-28
q0 -82 157 -82h277q137 0 228 -83t91 -214v-74q0 -133 -99 -217t-239 -84h-299q-141 0 -235 82t-94 215v80q0 76 38.5 142.5t98.5 94.5q-41 20 -65.5 58.5t-24.5 77.5v37q0 106 121 153q-123 88 -121 254v119q2 152 99 241t243 89h178q106 0 192 -50q10 -8 21 -20
q4 12 14 16q74 49 168 49h86q18 0 19 -18v-125q0 -18 -19 -18h-71zM791 694v103q0 172 -164 172h-158q-80 0 -122 -43t-42 -129v-103q0 -172 164 -172h158q80 0 122 44t42 128zM692 16h-297q-66 0 -114 -44t-48 -124v-24q0 -82 48.5 -127t134.5 -45h276q82 0 132 45t50 123
v28q0 80 -48 124t-134 44z" />
    <glyph glyph-name="Aringacute" unicode="&#x1fa;" horiz-adv-x="1247" 
d="M1180 20q8 -20 -15 -20h-166q-16 0 -20 14l-82 344q-2 6 -2 45q-27 -8 -49 -8h-445q-23 0 -47 8q-2 -41 -2 -45l-84 -344q-4 -14 -20 -14h-166q-20 0 -14 20l372 1377q2 6 6 10q-41 57 -40 125v24q0 90 64.5 155t156.5 65h6l127 188q10 12 24 12h134q10 0 14 -7t-4 -15
l-176 -211q49 -31 76.5 -80t27.5 -107v-24q0 -76 -49 -135zM518 1550v-16q0 -51 33 -87t78 -36h4q45 0 76.5 36t31.5 87v16q0 51 -31.5 87t-76.5 36h-4q-45 0 -78 -36t-33 -87zM813 551q20 0 53 -10q-25 33 -30 55l-148 592q-10 33 6 57q-10 -10 -24 -10h-92q-14 0 -25 10
q16 -25 8 -57l-149 -592q-6 -23 -31 -55q33 10 55 10h377z" />
    <glyph glyph-name="aringacute" unicode="&#x1fb;" horiz-adv-x="1134" 
d="M731 1122q100 -29 167 -118t67 -201v-778q0 -16 -19 -17h-135q-20 0 -20 17v16q0 12 3 28.5t7 31t4 16.5q-14 -27 -55 -58q-33 -29 -85.5 -46t-101.5 -17h-162q-127 0 -220 85t-93 214v67q0 129 92 210t238 81h319q27 0 47 -10q-8 27 -8 41v117q0 82 -45 126t-127 44
h-129q-78 0 -119 -42t-41 -120v-8q0 -14 -14 -15h-149q-18 0 -19 17v24q0 104 66.5 188.5t169.5 110.5q-43 57 -43 127v27q0 88 64.5 153.5t156.5 65.5h6l123 180q8 12 22 13h133q10 0 14.5 -7.5t-1.5 -15.5l-172 -205q47 -29 75.5 -79t28.5 -105v-27q0 -72 -45 -131z
M438 1274v-17q0 -47 28 -81.5t69 -40.5h30q41 6 69 40.5t28 81.5v17q0 49 -32 86t-77 37h-4q-47 0 -79 -37t-32 -86zM776 494q0 2 8 38q-20 -10 -47 -10h-288q-82 0 -127.5 -46t-45.5 -126v-18q0 -172 185 -172h143q84 0 128 43t44 123v168z" />
    <glyph glyph-name="AEacute" unicode="&#x1fc;" horiz-adv-x="1736" 
d="M1004 1526q-10 0 -13.5 6t0.5 12l172 252q10 14 25 14h133q10 0 13 -8t-3 -14l-211 -252q-8 -10 -22 -10h-94zM1661 172q18 0 18 -18v-136q0 -18 -18 -18h-723q-16 0 -16 14l4 344q0 4 12 45q-29 -8 -53 -8h-461q-23 0 -49 8q-6 -41 -8 -45l-154 -344q-6 -14 -23 -14
h-163q-23 0 -13 20l654 1377q8 14 22 14h928q18 0 18 -18v-136q0 -18 -18 -18h-463q-16 0 -55 14q12 -31 12 -47v-346q0 -16 -12 -47q37 16 55 16l410 -2q18 0 18 -16v-119q0 -18 -18 -18h-410q-12 0 -55 14q12 -27 12 -47v-436q0 -20 -12 -49q41 16 55 16h506zM940 541
q-14 31 -14 55l2 592q0 33 24 57q-14 -10 -26 -10h-160q-14 0 -23 10q12 -25 -2 -57l-268 -592q-10 -25 -39 -55q37 10 58 10h395q22 0 53 -10z" />
    <glyph glyph-name="aeacute" unicode="&#x1fd;" horiz-adv-x="1779" 
d="M815 1268q-8 0 -12 5t2 13l172 252q8 12 22 12h134q10 0 14 -7t-4 -15l-211 -250q-8 -10 -21 -10h-96zM401 -4q-127 0 -220 85t-93 212v76q0 129 92 208.5t238 79.5h319q27 0 47 -10q-8 27 -8 43v109q0 82 -45 126t-129 44h-127q-78 0 -119 -42t-41 -120v-6
q0 -14 -14 -15h-149q-18 0 -19 17v24q0 123 91 215.5t216 92.5h207q70 0 131.5 -33t100.5 -90q41 57 105.5 90t137.5 33h187q137 0 240.5 -100.5t103.5 -241.5v-248q0 -18 -17 -19h-624q-39 0 -58 13q12 -18 13 -45v-148q-2 -86 44 -135t136 -49h139q76 0 119 41t43 116v9
q2 14 18 14h152q18 0 16 -18v-19q-10 -127 -103 -219t-218 -92h-172q-80 0 -150.5 37t-113.5 98q-35 -63 -101.5 -98t-138.5 -35h-236zM954 647q20 12 58 12h407q37 0 58 -12q-10 25 -11 51v105q0 80 -45 123t-129 43h-153q-82 0 -127 -43t-45 -123v-105q-1 -24 -13 -51z
M461 160h143q84 0 128 43t44 123v174l8 37q-20 -10 -47 -11h-288q-82 0 -127.5 -45t-45.5 -125v-24q1 -172 185 -172z" />
    <glyph glyph-name="Oslashacute" unicode="&#x1fe;" horiz-adv-x="1249" 
d="M526 1540q-10 0 -13 5t1 14l168 235q8 14 23 14h131q10 0 14 -7t-2 -15l-207 -236q-8 -10 -20 -10h-95zM954 1354q66 -45 104 -117t38 -154v-757q0 -137 -97.5 -233.5t-234.5 -96.5h-229q-31 0 -50 14l2 -9t1 -19.5t-3 -20.5l-65 -186q-8 -14 -25 -15h-94q-20 0 -18 21
l69 207q6 18 25 43q-33 -4 -53 8q-80 45 -127 121t-47 166v757q0 137 97 235.5t232 98.5h240q51 0 76 -18q-2 37 2 49l59 174q6 14 23 14h104q20 0 18 -20l-69 -203q-6 -18 -25 -47q29 2 47 -12zM901 348v709q0 188 -188 188h-183q-186 0 -186 -188v-709q0 -182 186 -182
h183q188 0 188 182z" />
    <glyph glyph-name="oslashacute" unicode="&#x1ff;" horiz-adv-x="1148" 
d="M225 1268q-10 0 -14 5t2 13l172 252q8 12 23 12h133q10 0 14 -7t-2 -15l-211 -250q-10 -10 -23 -10h-94zM772 1122q113 -31 181.5 -124t68.5 -218v-434q0 -150 -97.5 -251t-242.5 -101h-180q-51 0 -101 14l-77 -237q-8 -16 -25 -17h-96q-20 0 -19 23l97 297
q-121 102 -121 272v434q0 152 98 253.5t246 101.5h125l88 268q6 16 22 16h107q20 0 18 -22zM834 358v410q0 104 -46.5 152.5t-140.5 48.5h-112q-92 0 -138.5 -48.5t-46.5 -152.5v-410q0 -102 46 -151t139 -49h112q94 0 140.5 49t46.5 151z" />
    <glyph glyph-name="uni0200" unicode="&#x200;" horiz-adv-x="1247" 
d="M328 1810q14 0 24 -12l172 -252q4 -8 1 -14t-13 -6h-94q-14 0 -23 10l-211 252q-6 8 -3 15t14 7h133zM612 1810q14 0 25 -12l170 -252q6 -8 2 -14t-12 -6h-97q-12 0 -20 10l-211 252q-8 8 -4 15t14 7h133zM1180 20q8 -20 -15 -20h-166q-16 0 -20 14l-82 344q-2 6 -2 45
q-27 -8 -49 -8h-445q-23 0 -47 8q-2 -41 -2 -45l-84 -344q-4 -14 -20 -14h-166q-20 0 -14 20l372 1377q4 14 21 14h325q16 0 21 -14zM813 551q20 0 53 -10q-25 33 -30 55l-148 592q-10 33 6 57q-10 -10 -24 -10h-92q-14 0 -25 10q16 -25 8 -57l-149 -592q-6 -23 -31 -55
q33 10 55 10h377z" />
    <glyph glyph-name="uni0201" unicode="&#x201;" horiz-adv-x="1110" 
d="M244 1554q14 0 22 -14l172 -252q6 -6 2 -12t-12 -6h-96q-12 0 -23 10l-211 252q-6 6 -2 14t15 8h133zM528 1554q14 0 23 -14l172 -252q4 -6 1 -12t-13 -6h-95q-12 0 -22 10l-211 252q-6 6 -3 14t15 8h133zM647 1135q129 0 223.5 -97.5t94.5 -234.5v-778q0 -16 -19 -17
h-135q-20 0 -20 17v16q0 12 3 28.5t7 31t4 16.5q-14 -27 -55 -58q-33 -29 -85.5 -46t-101.5 -17h-162q-127 0 -220 85t-93 214v67q0 129 92 210t238 81h319q27 0 47 -10q-8 27 -8 41v117q0 82 -45 126t-127 44h-129q-78 0 -119 -42t-41 -120v-8q0 -14 -14 -15h-149
q-18 0 -19 17v24q0 123 91 215.5t216 92.5h207zM604 160q84 0 128 43t44 123v168q0 2 8 38q-20 -10 -47 -10h-288q-82 0 -127.5 -46t-45.5 -126v-18q0 -172 185 -172h143z" />
    <glyph glyph-name="uni0202" unicode="&#x202;" horiz-adv-x="1247" 
d="M911 1530h-80q-12 0 -16 14q-6 47 -47 79t-106 32h-50q-66 0 -107.5 -33t-47.5 -78q-2 -14 -17 -14h-80q-16 0 -16 16q6 96 75.5 159.5t158.5 63.5h108q92 0 164 -63.5t78 -159.5q-1 -16 -17 -16zM1180 20q8 -20 -15 -20h-166q-16 0 -20 14l-82 344q-2 6 -2 45
q-27 -8 -49 -8h-445q-23 0 -47 8q-2 -41 -2 -45l-84 -344q-4 -14 -20 -14h-166q-20 0 -14 20l372 1377q4 14 21 14h325q16 0 21 -14zM813 551q20 0 53 -10q-25 33 -30 55l-148 592q-10 33 6 57q-10 -10 -24 -10h-92q-14 0 -25 10q16 -25 8 -57l-149 -592q-6 -23 -31 -55
q33 10 55 10h377z" />
    <glyph glyph-name="uni0203" unicode="&#x203;" horiz-adv-x="1110" 
d="M827 1274l-82 -2q-12 0 -14 16q-8 47 -49 79t-107 32h-49q-66 0 -106.5 -33t-46.5 -78q-4 -16 -17 -16l-80 2q-18 0 -16 16q4 94 73.5 158.5t160.5 64.5h108q92 0 164 -63.5t78 -159.5q-1 -16 -17 -16zM647 1135q129 0 223.5 -97.5t94.5 -234.5v-778q0 -16 -19 -17h-135
q-20 0 -20 17v16q0 12 3 28.5t7 31t4 16.5q-14 -27 -55 -58q-33 -29 -85.5 -46t-101.5 -17h-162q-127 0 -220 85t-93 214v67q0 129 92 210t238 81h319q27 0 47 -10q-8 27 -8 41v117q0 82 -45 126t-127 44h-129q-78 0 -119 -42t-41 -120v-8q0 -14 -14 -15h-149q-18 0 -19 17
v24q0 123 91 215.5t216 92.5h207zM604 160q84 0 128 43t44 123v168q0 2 8 38q-20 -10 -47 -10h-288q-82 0 -127.5 -46t-45.5 -126v-18q0 -172 185 -172h143z" />
    <glyph glyph-name="uni0204" unicode="&#x204;" horiz-adv-x="1067" 
d="M279 1815q14 0 22 -13l172 -252q6 -8 2 -14t-12 -6h-96q-12 0 -23 10l-211 252q-6 8 -2 15.5t14 7.5h134zM563 1815q14 0 23 -13l172 -252q4 -8 1 -14t-14 -6h-94q-12 0 -22 10l-211 252q-6 8 -3 15.5t15 7.5h133zM203 0q-23 0 -23 20v1371q0 20 23 20h745q18 0 19 -18
v-136q0 -18 -19 -18h-530q-16 0 -53 14q10 -31 10 -47v-346q0 -16 -13 -47q37 16 56 16l477 -2q18 0 18 -18v-119q0 -16 -18 -16h-477q-12 0 -56 14q12 -27 13 -47v-436q0 -20 -13 -49q43 16 56 16h571q18 0 19 -18v-136q0 -18 -19 -18h-786z" />
    <glyph glyph-name="uni0205" unicode="&#x205;" horiz-adv-x="1099" 
d="M268 1554q14 0 23 -12l172 -252q6 -8 2 -14t-12 -6h-97q-12 0 -22 10l-211 252q-6 8 -2 15t14 7h133zM553 1554q14 0 22 -12l173 -252q4 -8 0.5 -14t-13.5 -6h-94q-12 0 -23 10l-210 252q-6 8 -3 15t15 7h133zM657 1135q137 0 242 -100.5t105 -241.5v-248q0 -18 -19 -19
h-623q-41 0 -57 13q10 -18 10 -45v-150q0 -86 45.5 -135t135.5 -49h139q78 0 120 41t42 118l2 9q0 14 16 14h152q18 0 16 -18v-19q-10 -127 -103.5 -219t-217.5 -92h-189q-143 0 -244.5 102.5t-101.5 249.5v436q0 145 101.5 249t244.5 104h184zM768 659q37 0 57 -12
q-10 25 -10 51v107q0 80 -45 123t-127 43h-154q-84 0 -129 -43t-45 -123v-107q0 -25 -10 -51q20 12 57 12h406z" />
    <glyph glyph-name="uni0206" unicode="&#x206;" horiz-adv-x="1067" 
d="M862 1534h-82q-12 0 -14 14q-8 47 -49 80t-107 33h-49q-66 0 -106.5 -33t-46.5 -80q-4 -14 -17 -14h-80q-18 0 -16 16q4 96 73.5 160t159.5 64h109q92 2 163.5 -62.5t78.5 -161.5q-1 -16 -17 -16zM203 0q-23 0 -23 20v1371q0 20 23 20h745q18 0 19 -18v-136
q0 -18 -19 -18h-530q-16 0 -53 14q10 -31 10 -47v-346q0 -16 -13 -47q37 16 56 16l477 -2q18 0 18 -18v-119q0 -16 -18 -16h-477q-12 0 -56 14q12 -27 13 -47v-436q0 -20 -13 -49q43 16 56 16h571q18 0 19 -18v-136q0 -18 -19 -18h-786z" />
    <glyph glyph-name="uni0207" unicode="&#x207;" horiz-adv-x="1099" 
d="M852 1274h-82q-12 0 -14 14q-8 47 -49 79t-107 32h-49q-66 0 -107 -33t-47 -78q-4 -14 -16 -14h-80q-18 0 -16 16q4 96 73.5 159.5t159.5 63.5h109q92 0 163.5 -63.5t77.5 -159.5q0 -16 -16 -16zM657 1135q137 0 242 -100.5t105 -241.5v-248q0 -18 -19 -19h-623
q-41 0 -57 13q10 -18 10 -45v-150q0 -86 45.5 -135t135.5 -49h139q78 0 120 41t42 118l2 9q0 14 16 14h152q18 0 16 -18v-19q-10 -127 -103.5 -219t-217.5 -92h-189q-143 0 -244.5 102.5t-101.5 249.5v436q0 145 101.5 249t244.5 104h184zM768 659q37 0 57 -12
q-10 25 -10 51v107q0 80 -45 123t-127 43h-154q-84 0 -129 -43t-45 -123v-107q0 -25 -10 -51q20 12 57 12h406z" />
    <glyph glyph-name="uni0208" unicode="&#x208;" horiz-adv-x="555" 
d="M-29 1815q14 0 23 -13l172 -252q6 -8 2 -14t-14 -6h-95q-12 0 -22 10l-211 252q-6 8 -2 15.5t14 7.5h133zM256 1815q14 0 23 -13l172 -252q4 -8 1 -14t-14 -6h-94q-12 0 -22 10l-211 252q-6 8 -3 15.5t13 7.5h135zM354 1411q20 0 21 -18v-1375q0 -18 -21 -18h-153
q-20 0 -21 18v1375q0 18 21 18h153z" />
    <glyph glyph-name="uni0209" unicode="&#x209;" horiz-adv-x="522" 
d="M-41 1554q14 0 25 -12l172 -252q4 -8 1 -14t-14 -6h-94q-14 0 -22 10l-211 252q-6 8 -3 15t13 7h133zM244 1554q14 0 22 -12l172 -252q6 -8 2 -14t-12 -6h-96q-12 0 -21 10l-211 252q-8 8 -4 15t15 7h133zM336 1122q18 0 18 -18v-1077q0 -18 -18 -19h-152q-18 0 -18 19
v1077q0 18 18 18h152z" />
    <glyph glyph-name="uni020A" unicode="&#x20a;" horiz-adv-x="555" 
d="M555 1534h-82q-12 0 -16 14q-6 47 -47 80t-107 33h-49q-66 0 -107 -33t-47 -80q-4 -14 -16 -14h-82q-16 0 -14 16q4 96 73.5 160t159.5 64h107q94 2 165.5 -62.5t75.5 -161.5q2 -16 -14 -16zM354 1411q20 0 21 -18v-1375q0 -18 -21 -18h-153q-20 0 -21 18v1375
q0 18 21 18h153z" />
    <glyph glyph-name="uni020B" unicode="&#x20b;" horiz-adv-x="522" 
d="M543 1274h-80q-12 0 -17 14q-6 47 -47 79t-106 32h-49q-66 0 -108 -33t-48 -78q-2 -14 -16 -14h-80q-16 0 -17 16q6 96 76 159.5t158 63.5h108q92 0 164 -63.5t78 -159.5q0 -16 -16 -16zM336 1122q18 0 18 -18v-1077q0 -18 -18 -19h-152q-18 0 -18 19v1077q0 18 18 18
h152z" />
    <glyph glyph-name="uni020C" unicode="&#x20c;" 
d="M330 1815q14 0 22 -13l172 -252q4 -8 1 -14t-13 -6h-94q-12 0 -23 10l-211 252q-6 8 -3 15.5t14 7.5h135zM612 1815q14 0 25 -13l172 -252q4 -8 1 -14t-13 -6h-95q-14 0 -22 10l-211 252q-6 8 -3 15.5t13 7.5h133zM479 -4q-135 0 -232 96t-97 234v757q0 137 97 235.5
t232 98.5h285q135 0 232.5 -98t97.5 -236v-757q0 -137 -97.5 -233.5t-232.5 -96.5h-285zM530 166h183q88 0 137 46t49 136v713q0 92 -49 138t-137 46h-183q-88 0 -137 -46t-49 -138v-713q0 -90 49 -136t137 -46z" />
    <glyph glyph-name="uni020D" unicode="&#x20d;" horiz-adv-x="1116" 
d="M262 1554q14 0 25 -12l170 -252q6 -8 2 -14t-13 -6h-96q-12 0 -20 10l-211 252q-8 8 -4 15t14 7h133zM547 1554q14 0 22 -12l172 -252q6 -8 2 -14t-14 -6h-94q-12 0 -23 10l-211 252q-6 8 -2 15t15 7h133zM645 1135q150 0 247 -101.5t97 -253.5v-434q0 -150 -97 -251
t-245 -101h-178q-147 0 -244.5 101.5t-97.5 250.5v434q0 152 97.5 253.5t244.5 101.5h176zM614 969h-112q-92 0 -139.5 -48.5t-47.5 -152.5v-410q0 -102 47.5 -151t139.5 -49h112q92 0 139.5 49t47.5 151v410q0 104 -47.5 152.5t-139.5 48.5z" />
    <glyph glyph-name="uni020E" unicode="&#x20e;" 
d="M911 1534h-80q-12 0 -16 14q-6 47 -47 80t-106 33h-50q-66 0 -106.5 -33t-48.5 -80q-2 -14 -17 -14h-80q-16 0 -16 16q6 96 75.5 160t160.5 64h106q92 2 164 -62.5t78 -161.5q1 -16 -17 -16zM479 -4q-135 0 -232 96t-97 234v757q0 137 97 235.5t232 98.5h285
q135 0 232.5 -98t97.5 -236v-757q0 -137 -97.5 -233.5t-232.5 -96.5h-285zM530 166h183q88 0 137 46t49 136v713q0 92 -49 138t-137 46h-183q-88 0 -137 -46t-49 -138v-713q0 -90 49 -136t137 -46z" />
    <glyph glyph-name="uni020F" unicode="&#x20f;" horiz-adv-x="1116" 
d="M846 1274h-80q-14 0 -16 14q-6 47 -48.5 79t-107.5 32h-49q-63 0 -105.5 -33t-48.5 -78q-4 -14 -16 -14h-80q-18 0 -16 16q6 96 75.5 159.5t157.5 63.5h109q92 0 163.5 -63.5t77.5 -159.5q0 -16 -16 -16zM645 1135q150 0 247 -101.5t97 -253.5v-434q0 -150 -97 -251
t-245 -101h-178q-147 0 -244.5 101.5t-97.5 250.5v434q0 152 97.5 253.5t244.5 101.5h176zM614 969h-112q-92 0 -139.5 -48.5t-47.5 -152.5v-410q0 -102 47.5 -151t139.5 -49h112q92 0 139.5 49t47.5 151v410q0 104 -47.5 152.5t-139.5 48.5z" />
    <glyph glyph-name="uni0210" unicode="&#x210;" horiz-adv-x="1202" 
d="M309 1819q14 0 23 -15l172 -252q6 -6 2 -12t-14 -6h-95q-12 0 -22 10l-211 252q-6 6 -2 14.5t14 8.5h133zM594 1819q14 0 22 -15l172 -252q4 -6 1 -12t-13 -6h-94q-12 0 -23 10l-210 252q-6 6 -3 14.5t13 8.5h135zM203 0q-23 0 -23 20v1371q0 20 23 20h559
q141 0 240.5 -95t99.5 -233v-147q0 -111 -70.5 -196t-177.5 -105q-27 -2 -63 6q33 -35 40 -51l302 -565q6 -10 0.5 -17.5t-15.5 -7.5h-157q-16 0 -25 14l-299 566q-2 4 -12 45q-23 -14 -37 -15h-176q-18 0 -45 13q8 -27 8 -48v-555q0 -20 -23 -20h-149zM365 754q35 14 53 14
h301q88 0 137 46t49 126v127q0 80 -49 126t-137 46h-301q-16 0 -56 14q12 -29 13 -47v-405q0 -14 -10 -47z" />
    <glyph glyph-name="uni0211" unicode="&#x211;" horiz-adv-x="722" 
d="M106 1554q14 0 25 -12l170 -252q6 -8 2 -14t-12 -6h-96q-12 0 -21 10l-211 252q-8 8 -4 15t14 7h133zM391 1554q14 0 23 -12l172 -252q6 -8 2 -14t-15 -6h-94q-12 0 -22 10l-211 252q-6 8 -2 15t14 7h133zM674 1135q18 0 18 -19v-129q0 -18 -18 -18h-146q-84 0 -129 -44
t-45 -126v-772q0 -18 -18 -19h-152q-18 0 -18 19v1077q0 18 18 18h138q20 0 18 -18l2 -10q0 -18 -7 -51t-7 -37q20 39 53 65q35 29 86 46.5t100 17.5h107z" />
    <glyph glyph-name="uni0212" unicode="&#x212;" horiz-adv-x="1202" 
d="M893 1538l-82 -2q-12 0 -16 16q-6 47 -47 79t-107 32h-49q-66 0 -107 -33t-47 -78q-4 -16 -16 -16l-82 2q-16 0 -14 16q4 94 73.5 159t159.5 65h107q94 0 165.5 -63.5t75.5 -160.5q2 -16 -14 -16zM203 0q-23 0 -23 20v1371q0 20 23 20h561q139 0 238.5 -95t99.5 -233
v-147q0 -111 -70.5 -196t-177.5 -105q-27 -2 -63 6q33 -35 40 -51l302 -565q6 -10 0.5 -17.5t-15.5 -7.5h-157q-16 0 -25 14l-299 566q-2 4 -12 45q-23 -14 -37 -15h-176q-18 0 -45 13q8 -27 8 -48v-555q0 -20 -23 -20h-149zM365 754q35 14 53 14h301q88 0 137 46t49 126
v127q0 80 -49 126t-137 46h-301q-16 0 -56 14q12 -29 13 -47v-405q0 -14 -10 -47z" />
    <glyph glyph-name="uni0213" unicode="&#x213;" horiz-adv-x="722" 
d="M690 1274h-80q-14 0 -16 14q-6 47 -48 79t-108 32h-49q-63 0 -105 -33t-48 -78q-4 -14 -17 -14h-80q-18 0 -16 16q6 96 75.5 159.5t157.5 63.5h109q92 0 163.5 -63.5t78.5 -159.5q-1 -16 -17 -16zM674 1135q18 0 18 -19v-129q0 -18 -18 -18h-146q-82 0 -128 -44t-46 -126
v-772q0 -18 -18 -19h-152q-18 0 -18 19v1077q0 18 18 18h138q20 0 18 -18l2 -10q0 -18 -7 -51t-7 -37q20 39 53 65q35 29 86 46.5t100 17.5h107z" />
    <glyph glyph-name="uni0214" unicode="&#x214;" horiz-adv-x="1263" 
d="M328 1815q14 0 22 -13l172 -252q6 -8 2 -14t-14 -6h-94q-12 0 -23 10l-211 252q-6 8 -2 15.5t15 7.5h133zM612 1815q14 0 23 -13l172 -252q4 -8 1 -14t-13 -6h-95q-12 0 -22 10l-211 252q-6 8 -3 15.5t13 7.5h135zM1083 1411q23 0 23 -20v-1063q0 -137 -99.5 -234.5
t-240.5 -97.5h-268q-141 0 -239.5 97t-98.5 235v1063q0 20 20 20h152q23 0 22 -20v-1043q0 -90 49.5 -136t137.5 -46h182q88 0 137 46t49 136v1043q0 20 23 20h151z" />
    <glyph glyph-name="uni0215" unicode="&#x215;" horiz-adv-x="1173" 
d="M281 1554q14 0 24 -12l172 -252q4 -8 1 -14t-13 -6h-94q-14 0 -23 10l-211 252q-6 8 -3 15t13 7h134zM565 1554q14 0 25 -12l170 -252q6 -8 2 -14t-12 -6h-97q-12 0 -20 10l-211 252q-8 8 -4 15t14 7h133zM479 -4q-135 0 -231 98.5t-96 241.5v768q0 18 18 18h152
q18 0 18 -18v-742q0 -201 192 -200h113q82 0 127 44t45 126v772q0 18 19 18h151q18 0 19 -18v-1077q0 -18 -19 -19h-135q-20 0 -21 17v12q0 16 7.5 50t7.5 38q-20 -39 -55 -66q-33 -29 -85.5 -46t-101.5 -17h-125z" />
    <glyph glyph-name="uni0216" unicode="&#x216;" horiz-adv-x="1263" 
d="M911 1534h-82q-12 0 -16 14q-6 47 -47 80t-107 33h-49q-66 0 -106.5 -33t-46.5 -80q-4 -14 -17 -14h-82q-16 0 -14 16q4 96 73.5 160t160.5 64h106q94 2 166 -62.5t76 -161.5q1 -16 -15 -16zM1083 1411q23 0 23 -20v-1063q0 -137 -99.5 -234.5t-240.5 -97.5h-268
q-141 0 -239.5 97t-98.5 235v1063q0 20 20 20h152q23 0 22 -20v-1043q0 -90 49.5 -136t137.5 -46h182q88 0 137 46t49 136v1043q0 20 23 20h151z" />
    <glyph glyph-name="uni0217" unicode="&#x217;" horiz-adv-x="1173" 
d="M864 1274h-80q-12 0 -16 14q-6 47 -47 79t-107 32h-49q-66 0 -107.5 -33t-47.5 -78q-2 -14 -17 -14h-80q-16 0 -16 16q6 96 75.5 159.5t157.5 63.5h109q92 0 163.5 -63.5t78.5 -159.5q1 -16 -17 -16zM479 -4q-135 0 -231 98.5t-96 241.5v768q0 18 18 18h152q18 0 18 -18
v-742q0 -201 192 -200h113q82 0 127 44t45 126v772q0 18 19 18h151q18 0 19 -18v-1077q0 -18 -19 -19h-135q-20 0 -21 17v12q0 16 7.5 50t7.5 38q-20 -39 -55 -66q-33 -29 -85.5 -46t-101.5 -17h-125z" />
    <glyph glyph-name="uni0218" unicode="&#x218;" horiz-adv-x="1118" 
d="M440 -6q-141 0 -239.5 97t-98.5 237v118q0 20 21 21h151q23 0 23 -21v-98q0 -90 49 -136t137 -46h156q86 0 135 47t49 135v94q0 100 -114 154l-408 176q-92 37 -143.5 110.5t-51.5 155.5v49q0 135 98.5 232.5t237.5 97.5h222q143 0 237 -96t94 -238v-51q0 -20 -22 -20
h-152q-23 0 -22 20v51q0 74 -47 118t-129 44h-156q-78 0 -123 -45t-45 -119v-28q0 -100 107 -148l417 -182q100 -43 147.5 -110.5t47.5 -172.5v-116q0 -137 -100.5 -233.5t-241.5 -96.5h-236zM612 -102q10 0 16.5 -6.5t4.5 -14.5l-37 -336q-4 -27 -21 -26l-61 -2h-14t-9.5 3
t-3.5 11v350q0 20 19 21h106z" />
    <glyph glyph-name="uni0219" unicode="&#x219;" horiz-adv-x="1011" 
d="M362 -6q-113 0 -191.5 79t-82.5 187v82q0 18 21 18h139q20 0 22 -16l2 -84q2 -45 35 -72.5t80 -27.5h262q45 0 76 30.5t31 75.5v105q0 39 -20.5 65.5t-53.5 36.5l-363 86q-102 18 -159.5 85t-57.5 161v61q0 113 78 191t193 78h262q113 0 191.5 -78t80.5 -187v-45
q0 -16 -18 -16h-139q-20 0 -25 14l-2 47q0 43 -33 72t-80 29h-235q-45 0 -75 -32t-30 -77v-63q0 -35 23.5 -58.5t60.5 -33.5l361 -89q100 -18 153.5 -85.5t53.5 -159.5v-111q0 -111 -77 -189.5t-192 -78.5h-291zM557 -111q23 0 21 -20l-37 -356q-4 -29 -21 -31h-63h-14.5
t-10.5 3t-4 11v373q0 20 21 20h108z" />
    <glyph glyph-name="uni021A" unicode="&#x21a;" horiz-adv-x="884" 
d="M897 1411q20 0 21 -20v-131q0 -20 -21 -21h-313q-14 0 -56 16q10 -29 11 -47v-1188q0 -20 -21 -20h-151q-20 0 -21 20v1188q0 20 10 45l-6 -3t-12 -5t-17.5 -4t-19.5 -2h-313q-20 0 -21 21v131q0 20 21 20h909zM500 -102q10 0 16 -5.5t4 -15.5l-37 -336q-4 -27 -18 -26
l-64 -2h-14t-9 3t-3 11v350q0 20 20 21h105z" />
    <glyph glyph-name="uni021B" unicode="&#x21b;" horiz-adv-x="882" 
d="M780 1122q20 0 21 -20v-123q0 -23 -21 -23h-205q-39 0 -57 13q12 -20 12 -49v-893q0 -18 -18 -19h-152q-18 0 -18 19v893q0 29 10 47q-23 -10 -57 -11h-193q-20 0 -20 23v123q0 20 20 20h193q37 0 57 -10q-10 18 -10 49v256q0 12 16 19q4 2 7 2l145 67q20 8 20 -14v-330
q0 -35 -12 -51q12 12 62 12h200zM483 -111q25 0 21 -20l-37 -356q-4 -31 -21 -31h-63h-14.5t-9.5 3t-3 11v373q0 20 21 20h106z" />
    <glyph glyph-name="uni0232" unicode="&#x232;" horiz-adv-x="1064" 
d="M240 1542q-20 0 -21 23v84q0 20 21 20h573q20 0 21 -20v-84q0 -23 -21 -23h-573zM455 0q-20 0 -21 20v496q0 4 1 8l2 8l1 3q-12 14 -16 22l-457 827q-6 12 -2 19.5t19 7.5h161q18 0 25 -14l336 -619q14 -29 28 -84q14 57 27 84l336 619q8 14 27 14h161q12 0 17.5 -7
t-0.5 -20l-457 -827q-4 -8 -16 -22l1 -3l2 -8t1 -8v-496q0 -20 -23 -20h-153z" />
    <glyph glyph-name="uni0233" unicode="&#x233;" horiz-adv-x="1001" 
d="M211 1282q-20 0 -21 23v84q0 20 21 20h573q20 0 21 -20v-84q0 -23 -21 -23h-573zM956 1130q25 0 17 -26l-463 -1313q-51 -147 -129 -223t-201 -76h-63q-20 0 -21 21v131q0 18 19 18h75q39 0 67 10.5t47.5 38t29.5 51t26 72.5l54 158q2 2 11 9l9 7q-2 0 -13 1t-13 5
l-383 1090q-10 27 16 26h141q16 0 23 -18l272 -799q16 -49 21 -92q4 45 20 94l273 797q6 16 22 18h143z" />
    <glyph glyph-name="uni0237" unicode="&#x237;" horiz-adv-x="524" 
d="M340 1122q18 0 18 -18v-1260q0 -145 -101 -248.5t-245 -103.5h-45q-20 0 -20 21v131q0 16 16 18h35q84 2 128 53.5t44 145.5v1243q0 18 18 18h152z" />
    <glyph glyph-name="uni0259" unicode="&#x259;" horiz-adv-x="1099" 
d="M471 -6q-137 0 -240.5 100.5t-103.5 241.5v248q0 18 18 18h623q39 0 57 -10q-10 18 -10 43v149q0 88 -46 137.5t-136 49.5h-139q-76 0 -119 -41t-43 -119v-8q-2 -16 -19 -17l-149 2q-20 0 -17 19v16q10 129 102.5 220.5t219.5 91.5h188q143 0 245 -102.5t102 -248.5v-436
q0 -145 -101.5 -249.5t-245.5 -104.5h-186zM360 469q-37 0 -57 12q10 -25 10 -51v-106q0 -78 46.5 -121t127.5 -43h154q82 0 128 43t46 121v106q0 27 10 51q-20 -12 -57 -12h-408z" />
    <glyph glyph-name="uni0272" unicode="&#x272;" horiz-adv-x="1228" 
d="M707 1135q135 0 231 -98.5t96 -241.5v-768q0 -18 -18 -19h-152q-18 0 -18 19v743q0 201 -193 201h-125q-84 0 -129 -44t-45 -128v-594v-221q0 -96 -30.5 -171t-82 -116t-108.5 -60.5t-117 -19.5h-67q-18 0 -19 18v117q0 18 13 19h14q106 0 157.5 47t51.5 155v47v7v1077
q0 18 18 18h135q20 0 21 -18v-10q0 -20 -6 -53t-6 -35q18 39 53 65q33 29 85 46.5t101 17.5h140z" />
    <glyph glyph-name="uni02BC" unicode="&#x2bc;" horiz-adv-x="421" 
d="M264 1567q23 0 21 -21l-37 -356q-4 -31 -21 -31l-63 -2h-14.5t-9.5 4t-3 13v372q0 20 21 21h106z" />
    <glyph glyph-name="circumflex" unicode="&#x2c6;" horiz-adv-x="802" 
d="M694 1294q6 -8 2 -14t-14 -6h-100q-10 0 -23 12l-135 127q-20 20 -23 33q0 -12 -22 -33l-137 -127q-10 -12 -23 -12h-98q-10 0 -14.5 6t2.5 14l204 236q10 16 21 16h135q10 0 23 -16z" />
    <glyph glyph-name="caron" unicode="&#x2c7;" horiz-adv-x="802" 
d="M682 1559q10 0 14 -6.5t-2 -12.5l-202 -237q-12 -16 -23 -17h-135q-10 0 -21 17l-204 237q-6 6 -2 12.5t14 6.5h98q12 0 23 -13l137 -127q23 -20 22 -33q2 12 23 33l135 127q12 12 23 13h100z" />
    <glyph glyph-name="breve" unicode="&#x2d8;" horiz-adv-x="907" 
d="M729 1477q16 0 16 -19q-6 -96 -77.5 -159.5t-163.5 -63.5h-109q-90 0 -158.5 64.5t-74.5 158.5q-2 18 16 19h80q12 0 16 -15q6 -47 47 -79.5t107 -32.5h49q66 0 108 32.5t48 79.5q2 14 16 15h80z" />
    <glyph glyph-name="dotaccent" unicode="&#x2d9;" horiz-adv-x="495" 
d="M172 1268q-18 0 -18 18v172q0 16 18 17h152q18 0 18 -17v-172q0 -18 -18 -18h-152z" />
    <glyph glyph-name="ring" unicode="&#x2da;" horiz-adv-x="710" 
d="M360 1745q90 0 156 -64.5t66 -154.5v-25q0 -88 -65.5 -153.5t-156.5 -65.5h-10q-90 0 -155.5 65.5t-65.5 153.5v25q0 90 65.5 154.5t155.5 64.5h10zM356 1642h-4q-45 0 -76.5 -35.5t-31.5 -86.5v-17q0 -51 31.5 -87t76.5 -36h4q45 0 78 36t33 87v17q0 51 -33 86.5
t-78 35.5z" />
    <glyph glyph-name="ogonek" unicode="&#x2db;" horiz-adv-x="616" 
d="M367 66q12 10 22 -3l51 -49q12 -12 -4 -26l-86 -66q-61 -45 -85.5 -82t-24.5 -86q0 -53 28.5 -80.5t81.5 -27.5h137q16 0 17 -27v-53q0 -18 -17 -19h-157q-90 0 -146.5 54.5t-56.5 134.5v24q0 121 131 217z" />
    <glyph glyph-name="tilde" unicode="&#x2dc;" horiz-adv-x="909" 
d="M743 1481q18 0 17 -17q-10 -90 -62.5 -143t-124.5 -53q-68 0 -139 59q-23 18 -33 25.5t-26.5 14.5t-34.5 7q-35 0 -58.5 -24.5t-27.5 -59.5q-4 -16 -18 -16h-70q-18 0 -16 18q10 88 62 141.5t124 53.5q68 0 139 -60q23 -18 33 -25t26.5 -14.5t34.5 -7.5q35 0 58.5 25
t27.5 59q4 16 19 17h69z" />
    <glyph glyph-name="hungarumlaut" unicode="&#x2dd;" horiz-adv-x="948" 
d="M125 1268q-10 0 -13 5t1 13l170 250q10 14 22 14h139q10 0 14.5 -6t-1.5 -12l-209 -250q-14 -14 -23 -14h-100zM473 1268q-10 0 -13 5t1 13l170 250q12 14 22 14h140q10 0 14 -6t-2 -12l-209 -250q-14 -14 -23 -14h-100z" />
    <glyph glyph-name="gravecomb" unicode="&#x300;" horiz-adv-x="0" 
d="M-330 1550q14 0 23 -12l172 -252q4 -8 1 -13t-13 -5h-95q-12 0 -22 10l-211 250q-6 8 -3 15t13 7h135z" />
    <glyph glyph-name="hookabovecomb" unicode="&#x309;" horiz-adv-x="0" 
d="M-512 1448q-18 0 -18 16v45q0 47 37.5 84t86.5 37h148q51 0 89 -37t38 -84v-61q0 -80 -55 -102l-72 -31q-29 -12 -31 -41v-35q-2 -18 -18 -18h-70q-16 0 -18 18v41q-2 37 8 57.5t45 38.5l51 27q41 20 41 43v53q0 31 -35 31h-100q-35 0 -35 -35v-33q0 -14 -18 -14h-74z
" />
    <glyph glyph-name="uni031B" unicode="&#x31b;" horiz-adv-x="0" 
d="M-346 1049q-29 0 -100 12l8 98h50h42h14q29 0 41 14.5t12 51.5v268q0 12 13 12h98q12 0 12 -12v-293q0 -70 -42 -110.5t-101 -40.5h-47z" />
    <glyph glyph-name="dotbelowcomb" unicode="&#x323;" horiz-adv-x="0" 
d="M-182 -131q16 0 16 -19v-141q0 -18 -16 -18h-97q-16 0 -16 18v141q0 18 16 19h97z" />
    <glyph glyph-name="uni0326" unicode="&#x326;" horiz-adv-x="0" 
d="M-178 -111q23 0 20 -20l-37 -356q-4 -29 -20 -31h-64h-16t-9 3t-3 11v373q0 20 20 20h109z" />
    <glyph glyph-name="uni0394" unicode="&#x394;" horiz-adv-x="1253" 
d="M0 0q-20 0 -12 20l547 1461q4 16 18 16h145q16 0 21 -16l547 -1461q8 -20 -15 -20h-1251zM272 160h707q14 0 20.5 10t1.5 25l-352 956q-6 16 -25.5 16t-25.5 -16l-346 -956q-6 -14 0 -24.5t20 -10.5z" />
    <glyph glyph-name="uni0394" unicode="&#x3b4;" horiz-adv-x="1253" 
d="M0 0q-20 0 -12 20l547 1461q4 16 18 16h145q16 0 21 -16l547 -1461q8 -20 -15 -20h-1251zM272 160h707q14 0 20.5 10t1.5 25l-352 956q-6 16 -25.5 16t-25.5 -16l-346 -956q-6 -14 0 -24.5t20 -10.5z" />
    <glyph glyph-name="uni03A9" unicode="&#x3a9;" horiz-adv-x="1443" 
d="M176 0q-20 0 -20 20v117q0 20 20 21h275v67l-2 2q-123 18 -206 114.5t-83 227.5v582q0 147 99 250.5t239 103.5h450q139 0 239.5 -103.5t100.5 -250.5v-582q0 -133 -87 -231t-212 -113l-4 -2v-65h275q23 0 22 -21v-117q0 -20 -22 -20h-433q-20 0 -20 20v306q0 23 20 22
h72q88 0 141.5 56.5t53.5 152.5v567q0 201 -197 201h-346q-199 0 -199 -201v-567q0 -94 54.5 -151.5t142.5 -57.5h61q20 0 21 -22v-306q0 -20 -21 -20h-434z" />
    <glyph glyph-name="uni03A9" unicode="&#x3c9;" horiz-adv-x="1443" 
d="M176 0q-20 0 -20 20v117q0 20 20 21h275v67l-2 2q-123 18 -206 114.5t-83 227.5v582q0 147 99 250.5t239 103.5h450q139 0 239.5 -103.5t100.5 -250.5v-582q0 -133 -87 -231t-212 -113l-4 -2v-65h275q23 0 22 -21v-117q0 -20 -22 -20h-433q-20 0 -20 20v306q0 23 20 22
h72q88 0 141.5 56.5t53.5 152.5v567q0 201 -197 201h-346q-199 0 -199 -201v-567q0 -94 54.5 -151.5t142.5 -57.5h61q20 0 21 -22v-306q0 -20 -21 -20h-434z" />
    <glyph glyph-name="uni03BC" unicode="&#x3bc;" horiz-adv-x="1200" 
d="M1014 1128q20 0 20 -20v-1085q0 -20 -20 -21h-150q-20 0 -20 18q0 20 -13.5 28.5t-23.5 0.5q-74 -55 -162 -55h-129q-72 2 -123 39q-16 6 -27.5 -2t-11.5 -23v-487q0 -23 -20 -23h-148q-20 0 -20 23v1587q0 20 20 20h146q23 0 22 -20v-750q0 -201 195 -200h100
q195 0 195 200v750q0 20 20 20h150z" />
    <glyph glyph-name="pi" unicode="&#x3c0;" horiz-adv-x="1449" 
d="M1268 1130q18 0 18 -18v-121q0 -16 -18 -16h-119q-18 0 -53 16q10 -33 10 -49v-582q0 -178 172 -178q16 0 16 -14v-152q0 -23 -20 -22h-17q-143 2 -244.5 103.5t-101.5 244.5v600q0 16 13 49q-37 -16 -56 -16h-297q-18 0 -55 16q12 -33 12 -49v-924q0 -18 -18 -18h-158
q-18 0 -18 18v924q0 16 10 49q-35 -16 -53 -16h-119q-20 0 -20 16v121q0 18 20 18h1096z" />
    <glyph glyph-name="uni0400" unicode="&#x400;" horiz-adv-x="1067" 
d="M535 1769q14 0 24 -12l170 -252q6 -8 3 -14t-13 -6h-96q-12 0 -21 10l-211 252q-8 8 -4 15t14 7h134zM203 0q-23 0 -23 20v1371q0 20 23 20h745q18 0 19 -18v-136q0 -18 -19 -18h-530q-16 0 -53 14q10 -31 10 -47v-346q0 -16 -13 -47q37 16 56 16l477 -2q18 0 18 -18
v-119q0 -16 -18 -16h-477q-12 0 -56 14q12 -27 13 -47v-436q0 -20 -13 -49q43 16 56 16h571q18 0 19 -18v-136q0 -18 -19 -18h-786z" />
    <glyph glyph-name="uni0401" unicode="&#x401;" horiz-adv-x="1067" 
d="M338 1513q-20 0 -21 21v164q0 23 21 22h115q20 0 20 -22v-164q0 -20 -20 -21h-115zM707 1513q-20 0 -21 21v164q0 23 21 22h114q20 0 21 -22v-164q0 -20 -21 -21h-114zM203 0q-23 0 -23 20v1371q0 20 23 20h745q18 0 19 -18v-136q0 -18 -19 -18h-530q-16 0 -53 14
q10 -31 10 -47v-346q0 -16 -13 -47q37 16 56 16l477 -2q18 0 18 -18v-119q0 -16 -18 -16h-477q-12 0 -56 14q12 -27 13 -47v-436q0 -20 -13 -49q43 16 56 16h571q18 0 19 -18v-136q0 -18 -19 -18h-786z" />
    <glyph glyph-name="uni0402" unicode="&#x402;" horiz-adv-x="1288" 
d="M831 965q139 0 234.5 -97.5t95.5 -234.5v-322q0 -133 -97 -224t-233 -93h-143q-20 0 -20 22v121q0 20 20 21h98q188 0 189 200v242q0 201 -189 203h-145q-193 0 -195 -197v-586q0 -20 -20 -20h-147q-20 0 -21 20v1168q0 20 10 45l-6 -3t-13 -5t-17.5 -4t-20.5 -2h-223
q-20 0 -21 20v129q0 23 21 23h739q23 0 23 -23v-129q0 -20 -23 -20h-235q-16 0 -58 14q12 -27 12 -45v-256q0 -37 -8 -64q18 20 49 45q68 51 168 52h176z" />
    <glyph glyph-name="uni0403" unicode="&#x403;" horiz-adv-x="1009" 
d="M459 1526q-8 0 -12.5 6t2.5 14l172 252q8 12 22 12h133q10 0 14.5 -7t-2.5 -15l-210 -250q-10 -12 -23 -12h-96zM1026 1411q16 0 16 -18v-410q0 -16 -16 -16h-156q-18 0 -18 16v225q0 29 14 49q-20 -18 -47 -18h-422q-27 0 -47 18q12 -25 12 -49v-1190q0 -18 -18 -18
h-156q-16 0 -16 18v1375q0 18 16 18h838z" />
    <glyph glyph-name="uni0404" unicode="&#x404;" horiz-adv-x="1150" 
d="M479 1417h250q135 0 233.5 -97t98.5 -237v-84q0 -16 -19 -16h-159q-18 0 -19 16v58q0 188 -186 188h-146q-188 0 -188 -188v-232q0 -31 -10 -49q29 16 47 17h377q12 0 12 -19v-110q0 -18 -12 -19h-379q-18 0 -45 17q10 -18 10 -48v-266q0 -182 188 -182h146
q188 0 188 182v72q0 18 19 18h157q18 0 19 -18v-94q0 -137 -98.5 -233.5t-233.5 -96.5h-250q-135 0 -232 96t-97 234v757q0 139 97 236.5t232 97.5z" />
    <glyph glyph-name="uni0405" unicode="&#x405;" horiz-adv-x="1118" 
d="M440 -6q-141 0 -239.5 97t-98.5 237v118q0 20 21 21h151q23 0 23 -21v-98q0 -90 49 -136t137 -46h156q86 0 135 47t49 135v94q0 100 -114 154l-408 176q-92 37 -143.5 110.5t-51.5 155.5v49q0 135 98.5 232.5t237.5 97.5h222q143 0 237 -96t94 -238v-51q0 -20 -22 -20
h-152q-23 0 -22 20v51q0 74 -47 118t-129 44h-156q-78 0 -123 -45t-45 -119v-28q0 -100 107 -148l417 -182q100 -43 147.5 -110.5t47.5 -172.5v-116q0 -137 -100.5 -233.5t-241.5 -96.5h-236z" />
    <glyph glyph-name="uni0406" unicode="&#x406;" horiz-adv-x="555" 
d="M354 1411q20 0 21 -18v-1375q0 -18 -21 -18h-153q-20 0 -21 18v1375q0 18 21 18h153z" />
    <glyph glyph-name="uni0407" unicode="&#x407;" horiz-adv-x="555" 
d="M29 1513q-20 0 -21 21v164q0 23 21 22h116q20 0 21 -22v-164q0 -20 -21 -21h-116zM397 1513q-18 0 -18 21v164q0 23 18 22h117q20 0 21 -22v-164q0 -20 -21 -21h-117zM354 1411q20 0 21 -18v-1375q0 -18 -21 -18h-153q-20 0 -21 18v1375q0 18 21 18h153z" />
    <glyph glyph-name="uni0408" unicode="&#x408;" horiz-adv-x="978" 
d="M793 1409q23 0 22 -20v-1063q0 -137 -99.5 -234.5t-238.5 -97.5h-125q-139 0 -238.5 97t-99.5 235v137q0 20 21 20h153q20 0 21 -20v-146q0 -84 47 -125.5t131 -41.5h55q84 0 130 41.5t46 125.5v1072q0 20 23 20h152z" />
    <glyph glyph-name="uni0409" unicode="&#x409;" horiz-adv-x="2062" 
d="M1661 887q143 0 244.5 -100.5t101.5 -245.5v-195q0 -145 -101.5 -245.5t-244.5 -100.5h-604q-18 0 -19 18v1188q0 31 15 49q-27 -16 -52 -16h-368q-18 0 -53 16q18 -23 14 -51l-117 -870q-23 -158 -114 -249t-232 -91h-129v166h86q94 0 143.5 47t61.5 149l141 1037
q0 18 19 18h759q20 0 21 -18v-471q0 -29 -16 -50q29 14 51 15h393zM1812 381v135q0 197 -196 197h-348q-23 0 -49 12q14 -23 14 -49v-459q0 -27 -16 -49q31 12 51 12h348q196 0 196 201z" />
    <glyph glyph-name="uni040A" unicode="&#x40a;" horiz-adv-x="1951" 
d="M1550 877q143 0 244.5 -98.5t101.5 -243.5v-189q0 -147 -101 -247.5t-245 -100.5h-606q-16 0 -16 20v637q0 27 14 47q-37 -10 -51 -10h-490q-25 0 -49 13q12 -31 13 -50v-637q0 -18 -17 -18h-160q-16 0 -16 18v1375q0 18 16 18h160q16 0 17 -18v-490q0 -14 -11 -49
q23 14 47 14h490q14 0 51 -12q-14 20 -14 47v490q0 18 16 18h160q14 0 16 -12q2 -4 2 -10v-476q0 -23 -18 -49q41 12 53 13h393zM1702 379v129q-2 197 -197 197l-348 -3q-10 0 -21.5 3.5t-20.5 6.5t-11 3q18 -18 18 -47v-451q0 -25 -14 -49q31 12 49 12h348q197 0 197 199z
" />
    <glyph glyph-name="uni040B" unicode="&#x40b;" horiz-adv-x="1347" 
d="M868 924q137 -2 234.5 -97.5t97.5 -238.5v-565q0 -23 -20 -23h-146q-23 0 -22 23v536q0 201 -191 201h-141q-195 0 -197 -197v-543q0 -20 -20 -20h-148q-20 0 -20 20v1188q0 20 12 45q-2 0 -8 -3t-12 -5t-16.5 -4t-20.5 -2h-262q-20 0 -21 21v131q0 20 21 20h803
q20 0 20 -20v-131q0 -20 -20 -21h-263q-14 0 -55 16q10 -29 10 -47v-311q0 -23 -12 -88q14 31 57 65q61 49 164 50h176z" />
    <glyph glyph-name="uni040C" unicode="&#x40c;" horiz-adv-x="1255" 
d="M575 1526q-8 0 -12 6t2 14l170 252q10 12 25 12h133q10 0 14 -7t-4 -15l-211 -250q-8 -12 -20 -12h-97zM1225 1417q20 0 20 -20v-129q0 -23 -20 -23h-19q-193 0 -192 -201v-88q0 -115 -61.5 -204.5t-143.5 -112.5q-61 -4 -86 2q37 -16 65 -51l400 -565q6 -10 2 -17.5
t-16 -7.5h-162q-16 0 -25 16l-403 568q-18 29 -56 28h-112q-18 0 -56 17q14 -20 15 -54v-555q0 -20 -21 -20h-153q-20 0 -21 20v1371q0 20 21 20h153q20 0 21 -20v-590q0 -29 -15 -49q39 16 62 16h227q78 0 124 49t46 148v106q0 145 101.5 245.5t244.5 100.5h60z" />
    <glyph glyph-name="uni040D" unicode="&#x40d;" horiz-adv-x="1378" 
d="M631 1769q14 0 24 -12l172 -252q4 -8 1 -14t-13 -6h-94q-14 0 -23 10l-211 252q-8 8 -4 15t15 7h133zM203 1411h149q23 0 23 -20v-959q0 -18 -3 -42.5t-7.5 -47.5t-6.5 -27q12 27 58 101l583 981q8 14 25 14h154q20 0 20 -20v-1371q0 -20 -20 -20h-152q-20 0 -20 20v981
q0 18 3 42t7 47.5t4 27.5q-8 -23 -55 -102l-594 -1002q-8 -14 -27 -14h-141q-23 0 -23 20v1371q0 20 23 20z" />
    <glyph glyph-name="uni040E" unicode="&#x40e;" horiz-adv-x="974" 
d="M762 1759q16 0 16 -18q-6 -96 -77.5 -159.5t-163.5 -63.5h-109q-88 0 -157.5 64.5t-75.5 158.5q0 18 16 18h80q14 0 16 -16q6 -45 48 -78t106 -33h51q66 0 106.5 33t47.5 78q2 16 16 16h80zM991 1411q27 0 17 -25l-512 -1128q-98 -258 -269 -258h-133q-20 0 -20 20v130
q0 16 18 16h74q72 0 105.5 40t74.5 138q4 10 6 16l39 95q2 4 12 16q0 2 -9 4t-11 4l-418 907q-4 10 1 17.5t16 7.5h163q14 0 23 -18l295 -658q23 -47 26 -96q8 43 31 96l285 658q8 18 22 18h164z" />
    <glyph glyph-name="uni040F" unicode="&#x40f;" horiz-adv-x="1351" 
d="M1153 1411q16 0 16 -18v-1375q0 -18 -16 -18h-356q-33 0 -58 16q12 -29 13 -55v-233q0 -18 -19 -19h-137q-16 0 -16 19v233q0 27 10 55q-23 -16 -58 -16h-333q-18 0 -19 18v1375q0 18 19 18h153q18 0 19 -18v-1184q0 -31 -15 -51q31 14 58 14h522q25 0 57 -14
q-14 20 -14 51l2 1184q0 18 16 18h156z" />
    <glyph glyph-name="uni0410" unicode="&#x410;" horiz-adv-x="1247" 
d="M1180 20q8 -20 -15 -20h-166q-16 0 -20 14l-82 344q-2 6 -2 45q-27 -8 -49 -8h-445q-23 0 -47 8q-2 -41 -2 -45l-84 -344q-4 -14 -20 -14h-166q-20 0 -14 20l372 1377q4 14 21 14h325q16 0 21 -14zM813 551q20 0 53 -10q-25 33 -30 55l-148 592q-10 33 6 57
q-10 -10 -24 -10h-92q-14 0 -25 10q16 -25 8 -57l-149 -592q-6 -23 -31 -55q33 10 55 10h377z" />
    <glyph glyph-name="uni0411" unicode="&#x411;" horiz-adv-x="1220" 
d="M795 903q143 0 244.5 -99t101.5 -245v-217q0 -145 -101.5 -245.5t-244.5 -100.5h-602q-20 0 -21 20v1377q0 18 16 18h773q16 0 16 -18v-129q0 -18 -16 -19h-560q-29 0 -49 15q12 -27 13 -48v-272q0 -23 -13 -49q25 12 49 12h394zM750 176q197 0 194 201v158
q0 197 -194 196l-351 -2q-20 0 -47 14q12 -27 13 -49v-481q0 -31 -17 -49q29 12 53 12h349z" />
    <glyph glyph-name="uni0412" unicode="&#x412;" horiz-adv-x="1210" 
d="M203 0q-23 0 -23 20v1371q0 20 23 20h585q139 0 235.5 -94t96.5 -234v-100q0 -63 -26.5 -124.5t-69.5 -94.5q-10 -10 -23 -19q12 -6 23 -16q45 -39 75.5 -99.5t30.5 -119.5v-182q0 -137 -99 -232.5t-238 -95.5h-590zM365 797q33 14 53 14h323q88 0 136.5 46t48.5 130v84
q0 82 -48.5 128t-136.5 46h-323q-8 0 -18.5 2t-16.5 5l-12 6l-6 2q10 -33 10 -48v-368q0 -8 -10 -47zM365 150l9 4t20.5 8t23.5 4h323q86 0 135.5 45t49.5 125v164q0 82 -48.5 128t-136.5 46h-323q-18 0 -53 16q10 -41 10 -49v-444z" />
    <glyph glyph-name="uni0413" unicode="&#x413;" horiz-adv-x="1036" 
d="M1026 1411q16 0 16 -18v-410q0 -16 -16 -16h-156q-18 0 -18 16v225q0 29 14 49q-20 -18 -47 -18h-422q-27 0 -47 18q12 -25 12 -49v-1190q0 -18 -18 -18h-156q-16 0 -16 18v1375q0 18 16 18h838z" />
    <glyph glyph-name="uni0414" unicode="&#x414;" horiz-adv-x="1531" 
d="M1432 174q18 0 18 -18v-428q0 -18 -18 -19h-138q-16 0 -16 19v237q0 29 12 53q-33 -18 -53 -18h-1026q-23 0 -51 16q14 -16 14 -51v-237q0 -18 -18 -19h-138q-16 0 -16 19v428q0 18 16 18h164q74 160 109 245t70.5 191.5t48 210t19.5 236.5t7 336q0 18 17 18h772
q16 0 16 -18v-1182q0 -12 -4 -25.5t-8 -20.5t-6 -7q23 16 55 16h154zM1006 172q29 0 59 -14q-16 18 -16 55v987q0 33 12 53q-25 -14 -55 -14h-361q-39 0 -57 16q12 -23 12 -55q0 -135 -2 -228t-15.5 -182.5t-22.5 -138.5t-41 -136t-51 -133t-73 -169q-12 -27 -43 -57
q43 16 72 16h582z" />
    <glyph glyph-name="uni0415" unicode="&#x415;" horiz-adv-x="1067" 
d="M203 0q-23 0 -23 20v1371q0 20 23 20h745q18 0 19 -18v-136q0 -18 -19 -18h-530q-16 0 -53 14q10 -31 10 -47v-346q0 -16 -13 -47q37 16 56 16l477 -2q18 0 18 -16v-119q0 -18 -18 -18h-477q-12 0 -56 14q12 -27 13 -47v-436q0 -20 -13 -49q43 16 56 16h571q18 0 19 -18
v-136q0 -18 -19 -18h-786z" />
    <glyph glyph-name="uni0416" unicode="&#x416;" horiz-adv-x="1908" 
d="M1851 1417q20 0 21 -20v-129q0 -23 -21 -23h-18q-193 0 -193 -201v-88q0 -115 -62 -204.5t-142 -112.5q-61 -4 -86 2q37 -16 65 -51l400 -565q6 -10 1.5 -17.5t-16.5 -7.5h-164q-14 0 -22 16l-404 568q-18 29 -57 28h-59q-18 0 -58 17q14 -20 15 -54v-555q0 -20 -21 -20
h-151q-20 0 -21 20v555q0 33 14 54q-39 -16 -55 -17h-67q-33 0 -52 -28l-403 -568q-8 -16 -23 -16h-163q-12 0 -16.5 7t1.5 18l400 565q29 35 65 51q-25 -6 -86 -2q-80 23 -142.5 113t-62.5 204v88q0 201 -192 201h-19q-20 0 -20 23v129q0 20 20 20h60q145 0 245.5 -100
t100.5 -246v-106q0 -98 46 -147.5t124 -49.5h178q23 0 61 -16q-14 20 -14 49v590q0 20 21 20h151q20 0 21 -20v-590q0 -29 -15 -49q39 16 62 16h178q78 0 124 49t46 148v106q0 145 100.5 245.5t245.5 100.5h59z" />
    <glyph glyph-name="uni0417" unicode="&#x417;" horiz-adv-x="1107" 
d="M934 721q94 -88 94 -234v-147q0 -145 -101.5 -245.5t-244.5 -100.5h-293q-131 0 -228.5 87t-111.5 218v10q-2 20 21 21h147q20 0 21 -21v-6q25 -141 184 -143h227q193 2 193 196v113q0 199 -197 199h-221q-20 0 -21 20v100q0 20 21 21h213q94 2 144 49t50 135v64
q0 90 -50 139t-144 49h-203q-156 0 -184 -131l-2 -16q-2 -20 -21 -21h-149q-20 0 -19 21v12q14 131 108.5 216t225.5 85h285q143 0 241.5 -100.5t98.5 -245.5v-98q0 -121 -84 -207q-20 -16 -37 -19q14 -4 37 -20z" />
    <glyph glyph-name="uni0418" unicode="&#x418;" horiz-adv-x="1378" 
d="M203 1411h149q23 0 23 -20v-959q0 -18 -3 -42.5t-7.5 -47.5t-6.5 -27q12 27 58 101l583 981q8 14 25 14h154q20 0 20 -20v-1371q0 -20 -20 -20h-152q-20 0 -20 20v981q0 18 3 42t7 47.5t4 27.5q-8 -23 -55 -102l-594 -1002q-8 -14 -27 -14h-141q-23 0 -23 20v1371
q0 20 23 20z" />
    <glyph glyph-name="uni0419" unicode="&#x419;" horiz-adv-x="1378" 
d="M954 1761q16 0 17 -16q-6 -96 -78 -159.5t-164 -63.5h-108q-88 0 -158 63.5t-76 159.5q-2 16 16 16h80q12 0 17 -14q6 -45 48 -79t105 -34h49q66 0 108 33t48 80q2 14 16 14h80zM203 1411h149q23 0 23 -20v-959q0 -18 -3 -42.5t-7.5 -47.5t-6.5 -27q12 27 58 101l583 981
q8 14 25 14h154q20 0 20 -20v-1371q0 -20 -20 -20h-152q-20 0 -20 20v981q0 18 3 42t7 47.5t4 27.5q-8 -23 -55 -102l-594 -1002q-8 -14 -27 -14h-141q-23 0 -23 20v1371q0 20 23 20z" />
    </font>
</defs>
</svg>
