<?xml version="1.0" standalone="no"?>
<!DOCTYPE svg PUBLIC "-//W3C//DTD SVG 1.1//EN" "http://www.w3.org/Graphics/SVG/1.1/DTD/svg11.dtd" >
<svg xmlns="http://www.w3.org/2000/svg" xmlns:xlink="http://www.w3.org/1999/xlink" version="1.1">
<metadata>
Created by FontForge 20170731 at Tue May 22 14:46:44 2018
 By Aleksey,,,
Copyright (c) 2018 by Daniel Uzquiano Cruz. All rights reserved.
</metadata>
<defs>
<font id="Polar-Regular" horiz-adv-x="1204" >
  <font-face 
    font-family="Polar Regular"
    font-weight="400"
    font-stretch="normal"
    units-per-em="2048"
    panose-1="0 0 5 0 0 0 0 0 0 0"
    ascent="1638"
    descent="-410"
    x-height="1118"
    cap-height="1407"
    bbox="-739 -518 2644 2120"
    underline-thickness="0"
    underline-position="0"
    unicode-range="U+0009-FB02"
  />
<missing-glyph horiz-adv-x="1433" 
d="M1006 1513q178 0 247.5 -96t69.5 -315v-461q0 -217 -68.5 -311t-244.5 -94h-600q-178 0 -247 94t-69 311v461q0 219 69.5 315t250.5 96h592zM1004 1450h-588q-135 0 -193.5 -67.5t-58.5 -249.5v-523q0 -180 58.5 -245.5t193.5 -65.5h588q133 0 191 65.5t58 245.5v523
q0 182 -58 249.5t-191 67.5zM399 494q-16 0 -6 14l254 377q4 6 4 14t-4 14l-221 328q-10 14 8 14h78q10 0 14 -6l168 -256q6 -10 17.5 -10t17.5 10l168 256q4 6 14 6h78q18 0 8 -14l-221 -328q-4 -6 -4 -14t4 -14l254 -377q10 -14 -6 -14h-82q-8 0 -12 6l-201 305
q-6 8 -17.5 8t-17.5 -8l-200 -305q-4 -6 -13 -6h-82z" />
    <glyph glyph-name="uniFB01" unicode="fi" horiz-adv-x="1241" 
d="M1044 1118q16 0 17 -14v-1079q0 -14 -17 -15h-112q-14 0 -14 15v966h-463q-39 0 -54 13q10 -16 11 -50v-929q0 -14 -17 -15h-110q-16 0 -17 15v929q0 33 11 50q-14 -12 -54 -13h-114q-18 0 -19 19v92q0 16 19 16h114q41 0 54 -12q-10 16 -11 51v166q0 137 89 230.5
t231 93.5h438q14 0 14 -15v-96q0 -16 -16 -16h-397q-106 0 -160.5 -56.5t-54.5 -156.5v-148q0 -37 -11 -53q12 12 56 12h587z" />
    <glyph glyph-name="uniFB02" unicode="fl" horiz-adv-x="1318" 
d="M1137 1624v-2v-1597q0 -14 -15 -15h-112q-16 0 -17 15v1495h-360h-2h-4q-106 0 -160.5 -56.5t-54.5 -156.5v-148q0 -37 -11 -53q12 12 56 12h207q16 0 16 -16v-92q0 -18 -16 -19h-209q-39 0 -54 13q10 -16 11 -50v-929q0 -14 -17 -15h-110q-16 0 -17 15v929q0 33 11 50
q-14 -12 -54 -13h-114q-18 0 -19 19v92q0 16 19 16h114q41 0 54 -12q-10 16 -11 51v166q0 137 89 230.5t231 93.5h57h4h479q8 0 9 -11v-12z" />
    <glyph glyph-name="f_f.liga" unicode="ff" horiz-adv-x="1441" 
d="M1370 1118q16 0 16 -16v-92q0 -18 -16 -19h-209q-41 0 -53 13q8 -16 8 -50v-929q0 -14 -14 -15h-113q-16 0 -16 15v929q0 33 10 50q-12 -12 -53 -13h-115h-6h-139h-6h-209q-39 0 -54 13q10 -16 11 -50v-929q0 -14 -17 -15h-110q-16 0 -17 15v929q0 33 11 50
q-14 -12 -54 -13h-114q-18 0 -19 19v92q0 16 19 16h114q41 0 54 -12q-10 16 -11 51v166q0 137 89 230.5t231 93.5h57q16 0 17 -15v-96q0 -16 -17 -16h-18q-106 0 -160.5 -56.5t-54.5 -156.5v-148q0 -37 -11 -53q12 12 56 12h473q41 0 53 -12q-10 16 -10 51v371
q0 135 95 232.5t230 97.5h54q14 0 14 -17v-94q0 -18 -16 -18h-39q-92 0 -143.5 -52.5t-51.5 -146.5v-371q0 -37 -10 -53q12 12 55 12h209z" />
    <glyph glyph-name="f_f_i.liga" unicode="ffi" horiz-adv-x="1945" 
d="M1751 1118q14 0 14 -14v-1079q0 -14 -14 -15h-113q-16 0 -16 15v966h-248h-4h-209q-41 0 -53 13q8 -16 8 -50v-929q0 -14 -14 -15h-113q-16 0 -16 15v929q0 33 10 50q-12 -12 -53 -13h-115h-6h-139h-6h-209q-39 0 -54 13q10 -16 11 -50v-929q0 -14 -17 -15h-110
q-16 0 -17 15v929q0 33 11 50q-14 -12 -54 -13h-114q-18 0 -19 19v92q0 16 19 16h114q41 0 54 -12q-10 16 -11 51v166q0 137 89 230.5t231 93.5h57q16 0 17 -15v-96q0 -16 -17 -16h-18q-106 0 -160.5 -56.5t-54.5 -156.5v-148q0 -37 -11 -53q12 12 56 12h473q41 0 53 -12
q-10 16 -10 51v371q0 135 95 232.5t230 97.5h54q14 0 14 -17v-94q0 -18 -16 -18h-39q-92 0 -143.5 -52.5t-51.5 -146.5v-371q0 -37 -10 -51q12 10 55 10h117h358h2h113zM1638 1292q-16 0 -16 15v155q0 16 16 17h111q16 0 16 -17v-155q0 -14 -16 -15h-111z" />
    <glyph glyph-name="f_f_l.liga" unicode="ffl" horiz-adv-x="2050" 
d="M1868 1624v-2v-1597q0 -14 -15 -15h-112q-16 0 -17 15v1495h-360h-2h-4q-106 0 -160.5 -56.5t-54.5 -156.5v-148q0 -37 -10 -51q12 10 55 10h207q16 0 16 -16v-92q0 -18 -16 -19h-209q-39 0 -53 13q10 -16 10 -50v-929q0 -14 -17 -15h-110q-16 0 -17 15v929q0 33 11 50
q-14 -12 -54 -13h-114h-6h-166h-6h-209q-39 0 -54 13q10 -16 11 -50v-929q0 -14 -17 -15h-110q-16 0 -17 15v929q0 33 11 50q-14 -12 -54 -13h-114q-18 0 -19 19v92q0 16 19 16h114q41 0 54 -12q-10 16 -11 51v166q0 137 89 230.5t231 93.5h57q16 0 17 -15v-96
q0 -16 -17 -16h-18q-106 0 -160.5 -56.5t-54.5 -156.5v-148q0 -37 -11 -51q12 10 56 10h98h285h2h114q41 0 54 -12q-10 16 -11 51v166q0 137 89.5 230.5t230.5 93.5h57h4h480q8 0 8 -11v-12z" />
    <glyph glyph-name="f_f_t.liga" unicode="fft" horiz-adv-x="2174" 
d="M2068 1118q16 0 17 -16v-92q0 -18 -17 -19h-208q-39 0 -54 13q8 -18 11 -50v-929q0 -14 -17 -15h-112q-16 0 -17 15v929q0 29 10 47q-18 -10 -53 -10h-100h-4h-363q-41 0 -53 13q8 -16 8 -50v-929q0 -14 -14 -15h-113q-16 0 -16 15v929q0 33 10 50q-12 -12 -53 -13h-115
h-4h-143h-4h-209q-39 0 -54 13q10 -16 11 -50v-929q0 -14 -17 -15h-110q-16 0 -17 15v929q0 33 11 50q-14 -12 -54 -13h-114q-18 0 -19 19v92q0 16 19 16h114q41 0 54 -12q-10 16 -11 51v166q0 137 89 230.5t231 93.5h57q16 0 17 -15v-96q0 -16 -17 -16h-18
q-106 0 -160.5 -56.5t-54.5 -156.5v-148q0 -37 -11 -53q12 12 56 12h473q41 0 53 -12q-10 16 -10 51v326q0 135 95 231t230 96h54q14 0 14 -14v-96q0 -16 -16 -17h-39q-92 0 -143.5 -52t-51.5 -148v-324q0 -37 -10 -53q12 12 55 12h269h4h194q35 0 55 -8q-12 16 -12 47v277
q0 8 19 16l108 49q16 8 17 -10v-330q0 -37 -11 -51q12 10 56 10h208z" />
    <glyph glyph-name="f_t.liga" unicode="ft" horiz-adv-x="1466" 
d="M1360 1118q16 0 16 -16v-92q0 -18 -16 -19h-209q-39 0 -53 13q10 -18 10 -50v-929q0 -14 -16 -15h-113q-16 0 -16 15v929q0 29 10 47q-18 -10 -53 -10h-84h-5h-163h-4h-209q-39 0 -54 13q10 -16 11 -50v-929q0 -14 -17 -15h-110q-16 0 -17 15v929q0 33 11 50
q-14 -12 -54 -13h-114q-18 0 -19 19v92q0 16 19 16h114q41 0 54 -12q-10 16 -11 51v166q0 137 89 230.5t231 93.5h57q16 0 17 -15v-96q0 -16 -17 -16h-18q-106 0 -160.5 -56.5t-54.5 -156.5v-148q0 -37 -11 -53q12 12 56 12h264h4h195q35 0 55 -8q-12 16 -12 47v277
q0 8 18 16l109 49q18 8 18 -10v-330q0 -37 -10 -51q12 10 55 10h207z" />
    <glyph glyph-name="g_i.liga" unicode="gi" horiz-adv-x="1626" 
d="M1319 1290q-16 0 -16 17v155q0 16 16 17h111q16 0 16 -17v-155q0 -16 -16 -17h-111zM395 -510q-131 0 -222 83t-91 210v74q0 78 41 144.5t104 96.5q-45 20 -68.5 58.5t-23.5 76.5v43q0 47 31 88.5t92 61.5q-125 86 -123 254v137q0 141 91 228.5t229 87.5h180
q98 0 178 -48q12 -8 18 -16q0 8 13 14q72 45 160 45h428q14 0 14 -14v-1089q0 -14 -14 -15h-113q-16 0 -16 15v979h-297q-63 0 -103 -13q-6 -2 -12 0q20 -23 20 -30q43 -59 43 -144v-137q0 -141 -91 -228t-230 -87h-193q-176 0 -176 -95v-32q-2 -92 180 -93h265
q129 0 217 -81.5t88 -208.5v-70q0 -127 -94.5 -211t-227.5 -84h-297zM467 492h156q188 0 188 198v117q0 197 -188 197h-156q-188 0 -188 -197v-117q0 -198 188 -198zM420 -387h258q92 0 151.5 51t59.5 139v37q0 90 -56.5 140.5t-154.5 50.5h-283q-72 0 -128 -50.5
t-56 -140.5v-30q0 -92 55.5 -144.5t153.5 -52.5z" />
    <glyph glyph-name="j_j.liga" unicode="jj" horiz-adv-x="1028" 
d="M209 1290q-16 0 -16 17v155q0 16 16 17h113q14 0 14 -17v-155q0 -16 -14 -17h-113zM834 1479q16 0 16 -17v-155q0 -16 -16 -17h-111q-16 0 -16 17v155q0 16 16 17h111zM831 1120q16 0 17 -16v-1284q0 -137 -95.5 -233.5t-230.5 -96.5h-69q-129 0 -222 90
q-92 -90 -221 -90h-55q-16 0 -16 18v99q0 14 14 14l41 2q94 0 145 56.5t51 158.5v1266q0 16 17 16h110q16 0 17 -16v-1284q0 -66 -25 -127q43 -70 152 -72h6l41 2q94 0 145.5 56.5t51.5 158.5v1266q0 16 14 16h112z" />
    <glyph glyph-name=".notdef" horiz-adv-x="1433" 
d="M1006 1513q178 0 247.5 -96t69.5 -315v-461q0 -217 -68.5 -311t-244.5 -94h-600q-178 0 -247 94t-69 311v461q0 219 69.5 315t250.5 96h592zM1004 1450h-588q-135 0 -193.5 -67.5t-58.5 -249.5v-523q0 -180 58.5 -245.5t193.5 -65.5h588q133 0 191 65.5t58 245.5v523
q0 182 -58 249.5t-191 67.5zM399 494q-16 0 -6 14l254 377q4 6 4 14t-4 14l-221 328q-10 14 8 14h78q10 0 14 -6l168 -256q6 -10 17.5 -10t17.5 10l168 256q4 6 14 6h78q18 0 8 -14l-221 -328q-4 -6 -4 -14t4 -14l254 -377q10 -14 -6 -14h-82q-8 0 -12 6l-201 305
q-6 8 -17.5 8t-17.5 -8l-200 -305q-4 -6 -13 -6h-82z" />
    <glyph glyph-name="glyph1" horiz-adv-x="0" 
 />
    <glyph glyph-name="glyph2" horiz-adv-x="681" 
 />
    <glyph glyph-name="uni0009" unicode="&#x9;" horiz-adv-x="657" 
 />
    <glyph glyph-name="space" unicode=" " horiz-adv-x="657" 
 />
    <glyph glyph-name="exclam" unicode="!" horiz-adv-x="638" 
d="M274 338q-18 0 -18 16l-8 1129q0 16 16 16h111q16 0 16 -16l-8 -1129q-2 -16 -18 -16h-91zM274 2q-16 0 -16 16v158q0 18 16 19h91q16 0 16 -19v-158q0 -16 -16 -16h-91z" />
    <glyph glyph-name="quotedbl" unicode="&#x22;" horiz-adv-x="741" 
d="M236 1565q18 0 16 -19l-25 -311q-2 -16 -18 -16h-62q-14 0 -16 16l-25 311q-2 18 17 19h113zM555 1563q18 0 16 -19l-24 -311q-2 -16 -19 -16h-61q-14 0 -16 16l-25 311q-2 18 16 19h113z" />
    <glyph glyph-name="numbersign" unicode="#" horiz-adv-x="1728" 
d="M1544 1067q23 0 23 -16v-80q0 -14 -23 -15h-305l-74 -456h314q20 0 20 -17v-80q0 -14 -20 -14h-330l-66 -401q-2 -12 -16 -13h-76q-18 0 -18 19l61 395h-442l-66 -401q-2 -12 -16 -13h-76q-18 0 -18 19l61 395h-282q-23 0 -23 14v80q0 16 23 17h299l71 456h-303
q-23 0 -22 15v80q0 16 22 16h322l61 389q2 12 17 12h81q18 0 19 -18l-62 -383h441l61 389q2 12 17 12h81q18 0 19 -18l-62 -383h287zM1051 500l71 456h-440l-74 -456h443z" />
    <glyph glyph-name="dollar" unicode="$" horiz-adv-x="1130" 
d="M836 700q180 -76 180 -268v-131q0 -127 -92.5 -216t-221.5 -89h-84v-201q0 -18 -16 -18h-92q-16 0 -16 18v201h-66q-131 0 -222 90t-91 217v133q0 16 16 17h115q18 0 18 -17v-127q0 -80 51.5 -131t130.5 -51h250q72 0 122 52t50 130v131q0 111 -123 166l-444 193
q-84 35 -133 104.5t-49 149.5v57q0 127 92 214t221 87h66v236q0 18 18 18h90q18 0 19 -18v-236h59q131 0 220 -89t89 -218v-62q0 -18 -18 -18h-115q-18 0 -18 18v70q0 70 -51.5 119t-122.5 49h-234q-70 0 -119 -50t-49 -120v-47q0 -55 31 -98t82 -66z" />
    <glyph glyph-name="percent" unicode="%" horiz-adv-x="2310" 
d="M406 506q-100 0 -173 82q-68 82 -67 192v529q0 111 67 192q72 84 173 84h151q100 0 170 -80q72 -82 72 -196v-529q0 -111 -70 -192q-70 -82 -172 -82h-151zM436 629h92q70 0 107 45q35 43 35 125v491q0 82 -35 125q-37 47 -107 47h-92q-72 0 -106 -47q-35 -43 -35 -125
v-491q0 -82 35 -125q34 -45 106 -45zM1405 1124q8 0 13 -5t1 -13l-430 -920q-8 -16 -18 -16h-84q-10 0 -14.5 5t-0.5 13l428 922q8 14 19 14h86zM1753 -207q-100 0 -172 84q-68 80 -68 193v526q0 113 68 192q70 84 172 84h152q100 0 170 -79q72 -82 71 -197v-526
q0 -113 -69 -193q-70 -84 -172 -84h-152zM1782 -84h94q70 0 106 45q35 45 35 125v492q0 82 -35 127q-37 45 -106 45h-94q-70 0 -105 -45t-35 -127v-492q0 -80 35 -125t105 -45z" />
    <glyph glyph-name="ampersand" unicode="&#x26;" horiz-adv-x="1488" 
d="M532 -4q-135 0 -229 95t-94 231v210q0 139 98 230q12 8 12 22.5t-12 24.5q-92 84 -92 227v140q0 137 93 230t227 93h161q135 0 227.5 -93t92.5 -230v-37q0 -14 -15 -15h-112q-14 0 -15 15v22q0 98 -56 153.5t-156 55.5h-93q-100 0 -156.5 -55t-56.5 -154v-117
q0 -98 55.5 -152t157.5 -54h803q14 0 14 -15v-82q0 -14 -14 -14h-172v-408q0 -135 -95 -229t-228 -94h-345zM561 123h285q102 2 156.5 56t54.5 157v391h-492q-102 0 -157.5 -56.5t-55.5 -162.5v-170q0 -102 54.5 -157.5t154.5 -57.5z" />
    <glyph glyph-name="quotesingle" unicode="'" horiz-adv-x="421" 
d="M268 1563q18 0 17 -19l-27 -311q0 -16 -16 -16h-62q-14 0 -16 16l-25 311q-2 18 17 19h112z" />
    <glyph glyph-name="parenleft" unicode="(" horiz-adv-x="665" 
d="M494 -451q-131 14 -212 108.5t-81 229.5v1346q0 135 80.5 229t212.5 109q18 2 18 -17v-77q0 -16 -16 -19q-84 -14 -129 -76.5t-45 -167.5v-1312q0 -213 174 -242q16 -2 16 -18v-76q0 -19 -18 -17z" />
    <glyph glyph-name="parenright" unicode=")" horiz-adv-x="665" 
d="M172 -451q-18 -2 -18 17v76q0 16 16 18q174 29 174 242v1312q0 104 -45 167t-129 77q-16 2 -16 19v77q0 18 18 17q129 -14 210 -108.5t81 -229.5v-1346q0 -135 -81 -229.5t-210 -108.5z" />
    <glyph glyph-name="asterisk" unicode="*" horiz-adv-x="1146" 
d="M535 766q-16 0 -17 18v248q0 6 3 24.5t5 33.5l2 16l-11 -10q-11 -11 -26.5 -23t-21.5 -18l-199 -140q-14 -10 -22 5l-45 71q-10 14 6 25l229 155l51 25q-41 16 -53 25l-227 155q-14 8 -6 25l45 72q8 14 22 4l199 -142l59 -51q-10 61 -10 76v246q0 18 17 18h77
q16 0 17 -18v-246l-8 -76q45 41 57 51l199 142q14 10 24 -4l43 -72q10 -14 -4 -25l-229 -155l-56 -25q43 -16 56 -25l229 -155q14 -10 4 -25l-43 -71q-10 -14 -24 -5l-199 142l-60 49q10 -61 11 -74v-248q0 -18 -17 -18h-77z" />
    <glyph glyph-name="plus" unicode="+" horiz-adv-x="1130" 
d="M987 758q14 0 14 -15v-88q0 -14 -14 -14h-366v-387q0 -14 -15 -14h-82q-16 0 -16 14v387h-365q-14 0 -14 14v88q0 14 14 15h365v360q0 16 16 17h82q14 0 15 -17v-360h366z" />
    <glyph glyph-name="comma" unicode="," horiz-adv-x="495" 
d="M324 14v-2v-94q0 -68 -33 -106.5t-88 -47.5h-19q-10 -2 -10 7v53q0 6 8 8h8q29 8 40.5 28.5t11.5 71.5v70h-47q-16 0 -17 16v152q0 16 17 16h112q16 0 17 -16v-152v-4z" />
    <glyph glyph-name="hyphen" unicode="-" horiz-adv-x="929" 
d="M735 651q14 0 15 -16v-82q0 -14 -15 -14h-540q-16 0 -17 14v82q0 16 17 16h540z" />
    <glyph glyph-name="period" unicode="." horiz-adv-x="487" 
d="M299 186q18 0 18 -16v-152q0 -16 -18 -16h-111q-18 0 -18 16v152q0 16 18 16h111z" />
    <glyph glyph-name="slash" unicode="/" horiz-adv-x="612" 
d="M-8 -6q-18 0 -17 18l512 1395q6 14 21 14h113q18 0 14 -20l-518 -1395q-4 -12 -19 -12h-106z" />
    <glyph glyph-name="zero" unicode="0" horiz-adv-x="1196" 
d="M489 -4q-135 0 -229 104.5t-94 247.5v709q0 143 94 247.5t229 104.5h218q135 0 229 -104.5t94 -247.5v-709q0 -143 -94 -247.5t-229 -104.5h-218zM530 125h136q106 0 162.5 65.5t56.5 182.5v659q0 117 -56.5 182.5t-162.5 65.5h-136q-106 0 -162.5 -65.5t-56.5 -182.5
v-659q0 -117 56.5 -182.5t162.5 -65.5z" />
    <glyph glyph-name="one" unicode="1" horiz-adv-x="761" 
d="M690 125q16 0 17 -16v-93q0 -16 -17 -16h-584q-16 0 -16 16v93q0 16 16 16h173q35 0 61 -14q-14 25 -14 51v1079q0 25 12 49q-33 -14 -59 -14h-228q-16 0 -16 14v101q0 14 14 14h400q16 0 16 -16v-1227q0 -31 -14 -51q29 14 61 14h178z" />
    <glyph glyph-name="two" unicode="2" horiz-adv-x="1042" 
d="M913 125q18 0 19 -16v-93q0 -16 -19 -16h-841q-18 0 -19 16l2 172q0 55 21.5 92t79.5 72l549 441q39 35 56 63.5t17 77.5v110q0 106 -53 171t-154 65h-168q-74 0 -124 -34t-70 -95l-2 -14q-2 -12 -17 -13h-118q-12 0 -13 17l2 8q25 113 108 186.5t202 73.5h223
q139 0 233.5 -104.5t94.5 -245.5v-127q0 -147 -144 -244l-547 -432q-33 -25 -32 -51v-43q0 -29 -11 -51q27 14 52 14h673z" />
    <glyph glyph-name="three" unicode="3" horiz-adv-x="1062" 
d="M829 743q57 -41 93 -113.5t36 -150.5v-133q0 -145 -94 -247.5t-235 -102.5h-269q-117 0 -199.5 73.5t-107.5 186.5l-2 12q-2 16 12 17h117q16 0 17 -15l2 -16q20 -61 70 -95t126 -34h199q106 0 162.5 65.5t56.5 180.5v88q0 117 -56.5 182.5t-162.5 65.5h-195
q-10 0 -10 10v86q0 10 10 10h172q104 0 162 59.5t58 141.5v41q0 106 -55.5 165.5t-164.5 59.5h-163q-74 0 -125.5 -34t-69.5 -95l-2 -14q-2 -12 -16 -13h-119q-14 0 -13 17l3 8q25 113 107.5 186.5t201.5 73.5h235q139 0 232.5 -96t91.5 -238v-67q0 -57 -27.5 -117
t-75.5 -98q-29 -23 -45 -29q18 -3 43 -21z" />
    <glyph glyph-name="four" unicode="4" horiz-adv-x="1130" 
d="M1075 444q16 0 17 -16v-86q0 -16 -17 -16h-141q-31 0 -49 12q10 -20 10 -47v-277q0 -14 -16 -14h-115q-14 0 -14 14v277q0 29 10 47q-20 -12 -51 -12h-648q-14 0 -14 14v102q0 8 6 17l649 938q4 8 17 8h166q10 0 10 -10v-916q0 -29 -12 -47q23 12 49 12h143zM246 444h463
q29 0 49 -12q-8 18 -8 45v725q0 29 6 55q-12 -31 -27 -51l-510 -719q-20 -31 -55 -55q39 12 82 12z" />
    <glyph glyph-name="five" unicode="5" horiz-adv-x="1052" 
d="M653 858q137 0 232.5 -104.5t95.5 -245.5v-160q0 -143 -95 -247.5t-233 -104.5h-272q-117 0 -200 73.5t-107 186.5l-2 12q-2 16 12 17h119q14 0 16 -15v-16q20 -59 71.5 -94t125.5 -35h213q102 0 154.5 64.5t52.5 170.5v146q0 106 -52.5 170.5t-154.5 64.5h-226
q-20 0 -36 -6l-64 -22q-23 -8 -35 -8h-98q-18 0 -18 22l-2 662q0 16 18 16h729q16 0 16 -16v-97q0 -16 -16 -16h-561q-27 0 -55 12q14 -27 14 -49v-393q0 -10 -10 -31q25 14 30 16l52 21q23 6 45 6h241z" />
    <glyph glyph-name="six" unicode="6" horiz-adv-x="1138" 
d="M489 -4q-141 0 -232 103.5t-91 250.5v723q0 141 94 238.5t234 97.5h213q119 0 201.5 -73.5t107.5 -186.5l2 -8q2 -16 -12 -17h-119q-14 0 -17 13v14q-43 129 -192 129h-160q-104 2 -156.5 -56.5t-50.5 -162.5v-230q0 -14 -10 -32q20 12 31 14l49 18q20 4 41 5h301
q139 0 234.5 -103.5t95.5 -247.5v-137q0 -143 -95.5 -247.5t-234.5 -104.5h-234zM524 125h176q100 0 153.5 64.5t53.5 170.5v123q0 109 -53 172.5t-158 63.5h-268q-23 0 -43 -4l-53 -23q-10 0 -31 2q10 -14 10 -24v-312q0 -104 55.5 -168.5t157.5 -64.5z" />
    <glyph glyph-name="seven" unicode="7" horiz-adv-x="890" 
d="M823 1405q12 0 13 -16v-105q0 -10 -5 -22l-444 -1250q-4 -12 -16 -12h-115q-16 0 -10 18l432 1205q18 47 49 73q-55 -20 -78 -20h-598q-16 0 -16 16v97q0 16 16 16h772z" />
    <glyph glyph-name="eight" unicode="8" horiz-adv-x="1128" 
d="M895 745q57 -35 93 -109.5t36 -156.5v-135q0 -143 -94 -245.5t-236 -102.5h-260q-139 0 -234.5 102.5t-95.5 245.5v135q0 82 36 157t93 109q33 16 58 21q-25 6 -58 27q-49 31 -76.5 92t-27.5 123v67q0 141 92 237.5t232 96.5h223q141 0 233 -96t90 -238v-67
q0 -61 -27.5 -123t-74.5 -92q-39 -25 -61 -25q20 -3 59 -23zM274 1055v-41q0 -82 57.5 -141.5t162.5 -59.5h143q104 0 161.5 59.5t57.5 141.5v41q0 106 -55.5 165.5t-163.5 59.5h-143q-109 0 -164.5 -59.5t-55.5 -165.5zM879 371v88q0 117 -56.5 182.5t-163.5 65.5h-188
q-109 0 -165 -66t-56 -182v-88q0 -115 56 -180.5t165 -65.5h188q106 0 163 65.5t57 180.5z" />
    <glyph glyph-name="nine" unicode="9" horiz-adv-x="1138" 
d="M973 1057v-723q0 -143 -94.5 -240.5t-233.5 -97.5l-225 2q-117 0 -200 72.5t-107 187.5l-2 6q-2 14 12 15h117q16 0 18 -13v-12q43 -127 193 -129h172q102 0 154 57.5t52 163.5v223q0 12 11 35q-25 -14 -33 -16l-51 -19q-18 -6 -39 -6h-301q-139 0 -233.5 104.5
t-94.5 245.5v146q0 143 94 246.5t234 103.5h233q141 0 232.5 -103.5t91.5 -248.5zM711 682q20 0 39 4l55 21q8 2 33 0q-8 14 -9 22v320q0 104 -56 167.5t-159 63.5h-176q-100 0 -153.5 -64.5t-53.5 -168.5v-132q0 -106 54.5 -169.5t156.5 -63.5h269z" />
    <glyph glyph-name="colon" unicode=":" horiz-adv-x="487" 
d="M299 864q18 0 18 -18v-152q0 -16 -18 -16h-111q-18 0 -18 16v152q0 18 18 18h111zM299 186q18 0 18 -16v-152q0 -18 -18 -18h-111q-18 0 -18 18v152q0 16 18 16h111z" />
    <glyph glyph-name="semicolon" unicode=";" horiz-adv-x="495" 
d="M188 678q-18 0 -18 16v152q0 18 18 18h111q18 0 18 -18v-152q0 -16 -18 -16h-111zM324 14v-2v-94q0 -68 -33 -106.5t-88 -47.5h-19q-10 -2 -10 7v53q0 6 8 8h8q29 8 40.5 28.5t11.5 71.5v70h-47q-16 0 -17 16v152q0 16 17 16h112q16 0 17 -16v-152v-4z" />
    <glyph glyph-name="less" unicode="&#x3c;" horiz-adv-x="1105" 
d="M967 1055l-549 -318q-39 -25 -99 -32q59 -10 99 -33l549 -316q10 -6 10 -18v-113q0 -20 -19 -10l-823 481q-14 8 0 17l823 481q18 10 19 -10v-111q0 -12 -10 -18z" />
    <glyph glyph-name="equal" unicode="=" horiz-adv-x="1142" 
d="M143 754q-14 0 -14 14v84q0 14 14 14h856q14 0 15 -14v-84q0 -14 -15 -14h-856zM143 369q-14 0 -14 16v82q0 16 14 16h856q14 0 15 -16v-82q0 -16 -15 -16h-856z" />
    <glyph glyph-name="greater" unicode="&#x3e;" horiz-adv-x="1105" 
d="M137 1055q-8 6 -8 18v111q0 20 16 10l826 -481q14 -8 0 -17l-826 -481q-16 -10 -16 10v113q0 12 10 18l549 316q39 23 98 33q-59 8 -98 32z" />
    <glyph glyph-name="question" unicode="?" horiz-adv-x="1150" 
d="M662 1499q135 0 230 -92t95 -225v-144q0 -90 -47 -167.5t-129 -114.5l-127 -60q-121 -61 -121 -178l-2 -164q-2 -18 -18 -18h-90q-16 0 -17 18l-2 181q2 188 182 274l119 59q102 49 103 172v144q0 74 -49.5 127t-120.5 57h-181q-78 0 -132 -53t-54 -129v-131
q0 -18 -18 -19h-101q-16 0 -16 19v125q0 135 91 227t228 92h177zM455 0q-16 0 -17 16v154q0 16 17 16h90q16 0 16 -16v-154q0 -16 -16 -16h-90z" />
    <glyph glyph-name="at" unicode="@" horiz-adv-x="1941" 
d="M1772 594q0 -88 -19.5 -179t-57.5 -172t-101.5 -133.5t-143.5 -52.5q-133 0 -174 140q-33 -43 -57 -58q-31 -35 -83.5 -58.5t-109.5 -23.5h-137q-135 0 -229.5 96.5t-94.5 231.5v342q0 135 93.5 231.5t222.5 96.5h120q82 0 175 -64q37 -25 57 -59q-4 35 -6 84v12
q0 14 16 14h107q16 0 16 -18v-725q0 -123 100 -123q51 0 91 45t59.5 113.5t30 132t10.5 115.5q0 340 -174 534.5t-494 194.5q-328 0 -517 -207t-189 -543q0 -338 189.5 -543.5t516.5 -205.5q195 0 344 84q8 6 15 -2l45 -78q6 -8 -2 -15q-168 -98 -402 -98q-365 0 -592 237.5
t-227 620.5t222 621.5t597 238.5q360 0 571.5 -223t211.5 -604zM1219 395v320q0 106 -55.5 159.5t-157.5 53.5h-84q-213 0 -213 -213v-320q0 -211 213 -211h84q102 0 157.5 53.5t55.5 157.5z" />
    <glyph glyph-name="A" unicode="A" 
d="M1122 18q6 -18 -12 -18h-121q-14 0 -18 12l-88 375q-2 4 -4 39q-18 -8 -41 -8h-473q-20 0 -41 8q-2 -35 -2 -39l-91 -375q-2 -12 -18 -12h-121q-16 0 -12 16l356 1379q4 12 19 12h293q16 0 18 -12zM813 539q20 0 47 -7q-23 29 -26 52l-162 651q-6 27 6 47q-8 -8 -23 -8
h-108q-14 0 -23 8q14 -20 6 -47l-159 -651q-6 -23 -29 -52q27 6 47 7h424z" />
    <glyph glyph-name="B" unicode="B" horiz-adv-x="1189" 
d="M213 0q-18 0 -18 18v1373q0 16 18 16h571q131 0 221.5 -89t90.5 -216v-119q0 -63 -27 -122.5t-72 -94.5q-14 -12 -26 -21q12 -8 26 -20q47 -39 76 -97.5t29 -119.5v-201q0 -129 -92 -218t-224 -89h-573zM334 786q27 12 47 13h364q98 0 150.5 50t52.5 144v92
q0 92 -52 143.5t-151 51.5h-364q-12 0 -47 12q8 -29 8 -45v-418q0 -14 -8 -43zM332 115q2 0 10 4t19.5 6t19.5 2h364q94 0 148.5 51t54.5 139v177q0 92 -53 143t-150 51h-364q-20 0 -47 12q8 -31 8 -45v-495q0 -8 -10 -45z" />
    <glyph glyph-name="C" unicode="C" horiz-adv-x="1169" 
d="M934 999q-16 0 -16 15v67q0 96 -53.5 147.5t-149.5 51.5h-197q-96 0 -150.5 -51t-54.5 -148v-755q0 -96 54.5 -147.5t150.5 -51.5h197q96 0 150.5 51t54.5 148v80q0 16 14 16h117q16 0 16 -16v-101q0 -127 -92 -218t-219 -91h-281q-127 0 -218 91t-91 218v797
q0 127 91 218t218 91h281q127 0 219 -91t92 -218v-88q0 -14 -16 -15h-117z" />
    <glyph glyph-name="D" unicode="D" horiz-adv-x="1267" 
d="M211 0q-16 0 -16 16v1375q0 16 16 16h577q129 0 221.5 -91t92.5 -218v-787q0 -129 -92 -220t-222 -91h-577zM332 121q31 10 49 10h371q94 0 148 51t54 140v763q0 88 -54 139.5t-148 51.5h-371q-18 0 -49 12q10 -25 10 -45v-1079q0 -20 -10 -43z" />
    <glyph glyph-name="E" unicode="E" horiz-adv-x="1050" 
d="M213 0q-18 0 -18 18v1373q0 16 18 16h719q16 0 16 -14v-101q0 -16 -16 -16h-551q-18 0 -49 12q10 -25 10 -45v-397q0 -18 -10 -43q29 12 49 12h498q16 0 16 -16v-90q0 -14 -16 -15h-498q-16 0 -49 11q10 -23 10 -43v-498q0 -20 -10 -45q33 12 49 12h594q16 0 16 -16v-99
q0 -16 -16 -16h-762z" />
    <glyph glyph-name="F" unicode="F" horiz-adv-x="964" 
d="M932 1407q16 0 16 -14v-101q0 -16 -16 -16h-551q-16 0 -49 12q10 -23 10 -45v-407q0 -20 -10 -45q29 12 49 12h457q16 0 16 -17v-88q0 -16 -16 -16h-457q-18 0 -49 12q10 -25 10 -45v-633q0 -16 -16 -16h-115q-16 0 -16 16v1375q0 16 18 16h719z" />
    <glyph glyph-name="G" unicode="G" horiz-adv-x="1202" 
d="M481 -4q-131 0 -223 91t-92 218v797q0 127 92 218t223 91h262q129 0 221.5 -90t92.5 -213v-49q0 -16 -15 -17h-116q-16 0 -17 17v33q0 88 -53 138t-149 50h-191q-94 0 -148.5 -52t-54.5 -143v-759q0 -96 54.5 -147.5t150.5 -51.5h189q96 0 149 51t55 146v274q0 16 11 45
q-31 -12 -50 -12h-190q-16 0 -16 16v80q0 16 16 16h360q16 0 17 -16v-422q0 -127 -92.5 -218t-223.5 -91h-262z" />
    <glyph glyph-name="H" unicode="H" horiz-adv-x="1294" 
d="M1096 1407q16 0 16 -14v-1377q0 -16 -16 -16h-117q-16 0 -16 16v617q0 20 10 45q-31 -12 -49 -12h-553q-20 0 -49 12q10 -25 10 -45v-617q0 -16 -17 -16h-116q-16 0 -17 16v1377q0 14 17 14h116q16 0 17 -14v-574q0 -20 -10 -45q29 12 49 12h553q20 0 49 -12
q-10 25 -10 45v574q0 14 16 14h117z" />
    <glyph glyph-name="I" unicode="I" horiz-adv-x="534" 
d="M324 1407q18 0 18 -14v-1377q0 -16 -18 -16h-113q-16 0 -16 16v1377q0 14 16 14h113z" />
    <glyph glyph-name="J" unicode="J" horiz-adv-x="585" 
d="M14 -98q-18 0 -18 16v86q0 18 16 19h43q92 0 147.5 48t55.5 140v1180q0 18 16 18h113q18 0 19 -18v-1180q0 -129 -92.5 -219t-223.5 -90h-76z" />
    <glyph glyph-name="K" unicode="K" horiz-adv-x="1163" 
d="M211 0q-16 0 -16 16v1377q0 14 16 14h115q16 0 16 -14v-621q0 -61 -12 -121q27 51 69 105l519 643q6 8 18 8h145q10 0 13.5 -6t-2.5 -15l-416 -505q-14 -16 -29 -23q23 -18 25 -22l495 -816q4 -8 1 -14t-13 -6h-127q-12 0 -20 10l-422 703q-12 20 -17 55q-14 -29 -32 -51
l-172 -215q-6 -6 -13.5 -11.5t-14.5 -8.5t-7 -5l6 -11t6 -20v-430q0 -16 -16 -16h-115z" />
    <glyph glyph-name="L" unicode="L" horiz-adv-x="890" 
d="M213 0q-18 0 -18 18v1373q0 18 18 18h111q18 0 18 -18v-1223q0 -23 -8 -47q25 10 49 10h494q18 0 18 -16v-97q0 -18 -18 -18h-664z" />
    <glyph glyph-name="M" unicode="M" horiz-adv-x="1695" 
d="M1483 1407q18 0 18 -16v-1373q0 -18 -18 -18h-111q-18 0 -18 18v990q0 63 14 174q-16 -55 -63 -166l-406 -1000q-4 -12 -18 -12h-66q-14 0 -18 12l-406 998q-47 111 -63 166q14 -109 14 -172v-990q0 -18 -18 -18h-111q-18 0 -18 18v1373q0 16 18 16h139q14 0 21 -12
l446 -1086q20 -49 29 -102q10 55 29 104l446 1084q6 12 20 12h140z" />
    <glyph glyph-name="N" unicode="N" horiz-adv-x="1370" 
d="M1157 1407q18 0 19 -16v-1373q0 -18 -19 -18h-108q-14 0 -21 12l-641 1071q-45 74 -59 107q14 -92 14 -121v-1051q0 -18 -18 -18h-111q-18 0 -18 18v1373q0 16 18 16h115q14 0 20 -10l635 -1059q43 -70 57 -107q-12 94 -12 121v1039q0 16 19 16h110z" />
    <glyph glyph-name="O" unicode="O" horiz-adv-x="1236" 
d="M475 -4q-127 0 -218 91t-91 218v797q0 127 91 218t218 91h287q127 0 218 -91t91 -218v-797q0 -127 -91 -218t-218 -91h-287zM518 127h203q94 0 148.5 51t54.5 148v755q0 96 -54.5 147.5t-148.5 51.5h-203q-96 0 -150.5 -51t-54.5 -148v-755q0 -96 54.5 -147.5
t150.5 -51.5z" />
    <glyph glyph-name="P" unicode="P" horiz-adv-x="1120" 
d="M201 0q-18 0 -19 18v1373q0 16 19 16h542q131 0 223.5 -89t92.5 -216v-232q0 -127 -92.5 -216t-223.5 -89h-368q-25 0 -53 13q10 -27 10 -50v-510q0 -18 -19 -18h-112zM911 883v202q0 88 -54 139.5t-148 51.5h-338q-18 0 -49 12q10 -25 10 -47v-516q0 -20 -10 -45
q29 12 49 12h338q94 0 148 51.5t54 139.5z" />
    <glyph glyph-name="Q" unicode="Q" horiz-adv-x="1236" 
d="M582 -240q-18 0 -19 19v184q0 23 8 43q-25 -10 -41 -8h-61q-125 2 -214 92t-89 215v797q0 127 91 218t218 91h287q127 0 218 -91t91 -218v-797q0 -125 -89 -215t-214 -92h-59q-16 -2 -41 8q8 -23 8 -43v-184q0 -18 -19 -19h-75zM518 127h203q94 0 148.5 51t54.5 148v755
q0 96 -53.5 147.5t-149.5 51.5h-203q-96 0 -150.5 -51t-54.5 -148v-755q0 -96 54.5 -147.5t150.5 -51.5z" />
    <glyph glyph-name="R" unicode="R" horiz-adv-x="1183" 
d="M213 0q-18 0 -18 18v1373q0 16 18 16h543q131 0 223 -89t92 -216v-158q0 -113 -74.5 -195.5t-183.5 -95.5q-33 -2 -68 9q29 -33 43 -58l318 -581q4 -10 0 -16.5t-14 -6.5h-117q-14 0 -21 12l-321 596q-6 10 -15 41q-18 -12 -36 -12h-205q-20 0 -43 10q8 -23 8 -45v-584
q0 -18 -18 -18h-111zM334 748q27 12 47 12h338q94 0 148.5 51t54.5 139v135q0 88 -54.5 139.5t-150.5 51.5h-336q-18 0 -49 12q10 -25 10 -45v-450q0 -18 -8 -45z" />
    <glyph glyph-name="S" unicode="S" horiz-adv-x="1097" 
d="M430 -4q-131 0 -223 91t-92 220v129q0 18 16 19h113q18 0 18 -19v-110q0 -96 54.5 -147.5t148.5 -51.5h170q92 0 147.5 52t55.5 147v110q0 109 -123 168l-414 193q-84 37 -133 105.5t-49 146.5v55q0 127 92 217t223 90h217q133 0 222.5 -90t89.5 -221v-58q0 -18 -19 -18
h-113q-18 0 -18 18v54q0 86 -53 135t-144 49h-159q-88 0 -139.5 -50t-51.5 -134v-33q0 -109 113 -164l426 -199q180 -80 180 -268v-127q0 -129 -93 -219t-224 -90h-238z" />
    <glyph glyph-name="T" unicode="T" horiz-adv-x="864" 
d="M883 1407q18 0 18 -16v-97q0 -18 -18 -18h-336q-18 0 -49 12q8 -23 8 -43v-1227q0 -18 -19 -18h-110q-18 0 -19 18v1227q0 23 11 43q-37 -12 -52 -12h-335q-18 0 -19 18v97q0 16 19 16h901z" />
    <glyph glyph-name="U" unicode="U" horiz-adv-x="1253" 
d="M1063 1407q16 0 16 -16v-1084q0 -129 -92 -220t-221 -91h-277q-131 0 -223 91t-92 220v1084q0 16 19 16h110q18 0 19 -16v-1065q0 -96 54 -147.5t150 -51.5h203q94 0 148.5 51t54.5 148v1065q0 16 18 16h113z" />
    <glyph glyph-name="V" unicode="V" horiz-adv-x="1173" 
d="M543 0q-18 0 -23 14l-491 1372q-8 20 14 21h117q16 0 20 -14l383 -1090q12 -37 25 -106q10 70 24 106l381 1090q4 14 21 14h116q23 0 15 -21l-492 -1372q-4 -14 -22 -14h-88z" />
    <glyph glyph-name="W" unicode="W" horiz-adv-x="1671" 
d="M391 0q-16 0 -20 14l-369 1372q-6 20 16 21h117q14 0 19 -14l276 -1102q14 -55 23 -135q8 78 22 133l281 1104q4 14 20 14h119q16 0 20 -14l281 -1104q14 -55 23 -133q8 80 22 133l275 1104q4 14 20 14h117q20 0 14 -21l-367 -1372q-4 -14 -20 -14h-117q-16 0 -20 14
l-285 1080q-14 55 -22 129q-8 -72 -23 -129l-285 -1080q-4 -14 -20 -14h-117z" />
    <glyph glyph-name="X" unicode="X" horiz-adv-x="1124" 
d="M1108 23q6 -10 2 -16.5t-14 -6.5h-133q-14 0 -23 10l-350 555q-18 29 -29 64q-12 -39 -29 -66l-350 -553q-6 -10 -20 -10h-133q-12 0 -15.5 6t2.5 17l447 696q6 10 22 20q-16 12 -22 21l-418 624q-6 10 -2 16.5t14 6.5h136q14 0 20 -10l319 -490q14 -23 29 -69
q12 41 29 67l319 492q8 10 23 10h135q10 0 13 -6t-3 -17l-415 -624q-6 -8 -25 -21q18 -12 25 -20z" />
    <glyph glyph-name="Y" unicode="Y" horiz-adv-x="1052" 
d="M469 0q-18 0 -18 18v510q0 4 4 11v4q-10 10 -15 18l-463 825q-12 20 13 21h121q16 0 22 -12l365 -656q16 -31 28 -75q10 45 27 75l367 656q6 12 20 12h121q25 0 14 -21l-463 -825q-6 -10 -14 -18v-4q2 -6 2 -11v-510q0 -18 -18 -18h-113z" />
    <glyph glyph-name="Z" unicode="Z" horiz-adv-x="948" 
d="M907 131q18 0 19 -18v-95q0 -18 -19 -18h-862q-14 0 -14 20v84q0 18 10 35l635 1088q6 12 17.5 24.5t21.5 22.5t10 12q-29 -10 -72 -10h-542q-18 0 -19 18l2 97q0 16 17 16h747q14 0 14 -18l-2 -86q0 -16 -10 -35l-633 -1086q-8 -14 -19 -27.5t-22 -24.5l-12 -11
q33 12 82 12h651z" />
    <glyph glyph-name="bracketleft" unicode="[" horiz-adv-x="667" 
d="M236 -455q-18 0 -19 17v1994q0 16 19 17h262q16 0 16 -17v-75q0 -16 -16 -17h-160v-1810h160q16 0 16 -16v-76q0 -16 -16 -17h-262z" />
    <glyph glyph-name="backslash" unicode="\" horiz-adv-x="612" 
d="M514 -6q-14 0 -20 12l-519 1395q-2 20 17 20h112q14 0 19 -14l512 -1395q4 -18 -14 -18h-107z" />
    <glyph glyph-name="bracketright" unicode="]" horiz-adv-x="667" 
d="M170 -455q-16 0 -16 17v76q0 16 16 16h160v1810h-160q-16 0 -16 17v75q0 16 16 17h262q18 0 19 -17v-1994q0 -16 -19 -17h-262z" />
    <glyph glyph-name="asciicircum" unicode="^" horiz-adv-x="1374" 
d="M217 918q-6 -10 -18 -11h-111q-20 0 -10 19l481 825q8 12 16 0l482 -825q10 -18 -13 -19h-110q-12 0 -19 11l-315 548q-23 39 -33 99q-10 -59 -32 -99z" />
    <glyph glyph-name="underscore" unicode="_" horiz-adv-x="1073" 
d="M807 123q16 0 16 -17v-92q0 -14 -16 -14h-541q-16 0 -16 14v92q0 16 16 17h541z" />
    <glyph glyph-name="grave" unicode="`" horiz-adv-x="593" 
d="M244 1540q12 0 20 -10l168 -246q6 -6 3 -11t-11 -5h-74q-10 0 -18 8l-197 246q-6 6 -3 12t11 6h101z" />
    <glyph glyph-name="a" unicode="a" horiz-adv-x="1103" 
d="M633 1133q125 0 215 -93.5t90 -222.5v-792q0 -14 -14 -15h-103q-16 0 -16 13v20q0 10 10 76q-16 -31 -59 -64q-74 -59 -176 -59h-174q-125 0 -214.5 85t-89.5 210v65q0 125 88.5 206t225.5 81h342q27 0 45 -10q-8 23 -8 41v135q0 94 -51.5 145.5t-147.5 51.5h-123
q-92 0 -140 -50.5t-48 -142.5v-8q0 -12 -13 -12h-110q-16 0 -17 16v25q0 121 88.5 210t210.5 89h189zM596 123q96 0 147.5 50t51.5 142v197q0 6 6 35q-18 -8 -43 -8h-314q-94 0 -146 -52.5t-52 -146.5v-21q0 -197 207 -196h143z" />
    <glyph glyph-name="b" unicode="b" horiz-adv-x="1146" 
d="M692 1133q135 0 222 -92.5t87 -231.5v-487q0 -141 -89 -232.5t-224 -91.5h-145q-92 0 -174 61q-39 31 -58 64q6 -39 6 -64v-34q0 -14 -16 -15h-104q-16 0 -17 15v1607q0 14 17 15h112q14 0 15 -15v-545q0 -10 -11 -77q16 31 60 63q74 59 182 60h137zM858 340v448
q0 217 -203 218h-143q-188 0 -188 -199v-485q0 -199 188 -199h143q203 0 203 217z" />
    <glyph glyph-name="c" unicode="c" horiz-adv-x="1071" 
d="M631 1133q143 0 231 -95.5t88 -224.5v-37q0 -16 -16 -16h-111q-16 0 -16 16v23q0 205 -203 205h-106q-203 0 -203 -218v-444q0 -219 203 -219h106q203 0 203 207v22q0 16 16 17h111q16 0 16 -17v-37q0 -129 -88 -224t-231 -95h-158q-141 0 -231 94t-90 236v475
q0 143 90 237.5t231 94.5h158z" />
    <glyph glyph-name="d" unicode="d" horiz-adv-x="1148" 
d="M459 -2q-135 0 -223.5 91t-88.5 233v487q0 139 87.5 231.5t222.5 92.5h139q106 0 180 -60q43 -33 60 -63q-10 68 -11 77v545q0 14 17 15h110q16 0 17 -15v-1607q0 -14 -17 -15h-104q-16 0 -17 15v34q0 25 7 64q-16 -33 -58 -64q-82 -61 -172 -61h-149zM494 123h143
q188 0 188 199v485q0 199 -188 199h-143q-203 0 -203 -218v-448q0 -217 203 -217z" />
    <glyph glyph-name="e" unicode="e" horiz-adv-x="1095" 
d="M659 1133q127 0 225.5 -92.5t98.5 -221.5v-260q0 -14 -14 -14h-635q-37 0 -53 10q10 -16 10 -45v-180q0 -98 52 -152.5t153 -54.5h137q92 0 141 49t49 141v9q2 12 17 12h110q16 0 15 -15v-20q-6 -125 -96.5 -214t-211.5 -89h-186q-135 0 -229.5 95t-94.5 233v479
q0 135 94.5 232.5t229.5 97.5h188zM797 649q35 0 53 -10q-10 23 -10 49v127q0 90 -51.5 140.5t-147.5 50.5h-152q-94 0 -146 -50.5t-52 -140.5v-127q0 -27 -10 -49q18 10 53 10h463z" />
    <glyph glyph-name="f" unicode="f" horiz-adv-x="735" 
d="M664 1118q16 0 16 -16v-92q0 -18 -16 -19h-209q-39 0 -54 13q10 -16 11 -50v-929q0 -14 -17 -15h-110q-16 0 -17 15v929q0 33 11 50q-14 -12 -54 -13h-114q-18 0 -19 19v92q0 16 19 16h114q41 0 54 -12q-10 16 -11 51v166q0 137 89 230.5t231 93.5h57q16 0 17 -15v-96
q0 -16 -17 -16h-18q-106 0 -160.5 -56.5t-54.5 -156.5v-148q0 -37 -11 -53q12 12 56 12h207z" />
    <glyph glyph-name="g" unicode="g" horiz-adv-x="1105" 
d="M1020 1004q-61 0 -107 -17h-11t-8 2l-3 2q20 -20 20 -33q43 -57 43 -141v-137q0 -141 -91 -228t-230 -87h-193q-176 0 -176 -95v-32q-2 -92 180 -93h265q129 0 217 -81.5t88 -208.5v-70q0 -127 -94.5 -211t-227.5 -84h-297q-131 0 -222 83t-91 210v74q0 78 41 144.5
t104 96.5q-45 20 -68.5 58.5t-23.5 76.5v43q0 47 31 88.5t92 61.5q-125 86 -123 254v137q0 141 91 228.5t229 87.5h180q98 0 178 -48q10 -6 18 -16q2 8 13 14q72 45 160 45h100q16 0 16 -14v-94q0 -16 -16 -16h-84zM811 690v117q0 197 -188 197h-156q-188 0 -188 -197v-117
q0 -199 188 -198h156q188 -1 188 198zM678 31h-283q-72 0 -128 -50.5t-56 -142.5v-28q0 -92 55.5 -144.5t153.5 -52.5h258q92 0 151.5 51t59.5 139v37q0 90 -56.5 140.5t-154.5 50.5z" />
    <glyph glyph-name="h" unicode="h" horiz-adv-x="1136" 
d="M666 1133q133 0 220 -92.5t87 -231.5v-782q0 -16 -19 -17h-108q-18 0 -19 17l2 761q0 217 -204 218h-97q-205 0 -204 -220v-761q0 -14 -15 -15h-112q-16 0 -17 15v1607q0 14 17 15h112q16 0 17 -15l-2 -545q0 -10 -11 -77q16 33 60 63q76 59 182 60h111z" />
    <glyph glyph-name="i" unicode="i" horiz-adv-x="501" 
d="M195 1290q-16 0 -17 17v155q0 16 17 17h112q16 0 17 -17v-155q0 -16 -17 -17h-112zM307 1118q16 0 17 -14v-1079q0 -14 -17 -15h-112q-14 0 -15 15v1079q0 14 15 14h112z" />
    <glyph glyph-name="j" unicode="j" horiz-adv-x="514" 
d="M209 1290q-16 0 -16 17v155q0 16 16 17h113q14 0 14 -17v-155q0 -16 -14 -17h-113zM317 1120q16 0 17 -16v-1284q0 -137 -95.5 -233.5t-228.5 -96.5h-55q-16 0 -16 18v99q0 14 14 14l41 2q94 0 145 56.5t51 158.5v1266q0 16 17 16h110z" />
    <glyph glyph-name="k" unicode="k" horiz-adv-x="1007" 
d="M197 10q-16 0 -17 15v1607q0 14 17 15h112q14 0 15 -15v-946q0 -82 -17 -156q29 68 82 136l377 477q8 10 20 10h134q10 0 13 -7t-3 -16l-326 -401q-14 -18 -29 -24q14 -6 27 -27l385 -647q4 -8 1 -14.5t-13 -6.5h-121q-14 0 -20 13l-312 532q-18 31 -22 66
q-4 -27 -31 -60l-137 -174q-6 -8 -15 -8l3 -5q4 -5 4 -9v-340q0 -14 -15 -15h-112z" />
    <glyph glyph-name="l" unicode="l" horiz-adv-x="505" 
d="M309 1638q14 0 15 -16v-1597q0 -14 -15 -15h-112q-16 0 -17 15v1597q0 16 17 16h112z" />
    <glyph glyph-name="m" unicode="m" horiz-adv-x="1818" 
d="M1346 1133q127 -2 218 -95.5t91 -228.5v-784q0 -14 -17 -15h-112q-14 0 -15 15v763q0 217 -211 218h-102q-96 0 -147.5 -51.5t-51.5 -147.5v-782q0 -14 -16 -15h-113q-16 0 -16 15l2 763q0 217 -211 218h-123q-96 0 -147 -51.5t-51 -147.5v-782q0 -14 -17 -15h-112
q-16 0 -17 15v1079q0 14 17 14h102q16 0 16 -12v-14q0 -14 -1 -32t-4 -35t-3 -24q18 43 57 72q74 59 177 60h147q70 0 132.5 -31t103.5 -82q16 -18 22 -55q4 18 37 57q45 51 108.5 81t131.5 30h125z" />
    <glyph glyph-name="n" unicode="n" horiz-adv-x="1169" 
d="M692 1133q129 0 221.5 -94.5t92.5 -227.5v-786q0 -14 -17 -15h-112q-16 0 -17 15v763q0 217 -209 218h-129q-96 0 -147 -51.5t-51 -147.5v-782q0 -14 -17 -15h-112q-16 0 -17 15v1079q0 14 17 14h102q16 0 16 -12v-14q0 -20 -5 -54t-5 -39q20 45 59 74q74 59 177 60h153z
" />
    <glyph glyph-name="o" unicode="o" horiz-adv-x="1114" 
d="M645 1133q141 0 231.5 -94.5t90.5 -237.5v-475q0 -141 -90.5 -235.5t-229.5 -94.5h-180q-139 0 -229.5 94t-90.5 236v475q0 143 90.5 237.5t229.5 94.5h178zM621 1004h-127q-203 0 -203 -218v-446q0 -217 203 -217h127q203 0 202 217v446q1 218 -202 218z" />
    <glyph glyph-name="p" unicode="p" horiz-adv-x="1148" 
d="M197 -518q-16 0 -17 14v1608q0 16 17 16h104q16 0 16 -16v-35q0 -25 -6 -63q18 35 58 63q82 63 174 64h147q135 0 223 -92.5t88 -231.5v-487q0 -141 -87 -232.5t-220 -91.5h-139q-109 0 -182 59q-43 31 -60 62q10 -68 11 -78v-545q0 -14 -15 -14h-112zM512 123h143
q205 0 205 217v448q0 217 -205 218h-143q-188 0 -188 -199v-483q0 -201 188 -201z" />
    <glyph glyph-name="q" unicode="q" horiz-adv-x="1148" 
d="M838 -518q-16 0 -17 14v545q0 10 13 78q-16 -31 -60 -62q-76 -59 -182 -59h-135q-135 0 -222.5 91t-87.5 233v487q0 139 88.5 231.5t223.5 92.5h145q92 0 174 -64q39 -29 58 -63q-6 39 -7 63v35q0 16 17 16h106q16 0 17 -16v-1608q0 -14 -17 -14h-114zM494 123h141
q188 0 188 201v483q0 199 -188 199h-141q-203 0 -203 -218v-448q0 -217 203 -217z" />
    <glyph glyph-name="r" unicode="r" horiz-adv-x="710" 
d="M655 1133q14 0 15 -17v-96q0 -16 -15 -16h-131q-96 0 -148 -51.5t-52 -145.5v-782q0 -14 -15 -15h-112q-16 0 -17 15v1079q0 14 17 14h102q16 0 16 -12v-14q0 -20 -4 -54t-6 -37q20 43 57 72q76 59 179 60h114z" />
    <glyph glyph-name="s" unicode="s" horiz-adv-x="997" 
d="M354 -4q-104 0 -178 73.5t-76 174.5v96q0 16 17 16h104q18 0 19 -14l2 -100q0 -51 37.5 -85t91.5 -34h276q51 0 86 36t35 87v127q0 41 -22.5 71.5t-59.5 40.5l-377 103q-88 18 -141 78.5t-53 146.5v68q0 104 72.5 178t179.5 74h264q104 0 178 -74t76 -174v-49
q0 -16 -17 -17h-104q-16 0 -19 15l-2 53q0 49 -37.5 84t-89.5 35h-251q-51 0 -85 -37t-34 -86v-76q0 -39 26.5 -66.5t67.5 -40.5l375 -100q88 -18 135 -81.5t47 -145.5v-127q0 -104 -71.5 -177t-178.5 -73h-293z" />
    <glyph glyph-name="t" unicode="t" horiz-adv-x="847" 
d="M741 1118q16 0 17 -16v-92q0 -18 -17 -19h-209q-39 0 -55 13q10 -18 10 -50v-929q0 -14 -14 -15h-113q-16 0 -16 15v929q0 29 10 47q-18 -10 -53 -10h-195q-18 0 -18 19v92q0 16 18 16h195q35 0 55 -8q-12 16 -12 47v277q0 8 18 16l109 49q16 8 16 -10v-330
q0 -37 -10 -51q12 10 55 10h209z" />
    <glyph glyph-name="u" unicode="u" horiz-adv-x="1157" 
d="M481 -4q-127 0 -219 94t-92 227v787q0 14 16 14h111q16 0 16 -14v-762q0 -217 209 -217h113q96 0 148.5 51t52.5 146v782q0 14 14 14h113q16 0 16 -14v-1079q0 -14 -16 -15h-103q-16 0 -16 13v14q0 20 5 54t5 38q-20 -45 -57 -74q-74 -59 -179 -59h-137z" />
    <glyph glyph-name="v" unicode="v" horiz-adv-x="1040" 
d="M958 1128q20 0 13 -20l-385 -1094q-6 -14 -21 -14h-90q-14 0 -18 14l-387 1094q-8 20 14 20h104q14 0 21 -14l280 -813q25 -66 31 -143q8 76 31 143l283 813q4 14 18 14h106z" />
    <glyph glyph-name="w" unicode="w" horiz-adv-x="1675" 
d="M1591 1128q20 0 15 -20l-361 -1094q-4 -14 -18 -14h-84q-16 0 -21 14l-274 873q-6 18 -10 53q-6 -37 -11 -53l-274 -873q-6 -14 -21 -14h-83q-14 0 -19 14l-360 1094q-6 20 14 20h104q14 0 19 -14l260 -817q16 -55 22 -121q8 68 25 125l258 805q4 14 19 14h92
q14 0 20 -14l256 -803q18 -57 25 -125q8 66 24 119l260 817q4 14 19 14h104z" />
    <glyph glyph-name="x" unicode="x" horiz-adv-x="964" 
d="M954 20q6 -8 3 -14t-13 -6h-121q-14 0 -20 10l-293 443q-20 35 -27 65q-6 -31 -28 -65l-293 -443q-6 -10 -21 -10h-121q-10 0 -13 6t3 14l375 560q8 10 25 22q-16 10 -25 21l-328 483q-6 10 -3 16t16 6h118q14 0 21 -10l244 -373q25 -37 30 -69q4 33 29 69l242 373
q6 10 20 10h121q10 0 13 -6t-3 -16l-325 -483q-8 -10 -25 -21q16 -10 25 -22z" />
    <glyph glyph-name="y" unicode="y" horiz-adv-x="995" 
d="M940 1128q20 0 14 -20l-469 -1323q-49 -141 -120.5 -218t-190.5 -77h-65q-16 0 -17 18v99q0 16 14 16h68q47 0 78 11.5t53.5 44t33.5 58t32 83.5l59 172q0 2 7 8l7 6q-4 -2 -13 0t-9 6l-389 1096q-6 20 14 20h107q14 0 18 -14l303 -868q16 -49 19 -84q4 37 20 84l301 868
q4 14 19 14h106z" />
    <glyph glyph-name="z" unicode="z" horiz-adv-x="919" 
d="M860 137q16 0 17 -18v-92q0 -16 -17 -17h-801q-16 0 -16 21v96q0 4 2 6l598 807q35 45 88 70q-41 -8 -121 -9h-460q-16 0 -17 17v94q0 16 17 16h692q14 0 14 -20v-88q0 -6 -4 -10l-594 -813q-33 -45 -82 -70q39 10 113 10h571z" />
    <glyph glyph-name="braceleft" unicode="{" horiz-adv-x="884" 
d="M692 -506q-121 0 -211 81t-90 206v465q0 125 -51 188.5t-164 63.5h-10q-18 0 -19 16v82q0 18 17 18h18q223 0 224 250v465q0 127 89 207t212 80h86q16 0 16 -17v-75q0 -16 -16 -17h-68q-96 0 -148.5 -51t-52.5 -151l2 -494q0 -68 -30.5 -128t-83.5 -101q-27 -20 -50 -29
q23 -10 50 -33q100 -86 100 -219v-496q0 -98 51 -149t148 -51h82q16 0 16 -17v-75q0 -18 -16 -19h-101z" />
    <glyph glyph-name="bar" unicode="|" horiz-adv-x="507" 
d="M195 -512q-14 0 -15 14v1985q0 14 15 14h118q14 0 15 -14v-1985q0 -14 -15 -14h-118z" />
    <glyph glyph-name="braceright" unicode="}" horiz-adv-x="884" 
d="M193 -506h-101q-16 0 -16 19v75q0 16 16 17h82q96 0 147.5 51t51.5 149v496q0 133 100 219q27 23 49 33q-23 8 -49 29q-53 41 -84 101t-31 128v494q0 100 -51 151t-147 51h-68q-16 0 -16 17v75q0 16 16 17h86q123 0 212 -80t89 -207v-465q0 -250 221 -250h19q16 0 16 -18
v-82q0 -16 -16 -16h-10q-113 0 -164 -63.5t-51 -188.5v-465q0 -125 -90 -206t-211 -81z" />
    <glyph glyph-name="asciitilde" unicode="~" horiz-adv-x="1175" 
d="M731 432q-70 0 -162 64q-78 53 -116 53q-43 0 -73 -31t-34 -74q-4 -12 -16 -12h-80q-14 0 -14 17q10 92 66 152.5t144 60.5q29 0 60 -11.5t44 -18.5t58 -34q74 -53 115 -53q45 0 73.5 30.5t32.5 73.5q4 12 17 13h80q16 0 14 -17q-8 -92 -64.5 -152.5t-144.5 -60.5z" />
    <glyph glyph-name="uni00A0" unicode="&#xa0;" horiz-adv-x="657" 
 />
    <glyph glyph-name="exclamdown" unicode="&#xa1;" horiz-adv-x="638" 
d="M274 981q-16 0 -16 16v127q0 18 16 19h91q16 0 16 -19v-127q0 -16 -16 -16h-91zM264 -356q-16 0 -16 16l8 1128q0 18 18 19h91q16 0 18 -19l8 -1128q0 -16 -16 -16h-111z" />
    <glyph glyph-name="cent" unicode="&#xa2;" horiz-adv-x="1071" 
d="M823 760q-16 0 -16 16v23q0 205 -203 205h-106q-203 0 -203 -218v-444q0 -219 203 -219h106q203 0 203 207v22q0 14 16 15h111q16 0 16 -15v-37q0 -129 -88 -224t-231 -95h-4v-277q0 -16 -17 -16h-86q-16 0 -16 16v277h-35q-141 0 -231 94t-90 236v475q0 143 90 237.5
t231 94.5h35v231q0 16 16 16h86q16 0 17 -16v-231h4q143 0 231 -95.5t88 -224.5v-37q0 -16 -16 -16h-111z" />
    <glyph glyph-name="sterling" unicode="&#xa3;" horiz-adv-x="1329" 
d="M129 -4q-14 0 -14 16v90q0 14 14 15h27q215 0 215 223v307h-240q-14 0 -14 15v86q0 16 14 16h240v319q0 135 94 232.5t223 97.5h219q131 0 225.5 -94t94.5 -229v-52q0 -14 -15 -14h-118q-14 0 -15 14v23q0 106 -55 161.5t-160 55.5h-129q-104 0 -160.5 -55.5
t-56.5 -161.5v-297h393q14 0 15 -16v-86q0 -14 -15 -15h-393v-323q0 -117 -86 -193h430q215 0 215 211v20q0 16 15 17h116q16 0 17 -17v-38q0 -135 -94.5 -231.5t-225.5 -96.5h-776z" />
    <glyph glyph-name="currency" unicode="&#xa4;" horiz-adv-x="1708" 
d="M299 -63l-57 59q-10 12 0 22l170 179q-131 156 -131 376q0 221 131 377l-172 183q-12 10 0 20l57 61q12 10 22 0l175 -182q152 123 361.5 123t361.5 -123l174 182q10 10 20 0l59 -61q10 -10 0 -20l-174 -183q133 -156 134 -377q0 -221 -134 -376l172 -179q10 -10 0 -22
l-59 -59q-10 -12 -20 0l-172 176q-152 -121 -362 -121t-363 121l-170 -176q-11 -12 -23 0zM854 125q197 0 320.5 126t123.5 322.5t-123.5 322.5t-320.5 126t-320.5 -126t-123.5 -322.5t123.5 -322.5t320.5 -126z" />
    <glyph glyph-name="yen" unicode="&#xa5;" horiz-adv-x="1052" 
d="M1061 1407q25 0 14 -21l-393 -700h303q14 0 14 -16v-86q0 -14 -14 -15h-369l-4 -8q-6 -10 -14 -18v-4q2 -6 2 -11v-137h385q14 0 14 -16v-86q0 -14 -14 -15h-385v-256q0 -18 -18 -18h-113q-18 0 -18 18v256h-385q-14 0 -15 15v86q0 16 15 16h385v137q0 4 4 11v4
q-10 10 -15 18l-4 8h-370q-14 0 -15 15v86q0 16 15 16h305l-394 700q-12 20 13 21h121q16 0 22 -12l365 -656q12 -23 22 -53h12q8 31 21 53l367 656q6 12 20 12h121z" />
    <glyph glyph-name="brokenbar" unicode="&#xa6;" horiz-adv-x="507" 
d="M195 674q-14 0 -15 14v799q0 14 15 14h118q14 0 15 -14v-799q0 -14 -15 -14h-118zM195 -512q-14 0 -15 14v801q0 14 15 14h118q14 0 15 -14v-801q0 -14 -15 -14h-118z" />
    <glyph glyph-name="section" unicode="&#xa7;" horiz-adv-x="1396" 
d="M555 -508q-135 0 -229.5 96.5t-94.5 229.5v141q0 18 19 18h115q16 0 16 -18v-135q0 -84 54 -139.5t138 -55.5h263q76 0 128 56.5t52 138.5v156q0 119 -129 176l-461 206q-86 35 -137 109t-51 160v47q0 147 116 235q-117 88 -116 220v47q0 133 94 226t227 93h248
q135 0 226 -95t91 -230v-68q0 -16 -18 -16h-115q-16 0 -16 16v76q0 76 -54.5 128t-129.5 52h-228q-76 0 -127 -54.5t-51 -127.5v-37q0 -57 32 -103.5t87 -70.5l475 -211q186 -80 186 -283v-156q0 -94 -51 -172q51 -74 51 -176v-155q0 -133 -95 -228.5t-230 -95.5h-285z
M993 231q23 45 23 97v153q0 119 -129 178l-398 183q-47 -20 -76.5 -65.5t-29.5 -98.5v-37q0 -57 33 -103t88 -71l430 -199q32 -14 59 -37z" />
    <glyph glyph-name="dieresis" unicode="&#xa8;" horiz-adv-x="749" 
d="M160 1282q-16 0 -17 18v152q0 16 17 16h88q18 0 18 -16v-152q0 -18 -18 -18h-88zM502 1282q-16 0 -17 18v152q0 16 17 16h90q16 0 16 -16v-152q0 -18 -16 -18h-90z" />
    <glyph glyph-name="copyright" unicode="&#xa9;" horiz-adv-x="1652" 
d="M826 264q-261 0 -432 174t-171 439.5t171 439.5t432 174t433.5 -174t172.5 -439.5t-172.5 -439.5t-433.5 -174zM826.5 334q236.5 0 386 152.5t149.5 391t-149.5 392t-386 153.5t-386 -153.5t-149.5 -392t149.5 -391t386 -152.5zM760 477q-94 0 -159.5 66.5t-65.5 161.5
v339q0 94 66.5 162t158.5 68h110q78 0 137.5 -47t77.5 -119q4 -12 -10 -12h-78q-8 0 -12 10q-25 82 -139 82h-68q-147 0 -147 -156v-315q0 -154 147 -154h68q111 0 137 76q4 12 14 12h76q14 0 10 -14q-20 -70 -78.5 -115t-134.5 -45h-110z" />
    <glyph glyph-name="ordfeminine" unicode="&#xaa;" horiz-adv-x="858" 
d="M477 1489q88 0 152.5 -65.5t64.5 -157.5v-561q0 -10 -10 -11h-74q-10 0 -10 8v15q0 8 8 53q-12 -20 -43 -43q-53 -43 -125 -43h-123q-88 0 -151.5 60.5t-63.5 148.5v47q0 88 62.5 145.5t159.5 57.5h241q20 0 33 -8q-6 16 -6 28v97q0 68 -36 103.5t-103 35.5h-88
q-63 0 -98.5 -35t-35.5 -100v-7q0 -8 -10 -8h-78q-10 0 -10 11v18q0 84 62.5 147.5t148.5 63.5h133zM453 774q68 0 103.5 35t35.5 102v138q0 6 4 26q-12 -8 -31 -8h-221q-68 0 -104.5 -37t-36.5 -102v-15q0 -139 147 -139h103zM150 494q-10 0 -11 10v57q0 10 11 10h497
q10 0 10 -10v-57q0 -10 -10 -10h-497z" />
    <glyph glyph-name="guillemotleft" unicode="&#xab;" horiz-adv-x="1054" 
d="M426 299q0 -8 -5 -11t-11 1l-232 231q-10 10 -10 21v92q0 10 10 20l232 230q6 6 11 2t5 -13v-98q0 -10 -10 -18l-133 -144q-12 -14 -12.5 -25.5t12.5 -25.5l133 -143q10 -10 10 -19v-100zM887 299q0 -8 -5 -11t-12 1l-231 231q-10 10 -10 21v92q0 10 10 20l231 230
q6 6 11.5 2t5.5 -13v-98q0 -10 -10 -18l-134 -144q-12 -14 -12 -25.5t12 -25.5l134 -143q10 -10 10 -19v-100z" />
    <glyph glyph-name="logicalnot" unicode="&#xac;" horiz-adv-x="1482" 
d="M1118 340q-16 0 -16 16v340q0 6 -6 6h-850q-18 0 -19 17v90q0 16 19 16h964q16 0 17 -16v-453q0 -16 -17 -16h-92z" />
    <glyph glyph-name="uni00AD" unicode="&#xad;" horiz-adv-x="829" 
d="M686 651q14 0 14 -16v-82q0 -14 -14 -14h-543q-14 0 -14 14v82q0 16 14 16h543z" />
    <glyph glyph-name="registered" unicode="&#xae;" horiz-adv-x="1267" 
d="M634 907q-175 0 -290 117t-115 295t115 295t290 117t290.5 -117t115.5 -295t-115.5 -295t-290.5 -117zM634 958q157 0 256 101.5t99 259.5t-99 259t-256 101t-256 -101t-99 -259t99 -259.5t256 -101.5zM686 1544q43 0 72.5 -29.5t29.5 -72.5v-56q0 -37 -24.5 -64.5
t-58.5 -31.5q-16 -2 -9 -16l105 -199q4 -6 -4 -6h-47q-6 0 -9 4l-106 203q-4 8 -14 8h-68q-10 0 -10 -10v-199q0 -6 -13 -6h-43q-6 0 -6 6v465q0 4 6 4h199zM670 1491h-119q-10 0 -10 -10v-135q0 -10 10 -11h119q59 0 59 60v35q0 61 -59 61z" />
    <glyph glyph-name="macron" unicode="&#xaf;" horiz-adv-x="958" 
d="M195 1268q-16 0 -17 18v68q0 16 17 16h567q18 0 18 -16v-68q0 -18 -18 -18h-567z" />
    <glyph glyph-name="degree" unicode="&#xb0;" horiz-adv-x="829" 
d="M451 1624q102 0 174.5 -73.5t72.5 -178.5v-121q0 -104 -72.5 -177t-174.5 -73h-72q-102 0 -175 73t-73 177v121q0 104 72.5 178t175.5 74h72zM438 1522h-43q-78 0 -123 -45t-45 -125v-80q0 -80 45 -125t123 -45h43q78 0 121 44t43 126v78q0 82 -43 127t-121 45z" />
    <glyph glyph-name="plusminus" unicode="&#xb1;" horiz-adv-x="1153" 
d="M987 969q14 0 14 -17v-86q0 -14 -14 -14h-366v-387q0 -14 -15 -14h-82q-16 0 -16 14v387h-365q-14 0 -14 14v86q0 16 14 17h365v360q0 16 16 17h82q14 0 15 -17v-360h366zM154 225q-14 0 -15 17v82q0 16 15 16h856q14 0 14 -16v-82q0 -16 -14 -17h-856z" />
    <glyph glyph-name="uni00B2" unicode="&#xb2;" horiz-adv-x="802" 
d="M670 629q25 2 24 -25v-67q0 -27 -24 -27h-592q-25 0 -25 27v127q0 45 17.5 75.5t58.5 57.5l385 327q25 25 35 44.5t10 50.5v84q0 74 -33 116q-35 43 -100 43h-117q-92 0 -121 -86l-2 -8q-2 -20 -24 -20h-82q-10 0 -17.5 8t-5.5 18l2 6q18 90 78 146q63 61 152 61h155
q104 0 174 -84q70 -80 70 -192v-94q0 -117 -106 -193l-383 -322q-10 -8 -17 -10q2 -6 2 -18v-29q0 -12 -4 -18q6 2 19 2h471z" />
    <glyph glyph-name="uni00B3" unicode="&#xb3;" horiz-adv-x="819" 
d="M623 1081q41 -35 66.5 -89t25.5 -113v-101q0 -113 -71 -192.5t-175 -79.5h-186q-88 0 -150.5 57.5t-79.5 147.5l-2 8q-2 12 4 20.5t19 8.5h82q23 0 24 -23l2 -10q29 -88 121 -88h148q68 0 101.5 45t33.5 119v79q0 76 -35 120t-100 44h-142q-23 0 -22 21v59q0 20 22 21
h125q66 0 99.5 39.5t33.5 95.5v39q0 152 -133 151h-119q-96 0 -125 -88v-6q-4 -20 -24 -20h-84q-10 0 -16.5 8t-4.5 18v6q18 90 78 146q63 59 152 59h164q104 0 173.5 -74.5t67.5 -187.5v-49q0 -92 -71 -164q-8 -10 -9 -16q-1 -5 7 -11z" />
    <glyph glyph-name="acute" unicode="&#xb4;" horiz-adv-x="593" 
d="M174 1268q-8 0 -11 5t1 11l170 246q6 10 18 10h101q10 0 13 -6t-3 -12l-197 -246q-8 -8 -18 -8h-74z" />
    <glyph glyph-name="mu" unicode="&#xb5;" horiz-adv-x="1185" 
d="M989 1128q16 0 17 -18v-1092q0 -16 -17 -16h-110q-16 0 -17 14q0 43 10 101q-18 -39 -55 -66q-68 -53 -162 -55h-149q-82 2 -135 45q-39 31 -58 63q10 -51 11 -94v-497q0 -18 -17 -19h-110q-16 0 -17 19v1597q0 18 17 18h110q16 0 17 -18v-770q0 -109 55 -163t160 -54
h108q104 0 159.5 54t55.5 163v770q0 18 17 18h110z" />
    <glyph glyph-name="paragraph" unicode="&#xb6;" horiz-adv-x="1486" 
d="M1198 1501q16 0 16 -16v-1972q0 -18 -16 -19h-86q-18 0 -18 19v1849h-226v-1849q0 -18 -16 -19h-86q-18 0 -18 19v1095h-254q-115 0 -196 82t-81 199v334q0 115 81 196.5t196 81.5h704z" />
    <glyph glyph-name="periodcentered" unicode="&#xb7;" horiz-adv-x="487" 
d="M299 764q18 0 18 -19v-151q0 -16 -18 -16h-111q-18 0 -18 16v151q0 18 18 19h111z" />
    <glyph glyph-name="cedilla" unicode="&#xb8;" horiz-adv-x="661" 
d="M362 18q8 0 14.5 -5t2.5 -9l-55 -84h18q72 0 124 -57.5t52 -132.5v-33q0 -76 -51 -138.5t-125 -62.5h-184q-14 0 -15 17v47q0 16 15 16h147q55 0 89 41t34 102q0 57 -34 93t-89 36h-92q-8 0 -13 4.5t-3 10.5l86 141q0 2 2 4q4 10 12 10h65z" />
    <glyph glyph-name="uni00B9" unicode="&#xb9;" horiz-adv-x="704" 
d="M623 633q27 0 26 -27v-67q0 -27 -26 -27h-562q-27 0 -26 27v67q0 27 26 27h199q16 0 25 -6q-4 10 -4 24v787q0 20 4 30q-8 -6 -27 -6h-199q-25 0 -24 25v74q0 25 24 24h322q27 0 27 -26v-906q0 -16 -5 -24q10 4 27 4h193z" />
    <glyph glyph-name="ordmasculine" unicode="&#xba;" horiz-adv-x="874" 
d="M500 1489q100 0 163.5 -66.5t63.5 -167.5v-337q0 -100 -63.5 -167t-161.5 -67h-129q-98 0 -162 66.5t-64 167.5v337q0 100 63.5 167t164.5 67h125zM481 1399h-88q-143 0 -143 -156v-315q0 -154 143 -154h88q143 0 144 154v315q-1 156 -144 156zM197 494q-8 0 -9 10v57
q0 10 9 10h491q10 0 10 -10v-57q0 -10 -10 -10h-491z" />
    <glyph glyph-name="guillemotright" unicode="&#xbb;" horiz-adv-x="1148" 
d="M168 299v100q0 8 10 19l133 143q14 14 14.5 25.5t-14.5 25.5l-133 144q-10 8 -10 18v98q0 8 5 12.5t11 -1.5l232 -230q10 -10 10 -20v-92q0 -10 -10 -21l-232 -231q-6 -4 -11 -1t-5 11zM721 299v100q0 8 10 19l133 143q14 14 14.5 25.5t-14.5 25.5l-133 144q-10 8 -10 18
v98q0 8 6 12.5t12 -1.5l230 -230q10 -10 10 -20v-92q0 -10 -10 -21l-230 -231q-6 -4 -12 -1t-6 11z" />
    <glyph glyph-name="onequarter" unicode="&#xbc;" horiz-adv-x="2017" 
d="M629 633q25 0 24 -27v-67q0 -27 -24 -27h-563q-25 0 -25 27v67q0 27 25 27h200q14 0 23 -6q-2 10 -2 24v787q0 20 4 30q-10 -6 -29 -6h-196q-25 0 -25 25v74q0 25 25 24h321q25 0 25 -26v-906q0 -16 -2 -24q8 4 24 4h195zM1278 1124q10 0 14 -5t2 -13l-432 -920
q-6 -16 -16 -16h-84q-10 0 -14.5 5t-2.5 13l431 922q8 14 18 14h84zM1958 154q25 0 24 -27v-64q0 -25 -24 -24h-96q-12 0 -21 2q4 -8 4 -18v-203q0 -25 -24 -25h-82q-23 0 -23 25l-2 203q0 12 4 18q-8 -2 -20 -2h-451q-25 0 -24 22l2 76q0 10 4 19l454 700q8 12 25 12h115
q23 0 22 -20v-678q0 -12 -4 -20q8 4 23 4h94zM1696 154q14 0 22 -4q-4 8 -4 20l2 492v24q-4 -10 -10 -20l-332 -492q-10 -16 -20 -24q12 4 30 4h312z" />
    <glyph glyph-name="onehalf" unicode="&#xbd;" horiz-adv-x="2021" 
d="M629 633q25 0 24 -27v-67q0 -27 -24 -27h-563q-25 0 -25 27v67q0 27 25 27h200q14 0 23 -6q-2 10 -2 24v787q0 20 4 30q-10 -6 -29 -6h-196q-25 0 -25 25v74q0 25 25 24h321q25 0 25 -26v-906q0 -16 -2 -24q8 4 24 4h195zM1278 1124q10 0 14 -5t2 -13l-432 -920
q-6 -16 -16 -16h-84q-10 0 -14.5 5t-2.5 13l431 922q8 14 18 14h84zM1958 -86q27 0 27 -25v-67q0 -27 -27 -27h-590q-27 0 -27 27v127q0 45 17.5 75.5t60.5 57.5l383 328q27 25 37 44t10 50v84q0 74 -34 117q-35 43 -99 43h-117q-94 0 -122 -86v-9q-4 -20 -27 -20h-82
q-10 0 -16 7t-4 19v7q18 90 77 145q63 61 152 61h156q104 0 176 -84q70 -80 69 -192v-94q0 -117 -108 -193l-383 -321q-10 -8 -17 -11q2 -6 3 -18v-29q0 -12 -3 -18q6 2 17 2h471z" />
    <glyph glyph-name="threequarters" unicode="&#xbe;" horiz-adv-x="2226" 
d="M633 1081q39 -35 64.5 -89t25.5 -113v-101q0 -113 -70.5 -192.5t-173.5 -79.5h-188q-88 0 -150.5 57.5t-79.5 147.5l-2 8q-2 12 5.5 20.5t17.5 8.5h82q23 0 24 -23l2 -10q29 -88 121 -88h148q68 0 101.5 45t33.5 119v79q0 76 -35 120t-100 44h-142q-23 0 -22 21v59
q0 20 22 21h125q66 0 101 39.5t35 95.5v39q0 152 -136 151h-118q-96 0 -125 -88v-6q-2 -20 -25 -20h-84q-10 0 -16 8t-4 18v6q18 90 77 146q63 59 152 59h166q102 0 172 -74.5t70 -187.5v-49q0 -92 -74 -164q-8 -10 -8 -16q0 -5 8 -11zM1409 1126q10 0 14 -6t0 -14
l-430 -920q-6 -16 -18 -16h-84q-8 0 -13.5 5t-0.5 13l430 922q6 16 18 16h84zM2087 154q27 0 27 -27v-64q0 -25 -27 -24h-94q-12 0 -21 2q2 -6 2 -18v-203q0 -25 -24 -25h-80q-25 0 -25 25v203q0 12 2 18q-6 -2 -20 -2h-449q-25 0 -24 22v76q0 10 6 21l455 698q8 12 22 12
h117q20 0 20 -20v-678q0 -12 -2 -20q8 4 21 4h94zM1827 154q14 0 20 -4q-2 8 -2 20v492q0 14 2 24q-4 -10 -10 -20l-332 -492q-10 -16 -20 -24q12 4 31 4h311z" />
    <glyph glyph-name="questiondown" unicode="&#xbf;" horiz-adv-x="1150" 
d="M696 1208q16 0 17 -16v-152q0 -18 -17 -18h-90q-16 0 -16 18v152q0 16 16 16h90zM489 -289q-135 0 -229 92.5t-94 225.5v141q0 92 46 169t130 114l125 61q123 59 123 176l2 166q0 16 16 16h92q16 0 17 -16v-180q-2 -188 -182 -277l-119 -59q-102 -49 -103 -172v-143
q0 -74 49.5 -127.5t122.5 -55.5h179q78 0 133 52.5t55 128.5v133q0 16 16 16h101q18 0 18 -16v-125q0 -137 -91 -228.5t-230 -91.5h-177z" />
    <glyph glyph-name="Agrave" unicode="&#xc0;" 
d="M537 1788q12 0 18 -12l162 -230q6 -6 3 -11t-11 -5h-72q-12 0 -19 8l-190 231q-6 6 -3 12.5t11 6.5h101zM1122 18q6 -18 -12 -18h-121q-14 0 -18 12l-88 375q-2 4 -4 39q-18 -8 -41 -8h-473q-20 0 -41 8q-2 -35 -2 -39l-91 -375q-2 -12 -18 -12h-121q-16 0 -12 16
l356 1379q4 12 19 12h293q16 0 18 -12zM813 539q20 0 47 -7q-23 29 -26 52l-162 651q-6 27 6 47q-8 -8 -23 -8h-108q-14 0 -23 8q14 -20 6 -47l-159 -651q-6 -23 -29 -52q27 6 47 7h424z" />
    <glyph glyph-name="Aacute" unicode="&#xc1;" 
d="M518 1530q-8 0 -11 5t1 11l162 232q8 10 20 10h98q8 0 11.5 -6t-0.5 -13l-191 -231q-8 -8 -18 -8h-72zM1122 18q6 -18 -12 -18h-121q-14 0 -18 12l-88 375q-2 4 -4 39q-18 -8 -41 -8h-473q-20 0 -41 8q-2 -35 -2 -39l-91 -375q-2 -12 -18 -12h-121q-16 0 -12 16l356 1379
q4 12 19 12h293q16 0 18 -12zM813 539q20 0 47 -7q-23 29 -26 52l-162 651q-6 27 6 47q-8 -8 -23 -8h-108q-14 0 -23 8q14 -20 6 -47l-159 -651q-6 -23 -29 -52q27 6 47 7h424z" />
    <glyph glyph-name="Acircumflex" unicode="&#xc2;" 
d="M354 1516q-8 0 -11 5t1 11l203 215q8 12 16 12h96q8 0 19 -12l201 -215q4 -6 1 -11t-12 -5h-75q-10 0 -21 8l-135 127q-23 18 -25 32q-4 -14 -24 -32l-137 -127q-10 -8 -19 -8h-78zM1122 18q6 -18 -12 -18h-121q-14 0 -18 12l-88 375q-2 4 -4 39q-18 -8 -41 -8h-473
q-20 0 -41 8q-2 -35 -2 -39l-91 -375q-2 -12 -18 -12h-121q-16 0 -12 16l356 1379q4 12 19 12h293q16 0 18 -12zM813 539q20 0 47 -7q-23 29 -26 52l-162 651q-6 27 6 47q-8 -8 -23 -8h-108q-14 0 -23 8q14 -20 6 -47l-159 -651q-6 -23 -29 -52q27 6 47 7h424z" />
    <glyph glyph-name="Atilde" unicode="&#xc3;" 
d="M862 1700q14 0 12 -14q-6 -76 -54 -124.5t-115 -48.5q-66 0 -134 56q-59 45 -94 45q-37 0 -61.5 -25.5t-28.5 -60.5q-2 -14 -14 -15h-56q-16 0 -14 15q8 76 56.5 124t113.5 48q66 0 133 -55q59 -45 94 -46q37 0 61.5 26t29.5 61q2 14 14 14h57zM1122 18q6 -18 -12 -18
h-121q-14 0 -18 12l-88 375q-2 4 -4 39q-18 -8 -41 -8h-473q-20 0 -41 8q-2 -35 -2 -39l-91 -375q-2 -12 -18 -12h-121q-16 0 -12 16l356 1379q4 12 19 12h293q16 0 18 -12zM813 539q20 0 47 -7q-23 29 -26 52l-162 651q-6 27 6 47q-8 -8 -23 -8h-108q-14 0 -23 8
q14 -20 6 -47l-159 -651q-6 -23 -29 -52q27 6 47 7h424z" />
    <glyph glyph-name="Adieresis" unicode="&#xc4;" 
d="M399 1511q-16 0 -16 17v143q0 16 16 17h88q16 0 17 -17v-143q0 -16 -17 -17h-88zM731 1511q-16 0 -16 17v143q0 16 16 17h86q18 0 19 -17v-143q0 -16 -19 -17h-86zM1122 18q6 -18 -12 -18h-121q-14 0 -18 12l-88 375q-2 4 -4 39q-18 -8 -41 -8h-473q-20 0 -41 8
q-2 -35 -2 -39l-91 -375q-2 -12 -18 -12h-121q-16 0 -12 16l356 1379q4 12 19 12h293q16 0 18 -12zM813 539q20 0 47 -7q-23 29 -26 52l-162 651q-6 27 6 47q-8 -8 -23 -8h-108q-14 0 -23 8q14 -20 6 -47l-159 -651q-6 -23 -29 -52q27 6 47 7h424z" />
    <glyph glyph-name="Aring" unicode="&#xc5;" 
d="M1122 18q6 -18 -12 -18h-121q-14 0 -18 12l-88 375q-2 4 -4 39q-18 -8 -41 -8h-473q-20 0 -41 8q-2 -35 -2 -39l-91 -375q-2 -12 -18 -12h-121q-16 0 -12 16l356 1379q4 12 19 12h6q-61 57 -62 137v25q0 78 58.5 134t140.5 56h8q82 0 140.5 -56t58.5 -134v-25
q0 -80 -62 -137h5q16 0 18 -12zM489 1565v-19q0 -49 33 -84t78 -35h4q45 0 78 35t33 84v19q0 49 -33 85t-78 36h-4q-45 0 -78 -36t-33 -85zM813 539q20 0 47 -7q-23 29 -26 52l-162 651q-6 27 6 47q-8 -8 -23 -8h-108q-14 0 -23 8q14 -20 6 -47l-159 -651q-6 -23 -29 -52
q27 6 47 7h424z" />
    <glyph glyph-name="AE" unicode="&#xc6;" horiz-adv-x="1685" 
d="M1610 131q16 0 16 -16v-99q0 -16 -16 -16h-692q-14 0 -15 12l2 375q0 4 10 39q-23 -8 -43 -8h-495q-23 0 -41 8q-6 -35 -8 -39l-168 -375q-6 -12 -21 -12h-119q-20 0 -10 18l647 1377q6 12 19 12h891q16 0 16 -14v-101q0 -16 -16 -16h-480q-18 0 -49 12q10 -25 11 -45
v-397q0 -18 -11 -43q29 12 49 12h426q16 0 17 -16v-90q0 -14 -17 -15h-426q-16 0 -49 11q10 -23 11 -43v-498q0 -20 -11 -45q33 12 49 12h523zM918 532q-12 27 -13 52l2 651q0 27 21 47q-10 -8 -25 -8h-168q-14 0 -20 8q10 -20 -2 -47l-295 -651q-12 -25 -37 -52q29 6 49 7
h442q21 -1 46 -7z" />
    <glyph glyph-name="Ccedilla" unicode="&#xc7;" horiz-adv-x="1169" 
d="M934 999q-16 0 -16 15v67q0 96 -53.5 147.5t-149.5 51.5h-197q-96 0 -150.5 -51t-54.5 -148v-755q0 -96 54.5 -147.5t150.5 -51.5h197q96 0 150.5 51t54.5 148v80q0 16 14 16h117q16 0 16 -16v-101q0 -127 -92 -218t-219 -91h-99l-49 -72h19q70 0 120 -54t50 -124v-31
q0 -72 -49.5 -130t-120.5 -58h-178q-14 0 -15 14v45q0 14 15 15h141q53 0 86 38.5t33 96.5q0 55 -33 88t-86 33h-90q-6 0 -11.5 5t-3.5 9l78 125h-88q-127 0 -218 91t-91 218v797q0 127 91 218t218 91h281q127 0 219 -91t92 -218v-88q0 -14 -16 -15h-117z" />
    <glyph glyph-name="Egrave" unicode="&#xc8;" horiz-adv-x="1050" 
d="M504 1790q12 0 18 -10l164 -232q4 -6 1 -10t-11 -4h-72q-10 0 -18 8l-191 230q-4 8 -2 13t13 5h98zM213 0q-18 0 -18 18v1373q0 16 18 16h719q16 0 16 -14v-101q0 -16 -16 -16h-551q-18 0 -49 12q10 -25 10 -45v-397q0 -18 -10 -43q29 12 49 12h498q16 0 16 -16v-90
q0 -14 -16 -15h-498q-16 0 -49 11q10 -23 10 -43v-498q0 -20 -10 -45q33 12 49 12h594q16 0 16 -16v-99q0 -16 -16 -16h-762z" />
    <glyph glyph-name="Eacute" unicode="&#xc9;" horiz-adv-x="1050" 
d="M485 1534q-8 0 -11 4t1 10l164 232q6 10 18 10h99q10 0 13 -5t-3 -13l-191 -230q-8 -8 -18 -8h-72zM213 0q-18 0 -18 18v1373q0 16 18 16h719q16 0 16 -14v-101q0 -16 -16 -16h-551q-18 0 -49 12q10 -25 10 -45v-397q0 -18 -10 -43q29 12 49 12h498q16 0 16 -16v-90
q0 -14 -16 -15h-498q-16 0 -49 11q10 -23 10 -43v-498q0 -20 -10 -45q33 12 49 12h594q16 0 16 -16v-99q0 -16 -16 -16h-762z" />
    <glyph glyph-name="Ecircumflex" unicode="&#xca;" horiz-adv-x="1050" 
d="M322 1520q-8 0 -11.5 5t2.5 11l201 215q10 10 18 10h97q8 0 18 -10l199 -215q6 -6 3 -11t-11 -5h-78q-8 0 -19 8l-137 127q-20 18 -24 33q-2 -14 -25 -33l-137 -127q-10 -8 -19 -8h-77zM213 0q-18 0 -18 18v1373q0 16 18 16h719q16 0 16 -14v-101q0 -16 -16 -16h-551
q-18 0 -49 12q10 -25 10 -45v-397q0 -18 -10 -43q29 12 49 12h498q16 0 16 -16v-90q0 -14 -16 -15h-498q-16 0 -49 11q10 -23 10 -43v-498q0 -20 -10 -45q33 12 49 12h594q16 0 16 -16v-99q0 -16 -16 -16h-762z" />
    <glyph glyph-name="Edieresis" unicode="&#xcb;" horiz-adv-x="1050" 
d="M367 1516q-16 0 -17 16v143q0 16 17 17h88q16 0 16 -17v-143q0 -16 -16 -16h-88zM698 1516q-16 0 -16 16v143q0 16 16 17h88q16 0 17 -17v-143q0 -16 -17 -16h-88zM213 0q-18 0 -18 18v1373q0 16 18 16h719q16 0 16 -14v-101q0 -16 -16 -16h-551q-18 0 -49 12
q10 -25 10 -45v-397q0 -18 -10 -43q29 12 49 12h498q16 0 16 -16v-90q0 -14 -16 -15h-498q-16 0 -49 11q10 -23 10 -43v-498q0 -20 -10 -45q33 12 49 12h594q16 0 16 -16v-99q0 -16 -16 -16h-762z" />
    <glyph glyph-name="Igrave" unicode="&#xcc;" horiz-adv-x="534" 
d="M193 1790q10 0 18 -10l162 -232q4 -6 2 -10t-10 -4h-74q-10 0 -17 8l-190 230q-6 8 -3 13t11 5h101zM324 1407q18 0 18 -14v-1377q0 -16 -18 -16h-113q-16 0 -16 16v1377q0 14 16 14h113z" />
    <glyph glyph-name="Iacute" unicode="&#xcd;" horiz-adv-x="534" 
d="M172 1534q-8 0 -10 4t2 10l162 232q8 10 20 10h98q8 0 11.5 -5t-2.5 -13l-189 -230q-8 -8 -18 -8h-74zM324 1407q18 0 18 -14v-1377q0 -16 -18 -16h-113q-16 0 -16 16v1377q0 14 16 14h113z" />
    <glyph glyph-name="Icircumflex" unicode="&#xce;" horiz-adv-x="534" 
d="M10 1520q-8 0 -11 5t1 11l201 215q10 10 18 10h96q8 0 19 -10l201 -215q4 -6 0.5 -11t-11.5 -5h-78q-8 0 -18 8l-135 127q-23 18 -25 33q-4 -14 -24 -33l-138 -127q-10 -8 -20 -8h-76zM324 1407q18 0 18 -14v-1377q0 -16 -18 -16h-113q-16 0 -16 16v1377q0 14 16 14h113z
" />
    <glyph glyph-name="Idieresis" unicode="&#xcf;" horiz-adv-x="534" 
d="M55 1516q-18 0 -18 16v143q0 16 18 17h86q16 0 17 -17v-143q0 -16 -17 -16h-86zM385 1516q-16 0 -16 16v143q0 16 16 17h88q16 0 16 -17v-143q0 -16 -16 -16h-88zM324 1407q18 0 18 -14v-1377q0 -16 -18 -16h-113q-16 0 -16 16v1377q0 14 16 14h113z" />
    <glyph glyph-name="Eth" unicode="&#xd0;" horiz-adv-x="1245" 
d="M766 1407q131 0 223 -90t92 -219v-787q0 -129 -92 -220t-223 -91h-555q-16 0 -16 16v1375q0 16 16 16h555zM932 322v759q0 92 -52.5 143.5t-148.5 51.5h-348q-20 0 -49 12q8 -25 8 -47v-442q0 -31 -12 -58q25 12 51 13h377q16 0 16 -15v-77q0 -14 -16 -15h-377
q-25 0 -51 10q12 -18 12 -47v-446q0 -20 -10 -43q31 10 51 10h348q96 0 148.5 49.5t52.5 141.5z" />
    <glyph glyph-name="Ntilde" unicode="&#xd1;" horiz-adv-x="1370" 
d="M950 1702q14 0 13 -14q-6 -74 -54.5 -122t-115.5 -48q-66 0 -134 55q-59 45 -94 45q-37 0 -61.5 -25.5t-28.5 -62.5q-2 -12 -14 -12h-58q-14 0 -12 14q8 76 55.5 124t114.5 48q66 0 133 -55q59 -47 94 -47q37 0 61.5 26.5t29.5 61.5q2 12 14 12h57zM1157 1407
q18 0 19 -16v-1373q0 -18 -19 -18h-108q-14 0 -21 12l-641 1071q-45 74 -59 107q14 -92 14 -121v-1051q0 -18 -18 -18h-111q-18 0 -18 18v1373q0 16 18 16h115q14 0 20 -10l635 -1059q43 -70 57 -107q-12 94 -12 121v1039q0 16 19 16h110z" />
    <glyph glyph-name="Ograve" unicode="&#xd2;" horiz-adv-x="1236" 
d="M551 1790q12 0 18 -10l164 -232q4 -6 1 -10t-11 -4h-72q-10 0 -18 8l-191 230q-6 8 -3 13t14 5h98zM475 -4q-127 0 -218 91t-91 218v797q0 127 91 218t218 91h287q127 0 218 -91t91 -218v-797q0 -127 -91 -218t-218 -91h-287zM518 127h203q94 0 148.5 51t54.5 148v755
q0 96 -54.5 147.5t-148.5 51.5h-203q-96 0 -150.5 -51t-54.5 -148v-755q0 -96 54.5 -147.5t150.5 -51.5z" />
    <glyph glyph-name="Oacute" unicode="&#xd3;" horiz-adv-x="1236" 
d="M532 1534q-8 0 -11 4t1 10l164 232q6 10 19 10h98q8 0 11 -5t-1 -13l-190 -230q-8 -8 -19 -8h-72zM475 -4q-127 0 -218 91t-91 218v797q0 127 91 218t218 91h287q127 0 218 -91t91 -218v-797q0 -127 -91 -218t-218 -91h-287zM518 127h203q94 0 148.5 51t54.5 148v755
q0 96 -54.5 147.5t-148.5 51.5h-203q-96 0 -150.5 -51t-54.5 -148v-755q0 -96 54.5 -147.5t150.5 -51.5z" />
    <glyph glyph-name="Ocircumflex" unicode="&#xd4;" horiz-adv-x="1236" 
d="M369 1520q-8 0 -11.5 5t0.5 11l203 215q8 10 17 10h96q8 0 18 -10l201 -215q6 -6 2 -11t-12 -5h-76q-10 0 -19 8l-137 127q-23 18 -24 33q-4 -14 -25 -33l-137 -127q-10 -8 -19 -8h-77zM475 -4q-127 0 -218 91t-91 218v797q0 127 91 218t218 91h287q127 0 218 -91
t91 -218v-797q0 -127 -91 -218t-218 -91h-287zM518 127h203q94 0 148.5 51t54.5 148v755q0 96 -54.5 147.5t-148.5 51.5h-203q-96 0 -150.5 -51t-54.5 -148v-755q0 -96 54.5 -147.5t150.5 -51.5z" />
    <glyph glyph-name="Otilde" unicode="&#xd5;" horiz-adv-x="1236" 
d="M877 1702q14 0 14 -14q-8 -74 -56.5 -122t-115.5 -48q-63 0 -133 55q-57 45 -94 45t-61.5 -25.5t-29.5 -62.5q-2 -12 -14 -12h-55q-16 0 -15 14q8 76 56.5 124t115.5 48q63 0 132 -55q59 -47 94 -47q37 0 61.5 26.5t28.5 61.5q4 12 14 12h58zM475 -4q-127 0 -218 91
t-91 218v797q0 127 91 218t218 91h287q127 0 218 -91t91 -218v-797q0 -127 -91 -218t-218 -91h-287zM518 127h203q94 0 148.5 51t54.5 148v755q0 96 -54.5 147.5t-148.5 51.5h-203q-96 0 -150.5 -51t-54.5 -148v-755q0 -96 54.5 -147.5t150.5 -51.5z" />
    <glyph glyph-name="Odieresis" unicode="&#xd6;" horiz-adv-x="1236" 
d="M414 1516q-16 0 -17 16v143q0 16 17 17h88q16 0 16 -17v-143q0 -16 -16 -16h-88zM745 1516q-16 0 -16 16v143q0 16 16 17h89q16 0 16 -17v-143q0 -16 -16 -16h-89zM475 -4q-127 0 -218 91t-91 218v797q0 127 91 218t218 91h287q127 0 218 -91t91 -218v-797
q0 -127 -91 -218t-218 -91h-287zM518 127h203q94 0 148.5 51t54.5 148v755q0 96 -54.5 147.5t-148.5 51.5h-203q-96 0 -150.5 -51t-54.5 -148v-755q0 -96 54.5 -147.5t150.5 -51.5z" />
    <glyph glyph-name="multiply" unicode="&#xd7;" horiz-adv-x="944" 
d="M809 438q12 -10 0 -20l-57 -62q-12 -10 -23 0l-258 260l-258 -260q-10 -10 -20 0l-60 62q-10 10 0 20l258 262l-258 261q-10 10 0 20l60 61q10 10 20 0l258 -260l258 260q10 10 23 0l57 -61q12 -10 0 -20l-258 -261z" />
    <glyph glyph-name="Oslash" unicode="&#xd8;" horiz-adv-x="1239" 
d="M934 1358q63 -43 101 -110.5t38 -145.5v-797q0 -127 -91 -218t-220 -91h-248q-25 0 -39 12q-2 -35 -4 -39l-70 -200q-4 -10 -18 -11h-74q-18 0 -16 17l74 213q6 16 18 35q-25 -2 -43 8q-80 41 -128 113.5t-48 160.5v797q0 127 91 218t218 91h258q51 0 74 -14q-2 29 2 39
l63 186q4 12 19 12h80q18 0 16 -18l-72 -209q-6 -16 -20 -39q23 2 39 -10zM926 326v751q0 100 -53.5 151.5t-151.5 51.5h-203q-98 0 -151.5 -51t-53.5 -152v-751q0 -199 205 -199h203q205 0 205 199z" />
    <glyph glyph-name="Ugrave" unicode="&#xd9;" horiz-adv-x="1253" 
d="M549 1790q12 0 20 -10l162 -232q4 -6 2 -10t-10 -4h-74q-10 0 -18 8l-189 230q-6 8 -3 13t12 5h98zM1063 1407q16 0 16 -16v-1084q0 -129 -92 -220t-221 -91h-277q-131 0 -223 91t-92 220v1084q0 16 19 16h110q18 0 19 -16v-1065q0 -96 54 -147.5t150 -51.5h203
q94 0 148.5 51t54.5 148v1065q0 16 18 16h113z" />
    <glyph glyph-name="Uacute" unicode="&#xda;" horiz-adv-x="1253" 
d="M530 1534q-8 0 -11 4t3 10l162 232q8 10 18 10h101q8 0 11 -5t-3 -13l-190 -230q-6 -8 -17 -8h-74zM1063 1407q16 0 16 -16v-1084q0 -129 -92 -220t-221 -91h-277q-131 0 -223 91t-92 220v1084q0 16 19 16h110q18 0 19 -16v-1065q0 -96 54 -147.5t150 -51.5h203
q94 0 148.5 51t54.5 148v1065q0 16 18 16h113z" />
    <glyph glyph-name="Ucircumflex" unicode="&#xdb;" horiz-adv-x="1253" 
d="M369 1520q-8 0 -12.5 5t1.5 11l201 215q10 10 19 10h96q8 0 18 -10l201 -215q4 -6 1 -11t-11 -5h-78q-8 0 -19 8l-135 127q-23 18 -24 33q-4 -14 -27 -33l-137 -127q-8 -8 -19 -8h-75zM1063 1407q16 0 16 -16v-1084q0 -129 -92 -220t-221 -91h-277q-131 0 -223 91
t-92 220v1084q0 16 19 16h110q18 0 19 -16v-1065q0 -96 54 -147.5t150 -51.5h203q94 0 148.5 51t54.5 148v1065q0 16 18 16h113z" />
    <glyph glyph-name="Udieresis" unicode="&#xdc;" horiz-adv-x="1253" 
d="M412 1516q-16 0 -17 16v143q0 16 17 17h88q16 0 16 -17v-143q0 -16 -16 -16h-88zM743 1516q-16 0 -16 16v143q0 16 16 17h88q16 0 17 -17v-143q0 -16 -17 -16h-88zM1063 1407q16 0 16 -16v-1084q0 -129 -92 -220t-221 -91h-277q-131 0 -223 91t-92 220v1084q0 16 19 16
h110q18 0 19 -16v-1065q0 -96 54 -147.5t150 -51.5h203q94 0 148.5 51t54.5 148v1065q0 16 18 16h113z" />
    <glyph glyph-name="Yacute" unicode="&#xdd;" horiz-adv-x="1052" 
d="M432 1534q-8 0 -11 4t1 10l162 232q8 10 20 10h98q8 0 11.5 -5t-2.5 -13l-189 -230q-8 -8 -18 -8h-72zM469 0q-18 0 -18 18v510q0 4 4 11v4q-10 10 -15 18l-463 825q-12 20 13 21h121q16 0 22 -12l365 -656q16 -31 28 -75q10 45 27 75l367 656q6 12 20 12h121
q25 0 14 -21l-463 -825q-6 -10 -14 -18v-4q2 -6 2 -11v-510q0 -18 -18 -18h-113z" />
    <glyph glyph-name="Thorn" unicode="&#xde;" horiz-adv-x="1175" 
d="M762 963q127 0 217 -89.5t90 -214.5v-110q0 -125 -92 -214t-221 -89h-369q-33 0 -51 10q4 -18 4 -47v-193q0 -16 -16 -16h-111q-16 0 -16 16v1373q0 16 16 16h111q16 0 16 -16v-394q0 -25 -4 -39q16 6 43 7h383zM922 563v74q0 94 -52.5 145.5t-150.5 51.5h-332
q-33 0 -51 10q4 -18 4 -47v-387q0 -29 -6 -45q18 6 53 6h332q98 0 150.5 50t52.5 142z" />
    <glyph glyph-name="germandbls" unicode="&#xdf;" horiz-adv-x="1202" 
d="M766 1608q131 0 221 -89t90 -219v-215q0 -158 -67 -217q-8 -8 -29 -20q14 -8 29 -21q47 -39 75.5 -97t28.5 -120v-303q0 -129 -92 -218t-223 -89h-215q-18 0 -19 18v93q0 16 17 16h176q98 0 150.5 49t52.5 141v279q0 92 -53.5 143.5t-149.5 51.5h-178q-16 0 -17 16v78
q0 16 17 16h178q96 0 134 37t38 131v217q0 92 -53.5 143.5t-149.5 51.5h-182q-98 0 -150.5 -51.5t-52.5 -143.5l-2 -1266q0 -20 -18 -20h-109q-18 0 -18 18v1285q0 127 90 216t221 89h260z" />
    <glyph glyph-name="agrave" unicode="&#xe0;" horiz-adv-x="1103" 
d="M465 1552q10 0 18 -10l168 -246q6 -8 3 -12t-11 -4h-74q-10 0 -18 8l-197 246q-6 6 -3 12t11 6h103zM633 1133q125 0 215 -93.5t90 -222.5v-792q0 -14 -14 -15h-103q-16 0 -16 13v20q0 10 10 76q-16 -31 -59 -64q-74 -59 -176 -59h-174q-125 0 -214.5 85t-89.5 210v65
q0 125 88.5 206t225.5 81h342q27 0 45 -10q-8 23 -8 41v135q0 94 -51.5 145.5t-147.5 51.5h-123q-92 0 -140 -50.5t-48 -142.5v-8q0 -12 -13 -12h-110q-16 0 -17 16v25q0 121 88.5 210t210.5 89h189zM596 123q96 0 147.5 50t51.5 142v197q0 6 6 35q-18 -8 -43 -8h-314
q-94 0 -146 -52.5t-52 -146.5v-21q0 -197 207 -196h143z" />
    <glyph glyph-name="aacute" unicode="&#xe1;" horiz-adv-x="1103" 
d="M446 1280q-8 0 -11 4t1 12l168 246q8 10 21 10h100q8 0 11 -6t-1 -12l-196 -246q-8 -8 -19 -8h-74zM633 1133q125 0 215 -93.5t90 -222.5v-792q0 -14 -14 -15h-103q-16 0 -16 13v20q0 10 10 76q-16 -31 -59 -64q-74 -59 -176 -59h-174q-125 0 -214.5 85t-89.5 210v65
q0 125 88.5 206t225.5 81h342q27 0 45 -10q-8 23 -8 41v135q0 94 -51.5 145.5t-147.5 51.5h-123q-92 0 -140 -50.5t-48 -142.5v-8q0 -12 -13 -12h-110q-16 0 -17 16v25q0 121 88.5 210t210.5 89h189zM596 123q96 0 147.5 50t51.5 142v197q0 6 6 35q-18 -8 -43 -8h-314
q-94 0 -146 -52.5t-52 -146.5v-21q0 -197 207 -196h143z" />
    <glyph glyph-name="acircumflex" unicode="&#xe2;" horiz-adv-x="1103" 
d="M276 1264q-8 0 -11 5t1 11l209 229q10 12 19 13h98q8 0 18 -13l209 -229q4 -6 1 -11t-11 -5h-78q-10 0 -20 10l-142 133q-23 20 -26 35q-2 -14 -25 -35l-143 -133q-10 -10 -21 -10h-78zM633 1133q125 0 215 -93.5t90 -222.5v-792q0 -14 -14 -15h-103q-16 0 -16 13v20
q0 10 10 76q-16 -31 -59 -64q-74 -59 -176 -59h-174q-125 0 -214.5 85t-89.5 210v65q0 125 88.5 206t225.5 81h342q27 0 45 -10q-8 23 -8 41v135q0 94 -51.5 145.5t-147.5 51.5h-123q-92 0 -140 -50.5t-48 -142.5v-8q0 -12 -13 -12h-110q-16 0 -17 16v25q0 121 88.5 210
t210.5 89h189zM596 123q96 0 147.5 50t51.5 142v197q0 6 6 35q-18 -8 -43 -8h-314q-94 0 -146 -52.5t-52 -146.5v-21q0 -197 207 -196h143z" />
    <glyph glyph-name="atilde" unicode="&#xe3;" horiz-adv-x="1103" 
d="M803 1460q14 0 12 -16q-6 -80 -56 -131t-120 -51q-68 0 -137 59q-61 49 -99 49q-39 0 -64.5 -27.5t-29.5 -66.5q-2 -14 -14 -14h-59q-14 0 -13 16q6 80 56.5 131t119.5 51q68 0 140 -59q59 -49 96 -49q39 0 64.5 27.5t29.5 66.5q2 14 14 14h60zM633 1133q125 0 215 -93.5
t90 -222.5v-792q0 -14 -14 -15h-103q-16 0 -16 13v20q0 10 10 76q-16 -31 -59 -64q-74 -59 -176 -59h-174q-125 0 -214.5 85t-89.5 210v65q0 125 88.5 206t225.5 81h342q27 0 45 -10q-8 23 -8 41v135q0 94 -51.5 145.5t-147.5 51.5h-123q-92 0 -140 -50.5t-48 -142.5v-8
q0 -12 -13 -12h-110q-16 0 -17 16v25q0 121 88.5 210t210.5 89h189zM596 123q96 0 147.5 50t51.5 142v197q0 6 6 35q-18 -8 -43 -8h-314q-94 0 -146 -52.5t-52 -146.5v-21q0 -197 207 -196h143z" />
    <glyph glyph-name="adieresis" unicode="&#xe4;" horiz-adv-x="1103" 
d="M324 1260q-16 0 -17 18v152q0 16 17 16h90q16 0 16 -16v-152q0 -18 -16 -18h-90zM666 1260q-16 0 -17 18v152q0 16 17 16h90q16 0 16 -16v-152q0 -18 -16 -18h-90zM633 1133q125 0 215 -93.5t90 -222.5v-792q0 -14 -14 -15h-103q-16 0 -16 13v20q0 10 10 76
q-16 -31 -59 -64q-74 -59 -176 -59h-174q-125 0 -214.5 85t-89.5 210v65q0 125 88.5 206t225.5 81h342q27 0 45 -10q-8 23 -8 41v135q0 94 -51.5 145.5t-147.5 51.5h-123q-92 0 -140 -50.5t-48 -142.5v-8q0 -12 -13 -12h-110q-16 0 -17 16v25q0 121 88.5 210t210.5 89h189z
M596 123q96 0 147.5 50t51.5 142v197q0 6 6 35q-18 -8 -43 -8h-314q-94 0 -146 -52.5t-52 -146.5v-21q0 -197 207 -196h143z" />
    <glyph glyph-name="aring" unicode="&#xe5;" horiz-adv-x="1103" 
d="M698 1124q102 -25 171 -110.5t69 -196.5v-792q0 -14 -14 -15h-103q-16 0 -16 13v20q0 10 10 76q-16 -31 -59 -64q-74 -59 -176 -59h-174q-125 0 -214.5 85t-89.5 210v65q0 125 88.5 206t225.5 81h342q27 0 45 -10q-8 23 -8 41v135q0 94 -51.5 145.5t-147.5 51.5h-123
q-92 0 -140 -50.5t-48 -142.5v-8q0 -12 -13 -12h-110q-16 0 -17 16v25q0 104 68 187t170 103q-51 59 -51 136v24q0 84 60.5 143.5t144.5 59.5h8q84 0 144.5 -59.5t60.5 -143.5v-24q-1 -79 -52 -136zM424 1280v-18q0 -53 34 -91t81 -38h4q47 0 80.5 37.5t33.5 91.5v18
q0 53 -33.5 90t-80.5 37h-4q-47 0 -81 -37t-34 -90zM795 315v197q0 6 6 35q-18 -8 -43 -8h-314q-94 0 -146 -52.5t-52 -146.5v-21q0 -197 207 -196h143q96 0 147.5 50t51.5 142z" />
    <glyph glyph-name="ae" unicode="&#xe6;" horiz-adv-x="1744" 
d="M406 -4q-125 0 -214.5 85t-89.5 210v71q0 125 88.5 206t225.5 81h342q27 0 45 -10q-8 23 -8 41v129q0 92 -51.5 143.5t-147.5 51.5h-123q-92 0 -140 -49.5t-48 -141.5v-8q0 -12 -13 -12h-112q-14 0 -15 16v25q0 121 88.5 210t210.5 89h189q74 0 137.5 -37t101.5 -99
q39 61 104.5 98.5t143.5 37.5h189q127 0 225 -92.5t98 -221.5v-260q0 -14 -14 -14h-635q-37 0 -53 10q10 -16 10 -45v-178q0 -98 52 -152.5t153 -54.5h137q92 0 141.5 48t49.5 142v7q2 12 16 12h110q16 0 15 -15v-20q-6 -125 -96.5 -214t-210.5 -89h-174q-82 0 -153 40
t-110 105q-37 -70 -101 -107.5t-142 -37.5h-221zM930 639q18 10 53 10h463q35 0 53 -10q-10 23 -10 49v125q0 92 -51.5 141.5t-147.5 49.5h-151q-96 0 -147.5 -49.5t-51.5 -141.5v-125q0 -26 -10 -49zM453 123h143q96 0 147.5 50t51.5 142v203q0 6 6 35q-18 -8 -43 -8h-314
q-94 0 -146 -52.5t-52 -146.5v-27q0 -196 207 -196z" />
    <glyph glyph-name="ccedilla" unicode="&#xe7;" horiz-adv-x="1071" 
d="M823 760q-16 0 -16 16v23q0 205 -203 205h-106q-203 0 -203 -218v-444q0 -219 203 -219h106q203 0 203 207v22q0 16 16 17h111q16 0 16 -17v-37q0 -129 -88 -224t-231 -95h-8l-52 -76h19q72 0 125 -57.5t53 -132.5v-33q0 -76 -51 -138.5t-127 -62.5h-184q-14 0 -15 17v47
q0 16 15 16h147q55 0 89 41t36 102q0 57 -35 93t-90 36h-92q-8 0 -13.5 4.5t-1.5 10.5l80 133h-53q-141 0 -231 94t-90 236v475q0 143 90 237.5t231 94.5h158q143 0 231 -95.5t88 -224.5v-37q0 -16 -16 -16h-111z" />
    <glyph glyph-name="egrave" unicode="&#xe8;" horiz-adv-x="1095" 
d="M494 1552q10 0 18 -10l168 -246q6 -6 3 -11t-11 -5h-74q-10 0 -18 8l-197 246q-6 6 -3 12t11 6h103zM659 1133q127 0 225.5 -92.5t98.5 -221.5v-260q0 -14 -14 -14h-635q-37 0 -53 10q10 -16 10 -45v-180q0 -98 52 -152.5t153 -54.5h137q92 0 141 49t49 141v9q2 12 17 12
h110q16 0 15 -15v-20q-6 -125 -96.5 -214t-211.5 -89h-186q-135 0 -229.5 95t-94.5 233v479q0 135 94.5 232.5t229.5 97.5h188zM797 649q35 0 53 -10q-10 23 -10 49v127q0 90 -51.5 140.5t-147.5 50.5h-152q-94 0 -146 -50.5t-52 -140.5v-127q0 -27 -10 -49q18 10 53 10h463
z" />
    <glyph glyph-name="eacute" unicode="&#xe9;" horiz-adv-x="1095" 
d="M475 1280q-8 0 -11 5t1 11l168 246q8 10 20 10h101q8 0 11 -6t-3 -12l-195 -246q-8 -8 -18 -8h-74zM659 1133q127 0 225.5 -92.5t98.5 -221.5v-260q0 -14 -14 -14h-635q-37 0 -53 10q10 -16 10 -45v-180q0 -98 52 -152.5t153 -54.5h137q92 0 141 49t49 141v9q2 12 17 12
h110q16 0 15 -15v-20q-6 -125 -96.5 -214t-211.5 -89h-186q-135 0 -229.5 95t-94.5 233v479q0 135 94.5 232.5t229.5 97.5h188zM797 649q35 0 53 -10q-10 23 -10 49v127q0 90 -51.5 140.5t-147.5 50.5h-152q-94 0 -146 -50.5t-52 -140.5v-127q0 -27 -10 -49q18 10 53 10h463
z" />
    <glyph glyph-name="ecircumflex" unicode="&#xea;" horiz-adv-x="1095" 
d="M305 1264q-8 0 -11 6t1 12l209 227q10 14 18 15h99q8 0 18 -15l209 -227q4 -6 1 -12t-11 -6h-78q-10 0 -21 10l-141 133q-23 23 -27 35q-2 -12 -24 -35l-144 -133q-10 -10 -20 -10h-78zM659 1133q127 0 225.5 -92.5t98.5 -221.5v-260q0 -14 -14 -14h-635q-37 0 -53 10
q10 -16 10 -45v-180q0 -98 52 -152.5t153 -54.5h137q92 0 141 49t49 141v9q2 12 17 12h110q16 0 15 -15v-20q-6 -125 -96.5 -214t-211.5 -89h-186q-135 0 -229.5 95t-94.5 233v479q0 135 94.5 232.5t229.5 97.5h188zM797 649q35 0 53 -10q-10 23 -10 49v127
q0 90 -51.5 140.5t-147.5 50.5h-152q-94 0 -146 -50.5t-52 -140.5v-127q0 -27 -10 -49q18 10 53 10h463z" />
    <glyph glyph-name="edieresis" unicode="&#xeb;" horiz-adv-x="1095" 
d="M352 1262q-16 0 -16 16v152q0 18 16 18h90q16 0 17 -18v-152q0 -16 -17 -16h-90zM694 1262q-16 0 -16 16v152q0 18 16 18h90q16 0 17 -18v-152q0 -16 -17 -16h-90zM659 1133q127 0 225.5 -92.5t98.5 -221.5v-260q0 -14 -14 -14h-635q-37 0 -53 10q10 -16 10 -45v-180
q0 -98 52 -152.5t153 -54.5h137q92 0 141 49t49 141v9q2 12 17 12h110q16 0 15 -15v-20q-6 -125 -96.5 -214t-211.5 -89h-186q-135 0 -229.5 95t-94.5 233v479q0 135 94.5 232.5t229.5 97.5h188zM797 649q35 0 53 -10q-10 23 -10 49v127q0 90 -51.5 140.5t-147.5 50.5h-152
q-94 0 -146 -50.5t-52 -140.5v-127q0 -27 -10 -49q18 10 53 10h463z" />
    <glyph glyph-name="igrave" unicode="&#xec;" horiz-adv-x="505" 
d="M176 1552q12 0 21 -10l168 -246q4 -6 2 -11t-13 -5h-71q-12 0 -19 8l-196 246q-6 6 -3 12t11 6h100zM309 1118q14 0 15 -14v-1079q0 -14 -15 -15h-112q-16 0 -17 15v1079q0 14 17 14h112z" />
    <glyph glyph-name="iacute" unicode="&#xed;" horiz-adv-x="505" 
d="M158 1280q-8 0 -11.5 5t3.5 11l167 246q8 10 21 10h100q8 0 11.5 -6t-3.5 -12l-196 -246q-6 -8 -19 -8h-73zM309 1118q14 0 15 -14v-1079q0 -14 -15 -15h-112q-16 0 -17 15v1079q0 14 17 14h112z" />
    <glyph glyph-name="icircumflex" unicode="&#xee;" horiz-adv-x="505" 
d="M-10 1264q-8 0 -12.5 6t2.5 12l208 227q10 14 19 15h98q8 0 19 -15l208 -227q4 -6 1 -12t-11 -6h-80q-8 0 -18 10l-141 133q-23 23 -27 35q-4 -12 -27 -35l-143 -133q-8 -10 -18 -10h-78zM309 1118q14 0 15 -14v-1079q0 -14 -15 -15h-112q-16 0 -17 15v1079q0 14 17 14
h112z" />
    <glyph glyph-name="idieresis" unicode="&#xef;" horiz-adv-x="505" 
d="M37 1262q-16 0 -17 16v152q0 18 17 18h88q18 0 18 -18v-152q0 -16 -18 -16h-88zM379 1262q-16 0 -17 16v152q0 18 17 18h90q16 0 16 -18v-152q0 -16 -16 -16h-90zM309 1118q14 0 15 -14v-1079q0 -14 -15 -15h-112q-16 0 -17 15v1079q0 14 17 14h112z" />
    <glyph glyph-name="eth" unicode="&#xf0;" horiz-adv-x="1128" 
d="M950 707q4 -10 14.5 -34t15.5 -37t9 -31.5t4 -35.5v-204q0 -139 -102.5 -254t-231.5 -115h-198q-129 0 -231.5 114.5t-102.5 254.5v204q0 139 102.5 254t231.5 115h235l-123 270l-143 -90q-18 -10 -18 10v62q0 12 10 18l119 72l-92 201q-8 18 12 18h114q12 0 17 -12
l63 -137l172 106q18 12 19 -10v-60q0 -12 -10 -18l-148 -90zM852 375v178q0 18 -5 34.5t-15.5 38t-14.5 31.5q-37 86 -88 154h-229q-100 0 -165 -73.5t-65 -184.5v-178q0 -109 63.5 -180.5t166.5 -71.5h121q102 0 166.5 71.5t64.5 180.5z" />
    <glyph glyph-name="ntilde" unicode="&#xf1;" horiz-adv-x="1169" 
d="M877 1460q16 0 14 -16q-8 -80 -57.5 -131t-118.5 -51q-68 0 -140 59q-61 49 -96 49q-41 0 -66.5 -27.5t-29.5 -66.5q-2 -12 -14 -12h-58q-16 0 -14 14q8 80 57 131t121 51q66 0 137 -59q61 -49 99 -49q39 0 64.5 27.5t29.5 66.5q2 14 14 14h58zM694 1133
q129 0 220.5 -94.5t91.5 -227.5v-786q0 -14 -15 -15h-112q-16 0 -17 15v763q0 217 -209 218h-129q-96 0 -148 -51.5t-52 -147.5v-782q0 -14 -15 -15h-112q-16 0 -17 15v1079q0 14 17 14h100q18 0 18 -12v-14q0 -20 -5 -54t-5 -39q20 45 57 74q74 59 179 60h153z" />
    <glyph glyph-name="ograve" unicode="&#xf2;" horiz-adv-x="1114" 
d="M483 1552q12 0 19 -10l170 -246q4 -6 1 -11t-11 -5h-74q-10 0 -19 8l-196 246q-6 6 -3 12t13 6h100zM645 1133q141 0 231.5 -94.5t90.5 -237.5v-475q0 -141 -90.5 -235.5t-229.5 -94.5h-180q-139 0 -229.5 94t-90.5 236v475q0 143 90.5 237.5t229.5 94.5h178zM621 1004
h-127q-203 0 -203 -218v-446q0 -217 203 -217h127q203 0 202 217v446q1 218 -202 218z" />
    <glyph glyph-name="oacute" unicode="&#xf3;" horiz-adv-x="1114" 
d="M465 1280q-8 0 -11 5t1 11l168 246q8 10 20 10h100q8 0 11.5 -6t-0.5 -12l-197 -246q-8 -8 -18 -8h-74zM645 1133q141 0 231.5 -94.5t90.5 -237.5v-475q0 -141 -90.5 -235.5t-229.5 -94.5h-180q-139 0 -229.5 94t-90.5 236v475q0 143 90.5 237.5t229.5 94.5h178z
M621 1004h-127q-203 0 -203 -218v-446q0 -217 203 -217h127q203 0 202 217v446q1 218 -202 218z" />
    <glyph glyph-name="ocircumflex" unicode="&#xf4;" horiz-adv-x="1114" 
d="M295 1264q-8 0 -11 6t1 12l211 227q8 14 18 15h96q8 0 19 -15l209 -227q6 -6 2 -12t-13 -6h-77q-10 0 -21 10l-141 133q-23 23 -27 35q-2 -12 -24 -35l-144 -133q-10 -10 -20 -10h-78zM645 1133q141 0 231.5 -94.5t90.5 -237.5v-475q0 -141 -90.5 -235.5t-229.5 -94.5
h-180q-139 0 -229.5 94t-90.5 236v475q0 143 90.5 237.5t229.5 94.5h178zM621 1004h-127q-203 0 -203 -218v-446q0 -217 203 -217h127q203 0 202 217v446q1 218 -202 218z" />
    <glyph glyph-name="otilde" unicode="&#xf5;" horiz-adv-x="1114" 
d="M821 1460q14 0 15 -16q-8 -80 -58.5 -131t-120.5 -51q-68 0 -137 59q-61 49 -98 49q-39 0 -64.5 -27.5t-29.5 -66.5q-2 -12 -15 -12h-59q-14 0 -12 14q8 80 57 131t119 51q68 0 139 -59q59 -49 96 -49q39 0 64.5 27.5t30.5 66.5q4 14 14 14h59zM645 1133
q141 0 231.5 -94.5t90.5 -237.5v-475q0 -141 -90.5 -235.5t-229.5 -94.5h-180q-139 0 -229.5 94t-90.5 236v475q0 143 90.5 237.5t229.5 94.5h178zM621 1004h-127q-203 0 -203 -218v-446q0 -217 203 -217h127q203 0 202 217v446q1 218 -202 218z" />
    <glyph glyph-name="odieresis" unicode="&#xf6;" horiz-adv-x="1114" 
d="M342 1262q-16 0 -16 16v152q0 18 16 18h90q16 0 17 -18v-152q0 -16 -17 -16h-90zM684 1262q-16 0 -16 16v152q0 18 16 18h90q16 0 17 -18v-152q0 -16 -17 -16h-90zM645 1133q141 0 231.5 -94.5t90.5 -237.5v-475q0 -141 -90.5 -235.5t-229.5 -94.5h-180q-139 0 -229.5 94
t-90.5 236v475q0 143 90.5 237.5t229.5 94.5h178zM621 1004h-127q-203 0 -203 -218v-446q0 -217 203 -217h127q203 0 202 217v446q1 218 -202 218z" />
    <glyph glyph-name="divide" unicode="&#xf7;" horiz-adv-x="1142" 
d="M518 1040q-16 0 -16 17v145q0 18 16 19h107q18 0 18 -19v-145q0 -16 -18 -17h-107zM143 641q-14 0 -14 14v86q0 16 14 17h856q16 0 17 -17v-86q0 -14 -17 -14h-856zM518 154q-16 0 -16 16v147q0 16 16 17h107q18 0 18 -17v-147q0 -16 -18 -16h-107z" />
    <glyph glyph-name="oslash" unicode="&#xf8;" horiz-adv-x="1114" 
d="M643 -4h-143q-27 0 -51 6q-8 2 -25 10q2 -23 0 -26l-82 -246q-6 -12 -20 -12h-76q-18 0 -15 18l88 264q4 16 17 29q-18 -4 -31 4q-72 43 -115 118t-43 163v479q0 135 94.5 232.5t229.5 97.5h160q25 0 41 -5q10 -2 24 -10q-4 23 -2 29l78 231q6 12 21 13h81q18 0 15 -19
l-88 -260q-2 -12 -17 -25q18 -2 25 -6q72 -37 115 -112.5t43 -165.5v-479q0 -135 -94.5 -231.5t-229.5 -96.5zM823 340v444q0 219 -209 220h-114q-209 0 -209 -220v-444q0 -217 209 -217h114q209 0 209 217z" />
    <glyph glyph-name="ugrave" unicode="&#xf9;" horiz-adv-x="1159" 
d="M502 1552q12 0 18 -10l170 -246q4 -6 1 -11t-11 -5h-74q-10 0 -18 8l-197 246q-6 6 -3 12t13 6h101zM481 -4q-127 0 -219 94t-92 227v787q0 14 16 14h111q16 0 16 -14v-762q0 -217 209 -217h113q96 0 148.5 51t52.5 146v782q0 14 14 14h113q16 0 16 -14v-1079
q0 -14 -16 -15h-103q-16 0 -16 13v14q0 20 5 54t5 38q-20 -45 -57 -74q-74 -59 -179 -59h-137z" />
    <glyph glyph-name="uacute" unicode="&#xfa;" horiz-adv-x="1159" 
d="M483 1280q-8 0 -11 5t1 11l168 246q8 10 21 10h100q8 0 11 -6t-1 -12l-197 -246q-8 -8 -18 -8h-74zM481 -4q-127 0 -219 94t-92 227v787q0 14 16 14h111q16 0 16 -14v-762q0 -217 209 -217h113q96 0 148.5 51t52.5 146v782q0 14 14 14h113q16 0 16 -14v-1079
q0 -14 -16 -15h-103q-16 0 -16 13v14q0 20 5 54t5 38q-20 -45 -57 -74q-74 -59 -179 -59h-137z" />
    <glyph glyph-name="ucircumflex" unicode="&#xfb;" horiz-adv-x="1159" 
d="M313 1264q-8 0 -11 6t1 12l211 227q8 14 18 15h97q8 0 18 -15l209 -227q6 -6 2 -12t-12 -6h-78q-10 0 -20 10l-142 133q-23 23 -26 35q-2 -12 -25 -35l-143 -133q-10 -10 -21 -10h-78zM481 -4q-127 0 -219 94t-92 227v787q0 14 16 14h111q16 0 16 -14v-762
q0 -217 209 -217h113q96 0 148.5 51t52.5 146v782q0 14 14 14h113q16 0 16 -14v-1079q0 -14 -16 -15h-103q-16 0 -16 13v14q0 20 5 54t5 38q-20 -45 -57 -74q-74 -59 -179 -59h-137z" />
    <glyph glyph-name="udieresis" unicode="&#xfc;" horiz-adv-x="1159" 
d="M360 1262q-16 0 -16 16v152q0 18 16 18h91q16 0 16 -18v-152q0 -16 -16 -16h-91zM702 1262q-16 0 -16 16v152q0 18 16 18h91q16 0 16 -18v-152q0 -16 -16 -16h-91zM481 -4q-127 0 -219 94t-92 227v787q0 14 16 14h111q16 0 16 -14v-762q0 -217 209 -217h113
q96 0 148.5 51t52.5 146v782q0 14 14 14h113q16 0 16 -14v-1079q0 -14 -16 -15h-103q-16 0 -16 13v14q0 20 5 54t5 38q-20 -45 -57 -74q-74 -59 -179 -59h-137z" />
    <glyph glyph-name="yacute" unicode="&#xfd;" horiz-adv-x="995" 
d="M401 1280q-8 0 -11 5t1 11l170 246q6 10 19 10h100q10 0 13 -6t-3 -12l-196 -246q-8 -8 -19 -8h-74zM940 1128q20 0 14 -20l-469 -1323q-49 -141 -120.5 -218t-190.5 -77h-65q-16 0 -17 18v99q0 16 14 16h68q47 0 78 11.5t53.5 44t33.5 58t32 83.5l59 172q0 2 7 8l7 6
q-4 -2 -13 0t-9 6l-387 1096q-8 20 12 20h107q14 0 18 -14l303 -868q16 -49 19 -84q4 37 20 84l301 868q4 14 19 14h106z" />
    <glyph glyph-name="thorn" unicode="&#xfe;" horiz-adv-x="1138" 
d="M674 1133q131 0 222 -94.5t91 -229.5v-490q0 -135 -91 -229t-222 -94h-119q-106 0 -182 59q-41 33 -60 64q12 -68 13 -78v-545q0 -14 -17 -14h-114q-16 0 -17 14v2136q0 14 17 15h114q16 0 17 -15v-545q0 -10 -13 -77q16 31 60 63q76 59 182 60h119zM844 786
q0 109 -55.5 163.5t-159.5 54.5h-109q-96 0 -145 -51.5t-49 -147.5v-481q0 -96 49 -147.5t145 -51.5h109q104 0 159.5 54t55.5 163v444z" />
    <glyph glyph-name="ydieresis" unicode="&#xff;" horiz-adv-x="995" 
d="M279 1262q-16 0 -17 16v152q0 18 17 18h90q16 0 16 -18v-152q0 -16 -16 -16h-90zM623 1262q-18 0 -19 16v152q0 18 19 18h88q16 0 16 -18v-152q0 -16 -16 -16h-88zM940 1128q20 0 14 -20l-469 -1323q-49 -141 -120.5 -218t-190.5 -77h-65q-16 0 -17 18v99q0 16 14 16h68
q47 0 78 11.5t53.5 44t33.5 58t32 83.5l59 172q0 2 7 8l7 6q-4 -2 -13 0t-9 6l-389 1096q-6 20 14 20h107q14 0 18 -14l303 -868q16 -49 19 -84q4 37 20 84l301 868q4 14 19 14h106z" />
    <glyph glyph-name="Amacron" unicode="&#x100;" 
d="M332 1544q-16 0 -17 17v63q0 16 17 16h547q18 0 18 -16v-63q0 -16 -18 -17h-547zM1122 18q6 -18 -12 -18h-121q-14 0 -18 12l-88 375q-2 4 -4 39q-18 -8 -41 -8h-473q-20 0 -41 8q-2 -35 -2 -39l-91 -375q-2 -12 -18 -12h-121q-16 0 -12 16l356 1379q4 12 19 12h293
q16 0 18 -12zM813 539q20 0 47 -7q-23 29 -26 52l-162 651q-6 27 6 47q-8 -8 -23 -8h-108q-14 0 -23 8q14 -20 6 -47l-159 -651q-6 -23 -29 -52q27 6 47 7h424z" />
    <glyph glyph-name="amacron" unicode="&#x101;" horiz-adv-x="1103" 
d="M254 1294q-16 0 -16 19v67q0 16 16 17h567q16 0 17 -17v-67q0 -18 -17 -19h-567zM633 1133q125 0 215 -93.5t90 -222.5v-792q0 -14 -14 -15h-103q-16 0 -16 13v20q0 10 10 76q-16 -31 -59 -64q-74 -59 -176 -59h-174q-125 0 -214.5 85t-89.5 210v65q0 125 88.5 206
t225.5 81h342q27 0 45 -10q-8 23 -8 41v135q0 94 -51.5 145.5t-147.5 51.5h-123q-92 0 -140 -50.5t-48 -142.5v-8q0 -12 -13 -12h-110q-16 0 -17 16v25q0 121 88.5 210t210.5 89h189zM596 123q96 0 147.5 50t51.5 142v197q0 6 6 35q-18 -8 -43 -8h-314q-94 0 -146 -52.5
t-52 -146.5v-21q0 -197 207 -196h143z" />
    <glyph glyph-name="Abreve" unicode="&#x102;" 
d="M866 1729q14 0 13 -15q-4 -82 -72 -138t-154 -56h-92q-82 2 -147.5 57t-69.5 137q-2 14 12 15h64q10 0 12 -13q6 -45 48 -78.5t112 -33.5h39q70 0 111.5 32.5t48.5 79.5q2 12 12 13h63zM1122 18q6 -18 -12 -18h-121q-14 0 -18 12l-88 375q-2 4 -4 39q-18 -8 -41 -8h-473
q-20 0 -41 8q-2 -35 -2 -39l-91 -375q-2 -12 -18 -12h-121q-16 0 -12 16l356 1379q4 12 19 12h293q16 0 18 -12zM813 539q20 0 47 -7q-23 29 -26 52l-162 651q-6 27 6 47q-8 -8 -23 -8h-108q-14 0 -23 8q14 -20 6 -47l-159 -651q-6 -23 -29 -52q27 6 47 7h424z" />
    <glyph glyph-name="abreve" unicode="&#x103;" horiz-adv-x="1103" 
d="M807 1489q14 0 12 -12q-4 -90 -74.5 -149.5t-158.5 -57.5h-94q-86 0 -154 59.5t-74 147.5q0 12 15 12l63 2q12 0 14 -12q6 -49 50.5 -85t117.5 -36h37q74 0 118 34.5t50 86.5q2 12 14 12zM633 1133q125 0 215 -93.5t90 -222.5v-792q0 -14 -14 -15h-103q-16 0 -16 13v20
q0 10 10 76q-16 -31 -59 -64q-74 -59 -176 -59h-174q-125 0 -214.5 85t-89.5 210v65q0 125 88.5 206t225.5 81h342q27 0 45 -10q-8 23 -8 41v135q0 94 -51.5 145.5t-147.5 51.5h-123q-92 0 -140 -50.5t-48 -142.5v-8q0 -12 -13 -12h-110q-16 0 -17 16v25q0 121 88.5 210
t210.5 89h189zM596 123q96 0 147.5 50t51.5 142v197q0 6 6 35q-18 -8 -43 -8h-314q-94 0 -146 -52.5t-52 -146.5v-21q0 -197 207 -196h143z" />
    <glyph glyph-name="Aogonek" unicode="&#x104;" 
d="M1147 -336q14 0 14 -20v-39q0 -14 -14 -15h-152q-82 0 -134 50.5t-52 123.5v23q0 57 35 110.5t94 94.5l33 22l-88 373q-2 4 -4 39q-18 -8 -41 -8h-473q-20 0 -41 8q-2 -35 -2 -39l-91 -375q-2 -12 -18 -12h-121q-16 0 -12 16l356 1379q4 12 19 12h293q16 0 18 -12
l356 -1377q6 -18 -12 -18h-23l-79 -53q-59 -41 -86 -79t-27 -89q0 -55 31.5 -85t87.5 -30h133zM813 539q20 0 47 -7q-23 29 -26 52l-162 651q-6 27 6 47q-8 -8 -23 -8h-108q-14 0 -23 8q14 -20 6 -47l-159 -651q-6 -23 -29 -52q27 6 47 7h424z" />
    <glyph glyph-name="aogonek" unicode="&#x105;" horiz-adv-x="1103" 
d="M987 -352q14 0 14 -21v-45q0 -14 -14 -14h-158q-84 0 -139 53t-55 133v25q0 59 37 116.5t98 98.5l35 24v5v20q0 10 10 76q-16 -31 -59 -64q-74 -59 -176 -59h-174q-125 0 -214.5 85t-89.5 210v65q0 125 88.5 206t225.5 81h342q27 0 45 -10q-8 23 -8 41v135
q0 94 -51.5 145.5t-147.5 51.5h-123q-92 0 -140 -50.5t-48 -142.5v-8q0 -12 -13 -12h-110q-16 0 -17 16v25q0 121 88.5 210t210.5 89h189q125 0 215 -93.5t90 -222.5v-792q0 -6 -4 -11q0 -4 -4 -6l-88 -61q-63 -43 -91 -83t-28 -95q0 -57 32.5 -89t92.5 -32h139zM795 315
v197q0 6 6 35q-18 -8 -43 -8h-314q-94 0 -146 -52.5t-52 -146.5v-21q0 -197 207 -196h143q96 0 147.5 50t51.5 142z" />
    <glyph glyph-name="Cacute" unicode="&#x106;" horiz-adv-x="1169" 
d="M510 1534q-8 0 -11 5t1 11l164 232q6 10 18 10h98q10 0 13.5 -6t-2.5 -12l-191 -230q-8 -10 -18 -10h-72zM934 999q-16 0 -16 15v67q0 96 -53.5 147.5t-149.5 51.5h-197q-96 0 -150.5 -51t-54.5 -148v-755q0 -96 54.5 -147.5t150.5 -51.5h197q96 0 150.5 51t54.5 148v80
q0 16 14 16h117q16 0 16 -16v-101q0 -127 -92 -218t-219 -91h-281q-127 0 -218 91t-91 218v797q0 127 91 218t218 91h281q127 0 219 -91t92 -218v-88q0 -14 -16 -15h-117z" />
    <glyph glyph-name="cacute" unicode="&#x107;" horiz-adv-x="1071" 
d="M465 1280q-8 0 -11 5t3 11l168 246q8 10 20 10h100q8 0 11.5 -6t-2.5 -12l-197 -246q-6 -8 -18 -8h-74zM631 1133q143 0 231 -95.5t88 -224.5v-37q0 -16 -16 -16h-111q-16 0 -16 16v23q0 205 -203 205h-106q-203 0 -203 -218v-444q0 -219 203 -219h106q203 0 203 207v22
q0 16 16 17h111q16 0 16 -17v-37q0 -129 -88 -224t-231 -95h-158q-141 0 -231 94t-90 236v475q0 143 90 237.5t231 94.5h158z" />
    <glyph glyph-name="Ccircumflex" unicode="&#x108;" horiz-adv-x="1169" 
d="M338 1520q-8 0 -12 5t2 11l209 229q10 12 18 13h98q8 0 19 -13l209 -229q4 -6 1 -11t-12 -5h-77q-10 0 -21 10l-141 133q-23 20 -27 35q-4 -14 -26 -35l-142 -133q-10 -10 -20 -10h-78zM934 999q-16 0 -16 15v67q0 96 -53.5 147.5t-149.5 51.5h-197q-96 0 -150.5 -51
t-54.5 -148v-755q0 -96 54.5 -147.5t150.5 -51.5h197q96 0 150.5 51t54.5 148v80q0 16 14 16h117q16 0 16 -16v-101q0 -127 -92 -218t-219 -91h-281q-127 0 -218 91t-91 218v797q0 127 91 218t218 91h281q127 0 219 -91t92 -218v-88q0 -14 -16 -15h-117z" />
    <glyph glyph-name="ccircumflex" unicode="&#x109;" horiz-adv-x="1071" 
d="M297 1264q-8 0 -12 6t2 12l209 227q10 14 18 15h98q8 0 19 -15l209 -227q4 -6 1 -12t-12 -6h-79q-8 0 -19 10l-141 133q-23 23 -27 35q-4 -12 -26 -35l-142 -133q-10 -10 -20 -10h-78zM631 1133q143 0 231 -95.5t88 -224.5v-37q0 -16 -16 -16h-111q-16 0 -16 16v23
q0 205 -203 205h-106q-203 0 -203 -218v-444q0 -219 203 -219h106q203 0 203 207v22q0 16 16 17h111q16 0 16 -17v-37q0 -129 -88 -224t-231 -95h-158q-141 0 -231 94t-90 236v475q0 143 90 237.5t231 94.5h158z" />
    <glyph glyph-name="Cdotaccent" unicode="&#x10a;" horiz-adv-x="1169" 
d="M545 1546q-14 0 -15 15v145q0 14 15 14h110q16 0 17 -14v-145q0 -14 -17 -15h-110zM934 999q-16 0 -16 15v67q0 96 -53.5 147.5t-149.5 51.5h-197q-96 0 -150.5 -51t-54.5 -148v-755q0 -96 54.5 -147.5t150.5 -51.5h197q96 0 150.5 51t54.5 148v80q0 16 14 16h117
q16 0 16 -16v-101q0 -127 -92 -218t-219 -91h-281q-127 0 -218 91t-91 218v797q0 127 91 218t218 91h281q127 0 219 -91t92 -218v-88q0 -14 -16 -15h-117z" />
    <glyph glyph-name="cdotaccent" unicode="&#x10b;" horiz-adv-x="1071" 
d="M504 1290q-16 0 -17 17v155q0 16 17 17h112q14 0 15 -17v-155q0 -16 -15 -17h-112zM631 1133q143 0 231 -95.5t88 -224.5v-37q0 -16 -16 -16h-111q-16 0 -16 16v23q0 205 -203 205h-106q-203 0 -203 -218v-444q0 -219 203 -219h106q203 0 203 207v22q0 16 16 17h111
q16 0 16 -17v-37q0 -129 -88 -224t-231 -95h-158q-141 0 -231 94t-90 236v475q0 143 90 237.5t231 94.5h158z" />
    <glyph glyph-name="Ccaron" unicode="&#x10c;" horiz-adv-x="1169" 
d="M330 1761h76q10 0 18 -10l137 -125q23 -20 25 -33h2q2 12 22 33l138 125q10 10 18 10h78q8 0 11 -5t-1 -11l-201 -215q-10 -12 -18 -12h-96q-8 0 -19 12l-201 215q-6 6 -2.5 11t13.5 5zM934 999q-16 0 -16 15v67q0 96 -53.5 147.5t-149.5 51.5h-197q-96 0 -150.5 -51
t-54.5 -148v-755q0 -96 54.5 -147.5t150.5 -51.5h197q96 0 150.5 51t54.5 148v80q0 16 14 16h117q16 0 16 -16v-101q0 -127 -92 -218t-219 -91h-281q-127 0 -218 91t-91 218v797q0 127 91 218t218 91h281q127 0 219 -91t92 -218v-88q0 -14 -16 -15h-117z" />
    <glyph glyph-name="ccaron" unicode="&#x10d;" horiz-adv-x="1071" 
d="M279 1520h77q10 0 21 -9l141 -135q23 -20 27 -35q4 14 26 35l142 135q10 8 18 9h80q8 0 11 -5.5t-1 -11.5l-209 -229q-10 -12 -18 -12h-98q-8 0 -19 12l-209 229q-6 6 -1.5 11.5t12.5 5.5zM631 1133q143 0 231 -95.5t88 -224.5v-37q0 -16 -16 -16h-111q-16 0 -16 16v23
q0 205 -203 205h-106q-203 0 -203 -218v-444q0 -219 203 -219h106q203 0 203 207v22q0 16 16 17h111q16 0 16 -17v-37q0 -129 -88 -224t-231 -95h-158q-141 0 -231 94t-90 236v475q0 143 90 237.5t231 94.5h158z" />
    <glyph glyph-name="Dcaron" unicode="&#x10e;" horiz-adv-x="1267" 
d="M346 1759h78q8 0 18 -8l138 -127q23 -18 24 -33q4 14 25 33l137 127q10 8 18 8h78q8 0 11.5 -5t-3.5 -11l-200 -215q-8 -10 -17 -10h-96q-8 0 -18 10l-203 215q-4 6 -1 11t11 5zM211 0q-16 0 -16 16v1375q0 16 16 16h577q129 0 221.5 -91t92.5 -218v-787q0 -129 -92 -220
t-222 -91h-577zM332 121q31 10 49 10h371q94 0 148 51t54 140v763q0 88 -54 139.5t-148 51.5h-371q-18 0 -49 12q10 -25 10 -45v-1079q0 -20 -10 -43z" />
    <glyph glyph-name="dcaron" unicode="&#x10f;" horiz-adv-x="1191" 
d="M459 -2q-135 0 -223.5 91t-88.5 233v487q0 139 87.5 231.5t222.5 92.5h139q106 0 180 -60q43 -33 60 -63q-10 68 -11 77v545q0 14 17 15h110q16 0 17 -15v-1607q0 -14 -17 -15h-104q-16 0 -17 15v34q0 25 7 64q-16 -33 -58 -64q-82 -61 -172 -61h-149zM1227 1571
q18 0 16 -17l-26 -337q-2 -23 -17 -23h-51q-23 0 -23 12v348q0 16 17 17h84zM494 123h143q188 0 188 199v485q0 199 -188 199h-143q-203 0 -203 -218v-448q0 -217 203 -217z" />
    <glyph glyph-name="Dcroat" unicode="&#x110;" horiz-adv-x="1267" 
d="M342 1548q-16 0 -16 17v63q0 16 16 17h547q16 0 16 -17v-63q0 -16 -16 -17h-547zM211 0q-16 0 -16 16v1375q0 16 16 16h577q129 0 221.5 -91t92.5 -218v-787q0 -129 -92 -220t-222 -91h-577zM332 121q31 10 49 10h371q94 0 148 51t54 140v763q0 88 -54 139.5t-148 51.5
h-371q-18 0 -49 12q10 -25 10 -45v-1079q0 -20 -10 -43z" />
    <glyph glyph-name="dcroat" unicode="&#x111;" horiz-adv-x="1073" 
d="M1182 1395q16 0 16 -17v-67q0 -16 -16 -17h-213v-1269q0 -14 -17 -15h-104q-16 0 -17 15v34q0 25 7 64q-18 -33 -58 -64q-82 -61 -172 -61h-149q-135 0 -223.5 91t-88.5 233v487q0 139 87.5 231.5t222.5 92.5h139q106 0 180 -60q43 -33 60 -63q-10 68 -11 77v207h-213
q-16 0 -16 17v67q0 16 16 17h213v237q0 14 17 15h110q16 0 17 -15v-237h213zM825 322v485q0 199 -188 199h-143q-203 0 -203 -218v-448q0 -217 203 -217h143q188 0 188 199z" />
    <glyph glyph-name="Emacron" unicode="&#x112;" horiz-adv-x="1050" 
d="M301 1548q-16 0 -16 17v63q0 16 16 17h547q16 0 16 -17v-63q0 -16 -16 -17h-547zM213 0q-18 0 -18 18v1373q0 16 18 16h719q16 0 16 -14v-101q0 -16 -16 -16h-551q-18 0 -49 12q10 -25 10 -45v-397q0 -18 -10 -43q29 12 49 12h498q16 0 16 -16v-90q0 -14 -16 -15h-498
q-16 0 -49 11q10 -23 10 -43v-498q0 -20 -10 -45q33 12 49 12h594q16 0 16 -16v-99q0 -16 -16 -16h-762z" />
    <glyph glyph-name="emacron" unicode="&#x113;" horiz-adv-x="1095" 
d="M283 1294q-18 0 -19 19v67q0 16 19 17h567q16 0 16 -17v-67q0 -18 -16 -19h-567zM659 1133q127 0 225.5 -92.5t98.5 -221.5v-260q0 -14 -14 -14h-635q-37 0 -53 10q10 -16 10 -45v-180q0 -98 52 -152.5t153 -54.5h137q92 0 141 49t49 141v9q2 12 17 12h110q16 0 15 -15
v-20q-6 -125 -96.5 -214t-211.5 -89h-186q-135 0 -229.5 95t-94.5 233v479q0 135 94.5 232.5t229.5 97.5h188zM797 649q35 0 53 -10q-10 23 -10 49v127q0 90 -51.5 140.5t-147.5 50.5h-152q-94 0 -146 -50.5t-52 -140.5v-127q0 -27 -10 -49q18 10 53 10h463z" />
    <glyph glyph-name="Ebreve" unicode="&#x114;" horiz-adv-x="1050" 
d="M844 1743q14 0 12 -12q-4 -90 -74.5 -149.5t-158.5 -57.5h-95q-86 0 -153.5 59t-73.5 148q0 12 14 12h64q12 0 14 -12q6 -47 50 -83t118 -36h37q74 0 118 34.5t50 84.5q2 12 14 12h64zM213 0q-18 0 -18 18v1373q0 16 18 16h719q16 0 16 -14v-101q0 -16 -16 -16h-551
q-18 0 -49 12q10 -25 10 -45v-397q0 -18 -10 -43q29 12 49 12h498q16 0 16 -16v-90q0 -14 -16 -15h-498q-16 0 -49 11q10 -23 10 -43v-498q0 -20 -10 -45q33 12 49 12h594q16 0 16 -16v-99q0 -16 -16 -16h-762z" />
    <glyph glyph-name="ebreve" unicode="&#x115;" horiz-adv-x="1095" 
d="M836 1491q14 0 12 -14q-4 -88 -75 -147.5t-159 -59.5h-94q-86 0 -153.5 59.5t-73.5 147.5q0 14 14 14h64q12 0 14 -12q6 -49 50 -84t118 -35h37q74 0 118 35t50 84q2 12 14 12h64zM659 1133q127 0 225.5 -92.5t98.5 -221.5v-260q0 -14 -14 -14h-635q-37 0 -53 10
q10 -16 10 -45v-180q0 -98 52 -152.5t153 -54.5h137q92 0 141 49t49 141v9q2 12 17 12h110q16 0 15 -15v-20q-6 -125 -96.5 -214t-211.5 -89h-186q-135 0 -229.5 95t-94.5 233v479q0 135 94.5 232.5t229.5 97.5h188zM797 649q35 0 53 -10q-10 23 -10 49v127
q0 90 -51.5 140.5t-147.5 50.5h-152q-94 0 -146 -50.5t-52 -140.5v-127q0 -27 -10 -49q18 10 53 10h463z" />
    <glyph glyph-name="Edotaccent" unicode="&#x116;" horiz-adv-x="1050" 
d="M520 1544q-14 0 -14 15v147q0 14 14 14h111q16 0 16 -14v-147q0 -14 -16 -15h-111zM213 0q-18 0 -18 18v1373q0 16 18 16h719q16 0 16 -14v-101q0 -16 -16 -16h-551q-18 0 -49 12q10 -25 10 -45v-397q0 -18 -10 -43q29 12 49 12h498q16 0 16 -16v-90q0 -14 -16 -15h-498
q-16 0 -49 11q10 -23 10 -43v-498q0 -20 -10 -45q33 12 49 12h594q16 0 16 -16v-99q0 -16 -16 -16h-762z" />
    <glyph glyph-name="edotaccent" unicode="&#x117;" horiz-adv-x="1095" 
d="M512 1290q-16 0 -16 17v155q0 16 16 17h113q14 0 14 -17v-155q0 -16 -14 -17h-113zM659 1133q127 0 225.5 -92.5t98.5 -221.5v-260q0 -14 -14 -14h-635q-37 0 -53 10q10 -16 10 -45v-180q0 -98 52 -152.5t153 -54.5h137q92 0 141 49t49 141v9q2 12 17 12h110q16 0 15 -15
v-20q-6 -125 -96.5 -214t-211.5 -89h-186q-135 0 -229.5 95t-94.5 233v479q0 135 94.5 232.5t229.5 97.5h188zM797 649q35 0 53 -10q-10 23 -10 49v127q0 90 -51.5 140.5t-147.5 50.5h-152q-94 0 -146 -50.5t-52 -140.5v-127q0 -27 -10 -49q18 10 53 10h463z" />
    <glyph glyph-name="Eogonek" unicode="&#x118;" horiz-adv-x="1050" 
d="M1034 -344q14 0 15 -18v-41q0 -14 -15 -15h-151q-82 0 -135.5 50.5t-53.5 123.5v23q0 57 36 111.5t95 93.5l23 16h-635q-18 0 -18 18v1373q0 16 18 16h719q16 0 16 -14v-101q0 -16 -16 -16h-551q-18 0 -49 12q10 -25 10 -45v-397q0 -18 -10 -43q29 12 49 12h498
q16 0 16 -16v-90q0 -14 -16 -15h-498q-16 0 -49 11q10 -23 10 -43v-498q0 -20 -10 -45q33 12 49 12h594q16 0 16 -16v-99q0 -10 -6 -14q-2 -4 -6 -6l-84 -57q-61 -41 -87 -79t-26 -89q0 -55 31 -85t88 -30h133z" />
    <glyph glyph-name="eogonek" unicode="&#x119;" horiz-adv-x="1095" 
d="M659 1133q127 0 225.5 -92.5t98.5 -221.5v-260q0 -14 -14 -14h-635q-37 0 -53 10q10 -16 10 -45v-180q0 -98 52 -152.5t153 -54.5h137q92 0 141 49t49 141v9q2 12 17 12h110q16 0 15 -15v-20q-6 -125 -96.5 -214t-211.5 -89h-16h-2l-86 -62q-63 -43 -91 -82.5t-28 -95.5
q0 -59 33 -90t92 -31h139q14 0 15 -22v-43q0 -14 -15 -14h-159q-84 0 -138.5 53t-54.5 131v24q0 61 37 119t98 99l21 14h-31q-135 0 -229.5 95t-94.5 233v479q0 135 94.5 232.5t229.5 97.5h188zM797 649q35 0 53 -10q-10 23 -10 49v127q0 90 -51.5 140.5t-147.5 50.5h-152
q-94 0 -146 -50.5t-52 -140.5v-127q0 -27 -10 -49q18 10 53 10h463z" />
    <glyph glyph-name="Ecaron" unicode="&#x11a;" horiz-adv-x="1050" 
d="M305 1759h76q10 0 18 -8l138 -127q23 -18 26 -33q2 14 25 33l135 127q10 8 18 8h78q8 0 11.5 -5t-1.5 -11l-200 -215q-10 -10 -19 -10h-96q-8 0 -18 10l-201 215q-6 6 -2 11t12 5zM213 0q-18 0 -18 18v1373q0 16 18 16h719q16 0 16 -14v-101q0 -16 -16 -16h-551
q-18 0 -49 12q10 -25 10 -45v-397q0 -18 -10 -43q29 12 49 12h498q16 0 16 -16v-90q0 -14 -16 -15h-498q-16 0 -49 11q10 -23 10 -43v-498q0 -20 -10 -45q33 12 49 12h594q16 0 16 -16v-99q0 -16 -16 -16h-762z" />
    <glyph glyph-name="ecaron" unicode="&#x11b;" horiz-adv-x="1095" 
d="M287 1520h78q10 0 20 -9l143 -135q23 -20 25 -35q4 14 27 35l141 135q10 8 20 9h78q8 0 11.5 -5.5t-1.5 -11.5l-208 -229q-10 -12 -19 -12h-96q-10 0 -21 12l-209 229q-4 6 -0.5 11.5t11.5 5.5zM659 1133q127 0 225.5 -92.5t98.5 -221.5v-260q0 -14 -14 -14h-635
q-37 0 -53 10q10 -16 10 -45v-180q0 -98 52 -152.5t153 -54.5h137q92 0 141 49t49 141v9q2 12 17 12h110q16 0 15 -15v-20q-6 -125 -96.5 -214t-211.5 -89h-186q-135 0 -229.5 95t-94.5 233v479q0 135 94.5 232.5t229.5 97.5h188zM797 649q35 0 53 -10q-10 23 -10 49v127
q0 90 -51.5 140.5t-147.5 50.5h-152q-94 0 -146 -50.5t-52 -140.5v-127q0 -27 -10 -49q18 10 53 10h463z" />
    <glyph glyph-name="Gcircumflex" unicode="&#x11c;" horiz-adv-x="1202" 
d="M330 1518q-8 0 -12.5 5t1.5 11l209 229q10 12 19 13h98q8 0 19 -13l208 -229q4 -6 1 -11t-11 -5h-80q-8 0 -18 10l-141 133q-23 20 -27 35q-4 -14 -27 -35l-143 -133q-8 -10 -18 -10h-78zM481 -4q-131 0 -223 91t-92 218v797q0 127 92 218t223 91h262q129 0 221.5 -90
t92.5 -213v-49q0 -16 -15 -17h-116q-16 0 -17 17v33q0 88 -53 138t-149 50h-191q-94 0 -148.5 -52t-54.5 -143v-759q0 -96 54.5 -147.5t150.5 -51.5h189q96 0 149 51t55 146v274q0 16 11 45q-31 -12 -50 -12h-190q-16 0 -16 16v80q0 16 16 16h360q16 0 17 -16v-422
q0 -127 -92.5 -218t-223.5 -91h-262z" />
    <glyph glyph-name="gcircumflex" unicode="&#x11d;" horiz-adv-x="1105" 
d="M309 1264q-10 0 -13 6t3 12l209 227q10 14 18 15h99q8 0 18 -15l209 -227q4 -6 1 -12t-11 -6h-80q-8 0 -19 10l-141 133q-23 23 -27 35q-4 -12 -26 -35l-143 -133q-8 -10 -19 -10h-78zM1020 1004q-61 0 -107 -17h-11t-8 2l-3 2q20 -20 20 -33q43 -57 43 -141v-137
q0 -141 -91 -228t-230 -87h-193q-176 0 -176 -95v-32q-2 -92 180 -93h265q129 0 217 -81.5t88 -208.5v-70q0 -127 -94.5 -211t-227.5 -84h-297q-131 0 -222 83t-91 210v74q0 78 41 144.5t104 96.5q-45 20 -68.5 58.5t-23.5 76.5v43q0 47 31 88.5t92 61.5q-125 86 -123 254
v137q0 141 91 228.5t229 87.5h180q98 0 178 -48q10 -6 18 -16q2 8 13 14q72 45 160 45h100q16 0 16 -14v-94q0 -16 -16 -16h-84zM811 690v117q0 197 -188 197h-156q-188 0 -188 -197v-117q0 -199 188 -198h156q188 -1 188 198zM678 31h-283q-72 0 -128 -50.5t-56 -142.5v-28
q0 -92 55.5 -144.5t153.5 -52.5h258q92 0 151.5 51t59.5 139v37q0 90 -56.5 140.5t-154.5 50.5z" />
    <glyph glyph-name="Gbreve" unicode="&#x11e;" horiz-adv-x="1202" 
d="M850 1731q14 0 14 -13q-6 -84 -73.5 -139t-153.5 -55h-92q-82 0 -147.5 56t-69.5 138q-2 12 12 13h63q10 0 13 -11q6 -45 49 -78.5t113 -33.5h36q70 0 112 32.5t48 79.5q2 10 12 11h64zM481 -4q-131 0 -223 91t-92 218v797q0 127 92 218t223 91h262q129 0 221.5 -90
t92.5 -213v-49q0 -16 -15 -17h-116q-16 0 -17 17v33q0 88 -53 138t-149 50h-191q-94 0 -148.5 -52t-54.5 -143v-759q0 -96 54.5 -147.5t150.5 -51.5h189q96 0 149 51t55 146v274q0 16 11 45q-31 -12 -50 -12h-190q-16 0 -16 16v80q0 16 16 16h360q16 0 17 -16v-422
q0 -127 -92.5 -218t-223.5 -91h-262z" />
    <glyph glyph-name="gbreve" unicode="&#x11f;" horiz-adv-x="1105" 
d="M840 1491q14 0 12 -14q-4 -88 -74.5 -147.5t-161.5 -59.5h-94q-84 0 -151.5 59.5t-73.5 147.5q0 14 14 14h64q10 0 14 -12q4 -49 49 -84t117 -35h39q74 0 118 35t50 84q2 12 12 12h66zM1020 1004q-61 0 -107 -17h-11t-8 2l-3 2q20 -20 20 -33q43 -57 43 -141v-137
q0 -141 -91 -228t-230 -87h-193q-176 0 -176 -95v-32q-2 -92 180 -93h265q129 0 217 -81.5t88 -208.5v-70q0 -127 -94.5 -211t-227.5 -84h-297q-131 0 -222 83t-91 210v74q0 78 41 144.5t104 96.5q-45 20 -68.5 58.5t-23.5 76.5v43q0 47 31 88.5t92 61.5q-125 86 -123 254
v137q0 141 91 228.5t229 87.5h180q98 0 178 -48q10 -6 18 -16q2 8 13 14q72 45 160 45h100q16 0 16 -14v-94q0 -16 -16 -16h-84zM811 690v117q0 197 -188 197h-156q-188 0 -188 -197v-117q0 -199 188 -198h156q188 -1 188 198zM678 31h-283q-72 0 -128 -50.5t-56 -142.5v-28
q0 -92 55.5 -144.5t153.5 -52.5h258q92 0 151.5 51t59.5 139v37q0 90 -56.5 140.5t-154.5 50.5z" />
    <glyph glyph-name="Gdotaccent" unicode="&#x120;" horiz-adv-x="1202" 
d="M537 1544q-14 0 -15 15v147q0 14 15 14h110q16 0 17 -14v-147q0 -14 -17 -15h-110zM481 -4q-131 0 -223 91t-92 218v797q0 127 92 218t223 91h262q129 0 221.5 -90t92.5 -213v-49q0 -16 -15 -17h-116q-16 0 -17 17v33q0 88 -53 138t-149 50h-191q-94 0 -148.5 -52
t-54.5 -143v-759q0 -96 54.5 -147.5t150.5 -51.5h189q96 0 149 51t55 146v274q0 16 11 45q-31 -12 -50 -12h-190q-16 0 -16 16v80q0 16 16 16h360q16 0 17 -16v-422q0 -127 -92.5 -218t-223.5 -91h-262z" />
    <glyph glyph-name="gdotaccent" unicode="&#x121;" horiz-adv-x="1105" 
d="M516 1290q-16 0 -16 17v155q0 16 16 17h113q14 0 14 -17v-155q0 -16 -14 -17h-113zM1020 1004q-61 0 -107 -17h-11t-8 2l-3 2q20 -20 20 -33q43 -57 43 -141v-137q0 -141 -91 -228t-230 -87h-193q-176 0 -176 -95v-32q-2 -92 180 -93h265q129 0 217 -81.5t88 -208.5v-70
q0 -127 -94.5 -211t-227.5 -84h-297q-131 0 -222 83t-91 210v74q0 78 41 144.5t104 96.5q-45 20 -68.5 58.5t-23.5 76.5v43q0 47 31 88.5t92 61.5q-125 86 -123 254v137q0 141 91 228.5t229 87.5h180q98 0 178 -48q10 -6 18 -16q2 8 13 14q72 45 160 45h100q16 0 16 -14v-94
q0 -16 -16 -16h-84zM811 690v117q0 197 -188 197h-156q-188 0 -188 -197v-117q0 -199 188 -198h156q188 -1 188 198zM678 31h-283q-72 0 -128 -50.5t-56 -142.5v-28q0 -92 55.5 -144.5t153.5 -52.5h258q92 0 151.5 51t59.5 139v37q0 90 -56.5 140.5t-154.5 50.5z" />
    <glyph glyph-name="uni0122" unicode="&#x122;" horiz-adv-x="1202" 
d="M481 -4q-131 0 -223 91t-92 218v797q0 127 92 218t223 91h262q129 0 221.5 -90t92.5 -213v-49q0 -16 -15 -17h-116q-16 0 -17 17v33q0 88 -53 138t-149 50h-191q-94 0 -148.5 -52t-54.5 -143v-759q0 -96 54.5 -147.5t150.5 -51.5h189q96 0 149 51t55 146v274q0 16 11 45
q-31 -12 -50 -12h-190q-16 0 -16 16v80q0 16 16 16h360q16 0 17 -16v-422q0 -127 -92.5 -218t-223.5 -91h-262zM692 -106q8 0 12.5 -4.5t4.5 -12.5l-27 -315q-2 -23 -16 -23h-52q-20 0 -20 12v326q0 16 16 17h82z" />
    <glyph glyph-name="uni0123" unicode="&#x123;" horiz-adv-x="1105" 
d="M600 1659q18 0 16 -19l-26 -335q-4 -23 -19 -23l-51 -2q-23 0 -22 12v348q0 18 18 19h84zM1020 1004q-61 0 -107 -17h-11t-8 2l-3 2q20 -20 20 -33q43 -57 43 -141v-137q0 -141 -91 -228t-230 -87h-193q-176 0 -176 -95v-32q-2 -92 180 -93h265q129 0 217 -81.5
t88 -208.5v-70q0 -127 -94.5 -211t-227.5 -84h-297q-131 0 -222 83t-91 210v74q0 78 41 144.5t104 96.5q-45 20 -68.5 58.5t-23.5 76.5v43q0 47 31 88.5t92 61.5q-125 86 -123 254v137q0 141 91 228.5t229 87.5h180q98 0 178 -48q10 -6 18 -16q2 8 13 14q72 45 160 45h100
q16 0 16 -14v-94q0 -16 -16 -16h-84zM811 690v117q0 197 -188 197h-156q-188 0 -188 -197v-117q0 -199 188 -198h156q188 -1 188 198zM678 31h-283q-72 0 -128 -50.5t-56 -142.5v-28q0 -92 55.5 -144.5t153.5 -52.5h258q92 0 151.5 51t59.5 139v37q0 90 -56.5 140.5
t-154.5 50.5z" />
    <glyph glyph-name="Hcircumflex" unicode="&#x124;" horiz-adv-x="1294" 
d="M385 1518q-8 0 -11 5t1 11l211 229q10 12 18 13h96q8 0 19 -13l209 -229q6 -6 2 -11t-12 -5h-78q-10 0 -21 10l-141 133q-23 20 -25 35h-2q-2 -14 -24 -35l-144 -133q-10 -10 -18 -10h-80zM1096 1407q16 0 16 -14v-1377q0 -16 -16 -16h-117q-16 0 -16 16v617q0 20 10 45
q-31 -12 -49 -12h-553q-20 0 -49 12q10 -25 10 -45v-617q0 -16 -17 -16h-116q-16 0 -17 16v1377q0 14 17 14h116q16 0 17 -14v-574q0 -20 -10 -45q29 12 49 12h553q20 0 49 -12q-10 25 -10 45v574q0 14 16 14h117z" />
    <glyph glyph-name="hcircumflex" unicode="&#x125;" horiz-adv-x="1136" 
d="M365 1757q-8 0 -11.5 5t2.5 12l209 229q10 12 19 12h98q8 0 18 -12l207 -229q6 -6 3 -11.5t-11 -5.5h-80q-8 0 -18 10l-144 134q-23 20 -24 34q-4 -14 -27 -34l-143 -134q-10 -10 -19 -10h-79zM666 1133q133 0 220 -92.5t87 -231.5v-782q0 -16 -19 -17h-108q-18 0 -19 17
l2 761q0 217 -204 218h-97q-205 0 -204 -220v-761q0 -14 -15 -15h-112q-16 0 -17 15v1607q0 14 17 15h112q16 0 17 -15l-2 -545q0 -10 -11 -77q16 33 60 63q76 59 182 60h111z" />
    <glyph glyph-name="Hbar" unicode="&#x126;" horiz-adv-x="1382" 
d="M1274 1290q14 0 14 -14v-92q0 -14 -14 -15h-94q-20 0 -50 13q10 -25 11 -45v-1121q0 -16 -17 -16h-116q-16 0 -17 16v617q0 20 10 45q-31 -12 -49 -12h-522q-20 0 -49 12q10 -25 10 -45v-617q0 -16 -16 -16h-117q-16 0 -16 16l2 1121q0 20 8 45q-29 -12 -49 -13h-94
q-14 0 -15 15v92q0 14 15 14h94q20 0 49 -12q-8 23 -8 43l-2 72q0 14 16 14h117q16 0 16 -14v-72q0 -20 -10 -43q29 12 49 12h522q20 0 49 -12q-10 23 -10 43v72q0 14 17 14h116q16 0 17 -14v-72q0 -20 -11 -43q29 12 50 12h94zM952 786q20 0 49 -12q-10 25 -10 45v318
q0 20 10 45q-29 -12 -49 -13h-522q-20 0 -49 13q10 -25 10 -45v-318q0 -20 -10 -45q29 12 49 12h522z" />
    <glyph glyph-name="hbar" unicode="&#x127;" horiz-adv-x="1136" 
d="M666 1133q133 0 220 -92.5t87 -231.5v-782q0 -16 -19 -17h-108q-18 0 -19 17l2 761q0 217 -204 218h-97q-205 0 -204 -220v-761q0 -14 -15 -15h-112q-16 0 -17 15v1269h-198q-16 0 -17 19v67q0 16 17 17h198v235q0 14 17 15h112q16 0 17 -15l-2 -235h225q16 0 16 -17v-67
q0 -18 -16 -19h-225v-207q0 -10 -11 -77q16 33 60 63q76 59 182 60h111z" />
    <glyph glyph-name="Itilde" unicode="&#x128;" horiz-adv-x="534" 
d="M518 1702q14 0 12 -14q-6 -74 -54 -122t-116 -48q-66 0 -133 55q-59 45 -94 45q-37 0 -61.5 -25.5t-28.5 -62.5q-2 -12 -14 -12h-58q-14 0 -12 14q6 76 54 124t116 48q66 0 133 -55q59 -47 94 -47q37 0 61.5 26.5t28.5 61.5q2 12 15 12h57zM324 1407q18 0 18 -14v-1377
q0 -16 -18 -16h-113q-16 0 -16 16v1377q0 14 16 14h113z" />
    <glyph glyph-name="itilde" unicode="&#x129;" horiz-adv-x="505" 
d="M514 1460q16 0 14 -16q-8 -80 -57 -131t-119 -51q-68 0 -139 59q-59 49 -96 49q-39 0 -64.5 -27.5t-29.5 -66.5q-4 -12 -15 -12h-59q-14 0 -15 14q8 80 58.5 131t120.5 51q68 0 137 -59q61 -49 98 -49q39 0 64.5 27.5t29.5 66.5q2 14 15 14h57zM309 1118q14 0 15 -14
v-1079q0 -14 -15 -15h-112q-16 0 -17 15v1079q0 14 17 14h112z" />
    <glyph glyph-name="Imacron" unicode="&#x12a;" horiz-adv-x="534" 
d="M-12 1548q-16 0 -17 17v63q0 16 17 17h547q16 0 16 -17v-63q0 -16 -16 -17h-547zM324 1407q18 0 18 -14v-1377q0 -16 -18 -16h-113q-16 0 -16 16v1377q0 14 16 14h113z" />
    <glyph glyph-name="imacron" unicode="&#x12b;" horiz-adv-x="505" 
d="M-35 1294q-16 0 -16 19v67q0 16 16 17h570q16 0 16 -17v-67q0 -18 -16 -19h-570zM309 1118q14 0 15 -14v-1079q0 -14 -15 -15h-112q-16 0 -17 15v1079q0 14 17 14h112z" />
    <glyph glyph-name="Ibreve" unicode="&#x12c;" horiz-adv-x="534" 
d="M530 1743q14 0 15 -12q-6 -90 -76 -149.5t-160 -57.5h-94q-86 0 -153.5 59t-71.5 148q-2 12 12 12h66q10 0 12 -12q6 -47 51 -83t117 -36h39q72 0 117 34.5t49 84.5q4 12 14 12h63zM324 1407q18 0 18 -14v-1377q0 -16 -18 -16h-113q-16 0 -16 16v1377q0 14 16 14h113z
" />
    <glyph glyph-name="ibreve" unicode="&#x12d;" horiz-adv-x="505" 
d="M520 1491q14 0 12 -14q-4 -88 -74.5 -147.5t-160.5 -59.5h-94q-84 0 -151.5 59.5t-74.5 147.5q0 14 15 14h63q12 0 15 -12q4 -49 49 -84t119 -35h36q74 0 118 35t50 84q2 12 13 12h65zM309 1118q14 0 15 -14v-1079q0 -14 -15 -15h-112q-16 0 -17 15v1079q0 14 17 14h112z
" />
    <glyph glyph-name="Iogonek" unicode="&#x12e;" horiz-adv-x="534" 
d="M371 -344q14 0 14 -18v-41q0 -14 -14 -15h-152q-82 0 -134 50.5t-52 123.5v23q0 57 34.5 111.5t94.5 93.5l35 24q-2 2 -2 8v1377q0 14 16 14h113q18 0 18 -14v-1377q0 -16 -18 -16h-2q-2 -2 -7 -4l-84 -57q-59 -41 -85.5 -79t-26.5 -89q0 -55 31.5 -85t87.5 -30h133z" />
    <glyph glyph-name="iogonek" unicode="&#x12f;" horiz-adv-x="505" 
d="M197 1290q-16 0 -17 17v155q0 16 17 17h112q14 0 15 -17v-155q0 -16 -15 -17h-112zM350 -348q14 0 15 -21v-43q0 -14 -15 -14h-157q-86 0 -140.5 53.5t-54.5 130.5v25q0 61 37 118.5t98 98.5l47 35v1069q0 14 17 14h112q14 0 15 -14v-1079q0 -14 -15 -15h-22l-82 -57
q-63 -43 -91 -83t-28 -95q0 -59 33 -91t92 -32h139z" />
    <glyph glyph-name="Idotaccent" unicode="&#x130;" horiz-adv-x="534" 
d="M209 1544q-16 0 -16 15v147q0 14 16 14h110q14 0 15 -14v-147q0 -14 -15 -15h-110zM324 1407q18 0 18 -14v-1377q0 -16 -18 -16h-113q-16 0 -16 16v1377q0 14 16 14h113z" />
    <glyph glyph-name="dotlessi" unicode="&#x131;" horiz-adv-x="505" 
d="M309 1118q14 0 15 -14v-1079q0 -14 -15 -15h-112q-16 0 -17 15v1079q0 14 17 14h112z" />
    <glyph glyph-name="IJ" unicode="&#x132;" horiz-adv-x="1120" 
d="M549 -98q-16 0 -17 16v86q0 18 17 19h43q92 0 146.5 48t54.5 140v1180q0 18 18 18h113q18 0 18 -18v-1180q0 -129 -93 -219t-222 -90h-78zM324 1407q18 0 18 -14v-953q0 -16 -18 -16h-113q-16 0 -16 16v953q0 14 16 14h113z" />
    <glyph glyph-name="ij" unicode="&#x133;" horiz-adv-x="1017" 
d="M197 1290q-16 0 -17 17v155q0 16 17 17h112q14 0 15 -17v-155q0 -16 -15 -17h-112zM713 1290q-14 0 -15 17v155q0 16 15 17h112q16 0 17 -17v-155q0 -16 -17 -17h-112zM823 1120q16 0 17 -16v-1284q0 -137 -95.5 -233.5t-230.5 -96.5h-53q-18 0 -19 18v99q0 14 17 14
l39 2q96 0 146 56.5t50 158.5v1266q0 16 17 16h112zM309 1118q14 0 15 -14v-1079q0 -14 -15 -15h-112q-16 0 -17 15v1079q0 14 17 14h112z" />
    <glyph glyph-name="Jcircumflex" unicode="&#x134;" horiz-adv-x="585" 
d="M61 1518q-10 0 -13 5t3 11l209 229q10 12 19 13h98q8 0 18 -13l209 -229q4 -6 1 -11t-11 -5h-80q-8 0 -18 10l-144 133q-20 20 -24 35q-4 -14 -27 -35l-143 -133q-10 -10 -19 -10h-78zM14 -98q-18 0 -18 16v86q0 18 16 19h43q92 0 147.5 48t55.5 140v1180q0 18 16 18h113
q18 0 19 -18v-1180q0 -129 -92.5 -219t-223.5 -90h-76z" />
    <glyph glyph-name="jcircumflex" unicode="&#x135;" horiz-adv-x="514" 
d="M2 1264q-8 0 -12 6t2 12l209 227q10 14 18 15h98q8 0 19 -15l209 -227q4 -6 1 -12t-11 -6h-80q-8 0 -19 10l-141 133q-23 23 -27 35q-4 -12 -26 -35l-142 -133q-10 -10 -20 -10h-78zM317 1120q16 0 17 -16v-1284q0 -137 -95.5 -233.5t-228.5 -96.5h-55q-16 0 -16 18v99
q0 14 14 14l41 2q94 0 145 56.5t51 158.5v1266q0 16 17 16h110z" />
    <glyph glyph-name="uni0136" unicode="&#x136;" horiz-adv-x="1163" 
d="M211 0q-16 0 -16 16v1377q0 14 16 14h115q16 0 16 -14v-621q0 -61 -12 -121q27 51 69 105l519 643q6 8 18 8h145q10 0 13.5 -6t-2.5 -15l-416 -505q-14 -16 -29 -23q23 -18 25 -22l495 -816q4 -8 1 -14t-13 -6h-127q-12 0 -20 10l-422 703q-12 20 -17 55q-14 -29 -32 -51
l-172 -215q-6 -6 -13.5 -11.5t-14.5 -8.5t-7 -5l6 -11t6 -20v-430q0 -16 -16 -16h-115zM670 -106q8 0 13 -4.5t3 -12.5l-27 -315q-2 -23 -16 -23h-49q-23 0 -23 12v326q0 16 17 17h82z" />
    <glyph glyph-name="uni0137" unicode="&#x137;" horiz-adv-x="1007" 
d="M197 10q-16 0 -17 15v1607q0 14 17 15h112q14 0 15 -15v-946q0 -82 -17 -156q29 68 82 136l377 477q8 10 20 10h134q10 0 13 -7t-3 -16l-326 -401q-14 -18 -29 -24q14 -6 27 -27l385 -647q4 -8 1 -14.5t-13 -6.5h-121q-14 0 -20 13l-312 532q-18 31 -22 66
q-4 -27 -31 -60l-137 -174q-6 -8 -15 -8l3 -5q4 -5 4 -9v-340q0 -14 -15 -15h-112zM590 -113q18 0 16 -16l-26 -338q-2 -23 -17 -22h-51q-23 -2 -23 12v348q0 16 17 16h84z" />
    <glyph glyph-name="kgreenlandic" unicode="&#x138;" horiz-adv-x="1007" 
d="M197 10q-16 0 -17 15v1112q0 16 17 16h112q14 0 15 -16v-451q0 -82 -17 -156q29 66 82 134l377 479q8 10 22 10h132q10 0 13 -7t-3 -16l-326 -401q-14 -18 -29 -24q14 -6 27 -27l385 -647q4 -10 1 -15.5t-13 -5.5h-121q-12 0 -20 10l-312 535q-18 31 -22 66
q-4 -27 -31 -60l-137 -174q-6 -8 -15 -8l3 -5q4 -5 4 -9v-340q0 -14 -15 -15h-112z" />
    <glyph glyph-name="Lacute" unicode="&#x139;" horiz-adv-x="890" 
d="M500 1534q-8 0 -11.5 4t3.5 10l161 232q6 10 19 10h100q8 0 11 -5t-3 -13l-190 -230q-6 -8 -19 -8h-71zM213 0q-18 0 -18 18v1373q0 18 18 18h111q18 0 18 -18v-1223q0 -23 -8 -47q25 10 49 10h494q18 0 18 -16v-97q0 -18 -18 -18h-664z" />
    <glyph glyph-name="lacute" unicode="&#x13a;" horiz-adv-x="505" 
d="M217 1776q-8 0 -11 5t1 11l168 246q8 10 20 10h101q8 0 11 -6t-1 -12l-197 -246q-8 -8 -18 -8h-74zM309 1638q14 0 15 -16v-1597q0 -14 -15 -15h-112q-16 0 -17 15v1597q0 16 17 16h112z" />
    <glyph glyph-name="uni013B" unicode="&#x13b;" horiz-adv-x="890" 
d="M213 0q-18 0 -18 18v1373q0 18 18 18h111q18 0 18 -18v-1223q0 -23 -8 -47q25 10 49 10h494q18 0 18 -16v-97q0 -18 -18 -18h-664zM586 -106q8 0 13 -4.5t3 -12.5l-27 -315q-2 -23 -16 -23h-49q-23 0 -23 12v326q0 16 17 17h82z" />
    <glyph glyph-name="uni013C" unicode="&#x13c;" horiz-adv-x="505" 
d="M309 1638q14 0 15 -16v-1597q0 -14 -15 -15h-112q-16 0 -17 15v1597q0 16 17 16h112zM297 -113q18 0 18 -16l-28 -338q-2 -23 -17 -22h-51q-23 -2 -22 12v348q0 16 16 16h84z" />
    <glyph glyph-name="Lcaron" unicode="&#x13d;" horiz-adv-x="890" 
d="M319 1759h76q10 0 21 -8l137 -127q20 -18 25 -33q2 14 24 33l135 127q10 8 19 8h78q8 0 11 -5t-1 -11l-201 -215q-10 -10 -18 -10h-97q-8 0 -18 10l-201 215q-4 6 -1 11t11 5zM213 0q-18 0 -18 18v1373q0 18 18 18h111q18 0 18 -18v-1223q0 -23 -8 -47q25 10 49 10h494
q18 0 18 -16v-97q0 -18 -18 -18h-664z" />
    <glyph glyph-name="lcaron" unicode="&#x13e;" horiz-adv-x="620" 
d="M309 1638q14 0 15 -16v-1597q0 -14 -15 -15h-112q-16 0 -17 15v1597q0 16 17 16h112zM612 1571q18 0 17 -17l-27 -337q-4 -23 -18 -23h-52q-20 0 -20 12v348q0 16 16 17h84z" />
    <glyph glyph-name="Ldot" unicode="&#x13f;" horiz-adv-x="1060" 
d="M213 0q-18 0 -18 18v1373q0 18 18 18h111q18 0 18 -18v-1223q0 -23 -8 -47q25 10 49 10h494q18 0 18 -16v-97q0 -18 -18 -18h-664zM899 801q16 0 16 -19v-147q0 -16 -16 -17h-113q-18 0 -18 17v147q0 18 18 19h113z" />
    <glyph glyph-name="ldot" unicode="&#x140;" horiz-adv-x="937" 
d="M309 1638q14 0 15 -16v-1597q0 -14 -15 -15h-112q-16 0 -17 15v1597q0 16 17 16h112zM778 799q16 0 17 -17v-151q0 -18 -17 -19h-112q-16 0 -17 19v151q0 16 17 17h112z" />
    <glyph glyph-name="Lslash" unicode="&#x141;" horiz-adv-x="940" 
d="M928 131q18 0 18 -16v-97q0 -18 -18 -18h-666q-16 0 -16 18v580l-170 -117q-6 -4 -11.5 0t-5.5 13v102q0 16 13 22l174 121v652q0 16 16 16h113q18 0 18 -16v-549l139 96q8 4 14.5 2t6.5 -12v-101q0 -18 -14 -24l-146 -103v-532q0 -23 -10 -47q27 10 49 10h496z" />
    <glyph glyph-name="lslash" unicode="&#x142;" horiz-adv-x="546" 
d="M508 1018q8 6 14 3t6 -13v-105q0 -18 -14 -26l-162 -115v-737q0 -16 -16 -17h-113q-14 0 -14 17v634l-152 -108q-6 -4 -11 0t-5 14v107q0 14 12 24l156 109v862q0 14 14 14h113q16 0 16 -14v-760z" />
    <glyph glyph-name="Nacute" unicode="&#x143;" horiz-adv-x="1370" 
d="M606 1534q-8 0 -11 4t1 10l162 232q8 10 20 10h99q8 0 11 -5t-3 -13l-189 -230q-8 -8 -18 -8h-72zM1157 1407q18 0 19 -16v-1373q0 -18 -19 -18h-108q-14 0 -21 12l-641 1071q-45 74 -59 107q14 -92 14 -121v-1051q0 -18 -18 -18h-111q-18 0 -18 18v1373q0 16 18 16h115
q14 0 20 -10l635 -1059q43 -70 57 -107q-12 94 -12 121v1039q0 16 19 16h110z" />
    <glyph glyph-name="nacute" unicode="&#x144;" horiz-adv-x="1169" 
d="M520 1280q-8 0 -11 5t1 11l170 246q6 10 18 10h101q10 0 13 -6t-3 -12l-197 -246q-8 -8 -18 -8h-74zM694 1133q129 0 220.5 -94.5t91.5 -227.5v-786q0 -14 -15 -15h-112q-16 0 -17 15v763q0 217 -209 218h-129q-96 0 -148 -51.5t-52 -147.5v-782q0 -14 -15 -15h-112
q-16 0 -17 15v1079q0 14 17 14h100q18 0 18 -12v-14q0 -20 -5 -54t-5 -39q20 45 57 74q74 59 179 60h153z" />
    <glyph glyph-name="uni0145" unicode="&#x145;" horiz-adv-x="1370" 
d="M1157 1407q18 0 19 -16v-1373q0 -18 -19 -18h-108q-14 0 -21 12l-641 1071q-45 74 -59 107q14 -92 14 -121v-1051q0 -18 -18 -18h-111q-18 0 -18 18v1373q0 16 18 16h115q14 0 20 -10l635 -1059q43 -70 57 -107q-12 94 -12 121v1039q0 16 19 16h110zM750 -106
q8 0 12 -4.5t4 -12.5l-27 -315q-2 -23 -16 -23h-51q-20 0 -21 12v326q0 16 17 17h82z" />
    <glyph glyph-name="uni0146" unicode="&#x146;" horiz-adv-x="1169" 
d="M694 1133q129 0 220.5 -94.5t91.5 -227.5v-786q0 -14 -15 -15h-112q-16 0 -17 15v763q0 217 -209 218h-129q-96 0 -148 -51.5t-52 -147.5v-782q0 -14 -15 -15h-112q-16 0 -17 15v1079q0 14 17 14h100q18 0 18 -12v-14q0 -20 -5 -54t-5 -39q20 45 57 74q74 59 179 60h153z
M641 -113q18 0 16 -16l-26 -338q-2 -23 -17 -22h-51q-23 -2 -22 12v348q0 16 16 16h84z" />
    <glyph glyph-name="Ncaron" unicode="&#x147;" horiz-adv-x="1370" 
d="M424 1759h78q8 0 18 -8l137 -127q20 -18 25 -33q4 14 25 33l137 127q8 8 18 8h78q8 0 11 -5t-3 -11l-200 -215q-8 -10 -17 -10h-96q-8 0 -19 10l-202 215q-4 6 -1 11t11 5zM1157 1407q18 0 19 -16v-1373q0 -18 -19 -18h-108q-14 0 -21 12l-641 1071q-45 74 -59 107
q14 -92 14 -121v-1051q0 -18 -18 -18h-111q-18 0 -18 18v1373q0 16 18 16h115q14 0 20 -10l635 -1059q43 -70 57 -107q-12 94 -12 121v1039q0 16 19 16h110z" />
    <glyph glyph-name="ncaron" unicode="&#x148;" horiz-adv-x="1169" 
d="M332 1520h80q8 0 18 -9l143 -135q23 -20 27 -35q2 14 25 35l143 135q10 8 18 9h80q8 0 11.5 -5.5t-3.5 -11.5l-206 -229q-10 -12 -19 -12h-98q-8 0 -19 12l-208 229q-6 6 -3 11.5t11 5.5zM694 1133q129 0 220.5 -94.5t91.5 -227.5v-786q0 -14 -15 -15h-112q-16 0 -17 15
v763q0 217 -209 218h-129q-96 0 -148 -51.5t-52 -147.5v-782q0 -14 -15 -15h-112q-16 0 -17 15v1079q0 14 17 14h100q18 0 18 -12v-14q0 -20 -5 -54t-5 -39q20 45 57 74q74 59 179 60h153z" />
    <glyph glyph-name="napostrophe" unicode="&#x149;" 
d="M74 1499q18 0 16 -16l-27 -336q-2 -25 -16 -25h-51q-23 0 -23 13v348q0 16 17 16h84zM725 1133q127 0 219 -94.5t92 -227.5v-786q0 -14 -16 -15h-111q-16 0 -16 15v763q0 217 -209 218h-131q-94 0 -146.5 -51.5t-52.5 -147.5v-782q0 -14 -16 -15h-111q-16 0 -16 15v1079
q0 14 16 14h101q18 0 18 -12v-14q0 -20 -5 -54t-5 -39q20 45 57 74q74 59 178 60h154z" />
    <glyph glyph-name="Eng" unicode="&#x14a;" horiz-adv-x="1370" 
d="M1176 68v-5v-90q0 -90 -27 -154.5t-73 -98t-97 -49t-111 -15.5h-53q-14 0 -14 14v86q0 14 12 15h27q205 0 204 166q0 33 -14 71q-2 2 -2 4l-641 1071q-45 74 -59 107q14 -92 14 -121v-1051q0 -18 -18 -18h-111q-18 0 -18 18v1373q0 16 18 16h115q14 0 20 -10l635 -1059
q43 -70 57 -107q-12 94 -12 121v1039q0 16 19 16h110q18 0 19 -16v-1323z" />
    <glyph glyph-name="eng" unicode="&#x14b;" horiz-adv-x="1169" 
d="M1006 209v-234q0 -162 -96.5 -249.5t-223.5 -87.5h-53q-16 0 -17 16v88q0 14 13 14h10q223 0 223 217v47q-2 2 -2 5v763q0 217 -209 218h-129q-96 0 -147 -51.5t-51 -147.5v-782q0 -14 -17 -15h-112q-16 0 -17 15v1079q0 14 17 14h102q16 0 16 -12v-14q0 -20 -5 -54
t-5 -39q20 45 59 74q74 59 177 60h153q129 0 221.5 -94.5t92.5 -227.5v-602z" />
    <glyph glyph-name="Omacron" unicode="&#x14c;" horiz-adv-x="1236" 
d="M348 1548q-16 0 -16 17v63q0 16 16 17h547q16 0 16 -17v-63q0 -16 -16 -17h-547zM475 -4q-127 0 -218 91t-91 218v797q0 127 91 218t218 91h287q127 0 218 -91t91 -218v-797q0 -127 -91 -218t-218 -91h-287zM518 127h203q94 0 148.5 51t54.5 148v755q0 96 -54.5 147.5
t-148.5 51.5h-203q-96 0 -150.5 -51t-54.5 -148v-755q0 -96 54.5 -147.5t150.5 -51.5z" />
    <glyph glyph-name="omacron" unicode="&#x14d;" horiz-adv-x="1114" 
d="M272 1294q-16 0 -16 19v67q0 16 16 17h568q16 0 16 -17v-67q0 -18 -16 -19h-568zM645 1133q141 0 231.5 -94.5t90.5 -237.5v-475q0 -141 -90.5 -235.5t-229.5 -94.5h-180q-139 0 -229.5 94t-90.5 236v475q0 143 90.5 237.5t229.5 94.5h178zM621 1004h-127
q-203 0 -203 -218v-446q0 -217 203 -217h127q203 0 202 217v446q1 218 -202 218z" />
    <glyph glyph-name="Obreve" unicode="&#x14e;" horiz-adv-x="1236" 
d="M891 1743q14 0 12 -12q-4 -90 -74.5 -149.5t-160.5 -57.5h-95q-84 0 -151.5 59t-73.5 148q0 12 14 12h64q10 0 14 -12q4 -47 49.5 -83t116.5 -36h39q74 0 118 34.5t50 84.5q2 12 12 12h66zM475 -4q-127 0 -218 91t-91 218v797q0 127 91 218t218 91h287q127 0 218 -91
t91 -218v-797q0 -127 -91 -218t-218 -91h-287zM518 127h203q94 0 148.5 51t54.5 148v755q0 96 -54.5 147.5t-148.5 51.5h-203q-96 0 -150.5 -51t-54.5 -148v-755q0 -96 54.5 -147.5t150.5 -51.5z" />
    <glyph glyph-name="obreve" unicode="&#x14f;" horiz-adv-x="1114" 
d="M825 1491q14 0 15 -14q-6 -88 -77 -147.5t-159 -59.5h-94q-86 0 -153.5 59.5t-71.5 147.5q-2 14 12 14h63q12 0 15 -12q6 -49 50 -84t118 -35h37q74 0 117.5 35t50.5 84q2 12 14 12h63zM645 1133q141 0 231.5 -94.5t90.5 -237.5v-475q0 -141 -90.5 -235.5t-229.5 -94.5
h-180q-139 0 -229.5 94t-90.5 236v475q0 143 90.5 237.5t229.5 94.5h178zM621 1004h-127q-203 0 -203 -218v-446q0 -217 203 -217h127q203 0 202 217v446q1 218 -202 218z" />
    <glyph glyph-name="Ohungarumlaut" unicode="&#x150;" horiz-adv-x="1236" 
d="M379 1479q-8 0 -11 5t1 11l161 229q8 12 19 13h102q8 0 11.5 -5.5t-0.5 -11.5l-189 -229q-12 -12 -18 -12h-76zM686 1479q-8 0 -11 5t1 11l162 229q8 12 18 13h102q8 0 12.5 -5.5t-1.5 -11.5l-189 -229q-10 -12 -18 -12h-76zM475 -4q-127 0 -218 91t-91 218v797
q0 127 91 218t218 91h287q127 0 218 -91t91 -218v-797q0 -127 -91 -218t-218 -91h-287zM518 127h203q94 0 148.5 51t54.5 148v755q0 96 -54.5 147.5t-148.5 51.5h-203q-96 0 -150.5 -51t-54.5 -148v-755q0 -96 54.5 -147.5t150.5 -51.5z" />
    <glyph glyph-name="ohungarumlaut" unicode="&#x151;" horiz-adv-x="1114" 
d="M305 1221q-8 0 -11 5t1 13l168 244q8 12 18 12h105q10 0 13 -5t-3 -11l-195 -244q-10 -14 -18 -14h-78zM623 1221q-8 0 -11.5 5t0.5 13l168 244q8 12 19 12h104q10 0 13.5 -5t-3.5 -11l-194 -244q-10 -14 -19 -14h-77zM645 1133q141 0 231.5 -94.5t90.5 -237.5v-475
q0 -141 -90.5 -235.5t-229.5 -94.5h-180q-139 0 -229.5 94t-90.5 236v475q0 143 90.5 237.5t229.5 94.5h178zM621 1004h-127q-203 0 -203 -218v-446q0 -217 203 -217h127q203 0 202 217v446q1 218 -202 218z" />
    <glyph glyph-name="OE" unicode="&#x152;" horiz-adv-x="1781" 
d="M1706 131q16 0 16 -16v-99q0 -16 -16 -16h-1231q-127 0 -218 90t-91 219v789q0 127 91 218t218 91h1188q16 0 16 -14v-101q0 -16 -16 -16h-551q-18 0 -49 12q8 -25 8 -45v-397q0 -18 -8 -43q29 12 49 12h498q16 0 16 -16v-90q0 -14 -16 -15h-498q-16 0 -49 11
q10 -23 10 -43v-498q0 -20 -10 -45q33 12 49 12h594zM518 131h354q51 0 52 49v1053q0 43 -41 43h-365q-96 0 -150.5 -51t-54.5 -148v-747q0 -96 54.5 -147.5t150.5 -51.5z" />
    <glyph glyph-name="oe" unicode="&#x153;" horiz-adv-x="1781" 
d="M1348 1133q127 0 225 -92.5t98 -221.5v-260q0 -14 -16 -14h-633q-37 0 -53 10q10 -16 10 -45v-180q0 -98 52 -152.5t151 -54.5h139q92 0 141 49t49 141v9q0 12 15 12h112q16 0 15 -15v-20q-6 -125 -96.5 -214t-213.5 -89h-184q-160 0 -256 125q-92 -125 -256 -125h-180
q-139 0 -229.5 94t-90.5 236v475q0 143 90.5 237.5t229.5 94.5h178q166 0 258 -127q98 127 256 127h189zM1485 649q35 0 53 -10q-10 23 -10 49v127q0 90 -51.5 140.5t-147.5 50.5h-151q-96 0 -147.5 -50.5t-51.5 -140.5v-127q0 -27 -10 -49q18 10 53 10h463zM823 340v446
q0 217 -202 218h-127q-203 0 -203 -218v-446q0 -217 203 -217h127q202 0 202 217z" />
    <glyph glyph-name="Racute" unicode="&#x154;" horiz-adv-x="1183" 
d="M506 1538q-8 0 -11 4t1 12l170 230q6 10 18 10h100q10 0 13.5 -5t-2.5 -13l-197 -230q-8 -8 -18 -8h-74zM213 0q-18 0 -18 18v1373q0 16 18 16h543q131 0 223 -89t92 -216v-158q0 -113 -74.5 -195.5t-183.5 -95.5q-33 -2 -68 9q29 -33 43 -58l318 -581q4 -10 0 -16.5
t-14 -6.5h-117q-14 0 -21 12l-321 596q-6 10 -15 41q-18 -12 -36 -12h-205q-20 0 -43 10q8 -23 8 -45v-584q0 -18 -18 -18h-111zM334 748q27 12 47 12h338q94 0 148.5 51t54.5 139v135q0 88 -54.5 139.5t-150.5 51.5h-336q-18 0 -49 12q10 -25 10 -45v-450q0 -18 -8 -45z
" />
    <glyph glyph-name="racute" unicode="&#x155;" horiz-adv-x="710" 
d="M317 1280q-8 0 -11 5t1 11l170 246q6 10 19 10h100q10 0 13 -6t-3 -12l-196 -246q-8 -8 -19 -8h-74zM655 1133q14 0 15 -17v-96q0 -16 -15 -16h-131q-96 0 -148 -51.5t-52 -145.5v-782q0 -14 -15 -15h-112q-16 0 -17 15v1079q0 14 17 14h102q16 0 16 -12v-14
q0 -20 -4 -54t-6 -37q20 43 57 72q76 59 179 60h114z" />
    <glyph glyph-name="uni0156" unicode="&#x156;" horiz-adv-x="1183" 
d="M213 0q-18 0 -18 18v1373q0 16 18 16h543q131 0 223 -89t92 -216v-158q0 -113 -74.5 -195.5t-183.5 -95.5q-33 -2 -68 9q29 -33 43 -58l318 -581q4 -10 0 -16.5t-14 -6.5h-117q-14 0 -21 12l-321 596q-6 10 -15 41q-18 -12 -36 -12h-205q-20 0 -43 10q8 -23 8 -45v-584
q0 -18 -18 -18h-111zM334 748q27 12 47 12h338q94 0 148.5 51t54.5 139v135q0 88 -54.5 139.5t-150.5 51.5h-336q-18 0 -49 12q10 -25 10 -45v-450q0 -18 -8 -45zM641 -106q8 0 12 -4.5t4 -12.5l-26 -315q-2 -23 -17 -23h-51q-20 0 -20 12v326q0 16 16 17h82z" />
    <glyph glyph-name="uni0157" unicode="&#x157;" horiz-adv-x="710" 
d="M655 1133q14 0 15 -17v-96q0 -16 -15 -16h-131q-96 0 -148 -51.5t-52 -145.5v-782q0 -14 -15 -15h-112q-16 0 -17 15v1079q0 14 17 14h102q16 0 16 -12v-14q0 -20 -4 -54t-6 -37q20 43 57 72q76 59 179 60h114zM305 -113q18 0 17 -16l-27 -338q-2 -23 -16 -22h-52
q-23 -2 -22 12v348q0 16 16 16h84z" />
    <glyph glyph-name="Rcaron" unicode="&#x158;" horiz-adv-x="1183" 
d="M328 1763h78q8 0 18 -8l137 -127q20 -18 25 -33q2 14 24 33l135 127q10 8 21 8h76q8 0 11 -5t-1 -11l-201 -215q-10 -10 -18 -10h-96q-8 0 -19 10l-201 215q-4 6 -0.5 11t11.5 5zM213 0q-18 0 -18 18v1373q0 16 18 16h543q131 0 223 -89t92 -216v-158
q0 -113 -74.5 -195.5t-183.5 -95.5q-33 -2 -68 9q29 -33 43 -58l318 -581q4 -10 0 -16.5t-14 -6.5h-117q-14 0 -21 12l-321 596q-6 10 -15 41q-18 -12 -36 -12h-205q-20 0 -43 10q8 -23 8 -45v-584q0 -18 -18 -18h-111zM334 748q27 12 47 12h338q94 0 148.5 51t54.5 139v135
q0 88 -54.5 139.5t-150.5 51.5h-336q-18 0 -49 12q10 -25 10 -45v-450q0 -18 -8 -45z" />
    <glyph glyph-name="rcaron" unicode="&#x159;" horiz-adv-x="710" 
d="M129 1520h80q8 0 18 -9l144 -135q23 -20 26 -35q2 14 25 35l143 135q10 8 19 9h80q8 0 11 -5.5t-3 -11.5l-207 -229q-10 -12 -19 -12h-98q-8 0 -18 12l-209 229q-6 6 -3 11.5t11 5.5zM655 1133q14 0 15 -17v-96q0 -16 -15 -16h-131q-96 0 -148 -51.5t-52 -145.5v-782
q0 -14 -15 -15h-112q-16 0 -17 15v1079q0 14 17 14h102q16 0 16 -12v-14q0 -20 -4 -54t-6 -37q20 43 57 72q76 59 179 60h114z" />
    <glyph glyph-name="Sacute" unicode="&#x15a;" horiz-adv-x="1097" 
d="M453 1534q-8 0 -10.5 4t1.5 10l162 232q8 10 21 10h98q8 0 11 -5t-3 -13l-188 -230q-8 -8 -19 -8h-73zM430 -4q-131 0 -223 91t-92 220v129q0 18 16 19h113q18 0 18 -19v-110q0 -96 54.5 -147.5t148.5 -51.5h170q92 0 147.5 52t55.5 147v110q0 109 -123 168l-414 193
q-84 37 -133 105.5t-49 146.5v55q0 127 92 217t223 90h217q133 0 222.5 -90t89.5 -221v-58q0 -18 -19 -18h-113q-18 0 -18 18v54q0 86 -53 135t-144 49h-159q-88 0 -139.5 -50t-51.5 -134v-33q0 -109 113 -164l426 -199q180 -80 180 -268v-127q0 -129 -93 -219t-224 -90
h-238z" />
    <glyph glyph-name="sacute" unicode="&#x15b;" horiz-adv-x="997" 
d="M428 1280q-8 0 -11 5t1 11l170 246q8 10 18 10h101q10 0 13 -6t-3 -12l-197 -246q-8 -8 -18 -8h-74zM354 -4q-104 0 -178 73.5t-76 174.5v96q0 16 17 16h104q18 0 19 -14l2 -100q0 -51 37.5 -85t91.5 -34h276q51 0 86 36t35 87v127q0 41 -22.5 71.5t-59.5 40.5l-377 103
q-88 18 -141 78.5t-53 146.5v68q0 104 72.5 178t179.5 74h264q104 0 178 -74t76 -174v-49q0 -16 -17 -17h-104q-16 0 -19 15l-2 53q0 49 -37.5 84t-89.5 35h-251q-51 0 -85 -37t-34 -86v-76q0 -39 26.5 -66.5t67.5 -40.5l375 -100q88 -18 135 -81.5t47 -145.5v-127
q0 -104 -71.5 -177t-178.5 -73h-293z" />
    <glyph glyph-name="Scircumflex" unicode="&#x15c;" horiz-adv-x="1097" 
d="M281 1518q-8 0 -11.5 5t2.5 11l209 229q10 12 19 13h96q10 0 20 -13l207 -229q6 -6 3 -11t-11 -5h-80q-8 0 -18 10l-144 133q-23 20 -24 35q-4 -14 -27 -35l-143 -133q-10 -10 -19 -10h-79zM430 -4q-131 0 -223 91t-92 220v129q0 18 16 19h113q18 0 18 -19v-110
q0 -96 54.5 -147.5t148.5 -51.5h170q92 0 147.5 52t55.5 147v110q0 109 -123 168l-414 193q-84 37 -133 105.5t-49 146.5v55q0 127 92 217t223 90h217q133 0 222.5 -90t89.5 -221v-58q0 -18 -19 -18h-113q-18 0 -18 18v54q0 86 -53 135t-144 49h-159q-88 0 -139.5 -50
t-51.5 -134v-33q0 -109 113 -164l426 -199q180 -80 180 -268v-127q0 -129 -93 -219t-224 -90h-238z" />
    <glyph glyph-name="scircumflex" unicode="&#x15d;" horiz-adv-x="997" 
d="M258 1264q-8 0 -11 6t3 12l209 227q10 14 18 15h98q8 0 19 -15l207 -227q6 -6 3 -12t-11 -6h-80q-8 0 -19 10l-143 133q-20 23 -25 35q-4 -12 -26 -35l-144 -133q-10 -10 -18 -10h-80zM354 -4q-104 0 -178 73.5t-76 174.5v96q0 16 17 16h104q18 0 19 -14l2 -100
q0 -51 37.5 -85t91.5 -34h276q51 0 86 36t35 87v127q0 41 -22.5 71.5t-59.5 40.5l-377 103q-88 18 -141 78.5t-53 146.5v68q0 104 72.5 178t179.5 74h264q104 0 178 -74t76 -174v-49q0 -16 -17 -17h-104q-16 0 -19 15l-2 53q0 49 -37.5 84t-89.5 35h-251q-51 0 -85 -37
t-34 -86v-76q0 -39 26.5 -66.5t67.5 -40.5l375 -100q88 -18 135 -81.5t47 -145.5v-127q0 -104 -71.5 -177t-178.5 -73h-293z" />
    <glyph glyph-name="Scedilla" unicode="&#x15e;" horiz-adv-x="1097" 
d="M805 700q180 -80 180 -268v-127q0 -129 -93 -219t-224 -90h-80l-49 -72h18q70 0 121 -54t51 -126v-29q0 -72 -50 -130t-122 -58h-176q-16 0 -16 14v45q0 14 16 15h141q53 0 85 38.5t32 96.5q2 55 -31 88t-86 33h-90q-8 0 -13 5t-1 9l76 125h-64q-131 0 -223 91t-92 220
v129q0 18 16 19h113q18 0 18 -19v-110q0 -96 54.5 -147.5t148.5 -51.5h170q92 0 147.5 52t55.5 147v110q0 109 -123 168l-414 193q-84 37 -133 105.5t-49 146.5v55q0 127 92 217t223 90h217q133 0 222.5 -90t89.5 -221v-58q0 -18 -19 -18h-113q-18 0 -18 18v54q0 86 -53 135
t-144 49h-159q-88 0 -139.5 -50t-51.5 -134v-33q0 -109 113 -164z" />
    <glyph glyph-name="scedilla" unicode="&#x15f;" horiz-adv-x="997" 
d="M715 600q88 -18 135 -81.5t47 -145.5v-127q0 -104 -71.5 -177t-178.5 -73h-112l-50 -76h17q74 0 126 -57.5t52 -132.5v-33q0 -76 -51 -137.5t-127 -61.5h-183q-14 0 -14 15v47q0 16 14 16h148q55 0 89 41t34 102q0 57 -34 93t-89 36h-92q-8 0 -13.5 4.5t-3.5 10.5l82 133
h-86q-104 0 -178 73.5t-76 174.5v96q0 16 17 16h104q18 0 19 -14l2 -100q0 -51 37.5 -85t91.5 -34h276q51 0 86 36t35 87v127q0 41 -22.5 71.5t-59.5 40.5l-377 103q-88 18 -141 78.5t-53 146.5v68q0 104 72.5 178t179.5 74h264q104 0 178 -74t76 -174v-49q0 -16 -17 -17
h-104q-16 0 -19 15l-2 53q0 49 -37.5 84t-89.5 35h-251q-51 0 -85 -37t-34 -86v-76q0 -39 26.5 -66.5t67.5 -40.5z" />
    <glyph glyph-name="Scaron" unicode="&#x160;" horiz-adv-x="1097" 
d="M272 1759h78q8 0 19 -8l137 -127q20 -18 24 -33q2 14 25 33l137 127q8 8 19 8h75q10 0 13.5 -5t-2.5 -11l-201 -215q-8 -10 -16 -10h-97q-10 0 -18 10l-203 215q-4 6 -1 11t11 5zM430 -4q-131 0 -223 91t-92 220v129q0 18 16 19h113q18 0 18 -19v-110q0 -96 54.5 -147.5
t148.5 -51.5h170q92 0 147.5 52t55.5 147v110q0 109 -123 168l-414 193q-84 37 -133 105.5t-49 146.5v55q0 127 92 217t223 90h217q133 0 222.5 -90t89.5 -221v-58q0 -18 -19 -18h-113q-18 0 -18 18v54q0 86 -53 135t-144 49h-159q-88 0 -139.5 -50t-51.5 -134v-33
q0 -109 113 -164l426 -199q180 -80 180 -268v-127q0 -129 -93 -219t-224 -90h-238z" />
    <glyph glyph-name="scaron" unicode="&#x161;" horiz-adv-x="997" 
d="M242 1520h77q8 0 19 -9l143 -135q23 -20 27 -35q4 14 24 35l144 135q10 8 18 9h80q8 0 11 -5.5t-1 -11.5l-209 -229q-10 -12 -18 -12h-98q-8 0 -19 12l-209 229q-6 6 -2.5 11.5t13.5 5.5zM354 -4q-104 0 -178 73.5t-76 174.5v96q0 16 17 16h104q18 0 19 -14l2 -100
q0 -51 37.5 -85t91.5 -34h276q51 0 86 36t35 87v127q0 41 -22.5 71.5t-59.5 40.5l-377 103q-88 18 -141 78.5t-53 146.5v68q0 104 72.5 178t179.5 74h264q104 0 178 -74t76 -174v-49q0 -16 -17 -17h-104q-16 0 -19 15l-2 53q0 49 -37.5 84t-89.5 35h-251q-51 0 -85 -37
t-34 -86v-76q0 -39 26.5 -66.5t67.5 -40.5l375 -100q88 -18 135 -81.5t47 -145.5v-127q0 -104 -71.5 -177t-178.5 -73h-293z" />
    <glyph glyph-name="uni0162" unicode="&#x162;" horiz-adv-x="864" 
d="M883 1407q18 0 18 -16v-97q0 -18 -18 -18h-336q-18 0 -49 12q8 -23 8 -43v-1227q0 -18 -19 -18h-8l-51 -76h18q70 0 120 -54t50 -124v-31q0 -72 -49 -130t-121 -58h-178q-14 0 -14 14v45q0 14 14 15h144q53 0 84.5 38.5t31.5 96.5q0 55 -31.5 88t-84.5 33h-90
q-8 0 -13.5 5t-3.5 9l80 129h-8q-18 0 -19 18v1227q0 23 11 43q-37 -12 -52 -12h-335q-18 0 -19 18v97q0 16 19 16h901z" />
    <glyph glyph-name="uni0163" unicode="&#x163;" horiz-adv-x="847" 
d="M741 1118q16 0 17 -16v-92q0 -18 -17 -19h-209q-39 0 -55 13q10 -18 10 -50v-929q0 -14 -14 -15h-12l-51 -80h18q72 0 124 -57t52 -133v-33q0 -76 -51 -137.5t-125 -61.5h-184q-14 0 -15 15v49q0 14 15 14h147q55 0 89 41t34 103q0 57 -34 93t-89 36h-92q-8 0 -13 5
t-3 11l82 135h-5q-16 0 -16 15v929q0 29 10 47q-18 -10 -53 -10h-195q-18 0 -18 19v92q0 16 18 16h195q35 0 55 -8q-12 16 -12 47v277q0 8 18 16l109 49q16 8 16 -10v-330q0 -37 -10 -51q12 10 55 10h209z" />
    <glyph glyph-name="Tcaron" unicode="&#x164;" horiz-adv-x="864" 
d="M172 1759h78q8 0 18 -8l138 -127q20 -18 24 -33q2 14 25 33l135 127q10 8 20 8h76q8 0 11 -5t-1 -11l-200 -215q-10 -10 -19 -10h-96q-8 0 -16 10l-203 215q-4 6 -1 11t11 5zM883 1407q18 0 18 -16v-97q0 -18 -18 -18h-336q-18 0 -49 12q8 -23 8 -43v-1227q0 -18 -19 -18
h-110q-18 0 -19 18v1227q0 23 11 43q-37 -12 -52 -12h-335q-18 0 -19 18v97q0 16 19 16h901z" />
    <glyph glyph-name="tcaron" unicode="&#x165;" horiz-adv-x="724" 
d="M821 1612q18 0 19 -17l-29 -338q-2 -23 -16 -22h-52q-23 0 -22 12v348q0 16 16 17h84zM741 1118q16 0 17 -16v-92q0 -18 -17 -19h-209q-39 0 -55 13q10 -18 10 -50v-929q0 -14 -14 -15h-113q-16 0 -16 15v929q0 29 10 47q-18 -10 -53 -10h-195q-18 0 -18 19v92
q0 16 18 16h195q35 0 55 -8q-12 16 -12 47v277q0 8 18 16l109 49q16 8 16 -10v-330q0 -37 -10 -51q12 10 55 10h209z" />
    <glyph glyph-name="Tbar" unicode="&#x166;" horiz-adv-x="864" 
d="M883 1407q18 0 18 -16v-97q0 -18 -18 -18h-336q-18 0 -49 12q8 -23 8 -43v-393h196q16 0 17 -14v-64q0 -16 -17 -16h-196v-740q0 -18 -19 -18h-110q-18 0 -19 18v740h-202q-16 0 -17 16v64q0 14 17 14h202v393q0 23 11 43q-37 -12 -52 -12h-335q-18 0 -19 18v97
q0 16 19 16h901z" />
    <glyph glyph-name="tbar" unicode="&#x167;" horiz-adv-x="847" 
d="M741 1118q16 0 17 -16v-92q0 -18 -17 -19h-209q-39 0 -55 13q10 -18 10 -50v-229h148q14 0 14 -16v-68q0 -18 -14 -18h-148v-598q0 -14 -14 -15h-113q-16 0 -16 15v598h-143q-14 0 -15 18v68q0 16 15 16h143v229q0 29 10 47q-18 -10 -53 -10h-195q-18 0 -18 19v92
q0 16 18 16h195q35 0 55 -8q-12 16 -12 47v277q0 8 18 16l109 49q16 8 16 -10v-330q0 -37 -10 -51q12 10 55 10h209z" />
    <glyph glyph-name="Utilde" unicode="&#x168;" horiz-adv-x="1253" 
d="M877 1702q14 0 12 -14q-8 -74 -55.5 -122t-114.5 -48q-66 0 -133 55q-59 45 -94 45q-37 0 -61.5 -25.5t-29.5 -62.5q-2 -12 -14 -12h-57q-14 0 -13 14q6 76 54.5 124t115.5 48q66 0 134 -55q59 -47 94 -47q37 0 61.5 26.5t28.5 61.5q2 12 14 12h58zM1063 1407
q16 0 16 -16v-1084q0 -129 -92 -220t-221 -91h-277q-131 0 -223 91t-92 220v1084q0 16 19 16h110q18 0 19 -16v-1065q0 -96 54 -147.5t150 -51.5h203q94 0 148.5 51t54.5 148v1065q0 16 18 16h113z" />
    <glyph glyph-name="utilde" unicode="&#x169;" horiz-adv-x="1159" 
d="M840 1460q14 0 14 -16q-8 -80 -58.5 -131t-119.5 -51q-68 0 -137 59q-61 49 -99 49q-39 0 -64.5 -27.5t-29.5 -66.5q-2 -12 -14 -12h-60q-14 0 -12 14q8 80 57.5 131t118.5 51q68 0 139 -59q59 -49 97 -49q39 0 64.5 27.5t29.5 66.5q4 14 14 14h60zM481 -4
q-127 0 -219 94t-92 227v787q0 14 16 14h111q16 0 16 -14v-762q0 -217 209 -217h113q96 0 148.5 51t52.5 146v782q0 14 14 14h113q16 0 16 -14v-1079q0 -14 -16 -15h-103q-16 0 -16 13v14q0 20 5 54t5 38q-20 -45 -57 -74q-74 -59 -179 -59h-137z" />
    <glyph glyph-name="Umacron" unicode="&#x16a;" horiz-adv-x="1253" 
d="M346 1548q-16 0 -16 17v63q0 16 16 17h547q16 0 16 -17v-63q0 -16 -16 -17h-547zM1063 1407q16 0 16 -16v-1084q0 -129 -92 -220t-221 -91h-277q-131 0 -223 91t-92 220v1084q0 16 19 16h110q18 0 19 -16v-1065q0 -96 54 -147.5t150 -51.5h203q94 0 148.5 51t54.5 148
v1065q0 16 18 16h113z" />
    <glyph glyph-name="umacron" unicode="&#x16b;" horiz-adv-x="1159" 
d="M291 1294q-16 0 -17 19v67q0 16 17 17h567q16 0 16 -17v-67q0 -18 -16 -19h-567zM481 -4q-127 0 -219 94t-92 227v787q0 14 16 14h111q16 0 16 -14v-762q0 -217 209 -217h113q96 0 148.5 51t52.5 146v782q0 14 14 14h113q16 0 16 -14v-1079q0 -14 -16 -15h-103
q-16 0 -16 13v14q0 20 5 54t5 38q-20 -45 -57 -74q-74 -59 -179 -59h-137z" />
    <glyph glyph-name="Ubreve" unicode="&#x16c;" horiz-adv-x="1253" 
d="M881 1731q14 0 12 -13q-4 -84 -72.5 -139t-154.5 -55h-91q-84 0 -148.5 56t-70.5 138q0 12 15 13h61q12 0 14 -11q6 -45 48.5 -78.5t111.5 -33.5h37q72 0 114 32.5t48 79.5q2 10 12 11h64zM1063 1407q16 0 16 -16v-1084q0 -129 -92 -220t-221 -91h-277q-131 0 -223 91
t-92 220v1084q0 16 19 16h110q18 0 19 -16v-1065q0 -96 54 -147.5t150 -51.5h203q94 0 148.5 51t54.5 148v1065q0 16 18 16h113z" />
    <glyph glyph-name="ubreve" unicode="&#x16d;" horiz-adv-x="1159" 
d="M844 1491q14 0 14 -14q-6 -88 -76.5 -147.5t-158.5 -59.5h-95q-86 0 -153.5 59.5t-71.5 147.5q-2 14 12 14h64q12 0 14 -12q6 -49 50 -84t118 -35h37q74 0 118 35t50 84q2 12 14 12h64zM481 -4q-127 0 -219 94t-92 227v787q0 14 16 14h111q16 0 16 -14v-762
q0 -217 209 -217h113q96 0 148.5 51t52.5 146v782q0 14 14 14h113q16 0 16 -14v-1079q0 -14 -16 -15h-103q-16 0 -16 13v14q0 20 5 54t5 38q-20 -45 -57 -74q-74 -59 -179 -59h-137z" />
    <glyph glyph-name="Uring" unicode="&#x16e;" horiz-adv-x="1253" 
d="M621 1763q82 0 140 -56t58 -134v-25q0 -78 -58.5 -134t-139.5 -56h-9q-82 0 -140 56t-58 134v25q0 78 58 134t140 56h9zM618 1688h-4q-47 0 -78.5 -35t-31.5 -86v-17q0 -49 31.5 -84.5t78.5 -35.5h4q45 0 78 35.5t33 84.5v17q0 51 -33 86t-78 35zM1063 1407q16 0 16 -16
v-1084q0 -129 -92 -220t-221 -91h-277q-131 0 -223 91t-92 220v1084q0 16 19 16h110q18 0 19 -16v-1065q0 -96 54 -147.5t150 -51.5h203q94 0 148.5 51t54.5 148v1065q0 16 18 16h113z" />
    <glyph glyph-name="uring" unicode="&#x16f;" horiz-adv-x="1159" 
d="M573 1360q84 0 144.5 -59.5t60.5 -143.5v-24q0 -84 -60.5 -144.5t-144.5 -60.5h-8q-86 0 -146.5 60.5t-60.5 144.5v24q0 84 60.5 143.5t146.5 59.5h8zM571 1280h-6q-47 0 -80.5 -38t-33.5 -89v-18q0 -53 33.5 -91t80.5 -38h6q47 0 81 37.5t34 91.5v18q0 51 -34 89t-81 38
zM481 -4q-127 0 -219 94t-92 227v787q0 14 16 14h111q16 0 16 -14v-762q0 -217 209 -217h113q96 0 148.5 51t52.5 146v782q0 14 14 14h113q16 0 16 -14v-1079q0 -14 -16 -15h-103q-16 0 -16 13v14q0 20 5 54t5 38q-20 -45 -57 -74q-74 -59 -179 -59h-137z" />
    <glyph glyph-name="Uhungarumlaut" unicode="&#x170;" horiz-adv-x="1253" 
d="M377 1479q-8 0 -11.5 5t1.5 11l161 229q8 12 19 13h104q8 0 11.5 -5.5t-3.5 -11.5l-188 -229q-10 -12 -18 -12h-76zM684 1479q-8 0 -11 5t3 11l162 229q8 12 16 13h104q8 0 11.5 -5.5t-0.5 -11.5l-191 -229q-10 -12 -18 -12h-76zM1063 1407q16 0 16 -16v-1084
q0 -129 -92 -220t-221 -91h-277q-131 0 -223 91t-92 220v1084q0 16 19 16h110q18 0 19 -16v-1065q0 -96 54 -147.5t150 -51.5h203q94 0 148.5 51t54.5 148v1065q0 16 18 16h113z" />
    <glyph glyph-name="uhungarumlaut" unicode="&#x171;" horiz-adv-x="1159" 
d="M324 1221q-8 0 -11.5 5t0.5 13l168 244q8 12 19 12h104q10 0 13.5 -5t-3.5 -11l-194 -244q-10 -14 -19 -14h-77zM641 1221q-8 0 -11 5t1 13l168 244q8 12 18 12h105q10 0 13 -5t-3 -11l-195 -244q-10 -14 -18 -14h-78zM481 -4q-127 0 -219 94t-92 227v787q0 14 16 14h111
q16 0 16 -14v-762q0 -217 209 -217h113q96 0 148.5 51t52.5 146v782q0 14 14 14h113q16 0 16 -14v-1079q0 -14 -16 -15h-103q-16 0 -16 13v14q0 20 5 54t5 38q-20 -45 -57 -74q-74 -59 -179 -59h-137z" />
    <glyph glyph-name="Uogonek" unicode="&#x172;" horiz-adv-x="1253" 
d="M1063 1407q16 0 16 -16v-1084q0 -129 -92 -220t-221 -91h-33h-2l-84 -57q-61 -41 -86.5 -79t-25.5 -89q0 -55 30.5 -85t87.5 -30h133q14 0 15 -18v-41q0 -14 -15 -15h-151q-82 0 -135.5 50.5t-53.5 123.5v23q0 57 36 111.5t96 93.5l18 12h-107q-131 0 -223 91t-92 220
v1084q0 16 19 16h110q18 0 19 -16v-1065q0 -96 54 -147.5t150 -51.5h203q94 0 148.5 51t54.5 148v1065q0 16 18 16h113z" />
    <glyph glyph-name="uogonek" unicode="&#x173;" horiz-adv-x="1159" 
d="M993 -356q16 0 17 -21v-43q0 -16 -17 -16h-157q-84 0 -138.5 54t-54.5 132v25q0 59 36 116.5t99 100.5l66 47q0 20 5 53t5 37q-20 -45 -57 -74q-74 -59 -179 -59h-137q-127 0 -219 94t-92 227v787q0 14 16 14h111q16 0 16 -14v-762q0 -217 209 -217h113q96 0 148.5 51
t52.5 146v782q0 14 14 14h113q16 0 16 -14v-1079q0 -14 -16 -15h-21q-2 -4 -6 -6l-86 -61q-63 -43 -91 -83t-28 -96q0 -57 33 -88.5t90 -31.5h139z" />
    <glyph glyph-name="Wcircumflex" unicode="&#x174;" horiz-adv-x="1671" 
d="M582 1520q-8 0 -11.5 5t0.5 11l203 215q8 10 17 10h96q8 0 18 -10l201 -215q4 -6 1 -11t-11 -5h-76q-10 0 -21 8l-135 127q-23 18 -24 33q-4 -14 -25 -33l-137 -127q-10 -8 -19 -8h-77zM391 0q-16 0 -20 14l-369 1372q-6 20 16 21h117q14 0 19 -14l276 -1102
q14 -55 23 -135q8 78 22 133l281 1104q4 14 20 14h119q16 0 20 -14l281 -1104q14 -55 23 -133q8 80 22 133l275 1104q4 14 20 14h117q20 0 14 -21l-367 -1372q-4 -14 -20 -14h-117q-16 0 -20 14l-285 1080q-14 55 -22 129q-8 -72 -23 -129l-285 -1080q-4 -14 -20 -14h-117z
" />
    <glyph glyph-name="wcircumflex" unicode="&#x175;" horiz-adv-x="1675" 
d="M635 1264q-8 0 -11 6t1 12l211 227q10 14 18 15h96q8 0 19 -15l209 -227q6 -6 3 -12t-14 -6h-77q-8 0 -19 10l-143 133q-23 23 -25 35q-4 -12 -26 -35l-144 -133q-10 -10 -18 -10h-80zM1591 1128q20 0 15 -20l-361 -1094q-4 -14 -18 -14h-84q-16 0 -21 14l-274 873
q-6 18 -10 53q-6 -37 -11 -53l-274 -873q-6 -14 -21 -14h-83q-14 0 -19 14l-360 1094q-6 20 14 20h104q14 0 19 -14l260 -817q16 -55 25 -121q6 68 24 125l256 805q4 14 19 14h92q14 0 20 -14l256 -803q18 -57 25 -125q8 66 24 119l260 817q4 14 19 14h104z" />
    <glyph glyph-name="Ycircumflex" unicode="&#x176;" horiz-adv-x="1052" 
d="M268 1520q-8 0 -11 5t1 11l201 215q10 10 18 10h96q8 0 19 -10l201 -215q4 -6 1 -11t-12 -5h-75q-10 0 -21 8l-135 127q-23 18 -25 33q-4 -14 -24 -33l-137 -127q-10 -8 -19 -8h-78zM469 0q-18 0 -18 18v510q0 4 4 11v4q-10 10 -15 18l-463 825q-12 20 13 21h121
q16 0 22 -12l365 -656q16 -31 28 -75q10 45 27 75l367 656q6 12 20 12h121q25 0 14 -21l-463 -825q-6 -10 -14 -18v-4q2 -6 2 -11v-510q0 -18 -18 -18h-113z" />
    <glyph glyph-name="ycircumflex" unicode="&#x177;" horiz-adv-x="995" 
d="M231 1264q-8 0 -11 6t1 12l211 227q10 14 19 15h96q8 0 18 -15l209 -227q6 -6 2 -12t-12 -6h-78q-10 0 -20 10l-142 133q-23 23 -24 35h-2q-2 -12 -25 -35l-143 -133q-10 -10 -19 -10h-80zM940 1128q20 0 14 -20l-469 -1323q-49 -141 -120.5 -217t-190.5 -76h-65
q-16 0 -17 16v99q0 16 14 16h68q47 0 78 11.5t53.5 44t33.5 58t32 83.5l59 172q0 2 7 8l7 6q-4 -2 -13 0t-9 6l-387 1096q-8 20 12 20h107q14 0 18 -14l303 -868q16 -49 19 -84q4 37 20 84l301 868q4 14 19 14h106z" />
    <glyph glyph-name="Ydieresis" unicode="&#x178;" horiz-adv-x="1052" 
d="M313 1516q-16 0 -16 16v143q0 16 16 17h88q16 0 17 -17v-143q0 -16 -17 -16h-88zM645 1516q-16 0 -16 16v143q0 16 16 17h86q18 0 19 -17v-143q0 -16 -19 -16h-86zM469 0q-18 0 -18 18v510q0 4 4 11v4q-10 10 -15 18l-463 825q-12 20 13 21h121q16 0 22 -12l365 -656
q16 -31 28 -75q10 45 27 75l367 656q6 12 20 12h121q25 0 14 -21l-463 -825q-6 -10 -14 -18v-4q2 -6 2 -11v-510q0 -18 -18 -18h-113z" />
    <glyph glyph-name="Zacute" unicode="&#x179;" horiz-adv-x="948" 
d="M406 1534q-8 0 -11.5 4t0.5 10l164 232q6 10 19 10h100q8 0 11 -5t-3 -13l-190 -230q-8 -8 -19 -8h-71zM907 131q18 0 19 -18v-95q0 -18 -19 -18h-862q-14 0 -14 20v84q0 18 10 35l635 1088q6 12 17.5 24.5t21.5 22.5t10 12q-29 -10 -72 -10h-542q-18 0 -19 18l2 97
q0 16 17 16h747q14 0 14 -18l-2 -86q0 -16 -10 -35l-633 -1086q-8 -14 -19 -27.5t-22 -24.5l-12 -11q33 12 82 12h651z" />
    <glyph glyph-name="zacute" unicode="&#x17a;" horiz-adv-x="919" 
d="M426 1280q-8 0 -11 5t1 11l170 246q6 10 18 10h101q10 0 13 -6t-3 -12l-197 -246q-8 -8 -18 -8h-74zM860 137q16 0 17 -18v-92q0 -16 -17 -17h-801q-16 0 -16 21v96q0 4 2 6l598 807q35 45 88 70q-41 -8 -121 -9h-460q-16 0 -17 17v94q0 16 17 16h692q14 0 14 -20v-88
q0 -6 -4 -10l-594 -813q-33 -45 -82 -70q39 10 113 10h571z" />
    <glyph glyph-name="Zdotaccent" unicode="&#x17b;" horiz-adv-x="948" 
d="M440 1544q-14 0 -14 15v147q0 14 14 14h113q14 0 14 -14v-147q0 -14 -14 -15h-113zM907 131q18 0 19 -18v-95q0 -18 -19 -18h-862q-14 0 -14 20v84q0 18 10 35l635 1088q6 12 17.5 24.5t21.5 22.5t10 12q-29 -10 -72 -10h-542q-18 0 -19 18l2 97q0 16 17 16h747
q14 0 14 -18l-2 -86q0 -16 -10 -35l-633 -1086q-8 -14 -19 -27.5t-22 -24.5l-12 -11q33 12 82 12h651z" />
    <glyph glyph-name="zdotaccent" unicode="&#x17c;" horiz-adv-x="919" 
d="M463 1290q-14 0 -14 17v155q0 16 14 17h112q16 0 17 -17v-155q0 -16 -17 -17h-112zM860 137q16 0 17 -18v-92q0 -16 -17 -17h-801q-16 0 -16 21v96q0 4 2 6l598 807q35 45 88 70q-41 -8 -121 -9h-460q-16 0 -17 17v94q0 16 17 16h692q14 0 14 -20v-88q0 -6 -4 -10
l-594 -813q-33 -45 -82 -70q39 10 113 10h571z" />
    <glyph glyph-name="Zcaron" unicode="&#x17d;" horiz-adv-x="948" 
d="M225 1759h76q10 0 21 -8l137 -127q20 -18 24 -33q2 14 25 33l135 127q10 8 19 8h77q8 0 11.5 -5t-0.5 -11l-201 -215q-10 -10 -19 -10h-96q-8 0 -18 10l-201 215q-4 6 -1 11t11 5zM907 131q18 0 19 -18v-95q0 -18 -19 -18h-862q-14 0 -14 20v84q0 18 10 35l635 1088
q6 12 17.5 24.5t21.5 22.5t10 12q-29 -10 -72 -10h-542q-18 0 -19 18l2 97q0 16 17 16h747q14 0 14 -18l-2 -86q0 -16 -10 -35l-633 -1086q-8 -14 -19 -27.5t-22 -24.5l-12 -11q33 12 82 12h651z" />
    <glyph glyph-name="zcaron" unicode="&#x17e;" horiz-adv-x="919" 
d="M238 1520h79q8 0 19 -9l143 -135q23 -20 27 -35q2 14 24 35l144 135q10 8 18 9h80q8 0 11 -5.5t-3 -11.5l-207 -229q-10 -12 -18 -12h-98q-8 0 -19 12l-209 229q-6 6 -2.5 11.5t11.5 5.5zM860 137q16 0 17 -18v-92q0 -16 -17 -17h-801q-16 0 -16 21v96q0 4 2 6l598 807
q35 45 88 70q-41 -8 -121 -9h-460q-16 0 -17 17v94q0 16 17 16h692q14 0 14 -20v-88q0 -6 -4 -10l-594 -813q-33 -45 -82 -70q39 10 113 10h571z" />
    <glyph glyph-name="uni018F" unicode="&#x18f;" horiz-adv-x="1236" 
d="M489 -4q-127 0 -225 92t-98 221v473q0 14 14 15h705q37 0 53 -11q-10 16 -10 45v246q0 98 -52.5 153.5t-152.5 55.5h-217q-90 0 -139.5 -49t-51.5 -141v-9q0 -14 -14 -14l-113 2q-16 0 -14 15v20q6 125 96 213t213 88h265q135 0 229 -95t94 -231v-759q0 -135 -95 -232.5
t-228 -97.5h-259zM352 690q-35 0 -53 12q8 -23 8 -49v-340q0 -92 52.5 -141t148.5 -49h219q96 0 148.5 49t52.5 141v340q0 27 8 49q-18 -12 -51 -12h-533z" />
    <glyph glyph-name="florin" unicode="&#x192;" horiz-adv-x="940" 
d="M895 1645q14 0 12 -15l-18 -110q-4 -16 -19 -17h-41q-94 0 -153.5 -51t-75.5 -147l-25 -138q-4 -25 -18 -53q25 14 51 14h164q14 0 14 -18v-92q0 -16 -18 -17h-182q-29 0 -47 17q8 -31 4 -55l-168 -959q-27 -143 -132.5 -235.5t-248.5 -90.5h-53q-16 0 -15 17l19 108
q4 16 20 17h41q92 0 151.5 51t75.5 145l166 947q4 29 21 53q-27 -14 -53 -15h-107q-12 0 -12 17v96q0 14 16 14h125q25 0 47 -14q-6 31 -2 53l27 152q27 145 133 236.5t246 91.5z" />
    <glyph glyph-name="uni019D" unicode="&#x19d;" horiz-adv-x="1370" 
d="M1157 1407q18 0 19 -16v-1373q0 -18 -17 -18h-112q-14 0 -21 12l-639 1075q-45 74 -57 107q12 -92 12 -121v-1098q0 -92 -26.5 -156.5t-73.5 -98t-97.5 -49t-109.5 -15.5h-53q-14 0 -15 14v86q0 14 10 15h29q90 0 139.5 38.5t49.5 133.5v82v1366q0 16 18 16h117
q14 0 22 -10l633 -1063q41 -72 57 -107q-14 94 -14 123v1041q0 16 19 16h110z" />
    <glyph glyph-name="Ohorn" unicode="&#x1a0;" horiz-adv-x="1261" 
d="M1233 1538q10 0 10 -10v-283q0 -55 -34.5 -87t-82.5 -34h-47h-8v-22v-797q0 -127 -91 -218t-218 -91h-287q-127 0 -218 91t-91 218v797q0 127 91 218t218 91h287q98 0 178 -56.5t113 -146.5h19h11h15q27 0 38 13.5t11 46.5v260q0 10 10 10h76zM924 326v755
q0 96 -54.5 147.5t-148.5 51.5h-203q-96 0 -150.5 -51t-54.5 -148v-755q0 -96 54.5 -147.5t150.5 -51.5h203q94 0 148.5 51.5t54.5 147.5z" />
    <glyph glyph-name="ohorn" unicode="&#x1a1;" horiz-adv-x="1148" 
d="M1133 1321q10 0 10 -10v-301q0 -59 -36 -94t-83 -35h-49h-17q8 -37 9 -80v-475q0 -141 -90.5 -235.5t-229.5 -94.5h-180q-139 0 -229.5 94t-90.5 236v475q0 143 90.5 237.5t229.5 94.5h178q94 0 167 -44.5t114 -117.5h34h19h14q29 0 40 13t11 48v279q0 10 11 10h78z
M823 340v446q0 217 -202 218h-127q-203 0 -203 -218v-446q0 -217 203 -217h127q202 0 202 217z" />
    <glyph glyph-name="Uhorn" unicode="&#x1af;" horiz-adv-x="1253" 
d="M1294 1538q10 0 11 -10v-283q0 -55 -35 -87t-82 -34h-47q-23 0 -62 6v-823q0 -129 -92 -220t-221 -91h-277q-131 0 -223 91t-92 220v1084q0 16 19 16h110q18 0 19 -16v-1065q0 -96 54 -147.5t150 -51.5h203q94 0 148.5 51t54.5 148v1065q0 16 18 16h113q16 0 16 -16v-183
h66h14q27 0 38 13.5t11 46.5v260q0 10 11 10h75z" />
    <glyph glyph-name="uhorn" unicode="&#x1b0;" horiz-adv-x="1159" 
d="M1153 1339q10 0 10 -10v-301q0 -59 -35.5 -93t-83.5 -34h-49h-16v-876q0 -14 -16 -15h-103q-16 0 -16 13v14q0 20 5 54t5 38q-20 -45 -57 -72q-74 -61 -179 -61h-137q-127 0 -219 94t-92 227v787q0 16 16 16h111q16 0 16 -16v-762q0 -217 209 -217h113q96 0 148.5 51
t52.5 146v782q0 16 14 16h113q16 0 16 -16v-115h20h15q29 0 40 13.5t11 50.5v276q0 10 12 10h76z" />
    <glyph glyph-name="uni01C4" unicode="&#x1c4;" horiz-adv-x="2060" 
d="M1325 1774h80q8 0 18 -11l144 -133q23 -20 26 -35q2 14 25 35l143 133q10 10 19 11h78q10 0 13 -5.5t-3 -11.5l-209 -229q-10 -12 -19 -12h-96q-8 0 -18 12l-211 229q-4 6 -1 11.5t11 5.5zM2017 131q18 0 19 -18v-95q0 -18 -19 -18h-862q-14 0 -14 20v84q0 18 10 35
l635 1088q8 12 18.5 24.5t20.5 22.5l12 12q-29 -10 -74 -10h-540q-18 0 -19 18v97q0 16 19 16h745q14 0 14 -18v-86q0 -18 -12 -35l-633 -1086q-8 -14 -19 -27.5t-22 -24.5l-12 -11q33 12 82 12h651zM211 0q-16 0 -16 16v1375q0 16 16 16h577q129 0 221.5 -91t92.5 -218
v-787q0 -129 -92 -220t-222 -91h-577zM332 121q31 10 49 10h371q94 0 148 51t54 140v763q0 88 -54 139.5t-148 51.5h-371q-18 0 -49 12q10 -25 10 -45v-1079q0 -20 -10 -43z" />
    <glyph glyph-name="uni01C5" unicode="&#x1c5;" horiz-adv-x="2187" 
d="M1507 1520h78q10 0 21 -9l141 -135q23 -20 27 -35q4 14 26 35l142 135q10 8 18 9h80q8 0 11 -5.5t-1 -11.5l-209 -229q-10 -12 -18 -12h-99q-8 0 -18 12l-209 229q-6 6 -2 11.5t12 5.5zM211 0q-16 0 -16 16v1375q0 16 16 16h577q129 0 221.5 -91t92.5 -218v-787
q0 -129 -92 -220t-222 -91h-577zM332 121q31 10 49 10h371q94 0 148 51t54 140v763q0 88 -54 139.5t-148 51.5h-371q-18 0 -49 12q10 -25 10 -45v-1079q0 -20 -10 -43zM2128 137q18 0 18 -18v-92q0 -16 -18 -17h-801q-16 0 -16 21v96q0 4 4 6l596 807q35 45 88 70
q-41 -8 -119 -9h-461q-18 0 -18 17v94q0 16 18 16h690q16 0 17 -20l-2 -88q0 -6 -4 -10l-592 -813q-35 -45 -84 -70q39 10 115 10h569z" />
    <glyph glyph-name="uni01C6" unicode="&#x1c6;" horiz-adv-x="2068" 
d="M459 -2q-135 0 -223.5 91t-88.5 233v487q0 139 87.5 231.5t222.5 92.5h139q106 0 180 -60q43 -33 60 -63q-10 68 -11 77v545q0 14 17 15h110q16 0 17 -15v-1607q0 -14 -17 -15h-104q-16 0 -17 15v34q0 25 7 64q-16 -33 -58 -64q-82 -61 -172 -61h-149zM1389 1520h77
q10 0 19 -9l143 -135q23 -20 27 -35q4 14 26 35l142 135q10 8 18 9h80q8 0 11 -5.5t-1 -11.5l-209 -229q-10 -12 -18 -12h-98q-8 0 -19 12l-209 229q-6 6 -1.5 11.5t12.5 5.5zM2009 137q18 0 19 -18v-92q0 -16 -19 -17h-801q-16 0 -16 21v96q0 4 4 6l596 807q35 45 88 70
q-41 -8 -119 -9h-461q-18 0 -18 17v94q0 16 18 16h691q16 0 16 -20l-2 -88q0 -6 -4 -10l-592 -813q-35 -45 -84 -70q39 10 115 10h569zM494 123h143q188 0 188 199v485q0 199 -188 199h-143q-203 0 -203 -218v-448q0 -217 203 -217z" />
    <glyph glyph-name="uni01C7" unicode="&#x1c7;" horiz-adv-x="1474" 
d="M903 -299q-18 0 -18 18v86q0 16 18 17h39q98 0 151.5 47t53.5 141v1381q0 18 18 18h113q18 0 18 -18v-1381q0 -127 -93 -218t-222 -91h-78zM213 0q-18 0 -18 18v1373q0 16 18 16h111q18 0 18 -16v-1223q0 -23 -8 -47q25 10 49 10h494q18 0 18 -16v-97q0 -18 -18 -18h-664
z" />
    <glyph glyph-name="uni01C8" unicode="&#x1c8;" horiz-adv-x="1402" 
d="M1098 1290q-14 0 -15 17v155q0 16 15 17h112q16 0 17 -17v-155q0 -16 -17 -17h-112zM213 0q-18 0 -18 18v1373q0 18 18 18h111q18 0 18 -18v-1223q0 -23 -8 -47q25 10 49 10h494q18 0 18 -16v-97q0 -18 -18 -18h-664zM1208 1120q16 0 17 -16v-1284q0 -137 -95.5 -233.5
t-230.5 -96.5h-53q-18 0 -19 18v99q0 14 15 14l41 2q96 0 146 56.5t50 158.5v1266q0 16 17 16h112z" />
    <glyph glyph-name="uni01C9" unicode="&#x1c9;" horiz-adv-x="1017" 
d="M309 1638q14 0 15 -16v-1597q0 -14 -15 -15h-112q-16 0 -17 15v1597q0 16 17 16h112zM713 1290q-14 0 -15 17v155q0 16 15 17h112q16 0 17 -17v-155q0 -16 -17 -17h-112zM823 1120q16 0 17 -16v-1284q0 -137 -95.5 -233.5t-230.5 -96.5h-53q-18 0 -19 18v99q0 14 17 14
l39 2q96 0 146 56.5t50 158.5v1266q0 16 17 16h112z" />
    <glyph glyph-name="uni01CA" unicode="&#x1ca;" horiz-adv-x="1955" 
d="M1384 -98q-18 0 -18 16v86q0 18 18 19h41q92 0 147.5 48t55.5 140v1180q0 18 19 18h110q18 0 19 -18v-1180q0 -129 -92.5 -219t-223.5 -90h-76zM1157 1407q18 0 19 -16v-1373q0 -18 -19 -18h-108q-14 0 -21 12l-641 1071q-45 74 -59 107q14 -92 14 -121v-1051
q0 -18 -18 -18h-111q-18 0 -18 18v1373q0 16 18 16h115q14 0 20 -12l635 -1057q43 -70 57 -107q-12 94 -12 121v1039q0 16 19 16h110z" />
    <glyph glyph-name="uni01CB" unicode="&#x1cb;" horiz-adv-x="1884" 
d="M1579 1290q-16 0 -16 17v155q0 16 16 17h113q16 0 16 -17v-155q0 -16 -16 -17h-113zM1157 1407q18 0 19 -16v-1373q0 -18 -19 -18h-108q-14 0 -21 12l-641 1071q-45 74 -59 107q14 -92 14 -121v-1051q0 -18 -18 -18h-111q-18 0 -18 18v1373q0 16 18 16h115q14 0 20 -10
l635 -1059q43 -70 57 -107q-12 94 -12 121v1039q0 16 19 16h110zM1690 1120q14 0 14 -16v-1284q0 -137 -95.5 -233.5t-228.5 -96.5h-55q-16 0 -16 18v99q0 14 14 14l41 2q96 0 146.5 56.5t50.5 158.5v1266q0 16 16 16h113z" />
    <glyph glyph-name="uni01CC" unicode="&#x1cc;" horiz-adv-x="1683" 
d="M1378 1290q-16 0 -16 17v155q0 16 16 17h113q16 0 16 -17v-155q0 -16 -16 -17h-113zM694 1133q129 0 220.5 -94.5t91.5 -227.5v-786q0 -14 -15 -15h-112q-16 0 -17 15v763q0 217 -209 218h-129q-96 0 -148 -51.5t-52 -147.5v-782q0 -14 -15 -15h-112q-16 0 -17 15v1079
q0 14 17 14h100q18 0 18 -12v-14q0 -20 -5 -54t-5 -39q20 45 57 74q74 59 179 60h153zM1489 1120q14 0 14 -16v-1284q0 -137 -94 -233.5t-229 -96.5h-56q-16 0 -16 18v99q0 14 14 14l41 2q96 0 146.5 56.5t50.5 158.5v1266q0 16 16 16h113z" />
    <glyph glyph-name="Gcaron" unicode="&#x1e6;" horiz-adv-x="1202" 
d="M311 1774h78q10 0 21 -11l141 -133q23 -20 27 -35q4 14 26 35l141 133q10 10 19 11h80q8 0 11 -5.5t-1 -11.5l-209 -229q-10 -12 -18 -12h-99q-8 0 -18 12l-209 229q-6 6 -2 11.5t12 5.5zM481 -4q-131 0 -223 91t-92 218v797q0 127 92 218t223 91h262q129 0 221.5 -90
t92.5 -213v-49q0 -16 -15 -17h-116q-16 0 -17 17v33q0 88 -53 138t-149 50h-191q-94 0 -148.5 -52t-54.5 -143v-759q0 -96 54.5 -147.5t150.5 -51.5h189q96 0 149 51t55 146v274q0 16 11 45q-31 -12 -50 -12h-190q-16 0 -16 16v80q0 16 16 16h360q16 0 17 -16v-422
q0 -127 -92.5 -218t-223.5 -91h-262z" />
    <glyph glyph-name="gcaron" unicode="&#x1e7;" horiz-adv-x="1105" 
d="M291 1520h78q10 0 18 -9l143 -135q23 -20 27 -35q4 14 27 35l141 135q10 8 18 9h80q8 0 11.5 -5.5t-0.5 -11.5l-209 -229q-10 -12 -19 -12h-98q-8 0 -19 12l-208 229q-6 6 -2 11.5t12 5.5zM1020 1004q-61 0 -107 -17h-11t-8 2l-3 2q20 -20 20 -33q43 -57 43 -141v-137
q0 -141 -91 -228t-230 -87h-193q-176 0 -176 -95v-32q-2 -92 180 -93h265q129 0 217 -81.5t88 -208.5v-70q0 -127 -94.5 -211t-227.5 -84h-297q-131 0 -222 83t-91 210v74q0 78 41 144.5t104 96.5q-45 20 -68.5 58.5t-23.5 76.5v43q0 47 31 88.5t92 61.5q-125 86 -123 254
v137q0 141 91 228.5t229 87.5h180q98 0 178 -48q10 -6 18 -16q2 8 13 14q72 45 160 45h100q16 0 16 -14v-94q0 -16 -16 -16h-84zM811 690v117q0 197 -188 197h-156q-188 0 -188 -197v-117q0 -199 188 -198h156q188 -1 188 198zM678 31h-283q-72 0 -128 -50.5t-56 -142.5v-28
q0 -92 55.5 -144.5t153.5 -52.5h258q92 0 151.5 51t59.5 139v37q0 90 -56.5 140.5t-154.5 50.5z" />
    <glyph glyph-name="uni01EA" unicode="&#x1ea;" horiz-adv-x="1236" 
d="M762 1411q127 0 218 -91t91 -218v-797q0 -127 -91 -218t-218 -91h-78h-2l-86 -62q-63 -43 -91 -82.5t-28 -95.5q0 -57 33 -89t92 -32h137q16 0 17 -20v-45q0 -14 -17 -14h-157q-84 0 -138.5 53t-54.5 131v24q0 61 37 119t98 99l21 14h-70q-127 0 -218 91t-91 218v797
q0 127 91 218t218 91h287zM924 326v755q0 96 -54.5 147.5t-148.5 51.5h-203q-96 0 -150.5 -51t-54.5 -148v-755q0 -96 54.5 -147.5t150.5 -51.5h203q94 0 148.5 51.5t54.5 147.5z" />
    <glyph glyph-name="uni01EB" unicode="&#x1eb;" horiz-adv-x="1114" 
d="M645 1133q141 0 231.5 -94.5t90.5 -237.5v-475q0 -141 -90.5 -235.5t-229.5 -94.5h-20h-2l-86 -62q-63 -43 -91 -82.5t-28 -95.5q0 -57 32.5 -89t90.5 -32h139q16 0 16 -20v-45q0 -14 -16 -14h-158q-84 0 -138 53t-54 131v24q0 61 37 119t98 99l20 14h-20
q-139 0 -229.5 94t-90.5 236v475q0 143 90.5 237.5t229.5 94.5h178zM823 340v446q0 217 -202 218h-127q-203 0 -203 -218v-446q0 -217 203 -217h127q202 0 202 217z" />
    <glyph glyph-name="uni01F1" unicode="&#x1f1;" horiz-adv-x="2060" 
d="M2017 131q18 0 19 -18v-95q0 -18 -19 -18h-862q-14 0 -14 20v84q0 18 10 35l635 1088q8 12 18.5 24.5t20.5 22.5l12 12q-29 -10 -74 -10h-540q-18 0 -19 18v97q0 16 19 16h745q14 0 14 -18v-86q0 -18 -12 -35l-633 -1086q-8 -14 -19 -27.5t-22 -24.5l-12 -11q33 12 82 12
h651zM211 0q-16 0 -16 16v1375q0 16 16 16h577q129 0 221.5 -91t92.5 -218v-787q0 -129 -92 -220t-222 -91h-577zM332 121q31 10 49 10h371q94 0 148 51t54 140v763q0 88 -54 139.5t-148 51.5h-371q-18 0 -49 12q10 -25 10 -45v-1079q0 -20 -10 -43z" />
    <glyph glyph-name="uni01F2" unicode="&#x1f2;" horiz-adv-x="2187" 
d="M211 0q-16 0 -16 16v1375q0 16 16 16h577q129 0 221.5 -91t92.5 -218v-787q0 -129 -92 -220t-222 -91h-577zM332 121q31 10 49 10h371q94 0 148 51t54 140v763q0 88 -54 139.5t-148 51.5h-371q-18 0 -49 12q10 -25 10 -45v-1079q0 -20 -10 -43zM2128 137q18 0 18 -18v-92
q0 -16 -18 -17h-801q-16 0 -16 21v96q0 4 4 6l596 807q35 45 88 70q-41 -8 -119 -9h-461q-18 0 -18 17v94q0 16 18 16h690q16 0 17 -20l-2 -88q0 -6 -4 -10l-592 -813q-35 -45 -84 -70q39 10 115 10h569z" />
    <glyph glyph-name="uni01F3" unicode="&#x1f3;" horiz-adv-x="1900" 
d="M459 -2q-135 0 -223.5 91t-88.5 233v487q0 139 87.5 231.5t222.5 92.5h139q106 0 180 -60q43 -33 60 -63q-10 68 -11 77v545q0 14 17 15h110q16 0 17 -15v-1607q0 -14 -17 -15h-104q-16 0 -17 15v34q0 25 7 64q-16 -33 -58 -64q-82 -61 -172 -61h-149zM1841 137
q18 0 19 -18v-92q0 -16 -19 -17h-801q-16 0 -16 21v96q0 4 2 6l598 807q35 45 88 70q-41 -8 -119 -9h-460q-18 0 -19 17v94q0 16 19 16h690q16 0 16 -20l-2 -88q0 -6 -4 -10l-594 -813q-33 -45 -82 -70q39 10 115 10h569zM494 123h143q188 0 188 199v485q0 199 -188 199
h-143q-203 0 -203 -218v-448q0 -217 203 -217z" />
    <glyph glyph-name="uni01F4" unicode="&#x1f4;" horiz-adv-x="1202" 
d="M498 1532q-8 0 -11.5 5t2.5 13l168 246q8 10 21 10h100q8 0 11.5 -6t-3.5 -12l-196 -246q-6 -10 -19 -10h-73zM481 -4q-131 0 -223 91t-92 218v797q0 127 92 218t223 91h262q129 0 221.5 -90t92.5 -213v-49q0 -16 -15 -17h-116q-16 0 -17 17v33q0 88 -53 138t-149 50
h-191q-94 0 -148.5 -52t-54.5 -143v-759q0 -96 54.5 -147.5t150.5 -51.5h189q96 0 149 51t55 146v274q0 16 11 45q-31 -12 -50 -12h-190q-16 0 -16 16v80q0 16 16 16h360q16 0 17 -16v-422q0 -127 -92.5 -218t-223.5 -91h-262z" />
    <glyph glyph-name="uni01F5" unicode="&#x1f5;" horiz-adv-x="1105" 
d="M477 1280q-8 0 -11 5t3 11l168 246q8 10 20 10h101q8 0 11 -6t-3 -12l-197 -246q-6 -8 -18 -8h-74zM1020 1004q-61 0 -107 -17h-11t-8 2l-3 2q20 -20 20 -33q43 -57 43 -141v-137q0 -141 -91 -228t-230 -87h-193q-176 0 -176 -95v-32q-2 -92 180 -93h265q129 0 217 -81.5
t88 -208.5v-70q0 -127 -94.5 -211t-227.5 -84h-297q-131 0 -222 83t-91 210v74q0 78 41 144.5t104 96.5q-45 20 -68.5 58.5t-23.5 76.5v43q0 47 31 88.5t92 61.5q-125 86 -123 254v137q0 141 91 228.5t229 87.5h180q98 0 178 -48q10 -6 18 -16q2 8 13 14q72 45 160 45h100
q16 0 16 -14v-94q0 -16 -16 -16h-84zM811 690v117q0 197 -188 197h-156q-188 0 -188 -197v-117q0 -199 188 -198h156q188 -1 188 198zM678 31h-283q-72 0 -128 -50.5t-56 -142.5v-28q0 -92 55.5 -144.5t153.5 -52.5h258q92 0 151.5 51t59.5 139v37q0 90 -56.5 140.5
t-154.5 50.5z" />
    <glyph glyph-name="Aringacute" unicode="&#x1fa;" 
d="M1122 18q6 -18 -12 -18h-121q-14 0 -18 12l-88 375q-2 4 -4 39q-18 -8 -41 -8h-473q-20 0 -41 8q-2 -35 -2 -39l-91 -375q-2 -12 -18 -12h-121q-16 0 -12 16l356 1379q2 8 8 10q-47 57 -47 129v27q0 82 60.5 142t144.5 60h8h15l133 195q8 12 20 12h101q8 0 11 -6t-3 -14
l-172 -215q45 -27 72.5 -74t27.5 -100v-27q0 -76 -51 -133q2 -2 2 -6zM489 1554v-16q0 -53 33 -91t82 -38h4q47 0 81 38t34 91v16q0 53 -34 91t-81 38h-4q-49 0 -82 -38t-33 -91zM813 539q20 0 47 -7q-23 29 -26 52l-162 651q-6 27 6 47q-8 -8 -23 -8h-108q-14 0 -23 8
q14 -20 6 -47l-159 -651q-6 -23 -29 -52q27 6 47 7h424z" />
    <glyph glyph-name="aringacute" unicode="&#x1fb;" horiz-adv-x="1134" 
d="M702 1124q100 -27 168 -111.5t68 -195.5v-792q0 -14 -14 -15h-103q-16 0 -16 13v20q0 10 10 76q-16 -31 -59 -64q-74 -59 -176 -59h-174q-125 0 -214.5 85t-89.5 210v65q0 125 88.5 206t225.5 81h342q27 0 45 -10q-8 23 -8 41v135q0 94 -51.5 145.5t-147.5 51.5h-123
q-92 0 -140 -50.5t-48 -142.5v-8q0 -12 -13 -12h-110q-16 0 -17 16v25q0 104 68 187t170 103q-49 57 -49 131v27q0 82 60.5 142.5t144.5 60.5h8h12l129 190q8 10 21 11h100q8 0 11 -6.5t-1 -12.5l-168 -211q45 -27 73 -74t28 -100v-27q-1 -74 -50 -131zM426 1276v-16
q0 -49 28.5 -85t69.5 -42h37q41 6 69.5 41.5t28.5 85.5v16q0 53 -33.5 91t-80.5 38h-4q-47 0 -81 -38t-34 -91zM795 315v197q0 6 6 35q-18 -8 -43 -8h-314q-94 0 -146 -52.5t-52 -146.5v-21q0 -197 207 -196h143q96 0 147.5 50t51.5 142z" />
    <glyph glyph-name="AEacute" unicode="&#x1fc;" horiz-adv-x="1685" 
d="M979 1530q-8 0 -11 5t1 11l168 246q8 10 20 10h100q8 0 11.5 -6t-0.5 -12l-197 -246q-8 -8 -18 -8h-74zM1610 131q16 0 16 -16v-99q0 -16 -16 -16h-692q-14 0 -15 12l2 375q0 4 10 39q-23 -8 -43 -8h-495q-23 0 -41 8q-6 -35 -8 -39l-168 -375q-6 -12 -21 -12h-119
q-20 0 -10 18l647 1377q6 12 19 12h891q16 0 16 -14v-101q0 -16 -16 -16h-480q-18 0 -49 12q10 -25 11 -45v-397q0 -18 -11 -43q29 12 49 12h426q16 0 17 -16v-90q0 -14 -17 -15h-426q-16 0 -49 11q10 -23 11 -43v-498q0 -20 -11 -45q33 12 49 12h523zM918 532
q-12 27 -13 52l2 651q0 27 21 47q-10 -8 -25 -8h-168q-14 0 -20 8q10 -20 -2 -47l-295 -651q-12 -25 -37 -52q29 6 49 7h442q21 -1 46 -7z" />
    <glyph glyph-name="aeacute" unicode="&#x1fd;" horiz-adv-x="1785" 
d="M840 1268q-8 0 -11.5 5t0.5 11l170 246q6 10 19 10h100q10 0 13.5 -6t-3.5 -12l-196 -246q-8 -8 -19 -8h-73zM406 -4q-125 0 -214.5 85t-89.5 210v71q0 125 88.5 206t225.5 81h342q27 0 45 -10q-8 23 -8 41v129q0 92 -51.5 143.5t-147.5 51.5h-123q-92 0 -140 -49.5
t-48 -141.5v-8q0 -12 -13 -12h-110q-16 0 -17 16v25q0 121 88.5 210t210.5 89h189q74 0 137.5 -37t101.5 -99q39 61 104.5 98.5t143.5 37.5h189q127 0 225 -92.5t98 -221.5v-260q0 -14 -14 -14h-635q-37 0 -53 10q10 -16 10 -45v-178q0 -98 52 -152.5t153 -54.5h137
q92 0 141.5 48t49.5 142v7q2 12 16 12h110q16 0 15 -17v-18q-6 -125 -96.5 -214t-210.5 -89h-174q-82 0 -153 40t-110 105q-37 -70 -101 -107.5t-142 -37.5h-221zM930 639q18 10 53 10h463q35 0 53 -10q-10 23 -10 49v125q0 92 -51.5 141.5t-147.5 49.5h-151
q-96 0 -147.5 -49.5t-51.5 -141.5v-125q0 -26 -10 -49zM453 123h143q96 0 147.5 50t51.5 142v203q0 6 6 35q-18 -8 -43 -8h-314q-94 0 -146 -52.5t-52 -146.5v-27q0 -196 207 -196z" />
    <glyph glyph-name="Oslashacute" unicode="&#x1fe;" horiz-adv-x="1243" 
d="M563 1530q-8 0 -10 5t2 11l162 232q8 10 20 10h99q8 0 11 -6t-3 -13l-189 -229q-8 -10 -18 -10h-74zM934 1358q63 -43 101 -110.5t38 -145.5v-797q0 -127 -91 -218t-220 -91h-248q-25 0 -39 12q-2 -35 -4 -39l-70 -200q-4 -10 -18 -11h-74q-18 0 -16 17l74 213
q6 16 18 35q-25 -2 -43 8q-80 41 -128 113.5t-48 160.5v797q0 127 91 218t218 91h258q51 0 74 -14q-2 29 2 39l63 186q4 12 19 12h80q18 0 16 -18l-72 -209q-6 -16 -20 -39q23 2 39 -10zM926 326v751q0 100 -53.5 151.5t-151.5 51.5h-203q-98 0 -151.5 -51t-53.5 -152v-751
q0 -199 205 -199h203q205 0 205 199z" />
    <glyph glyph-name="oslashacute" unicode="&#x1ff;" horiz-adv-x="1155" 
d="M238 1268q-8 0 -11.5 5t0.5 11l168 246q8 10 21 10h100q8 0 11 -6t-1 -12l-196 -246q-8 -8 -19 -8h-73zM752 1126q115 -23 185.5 -111.5t70.5 -213.5v-475q0 -141 -90.5 -235.5t-229.5 -94.5h-180q-68 0 -127 24l-86 -253q-4 -12 -19 -13h-75q-18 0 -17 19l103 309
q-98 94 -99 244v475q0 143 90.5 237.5t229.5 94.5h129l90 270q4 14 18 14h82q18 0 17 -18zM864 340v446q0 217 -202 218h-127q-203 0 -203 -218v-446q0 -217 203 -217h127q202 0 202 217z" />
    <glyph glyph-name="uni0200" unicode="&#x200;" 
d="M313 1804q10 0 19 -12l168 -246q6 -6 3 -11t-11 -5h-74q-10 0 -19 8l-196 246q-6 6 -3 13t11 7h102zM561 1804q12 0 19 -12l170 -246q4 -6 1 -11t-12 -5h-73q-10 0 -19 8l-196 246q-6 6 -3 13t13 7h100zM1122 18q6 -18 -12 -18h-121q-14 0 -18 12l-88 375q-2 4 -4 39
q-18 -8 -41 -8h-473q-20 0 -41 8q-2 -35 -2 -39l-91 -375q-2 -12 -18 -12h-121q-16 0 -12 16l356 1379q4 12 19 12h293q16 0 18 -12zM813 539q20 0 47 -7q-23 29 -26 52l-162 651q-6 27 6 47q-8 -8 -23 -8h-108q-14 0 -23 8q14 -20 6 -47l-159 -651q-6 -23 -29 -52
q27 6 47 7h424z" />
    <glyph glyph-name="uni0201" unicode="&#x201;" horiz-adv-x="1103" 
d="M244 1552q12 0 18 -10l170 -246q4 -6 1 -11t-11 -5h-74q-10 0 -18 8l-197 246q-6 6 -3 12t13 6h101zM492 1552q12 0 20 -10l168 -246q4 -6 1 -11t-11 -5h-74q-10 0 -18 8l-197 246q-4 6 -1 12t11 6h101zM633 1133q125 0 215 -93.5t90 -222.5v-792q0 -14 -14 -15h-103
q-16 0 -16 13v20q0 10 10 76q-16 -31 -59 -64q-74 -59 -176 -59h-174q-125 0 -214.5 85t-89.5 210v65q0 125 88.5 206t225.5 81h342q27 0 45 -10q-8 23 -8 41v135q0 94 -51.5 145.5t-147.5 51.5h-123q-92 0 -140 -50.5t-48 -142.5v-8q0 -12 -13 -12h-110q-16 0 -17 16v25
q0 121 88.5 210t210.5 89h189zM596 123q96 0 147.5 50t51.5 142v197q0 6 6 35q-18 -8 -43 -8h-314q-94 0 -146 -52.5t-52 -146.5v-21q0 -197 207 -196h143z" />
    <glyph glyph-name="uni0202" unicode="&#x202;" 
d="M881 1534h-66q-10 0 -12 12q-6 49 -50 84t-118 35h-37q-74 0 -119 -35t-49 -84q-2 -12 -14 -12h-64q-14 0 -14 14q6 88 73.5 147.5t153.5 59.5h94q88 0 159 -59.5t75 -147.5q2 -14 -12 -14zM1122 18q6 -18 -12 -18h-121q-14 0 -18 12l-88 375q-2 4 -4 39q-18 -8 -41 -8
h-473q-20 0 -41 8q-2 -35 -2 -39l-91 -375q-2 -12 -18 -12h-121q-16 0 -12 16l356 1379q4 12 19 12h293q16 0 18 -12zM813 539q20 0 47 -7q-23 29 -26 52l-162 651q-6 27 6 47q-8 -8 -23 -8h-108q-14 0 -23 8q14 -20 6 -47l-159 -651q-6 -23 -29 -52q27 6 47 7h424z" />
    <glyph glyph-name="uni0203" unicode="&#x203;" horiz-adv-x="1103" 
d="M811 1284h-63q-12 0 -15 12q-4 49 -49 84t-119 35h-37q-74 0 -117.5 -34.5t-50.5 -84.5q-2 -12 -12 -12h-65q-14 0 -13 14q4 88 72 147.5t154 59.5h94q90 0 159.5 -59.5t75.5 -147.5q0 -14 -14 -14zM633 1133q125 0 215 -93.5t90 -222.5v-792q0 -14 -14 -15h-103
q-16 0 -16 13v20q0 10 10 76q-16 -31 -59 -64q-74 -59 -176 -59h-174q-125 0 -214.5 85t-89.5 210v65q0 125 88.5 206t225.5 81h342q27 0 45 -10q-8 23 -8 41v135q0 94 -51.5 145.5t-147.5 51.5h-123q-92 0 -140 -50.5t-48 -142.5v-8q0 -12 -13 -12h-110q-16 0 -17 16v25
q0 121 88.5 210t210.5 89h189zM596 123q96 0 147.5 50t51.5 142v197q0 6 6 35q-18 -8 -43 -8h-314q-94 0 -146 -52.5t-52 -146.5v-21q0 -197 207 -196h143z" />
    <glyph glyph-name="uni0204" unicode="&#x204;" horiz-adv-x="1050" 
d="M281 1806q12 0 18 -10l170 -246q4 -6 1 -11t-11 -5h-74q-10 0 -18 8l-197 246q-6 6 -3 12t13 6h101zM528 1806q12 0 21 -10l168 -246q4 -6 1 -11t-11 -5h-74q-10 0 -19 8l-196 246q-4 6 -1 12t11 6h100zM213 0q-18 0 -18 18v1373q0 16 18 16h719q16 0 16 -14v-101
q0 -16 -16 -16h-551q-18 0 -49 12q10 -25 10 -45v-397q0 -18 -10 -43q29 12 49 12h498q16 0 16 -16v-90q0 -14 -16 -15h-498q-16 0 -49 11q10 -23 10 -43v-498q0 -20 -10 -45q33 12 49 12h594q16 0 16 -16v-99q0 -16 -16 -16h-762z" />
    <glyph glyph-name="uni0205" unicode="&#x205;" horiz-adv-x="1095" 
d="M272 1554q12 0 19 -12l170 -246q4 -6 1 -11t-11 -5h-74q-10 0 -19 8l-196 246q-6 6 -3 13t13 7h100zM520 1554q12 0 21 -12l168 -246q4 -6 1 -11t-12 -5h-73q-10 0 -19 8l-196 246q-4 6 -1 13t11 7h100zM659 1133q127 0 225.5 -92.5t98.5 -221.5v-260q0 -14 -14 -14h-635
q-37 0 -53 10q10 -16 10 -45v-180q0 -98 52 -152.5t153 -54.5h137q92 0 141 49t49 141v9q2 12 17 12h110q16 0 15 -15v-20q-6 -125 -96.5 -214t-211.5 -89h-186q-135 0 -229.5 95t-94.5 233v479q0 135 94.5 232.5t229.5 97.5h188zM797 649q35 0 53 -10q-10 23 -10 49v127
q0 90 -51.5 140.5t-147.5 50.5h-152q-94 0 -146 -50.5t-52 -140.5v-127q0 -27 -10 -49q18 10 53 10h463z" />
    <glyph glyph-name="uni0206" unicode="&#x206;" horiz-adv-x="1050" 
d="M848 1538h-64q-12 0 -14 12q-4 49 -49 84t-119 35h-37q-74 0 -118 -35t-50 -84q-2 -12 -12 -12h-66q-14 0 -12 14q4 86 71.5 146.5t153.5 60.5h95q88 0 158.5 -59.5t76.5 -147.5q0 -14 -14 -14zM213 0q-18 0 -18 18v1373q0 16 18 16h719q16 0 16 -14v-101q0 -16 -16 -16
h-551q-18 0 -49 12q10 -25 10 -45v-397q0 -18 -10 -43q29 12 49 12h498q16 0 16 -16v-90q0 -14 -16 -15h-498q-16 0 -49 11q10 -23 10 -43v-498q0 -20 -10 -45q33 12 49 12h594q16 0 16 -16v-99q0 -16 -16 -16h-762z" />
    <glyph glyph-name="uni0207" unicode="&#x207;" horiz-adv-x="1095" 
d="M840 1284h-64q-12 0 -14 12q-4 49 -49 84t-119 35h-37q-74 0 -118 -34.5t-50 -84.5q-2 -12 -12 -12h-66q-14 0 -12 14q4 88 71.5 147.5t153.5 59.5h94q90 0 160 -58t76 -149q0 -14 -14 -14zM659 1133q127 0 225.5 -92.5t98.5 -221.5v-260q0 -14 -14 -14h-635
q-37 0 -53 10q10 -16 10 -45v-180q0 -98 52 -152.5t153 -54.5h137q92 0 141 49t49 141v9q2 12 17 12h110q16 0 15 -15v-20q-6 -125 -96.5 -214t-211.5 -89h-186q-135 0 -229.5 95t-94.5 233v479q0 135 94.5 232.5t229.5 97.5h188zM797 649q35 0 53 -10q-10 23 -10 49v127
q0 90 -51.5 140.5t-147.5 50.5h-152q-94 0 -146 -50.5t-52 -140.5v-127q0 -27 -10 -49q18 10 53 10h463z" />
    <glyph glyph-name="uni0208" unicode="&#x208;" horiz-adv-x="534" 
d="M-33 1806q12 0 21 -10l168 -246q6 -6 3 -11t-14 -5h-71q-12 0 -19 8l-196 246q-6 6 -3 12t11 6h100zM217 1806q10 0 19 -10l167 -246q6 -6 3 -11t-11 -5h-73q-10 0 -19 8l-197 246q-6 6 -3 12t12 6h102zM324 1407q18 0 18 -14v-1377q0 -16 -18 -16h-113q-16 0 -16 16
v1377q0 14 16 14h113z" />
    <glyph glyph-name="uni0209" unicode="&#x209;" horiz-adv-x="505" 
d="M-43 1554q12 0 18 -12l170 -246q4 -6 1 -11t-11 -5h-74q-10 0 -18 8l-197 246q-6 6 -3 13t14 7h100zM205 1554q12 0 18 -12l170 -246q4 -6 1 -11t-11 -5h-74q-10 0 -18 8l-197 246q-6 6 -3 13t13 7h101zM309 1118q14 0 15 -14v-1079q0 -14 -15 -15h-112q-16 0 -17 15
v1079q0 14 17 14h112z" />
    <glyph glyph-name="uni020A" unicode="&#x20a;" horiz-adv-x="534" 
d="M537 1538h-66q-10 0 -12 12q-6 49 -50 84t-118 35h-39q-72 0 -117 -35t-49 -84q-4 -12 -14 -12h-64q-14 0 -14 14q6 86 73.5 146.5t151.5 60.5h94q90 0 161 -59.5t75 -147.5q2 -14 -12 -14zM324 1407q18 0 18 -14v-1377q0 -16 -18 -16h-113q-16 0 -16 16v1377q0 14 16 14
h113z" />
    <glyph glyph-name="uni020B" unicode="&#x20b;" horiz-adv-x="505" 
d="M524 1284h-63q-12 0 -15 12q-6 49 -50 84t-117 35h-37q-74 0 -118 -34.5t-50 -84.5q-2 -12 -15 -12h-63q-14 0 -14 14q6 88 73.5 147.5t153.5 59.5h94q88 0 158.5 -58t75.5 -149q1 -14 -13 -14zM309 1118q14 0 15 -14v-1079q0 -14 -15 -15h-112q-16 0 -17 15v1079
q0 14 17 14h112z" />
    <glyph glyph-name="uni020C" unicode="&#x20c;" horiz-adv-x="1236" 
d="M328 1806q12 0 18 -10l170 -246q4 -6 1 -11t-11 -5h-74q-10 0 -18 8l-197 246q-6 6 -3 12t13 6h101zM575 1806q12 0 19 -10l170 -246q4 -6 1 -11t-11 -5h-74q-10 0 -18 8l-197 246q-6 6 -3 12t13 6h100zM475 -4q-127 0 -218 91t-91 218v797q0 127 91 218t218 91h287
q127 0 218 -91t91 -218v-797q0 -127 -91 -218t-218 -91h-287zM518 127h203q94 0 148.5 51t54.5 148v755q0 96 -54.5 147.5t-148.5 51.5h-203q-96 0 -150.5 -51t-54.5 -148v-755q0 -96 54.5 -147.5t150.5 -51.5z" />
    <glyph glyph-name="uni020D" unicode="&#x20d;" horiz-adv-x="1114" 
d="M262 1554q12 0 21 -12l168 -246q4 -6 1 -11t-12 -5h-73q-10 0 -19 8l-196 246q-4 6 -1 13t11 7h100zM510 1554q12 0 20 -12l168 -246q4 -6 1 -11t-11 -5h-72q-12 0 -20 8l-195 246q-6 6 -3 13t12 7h100zM645 1133q141 0 231.5 -94.5t90.5 -237.5v-475
q0 -141 -90.5 -235.5t-229.5 -94.5h-180q-139 0 -229.5 94t-90.5 236v475q0 143 90.5 237.5t229.5 94.5h178zM621 1004h-127q-203 0 -203 -218v-446q0 -217 203 -217h127q203 0 202 217v446q1 218 -202 218z" />
    <glyph glyph-name="uni020E" unicode="&#x20e;" horiz-adv-x="1236" 
d="M895 1538h-64q-12 0 -14 12q-6 49 -50 84t-118 35h-37q-74 0 -117.5 -35t-50.5 -84q-2 -12 -14 -12h-63q-14 0 -15 14q6 86 74 146.5t154 60.5h94q88 0 158.5 -59.5t74.5 -147.5q2 -14 -12 -14zM475 -4q-127 0 -218 91t-91 218v797q0 127 91 218t218 91h287
q127 0 218 -91t91 -218v-797q0 -127 -91 -218t-218 -91h-287zM518 127h203q94 0 148.5 51t54.5 148v755q0 96 -54.5 147.5t-148.5 51.5h-203q-96 0 -150.5 -51t-54.5 -148v-755q0 -96 54.5 -147.5t150.5 -51.5z" />
    <glyph glyph-name="uni020F" unicode="&#x20f;" horiz-adv-x="1114" 
d="M829 1284h-63q-12 0 -14 12q-4 49 -49.5 84t-118.5 35h-37q-74 0 -118 -34.5t-50 -84.5q-2 -12 -12 -12h-66q-14 0 -12 14q4 88 71.5 147.5t153.5 59.5h94q90 0 160 -58t76 -149q-1 -14 -15 -14zM645 1133q141 0 231.5 -94.5t90.5 -237.5v-475q0 -141 -90.5 -235.5
t-229.5 -94.5h-180q-139 0 -229.5 94t-90.5 236v475q0 143 90.5 237.5t229.5 94.5h178zM621 1004h-127q-203 0 -203 -218v-446q0 -217 203 -217h127q203 0 202 217v446q1 218 -202 218z" />
    <glyph glyph-name="uni0210" unicode="&#x210;" horiz-adv-x="1183" 
d="M303 1810q12 0 21 -10l168 -246q4 -6 0.5 -11t-11.5 -5h-73q-10 0 -19 8l-196 246q-4 6 -1 12t11 6h100zM551 1810q12 0 20 -10l168 -246q6 -6 3 -11t-11 -5h-74q-12 0 -18 8l-197 246q-6 6 -3 12t12 6h100zM213 0q-18 0 -18 18v1373q0 16 18 16h543q131 0 223 -89
t92 -216v-158q0 -113 -74.5 -195.5t-183.5 -95.5q-33 -2 -68 9q29 -33 43 -58l318 -581q4 -10 0 -16.5t-14 -6.5h-117q-14 0 -21 12l-321 596q-6 10 -15 41q-18 -12 -36 -12h-205q-20 0 -43 10q8 -23 8 -45v-584q0 -18 -18 -18h-111zM334 748q27 12 47 12h338q94 0 148.5 51
t54.5 139v135q0 88 -54.5 139.5t-150.5 51.5h-336q-18 0 -49 12q10 -25 10 -45v-450q0 -18 -8 -45z" />
    <glyph glyph-name="uni0211" unicode="&#x211;" horiz-adv-x="710" 
d="M115 1554q12 0 20 -12l168 -246q6 -6 3 -11t-11 -5h-74q-12 0 -18 8l-197 246q-6 6 -3 13t11 7h101zM365 1554q12 0 18 -12l170 -246q4 -6 1 -11t-11 -5h-74q-10 0 -18 8l-197 246q-6 6 -3 13t13 7h101zM655 1133q14 0 15 -17v-96q0 -16 -15 -16h-131q-96 0 -148 -51.5
t-52 -145.5v-782q0 -14 -15 -15h-112q-16 0 -17 15v1079q0 14 17 14h102q16 0 16 -12v-14q0 -20 -4 -54t-6 -37q20 43 57 72q76 59 179 60h114z" />
    <glyph glyph-name="uni0212" unicode="&#x212;" horiz-adv-x="1183" 
d="M870 1542h-63q-10 0 -12 12q-6 49 -51.5 84t-116.5 35h-39q-72 0 -117 -34.5t-51 -84.5q-2 -12 -12 -12h-66q-12 0 -12 14q4 88 71.5 147.5t153.5 59.5h94q90 0 160 -59t76 -148q-1 -14 -15 -14zM213 0q-18 0 -18 18v1373q0 16 18 16h543q131 0 223 -89t92 -216v-158
q0 -113 -74.5 -195.5t-183.5 -95.5q-33 -2 -68 9q29 -33 43 -58l318 -581q4 -10 0 -16.5t-14 -6.5h-117q-14 0 -21 12l-321 596q-6 10 -15 41q-18 -12 -36 -12h-205q-20 0 -43 10q8 -23 8 -45v-584q0 -18 -18 -18h-111zM334 748q27 12 47 12h338q94 0 148.5 51t54.5 139v135
q0 88 -54.5 139.5t-150.5 51.5h-336q-18 0 -49 12q10 -25 10 -45v-450q0 -18 -8 -45z" />
    <glyph glyph-name="uni0213" unicode="&#x213;" horiz-adv-x="710" 
d="M684 1284h-66q-10 0 -12 12q-6 49 -50 84t-118 35h-37q-74 0 -118.5 -34.5t-49.5 -84.5q-2 -12 -14 -12h-63q-14 0 -15 14q6 88 74 147.5t152 59.5h94q90 0 160.5 -58t74.5 -149q2 -14 -12 -14zM655 1133q14 0 15 -17v-96q0 -16 -15 -16h-131q-96 0 -148 -51.5
t-52 -145.5v-782q0 -14 -15 -15h-112q-16 0 -17 15v1079q0 14 17 14h102q16 0 16 -12v-14q0 -20 -4 -54t-6 -37q20 43 57 72q76 59 179 60h114z" />
    <glyph glyph-name="uni0214" unicode="&#x214;" horiz-adv-x="1253" 
d="M326 1806q12 0 20 -10l168 -246q4 -6 1 -11t-11 -5h-72q-12 0 -20 8l-195 246q-6 6 -3 12t11 6h101zM573 1806q12 0 21 -10l168 -246q6 -6 3 -11t-11 -5h-74q-12 0 -18 8l-197 246q-6 6 -3 12t11 6h100zM1063 1407q16 0 16 -16v-1084q0 -129 -92 -220t-221 -91h-277
q-131 0 -223 91t-92 220v1084q0 16 19 16h110q18 0 19 -16v-1065q0 -96 54 -147.5t150 -51.5h203q94 0 148.5 51t54.5 148v1065q0 16 18 16h113z" />
    <glyph glyph-name="uni0215" unicode="&#x215;" horiz-adv-x="1159" 
d="M281 1554q12 0 20 -12l168 -246q4 -6 1 -11t-11 -5h-74q-10 0 -18 8l-197 246q-4 6 -1 13t11 7h101zM528 1554q12 0 21 -12l168 -246q4 -6 1 -11t-11 -5h-72q-12 0 -21 8l-194 246q-6 6 -3 13t11 7h100zM481 -4q-127 0 -219 94t-92 227v787q0 14 16 14h111q16 0 16 -14
v-762q0 -217 209 -217h113q96 0 148.5 51t52.5 146v782q0 14 14 14h113q16 0 16 -14v-1079q0 -14 -16 -15h-103q-16 0 -16 13v14q0 20 5 54t5 38q-20 -45 -57 -74q-74 -59 -179 -59h-137z" />
    <glyph glyph-name="uni0216" unicode="&#x216;" horiz-adv-x="1253" 
d="M895 1538h-66q-10 0 -12 12q-6 49 -50 84t-118 35h-39q-72 0 -116.5 -35t-51.5 -84q-2 -12 -12 -12h-65q-12 0 -13 14q4 86 72 146.5t154 60.5h94q90 0 160.5 -59.5t74.5 -147.5q0 -14 -12 -14zM1063 1407q16 0 16 -16v-1084q0 -129 -92 -220t-221 -91h-277
q-131 0 -223 91t-92 220v1084q0 16 19 16h110q18 0 19 -16v-1065q0 -96 54 -147.5t150 -51.5h203q94 0 148.5 51t54.5 148v1065q0 16 18 16h113z" />
    <glyph glyph-name="uni0217" unicode="&#x217;" horiz-adv-x="1159" 
d="M848 1284h-64q-12 0 -14 12q-4 49 -49 84t-119 35h-37q-74 0 -118 -34.5t-50 -84.5q-2 -12 -12 -12h-66q-14 0 -12 14q4 88 71.5 147.5t153.5 59.5h95q90 0 159.5 -58t75.5 -149q0 -14 -14 -14zM481 -4q-127 0 -219 94t-92 227v787q0 14 16 14h111q16 0 16 -14v-762
q0 -217 209 -217h113q96 0 148.5 51t52.5 146v782q0 14 14 14h113q16 0 16 -14v-1079q0 -14 -16 -15h-103q-16 0 -16 13v14q0 20 5 54t5 38q-20 -45 -57 -74q-74 -59 -179 -59h-137z" />
    <glyph glyph-name="uni0218" unicode="&#x218;" horiz-adv-x="1097" 
d="M430 -4q-131 0 -223 91t-92 220v129q0 18 16 19h113q18 0 18 -19v-110q0 -96 54.5 -147.5t148.5 -51.5h170q92 0 147.5 52t55.5 147v110q0 109 -123 168l-414 193q-84 37 -133 105.5t-49 146.5v55q0 127 92 217t223 90h217q133 0 222.5 -90t89.5 -221v-58q0 -18 -19 -18
h-113q-18 0 -18 18v54q0 86 -53 135t-144 49h-159q-88 0 -139.5 -50t-51.5 -134v-33q0 -109 113 -164l426 -199q180 -80 180 -268v-127q0 -129 -93 -219t-224 -90h-238zM590 -106q8 0 12 -4.5t4 -12.5l-26 -315q-2 -23 -17 -23h-51q-20 0 -20 12v326q0 16 16 17h82z" />
    <glyph glyph-name="uni0219" unicode="&#x219;" horiz-adv-x="997" 
d="M354 -4q-104 0 -178 73.5t-76 174.5v96q0 16 17 16h104q18 0 19 -14l2 -100q0 -51 37.5 -85t91.5 -34h276q51 0 86 36t35 87v127q0 41 -22.5 71.5t-59.5 40.5l-377 103q-88 18 -141 78.5t-53 146.5v68q0 104 72.5 178t179.5 74h264q104 0 178 -74t76 -174v-49
q0 -16 -17 -17h-104q-16 0 -19 15l-2 53q0 49 -37.5 84t-89.5 35h-251q-51 0 -85 -37t-34 -86v-76q0 -39 26.5 -66.5t67.5 -40.5l375 -100q88 -18 135 -81.5t47 -145.5v-127q0 -104 -71.5 -177t-178.5 -73h-293zM537 -113q20 0 18 -16l-29 -338q-2 -23 -16 -22h-51
q-23 -2 -23 12v348q0 16 19 16h82z" />
    <glyph glyph-name="uni021A" unicode="&#x21a;" horiz-adv-x="864" 
d="M883 1407q18 0 18 -16v-97q0 -18 -18 -18h-336q-18 0 -49 12q8 -23 8 -43v-1227q0 -18 -19 -18h-110q-18 0 -19 18v1227q0 23 11 43q-37 -12 -52 -12h-335q-18 0 -19 18v97q0 16 19 16h901zM479 -106q8 0 12.5 -4.5t4.5 -12.5l-27 -315q-2 -20 -16 -23h-52q-20 0 -20 12
v326q0 16 16 17h82z" />
    <glyph glyph-name="uni021B" unicode="&#x21b;" horiz-adv-x="847" 
d="M741 1118q16 0 17 -16v-92q0 -18 -17 -19h-209q-39 0 -55 13q10 -18 10 -50v-929q0 -14 -14 -15h-113q-16 0 -16 15v929q0 29 10 47q-18 -10 -53 -10h-195q-18 0 -18 19v92q0 16 18 16h195q35 0 55 -8q-12 16 -12 47v277q0 8 18 16l109 49q16 8 16 -10v-330
q0 -37 -10 -51q12 10 55 10h209zM453 -113q18 0 16 -18l-27 -336q-2 -23 -16 -22h-51q-23 -2 -23 12v346q0 18 17 18h84z" />
    <glyph glyph-name="uni0232" unicode="&#x232;" horiz-adv-x="1052" 
d="M236 1548q-16 0 -17 19v65q0 18 17 19h569q16 0 16 -19v-65q0 -18 -16 -19h-569zM469 0q-18 0 -18 18v510q0 4 4 11v4q-10 10 -15 18l-463 825q-12 20 13 21h121q16 0 22 -12l365 -656q16 -31 28 -75q10 45 27 75l367 656q6 12 20 12h121q25 0 14 -21l-463 -825
q-6 -10 -14 -18v-4q2 -6 2 -11v-510q0 -18 -18 -18h-113z" />
    <glyph glyph-name="uni0233" unicode="&#x233;" horiz-adv-x="995" 
d="M209 1294q-16 0 -16 19v67q0 16 16 17h567q16 0 17 -17v-67q0 -18 -17 -19h-567zM940 1128q20 0 14 -20l-469 -1323q-49 -141 -120.5 -217t-190.5 -76h-65q-16 0 -17 16v99q0 16 14 16h68q47 0 78 11.5t53.5 44t33.5 58t32 83.5l59 172q0 2 7 8l7 6q-4 -2 -13 0t-9 6
l-389 1096q-6 20 14 20h107q14 0 18 -14l303 -868q16 -49 19 -84q4 37 20 84l301 868q4 14 19 14h106z" />
    <glyph glyph-name="uni0237" unicode="&#x237;" horiz-adv-x="514" 
d="M317 1120q16 0 17 -16v-1284q0 -137 -95.5 -233.5t-228.5 -96.5h-55q-16 0 -16 18v99q0 14 14 14l41 2q94 0 145 56.5t51 158.5v1266q0 16 17 16h110z" />
    <glyph glyph-name="uni0259" unicode="&#x259;" horiz-adv-x="1095" 
d="M471 -4q-127 0 -225.5 92t-98.5 221v260q0 14 15 15h635q37 0 53 -11q-10 16 -10 45v181q0 98 -52.5 152.5t-152.5 54.5h-137q-92 0 -141.5 -49.5t-49.5 -141.5v-8q-2 -12 -16 -12h-111q-16 0 -14 14v20q6 125 96 214.5t211 89.5h186q135 0 229.5 -95.5t94.5 -232.5v-479
q0 -135 -94 -232.5t-230 -97.5h-188zM334 479q-35 0 -53 10q10 -23 10 -49v-127q0 -92 51 -141t147 -49h152q96 0 147.5 49t51.5 141v127q0 27 10 49q-18 -10 -53 -10h-463z" />
    <glyph glyph-name="uni0272" unicode="&#x272;" horiz-adv-x="1228" 
d="M694 1133q129 0 220.5 -94.5t91.5 -227.5v-786q0 -14 -15 -15h-112q-16 0 -17 15v763q0 217 -209 218h-129q-96 0 -148 -51.5t-52 -147.5v-600v-234q0 -162 -96.5 -250t-223.5 -88h-53q-14 0 -14 17v88q0 14 12 14h8q223 0 223 217v49v5v1079q0 14 17 14h100q18 0 18 -12
v-14q0 -20 -5 -54t-5 -39q20 45 57 74q74 59 179 60h153z" />
    <glyph glyph-name="uni02BC" unicode="&#x2bc;" horiz-adv-x="393" 
d="M240 1526q18 0 16 -19l-27 -336q-4 -23 -18 -22l-51 -2q-20 0 -21 12v348q0 18 17 19h84z" />
    <glyph glyph-name="circumflex" unicode="&#x2c6;" horiz-adv-x="808" 
d="M137 1272q-8 0 -11 5t1 11l211 230q10 12 18 12h97q8 0 18 -12l209 -230q6 -6 3 -11t-13 -5h-78q-8 0 -19 10l-143 133q-23 20 -24 35q-4 -14 -27 -35l-143 -133q-10 -10 -19 -10h-80z" />
    <glyph glyph-name="caron" unicode="&#x2c7;" horiz-adv-x="808" 
d="M137 1540h80q8 0 19 -10l143 -133q23 -20 27 -35q2 14 24 35l143 133q10 10 19 10h78q10 0 13 -5t-3 -11l-209 -230q-8 -12 -18 -12h-97q-8 0 -18 12l-211 230q-4 6 -1 11t11 5z" />
    <glyph glyph-name="breve" unicode="&#x2d8;" horiz-adv-x="923" 
d="M727 1468q12 0 12 -14q-4 -88 -74.5 -147.5t-160.5 -59.5h-94q-86 0 -154 59.5t-72 147.5q0 14 13 14h65q10 0 12 -12q6 -49 51.5 -84t116.5 -35h39q74 0 118 35t50 84q2 12 13 12h65z" />
    <glyph glyph-name="dotaccent" unicode="&#x2d9;" horiz-adv-x="489" 
d="M188 1268q-16 0 -16 16v156q0 14 16 14h113q14 0 14 -14v-156q0 -16 -14 -16h-113z" />
    <glyph glyph-name="ring" unicode="&#x2da;" horiz-adv-x="712" 
d="M360 1712q84 0 144.5 -60.5t60.5 -144.5v-24q0 -84 -60.5 -144.5t-144.5 -60.5h-8q-84 0 -144.5 60.5t-60.5 144.5v24q0 84 60.5 144.5t144.5 60.5h8zM358 1630h-4q-47 0 -80.5 -37t-33.5 -90v-18q0 -53 33.5 -91t80.5 -38h4q47 0 81 38t34 91v18q0 53 -34 90t-81 37z
" />
    <glyph glyph-name="ogonek" unicode="&#x2db;" horiz-adv-x="641" 
d="M387 51q10 10 19 -2l36 -39q10 -10 -4 -20l-86 -62q-63 -43 -91 -83t-28 -95q0 -57 33 -89t90 -32h140q16 0 16 -22v-43q0 -14 -16 -15h-158q-84 0 -138.5 53.5t-54.5 131.5v24q0 61 36 118.5t100 98.5z" />
    <glyph glyph-name="tilde" unicode="&#x2dc;" horiz-adv-x="935" 
d="M750 1470q16 0 14 -16q-8 -80 -57.5 -131t-118.5 -51q-68 0 -139 59q-59 49 -97 49q-39 0 -64.5 -27.5t-29.5 -66.5q-4 -14 -16 -14h-58q-14 0 -14 16q8 80 58.5 131t119.5 51q66 0 137 -59q61 -49 99 -49q39 0 64.5 27.5t29.5 66.5q2 14 14 14h58z" />
    <glyph glyph-name="hungarumlaut" unicode="&#x2dd;" horiz-adv-x="921" 
d="M143 1268q-8 0 -11 5t1 11l168 244q10 12 18 12h107q8 0 11 -5t-1 -11l-196 -244q-10 -12 -19 -12h-78zM461 1268q-8 0 -11.5 5t1.5 11l167 244q10 12 19 12h106q8 0 11.5 -5t-0.5 -11l-197 -244q-10 -12 -18 -12h-78z" />
    <glyph glyph-name="gravecomb" unicode="&#x300;" horiz-adv-x="0" 
d="M-348 1540q10 0 18 -10l170 -246q4 -6 1 -11t-11 -5h-74q-10 0 -18 8l-197 246q-6 6 -3 12t11 6h103z" />
    <glyph glyph-name="hookabovecomb" unicode="&#x309;" horiz-adv-x="0" 
d="M-496 1430q-14 0 -14 14v45q0 45 33 77.5t78 32.5h139q47 0 78.5 -32.5t31.5 -77.5v-59q0 -72 -49 -95l-71 -30q-27 -12 -27 -43l-2 -35q0 -14 -14 -15h-58q-14 0 -14 15l-2 41q0 35 10 54t41 36l47 24q45 20 45 45v56q0 33 -32 33h-107q-16 0 -25.5 -9.5t-9.5 -25.5v-39
q0 -12 -14 -12h-64z" />
    <glyph glyph-name="uni031B" unicode="&#x31b;" horiz-adv-x="0" 
d="M-340 1061q-8 0 -86 8l6 80h84h14q29 0 40.5 14.5t11.5 48.5v277q0 10 12 10h76q10 0 10 -10v-301q0 -59 -35 -93t-84 -34h-49z" />
    <glyph glyph-name="dotbelowcomb" unicode="&#x323;" horiz-adv-x="0" 
d="M-195 -139q14 0 15 -15v-133q0 -14 -15 -14h-75q-16 0 -17 14v133q0 14 17 15h75z" />
    <glyph glyph-name="uni0326" unicode="&#x326;" horiz-adv-x="0" 
d="M-190 -113q18 0 16 -16l-27 -338q-4 -23 -18 -22h-51q-23 -2 -23 12v348q0 16 19 16h84z" />
    <glyph glyph-name="uni0394" unicode="&#x394;" horiz-adv-x="1236" 
d="M12 0q-18 0 -10 18l551 1463q4 12 16 12h99q12 0 16 -12l551 -1463q8 -18 -10 -18h-1213zM229 123h777q16 0 23 11t1 28l-385 1030q-6 18 -28.5 18t-28.5 -18l-381 -1030q-6 -16 1 -27.5t21 -11.5z" />
    <glyph glyph-name="uni0394" unicode="&#x3b4;" horiz-adv-x="1236" 
d="M12 0q-18 0 -10 18l551 1463q4 12 16 12h99q12 0 16 -12l551 -1463q8 -18 -10 -18h-1213zM229 123h777q16 0 23 11t1 28l-385 1030q-6 18 -28.5 18t-28.5 -18l-381 -1030q-6 -16 1 -27.5t21 -11.5z" />
    <glyph glyph-name="uni03A9" unicode="&#x3a9;" horiz-adv-x="1406" 
d="M193 0q-16 0 -17 16v88q0 18 17 19h276v70l-4 2q-121 12 -204 103t-83 218v653q0 137 93.5 233.5t224.5 96.5h415q131 0 225.5 -96t94.5 -234v-653q0 -127 -85 -220t-208 -103l-4 -3v-67h276q16 0 17 -19v-88q0 -16 -17 -16h-397q-16 0 -16 16v258q0 18 16 19h57
q100 0 156.5 58.5t56.5 160.5v633q0 106 -55 161.5t-160 55.5h-325q-104 0 -161.5 -55.5t-57.5 -161.5v-633q0 -102 58 -160.5t159 -58.5h49q16 0 16 -19v-258q0 -16 -16 -16h-397z" />
    <glyph glyph-name="uni03A9" unicode="&#x3c9;" horiz-adv-x="1406" 
d="M193 0q-16 0 -17 16v88q0 18 17 19h276v70l-4 2q-121 12 -204 103t-83 218v653q0 137 93.5 233.5t224.5 96.5h415q131 0 225.5 -96t94.5 -234v-653q0 -127 -85 -220t-208 -103l-4 -3v-67h276q16 0 17 -19v-88q0 -16 -17 -16h-397q-16 0 -16 16v258q0 18 16 19h57
q100 0 156.5 58.5t56.5 160.5v633q0 106 -55 161.5t-160 55.5h-325q-104 0 -161.5 -55.5t-57.5 -161.5v-633q0 -102 58 -160.5t159 -58.5h49q16 0 16 -19v-258q0 -16 -16 -16h-397z" />
    <glyph glyph-name="uni03BC" unicode="&#x3bc;" horiz-adv-x="1185" 
d="M989 1128q16 0 17 -18v-1092q0 -16 -17 -16h-110q-16 0 -17 14q0 25 -14 34t-29 1q-74 -53 -164 -55h-149q-78 2 -137 45q-18 6 -31.5 -4t-13.5 -25v-499q0 -18 -17 -19h-110q-16 0 -17 19v1597q0 18 17 18h110q16 0 17 -18v-770q0 -109 55 -163t160 -54h108
q104 0 159.5 54t55.5 163v770q0 18 17 18h110z" />
    <glyph glyph-name="pi" unicode="&#x3c0;" horiz-adv-x="1456" 
d="M1253 1128q16 0 17 -14v-92q0 -14 -17 -14h-123q-20 0 -49 12q10 -25 11 -45v-637q0 -199 194 -199q14 0 14 -14v-111q0 -18 -18 -18h-16q-133 2 -228.5 95t-95.5 228l2 656q0 20 8 45q-29 -12 -49 -12h-358q-20 0 -49 12q10 -25 10 -45v-959q0 -16 -17 -16h-116
q-16 0 -17 16v959q0 20 11 45q-29 -12 -50 -12h-122q-16 0 -17 14v92q0 14 17 14h1058z" />
    <glyph glyph-name="uni0400" unicode="&#x400;" horiz-adv-x="1050" 
d="M532 1755q10 0 19 -10l168 -246q6 -6 3 -11t-11 -5h-74q-10 0 -19 8l-196 246q-6 6 -3 12t11 6h102zM213 0q-18 0 -18 18v1373q0 16 18 16h719q16 0 16 -14v-101q0 -16 -16 -16h-551q-18 0 -49 12q10 -25 10 -45v-397q0 -18 -10 -43q29 12 49 12h498q16 0 16 -16v-90
q0 -14 -16 -15h-498q-16 0 -49 11q10 -23 10 -43v-498q0 -20 -10 -45q33 12 49 12h594q16 0 16 -16v-99q0 -16 -16 -16h-762z" />
    <glyph glyph-name="uni0401" unicode="&#x401;" horiz-adv-x="1050" 
d="M360 1513q-16 0 -16 19v151q0 16 16 17h91q16 0 16 -17v-151q0 -18 -16 -19h-91zM702 1513q-16 0 -16 19v151q0 16 16 17h91q16 0 16 -17v-151q0 -18 -16 -19h-91zM213 0q-18 0 -18 18v1373q0 16 18 16h719q16 0 16 -14v-101q0 -16 -16 -16h-551q-18 0 -49 12
q10 -25 10 -45v-397q0 -18 -10 -43q29 12 49 12h498q16 0 16 -16v-90q0 -14 -16 -15h-498q-16 0 -49 11q10 -23 10 -43v-498q0 -20 -10 -45q33 12 49 12h594q16 0 16 -16v-99q0 -16 -16 -16h-762z" />
    <glyph glyph-name="uni0402" unicode="&#x402;" horiz-adv-x="1261" 
d="M801 975q131 0 222 -92t91 -224v-358q0 -127 -92 -216t-221 -89h-150q-18 0 -18 18v90q0 18 18 19h113q209 0 209 217v291q0 217 -209 217h-156q-102 0 -157.5 -54.5t-55.5 -158.5v-619q0 -16 -16 -16h-111q-16 0 -16 16v1215q0 23 8 43q-35 -12 -51 -12h-227
q-18 0 -19 18v96q0 18 19 19h696q18 0 18 -19v-96q0 -18 -18 -18h-242q-18 0 -51 14q10 -25 10 -45v-287q0 -43 -10 -76q23 27 57 54q68 53 166 53h193z" />
    <glyph glyph-name="uni0403" unicode="&#x403;" horiz-adv-x="974" 
d="M473 1530q-8 0 -11 5t3 13l168 246q8 10 18 10h103q8 0 11 -6t-3 -12l-197 -246q-8 -10 -18 -10h-74zM995 1407q14 0 15 -14v-383q0 -16 -15 -17h-112q-14 0 -15 17v235q0 29 11 47q-16 -16 -45 -16h-474q-27 0 -45 16q10 -20 11 -47v-1231q0 -14 -15 -14h-112
q-16 0 -17 14v1379q0 14 17 14h796z" />
    <glyph glyph-name="uni0404" unicode="&#x404;" horiz-adv-x="1138" 
d="M475 1411h252q127 0 218 -90t91 -219v-88q0 -14 -16 -15h-117q-16 0 -16 15v63q0 100 -52.5 151.5t-150.5 51.5h-164q-100 0 -153.5 -51t-53.5 -152v-270q0 -25 -6 -41q20 12 37 12h414q10 0 10 -14v-86q0 -16 -10 -16h-414q-18 0 -37 12q6 -14 6 -39v-309
q0 -199 207 -199h164q205 0 205 199v80q0 16 16 16h115q16 0 16 -16v-101q0 -127 -91 -218t-218 -91h-252q-127 0 -218 91t-91 218v797q0 129 91 219t218 90z" />
    <glyph glyph-name="uni0405" unicode="&#x405;" horiz-adv-x="1097" 
d="M430 -4q-131 0 -223 91t-92 220v129q0 18 16 19h113q18 0 18 -19v-110q0 -96 54.5 -147.5t148.5 -51.5h170q92 0 147.5 52t55.5 147v110q0 109 -123 168l-414 193q-84 37 -133 105.5t-49 146.5v55q0 127 92 217t223 90h217q133 0 222.5 -90t89.5 -221v-58q0 -18 -19 -18
h-113q-18 0 -18 18v54q0 86 -53 135t-144 49h-159q-88 0 -139.5 -50t-51.5 -134v-33q0 -109 113 -164l426 -199q180 -80 180 -268v-127q0 -129 -93 -219t-224 -90h-238z" />
    <glyph glyph-name="uni0406" unicode="&#x406;" horiz-adv-x="534" 
d="M324 1407q18 0 18 -14v-1377q0 -16 -18 -16h-113q-16 0 -16 16v1377q0 14 16 14h113z" />
    <glyph glyph-name="uni0407" unicode="&#x407;" horiz-adv-x="534" 
d="M47 1513q-16 0 -16 19v151q0 16 16 17h90q16 0 17 -17v-151q0 -18 -17 -19h-90zM391 1513q-16 0 -16 19v151q0 16 16 17h88q18 0 19 -17v-151q0 -18 -19 -19h-88zM324 1407q18 0 18 -14v-1377q0 -16 -18 -16h-113q-16 0 -16 16v1377q0 14 16 14h113z" />
    <glyph glyph-name="uni0408" unicode="&#x408;" horiz-adv-x="968" 
d="M770 1407q18 0 18 -18v-1084q0 -129 -92 -219t-223 -90h-129q-129 0 -221 90t-92 219v152q0 18 16 18h113q18 0 18 -18v-154q0 -92 52.5 -139t146.5 -47h65q94 0 146.5 47t52.5 139v1086q0 18 16 18h113z" />
    <glyph glyph-name="uni0409" unicode="&#x409;" horiz-adv-x="2080" 
d="M1683 856q135 0 229.5 -94t94.5 -230v-208q0 -135 -94 -229.5t-230 -94.5h-596q-14 0 -14 14v1227q0 33 12 49q-20 -14 -49 -14h-422q-23 0 -51 12q18 -16 15 -47l-119 -926q-18 -147 -106.5 -233t-221.5 -86h-133v127h96q102 0 156.5 52t68.5 161l138 1057q0 14 14 14
h733q16 0 17 -14v-500q0 -31 -15 -47q25 10 51 10h426zM1860 354v158q0 211 -213 211h-390q-27 0 -49 10q12 -18 13 -47v-512q0 -29 -15 -47q25 10 51 10h390q102 0 157.5 54t55.5 163z" />
    <glyph glyph-name="uni040A" unicode="&#x40a;" horiz-adv-x="1959" 
d="M1563 848q135 0 229 -92t94 -228v-204q0 -137 -94 -231.5t-229 -94.5h-596q-14 0 -15 16v658q0 27 13 45q-29 -8 -50 -8h-548q-27 0 -48 12q10 -27 11 -49v-658q0 -14 -15 -14h-116q-16 0 -17 14v1379q0 14 17 14h116q14 0 15 -14v-514q0 -20 -8 -50q18 12 45 13h548
q20 0 50 -11q-12 18 -13 48v514q0 14 15 14h116q12 0 15 -10q2 -2 2 -8v-504q0 -23 -17 -47q33 10 54 10h426zM1739 352v152q0 213 -213 213h-389q-4 0 -54 8q16 -16 17 -45v-506q0 -27 -13 -49q27 10 50 10h389q102 0 157.5 55.5t55.5 161.5z" />
    <glyph glyph-name="uni040B" unicode="&#x40b;" horiz-adv-x="1325" 
d="M848 911q129 0 221 -91t92 -226v-576q0 -18 -16 -18h-109q-18 0 -18 18v549q0 217 -209 217h-154q-102 0 -157.5 -54t-57.5 -159v-555q0 -16 -16 -16h-111q-16 0 -16 16v1229q0 23 10 43q-37 -12 -51 -12h-274q-18 0 -19 18v97q0 16 19 16h774q18 0 18 -16v-97
q0 -18 -18 -18h-275q-18 0 -49 12q8 -23 8 -43v-360q0 -39 -10 -94q16 35 62 69q63 51 163 51h193z" />
    <glyph glyph-name="uni040C" unicode="&#x40c;" horiz-adv-x="1230" 
d="M569 1530q-8 0 -11 5t3 13l168 246q8 10 21 10h100q8 0 11 -6t-3 -12l-196 -246q-6 -10 -19 -10h-74zM1202 1411q18 0 19 -16v-97q0 -18 -19 -18h-16q-209 0 -209 -217v-96q0 -113 -66.5 -201t-150.5 -102q-70 -4 -101 4q41 -16 76 -60l436 -588q6 -8 2 -14t-14 -6h-123
q-12 0 -20 12l-449 604q-20 29 -55 29h-131q-23 0 -53 12q14 -16 14 -49v-592q0 -16 -18 -16h-113q-16 0 -16 16v1375q0 16 16 16h113q18 0 18 -16v-590q0 -31 -14 -47q31 12 57 12h260q84 0 134 54t50 157v110q0 135 94.5 229.5t229.5 94.5h49z" />
    <glyph glyph-name="uni040D" unicode="&#x40d;" horiz-adv-x="1370" 
d="M627 1755q12 0 18 -10l170 -246q4 -6 1 -11t-11 -5h-74q-10 0 -18 8l-197 246q-6 6 -3 12t13 6h101zM213 1407h111q18 0 18 -16v-1039q0 -27 -12 -121q14 37 57 107l635 1059q6 10 20 10h117q16 0 17 -16v-1373q0 -18 -17 -18h-112q-18 0 -19 18v1051q0 29 14 121
q-14 -33 -57 -107l-643 -1071q-6 -12 -20 -12h-109q-18 0 -18 18v1373q0 16 18 16z" />
    <glyph glyph-name="uni040E" unicode="&#x40e;" horiz-adv-x="958" 
d="M739 1741q14 0 13 -12q-4 -90 -75 -149.5t-159 -59.5l-94 2q-86 0 -153.5 59t-73.5 148q0 12 14 12h63q12 0 15 -12q6 -47 50 -83t118 -36h37q74 0 117.5 34.5t50.5 84.5q2 12 14 12h63zM967 1407q23 0 14 -18l-502 -1119q-100 -270 -278 -270h-111q-16 0 -16 16v97
q0 14 14 14h66q45 0 76.5 13.5t56 46t38 59t37.5 86.5l7 14l39 96q2 2 10 15q0 2 -8.5 4t-8.5 4l-424 921q-4 10 0.5 15.5t14.5 5.5h119q14 0 20 -14l324 -713q25 -53 30 -102q6 45 31 102l311 713q6 14 19 14h121z" />
    <glyph glyph-name="uni040F" unicode="&#x40f;" horiz-adv-x="1341" 
d="M1133 1407q16 0 16 -14v-1377q0 -16 -16 -16h-359q-35 0 -53 14q10 -25 10 -53v-248q0 -14 -16 -14h-103q-14 0 -14 14v248q0 29 8 53q-18 -14 -53 -14h-344q-14 0 -14 16v1377q0 14 14 14h113q14 0 14 -14l2 -1225q0 -31 -12 -49q23 12 51 12h588q29 0 53 -12
q-12 18 -12 49v1225q0 14 14 14h113z" />
    <glyph glyph-name="uni0410" unicode="&#x410;" 
d="M1122 18q6 -18 -12 -18h-121q-14 0 -18 12l-88 375q-2 4 -4 39q-18 -8 -41 -8h-473q-20 0 -41 8q-2 -35 -2 -39l-91 -375q-2 -12 -18 -12h-121q-16 0 -12 16l356 1379q4 12 19 12h293q16 0 18 -12zM813 539q20 0 47 -7q-23 29 -26 52l-162 651q-6 27 6 47q-8 -8 -23 -8
h-108q-14 0 -23 8q14 -20 6 -47l-159 -651q-6 -23 -29 -52q27 6 47 7h424z" />
    <glyph glyph-name="uni0411" unicode="&#x411;" horiz-adv-x="1206" 
d="M795 885q133 0 228 -94.5t95 -229.5v-239q0 -137 -95 -231.5t-228 -94.5h-594q-18 0 -19 18v1379q0 14 17 14h747q16 0 17 -14v-97q0 -16 -17 -16h-579q-31 0 -48 14q10 -23 11 -49v-323q0 -27 -11 -50q20 12 48 13h428zM756 133q102 0 158.5 55.5t54.5 161.5v191
q0 211 -213 211h-389q-25 0 -48 12q10 -23 11 -49v-543q0 -33 -15 -49q23 10 52 10h389z" />
    <glyph glyph-name="uni0412" unicode="&#x412;" horiz-adv-x="1189" 
d="M213 0q-18 0 -18 18v1373q0 16 18 16h571q131 0 221.5 -89t90.5 -216v-119q0 -63 -27 -122.5t-72 -94.5q-14 -12 -26 -21q12 -8 26 -20q47 -39 76 -97.5t29 -119.5v-201q0 -129 -92 -218t-224 -89h-573zM334 786q27 12 47 13h364q98 0 150.5 50t52.5 144v92
q0 92 -52 143.5t-151 51.5h-364q-12 0 -47 12q8 -29 8 -45v-418q0 -14 -8 -43zM332 115q2 0 10 4t19.5 6t19.5 2h364q94 0 148.5 51t54.5 139v177q0 92 -53 143t-150 51h-364q-20 0 -47 12q8 -31 8 -45v-495q0 -8 -10 -45z" />
    <glyph glyph-name="uni0413" unicode="&#x413;" horiz-adv-x="1003" 
d="M995 1407q14 0 15 -14v-383q0 -16 -15 -17h-112q-14 0 -15 17v235q0 29 11 47q-16 -14 -45 -14h-474q-27 0 -45 14q10 -20 11 -47v-1229q0 -16 -15 -16h-112q-16 0 -17 16v1377q0 14 17 14h796z" />
    <glyph glyph-name="uni0414" unicode="&#x414;" horiz-adv-x="1458" 
d="M1346 135q14 0 14 -16v-406q0 -14 -14 -14h-103q-16 0 -16 14v250q0 33 10 51q-23 -14 -49 -14h-1018q-29 0 -51 14q12 -14 12 -51v-250q0 -14 -14 -14h-103q-16 0 -16 14v406q0 16 16 16h144q68 147 98.5 216t68 172.5t51 168t28 177t16.5 229t2 295.5q0 14 16 14h731
q14 0 15 -14v-1223q0 -37 -17 -51q18 16 50 16h129zM995 131q33 0 58 -12q-14 16 -15 53v1067q0 31 11 49q-20 -12 -54 -12h-403q-37 0 -51 14q10 -18 10 -53q0 -145 -3 -246.5t-17.5 -197t-24.5 -149.5t-44 -146t-56.5 -142.5t-79.5 -179.5q-16 -37 -41 -59q31 14 67 14
h643z" />
    <glyph glyph-name="uni0415" unicode="&#x415;" horiz-adv-x="1050" 
d="M213 0q-18 0 -18 18v1373q0 16 18 16h719q16 0 16 -14v-101q0 -16 -16 -16h-551q-18 0 -49 12q10 -25 10 -45v-397q0 -18 -10 -43q29 12 49 12h498q16 0 16 -16v-90q0 -14 -16 -15h-498q-16 0 -49 11q10 -23 10 -43v-498q0 -20 -10 -45q33 12 49 12h594q16 0 16 -16v-99
q0 -16 -16 -16h-762z" />
    <glyph glyph-name="uni0416" unicode="&#x416;" horiz-adv-x="1869" 
d="M1808 1413q16 0 17 -18v-97q0 -18 -17 -18h-16q-209 0 -209 -217v-96q0 -113 -66.5 -201t-150.5 -102q-70 -4 -100 4q41 -16 75 -60l437 -588q6 -8 2 -14t-15 -6h-125q-12 0 -18 12l-448 604q-20 29 -56 29h-69q-23 0 -54 12q14 -16 15 -49v-592q0 -16 -19 -16h-112
q-16 0 -17 16v592q0 33 12 49q-31 -12 -53 -12h-71q-33 0 -54 -29l-446 -604q-8 -12 -21 -12h-125q-10 0 -14 6t2 14l436 588q35 43 76 60q-31 -8 -100 -4q-84 14 -149.5 102t-65.5 201v96q0 217 -209 217h-19q-16 0 -16 18v97q0 16 16 16h52q135 0 229 -94t94 -230v-110
q0 -102 50.5 -156.5t131.5 -54.5h199q27 0 57 -12q-12 16 -12 47v590q0 16 17 16h112q18 0 19 -16v-590q0 -31 -15 -47q31 12 58 12h198q84 0 133.5 54t49.5 157v110q0 135 95 230.5t228 95.5h51z" />
    <glyph glyph-name="uni0417" unicode="&#x417;" horiz-adv-x="1085" 
d="M897 717q100 -84 100 -230v-168q0 -135 -95 -229t-228 -94h-299q-119 0 -209 78t-107 194l-2 8q-2 18 17 19h110q16 0 19 -16v-5q31 -150 203 -151h237q211 2 211 213v131q0 109 -55.5 163t-157.5 54h-246q-16 0 -16 18v76q0 18 16 19h240q104 0 158.5 52t54.5 150v72
q0 100 -55.5 154.5t-157.5 54.5h-221q-82 0 -133.5 -37t-69.5 -104l-2 -13q0 -16 -16 -16h-113q-18 0 -17 18l3 11q16 119 104 193.5t209 74.5h293q133 0 226 -94t93 -230v-106q0 -127 -94 -213q-25 -23 -43 -23q16 -4 43 -24z" />
    <glyph glyph-name="uni0418" unicode="&#x418;" horiz-adv-x="1370" 
d="M213 1407h111q18 0 18 -16v-1039q0 -27 -12 -121q14 37 57 107l635 1059q6 10 20 10h117q16 0 17 -16v-1373q0 -18 -17 -18h-112q-18 0 -19 18v1051q0 29 14 121q-14 -33 -57 -107l-643 -1071q-6 -12 -20 -12h-109q-18 0 -18 18v1373q0 16 18 16z" />
    <glyph glyph-name="uni0419" unicode="&#x419;" horiz-adv-x="1370" 
d="M938 1743q14 0 14 -12q-6 -90 -75.5 -149.5t-159.5 -57.5h-94q-86 0 -154 59t-72 148q-2 12 13 12h65q10 0 12 -12q6 -47 50.5 -83t117.5 -36h37q74 0 119 34.5t49 84.5q2 12 14 12h64zM213 1407h111q18 0 18 -16v-1039q0 -27 -12 -121q14 37 57 107l635 1059q6 10 20 10
h117q16 0 17 -16v-1373q0 -18 -17 -18h-112q-18 0 -19 18v1051q0 29 14 121q-14 -33 -57 -107l-643 -1071q-6 -12 -20 -12h-109q-18 0 -18 18v1373q0 16 18 16z" />
    <glyph glyph-name="uni041A" unicode="&#x41a;" horiz-adv-x="1230" 
d="M1202 1413q18 0 19 -18v-97q0 -18 -19 -18h-16q-209 0 -209 -217v-96q0 -113 -66.5 -201t-150.5 -102q-70 -4 -101 4q41 -16 76 -60l436 -588q6 -8 2 -14t-14 -6h-123q-12 0 -20 12l-449 604q-20 29 -55 29h-131q-23 0 -53 12q14 -16 14 -49v-592q0 -16 -18 -16h-113
q-16 0 -16 16v1375q0 16 16 16h113q18 0 18 -16v-590q0 -31 -14 -47q31 12 57 12h260q84 0 134 54t50 157v110q0 135 94.5 230.5t229.5 95.5h49z" />
    <glyph glyph-name="uni041B" unicode="&#x41b;" horiz-adv-x="1415" 
d="M1206 1407q14 0 15 -14v-1379q0 -14 -15 -14h-116q-16 0 -17 14v1227q0 33 12 49q-20 -14 -49 -14h-422q-23 0 -51 12q18 -16 15 -47l-119 -926q-18 -147 -106.5 -233t-221.5 -86h-133v127h96q102 0 156.5 52t68.5 161l138 1057q0 14 14 14h735z" />
    <glyph glyph-name="uni041C" unicode="&#x41c;" horiz-adv-x="1695" 
d="M1483 1407q18 0 18 -16v-1373q0 -18 -18 -18h-111q-18 0 -18 18v990q0 63 14 174q-16 -55 -63 -166l-406 -1000q-4 -12 -18 -12h-66q-14 0 -18 12l-406 998q-47 111 -63 166q14 -109 14 -172v-990q0 -18 -18 -18h-111q-18 0 -18 18v1373q0 16 18 16h139q14 0 21 -12
l446 -1086q20 -49 29 -102q10 55 29 104l446 1084q6 12 20 12h140z" />
    <glyph glyph-name="uni041D" unicode="&#x41d;" horiz-adv-x="1294" 
d="M1096 1407q16 0 16 -14v-1377q0 -16 -16 -16h-117q-16 0 -16 16v617q0 20 10 45q-31 -12 -49 -12h-553q-20 0 -49 12q10 -25 10 -45v-617q0 -16 -17 -16h-116q-16 0 -17 16v1377q0 14 17 14h116q16 0 17 -14v-574q0 -20 -10 -45q29 12 49 12h553q20 0 49 -12
q-10 25 -10 45v574q0 14 16 14h117z" />
    <glyph glyph-name="uni041E" unicode="&#x41e;" horiz-adv-x="1236" 
d="M475 -4q-127 0 -218 91t-91 218v797q0 127 91 218t218 91h287q127 0 218 -91t91 -218v-797q0 -127 -91 -218t-218 -91h-287zM518 127h203q94 0 148.5 51t54.5 148v755q0 96 -54.5 147.5t-148.5 51.5h-203q-96 0 -150.5 -51t-54.5 -148v-755q0 -96 54.5 -147.5
t150.5 -51.5z" />
    <glyph glyph-name="uni041F" unicode="&#x41f;" horiz-adv-x="1255" 
d="M1047 1407q16 0 16 -14v-1377q0 -16 -16 -16h-113q-14 0 -14 16v1229q0 29 10 47q-16 -14 -45 -14h-514q-27 0 -43 14q8 -20 8 -47v-1229q0 -16 -14 -16h-113q-14 0 -14 16v1377q0 14 14 14h838z" />
    <glyph glyph-name="uni0420" unicode="&#x420;" horiz-adv-x="1120" 
d="M201 0q-18 0 -19 18v1373q0 16 19 16h542q131 0 223.5 -89t92.5 -216v-232q0 -127 -92.5 -216t-223.5 -89h-368q-25 0 -53 13q10 -27 10 -50v-510q0 -18 -19 -18h-112zM911 883v202q0 88 -54 139.5t-148 51.5h-338q-18 0 -49 12q10 -25 10 -47v-516q0 -20 -10 -45
q29 12 49 12h338q94 0 148 51.5t54 139.5z" />
    <glyph glyph-name="uni0421" unicode="&#x421;" horiz-adv-x="1169" 
d="M934 999q-16 0 -16 15v67q0 96 -53.5 147.5t-149.5 51.5h-197q-96 0 -150.5 -51t-54.5 -148v-755q0 -96 54.5 -147.5t150.5 -51.5h197q96 0 150.5 51t54.5 148v80q0 16 14 16h117q16 0 16 -16v-101q0 -127 -92 -218t-219 -91h-281q-127 0 -218 91t-91 218v797
q0 127 91 218t218 91h281q127 0 219 -91t92 -218v-88q0 -14 -16 -15h-117z" />
    <glyph glyph-name="uni0422" unicode="&#x422;" horiz-adv-x="864" 
d="M883 1407q18 0 18 -16v-97q0 -18 -18 -18h-336q-18 0 -49 12q8 -23 8 -43v-1227q0 -18 -19 -18h-110q-18 0 -19 18v1227q0 23 11 43q-37 -12 -52 -12h-335q-18 0 -19 18v97q0 16 19 16h901z" />
    <glyph glyph-name="uni0423" unicode="&#x423;" horiz-adv-x="958" 
d="M967 1407q23 0 14 -18l-502 -1119q-100 -270 -278 -270h-111q-16 0 -16 16v97q0 14 14 14h66q45 0 76.5 13.5t56 46t38 59t37.5 86.5l7 14l39 96q2 2 10 15q0 2 -8.5 4t-8.5 4l-424 921q-4 10 0.5 15.5t14.5 5.5h119q14 0 20 -14l324 -713q25 -53 30 -102q6 45 31 102
l311 713q6 14 19 14h121z" />
    </font>
</defs>
</svg>
