<svg width="131" height="22" viewBox="0 0 131 22" fill="none" xmlns="http://www.w3.org/2000/svg">
<path d="M20.0618 0.434151H0.120766V0.454606C0.120766 0.454606 0.111084 9.10864 0.111084 9.13539V9.14483C0.111084 9.25654 0.111084 9.36826 0.120766 9.4784C0.130449 9.65148 0.144972 9.82299 0.165951 9.99292C0.231431 9.89189 0.303667 9.79518 0.382192 9.70341L0.722694 9.37613L2.36387 7.80267L2.38001 2.62598H17.7929V9.02682H17.7816C17.7838 10.2966 17.3376 11.5284 16.518 12.5152L13.0598 15.8997L10.0776 18.8326L7.06955 15.8903L8.88178 14.1217C9.2902 13.6691 9.52501 13.0923 9.5462 12.4898C9.56739 11.8873 9.37364 11.2963 8.99797 10.8174L5.74305 13.9911L5.43321 14.2948L3.65809 12.564L7.15346 9.15742C7.53499 8.70159 7.74751 8.13352 7.75659 7.54523C7.76567 6.95694 7.57078 6.3829 7.20349 5.91609L2.12665 10.841C1.72365 11.3042 1.49883 11.8899 1.49088 12.4973C1.48292 13.1047 1.69234 13.6958 2.08308 14.1689L10.0517 21.9843L10.0679 22C10.0679 22 17.9284 14.3121 17.9897 14.2444C19.1517 12.9968 19.8639 11.4134 20.0182 9.73488C20.036 9.52718 20.0473 9.31791 20.0489 9.10549L20.0618 0.434151Z" fill="url(#paint0_linear_401_2967)"/>
<path d="M36.6752 10.5978H29.9077V17.1964C29.9077 17.5297 29.8479 17.7547 29.7282 17.8713C29.6086 17.9879 29.3779 18.0463 29.0361 18.0463H28.7797C28.4379 18.0463 28.2072 17.9879 28.0876 17.8713C27.968 17.7547 27.9082 17.5297 27.9082 17.1964V4.49907C27.9082 3.56593 28.1218 2.88274 28.549 2.44949C28.9934 2.01625 29.7026 1.79963 30.6767 1.79963H37.7006C38.0253 1.79963 38.239 1.84962 38.3415 1.9496C38.444 2.04958 38.4953 2.25787 38.4953 2.57447V2.84941C38.4953 3.16601 38.444 3.3743 38.3415 3.47428C38.239 3.57426 38.0253 3.62425 37.7006 3.62425H31.1125C30.6853 3.62425 30.3776 3.7159 30.1897 3.89919C30.0017 4.08249 29.9077 4.38243 29.9077 4.79901V8.77318H36.6752C36.9999 8.77318 37.2136 8.82317 37.3161 8.92315C37.4186 9.02313 37.4699 9.23142 37.4699 9.54802V9.82297C37.4699 10.1396 37.4186 10.3479 37.3161 10.4478C37.2136 10.5478 36.9999 10.5978 36.6752 10.5978Z" fill="url(#paint1_linear_401_2967)"/>
<path d="M48.4015 10.0479V10.2479C48.4015 10.5145 48.3503 10.6978 48.2477 10.7978C48.1452 10.8977 47.9572 10.9477 47.6838 10.9477H40.7367C40.4462 10.9477 40.2497 10.8977 40.1471 10.7978C40.0617 10.6978 40.019 10.5145 40.019 10.2479V10.0479C40.019 9.78131 40.0617 9.59801 40.1471 9.49803C40.2497 9.39805 40.4462 9.34806 40.7367 9.34806H47.6838C47.9572 9.34806 48.1452 9.39805 48.2477 9.49803C48.3503 9.59801 48.4015 9.78131 48.4015 10.0479Z" fill="url(#paint2_linear_401_2967)"/>
<path d="M49.2208 16.7715V16.4216C49.2208 15.8384 49.4772 15.6301 49.9899 15.7967C51.2374 16.23 52.6559 16.4466 54.2452 16.4466C55.5953 16.4466 56.5695 16.2883 57.1676 15.9717C57.7657 15.6384 58.0648 15.0885 58.0648 14.322C58.0648 13.7388 57.9025 13.2639 57.5778 12.8973C57.2701 12.5307 56.6464 12.0725 55.7064 11.5226L51.9125 9.24808C50.2206 8.24829 49.3746 6.92357 49.3746 5.27391C49.3746 3.99084 49.8104 3.0577 50.682 2.47449C51.5536 1.87461 52.9037 1.57467 54.7323 1.57467C56.2362 1.57467 57.5179 1.77463 58.5775 2.17455C58.9022 2.29119 59.1073 2.40784 59.1927 2.52448C59.2953 2.62446 59.3466 2.81608 59.3466 3.09936V3.42429C59.3466 4.0075 59.0902 4.20746 58.5775 4.02417C57.4838 3.62425 56.202 3.42429 54.7323 3.42429C53.5531 3.42429 52.7072 3.57426 52.1945 3.8742C51.6818 4.17414 51.4254 4.6657 51.4254 5.34889C51.4254 5.84879 51.5451 6.25704 51.7843 6.57364C52.0407 6.89024 52.5192 7.27349 53.2199 7.7234L57.0907 10.0729C58.1844 10.7394 58.9535 11.381 59.3978 11.9975C59.8592 12.6141 60.09 13.3806 60.09 14.297C60.09 16.9632 58.1246 18.2962 54.194 18.2962C52.5533 18.2962 51.1691 18.0963 50.0411 17.6963C49.631 17.5297 49.4003 17.3964 49.349 17.2964C49.2977 17.1964 49.255 17.0215 49.2208 16.7715Z" fill="url(#paint3_linear_401_2967)"/>
<path d="M72.3582 9.39805V14.347C72.3582 15.7301 71.9309 16.7382 71.0764 17.3714C70.2219 17.9879 68.8633 18.2962 67.0005 18.2962C65.4454 18.2962 64.2491 17.9879 63.4117 17.3714C62.5913 16.7382 62.1812 15.7967 62.1812 14.547C62.1812 13.2639 62.5999 12.3391 63.4373 11.7726C64.2918 11.1893 65.6162 10.8977 67.4107 10.8977H70.4356V9.39805C70.4356 8.59822 70.1621 8.02334 69.6153 7.67341C69.0684 7.30682 68.2224 7.12353 67.0774 7.12353C66.0349 7.12353 65.095 7.21517 64.2576 7.39847C63.95 7.46512 63.7364 7.45679 63.6167 7.37347C63.4971 7.27349 63.4373 7.07353 63.4373 6.7736V6.57364C63.4373 6.29036 63.4886 6.09874 63.5911 5.99876C63.6936 5.88212 63.8987 5.79047 64.2063 5.72381C64.9583 5.55718 65.8811 5.47387 66.9749 5.47387C70.5637 5.47387 72.3582 6.78193 72.3582 9.39805ZM70.4356 14.272V12.3724H67.4363C66.2571 12.3724 65.4026 12.5391 64.8728 12.8723C64.3601 13.2056 64.1038 13.7638 64.1038 14.547C64.1038 15.9634 65.0608 16.6715 66.9749 16.6715C68.2224 16.6715 69.1111 16.4966 69.6409 16.1467C70.1707 15.7801 70.4356 15.1552 70.4356 14.272Z" fill="url(#paint4_linear_401_2967)"/>
<path d="M73.9834 6.82359V6.69861C73.9834 6.41534 74.0261 6.22371 74.1115 6.12373C74.2141 6.02375 74.4021 5.9571 74.6755 5.92377L76.1367 5.72381V3.8742C76.1367 1.2914 77.5722 0 80.4433 0C80.956 0 81.6054 0.066653 82.3916 0.199959C82.7163 0.266612 82.9299 0.35826 83.0324 0.474903C83.135 0.574882 83.1862 0.783172 83.1862 1.09977V1.32473C83.1862 1.64133 83.1264 1.84962 83.0068 1.9496C82.9043 2.03291 82.6992 2.04124 82.3916 1.97459C81.708 1.84129 81.0842 1.77463 80.5202 1.77463C78.8796 1.77463 78.0593 2.43283 78.0593 3.74922V5.72381H82.1096C82.4343 5.72381 82.6479 5.7738 82.7505 5.87378C82.853 5.97376 82.9043 6.18205 82.9043 6.49865V6.72361C82.9043 7.04021 82.853 7.2485 82.7505 7.34848C82.6479 7.44846 82.4343 7.49845 82.1096 7.49845H78.0593V17.2464C78.0593 17.5797 77.9995 17.7963 77.8799 17.8963C77.7773 17.9963 77.5637 18.0463 77.239 18.0463H76.957C76.6152 18.0463 76.393 17.9963 76.2905 17.8963C76.188 17.7963 76.1367 17.5797 76.1367 17.2464V7.49845H74.6755C74.385 7.49845 74.197 7.45679 74.1115 7.37347C74.0261 7.29016 73.9834 7.10686 73.9834 6.82359Z" fill="url(#paint5_linear_401_2967)"/>
<path d="M95.2077 10.4728C95.2077 11.056 95.1821 11.506 95.1308 11.8226C95.0966 12.1392 95.0197 12.3474 94.9001 12.4474C94.7805 12.5474 94.5498 12.5974 94.208 12.5974H86.4663V13.3472C86.4663 14.4803 86.7739 15.2968 87.3891 15.7967C88.0215 16.28 89.0469 16.5216 90.4653 16.5216C91.6445 16.5216 92.8066 16.3633 93.9516 16.0467C94.2592 15.9634 94.4729 15.9717 94.5925 16.0717C94.7121 16.1716 94.7719 16.3799 94.7719 16.6965V16.9215C94.7719 17.1881 94.7207 17.3797 94.6181 17.4964C94.5327 17.613 94.3191 17.7213 93.9773 17.8213C92.9348 18.1379 91.7641 18.2962 90.4653 18.2962C88.4145 18.2962 86.9106 17.888 85.9536 17.0715C85.0136 16.2383 84.5437 14.9052 84.5437 13.0723V10.7478C84.5437 7.23184 86.3467 5.47387 89.9526 5.47387C91.6616 5.47387 92.9604 5.89878 93.8491 6.7486C94.7549 7.59843 95.2077 8.83984 95.2077 10.4728ZM86.4663 10.1979V11.0227H93.3877V10.1979C93.3877 8.16498 92.2341 7.14852 89.927 7.14852C87.6199 7.14852 86.4663 8.16498 86.4663 10.1979Z" fill="url(#paint6_linear_401_2967)"/>
<path d="M114.85 14.8969V9.92295C114.85 9.60634 114.902 9.39805 115.004 9.29807C115.107 9.18143 115.329 9.12311 115.671 9.12311H115.927C116.269 9.12311 116.491 9.18143 116.593 9.29807C116.696 9.39805 116.747 9.60634 116.747 9.92295V14.722C116.747 15.8217 116.559 16.6216 116.183 17.1215C115.807 17.6213 115.141 17.9546 114.184 18.1212C113.483 18.2379 112.748 18.2962 111.979 18.2962C109.45 18.2962 107.613 17.8046 106.468 16.8215C105.323 15.8217 104.75 14.2137 104.75 11.9975V7.99834C104.75 3.7159 107.109 1.57467 111.825 1.57467C113.124 1.57467 114.389 1.7913 115.619 2.22454C116.03 2.39117 116.269 2.53281 116.337 2.64945C116.371 2.73277 116.406 2.90773 116.44 3.17434V3.49928C116.44 4.13248 116.183 4.33244 115.671 4.09915C114.56 3.63258 113.27 3.3993 111.8 3.3993C110.022 3.3993 108.741 3.77422 107.955 4.52406C107.168 5.25725 106.775 6.457 106.775 8.12332V12.1225C106.775 13.6222 107.177 14.722 107.98 15.4218C108.783 16.1217 110.082 16.4716 111.877 16.4716C112.663 16.4716 113.27 16.4216 113.697 16.3216C114.107 16.255 114.397 16.1133 114.568 15.8967C114.756 15.6801 114.85 15.3468 114.85 14.8969Z" fill="url(#paint7_linear_401_2967)"/>
<path d="M128.671 13.0473V10.7228C128.671 9.47304 128.398 8.58156 127.851 8.04833C127.304 7.51511 126.356 7.2485 125.006 7.2485C123.638 7.2485 122.673 7.51511 122.109 8.04833C121.562 8.58156 121.288 9.47304 121.288 10.7228V13.0473C121.288 14.297 121.562 15.1885 122.109 15.7217C122.673 16.255 123.638 16.5216 125.006 16.5216C126.356 16.5216 127.304 16.255 127.851 15.7217C128.398 15.1885 128.671 14.297 128.671 13.0473ZM125.006 18.2962C123.057 18.2962 121.63 17.863 120.724 16.9965C119.819 16.13 119.366 14.8136 119.366 13.0473V10.7228C119.366 7.2235 121.246 5.47387 125.006 5.47387C126.937 5.47387 128.347 5.90711 129.235 6.7736C130.141 7.64008 130.594 8.95648 130.594 10.7228V13.0473C130.594 16.5466 128.731 18.2962 125.006 18.2962Z" fill="url(#paint8_linear_401_2967)"/>
<defs>
<linearGradient id="paint0_linear_401_2967" x1="52.8061" y1="-7.22857" x2="86.3336" y2="51.0966" gradientUnits="userSpaceOnUse">
<stop stop-color="#FE5D0C"/>
<stop offset="1" stop-color="#F63609"/>
</linearGradient>
<linearGradient id="paint1_linear_401_2967" x1="52.8061" y1="-7.22857" x2="86.3336" y2="51.0966" gradientUnits="userSpaceOnUse">
<stop stop-color="#FE5D0C"/>
<stop offset="1" stop-color="#F63609"/>
</linearGradient>
<linearGradient id="paint2_linear_401_2967" x1="52.8061" y1="-7.22857" x2="86.3336" y2="51.0966" gradientUnits="userSpaceOnUse">
<stop stop-color="#FE5D0C"/>
<stop offset="1" stop-color="#F63609"/>
</linearGradient>
<linearGradient id="paint3_linear_401_2967" x1="52.8061" y1="-7.22857" x2="86.3336" y2="51.0966" gradientUnits="userSpaceOnUse">
<stop stop-color="#FE5D0C"/>
<stop offset="1" stop-color="#F63609"/>
</linearGradient>
<linearGradient id="paint4_linear_401_2967" x1="52.8061" y1="-7.22857" x2="86.3336" y2="51.0966" gradientUnits="userSpaceOnUse">
<stop stop-color="#FE5D0C"/>
<stop offset="1" stop-color="#F63609"/>
</linearGradient>
<linearGradient id="paint5_linear_401_2967" x1="52.8061" y1="-7.22857" x2="86.3336" y2="51.0966" gradientUnits="userSpaceOnUse">
<stop stop-color="#FE5D0C"/>
<stop offset="1" stop-color="#F63609"/>
</linearGradient>
<linearGradient id="paint6_linear_401_2967" x1="52.8061" y1="-7.22857" x2="86.3336" y2="51.0966" gradientUnits="userSpaceOnUse">
<stop stop-color="#FE5D0C"/>
<stop offset="1" stop-color="#F63609"/>
</linearGradient>
<linearGradient id="paint7_linear_401_2967" x1="52.8061" y1="-7.22857" x2="86.3336" y2="51.0966" gradientUnits="userSpaceOnUse">
<stop stop-color="#FE5D0C"/>
<stop offset="1" stop-color="#F63609"/>
</linearGradient>
<linearGradient id="paint8_linear_401_2967" x1="52.8061" y1="-7.22857" x2="86.3336" y2="51.0966" gradientUnits="userSpaceOnUse">
<stop stop-color="#FE5D0C"/>
<stop offset="1" stop-color="#F63609"/>
</linearGradient>
</defs>
</svg>
