<svg width="106" height="36" viewBox="0 0 106 36" fill="none" xmlns="http://www.w3.org/2000/svg">
<g clip-path="url(#clip0_5103_1806)">
<path fill-rule="evenodd" clip-rule="evenodd" d="M4.40749 10.8942C5.38343 7.77222 8.12236 5.52832 11.3021 5.52832H21.1244L17.0633 23.7397L16.654 25.5283C15.6781 28.4226 13.0965 30.4714 10.0743 30.4714H0L4.18711 11.7722L4.34452 11.0893C4.36026 11.0568 4.36813 11.0243 4.376 10.9917C4.38387 10.9592 4.39174 10.9267 4.40749 10.8942ZM9.28749 11.805L9.4449 11.7725L18.071 11.87L18.0395 12.0001C17.8821 12.7156 17.5043 13.3334 16.9061 13.8538C16.2765 14.3416 15.6154 14.6017 14.9228 14.6017H8.81526L8.34303 16.683H15.3635L15.332 16.8131C15.1746 17.5286 14.7654 18.1464 14.1672 18.6668C13.569 19.1871 12.8764 19.4473 12.1838 19.4473H7.71339L7.20968 21.6586C7.05227 22.3741 6.643 22.992 6.04484 23.5123C5.44668 24.0326 4.78556 24.2928 4.06147 24.2928H3.93555L6.20225 14.179C6.32818 13.6912 6.70597 13.0733 7.30412 12.5855C7.93376 12.0651 8.59489 11.805 9.28749 11.805Z" fill="white"/>
<path fill-rule="evenodd" clip-rule="evenodd" d="M23.2022 5.43089C24.0522 2.30894 26.8226 0 30.1283 0H39.9507L33.182 30.3415C32.395 33.5935 29.5616 36 26.193 36H16.3706L23.0448 6.14634C23.0763 5.9187 23.1392 5.65854 23.2022 5.43089ZM32.804 11.7402C33.4336 11.7402 33.9373 11.9679 34.3151 12.3581C34.7244 12.7809 34.9133 13.2687 34.8818 13.8866C34.8818 14.0569 34.8578 14.2024 34.8308 14.3665C34.8268 14.3904 34.8228 14.4146 34.8188 14.4394L34.2836 16.7484C34.1262 17.4963 33.6855 18.3093 33.0873 18.7971C32.4891 19.285 31.8595 19.3825 31.1669 19.3825H25.2168L24.7131 21.5939C24.5557 22.3093 24.1464 22.9272 23.5483 23.4476C22.9501 23.9679 22.289 24.228 21.5649 24.228H21.439V24.1955L24.2094 11.7402H32.804ZM25.8464 16.6183H31.6391L32.1114 14.537H26.3187L25.8464 16.6183Z" fill="white"/>
<path fill-rule="evenodd" clip-rule="evenodd" d="M39.7302 10.5364C40.7691 7.60962 43.4136 5.52832 46.4988 5.52832H56.3212L52.0712 24.5527C51.2526 27.9673 48.3878 30.4714 45.0192 30.4714H35.1968L39.4783 11.3169C39.4783 11.3169 39.6672 10.6991 39.7302 10.5364ZM50.3082 11.7725C50.9379 11.7725 51.4416 12.0001 51.8194 12.3903C52.1972 12.7806 52.3861 13.2684 52.3546 13.9188C52.3546 14.0814 52.3231 14.2765 52.2916 14.4716L52.2601 14.5692H47.7897L46.2156 21.6261C46.0582 22.3416 45.6489 22.9595 45.0507 23.4798C44.4526 24.0001 43.7915 24.2603 43.0674 24.2603H42.9414L45.1137 14.5692H43.2248C42.5951 14.5692 42.0914 14.3416 41.7136 13.9513C41.3359 13.5286 41.147 13.0408 41.147 12.4229C41.147 12.2603 41.1785 12.0651 41.2099 11.87L41.2414 11.7725H46.2785H46.5304H50.3082Z" fill="white"/>
<path d="M53.5823 28.3251C53.5823 27.1543 54.5267 26.1787 55.6601 26.1787C56.7934 26.1787 57.7379 27.1543 57.7379 28.3251C57.7379 29.4958 56.7934 30.4714 55.6601 30.4714C54.5267 30.4714 53.5823 29.4958 53.5823 28.3251ZM57.2342 28.3251C57.2342 27.3169 56.5416 26.6015 55.6601 26.6015C54.7786 26.6015 54.086 27.3169 54.086 28.3251C54.086 29.3332 54.7786 30.0486 55.6601 30.0486C56.5416 30.0486 57.2342 29.3332 57.2342 28.3251ZM54.873 27.0893H55.7545C56.3212 27.0893 56.636 27.2844 56.636 27.8047C56.636 28.2275 56.4157 28.4226 56.0064 28.4551L56.636 29.5283H56.1953L55.5971 28.4877H55.3453V29.5283H54.9045V27.0893H54.873ZM55.3138 28.1299H55.6916C55.9434 28.1299 56.1638 28.0974 56.1638 27.7722C56.1638 27.4795 55.9119 27.447 55.6916 27.447H55.3138V28.1299Z" fill="white"/>
<path d="M65.42 14.8367V23.1944H63.9718V14.8367H61.8311V13.5684H67.5608V14.8367H65.42Z" fill="white"/>
<path d="M74.046 19.5849L69.4497 20.2354C69.6071 21.5362 70.2997 22.1866 71.5589 22.1866C72.3145 22.1866 72.9441 22.0565 73.4793 21.7638L73.8886 22.837C73.259 23.1622 72.4719 23.3573 71.4645 23.3573C70.3941 23.3573 69.5441 23.0321 68.9459 22.3492C68.3478 21.6988 68.0645 20.7882 68.0645 19.6175C68.0645 18.5118 68.3478 17.6337 68.9145 16.9508C69.4811 16.2679 70.2367 15.9102 71.2126 15.9102C72.0941 15.9102 72.8182 16.2028 73.3219 16.7557C73.8256 17.3085 74.0775 18.089 74.0775 19.0646C74.046 19.2597 74.046 19.4549 74.046 19.5849ZM72.7238 18.8045C72.7238 17.5687 72.1886 16.9508 71.1812 16.9508C70.646 16.9508 70.2052 17.1459 69.8904 17.5687C69.5441 17.9915 69.3867 18.5443 69.3867 19.2923L72.7238 18.8045Z" fill="white"/>
<path d="M75.0537 23.1946V12.7881H76.4704V23.1946H75.0537Z" fill="white"/>
<path d="M83.4591 19.5849L78.8628 20.2354C79.0202 21.5362 79.7128 22.1866 80.9721 22.1866C81.7276 22.1866 82.3573 22.0565 82.8925 21.7638L83.3017 22.837C82.6721 23.1622 81.885 23.3573 80.8776 23.3573C79.8072 23.3573 78.9572 23.0321 78.359 22.3492C77.7609 21.6988 77.4775 20.7882 77.4775 19.6175C77.4775 18.5118 77.7609 17.6337 78.3276 16.9508C78.8942 16.2679 79.6498 15.9102 80.6258 15.9102C81.5072 15.9102 82.2313 16.2028 82.735 16.7557C83.2388 17.3085 83.4906 18.089 83.4906 19.0646C83.4591 19.2597 83.4591 19.4549 83.4591 19.5849ZM82.1054 18.8045C82.1054 17.5687 81.5702 16.9508 80.5628 16.9508C80.0276 16.9508 79.5868 17.1459 79.272 17.5687C78.9257 17.9915 78.7683 18.5443 78.7683 19.2923L82.1054 18.8045Z" fill="white"/>
<path d="M89.0001 22.837C88.5279 23.1622 87.9297 23.3248 87.2371 23.3248C86.3871 23.3248 85.6945 23.0321 85.1278 22.4467C84.4982 21.7638 84.1833 20.8207 84.1833 19.6175C84.1833 18.4142 84.4982 17.4711 85.1278 16.7882C85.663 16.2028 86.3871 15.9102 87.2371 15.9102C87.9612 15.9102 88.5279 16.0728 89.0001 16.398L88.5279 17.4386C88.2131 17.211 87.8353 17.0809 87.3945 17.0809C86.8908 17.0809 86.4816 17.276 86.1667 17.6663C85.8204 18.1215 85.6315 18.7394 85.6315 19.585C85.6315 20.398 85.8204 21.0484 86.1982 21.5036C86.513 21.9264 86.9223 22.1215 87.426 22.1215C87.8668 22.1215 88.2446 21.9915 88.5594 21.7638L89.0001 22.837Z" fill="white"/>
<path d="M94.8556 22.2512C94.3204 22.9667 93.5649 23.3244 92.5889 23.3244C91.6445 23.3244 90.8889 22.9667 90.3222 22.2512C89.787 21.5683 89.5352 20.6903 89.5352 19.5846C89.5352 18.4789 89.787 17.6008 90.3222 16.9179C90.8574 16.2024 91.613 15.8447 92.5889 15.8447C93.5334 15.8447 94.2889 16.2024 94.8556 16.9179C95.3908 17.6008 95.6427 18.4789 95.6427 19.5846C95.6427 20.6903 95.3908 21.6008 94.8556 22.2512ZM93.8167 17.7309C93.5334 17.2756 93.1241 17.048 92.5889 17.048C92.0537 17.048 91.6445 17.2756 91.3611 17.7309C91.0778 18.1862 90.9518 18.8041 90.9518 19.5846C90.9518 20.3651 91.0778 20.9829 91.3611 21.4382C91.6445 21.8935 92.0537 22.1537 92.5889 22.1537C93.1241 22.1537 93.5334 21.926 93.8167 21.4382C94.1 20.9829 94.226 20.3651 94.226 19.5846C94.226 18.8041 94.1 18.1862 93.8167 17.7309Z" fill="white"/>
<path d="M104.615 23.194V18.3485C104.615 17.9257 104.489 17.6331 104.269 17.4054C104.017 17.1778 103.702 17.0802 103.293 17.0802C102.726 17.0802 102.317 17.2428 102.034 17.568V23.2266H100.617V18.2184C100.617 17.8607 100.491 17.568 100.239 17.3729C99.9872 17.1778 99.6409 17.0802 99.2002 17.0802C98.728 17.0802 98.3502 17.1452 98.0039 17.3078V23.2266H96.6187V16.3973C97.4057 16.0721 98.2242 15.877 99.1057 15.877C100.113 15.877 100.837 16.1371 101.309 16.6574C101.876 16.1371 102.663 15.877 103.608 15.877C104.332 15.877 104.93 16.0721 105.371 16.4948C105.811 16.9176 106 17.4704 106 18.1859V23.1615H104.615V23.194Z" fill="white"/>
</g>
<defs>
<clipPath id="clip0_5103_1806">
<rect width="106" height="36.0005" fill="white"/>
</clipPath>
</defs>
</svg>
