<svg width="2560" height="832" viewBox="0 0 2560 832" fill="none" xmlns="http://www.w3.org/2000/svg">
<g clip-path="url(#clip0_3871_16602)">
<g style="mix-blend-mode:overlay" opacity="0.3">
<path d="M2317.41 412.1C2308.23 421.276 2294.05 421.954 2294.05 421.954C2294.05 421.954 2294.72 407.765 2303.9 398.589C2313.08 389.412 2327.27 388.735 2327.27 388.735C2327.27 388.735 2326.59 402.923 2317.41 412.1Z" fill="white"/>
<path d="M2342.2 491.049C2329.23 491.049 2318.72 481.483 2318.72 481.483C2318.72 481.483 2329.23 471.917 2342.2 471.917C2355.17 471.917 2365.68 481.483 2365.68 481.483C2365.68 481.483 2355.17 491.049 2342.2 491.049Z" fill="white"/>
<path d="M2303.88 564.411C2294.71 555.235 2294.03 541.047 2294.03 541.047C2294.03 541.047 2308.22 541.724 2317.39 550.9C2326.57 560.077 2327.25 574.265 2327.25 574.265C2327.25 574.265 2313.06 573.588 2303.88 564.411Z" fill="white"/>
<path d="M2224.93 589.198C2224.93 576.229 2234.5 565.715 2234.5 565.715C2234.5 565.715 2244.07 576.229 2244.07 589.198C2244.07 602.168 2234.5 612.682 2234.5 612.682C2234.5 612.682 2224.93 602.168 2224.93 589.198Z" fill="white"/>
<path d="M2151.59 550.884C2160.77 541.707 2174.95 541.03 2174.95 541.03C2174.95 541.03 2174.28 555.218 2165.1 564.395C2155.92 573.571 2141.73 574.249 2141.73 574.249C2141.73 574.249 2142.41 560.06 2151.59 550.884Z" fill="white"/>
<path d="M2126.8 471.934C2139.77 471.934 2150.28 481.5 2150.28 481.5C2150.28 481.5 2139.77 491.066 2126.8 491.066C2113.83 491.066 2103.32 481.5 2103.32 481.5C2103.32 481.5 2113.83 471.934 2126.8 471.934Z" fill="white"/>
<path d="M2165.1 398.589C2174.28 407.765 2174.95 421.954 2174.95 421.954C2174.95 421.954 2160.77 421.276 2151.59 412.1C2142.41 402.923 2141.73 388.735 2141.73 388.735C2141.73 388.735 2155.92 389.412 2165.1 398.589Z" fill="white"/>
<path d="M2244.05 373.802C2244.05 386.771 2234.48 397.285 2234.48 397.285C2234.48 397.285 2224.92 386.771 2224.92 373.802C2224.92 360.832 2234.48 350.318 2234.48 350.318C2234.48 350.318 2244.05 360.832 2244.05 373.802Z" fill="white"/>
<path d="M2275.47 457.306C2264.08 468.7 2246.45 469.547 2246.45 469.547C2246.45 469.547 2247.3 451.922 2258.69 440.527C2270.09 429.132 2287.71 428.286 2287.71 428.286C2287.71 428.286 2286.87 445.911 2275.47 457.306Z" fill="white"/>
<path d="M2280.57 493.369C2264.45 493.369 2251.4 481.5 2251.4 481.5C2251.4 481.5 2264.45 469.631 2280.57 469.631C2296.69 469.631 2309.74 481.5 2309.74 481.5C2309.74 481.5 2296.67 493.369 2280.57 493.369Z" fill="white"/>
<path d="M2258.68 522.473C2247.28 511.079 2246.44 493.453 2246.44 493.453C2246.44 493.453 2264.06 494.3 2275.46 505.695C2286.85 517.089 2287.7 534.714 2287.7 534.714C2287.7 534.714 2270.07 533.868 2258.68 522.473Z" fill="white"/>
<path d="M2222.63 527.569C2222.63 511.451 2234.5 498.397 2234.5 498.397C2234.5 498.397 2246.37 511.468 2246.37 527.569C2246.37 543.671 2234.5 556.742 2234.5 556.742C2234.5 556.742 2222.63 543.688 2222.63 527.569Z" fill="white"/>
<path d="M2193.53 505.678C2204.92 494.283 2222.55 493.437 2222.55 493.437C2222.55 493.437 2221.7 511.062 2210.31 522.456C2198.91 533.851 2181.29 534.698 2181.29 534.698C2181.29 534.698 2182.13 517.072 2193.53 505.678Z" fill="white"/>
<path d="M2188.41 469.631C2204.53 469.631 2217.59 481.5 2217.59 481.5C2217.59 481.5 2204.52 493.369 2188.41 493.369C2172.31 493.369 2159.24 481.5 2159.24 481.5C2159.24 481.5 2172.3 469.631 2188.41 469.631Z" fill="white"/>
<path d="M2210.31 440.527C2221.7 451.922 2222.55 469.547 2222.55 469.547C2222.55 469.547 2204.92 468.7 2193.53 457.306C2182.13 445.911 2181.29 428.286 2181.29 428.286C2181.29 428.286 2198.91 429.132 2210.31 440.527Z" fill="white"/>
<path d="M2246.37 435.414C2246.37 451.532 2234.5 464.586 2234.5 464.586C2234.5 464.586 2222.63 451.532 2222.63 435.414C2222.63 419.295 2234.5 406.241 2234.5 406.241C2234.5 406.241 2246.37 419.312 2246.37 435.414Z" fill="white"/>
<path d="M2272.7 415.96C2267.63 427.896 2254.72 433.856 2254.72 433.856C2254.72 433.856 2250.03 420.447 2255.09 408.493C2260.15 396.557 2273.07 390.597 2273.07 390.597C2273.07 390.597 2277.76 404.006 2272.7 415.96Z" fill="white"/>
<path d="M2307.85 462.165C2295.82 467.024 2282.48 462.097 2282.48 462.097C2282.48 462.097 2288.65 449.297 2300.68 444.438C2312.7 439.579 2326.05 444.506 2326.05 444.506C2326.05 444.506 2319.88 457.306 2307.85 462.165Z" fill="white"/>
<path d="M2300.04 519.696C2288.1 514.634 2282.14 501.716 2282.14 501.716C2282.14 501.716 2295.55 497.026 2307.51 502.088C2319.44 507.15 2325.4 520.069 2325.4 520.069C2325.4 520.069 2311.99 524.759 2300.04 519.696Z" fill="white"/>
<path d="M2253.82 554.845C2248.96 542.824 2253.89 529.483 2253.89 529.483C2253.89 529.483 2266.69 535.646 2271.55 547.684C2276.4 559.705 2271.48 573.046 2271.48 573.046C2271.48 573.046 2258.68 566.883 2253.82 554.845Z" fill="white"/>
<path d="M2196.3 547.04C2201.37 535.104 2214.28 529.144 2214.28 529.144C2214.28 529.144 2218.97 542.553 2213.91 554.507C2208.85 566.443 2195.93 572.403 2195.93 572.403C2195.93 572.403 2191.24 558.994 2196.3 547.04Z" fill="white"/>
<path d="M2161.14 500.818C2173.16 495.959 2186.5 500.886 2186.5 500.886C2186.5 500.886 2180.34 513.686 2168.3 518.545C2156.28 523.404 2142.94 518.477 2142.94 518.477C2142.94 518.477 2149.1 505.677 2161.14 500.818Z" fill="white"/>
<path d="M2168.96 443.287C2180.9 448.349 2186.86 461.267 2186.86 461.267C2186.86 461.267 2173.45 465.957 2161.49 460.895C2149.56 455.832 2143.6 442.914 2143.6 442.914C2143.6 442.914 2157.01 438.224 2168.96 443.287Z" fill="white"/>
<path d="M2215.16 408.138C2220.02 420.159 2215.1 433.5 2215.1 433.5C2215.1 433.5 2202.3 427.338 2197.44 415.3C2192.58 403.278 2197.51 389.937 2197.51 389.937C2197.51 389.937 2210.31 396.1 2215.16 408.138Z" fill="white"/>
<path d="M2291.91 367.097C2287.6 377.289 2276.57 382.369 2276.57 382.369C2276.57 382.369 2272.58 370.923 2276.9 360.731C2281.21 350.538 2292.23 345.459 2292.23 345.459C2292.23 345.459 2296.23 356.904 2291.91 367.097Z" fill="white"/>
<path d="M2356 441.204C2345.74 445.352 2334.36 441.153 2334.36 441.153C2334.36 441.153 2339.63 430.233 2349.89 426.085C2360.15 421.936 2371.52 426.135 2371.52 426.135C2371.52 426.135 2366.26 437.056 2356 441.204Z" fill="white"/>
<path d="M2348.9 538.913C2338.71 534.596 2333.63 523.574 2333.63 523.574C2333.63 523.574 2345.08 519.578 2355.27 523.895C2365.46 528.213 2370.54 539.235 2370.54 539.235C2370.54 539.235 2359.1 543.231 2348.9 538.913Z" fill="white"/>
<path d="M2274.8 602.997C2270.65 592.737 2274.85 581.359 2274.85 581.359C2274.85 581.359 2285.77 586.625 2289.92 596.885C2294.06 607.145 2289.86 618.523 2289.86 618.523C2289.86 618.523 2278.94 613.258 2274.8 602.997Z" fill="white"/>
<path d="M2177.07 595.903C2181.39 585.711 2192.41 580.631 2192.41 580.631C2192.41 580.631 2196.41 592.077 2192.09 602.269C2187.77 612.462 2176.75 617.541 2176.75 617.541C2176.75 617.541 2172.75 606.096 2177.07 595.903Z" fill="white"/>
<path d="M2113 521.796C2123.26 517.648 2134.64 521.847 2134.64 521.847C2134.64 521.847 2129.38 532.767 2119.11 536.915C2108.85 541.063 2097.48 536.865 2097.48 536.865C2097.48 536.865 2102.74 525.944 2113 521.796Z" fill="white"/>
<path d="M2120.1 424.07C2130.29 428.387 2135.37 439.409 2135.37 439.409C2135.37 439.409 2123.92 443.405 2113.73 439.088C2103.54 434.77 2098.46 423.748 2098.46 423.748C2098.46 423.748 2109.9 419.752 2120.1 424.07Z" fill="white"/>
<path d="M2194.2 360.003C2198.35 370.263 2194.15 381.641 2194.15 381.641C2194.15 381.641 2183.23 376.375 2179.08 366.115C2174.94 355.854 2179.14 344.477 2179.14 344.477C2179.14 344.477 2190.06 349.742 2194.2 360.003Z" fill="white"/>
<path d="M2264.5 379.757C2262.43 388.663 2254.19 394.369 2254.19 394.369C2254.19 394.369 2249.29 385.616 2251.36 376.71C2253.43 367.804 2261.67 362.098 2261.67 362.098C2261.67 362.098 2266.56 370.852 2264.5 379.757Z" fill="white"/>
<path d="M2327.24 430.94C2319.47 435.782 2309.62 433.988 2309.62 433.988C2309.62 433.988 2312.35 424.337 2320.12 419.495C2327.89 414.652 2337.74 416.447 2337.74 416.447C2337.74 416.447 2335.02 426.098 2327.24 430.94Z" fill="white"/>
<path d="M2335.42 511.498C2326.52 509.433 2320.81 501.187 2320.81 501.187C2320.81 501.187 2329.56 496.294 2338.47 498.36C2347.38 500.425 2353.08 508.671 2353.08 508.671C2353.08 508.671 2344.33 513.564 2335.42 511.498Z" fill="white"/>
<path d="M2284.24 574.245C2279.4 566.473 2281.19 556.619 2281.19 556.619C2281.19 556.619 2290.84 559.345 2295.69 567.117C2300.53 574.888 2298.73 584.742 2298.73 584.742C2298.73 584.742 2289.08 582.016 2284.24 574.245Z" fill="white"/>
<path d="M2203.66 582.422C2205.73 573.517 2213.98 567.811 2213.98 567.811C2213.98 567.811 2218.87 576.564 2216.8 585.47C2214.74 594.376 2206.49 600.081 2206.49 600.081C2206.49 600.081 2201.6 591.328 2203.66 582.422Z" fill="white"/>
<path d="M2140.92 531.24C2148.69 526.397 2158.54 528.192 2158.54 528.192C2158.54 528.192 2155.82 537.843 2148.05 542.685C2140.27 547.527 2130.42 545.733 2130.42 545.733C2130.42 545.733 2133.15 536.082 2140.92 531.24Z" fill="white"/>
<path d="M2132.76 450.665C2141.66 452.73 2147.37 460.976 2147.37 460.976C2147.37 460.976 2138.62 465.869 2129.71 463.803C2120.8 461.738 2115.1 453.492 2115.1 453.492C2115.1 453.492 2123.85 448.599 2132.76 450.665Z" fill="white"/>
<path d="M2183.94 387.918C2188.78 395.69 2186.99 405.544 2186.99 405.544C2186.99 405.544 2177.34 402.818 2172.49 395.046C2167.65 387.275 2169.45 377.421 2169.45 377.421C2169.45 377.421 2179.1 380.147 2183.94 387.918Z" fill="white"/>
<path d="M2306.39 326.902C2303.32 334.115 2295.54 337.704 2295.54 337.704C2295.54 337.704 2292.71 329.611 2295.77 322.399C2298.84 315.186 2306.63 311.597 2306.63 311.597C2306.63 311.597 2309.45 319.69 2306.39 326.902Z" fill="white"/>
<path d="M2394.65 423.02C2387.39 425.949 2379.35 422.986 2379.35 422.986C2379.35 422.986 2383.07 415.266 2390.33 412.32C2397.6 409.391 2405.64 412.353 2405.64 412.353C2405.64 412.353 2401.91 420.074 2394.65 423.02Z" fill="white"/>
<path d="M2389.08 553.389C2381.87 550.325 2378.28 542.536 2378.28 542.536C2378.28 542.536 2386.37 539.709 2393.58 542.773C2400.8 545.838 2404.39 553.626 2404.39 553.626C2404.39 553.626 2396.29 556.454 2389.08 553.389Z" fill="white"/>
<path d="M2292.98 641.651C2290.05 634.387 2293.01 626.345 2293.01 626.345C2293.01 626.345 2300.73 630.07 2303.68 637.333C2306.61 644.597 2303.65 652.639 2303.65 652.639C2303.65 652.639 2295.93 648.914 2292.98 641.651Z" fill="white"/>
<path d="M2162.61 636.081C2165.68 628.868 2173.46 625.279 2173.46 625.279C2173.46 625.279 2176.29 633.372 2173.23 640.584C2170.16 647.797 2162.37 651.386 2162.37 651.386C2162.37 651.386 2159.55 643.293 2162.61 636.081Z" fill="white"/>
<path d="M2074.35 539.98C2081.61 537.051 2089.65 540.014 2089.65 540.014C2089.65 540.014 2085.93 547.734 2078.67 550.68C2071.4 553.609 2063.36 550.646 2063.36 550.646C2063.36 550.646 2067.09 542.926 2074.35 539.98Z" fill="white"/>
<path d="M2079.9 409.611C2087.12 412.675 2090.7 420.463 2090.7 420.463C2090.7 420.463 2082.61 423.291 2075.4 420.226C2068.19 417.162 2064.6 409.374 2064.6 409.374C2064.6 409.374 2072.69 406.546 2079.9 409.611Z" fill="white"/>
<path d="M2176.02 321.349C2178.95 328.612 2175.99 336.655 2175.99 336.655C2175.99 336.655 2168.27 332.93 2165.32 325.666C2162.39 318.403 2165.35 310.361 2165.35 310.361C2165.35 310.361 2173.07 314.086 2176.02 321.349Z" fill="white"/>
<path d="M2270.85 337.671C2269.41 344.324 2263.33 348.659 2263.33 348.659C2263.33 348.659 2259.59 342.191 2261.05 335.537C2262.49 328.883 2268.57 324.549 2268.57 324.549C2268.57 324.549 2272.31 331.017 2270.85 337.671Z" fill="white"/>
<path d="M2361.91 405.496C2356.17 409.187 2348.82 407.951 2348.82 407.951C2348.82 407.951 2350.75 400.739 2356.47 397.048C2362.21 393.357 2369.56 394.593 2369.56 394.593C2369.56 394.593 2367.63 401.805 2361.91 405.496Z" fill="white"/>
<path d="M2378.33 517.851C2371.68 516.412 2367.34 510.334 2367.34 510.334C2367.34 510.334 2373.81 506.592 2380.46 508.048C2387.12 509.487 2391.45 515.565 2391.45 515.565C2391.45 515.565 2384.98 519.307 2378.33 517.851Z" fill="white"/>
<path d="M2310.49 608.906C2306.8 603.184 2308.03 595.819 2308.03 595.819C2308.03 595.819 2315.24 597.749 2318.94 603.471C2322.63 609.211 2321.39 616.559 2321.39 616.559C2321.39 616.559 2314.18 614.629 2310.49 608.906Z" fill="white"/>
<path d="M2198.15 625.329C2199.59 618.675 2205.67 614.341 2205.67 614.341C2205.67 614.341 2209.41 620.809 2207.95 627.463C2206.51 634.117 2200.43 638.451 2200.43 638.451C2200.43 638.451 2196.69 631.983 2198.15 625.329Z" fill="white"/>
<path d="M2107.09 557.487C2112.83 553.796 2120.18 555.032 2120.18 555.032C2120.18 555.032 2118.25 562.244 2112.53 565.935C2106.79 569.626 2099.44 568.39 2099.44 568.39C2099.44 568.39 2101.37 561.178 2107.09 557.487Z" fill="white"/>
<path d="M2090.67 445.149C2097.32 446.588 2101.66 452.666 2101.66 452.666C2101.66 452.666 2095.19 456.408 2088.54 454.952C2081.88 453.513 2077.55 447.435 2077.55 447.435C2077.55 447.435 2084.02 443.693 2090.67 445.149Z" fill="white"/>
<path d="M2158.5 354.094C2162.19 359.833 2160.95 367.181 2160.95 367.181C2160.95 367.181 2153.74 365.251 2150.05 359.529C2146.36 353.789 2147.59 346.441 2147.59 346.441C2147.59 346.441 2154.81 348.371 2158.5 354.094Z" fill="white"/>
<path d="M2355.98 370.398C2348.94 377.442 2338.03 377.967 2338.03 377.967C2338.03 377.967 2338.56 367.063 2345.6 360.02C2352.64 352.976 2363.55 352.451 2363.55 352.451C2363.55 352.451 2363.02 363.355 2355.98 370.398Z" fill="white"/>
<path d="M2398.95 488.831C2388.98 488.831 2380.9 481.483 2380.9 481.483C2380.9 481.483 2388.98 474.135 2398.95 474.135C2408.92 474.135 2417 481.483 2417 481.483C2417 481.483 2408.92 488.831 2398.95 488.831Z" fill="white"/>
<path d="M2345.58 602.98C2338.54 595.937 2338.02 585.033 2338.02 585.033C2338.02 585.033 2348.92 585.558 2355.96 592.602C2363.01 599.645 2363.53 610.549 2363.53 610.549C2363.53 610.549 2352.63 610.024 2345.58 602.98Z" fill="white"/>
<path d="M2227.15 645.951C2227.15 635.979 2234.5 627.903 2234.5 627.903C2234.5 627.903 2241.85 635.979 2241.85 645.951C2241.85 655.924 2234.5 664 2234.5 664C2234.5 664 2227.15 655.924 2227.15 645.951Z" fill="white"/>
<path d="M2113.02 592.585C2120.06 585.541 2130.97 585.017 2130.97 585.017C2130.97 585.017 2130.44 595.92 2123.4 602.964C2116.36 610.007 2105.45 610.532 2105.45 610.532C2105.45 610.532 2105.98 599.628 2113.02 592.585Z" fill="white"/>
<path d="M2070.05 474.152C2080.02 474.152 2088.1 481.5 2088.1 481.5C2088.1 481.5 2080.02 488.848 2070.05 488.848C2060.08 488.848 2052 481.5 2052 481.5C2052 481.5 2060.08 474.152 2070.05 474.152Z" fill="white"/>
<path d="M2123.4 360.02C2130.44 367.063 2130.97 377.967 2130.97 377.967C2130.97 377.967 2120.06 377.442 2113.02 370.398C2105.98 363.355 2105.45 352.451 2105.45 352.451C2105.45 352.451 2116.36 352.976 2123.4 360.02Z" fill="white"/>
<path d="M2241.83 317.049C2241.83 327.021 2234.48 335.097 2234.48 335.097C2234.48 335.097 2227.14 327.021 2227.14 317.049C2227.14 307.076 2234.5 299 2234.5 299C2234.5 299 2241.85 307.076 2241.85 317.049H2241.83Z" fill="white"/>
</g>
</g>
<g clip-path="url(#clip1_3871_16602)">
<g style="mix-blend-mode:overlay" opacity="0.3">
<path d="M2005.34 635.986C2001.04 640.286 1994.4 640.603 1994.4 640.603C1994.4 640.603 1994.71 633.956 1999.01 629.657C2003.31 625.357 2009.96 625.04 2009.96 625.04C2009.96 625.04 2009.64 631.687 2005.34 635.986Z" fill="white"/>
<path d="M2016.96 672.974C2010.88 672.974 2005.95 668.492 2005.95 668.492C2005.95 668.492 2010.88 664.01 2016.96 664.01C2023.03 664.01 2027.96 668.492 2027.96 668.492C2027.96 668.492 2023.03 672.974 2016.96 672.974Z" fill="white"/>
<path d="M1999.01 707.343C1994.71 703.044 1994.39 696.397 1994.39 696.397C1994.39 696.397 2001.04 696.714 2005.34 701.014C2009.63 705.313 2009.95 711.96 2009.95 711.96C2009.95 711.96 2003.3 711.643 1999.01 707.343Z" fill="white"/>
<path d="M1962.02 718.956C1962.02 712.88 1966.5 707.954 1966.5 707.954C1966.5 707.954 1970.98 712.88 1970.98 718.956C1970.98 725.032 1966.5 729.958 1966.5 729.958C1966.5 729.958 1962.02 725.032 1962.02 718.956Z" fill="white"/>
<path d="M1927.66 701.006C1931.96 696.707 1938.6 696.389 1938.6 696.389C1938.6 696.389 1938.29 703.036 1933.99 707.336C1929.69 711.635 1923.04 711.952 1923.04 711.952C1923.04 711.952 1923.36 705.305 1927.66 701.006Z" fill="white"/>
<path d="M1916.04 664.019C1922.12 664.019 1927.05 668.5 1927.05 668.5C1927.05 668.5 1922.12 672.982 1916.04 672.982C1909.97 672.982 1905.04 668.5 1905.04 668.5C1905.04 668.5 1909.97 664.019 1916.04 664.019Z" fill="white"/>
<path d="M1933.99 629.657C1938.29 633.956 1938.6 640.603 1938.6 640.603C1938.6 640.603 1931.96 640.286 1927.66 635.986C1923.36 631.687 1923.04 625.04 1923.04 625.04C1923.04 625.04 1929.69 625.357 1933.99 629.657Z" fill="white"/>
<path d="M1970.97 618.044C1970.97 624.12 1966.49 629.046 1966.49 629.046C1966.49 629.046 1962.01 624.12 1962.01 618.044C1962.01 611.968 1966.49 607.042 1966.49 607.042C1966.49 607.042 1970.97 611.968 1970.97 618.044Z" fill="white"/>
<path d="M1985.7 657.165C1980.36 662.503 1972.1 662.9 1972.1 662.9C1972.1 662.9 1972.5 654.643 1977.84 649.304C1983.17 643.966 1991.43 643.57 1991.43 643.57C1991.43 643.57 1991.03 651.827 1985.7 657.165Z" fill="white"/>
<path d="M1988.08 674.06C1980.53 674.06 1974.42 668.5 1974.42 668.5C1974.42 668.5 1980.53 662.94 1988.08 662.94C1995.63 662.94 2001.75 668.5 2001.75 668.5C2001.75 668.5 1995.63 674.06 1988.08 674.06Z" fill="white"/>
<path d="M1977.83 687.696C1972.49 682.357 1972.09 674.1 1972.09 674.1C1972.09 674.1 1980.35 674.497 1985.69 679.835C1991.03 685.173 1991.42 693.431 1991.42 693.431C1991.42 693.431 1983.17 693.034 1977.83 687.696Z" fill="white"/>
<path d="M1960.94 690.083C1960.94 682.532 1966.5 676.416 1966.5 676.416C1966.5 676.416 1972.06 682.54 1972.06 690.083C1972.06 697.627 1966.5 703.75 1966.5 703.75C1966.5 703.75 1960.94 697.635 1960.94 690.083Z" fill="white"/>
<path d="M1947.3 679.827C1952.64 674.489 1960.9 674.092 1960.9 674.092C1960.9 674.092 1960.5 682.35 1955.17 687.688C1949.83 693.026 1941.57 693.423 1941.57 693.423C1941.57 693.423 1941.97 685.165 1947.3 679.827Z" fill="white"/>
<path d="M1944.91 662.94C1952.46 662.94 1958.58 668.5 1958.58 668.5C1958.58 668.5 1952.45 674.06 1944.91 674.06C1937.37 674.06 1931.24 668.5 1931.24 668.5C1931.24 668.5 1937.36 662.94 1944.91 662.94Z" fill="white"/>
<path d="M1955.17 649.304C1960.5 654.643 1960.9 662.9 1960.9 662.9C1960.9 662.9 1952.64 662.503 1947.3 657.165C1941.97 651.827 1941.57 643.57 1941.57 643.57C1941.57 643.57 1949.83 643.966 1955.17 649.304Z" fill="white"/>
<path d="M1972.06 646.909C1972.06 654.46 1966.5 660.576 1966.5 660.576C1966.5 660.576 1960.94 654.46 1960.94 646.909C1960.94 639.358 1966.5 633.242 1966.5 633.242C1966.5 633.242 1972.06 639.366 1972.06 646.909Z" fill="white"/>
<path d="M1984.39 637.795C1982.02 643.387 1975.97 646.179 1975.97 646.179C1975.97 646.179 1973.77 639.897 1976.15 634.297C1978.52 628.705 1984.57 625.913 1984.57 625.913C1984.57 625.913 1986.77 632.195 1984.39 637.795Z" fill="white"/>
<path d="M2000.86 659.442C1995.23 661.718 1988.98 659.41 1988.98 659.41C1988.98 659.41 1991.87 653.413 1997.51 651.137C2003.14 648.86 2009.39 651.168 2009.39 651.168C2009.39 651.168 2006.5 657.165 2000.86 659.442Z" fill="white"/>
<path d="M1997.21 686.395C1991.61 684.023 1988.82 677.971 1988.82 677.971C1988.82 677.971 1995.1 675.774 2000.7 678.146C2006.3 680.517 2009.09 686.569 2009.09 686.569C2009.09 686.569 2002.81 688.767 1997.21 686.395Z" fill="white"/>
<path d="M1975.55 702.862C1973.27 697.23 1975.58 690.979 1975.58 690.979C1975.58 690.979 1981.58 693.867 1983.86 699.506C1986.13 705.138 1983.82 711.389 1983.82 711.389C1983.82 711.389 1977.83 708.501 1975.55 702.862Z" fill="white"/>
<path d="M1948.61 699.205C1950.98 693.613 1957.03 690.821 1957.03 690.821C1957.03 690.821 1959.23 697.103 1956.85 702.703C1954.48 708.295 1948.43 711.087 1948.43 711.087C1948.43 711.087 1946.23 704.805 1948.61 699.205Z" fill="white"/>
<path d="M1932.13 677.55C1937.76 675.274 1944.01 677.582 1944.01 677.582C1944.01 677.582 1941.13 683.579 1935.49 685.855C1929.85 688.132 1923.6 685.824 1923.6 685.824C1923.6 685.824 1926.49 679.827 1932.13 677.55Z" fill="white"/>
<path d="M1935.79 650.597C1941.39 652.969 1944.18 659.021 1944.18 659.021C1944.18 659.021 1937.9 661.218 1932.3 658.847C1926.7 656.475 1923.91 650.423 1923.91 650.423C1923.91 650.423 1930.19 648.226 1935.79 650.597Z" fill="white"/>
<path d="M1957.44 634.13C1959.72 639.762 1957.41 646.013 1957.41 646.013C1957.41 646.013 1951.41 643.125 1949.14 637.486C1946.86 631.854 1949.17 625.603 1949.17 625.603C1949.17 625.603 1955.17 628.491 1957.44 634.13Z" fill="white"/>
<path d="M1993.4 614.903C1991.38 619.678 1986.21 622.058 1986.21 622.058C1986.21 622.058 1984.34 616.695 1986.36 611.92C1988.38 607.145 1993.55 604.766 1993.55 604.766C1993.55 604.766 1995.42 610.128 1993.4 614.903Z" fill="white"/>
<path d="M2023.42 649.622C2018.61 651.565 2013.28 649.598 2013.28 649.598C2013.28 649.598 2015.75 644.482 2020.56 642.538C2025.36 640.595 2030.69 642.562 2030.69 642.562C2030.69 642.562 2028.23 647.678 2023.42 649.622Z" fill="white"/>
<path d="M2020.1 695.398C2015.32 693.375 2012.94 688.211 2012.94 688.211C2012.94 688.211 2018.3 686.339 2023.08 688.362C2027.85 690.385 2030.23 695.549 2030.23 695.549C2030.23 695.549 2024.87 697.421 2020.1 695.398Z" fill="white"/>
<path d="M1985.38 725.421C1983.44 720.614 1985.4 715.283 1985.4 715.283C1985.4 715.283 1990.52 717.75 1992.46 722.557C1994.41 727.364 1992.44 732.694 1992.44 732.694C1992.44 732.694 1987.32 730.228 1985.38 725.421Z" fill="white"/>
<path d="M1939.59 722.097C1941.62 717.322 1946.78 714.942 1946.78 714.942C1946.78 714.942 1948.65 720.304 1946.63 725.08C1944.61 729.855 1939.44 732.234 1939.44 732.234C1939.44 732.234 1937.57 726.872 1939.59 722.097Z" fill="white"/>
<path d="M1909.58 687.378C1914.39 685.435 1919.72 687.402 1919.72 687.402C1919.72 687.402 1917.25 692.518 1912.44 694.462C1907.64 696.405 1902.31 694.438 1902.31 694.438C1902.31 694.438 1904.77 689.322 1909.58 687.378Z" fill="white"/>
<path d="M1912.9 641.594C1917.68 643.617 1920.06 648.781 1920.06 648.781C1920.06 648.781 1914.7 650.653 1909.92 648.63C1905.15 646.607 1902.77 641.444 1902.77 641.444C1902.77 641.444 1908.13 639.572 1912.9 641.594Z" fill="white"/>
<path d="M1947.62 611.579C1949.56 616.386 1947.6 621.717 1947.6 621.717C1947.6 621.717 1942.48 619.25 1940.54 614.443C1938.59 609.636 1940.56 604.306 1940.56 604.306C1940.56 604.306 1945.68 606.773 1947.62 611.579Z" fill="white"/>
<path d="M1980.55 620.834C1979.59 625.007 1975.72 627.68 1975.72 627.68C1975.72 627.68 1973.43 623.579 1974.4 619.407C1975.37 615.234 1979.23 612.561 1979.23 612.561C1979.23 612.561 1981.52 616.662 1980.55 620.834Z" fill="white"/>
<path d="M2009.95 644.813C2006.31 647.082 2001.69 646.241 2001.69 646.241C2001.69 646.241 2002.97 641.72 2006.61 639.451C2010.25 637.182 2014.87 638.023 2014.87 638.023C2014.87 638.023 2013.59 642.545 2009.95 644.813Z" fill="white"/>
<path d="M2013.78 682.554C2009.61 681.586 2006.94 677.723 2006.94 677.723C2006.94 677.723 2011.04 675.431 2015.21 676.399C2019.38 677.366 2022.05 681.229 2022.05 681.229C2022.05 681.229 2017.95 683.522 2013.78 682.554Z" fill="white"/>
<path d="M1989.8 711.95C1987.53 708.31 1988.37 703.693 1988.37 703.693C1988.37 703.693 1992.9 704.97 1995.16 708.611C1997.43 712.252 1996.59 716.868 1996.59 716.868C1996.59 716.868 1992.07 715.591 1989.8 711.95Z" fill="white"/>
<path d="M1952.05 715.782C1953.02 711.609 1956.88 708.936 1956.88 708.936C1956.88 708.936 1959.18 713.037 1958.21 717.209C1957.24 721.382 1953.38 724.055 1953.38 724.055C1953.38 724.055 1951.09 719.954 1952.05 715.782Z" fill="white"/>
<path d="M1922.66 691.803C1926.3 689.534 1930.91 690.375 1930.91 690.375C1930.91 690.375 1929.64 694.896 1926 697.165C1922.36 699.433 1917.74 698.593 1917.74 698.593C1917.74 698.593 1919.02 694.071 1922.66 691.803Z" fill="white"/>
<path d="M1918.83 654.054C1923.01 655.022 1925.68 658.885 1925.68 658.885C1925.68 658.885 1921.58 661.177 1917.41 660.209C1913.23 659.242 1910.56 655.379 1910.56 655.379C1910.56 655.379 1914.66 653.086 1918.83 654.054Z" fill="white"/>
<path d="M1942.81 624.658C1945.08 628.298 1944.24 632.915 1944.24 632.915C1944.24 632.915 1939.72 631.638 1937.45 627.997C1935.18 624.356 1936.02 619.74 1936.02 619.74C1936.02 619.74 1940.54 621.017 1942.81 624.658Z" fill="white"/>
<path d="M2000.18 596.072C1998.74 599.451 1995.1 601.133 1995.1 601.133C1995.1 601.133 1993.77 597.341 1995.21 593.962C1996.64 590.583 2000.29 588.902 2000.29 588.902C2000.29 588.902 2001.62 592.693 2000.18 596.072Z" fill="white"/>
<path d="M2041.53 641.103C2038.13 642.475 2034.36 641.087 2034.36 641.087C2034.36 641.087 2036.1 637.47 2039.51 636.089C2042.91 634.717 2046.68 636.105 2046.68 636.105C2046.68 636.105 2044.93 639.722 2041.53 641.103Z" fill="white"/>
<path d="M2038.92 702.18C2035.54 700.744 2033.86 697.095 2033.86 697.095C2033.86 697.095 2037.65 695.771 2041.03 697.206C2044.41 698.642 2046.09 702.291 2046.09 702.291C2046.09 702.291 2042.3 703.615 2038.92 702.18Z" fill="white"/>
<path d="M1993.9 743.53C1992.53 740.127 1993.91 736.359 1993.91 736.359C1993.91 736.359 1997.53 738.104 1998.91 741.507C2000.28 744.91 1998.89 748.678 1998.89 748.678C1998.89 748.678 1995.28 746.933 1993.9 743.53Z" fill="white"/>
<path d="M1932.82 740.92C1934.26 737.541 1937.9 735.859 1937.9 735.859C1937.9 735.859 1939.23 739.651 1937.79 743.03C1936.36 746.409 1932.71 748.091 1932.71 748.091C1932.71 748.091 1931.38 744.299 1932.82 740.92Z" fill="white"/>
<path d="M1891.47 695.898C1894.87 694.525 1898.64 695.913 1898.64 695.913C1898.64 695.913 1896.9 699.53 1893.49 700.911C1890.09 702.283 1886.32 700.895 1886.32 700.895C1886.32 700.895 1888.07 697.278 1891.47 695.898Z" fill="white"/>
<path d="M1894.07 634.82C1897.45 636.256 1899.13 639.905 1899.13 639.905C1899.13 639.905 1895.34 641.229 1891.96 639.794C1888.58 638.358 1886.9 634.709 1886.9 634.709C1886.9 634.709 1890.69 633.385 1894.07 634.82Z" fill="white"/>
<path d="M1939.1 593.47C1940.47 596.873 1939.09 600.641 1939.09 600.641C1939.09 600.641 1935.47 598.896 1934.09 595.493C1932.72 592.09 1934.11 588.323 1934.11 588.323C1934.11 588.323 1937.72 590.068 1939.1 593.47Z" fill="white"/>
<path d="M1983.53 601.117C1982.86 604.234 1980.01 606.265 1980.01 606.265C1980.01 606.265 1978.26 603.235 1978.94 600.117C1979.61 597 1982.46 594.969 1982.46 594.969C1982.46 594.969 1984.21 598 1983.53 601.117Z" fill="white"/>
<path d="M2026.19 632.893C2023.5 634.622 2020.06 634.043 2020.06 634.043C2020.06 634.043 2020.96 630.664 2023.64 628.935C2026.33 627.206 2029.77 627.785 2029.77 627.785C2029.77 627.785 2028.87 631.164 2026.19 632.893Z" fill="white"/>
<path d="M2033.88 685.53C2030.77 684.856 2028.74 682.008 2028.74 682.008C2028.74 682.008 2031.77 680.255 2034.88 680.937C2038 681.612 2040.03 684.459 2040.03 684.459C2040.03 684.459 2037 686.212 2033.88 685.53Z" fill="white"/>
<path d="M2002.1 728.189C2000.37 725.508 2000.95 722.057 2000.95 722.057C2000.95 722.057 2004.33 722.962 2006.06 725.643C2007.79 728.332 2007.21 731.774 2007.21 731.774C2007.21 731.774 2003.83 730.87 2002.1 728.189Z" fill="white"/>
<path d="M1949.47 735.883C1950.14 732.766 1952.99 730.735 1952.99 730.735C1952.99 730.735 1954.74 733.765 1954.06 736.882C1953.39 740 1950.54 742.03 1950.54 742.03C1950.54 742.03 1948.79 739 1949.47 735.883Z" fill="white"/>
<path d="M1906.81 704.099C1909.5 702.37 1912.94 702.949 1912.94 702.949C1912.94 702.949 1912.04 706.328 1909.36 708.057C1906.67 709.787 1903.23 709.208 1903.23 709.208C1903.23 709.208 1904.13 705.828 1906.81 704.099Z" fill="white"/>
<path d="M1899.12 651.47C1902.23 652.144 1904.26 654.992 1904.26 654.992C1904.26 654.992 1901.23 656.745 1898.12 656.063C1895 655.388 1892.97 652.541 1892.97 652.541C1892.97 652.541 1896 650.788 1899.12 651.47Z" fill="white"/>
<path d="M1930.89 608.811C1932.62 611.5 1932.04 614.942 1932.04 614.942C1932.04 614.942 1928.66 614.038 1926.93 611.357C1925.21 608.668 1925.78 605.226 1925.78 605.226C1925.78 605.226 1929.16 606.13 1930.89 608.811Z" fill="white"/>
<path d="M2023.41 616.45C2020.11 619.749 2015 619.995 2015 619.995C2015 619.995 2015.25 614.887 2018.55 611.587C2021.85 608.287 2026.96 608.042 2026.96 608.042C2026.96 608.042 2026.71 613.15 2023.41 616.45Z" fill="white"/>
<path d="M2043.54 671.935C2038.87 671.935 2035.09 668.492 2035.09 668.492C2035.09 668.492 2038.87 665.05 2043.54 665.05C2048.22 665.05 2052 668.492 2052 668.492C2052 668.492 2048.22 671.935 2043.54 671.935Z" fill="white"/>
<path d="M2018.54 725.413C2015.24 722.113 2015 717.005 2015 717.005C2015 717.005 2020.11 717.251 2023.4 720.55C2026.7 723.85 2026.95 728.958 2026.95 728.958C2026.95 728.958 2021.84 728.712 2018.54 725.413Z" fill="white"/>
<path d="M1963.06 745.544C1963.06 740.872 1966.5 737.089 1966.5 737.089C1966.5 737.089 1969.94 740.872 1969.94 745.544C1969.94 750.216 1966.5 754 1966.5 754C1966.5 754 1963.06 750.216 1963.06 745.544Z" fill="white"/>
<path d="M1909.59 720.542C1912.89 717.243 1918 716.997 1918 716.997C1918 716.997 1917.75 722.105 1914.45 725.405C1911.15 728.705 1906.04 728.95 1906.04 728.95C1906.04 728.95 1906.29 723.842 1909.59 720.542Z" fill="white"/>
<path d="M1889.46 665.057C1894.13 665.057 1897.91 668.5 1897.91 668.5C1897.91 668.5 1894.13 671.942 1889.46 671.942C1884.78 671.942 1881 668.5 1881 668.5C1881 668.5 1884.78 665.057 1889.46 665.057Z" fill="white"/>
<path d="M1914.45 611.587C1917.75 614.887 1918 619.995 1918 619.995C1918 619.995 1912.89 619.749 1909.59 616.45C1906.29 613.15 1906.04 608.042 1906.04 608.042C1906.04 608.042 1911.15 608.287 1914.45 611.587Z" fill="white"/>
<path d="M1969.93 591.456C1969.93 596.128 1966.49 599.911 1966.49 599.911C1966.49 599.911 1963.05 596.128 1963.05 591.456C1963.05 586.784 1966.5 583 1966.5 583C1966.5 583 1969.94 586.784 1969.94 591.456H1969.93Z" fill="white"/>
</g>
</g>
<g clip-path="url(#clip2_3871_16602)">
<g style="mix-blend-mode:overlay" opacity="0.3">
<path d="M575.44 400.113C572.348 403.205 567.566 403.434 567.566 403.434C567.566 403.434 567.795 398.652 570.887 395.56C573.979 392.468 578.761 392.239 578.761 392.239C578.761 392.239 578.532 397.021 575.44 400.113Z" fill="white"/>
<path d="M583.793 426.718C579.422 426.718 575.879 423.494 575.879 423.494C575.879 423.494 579.422 420.271 583.793 420.271C588.163 420.271 591.707 423.494 591.707 423.494C591.707 423.494 588.163 426.718 583.793 426.718Z" fill="white"/>
<path d="M570.881 451.44C567.789 448.348 567.561 443.566 567.561 443.566C567.561 443.566 572.342 443.795 575.434 446.887C578.527 449.979 578.755 454.761 578.755 454.761C578.755 454.761 573.974 454.532 570.881 451.44Z" fill="white"/>
<path d="M544.276 459.793C544.276 455.422 547.5 451.879 547.5 451.879C547.5 451.879 550.724 455.422 550.724 459.793C550.724 464.163 547.5 467.706 547.5 467.706C547.5 467.706 544.276 464.163 544.276 459.793Z" fill="white"/>
<path d="M519.56 446.881C522.652 443.789 527.434 443.561 527.434 443.561C527.434 443.561 527.205 448.342 524.113 451.434C521.021 454.527 516.239 454.755 516.239 454.755C516.239 454.755 516.468 449.974 519.56 446.881Z" fill="white"/>
<path d="M511.207 420.276C515.577 420.276 519.121 423.5 519.121 423.5C519.121 423.5 515.577 426.724 511.207 426.724C506.837 426.724 503.293 423.5 503.293 423.5C503.293 423.5 506.837 420.276 511.207 420.276Z" fill="white"/>
<path d="M524.113 395.56C527.205 398.652 527.434 403.434 527.434 403.434C527.434 403.434 522.652 403.205 519.56 400.113C516.468 397.021 516.239 392.239 516.239 392.239C516.239 392.239 521.021 392.468 524.113 395.56Z" fill="white"/>
<path d="M550.718 387.207C550.718 391.577 547.494 395.121 547.494 395.121C547.494 395.121 544.271 391.577 544.271 387.207C544.271 382.837 547.494 379.293 547.494 379.293C547.494 379.293 550.718 382.837 550.718 387.207Z" fill="white"/>
<path d="M561.307 415.347C557.468 419.187 551.528 419.472 551.528 419.472C551.528 419.472 551.813 413.532 555.653 409.693C559.493 405.853 565.432 405.568 565.432 405.568C565.432 405.568 565.147 411.507 561.307 415.347Z" fill="white"/>
<path d="M563.025 427.5C557.593 427.5 553.194 423.5 553.194 423.5C553.194 423.5 557.593 419.5 563.025 419.5C568.456 419.5 572.855 423.5 572.855 423.5C572.855 423.5 568.451 427.5 563.025 427.5Z" fill="white"/>
<path d="M555.648 437.307C551.808 433.468 551.522 427.528 551.522 427.528C551.522 427.528 557.462 427.813 561.302 431.653C565.142 435.493 565.427 441.433 565.427 441.433C565.427 441.433 559.487 441.147 555.648 437.307Z" fill="white"/>
<path d="M543.5 439.025C543.5 433.593 547.5 429.194 547.5 429.194C547.5 429.194 551.5 433.599 551.5 439.025C551.5 444.451 547.5 448.855 547.5 448.855C547.5 448.855 543.5 444.457 543.5 439.025Z" fill="white"/>
<path d="M533.693 431.648C537.532 427.808 543.472 427.522 543.472 427.522C543.472 427.522 543.187 433.462 539.347 437.302C535.507 441.142 529.567 441.427 529.567 441.427C529.567 441.427 529.853 435.487 533.693 431.648Z" fill="white"/>
<path d="M531.969 419.5C537.401 419.5 541.8 423.5 541.8 423.5C541.8 423.5 537.395 427.5 531.969 427.5C526.544 427.5 522.139 423.5 522.139 423.5C522.139 423.5 526.538 419.5 531.969 419.5Z" fill="white"/>
<path d="M539.347 409.693C543.187 413.532 543.472 419.472 543.472 419.472C543.472 419.472 537.532 419.187 533.693 415.347C529.853 411.507 529.567 405.568 529.567 405.568C529.567 405.568 535.507 405.853 539.347 409.693Z" fill="white"/>
<path d="M551.5 407.97C551.5 413.401 547.5 417.8 547.5 417.8C547.5 417.8 543.5 413.401 543.5 407.97C543.5 402.538 547.5 398.139 547.5 398.139C547.5 398.139 551.5 402.544 551.5 407.97Z" fill="white"/>
<path d="M560.372 401.414C558.666 405.436 554.312 407.445 554.312 407.445C554.312 407.445 552.732 402.926 554.438 398.898C556.144 394.875 560.497 392.867 560.497 392.867C560.497 392.867 562.078 397.386 560.372 401.414Z" fill="white"/>
<path d="M572.216 416.984C568.165 418.622 563.669 416.961 563.669 416.961C563.669 416.961 565.746 412.648 569.803 411.01C573.854 409.373 578.35 411.033 578.35 411.033C578.35 411.033 576.273 415.347 572.216 416.984Z" fill="white"/>
<path d="M569.586 436.372C565.564 434.666 563.555 430.312 563.555 430.312C563.555 430.312 568.074 428.732 572.102 430.438C576.125 432.144 578.133 436.497 578.133 436.497C578.133 436.497 573.614 438.078 569.586 436.372Z" fill="white"/>
<path d="M554.01 448.216C552.373 444.165 554.033 439.669 554.033 439.669C554.033 439.669 558.346 441.746 559.984 445.803C561.621 449.854 559.961 454.35 559.961 454.35C559.961 454.35 555.648 452.273 554.01 448.216Z" fill="white"/>
<path d="M534.628 445.586C536.334 441.564 540.688 439.555 540.688 439.555C540.688 439.555 542.268 444.074 540.562 448.102C538.856 452.125 534.503 454.133 534.503 454.133C534.503 454.133 532.922 449.614 534.628 445.586Z" fill="white"/>
<path d="M522.778 430.01C526.829 428.372 531.325 430.033 531.325 430.033C531.325 430.033 529.248 434.346 525.191 435.984C521.14 437.621 516.644 435.961 516.644 435.961C516.644 435.961 518.721 431.647 522.778 430.01Z" fill="white"/>
<path d="M525.414 410.623C529.436 412.329 531.445 416.682 531.445 416.682C531.445 416.682 526.926 418.262 522.898 416.556C518.875 414.85 516.867 410.497 516.867 410.497C516.867 410.497 521.386 408.917 525.414 410.623Z" fill="white"/>
<path d="M540.984 398.778C542.622 402.829 540.961 407.325 540.961 407.325C540.961 407.325 536.648 405.248 535.011 401.191C533.373 397.14 535.033 392.644 535.033 392.644C535.033 392.644 539.347 394.721 540.984 398.778Z" fill="white"/>
<path d="M566.847 384.948C565.393 388.382 561.678 390.094 561.678 390.094C561.678 390.094 560.332 386.237 561.787 382.802C563.242 379.368 566.956 377.656 566.956 377.656C566.956 377.656 568.302 381.513 566.847 384.948Z" fill="white"/>
<path d="M588.443 409.921C584.985 411.319 581.151 409.904 581.151 409.904C581.151 409.904 582.926 406.224 586.383 404.826C589.841 403.428 593.675 404.843 593.675 404.843C593.675 404.843 591.9 408.523 588.443 409.921Z" fill="white"/>
<path d="M586.052 442.848C582.618 441.393 580.906 437.678 580.906 437.678C580.906 437.678 584.763 436.332 588.198 437.787C591.632 439.242 593.344 442.956 593.344 442.956C593.344 442.956 589.487 444.302 586.052 442.848Z" fill="white"/>
<path d="M561.079 464.443C559.681 460.985 561.096 457.151 561.096 457.151C561.096 457.151 564.776 458.926 566.174 462.383C567.572 465.841 566.157 469.675 566.157 469.675C566.157 469.675 562.477 467.901 561.079 464.443Z" fill="white"/>
<path d="M528.147 462.052C529.602 458.618 533.316 456.906 533.316 456.906C533.316 456.906 534.663 460.763 533.208 464.198C531.753 467.632 528.038 469.344 528.038 469.344C528.038 469.344 526.692 465.487 528.147 462.052Z" fill="white"/>
<path d="M506.557 437.079C510.015 435.681 513.849 437.096 513.849 437.096C513.849 437.096 512.074 440.776 508.617 442.174C505.159 443.572 501.325 442.157 501.325 442.157C501.325 442.157 503.099 438.477 506.557 437.079Z" fill="white"/>
<path d="M508.948 404.147C512.382 405.602 514.094 409.316 514.094 409.316C514.094 409.316 510.237 410.663 506.802 409.208C503.368 407.753 501.656 404.038 501.656 404.038C501.656 404.038 505.513 402.692 508.948 404.147Z" fill="white"/>
<path d="M533.921 382.557C535.319 386.015 533.904 389.849 533.904 389.849C533.904 389.849 530.224 388.074 528.826 384.617C527.428 381.159 528.843 377.325 528.843 377.325C528.843 377.325 532.523 379.099 533.921 382.557Z" fill="white"/>
<path d="M557.609 389.214C556.913 392.215 554.134 394.138 554.134 394.138C554.134 394.138 552.485 391.188 553.181 388.187C553.878 385.186 556.656 383.263 556.656 383.263C556.656 383.263 558.305 386.213 557.609 389.214Z" fill="white"/>
<path d="M578.754 406.462C576.135 408.094 572.814 407.489 572.814 407.489C572.814 407.489 573.733 404.237 576.352 402.605C578.97 400.973 582.291 401.578 582.291 401.578C582.291 401.578 581.373 404.83 578.754 406.462Z" fill="white"/>
<path d="M581.51 433.609C578.508 432.913 576.586 430.134 576.586 430.134C576.586 430.134 579.535 428.485 582.537 429.181C585.538 429.877 587.46 432.656 587.46 432.656C587.46 432.656 584.511 434.305 581.51 433.609Z" fill="white"/>
<path d="M564.262 454.754C562.63 452.135 563.235 448.814 563.235 448.814C563.235 448.814 566.487 449.733 568.119 452.352C569.75 454.97 569.146 458.291 569.146 458.291C569.146 458.291 565.893 457.373 564.262 454.754Z" fill="white"/>
<path d="M537.109 457.509C537.805 454.508 540.584 452.586 540.584 452.586C540.584 452.586 542.233 455.535 541.536 458.536C540.84 461.538 538.062 463.46 538.062 463.46C538.062 463.46 536.413 460.511 537.109 457.509Z" fill="white"/>
<path d="M515.964 440.262C518.583 438.63 521.904 439.235 521.904 439.235C521.904 439.235 520.985 442.487 518.366 444.119C515.747 445.75 512.427 445.146 512.427 445.146C512.427 445.146 513.345 441.893 515.964 440.262Z" fill="white"/>
<path d="M513.214 413.109C516.215 413.805 518.138 416.584 518.138 416.584C518.138 416.584 515.188 418.233 512.187 417.537C509.186 416.84 507.263 414.062 507.263 414.062C507.263 414.062 510.213 412.413 513.214 413.109Z" fill="white"/>
<path d="M530.462 391.964C532.094 394.583 531.489 397.904 531.489 397.904C531.489 397.904 528.237 396.985 526.605 394.366C524.973 391.748 525.578 388.427 525.578 388.427C525.578 388.427 528.83 389.345 530.462 391.964Z" fill="white"/>
<path d="M571.726 371.403C570.693 373.833 568.068 375.043 568.068 375.043C568.068 375.043 567.116 372.316 568.148 369.885C569.181 367.454 571.806 366.245 571.806 366.245C571.806 366.245 572.758 368.972 571.726 371.403Z" fill="white"/>
<path d="M601.469 403.793C599.021 404.78 596.311 403.782 596.311 403.782C596.311 403.782 597.566 401.18 600.014 400.187C602.461 399.2 605.172 400.199 605.172 400.199C605.172 400.199 603.916 402.8 601.469 403.793Z" fill="white"/>
<path d="M599.592 447.726C597.161 446.693 595.951 444.068 595.951 444.068C595.951 444.068 598.679 443.116 601.109 444.148C603.54 445.181 604.749 447.805 604.749 447.805C604.749 447.805 602.022 448.758 599.592 447.726Z" fill="white"/>
<path d="M567.207 477.469C566.22 475.021 567.218 472.311 567.218 472.311C567.218 472.311 569.82 473.566 570.813 476.014C571.8 478.461 570.801 481.171 570.801 481.171C570.801 481.171 568.2 479.916 567.207 477.469Z" fill="white"/>
<path d="M523.274 475.592C524.307 473.161 526.932 471.951 526.932 471.951C526.932 471.951 527.884 474.679 526.852 477.109C525.819 479.54 523.194 480.749 523.194 480.749C523.194 480.749 522.242 478.022 523.274 475.592Z" fill="white"/>
<path d="M493.531 443.207C495.979 442.22 498.689 443.218 498.689 443.218C498.689 443.218 497.434 445.82 494.986 446.813C492.539 447.8 489.828 446.801 489.828 446.801C489.828 446.801 491.084 444.2 493.531 443.207Z" fill="white"/>
<path d="M495.403 399.274C497.833 400.307 499.043 402.931 499.043 402.931C499.043 402.931 496.316 403.884 493.885 402.852C491.455 401.819 490.245 399.194 490.245 399.194C490.245 399.194 492.972 398.242 495.403 399.274Z" fill="white"/>
<path d="M527.793 369.531C528.78 371.979 527.782 374.689 527.782 374.689C527.782 374.689 525.18 373.434 524.187 370.986C523.2 368.539 524.199 365.828 524.199 365.828C524.199 365.828 526.8 367.084 527.793 369.531Z" fill="white"/>
<path d="M559.75 375.031C559.265 377.274 557.217 378.734 557.217 378.734C557.217 378.734 555.956 376.555 556.446 374.313C556.931 372.07 558.98 370.61 558.98 370.61C558.98 370.61 560.24 372.789 559.75 375.031Z" fill="white"/>
<path d="M590.434 397.888C588.5 399.132 586.024 398.715 586.024 398.715C586.024 398.715 586.674 396.285 588.603 395.041C590.537 393.797 593.013 394.213 593.013 394.213C593.013 394.213 592.363 396.644 590.434 397.888Z" fill="white"/>
<path d="M595.969 435.75C593.726 435.265 592.266 433.217 592.266 433.217C592.266 433.217 594.445 431.956 596.687 432.446C598.93 432.931 600.39 434.98 600.39 434.98C600.39 434.98 598.211 436.24 595.969 435.75Z" fill="white"/>
<path d="M573.106 466.434C571.863 464.506 572.279 462.024 572.279 462.024C572.279 462.024 574.71 462.674 575.954 464.603C577.197 466.537 576.781 469.013 576.781 469.013C576.781 469.013 574.35 468.363 573.106 466.434Z" fill="white"/>
<path d="M535.25 471.969C535.735 469.726 537.783 468.266 537.783 468.266C537.783 468.266 539.044 470.445 538.554 472.687C538.069 474.93 536.02 476.39 536.02 476.39C536.02 476.39 534.76 474.211 535.25 471.969Z" fill="white"/>
<path d="M504.566 449.106C506.5 447.863 508.976 448.279 508.976 448.279C508.976 448.279 508.326 450.71 506.397 451.954C504.463 453.197 501.987 452.781 501.987 452.781C501.987 452.781 502.637 450.35 504.566 449.106Z" fill="white"/>
<path d="M499.031 411.25C501.274 411.735 502.734 413.783 502.734 413.783C502.734 413.783 500.555 415.044 498.313 414.554C496.07 414.069 494.61 412.02 494.61 412.02C494.61 412.02 496.789 410.76 499.031 411.25Z" fill="white"/>
<path d="M521.888 380.566C523.132 382.5 522.715 384.976 522.715 384.976C522.715 384.976 520.285 384.326 519.041 382.397C517.797 380.463 518.213 377.987 518.213 377.987C518.213 377.987 520.644 378.637 521.888 380.566Z" fill="white"/>
<path d="M588.437 386.06C586.064 388.434 582.389 388.611 582.389 388.611C582.389 388.611 582.566 384.936 584.94 382.563C587.313 380.189 590.988 380.012 590.988 380.012C590.988 380.012 590.811 383.687 588.437 386.06Z" fill="white"/>
<path d="M602.918 425.97C599.557 425.97 596.836 423.494 596.836 423.494C596.836 423.494 599.557 421.018 602.918 421.018C606.278 421.018 609 423.494 609 423.494C609 423.494 606.278 425.97 602.918 425.97Z" fill="white"/>
<path d="M584.934 464.437C582.561 462.064 582.384 458.389 582.384 458.389C582.384 458.389 586.058 458.566 588.432 460.94C590.805 463.313 590.982 466.988 590.982 466.988C590.982 466.988 587.308 466.811 584.934 464.437Z" fill="white"/>
<path d="M545.024 478.918C545.024 475.557 547.5 472.836 547.5 472.836C547.5 472.836 549.976 475.557 549.976 478.918C549.976 482.278 547.5 485 547.5 485C547.5 485 545.024 482.278 545.024 478.918Z" fill="white"/>
<path d="M506.563 460.934C508.936 458.56 512.611 458.384 512.611 458.384C512.611 458.384 512.434 462.058 510.06 464.431C507.687 466.805 504.012 466.982 504.012 466.982C504.012 466.982 504.189 463.307 506.563 460.934Z" fill="white"/>
<path d="M492.082 421.024C495.443 421.024 498.164 423.5 498.164 423.5C498.164 423.5 495.443 425.976 492.082 425.976C488.722 425.976 486 423.5 486 423.5C486 423.5 488.722 421.024 492.082 421.024Z" fill="white"/>
<path d="M510.06 382.563C512.434 384.936 512.611 388.611 512.611 388.611C512.611 388.611 508.936 388.434 506.563 386.06C504.189 383.687 504.012 380.012 504.012 380.012C504.012 380.012 507.687 380.189 510.06 382.563Z" fill="white"/>
<path d="M549.97 368.082C549.97 371.443 547.494 374.164 547.494 374.164C547.494 374.164 545.018 371.443 545.018 368.082C545.018 364.722 547.5 362 547.5 362C547.5 362 549.976 364.722 549.976 368.082H549.97Z" fill="white"/>
</g>
</g>
<g clip-path="url(#clip3_3871_16602)">
<g style="mix-blend-mode:overlay" opacity="0.3">
<path d="M382.607 622.536C376.397 628.746 366.796 629.204 366.796 629.204C366.796 629.204 367.254 619.603 373.464 613.393C379.674 607.183 389.275 606.725 389.275 606.725C389.275 606.725 388.817 616.326 382.607 622.536Z" fill="white"/>
<path d="M399.381 675.962C390.605 675.962 383.489 669.489 383.489 669.489C383.489 669.489 390.605 663.015 399.381 663.015C408.157 663.015 415.272 669.489 415.272 669.489C415.272 669.489 408.157 675.962 399.381 675.962Z" fill="white"/>
<path d="M373.453 725.607C367.243 719.397 366.784 709.796 366.784 709.796C366.784 709.796 376.386 710.254 382.596 716.464C388.806 722.674 389.264 732.275 389.264 732.275C389.264 732.275 379.663 731.817 373.453 725.607Z" fill="white"/>
<path d="M320.027 742.381C320.027 733.604 326.5 726.489 326.5 726.489C326.5 726.489 332.973 733.604 332.973 742.381C332.973 751.157 326.5 758.272 326.5 758.272C326.5 758.272 320.027 751.157 320.027 742.381Z" fill="white"/>
<path d="M270.393 716.453C276.603 710.243 286.204 709.784 286.204 709.784C286.204 709.784 285.746 719.386 279.536 725.596C273.326 731.806 263.725 732.264 263.725 732.264C263.725 732.264 264.183 722.663 270.393 716.453Z" fill="white"/>
<path d="M253.619 663.027C262.396 663.027 269.511 669.5 269.511 669.5C269.511 669.5 262.396 675.974 253.619 675.974C244.843 675.974 237.728 669.5 237.728 669.5C237.728 669.5 244.843 663.027 253.619 663.027Z" fill="white"/>
<path d="M279.536 613.393C285.746 619.603 286.204 629.204 286.204 629.204C286.204 629.204 276.603 628.746 270.393 622.536C264.183 616.326 263.725 606.725 263.725 606.725C263.725 606.725 273.326 607.183 279.536 613.393Z" fill="white"/>
<path d="M332.962 596.619C332.962 605.395 326.489 612.511 326.489 612.511C326.489 612.511 320.015 605.395 320.015 596.619C320.015 587.843 326.489 580.728 326.489 580.728C326.489 580.728 332.962 587.843 332.962 596.619Z" fill="white"/>
<path d="M354.227 653.127C346.516 660.838 334.589 661.411 334.589 661.411C334.589 661.411 335.162 649.484 342.873 641.773C350.584 634.062 362.511 633.489 362.511 633.489C362.511 633.489 361.938 645.416 354.227 653.127Z" fill="white"/>
<path d="M357.676 677.532C346.768 677.532 337.935 669.5 337.935 669.5C337.935 669.5 346.768 661.468 357.676 661.468C368.583 661.468 377.417 669.5 377.417 669.5C377.417 669.5 368.572 677.532 357.676 677.532Z" fill="white"/>
<path d="M342.861 697.227C335.15 689.516 334.578 677.589 334.578 677.589C334.578 677.589 346.505 678.162 354.216 685.873C361.926 693.583 362.499 705.511 362.499 705.511C362.499 705.511 350.572 704.938 342.861 697.227Z" fill="white"/>
<path d="M318.468 700.676C318.468 689.768 326.5 680.935 326.5 680.935C326.5 680.935 334.532 689.78 334.532 700.676C334.532 711.572 326.5 720.417 326.5 720.417C326.5 720.417 318.468 711.583 318.468 700.676Z" fill="white"/>
<path d="M298.773 685.861C306.484 678.15 318.411 677.577 318.411 677.577C318.411 677.577 317.838 689.505 310.127 697.215C302.416 704.926 290.489 705.499 290.489 705.499C290.489 705.499 291.062 693.572 298.773 685.861Z" fill="white"/>
<path d="M295.313 661.468C306.22 661.468 315.054 669.5 315.054 669.5C315.054 669.5 306.209 677.532 295.313 677.532C284.417 677.532 275.572 669.5 275.572 669.5C275.572 669.5 284.405 661.468 295.313 661.468Z" fill="white"/>
<path d="M310.127 641.773C317.838 649.484 318.411 661.411 318.411 661.411C318.411 661.411 306.484 660.838 298.773 653.127C291.062 645.416 290.489 633.489 290.489 633.489C290.489 633.489 302.416 634.062 310.127 641.773Z" fill="white"/>
<path d="M334.532 638.313C334.532 649.22 326.5 658.054 326.5 658.054C326.5 658.054 318.468 649.22 318.468 638.313C318.468 627.405 326.5 618.572 326.5 618.572C326.5 618.572 334.532 627.417 334.532 638.313Z" fill="white"/>
<path d="M352.348 625.148C348.922 633.226 340.18 637.259 340.18 637.259C340.18 637.259 337.006 628.184 340.432 620.095C343.858 612.018 352.6 607.985 352.6 607.985C352.6 607.985 355.774 617.059 352.348 625.148Z" fill="white"/>
<path d="M376.134 656.416C367.999 659.704 358.97 656.37 358.97 656.37C358.97 656.37 363.141 647.708 371.287 644.42C379.422 641.131 388.451 644.465 388.451 644.465C388.451 644.465 384.28 653.127 376.134 656.416Z" fill="white"/>
<path d="M370.852 695.348C362.774 691.922 358.741 683.18 358.741 683.18C358.741 683.18 367.816 680.007 375.905 683.432C383.982 686.858 388.015 695.6 388.015 695.6C388.015 695.6 378.941 698.774 370.852 695.348Z" fill="white"/>
<path d="M339.573 719.134C336.285 710.999 339.619 701.97 339.619 701.97C339.619 701.97 348.281 706.141 351.569 714.287C354.857 722.422 351.523 731.451 351.523 731.451C351.523 731.451 342.861 727.28 339.573 719.134Z" fill="white"/>
<path d="M300.652 713.852C304.078 705.774 312.82 701.741 312.82 701.741C312.82 701.741 315.993 710.816 312.568 718.905C309.142 726.982 300.4 731.015 300.4 731.015C300.4 731.015 297.226 721.941 300.652 713.852Z" fill="white"/>
<path d="M276.855 682.573C284.99 679.285 294.018 682.619 294.018 682.619C294.018 682.619 289.848 691.281 281.701 694.569C273.567 697.857 264.538 694.523 264.538 694.523C264.538 694.523 268.709 685.861 276.855 682.573Z" fill="white"/>
<path d="M282.148 643.641C290.226 647.066 294.259 655.808 294.259 655.808C294.259 655.808 285.184 658.982 277.095 655.556C269.018 652.131 264.985 643.389 264.985 643.389C264.985 643.389 274.059 640.215 282.148 643.641Z" fill="white"/>
<path d="M313.416 619.855C316.704 627.99 313.37 637.018 313.37 637.018C313.37 637.018 304.708 632.848 301.42 624.701C298.131 616.567 301.465 607.538 301.465 607.538C301.465 607.538 310.127 611.709 313.416 619.855Z" fill="white"/>
<path d="M365.352 592.082C362.431 598.979 354.972 602.416 354.972 602.416C354.972 602.416 352.268 594.671 355.189 587.774C358.111 580.876 365.57 577.439 365.57 577.439C365.57 577.439 368.274 585.184 365.352 592.082Z" fill="white"/>
<path d="M408.719 642.231C401.776 645.038 394.076 642.197 394.076 642.197C394.076 642.197 397.639 634.807 404.583 632C411.526 629.193 419.225 632.034 419.225 632.034C419.225 632.034 415.662 639.424 408.719 642.231Z" fill="white"/>
<path d="M403.918 708.352C397.021 705.431 393.583 697.972 393.583 697.972C393.583 697.972 401.329 695.268 408.226 698.189C415.123 701.111 418.561 708.57 418.561 708.57C418.561 708.57 410.815 711.274 403.918 708.352Z" fill="white"/>
<path d="M353.769 751.719C350.962 744.775 353.803 737.076 353.803 737.076C353.803 737.076 361.193 740.639 364 747.582C366.807 754.526 363.966 762.225 363.966 762.225C363.966 762.225 356.576 758.662 353.769 751.719Z" fill="white"/>
<path d="M287.636 746.918C290.558 740.021 298.017 736.583 298.017 736.583C298.017 736.583 300.721 744.329 297.799 751.226C294.877 758.124 287.419 761.561 287.419 761.561C287.419 761.561 284.715 753.816 287.636 746.918Z" fill="white"/>
<path d="M244.281 696.769C251.224 693.962 258.924 696.803 258.924 696.803C258.924 696.803 255.361 704.193 248.417 707C241.474 709.807 233.775 706.966 233.775 706.966C233.775 706.966 237.338 699.576 244.281 696.769Z" fill="white"/>
<path d="M249.082 630.636C255.979 633.558 259.417 641.017 259.417 641.017C259.417 641.017 251.671 643.721 244.774 640.799C237.877 637.877 234.439 630.419 234.439 630.419C234.439 630.419 242.185 627.715 249.082 630.636Z" fill="white"/>
<path d="M299.231 587.281C302.038 594.224 299.197 601.924 299.197 601.924C299.197 601.924 291.807 598.361 289 591.417C286.193 584.474 289.034 576.775 289.034 576.775C289.034 576.775 296.424 580.338 299.231 587.281Z" fill="white"/>
<path d="M346.8 600.65C345.402 606.676 339.823 610.537 339.823 610.537C339.823 610.537 336.511 604.614 337.909 598.587C339.307 592.561 344.887 588.699 344.887 588.699C344.887 588.699 348.198 594.623 346.8 600.65Z" fill="white"/>
<path d="M389.261 635.285C384.002 638.562 377.334 637.348 377.334 637.348C377.334 637.348 379.179 630.817 384.438 627.54C389.697 624.263 396.365 625.478 396.365 625.478C396.365 625.478 394.52 632.009 389.261 635.285Z" fill="white"/>
<path d="M394.795 689.8C388.769 688.402 384.908 682.823 384.908 682.823C384.908 682.823 390.831 679.511 396.858 680.909C402.884 682.307 406.746 687.887 406.746 687.887C406.746 687.887 400.822 691.198 394.795 689.8Z" fill="white"/>
<path d="M360.16 732.261C356.883 727.002 358.097 720.334 358.097 720.334C358.097 720.334 364.628 722.179 367.905 727.438C371.182 732.697 369.967 739.365 369.967 739.365C369.967 739.365 363.436 737.52 360.16 732.261Z" fill="white"/>
<path d="M305.633 737.796C307.031 731.769 312.611 727.908 312.611 727.908C312.611 727.908 315.922 733.831 314.524 739.858C313.127 745.884 307.547 749.746 307.547 749.746C307.547 749.746 304.236 743.822 305.633 737.796Z" fill="white"/>
<path d="M263.172 703.16C268.431 699.883 275.099 701.097 275.099 701.097C275.099 701.097 273.255 707.628 267.996 710.905C262.737 714.182 256.068 712.967 256.068 712.967C256.068 712.967 257.913 706.436 263.172 703.16Z" fill="white"/>
<path d="M257.65 648.634C263.676 650.031 267.537 655.611 267.537 655.611C267.537 655.611 261.614 658.922 255.587 657.524C249.561 656.127 245.699 650.547 245.699 650.547C245.699 650.547 251.623 647.236 257.65 648.634Z" fill="white"/>
<path d="M292.285 606.172C295.562 611.431 294.348 618.099 294.348 618.099C294.348 618.099 287.817 616.255 284.54 610.996C281.263 605.737 282.478 599.068 282.478 599.068C282.478 599.068 289.009 600.913 292.285 606.172Z" fill="white"/>
<path d="M375.148 564.882C373.075 569.763 367.804 572.192 367.804 572.192C367.804 572.192 365.891 566.715 367.965 561.834C370.038 556.953 375.309 554.524 375.309 554.524C375.309 554.524 377.222 560.001 375.148 564.882Z" fill="white"/>
<path d="M434.876 629.926C429.961 631.908 424.519 629.903 424.519 629.903C424.519 629.903 427.039 624.678 431.955 622.685C436.87 620.703 442.312 622.708 442.312 622.708C442.312 622.708 439.791 627.932 434.876 629.926Z" fill="white"/>
<path d="M431.107 718.148C426.226 716.074 423.797 710.804 423.797 710.804C423.797 710.804 429.273 708.891 434.154 710.964C439.035 713.038 441.464 718.309 441.464 718.309C441.464 718.309 435.988 720.222 431.107 718.148Z" fill="white"/>
<path d="M366.074 777.876C364.092 772.961 366.097 767.519 366.097 767.519C366.097 767.519 371.322 770.039 373.315 774.954C375.297 779.87 373.292 785.312 373.292 785.312C373.292 785.312 368.068 782.791 366.074 777.876Z" fill="white"/>
<path d="M277.852 774.107C279.925 769.226 285.196 766.797 285.196 766.797C285.196 766.797 287.109 772.274 285.035 777.154C282.962 782.035 277.691 784.464 277.691 784.464C277.691 784.464 275.778 778.988 277.852 774.107Z" fill="white"/>
<path d="M218.124 709.074C223.039 707.092 228.481 709.097 228.481 709.097C228.481 709.097 225.961 714.322 221.046 716.315C216.13 718.297 210.688 716.292 210.688 716.292C210.688 716.292 213.209 711.068 218.124 709.074Z" fill="white"/>
<path d="M221.882 620.852C226.763 622.925 229.192 628.196 229.192 628.196C229.192 628.196 223.715 630.109 218.834 628.035C213.953 625.962 211.524 620.691 211.524 620.691C211.524 620.691 217.001 618.778 221.882 620.852Z" fill="white"/>
<path d="M286.926 561.124C288.908 566.039 286.903 571.481 286.903 571.481C286.903 571.481 281.678 568.961 279.685 564.046C277.703 559.13 279.708 553.688 279.708 553.688C279.708 553.688 284.932 556.209 286.926 561.124Z" fill="white"/>
<path d="M351.099 572.169C350.125 576.672 346.012 579.605 346.012 579.605C346.012 579.605 343.48 575.228 344.465 570.725C345.439 566.222 349.552 563.289 349.552 563.289C349.552 563.289 352.084 567.666 351.099 572.169Z" fill="white"/>
<path d="M412.717 618.067C408.833 620.565 403.861 619.729 403.861 619.729C403.861 619.729 405.167 614.848 409.04 612.35C412.924 609.852 417.896 610.689 417.896 610.689C417.896 610.689 416.59 615.57 412.717 618.067Z" fill="white"/>
<path d="M423.831 694.099C419.328 693.125 416.395 689.012 416.395 689.012C416.395 689.012 420.772 686.48 425.275 687.465C429.778 688.439 432.711 692.552 432.711 692.552C432.711 692.552 428.334 695.084 423.831 694.099Z" fill="white"/>
<path d="M377.921 755.717C375.423 751.845 376.26 746.861 376.26 746.861C376.26 746.861 381.141 748.167 383.638 752.04C386.136 755.924 385.3 760.896 385.3 760.896C385.3 760.896 380.419 759.59 377.921 755.717Z" fill="white"/>
<path d="M301.901 766.831C302.875 762.328 306.988 759.395 306.988 759.395C306.988 759.395 309.52 763.772 308.535 768.275C307.561 772.778 303.448 775.711 303.448 775.711C303.448 775.711 300.915 771.334 301.901 766.831Z" fill="white"/>
<path d="M240.283 720.921C244.167 718.423 249.139 719.26 249.139 719.26C249.139 719.26 247.833 724.141 243.96 726.638C240.076 729.136 235.104 728.3 235.104 728.3C235.104 728.3 236.41 723.419 240.283 720.921Z" fill="white"/>
<path d="M229.169 644.901C233.672 645.875 236.605 649.988 236.605 649.988C236.605 649.988 232.228 652.52 227.725 651.535C223.222 650.561 220.289 646.448 220.289 646.448C220.289 646.448 224.666 643.915 229.169 644.901Z" fill="white"/>
<path d="M275.067 583.283C277.565 587.167 276.729 592.139 276.729 592.139C276.729 592.139 271.848 590.833 269.35 586.96C266.852 583.076 267.689 578.104 267.689 578.104C267.689 578.104 272.57 579.41 275.067 583.283Z" fill="white"/>
<path d="M408.707 594.316C403.941 599.082 396.562 599.438 396.562 599.438C396.562 599.438 396.918 592.059 401.684 587.293C406.45 582.526 413.829 582.171 413.829 582.171C413.829 582.171 413.474 589.55 408.707 594.316Z" fill="white"/>
<path d="M437.786 674.461C431.038 674.461 425.573 669.489 425.573 669.489C425.573 669.489 431.038 664.516 437.786 664.516C444.535 664.516 450 669.489 450 669.489C450 669.489 444.535 674.461 437.786 674.461Z" fill="white"/>
<path d="M401.672 751.707C396.906 746.941 396.551 739.562 396.551 739.562C396.551 739.562 403.93 739.918 408.696 744.684C413.462 749.45 413.817 756.829 413.817 756.829C413.817 756.829 406.439 756.474 401.672 751.707Z" fill="white"/>
<path d="M321.527 780.786C321.527 774.038 326.5 768.573 326.5 768.573C326.5 768.573 331.473 774.038 331.473 780.786C331.473 787.535 326.5 793 326.5 793C326.5 793 321.527 787.535 321.527 780.786Z" fill="white"/>
<path d="M244.293 744.673C249.059 739.906 256.438 739.551 256.438 739.551C256.438 739.551 256.082 746.93 251.316 751.696C246.55 756.462 239.171 756.817 239.171 756.817C239.171 756.817 239.526 749.439 244.293 744.673Z" fill="white"/>
<path d="M215.214 664.527C221.962 664.527 227.427 669.5 227.427 669.5C227.427 669.5 221.962 674.472 215.214 674.472C208.465 674.472 203 669.5 203 669.5C203 669.5 208.465 664.527 215.214 664.527Z" fill="white"/>
<path d="M251.316 587.293C256.082 592.059 256.438 599.438 256.438 599.438C256.438 599.438 249.059 599.082 244.293 594.316C239.526 589.55 239.171 582.171 239.171 582.171C239.171 582.171 246.55 582.526 251.316 587.293Z" fill="white"/>
<path d="M331.461 558.214C331.461 564.962 326.489 570.427 326.489 570.427C326.489 570.427 321.516 564.962 321.516 558.214C321.516 551.465 326.5 546 326.5 546C326.5 546 331.473 551.465 331.473 558.214H331.461Z" fill="white"/>
</g>
</g>
<g clip-path="url(#clip4_3871_16602)">
<g style="mix-blend-mode:overlay" opacity="0.3">
<path d="M1032.16 559.24C1028.49 562.911 1022.82 563.182 1022.82 563.182C1022.82 563.182 1023.09 557.506 1026.76 553.836C1030.43 550.165 1036.11 549.894 1036.11 549.894C1036.11 549.894 1035.84 555.569 1032.16 559.24Z" fill="white"/>
<path d="M1042.08 590.82C1036.89 590.82 1032.69 586.993 1032.69 586.993C1032.69 586.993 1036.89 583.167 1042.08 583.167C1047.27 583.167 1051.47 586.993 1051.47 586.993C1051.47 586.993 1047.27 590.82 1042.08 590.82Z" fill="white"/>
<path d="M1026.75 620.165C1023.08 616.494 1022.81 610.819 1022.81 610.819C1022.81 610.819 1028.49 611.09 1032.16 614.76C1035.83 618.431 1036.1 624.106 1036.1 624.106C1036.1 624.106 1030.42 623.835 1026.75 620.165Z" fill="white"/>
<path d="M995.174 630.079C995.174 624.892 999 620.686 999 620.686C999 620.686 1002.83 624.892 1002.83 630.079C1002.83 635.267 999 639.473 999 639.473C999 639.473 995.174 635.267 995.174 630.079Z" fill="white"/>
<path d="M965.835 614.754C969.506 611.083 975.181 610.812 975.181 610.812C975.181 610.812 974.91 616.487 971.24 620.158C967.569 623.829 961.894 624.1 961.894 624.1C961.894 624.1 962.165 618.424 965.835 614.754Z" fill="white"/>
<path d="M955.921 583.174C961.108 583.174 965.314 587 965.314 587C965.314 587 961.108 590.826 955.921 590.826C950.733 590.826 946.527 587 946.527 587C946.527 587 950.733 583.174 955.921 583.174Z" fill="white"/>
<path d="M971.24 553.836C974.91 557.506 975.181 563.182 975.181 563.182C975.181 563.182 969.506 562.911 965.835 559.24C962.165 555.569 961.894 549.894 961.894 549.894C961.894 549.894 967.569 550.165 971.24 553.836Z" fill="white"/>
<path d="M1002.82 543.921C1002.82 549.108 998.993 553.314 998.993 553.314C998.993 553.314 995.167 549.108 995.167 543.921C995.167 538.733 998.993 534.527 998.993 534.527C998.993 534.527 1002.82 538.733 1002.82 543.921Z" fill="white"/>
<path d="M1015.39 577.322C1010.83 581.88 1003.78 582.219 1003.78 582.219C1003.78 582.219 1004.12 575.168 1008.68 570.611C1013.24 566.053 1020.29 565.714 1020.29 565.714C1020.29 565.714 1019.95 572.764 1015.39 577.322Z" fill="white"/>
<path d="M1017.43 591.747C1010.98 591.747 1005.76 587 1005.76 587C1005.76 587 1010.98 582.252 1017.43 582.252C1023.88 582.252 1029.1 587 1029.1 587C1029.1 587 1023.87 591.747 1017.43 591.747Z" fill="white"/>
<path d="M1008.67 603.389C1004.11 598.831 1003.77 591.781 1003.77 591.781C1003.77 591.781 1010.82 592.12 1015.38 596.678C1019.94 601.236 1020.28 608.286 1020.28 608.286C1020.28 608.286 1013.23 607.947 1008.67 603.389Z" fill="white"/>
<path d="M994.253 605.428C994.253 598.98 999 593.759 999 593.759C999 593.759 1003.75 598.987 1003.75 605.428C1003.75 611.868 999 617.097 999 617.097C999 617.097 994.253 611.875 994.253 605.428Z" fill="white"/>
<path d="M982.611 596.671C987.169 592.113 994.219 591.774 994.219 591.774C994.219 591.774 993.88 598.825 989.322 603.382C984.764 607.94 977.714 608.279 977.714 608.279C977.714 608.279 978.053 601.229 982.611 596.671Z" fill="white"/>
<path d="M980.565 582.252C987.013 582.252 992.234 587 992.234 587C992.234 587 987.006 591.747 980.565 591.747C974.125 591.747 968.897 587 968.897 587C968.897 587 974.118 582.252 980.565 582.252Z" fill="white"/>
<path d="M989.322 570.611C993.88 575.168 994.219 582.219 994.219 582.219C994.219 582.219 987.169 581.88 982.611 577.322C978.053 572.764 977.714 565.714 977.714 565.714C977.714 565.714 984.764 566.053 989.322 570.611Z" fill="white"/>
<path d="M1003.75 568.565C1003.75 575.013 999 580.234 999 580.234C999 580.234 994.253 575.013 994.253 568.565C994.253 562.118 999 556.896 999 556.896C999 556.896 1003.75 562.125 1003.75 568.565Z" fill="white"/>
<path d="M1014.28 560.784C1012.25 565.559 1007.09 567.942 1007.09 567.942C1007.09 567.942 1005.21 562.579 1007.24 557.797C1009.26 553.023 1014.43 550.639 1014.43 550.639C1014.43 550.639 1016.3 556.003 1014.28 560.784Z" fill="white"/>
<path d="M1028.34 579.266C1023.53 581.21 1018.19 579.239 1018.19 579.239C1018.19 579.239 1020.66 574.119 1025.47 572.175C1030.28 570.232 1035.62 572.202 1035.62 572.202C1035.62 572.202 1033.15 577.322 1028.34 579.266Z" fill="white"/>
<path d="M1025.22 602.279C1020.44 600.254 1018.06 595.086 1018.06 595.086C1018.06 595.086 1023.42 593.21 1028.2 595.235C1032.98 597.26 1035.36 602.428 1035.36 602.428C1035.36 602.428 1030 604.304 1025.22 602.279Z" fill="white"/>
<path d="M1006.73 616.338C1004.78 611.53 1006.75 606.193 1006.75 606.193C1006.75 606.193 1011.87 608.658 1013.82 613.473C1015.76 618.282 1013.79 623.619 1013.79 623.619C1013.79 623.619 1008.67 621.153 1006.73 616.338Z" fill="white"/>
<path d="M983.721 613.216C985.746 608.442 990.914 606.058 990.914 606.058C990.914 606.058 992.79 611.421 990.765 616.203C988.74 620.977 983.572 623.361 983.572 623.361C983.572 623.361 981.696 617.997 983.721 613.216Z" fill="white"/>
<path d="M969.655 594.727C974.463 592.784 979.8 594.755 979.8 594.755C979.8 594.755 977.335 599.875 972.52 601.818C967.711 603.762 962.375 601.791 962.375 601.791C962.375 601.791 964.84 596.671 969.655 594.727Z" fill="white"/>
<path d="M972.784 571.715C977.558 573.74 979.942 578.907 979.942 578.907C979.942 578.907 974.579 580.783 969.797 578.758C965.023 576.733 962.639 571.566 962.639 571.566C962.639 571.566 968.003 569.69 972.784 571.715Z" fill="white"/>
<path d="M991.266 557.655C993.21 562.464 991.239 567.8 991.239 567.8C991.239 567.8 986.119 565.335 984.175 560.52C982.231 555.711 984.202 550.375 984.202 550.375C984.202 550.375 989.322 552.84 991.266 557.655Z" fill="white"/>
<path d="M1021.97 541.239C1020.24 545.316 1015.83 547.347 1015.83 547.347C1015.83 547.347 1014.23 542.769 1015.96 538.692C1017.69 534.615 1022.09 532.583 1022.09 532.583C1022.09 532.583 1023.69 537.162 1021.97 541.239Z" fill="white"/>
<path d="M1047.6 570.882C1043.49 572.541 1038.94 570.861 1038.94 570.861C1038.94 570.861 1041.05 566.493 1045.15 564.834C1049.26 563.175 1053.81 564.854 1053.81 564.854C1053.81 564.854 1051.7 569.222 1047.6 570.882Z" fill="white"/>
<path d="M1044.76 609.965C1040.68 608.238 1038.65 603.829 1038.65 603.829C1038.65 603.829 1043.23 602.231 1047.31 603.958C1051.38 605.685 1053.42 610.094 1053.42 610.094C1053.42 610.094 1048.84 611.692 1044.76 609.965Z" fill="white"/>
<path d="M1015.12 635.599C1013.46 631.495 1015.14 626.944 1015.14 626.944C1015.14 626.944 1019.51 629.05 1021.17 633.154C1022.83 637.258 1021.15 641.809 1021.15 641.809C1021.15 641.809 1016.78 639.703 1015.12 635.599Z" fill="white"/>
<path d="M976.028 632.761C977.755 628.684 982.164 626.653 982.164 626.653C982.164 626.653 983.762 631.231 982.035 635.308C980.308 639.385 975.899 641.416 975.899 641.416C975.899 641.416 974.301 636.838 976.028 632.761Z" fill="white"/>
<path d="M950.401 603.118C954.505 601.459 959.056 603.139 959.056 603.139C959.056 603.139 956.95 607.507 952.846 609.166C948.742 610.825 944.191 609.146 944.191 609.146C944.191 609.146 946.297 604.777 950.401 603.118Z" fill="white"/>
<path d="M953.239 564.028C957.316 565.755 959.347 570.164 959.347 570.164C959.347 570.164 954.769 571.762 950.692 570.035C946.615 568.308 944.584 563.899 944.584 563.899C944.584 563.899 949.162 562.301 953.239 564.028Z" fill="white"/>
<path d="M982.882 538.401C984.541 542.505 982.861 547.056 982.861 547.056C982.861 547.056 978.493 544.95 976.834 540.846C975.175 536.742 976.854 532.191 976.854 532.191C976.854 532.191 981.222 534.297 982.882 538.401Z" fill="white"/>
<path d="M1011 546.303C1010.17 549.865 1006.87 552.148 1006.87 552.148C1006.87 552.148 1004.92 548.646 1005.74 545.084C1006.57 541.522 1009.87 539.239 1009.87 539.239C1009.87 539.239 1011.83 542.741 1011 546.303Z" fill="white"/>
<path d="M1036.1 566.776C1032.99 568.713 1029.05 567.995 1029.05 567.995C1029.05 567.995 1030.14 564.135 1033.25 562.198C1036.36 560.261 1040.3 560.979 1040.3 560.979C1040.3 560.979 1039.21 564.839 1036.1 566.776Z" fill="white"/>
<path d="M1039.37 598.999C1035.81 598.173 1033.52 594.875 1033.52 594.875C1033.52 594.875 1037.03 592.917 1040.59 593.744C1044.15 594.57 1046.43 597.868 1046.43 597.868C1046.43 597.868 1042.93 599.825 1039.37 598.999Z" fill="white"/>
<path d="M1018.9 624.098C1016.96 620.989 1017.68 617.048 1017.68 617.048C1017.68 617.048 1021.54 618.138 1023.47 621.247C1025.41 624.355 1024.69 628.297 1024.69 628.297C1024.69 628.297 1020.83 627.206 1018.9 624.098Z" fill="white"/>
<path d="M986.666 627.369C987.492 623.806 990.79 621.524 990.79 621.524C990.79 621.524 992.748 625.026 991.921 628.588C991.095 632.15 987.797 634.432 987.797 634.432C987.797 634.432 985.84 630.931 986.666 627.369Z" fill="white"/>
<path d="M961.567 606.896C964.676 604.959 968.617 605.677 968.617 605.677C968.617 605.677 967.527 609.537 964.419 611.474C961.31 613.411 957.368 612.693 957.368 612.693C957.368 612.693 958.459 608.833 961.567 606.896Z" fill="white"/>
<path d="M958.303 574.666C961.865 575.492 964.148 578.79 964.148 578.79C964.148 578.79 960.646 580.747 957.084 579.921C953.522 579.095 951.239 575.797 951.239 575.797C951.239 575.797 954.741 573.84 958.303 574.666Z" fill="white"/>
<path d="M978.776 549.567C980.713 552.676 979.995 556.617 979.995 556.617C979.995 556.617 976.135 555.527 974.198 552.419C972.261 549.31 972.979 545.368 972.979 545.368C972.979 545.368 976.839 546.459 978.776 549.567Z" fill="white"/>
<path d="M1027.76 525.161C1026.53 528.046 1023.41 529.482 1023.41 529.482C1023.41 529.482 1022.28 526.244 1023.51 523.359C1024.74 520.474 1027.85 519.039 1027.85 519.039C1027.85 519.039 1028.98 522.276 1027.76 525.161Z" fill="white"/>
<path d="M1063.06 563.608C1060.16 564.78 1056.94 563.594 1056.94 563.594C1056.94 563.594 1058.43 560.506 1061.33 559.328C1064.24 558.156 1067.46 559.341 1067.46 559.341C1067.46 559.341 1065.97 562.43 1063.06 563.608Z" fill="white"/>
<path d="M1060.83 615.756C1057.95 614.53 1056.51 611.414 1056.51 611.414C1056.51 611.414 1059.75 610.283 1062.63 611.509C1065.52 612.735 1066.95 615.85 1066.95 615.85C1066.95 615.85 1063.72 616.981 1060.83 615.756Z" fill="white"/>
<path d="M1022.39 651.06C1021.22 648.155 1022.41 644.938 1022.41 644.938C1022.41 644.938 1025.49 646.428 1026.67 649.333C1027.84 652.239 1026.66 655.456 1026.66 655.456C1026.66 655.456 1023.57 653.966 1022.39 651.06Z" fill="white"/>
<path d="M970.244 648.832C971.47 645.947 974.585 644.511 974.585 644.511C974.585 644.511 975.716 647.748 974.491 650.634C973.265 653.519 970.149 654.954 970.149 654.954C970.149 654.954 969.018 651.717 970.244 648.832Z" fill="white"/>
<path d="M934.94 610.392C937.845 609.22 941.062 610.405 941.062 610.405C941.062 610.405 939.572 613.494 936.667 614.672C933.761 615.844 930.544 614.658 930.544 614.658C930.544 614.658 932.034 611.57 934.94 610.392Z" fill="white"/>
<path d="M937.161 558.244C940.046 559.47 941.482 562.585 941.482 562.585C941.482 562.585 938.245 563.716 935.36 562.49C932.474 561.265 931.039 558.149 931.039 558.149C931.039 558.149 934.276 557.018 937.161 558.244Z" fill="white"/>
<path d="M975.608 522.939C976.78 525.845 975.595 529.062 975.595 529.062C975.595 529.062 972.506 527.572 971.328 524.666C970.156 521.761 971.341 518.544 971.341 518.544C971.341 518.544 974.43 520.034 975.608 522.939Z" fill="white"/>
<path d="M1013.54 529.468C1012.96 532.13 1010.53 533.863 1010.53 533.863C1010.53 533.863 1009.04 531.276 1009.62 528.615C1010.19 525.953 1012.63 524.219 1012.63 524.219C1012.63 524.219 1014.12 526.807 1013.54 529.468Z" fill="white"/>
<path d="M1049.96 556.598C1047.67 558.075 1044.73 557.58 1044.73 557.58C1044.73 557.58 1045.5 554.695 1047.79 553.219C1050.08 551.743 1053.02 552.237 1053.02 552.237C1053.02 552.237 1052.25 555.122 1049.96 556.598Z" fill="white"/>
<path d="M1056.53 601.54C1053.87 600.965 1052.14 598.533 1052.14 598.533C1052.14 598.533 1054.72 597.037 1057.39 597.619C1060.05 598.195 1061.78 600.626 1061.78 600.626C1061.78 600.626 1059.19 602.123 1056.53 601.54Z" fill="white"/>
<path d="M1029.39 637.962C1027.92 635.673 1028.41 632.727 1028.41 632.727C1028.41 632.727 1031.3 633.499 1032.77 635.788C1034.25 638.084 1033.76 641.024 1033.76 641.024C1033.76 641.024 1030.87 640.251 1029.39 637.962Z" fill="white"/>
<path d="M984.46 644.532C985.035 641.87 987.467 640.136 987.467 640.136C987.467 640.136 988.963 642.723 988.381 645.385C987.805 648.046 985.374 649.78 985.374 649.78C985.374 649.78 983.877 647.193 984.46 644.532Z" fill="white"/>
<path d="M948.037 617.395C950.333 615.918 953.273 616.413 953.273 616.413C953.273 616.413 952.501 619.298 950.211 620.774C947.916 622.25 944.976 621.756 944.976 621.756C944.976 621.756 945.748 618.871 948.037 617.395Z" fill="white"/>
<path d="M941.468 572.46C944.13 573.035 945.864 575.466 945.864 575.466C945.864 575.466 943.276 576.963 940.615 576.381C937.953 575.805 936.22 573.374 936.22 573.374C936.22 573.374 938.807 571.877 941.468 572.46Z" fill="white"/>
<path d="M968.599 536.037C970.075 538.333 969.581 541.273 969.581 541.273C969.581 541.273 966.696 540.5 965.219 538.211C963.743 535.916 964.237 532.976 964.237 532.976C964.237 532.976 967.122 533.748 968.599 536.037Z" fill="white"/>
<path d="M1047.59 542.559C1044.77 545.377 1040.41 545.587 1040.41 545.587C1040.41 545.587 1040.62 541.225 1043.44 538.408C1046.26 535.591 1050.62 535.381 1050.62 535.381C1050.62 535.381 1050.41 539.742 1047.59 542.559Z" fill="white"/>
<path d="M1064.78 589.932C1060.79 589.932 1057.56 586.993 1057.56 586.993C1057.56 586.993 1060.79 584.054 1064.78 584.054C1068.77 584.054 1072 586.993 1072 586.993C1072 586.993 1068.77 589.932 1064.78 589.932Z" fill="white"/>
<path d="M1043.43 635.592C1040.62 632.775 1040.41 628.413 1040.41 628.413C1040.41 628.413 1044.77 628.623 1047.59 631.441C1050.4 634.258 1050.61 638.619 1050.61 638.619C1050.61 638.619 1046.25 638.409 1043.43 635.592Z" fill="white"/>
<path d="M996.061 652.78C996.061 648.791 999 645.561 999 645.561C999 645.561 1001.94 648.791 1001.94 652.78C1001.94 656.769 999 660 999 660C999 660 996.061 656.769 996.061 652.78Z" fill="white"/>
<path d="M950.408 631.434C953.225 628.617 957.587 628.407 957.587 628.407C957.587 628.407 957.377 632.768 954.559 635.586C951.742 638.403 947.381 638.613 947.381 638.613C947.381 638.613 947.591 634.251 950.408 631.434Z" fill="white"/>
<path d="M933.219 584.061C937.208 584.061 940.439 587 940.439 587C940.439 587 937.208 589.939 933.219 589.939C929.23 589.939 926 587 926 587C926 587 929.23 584.061 933.219 584.061Z" fill="white"/>
<path d="M954.559 538.408C957.377 541.225 957.587 545.587 957.587 545.587C957.587 545.587 953.225 545.377 950.408 542.559C947.591 539.742 947.381 535.381 947.381 535.381C947.381 535.381 951.742 535.591 954.559 538.408Z" fill="white"/>
<path d="M1001.93 521.219C1001.93 525.208 998.993 528.439 998.993 528.439C998.993 528.439 996.054 525.208 996.054 521.219C996.054 517.23 999 514 999 514C999 514 1001.94 517.23 1001.94 521.219H1001.93Z" fill="white"/>
</g>
</g>
<defs>
<clipPath id="clip0_3871_16602">
<rect width="365" height="365" fill="white" transform="translate(2052 299)"/>
</clipPath>
<clipPath id="clip1_3871_16602">
<rect width="171" height="171" fill="white" transform="translate(1881 583)"/>
</clipPath>
<clipPath id="clip2_3871_16602">
<rect width="123" height="123" fill="white" transform="translate(486 362)"/>
</clipPath>
<clipPath id="clip3_3871_16602">
<rect width="247" height="247" fill="white" transform="translate(203 546)"/>
</clipPath>
<clipPath id="clip4_3871_16602">
<rect width="146" height="146" fill="white" transform="translate(926 514)"/>
</clipPath>
</defs>
</svg>
