<svg width="372" height="402" viewBox="0 0 372 402" fill="none" xmlns="http://www.w3.org/2000/svg">
<g clip-path="url(#clip0_3_2)">
<g style="mix-blend-mode:overlay" opacity="0.3">
<path d="M291.879 80.3646C285.417 86.8334 275.427 87.3108 275.427 87.3108C275.427 87.3108 275.904 77.3092 282.366 70.8405C288.827 64.3717 298.817 63.8943 298.817 63.8943C298.817 63.8943 298.34 73.8958 291.879 80.3646V80.3646Z" fill="white"/>
<path d="M309.332 136.018C300.2 136.018 292.797 129.274 292.797 129.274C292.797 129.274 300.2 122.531 309.332 122.531C318.463 122.531 325.866 129.274 325.866 129.274C325.866 129.274 318.463 136.018 309.332 136.018Z" fill="white"/>
<path d="M282.354 187.732C275.892 181.263 275.415 171.262 275.415 171.262C275.415 171.262 285.405 171.739 291.867 178.208C298.328 184.677 298.805 194.678 298.805 194.678C298.805 194.678 288.815 194.201 282.354 187.732Z" fill="white"/>
<path d="M226.764 205.205C226.764 196.063 233.5 188.651 233.5 188.651C233.5 188.651 240.236 196.063 240.236 205.205C240.236 214.347 233.5 221.759 233.5 221.759C233.5 221.759 226.764 214.347 226.764 205.205Z" fill="white"/>
<path d="M175.121 178.196C181.583 171.727 191.573 171.25 191.573 171.25C191.573 171.25 191.096 181.251 184.634 187.72C178.173 194.189 168.183 194.666 168.183 194.666C168.183 194.666 168.66 184.665 175.121 178.196V178.196Z" fill="white"/>
<path d="M157.668 122.543C166.8 122.543 174.203 129.286 174.203 129.286C174.203 129.286 166.8 136.03 157.668 136.03C148.537 136.03 141.134 129.286 141.134 129.286C141.134 129.286 148.537 122.543 157.668 122.543Z" fill="white"/>
<path d="M184.634 70.8405C191.096 77.3092 191.573 87.3108 191.573 87.3108C191.573 87.3108 181.583 86.8334 175.121 80.3646C168.66 73.8958 168.183 63.8943 168.183 63.8943C168.183 63.8943 178.173 64.3717 184.634 70.8405V70.8405Z" fill="white"/>
<path d="M240.224 53.3676C240.224 62.5098 233.488 69.9215 233.488 69.9215C233.488 69.9215 226.753 62.5098 226.753 53.3676C226.753 44.2254 233.488 36.8137 233.488 36.8137C233.488 36.8137 240.224 44.2254 240.224 53.3676Z" fill="white"/>
<path d="M262.35 112.231C254.327 120.263 241.916 120.86 241.916 120.86C241.916 120.86 242.513 108.436 250.536 100.403C258.559 92.3712 270.969 91.7744 270.969 91.7744C270.969 91.7744 270.373 104.199 262.35 112.231V112.231Z" fill="white"/>
<path d="M265.938 137.653C254.589 137.653 245.397 129.286 245.397 129.286C245.397 129.286 254.589 120.92 265.938 120.92C277.287 120.92 286.478 129.286 286.478 129.286C286.478 129.286 277.275 137.653 265.938 137.653Z" fill="white"/>
<path d="M250.524 158.169C242.501 150.137 241.905 137.712 241.905 137.712C241.905 137.712 254.315 138.309 262.338 146.341C270.361 154.374 270.957 166.798 270.957 166.798C270.957 166.798 258.547 166.201 250.524 158.169V158.169Z" fill="white"/>
<path d="M225.143 161.761C225.143 150.399 233.5 141.197 233.5 141.197C233.5 141.197 241.857 150.411 241.857 161.761C241.857 173.112 233.5 182.325 233.5 182.325C233.5 182.325 225.143 173.123 225.143 161.761Z" fill="white"/>
<path d="M204.65 146.329C212.673 138.297 225.084 137.7 225.084 137.7C225.084 137.7 224.487 150.125 216.464 158.157C208.441 166.189 196.031 166.786 196.031 166.786C196.031 166.786 196.627 154.362 204.65 146.329V146.329Z" fill="white"/>
<path d="M201.05 120.92C212.399 120.92 221.591 129.286 221.591 129.286C221.591 129.286 212.387 137.653 201.05 137.653C189.713 137.653 180.51 129.286 180.51 129.286C180.51 129.286 189.701 120.92 201.05 120.92Z" fill="white"/>
<path d="M216.464 100.403C224.487 108.436 225.084 120.86 225.084 120.86C225.084 120.86 212.673 120.263 204.65 112.231C196.627 104.199 196.031 91.7744 196.031 91.7744C196.031 91.7744 208.441 92.3712 216.464 100.403Z" fill="white"/>
<path d="M241.857 96.7991C241.857 108.161 233.5 117.363 233.5 117.363C233.5 117.363 225.143 108.161 225.143 96.7991C225.143 85.4369 233.5 76.235 233.5 76.235C233.5 76.235 241.857 85.4489 241.857 96.7991Z" fill="white"/>
<path d="M260.395 83.0858C256.83 91.4999 247.734 95.7011 247.734 95.7011C247.734 95.7011 244.432 86.2485 247.996 77.8224C251.561 69.4082 260.657 65.2071 260.657 65.2071C260.657 65.2071 263.959 74.6596 260.395 83.0858Z" fill="white"/>
<path d="M285.143 115.656C276.679 119.082 267.285 115.609 267.285 115.609C267.285 115.609 271.624 106.586 280.1 103.16C288.565 99.7351 297.959 103.208 297.959 103.208C297.959 103.208 293.619 112.231 285.143 115.656Z" fill="white"/>
<path d="M279.647 156.212C271.243 152.643 267.047 143.537 267.047 143.537C267.047 143.537 276.488 140.231 284.905 143.799C293.309 147.368 297.506 156.474 297.506 156.474C297.506 156.474 288.064 159.78 279.647 156.212Z" fill="white"/>
<path d="M247.102 180.989C243.681 172.515 247.15 163.11 247.15 163.11C247.15 163.11 256.162 167.454 259.584 175.94C263.005 184.414 259.536 193.819 259.536 193.819C259.536 193.819 250.524 189.474 247.102 180.989V180.989Z" fill="white"/>
<path d="M206.605 175.487C210.17 167.072 219.266 162.871 219.266 162.871C219.266 162.871 222.568 172.324 219.004 180.75C215.439 189.164 206.343 193.365 206.343 193.365C206.343 193.365 203.041 183.913 206.605 175.487Z" fill="white"/>
<path d="M181.845 142.904C190.309 139.479 199.703 142.952 199.703 142.952C199.703 142.952 195.364 151.975 186.888 155.4C178.423 158.825 169.029 155.352 169.029 155.352C169.029 155.352 173.369 146.329 181.845 142.904V142.904Z" fill="white"/>
<path d="M187.353 102.349C195.757 105.917 199.953 115.024 199.953 115.024C199.953 115.024 190.512 118.33 182.095 114.761C173.691 111.193 169.494 102.086 169.494 102.086C169.494 102.086 178.936 98.7803 187.353 102.349Z" fill="white"/>
<path d="M219.886 77.5718C223.307 86.0456 219.838 95.4504 219.838 95.4504C219.838 95.4504 210.826 91.1061 207.404 82.6203C203.983 74.1464 207.452 64.7416 207.452 64.7416C207.452 64.7416 216.464 69.086 219.886 77.5718Z" fill="white"/>
<path d="M273.925 48.6413C270.885 55.8262 263.125 59.4067 263.125 59.4067C263.125 59.4067 260.311 51.3386 263.351 44.1537C266.391 36.9689 274.152 33.3884 274.152 33.3884C274.152 33.3884 276.965 41.4564 273.925 48.6413V48.6413Z" fill="white"/>
<path d="M319.047 100.881C311.823 103.805 303.812 100.845 303.812 100.845C303.812 100.845 307.52 93.1469 314.744 90.2229C321.968 87.2988 329.979 90.2587 329.979 90.2587C329.979 90.2587 326.272 97.9568 319.047 100.881Z" fill="white"/>
<path d="M314.052 169.758C306.876 166.714 303.299 158.945 303.299 158.945C303.299 158.945 311.358 156.128 318.535 159.171C325.712 162.215 329.288 169.985 329.288 169.985C329.288 169.985 321.229 172.801 314.052 169.758Z" fill="white"/>
<path d="M261.873 214.932C258.952 207.699 261.909 199.679 261.909 199.679C261.909 199.679 269.598 203.391 272.519 210.623C275.439 217.856 272.483 225.876 272.483 225.876C272.483 225.876 264.793 222.165 261.873 214.932Z" fill="white"/>
<path d="M193.063 209.931C196.103 202.746 203.864 199.166 203.864 199.166C203.864 199.166 206.677 207.234 203.637 214.419C200.597 221.604 192.836 225.184 192.836 225.184C192.836 225.184 190.023 217.116 193.063 209.931Z" fill="white"/>
<path d="M147.953 157.691C155.177 154.767 163.188 157.727 163.188 157.727C163.188 157.727 159.48 165.425 152.256 168.349C145.032 171.274 137.021 168.314 137.021 168.314C137.021 168.314 140.728 160.616 147.953 157.691Z" fill="white"/>
<path d="M152.948 88.8026C160.124 91.8461 163.701 99.6158 163.701 99.6158C163.701 99.6158 155.642 102.432 148.465 99.389C141.289 96.3456 137.712 88.5759 137.712 88.5759C137.712 88.5759 145.771 85.7592 152.948 88.8026V88.8026Z" fill="white"/>
<path d="M205.127 43.6405C208.048 50.8731 205.091 58.8935 205.091 58.8935C205.091 58.8935 197.402 55.1817 194.481 47.9491C191.561 40.7164 194.517 32.6961 194.517 32.6961C194.517 32.6961 202.207 36.4079 205.127 43.6405Z" fill="white"/>
<path d="M254.622 57.5661C253.168 63.8439 247.362 67.866 247.362 67.866C247.362 67.866 243.917 61.6956 245.371 55.4178C246.825 49.14 252.631 45.1179 252.631 45.1179C252.631 45.1179 256.076 51.2883 254.622 57.5661Z" fill="white"/>
<path d="M298.802 93.6456C293.331 97.0591 286.392 95.794 286.392 95.794C286.392 95.794 288.312 88.991 293.784 85.5776C299.255 82.1642 306.194 83.4293 306.194 83.4293C306.194 83.4293 304.274 90.2322 298.802 93.6456Z" fill="white"/>
<path d="M304.56 150.432C298.29 148.976 294.272 143.164 294.272 143.164C294.272 143.164 300.436 139.715 306.706 141.171C312.977 142.627 316.994 148.439 316.994 148.439C316.994 148.439 310.831 151.889 304.56 150.432Z" fill="white"/>
<path d="M268.522 194.664C265.113 189.185 266.376 182.239 266.376 182.239C266.376 182.239 273.172 184.161 276.581 189.639C279.991 195.117 278.727 202.063 278.727 202.063C278.727 202.063 271.932 200.142 268.522 194.664Z" fill="white"/>
<path d="M211.789 200.428C213.243 194.15 219.049 190.128 219.049 190.128C219.049 190.128 222.494 196.299 221.04 202.577C219.585 208.854 213.78 212.876 213.78 212.876C213.78 212.876 210.334 206.706 211.789 200.428Z" fill="white"/>
<path d="M167.608 164.349C173.08 160.935 180.018 162.2 180.018 162.2C180.018 162.2 178.099 169.003 172.627 172.417C167.155 175.83 160.217 174.565 160.217 174.565C160.217 174.565 162.136 167.762 167.608 164.349V164.349Z" fill="white"/>
<path d="M161.862 107.55C168.133 109.006 172.15 114.818 172.15 114.818C172.15 114.818 165.987 118.268 159.716 116.812C153.446 115.355 149.428 109.543 149.428 109.543C149.428 109.543 155.592 106.094 161.862 107.55Z" fill="white"/>
<path d="M197.9 63.3188C201.31 68.7969 200.046 75.7431 200.046 75.7431C200.046 75.7431 193.251 73.8216 189.842 68.3434C186.432 62.8652 187.696 55.9191 187.696 55.9191C187.696 55.9191 194.491 57.8406 197.9 63.3188V63.3188Z" fill="white"/>
<path d="M284.118 20.3076C281.96 25.3919 276.476 27.9222 276.476 27.9222C276.476 27.9222 274.485 22.2172 276.643 17.1329C278.801 12.0486 284.285 9.51837 284.285 9.51837C284.285 9.51837 286.276 15.2233 284.118 20.3076Z" fill="white"/>
<path d="M346.264 88.0627C341.15 90.1274 335.487 88.0388 335.487 88.0388C335.487 88.0388 338.11 82.5964 343.224 80.5197C348.338 78.455 354.001 80.5436 354.001 80.5436C354.001 80.5436 351.378 85.986 346.264 88.0627Z" fill="white"/>
<path d="M342.342 179.962C337.263 177.802 334.736 172.312 334.736 172.312C334.736 172.312 340.434 170.319 345.513 172.479C350.591 174.639 353.119 180.129 353.119 180.129C353.119 180.129 347.42 182.123 342.342 179.962Z" fill="white"/>
<path d="M274.676 242.18C272.614 237.059 274.7 231.39 274.7 231.39C274.7 231.39 280.136 234.016 282.211 239.136C284.273 244.256 282.187 249.925 282.187 249.925C282.187 249.925 276.751 247.3 274.676 242.18Z" fill="white"/>
<path d="M182.882 238.253C185.04 233.169 190.524 230.638 190.524 230.638C190.524 230.638 192.514 236.343 190.357 241.428C188.199 246.512 182.715 249.042 182.715 249.042C182.715 249.042 180.724 243.337 182.882 238.253Z" fill="white"/>
<path d="M120.736 170.51C125.85 168.445 131.513 170.534 131.513 170.534C131.513 170.534 128.89 175.976 123.776 178.053C118.662 180.117 112.999 178.029 112.999 178.029C112.999 178.029 115.622 172.586 120.736 170.51Z" fill="white"/>
<path d="M124.646 78.6102C129.725 80.7704 132.252 86.2605 132.252 86.2605C132.252 86.2605 126.554 88.2537 121.475 86.0934C116.397 83.9332 113.869 78.4431 113.869 78.4431C113.869 78.4431 119.568 76.4499 124.646 78.6102Z" fill="white"/>
<path d="M192.324 16.3929C194.386 21.513 192.3 27.1822 192.3 27.1822C192.3 27.1822 186.864 24.5565 184.789 19.4364C182.727 14.3162 184.813 8.64709 184.813 8.64709C184.813 8.64709 190.249 11.2728 192.324 16.3929Z" fill="white"/>
<path d="M259.095 27.8983C258.082 32.5887 253.802 35.6441 253.802 35.6441C253.802 35.6441 251.167 31.0849 252.193 26.3944C253.206 21.704 257.486 18.6486 257.486 18.6486C257.486 18.6486 260.12 23.2078 259.095 27.8983V27.8983Z" fill="white"/>
<path d="M323.208 75.7099C319.167 78.3118 313.993 77.4405 313.993 77.4405C313.993 77.4405 315.352 72.3562 319.381 69.7544C323.423 67.1525 328.596 68.0238 328.596 68.0238C328.596 68.0238 327.237 73.1081 323.208 75.7099V75.7099Z" fill="white"/>
<path d="M334.772 154.911C330.087 153.896 327.035 149.612 327.035 149.612C327.035 149.612 331.589 146.974 336.274 148C340.959 149.015 344.011 153.299 344.011 153.299C344.011 153.299 339.457 155.937 334.772 154.911Z" fill="white"/>
<path d="M287.003 219.097C284.404 215.063 285.274 209.871 285.274 209.871C285.274 209.871 290.353 211.232 292.952 215.266C295.551 219.312 294.68 224.492 294.68 224.492C294.68 224.492 289.602 223.131 287.003 219.097Z" fill="white"/>
<path d="M207.905 230.674C208.918 225.984 213.198 222.928 213.198 222.928C213.198 222.928 215.833 227.488 214.807 232.178C213.794 236.868 209.514 239.924 209.514 239.924C209.514 239.924 206.88 235.365 207.905 230.674Z" fill="white"/>
<path d="M143.792 182.851C147.833 180.249 153.007 181.12 153.007 181.12C153.007 181.12 151.648 186.204 147.619 188.806C143.577 191.408 138.404 190.537 138.404 190.537C138.404 190.537 139.763 185.452 143.792 182.851Z" fill="white"/>
<path d="M132.228 103.662C136.913 104.676 139.965 108.961 139.965 108.961C139.965 108.961 135.411 111.599 130.726 110.572C126.041 109.558 122.989 105.273 122.989 105.273C122.989 105.273 127.543 102.635 132.228 103.662V103.662Z" fill="white"/>
<path d="M179.985 39.4752C182.584 43.5212 181.714 48.701 181.714 48.701C181.714 48.701 176.635 47.3404 174.036 43.3063C171.438 39.2604 172.308 34.0806 172.308 34.0806C172.308 34.0806 177.386 35.4412 179.985 39.4752V39.4752Z" fill="white"/>
<path d="M319.036 50.9686C314.076 55.9336 306.399 56.3036 306.399 56.3036C306.399 56.3036 306.769 48.6174 311.728 43.6525C316.687 38.6875 324.364 38.3175 324.364 38.3175C324.364 38.3175 323.995 46.0037 319.036 50.9686Z" fill="white"/>
<path d="M349.292 134.454C342.27 134.454 336.584 129.274 336.584 129.274C336.584 129.274 342.27 124.094 349.292 124.094C356.314 124.094 362 129.274 362 129.274C362 129.274 356.314 134.454 349.292 134.454Z" fill="white"/>
<path d="M311.716 214.92C306.757 209.955 306.387 202.269 306.387 202.269C306.387 202.269 314.064 202.639 319.024 207.604C323.983 212.569 324.352 220.255 324.352 220.255C324.352 220.255 316.675 219.885 311.716 214.92Z" fill="white"/>
<path d="M228.326 245.211C228.326 238.181 233.5 232.488 233.5 232.488C233.5 232.488 238.674 238.181 238.674 245.211C238.674 252.241 233.5 257.934 233.5 257.934C233.5 257.934 228.326 252.241 228.326 245.211Z" fill="white"/>
<path d="M147.964 207.592C152.924 202.627 160.601 202.257 160.601 202.257C160.601 202.257 160.231 209.943 155.272 214.908C150.313 219.873 142.636 220.243 142.636 220.243C142.636 220.243 143.005 212.557 147.964 207.592Z" fill="white"/>
<path d="M117.708 124.106C124.73 124.106 130.416 129.286 130.416 129.286C130.416 129.286 124.73 134.466 117.708 134.466C110.686 134.466 105 129.286 105 129.286C105 129.286 110.686 124.106 117.708 124.106Z" fill="white"/>
<path d="M155.272 43.6525C160.231 48.6174 160.601 56.3036 160.601 56.3036C160.601 56.3036 152.924 55.9336 147.964 50.9686C143.005 46.0037 142.636 38.3175 142.636 38.3175C142.636 38.3175 150.313 38.6875 155.272 43.6525Z" fill="white"/>
<path d="M238.662 13.3614C238.662 20.3911 233.488 26.0841 233.488 26.0841C233.488 26.0841 228.314 20.3911 228.314 13.3614C228.314 6.33167 233.5 0.638672 233.5 0.638672C233.5 0.638672 238.674 6.33167 238.674 13.3614H238.662Z" fill="white"/>
</g>
</g>
<g clip-path="url(#clip1_3_2)">
<g style="mix-blend-mode:overlay" opacity="0.3">
<path d="M94.1685 300.719C91.3275 303.569 86.935 303.779 86.935 303.779C86.935 303.779 87.1446 299.373 89.9856 296.524C92.8266 293.675 97.2191 293.464 97.2191 293.464C97.2191 293.464 97.0095 297.87 94.1685 300.719V300.719Z" fill="white"/>
<path d="M101.842 325.234C97.8272 325.234 94.5721 322.264 94.5721 322.264C94.5721 322.264 97.8272 319.293 101.842 319.293C105.857 319.293 109.112 322.264 109.112 322.264C109.112 322.264 105.857 325.234 101.842 325.234Z" fill="white"/>
<path d="M89.9804 348.014C87.1394 345.165 86.9297 340.759 86.9297 340.759C86.9297 340.759 91.3222 340.969 94.1632 343.819C97.0042 346.668 97.2139 351.074 97.2139 351.074C97.2139 351.074 92.8214 350.864 89.9804 348.014Z" fill="white"/>
<path d="M65.5385 355.711C65.5385 351.684 68.5 348.419 68.5 348.419C68.5 348.419 71.4615 351.684 71.4615 355.711C71.4615 359.738 68.5 363.003 68.5 363.003C68.5 363.003 65.5385 359.738 65.5385 355.711Z" fill="white"/>
<path d="M42.8315 343.814C45.6725 340.964 50.065 340.754 50.065 340.754C50.065 340.754 49.8554 345.159 47.0144 348.009C44.1734 350.858 39.7809 351.069 39.7809 351.069C39.7809 351.069 39.9906 346.663 42.8315 343.814V343.814Z" fill="white"/>
<path d="M35.1577 319.299C39.1728 319.299 42.4279 322.269 42.4279 322.269C42.4279 322.269 39.1728 325.239 35.1577 325.239C31.1426 325.239 27.8875 322.269 27.8875 322.269C27.8875 322.269 31.1426 319.299 35.1577 319.299Z" fill="white"/>
<path d="M47.0144 296.524C49.8554 299.373 50.065 303.779 50.065 303.779C50.065 303.779 45.6725 303.569 42.8315 300.719C39.9906 297.87 39.7809 293.464 39.7809 293.464C39.7809 293.464 44.1734 293.675 47.0144 296.524V296.524Z" fill="white"/>
<path d="M71.4563 288.827C71.4563 292.854 68.4947 296.119 68.4947 296.119C68.4947 296.119 65.5332 292.854 65.5332 288.827C65.5332 284.8 68.4947 281.535 68.4947 281.535C68.4947 281.535 71.4563 284.8 71.4563 288.827Z" fill="white"/>
<path d="M81.1848 314.756C77.6572 318.294 72.2006 318.557 72.2006 318.557C72.2006 318.557 72.4627 313.084 75.9903 309.546C79.518 306.008 84.9746 305.745 84.9746 305.745C84.9746 305.745 84.7125 311.218 81.1848 314.756V314.756Z" fill="white"/>
<path d="M82.7626 325.954C77.7725 325.954 73.7312 322.269 73.7312 322.269C73.7312 322.269 77.7725 318.584 82.7626 318.584C87.7526 318.584 91.794 322.269 91.794 322.269C91.794 322.269 87.7474 325.954 82.7626 325.954Z" fill="white"/>
<path d="M75.9851 334.992C72.4575 331.454 72.1954 325.981 72.1954 325.981C72.1954 325.981 77.652 326.244 81.1796 329.782C84.7072 333.32 84.9693 338.793 84.9693 338.793C84.9693 338.793 79.5128 338.53 75.9851 334.992V334.992Z" fill="white"/>
<path d="M64.8256 336.574C64.8256 331.569 68.5 327.516 68.5 327.516C68.5 327.516 72.1744 331.575 72.1744 336.574C72.1744 341.574 68.5 345.633 68.5 345.633C68.5 345.633 64.8256 341.579 64.8256 336.574Z" fill="white"/>
<path d="M55.8151 329.777C59.3428 326.238 64.7994 325.975 64.7994 325.975C64.7994 325.975 64.5373 331.448 61.0096 334.987C57.482 338.525 52.0254 338.788 52.0254 338.788C52.0254 338.788 52.2875 333.315 55.8151 329.777V329.777Z" fill="white"/>
<path d="M54.2321 318.584C59.2222 318.584 63.2636 322.269 63.2636 322.269C63.2636 322.269 59.217 325.954 54.2321 325.954C49.2473 325.954 45.2007 322.269 45.2007 322.269C45.2007 322.269 49.2421 318.584 54.2321 318.584Z" fill="white"/>
<path d="M61.0096 309.546C64.5373 313.084 64.7994 318.557 64.7994 318.557C64.7994 318.557 59.3428 318.294 55.8151 314.756C52.2875 311.218 52.0254 305.745 52.0254 305.745C52.0254 305.745 57.482 306.008 61.0096 309.546Z" fill="white"/>
<path d="M72.1744 307.959C72.1744 312.964 68.5 317.017 68.5 317.017C68.5 317.017 64.8256 312.964 64.8256 307.959C64.8256 302.954 68.5 298.9 68.5 298.9C68.5 298.9 72.1744 302.959 72.1744 307.959Z" fill="white"/>
<path d="M80.3252 301.918C78.7579 305.624 74.7585 307.475 74.7585 307.475C74.7585 307.475 73.3066 303.311 74.8739 299.6C76.4411 295.893 80.4405 294.043 80.4405 294.043C80.4405 294.043 81.8925 298.206 80.3252 301.918Z" fill="white"/>
<path d="M91.2069 316.265C87.4853 317.774 83.3549 316.244 83.3549 316.244C83.3549 316.244 85.2629 312.27 88.9897 310.761C92.7113 309.252 96.8417 310.782 96.8417 310.782C96.8417 310.782 94.9337 314.756 91.2069 316.265Z" fill="white"/>
<path d="M88.7905 334.13C85.0951 332.558 83.2501 328.546 83.2501 328.546C83.2501 328.546 87.4015 327.09 91.1021 328.662C94.7975 330.234 96.6425 334.245 96.6425 334.245C96.6425 334.245 92.4911 335.701 88.7905 334.13Z" fill="white"/>
<path d="M74.4807 345.044C72.9764 341.311 74.5017 337.168 74.5017 337.168C74.5017 337.168 78.4644 339.082 79.9688 342.82C81.4731 346.553 79.9478 350.695 79.9478 350.695C79.9478 350.695 75.9851 348.782 74.4807 345.044V345.044Z" fill="white"/>
<path d="M56.6748 342.62C58.242 338.914 62.2414 337.063 62.2414 337.063C62.2414 337.063 63.6934 341.227 62.1261 344.939C60.5588 348.645 56.5594 350.496 56.5594 350.496C56.5594 350.496 55.1075 346.332 56.6748 342.62Z" fill="white"/>
<path d="M45.7878 328.268C49.5094 326.759 53.6398 328.289 53.6398 328.289C53.6398 328.289 51.7319 332.263 48.005 333.772C44.2835 335.281 40.153 333.751 40.153 333.751C40.153 333.751 42.061 329.777 45.7878 328.268V328.268Z" fill="white"/>
<path d="M48.2095 310.403C51.9049 311.975 53.7499 315.987 53.7499 315.987C53.7499 315.987 49.5985 317.443 45.8979 315.871C42.2025 314.299 40.3575 310.288 40.3575 310.288C40.3575 310.288 44.5089 308.831 48.2095 310.403Z" fill="white"/>
<path d="M62.514 299.489C64.0184 303.222 62.493 307.365 62.493 307.365C62.493 307.365 58.5303 305.451 57.026 301.713C55.5216 297.98 57.0469 293.838 57.0469 293.838C57.0469 293.838 61.0096 295.751 62.514 299.489Z" fill="white"/>
<path d="M86.2745 286.745C84.9379 289.91 81.5256 291.487 81.5256 291.487C81.5256 291.487 80.2885 287.933 81.6251 284.769C82.9618 281.604 86.3741 280.026 86.3741 280.026C86.3741 280.026 87.6111 283.58 86.2745 286.745V286.745Z" fill="white"/>
<path d="M106.114 309.757C102.938 311.045 99.4154 309.741 99.4154 309.741C99.4154 309.741 101.046 306.35 104.222 305.062C107.398 303.774 110.921 305.078 110.921 305.078C110.921 305.078 109.291 308.469 106.114 309.757Z" fill="white"/>
<path d="M103.918 340.097C100.763 338.756 99.19 335.333 99.19 335.333C99.19 335.333 102.733 334.093 105.889 335.433C109.044 336.774 110.617 340.196 110.617 340.196C110.617 340.196 107.073 341.437 103.918 340.097Z" fill="white"/>
<path d="M80.9752 359.995C79.691 356.81 80.9909 353.277 80.9909 353.277C80.9909 353.277 84.3718 354.912 85.656 358.098C86.9402 361.284 85.6403 364.816 85.6403 364.816C85.6403 364.816 82.2594 363.181 80.9752 359.995Z" fill="white"/>
<path d="M50.7202 357.793C52.0569 354.628 55.4692 353.051 55.4692 353.051C55.4692 353.051 56.7062 356.604 55.3696 359.769C54.033 362.934 50.6206 364.511 50.6206 364.511C50.6206 364.511 49.3836 360.958 50.7202 357.793Z" fill="white"/>
<path d="M30.8857 334.781C34.0622 333.493 37.5846 334.797 37.5846 334.797C37.5846 334.797 35.9544 338.188 32.778 339.476C29.6015 340.764 26.0791 339.46 26.0791 339.46C26.0791 339.46 27.7093 336.069 30.8857 334.781Z" fill="white"/>
<path d="M33.082 304.436C36.2375 305.777 37.81 309.199 37.81 309.199C37.81 309.199 34.2666 310.44 31.1111 309.099C27.9556 307.759 26.3831 304.336 26.3831 304.336C26.3831 304.336 29.9265 303.096 33.082 304.436V304.436Z" fill="white"/>
<path d="M56.0248 284.543C57.309 287.728 56.0091 291.261 56.0091 291.261C56.0091 291.261 52.6282 289.626 51.344 286.44C50.0598 283.254 51.3597 279.722 51.3597 279.722C51.3597 279.722 54.7406 281.357 56.0248 284.543Z" fill="white"/>
<path d="M77.7871 290.677C77.1476 293.442 74.5949 295.214 74.5949 295.214C74.5949 295.214 73.0801 292.496 73.7196 289.73C74.3591 286.965 76.9118 285.193 76.9118 285.193C76.9118 285.193 78.4266 287.911 77.7871 290.677Z" fill="white"/>
<path d="M97.2127 306.57C94.8068 308.073 91.7562 307.516 91.7562 307.516C91.7562 307.516 92.6001 304.519 95.006 303.016C97.4119 301.512 100.463 302.069 100.463 302.069C100.463 302.069 99.6187 305.066 97.2127 306.57Z" fill="white"/>
<path d="M99.7445 331.584C96.9874 330.943 95.2209 328.382 95.2209 328.382C95.2209 328.382 97.9309 326.863 100.688 327.504C103.445 328.146 105.212 330.706 105.212 330.706C105.212 330.706 102.502 332.225 99.7445 331.584Z" fill="white"/>
<path d="M83.8989 351.067C82.3998 348.654 82.9554 345.595 82.9554 345.595C82.9554 345.595 85.9431 346.441 87.4423 348.854C88.9414 351.267 88.3858 354.327 88.3858 354.327C88.3858 354.327 85.398 353.481 83.8989 351.067Z" fill="white"/>
<path d="M58.9538 353.607C59.5932 350.841 62.1459 349.07 62.1459 349.07C62.1459 349.07 63.6608 351.788 63.0213 354.553C62.3818 357.318 59.8291 359.09 59.8291 359.09C59.8291 359.09 58.3143 356.372 58.9538 353.607Z" fill="white"/>
<path d="M39.5281 337.714C41.9341 336.21 44.9847 336.768 44.9847 336.768C44.9847 336.768 44.1408 339.764 41.7349 341.268C39.3289 342.771 36.2783 342.214 36.2783 342.214C36.2783 342.214 37.1222 339.218 39.5281 337.714V337.714Z" fill="white"/>
<path d="M37.0016 312.694C39.7588 313.336 41.5252 315.896 41.5252 315.896C41.5252 315.896 38.8153 317.416 36.0581 316.774C33.301 316.133 31.5346 313.572 31.5346 313.572C31.5346 313.572 34.2445 312.053 37.0016 312.694Z" fill="white"/>
<path d="M52.8472 293.211C54.3464 295.624 53.7907 298.684 53.7907 298.684C53.7907 298.684 50.803 297.837 49.3039 295.424C47.8047 293.011 48.3604 289.951 48.3604 289.951C48.3604 289.951 51.3481 290.798 52.8472 293.211V293.211Z" fill="white"/>
<path d="M90.7561 274.265C89.8074 276.504 87.3962 277.619 87.3962 277.619C87.3962 277.619 86.5208 275.106 87.4696 272.866C88.4183 270.627 90.8295 269.512 90.8295 269.512C90.8295 269.512 91.7049 272.025 90.7561 274.265Z" fill="white"/>
<path d="M118.081 304.11C115.832 305.02 113.342 304.1 113.342 304.1C113.342 304.1 114.496 301.703 116.744 300.788C118.993 299.878 121.483 300.798 121.483 300.798C121.483 300.798 120.33 303.196 118.081 304.11Z" fill="white"/>
<path d="M116.356 344.592C114.123 343.64 113.012 341.222 113.012 341.222C113.012 341.222 115.518 340.344 117.751 341.295C119.984 342.247 121.095 344.665 121.095 344.665C121.095 344.665 118.589 345.543 116.356 344.592Z" fill="white"/>
<path d="M86.6047 371.998C85.6979 369.743 86.6152 367.245 86.6152 367.245C86.6152 367.245 89.0054 368.402 89.9175 370.657C90.8243 372.913 89.907 375.41 89.907 375.41C89.907 375.41 87.5168 374.253 86.6047 371.998Z" fill="white"/>
<path d="M46.2438 370.268C47.1926 368.029 49.6038 366.914 49.6038 366.914C49.6038 366.914 50.4791 369.427 49.5304 371.667C48.5816 373.907 46.1705 375.021 46.1705 375.021C46.1705 375.021 45.2951 372.508 46.2438 370.268Z" fill="white"/>
<path d="M18.919 340.428C21.1677 339.518 23.6575 340.438 23.6575 340.438C23.6575 340.438 22.5043 342.836 20.2556 343.751C18.0069 344.66 15.5172 343.74 15.5172 343.74C15.5172 343.74 16.6703 341.343 18.919 340.428Z" fill="white"/>
<path d="M20.6383 299.947C22.8712 300.898 23.9824 303.316 23.9824 303.316C23.9824 303.316 21.4769 304.194 19.244 303.243C17.011 302.291 15.8998 299.873 15.8998 299.873C15.8998 299.873 18.4053 298.995 20.6383 299.947Z" fill="white"/>
<path d="M50.3953 272.54C51.3021 274.796 50.3848 277.293 50.3848 277.293C50.3848 277.293 47.9946 276.136 47.0825 273.881C46.1757 271.625 47.093 269.128 47.093 269.128C47.093 269.128 49.4832 270.285 50.3953 272.54Z" fill="white"/>
<path d="M79.7539 277.608C79.3083 279.674 77.4266 281.02 77.4266 281.02C77.4266 281.02 76.2682 279.012 76.719 276.946C77.1645 274.88 79.0463 273.534 79.0463 273.534C79.0463 273.534 80.2047 275.542 79.7539 277.608V277.608Z" fill="white"/>
<path d="M107.944 298.669C106.167 299.815 103.892 299.431 103.892 299.431C103.892 299.431 104.489 297.192 106.261 296.046C108.038 294.9 110.313 295.283 110.313 295.283C110.313 295.283 109.715 297.523 107.944 298.669V298.669Z" fill="white"/>
<path d="M113.028 333.557C110.968 333.11 109.626 331.222 109.626 331.222C109.626 331.222 111.629 330.06 113.688 330.513C115.748 330.959 117.09 332.847 117.09 332.847C117.09 332.847 115.088 334.009 113.028 333.557Z" fill="white"/>
<path d="M92.0247 361.83C90.882 360.053 91.2646 357.766 91.2646 357.766C91.2646 357.766 93.4976 358.366 94.6403 360.143C95.7829 361.925 95.4003 364.207 95.4003 364.207C95.4003 364.207 93.1673 363.607 92.0247 361.83Z" fill="white"/>
<path d="M57.2461 366.93C57.6917 364.864 59.5734 363.518 59.5734 363.518C59.5734 363.518 60.7318 365.526 60.2811 367.592C59.8355 369.659 57.9537 371.004 57.9537 371.004C57.9537 371.004 56.7953 368.996 57.2461 366.93Z" fill="white"/>
<path d="M29.0564 345.864C30.8334 344.718 33.1082 345.102 33.1082 345.102C33.1082 345.102 32.5107 347.341 30.739 348.487C28.9621 349.633 26.6872 349.25 26.6872 349.25C26.6872 349.25 27.2847 347.01 29.0564 345.864Z" fill="white"/>
<path d="M23.972 310.982C26.032 311.429 27.3738 313.316 27.3738 313.316C27.3738 313.316 25.3715 314.478 23.3115 314.026C21.2516 313.579 19.9097 311.691 19.9097 311.691C19.9097 311.691 21.912 310.53 23.972 310.982V310.982Z" fill="white"/>
<path d="M44.9702 282.708C46.1128 284.49 45.7302 286.772 45.7302 286.772C45.7302 286.772 43.4972 286.172 42.3546 284.395C41.2119 282.613 41.5945 280.332 41.5945 280.332C41.5945 280.332 43.8275 280.931 44.9702 282.708V282.708Z" fill="white"/>
<path d="M106.109 287.771C103.928 289.958 100.553 290.121 100.553 290.121C100.553 290.121 100.715 286.735 102.896 284.548C105.076 282.361 108.452 282.198 108.452 282.198C108.452 282.198 108.29 285.583 106.109 287.771Z" fill="white"/>
<path d="M119.412 324.546C116.325 324.546 113.825 322.264 113.825 322.264C113.825 322.264 116.325 319.982 119.412 319.982C122.5 319.982 125 322.264 125 322.264C125 322.264 122.5 324.546 119.412 324.546Z" fill="white"/>
<path d="M102.891 359.99C100.71 357.803 100.548 354.418 100.548 354.418C100.548 354.418 103.923 354.581 106.104 356.768C108.284 358.955 108.447 362.34 108.447 362.34C108.447 362.34 105.071 362.177 102.891 359.99Z" fill="white"/>
<path d="M66.2251 373.333C66.2251 370.237 68.5 367.729 68.5 367.729C68.5 367.729 70.7749 370.237 70.7749 373.333C70.7749 376.43 68.5 378.938 68.5 378.938C68.5 378.938 66.2251 376.43 66.2251 373.333Z" fill="white"/>
<path d="M30.891 356.762C33.0715 354.575 36.4472 354.412 36.4472 354.412C36.4472 354.412 36.2847 357.798 34.1041 359.985C31.9236 362.172 28.548 362.335 28.548 362.335C28.548 362.335 28.7105 358.949 30.891 356.762Z" fill="white"/>
<path d="M17.5876 319.987C20.675 319.987 23.1752 322.269 23.1752 322.269C23.1752 322.269 20.675 324.551 17.5876 324.551C14.5003 324.551 12 322.269 12 322.269C12 322.269 14.5003 319.987 17.5876 319.987Z" fill="white"/>
<path d="M34.1041 284.548C36.2847 286.735 36.4472 290.121 36.4472 290.121C36.4472 290.121 33.0715 289.958 30.891 287.771C28.7105 285.583 28.548 282.198 28.548 282.198C28.548 282.198 31.9236 282.361 34.1041 284.548Z" fill="white"/>
<path d="M70.7697 271.205C70.7697 274.301 68.4948 276.809 68.4948 276.809C68.4948 276.809 66.2199 274.301 66.2199 271.205C66.2199 268.108 68.5 265.6 68.5 265.6C68.5 265.6 70.7749 268.108 70.7749 271.205H70.7697Z" fill="white"/>
</g>
</g>
<defs>
<clipPath id="clip0_3_2">
<rect width="257" height="258" fill="white" transform="translate(105)"/>
</clipPath>
<clipPath id="clip1_3_2">
<rect width="113" height="114" fill="white" transform="translate(12 265)"/>
</clipPath>
</defs>
</svg>
