<svg width="70" height="129" viewBox="0 0 70 129" fill="none" xmlns="http://www.w3.org/2000/svg">
<g clip-path="url(#clip0_3869_13150)">
<path d="M27.2421 76.3525C27.2421 71.3372 23.174 67.272 18.1601 67.272C13.1462 67.272 9.081 71.3372 9.081 76.3525C4.06421 76.3525 0.00189209 80.4192 0.00189209 85.4331C0.00189209 90.447 4.06421 94.5136 9.081 94.5136C9.081 99.529 13.1462 103.596 18.1601 103.596C23.174 103.596 27.2421 99.5304 27.2421 94.5136C32.2589 94.5136 36.3212 90.4484 36.3212 85.4331C36.3212 80.4177 32.2589 76.3525 27.2421 76.3525Z" fill="url(#paint0_linear_3869_13150)"/>
<path d="M18.1597 102.012C14.0265 102.012 10.6627 98.6482 10.6627 94.5135V92.93H9.07916C4.94598 92.93 1.58362 89.5662 1.58362 85.4315C1.58362 81.2969 4.94598 77.9346 9.07916 77.9346H10.6627V76.351C10.6627 72.2178 14.0251 68.854 18.1597 68.854C22.2943 68.854 25.6581 72.2164 25.6581 76.351V77.9346H27.2417C31.3763 77.9346 34.7401 81.2984 34.7401 85.4315C34.7401 89.5647 31.3763 92.93 27.2417 92.93H25.6581V94.5135C25.6581 98.6482 22.2943 102.012 18.1597 102.012ZM9.0806 78.2947C5.14555 78.2947 1.94372 81.4965 1.94372 85.433C1.94372 89.3695 5.14555 92.5713 9.0806 92.5713H11.0243V94.5135C11.0243 98.45 14.2261 101.652 18.1612 101.652C22.0962 101.652 25.2995 98.45 25.2995 94.5135V92.5713H27.2431C31.1796 92.5713 34.3829 89.3695 34.3829 85.433C34.3829 81.4965 31.1796 78.2947 27.2431 78.2947H25.2995V76.3524C25.2995 72.4174 22.0976 69.2155 18.1612 69.2155C14.2247 69.2155 11.0243 72.4174 11.0243 76.3524V78.2947H9.0806Z" fill="#B62F34"/>
<path d="M20.303 85.433C20.303 86.616 19.3441 87.5763 18.1612 87.5763C16.9782 87.5763 16.0165 86.616 16.0165 85.433C16.0165 84.2501 16.9753 83.2913 18.1612 83.2913C19.347 83.2913 20.303 84.2501 20.303 85.433Z" fill="#B62F34"/>
<path d="M19.2318 78.6476C19.2318 80.6491 18.7531 82.2688 18.1631 82.2688C17.5731 82.2688 17.0915 80.6476 17.0915 78.6476C17.0915 76.6475 17.5731 75.0249 18.1631 75.0249C18.7531 75.0249 19.2318 76.6461 19.2318 78.6476Z" fill="#B62F34"/>
<path d="M11.375 84.3616C13.3765 84.3616 14.9991 84.8403 14.9991 85.4317C14.9991 86.0232 13.3765 86.5034 11.375 86.5034C9.37346 86.5034 7.75519 86.0232 7.75519 85.4317C7.75519 84.8403 9.37635 84.3616 11.375 84.3616Z" fill="#B62F34"/>
<path d="M17.09 92.2184C17.09 90.2183 17.5716 88.5957 18.1616 88.5957C18.7517 88.5957 19.2304 90.2183 19.2304 92.2184C19.2304 94.2184 18.7517 95.8411 18.1616 95.8411C17.5716 95.8411 17.09 94.2199 17.09 92.2184Z" fill="#B62F34"/>
<path d="M24.9459 86.5046C22.9444 86.5046 21.3246 86.0245 21.3246 85.433C21.3246 84.8415 22.9458 84.3628 24.9459 84.3628C26.9459 84.3628 28.57 84.8415 28.57 85.433C28.57 86.0245 26.9474 86.5046 24.9459 86.5046Z" fill="#B62F34"/>
<path d="M22.7182 82.1184C21.5583 83.2797 20.3392 83.9421 19.995 83.5979C19.6523 83.2551 20.3132 82.036 21.4759 80.8762C22.6386 79.7149 23.8548 79.0525 24.2005 79.3953C24.5418 79.7395 23.878 80.9586 22.7182 82.1184Z" fill="#B62F34"/>
<path d="M14.8456 80.8763C16.0083 82.0361 16.6692 83.2552 16.3265 83.5994C15.9837 83.9422 14.7631 83.2798 13.6019 82.1185C12.442 80.9587 11.7782 79.7396 12.1239 79.3954C12.4666 79.0541 13.6843 79.7164 14.847 80.8763H14.8456Z" fill="#B62F34"/>
<path d="M13.6017 88.7476C14.7644 87.5877 15.9835 86.9239 16.3263 87.2681C16.669 87.6109 16.0081 88.8314 14.8454 89.9913C13.6826 91.1526 12.4664 91.8149 12.1222 91.4722C11.7766 91.1294 12.4404 89.9088 13.6002 88.749L13.6017 88.7476Z" fill="#B62F34"/>
<path d="M21.4759 89.9913C20.3132 88.8314 19.6523 87.6123 19.995 87.2681C20.3363 86.9239 21.5583 87.5877 22.7182 88.7476C23.878 89.9074 24.5418 91.128 24.2005 91.4707C23.8548 91.8149 22.6372 91.1526 21.4759 89.9898V89.9913Z" fill="#B62F34"/>
<path d="M20.6095 65.1993C20.6095 66.5515 19.5119 67.6477 18.1626 67.6477C16.8133 67.6477 15.7128 66.5515 15.7128 65.1993C15.7128 63.8472 16.8104 62.7495 18.1626 62.7495C19.5148 62.7495 20.6095 63.8457 20.6095 65.1993Z" fill="url(#paint1_linear_3869_13150)"/>
<path d="M18.4289 0H17.8895V65.1995H18.4289V0Z" fill="url(#paint2_linear_3869_13150)"/>
<path d="M20.607 125.193C20.607 126.546 19.5122 127.641 18.163 127.641C16.8137 127.641 15.7131 126.545 15.7131 125.193C15.7131 123.841 16.8108 122.744 18.163 122.744C19.5151 122.744 20.607 123.841 20.607 125.193Z" fill="url(#paint3_linear_3869_13150)"/>
<path d="M18.4293 102.767H17.8898V125.194H18.4293V102.767Z" fill="url(#paint4_linear_3869_13150)"/>
</g>
<g clip-path="url(#clip1_3869_13150)">
<path d="M50.8498 57.1656C50.8498 54.9288 49.0746 53.1157 46.8867 53.1157C44.6988 53.1157 42.9249 54.9288 42.9249 57.1656C40.7358 57.1656 38.9631 58.9792 38.9631 61.2154C38.9631 63.4515 40.7358 65.2652 42.9249 65.2652C42.9249 67.502 44.6988 69.3157 46.8867 69.3157C49.0746 69.3157 50.8498 67.5026 50.8498 65.2652C53.0389 65.2652 54.8116 63.4522 54.8116 61.2154C54.8116 58.9786 53.0389 57.1656 50.8498 57.1656Z" fill="url(#paint5_linear_3869_13150)"/>
<path d="M46.8863 68.6096C45.0828 68.6096 43.6149 67.1094 43.6149 65.2654V64.5592H42.9239C41.1204 64.5592 39.6531 63.0589 39.6531 61.2149C39.6531 59.3709 41.1204 57.8714 42.9239 57.8714H43.6149V57.1651C43.6149 55.3218 45.0821 53.8215 46.8863 53.8215C48.6905 53.8215 50.1584 55.3211 50.1584 57.1651V57.8714H50.8494C52.6536 57.8714 54.1214 59.3716 54.1214 61.2149C54.1214 63.0583 52.6536 64.5592 50.8494 64.5592H50.1584V65.2654C50.1584 67.1094 48.6905 68.6096 46.8863 68.6096ZM42.9245 58.032C41.2074 58.032 39.8103 59.4599 39.8103 61.2156C39.8103 62.9712 41.2074 64.3992 42.9245 64.3992H43.7727V65.2654C43.7727 67.021 45.1699 68.449 46.887 68.449C48.6041 68.449 50.0019 67.021 50.0019 65.2654V64.3992H50.85C52.5678 64.3992 53.9656 62.9712 53.9656 61.2156C53.9656 59.4599 52.5678 58.032 50.85 58.032H50.0019V57.1658C50.0019 55.4108 48.6047 53.9828 46.887 53.9828C45.1692 53.9828 43.7727 55.4108 43.7727 57.1658V58.032H42.9245Z" fill="#B62F34"/>
<path d="M47.8217 61.2155C47.8217 61.7431 47.4033 62.1713 46.8871 62.1713C46.3709 62.1713 45.9512 61.7431 45.9512 61.2155C45.9512 60.6879 46.3696 60.2603 46.8871 60.2603C47.4046 60.2603 47.8217 60.6879 47.8217 61.2155Z" fill="#B62F34"/>
<path d="M47.3542 58.1892C47.3542 59.0818 47.1453 59.8042 46.8878 59.8042C46.6304 59.8042 46.4202 59.0812 46.4202 58.1892C46.4202 57.2972 46.6304 56.5735 46.8878 56.5735C47.1453 56.5735 47.3542 57.2965 47.3542 58.1892Z" fill="#B62F34"/>
<path d="M43.9257 60.7375C44.7991 60.7375 45.5071 60.951 45.5071 61.2148C45.5071 61.4786 44.7991 61.6928 43.9257 61.6928C43.0523 61.6928 42.3461 61.4786 42.3461 61.2148C42.3461 60.951 43.0535 60.7375 43.9257 60.7375Z" fill="#B62F34"/>
<path d="M46.4193 64.2417C46.4193 63.3496 46.6295 62.626 46.8869 62.626C47.1444 62.626 47.3533 63.3496 47.3533 64.2417C47.3533 65.1337 47.1444 65.8573 46.8869 65.8573C46.6295 65.8573 46.4193 65.1343 46.4193 64.2417Z" fill="#B62F34"/>
<path d="M49.8478 61.6933C48.9744 61.6933 48.2676 61.4791 48.2676 61.2153C48.2676 60.9515 48.975 60.738 49.8478 60.738C50.7205 60.738 51.4292 60.9515 51.4292 61.2153C51.4292 61.4791 50.7211 61.6933 49.8478 61.6933Z" fill="#B62F34"/>
<path d="M48.8756 59.7372C48.3695 60.2551 47.8376 60.5505 47.6874 60.397C47.5378 60.2442 47.8262 59.7004 48.3336 59.1832C48.8409 58.6653 49.3717 58.3699 49.5225 58.5227C49.6714 58.6762 49.3818 59.2199 48.8756 59.7372Z" fill="#B62F34"/>
<path d="M45.4407 59.1831C45.9481 59.7004 46.2365 60.2441 46.0869 60.3976C45.9374 60.5505 45.4048 60.2551 44.898 59.7372C44.3919 59.2199 44.1022 58.6762 44.2531 58.5227C44.4026 58.3705 44.934 58.6659 45.4414 59.1831H45.4407Z" fill="#B62F34"/>
<path d="M44.8979 62.6938C45.4052 62.1765 45.9372 61.8804 46.0868 62.0339C46.2363 62.1868 45.9479 62.7312 45.4406 63.2484C44.9332 63.7664 44.4025 64.0618 44.2523 63.9089C44.1015 63.756 44.3911 63.2117 44.8972 62.6944L44.8979 62.6938Z" fill="#B62F34"/>
<path d="M48.3336 63.2484C47.8262 62.7312 47.5378 62.1874 47.6874 62.0339C47.8363 61.8804 48.3695 62.1765 48.8756 62.6938C49.3818 63.211 49.6714 63.7554 49.5225 63.9082C49.3717 64.0618 48.8403 63.7664 48.3336 63.2478V63.2484Z" fill="#B62F34"/>
<path d="M47.9552 52.1915C47.9552 52.7945 47.4762 53.2834 46.8874 53.2834C46.2987 53.2834 45.8184 52.7945 45.8184 52.1915C45.8184 51.5884 46.2974 51.0989 46.8874 51.0989C47.4775 51.0989 47.9552 51.5878 47.9552 52.1915Z" fill="url(#paint6_linear_3869_13150)"/>
<path d="M47.0039 23.1133H46.7686V52.1916H47.0039V23.1133Z" fill="url(#paint7_linear_3869_13150)"/>
<path d="M47.9544 78.9479C47.9544 79.5516 47.4766 80.0399 46.8879 80.0399C46.2991 80.0399 45.8188 79.551 45.8188 78.9479C45.8188 78.3449 46.2978 77.856 46.8879 77.856C47.4779 77.856 47.9544 78.3449 47.9544 78.9479Z" fill="url(#paint8_linear_3869_13150)"/>
<path d="M47.0044 68.9463H46.769V78.9486H47.0044V68.9463Z" fill="url(#paint9_linear_3869_13150)"/>
</g>
<g clip-path="url(#clip2_3869_13150)">
<path d="M67.5936 72.5324C67.5936 71.2816 66.6009 70.2678 65.3775 70.2678C64.154 70.2678 63.1621 71.2816 63.1621 72.5324C61.938 72.5324 60.9467 73.5466 60.9467 74.797C60.9467 76.0475 61.938 77.0616 63.1621 77.0616C63.1621 78.3124 64.154 79.3266 65.3775 79.3266C66.6009 79.3266 67.5936 78.3128 67.5936 77.0616C68.8177 77.0616 69.8089 76.0478 69.8089 74.797C69.8089 73.5463 68.8177 72.5324 67.5936 72.5324Z" fill="url(#paint10_linear_3869_13150)"/>
<path d="M65.3772 78.9316C64.3686 78.9316 63.5478 78.0927 63.5478 77.0616V76.6667H63.1614C62.1529 76.6667 61.3325 75.8278 61.3325 74.7966C61.3325 73.7655 62.1529 72.927 63.1614 72.927H63.5478V72.532C63.5478 71.5013 64.3683 70.6624 65.3772 70.6624C66.386 70.6624 67.2068 71.5009 67.2068 72.532V72.927H67.5932C68.6021 72.927 69.4229 73.7659 69.4229 74.7966C69.4229 75.8274 68.6021 76.6667 67.5932 76.6667H67.2068V77.0616C67.2068 78.0927 66.386 78.9316 65.3772 78.9316ZM63.1618 73.0168C62.2016 73.0168 61.4203 73.8153 61.4203 74.797C61.4203 75.7787 62.2016 76.5772 63.1618 76.5772H63.6361V77.0616C63.6361 78.0433 64.4173 78.8418 65.3775 78.8418C66.3377 78.8418 67.1193 78.0433 67.1193 77.0616V76.5772H67.5936C68.5541 76.5772 69.3358 75.7787 69.3358 74.797C69.3358 73.8153 68.5541 73.0168 67.5936 73.0168H67.1193V72.5324C67.1193 71.551 66.3381 70.7525 65.3775 70.7525C64.417 70.7525 63.6361 71.551 63.6361 72.5324V73.0168H63.1618Z" fill="#B62F34"/>
<path d="M65.9002 74.7968C65.9002 75.0919 65.6662 75.3313 65.3776 75.3313C65.0889 75.3313 64.8542 75.0919 64.8542 74.7968C64.8542 74.5018 65.0882 74.2627 65.3776 74.2627C65.6669 74.2627 65.9002 74.5018 65.9002 74.7968Z" fill="#B62F34"/>
<path d="M65.6387 73.1046C65.6387 73.6038 65.5219 74.0077 65.3779 74.0077C65.2339 74.0077 65.1164 73.6034 65.1164 73.1046C65.1164 72.6058 65.2339 72.2012 65.3779 72.2012C65.5219 72.2012 65.6387 72.6055 65.6387 73.1046Z" fill="#B62F34"/>
<path d="M63.7216 74.5298C64.21 74.5298 64.6059 74.6492 64.6059 74.7967C64.6059 74.9442 64.21 75.0639 63.7216 75.0639C63.2332 75.0639 62.8383 74.9442 62.8383 74.7967C62.8383 74.6492 63.2339 74.5298 63.7216 74.5298Z" fill="#B62F34"/>
<path d="M65.116 76.4892C65.116 75.9904 65.2335 75.5857 65.3775 75.5857C65.5215 75.5857 65.6383 75.9904 65.6383 76.4892C65.6383 76.988 65.5215 77.3926 65.3775 77.3926C65.2335 77.3926 65.116 76.9883 65.116 76.4892Z" fill="#B62F34"/>
<path d="M67.0331 75.0642C66.5447 75.0642 66.1495 74.9444 66.1495 74.7969C66.1495 74.6494 66.5451 74.53 67.0331 74.53C67.5211 74.53 67.9174 74.6494 67.9174 74.7969C67.9174 74.9444 67.5215 75.0642 67.0331 75.0642Z" fill="#B62F34"/>
<path d="M66.4895 73.9702C66.2065 74.2598 65.909 74.425 65.8251 74.3392C65.7414 74.2537 65.9027 73.9497 66.1864 73.6604C66.4701 73.3708 66.7669 73.2056 66.8512 73.2911C66.9345 73.3769 66.7725 73.681 66.4895 73.9702Z" fill="#B62F34"/>
<path d="M64.5691 73.6605C64.8529 73.9497 65.0141 74.2538 64.9305 74.3396C64.8469 74.4251 64.549 74.2599 64.2657 73.9703C63.9827 73.681 63.8207 73.377 63.905 73.2912C63.9887 73.2061 64.2858 73.3712 64.5695 73.6605H64.5691Z" fill="#B62F34"/>
<path d="M64.2652 75.6236C64.5489 75.3343 64.8464 75.1688 64.93 75.2546C65.0137 75.3401 64.8524 75.6445 64.5687 75.9337C64.285 76.2233 63.9882 76.3885 63.9042 76.303C63.8199 76.2176 63.9819 75.9132 64.2649 75.6239L64.2652 75.6236Z" fill="#B62F34"/>
<path d="M66.1864 75.9337C65.9027 75.6445 65.7414 75.3404 65.8251 75.2546C65.9083 75.1688 66.2065 75.3343 66.4895 75.6236C66.7725 75.9128 66.9345 76.2172 66.8512 76.3027C66.7669 76.3885 66.4698 76.2233 66.1864 75.9334V75.9337Z" fill="#B62F34"/>
<path d="M65.9751 69.7509C65.9751 70.0881 65.7072 70.3615 65.378 70.3615C65.0488 70.3615 64.7802 70.0881 64.7802 69.7509C64.7802 69.4136 65.048 69.1399 65.378 69.1399C65.7079 69.1399 65.9751 69.4133 65.9751 69.7509Z" fill="url(#paint11_linear_3869_13150)"/>
<path d="M65.4428 53.4907H65.3112V69.7509H65.4428V53.4907Z" fill="url(#paint12_linear_3869_13150)"/>
<path d="M65.9743 84.7127C65.9743 85.0502 65.7072 85.3233 65.3779 85.3233C65.0487 85.3233 64.7802 85.0499 64.7802 84.7127C64.7802 84.3754 65.048 84.1021 65.3779 84.1021C65.7079 84.1021 65.9743 84.3754 65.9743 84.7127Z" fill="url(#paint13_linear_3869_13150)"/>
<path d="M65.4431 79.1199H65.3115V84.713H65.4431V79.1199Z" fill="url(#paint14_linear_3869_13150)"/>
</g>
<defs>
<linearGradient id="paint0_linear_3869_13150" x1="21.3222" y1="112.379" x2="21.3222" y2="63.5736" gradientUnits="userSpaceOnUse">
<stop stop-color="#F8B500"/>
<stop offset="1" stop-color="#FCEABB"/>
</linearGradient>
<linearGradient id="paint1_linear_3869_13150" x1="18.5873" y1="68.8322" x2="18.5873" y2="62.2508" gradientUnits="userSpaceOnUse">
<stop stop-color="#F8B500"/>
<stop offset="1" stop-color="#FCEABB"/>
</linearGradient>
<linearGradient id="paint2_linear_3869_13150" x1="18.2061" y1="80.9659" x2="18.2059" y2="-6.63849" gradientUnits="userSpaceOnUse">
<stop stop-color="#F8B500"/>
<stop offset="1" stop-color="#FCEABB"/>
</linearGradient>
<linearGradient id="paint3_linear_3869_13150" x1="18.586" y1="128.825" x2="18.586" y2="122.246" gradientUnits="userSpaceOnUse">
<stop stop-color="#F8B500"/>
<stop offset="1" stop-color="#FCEABB"/>
</linearGradient>
<linearGradient id="paint4_linear_3869_13150" x1="18.2065" y1="130.618" x2="18.2065" y2="100.483" gradientUnits="userSpaceOnUse">
<stop stop-color="#F8B500"/>
<stop offset="1" stop-color="#FCEABB"/>
</linearGradient>
<linearGradient id="paint5_linear_3869_13150" x1="48.2666" y1="73.2331" x2="48.2666" y2="51.4663" gradientUnits="userSpaceOnUse">
<stop stop-color="#F8B500"/>
<stop offset="1" stop-color="#FCEABB"/>
</linearGradient>
<linearGradient id="paint6_linear_3869_13150" x1="47.0728" y1="53.8117" x2="47.0728" y2="50.8765" gradientUnits="userSpaceOnUse">
<stop stop-color="#F8B500"/>
<stop offset="1" stop-color="#FCEABB"/>
</linearGradient>
<linearGradient id="paint7_linear_3869_13150" x1="46.9067" y1="59.2232" x2="46.9066" y2="20.1526" gradientUnits="userSpaceOnUse">
<stop stop-color="#F8B500"/>
<stop offset="1" stop-color="#FCEABB"/>
</linearGradient>
<linearGradient id="paint8_linear_3869_13150" x1="47.0724" y1="80.568" x2="47.0724" y2="77.6336" gradientUnits="userSpaceOnUse">
<stop stop-color="#F8B500"/>
<stop offset="1" stop-color="#FCEABB"/>
</linearGradient>
<linearGradient id="paint9_linear_3869_13150" x1="46.9072" y1="81.3674" x2="46.9071" y2="67.9279" gradientUnits="userSpaceOnUse">
<stop stop-color="#F8B500"/>
<stop offset="1" stop-color="#FCEABB"/>
</linearGradient>
<linearGradient id="paint10_linear_3869_13150" x1="66.1491" y1="81.5172" x2="66.1491" y2="69.3455" gradientUnits="userSpaceOnUse">
<stop stop-color="#F8B500"/>
<stop offset="1" stop-color="#FCEABB"/>
</linearGradient>
<linearGradient id="paint11_linear_3869_13150" x1="65.4816" y1="70.6569" x2="65.4816" y2="69.0155" gradientUnits="userSpaceOnUse">
<stop stop-color="#F8B500"/>
<stop offset="1" stop-color="#FCEABB"/>
</linearGradient>
<linearGradient id="paint12_linear_3869_13150" x1="65.3884" y1="73.6829" x2="65.3884" y2="51.8351" gradientUnits="userSpaceOnUse">
<stop stop-color="#F8B500"/>
<stop offset="1" stop-color="#FCEABB"/>
</linearGradient>
<linearGradient id="paint13_linear_3869_13150" x1="65.4811" y1="85.6186" x2="65.4811" y2="83.9777" gradientUnits="userSpaceOnUse">
<stop stop-color="#F8B500"/>
<stop offset="1" stop-color="#FCEABB"/>
</linearGradient>
<linearGradient id="paint14_linear_3869_13150" x1="65.3887" y1="86.0656" x2="65.3887" y2="78.5504" gradientUnits="userSpaceOnUse">
<stop stop-color="#F8B500"/>
<stop offset="1" stop-color="#FCEABB"/>
</linearGradient>
<clipPath id="clip0_3869_13150">
<rect width="36.3208" height="127.643" fill="white"/>
</clipPath>
<clipPath id="clip1_3869_13150">
<rect width="15.8491" height="56.9272" fill="white" transform="translate(38.9623 23.1133)"/>
</clipPath>
<clipPath id="clip2_3869_13150">
<rect width="8.86256" height="31.8329" fill="white" transform="translate(60.946 53.4907)"/>
</clipPath>
</defs>
</svg>
