<svg width="105" height="72" viewBox="0 0 105 72" fill="none" xmlns="http://www.w3.org/2000/svg">
<g clip-path="url(#clip0_3870_13248)">
<g clip-path="url(#clip1_3870_13248)">
<path d="M31.0471 30.7711C45.2697 45.2301 14.5225 53.1124 19.9547 33.6194C14.5225 53.1124 -7.71996 30.4991 11.9445 25.465C-7.71996 30.4991 0.80397 0.00981894 15.0234 14.4592C0.80397 0.00981894 31.5672 -7.87572 26.1125 11.6141C31.5672 -7.87572 53.7936 14.7376 34.1228 19.7717C53.7904 14.7376 45.2697 45.2301 31.0439 30.7711H31.0471Z" fill="url(#paint0_linear_3870_13248)"/>
<path d="M17.8167 20.1364C20.8378 20.9845 23.1879 22.0886 23.0402 22.6199C22.8829 23.1511 20.3112 22.8855 17.2869 22.0502C14.2562 21.1957 11.9125 20.1012 12.0602 19.5668C12.2079 19.0323 14.7795 19.2915 17.8167 20.1364V20.1364Z" fill="#B62F34"/>
<path d="M17.5821 24.5463C20.3207 23.0006 22.7607 22.1397 23.04 22.6197C23.3065 23.0966 21.3127 24.7223 18.5581 26.2809C15.8195 27.8042 13.3763 28.6747 13.1131 28.1979C12.8306 27.7242 14.8371 26.0953 17.5821 24.5495V24.5463Z" fill="#B62F34"/>
<path d="M20.555 27.8361C21.3898 24.8086 22.507 22.4756 23.04 22.6196C23.5633 22.77 23.3032 25.3367 22.4492 28.3449C21.6145 31.3692 20.5069 33.7118 19.9739 33.5486C19.4506 33.4078 19.7074 30.8476 20.5518 27.8361H20.555Z" fill="#B62F34"/>
<path d="M24.976 28.0411C23.4286 25.3048 22.5617 22.8758 23.0401 22.6166C23.5249 22.3445 25.1494 24.3447 26.7033 27.0714C28.2411 29.8172 29.1112 32.2335 28.6328 32.5087C28.1545 32.7807 26.5203 30.7773 24.9728 28.0411H24.976Z" fill="#B62F34"/>
<path d="M28.2605 25.0999C25.2234 24.2487 22.8829 23.151 23.0402 22.6197C23.1879 22.0885 25.7563 22.3509 28.7999 23.1894C31.8306 24.0502 34.1582 25.1383 34.0106 25.6696C33.8661 26.1912 31.3009 25.948 28.2605 25.0999Z" fill="#B62F34"/>
<path d="M28.4883 20.6834C25.7498 22.2196 23.3066 23.0933 23.0401 22.6164C22.7608 22.1364 24.7641 20.5106 27.5188 18.9553C30.2573 17.4095 32.7006 16.5519 32.9606 17.0383C33.2431 17.5087 31.2301 19.1281 28.4916 20.6834H28.4883Z" fill="#B62F34"/>
<path d="M25.5156 17.4096C24.6905 20.4275 23.5636 22.7669 23.0403 22.6165C22.5074 22.4757 22.7674 19.8994 23.615 16.8848C24.4658 13.8541 25.5734 11.5179 26.0999 11.6715C26.6201 11.8187 26.3664 14.3853 25.5156 17.4096V17.4096Z" fill="#B62F34"/>
<path d="M21.1041 17.1792C22.6547 19.9218 23.5248 22.3445 23.04 22.6165C22.5584 22.8757 20.9275 20.8851 19.3704 18.1585C17.8229 15.4126 16.9785 12.9836 17.4376 12.7212C17.9128 12.4459 19.5598 14.4429 21.1008 17.176L21.1041 17.1792Z" fill="#B62F34"/>
<path d="M24 19.1954C25.9038 19.717 27.005 21.6788 26.4721 23.5734C25.952 25.4455 23.9711 26.5752 22.0833 26.0408C20.1762 25.5159 19.0654 23.5542 19.5887 21.666C20.1281 19.7682 22.0961 18.6577 24 19.1954V19.1954Z" fill="url(#paint1_linear_3870_13248)"/>
<path d="M23.0465 26.8536C22.6613 26.8536 22.276 26.7992 21.8972 26.6936C19.6434 26.0727 18.311 23.7365 18.9339 21.4867C19.576 19.2273 21.9293 17.9088 24.1831 18.5424C25.2746 18.8433 26.18 19.5473 26.7386 20.5298C27.2973 21.5155 27.4353 22.6612 27.1303 23.7557C26.8285 24.8438 26.1094 25.7495 25.1141 26.3096C24.4688 26.668 23.7625 26.8536 23.0497 26.8536H23.0465ZM23.0337 19.7393C21.772 19.7393 20.6065 20.5746 20.2437 21.8515C19.8232 23.3749 20.7285 24.9654 22.2664 25.3879C23.0016 25.5959 23.7721 25.5031 24.4463 25.1286C25.1269 24.7478 25.6117 24.1334 25.8204 23.3941C26.0291 22.6484 25.936 21.8675 25.5539 21.1987C25.1783 20.533 24.5619 20.0562 23.8203 19.8513C23.8203 19.8513 23.8203 19.8513 23.8171 19.8513C23.557 19.7777 23.2937 19.7425 23.0369 19.7425L23.0337 19.7393Z" fill="#B62F34"/>
</g>
<g clip-path="url(#clip2_3870_13248)">
<path d="M64.8604 62.5262C73.8502 71.75 54.4156 76.7784 57.8492 64.3432C54.4156 76.7784 40.3566 62.3527 52.7861 59.1413C40.3566 62.3527 45.7444 42.9026 54.7322 52.1203C45.7444 42.9026 65.1892 37.8722 61.7414 50.3053C65.1892 37.8722 79.238 52.2979 66.8045 55.5093C79.236 52.2979 73.8502 71.75 64.8584 62.5262H64.8604Z" fill="url(#paint2_linear_3870_13248)"/>
<path d="M56.4978 55.7422C58.4073 56.2832 59.8928 56.9876 59.7994 57.3265C59.7 57.6654 58.0745 57.4959 56.1629 56.9631C54.2473 56.418 52.7659 55.7197 52.8592 55.3788C52.9526 55.0379 54.578 55.2032 56.4978 55.7422V55.7422Z" fill="#B62F34"/>
<path d="M56.3495 58.5553C58.0805 57.5692 59.6228 57.02 59.7993 57.3263C59.9678 57.6304 58.7076 58.6676 56.9664 59.6618C55.2354 60.6336 53.6911 61.1889 53.5247 60.8847C53.3462 60.5826 54.6145 59.5434 56.3495 58.5573V58.5553Z" fill="#B62F34"/>
<path d="M58.2287 60.6541C58.7563 58.7227 59.4625 57.2344 59.7993 57.3263C60.1301 57.4223 59.9657 59.0596 59.4259 60.9787C58.8983 62.908 58.1982 64.4024 57.8613 64.2983C57.5306 64.2084 57.6929 62.5752 58.2266 60.6541H58.2287Z" fill="#B62F34"/>
<path d="M61.0231 60.7846C60.0449 59.0391 59.497 57.4895 59.7994 57.3241C60.1058 57.1506 61.1326 58.4266 62.1148 60.166C63.0869 61.9177 63.6368 63.4591 63.3344 63.6346C63.0321 63.8082 61.9992 62.5302 61.021 60.7846H61.0231Z" fill="#B62F34"/>
<path d="M63.0991 58.9086C61.1794 58.3655 59.7 57.6653 59.7995 57.3264C59.8928 56.9875 61.5163 57.1549 63.44 57.6898C65.3557 58.2389 66.8269 58.9331 66.7336 59.272C66.6423 59.6048 65.0209 59.4496 63.0991 58.9086Z" fill="#B62F34"/>
<path d="M63.2431 56.0912C61.5121 57.0711 59.9678 57.6285 59.7994 57.3243C59.6228 57.0181 60.8891 55.9809 62.6303 54.9887C64.3613 54.0027 65.9056 53.4555 66.0699 53.7658C66.2485 54.066 64.9761 55.099 63.2451 56.0912H63.2431Z" fill="#B62F34"/>
<path d="M61.3641 54.0028C60.8426 55.928 60.1303 57.4203 59.7995 57.3244C59.4627 57.2346 59.627 55.5911 60.1628 53.6679C60.7005 51.7346 61.4006 50.2442 61.7335 50.3422C62.0622 50.4361 61.9019 52.0735 61.3641 54.0028V54.0028Z" fill="#B62F34"/>
<path d="M58.5757 53.8557C59.5558 55.6053 60.1058 57.1508 59.7994 57.3243C59.495 57.4897 58.4641 56.2198 57.4799 54.4804C56.5017 52.7287 55.968 51.1792 56.2582 51.0118C56.5586 50.8362 57.5996 52.1101 58.5737 53.8536L58.5757 53.8557Z" fill="#B62F34"/>
<path d="M61.4369 54.2928C63.3407 54.8144 64.4419 56.7762 63.909 58.6708C63.3889 60.543 61.408 61.6727 59.5202 61.1382C57.6131 60.6134 56.5023 58.6516 57.0256 56.7634C57.565 54.8656 59.533 53.7551 61.4369 54.2928V54.2928Z" fill="url(#paint3_linear_3870_13248)"/>
<path d="M60.4834 61.951C60.0982 61.951 59.7129 61.8966 59.3341 61.791C57.0803 61.1701 55.7479 58.8339 56.3707 56.5841C57.0128 54.3247 59.3662 53.0062 61.6199 53.6398C62.7115 53.9407 63.6169 54.6447 64.1755 55.6272C64.7342 56.6129 64.8722 57.7586 64.5672 58.8531C64.2654 59.9412 63.5463 60.8469 62.551 61.407C61.9057 61.7654 61.1994 61.951 60.4866 61.951H60.4834ZM60.4706 54.8368C59.2088 54.8368 58.0434 55.672 57.6806 56.9489C57.2601 58.4723 58.1654 60.0628 59.7033 60.4853C60.4385 60.6933 61.209 60.6005 61.8832 60.2261C62.5638 59.8452 63.0486 59.2308 63.2573 58.4915C63.466 57.7458 63.3729 56.9649 62.9908 56.2961C62.6152 55.6304 61.9988 55.1536 61.2572 54.9488C61.2572 54.9488 61.2572 54.9488 61.2539 54.9488C60.9939 54.8752 60.7306 54.84 60.4738 54.84L60.4706 54.8368Z" fill="#B62F34"/>
</g>
<g clip-path="url(#clip3_3870_13248)">
<path d="M100.019 42.3069C104.393 46.7942 94.9382 49.2404 96.6086 43.1909C94.9382 49.2404 88.0987 42.2225 94.1454 40.6602C88.0987 42.2225 90.7197 32.7603 95.0922 37.2446C90.7197 32.7603 100.179 30.3131 98.5021 36.3616C100.179 30.3131 107.014 37.331 100.965 38.8933C107.013 37.331 104.393 46.7942 100.018 42.3069H100.019Z" fill="url(#paint4_linear_3870_13248)"/>
<path d="M95.9511 39.0066C96.8801 39.2698 97.6027 39.6125 97.5573 39.7773C97.5089 39.9422 96.7182 39.8598 95.7882 39.6005C94.8563 39.3354 94.1356 38.9957 94.181 38.8298C94.2264 38.664 95.0172 38.7444 95.9511 39.0066V39.0066Z" fill="#B62F34"/>
<path d="M95.8789 40.3752C96.721 39.8955 97.4713 39.6284 97.5572 39.7773C97.6391 39.9253 97.0261 40.4299 96.179 40.9136C95.3369 41.3863 94.5856 41.6565 94.5047 41.5085C94.4178 41.3615 95.0348 40.8559 95.8789 40.3762V40.3752Z" fill="#B62F34"/>
<path d="M96.7932 41.3963C97.0498 40.4567 97.3934 39.7327 97.5573 39.7774C97.7182 39.824 97.6382 40.6206 97.3756 41.5542C97.1189 42.4928 96.7783 43.2198 96.6145 43.1691C96.4536 43.1254 96.5325 42.3309 96.7922 41.3963H96.7932Z" fill="#B62F34"/>
<path d="M98.1525 41.4597C97.6767 40.6105 97.4101 39.8567 97.5572 39.7762C97.7063 39.6918 98.2058 40.3126 98.6836 41.1588C99.1565 42.0109 99.4241 42.7608 99.277 42.8462C99.1299 42.9306 98.6274 42.3089 98.1515 41.4597H98.1525Z" fill="#B62F34"/>
<path d="M99.1624 40.5469C98.2285 40.2827 97.5088 39.942 97.5572 39.7771C97.6026 39.6123 98.3924 39.6937 99.3283 39.9539C100.26 40.2211 100.976 40.5588 100.931 40.7237C100.886 40.8855 100.097 40.8101 99.1624 40.5469Z" fill="#B62F34"/>
<path d="M99.2326 39.1765C98.3905 39.6532 97.6392 39.9243 97.5573 39.7763C97.4714 39.6274 98.0875 39.1228 98.9345 38.6401C99.7766 38.1604 100.528 37.8942 100.608 38.0452C100.695 38.1912 100.076 38.6938 99.2336 39.1765H99.2326Z" fill="#B62F34"/>
<path d="M98.3184 38.1602C98.0647 39.0968 97.7182 39.8228 97.5573 39.7762C97.3934 39.7325 97.4734 38.9329 97.734 37.9973C97.9956 37.0568 98.3362 36.3317 98.4981 36.3794C98.658 36.4251 98.58 37.2217 98.3184 38.1602V38.1602Z" fill="#B62F34"/>
<path d="M96.962 38.0889C97.4388 38.9401 97.7063 39.6919 97.5573 39.7763C97.4092 39.8568 96.9077 39.239 96.4289 38.3928C95.953 37.5407 95.6934 36.7868 95.8345 36.7054C95.9807 36.62 96.4871 37.2397 96.961 38.0879L96.962 38.0889Z" fill="#B62F34"/>
<path d="M98.3537 38.3013C99.2799 38.5551 99.8156 39.5094 99.5564 40.4311C99.3033 41.3419 98.3397 41.8915 97.4213 41.6315C96.4935 41.3762 95.9531 40.4218 96.2077 39.5032C96.4701 38.58 97.4275 38.0397 98.3537 38.3013V38.3013Z" fill="url(#paint5_linear_3870_13248)"/>
<path d="M97.89 42.0271C97.7026 42.0271 97.5152 42.0006 97.3309 41.9492C96.2344 41.6472 95.5863 40.5106 95.8893 39.4161C96.2016 38.317 97.3465 37.6755 98.4429 37.9838C98.974 38.1301 99.4144 38.4727 99.6862 38.9506C99.9579 39.4302 100.025 39.9875 99.8767 40.52C99.7299 41.0493 99.3801 41.4899 98.8959 41.7624C98.5819 41.9368 98.2383 42.0271 97.8916 42.0271H97.89ZM97.8838 38.5661C97.27 38.5661 96.703 38.9724 96.5265 39.5936C96.3219 40.3347 96.7624 41.1085 97.5105 41.314C97.8682 41.4152 98.243 41.3701 98.571 41.1879C98.9021 41.0026 99.138 40.7037 99.2395 40.3441C99.341 39.9813 99.2957 39.6014 99.1099 39.276C98.9271 38.9522 98.6272 38.7202 98.2664 38.6206C98.2664 38.6206 98.2664 38.6206 98.2649 38.6206C98.1384 38.5848 98.0103 38.5676 97.8853 38.5676L97.8838 38.5661Z" fill="#B62F34"/>
</g>
</g>
<defs>
<linearGradient id="paint0_linear_3870_13248" x1="26.9718" y1="56.1742" x2="26.9718" y2="-4.60473" gradientUnits="userSpaceOnUse">
<stop stop-color="#F8B500"/>
<stop offset="1" stop-color="#FCEABB"/>
</linearGradient>
<linearGradient id="paint1_linear_3870_13248" x1="23.6548" y1="27.8939" x2="23.6548" y2="18.3355" gradientUnits="userSpaceOnUse">
<stop stop-color="#F8B500"/>
<stop offset="1" stop-color="#FCEABB"/>
</linearGradient>
<linearGradient id="paint2_linear_3870_13248" x1="62.2845" y1="78.7316" x2="62.2845" y2="39.9588" gradientUnits="userSpaceOnUse">
<stop stop-color="#F8B500"/>
<stop offset="1" stop-color="#FCEABB"/>
</linearGradient>
<linearGradient id="paint3_linear_3870_13248" x1="61.0917" y1="62.9913" x2="61.0917" y2="53.4329" gradientUnits="userSpaceOnUse">
<stop stop-color="#F8B500"/>
<stop offset="1" stop-color="#FCEABB"/>
</linearGradient>
<linearGradient id="paint4_linear_3870_13248" x1="98.7663" y1="50.1906" x2="98.7663" y2="31.3282" gradientUnits="userSpaceOnUse">
<stop stop-color="#F8B500"/>
<stop offset="1" stop-color="#FCEABB"/>
</linearGradient>
<linearGradient id="paint5_linear_3870_13248" x1="98.1858" y1="42.533" x2="98.1858" y2="37.883" gradientUnits="userSpaceOnUse">
<stop stop-color="#F8B500"/>
<stop offset="1" stop-color="#FCEABB"/>
</linearGradient>
<clipPath id="clip0_3870_13248">
<rect width="105" height="72" fill="white"/>
</clipPath>
<clipPath id="clip1_3870_13248">
<rect width="45.6551" height="45.2362" fill="white"/>
</clipPath>
<clipPath id="clip2_3870_13248">
<rect width="28.8576" height="28.8576" fill="white" transform="translate(45.2363 42.8965)"/>
</clipPath>
<clipPath id="clip3_3870_13248">
<rect width="14.0388" height="14.0388" fill="white" transform="translate(90.4725 32.7573)"/>
</clipPath>
</defs>
</svg>
