<svg width="20" height="20" viewBox="0 0 20 20" fill="none" xmlns="http://www.w3.org/2000/svg">
<path d="M18.4375 7.5H11.5281C11.5281 7.5 11.5406 7.50937 11.5469 7.51562L14.0312 10L14.6531 10.625H17.8125V15.9375C17.8125 17.1438 16.8312 18.125 15.625 18.125H4.375C3.16875 18.125 2.1875 17.1438 2.1875 15.9375V10.625H8.46875L8.45312 10.6094C8.45312 10.6094 8.44062 10.5937 8.43125 10.5844C8.26562 10.4125 8.12813 10.2156 8.02813 10C7.8875 9.71563 7.8125 9.39688 7.8125 9.0625C7.8125 8.72812 7.8875 8.40938 8.025 8.125C8.13438 7.89062 8.2875 7.67812 8.47188 7.5H1.5625C1.04688 7.5 0.625 7.92188 0.625 8.4375V9.6875C0.625 10.2031 1.04688 10.625 1.5625 10.625V15.9375C1.5625 17.4875 2.825 18.75 4.375 18.75H15.625C17.175 18.75 18.4375 17.4875 18.4375 15.9375V10.625C18.9531 10.625 19.375 10.2031 19.375 9.6875V8.4375C19.375 7.92188 18.9531 7.5 18.4375 7.5Z" fill="white"/>
<path d="M15.4844 16.1125C15.9031 16.1125 16.2969 15.9469 16.5875 15.6531C16.8844 15.3594 17.05 14.9656 17.05 14.55C17.05 14.1344 16.8844 13.7375 16.5906 13.4438L11.1063 7.95625C10.8219 7.675 10.4312 7.5 10 7.5C9.1375 7.5 8.4375 8.2 8.4375 9.0625C8.4375 9.49375 8.6125 9.88438 8.89375 10.1688L14.3813 15.65C14.675 15.9469 15.0687 16.1125 15.4844 16.1125ZM10 10C9.74375 10 9.50625 9.89375 9.3375 9.725C9.16875 9.55625 9.0625 9.31875 9.0625 9.0625C9.0625 8.54688 9.48438 8.125 10 8.125C10.2563 8.125 10.4937 8.23125 10.6625 8.4C10.8312 8.56875 10.9375 8.80625 10.9375 9.0625C10.9375 9.57812 10.5156 10 10 10Z" fill="white"/>
<path d="M11.25 14.1594V16.5625C11.25 16.7344 11.3906 16.875 11.5625 16.875C11.7344 16.875 11.875 16.7344 11.875 16.5625V14.1594C11.875 13.9875 11.7344 13.8469 11.5625 13.8469C11.3906 13.8469 11.25 13.9875 11.25 14.1594Z" fill="white"/>
<path d="M8.125 12.1875V16.5625C8.125 16.7344 8.26562 16.875 8.4375 16.875C8.60938 16.875 8.75 16.7344 8.75 16.5625V12.1875C8.75 12.0156 8.60938 11.875 8.4375 11.875C8.26562 11.875 8.125 12.0156 8.125 12.1875Z" fill="white"/>
<path d="M5 12.1875V16.5625C5 16.7344 5.14062 16.875 5.3125 16.875C5.48438 16.875 5.625 16.7344 5.625 16.5625V12.1875C5.625 12.0156 5.48438 11.875 5.3125 11.875C5.14062 11.875 5 12.0156 5 12.1875Z" fill="white"/>
<path d="M6.2499 4.6875C6.99365 4.6875 7.67803 4.95 8.21553 5.38125C8.22178 5.3875 8.23115 5.39375 8.2374 5.4C8.69678 5.78438 9.04678 6.29375 9.23115 6.875H14.9999V3.125H16.8749V6.875H17.4999V2.8125C17.4999 2.64062 17.3593 2.5 17.1874 2.5H14.9999V1.5625C14.9999 1.39062 14.8593 1.25 14.6874 1.25H8.4374C8.26553 1.25 8.1249 1.39062 8.1249 1.5625V4.56562C7.57178 4.24375 6.93115 4.0625 6.2499 4.0625C4.50303 4.0625 3.03428 5.25938 2.61865 6.875H3.26865C3.66865 5.60938 4.85303 4.6875 6.2499 4.6875Z" fill="white"/>
</svg>
