<svg width="20" height="20" viewBox="0 0 20 20" fill="none" xmlns="http://www.w3.org/2000/svg">
<path d="M19.3562 17.3906L17.4812 12.3906H17.478C17.4655 12.3531 17.4437 12.3219 17.4187 12.2937C17.4187 12.2906 17.4187 12.2875 17.4124 12.2844L10.8499 5.40937C10.7905 5.34687 10.7093 5.3125 10.6249 5.3125H7.49991C7.49991 5.3125 7.46866 5.31875 7.45304 5.32188C7.42804 5.325 7.40304 5.32812 7.37804 5.3375C7.34054 5.35312 7.30616 5.375 7.27804 5.40313L4.46554 8.21563C4.35616 8.32813 4.34366 8.50313 4.43741 8.625L7.14054 12.1875H2.81241C2.68116 12.1875 2.56554 12.2688 2.51866 12.3906L0.643662 17.3906C0.609287 17.4875 0.621787 17.5938 0.681162 17.6781C0.737412 17.7625 0.834287 17.8125 0.937412 17.8125H19.0624C19.1655 17.8125 19.2624 17.7625 19.3187 17.6781C19.378 17.5938 19.3905 17.4875 19.3562 17.3906ZM1.38741 17.1875L3.02804 12.8125H6.34679L7.98741 17.1875H1.38741ZM5.09991 8.46563L7.48429 6.08437L13.0812 12.5625L11.4687 16.8594L5.09991 8.46563ZM12.0124 17.1875L13.653 12.8125H16.9718L18.6124 17.1875H12.0124Z" fill="white"/>
<path d="M13.4375 5C14.4719 5 15.3125 5.84063 15.3125 6.875C15.3125 7.04688 15.4531 7.1875 15.625 7.1875C15.7969 7.1875 15.9375 7.04688 15.9375 6.875C15.9375 5.84063 16.7781 5 17.8125 5C17.9844 5 18.125 4.85938 18.125 4.6875C18.125 4.51562 17.9844 4.375 17.8125 4.375C16.7781 4.375 15.9375 3.53437 15.9375 2.5C15.9375 2.32812 15.7969 2.1875 15.625 2.1875C15.4531 2.1875 15.3125 2.32812 15.3125 2.5C15.3125 3.53437 14.4719 4.375 13.4375 4.375C13.2656 4.375 13.125 4.51562 13.125 4.6875C13.125 4.85938 13.2656 5 13.4375 5Z" fill="white"/>
<path d="M1.25 7.1875C1.94062 7.1875 2.5 7.74688 2.5 8.4375C2.5 8.60938 2.64062 8.75 2.8125 8.75C2.98438 8.75 3.125 8.60938 3.125 8.4375C3.125 7.74688 3.68438 7.1875 4.375 7.1875C4.54688 7.1875 4.6875 7.04688 4.6875 6.875C4.6875 6.70312 4.54688 6.5625 4.375 6.5625C3.68438 6.5625 3.125 6.00312 3.125 5.3125C3.125 5.14062 2.98438 5 2.8125 5C2.64062 5 2.5 5.14062 2.5 5.3125C2.5 6.00312 1.94062 6.5625 1.25 6.5625C1.07812 6.5625 0.9375 6.70312 0.9375 6.875C0.9375 7.04688 1.07812 7.1875 1.25 7.1875Z" fill="white"/>
</svg>
