<svg width="20" height="20" viewBox="0 0 20 20" fill="none" xmlns="http://www.w3.org/2000/svg">
<path d="M12.8125 5.9375H4.0625C3.89062 5.9375 3.75 6.07812 3.75 6.25C3.75 6.42188 3.89062 6.5625 4.0625 6.5625H12.8125C12.9844 6.5625 13.125 6.42188 13.125 6.25C13.125 6.07812 12.9844 5.9375 12.8125 5.9375Z" fill="white"/>
<path d="M12.8125 3.75H7.8125C7.64062 3.75 7.5 3.89062 7.5 4.0625C7.5 4.23438 7.64062 4.375 7.8125 4.375H12.8125C12.9844 4.375 13.125 4.23438 13.125 4.0625C13.125 3.89062 12.9844 3.75 12.8125 3.75Z" fill="white"/>
<path d="M12.8125 8.4375H4.0625C3.89062 8.4375 3.75 8.57812 3.75 8.75C3.75 8.92188 3.89062 9.0625 4.0625 9.0625H12.8125C12.9844 9.0625 13.125 8.92188 13.125 8.75C13.125 8.57812 12.9844 8.4375 12.8125 8.4375Z" fill="white"/>
<path d="M12.8125 10.9375H4.0625C3.89062 10.9375 3.75 11.0781 3.75 11.25C3.75 11.4219 3.89062 11.5625 4.0625 11.5625H12.8125C12.9844 11.5625 13.125 11.4219 13.125 11.25C13.125 11.0781 12.9844 10.9375 12.8125 10.9375Z" fill="white"/>
<path d="M15.3125 11.9312V0.9375C15.3125 0.765625 15.1719 0.625 15 0.625H5C5 0.625 4.9875 0.628125 4.98438 0.628125C4.95312 0.628125 4.925 0.634375 4.89687 0.646875C4.8875 0.646875 4.88125 0.646875 4.87188 0.653125C4.8375 0.66875 4.80625 0.690625 4.77813 0.715625L1.65312 3.84063C1.62812 3.86875 1.60937 3.9 1.59375 3.93438C1.5875 3.94375 1.58437 3.95312 1.58125 3.9625C1.575 3.9875 1.56875 4.01562 1.56563 4.04375C1.56563 4.05 1.5625 4.05625 1.5625 4.0625V16.5625C1.5625 16.7344 1.70312 16.875 1.875 16.875H11.1562C11.6719 18.3281 13.0594 19.375 14.6875 19.375C16.7563 19.375 18.4375 17.6938 18.4375 15.625C18.4375 13.7719 17.0844 12.2312 15.3125 11.9312ZM11.6469 13.4375H4.0625C3.89062 13.4375 3.75 13.5781 3.75 13.75C3.75 13.9219 3.89062 14.0625 4.0625 14.0625H11.2844C11.0625 14.5375 10.9375 15.0656 10.9375 15.625C10.9375 15.8375 10.9594 16.0469 10.9937 16.25H2.1875V4.375H5C5.17188 4.375 5.3125 4.23438 5.3125 4.0625V1.25H14.6875V11.875C13.4375 11.875 12.3281 12.4937 11.6469 13.4375ZM16.4719 14.4531L14.4094 16.8594C14.3531 16.925 14.2719 16.9656 14.1844 16.9688H14.1719C14.0875 16.9688 14.0094 16.9344 13.95 16.8781L12.9187 15.8469C12.7969 15.725 12.7969 15.525 12.9187 15.4031C13.0406 15.2812 13.2406 15.2812 13.3625 15.4031L14.1531 16.1969L15.9969 14.0469C16.1094 13.9156 16.3062 13.9 16.4375 14.0125C16.5687 14.125 16.5844 14.3219 16.4719 14.4531Z" fill="white"/>
</svg>
