<svg width="18" height="18" viewBox="0 0 18 18" fill="none" xmlns="http://www.w3.org/2000/svg">
<path fill-rule="evenodd" clip-rule="evenodd" d="M5.46451 8.82604C5.14617 8.49354 4.61951 8.48021 4.28617 8.79854C3.95367 9.11604 3.94034 9.64354 4.25867 9.97687L6.88877 12.4874C7.04544 12.6516 7.26211 12.7449 7.48878 12.7457H7.49211C7.71794 12.7457 7.93378 12.6541 8.09044 12.4916L13.7379 6.65824C14.0579 6.32741 14.0496 5.79991 13.7188 5.47991C13.3871 5.15908 12.8596 5.16908 12.5404 5.49908L7.49628 10.7099L5.46451 8.82604ZM9.00033 0.662598C4.39783 0.662598 0.666992 4.39343 0.666992 8.99593C0.666992 13.5976 4.39783 17.3293 9.00033 17.3293C13.6028 17.3293 17.3337 13.5976 17.3337 8.99593C17.3337 4.39343 13.6028 0.662598 9.00033 0.662598Z" fill="#0D74FF"/>
</svg>
