<svg width="18" height="17" viewBox="0 0 18 17" fill="none" xmlns="http://www.w3.org/2000/svg">
<path fill-rule="evenodd" clip-rule="evenodd" d="M5.46451 8.33043C5.14617 7.99793 4.61951 7.9846 4.28617 8.30293C3.95367 8.62043 3.94034 9.14793 4.25867 9.48127L6.88877 11.9918C7.04544 12.156 7.26211 12.2493 7.48878 12.2501H7.49211C7.71794 12.2501 7.93378 12.1585 8.09044 11.996L13.7379 6.16264C14.0579 5.8318 14.0496 5.3043 13.7188 4.9843C13.3871 4.66347 12.8596 4.67347 12.5404 5.00347L7.49628 10.2143L5.46451 8.33043ZM9.00033 0.166992C4.39783 0.166992 0.666992 3.89783 0.666992 8.50033C0.666992 13.102 4.39783 16.8337 9.00033 16.8337C13.6028 16.8337 17.3337 13.102 17.3337 8.50033C17.3337 3.89783 13.6028 0.166992 9.00033 0.166992Z" fill="#16B14B"/>
</svg>
