<svg width="153" height="16" viewBox="0 0 153 16" fill="none" xmlns="http://www.w3.org/2000/svg">
<g clip-path="url(#clip0_309_3058)">
<path d="M77 13.1733V1.00508C77 0.682027 77.0494 0.466659 77.1566 0.358976C77.2555 0.251292 77.4533 0.188477 77.7499 0.188477H77.9725C78.2691 0.188477 78.4669 0.242318 78.5658 0.358976C78.6647 0.466659 78.7224 0.682027 78.7224 1.00508V12.8862C78.7224 13.281 78.8048 13.5771 78.9614 13.7476C79.1262 13.9271 79.3899 14.0079 79.7525 14.0079H84.722C85.0022 14.0079 85.1835 14.0528 85.2741 14.1515C85.3648 14.2502 85.406 14.4476 85.406 14.7527V15.0129C85.406 15.318 85.3648 15.5155 85.2741 15.6142C85.1835 15.7129 85.0022 15.7577 84.722 15.7577H79.3735C78.5411 15.7577 77.9313 15.5514 77.5604 15.1386C77.1895 14.7168 77 14.0617 77 13.1733Z" fill="#A7A7A7"/>
<path d="M86.832 10.8043V1.00508C86.832 0.682027 86.8815 0.466659 86.9886 0.358976C87.0875 0.251292 87.2853 0.188477 87.582 0.188477H87.8045C88.1012 0.188477 88.299 0.242318 88.3979 0.358976C88.4967 0.466659 88.5544 0.682027 88.5544 1.00508V10.7953C88.5544 12.0247 88.8511 12.9041 89.4362 13.4425C90.0214 13.981 90.9526 14.2412 92.23 14.2412C93.5074 14.2412 94.4386 13.972 95.0237 13.4425C95.6089 12.9041 95.9056 12.0247 95.9056 10.7953V1.00508C95.9056 0.682027 95.955 0.466659 96.0621 0.358976C96.161 0.251292 96.3588 0.188477 96.6555 0.188477H96.878C97.1747 0.188477 97.3725 0.242318 97.4714 0.358976C97.5538 0.466659 97.6032 0.691 97.6032 1.00508V10.7953C97.6032 14.2591 95.8067 15.9911 92.2135 15.9911C88.6286 16 86.832 14.2681 86.832 10.8043Z" fill="#A7A7A7"/>
<path d="M119.573 5.79682V2.78167C119.573 1.88431 119.763 1.22923 120.142 0.816447C120.521 0.403659 121.131 0.197266 121.963 0.197266H126.958C127.238 0.197266 127.419 0.242134 127.51 0.340844C127.6 0.439554 127.642 0.636974 127.642 0.942078V1.20231C127.642 1.50742 127.6 1.70484 127.51 1.80355C127.419 1.90226 127.238 1.94713 126.958 1.94713H122.326C121.963 1.94713 121.691 2.03686 121.535 2.20736C121.37 2.38683 121.296 2.67399 121.296 3.06883V5.50966C121.296 6.27242 121.642 6.65829 122.326 6.65829H123.315C125.07 6.65829 126.364 7.03518 127.188 7.77999C128.012 8.53378 128.416 9.70035 128.416 11.2977C128.416 12.877 127.996 14.0526 127.164 14.8153C126.331 15.5781 125.062 15.964 123.356 15.964C122.079 15.964 120.983 15.8204 120.06 15.5332C119.812 15.4525 119.639 15.3537 119.54 15.2371C119.442 15.1204 119.4 14.941 119.4 14.6987V14.3128C119.4 13.9897 119.45 13.7923 119.54 13.7026C119.639 13.6129 119.812 13.6218 120.076 13.7116C120.999 14.0436 122.095 14.2141 123.356 14.2141C124.543 14.2141 125.4 13.9897 125.919 13.5321C126.438 13.0744 126.702 12.3386 126.702 11.3156C126.702 10.1849 126.422 9.40422 125.87 8.99143C125.326 8.59659 124.378 8.3902 123.01 8.3902H121.98C121.148 8.3902 120.538 8.1838 120.159 7.77102C119.763 7.3672 119.573 6.70315 119.573 5.79682Z" fill="#A7A7A7"/>
<path d="M135.561 16C133.79 16 132.496 15.5244 131.688 14.5732C130.88 13.622 130.477 12.1234 130.477 10.0864V5.94055C130.477 3.88559 130.872 2.37801 131.672 1.42681C132.479 0.475603 133.773 0 135.561 0C137.35 0 138.644 0.466629 139.443 1.40886C140.242 2.35109 140.638 3.85867 140.638 5.93158V10.0774C140.638 12.1324 140.242 13.6399 139.443 14.5822C138.644 15.5244 137.35 16 135.561 16ZM138.907 10.0774V5.94055C138.907 4.44195 138.652 3.36512 138.149 2.71004C137.646 2.05496 136.781 1.73191 135.561 1.73191C134.375 1.73191 133.526 2.05496 133.007 2.71004C132.496 3.36512 132.24 4.44195 132.24 5.94055V10.0864C132.24 11.585 132.496 12.6528 133.007 13.2989C133.518 13.9361 134.366 14.2591 135.561 14.2591C136.781 14.2591 137.638 13.945 138.149 13.3169C138.652 12.6708 138.907 11.5939 138.907 10.0774Z" fill="#A7A7A7"/>
<path d="M147.924 16C146.152 16 144.858 15.5244 144.05 14.5732C143.243 13.622 142.839 12.1234 142.839 10.0864V5.94055C142.839 3.88559 143.234 2.37801 144.034 1.42681C144.841 0.475603 146.135 0 147.924 0C149.712 0 151.006 0.466629 151.805 1.40886C152.605 2.35109 153 3.85867 153 5.93158V10.0774C153 12.1324 152.605 13.6399 151.805 14.5822C151.006 15.5244 149.712 16 147.924 16ZM151.27 10.0774V5.94055C151.27 4.44195 151.014 3.36512 150.511 2.71004C150.009 2.05496 149.143 1.73191 147.924 1.73191C146.737 1.73191 145.888 2.05496 145.369 2.71004C144.858 3.36512 144.602 4.44195 144.602 5.94055V10.0864C144.602 11.585 144.858 12.6528 145.369 13.2989C145.88 13.9361 146.729 14.2591 147.924 14.2591C149.143 14.2591 150 13.945 150.511 13.3169C151.014 12.6708 151.27 11.5939 151.27 10.0774Z" fill="#A7A7A7"/>
<path d="M110.904 1.05C111.053 0.726949 111.094 0.511581 111.036 0.403898C110.979 0.296214 110.781 0.233398 110.443 0.233398H110.22C109.883 0.233398 109.635 0.28724 109.47 0.403898C109.306 0.511581 109.157 0.726949 109.009 1.05L108.762 1.60637C109.289 1.82173 109.792 2.09094 110.27 2.41399L110.904 1.05Z" fill="#A7A7A7"/>
<path d="M102.572 1.05C102.424 0.726949 102.275 0.511581 102.11 0.403898C101.946 0.296214 101.698 0.233398 101.36 0.233398H101.138C100.8 0.233398 100.602 0.28724 100.545 0.403898C100.487 0.511581 100.528 0.726949 100.676 1.05L101.303 2.39605C101.773 2.07299 102.283 1.80379 102.811 1.58842L102.572 1.05Z" fill="#A7A7A7"/>
<path d="M111.341 14.9859L108.811 9.57482C108.737 9.40432 108.662 9.24279 108.58 9.09024C108.407 8.63258 108.135 8.22877 107.805 7.89674C107.723 7.81598 107.64 7.74419 107.566 7.68138C107.517 7.64548 107.467 7.60959 107.426 7.57369C106.956 7.24167 106.388 7.05322 105.786 7.05322C105.185 7.05322 104.624 7.24167 104.154 7.57369C104.072 7.62754 103.998 7.69035 103.915 7.75317C103.833 7.81598 103.759 7.88777 103.685 7.96853C103.38 8.29158 103.133 8.68642 102.968 9.11716C102.894 9.25176 102.819 9.40432 102.745 9.56584L100.24 14.9859C100.092 15.309 100.05 15.5243 100.108 15.632C100.166 15.7397 100.364 15.8025 100.701 15.8025H100.94C101.278 15.8025 101.526 15.7487 101.69 15.632C101.855 15.5243 102.004 15.309 102.152 14.9859L103.339 12.3207L104.41 9.90684C104.426 9.86197 104.443 9.82608 104.468 9.79018C104.509 9.70045 104.55 9.61071 104.591 9.52995C104.847 9.09921 105.283 8.82103 105.786 8.82103C106.322 8.82103 106.792 9.14408 107.031 9.61968C107.072 9.70942 107.113 9.80813 107.154 9.90684L108.226 12.3028L109.421 14.9769C109.569 15.3 109.717 15.5154 109.882 15.623C110.047 15.7307 110.294 15.7935 110.632 15.7935H110.871C111.209 15.7935 111.407 15.7397 111.464 15.623C111.539 15.5243 111.489 15.309 111.341 14.9859Z" fill="#A7A7A7"/>
<path d="M109.652 3.76898L109.759 3.53567C109.841 3.35619 109.784 3.14083 109.627 3.04211C109.24 2.79983 108.836 2.59343 108.407 2.42293C107.583 2.09988 106.701 1.92041 105.778 1.92041C104.864 1.92041 103.982 2.09091 103.174 2.41396C102.754 2.58446 102.342 2.79085 101.954 3.03314C101.798 3.13185 101.74 3.34722 101.823 3.52669L101.93 3.76001C102.152 4.23561 102.68 4.42406 103.116 4.19074C103.916 3.76898 104.822 3.52669 105.77 3.52669C106.734 3.52669 107.649 3.76898 108.457 4.20869C108.894 4.43303 109.429 4.25356 109.652 3.76898Z" fill="#A7A7A7"/>
<path d="M108.201 5.98539L108.292 5.78797C108.382 5.59055 108.316 5.35724 108.135 5.24955C107.871 5.10597 107.599 4.98932 107.319 4.89061V4.88163C106.833 4.72011 106.314 4.63037 105.778 4.63037C105.251 4.63037 104.74 4.72011 104.262 4.87266C103.973 4.97137 103.701 5.08803 103.446 5.2316C103.264 5.33031 103.19 5.5726 103.289 5.77002L103.372 5.96744C103.545 6.32639 103.94 6.48791 104.286 6.32639C104.74 6.11102 105.242 5.99436 105.77 5.99436C106.297 5.99436 106.808 6.11102 107.261 6.32639C107.616 6.49689 108.02 6.35331 108.201 5.98539Z" fill="#A7A7A7"/>
</g>
<path d="M9.57619 10.8594H11.3223V12.4048C11.3223 14.8273 10.3665 15.955 8.19766 15.955H3.12467C0.955782 15.955 0 14.8273 0 12.4048V3.55019C0 1.12771 0.955782 0 3.12467 0H8.19766C10.3665 0 11.3223 1.12771 11.3223 3.55019V5.09557H9.57619V3.55019C9.57619 2.31807 9.24534 1.85863 8.21604 1.85863H3.14305C2.11375 1.85863 1.7829 2.29718 1.7829 3.55019V12.4048C1.7829 13.6369 2.11375 14.0963 3.14305 14.0963H8.21604C9.24534 14.0963 9.57619 13.6578 9.57619 12.4048V10.8594Z" fill="#A7A7A7"/>
<path d="M21.9467 0C24.1156 0 25.0713 1.12771 25.0713 3.55019V12.4048C25.0713 14.8273 24.1156 15.955 21.9467 15.955H16.8737C14.7048 15.955 13.749 14.8273 13.749 12.4048V3.55019C13.749 1.12771 14.7048 0 16.8737 0H21.9467ZM23.3068 3.55019C23.3068 2.31807 22.976 1.85863 21.9467 1.85863H16.8737C15.8444 1.85863 15.5135 2.29718 15.5135 3.55019V12.4048C15.5135 13.6369 15.8444 14.0963 16.8737 14.0963H21.9467C22.976 14.0963 23.3068 13.6578 23.3068 12.4048V3.55019Z" fill="#A7A7A7"/>
<path d="M38.0667 0H41.1546V15.955H39.4085V1.85863H39.2063L35.6405 11.9662H33.1959L29.6485 1.85863H29.4463V15.955H27.7002V0H30.7697L34.3355 10.1076H34.5377L38.0667 0Z" fill="#A7A7A7"/>
<path d="M55.178 5.42971C55.178 7.24657 54.3141 7.76866 53.9465 7.85219L53.8178 7.87307V8.10279C53.8178 8.10279 55.178 8.20721 55.178 10.5462V12.4257C55.178 14.8482 54.1854 15.9759 52.0533 15.9759H43.874V0H52.0533C54.1854 0 55.178 1.12771 55.178 3.55019V5.42971ZM53.4135 3.55019C53.4135 2.31807 53.0826 1.85863 52.0533 1.85863H45.6202V7.03773H52.0533C53.1194 7.03773 53.4135 6.66183 53.4135 5.42971V3.55019ZM53.4135 10.5253C53.4135 9.29315 53.1194 8.91725 52.0533 8.91725H45.6202V14.0963H52.0533C53.0826 14.0963 53.4135 13.6578 53.4135 12.4048V10.5253Z" fill="#A7A7A7"/>
<path d="M65.8754 0C68.0443 0 69.0001 1.12771 69.0001 3.55019V12.4048C69.0001 14.8273 68.0443 15.955 65.8754 15.955H60.8024C58.6335 15.955 57.6777 14.8273 57.6777 12.4048V3.55019C57.6777 1.12771 58.6335 0 60.8024 0H65.8754ZM67.2539 3.55019C67.2539 2.31807 66.9231 1.85863 65.8938 1.85863H60.8208C59.7915 1.85863 59.4606 2.29718 59.4606 3.55019V12.4048C59.4606 13.6369 59.7915 14.0963 60.8208 14.0963H65.8938C66.9231 14.0963 67.2539 13.6578 67.2539 12.4048V3.55019Z" fill="#A7A7A7"/>
<defs>
<clipPath id="clip0_309_3058">
<rect width="76" height="16" fill="white" transform="translate(77)"/>
</clipPath>
</defs>
</svg>
