<svg width="153" height="16" viewBox="0 0 153 16" fill="none" xmlns="http://www.w3.org/2000/svg">
<path d="M77 13.1828V1.05532C77 0.73335 77.0496 0.518705 77.1571 0.411382C77.2563 0.30406 77.4547 0.241455 77.7524 0.241455H77.9756C78.2733 0.241455 78.4717 0.295116 78.5709 0.411382C78.6701 0.518705 78.728 0.73335 78.728 1.05532V12.8966C78.728 13.2901 78.8107 13.5852 78.9678 13.7551C79.1332 13.934 79.3977 14.0145 79.7615 14.0145H84.7472C85.0283 14.0145 85.2102 14.0592 85.3011 14.1576C85.3921 14.256 85.4334 14.4527 85.4334 14.7568V15.0162C85.4334 15.3203 85.3921 15.517 85.3011 15.6154C85.2102 15.7138 85.0283 15.7585 84.7472 15.7585H79.3812C78.5461 15.7585 77.9343 15.5528 77.5622 15.1414C77.1902 14.73 77 14.0771 77 13.1828Z" fill="#A7A7A7"/>
<path d="M86.8643 10.8217V1.05532C86.8643 0.73335 86.9139 0.518705 87.0214 0.411382C87.1206 0.30406 87.319 0.241455 87.6167 0.241455H87.8399C88.1375 0.241455 88.336 0.295116 88.4352 0.411382C88.5344 0.518705 88.5923 0.73335 88.5923 1.05532V10.8217C88.5923 12.0469 88.8899 12.9234 89.477 13.46C90.064 13.9966 90.9983 14.256 92.2798 14.256C93.5614 14.256 94.4957 13.9877 95.0827 13.46C95.6697 12.9234 95.9674 12.0469 95.9674 10.8217V1.05532C95.9674 0.73335 96.017 0.518705 96.1245 0.411382C96.2237 0.30406 96.4221 0.241455 96.7198 0.241455H96.943C97.2407 0.241455 97.4391 0.295116 97.5383 0.411382C97.621 0.527648 97.6706 0.742294 97.6706 1.05532V10.8217C97.6706 14.2739 95.8682 16 92.2633 16C88.6667 16 86.8643 14.2739 86.8643 10.8217Z" fill="#A7A7A7"/>
<path d="M111.015 1.10903C111.164 0.787061 111.205 0.572416 111.147 0.465093C111.089 0.357771 110.891 0.295166 110.552 0.295166H110.329C109.99 0.295166 109.742 0.348827 109.576 0.465093C109.411 0.572416 109.262 0.787061 109.113 1.10903L108.865 1.66353C109.394 1.87817 109.899 2.14648 110.378 2.46845L111.015 1.10903Z" fill="#A7A7A7"/>
<path d="M102.656 1.10903C102.507 0.787061 102.358 0.572416 102.193 0.465093C102.027 0.357771 101.779 0.295166 101.44 0.295166H101.217C100.878 0.295166 100.68 0.348827 100.622 0.465093C100.564 0.572416 100.605 0.787061 100.754 1.10903L101.382 2.45056C101.854 2.12859 102.366 1.86029 102.896 1.64564L102.656 1.10903Z" fill="#A7A7A7"/>
<path d="M111.453 14.9984L108.914 9.60542C108.84 9.43549 108.766 9.27451 108.683 9.12247C108.509 8.66635 108.236 8.26389 107.906 7.93298C107.823 7.85249 107.74 7.78094 107.666 7.71833C107.616 7.68256 107.567 7.64679 107.525 7.61101C107.054 7.2801 106.484 7.09229 105.88 7.09229C105.276 7.09229 104.714 7.2801 104.243 7.61101C104.16 7.66467 104.086 7.72728 104.003 7.78988C103.92 7.85249 103.846 7.92403 103.772 8.00453C103.466 8.32649 103.218 8.72001 103.052 9.1493C102.978 9.28345 102.904 9.43549 102.829 9.59648L100.316 14.9894C100.167 15.3114 100.125 15.526 100.183 15.6334C100.241 15.7407 100.44 15.8033 100.779 15.8033H101.018C101.357 15.8033 101.605 15.7496 101.771 15.6334C101.936 15.526 102.085 15.3114 102.234 14.9894L103.424 12.3332L104.499 9.92739C104.516 9.88267 104.532 9.8469 104.557 9.81112C104.598 9.72169 104.64 9.63225 104.681 9.55176C104.937 9.12247 105.376 8.84522 105.88 8.84522C106.417 8.84522 106.889 9.16719 107.128 9.6412C107.17 9.73063 107.211 9.82901 107.253 9.92739L108.327 12.3153L109.526 14.9805C109.675 15.3025 109.824 15.5171 109.989 15.6244C110.155 15.7317 110.403 15.7944 110.742 15.7944H110.981C111.32 15.7944 111.519 15.7407 111.577 15.6244C111.651 15.526 111.602 15.3114 111.453 14.9984Z" fill="#A7A7A7"/>
<path d="M109.758 3.81884L109.866 3.57737C109.949 3.3985 109.891 3.18385 109.734 3.08547C109.345 2.844 108.94 2.6383 108.51 2.46837C107.683 2.1464 106.799 1.96753 105.872 1.96753C104.955 1.96753 104.07 2.13746 103.26 2.45942C102.838 2.62935 102.425 2.83505 102.036 3.07653C101.879 3.17491 101.821 3.38955 101.904 3.56842L102.011 3.80096C102.235 4.27496 102.764 4.46278 103.202 4.23025C104.004 3.8099 104.913 3.56842 105.864 3.56842C106.832 3.56842 107.749 3.8099 108.56 4.24813C108.998 4.47172 109.535 4.29285 109.758 3.81884Z" fill="#A7A7A7"/>
<path d="M108.303 6.01893L108.394 5.82217C108.485 5.62542 108.419 5.39288 108.237 5.28556C107.972 5.14246 107.699 5.0262 107.418 4.92782V4.91888C106.931 4.75789 106.41 4.66846 105.872 4.66846C105.343 4.66846 104.83 4.75789 104.351 4.90993C104.062 5.00831 103.789 5.12458 103.532 5.26767C103.35 5.36605 103.276 5.60753 103.375 5.80429L103.458 6.00999C103.632 6.36773 104.028 6.52871 104.376 6.36773C104.83 6.15309 105.335 6.03682 105.864 6.03682C106.393 6.03682 106.906 6.15309 107.36 6.36773C107.716 6.52871 108.121 6.38562 108.303 6.01893Z" fill="#A7A7A7"/>
<path d="M123.31 0C124.881 0 126.038 0.348798 126.791 1.04639C127.543 1.74399 127.915 2.80827 127.915 4.23924C127.915 5.14254 127.775 5.85802 127.493 6.3678C127.212 6.88653 126.733 7.30688 126.038 7.64673C126.832 7.97764 127.402 8.44271 127.758 9.03298C128.114 9.62325 128.287 10.4192 128.287 11.412C128.287 14.4259 126.617 15.9374 123.285 15.9374C119.969 15.9374 118.308 14.4349 118.308 11.4388C118.308 10.4192 118.49 9.62325 118.862 9.03298C119.225 8.44271 119.821 7.98659 120.647 7.64673C119.945 7.31582 119.44 6.88653 119.151 6.3678C118.853 5.84908 118.713 5.14254 118.713 4.23924C118.704 1.41308 120.242 0 123.31 0ZM120.052 11.3136C120.052 12.3331 120.3 13.0665 120.805 13.5137C121.301 13.9698 122.144 14.1934 123.318 14.1934C124.492 14.1934 125.327 13.9698 125.832 13.5137C126.328 13.0576 126.584 12.3242 126.584 11.3136C126.584 10.3477 126.319 9.6322 125.798 9.16713C125.278 8.71101 124.451 8.47848 123.318 8.47848C122.185 8.47848 121.359 8.71101 120.838 9.16713C120.308 9.6322 120.052 10.3477 120.052 11.3136ZM126.212 4.36445C126.212 3.40749 125.997 2.73672 125.559 2.34321C125.129 1.94969 124.368 1.74399 123.277 1.74399C122.194 1.74399 121.433 1.94969 121.011 2.3611C120.598 2.75461 120.391 3.42538 120.391 4.36445C120.391 5.28563 120.614 5.9564 121.053 6.3678C121.507 6.76132 122.26 6.96702 123.302 6.96702C124.343 6.96702 125.087 6.76132 125.534 6.35886C125.989 5.94746 126.212 5.28563 126.212 4.36445Z" fill="#A7A7A7"/>
<path d="M135.53 15.9373C133.752 15.9373 132.462 15.4633 131.652 14.5153C130.842 13.5673 130.437 12.0827 130.437 10.0525V5.92951C130.437 3.88143 130.833 2.38786 131.635 1.43985C132.437 0.49183 133.727 0.0178223 135.521 0.0178223C137.316 0.0178223 138.605 0.482887 139.407 1.42196C140.209 2.36103 140.606 3.86355 140.606 5.92056V10.0435C140.606 12.0916 140.209 13.5852 139.407 14.5243C138.622 15.4723 137.324 15.9373 135.53 15.9373ZM138.878 10.0525V5.92951C138.878 4.43593 138.622 3.36271 138.118 2.70983C137.613 2.05695 136.745 1.73498 135.53 1.73498C134.339 1.73498 133.487 2.05695 132.975 2.70983C132.462 3.36271 132.206 4.43593 132.206 5.92951V10.0525C132.206 11.5461 132.462 12.6103 132.975 13.2453C133.487 13.8803 134.339 14.2023 135.53 14.2023C136.745 14.2023 137.613 13.8893 138.118 13.2632C138.63 12.6282 138.878 11.5639 138.878 10.0525Z" fill="#A7A7A7"/>
<path d="M147.908 15.9373C146.13 15.9373 144.84 15.4633 144.03 14.5153C143.22 13.5673 142.814 12.0827 142.814 10.0525V5.92951C142.814 3.88143 143.211 2.38786 144.013 1.43985C144.815 0.49183 146.105 0.0178223 147.899 0.0178223C149.693 0.0178223 150.983 0.482887 151.785 1.42196C152.587 2.36103 152.984 3.86355 152.984 5.92056V10.0435C152.984 12.0916 152.587 13.5852 151.785 14.5243C151 15.4723 149.702 15.9373 147.908 15.9373ZM151.256 10.0525V5.92951C151.256 4.43593 151 3.36271 150.495 2.70983C149.991 2.05695 149.123 1.73498 147.908 1.73498C146.717 1.73498 145.865 2.05695 145.353 2.70983C144.84 3.36271 144.584 4.43593 144.584 5.92951V10.0525C144.584 11.5461 144.84 12.6103 145.353 13.2453C145.865 13.8803 146.717 14.2023 147.908 14.2023C149.123 14.2023 149.991 13.8893 150.495 13.2632C151.008 12.6282 151.256 11.5639 151.256 10.0525Z" fill="#A7A7A7"/>
<path d="M9.57619 10.8594H11.3223V12.4048C11.3223 14.8273 10.3665 15.955 8.19766 15.955H3.12467C0.955782 15.955 0 14.8273 0 12.4048V3.55019C0 1.12771 0.955782 0 3.12467 0H8.19766C10.3665 0 11.3223 1.12771 11.3223 3.55019V5.09557H9.57619V3.55019C9.57619 2.31807 9.24534 1.85863 8.21604 1.85863H3.14305C2.11375 1.85863 1.7829 2.29718 1.7829 3.55019V12.4048C1.7829 13.6369 2.11375 14.0963 3.14305 14.0963H8.21604C9.24534 14.0963 9.57619 13.6578 9.57619 12.4048V10.8594Z" fill="#A7A7A7"/>
<path d="M21.9467 0C24.1156 0 25.0713 1.12771 25.0713 3.55019V12.4048C25.0713 14.8273 24.1156 15.955 21.9467 15.955H16.8737C14.7048 15.955 13.749 14.8273 13.749 12.4048V3.55019C13.749 1.12771 14.7048 0 16.8737 0H21.9467ZM23.3068 3.55019C23.3068 2.31807 22.976 1.85863 21.9467 1.85863H16.8737C15.8444 1.85863 15.5135 2.29718 15.5135 3.55019V12.4048C15.5135 13.6369 15.8444 14.0963 16.8737 14.0963H21.9467C22.976 14.0963 23.3068 13.6578 23.3068 12.4048V3.55019Z" fill="#A7A7A7"/>
<path d="M38.0667 0H41.1546V15.955H39.4085V1.85863H39.2063L35.6405 11.9662H33.1959L29.6485 1.85863H29.4463V15.955H27.7002V0H30.7697L34.3355 10.1076H34.5377L38.0667 0Z" fill="#A7A7A7"/>
<path d="M55.178 5.42971C55.178 7.24657 54.3141 7.76866 53.9465 7.85219L53.8178 7.87307V8.10279C53.8178 8.10279 55.178 8.20721 55.178 10.5462V12.4257C55.178 14.8482 54.1854 15.9759 52.0533 15.9759H43.874V0H52.0533C54.1854 0 55.178 1.12771 55.178 3.55019V5.42971ZM53.4135 3.55019C53.4135 2.31807 53.0826 1.85863 52.0533 1.85863H45.6202V7.03773H52.0533C53.1194 7.03773 53.4135 6.66183 53.4135 5.42971V3.55019ZM53.4135 10.5253C53.4135 9.29315 53.1194 8.91725 52.0533 8.91725H45.6202V14.0963H52.0533C53.0826 14.0963 53.4135 13.6578 53.4135 12.4048V10.5253Z" fill="#A7A7A7"/>
<path d="M65.8754 0C68.0443 0 69.0001 1.12771 69.0001 3.55019V12.4048C69.0001 14.8273 68.0443 15.955 65.8754 15.955H60.8024C58.6335 15.955 57.6777 14.8273 57.6777 12.4048V3.55019C57.6777 1.12771 58.6335 0 60.8024 0H65.8754ZM67.2539 3.55019C67.2539 2.31807 66.9231 1.85863 65.8938 1.85863H60.8208C59.7915 1.85863 59.4606 2.29718 59.4606 3.55019V12.4048C59.4606 13.6369 59.7915 14.0963 60.8208 14.0963H65.8938C66.9231 14.0963 67.2539 13.6578 67.2539 12.4048V3.55019Z" fill="#A7A7A7"/>
</svg>
