<svg width="87" height="35" viewBox="0 0 87 35" fill="none" xmlns="http://www.w3.org/2000/svg">
<path d="M0.5 28.7412V1.80098C0.5 1.09398 0.625057 0.617691 0.882986 0.372103C1.14092 0.126515 1.63333 0 2.36022 0H2.90734C3.63424 0 4.13446 0.126515 4.38458 0.372103C4.64251 0.617691 4.76756 1.09398 4.76756 1.80098V28.1012C4.76756 28.9868 4.97078 29.6194 5.3694 30.0138C5.76802 30.4008 6.43238 30.5943 7.33904 30.5943H19.7275C20.4231 30.5943 20.8764 30.6985 21.0953 30.9143C21.3141 31.1227 21.4236 31.5692 21.4236 32.239V32.8195C21.4236 33.4893 21.3141 33.9358 21.0953 34.1442C20.8764 34.3525 20.4153 34.4642 19.7275 34.4642H6.41675C4.32986 34.4642 2.82918 34.0028 1.89126 33.0874C0.968963 32.172 0.5 30.7208 0.5 28.7412Z" fill="#045293"/>
<path d="M25.0029 23.4871V1.80098C25.0029 1.09398 25.128 0.617691 25.3859 0.372103C25.6438 0.126515 26.1363 0 26.871 0H27.4181C28.1528 0 28.6452 0.126515 28.8953 0.372103C29.1533 0.617691 29.2783 1.09398 29.2783 1.80098V23.4871C29.2783 26.2109 30.0052 28.1608 31.4746 29.344C32.9362 30.5273 35.2576 31.1227 38.4387 31.1227C41.6199 31.1227 43.9412 30.5348 45.4028 29.344C46.8644 28.1608 47.5991 26.2035 47.5991 23.4871V1.80098C47.5991 1.09398 47.7242 0.617691 47.9821 0.372103C48.2244 0.126515 48.7246 0 49.4515 0H49.9987C50.7255 0 51.2258 0.126515 51.4759 0.372103C51.7338 0.617691 51.8589 1.09398 51.8589 1.80098V23.4871C51.8589 31.1599 47.3803 34.9926 38.4309 34.9926C29.4815 35 25.0029 31.1599 25.0029 23.4871Z" fill="#045293"/>
<path d="M85.0151 1.90547C85.3825 1.19847 85.4919 0.722183 85.3434 0.476595C85.1949 0.231007 84.7025 0.104492 83.8662 0.104492H83.319C82.4749 0.104492 81.8574 0.231007 81.4588 0.476595C81.0524 0.722183 80.6694 1.19847 80.3098 1.90547L79.7002 3.13341C81.0211 3.6097 82.2717 4.21251 83.4519 4.92695L85.0151 1.90547Z" fill="#045293"/>
<path d="M64.2402 1.90547C63.8729 1.19847 63.4899 0.722183 63.0913 0.476595C62.6848 0.231007 62.0674 0.104492 61.2311 0.104492H60.6839C59.8398 0.104492 59.3474 0.231007 59.2067 0.476595C59.0582 0.722183 59.1676 1.19847 59.535 1.90547L61.0904 4.89718C62.2706 4.19018 63.529 3.58738 64.8499 3.11108L64.2402 1.90547Z" fill="#045293"/>
<path d="M86.1091 32.7674L79.8015 20.7856C79.6139 20.3987 79.4264 20.0414 79.231 19.7065C78.7933 18.6944 78.1289 17.7939 77.2926 17.0721C77.0894 16.886 76.894 16.7297 76.6908 16.6032C76.5735 16.5213 76.4563 16.4395 76.3312 16.3651C75.151 15.6283 73.7519 15.2041 72.2434 15.2041C70.7427 15.2041 69.3437 15.6283 68.1713 16.3576C67.968 16.4841 67.7726 16.6181 67.585 16.7595C67.3896 16.9009 67.2021 17.0572 67.0145 17.2358C66.2485 17.9502 65.631 18.8135 65.2246 19.7884C65.0448 20.0935 64.8651 20.4284 64.6697 20.7856L58.4168 32.7674C58.0495 33.4744 57.94 33.9506 58.0885 34.1962C58.237 34.4418 58.7295 34.5683 59.5658 34.5683H60.1676C61.0039 34.5683 61.6292 34.4418 62.0278 34.1962C62.4265 33.9506 62.8094 33.4744 63.1768 32.7674L66.1391 26.8658L68.82 21.5299C68.8669 21.4405 68.9138 21.3587 68.9607 21.2694C69.0701 21.0684 69.1717 20.8749 69.2655 20.6889C69.2655 20.6889 69.2655 20.6815 69.2733 20.6815C69.9064 19.7363 71.0007 19.1112 72.2512 19.1112C73.5878 19.1112 74.7524 19.8256 75.3542 20.8898C75.4558 21.0908 75.5652 21.3066 75.6747 21.5299L78.3399 26.8435L81.3179 32.7748C81.6852 33.4818 82.0682 33.9581 82.4668 34.2037C82.8654 34.4493 83.4907 34.5758 84.327 34.5758H84.9289C85.773 34.5758 86.2654 34.4493 86.4061 34.2037C86.5859 33.9506 86.4764 33.4744 86.1091 32.7674Z" fill="#045293"/>
<path d="M81.881 7.93346L82.1546 7.41252C82.3578 7.01809 82.2093 6.5418 81.8185 6.32598C80.8571 5.79015 79.841 5.32874 78.7858 4.95664C76.738 4.23476 74.5339 3.84033 72.2282 3.84033C69.9459 3.84033 67.7574 4.22732 65.733 4.93431C64.6779 5.30642 63.6618 5.76038 62.7004 6.29621C62.3096 6.51203 62.1611 6.99577 62.3643 7.38275L62.6301 7.89625C63.1772 8.94558 64.4981 9.3549 65.5924 8.8414C67.5933 7.89625 69.8443 7.36787 72.2126 7.36787C74.6121 7.36787 76.8865 7.91114 78.9031 8.87116C80.0051 9.39211 81.3339 8.99024 81.881 7.93346Z" fill="#FF6700"/>
<path d="M78.2697 12.83L78.5042 12.3983C78.7386 11.9667 78.5589 11.4383 78.1055 11.215C77.4568 10.895 76.7768 10.6271 76.0734 10.4187L76.0812 10.4113C74.8697 10.0466 73.5801 9.8457 72.2357 9.8457C70.9148 9.8457 69.6486 10.0392 68.4527 10.389C67.7415 10.5974 67.0615 10.8653 66.4127 11.1853C65.9594 11.4085 65.7796 11.9369 66.0141 12.3686L66.2486 12.7928C66.6785 13.5891 67.6711 13.9388 68.5309 13.5891C69.6642 13.1202 70.9148 12.8597 72.2279 12.8597C73.5488 12.8597 74.8072 13.1202 75.9561 13.5965C76.8159 13.9612 77.8242 13.6412 78.2697 12.83Z" fill="#FF6700"/>
</svg>
