<svg width="76" height="16" viewBox="0 0 76 16" fill="none" xmlns="http://www.w3.org/2000/svg">
<g clip-path="url(#clip0_307_3148)">
<path d="M0 13.1733V1.00508C0 0.682027 0.049447 0.466659 0.156582 0.358976C0.255476 0.251292 0.453264 0.188477 0.749946 0.188477H0.972457C1.26914 0.188477 1.46693 0.242318 1.56582 0.358976C1.66472 0.466659 1.7224 0.682027 1.7224 1.00508V12.8862C1.7224 13.281 1.80481 13.5771 1.9614 13.7476C2.12622 13.9271 2.38994 14.0079 2.75255 14.0079H7.72197C8.00217 14.0079 8.18348 14.0528 8.27413 14.1515C8.36478 14.2502 8.40599 14.4476 8.40599 14.7527V15.0129C8.40599 15.318 8.36478 15.5155 8.27413 15.6142C8.18348 15.7129 8.00217 15.7577 7.72197 15.7577H2.37346C1.5411 15.7577 0.931251 15.5514 0.560399 15.1386C0.189547 14.7168 0 14.0617 0 13.1733Z" fill="#A7A7A7"/>
<path d="M9.83203 10.8043V1.00508C9.83203 0.682027 9.88148 0.466659 9.98861 0.358976C10.0875 0.251292 10.2853 0.188477 10.582 0.188477H10.8045C11.1012 0.188477 11.299 0.242318 11.3979 0.358976C11.4967 0.466659 11.5544 0.682027 11.5544 1.00508V10.7953C11.5544 12.0247 11.8511 12.9041 12.4362 13.4425C13.0214 13.981 13.9526 14.2412 15.23 14.2412C16.5074 14.2412 17.4386 13.972 18.0237 13.4425C18.6089 12.9041 18.9056 12.0247 18.9056 10.7953V1.00508C18.9056 0.682027 18.955 0.466659 19.0621 0.358976C19.161 0.251292 19.3588 0.188477 19.6555 0.188477H19.878C20.1747 0.188477 20.3725 0.242318 20.4714 0.358976C20.5538 0.466659 20.6032 0.691 20.6032 1.00508V10.7953C20.6032 14.2591 18.8067 15.9911 15.2135 15.9911C11.6286 16 9.83203 14.2681 9.83203 10.8043Z" fill="#A7A7A7"/>
<path d="M42.5735 5.79682V2.78167C42.5735 1.88431 42.763 1.22923 43.1421 0.816447C43.5212 0.403659 44.131 0.197266 44.9634 0.197266H49.9575C50.2377 0.197266 50.419 0.242134 50.5097 0.340844C50.6004 0.439554 50.6416 0.636974 50.6416 0.942078V1.20231C50.6416 1.50742 50.6004 1.70484 50.5097 1.80355C50.419 1.90226 50.2377 1.94713 49.9575 1.94713H45.326C44.9634 1.94713 44.6914 2.03686 44.5349 2.20736C44.37 2.38683 44.2959 2.67399 44.2959 3.06883V5.50966C44.2959 6.27242 44.642 6.65829 45.326 6.65829H46.3149C48.0703 6.65829 49.3642 7.03518 50.1883 7.77999C51.0124 8.53378 51.4162 9.70035 51.4162 11.2977C51.4162 12.877 50.9959 14.0526 50.1636 14.8153C49.3312 15.5781 48.0621 15.964 46.3561 15.964C45.0788 15.964 43.9827 15.8204 43.0597 15.5332C42.8124 15.4525 42.6394 15.3537 42.5405 15.2371C42.4416 15.1204 42.4004 14.941 42.4004 14.6987V14.3128C42.4004 13.9897 42.4498 13.7923 42.5405 13.7026C42.6394 13.6129 42.8124 13.6218 43.0762 13.7116C43.9992 14.0436 45.0953 14.2141 46.3561 14.2141C47.5429 14.2141 48.4 13.9897 48.9192 13.5321C49.4383 13.0744 49.7021 12.3386 49.7021 11.3156C49.7021 10.1849 49.4219 9.40422 48.8697 8.99143C48.3258 8.59659 47.3781 8.3902 46.01 8.3902H44.9799C44.1475 8.3902 43.5377 8.1838 43.1586 7.77102C42.763 7.3672 42.5735 6.70315 42.5735 5.79682Z" fill="#A7A7A7"/>
<path d="M58.5614 16C56.7895 16 55.4956 15.5244 54.688 14.5732C53.8804 13.622 53.4766 12.1234 53.4766 10.0864V5.94055C53.4766 3.88559 53.8721 2.37801 54.6715 1.42681C55.4792 0.475603 56.773 0 58.5614 0C60.3497 0 61.6435 0.466629 62.4429 1.40886C63.2423 2.35109 63.6379 3.85867 63.6379 5.93158V10.0774C63.6379 12.1324 63.2423 13.6399 62.4429 14.5822C61.6435 15.5244 60.3497 16 58.5614 16ZM61.9073 10.0774V5.94055C61.9073 4.44195 61.6518 3.36512 61.1491 2.71004C60.6464 2.05496 59.781 1.73191 58.5614 1.73191C57.3746 1.73191 56.5258 2.05496 56.0066 2.71004C55.4956 3.36512 55.2402 4.44195 55.2402 5.94055V10.0864C55.2402 11.585 55.4956 12.6528 56.0066 13.2989C56.5175 13.9361 57.3664 14.2591 58.5614 14.2591C59.781 14.2591 60.6381 13.945 61.1491 13.3169C61.6518 12.6708 61.9073 11.5939 61.9073 10.0774Z" fill="#A7A7A7"/>
<path d="M70.9237 16C69.1518 16 67.858 15.5244 67.0503 14.5732C66.2427 13.622 65.8389 12.1234 65.8389 10.0864V5.94055C65.8389 3.88559 66.2344 2.37801 67.0338 1.42681C67.8415 0.475603 69.1353 0 70.9237 0C72.712 0 74.0059 0.466629 74.8052 1.40886C75.6046 2.35109 76.0002 3.85867 76.0002 5.93158V10.0774C76.0002 12.1324 75.6046 13.6399 74.8052 14.5822C74.0059 15.5244 72.712 16 70.9237 16ZM74.2696 10.0774V5.94055C74.2696 4.44195 74.0141 3.36512 73.5114 2.71004C73.0087 2.05496 72.1434 1.73191 70.9237 1.73191C69.7369 1.73191 68.8881 2.05496 68.3689 2.71004C67.858 3.36512 67.6025 4.44195 67.6025 5.94055V10.0864C67.6025 11.585 67.858 12.6528 68.3689 13.2989C68.8799 13.9361 69.7287 14.2591 70.9237 14.2591C72.1434 14.2591 73.0004 13.945 73.5114 13.3169C74.0141 12.6708 74.2696 11.5939 74.2696 10.0774Z" fill="#A7A7A7"/>
<path d="M33.9044 1.05C34.0528 0.726949 34.094 0.511581 34.0363 0.403898C33.9786 0.296214 33.7808 0.233398 33.4429 0.233398H33.2204C32.8825 0.233398 32.6353 0.28724 32.4705 0.403898C32.3056 0.511581 32.1573 0.726949 32.009 1.05L31.7617 1.60637C32.2892 1.82173 32.7919 2.09094 33.2698 2.41399L33.9044 1.05Z" fill="#A7A7A7"/>
<path d="M25.5719 1.05C25.4236 0.726949 25.2752 0.511581 25.1104 0.403898C24.9456 0.296214 24.6983 0.233398 24.3604 0.233398H24.1379C23.8 0.233398 23.6023 0.28724 23.5446 0.403898C23.4869 0.511581 23.5281 0.726949 23.6764 1.05L24.3028 2.39605C24.7725 2.07299 25.2835 1.80379 25.8109 1.58842L25.5719 1.05Z" fill="#A7A7A7"/>
<path d="M34.3407 14.9859L31.8107 9.57482C31.7365 9.40432 31.6624 9.24279 31.58 9.09024C31.4069 8.63258 31.1349 8.22877 30.8053 7.89674C30.7229 7.81598 30.6405 7.74419 30.5663 7.68138C30.5168 7.64548 30.4674 7.60959 30.4262 7.57369C29.9564 7.24167 29.3878 7.05322 28.7862 7.05322C28.1846 7.05322 27.6242 7.24167 27.1545 7.57369C27.072 7.62754 26.9979 7.69035 26.9155 7.75317C26.833 7.81598 26.7589 7.88777 26.6847 7.96853C26.3798 8.29158 26.1326 8.68642 25.9677 9.11716C25.8936 9.25176 25.8194 9.40432 25.7452 9.56584L23.2399 14.9859C23.0916 15.309 23.0504 15.5243 23.108 15.632C23.1657 15.7397 23.3635 15.8025 23.7014 15.8025H23.9404C24.2783 15.8025 24.5255 15.7487 24.6903 15.632C24.8552 15.5243 25.0035 15.309 25.1519 14.9859L26.3386 12.3207L27.4099 9.90684C27.4264 9.86197 27.4429 9.82608 27.4676 9.79018C27.5088 9.70045 27.55 9.61071 27.5912 9.52995C27.8467 9.09921 28.2835 8.82103 28.7862 8.82103C29.3219 8.82103 29.7916 9.14408 30.0306 9.61968C30.0718 9.70942 30.113 9.80813 30.1542 9.90684L31.2256 12.3028L32.4206 14.9769C32.5689 15.3 32.7172 15.5154 32.8821 15.623C33.0469 15.7307 33.2941 15.7935 33.632 15.7935H33.871C34.2089 15.7935 34.4067 15.7397 34.4644 15.623C34.5385 15.5243 34.4891 15.309 34.3407 14.9859Z" fill="#A7A7A7"/>
<path d="M32.6517 3.76898L32.7589 3.53567C32.8413 3.35619 32.7836 3.14082 32.627 3.04211C32.2397 2.79983 31.8359 2.59343 31.4073 2.42293C30.5832 2.09988 29.7014 1.92041 28.7784 1.92041C27.8636 1.92041 26.9818 2.09091 26.1742 2.41396C25.7539 2.58446 25.3418 2.79085 24.9545 3.03314C24.7979 3.13185 24.7402 3.34722 24.8226 3.52669L24.9298 3.76001C25.1523 4.23561 25.6797 4.42406 26.1165 4.19074C26.9159 3.76898 27.8224 3.52669 28.7702 3.52669C29.7344 3.52669 30.6491 3.76898 31.4568 4.20869C31.8936 4.43303 32.4292 4.25356 32.6517 3.76898Z" fill="#A7A7A7"/>
<path d="M31.2009 5.98539L31.2916 5.78797C31.3822 5.59055 31.3163 5.35724 31.135 5.24955C30.8713 5.10597 30.5993 4.98932 30.3191 4.89061V4.88163C29.8329 4.72011 29.3137 4.63037 28.778 4.63037C28.2506 4.63037 27.7396 4.72011 27.2616 4.87266C26.9732 4.97137 26.7012 5.08803 26.4458 5.2316C26.2645 5.33031 26.1903 5.5726 26.2892 5.77002L26.3716 5.96744C26.5447 6.32639 26.9402 6.48791 27.2864 6.32639C27.7396 6.11102 28.2423 5.99436 28.7698 5.99436C29.2972 5.99436 29.8082 6.11102 30.2614 6.32639C30.6158 6.49689 31.0196 6.35331 31.2009 5.98539Z" fill="#A7A7A7"/>
</g>
<defs>
<clipPath id="clip0_307_3148">
<rect width="76" height="16" fill="white"/>
</clipPath>
</defs>
</svg>
