<svg width="287" height="206" viewBox="0 0 287 206" fill="none" xmlns="http://www.w3.org/2000/svg">
<path d="M54.0124 60C53.5027 60 53.1764 59.7451 53.0337 59.2354L40.6168 17.6111C40.4129 16.9383 40.6881 16.6019 41.4425 16.6019H49.2719C49.8224 16.6019 50.1588 16.8669 50.2812 17.397L57.1625 45.4116C57.3256 46.0437 57.5091 47.5219 57.713 49.8462C57.9577 47.4607 58.1514 45.9825 58.2941 45.4116L65.4201 17.397C65.5424 16.8465 65.8788 16.5815 66.4293 16.6019H73.7694C74.3199 16.6019 74.6461 16.8669 74.7481 17.397L81.9046 45.4728C82.027 45.9825 82.2105 47.4403 82.4551 49.8462C82.6998 47.4199 82.8935 45.9417 83.0362 45.4116L89.9175 17.397C90.0399 16.8465 90.3763 16.5815 90.9268 16.6019H98.7562C99.5106 16.6019 99.7756 16.9383 99.5514 17.6111L87.165 59.2354C87.0019 59.7451 86.6655 60 86.1557 60H79.3356C78.7851 60 78.4487 59.7451 78.3263 59.2354L70.6804 32.6277C70.5173 31.9956 70.3338 30.6601 70.1299 28.6212C69.8853 30.6194 69.6712 31.9548 69.4877 32.6277L61.8418 59.2354C61.7194 59.7451 61.3932 60 60.8631 60H54.0124ZM111.418 16.6019C111.662 16.6019 111.856 16.6732 111.999 16.816C112.162 16.9587 112.244 17.132 112.244 17.3359V59.2354C112.244 59.4393 112.162 59.6228 111.999 59.7859C111.856 59.9286 111.662 60 111.418 60H103.772C103.568 60 103.395 59.9286 103.252 59.7859C103.109 59.6432 103.038 59.4597 103.038 59.2354V17.3359C103.038 17.132 103.109 16.9587 103.252 16.816C103.395 16.6732 103.568 16.6019 103.772 16.6019H111.418ZM136.435 38.3162C136.945 38.3162 137.19 38.5711 137.169 39.0808V44.2189C137.169 44.7286 136.925 44.9733 136.435 44.9529H120.776C120.267 44.9529 120.012 44.7082 120.012 44.2189V39.0808C120.012 38.5711 120.267 38.3162 120.776 38.3162H136.435ZM169.863 16.6019C170.373 16.6019 170.628 16.8465 170.628 17.3359V24.0337C170.628 24.5026 170.373 24.7371 169.863 24.7371H155.091C154.887 24.7371 154.673 24.7167 154.449 24.6759C154.245 24.6352 154.072 24.5842 153.929 24.523C153.786 24.4619 153.644 24.3905 153.501 24.3089C153.379 24.2274 153.277 24.1662 153.195 24.1254C153.113 24.0643 153.052 24.0337 153.012 24.0337C153.338 24.7881 153.511 25.3386 153.531 25.6852V32.8723C153.531 33.0762 153.379 33.5962 153.073 34.4321C153.073 34.4321 153.113 34.4117 153.195 34.3709C153.277 34.3302 153.379 34.2792 153.501 34.218C153.644 34.1569 153.786 34.0957 153.929 34.0345C154.072 33.9734 154.245 33.9122 154.449 33.851C154.673 33.7899 154.887 33.7593 155.091 33.7593L166.988 33.8204C167.457 33.8204 167.681 34.0447 167.661 34.4933V40.2736C167.661 40.7833 167.437 41.028 166.988 41.0076H155.091C154.887 41.0076 154.673 40.9872 154.449 40.9464C154.245 40.9056 154.072 40.8445 153.929 40.7629C153.786 40.6814 153.644 40.61 153.501 40.5488C153.379 40.4877 153.277 40.4265 153.195 40.3653L153.073 40.2736C153.358 41.1503 153.511 41.711 153.531 41.9557V59.2354C153.531 59.7451 153.297 60 152.828 60H144.999C144.53 60 144.305 59.7451 144.326 59.2354V17.5194C144.326 16.8873 144.611 16.5815 145.182 16.6019H169.863ZM183.473 16.6019C183.717 16.6019 183.911 16.6732 184.054 16.816C184.217 16.9587 184.299 17.132 184.299 17.3359V59.2354C184.299 59.4393 184.217 59.6228 184.054 59.7859C183.911 59.9286 183.717 60 183.473 60H175.827C175.623 60 175.45 59.9286 175.307 59.7859C175.164 59.6432 175.093 59.4597 175.093 59.2354V17.3359C175.093 17.132 175.164 16.9587 175.307 16.816C175.45 16.6732 175.623 16.6019 175.827 16.6019H183.473Z" fill="white"/>
<path d="M223.598 60.2447C220.051 60.2447 217.196 59.0723 215.035 56.7276C212.894 54.3624 211.824 51.4264 211.824 47.9195L211.763 28.3154C211.763 24.9716 212.945 22.1273 215.31 19.7826C217.696 17.4378 220.56 16.2654 223.904 16.2654H230.541C233.885 16.2654 236.596 17.3359 238.676 19.4767C240.776 21.5972 241.928 24.2682 242.132 27.4896V27.9178C242.132 28.5091 241.857 28.8047 241.306 28.8047H233.722C233.171 28.8047 232.886 28.5091 232.865 27.9178V27.1226C232.539 25.3284 231.346 24.4313 229.287 24.4313H224.577C222.151 24.4313 220.968 25.7464 221.029 28.3766V32.5665C221.029 32.8927 220.815 33.433 220.387 34.1874C220.428 34.1874 220.51 34.1365 220.632 34.0345C220.775 33.9326 220.948 33.8408 221.152 33.7593C221.356 33.6777 221.56 33.6165 221.763 33.5758L222.589 33.3311C223.14 33.2903 223.7 33.2699 224.271 33.2699H231.306C234.649 33.2699 237.504 34.4729 239.869 36.8788C242.254 39.2643 243.447 42.1086 243.447 45.4116V48.103C243.447 51.4468 242.254 54.3114 239.869 56.697C237.483 59.0621 234.629 60.2447 231.306 60.2447H223.598ZM225.219 52.1706H230.602C231.764 52.1706 232.651 51.7832 233.263 51.0084C233.875 50.2336 234.18 49.2448 234.18 48.0418V44.5247C234.18 43.2402 233.854 42.2411 233.202 41.5275C232.549 40.8139 231.601 40.4571 230.357 40.4571H224.394C223.762 40.4571 223.16 40.4775 222.589 40.5182L221.702 40.7629C221.498 40.7221 221.305 40.6712 221.121 40.61C220.938 40.5488 220.775 40.4877 220.632 40.4265C220.51 40.3653 220.428 40.3347 220.387 40.3347C220.387 40.3347 220.428 40.3857 220.51 40.4877C220.591 40.5896 220.662 40.6916 220.724 40.7935C220.805 40.8954 220.877 41.0382 220.938 41.2217C220.999 41.3848 221.029 41.5479 221.029 41.711V48.2253C221.029 49.3875 221.407 50.3356 222.161 51.0696C222.915 51.8036 223.935 52.1706 225.219 52.1706Z" fill="url(#paint0_linear_505_3790)"/>
<g clip-path="url(#clip0_505_3790)">
<path d="M0.5 175.078V85.0204C0.5 82.657 0.915887 81.0649 1.77365 80.2439C2.63142 79.4229 4.26897 79 6.68631 79H8.50582C10.9232 79 12.5867 79.4229 13.4185 80.2439C14.2762 81.0649 14.6921 82.657 14.6921 85.0204V172.938C14.6921 175.899 15.3679 178.013 16.6936 179.332C18.0192 180.626 20.2286 181.272 23.2438 181.272H64.4426C66.7559 181.272 68.2635 181.621 68.9913 182.342C69.7191 183.039 70.083 184.531 70.083 186.77V188.711C70.083 190.95 69.7191 192.442 68.9913 193.139C68.2635 193.836 66.7299 194.209 64.4426 194.209H20.1766C13.2365 194.209 8.24589 192.666 5.12674 189.606C2.05957 186.546 0.5 181.695 0.5 175.078Z" fill="white"/>
<path d="M81.9863 157.514V85.0204C81.9863 82.657 82.4022 81.0649 83.26 80.2439C84.1177 79.4229 85.7553 79 88.1986 79H90.0181C92.4615 79 94.099 79.4229 94.9308 80.2439C95.7886 81.0649 96.2044 82.657 96.2044 85.0204V157.514C96.2044 166.619 98.6218 173.137 103.508 177.093C108.369 181.048 116.089 183.039 126.668 183.039C137.247 183.039 144.967 181.073 149.828 177.093C154.688 173.137 157.132 166.595 157.132 157.514V85.0204C157.132 82.657 157.548 81.0649 158.405 80.2439C159.211 79.4229 160.875 79 163.292 79H165.112C167.529 79 169.193 79.4229 170.024 80.2439C170.882 81.0649 171.298 82.657 171.298 85.0204V157.514C171.298 183.163 156.404 195.975 126.642 195.975C96.8803 196 81.9863 183.163 81.9863 157.514Z" fill="white"/>
<path d="M281.562 85.37C282.784 83.0066 283.147 81.4145 282.654 80.5935C282.16 79.7725 280.522 79.3496 277.741 79.3496H275.921C273.114 79.3496 271.061 79.7725 269.735 80.5935C268.383 81.4145 267.11 83.0066 265.914 85.37L263.887 89.4748C268.28 91.067 272.438 93.0821 276.363 95.4704L281.562 85.37Z" fill="white"/>
<path d="M212.473 85.37C211.252 83.0066 209.978 81.4145 208.652 80.5935C207.301 79.7725 205.247 79.3496 202.466 79.3496H200.646C197.839 79.3496 196.202 79.7725 195.734 80.5935C195.24 81.4145 195.604 83.0066 196.825 85.37L201.998 95.3709C205.923 93.0075 210.108 90.9924 214.501 89.4002L212.473 85.37Z" fill="white"/>
<path d="M285.2 188.537L264.223 148.483C263.6 147.19 262.976 145.996 262.326 144.876C260.87 141.493 258.661 138.483 255.88 136.07C255.204 135.448 254.554 134.925 253.878 134.502C253.488 134.229 253.098 133.955 252.683 133.706C248.758 131.243 244.105 129.825 239.088 129.825C234.098 129.825 229.445 131.243 225.546 133.681C224.87 134.104 224.22 134.552 223.596 135.025C222.947 135.497 222.323 136.02 221.699 136.617C219.152 139.005 217.098 141.891 215.747 145.15C215.149 146.17 214.551 147.289 213.901 148.483L193.107 188.537C191.885 190.9 191.521 192.492 192.015 193.313C192.509 194.134 194.146 194.557 196.928 194.557H198.929C201.71 194.557 203.79 194.134 205.115 193.313C206.441 192.492 207.715 190.9 208.936 188.537L218.788 168.809L227.703 150.971C227.859 150.673 228.015 150.399 228.171 150.101C228.535 149.429 228.873 148.782 229.185 148.16C229.185 148.16 229.185 148.135 229.211 148.135C231.316 144.976 234.955 142.886 239.114 142.886C243.559 142.886 247.432 145.274 249.433 148.832C249.771 149.503 250.135 150.225 250.499 150.971L259.363 168.734L269.266 188.562C270.488 190.925 271.761 192.517 273.087 193.338C274.413 194.159 276.492 194.582 279.273 194.582H281.275C284.082 194.582 285.72 194.159 286.187 193.338C286.785 192.492 286.421 190.9 285.2 188.537Z" fill="white"/>
<path d="M271.139 105.521L272.049 103.779C272.725 102.461 272.231 100.869 270.931 100.147C267.734 98.3559 264.355 96.8134 260.846 95.5696C254.036 93.1564 246.706 91.8379 239.038 91.8379C231.448 91.8379 224.17 93.1315 217.438 95.4949C213.929 96.7388 210.55 98.2563 207.353 100.048C206.053 100.769 205.559 102.386 206.235 103.68L207.119 105.396C208.938 108.904 213.331 110.272 216.97 108.556C223.624 105.396 231.11 103.63 238.986 103.63C246.966 103.63 254.53 105.446 261.236 108.655C264.901 110.397 269.32 109.053 271.139 105.521Z" fill="white" fill-opacity="0.5"/>
<path d="M259.13 121.889L259.909 120.446C260.689 119.003 260.091 117.237 258.584 116.491C256.426 115.421 254.165 114.525 251.826 113.829L251.852 113.804C247.823 112.585 243.534 111.913 239.063 111.913C234.67 111.913 230.459 112.56 226.483 113.729C224.117 114.426 221.856 115.321 219.698 116.391C218.191 117.137 217.593 118.904 218.373 120.347L219.153 121.765C220.582 124.427 223.883 125.596 226.742 124.427C230.511 122.859 234.67 121.989 239.037 121.989C243.43 121.989 247.615 122.859 251.436 124.451C254.295 125.67 257.648 124.601 259.13 121.889Z" fill="white" fill-opacity="0.5"/>
</g>
<defs>
<linearGradient id="paint0_linear_505_3790" x1="244.904" y1="-1.64827e-05" x2="202.831" y2="69.9682" gradientUnits="userSpaceOnUse">
<stop offset="0.0647518" stop-color="#99F3FF"/>
<stop offset="1" stop-color="#E9FFC4"/>
</linearGradient>
<clipPath id="clip0_505_3790">
<rect width="286" height="117" fill="white" transform="translate(0.5 79)"/>
</clipPath>
</defs>
</svg>
