<svg width="287" height="206" viewBox="0 0 287 206" fill="none" xmlns="http://www.w3.org/2000/svg">
<path d="M129.433 28.8291V60H121.107V28.8291H129.433ZM120.588 20.7051C120.588 19.4951 121.011 18.4964 121.856 17.709C122.701 16.9215 123.834 16.5278 125.255 16.5278C126.657 16.5278 127.781 16.9215 128.626 17.709C129.49 18.4964 129.922 19.4951 129.922 20.7051C129.922 21.915 129.49 22.9137 128.626 23.7012C127.781 24.4886 126.657 24.8823 125.255 24.8823C123.834 24.8823 122.701 24.4886 121.856 23.7012C121.011 22.9137 120.588 21.915 120.588 20.7051ZM174.432 28.8291V60H166.106V28.8291H174.432ZM165.587 20.7051C165.587 19.4951 166.01 18.4964 166.855 17.709C167.7 16.9215 168.833 16.5278 170.254 16.5278C171.656 16.5278 172.78 16.9215 173.625 17.709C174.489 18.4964 174.921 19.4951 174.921 20.7051C174.921 21.915 174.489 22.9137 173.625 23.7012C172.78 24.4886 171.656 24.8823 170.254 24.8823C168.833 24.8823 167.7 24.4886 166.855 23.7012C166.01 22.9137 165.587 21.915 165.587 20.7051Z" fill="white"/>
<path d="M71.4607 59.9998C70.951 59.9998 70.6247 59.7449 70.482 59.2352L58.0651 17.6109C57.8612 16.9381 58.1364 16.6017 58.8908 16.6017H66.7202C67.2707 16.6017 67.6071 16.8667 67.7295 17.3968L74.6108 45.4114C74.7739 46.0435 74.9574 47.5217 75.1613 49.846C75.406 47.4605 75.5997 45.9823 75.7424 45.4114L82.8684 17.3968C82.9907 16.8463 83.3271 16.5813 83.8776 16.6017H91.2177C91.7682 16.6017 92.0944 16.8667 92.1964 17.3968L99.3529 45.4726C99.4753 45.9823 99.6588 47.4401 99.9034 49.846C100.148 47.4197 100.342 45.9415 100.484 45.4114L107.366 17.3968C107.488 16.8463 107.825 16.5813 108.375 16.6017H116.204C116.959 16.6017 117.224 16.9381 117 17.6109L104.613 59.2352C104.45 59.7449 104.114 59.9998 103.604 59.9998H96.7839C96.2334 59.9998 95.897 59.7449 95.7746 59.2352L88.1287 32.6275C87.9656 31.9954 87.7821 30.6599 87.5782 28.621C87.3336 30.6192 87.1195 31.9546 86.936 32.6275L79.2901 59.2352C79.1677 59.7449 78.8415 59.9998 78.3114 59.9998H71.4607ZM161.311 16.6017C161.821 16.6017 162.076 16.8463 162.076 17.3357V24.0335C162.076 24.5024 161.821 24.7369 161.311 24.7369H146.539C146.335 24.7369 146.121 24.7165 145.897 24.6757C145.693 24.635 145.52 24.584 145.377 24.5228C145.234 24.4617 145.092 24.3903 144.949 24.3087C144.827 24.2272 144.725 24.166 144.643 24.1252C144.561 24.0641 144.5 24.0335 144.46 24.0335C144.786 24.7879 144.959 25.3384 144.979 25.685V32.8721C144.979 33.076 144.827 33.596 144.521 34.4319C144.521 34.4319 144.561 34.4115 144.643 34.3707C144.725 34.33 144.827 34.279 144.949 34.2178C145.092 34.1567 145.234 34.0955 145.377 34.0343C145.52 33.9732 145.693 33.912 145.897 33.8508C146.121 33.7897 146.335 33.7591 146.539 33.7591L158.436 33.8202C158.905 33.8202 159.129 34.0445 159.109 34.4931V40.2734C159.109 40.7831 158.885 41.0278 158.436 41.0074H146.539C146.335 41.0074 146.121 40.987 145.897 40.9462C145.693 40.9054 145.52 40.8443 145.377 40.7627C145.234 40.6812 145.092 40.6098 144.949 40.5486C144.827 40.4875 144.725 40.4263 144.643 40.3651L144.521 40.2734C144.806 41.1501 144.959 41.7108 144.979 41.9555V59.2352C144.979 59.7449 144.745 59.9998 144.276 59.9998H136.447C135.978 59.9998 135.753 59.7449 135.774 59.2352V17.5192C135.774 16.8871 136.059 16.5813 136.63 16.6017H161.311Z" fill="white"/>
<path d="M209.283 60.2449C205.736 60.2449 202.881 59.0725 200.72 56.7278C198.579 54.3626 197.509 51.4266 197.509 47.9197L197.448 28.3156C197.448 24.9718 198.63 22.1275 200.995 19.7828C203.381 17.438 206.245 16.2656 209.589 16.2656H216.226C219.57 16.2656 222.281 17.3361 224.361 19.4769C226.461 21.5974 227.613 24.2684 227.817 27.4898V27.918C227.817 28.5093 227.542 28.8049 226.991 28.8049H219.407C218.856 28.8049 218.571 28.5093 218.55 27.918V27.1228C218.224 25.3286 217.031 24.4315 214.972 24.4315H210.262C207.836 24.4315 206.653 25.7466 206.714 28.3768V32.5667C206.714 32.8929 206.5 33.4332 206.072 34.1876C206.113 34.1876 206.195 34.1367 206.317 34.0347C206.46 33.9328 206.633 33.841 206.837 33.7595C207.041 33.6779 207.245 33.6167 207.448 33.576L208.274 33.3313C208.825 33.2905 209.385 33.2701 209.956 33.2701H216.991C220.334 33.2701 223.189 34.4731 225.554 36.879C227.939 39.2645 229.132 42.1088 229.132 45.4118V48.1032C229.132 51.447 227.939 54.3116 225.554 56.6972C223.168 59.0623 220.314 60.2449 216.991 60.2449H209.283ZM210.904 52.1708H216.287C217.449 52.1708 218.336 51.7834 218.948 51.0086C219.56 50.2338 219.865 49.245 219.865 48.042V44.5249C219.865 43.2404 219.539 42.2413 218.887 41.5277C218.234 40.8141 217.286 40.4573 216.042 40.4573H210.079C209.447 40.4573 208.845 40.4777 208.274 40.5184L207.387 40.7631C207.183 40.7223 206.99 40.6714 206.806 40.6102C206.623 40.549 206.46 40.4879 206.317 40.4267C206.195 40.3655 206.113 40.3349 206.072 40.3349C206.072 40.3349 206.113 40.3859 206.195 40.4879C206.276 40.5898 206.347 40.6918 206.409 40.7937C206.49 40.8956 206.562 41.0384 206.623 41.2219C206.684 41.385 206.714 41.5481 206.714 41.7112V48.2255C206.714 49.3877 207.092 50.3358 207.846 51.0698C208.6 51.8038 209.62 52.1708 210.904 52.1708Z" fill="url(#paint0_linear_1615_3961)"/>
<mask id="mask0_1615_3961" style="mask-type:luminance" maskUnits="userSpaceOnUse" x="1" y="79" width="286" height="117">
<path d="M287 79H1V196H287V79Z" fill="white"/>
</mask>
<g mask="url(#mask0_1615_3961)">
<path d="M1 175.078V85.0204C1 82.657 1.41589 81.0649 2.27365 80.2439C3.13142 79.4229 4.76897 79 7.18631 79H9.00582C11.4232 79 13.0867 79.4229 13.9185 80.2439C14.7762 81.0649 15.1921 82.657 15.1921 85.0204V172.938C15.1921 175.899 15.8679 178.013 17.1936 179.332C18.5192 180.626 20.7286 181.272 23.7438 181.272H64.9426C67.2559 181.272 68.7635 181.621 69.4913 182.342C70.2191 183.039 70.583 184.531 70.583 186.77V188.711C70.583 190.95 70.2191 192.442 69.4913 193.139C68.7635 193.836 67.2299 194.209 64.9426 194.209H20.6766C13.7365 194.209 8.74589 192.666 5.62674 189.606C2.55957 186.546 1 181.695 1 175.078Z" fill="white"/>
<path d="M82.4863 157.514V85.0204C82.4863 82.657 82.9022 81.0649 83.76 80.2439C84.6177 79.4229 86.2553 79 88.6986 79H90.5181C92.9615 79 94.599 79.4229 95.4308 80.2439C96.2886 81.0649 96.7044 82.657 96.7044 85.0204V157.514C96.7044 166.619 99.1218 173.137 104.008 177.093C108.869 181.048 116.589 183.039 127.168 183.039C137.747 183.039 145.467 181.073 150.328 177.093C155.188 173.137 157.632 166.595 157.632 157.514V85.0204C157.632 82.657 158.048 81.0649 158.905 80.2439C159.711 79.4229 161.375 79 163.792 79H165.612C168.029 79 169.693 79.4229 170.524 80.2439C171.382 81.0649 171.798 82.657 171.798 85.0204V157.514C171.798 183.163 156.904 195.975 127.142 195.975C97.3803 196 82.4863 183.163 82.4863 157.514Z" fill="white"/>
<path d="M282.062 85.37C283.284 83.0066 283.647 81.4145 283.154 80.5935C282.66 79.7725 281.022 79.3496 278.241 79.3496H276.421C273.614 79.3496 271.561 79.7725 270.235 80.5935C268.883 81.4145 267.61 83.0066 266.414 85.37L264.387 89.4748C268.78 91.067 272.938 93.0821 276.863 95.4704L282.062 85.37Z" fill="white"/>
<path d="M212.973 85.37C211.752 83.0066 210.478 81.4145 209.152 80.5935C207.801 79.7725 205.747 79.3496 202.966 79.3496H201.146C198.339 79.3496 196.702 79.7725 196.234 80.5935C195.74 81.4145 196.104 83.0066 197.325 85.37L202.498 95.3709C206.423 93.0075 210.608 90.9924 215.001 89.4002L212.973 85.37Z" fill="white"/>
<path d="M285.7 188.537L264.723 148.483C264.1 147.19 263.476 145.996 262.826 144.876C261.37 141.493 259.161 138.483 256.38 136.07C255.704 135.448 255.054 134.925 254.378 134.502C253.988 134.229 253.598 133.955 253.183 133.706C249.258 131.243 244.605 129.825 239.588 129.825C234.598 129.825 229.945 131.243 226.046 133.681C225.37 134.104 224.72 134.552 224.096 135.025C223.447 135.497 222.823 136.02 222.199 136.617C219.652 139.005 217.598 141.891 216.247 145.15C215.649 146.17 215.051 147.289 214.401 148.483L193.607 188.537C192.385 190.9 192.021 192.492 192.515 193.313C193.009 194.134 194.646 194.557 197.428 194.557H199.429C202.21 194.557 204.29 194.134 205.615 193.313C206.941 192.492 208.215 190.9 209.436 188.537L219.288 168.809L228.203 150.971C228.359 150.673 228.515 150.399 228.671 150.101C229.035 149.429 229.373 148.782 229.685 148.16C229.685 148.16 229.685 148.135 229.711 148.135C231.816 144.976 235.455 142.886 239.614 142.886C244.059 142.886 247.932 145.274 249.933 148.832C250.271 149.503 250.635 150.225 250.999 150.971L259.863 168.734L269.766 188.562C270.988 190.925 272.261 192.517 273.587 193.338C274.913 194.159 276.992 194.582 279.773 194.582H281.775C284.582 194.582 286.22 194.159 286.687 193.338C287.285 192.492 286.921 190.9 285.7 188.537Z" fill="white"/>
<path d="M271.639 105.521L272.549 103.779C273.225 102.461 272.731 100.869 271.431 100.147C268.234 98.3559 264.855 96.8134 261.346 95.5696C254.536 93.1564 247.206 91.8379 239.538 91.8379C231.948 91.8379 224.67 93.1315 217.938 95.4949C214.429 96.7388 211.05 98.2563 207.853 100.048C206.553 100.769 206.059 102.386 206.735 103.68L207.619 105.396C209.438 108.904 213.831 110.272 217.47 108.556C224.124 105.396 231.61 103.63 239.486 103.63C247.466 103.63 255.03 105.446 261.736 108.655C265.401 110.397 269.82 109.053 271.639 105.521Z" fill="white" fill-opacity="0.5"/>
<path d="M259.63 121.889L260.409 120.446C261.189 119.003 260.591 117.237 259.084 116.491C256.926 115.421 254.665 114.525 252.326 113.829L252.352 113.804C248.323 112.585 244.034 111.913 239.563 111.913C235.17 111.913 230.959 112.56 226.983 113.729C224.617 114.426 222.356 115.321 220.198 116.391C218.691 117.137 218.093 118.904 218.873 120.347L219.653 121.765C221.082 124.427 224.383 125.596 227.242 124.427C231.011 122.859 235.17 121.989 239.537 121.989C243.93 121.989 248.115 122.859 251.936 124.451C254.795 125.67 258.148 124.601 259.63 121.889Z" fill="white" fill-opacity="0.5"/>
</g>
<defs>
<linearGradient id="paint0_linear_1615_3961" x1="230.589" y1="0.000209471" x2="188.516" y2="69.9684" gradientUnits="userSpaceOnUse">
<stop offset="0.0647518" stop-color="#99F3FF"/>
<stop offset="1" stop-color="#E9FFC4"/>
</linearGradient>
</defs>
</svg>
