<svg width="76" height="16" viewBox="0 0 76 16" fill="none" xmlns="http://www.w3.org/2000/svg">
<path d="M0 13.1828V1.05532C0 0.73335 0.0496084 0.518705 0.157093 0.411382C0.25631 0.30406 0.454743 0.241455 0.752393 0.241455H0.975631C1.27328 0.241455 1.47171 0.295116 1.57093 0.411382C1.67015 0.518705 1.72802 0.73335 1.72802 1.05532V12.8966C1.72802 13.2901 1.8107 13.5852 1.9678 13.7551C2.13316 13.934 2.39774 14.0145 2.76153 14.0145H7.74717C8.02829 14.0145 8.21018 14.0592 8.30113 14.1576C8.39208 14.256 8.43342 14.4527 8.43342 14.7568V15.0162C8.43342 15.3203 8.39208 15.517 8.30113 15.6154C8.21018 15.7138 8.02829 15.7585 7.74717 15.7585H2.3812C1.54613 15.7585 0.934291 15.5528 0.562228 15.1414C0.190165 14.73 0 14.0771 0 13.1828Z" fill="#A7A7A7"/>
<path d="M9.86426 10.8217V1.05532C9.86426 0.73335 9.91387 0.518705 10.0214 0.411382C10.1206 0.30406 10.319 0.241455 10.6167 0.241455H10.8399C11.1375 0.241455 11.336 0.295116 11.4352 0.411382C11.5344 0.518705 11.5923 0.73335 11.5923 1.05532V10.8217C11.5923 12.0469 11.8899 12.9234 12.477 13.46C13.064 13.9966 13.9983 14.256 15.2798 14.256C16.5614 14.256 17.4957 13.9877 18.0827 13.46C18.6697 12.9234 18.9674 12.0469 18.9674 10.8217V1.05532C18.9674 0.73335 19.017 0.518705 19.1245 0.411382C19.2237 0.30406 19.4221 0.241455 19.7198 0.241455H19.943C20.2407 0.241455 20.4391 0.295116 20.5383 0.411382C20.621 0.527648 20.6706 0.742294 20.6706 1.05532V10.8217C20.6706 14.2739 18.8682 16 15.2633 16C11.6667 16 9.86426 14.2739 9.86426 10.8217Z" fill="#A7A7A7"/>
<path d="M34.0149 1.10903C34.1638 0.787061 34.2051 0.572416 34.1472 0.465093C34.0893 0.357771 33.8909 0.295166 33.5519 0.295166H33.3287C32.9897 0.295166 32.7417 0.348827 32.5763 0.465093C32.4109 0.572416 32.2621 0.787061 32.1133 1.10903L31.8652 1.66353C32.3944 1.87817 32.8987 2.14648 33.3783 2.46845L34.0149 1.10903Z" fill="#A7A7A7"/>
<path d="M25.6557 1.10903C25.5069 0.787061 25.3581 0.572416 25.1927 0.465093C25.0274 0.357771 24.7793 0.295166 24.4403 0.295166H24.2171C23.8781 0.295166 23.6797 0.348827 23.6218 0.465093C23.5639 0.572416 23.6053 0.787061 23.7541 1.10903L24.3825 2.45056C24.8537 2.12859 25.3664 1.86029 25.8955 1.64564L25.6557 1.10903Z" fill="#A7A7A7"/>
<path d="M34.4527 14.9984L31.9144 9.60542C31.84 9.43549 31.7656 9.27451 31.6829 9.12247C31.5093 8.66635 31.2364 8.26389 30.9057 7.93298C30.823 7.85249 30.7403 7.78094 30.6659 7.71833C30.6163 7.68256 30.5667 7.64679 30.5254 7.61101C30.0541 7.2801 29.4836 7.09229 28.88 7.09229C28.2764 7.09229 27.7142 7.2801 27.2429 7.61101C27.1603 7.66467 27.0858 7.72728 27.0032 7.78988C26.9205 7.85249 26.8461 7.92403 26.7717 8.00453C26.4657 8.32649 26.2177 8.72001 26.0523 9.1493C25.9779 9.28345 25.9035 9.43549 25.8291 9.59648L23.3156 14.9894C23.1668 15.3114 23.1254 15.526 23.1833 15.6334C23.2412 15.7407 23.4396 15.8033 23.7786 15.8033H24.0184C24.3574 15.8033 24.6054 15.7496 24.7708 15.6334C24.9361 15.526 25.085 15.3114 25.2338 14.9894L26.4244 12.3332L27.4992 9.92739C27.5158 9.88267 27.5323 9.8469 27.5571 9.81112C27.5985 9.72169 27.6398 9.63225 27.6811 9.55176C27.9375 9.12247 28.3757 8.84522 28.88 8.84522C29.4174 8.84522 29.8887 9.16719 30.1285 9.6412C30.1698 9.73063 30.2112 9.82901 30.2525 9.92739L31.3274 12.3153L32.5262 14.9805C32.6751 15.3025 32.8239 15.5171 32.9892 15.6244C33.1546 15.7317 33.4026 15.7944 33.7416 15.7944H33.9814C34.3204 15.7944 34.5188 15.7407 34.5767 15.6244C34.6511 15.526 34.6015 15.3114 34.4527 14.9984Z" fill="#A7A7A7"/>
<path d="M32.7585 3.81884L32.866 3.57737C32.9486 3.3985 32.8908 3.18385 32.7337 3.08547C32.3451 2.844 31.9399 2.6383 31.51 2.46837C30.6832 2.1464 29.7985 1.96753 28.8725 1.96753C27.9547 1.96753 27.07 2.13746 26.2598 2.45942C25.8381 2.62935 25.4247 2.83505 25.0361 3.07653C24.879 3.17491 24.8211 3.38955 24.9038 3.56842L25.0113 3.80096C25.2345 4.27496 25.7637 4.46278 26.2019 4.23025C27.0039 3.8099 27.9134 3.56842 28.8642 3.56842C29.8316 3.56842 30.7493 3.8099 31.5596 4.24813C31.9978 4.47172 32.5352 4.29285 32.7585 3.81884Z" fill="#A7A7A7"/>
<path d="M31.303 6.01893L31.394 5.82217C31.4849 5.62542 31.4188 5.39288 31.2369 5.28556C30.9723 5.14246 30.6995 5.0262 30.4183 4.92782V4.91888C29.9305 4.75789 29.4096 4.66846 28.8722 4.66846C28.3431 4.66846 27.8304 4.75789 27.3509 4.90993C27.0615 5.00831 26.7887 5.12458 26.5324 5.26767C26.3505 5.36605 26.276 5.60753 26.3753 5.80429L26.4579 6.00999C26.6316 6.36773 27.0284 6.52871 27.3757 6.36773C27.8304 6.15309 28.3348 6.03682 28.8639 6.03682C29.3931 6.03682 29.9057 6.15309 30.3605 6.36773C30.716 6.52871 31.1211 6.38562 31.303 6.01893Z" fill="#A7A7A7"/>
<path d="M46.3098 0C47.8807 0 49.0383 0.348798 49.7906 1.04639C50.543 1.74399 50.9151 2.80827 50.9151 4.23924C50.9151 5.14254 50.7745 5.85802 50.4934 6.3678C50.2123 6.88653 49.7328 7.30688 49.0383 7.64673C49.832 7.97764 50.4025 8.44271 50.758 9.03298C51.1135 9.62325 51.2872 10.4192 51.2872 11.412C51.2872 14.4259 49.617 15.9374 46.285 15.9374C42.9695 15.9374 41.3076 14.4349 41.3076 11.4388C41.3076 10.4192 41.4895 9.62325 41.8616 9.03298C42.2254 8.44271 42.8207 7.98659 43.6475 7.64673C42.9447 7.31582 42.4403 6.88653 42.151 6.3678C41.8533 5.84908 41.7128 5.14254 41.7128 4.23924C41.7045 1.41308 43.2423 0 46.3098 0ZM43.0522 11.3136C43.0522 12.3331 43.3002 13.0665 43.8046 13.5137C44.3007 13.9698 45.144 14.1934 46.3181 14.1934C47.4921 14.1934 48.3272 13.9698 48.8316 13.5137C49.3276 13.0576 49.5839 12.3242 49.5839 11.3136C49.5839 10.3477 49.3194 9.6322 48.7985 9.16713C48.2776 8.71101 47.4508 8.47848 46.3181 8.47848C45.1853 8.47848 44.3585 8.71101 43.8376 9.16713C43.3085 9.6322 43.0522 10.3477 43.0522 11.3136ZM49.2119 4.36445C49.2119 3.40749 48.9969 2.73672 48.5587 2.34321C48.1288 1.94969 47.3681 1.74399 46.2767 1.74399C45.1936 1.74399 44.4329 1.94969 44.0113 2.3611C43.5979 2.75461 43.3912 3.42538 43.3912 4.36445C43.3912 5.28563 43.6144 5.9564 44.0526 6.3678C44.5074 6.76132 45.2597 6.96702 46.3015 6.96702C47.3433 6.96702 48.0874 6.76132 48.5339 6.35886C48.9886 5.94746 49.2119 5.28563 49.2119 4.36445Z" fill="#A7A7A7"/>
<path d="M58.5297 15.9373C56.752 15.9373 55.4622 15.4633 54.6519 14.5153C53.8417 13.5673 53.4365 12.0827 53.4365 10.0525V5.92951C53.4365 3.88143 53.8334 2.38786 54.6354 1.43985C55.4374 0.49183 56.7272 0.0178223 58.5214 0.0178223C60.3156 0.0178223 61.6054 0.482887 62.4074 1.42196C63.2094 2.36103 63.6062 3.86355 63.6062 5.92056V10.0435C63.6062 12.0916 63.2094 13.5852 62.4074 14.5243C61.6219 15.4723 60.3238 15.9373 58.5297 15.9373ZM61.8782 10.0525V5.92951C61.8782 4.43593 61.6219 3.36271 61.1176 2.70983C60.6132 2.05695 59.7451 1.73498 58.5297 1.73498C57.3391 1.73498 56.4874 2.05695 55.9748 2.70983C55.4622 3.36271 55.2059 4.43593 55.2059 5.92951V10.0525C55.2059 11.5461 55.4622 12.6103 55.9748 13.2453C56.4874 13.8803 57.3391 14.2023 58.5297 14.2023C59.7451 14.2023 60.6132 13.8893 61.1176 13.2632C61.6302 12.6282 61.8782 11.5639 61.8782 10.0525Z" fill="#A7A7A7"/>
<path d="M70.9076 15.9373C69.1299 15.9373 67.8401 15.4633 67.0299 14.5153C66.2196 13.5673 65.8145 12.0827 65.8145 10.0525V5.92951C65.8145 3.88143 66.2113 2.38786 67.0133 1.43985C67.8153 0.49183 69.1051 0.0178223 70.8993 0.0178223C72.6935 0.0178223 73.9833 0.482887 74.7853 1.42196C75.5873 2.36103 75.9842 3.86355 75.9842 5.92056V10.0435C75.9842 12.0916 75.5873 13.5852 74.7853 14.5243C73.9998 15.4723 72.7017 15.9373 70.9076 15.9373ZM74.2561 10.0525V5.92951C74.2561 4.43593 73.9998 3.36271 73.4955 2.70983C72.9911 2.05695 72.123 1.73498 70.9076 1.73498C69.717 1.73498 68.8654 2.05695 68.3527 2.70983C67.8401 3.36271 67.5838 4.43593 67.5838 5.92951V10.0525C67.5838 11.5461 67.8401 12.6103 68.3527 13.2453C68.8654 13.8803 69.717 14.2023 70.9076 14.2023C72.123 14.2023 72.9911 13.8893 73.4955 13.2632C74.0081 12.6282 74.2561 11.5639 74.2561 10.0525Z" fill="#A7A7A7"/>
</svg>
