<svg width="22" height="20" viewBox="0 0 22 20" fill="none" xmlns="http://www.w3.org/2000/svg">
<path d="M15.2123 19.9855C14.9555 20.0483 14.8271 19.9069 14.8271 19.5613L14.8271 17.1574C14.8271 16.906 14.9234 16.7803 15.116 16.7803L15.5011 16.686C16.4318 16.4975 17.0737 16.0732 17.4267 15.4133C17.7797 14.7849 17.9562 13.6693 17.9562 12.0667L17.9562 8.76722L15.7899 8.76722C15.2123 8.76722 14.9234 8.51583 14.9234 8.01305L14.9234 0.848443C14.9234 0.282815 15.2123 1.31394e-06 15.7899 1.36445e-06L21.1335 1.83159e-06C21.7112 1.8821e-06 22 0.282816 22 0.848444L22 8.01305C22 8.0759 22 8.13875 22 8.2016C22 8.2016 22 8.23302 22 8.29587L22 12.7266C22 14.8634 21.4544 16.5132 20.3632 17.6759C19.2721 18.87 17.8439 19.6398 16.0788 19.9855L15.2123 19.9855ZM0.433258 19.9855C0.176512 20.0483 0.0320911 19.9069 -1.86899e-06 19.5613L-1.65884e-06 17.1574C-1.63686e-06 16.906 0.0962775 16.7803 0.288838 16.7803L0.722098 16.686C1.65281 16.4975 2.29467 16.0732 2.6477 15.4133C3.00073 14.7849 3.17724 13.6693 3.17724 12.0667L3.17724 8.76722L1.01094 8.76722C0.433259 8.76722 0.128371 8.51583 0.0962783 8.01305L0.0962789 0.848442C0.096279 0.282814 0.401167 1.91185e-08 1.01094 7.24266e-08L6.40263 5.43783e-07C6.91612 5.88674e-07 7.18891 0.282815 7.22101 0.848443L7.22101 8.01305C7.22101 8.0759 7.22101 8.13875 7.22101 8.2016C7.22101 8.2016 7.22101 8.23302 7.22101 8.29587L7.22101 12.7266C7.221 14.8634 6.67542 16.5132 5.58424 17.6759C4.49307 18.87 3.09701 19.6398 1.39606 19.9855L0.433258 19.9855Z" fill="white"/>
</svg>
