<svg width="21" height="20" viewBox="0 0 21 20" fill="none" xmlns="http://www.w3.org/2000/svg">
<path d="M6.47921 0.0145033C6.72429 -0.0483442 6.84683 0.0930626 6.84683 0.438724V2.84264C6.84683 3.09403 6.75492 3.21972 6.57112 3.21972L6.2035 3.314C5.3151 3.50254 4.70241 3.92676 4.36543 4.58666C4.02845 5.21513 3.85996 6.33067 3.85996 7.93329V11.2328H5.92779C6.47921 11.2328 6.75492 11.4842 6.75492 11.9869V19.1516C6.75492 19.7172 6.47921 20 5.92779 20H0.827133C0.275711 20 0 19.7172 0 19.1516V11.9869C0 11.9241 0 11.8613 0 11.7984C0 11.7984 0 11.767 0 11.7041V7.27339C0 5.13657 0.520788 3.48683 1.56236 2.32415C2.60394 1.13005 3.96718 0.360164 5.65208 0.0145033H6.47921ZM20.5864 0.0145033C20.8315 -0.0483442 20.9694 0.0930626 21 0.438724V2.84264C21 3.09403 20.9081 3.21972 20.7243 3.21972L20.3107 3.314C19.4223 3.50254 18.8096 3.92676 18.4726 4.58666C18.1357 5.21513 17.9672 6.33067 17.9672 7.93329V11.2328H20.035C20.5864 11.2328 20.8775 11.4842 20.9081 11.9869V19.1516C20.9081 19.7172 20.6171 20 20.035 20H14.8884C14.3982 20 14.1379 19.7172 14.1072 19.1516V11.9869C14.1072 11.9241 14.1072 11.8613 14.1072 11.7984C14.1072 11.7984 14.1072 11.767 14.1072 11.7041V7.27339C14.1072 5.13657 14.628 3.48683 15.6696 2.32415C16.7112 1.13005 18.0438 0.360164 19.6674 0.0145033H20.5864Z" fill="white"/>
</svg>
