<svg width="17" height="16" viewBox="0 0 17 16" fill="none" xmlns="http://www.w3.org/2000/svg">
<path d="M5.24508 0.0116026C5.44347 -0.0386754 5.54267 0.0744501 5.54267 0.350979V2.27411C5.54267 2.47522 5.46827 2.57578 5.31948 2.57578L5.02188 2.6512C4.3027 2.80203 3.80671 3.14141 3.53392 3.66933C3.26112 4.17211 3.12473 5.06454 3.12473 6.34663V8.98622H4.79869C5.24508 8.98622 5.46827 9.18733 5.46827 9.58956V15.3212C5.46827 15.7737 5.24508 16 4.79869 16H0.669584C0.223195 16 0 15.7737 0 15.3212V9.58956C0 9.53928 0 9.489 0 9.43872C0 9.43872 0 9.41358 0 9.36331V5.81871C0 4.10926 0.42159 2.78946 1.26477 1.85932C2.10795 0.904037 3.21152 0.288132 4.57549 0.0116026H5.24508ZM16.6652 0.0116026C16.8636 -0.0386754 16.9752 0.0744501 17 0.350979V2.27411C17 2.47522 16.9256 2.57578 16.7768 2.57578L16.442 2.6512C15.7228 2.80203 15.2268 3.14141 14.954 3.66933C14.6813 4.17211 14.5449 5.06454 14.5449 6.34663V8.98622H16.2188C16.6652 8.98622 16.9008 9.18733 16.9256 9.58956V15.3212C16.9256 15.7737 16.69 16 16.2188 16H12.0525C11.6557 16 11.4449 15.7737 11.4201 15.3212V9.58956C11.4201 9.53928 11.4201 9.489 11.4201 9.43872C11.4201 9.43872 11.4201 9.41358 11.4201 9.36331V5.81871C11.4201 4.10926 11.8417 2.78946 12.6849 1.85932C13.5281 0.904037 14.6069 0.288132 15.9212 0.0116026H16.6652Z" fill="#333333"/>
</svg>
