<svg width="17" height="16" viewBox="0 0 17 16" fill="none" xmlns="http://www.w3.org/2000/svg">
<path d="M11.7549 15.9884C11.5565 16.0387 11.4573 15.9255 11.4573 15.649V13.7259C11.4573 13.5248 11.5317 13.4242 11.6805 13.4242L11.9781 13.3488C12.6973 13.198 13.1933 12.8586 13.4661 12.3307C13.7389 11.8279 13.8753 10.9355 13.8753 9.65337V7.01378H12.2013C11.7549 7.01378 11.5317 6.81267 11.5317 6.41044V0.678753C11.5317 0.226252 11.7549 9.53674e-07 12.2013 9.53674e-07H16.3304C16.7768 9.53674e-07 17 0.226252 17 0.678753V6.41044C17 6.46072 17 6.511 17 6.56128C17 6.56128 17 6.58642 17 6.63669V10.1813C17 11.8907 16.5784 13.2105 15.7352 14.1407C14.892 15.096 13.7885 15.7119 12.4245 15.9884H11.7549ZM0.334791 15.9884C0.136396 16.0387 0.0247993 15.9255 0 15.649V13.7259C0 13.5248 0.074398 13.4242 0.223194 13.4242L0.557985 13.3488C1.27717 13.198 1.77316 12.8586 2.04595 12.3307C2.31874 11.8279 2.45514 10.9355 2.45514 9.65337V7.01378H0.781181C0.334791 7.01378 0.0991974 6.81267 0.074398 6.41044V0.678753C0.074398 0.226252 0.309992 9.53674e-07 0.781181 9.53674e-07H4.94748C5.34427 9.53674e-07 5.55507 0.226252 5.57987 0.678753V6.41044C5.57987 6.46072 5.57987 6.511 5.57987 6.56128C5.57987 6.56128 5.57987 6.58642 5.57987 6.63669V10.1813C5.57987 11.8907 5.15828 13.2105 4.3151 14.1407C3.47192 15.096 2.39314 15.7119 1.07877 15.9884H0.334791Z" fill="#333333"/>
</svg>
