<svg xmlns="http://www.w3.org/2000/svg" version="1.1" xmlns:xlink="http://www.w3.org/1999/xlink" xmlns:svgjs="http://svgjs.dev/svgjs" width="1000" height="1000"><g clip-path="url(#SvgjsClipPath2381)"><rect width="1000" height="1000" fill="#a50a0a"></rect><g transform="matrix(10.256410256410257,0,0,10.256410256410257,99.99999999999994,253.8461538461538)"><svg xmlns="http://www.w3.org/2000/svg" version="1.1" xmlns:xlink="http://www.w3.org/1999/xlink" xmlns:svgjs="http://svgjs.dev/svgjs" width="78" height="48"><svg width="78" height="48" viewBox="0 0 78 48" fill="none" xmlns="http://www.w3.org/2000/svg">
<path d="M15.07 7.90997C10.82 7.90997 7.18 10.8 5.88 14.81C5.85 14.9 5.82 14.99 5.8 15.08L5.58 15.94L0 40.11H13.43C17.44 40.11 20.89 37.45 22.23 33.72L22.76 31.42L28.19 7.90997H15.08H15.07ZM22.55 18.53C21.74 19.18 20.86 19.51 19.92 19.51H11.79L11.16 22.22H20.55L20.51 22.4C20.3 23.34 19.78 24.14 18.97 24.8C18.15 25.46 17.25 25.81 16.32 25.81H10.34L9.68 28.64C9.47 29.58 8.95 30.39 8.13 31.06C7.32 31.73 6.42 32.06 5.48 32.06H5.31L8.32 19C8.5 18.37 9.01 17.59 9.79 16.96C10.6 16.3 11.48 15.97 12.42 15.97H12.62V15.95L24.12 15.96L24.08 16.13C23.85 17.06 23.35 17.88 22.55 18.54V18.53Z" fill="#F9ED32"></path>
<path d="M34.49 22.21L42.23 22.22L42.85 19.52L35.11 19.51L34.49 22.21Z" fill="#F9ED32"></path>
<path d="M40.2001 0.75C35.8101 0.75 32.1001 3.72 30.9501 7.78C30.8601 8.08 30.7901 8.39 30.7401 8.71L21.8401 47.27H34.9401C39.4301 47.27 43.2101 44.16 44.2601 39.96L53.3201 0.75H40.2001ZM45.7801 22.39C45.5501 23.34 44.9801 24.37 44.1801 25.02C43.3701 25.67 42.5401 25.78 41.6101 25.78H33.6701L33.0001 28.64C32.7901 29.58 32.2701 30.39 31.4501 31.06C30.6401 31.73 29.7401 32.06 28.8001 32.06H28.6301V32.04L32.3301 15.94H43.8001C44.6101 15.95 45.2901 16.22 45.8001 16.73C46.3201 17.25 46.5701 17.9 46.5601 18.67C46.5601 18.92 46.5301 19.17 46.4801 19.4L45.7801 22.38V22.39Z" fill="#F9ED32"></path>
<path d="M75.15 7.90997H62.04C57.94 7.90997 54.41 10.6 53 14.39C52.93 14.58 52.68 15.38 52.68 15.38L46.97 40.11H60.08C64.58 40.11 68.4 36.86 69.48 32.48L75.15 7.90997ZM63.81 19.53L61.7 28.64C61.49 29.58 60.97 30.39 60.15 31.06C59.34 31.73 58.44 32.06 57.5 32.06H57.33L60.21 19.53H57.68C56.86 19.53 56.19 19.27 55.68 18.75C55.17 18.23 54.92 17.57 54.93 16.78C54.93 16.56 54.96 16.32 55.02 16.07L55.04 15.96H67.15C67.97 15.96 68.64 16.22 69.15 16.74C69.66 17.26 69.91 17.91 69.9 18.68C69.9 18.93 69.87 19.17 69.82 19.41L69.8 19.52H63.83L63.81 19.53Z" fill="#F9ED32"></path>
<path d="M71.5 37.33C71.5 35.8 72.74 34.56 74.27 34.56C75.8 34.56 77.04 35.8 77.04 37.33C77.04 38.86 75.8 40.11 74.27 40.11C72.74 40.11 71.5 38.86 71.5 37.33ZM76.37 37.33C76.37 36.03 75.43 35.09 74.27 35.09C73.11 35.09 72.17 36.03 72.17 37.33C72.17 38.63 73.11 39.57 74.27 39.57C75.43 39.57 76.37 38.63 76.37 37.33ZM73.2 35.75H74.37C75.12 35.75 75.53 36.01 75.53 36.67C75.53 37.21 75.22 37.47 74.7 37.52L75.55 38.89H74.95L74.14 37.54H73.79V38.89H73.2V35.75ZM73.79 37.1H74.31C74.65 37.1 74.95 37.05 74.95 36.63C74.95 36.26 74.61 36.2 74.31 36.2H73.79V37.1Z" fill="#F9ED32"></path>
</svg></svg></g></g><defs><clipPath id="SvgjsClipPath2381"><rect width="1000" height="1000" x="0" y="0" rx="150" ry="150"></rect></clipPath></defs></svg>