<svg width="41" height="40" viewBox="0 0 41 40" fill="none" xmlns="http://www.w3.org/2000/svg">
<path d="M20.9749 29.9999C20.9087 29.9999 20.8425 29.9999 20.7758 29.9996C19.2081 30.0034 17.7596 29.9636 16.3509 29.8779C15.0594 29.7993 13.8805 29.353 12.9415 28.5873C12.0354 27.8484 11.4167 26.8494 11.1025 25.6184C10.829 24.5466 10.8145 23.4945 10.8007 22.4769C10.7906 21.7467 10.7802 20.8816 10.7781 20.0018C10.7802 19.1183 10.7906 18.2531 10.8007 17.523C10.8145 16.5055 10.829 15.4534 11.1025 14.3815C11.4167 13.1504 12.0354 12.1514 12.9415 11.4126C13.8805 10.6469 15.0594 10.2006 16.351 10.122C17.7597 10.0364 19.2086 9.9964 20.7796 10.0002C22.3477 9.99686 23.7958 10.0364 25.2045 10.122C26.496 10.2006 27.6749 10.6469 28.6139 11.4126C29.5201 12.1514 30.1387 13.1504 30.4529 14.3815C30.7263 15.4533 30.7408 16.5055 30.7547 17.523C30.7648 18.2531 30.7753 19.1183 30.7773 19.9981V20.0018C30.7753 20.8816 30.7648 21.7467 30.7547 22.4769C30.7408 23.4943 30.7265 24.5464 30.4529 25.6184C30.1387 26.8494 29.5201 27.8484 28.6139 28.5873C27.6749 29.353 26.496 29.7993 25.2045 29.8779C23.8555 29.96 22.4697 29.9999 20.9749 29.9999ZM20.7758 28.4371C22.318 28.4408 23.734 28.4019 25.1096 28.3183C26.0862 28.2589 26.9329 27.942 27.6265 27.3763C28.2677 26.8534 28.7093 26.132 28.9389 25.232C29.1666 24.3398 29.1797 23.3819 29.1924 22.4555C29.2023 21.7303 29.2127 20.8712 29.2148 19.9999C29.2127 19.1285 29.2023 18.2696 29.1924 17.5443C29.1797 16.618 29.1666 15.66 28.9389 14.7677C28.7093 13.8677 28.2677 13.1463 27.6265 12.6234C26.9329 12.0579 26.0862 11.7409 25.1096 11.6816C23.734 11.5978 22.318 11.5592 20.7794 11.5626C19.2375 11.5589 17.8214 11.5978 16.4458 11.6816C15.4692 11.7409 14.6225 12.0579 13.9289 12.6234C13.2877 13.1463 12.8461 13.8677 12.6165 14.7677C12.3888 15.66 12.3757 16.6178 12.363 17.5443C12.3531 18.2702 12.3427 19.1297 12.3406 20.0018C12.3427 20.87 12.3531 21.7297 12.363 22.4555C12.3757 23.3819 12.3888 24.3398 12.6165 25.232C12.8461 26.132 13.2877 26.8534 13.9289 27.3763C14.6225 27.9418 15.4692 28.2587 16.4458 28.3181C17.8214 28.4019 19.2379 28.4409 20.7758 28.4371ZM20.7386 24.8827C18.0463 24.8827 15.8557 22.6923 15.8557 19.9999C15.8557 17.3075 18.0463 15.1171 20.7386 15.1171C23.431 15.1171 25.6214 17.3075 25.6214 19.9999C25.6214 22.6923 23.431 24.8827 20.7386 24.8827ZM20.7386 16.6796C18.9078 16.6796 17.4182 18.1692 17.4182 19.9999C17.4182 21.8307 18.9078 23.3202 20.7386 23.3202C22.5695 23.3202 24.0589 21.8307 24.0589 19.9999C24.0589 18.1692 22.5695 16.6796 20.7386 16.6796ZM26.1682 13.5546C25.5211 13.5546 24.9964 14.0792 24.9964 14.7265C24.9964 15.3738 25.5211 15.8984 26.1682 15.8984C26.8155 15.8984 27.3401 15.3738 27.3401 14.7265C27.3401 14.0792 26.8155 13.5546 26.1682 13.5546Z" fill="black"/>
</svg>
