<svg width="41" height="40" viewBox="0 0 41 40" fill="none" xmlns="http://www.w3.org/2000/svg">
<path d="M7.57832 23.9941C9.26548 23.9941 10.8521 23.9826 12.4275 23.9941C13.3102 24.0057 13.7906 24.3868 13.88 25.1142C13.9806 26.0265 13.4666 26.6385 12.5057 26.65C10.6957 26.6731 8.89676 26.6616 7.0867 26.6616C6.56155 26.6616 6.04758 26.6847 5.52244 26.65C4.87439 26.6154 4.23752 26.4768 3.92467 25.784C3.61182 25.0911 3.83528 24.4676 4.25986 23.9018C5.98054 21.6385 7.7124 19.3637 9.44425 17.1004C9.54481 16.9618 9.64537 16.8233 9.74593 16.6962C9.63419 16.4999 9.47777 16.5923 9.34369 16.5808C8.13698 16.5692 6.9191 16.5808 5.71239 16.5692C5.43305 16.5692 5.15372 16.5346 4.88557 16.4768C4.24869 16.3267 3.85763 15.6685 4.00288 15.0219C4.10344 14.5831 4.43864 14.2251 4.86322 14.1212C5.13138 14.0519 5.41071 14.0173 5.69004 14.0173C7.67888 14.0057 9.67889 14.0057 11.6677 14.0173C12.0253 14.0057 12.3716 14.0519 12.718 14.1443C13.4778 14.4099 13.8018 15.1374 13.5001 15.8995C13.232 16.5577 12.8074 17.1235 12.3828 17.6893C10.9191 19.6177 9.45542 21.5346 7.99173 23.4399C7.86882 23.59 7.75709 23.7401 7.57832 23.9941Z" fill="black"/>
<path fill-rule="evenodd" clip-rule="evenodd" d="M21.54 17.1341C21.0819 17.2265 20.8026 17.5613 20.5344 17.9193C19.1378 16.6607 17.5959 16.5798 16.0763 17.5152C14.2439 18.6237 13.5623 20.4251 13.797 22.5382C14.0204 24.4897 14.8361 26.0948 16.8249 26.7645C18.0651 27.1802 19.216 27.0301 20.2328 26.1756C20.5009 25.9562 20.5791 26.0024 20.7691 26.2449C21.1378 26.7414 21.7747 26.9146 22.3333 26.6952C22.8808 26.522 23.2607 25.9908 23.2607 25.3904C23.2831 23.0809 23.2942 20.7715 23.2607 18.462C23.2495 17.5382 22.4227 16.9493 21.54 17.1341ZM17.0312 23.5071C16.7517 23.1079 16.601 22.6321 16.5791 22.1341C16.5715 21.0245 16.9686 20.2153 17.6113 19.8379C17.9115 19.657 18.2656 19.571 18.6564 19.5933C19.0183 19.6092 19.3643 19.7403 19.6468 19.9676C19.7746 20.07 19.8895 20.1924 19.9869 20.3327C20.0063 20.3599 20.0251 20.3876 20.0433 20.4159C20.2311 20.7047 20.3546 21.0502 20.4141 21.414C20.536 22.1516 20.3936 22.9609 19.9869 23.5313C19.8752 23.6814 19.7523 23.8084 19.6182 23.9123C19.2338 24.2062 18.775 24.3231 18.3341 24.2776C18.0125 24.245 17.6948 24.1249 17.4162 23.912C17.3652 23.8725 17.3159 23.8296 17.2682 23.7835C17.2003 23.7184 17.1364 23.6473 17.0774 23.5702C17.0673 23.5573 17.0573 23.5442 17.0475 23.5309C17.042 23.523 17.0366 23.5151 17.0312 23.5071Z" fill="black"/>
<path fill-rule="evenodd" clip-rule="evenodd" d="M32.758 16.9378C30.0764 17.0186 28.1881 19.2357 28.2775 22.2033C28.2328 25.0902 30.5457 27.2726 33.4619 26.9724C36.1323 26.6952 37.8642 24.6283 37.7748 21.7068C37.6854 18.82 35.6072 16.8454 32.758 16.9378ZM31.5624 23.5428C31.2272 23.0694 31.0596 22.5036 31.082 21.9262C31.082 20.5539 31.8495 19.6305 32.9621 19.6023C33.0231 19.6004 33.0852 19.6012 33.1482 19.6048C33.6733 19.6164 34.1649 19.8935 34.4778 20.3323C35.1147 21.2099 35.1147 22.6995 34.4666 23.5655C34.1803 23.9407 33.7816 24.1733 33.3573 24.2531C32.6989 24.3834 31.9967 24.1304 31.5624 23.5428Z" fill="black"/>
<path d="M27.2967 21.6953C27.2955 21.0987 27.2943 20.502 27.2943 19.9054C27.2943 19.3054 27.2955 18.7041 27.2967 18.1024C27.2992 16.8976 27.3017 15.6911 27.2943 14.4898C27.2943 13.566 26.7244 12.9886 25.8753 13.0002C25.0484 13.0002 24.5009 13.5775 24.4898 14.4667C24.4823 14.8281 24.4848 15.1843 24.4873 15.5423C24.4885 15.7219 24.4898 15.902 24.4898 16.0833V25.2634C24.4898 25.9908 24.9144 26.6029 25.473 26.753C25.6071 26.7876 25.7523 26.7992 25.8864 26.7992C26.6797 26.7761 27.3054 26.0948 27.2943 25.2749C27.3017 24.0817 27.2992 22.8885 27.2967 21.6953Z" fill="black"/>
</svg>
