<svg width="17" height="16" viewBox="0 0 17 16" fill="none" xmlns="http://www.w3.org/2000/svg">
<mask id="path-1-inside-1_5300_17090" fill="white">
<path d="M14.6296 7.42244L9.74327 2.85481C9.67264 2.78929 9.58452 2.74567 9.4896 2.72923C9.39468 2.71279 9.29703 2.72424 9.20849 2.76219C9.11994 2.80013 9.04431 2.86295 8.99076 2.94302C8.9372 3.0231 8.90801 3.11698 8.90675 3.21331V5.43074C8.90675 5.43074 2.26774 5.47057 1.60384 12.8399C1.5948 12.9289 1.6128 13.0185 1.6555 13.0971C1.69819 13.1758 1.76361 13.2397 1.84319 13.2805C1.92277 13.3214 2.01282 13.3373 2.10159 13.3262C2.19035 13.3151 2.27371 13.2775 2.34077 13.2183C4.15265 11.6039 6.48682 10.6985 8.91339 10.6689V12.8399C8.91338 12.9368 8.94164 13.0315 8.9947 13.1126C9.04776 13.1937 9.12332 13.2575 9.21211 13.2963C9.30091 13.335 9.39909 13.347 9.49462 13.3308C9.59014 13.3146 9.67886 13.2709 9.7499 13.205L14.6296 8.61746C14.7091 8.53958 14.7722 8.44661 14.8153 8.34401C14.8584 8.24141 14.8806 8.13124 14.8806 8.01995C14.8806 7.90866 14.8584 7.79849 14.8153 7.69589C14.7722 7.59329 14.7091 7.50033 14.6296 7.42244Z"/>
</mask>
<path d="M14.6296 7.42244L15.6794 6.35101L15.6668 6.33868L15.6539 6.32665L14.6296 7.42244ZM9.74327 2.85481L10.7676 1.75901L10.7634 1.75511L9.74327 2.85481ZM8.90675 3.21331L7.40688 3.19361L7.40675 3.20346V3.21331H8.90675ZM8.90675 5.43074L8.91575 6.93071L10.4067 6.92177V5.43074H8.90675ZM1.60384 12.8399L3.09616 12.9915L3.09702 12.983L3.09779 12.9745L1.60384 12.8399ZM2.34077 13.2183L3.33354 14.3428L3.33864 14.3382L2.34077 13.2183ZM8.91339 10.6689H10.4134V9.15049L8.89508 9.16903L8.91339 10.6689ZM8.91339 12.8399L10.4134 12.84V12.8399H8.91339ZM9.7499 13.205L10.7699 14.3049L10.7773 14.2979L9.7499 13.205ZM14.6296 8.61746L15.657 9.71033L15.6683 9.69973L15.6794 9.68889L14.6296 8.61746ZM14.8806 8.01995H13.3806H14.8806ZM15.6539 6.32665L10.7676 1.75902L8.71894 3.9506L13.6053 8.51823L15.6539 6.32665ZM10.7634 1.75511C10.48 1.49224 10.1265 1.3172 9.74559 1.25123L9.23362 4.20722C9.04258 4.17414 8.86526 4.08634 8.72314 3.95451L10.7634 1.75511ZM9.74559 1.25123C9.36468 1.18526 8.97286 1.23122 8.61761 1.38347L9.79937 4.1409C9.6212 4.21726 9.42468 4.24031 9.23362 4.20722L9.74559 1.25123ZM8.61761 1.38347C8.2623 1.53574 7.95883 1.78781 7.74394 2.10908L10.2376 3.77696C10.1298 3.93809 9.97759 4.06452 9.79937 4.1409L8.61761 1.38347ZM7.74394 2.10908C7.52909 2.4303 7.41195 2.80702 7.40688 3.19361L10.4066 3.23301C10.4041 3.42695 10.3453 3.61589 10.2376 3.77696L7.74394 2.10908ZM7.40675 3.21331V5.43074H10.4067V3.21331H7.40675ZM8.90675 5.43074C8.89775 3.93077 8.89691 3.93077 8.89604 3.93078C8.89572 3.93078 8.89483 3.93079 8.89418 3.93079C8.89289 3.9308 8.89149 3.93082 8.88999 3.93083C8.88699 3.93086 8.88357 3.9309 8.87974 3.93096C8.87208 3.93107 8.86278 3.93125 8.8519 3.93151C8.83012 3.93203 8.80196 3.9329 8.7678 3.93436C8.69953 3.93729 8.60706 3.94259 8.49361 3.95219C8.26716 3.97137 7.95452 4.00793 7.58207 4.0779C6.84203 4.21693 5.83727 4.49322 4.79739 5.04881C2.64507 6.19877 0.490769 8.47755 0.109892 12.7053L3.09779 12.9745C3.38082 9.83289 4.87796 8.40711 6.21112 7.69482C6.91398 7.3193 7.61047 7.12505 8.13599 7.02632C8.39632 6.97741 8.60753 6.95328 8.74675 6.94149C8.81614 6.93562 8.86695 6.93287 8.89625 6.93161C8.91088 6.93098 8.92008 6.93073 8.92347 6.93065C8.92516 6.93061 8.9254 6.93061 8.92413 6.93063C8.92349 6.93064 8.92248 6.93066 8.92108 6.93067C8.92039 6.93068 8.91959 6.93068 8.9187 6.93069C8.91826 6.9307 8.91752 6.9307 8.9173 6.9307C8.91653 6.93071 8.91575 6.93071 8.90675 5.43074ZM0.111528 12.6882C0.0719843 13.0773 0.150688 13.4694 0.337373 13.8131L2.97362 12.3812C3.07491 12.5677 3.11761 12.7804 3.09616 12.9915L0.111528 12.6882ZM0.337373 13.8131C0.524086 14.1568 0.810103 14.4362 1.15798 14.6149L2.5284 11.9462C2.71712 12.0431 2.8723 12.1947 2.97362 12.3812L0.337373 13.8131ZM1.15798 14.6149C1.50591 14.7935 1.89963 14.8632 2.28776 14.8146L1.91541 11.8378C2.126 11.8115 2.33963 11.8492 2.5284 11.9462L1.15798 14.6149ZM2.28776 14.8146C2.67589 14.7661 3.04034 14.6016 3.33353 14.3428L1.34801 12.0938C1.50708 11.9534 1.70482 11.8642 1.91541 11.8378L2.28776 14.8146ZM3.33864 14.3382C4.88048 12.9645 6.86678 12.194 8.9317 12.1688L8.89508 9.16903C6.10686 9.20307 3.42482 10.2434 1.34291 12.0983L3.33864 14.3382ZM7.41339 10.6689V12.8399H10.4134V10.6689H7.41339ZM7.41339 12.8397C7.41334 13.2284 7.52672 13.6088 7.73963 13.9341L10.2498 12.2911C10.3566 12.4543 10.4134 12.6451 10.4134 12.84L7.41339 12.8397ZM7.73963 13.9341C7.95252 14.2593 8.25569 14.5155 8.61203 14.671L9.8122 11.9215C9.99094 11.9996 10.143 12.128 10.2498 12.2911L7.73963 13.9341ZM8.61203 14.671C8.96833 14.8265 9.36227 14.8747 9.74557 14.8097L9.24367 11.852C9.43592 11.8194 9.6335 11.8435 9.8122 11.9215L8.61203 14.671ZM9.74557 14.8097C10.1289 14.7447 10.4849 14.5692 10.7699 14.3048L8.7299 12.1052C8.87286 11.9726 9.05141 11.8846 9.24367 11.852L9.74557 14.8097ZM10.7773 14.2979L15.657 9.71033L13.6021 7.5246L8.72246 12.1121L10.7773 14.2979ZM15.6794 9.68889C15.9014 9.4713 16.0778 9.21161 16.1982 8.9251L13.4325 7.76292C13.4666 7.68161 13.5167 7.60786 13.5798 7.54604L15.6794 9.68889ZM16.1982 8.9251C16.3186 8.63853 16.3806 8.33081 16.3806 8.01995H13.3806C13.3806 7.93167 13.3983 7.84429 13.4325 7.76292L16.1982 8.9251ZM16.3806 8.01995C16.3806 7.70909 16.3186 7.40137 16.1982 7.11481L13.4325 8.27698C13.3983 8.19561 13.3806 8.10823 13.3806 8.01995H16.3806ZM16.1982 7.11481C16.0778 6.82829 15.9014 6.56861 15.6794 6.35101L13.5798 8.49387C13.5167 8.43204 13.4666 8.3583 13.4325 8.27698L16.1982 7.11481Z" fill="white" mask="url(#path-1-inside-1_5300_17090)"/>
</svg>
