<svg width="40" height="41" viewBox="0 0 40 41" fill="none" xmlns="http://www.w3.org/2000/svg">
<path d="M31.5055 13.7538C31.229 12.7137 30.4183 11.8937 29.3903 11.6136C27.5122 11.0938 19.9997 11.0938 19.9997 11.0938C19.9997 11.0938 12.4876 11.0938 10.6095 11.5939C9.60122 11.8737 8.7708 12.7138 8.49424 13.7538C8 15.6537 8 19.5937 8 19.5937C8 19.5937 8 23.5537 8.49424 25.4337C8.7711 26.4737 9.58145 27.2936 10.6096 27.5737C12.5073 28.0937 20 28.0937 20 28.0937C20 28.0937 27.5122 28.0937 29.3903 27.5936C30.4185 27.3137 31.229 26.4937 31.5058 25.4537C31.9999 23.5537 31.9999 19.6138 31.9999 19.6138C31.9999 19.6138 32.0197 15.6537 31.5055 13.7538V13.7538ZM17.6079 23.2337V15.9538L23.8549 19.5937L17.6079 23.2337Z" fill="white"/>
</svg>
