<svg width="40" height="41" viewBox="0 0 40 41" fill="none" xmlns="http://www.w3.org/2000/svg">
<path d="M20.1968 30.0937C20.1306 30.0937 20.0644 30.0937 19.9977 30.0934C18.43 30.0972 16.9815 30.0574 15.5728 29.9716C14.2813 29.8931 13.1024 29.4467 12.1634 28.6811C11.2573 27.9422 10.6386 26.9432 10.3244 25.7121C10.051 24.6404 10.0365 23.5883 10.0226 22.5707C10.0125 21.8405 10.0021 20.9754 10 20.0955C10.0021 19.212 10.0125 18.3469 10.0226 17.6167C10.0365 16.5993 10.051 15.5472 10.3244 14.4753C10.6386 13.2442 11.2573 12.2452 12.1634 11.5064C13.1024 10.7407 14.2813 10.2943 15.573 10.2158C16.9817 10.1302 18.4305 10.0902 20.0015 10.094C21.5697 10.0906 23.0177 10.1302 24.4264 10.2158C25.7179 10.2943 26.8968 10.7407 27.8358 11.5064C28.7421 12.2452 29.3607 13.2442 29.6748 14.4753C29.9483 15.547 29.9628 16.5993 29.9767 17.6167C29.9867 18.3469 29.9973 19.212 29.9992 20.0919V20.0955C29.9973 20.9754 29.9867 21.8405 29.9767 22.5707C29.9628 23.5881 29.9484 24.6402 29.6748 25.7121C29.3607 26.9432 28.7421 27.9422 27.8358 28.6811C26.8968 29.4467 25.7179 29.8931 24.4264 29.9716C23.0774 30.0537 21.6916 30.0937 20.1968 30.0937ZM19.9977 28.5309C21.5399 28.5346 22.9559 28.4957 24.3315 28.412C25.3081 28.3527 26.1548 28.0358 26.8484 27.4701C27.4896 26.9472 27.9312 26.2258 28.1609 25.3258C28.3885 24.4336 28.4016 23.4757 28.4143 22.5493C28.4242 21.8241 28.4346 20.965 28.4367 20.0937C28.4346 19.2223 28.4242 18.3634 28.4143 17.6381C28.4016 16.7117 28.3885 15.7538 28.1609 14.8615C27.9312 13.9615 27.4896 13.2401 26.8484 12.7171C26.1548 12.1516 25.3081 11.8347 24.3315 11.7754C22.9559 11.6916 21.5399 11.653 20.0014 11.6563C18.4595 11.6527 17.0433 11.6916 15.6677 11.7754C14.6912 11.8347 13.8445 12.1516 13.1508 12.7171C12.5096 13.2401 12.068 13.9615 11.8384 14.8615C11.6107 15.7538 11.5976 16.7116 11.5849 17.6381C11.575 18.364 11.5646 19.2235 11.5625 20.0955C11.5646 20.9638 11.575 21.8234 11.5849 22.5493C11.5976 23.4757 11.6107 24.4336 11.8384 25.3258C12.068 26.2258 12.5096 26.9472 13.1508 27.4701C13.8445 28.0356 14.6912 28.3525 15.6677 28.4119C17.0433 28.4957 18.4598 28.5347 19.9977 28.5309ZM19.9605 24.9765C17.2682 24.9765 15.0777 22.7861 15.0777 20.0937C15.0777 17.4013 17.2682 15.2109 19.9605 15.2109C22.6529 15.2109 24.8433 17.4013 24.8433 20.0937C24.8433 22.7861 22.6529 24.9765 19.9605 24.9765ZM19.9605 16.7734C18.1297 16.7734 16.6402 18.263 16.6402 20.0937C16.6402 21.9245 18.1297 23.414 19.9605 23.414C21.7914 23.414 23.2808 21.9245 23.2808 20.0937C23.2808 18.263 21.7914 16.7734 19.9605 16.7734ZM25.3902 13.6484C24.743 13.6484 24.2183 14.173 24.2183 14.8203C24.2183 15.4675 24.743 15.9921 25.3902 15.9921C26.0374 15.9921 26.562 15.4675 26.562 14.8203C26.562 14.173 26.0374 13.6484 25.3902 13.6484Z" fill="white"/>
</svg>
