<svg width="48" height="48" viewBox="0 0 48 48" fill="none" xmlns="http://www.w3.org/2000/svg">
<path fill-rule="evenodd" clip-rule="evenodd" d="M34.7998 44C17.8158 44 3.99976 30.184 3.99976 13.2C3.99976 8.126 8.12776 4 13.1998 4C13.7198 4 14.2338 4.044 14.7318 4.13C15.2178 4.208 15.7078 4.332 16.1818 4.496C16.8338 4.722 17.3218 5.268 17.4758 5.94L20.2158 17.868C20.3658 18.524 20.1758 19.212 19.7098 19.7C19.4358 19.984 19.4298 19.99 16.9498 21.288C18.9578 25.636 22.4478 29.114 26.7098 31.054C28.0078 28.572 28.0158 28.564 28.2998 28.292C28.7898 27.824 29.4798 27.642 30.1338 27.786L42.0618 30.524C42.7318 30.678 43.2778 31.166 43.5038 31.816C43.6678 32.288 43.7898 32.776 43.8718 33.278C43.9558 33.772 43.9998 34.284 43.9998 34.8C43.9998 39.874 39.8738 44 34.7998 44Z" fill="#16B14B"/>
</svg>
