<svg width="50" height="50" viewBox="0 0 50 50" fill="none" xmlns="http://www.w3.org/2000/svg">
<g clip-path="url(#clip0_5184_1358)">
<path fill-rule="evenodd" clip-rule="evenodd" d="M6.51486 24.1914L25.6301 5.07613C25.8888 4.81746 26.3082 4.81746 26.5669 5.07613L38.7726 17.2818C39.0312 17.5405 39.0312 17.9599 38.7726 18.2186L33.6836 23.3075L33.5813 23.2051L32.3792 24.4072L32.4816 24.5095L26.7943 30.1969L26.6919 30.0945L25.4898 31.2965L25.5922 31.3989L19.6573 37.3338C19.3986 37.5925 18.9792 37.5925 18.7205 37.3338L6.51485 25.1281C6.25618 24.8695 6.25618 24.4501 6.51486 24.1914ZM26.7943 32.601L20.8594 38.5359C19.9368 39.4585 18.441 39.4585 17.5185 38.5359L5.31277 26.3302C4.39021 25.4077 4.39021 23.9119 5.31277 22.9893L24.428 3.87405C25.3506 2.95149 26.8464 2.95149 27.769 3.87405L39.9746 16.0797C40.8972 17.0023 40.8972 18.4981 39.9746 19.4206L34.8857 24.5095L44.0026 33.6264C45.2571 34.8809 45.2571 36.9149 44.0026 38.1694L40.4541 41.7179C39.1996 42.9724 37.1656 42.9724 35.9111 41.7179L26.7943 32.601ZM27.9963 31.3989L37.1132 40.5158C37.7038 41.1064 38.6614 41.1064 39.252 40.5158L42.8005 36.9673C43.3911 36.3767 43.3911 35.4191 42.8005 34.8285L33.6836 25.7116L27.9963 31.3989Z" fill="#506CFF"/>
<path d="M6.08521 43.733H15.8568" stroke="#506CFF" stroke-width="1.7" stroke-linecap="round"/>
</g>
<defs>
<clipPath id="clip0_5184_1358">
<rect width="49.6364" height="49.6364" fill="white" transform="translate(0.0909424 0.0909424)"/>
</clipPath>
</defs>
</svg>
