<svg width="50" height="50" viewBox="0 0 50 50" fill="none" xmlns="http://www.w3.org/2000/svg">
<g clip-path="url(#clip0_5184_1382)">
<g clip-path="url(#clip1_5184_1382)">
<g clip-path="url(#clip2_5184_1382)">
<mask id="path-1-inside-1_5184_1382" fill="white">
<path fill-rule="evenodd" clip-rule="evenodd" d="M33.4773 33.9091C38.8938 30.7758 42.538 24.9196 42.538 18.2122C42.538 8.20409 34.4248 0.0909424 24.4167 0.0909424C14.4087 0.0909424 6.29553 8.20409 6.29553 18.2122C6.29553 24.9196 9.93969 30.7758 15.3561 33.9091V40.1833C15.3561 41.3931 16.3368 42.3738 17.5466 42.3738H31.2869C32.4966 42.3738 33.4773 41.3931 33.4773 40.1833V33.9091Z"/>
</mask>
<path d="M33.4773 33.9091L32.4759 32.1779L31.4773 32.7555V33.9091H33.4773ZM15.3561 33.9091H17.3561V32.7555L16.3576 32.1779L15.3561 33.9091ZM40.538 18.2122C40.538 24.1768 37.2998 29.3874 32.4759 32.1779L34.4788 35.6403C40.4878 32.1643 44.538 25.6624 44.538 18.2122H40.538ZM24.4167 2.09094C33.3202 2.09094 40.538 9.30866 40.538 18.2122H44.538C44.538 7.09952 35.5294 -1.90906 24.4167 -1.90906V2.09094ZM8.29553 18.2122C8.29553 9.30866 15.5132 2.09094 24.4167 2.09094V-1.90906C13.3041 -1.90906 4.29553 7.09952 4.29553 18.2122H8.29553ZM16.3576 32.1779C11.5337 29.3874 8.29553 24.1768 8.29553 18.2122H4.29553C4.29553 25.6624 8.34565 32.1642 14.3547 35.6403L16.3576 32.1779ZM17.3561 40.1833V33.9091H13.3561V40.1833H17.3561ZM17.5466 40.3738C17.4414 40.3738 17.3561 40.2885 17.3561 40.1833H13.3561C13.3561 42.4976 15.2323 44.3738 17.5466 44.3738V40.3738ZM31.2869 40.3738H17.5466V44.3738H31.2869V40.3738ZM31.4773 40.1833C31.4773 40.2885 31.3921 40.3738 31.2869 40.3738V44.3738C33.6012 44.3738 35.4773 42.4976 35.4773 40.1833H31.4773ZM31.4773 33.9091V40.1833H35.4773V33.9091H31.4773Z" fill="#506CFF" mask="url(#path-1-inside-1_5184_1382)"/>
<path d="M17.6212 47.6592H31.2121" stroke="#506CFF" stroke-width="1.4" stroke-linecap="round"/>
<path d="M26.9773 6.29553C29.7349 6.98493 35.25 10.0183 35.25 16.6364" stroke="#506CFF" stroke-width="2" stroke-linecap="round"/>
</g>
</g>
</g>
<defs>
<clipPath id="clip0_5184_1382">
<rect width="49.6364" height="49.6364" fill="white" transform="translate(0.0909424 0.0909424)"/>
</clipPath>
<clipPath id="clip1_5184_1382">
<rect width="49.6364" height="49.6364" fill="white" transform="translate(0.0909424 0.0909424)"/>
</clipPath>
<clipPath id="clip2_5184_1382">
<rect width="49.6364" height="49.6364" fill="white" transform="translate(0.0909424 0.0909424)"/>
</clipPath>
</defs>
</svg>
