<svg width="50" height="50" viewBox="0 0 50 50" fill="none" xmlns="http://www.w3.org/2000/svg">
<path d="M19.2156 8.87893C18.8262 9.27061 18.8281 9.90377 19.2198 10.2931C19.6115 10.6825 20.2446 10.6806 20.634 10.2889L19.2156 8.87893ZM22.8409 16.6364L22.8451 15.6364H22.8409V16.6364ZM4.22729 15.6364C3.67501 15.6364 3.22729 16.0842 3.22729 16.6364C3.22729 17.1887 3.67501 17.6364 4.22729 17.6364V15.6364ZM26.8385 39.5294C26.4492 39.1377 25.816 39.1358 25.4243 39.5252C25.0327 39.9146 25.0308 40.5477 25.4201 40.9394L26.8385 39.5294ZM29.0455 33.1819V34.1819L29.0497 34.1819L29.0455 33.1819ZM4.22729 32.1819C3.67501 32.1819 3.22729 32.6296 3.22729 33.1819C3.22729 33.7342 3.67501 34.1819 4.22729 34.1819V32.1819ZM36.0536 15.37C35.6626 15.7601 35.6618 16.3932 36.0518 16.7842C36.4418 17.1753 37.075 17.1761 37.466 16.786L36.0536 15.37ZM40.4205 24.9092V25.9092L40.4223 25.9092L40.4205 24.9092ZM4.22729 23.9092C3.67501 23.9092 3.22729 24.3569 3.22729 24.9092C3.22729 25.4615 3.67501 25.9092 4.22729 25.9092V23.9092ZM20.634 10.2889C21.6367 9.28024 23.1927 9.07259 24.4249 9.78304L25.4239 8.05041C23.406 6.88692 20.8578 7.22699 19.2156 8.87893L20.634 10.2889ZM24.4249 9.78304C25.6571 10.4935 26.2569 11.9442 25.8863 13.3173L27.8172 13.8385C28.4242 11.5896 27.4418 9.2139 25.4239 8.05041L24.4249 9.78304ZM25.8863 13.3173C25.5157 14.6905 24.2674 15.6424 22.8451 15.6364L22.8367 17.6364C25.166 17.6462 27.2103 16.0873 27.8172 13.8385L25.8863 13.3173ZM22.8409 15.6364H4.22729V17.6364H22.8409V15.6364ZM25.4201 40.9394C27.0623 42.5913 29.6106 42.9314 31.6285 41.7679L30.6295 40.0353C29.3973 40.7457 27.8413 40.5381 26.8385 39.5294L25.4201 40.9394ZM31.6285 41.7679C33.6464 40.6044 34.6287 38.2287 34.0218 35.9798L32.0909 36.501C32.4615 37.8742 31.8616 39.3248 30.6295 40.0353L31.6285 41.7679ZM34.0218 35.9798C33.4148 33.731 31.3706 32.1721 29.0413 32.1819L29.0497 34.1819C30.472 34.1759 31.7203 35.1278 32.0909 36.501L34.0218 35.9798ZM29.0455 32.1819H4.22729V34.1819H29.0455V32.1819ZM37.466 16.786C38.8013 15.4541 40.8643 15.1841 42.4974 16.1275L43.4978 14.3957C41.0815 12.9999 38.0292 13.3994 36.0536 15.37L37.466 16.786ZM42.4974 16.1275C44.1304 17.0709 44.9271 18.9929 44.4404 20.815L46.3727 21.3312C47.0928 18.6352 45.914 15.7915 43.4978 14.3957L42.4974 16.1275ZM44.4404 20.815C43.9537 22.6371 42.3047 23.9058 40.4187 23.9092L40.4223 25.9092C43.2127 25.9042 45.6525 24.0271 46.3727 21.3312L44.4404 20.815ZM40.4205 23.9092H4.22729V25.9092H40.4205V23.9092Z" fill="#506CFF"/>
</svg>
