<svg width="50" height="50" viewBox="0 0 50 50" fill="none" xmlns="http://www.w3.org/2000/svg">
<path d="M5.98804 37.9892V8.30804C5.98804 7.04487 7.01203 6.02087 8.2752 6.02087H41.543C42.8062 6.02087 43.8302 7.04487 43.8302 8.30804V37.9892C43.8302 38.6207 43.3182 39.1327 42.6866 39.1327H7.13162C6.50004 39.1327 5.98804 38.6207 5.98804 37.9892Z" stroke="#506CFF" stroke-width="2" stroke-linecap="round"/>
<circle cx="37.6996" cy="12.8815" r="2.44962" fill="#506CFF"/>
<path d="M34.3696 42.7196V39.1329H43.8302V42.7196C43.8302 43.3512 43.3182 43.8632 42.6866 43.8632H35.5132C34.8816 43.8632 34.3696 43.3512 34.3696 42.7196Z" fill="#506CFF"/>
<path d="M5.98804 42.7196V39.1329H15.4486V42.7196C15.4486 43.3512 14.9366 43.8632 14.305 43.8632H7.13162C6.50004 43.8632 5.98804 43.3512 5.98804 42.7196Z" fill="#506CFF"/>
<path d="M24.909 16.6364C29.4779 16.6364 33.1817 20.3402 33.1817 24.9091C33.1817 29.478 29.4779 33.1818 24.909 33.1818C20.3401 33.1818 16.6362 29.478 16.6362 24.9091C16.6362 20.3402 20.3401 16.6364 24.909 16.6364Z" stroke="#506CFF" stroke-width="2" stroke-linecap="round"/>
<path d="M11.9907 17.6576C12.7463 17.091 13.6907 15.9576 15.9574 15.9576C19.3574 15.9576 20.4907 18.5076 22.1907 18.5076" stroke="#506CFF" stroke-width="2" stroke-linecap="round"/>
</svg>
