<svg width="31" height="30" viewBox="0 0 31 30" fill="none" xmlns="http://www.w3.org/2000/svg">
<path d="M24.9853 27.7805H5.57353V29.9999H24.9853V27.7805Z" fill="#4564ED"/>
<path d="M18.7721 9.91373H11.9706C11.3614 9.91373 10.8677 10.4105 10.8677 11.0235C10.8677 11.6364 11.3614 12.1333 11.9706 12.1333H18.7721C19.3813 12.1333 19.8751 11.6364 19.8751 11.0235C19.8751 10.4105 19.3813 9.91373 18.7721 9.91373Z" fill="#4564ED"/>
<path d="M23.9191 15.0925H11.9706C11.3614 15.0925 10.8677 15.5893 10.8677 16.2022C10.8677 16.8152 11.3614 17.312 11.9706 17.312H23.9192C24.5284 17.312 25.0221 16.8152 25.0221 16.2022C25.0221 15.5893 24.5283 15.0925 23.9191 15.0925Z" fill="#4564ED"/>
<path d="M29.8501 0.135154C29.4541 -0.0438917 28.9913 0.0267949 28.6662 0.315673L25.5776 3.06485L22.4854 0.282717C22.0666 -0.0942391 21.4335 -0.0942391 21.0148 0.282717L17.9265 3.06149L14.8379 0.282717C14.4191 -0.0942391 13.7865 -0.0942391 13.3677 0.282717L10.2754 3.06485L7.18679 0.315673C6.86218 0.0271486 6.39894 -0.043538 6.00296 0.135154C5.60739 0.314553 5.35298 0.710374 5.35298 1.14687V20.9002H1.60297C0.99377 20.9001 0.5 21.3969 0.5 22.0099V24.7102C0.5 27.627 2.85846 29.9999 5.75733 29.9999V27.7805C4.07464 27.7805 2.70588 26.4029 2.70588 24.7102V23.1196H19.9853V24.7102C19.9853 27.627 22.3438 30 25.2427 30C28.1415 30 30.5 27.627 30.5 24.7103V1.14682C30.5001 0.710315 30.2456 0.314553 29.8501 0.135154ZM28.2942 24.7102C28.2942 26.4029 26.9251 27.7805 25.2427 27.7805C23.5604 27.7805 22.1913 26.4029 22.1913 24.7102V22.0099C22.1913 21.3969 21.6975 20.9001 21.0883 20.9001H7.55886V3.61006L9.54894 5.38159C9.96807 5.75448 10.5982 5.75259 11.0147 5.37752L14.103 2.59875L17.1912 5.37717C17.61 5.75412 18.243 5.75412 18.6618 5.37717L21.7504 2.5984L24.8387 5.37717C25.2556 5.75224 25.8857 5.75371 26.3044 5.38124L28.2942 3.61012V24.7102Z" fill="#4564ED"/>
</svg>
