<svg width="33" height="32" viewBox="0 0 33 32" fill="none" xmlns="http://www.w3.org/2000/svg">
<path d="M21.1535 12.6246C19.0177 13.3188 17.3377 14.2035 16.0208 15.5204C14.7039 16.8373 13.8192 18.5173 13.125 20.6531C12.4308 18.5173 11.5461 16.8373 10.2292 15.5204C8.9123 14.2035 7.23229 13.3188 5.09646 12.6246C7.23226 11.9304 8.91227 11.0457 10.2292 9.72878C11.5461 8.41189 12.4308 6.73189 13.125 4.59609C13.8192 6.73189 14.7039 8.41189 16.0208 9.72878C17.3377 11.0457 19.0177 11.9304 21.1535 12.6246Z" stroke="#4564ED" stroke-width="3"/>
<path d="M30.282 25.3069C29.216 25.6917 28.3511 26.1804 27.6558 26.8757C26.9605 27.571 26.4718 28.436 26.0869 29.502C25.7021 28.436 25.2134 27.5711 24.5181 26.8758C23.8228 26.1805 22.9578 25.6918 21.8918 25.3069C22.9578 24.9221 23.8228 24.4334 24.5181 23.7381C25.2134 23.0428 25.7021 22.1778 26.0869 21.1118C26.4718 22.1778 26.9604 23.0428 27.6557 23.7381C28.351 24.4334 29.216 24.9221 30.282 25.3069Z" stroke="#4564ED" stroke-width="2"/>
</svg>
