<svg width="33" height="32" viewBox="0 0 33 32" fill="none" xmlns="http://www.w3.org/2000/svg">
<path d="M30.2388 12.6687L30.2189 12.7146L30.2388 12.6687L29.6045 12.3938C28.8971 11.0899 27.8732 9.89424 26.6125 8.89815V4.91579C26.6125 4.36547 26.1709 3.91842 25.625 3.91842C24.7292 3.91842 23.8592 4.18035 23.1135 4.65233C22.3603 2.49822 20.3248 0.95 17.9375 0.95C14.9444 0.95 12.5045 3.38366 12.4513 6.39444C9.95182 7.11385 7.78634 8.39366 6.15985 10.1211C4.82351 11.5404 3.945 13.1647 3.56481 14.8966C2.86687 14.4817 2.425 13.7231 2.425 12.8737C2.425 12.4753 2.5262 12.0805 2.71769 11.7322L2.67388 11.7081C2.92531 11.2507 2.76225 10.674 2.30963 10.4199L2.33411 10.3763C2.3341 10.3763 2.3341 10.3763 2.3341 10.3763C1.85713 10.1085 1.25575 10.2824 0.991059 10.7639C0.637055 11.4078 0.45 12.1373 0.45 12.8737C0.45 14.7438 1.6099 16.3771 3.35049 16.981C3.38427 20.2673 5.15655 23.3158 8.23533 25.4137C8.60643 27.0352 8.97785 28.6568 9.35021 30.278C9.45391 30.7297 9.85242 31.05 10.3121 31.05H13.3748C13.8346 31.05 14.2333 30.7295 14.3368 30.2775L14.8861 27.8797C16.33 28.0656 17.8193 28.0639 19.2609 27.8752C19.4443 28.6762 19.6279 29.4771 19.8119 30.2781C19.9156 30.7297 20.3141 31.05 20.7738 31.05H23.8364C24.2963 31.05 24.6949 30.7294 24.7984 30.2775L25.1328 28.8179L25.2592 28.2663C25.4793 27.3055 25.6994 26.3447 25.9198 25.384C27.505 24.2929 28.7682 22.92 29.6037 21.3786L30.2999 21.0772C30.8507 20.8387 31.4016 20.6003 31.9523 20.3613C32.3152 20.2039 32.55 19.8434 32.55 19.4449V14.3268C32.55 13.9276 32.3143 13.5666 31.9504 13.4096L31.9306 13.4556L31.9504 13.4096C31.4054 13.1746 30.8608 12.9384 30.3162 12.7023L30.2388 12.6687ZM29.522 19.2438L29.5418 19.2896L29.5219 19.2438L28.5027 19.6851C28.288 19.7781 28.113 19.945 28.0086 20.1559L28.0534 20.1781L28.0086 20.1559C27.2853 21.6178 26.0781 22.9233 24.5156 23.9301C24.2977 24.0705 24.1431 24.2916 24.0848 24.5457C23.8293 25.6589 23.5743 26.7722 23.3192 27.8854L23.2086 28.3683L23.0512 29.0553H21.5586C21.413 28.4208 21.2676 27.7862 21.1223 27.1516L21.0736 27.1627L21.1223 27.1516L20.9776 26.52C20.8583 25.9994 20.3542 25.6657 19.833 25.7647C18.0355 26.1061 16.1131 26.1086 14.3112 25.7708C13.791 25.6733 13.2879 26.0068 13.1688 26.5265L13.2176 26.5376L13.1688 26.5265L12.5895 29.0553H11.0968C10.754 27.5616 10.4119 26.0676 10.0701 24.5737C10.0115 24.3179 9.85549 24.0957 9.63567 23.9553L9.60875 23.9974L9.63566 23.9553C6.89222 22.2033 5.32413 19.6256 5.32413 16.8855C5.32413 13.0926 8.28074 9.74443 12.7791 8.37555C12.9362 8.81325 13.147 9.22953 13.4057 9.61394C13.1669 9.79599 13.0124 10.0851 13.0124 10.4105C13.0124 10.9608 13.4541 11.4078 13.9999 11.4078H21.8749C22.4208 11.4078 22.8624 10.9608 22.8624 10.4105C22.8624 10.0851 22.708 9.79598 22.4692 9.61393C22.9772 8.85917 23.3011 7.98182 23.3958 7.06018C23.3972 7.05851 23.3986 7.05665 23.4001 7.05466C23.7177 6.61917 24.1506 6.29066 24.6374 6.10034V9.39627C24.6374 9.71694 24.7901 10.0182 25.048 10.2057L25.0774 10.1653L25.048 10.2057C26.3507 11.1528 27.3742 12.3325 28.0092 13.6163C28.1136 13.8274 28.2887 13.9943 28.5036 14.0873L29.4595 14.5017C29.8312 14.6629 30.203 14.8241 30.5749 14.985V18.7878C30.224 18.9399 29.873 19.0919 29.522 19.2438ZM17.9375 2.94474C19.8738 2.94474 21.45 4.5368 21.45 6.49474C21.45 7.65749 20.8762 8.75343 19.9374 9.41316H15.9376C14.9988 8.75343 14.425 7.65749 14.425 6.49474C14.425 4.5368 16.0012 2.94474 17.9375 2.94474ZM24.375 13.7711C23.8305 13.7711 23.3875 14.2195 23.3875 14.7684C23.3875 15.3173 23.8305 15.7658 24.375 15.7658C24.9195 15.7658 25.3625 15.3174 25.3625 14.7684C25.3625 14.2195 24.9195 13.7711 24.375 13.7711Z" fill="#4564ED" stroke="#4564ED" stroke-width="0.1"/>
</svg>
