<svg width="32" height="32" viewBox="0 0 32 32" fill="none" xmlns="http://www.w3.org/2000/svg">
<g clip-path="url(#clip0_615_1969)">
<path d="M16 29.3336C12.2784 29.3336 8.9324 27.7916 6.5144 25.3336L10 25.3304V22.6664H3.3332C2.5976 22.6664 2 23.2632 2 24V30.6664H4.6668V27.2436C7.5624 30.168 11.5576 32 16 32C24.836 32 32 24.836 32 16H29.3332C29.3332 23.3632 23.3632 29.3336 16 29.3336Z" fill="black"/>
<path d="M16 2.6668C19.7216 2.6668 23.0676 4.2084 25.4872 6.6668L22 6.6692V9.3332H28.6668C29.4012 9.3332 30 8.7368 30 8V1.3332H27.3332V4.7564C24.4376 1.832 20.4424 0 16 0C7.164 0 0 7.164 0 16H2.6668C2.6668 8.6368 8.6368 2.6668 16 2.6668Z" fill="black"/>
<path d="M8.0001 17.3337C8.73663 17.3337 9.3337 16.7366 9.3337 16.0001C9.3337 15.2636 8.73663 14.6665 8.0001 14.6665C7.26358 14.6665 6.6665 15.2636 6.6665 16.0001C6.6665 16.7366 7.26358 17.3337 8.0001 17.3337Z" fill="black"/>
<path d="M16.0002 22.6665C16.7374 22.6665 17.3334 23.2633 17.3334 24.0001C17.3334 24.7369 16.7374 25.3337 16.0002 25.3337C15.263 25.3337 14.667 24.7369 14.667 24.0001C14.667 23.2633 15.263 22.6665 16.0002 22.6665Z" fill="black"/>
<path d="M17.3334 14.667V6.66699H14.667V16.0002C14.667 16.737 15.263 17.3338 16.0002 17.3338H25.3334V14.667H17.3334Z" fill="black"/>
</g>
<defs>
<clipPath id="clip0_615_1969">
<rect width="32" height="32" fill="white"/>
</clipPath>
</defs>
</svg>
