<svg width="31" height="30" viewBox="0 0 31 30" fill="none" xmlns="http://www.w3.org/2000/svg">
<path d="M27.3598 22.3056C26.8405 21.9193 26.1064 22.0271 25.7201 22.5463C25.5076 22.8319 25.2803 23.1121 25.0443 23.3789C24.6157 23.8638 24.6612 24.6044 25.1461 25.0331C25.3691 25.2302 25.646 25.327 25.9218 25.327C26.246 25.327 26.5687 25.1932 26.8003 24.9313C27.0797 24.6152 27.3489 24.2835 27.6005 23.9452C27.9868 23.426 27.8791 22.6918 27.3598 22.3056Z" fill="#4564ED"/>
<path d="M29.3196 16.8097C28.6876 16.6721 28.0629 17.0732 27.9253 17.7055C27.8495 18.0534 27.758 18.4019 27.6531 18.7415C27.462 19.3599 27.8084 20.016 28.4267 20.2071C28.542 20.2427 28.6585 20.2596 28.7731 20.2596C29.2735 20.2596 29.7368 19.9365 29.8923 19.4333C30.0169 19.0303 30.1255 18.6167 30.2154 18.204C30.3531 17.5717 29.952 16.9474 29.3196 16.8097Z" fill="#4564ED"/>
<path d="M21.7191 26.0586C21.408 26.2323 21.0859 26.3946 20.7617 26.541C20.1718 26.8074 19.9096 27.5015 20.176 28.0914C20.3717 28.5247 20.7982 28.7812 21.2447 28.7812C21.4059 28.7812 21.5698 28.7477 21.7263 28.6771C22.1109 28.5034 22.4928 28.3109 22.8617 28.105C23.4268 27.7895 23.6292 27.0756 23.3136 26.5105C22.9982 25.9455 22.2843 25.7432 21.7191 26.0586Z" fill="#4564ED"/>
<path d="M14.3281 5.625V14.5146L10.0309 18.8118C9.57326 19.2694 9.57326 20.0114 10.0309 20.469C10.2597 20.6979 10.5596 20.8123 10.8596 20.8123C11.1595 20.8123 11.4594 20.6978 11.6883 20.469L16.3286 15.8286C16.5484 15.6089 16.6718 15.3108 16.6718 15V5.625C16.6718 4.97777 16.1472 4.45312 15.5 4.45312C14.8527 4.45312 14.3281 4.97777 14.3281 5.625Z" fill="#4564ED"/>
<path d="M29.3281 2.51953C28.6809 2.51953 28.1562 3.04418 28.1562 3.69141V6.94547C25.4286 2.66766 20.6651 0 15.5 0C11.4934 0 7.72654 1.56029 4.89336 4.39336C2.06029 7.22654 0.5 10.9934 0.5 15C0.5 19.0066 2.06029 22.7735 4.89336 25.6066C7.72654 28.4397 11.4934 30 15.5 30C15.5099 30 15.5195 29.9988 15.5293 29.9985C15.5391 29.9988 15.5487 30 15.5586 30C15.9809 30 16.4074 29.9822 16.8264 29.9471C17.4713 29.8931 17.9504 29.3265 17.8964 28.6816C17.8423 28.0366 17.2765 27.5573 16.6308 27.6116C16.2767 27.6412 15.916 27.6562 15.5586 27.6562C15.5487 27.6562 15.5391 27.6575 15.5293 27.6577C15.5195 27.6575 15.5099 27.6562 15.5 27.6562C8.52131 27.6562 2.84375 21.9787 2.84375 15C2.84375 8.02131 8.52131 2.34375 15.5 2.34375C19.9975 2.34375 24.1342 4.741 26.3947 8.55469H23.1724C22.5252 8.55469 22.0006 9.07934 22.0006 9.72656C22.0006 10.3738 22.5252 10.8984 23.1724 10.8984H26.75C27.4637 10.8984 28.1313 10.6979 28.6998 10.3504C28.7364 10.3296 28.7715 10.3071 28.8051 10.2829C29.8249 9.61195 30.5 8.45783 30.5 7.14844V3.69141C30.5 3.04418 29.9754 2.51953 29.3281 2.51953Z" fill="#4564ED"/>
</svg>
