<svg width="32" height="30" viewBox="0 0 32 30" fill="none" xmlns="http://www.w3.org/2000/svg">
<path d="M4.10648 4.09898V17.8757L2.3849 16.17C2.03262 15.821 1.46707 15.821 1.11479 16.17C0.761736 16.5198 0.761736 17.0825 1.11479 17.4323L4.37739 20.6647C4.5535 20.8392 4.78167 20.9265 5.01551 20.9265C5.24934 20.9265 5.47752 20.8392 5.65362 20.6647L8.91622 17.4323C9.26928 17.0825 9.26928 16.5198 8.91622 16.17C8.56394 15.821 7.99839 15.821 7.64611 16.17L5.91841 17.8817V4.09898C5.91841 3.29165 6.57836 2.63581 7.39665 2.63581H24.6278C25.4461 2.63581 26.1061 3.29165 26.1061 4.09898V6.16093C26.1061 6.65747 26.5112 7.05687 27.009 7.05687C27.5067 7.05687 27.9119 6.65747 27.9119 6.16093L27.9119 4.09898L27.9119 4.09737C27.8926 2.31104 26.424 0.85 24.6217 0.85H7.38441C5.57671 0.85 4.10648 2.30463 4.10648 4.09898ZM18.1394 10.1591H16.906V9.16894H16.906L16.906 9.16668C16.8986 8.67922 16.5021 8.27907 16.0031 8.27907C15.5053 8.27907 15.1002 8.67846 15.1002 9.17501V10.1656C13.6032 10.1947 12.4007 11.4751 12.4007 13.026C12.4007 14.5948 13.6312 15.8868 15.1522 15.8868H16.8417C17.3502 15.8868 17.7935 16.3562 17.7935 16.9619C17.7935 17.5732 17.3507 18.0369 16.8417 18.0369H13.8056C13.3078 18.0369 12.9026 18.4363 12.9026 18.9329C12.9026 19.4294 13.3078 19.8288 13.8056 19.8288H15.1002V20.8371C15.1002 21.3337 15.5053 21.7331 16.0031 21.7331C16.5008 21.7331 16.906 21.3337 16.906 20.8371V19.8224C18.4051 19.7923 19.5993 18.5108 19.5993 16.9619C19.5993 15.3868 18.3686 14.101 16.8478 14.101H15.1583C14.6498 14.101 14.2065 13.6317 14.2065 13.026C14.2065 12.4203 14.6498 11.951 15.1583 11.951H18.1394C18.6371 11.951 19.0423 11.5516 19.0423 11.055C19.0423 10.5585 18.6371 10.1591 18.1394 10.1591ZM26.3586 9.34135L23.096 12.5738C22.743 12.9235 22.743 13.4862 23.096 13.836C23.2721 14.0105 23.5003 14.0978 23.7341 14.0978C23.968 14.0978 24.1961 14.0105 24.3723 13.836L26.0999 12.1243V25.901C26.0999 26.7084 25.44 27.3642 24.6217 27.3642H7.38441C6.56612 27.3642 5.90617 26.7084 5.90617 25.901V23.8391C5.90617 23.3425 5.50103 22.9431 5.00327 22.9431C4.5055 22.9431 4.10036 23.3425 4.10036 23.8391V25.901C4.10036 27.6954 5.57059 29.15 7.37829 29.15H24.6095C26.4172 29.15 27.8874 27.6954 27.8874 25.901V12.1243L29.6151 13.836C29.9674 14.1851 30.5329 14.1851 30.8852 13.836C31.2383 13.4862 31.2383 12.9235 30.8852 12.5738L27.6238 9.34249C27.2939 9.00236 26.6969 9.00619 26.3586 9.34135Z" fill="#4564ED" stroke="#4564ED" stroke-width="0.3"/>
</svg>
