<svg width="32" height="32" viewBox="0 0 32 32" fill="none" xmlns="http://www.w3.org/2000/svg">
<path d="M28.5563 7.60965V4.69141C28.5563 3.98895 29.1257 3.41953 29.8281 3.41953C30.5306 3.41953 31.1 3.98895 31.1 4.69141V8.14844C31.1 9.49228 30.4075 10.6765 29.3618 11.3653C29.3261 11.3909 29.289 11.4146 29.2507 11.4365C28.6673 11.7928 27.9821 11.9984 27.25 11.9984H23.6724C22.97 11.9984 22.4006 11.429 22.4006 10.7266C22.4006 10.0241 22.97 9.45469 23.6724 9.45469H26.7177C24.4562 5.75891 20.4022 3.44375 16 3.44375C9.07654 3.44375 3.44375 9.07654 3.44375 16C3.44375 22.9235 9.07654 28.5563 16 28.5563C16.0088 28.5563 16.0167 28.5568 16.0216 28.5571L16.0293 28.5576L16.037 28.5571C16.0419 28.5568 16.0498 28.5563 16.0586 28.5563C16.4132 28.5563 16.7711 28.5413 17.1224 28.512C17.1224 28.512 17.1225 28.512 17.1225 28.512L17.1308 28.6116C17.7765 28.5573 18.3423 29.0366 18.3964 29.6816L28.5563 7.60965ZM28.5563 7.60965C25.7834 3.46849 21.0852 0.9 16 0.9C11.9668 0.9 8.17459 2.47083 5.32265 5.32265L5.32265 5.32265C2.47083 8.17459 0.9 11.9668 0.9 16C0.9 20.0332 2.47083 23.8254 5.32265 26.6774C8.17459 29.5292 11.9668 31.1 16 31.1C16.0088 31.1 16.0167 31.0995 16.0216 31.0991L16.0293 31.0987L28.5563 7.60965ZM26.1399 23.4866L26.21 23.5388L26.1399 23.4866C25.9291 23.77 25.7035 24.0479 25.4694 24.3127L25.5443 24.3789L25.4694 24.3127C25.0042 24.839 25.0536 25.6428 25.5799 26.108L25.6401 26.0399L25.5799 26.108C25.8219 26.3219 26.1225 26.427 26.4218 26.427C26.7734 26.427 27.1239 26.2818 27.3752 25.9975C27.6565 25.6793 27.9275 25.3454 28.1808 25.0049C28.6 24.4414 28.4831 23.6445 27.9195 23.2253C27.3558 22.8061 26.5591 22.9231 26.1399 23.4866ZM28.8972 21.3026L28.8973 21.3027C29.0222 21.3412 29.1486 21.3596 29.2731 21.3596C29.8161 21.3596 30.3191 21.0091 30.4879 20.4628C30.6133 20.0571 30.7227 19.6407 30.8131 19.2253C30.9625 18.539 30.5272 17.8615 29.8409 17.712C29.1549 17.5626 28.477 17.9979 28.3276 18.6842C28.2524 19.0293 28.1616 19.3751 28.0575 19.712C27.8501 20.3831 28.2261 21.0953 28.8972 21.3026ZM22.2675 29.7682L22.2263 29.6771L22.2675 29.7682C22.6546 29.5934 23.0391 29.3996 23.4105 29.1923C24.0238 28.8499 24.2434 28.0751 23.9009 27.4618C23.5586 26.8485 22.7837 26.6289 22.1704 26.9713C21.8617 27.1436 21.5421 27.3046 21.2205 27.4499C20.5804 27.739 20.2958 28.4923 20.5849 29.1325C20.7973 29.603 21.2604 29.8812 21.7447 29.8812C21.9199 29.8812 22.0978 29.8448 22.2675 29.7682ZM10.4602 19.741L10.5309 19.8118L10.4602 19.7411C9.9635 20.2378 9.9635 21.0431 10.4602 21.5397C10.7085 21.7881 11.0341 21.9123 11.3596 21.9123C11.6849 21.9123 12.0106 21.7881 12.259 21.5397L12.19 21.4708L12.259 21.5397L16.8994 16.8993C17.1378 16.6609 17.2718 16.3373 17.2718 16V6.625C17.2718 5.92255 16.7024 5.35313 16 5.35313C15.2975 5.35313 14.7281 5.92255 14.7281 6.625V15.4732L10.4602 19.741Z" fill="#4564ED" stroke="#4564ED" stroke-width="0.2"/>
</svg>
