<svg width="16" height="16" viewBox="0 0 16 16" fill="none" xmlns="http://www.w3.org/2000/svg">
<g clip-path="url(#clip0_4881_27933)">
<path d="M5.32163 9.5C5.32163 9.885 5.37913 10.235 5.49663 10.55C5.62163 10.86 5.78413 11.1375 5.99163 11.38C6.19913 11.6225 6.44163 11.83 6.72663 12.005C7.00163 12.18 7.30163 12.325 7.62163 12.4375C7.93913 12.5525 8.27163 12.6375 8.60913 12.6925C8.95163 12.7475 9.28413 12.775 9.62163 12.775C10.0466 12.775 10.4416 12.7425 10.8166 12.675C11.1916 12.605 11.5566 12.5125 11.9166 12.395C12.2766 12.2775 12.6241 12.1375 12.9716 11.9775C13.3216 11.8175 13.6766 11.6425 14.0416 11.4475V14.8375C13.6341 15.0375 13.2341 15.205 12.8341 15.35C12.4341 15.49 12.0341 15.6125 11.6266 15.71C11.2191 15.81 10.8066 15.885 10.3841 15.93C9.96163 15.975 9.52913 16 9.07913 16C8.47913 16 7.89913 15.93 7.34163 15.7925C6.78413 15.655 6.26163 15.4575 5.77163 15.1975C5.28163 14.9375 4.83413 14.6225 4.42663 14.2525C4.01663 13.8825 3.66913 13.465 3.37663 13.0025C3.08413 12.54 2.85913 12.0325 2.69663 11.4875C2.53913 10.9425 2.45913 10.3625 2.45913 9.7475C2.45913 9.09 2.54913 8.465 2.72913 7.8675C2.91163 7.2675 3.16913 6.7225 3.50913 6.2225C3.84663 5.7225 4.25913 5.2775 4.74663 4.89C5.23413 4.5025 5.78163 4.185 6.39163 3.94C6.05913 4.2725 5.79913 4.665 5.61663 5.1225C5.42913 5.5775 5.31163 6.035 5.25913 6.4925H10.9541C10.9541 5.9175 10.8966 5.4175 10.7791 4.9875C10.6616 4.5575 10.4741 4.2 10.2116 3.9175C9.95163 3.6325 9.61663 3.4175 9.20413 3.2775C8.79163 3.135 8.29413 3.0625 7.71163 3.0625C7.02413 3.0625 6.33663 3.1625 5.64913 3.37C4.96163 3.57 4.30913 3.8575 3.68913 4.22C3.06913 4.5875 2.49913 5.02 1.97913 5.515C1.45913 6.015 1.02163 6.5525 0.666626 7.135C0.741626 6.46 0.891626 5.81 1.09913 5.1925C1.30663 4.575 1.58163 4 1.91163 3.4675C2.24163 2.9425 2.62913 2.4625 3.07163 2.0325C3.51413 1.6025 4.00413 1.2325 4.54663 0.9325C5.08913 0.6325 5.66413 0.39 6.28913 0.2275C6.91413 0.085 7.57913 0 8.27913 0C8.68913 0 9.09663 0.0375 9.50413 0.11C9.91163 0.185 10.3091 0.285 10.6966 0.415C11.4666 0.68 12.1541 1.05 12.7591 1.52C13.3641 1.995 13.8716 2.535 14.2841 3.1525C14.6966 3.77 15.0091 4.4525 15.2241 5.195C15.4391 5.9375 15.5491 6.71 15.5491 7.5125V9.5H5.32163Z" fill="white"/>
</g>
<defs>
<clipPath id="clip0_4881_27933">
<rect width="16" height="16" fill="white"/>
</clipPath>
</defs>
</svg>
