<svg width="16" height="16" viewBox="0 0 16 16" fill="none" xmlns="http://www.w3.org/2000/svg">
<path fill-rule="evenodd" clip-rule="evenodd" d="M11.5999 14.6666C5.93859 14.6666 1.33325 10.0613 1.33325 4.39998C1.33325 2.70865 2.70925 1.33331 4.39992 1.33331C4.57325 1.33331 4.74459 1.34798 4.91059 1.37665C5.07259 1.40265 5.23592 1.44398 5.39392 1.49865C5.61125 1.57398 5.77392 1.75598 5.82525 1.97998L6.73859 5.95598C6.78859 6.17465 6.72525 6.40398 6.56992 6.56665C6.47859 6.66131 6.47659 6.66331 5.64992 7.09598C6.31925 8.54531 7.48258 9.70465 8.90325 10.3513C9.33592 9.52398 9.33858 9.52131 9.43325 9.43065C9.59659 9.27465 9.82659 9.21398 10.0446 9.26198L14.0206 10.1746C14.2439 10.226 14.4259 10.3886 14.5013 10.6053C14.5559 10.7626 14.5966 10.9253 14.6239 11.0926C14.6519 11.2573 14.6666 11.428 14.6666 11.6C14.6666 13.2913 13.2913 14.6666 11.5999 14.6666Z" fill="white"/>
</svg>
