<svg width="40" height="40" viewBox="0 0 40 40" fill="none" xmlns="http://www.w3.org/2000/svg">
<path d="M31.5055 13.6601C31.229 12.6199 30.4183 11.8 29.3903 11.5199C27.5122 11 19.9997 11 19.9997 11C19.9997 11 12.4876 11 10.6095 11.5002C9.60122 11.7799 8.7708 12.6201 8.49424 13.6601C8 15.5599 8 19.5 8 19.5C8 19.5 8 23.4599 8.49424 25.3399C8.7711 26.3799 9.58145 27.1999 10.6096 27.48C12.5073 28 20 28 20 28C20 28 27.5122 28 29.3903 27.4998C30.4185 27.2199 31.229 26.3999 31.5058 25.3599C31.9999 23.4599 31.9999 19.52 31.9999 19.52C31.9999 19.52 32.0197 15.5599 31.5055 13.6601ZM17.6079 23.14V15.86L23.8549 19.5L17.6079 23.14Z" fill="black"/>
</svg>
