<svg width="94" height="31" viewBox="0 0 94 31" fill="none" xmlns="http://www.w3.org/2000/svg">
<path d="M0.317958 20.4744L11.0105 0.716433C11.1852 0.393554 11.5229 0.192383 11.89 0.192383H24V30.1924H7.88801C7.58672 30.1924 7.3015 30.0565 7.11161 29.8226L0.421037 21.5806C0.166166 21.2666 0.125485 20.8301 0.317958 20.4744Z" fill="#3838FF"/>
<rect width="46" height="30" transform="translate(24 0.192383)" fill="#3838FF"/>
<path d="M93.682 9.91035L82.9895 29.6683C82.8148 29.9912 82.4771 30.1924 82.11 30.1924L70 30.1924L70 0.192381L86.112 0.192382C86.4133 0.192382 86.6985 0.328218 86.8884 0.562133L93.579 8.80415C93.8338 9.11812 93.8745 9.55469 93.682 9.91035Z" fill="#3838FF"/>
</svg>
