<svg width="37" height="35" viewBox="0 0 37 35" fill="none" xmlns="http://www.w3.org/2000/svg">
<path d="M21.2415 30.1723H17.3794C17.1125 30.1723 16.8966 30.3882 16.8966 30.6551V34.5172C16.8966 34.7836 17.1125 35 17.3794 35H21.2415C21.3695 35 21.4924 34.9491 21.5829 34.8586C21.6734 34.7681 21.7243 34.6451 21.7243 34.5172V33.7932H30.1724C31.1321 33.7919 32.0527 33.4101 32.7312 32.7312C33.4102 32.0526 33.792 31.132 33.7933 30.1723V28.7432C34.4971 28.4949 35.107 28.0352 35.5393 27.4269C35.9712 26.8183 36.2044 26.0909 36.2069 25.3446V20.5169C36.2044 19.7706 35.9712 19.0432 35.5393 18.435C35.107 17.8263 34.497 17.3666 33.7933 17.1187V15.6896C33.7933 10.084 30.8025 4.90401 25.9483 2.10227C21.0936 -0.700757 15.1131 -0.700757 10.2586 2.10227C5.40436 4.90487 2.41362 10.0844 2.41362 15.6896V17.1187C1.70982 17.3666 1.09993 17.8263 0.667601 18.435C0.235724 19.0432 0.00252156 19.7707 0 20.5169V25.3446C0 26.6381 0.689907 27.8336 1.81046 28.4802C2.93062 29.1271 4.31079 29.1271 5.43095 28.4802C6.55143 27.8336 7.24141 26.6381 7.24141 25.3446V20.5169C7.2393 19.7706 7.00568 19.0432 6.57381 18.435C6.14151 17.8263 5.53157 17.3666 4.82779 17.1187V15.6896C4.82779 10.9465 7.35797 6.56371 11.4655 4.19172C15.5734 1.82016 20.6339 1.82016 24.7414 4.19172C28.8489 6.56328 31.3792 10.9461 31.3792 15.6896V17.1187C30.6754 17.3666 30.0655 17.8263 29.6332 18.435C29.2013 19.0432 28.9677 19.7707 28.9656 20.5169V25.3446C28.9677 26.0909 29.2013 26.8183 29.6332 27.4269C30.0655 28.0352 30.6754 28.4948 31.3792 28.7432V30.1723C31.3783 30.8387 30.8387 31.3782 30.1724 31.3791H21.7243V30.6551C21.7243 30.3882 21.5079 30.1723 21.2415 30.1723Z" fill="white"/>
</svg>
