<svg width="40" height="36" viewBox="0 0 40 36" fill="none" xmlns="http://www.w3.org/2000/svg">
<path fill-rule="evenodd" clip-rule="evenodd" d="M2.9962 8.08303C3.66102 6.04756 5.51315 4.578 7.67877 4.578H14.3576L11.5938 16.5195L11.3236 17.6873C10.6425 19.5826 8.8877 20.9354 6.84279 20.9354H0L2.84125 8.65792L2.95296 8.21956C2.96016 8.19711 2.96737 8.1742 2.97458 8.1513C2.98178 8.12839 2.98899 8.10549 2.9962 8.08303ZM6.42753 8.66877L6.43114 8.65799L12.2866 8.66158L12.265 8.74961C12.1515 9.2203 11.8956 9.63889 11.4849 9.97125C11.0741 10.3036 10.6237 10.4707 10.148 10.4707L6.00774 10.4761L5.68884 11.845L10.4705 11.8486L10.4525 11.9366C10.3444 12.4109 10.0795 12.8223 9.66516 13.1565C9.24897 13.4906 8.79134 13.6685 8.31389 13.6685H5.26725L4.93214 15.1093C4.82404 15.5872 4.55919 16.0004 4.143 16.3363C3.72861 16.6741 3.27279 16.8448 2.79174 16.8448L2.70345 16.8466L4.23849 10.2102H4.24209C4.33037 9.88861 4.59162 9.49517 4.98799 9.17359C5.39877 8.83764 5.84919 8.66877 6.32484 8.66877H6.42753Z" fill="white"/>
<path fill-rule="evenodd" clip-rule="evenodd" d="M15.7697 4.51534C16.3553 2.45473 18.2434 0.943848 20.4793 0.943848H27.1618L22.5513 20.8584H22.5495C22.0126 22.9926 20.0884 24.5718 17.8002 24.5718H11.125L15.6598 4.98603C15.6905 4.82614 15.7265 4.66985 15.7697 4.51534ZM22.3127 8.66341C22.7271 8.66341 23.0713 8.79815 23.3343 9.06044C23.5973 9.32273 23.7271 9.65509 23.7199 10.0431C23.7181 10.1707 23.7018 10.2947 23.6766 10.415L23.3217 11.9313C23.2046 12.4146 22.9145 12.9391 22.5037 13.2697C22.0929 13.6021 21.6677 13.656 21.1939 13.656L17.1473 13.6524L16.8086 15.1094C16.7005 15.5872 16.4357 16.0004 16.0195 16.3364C15.6051 16.6741 15.1511 16.8448 14.6682 16.8448L14.5817 16.8466L14.5835 16.8358H14.5817L16.4681 8.65622L22.3127 8.66341ZM17.5689 11.8433L21.511 11.8469L21.8299 10.4761L17.8878 10.4725L17.5689 11.8433Z" fill="white"/>
<path fill-rule="evenodd" clip-rule="evenodd" d="M26.9972 7.87104C27.7178 5.94696 29.5141 4.578 31.6041 4.578V4.5798H38.2829L35.3948 17.0621V17.0603C34.8435 19.2862 32.9013 20.9372 30.6059 20.9372H23.9253L26.8332 8.37586C26.8332 8.37586 26.9611 7.96985 26.9972 7.87104ZM34.2048 8.66889C34.621 8.66889 34.9651 8.80363 35.2228 9.06592C35.4822 9.32642 35.6101 9.65877 35.5975 10.054C35.5957 10.1798 35.5831 10.3037 35.5561 10.4259L35.5435 10.4834H32.5022L31.4248 15.1112C31.3185 15.5891 31.0537 16.0023 30.6375 16.3383C30.2231 16.676 29.7691 16.8467 29.2862 16.8467L29.1998 16.8485L30.6681 10.4834H29.3781C28.9619 10.4834 28.6196 10.3486 28.3602 10.0863C28.1007 9.82226 27.9728 9.48631 27.98 9.08748C27.9818 8.9725 27.998 8.85393 28.0251 8.72638L28.0377 8.66889H31.4681H31.6302H34.2048Z" fill="white"/>
<path d="M36.4209 19.5253C36.4209 18.7492 37.0551 18.1187 37.8334 18.1187C38.6135 18.1187 39.2477 18.751 39.2477 19.5253C39.2477 20.3032 38.6154 20.9356 37.8334 20.9356C37.0551 20.9356 36.4209 20.3032 36.4209 19.5253ZM38.9036 19.5253C38.9036 18.8678 38.4262 18.3899 37.8334 18.3899C37.2443 18.3899 36.7668 18.866 36.7668 19.5253C36.7668 20.1865 37.2443 20.6625 37.8334 20.6625C38.4262 20.6625 38.9036 20.1865 38.9036 19.5253ZM37.2911 18.7223H37.8857C38.2676 18.7223 38.4784 18.8552 38.4784 19.1912C38.4784 19.4643 38.3217 19.5954 38.0586 19.6205L38.4892 20.3176H38.1829L37.7686 19.6313H37.5884V20.3176H37.2911V18.7223V18.7223ZM37.5884 19.405H37.8514C38.0262 19.405 38.1793 19.3798 38.1793 19.1678C38.1793 18.9774 38.0082 18.9486 37.855 18.9486H37.5884V19.405Z" fill="white"/>
<path d="M6.41998 29.4831V34.9589H5.43266V29.4831H3.9751V28.6549H7.86853V29.4831H6.41998Z" fill="white"/>
<path d="M12.2783 32.5915L9.15236 33.0262C9.25145 33.8724 9.7307 34.2964 10.5919 34.2964C11.1036 34.2964 11.5378 34.2012 11.8927 34.0089L12.172 34.7222C11.7468 34.9431 11.1991 35.0527 10.5306 35.0527C9.79736 35.0527 9.22623 34.8318 8.81905 34.3916C8.41727 33.9622 8.21729 33.3658 8.21729 32.6059C8.21729 31.8801 8.40646 31.2944 8.78481 30.8471C9.16857 30.3943 9.68746 30.168 10.3397 30.168C10.945 30.168 11.4225 30.353 11.772 30.7249C12.1161 31.0968 12.2873 31.5998 12.2873 32.2304C12.2873 32.3903 12.2837 32.5088 12.2783 32.5915ZM11.3702 32.0867C11.3648 31.2746 11.0153 30.8686 10.3217 30.8686C9.9487 30.8686 9.65503 31.0016 9.44063 31.2692C9.21362 31.5423 9.09651 31.9196 9.0911 32.4011L11.3702 32.0867Z" fill="white"/>
<path d="M13.9286 28.1251H12.9683V34.9609H13.9286V28.1251Z" fill="white"/>
<path d="M18.6689 32.5915L15.543 33.0262C15.6421 33.8724 16.1213 34.2964 16.9825 34.2964C17.496 34.2964 17.9284 34.2012 18.2833 34.0089L18.5626 34.7222C18.1374 34.9431 17.5897 35.0527 16.9213 35.0527C16.188 35.0527 15.6169 34.8318 15.2097 34.3916C14.8079 33.9622 14.6079 33.3658 14.6079 32.6059C14.6079 31.8801 14.7971 31.2944 15.1754 30.8471C15.5592 30.3943 16.0781 30.168 16.7303 30.168C17.3357 30.168 17.8131 30.353 18.1626 30.7249C18.5049 31.0968 18.6779 31.5998 18.6779 32.2304C18.6779 32.3903 18.6743 32.5088 18.6689 32.5915ZM17.7609 32.0867C17.7554 31.2746 17.4059 30.8686 16.7141 30.8686C16.3411 30.8686 16.0475 31.0016 15.8313 31.2692C15.6042 31.5423 15.4889 31.9196 15.4817 32.4011L17.7609 32.0867Z" fill="white"/>
<path d="M22.4332 34.7329C22.1125 34.9485 21.7107 35.0545 21.2278 35.0545C20.6513 35.0545 20.1775 34.8604 19.8045 34.4706C19.3739 34.0233 19.1577 33.4035 19.1577 32.6076C19.1577 31.8117 19.3739 31.1937 19.8045 30.7536C20.1775 30.3655 20.6513 30.1715 21.2278 30.1715C21.7107 30.1715 22.1125 30.2793 22.4332 30.4931L22.1179 31.1812C21.9089 31.0302 21.653 30.9548 21.3504 30.9548C21.0062 30.9548 20.727 31.0859 20.5126 31.3464C20.2694 31.6429 20.145 32.0615 20.145 32.6004C20.145 33.1394 20.2694 33.558 20.5198 33.8544C20.7414 34.1221 21.0171 34.255 21.3486 34.255C21.6512 34.255 21.9071 34.1796 22.1161 34.0287L22.4332 34.7329Z" fill="white"/>
<path d="M26.4221 34.3502C26.0491 34.8209 25.5374 35.0545 24.8852 35.0545C24.233 35.0545 23.7213 34.8191 23.3484 34.3502C22.9935 33.9101 22.8169 33.328 22.8169 32.6094C22.8169 31.8908 22.9935 31.3087 23.3484 30.8686C23.7213 30.4033 24.233 30.1715 24.8852 30.1715C25.5374 30.1715 26.0491 30.4033 26.4221 30.8686C26.777 31.3087 26.9554 31.8908 26.9554 32.6094C26.9554 33.328 26.777 33.9083 26.4221 34.3502ZM25.7158 31.3806C25.523 31.0788 25.2474 30.9278 24.8852 30.9278C24.5249 30.9278 24.2474 31.0788 24.0565 31.3806C23.8709 31.677 23.7772 32.083 23.7772 32.5986C23.7772 33.116 23.8709 33.522 24.0565 33.8185C24.2474 34.1257 24.5249 34.2802 24.8852 34.2802C25.2474 34.2802 25.523 34.1257 25.7158 33.8185C25.9014 33.522 25.9951 33.116 25.9951 32.5986C25.9951 32.083 25.9014 31.677 25.7158 31.3806Z" fill="white"/>
<path d="M33.0495 34.9593V31.7812C33.0495 31.5135 32.9684 31.3051 32.8045 31.1542C32.6405 31.0105 32.4225 30.9368 32.1486 30.9368C31.7703 30.9368 31.482 31.041 31.2838 31.2494V34.9575H30.3235V31.6932C30.3235 31.4614 30.2353 31.2764 30.0623 31.1362C29.8875 31.0033 29.6551 30.9368 29.3632 30.9368C29.0425 30.9368 28.7759 30.9835 28.5597 31.0752V34.9593H27.6084V30.5021C28.1435 30.2811 28.7092 30.1715 29.302 30.1715C29.9776 30.1715 30.4767 30.3404 30.8046 30.6763C31.201 30.3404 31.7216 30.1715 32.3666 30.1715C32.8675 30.1715 33.2657 30.308 33.563 30.5811C33.853 30.8542 33.999 31.2225 33.999 31.686V34.9593H33.0495V34.9593Z" fill="white"/>
</svg>
