<svg width="14" height="15" viewBox="0 0 14 15" fill="none" xmlns="http://www.w3.org/2000/svg">
<path fill-rule="evenodd" clip-rule="evenodd" d="M11.0837 6.60872L4.16241 6.60872L6.28166 4.06539C6.48816 3.81806 6.45433 3.44997 6.20699 3.24406C5.95908 3.03756 5.59158 3.07139 5.38508 3.31872L2.46841 6.81872C2.44566 6.84614 2.43458 6.87822 2.41766 6.90856C2.40366 6.93306 2.38674 6.95406 2.37624 6.98089C2.34999 7.04797 2.33424 7.11856 2.33424 7.18972C2.33424 7.19031 2.33366 7.19147 2.33366 7.19206C2.33366 7.19264 2.33424 7.19381 2.33424 7.19439C2.33424 7.26556 2.34999 7.33614 2.37624 7.40322C2.38674 7.43006 2.40366 7.45106 2.41766 7.47556C2.43458 7.50589 2.44566 7.53797 2.46841 7.56539L5.38508 11.0654C5.50116 11.2036 5.66683 11.2754 5.83366 11.2754C5.96549 11.2754 6.09791 11.2311 6.20699 11.1401C6.45433 10.9341 6.48816 10.5661 6.28166 10.3187L4.16241 7.77539L11.0837 7.77539C11.4057 7.77539 11.667 7.51406 11.667 7.19206C11.667 6.87006 11.4057 6.60872 11.0837 6.60872Z" fill="white"/>
</svg>
