<svg width="40" height="41" viewBox="0 0 40 41" fill="none" xmlns="http://www.w3.org/2000/svg">
<path d="M25.4817 15.0778C24.1117 15.0778 23.0012 13.962 23.0012 12.5855C23.0012 11.2096 24.1117 10.0938 25.4817 10.0938C26.8512 10.0938 27.9617 11.2096 27.9617 12.5855C27.9617 13.962 26.8512 15.0778 25.4817 15.0778Z" fill="white"/>
<path d="M13 22.6226V27.5907C13 28.969 14.1093 30.0878 15.4811 30.0937C16.8606 30.0984 17.9817 28.9767 17.9817 27.5907V25.1517C17.9817 23.7692 19.0969 22.6487 20.4729 22.6487H20.5088C20.5159 22.6487 20.5229 22.6486 20.53 22.6486C21.9047 22.6493 23.0198 23.7696 23.0198 25.1516V27.5906C23.0198 28.9766 24.1404 30.0984 25.5204 30.0936C26.8922 30.0877 28.001 28.9689 28.001 27.5906V22.6225C28.001 19.8582 25.7711 17.6177 23.0204 17.6177H20.8935C20.7681 17.5982 20.6397 17.588 20.5088 17.588H20.4729C19.0969 17.588 17.9817 16.4675 17.9817 15.085V12.646C17.9817 11.26 16.8606 10.1383 15.4811 10.143C14.1093 10.1489 13 11.2677 13 12.646V17.6141C13 18.5265 13.2429 19.3818 13.6673 20.1184C13.2429 20.8549 13 21.7102 13 22.6226Z" fill="white"/>
<path d="M13 17.7354H17.4364V23.4664H13V17.7354Z" fill="white"/>
</svg>
