<svg width="13" height="13" viewBox="0 0 13 13" fill="none" xmlns="http://www.w3.org/2000/svg">
<path d="M6.60156 1.81641C3.84656 1.81641 1.60156 4.06141 1.60156 6.81641C1.60156 9.57141 3.84656 11.8164 6.60156 11.8164C9.35656 11.8164 11.6016 9.57141 11.6016 6.81641C11.6016 4.06141 9.35656 1.81641 6.60156 1.81641ZM6.22656 4.81641C6.22656 4.61141 6.39656 4.44141 6.60156 4.44141C6.80656 4.44141 6.97656 4.61141 6.97656 4.81641V7.31641C6.97656 7.52141 6.80656 7.69141 6.60156 7.69141C6.39656 7.69141 6.22656 7.52141 6.22656 7.31641V4.81641ZM7.06156 9.00641C7.03656 9.07141 7.00156 9.12141 6.95656 9.17141C6.90656 9.21641 6.85156 9.25141 6.79156 9.27641C6.73156 9.30141 6.66656 9.31641 6.60156 9.31641C6.53656 9.31641 6.47156 9.30141 6.41156 9.27641C6.35156 9.25141 6.29656 9.21641 6.24656 9.17141C6.20156 9.12141 6.16656 9.07141 6.14156 9.00641C6.11656 8.94641 6.10156 8.88141 6.10156 8.81641C6.10156 8.75141 6.11656 8.68641 6.14156 8.62641C6.16656 8.56641 6.20156 8.51141 6.24656 8.46141C6.29656 8.41641 6.35156 8.38141 6.41156 8.35641C6.53156 8.30641 6.67156 8.30641 6.79156 8.35641C6.85156 8.38141 6.90656 8.41641 6.95656 8.46141C7.00156 8.51141 7.03656 8.56641 7.06156 8.62641C7.08656 8.68641 7.10156 8.75141 7.10156 8.81641C7.10156 8.88141 7.08656 8.94641 7.06156 9.00641Z" fill="#E1E0E0"/>
</svg>
