<svg width="20" height="20" viewBox="0 0 20 20" fill="none" xmlns="http://www.w3.org/2000/svg">
<path d="M17.5 4.98405C14.725 4.70905 11.9333 4.56738 9.15 4.56738C7.5 4.56738 5.85 4.65072 4.2 4.81738L2.5 4.98405" stroke="#3D3D3D" stroke-width="1.25" stroke-linecap="round" stroke-linejoin="round"/>
<path d="M7.08325 4.14199L7.26659 3.05033C7.39992 2.25866 7.49992 1.66699 8.90825 1.66699H11.0916C12.4999 1.66699 12.6083 2.29199 12.7333 3.05866L12.9166 4.14199" stroke="#3D3D3D" stroke-width="1.25" stroke-linecap="round" stroke-linejoin="round"/>
<path d="M15.7087 7.61719L15.167 16.0089C15.0753 17.3172 15.0003 18.3339 12.6753 18.3339H7.32533C5.00033 18.3339 4.92533 17.3172 4.83366 16.0089L4.29199 7.61719" stroke="#3D3D3D" stroke-width="1.25" stroke-linecap="round" stroke-linejoin="round"/>
<path d="M8.6084 13.75H11.3834" stroke="#3D3D3D" stroke-width="1.25" stroke-linecap="round" stroke-linejoin="round"/>
<path d="M7.91675 10.417H12.0834" stroke="#292D32" stroke-width="1.25" stroke-linecap="round" stroke-linejoin="round"/>
</svg>
