<svg width="46" height="32" viewBox="0 0 46 32" fill="none" xmlns="http://www.w3.org/2000/svg">
<path d="M4 0.5H42C43.933 0.5 45.5 2.067 45.5 4V28C45.5 29.933 43.933 31.5 42 31.5H4C2.067 31.5 0.5 29.933 0.5 28V4C0.5 2.067 2.067 0.5 4 0.5Z" fill="white"/>
<path d="M4 0.5H42C43.933 0.5 45.5 2.067 45.5 4V28C45.5 29.933 43.933 31.5 42 31.5H4C2.067 31.5 0.5 29.933 0.5 28V4C0.5 2.067 2.067 0.5 4 0.5Z" stroke="#E7E7E7"/>
<path d="M29.3091 15.9393C30.0175 15.9547 30.7299 15.908 31.4354 15.9636C32.1499 16.0968 32.3221 17.1785 31.6873 17.5327C31.2542 17.7661 30.7397 17.6197 30.2702 17.6608H29.3091V15.9393ZM31.845 13.9908C32.0023 14.5463 31.4668 15.045 30.9318 14.9685H29.3091C29.3205 14.4447 29.2869 13.8761 29.3256 13.3798C29.9757 13.3981 30.6317 13.3425 31.278 13.4089C31.5557 13.4787 31.7881 13.707 31.845 13.9908ZM35.7502 5.75297C35.7804 6.81382 35.7545 7.93074 35.7632 9.01312C35.7612 13.4136 35.7675 17.8141 35.7598 22.2148C35.7313 23.864 34.2697 25.2971 32.6319 25.33C30.9925 25.3367 29.3529 25.331 27.7133 25.3328V18.6802C29.4997 18.6709 31.2871 18.6989 33.0728 18.6662C33.9011 18.6142 34.8085 18.0676 34.8471 17.156C34.9446 16.2404 34.0814 15.6072 33.2619 15.5072C32.9469 15.499 32.9561 15.4153 33.2619 15.3788C34.0435 15.2099 34.6573 14.4009 34.4274 13.5907C34.2314 12.7386 33.2895 12.4087 32.5061 12.4104C30.9087 12.3995 29.3111 12.4089 27.7137 12.4057C27.724 11.1637 27.6921 9.92043 27.7308 8.67936C27.8574 7.05993 29.3558 5.72442 30.9705 5.75339C32.5639 5.75315 34.1571 5.75315 35.7502 5.75309V5.75297Z" fill="url(#paint0_linear_9135_42199)"/>
<path d="M9.662 8.84641C9.70279 7.19982 11.1706 5.77854 12.8063 5.75448C14.4396 5.74944 16.0732 5.75375 17.7065 5.75229C17.702 11.2614 17.7153 16.7712 17.6998 22.28C17.6369 23.9066 16.185 25.3008 14.5672 25.3296C12.9308 25.3356 11.2942 25.3305 9.65769 25.3321V18.4551C11.2472 18.8307 12.9141 18.9905 14.5358 18.7414C15.5051 18.5855 16.5656 18.1094 16.8938 17.1038C17.1353 16.2436 16.9993 15.3383 17.0353 14.4554V12.405H14.2289C14.2163 13.7611 14.2547 15.1195 14.2086 16.4739C14.133 17.3064 13.3085 17.8354 12.5233 17.8071C11.5496 17.8174 9.61999 17.1014 9.61999 17.1014C9.61514 14.5608 9.64824 11.3789 9.662 8.84666V8.84641Z" fill="url(#paint1_linear_9135_42199)"/>
<path d="M18.7531 13.2324C18.6053 13.2637 18.7234 12.7292 18.6856 12.5264C18.6957 11.2444 18.6646 9.96094 18.7028 8.6798C18.829 7.05352 20.3389 5.71468 21.9602 5.75275H26.7348C26.7303 11.2619 26.7436 16.7717 26.7281 22.2805C26.6651 23.9071 25.2131 25.3012 23.5952 25.3301C21.9588 25.3362 20.3221 25.331 18.6855 25.3326V17.798C19.8032 18.715 21.3224 18.8578 22.7148 18.8603C23.7646 18.8599 24.8082 18.6981 25.8277 18.4559V17.0756C24.6788 17.6482 23.3283 18.0119 22.0547 17.6829C21.1663 17.4618 20.5214 16.6032 20.5358 15.6864C20.4329 14.7329 20.9918 13.7263 21.9287 13.4429C23.092 13.0787 24.3598 13.3572 25.4503 13.8307C25.6839 13.953 25.921 14.1048 25.8276 13.7143V12.6293C24.0039 12.1954 22.0631 12.0357 20.2309 12.5078C19.7006 12.6574 19.1839 12.8842 18.7531 13.2325V13.2324Z" fill="url(#paint2_linear_9135_42199)"/>
<defs>
<linearGradient id="paint0_linear_9135_42199" x1="27.6583" y1="15.1243" x2="35.7124" y2="15.1243" gradientUnits="userSpaceOnUse">
<stop stop-color="#58B03A"/>
<stop offset="1" stop-color="#55B330"/>
</linearGradient>
<linearGradient id="paint1_linear_9135_42199" x1="9.48644" y1="15.7297" x2="17.5745" y2="15.7297" gradientUnits="userSpaceOnUse">
<stop stop-color="#0F6EB6"/>
<stop offset="1" stop-color="#006DBA"/>
</linearGradient>
<linearGradient id="paint2_linear_9135_42199" x1="18.6737" y1="15.3137" x2="26.7333" y2="15.3137" gradientUnits="userSpaceOnUse">
<stop stop-color="#DE0D3D"/>
<stop offset="1" stop-color="#E30138"/>
</linearGradient>
</defs>
</svg>
