<svg width="46" height="32" viewBox="0 0 46 32" fill="none" xmlns="http://www.w3.org/2000/svg">
<path d="M4 0.5H42C43.933 0.5 45.5 2.067 45.5 4V28C45.5 29.933 43.933 31.5 42 31.5H4C2.067 31.5 0.5 29.933 0.5 28V4C0.5 2.067 2.067 0.5 4 0.5Z" fill="white"/>
<path d="M4 0.5H42C43.933 0.5 45.5 2.067 45.5 4V28C45.5 29.933 43.933 31.5 42 31.5H4C2.067 31.5 0.5 29.933 0.5 28V4C0.5 2.067 2.067 0.5 4 0.5Z" stroke="#E7E7E7"/>
<path d="M28.7695 6.70703C33.7627 6.70703 37.8105 10.7069 37.8105 15.6406C37.8104 20.5742 33.7626 24.5732 28.7695 24.5732C26.5311 24.5732 24.4842 23.768 22.9053 22.4365C21.3264 23.768 19.2795 24.5732 17.041 24.5732C12.0479 24.5732 8.00014 20.5742 8 15.6406C8 10.7069 12.0479 6.70703 17.041 6.70703C19.2794 6.70705 21.3264 7.51239 22.9053 8.84375C24.4841 7.51239 26.5312 6.70707 28.7695 6.70703Z" fill="#ED0006"/>
<path d="M28.7696 6.70703C33.7627 6.70703 37.8106 10.7069 37.8106 15.6406C37.8104 20.5742 33.7626 24.5732 28.7696 24.5732C26.5311 24.5732 24.4842 23.768 22.9053 22.4365C24.8483 20.798 26.082 18.3624 26.0821 15.6406C26.0821 12.9186 24.8485 10.4823 22.9053 8.84375C24.4842 7.51239 26.5312 6.70706 28.7696 6.70703Z" fill="#F9A000"/>
<path d="M22.9046 8.84375C24.8478 10.4822 26.0812 12.9177 26.0814 15.6396C26.0814 18.3616 24.8477 20.797 22.9046 22.4355C20.962 20.797 19.7288 18.3612 19.7288 15.6396C19.7289 12.9181 20.9619 10.4822 22.9046 8.84375Z" fill="#FF5E00"/>
</svg>
