<svg width="46" height="32" viewBox="0 0 46 32" fill="none" xmlns="http://www.w3.org/2000/svg">
<path d="M4 0.5H42C43.933 0.5 45.5 2.067 45.5 4V28C45.5 29.933 43.933 31.5 42 31.5H4C2.067 31.5 0.5 29.933 0.5 28V4C0.5 2.067 2.067 0.5 4 0.5Z" fill="white"/>
<path d="M4 0.5H42C43.933 0.5 45.5 2.067 45.5 4V28C45.5 29.933 43.933 31.5 42 31.5H4C2.067 31.5 0.5 29.933 0.5 28V4C0.5 2.067 2.067 0.5 4 0.5Z" stroke="#ECECEC"/>
<path fill-rule="evenodd" clip-rule="evenodd" d="M14.3337 21.1441H11.5873L9.52793 13.0563C9.43019 12.6843 9.22264 12.3554 8.91734 12.2003C8.15544 11.8108 7.31588 11.5007 6.39999 11.3444V11.033H10.8241C11.4347 11.033 11.8926 11.5007 11.969 12.044L13.0375 17.878L15.7825 11.033H18.4525L14.3337 21.1441ZM19.979 21.1441H17.3853L19.521 11.033H22.1147L19.979 21.1441ZM25.4703 13.8341C25.5466 13.2895 26.0045 12.9781 26.5388 12.9781C27.3784 12.8999 28.2929 13.0563 29.0561 13.4445L29.5141 11.2676C28.7509 10.9562 27.9113 10.7998 27.1494 10.7998C24.632 10.7998 22.8003 12.2003 22.8003 14.1441C22.8003 15.6228 24.0978 16.3993 25.0137 16.867C26.0045 17.3334 26.3861 17.6448 26.3098 18.1112C26.3098 18.8108 25.5466 19.1222 24.7847 19.1222C23.8688 19.1222 22.9529 18.889 22.1147 18.4994L21.6567 20.6777C22.5726 21.066 23.5635 21.2223 24.4794 21.2223C27.302 21.2992 29.0561 19.9 29.0561 17.7998C29.0561 15.1551 25.4703 15.0001 25.4703 13.8341ZM38.1333 21.1441L36.0739 11.033H33.8619C33.4039 11.033 32.946 11.3444 32.7933 11.8108L28.9798 21.1441H31.6498L32.1827 19.6668H35.4633L35.7686 21.1441H38.1333ZM34.2435 13.7559L35.0054 17.5666H32.8697L34.2435 13.7559Z" fill="#172B85"/>
</svg>
