<svg width="36" height="36" viewBox="0 0 36 36" fill="none" xmlns="http://www.w3.org/2000/svg">
<path fill-rule="evenodd" clip-rule="evenodd" d="M23.9982 17.316H24.0002C24.3675 17.316 24.6662 17.6134 24.6669 17.9807C24.6722 19.7614 23.9835 21.438 22.7275 22.7007C21.4722 23.9634 19.8002 24.6614 18.0195 24.6667H18.0002C16.2262 24.6667 14.5575 23.9787 13.2995 22.7274C12.0369 21.472 11.3389 19.8 11.3335 18.0194C11.3282 16.238 12.0169 14.562 13.2729 13.2994C14.5282 12.0367 16.2002 11.3387 17.9809 11.3334C18.5109 11.3414 19.0509 11.3947 19.5682 11.5187C19.9255 11.6054 20.1462 11.9654 20.0595 12.3234C19.9735 12.6807 19.6115 12.9007 19.2555 12.8154C18.8415 12.7154 18.4022 12.6734 17.9849 12.6667C16.5602 12.6707 15.2222 13.2294 14.2182 14.2394C13.2135 15.2494 12.6629 16.5907 12.6669 18.0154C12.6709 19.44 13.2295 20.7774 14.2395 21.782C15.2462 22.7827 16.5809 23.3334 18.0002 23.3334H18.0155C19.4402 23.3294 20.7782 22.7707 21.7822 21.7607C22.7869 20.75 23.3375 19.4094 23.3335 17.9847C23.3329 17.6167 23.6302 17.3167 23.9982 17.316ZM15.5289 17.5286C15.7895 17.268 16.2109 17.268 16.4715 17.5286L17.9675 19.0246L22.1655 14.2273C22.4082 13.952 22.8289 13.9226 23.1062 14.1653C23.3829 14.4073 23.4109 14.8286 23.1682 15.106L18.5015 20.4393C18.3802 20.578 18.2069 20.66 18.0222 20.6666H18.0002C17.8235 20.6666 17.6542 20.5966 17.5289 20.4713L15.5289 18.4713C15.2682 18.2106 15.2682 17.7893 15.5289 17.5286Z" fill="#1F2636"/>
<rect x="0.5" y="-0.5" width="35" height="35" rx="17.5" transform="matrix(1 0 0 -1 0 35)" stroke="#C8C8C8"/>
</svg>
