<svg width="20" height="20" viewBox="0 0 20 20" fill="none" xmlns="http://www.w3.org/2000/svg">
<path fill-rule="evenodd" clip-rule="evenodd" d="M5.7575 9.79662C5.3755 9.39762 4.74351 9.38162 4.3435 9.76362C3.9445 10.1446 3.9285 10.7776 4.3105 11.1776L7.46663 14.1903C7.65463 14.3873 7.91463 14.4993 8.18663 14.5003H8.19063C8.46163 14.5003 8.72063 14.3903 8.90863 14.1953L15.6856 7.19526C16.0696 6.79826 16.0596 6.16526 15.6626 5.78126C15.2646 5.39626 14.6316 5.40826 14.2486 5.80426L8.19563 12.0573L5.7575 9.79662ZM10.0005 0.000488281C4.47749 0.000488281 0.000488281 4.47749 0.000488281 10.0005C0.000488281 15.5225 4.47749 20.0005 10.0005 20.0005C15.5235 20.0005 20.0005 15.5225 20.0005 10.0005C20.0005 4.47749 15.5235 0.000488281 10.0005 0.000488281Z" fill="#26A4FF"/>
</svg>
