<svg width="40" height="34" viewBox="0 0 40 34" fill="none" xmlns="http://www.w3.org/2000/svg">
<path d="M34.1406 17.533H30.2252C29.6923 17.533 29.1763 17.6058 28.6853 17.7397C27.7167 15.8357 25.7392 14.5274 23.4605 14.5274H16.5395C14.2608 14.5274 12.2833 15.8357 11.3147 17.7397C10.8237 17.6058 10.3077 17.533 9.77484 17.533H5.85937C2.62852 17.533 0 20.1615 0 23.3924V29.6516C0 31.5901 1.57711 33.1672 3.51562 33.1672H36.4844C38.4229 33.1672 40 31.5901 40 29.6516V23.3924C40 20.1615 37.3715 17.533 34.1406 17.533ZM10.6801 20.3869V30.8235H3.51562C2.86945 30.8235 2.34375 30.2978 2.34375 29.6517V23.3924C2.34375 21.4539 3.92086 19.8768 5.85937 19.8768H9.77484C10.093 19.8768 10.401 19.92 10.6943 19.9996C10.6859 20.1278 10.6801 20.2567 10.6801 20.3869ZM26.9762 30.8235H13.0238V20.3868C13.0238 18.4483 14.6009 16.8712 16.5395 16.8712H23.4605C25.3991 16.8712 26.9762 18.4483 26.9762 20.3868V30.8235ZM37.6562 29.6517C37.6562 30.2978 37.1305 30.8235 36.4844 30.8235H29.3199V20.3868C29.3199 20.2566 29.3141 20.1277 29.3057 19.9996C29.599 19.92 29.907 19.8767 30.2252 19.8767H34.1406C36.0791 19.8767 37.6562 21.4539 37.6562 23.3924V29.6517Z" fill="#0D74FF"/>
<path d="M7.81718 6.46678C4.94616 6.46678 2.61046 8.80249 2.61046 11.6735C2.61038 14.5445 4.94616 16.8802 7.81718 16.8802C10.6881 16.8802 13.0239 14.5445 13.0239 11.6735C13.0239 8.80249 10.6882 6.46678 7.81718 6.46678ZM7.8171 14.5365C6.23843 14.5365 4.95413 13.2522 4.95413 11.6735C4.95413 10.0948 6.23843 8.81053 7.8171 8.81053C9.39577 8.81053 10.6801 10.0948 10.6801 11.6735C10.6801 13.2522 9.39577 14.5365 7.8171 14.5365Z" fill="#0D74FF"/>
<path d="M20 0C16.1644 0 13.0439 3.12047 13.0439 6.95609C13.0439 10.7917 16.1644 13.9122 20 13.9122C23.8356 13.9122 26.9561 10.7917 26.9561 6.95609C26.9561 3.12055 23.8356 0 20 0ZM20 11.5684C17.4567 11.5684 15.3876 9.49938 15.3876 6.95609C15.3876 4.41289 17.4567 2.34375 20 2.34375C22.5433 2.34375 24.6123 4.41281 24.6123 6.95609C24.6123 9.49938 22.5433 11.5684 20 11.5684Z" fill="#0D74FF"/>
<path d="M32.1829 6.46678C29.3119 6.46678 26.9761 8.80249 26.9761 11.6735C26.9762 14.5445 29.3119 16.8802 32.1829 16.8802C35.0539 16.8802 37.3896 14.5445 37.3896 11.6735C37.3896 8.80249 35.0539 6.46678 32.1829 6.46678ZM32.1829 14.5365C30.6043 14.5365 29.3199 13.2522 29.3199 11.6735C29.32 10.0948 30.6043 8.81053 32.1829 8.81053C33.7615 8.81053 35.0458 10.0948 35.0458 11.6735C35.0458 13.2522 33.7615 14.5365 32.1829 14.5365Z" fill="#0D74FF"/>
</svg>
