<svg width="36" height="41" viewBox="0 0 36 41" fill="none" xmlns="http://www.w3.org/2000/svg">
<path d="M34.8413 3.94154C34.2773 3.27831 33.4548 2.89808 32.5848 2.89808H29.729V2.00478C29.729 0.899369 28.8295 0 27.7242 0H8.358C7.25251 0 6.3533 0.899369 6.3533 2.0047V2.898H3.49721C2.62713 2.898 1.80456 3.27831 1.24064 3.94146C0.682467 4.59775 0.44122 5.45976 0.578927 6.30636C1.32933 10.9206 4.23316 14.9969 8.3544 17.2329C8.73096 18.1383 9.15742 18.9958 9.63233 19.7947C11.1493 22.3473 13.0351 24.1114 15.1108 24.9645C15.3212 27.0915 13.9059 29.1065 11.7744 29.5867C11.7699 29.5878 11.7667 29.5894 11.7622 29.5904C11.3462 29.6898 11.0365 30.0631 11.0365 30.5095V34.8493H9.28139C7.71656 34.8493 6.4435 36.1224 6.4435 37.6872V39.9271C6.4435 40.4496 6.867 40.8731 7.38949 40.8731H28.783C29.3055 40.8731 29.729 40.4496 29.729 39.9271V37.6872C29.729 36.1224 28.4559 34.8493 26.8911 34.8493H25.1358V30.5096C25.1358 30.0623 24.825 29.6884 24.4079 29.5899C24.404 29.589 24.4002 29.5877 24.3963 29.5867C22.2487 29.1033 20.8308 27.0681 21.0632 24.9251C23.1027 24.0582 24.9555 22.3098 26.4501 19.7949C26.925 18.9959 27.3514 18.1383 27.728 17.2327C31.849 14.9967 34.7527 10.9204 35.5031 6.30636C35.6408 5.45976 35.3996 4.59783 34.8413 3.94154ZM2.44632 6.0026C2.39714 5.70029 2.48073 5.40356 2.68174 5.1671C2.8857 4.92729 3.18283 4.78982 3.49713 4.78982H6.35322V6.53028C6.35322 9.25936 6.70152 11.9029 7.36163 14.3204C4.76747 12.2704 2.98134 9.29249 2.44632 6.0026ZM26.8911 36.7414C27.4127 36.7414 27.8371 37.1657 27.8371 37.6873V38.9812H8.3354V37.6873C8.3354 37.1657 8.75978 36.7414 9.28139 36.7414H26.8911ZM23.2438 31.4556V34.8494H12.9287V31.4556H23.2438ZM15.4096 29.5636C15.6434 29.3063 15.8572 29.0273 16.0484 28.7286C16.6788 27.7436 17.0097 26.6245 17.0245 25.4816C17.3605 25.5273 17.6997 25.5519 18.0417 25.5519C18.4137 25.5519 18.7824 25.5233 19.1475 25.4692C19.169 27.005 19.7668 28.4588 20.7719 29.5636L15.4096 29.5636ZM27.8369 6.53036C27.8369 11.1908 26.7667 15.5583 24.8236 18.8281C22.9721 21.9439 20.5635 23.6599 18.0415 23.6599C15.5191 23.6599 13.1103 21.944 11.2586 18.8283C9.3154 15.5584 8.2452 11.1909 8.2452 6.53052V2.0047C8.2452 1.94243 8.29581 1.8919 8.35792 1.8919H27.724C27.7863 1.8919 27.8369 1.94251 27.8369 2.0047V6.53036ZM33.6357 6.0026C33.1007 9.29225 31.3147 12.2701 28.7206 14.3202C29.3807 11.9027 29.729 9.25936 29.729 6.53036V4.7899H32.5848C32.8991 4.7899 33.1962 4.92745 33.4001 5.16718C33.6011 5.40356 33.6848 5.70029 33.6357 6.0026Z" fill="white"/>
<path d="M23.7841 9.71196C23.6728 9.36965 23.3768 9.1201 23.0205 9.06821L20.1659 8.65341L18.8894 6.06675C18.7299 5.74391 18.4011 5.53947 18.0411 5.53947C17.681 5.53947 17.3521 5.74391 17.1928 6.06675L15.9162 8.65341L13.0617 9.06821C12.7053 9.11994 12.4093 9.36957 12.298 9.71204C12.1868 10.0546 12.2796 10.4304 12.5374 10.6818L14.603 12.6952L14.1153 15.5382C14.0544 15.8931 14.2003 16.2517 14.4917 16.4635C14.7829 16.6751 15.1692 16.7029 15.4879 16.5355L18.0411 15.1933L20.5942 16.5355C20.7326 16.6082 20.8838 16.644 21.0342 16.644C21.2303 16.644 21.4256 16.5831 21.5903 16.4634C21.8817 16.2517 22.0276 15.8931 21.9667 15.5381L21.479 12.6951L23.5446 10.6817C23.8026 10.4304 23.8954 10.0545 23.7841 9.71196ZM19.8025 11.6875C19.5795 11.9048 19.4777 12.2179 19.5304 12.5249L19.778 13.969L18.4812 13.2872C18.3435 13.2147 18.1922 13.1786 18.041 13.1786C17.8898 13.1786 17.7386 13.2148 17.6008 13.2872L16.304 13.969L16.5516 12.5249C16.6043 12.218 16.5025 11.9049 16.2795 11.6875L15.2305 10.6649L16.6804 10.4541C16.9884 10.4094 17.2548 10.2159 17.3926 9.93668L18.0411 8.62284L18.6895 9.93668C18.8273 10.2159 19.0936 10.4094 19.4017 10.4541L20.8516 10.6649L19.8025 11.6875Z" fill="white"/>
</svg>
