<svg width="34" height="39" viewBox="0 0 34 39" fill="none" xmlns="http://www.w3.org/2000/svg">
<path d="M23.6961 25.5612C27.7093 19.2637 27.2048 20.0494 27.3205 19.8852C28.7816 17.8243 29.5539 15.3987 29.5539 12.8705C29.5539 6.16593 24.1132 0.642853 17.3998 0.642853C10.7083 0.642853 5.24581 6.15503 5.24581 12.8705C5.24581 15.3971 6.03428 17.8862 7.54329 19.9748L11.1035 25.5612C7.29705 26.1462 0.826172 27.8894 0.826172 31.7277C0.826172 33.1269 1.73942 35.1209 6.09011 36.6747C9.12803 37.7596 13.1445 38.3571 17.3998 38.3571C25.357 38.3571 33.9735 36.1126 33.9735 31.7277C33.9735 27.8887 27.5102 26.1474 23.6961 25.5612ZM9.38916 18.7593C9.377 18.7403 9.36433 18.7218 9.35107 18.7035C8.09538 16.976 7.45564 14.9287 7.45564 12.8705C7.45564 7.34465 11.9052 2.85267 17.3998 2.85267C22.8831 2.85267 27.344 7.34664 27.344 12.8705C27.344 14.932 26.7164 16.9099 25.5286 18.5918C25.4221 18.7322 25.9775 17.8695 17.3998 31.3291L9.38916 18.7593ZM17.3998 36.1473C8.70831 36.1473 3.03599 33.5925 3.03599 31.7277C3.03599 30.4743 5.9506 28.4133 12.4092 27.61L16.468 33.9789C16.6709 34.2973 17.0222 34.49 17.3998 34.49C17.7773 34.49 18.1287 34.2972 18.3315 33.9789L22.3903 27.61C28.849 28.4133 31.7637 30.4743 31.7637 31.7277C31.7637 33.5767 26.1424 36.1473 17.3998 36.1473Z" fill="#0D74FF"/>
</svg>
