<svg width="41" height="40" viewBox="0 0 41 40" fill="none" xmlns="http://www.w3.org/2000/svg">
<path d="M19.6829 19.1667H3.84961C1.78294 19.1667 0.099612 17.485 0.099612 15.4167V3.75C0.099612 1.68167 1.78294 0 3.84961 0H19.6829C21.7496 0 23.4329 1.68167 23.4329 3.75V15.4167C23.4329 17.485 21.7496 19.1667 19.6829 19.1667ZM3.84961 2.5C3.16128 2.5 2.59961 3.06 2.59961 3.75V15.4167C2.59961 16.1067 3.16128 16.6667 3.84961 16.6667H19.6829C20.3713 16.6667 20.9329 16.1067 20.9329 15.4167V3.75C20.9329 3.06 20.3713 2.5 19.6829 2.5H3.84961Z" fill="#0D74FF"/>
<path d="M22.1829 7.47495H1.34961C0.659609 7.47495 0.0996094 6.91495 0.0996094 6.22495C0.0996094 5.53495 0.659609 4.97495 1.34961 4.97495H22.1829C22.8729 4.97495 23.4329 5.53495 23.4329 6.22495C23.4329 6.91495 22.8729 7.47495 22.1829 7.47495Z" fill="#0D74FF"/>
<path d="M33.8496 28.3333C33.5296 28.3333 33.2096 28.2116 32.9663 27.9666L27.5496 22.55C27.0613 22.0616 27.0613 21.27 27.5496 20.7816C28.038 20.2933 28.8296 20.2933 29.318 20.7816L34.7346 26.1983C35.2229 26.6866 35.2229 27.4783 34.7346 27.9666C34.4896 28.21 34.1696 28.3333 33.8496 28.3333Z" fill="#0D74FF"/>
<path d="M28.0162 26.6666C27.3262 26.6666 26.7662 26.1066 26.7662 25.4166V21.25C26.7662 20.56 27.3262 20 28.0162 20H32.1829C32.8729 20 33.4329 20.56 33.4329 21.25C33.4329 21.94 32.8729 22.5 32.1829 22.5H29.2662V25.4166C29.2662 26.1066 28.7062 26.6666 28.0162 26.6666Z" fill="#0D74FF"/>
<path d="M37.1829 33.3333H3.01627C1.40794 33.3333 0.0996094 32.0249 0.0996094 30.4166V22.4833C0.0996094 21.7933 0.659609 21.2333 1.34961 21.2333C2.03961 21.2333 2.59961 21.7933 2.59961 22.4833V30.4166C2.59961 30.6433 2.78961 30.8333 3.01627 30.8333H37.1829C37.4096 30.8333 37.5996 30.6433 37.5996 30.4166V9.58328C37.5996 9.35661 37.4096 9.16661 37.1829 9.16661H27.1829C26.4929 9.16661 25.9329 8.60661 25.9329 7.91662C25.9329 7.22662 26.4929 6.66662 27.1829 6.66662H37.1829C38.7912 6.66662 40.0996 7.97495 40.0996 9.58328V30.4166C40.0996 32.0249 38.7912 33.3333 37.1829 33.3333Z" fill="#0D74FF"/>
<path d="M27.1829 40H13.0162C12.3262 40 11.7662 39.44 11.7662 38.75C11.7662 38.06 12.3262 37.5 13.0162 37.5H27.1829C27.8729 37.5 28.4329 38.06 28.4329 38.75C28.4329 39.44 27.8729 40 27.1829 40Z" fill="#0D74FF"/>
<path d="M20.0996 40C19.4096 40 18.8496 39.44 18.8496 38.75V32.0833C18.8496 31.3933 19.4096 30.8333 20.0996 30.8333C20.7896 30.8333 21.3496 31.3933 21.3496 32.0833V38.75C21.3496 39.44 20.7896 40 20.0996 40Z" fill="#0D74FF"/>
</svg>
