<svg width="36" height="36" viewBox="0 0 36 36" fill="none" xmlns="http://www.w3.org/2000/svg">
<path d="M24.0626 19.205C23.7825 19.205 23.5026 19.0982 23.289 18.8845C21.9468 17.5417 20.1616 16.8022 18.2623 16.8022C16.363 16.8022 14.5778 17.5417 13.2357 18.8845C12.8086 19.3118 12.116 19.3119 11.6888 18.8848C11.2617 18.4578 11.2615 17.7653 11.6885 17.3381C13.4439 15.5819 15.7785 14.6147 18.2623 14.6147C20.7462 14.6147 23.0808 15.5819 24.8362 17.3381C25.2632 17.7653 25.263 18.4578 24.8359 18.8848C24.6222 19.0983 24.3423 19.205 24.0626 19.205Z" fill="#0D74FF"/>
<path d="M21.3562 21.9113C21.0762 21.9113 20.7964 21.8045 20.5828 21.591C19.9633 20.9714 19.1392 20.6303 18.2623 20.6303C17.3854 20.6303 16.5613 20.9714 15.9418 21.591C15.5147 22.0181 14.8221 22.0181 14.395 21.591C13.9678 21.1638 13.9678 20.4713 14.395 20.0442C15.4276 19.0115 16.8011 18.4428 18.2623 18.4428C19.7235 18.4428 21.097 19.0115 22.1296 20.0442C22.5568 20.4713 22.5568 21.1639 22.1296 21.591C21.916 21.8045 21.6361 21.9113 21.3562 21.9113Z" fill="#0D74FF"/>
<path d="M18.2622 26.6459C17.3576 26.6459 16.6216 25.9098 16.6216 25.0052C16.6216 24.1006 17.3576 23.3646 18.2622 23.3646C19.1668 23.3646 19.9028 24.1006 19.9028 25.0052C19.9028 25.9098 19.1668 26.6459 18.2622 26.6459Z" fill="#0D74FF"/>
<path d="M35.3152 12.6389L18.909 0.607738C18.524 0.325415 18.0005 0.325415 17.6154 0.607738L1.20921 12.6389C0.722083 12.9962 0.61681 13.6806 0.974055 14.1677C1.33137 14.6549 2.01585 14.7602 2.50284 14.4029L2.94977 14.0751V32.2512C2.94977 33.9851 4.36043 35.3958 6.09429 35.3958H30.4301C32.164 35.3958 33.5746 33.9851 33.5746 32.2512V14.0752L34.0216 14.4029C34.2165 14.5459 34.443 14.6148 34.6675 14.6148C35.004 14.6148 35.3361 14.46 35.5504 14.1678C35.9076 13.6806 35.8023 12.9961 35.3152 12.6389ZM31.3872 32.2513C31.3872 32.779 30.9579 33.2083 30.4301 33.2083H6.09429C5.56656 33.2083 5.13726 32.779 5.13726 32.2513V12.471L18.2622 2.84602L31.3872 12.471V32.2513Z" fill="#0D74FF"/>
</svg>
