<svg width="45" height="38" viewBox="0 0 45 38" fill="none" xmlns="http://www.w3.org/2000/svg">
<g clip-path="url(#clip0_78_2729)">
<path d="M39.6058 19.179C38.7992 28.8723 31.3571 36.2504 22.571 36.2504C13.7849 36.2504 6.34284 28.8723 5.53626 19.179H39.6058Z" stroke="#141416" stroke-width="3.5"/>
<path d="M22.5711 31.1433C24.4647 31.1433 25.9997 29.6083 25.9997 27.7147C25.9997 25.8212 24.4647 24.2861 22.5711 24.2861C20.6776 24.2861 19.1426 25.8212 19.1426 27.7147C19.1426 29.6083 20.6776 31.1433 22.5711 31.1433Z" fill="#141416"/>
<path d="M2.52257 14.2632L4.57017 17.5337C5.19697 18.5348 6.29498 19.1429 7.47617 19.1429H37.6667C38.8479 19.1429 39.9459 18.5348 40.5727 17.5337L42.6203 14.2632C42.9618 13.7178 43.1429 13.0873 43.1429 12.4438V5.42857C43.1429 3.53502 41.6078 2 39.7143 2H5.42857C3.53502 2 2 3.53503 2 5.42858V12.4438C2 13.0873 2.18109 13.7178 2.52257 14.2632Z" stroke="#141416" stroke-width="3.5"/>
<path d="M34.571 10.572H27.7139" stroke="#141416" stroke-width="3.5" stroke-linecap="round"/>
</g>
<defs>
<clipPath id="clip0_78_2729">
<rect width="45" height="38" fill="white"/>
</clipPath>
</defs>
</svg>
