<svg width="49" height="39" viewBox="0 0 49 39" fill="none" xmlns="http://www.w3.org/2000/svg">
<g clip-path="url(#clip0_78_2728)">
<path d="M49 23.8742C49 29.1144 47.2893 34.0885 44.053 38.2597C43.4145 39.083 42.2137 39.2427 41.3718 38.622C40.5288 38.0002 40.3624 36.83 40.9998 36.0081C43.7292 32.4907 45.1719 28.2947 45.1719 23.8742C45.1719 12.7356 35.919 3.73205 24.5 3.73205C13.0732 3.73205 3.82813 12.7426 3.82813 23.8742C3.82813 28.2947 5.27078 32.4907 7.99981 36.0081C8.63758 36.83 8.47122 38.0002 7.62821 38.622C6.78483 39.2438 5.5848 39.0816 4.94666 38.2597C1.71069 34.0885 0 29.1144 0 23.8742C0 10.6721 10.9655 0 24.5 0C38.042 0 49 10.6794 49 23.8742ZM36.6278 12.6361C37.3751 13.3647 37.3751 14.5463 36.6278 15.2748L30.3887 21.3573C30.9024 22.2804 31.1947 23.3374 31.1947 24.4592C31.1947 28.0582 28.1913 30.9859 24.5 30.9859C20.8083 30.9859 17.8053 28.0582 17.8053 24.4592C17.8053 20.8605 20.8083 17.9324 24.5 17.9324C25.6511 17.9324 26.7348 18.2174 27.6818 18.7182L33.9208 12.6358C34.6685 11.9072 35.8801 11.9072 36.6278 12.6361ZM27.3666 24.4595C27.3666 22.9186 26.0806 21.6649 24.5 21.6649C22.9194 21.6649 21.6334 22.9186 21.6334 24.4595C21.6334 26.0005 22.9194 27.2542 24.5 27.2542C26.0806 27.2542 27.3666 26.0005 27.3666 24.4595Z" fill="#141416"/>
</g>
<defs>
<clipPath id="clip0_78_2728">
<rect width="49" height="39" fill="white"/>
</clipPath>
</defs>
</svg>
