<svg width="36" height="36" viewBox="0 0 36 36" fill="none" xmlns="http://www.w3.org/2000/svg">
<path fill-rule="evenodd" clip-rule="evenodd" d="M5.19898 0H30.801C33.669 0 36.001 2.492 36.001 5.554V30.446C36.001 33.508 33.669 36 30.801 36H28.001C26.895 36 26.001 35.106 26.001 34C26.001 32.894 26.895 32 28.001 32H30.801C31.451 32 32.001 31.288 32.001 30.446V5.554C32.001 4.712 31.451 4 30.801 4H5.19898C4.54898 4 4.00098 4.712 4.00098 5.554V8C4.00098 9.106 3.10498 10 2.00098 10C0.894977 10 0.000976562 9.106 0.000976562 8V5.554C0.000976562 2.492 2.33298 0 5.19898 0ZM0.0187364 24.3404C-0.133264 23.2464 0.632736 22.2364 1.72674 22.0864C4.56674 21.6984 7.33874 22.6284 9.35474 24.6424C12.0287 27.3204 12.7547 31.4204 11.1567 34.8464C10.8167 35.5724 10.0967 36.0004 9.34274 36.0004C9.05874 36.0004 8.77074 35.9404 8.49874 35.8124C7.49874 35.3464 7.06474 34.1564 7.53074 33.1544C8.42074 31.2484 8.01874 28.9624 6.52674 27.4724C5.40274 26.3504 3.85474 25.8364 2.27274 26.0464C1.16674 26.2044 0.168736 25.4344 0.0187364 24.3404ZM1.72478 14.154C0.630778 14.306 -0.133222 15.316 0.0187775 16.41C0.170778 17.502 1.17678 18.268 2.27478 18.114C6.05678 17.598 9.77078 18.834 12.4688 21.53C15.5808 24.644 16.7508 29.208 15.5188 33.442C15.2108 34.502 15.8208 35.612 16.8808 35.92C17.0688 35.974 17.2568 36 17.4388 36C18.3068 36 19.1048 35.434 19.3588 34.558C20.9988 28.926 19.4408 22.85 15.2968 18.702C11.7068 15.112 6.76878 13.452 1.72478 14.154ZM0 32C0 30.894 0.894 30 2 30C3.106 30 4 30.894 4 32C4 33.106 3.106 34 2 34C0.894 34 0 33.106 0 32Z" fill="#141416"/>
</svg>
