<svg width="24" height="24" viewBox="0 0 24 24" fill="none" xmlns="http://www.w3.org/2000/svg">
<path fill-rule="evenodd" clip-rule="evenodd" d="M7.0505 11.7627C6.60484 11.2972 5.8675 11.2785 5.40084 11.7242C4.93534 12.1687 4.91667 12.9072 5.36234 13.3738L9.04448 16.8886C9.26381 17.1184 9.56715 17.2491 9.88448 17.2503H9.88915C10.2053 17.2503 10.5075 17.1219 10.7268 16.8944L18.6333 8.72776C19.0813 8.2646 19.0696 7.5261 18.6065 7.0781C18.1421 6.62893 17.4036 6.64293 16.9568 7.10493L9.89498 14.4001L7.0505 11.7627ZM12.0007 0.333862C5.55715 0.333862 0.333984 5.55703 0.333984 12.0005C0.333984 18.4429 5.55715 23.6672 12.0007 23.6672C18.4442 23.6672 23.6673 18.4429 23.6673 12.0005C23.6673 5.55703 18.4442 0.333862 12.0007 0.333862Z" fill="#26A4FF"/>
</svg>
