<svg width="48" height="48" viewBox="0 0 48 48" fill="none" xmlns="http://www.w3.org/2000/svg">
<rect width="48" height="48" rx="24" fill="#161722"/>
<path fill-rule="evenodd" clip-rule="evenodd" d="M21.0793 20.6004V19.3522C20.6461 19.2909 20.2092 19.259 19.7718 19.257C14.4216 19.257 10.0688 23.6104 10.0688 28.9606C10.0688 32.2425 11.7091 35.1478 14.2112 36.9045C12.5358 35.1128 11.6044 32.7511 11.6057 30.2982C11.6057 25.0242 15.8346 20.7235 21.0793 20.6004Z" fill="#00F2EA"/>
<path fill-rule="evenodd" clip-rule="evenodd" d="M21.3078 34.729C23.6948 34.729 25.6422 32.83 25.7309 30.4635L25.7389 9.33755H29.5984C29.516 8.89645 29.4743 8.44872 29.4738 8H24.2027L24.194 29.1267C24.106 31.4925 22.1579 33.3907 19.7716 33.3907C19.0552 33.391 18.3495 33.2164 17.7158 32.8821C18.125 33.4529 18.6642 33.9182 19.2888 34.2393C19.9134 34.5605 20.6054 34.7283 21.3078 34.729ZM36.808 16.5083V15.3342C35.3896 15.3355 34.0016 14.9228 32.8144 14.1469C33.8553 15.3454 35.2569 16.174 36.8087 16.5083" fill="#00F2EA"/>
<path fill-rule="evenodd" clip-rule="evenodd" d="M32.8147 14.1464C31.6512 12.8151 31.0103 11.1067 31.011 9.33856H29.5987C29.7816 10.3159 30.1609 11.2459 30.7137 12.0723C31.2665 12.8987 31.9812 13.6043 32.8147 14.1464ZM19.772 24.5287C18.5972 24.5301 17.4709 24.9974 16.6402 25.8281C15.8095 26.6588 15.3422 27.7851 15.3408 28.9599C15.3416 29.768 15.5632 30.5606 15.9817 31.2519C16.4003 31.9432 16.9997 32.507 17.7154 32.8824C17.1705 32.1309 16.877 31.2264 16.877 30.2981C16.8781 29.1232 17.3454 27.9967 18.1761 27.1659C19.0068 26.335 20.1332 25.8676 21.3081 25.8663C21.7647 25.8663 22.2023 25.9418 22.6156 26.0715V20.6898C22.1825 20.6284 21.7456 20.5966 21.3081 20.5945C21.2312 20.5945 21.1557 20.5989 21.0795 20.6004V24.7339C20.6566 24.5993 20.2157 24.5301 19.772 24.5287Z" fill="#FF004F"/>
<path fill-rule="evenodd" clip-rule="evenodd" d="M36.8083 16.5085V20.6055C34.0746 20.6055 31.5424 19.7311 29.4741 18.247V28.9598C29.4741 34.31 25.1222 38.6628 19.772 38.6628C17.7044 38.6628 15.7872 38.0105 14.2114 36.9038C15.1174 37.8808 16.2153 38.6601 17.4365 39.1929C18.6577 39.7258 19.9758 40.0006 21.3081 40.0003C26.6583 40.0003 31.011 35.6476 31.011 30.2981V19.5853C33.1477 21.1217 35.7135 21.9468 38.3452 21.9438V16.6712C37.8175 16.6712 37.3045 16.6141 36.8083 16.5078" fill="#FF004F"/>
<path fill-rule="evenodd" clip-rule="evenodd" d="M29.4741 28.9599V18.247C31.6107 19.7836 34.1766 20.6087 36.8083 20.6055V16.5086C35.2566 16.1739 33.8553 15.3451 32.8147 14.1464C31.9813 13.6043 31.2665 12.8987 30.7137 12.0723C30.1609 11.2459 29.7816 10.3159 29.5987 9.33856H25.7393L25.7312 30.4645C25.6425 32.8303 23.6952 34.7293 21.3081 34.7293C20.6058 34.7285 19.9137 34.5607 19.2892 34.2395C18.6646 33.9184 18.1254 33.4532 17.7162 32.8824C17.0004 32.5071 16.4007 31.9433 15.9821 31.252C15.5634 30.5607 15.3417 29.7681 15.3408 28.9599C15.3422 27.7851 15.8095 26.6588 16.6402 25.8281C17.4709 24.9974 18.5972 24.5301 19.772 24.5287C20.2278 24.5287 20.6654 24.6035 21.0795 24.7339V20.6004C15.8348 20.7235 11.606 25.0242 11.606 30.2981C11.606 32.8486 12.5968 35.1705 14.2114 36.9045C15.8391 38.0504 17.7814 38.6645 19.772 38.6628C25.1222 38.6628 29.4741 34.3101 29.4741 28.9599Z" fill="white"/>
</svg>
