<svg width="40" height="40" viewBox="0 0 40 40" fill="none" xmlns="http://www.w3.org/2000/svg">
<path fill-rule="evenodd" clip-rule="evenodd" d="M13 15C13 11.14 16.14 8 20 8C23.86 8 27 11.14 27 15C27 18.16 24.88 20.806 22 21.674V24C22 25.106 21.106 26 20 26C18.894 26 18 25.106 18 24V20C18 18.894 18.894 18 20 18C21.654 18 23 16.654 23 15C23 13.346 21.654 12 20 12C18.346 12 17 13.346 17 15C17 16.106 16.106 17 15 17C13.894 17 13 16.106 13 15ZM18 30C18 28.894 18.894 28 20 28C21.106 28 22 28.894 22 30C22 31.106 21.106 32 20 32C18.894 32 18 31.106 18 30ZM20 36C11.178 36 4 28.822 4 20C4 11.178 11.178 4 20 4C28.822 4 36 11.178 36 20C36 28.822 28.822 36 20 36ZM20 0C8.972 0 0 8.972 0 20C0 31.028 8.972 40 20 40C31.028 40 40 31.028 40 20C40 8.972 31.028 0 20 0Z" fill="#282828"/>
<path fill-rule="evenodd" clip-rule="evenodd" d="M13 15C13 11.14 16.14 8 20 8C23.86 8 27 11.14 27 15C27 18.16 24.88 20.806 22 21.674V24C22 25.106 21.106 26 20 26C18.894 26 18 25.106 18 24V20C18 18.894 18.894 18 20 18C21.654 18 23 16.654 23 15C23 13.346 21.654 12 20 12C18.346 12 17 13.346 17 15C17 16.106 16.106 17 15 17C13.894 17 13 16.106 13 15ZM18 30C18 28.894 18.894 28 20 28C21.106 28 22 28.894 22 30C22 31.106 21.106 32 20 32C18.894 32 18 31.106 18 30ZM20 36C11.178 36 4 28.822 4 20C4 11.178 11.178 4 20 4C28.822 4 36 11.178 36 20C36 28.822 28.822 36 20 36ZM20 0C8.972 0 0 8.972 0 20C0 31.028 8.972 40 20 40C31.028 40 40 31.028 40 20C40 8.972 31.028 0 20 0Z" fill="black" fill-opacity="0.2"/>
</svg>
