<svg width="48" height="48" viewBox="0 0 48 48" fill="none" xmlns="http://www.w3.org/2000/svg">
<g clip-path="url(#clip0_18_1957)">
<path d="M29.5472 22.1339C30.133 22.7197 30.133 23.6695 29.5472 24.2552C28.9614 24.841 28.0117 24.841 27.4259 24.2552C26.8401 23.6695 26.8401 22.7197 27.4259 22.1339C28.0117 21.5481 28.9614 21.5481 29.5472 22.1339Z" fill="white"/>
<path d="M33.0114 18.6689C33.441 18.2392 33.445 17.535 32.9572 17.1728C32.4639 16.8065 31.9264 16.5014 31.3561 16.2652C30.4462 15.8883 29.4709 15.6943 28.486 15.6943C27.5011 15.6943 26.5258 15.8883 25.6159 16.2652C25.0457 16.5014 24.5081 16.8065 24.0148 17.1728C23.527 17.535 23.531 18.2392 23.9606 18.6689C24.3902 19.0985 25.0824 19.0868 25.5913 18.7549C25.8648 18.5766 26.1548 18.4235 26.4579 18.2979C27.1009 18.0316 27.79 17.8945 28.486 17.8945C29.182 17.8945 29.8711 18.0316 30.5141 18.2979C30.8172 18.4235 31.1072 18.5766 31.3807 18.7549C31.8897 19.0868 32.5818 19.0985 33.0114 18.6689Z" fill="white"/>
<path d="M37.259 14.4211C37.6858 13.9943 37.6885 13.2986 37.2286 12.9077C36.1592 11.9988 34.9528 11.2607 33.652 10.7219C32.0141 10.0435 30.2586 9.69429 28.4858 9.69429C26.7129 9.69429 24.9575 10.0435 23.3196 10.7219C22.0188 11.2607 20.8124 11.9988 19.743 12.9077C19.2831 13.2986 19.2858 13.9943 19.7126 14.4211C20.1393 14.8478 20.8282 14.8432 21.2941 14.4595C22.1563 13.7497 23.1204 13.1701 24.156 12.7411C25.5287 12.1725 27 11.8799 28.4858 11.8799C29.9716 11.8799 31.4429 12.1725 32.8156 12.7411C33.8511 13.1701 34.8153 13.7497 35.6775 14.4595C36.1434 14.8432 36.8322 14.8478 37.259 14.4211Z" fill="white"/>
<path d="M41.5187 10.1621C41.9363 9.74444 41.9382 9.06493 41.4983 8.67084C39.8607 7.20364 37.9847 6.02222 35.9486 5.17883C33.5827 4.19886 31.047 3.69448 28.4862 3.69448C25.9255 3.69448 23.3898 4.19886 21.0239 5.17883C18.9878 6.02222 17.1118 7.20364 15.4742 8.67084C15.0343 9.06493 15.0362 9.74444 15.4538 10.1621C15.8714 10.5797 16.5464 10.5769 16.9889 10.1858C18.4261 8.9156 20.0658 7.89065 21.8424 7.15476C23.9487 6.28227 26.2063 5.83321 28.4862 5.83321C30.7661 5.83321 33.0237 6.28227 35.1301 7.15476C36.9067 7.89065 38.5464 8.9156 39.9835 10.1858C40.4261 10.5769 41.101 10.5797 41.5187 10.1621Z" fill="white"/>
<path fill-rule="evenodd" clip-rule="evenodd" d="M1.875 34.5C1.875 32.2218 3.72183 30.375 6 30.375H42C44.2782 30.375 46.125 32.2218 46.125 34.5V42C46.125 44.2782 44.2782 46.125 42 46.125H6C3.72183 46.125 1.875 44.2782 1.875 42V34.5ZM6 32.625C4.96447 32.625 4.125 33.4645 4.125 34.5V42C4.125 43.0355 4.96447 43.875 6 43.875H42C43.0355 43.875 43.875 43.0355 43.875 42V34.5C43.875 33.4645 43.0355 32.625 42 32.625H6Z" fill="white"/>
<path fill-rule="evenodd" clip-rule="evenodd" d="M10.5 15.375C11.1213 15.375 11.625 15.8787 11.625 16.5L11.625 31.5C11.625 32.1213 11.1213 32.625 10.5 32.625C9.87868 32.625 9.375 32.1213 9.375 31.5L9.375 16.5C9.375 15.8787 9.87868 15.375 10.5 15.375Z" fill="white"/>
<path d="M13.5 38.25C13.5 39.4926 12.4926 40.5 11.25 40.5C10.0074 40.5 9 39.4926 9 38.25C9 37.0074 10.0074 36 11.25 36C12.4926 36 13.5 37.0074 13.5 38.25Z" fill="white"/>
</g>
<defs>
<clipPath id="clip0_18_1957">
<rect width="48" height="48" fill="white"/>
</clipPath>
</defs>
</svg>
