<svg width="49" height="48" viewBox="0 0 49 48" fill="none" xmlns="http://www.w3.org/2000/svg">
<path d="M0.5 24C0.5 10.7452 11.2452 0 24.5 0C37.7548 0 48.5 10.7452 48.5 24C48.5 37.2548 37.7548 48 24.5 48C11.2452 48 0.5 37.2548 0.5 24Z" fill="#FF0000"/>
<path d="M36.7652 18.0732C36.4708 16.9422 35.6033 16.0516 34.5018 15.7493C32.5056 15.2 24.5002 15.2 24.5002 15.2C24.5002 15.2 16.4948 15.2 14.4984 15.7493C13.3969 16.0516 12.5294 16.9422 12.235 18.0732C11.7002 20.1231 11.7002 24.4 11.7002 24.4C11.7002 24.4 11.7002 28.6768 12.235 30.7268C12.5294 31.8578 13.3969 32.7484 14.4984 33.0508C16.4948 33.6 24.5002 33.6 24.5002 33.6C24.5002 33.6 32.5056 33.6 34.5018 33.0508C35.6033 32.7484 36.4708 31.8578 36.7652 30.7268C37.3002 28.6768 37.3002 24.4 37.3002 24.4C37.3002 24.4 37.3002 20.1231 36.7652 18.0732Z" fill="white"/>
<path d="M22.1001 28.8V20.8L28.5001 24.8001L22.1001 28.8Z" fill="#FF0000"/>
</svg>
