<svg width="29" height="28" viewBox="0 0 29 28" fill="none" xmlns="http://www.w3.org/2000/svg">
<path d="M5.16674 16.3351C4.94596 16.3358 4.72951 16.2739 4.54252 16.1565C4.35553 16.0392 4.20568 15.8712 4.11038 15.672C4.01508 15.4729 3.97825 15.2508 4.00416 15.0315C4.03006 14.8123 4.11765 14.6049 4.25674 14.4334L15.8067 2.5334C15.8934 2.4334 16.0114 2.36582 16.1416 2.34176C16.2717 2.3177 16.4061 2.33858 16.5228 2.40099C16.6394 2.4634 16.7314 2.56362 16.7836 2.6852C16.8358 2.80678 16.8452 2.94249 16.8101 3.07007L14.5701 10.0934C14.504 10.2702 14.4818 10.4603 14.5054 10.6476C14.529 10.8348 14.5977 11.0135 14.7055 11.1684C14.8133 11.3233 14.9571 11.4497 15.1246 11.5368C15.292 11.6238 15.478 11.669 15.6667 11.6684H23.8334C24.0542 11.6677 24.2706 11.7296 24.4576 11.8469C24.6446 11.9643 24.7945 12.1323 24.8898 12.3315C24.9851 12.5306 25.0219 12.7527 24.996 12.972C24.9701 13.1912 24.8825 13.3986 24.7434 13.5701L13.1934 25.4701C13.1068 25.5701 12.9887 25.6377 12.8586 25.6617C12.7285 25.6858 12.5941 25.6649 12.4774 25.6025C12.3607 25.5401 12.2687 25.4399 12.2165 25.3183C12.1643 25.1967 12.155 25.061 12.1901 24.9334L14.4301 17.9101C14.4961 17.7333 14.5183 17.5431 14.4947 17.3559C14.4711 17.1687 14.4025 16.9899 14.2946 16.8351C14.1868 16.6802 14.043 16.5538 13.8756 16.4667C13.7082 16.3796 13.5221 16.3345 13.3334 16.3351H5.16674Z" stroke="#00FF66" stroke-width="2" stroke-linecap="round" stroke-linejoin="round"/>
</svg>
