<svg width="29" height="28" viewBox="0 0 29 28" fill="none" xmlns="http://www.w3.org/2000/svg">
<path d="M23.8337 15.1659C23.8337 20.9992 19.7503 23.9159 14.897 25.6076C14.6428 25.6937 14.3668 25.6896 14.1153 25.5959C9.25033 23.9159 5.16699 20.9992 5.16699 15.1659V6.99922C5.16699 6.6898 5.28991 6.39306 5.5087 6.17426C5.72749 5.95547 6.02424 5.83256 6.33366 5.83256C8.66699 5.83256 11.5837 4.43256 13.6137 2.65922C13.8608 2.44805 14.1752 2.33203 14.5003 2.33203C14.8254 2.33203 15.1398 2.44805 15.387 2.65922C17.4287 4.44422 20.3337 5.83256 22.667 5.83256C22.9764 5.83256 23.2732 5.95547 23.492 6.17426C23.7107 6.39306 23.8337 6.6898 23.8337 6.99922V15.1659Z" stroke="#00FF66" stroke-width="2" stroke-linecap="round" stroke-linejoin="round"/>
</svg>
