<svg width="29" height="28" viewBox="0 0 29 28" fill="none" xmlns="http://www.w3.org/2000/svg">
<path d="M14.7567 2.33203H14.2433C13.6245 2.33203 13.031 2.57786 12.5934 3.01545C12.1558 3.45303 11.91 4.04653 11.91 4.66536V4.87536C11.9096 5.28454 11.8016 5.68642 11.5968 6.04067C11.392 6.39493 11.0977 6.68911 10.7433 6.8937L10.2417 7.18536C9.88696 7.39016 9.48459 7.49797 9.075 7.49797C8.66542 7.49797 8.26305 7.39016 7.90834 7.18536L7.73334 7.09203C7.19791 6.78317 6.56181 6.69938 5.96467 6.85906C5.36753 7.01873 4.85815 7.40882 4.54834 7.9437L4.29167 8.38703C3.98281 8.92246 3.89902 9.55855 4.05869 10.1557C4.21837 10.7528 4.60846 11.2622 5.14334 11.572L5.31834 11.6887C5.67099 11.8923 5.96422 12.1846 6.16889 12.5367C6.37356 12.8887 6.48254 13.2882 6.485 13.6954V14.2904C6.48663 14.7015 6.37959 15.1058 6.17472 15.4623C5.96985 15.8188 5.67441 16.1148 5.31834 16.3204L5.14334 16.4254C4.60846 16.7352 4.21837 17.2446 4.05869 17.8417C3.89902 18.4388 3.98281 19.0749 4.29167 19.6104L4.54834 20.0537C4.85815 20.5886 5.36753 20.9787 5.96467 21.1383C6.56181 21.298 7.19791 21.2142 7.73334 20.9054L7.90834 20.812C8.26305 20.6072 8.66542 20.4994 9.075 20.4994C9.48459 20.4994 9.88696 20.6072 10.2417 20.812L10.7433 21.1037C11.0977 21.3083 11.392 21.6025 11.5968 21.9567C11.8016 22.311 11.9096 22.7129 11.91 23.122V23.332C11.91 23.9509 12.1558 24.5444 12.5934 24.9819C13.031 25.4195 13.6245 25.6654 14.2433 25.6654H14.7567C15.3755 25.6654 15.969 25.4195 16.4066 24.9819C16.8442 24.5444 17.09 23.9509 17.09 23.332V23.122C17.0904 22.7129 17.1984 22.311 17.4032 21.9567C17.608 21.6025 17.9023 21.3083 18.2567 21.1037L18.7583 20.812C19.113 20.6072 19.5154 20.4994 19.925 20.4994C20.3346 20.4994 20.737 20.6072 21.0917 20.812L21.2667 20.9054C21.8021 21.2142 22.4382 21.298 23.0353 21.1383C23.6325 20.9787 24.1419 20.5886 24.4517 20.0537L24.7083 19.5987C25.0172 19.0633 25.101 18.4272 24.9413 17.83C24.7816 17.2329 24.3915 16.7235 23.8567 16.4137L23.6817 16.3204C23.3256 16.1148 23.0302 15.8188 22.8253 15.4623C22.6204 15.1058 22.5134 14.7015 22.515 14.2904V13.707C22.5134 13.2959 22.6204 12.8916 22.8253 12.5351C23.0302 12.1786 23.3256 11.8826 23.6817 11.677L23.8567 11.572C24.3915 11.2622 24.7816 10.7528 24.9413 10.1557C25.101 9.55855 25.0172 8.92246 24.7083 8.38703L24.4517 7.9437C24.1419 7.40882 23.6325 7.01873 23.0353 6.85906C22.4382 6.69938 21.8021 6.78317 21.2667 7.09203L21.0917 7.18536C20.737 7.39016 20.3346 7.49797 19.925 7.49797C19.5154 7.49797 19.113 7.39016 18.7583 7.18536L18.2567 6.8937C17.9023 6.68911 17.608 6.39493 17.4032 6.04067C17.1984 5.68642 17.0904 5.28454 17.09 4.87536V4.66536C17.09 4.04653 16.8442 3.45303 16.4066 3.01545C15.969 2.57786 15.3755 2.33203 14.7567 2.33203Z" stroke="#00FF66" stroke-width="2" stroke-linecap="round" stroke-linejoin="round"/>
<path d="M14.5 17.5C16.433 17.5 18 15.933 18 14C18 12.067 16.433 10.5 14.5 10.5C12.567 10.5 11 12.067 11 14C11 15.933 12.567 17.5 14.5 17.5Z" stroke="#00FF66" stroke-width="2" stroke-linecap="round" stroke-linejoin="round"/>
</svg>
