<svg width="29" height="28" viewBox="0 0 29 28" fill="none" xmlns="http://www.w3.org/2000/svg">
<path d="M23.833 2.33203H5.16634C3.87768 2.33203 2.83301 3.3767 2.83301 4.66536V9.33203C2.83301 10.6207 3.87768 11.6654 5.16634 11.6654H23.833C25.1217 11.6654 26.1663 10.6207 26.1663 9.33203V4.66536C26.1663 3.3767 25.1217 2.33203 23.833 2.33203Z" stroke="#00FF66" stroke-width="2" stroke-linecap="round" stroke-linejoin="round"/>
<path d="M23.833 16.332H5.16634C3.87768 16.332 2.83301 17.3767 2.83301 18.6654V23.332C2.83301 24.6207 3.87768 25.6654 5.16634 25.6654H23.833C25.1217 25.6654 26.1663 24.6207 26.1663 23.332V18.6654C26.1663 17.3767 25.1217 16.332 23.833 16.332Z" stroke="#00FF66" stroke-width="2" stroke-linecap="round" stroke-linejoin="round"/>
<path d="M7.5 7H7.51167" stroke="#00FF66" stroke-width="2" stroke-linecap="round" stroke-linejoin="round"/>
<path d="M7.5 21H7.51167" stroke="#00FF66" stroke-width="2" stroke-linecap="round" stroke-linejoin="round"/>
</svg>
