<svg width="24" height="24" viewBox="0 0 24 24" fill="none" xmlns="http://www.w3.org/2000/svg">
<path fill-rule="evenodd" clip-rule="evenodd" d="M12 21.75C6.61522 21.75 2.25 17.3848 2.25 12C2.25 6.61522 6.61522 2.25 12 2.25C17.3848 2.25 21.75 6.61522 21.75 12C21.75 17.3848 17.3848 21.75 12 21.75ZM3.75 12C3.75 16.5563 7.44365 20.25 12 20.25C16.5563 20.25 20.25 16.5563 20.25 12C20.25 7.44365 16.5563 3.75 12 3.75C7.44365 3.75 3.75 7.44365 3.75 12Z" fill="#141416"/>
<path fill-rule="evenodd" clip-rule="evenodd" d="M15.7803 9.46967C16.0732 9.76256 16.0732 10.2374 15.7803 10.5303L11.7803 14.5303C11.4874 14.8232 11.0126 14.8232 10.7197 14.5303L8.71967 12.5303C8.42678 12.2374 8.42678 11.7626 8.71967 11.4697C9.01256 11.1768 9.48744 11.1768 9.78033 11.4697L11.25 12.9393L14.7197 9.46967C15.0126 9.17678 15.4874 9.17678 15.7803 9.46967Z" fill="#141416"/>
</svg>
