<svg width="25" height="24" viewBox="0 0 25 24" fill="none" xmlns="http://www.w3.org/2000/svg">
<path fill-rule="evenodd" clip-rule="evenodd" d="M12.5 21.75C7.11522 21.75 2.75 17.3848 2.75 12C2.75 6.61522 7.11522 2.25 12.5 2.25C17.8848 2.25 22.25 6.61522 22.25 12C22.25 17.3848 17.8848 21.75 12.5 21.75ZM4.25 12C4.25 16.5563 7.94365 20.25 12.5 20.25C17.0563 20.25 20.75 16.5563 20.75 12C20.75 7.44365 17.0563 3.75 12.5 3.75C7.94365 3.75 4.25 7.44365 4.25 12Z" fill="white"/>
<path fill-rule="evenodd" clip-rule="evenodd" d="M16.2803 9.46967C16.5732 9.76256 16.5732 10.2374 16.2803 10.5303L12.2803 14.5303C11.9874 14.8232 11.5126 14.8232 11.2197 14.5303L9.21967 12.5303C8.92678 12.2374 8.92678 11.7626 9.21967 11.4697C9.51256 11.1768 9.98744 11.1768 10.2803 11.4697L11.75 12.9393L15.2197 9.46967C15.5126 9.17678 15.9874 9.17678 16.2803 9.46967Z" fill="white"/>
</svg>
