<svg width="92" height="28" viewBox="0 0 92 28" fill="none" xmlns="http://www.w3.org/2000/svg">
<path d="M0.38179 18.8401L11.0027 1.17706C11.1835 0.876325 11.5088 0.692383 11.8597 0.692383H24V27.6924H7.85648C7.57337 27.6924 7.30353 27.5724 7.11391 27.3622L0.496218 20.0251C0.201449 19.6983 0.154995 19.2172 0.38179 18.8401Z" fill="white" fill-opacity="0.1"/>
<rect width="44" height="27" transform="translate(24 0.692383)" fill="white" fill-opacity="0.1"/>
<path d="M91.6182 9.54471L80.9973 27.2077C80.8165 27.5084 80.4912 27.6924 80.1403 27.6924L68 27.6924L68 0.692381L84.1435 0.692382C84.4266 0.692382 84.6965 0.812385 84.8861 1.02261L91.5038 8.35962C91.7986 8.68643 91.845 9.16754 91.6182 9.54471Z" fill="white" fill-opacity="0.1"/>
</svg>
