<svg width="30" height="35" viewBox="0 0 30 35" fill="none" xmlns="http://www.w3.org/2000/svg">
<path d="M24.1803 3.12114L15.0439 0.074725C14.7448 -0.0249083 14.4214 -0.0249083 14.1223 0.074725L4.98597 3.12114C3.53335 3.60366 2.26974 4.5317 1.37467 5.77338C0.4796 7.01506 -0.00140242 8.50724 3.07137e-06 10.0379V17.5001C3.07137e-06 28.5293 13.4165 34.6206 13.991 34.8744C14.1774 34.9572 14.3791 35 14.5831 35C14.7871 35 14.9888 34.9572 15.1752 34.8744C15.7498 34.6206 29.1662 28.5293 29.1662 17.5001V10.0379C29.1676 8.50724 28.6866 7.01506 27.7915 5.77338C26.8965 4.5317 25.6329 3.60366 24.1803 3.12114ZM26.2496 17.5001C26.2496 25.4552 17.0345 30.673 14.5831 31.9213C12.1288 30.6774 2.91662 25.4756 2.91662 17.5001V10.0379C2.91671 9.11957 3.20577 8.22455 3.74285 7.47965C4.27993 6.73475 5.0378 6.17775 5.90908 5.88755L14.5831 2.99572L23.2571 5.88755C24.1284 6.17775 24.8863 6.73475 25.4234 7.47965C25.9605 8.22455 26.2495 9.11957 26.2496 10.0379V17.5001Z" fill="white"/>
<path d="M19.3955 12.1043L13.2881 18.2292L10.0157 14.8168C9.88435 14.6732 9.72561 14.5573 9.54882 14.476C9.37202 14.3948 9.18074 14.3497 8.98625 14.3434C8.79176 14.3372 8.59799 14.37 8.41636 14.4398C8.23472 14.5096 8.0689 14.6151 7.92865 14.75C7.7884 14.8849 7.67657 15.0464 7.59974 15.2252C7.52292 15.404 7.48264 15.5964 7.4813 15.7909C7.47996 15.9855 7.51758 16.1784 7.59193 16.3582C7.66629 16.5381 7.77588 16.7012 7.91426 16.838L11.2771 20.338C11.5279 20.6088 11.831 20.826 12.1682 20.9764C12.5053 21.1268 12.8694 21.2073 13.2385 21.2129H13.2867C13.6484 21.2141 14.0068 21.1435 14.341 21.005C14.6752 20.8666 14.9786 20.6631 15.2335 20.4065L21.4634 14.1766C21.5995 14.0408 21.7075 13.8796 21.7812 13.702C21.855 13.5245 21.893 13.3342 21.8932 13.142C21.8934 12.9498 21.8558 12.7594 21.7824 12.5817C21.709 12.4041 21.6014 12.2426 21.4656 12.1065C21.3298 11.9705 21.1686 11.8625 20.9911 11.7887C20.8136 11.715 20.6233 11.6769 20.431 11.6767C20.2388 11.6765 20.0484 11.7142 19.8708 11.7875C19.6931 11.8609 19.5316 11.9686 19.3955 12.1043Z" fill="white"/>
</svg>
