<svg width="106" height="36" viewBox="0 0 106 36" fill="none" xmlns="http://www.w3.org/2000/svg">
<g clip-path="url(#clip0_3247_13612)">
<path d="M46.4987 5.52832C43.4135 5.52832 40.769 7.60962 39.7301 10.5364C39.6671 10.6991 39.4782 11.3169 39.4782 11.3169L35.1967 30.4714H45.0191C48.3876 30.4714 51.2525 27.9673 52.071 24.5527L56.3211 5.52832H46.4987Z" fill="#16B14B"/>
<path d="M30.1284 0C26.8228 0 24.0523 2.30894 23.2023 5.43089C23.1394 5.65854 23.0764 5.9187 23.0449 6.14634L16.3707 36H26.1931C29.5617 36 32.3951 33.5935 33.1821 30.3415L39.9508 0H30.1284Z" fill="#FF7A00"/>
<path d="M11.3021 5.52832C8.12236 5.52832 5.38343 7.77222 4.40749 10.8942C4.376 10.9592 4.376 11.0243 4.34452 11.0893L4.18711 11.7722L0 30.4714H10.0743C13.0965 30.4714 15.6781 28.4226 16.654 25.5283L17.0633 23.7397L21.1244 5.52832H11.3021Z" fill="#1169B0"/>
<path d="M9.44478 11.7725L9.28737 11.805C8.59477 11.805 7.93364 12.0651 7.304 12.5855C6.70584 13.0733 6.32806 13.6912 6.20213 14.179L3.93542 24.2928H4.06135C4.78544 24.2928 5.44656 24.0326 6.04472 23.5123C6.64288 22.992 7.05215 22.3741 7.20956 21.6586L7.71327 19.4473H12.1837C12.8763 19.4473 13.5689 19.1871 14.1671 18.6668C14.7652 18.1464 15.1745 17.5286 15.3319 16.8131L15.3634 16.683H8.34291L8.81514 14.6017H14.9227C15.6153 14.6017 16.2764 14.3416 16.906 13.8538C17.5042 13.3334 17.882 12.7156 18.0394 12.0001L18.0709 11.87L9.44478 11.7725Z" fill="white"/>
<path d="M34.3152 12.3581C33.9374 11.9679 33.4337 11.7402 32.8041 11.7402H24.2095L21.4391 24.1955V24.228H21.565C22.2891 24.228 22.9502 23.9679 23.5484 23.4476C24.1465 22.9272 24.5558 22.3093 24.7132 21.5939L25.2169 19.3825H31.167C31.8596 19.3825 32.4893 19.285 33.0874 18.7971C33.6856 18.3093 34.1263 17.4963 34.2837 16.7484L34.8189 14.4394C34.8504 14.2443 34.8819 14.0817 34.8819 13.8866C34.9134 13.2687 34.7245 12.7809 34.3152 12.3581ZM31.6393 16.6183H25.8466L26.3188 14.537H32.1115L31.6393 16.6183Z" fill="white"/>
<path d="M51.8195 12.3903C51.4417 12.0001 50.938 11.7725 50.3084 11.7725H46.5305H46.2787H41.2415L41.2101 11.87C41.1786 12.0651 41.1471 12.2603 41.1471 12.4229C41.1471 13.0408 41.336 13.5286 41.7138 13.9513C42.0916 14.3416 42.5953 14.5692 43.2249 14.5692H45.1138L42.9416 24.2603H43.0675C43.7916 24.2603 44.4527 24.0001 45.0509 23.4798C45.649 22.9595 46.0583 22.3416 46.2157 21.6261L47.7898 14.5692H52.2602L52.2917 14.4716C52.3232 14.2765 52.3547 14.0814 52.3547 13.9188C52.3862 13.2684 52.1973 12.7806 51.8195 12.3903Z" fill="white"/>
<path d="M53.5824 28.3251C53.5824 27.1543 54.5269 26.1787 55.6602 26.1787C56.7936 26.1787 57.738 27.1543 57.738 28.3251C57.738 29.4958 56.7936 30.4714 55.6602 30.4714C54.5269 30.4714 53.5824 29.4958 53.5824 28.3251ZM57.2343 28.3251C57.2343 27.3169 56.5417 26.6015 55.6602 26.6015C54.7787 26.6015 54.0861 27.3169 54.0861 28.3251C54.0861 29.3332 54.7787 30.0486 55.6602 30.0486C56.5417 30.0486 57.2343 29.3332 57.2343 28.3251ZM54.8732 27.0893H55.7547C56.3213 27.0893 56.6361 27.2844 56.6361 27.8047C56.6361 28.2275 56.4158 28.4226 56.0065 28.4551L56.6361 29.5283H56.1954L55.5972 28.4877H55.3454V29.5283H54.9046V27.0893H54.8732ZM55.3139 28.1299H55.6917C55.9435 28.1299 56.1639 28.0974 56.1639 27.7722C56.1639 27.4795 55.9121 27.447 55.6917 27.447H55.3139V28.1299Z" fill="#1169B0"/>
<path d="M65.4201 14.8367V23.1944H63.972V14.8367H61.8312V13.5684H67.5609V14.8367H65.4201Z" fill="#1169B0"/>
<path d="M74.0461 19.5849L69.4498 20.2354C69.6072 21.5362 70.2998 22.1866 71.5591 22.1866C72.3146 22.1866 72.9443 22.0565 73.4795 21.7638L73.8887 22.837C73.2591 23.1622 72.472 23.3573 71.4646 23.3573C70.3942 23.3573 69.5442 23.0321 68.9461 22.3492C68.3479 21.6988 68.0646 20.7882 68.0646 19.6175C68.0646 18.5118 68.3479 17.6337 68.9146 16.9508C69.4813 16.2679 70.2368 15.9102 71.2128 15.9102C72.0943 15.9102 72.8183 16.2028 73.3221 16.7557C73.8258 17.3085 74.0776 18.089 74.0776 19.0646C74.0461 19.2597 74.0461 19.4549 74.0461 19.5849ZM72.7239 18.8045C72.7239 17.5687 72.1887 16.9508 71.1813 16.9508C70.6461 16.9508 70.2053 17.1459 69.8905 17.5687C69.5442 17.9915 69.3868 18.5443 69.3868 19.2923L72.7239 18.8045Z" fill="#1169B0"/>
<path d="M75.0538 23.1946V12.7881H76.4705V23.1946H75.0538Z" fill="#1169B0"/>
<path d="M83.4594 19.5849L78.863 20.2354C79.0204 21.5362 79.713 22.1866 80.9723 22.1866C81.7279 22.1866 82.3575 22.0565 82.8927 21.7638L83.302 22.837C82.6723 23.1622 81.8853 23.3573 80.8778 23.3573C79.8075 23.3573 78.9574 23.0321 78.3593 22.3492C77.7611 21.6988 77.4778 20.7882 77.4778 19.6175C77.4778 18.5118 77.7611 17.6337 78.3278 16.9508C78.8945 16.2679 79.65 15.9102 80.626 15.9102C81.5075 15.9102 82.2316 16.2028 82.7353 16.7557C83.239 17.3085 83.4909 18.089 83.4909 19.0646C83.4594 19.2597 83.4594 19.4549 83.4594 19.5849ZM82.1056 18.8045C82.1056 17.5687 81.5705 16.9508 80.563 16.9508C80.0278 16.9508 79.5871 17.1459 79.2723 17.5687C78.926 17.9915 78.7685 18.5443 78.7685 19.2923L82.1056 18.8045Z" fill="#1169B0"/>
<path d="M89.0003 22.837C88.528 23.1622 87.9299 23.3248 87.2373 23.3248C86.3872 23.3248 85.6946 23.0321 85.1279 22.4467C84.4983 21.7638 84.1835 20.8207 84.1835 19.6175C84.1835 18.4142 84.4983 17.4711 85.1279 16.7882C85.6631 16.2028 86.3872 15.9102 87.2373 15.9102C87.9613 15.9102 88.528 16.0728 89.0003 16.398L88.528 17.4386C88.2132 17.211 87.8354 17.0809 87.3947 17.0809C86.8909 17.0809 86.4817 17.276 86.1669 17.6663C85.8206 18.1215 85.6317 18.7394 85.6317 19.585C85.6317 20.398 85.8205 21.0484 86.1983 21.5036C86.5132 21.9264 86.9224 22.1215 87.4261 22.1215C87.8669 22.1215 88.2447 21.9915 88.5595 21.7638L89.0003 22.837Z" fill="#1169B0"/>
<path d="M94.8557 22.2512C94.3205 22.9667 93.565 23.3244 92.589 23.3244C91.6446 23.3244 90.889 22.9667 90.3223 22.2512C89.7871 21.5683 89.5353 20.6903 89.5353 19.5846C89.5353 18.4789 89.7871 17.6008 90.3223 16.9179C90.8575 16.2024 91.6131 15.8447 92.589 15.8447C93.5335 15.8447 94.2891 16.2024 94.8557 16.9179C95.3909 17.6008 95.6428 18.4789 95.6428 19.5846C95.6428 20.6903 95.3909 21.6008 94.8557 22.2512ZM93.8168 17.7309C93.5335 17.2756 93.1242 17.048 92.589 17.048C92.0538 17.048 91.6446 17.2756 91.3612 17.7309C91.0779 18.1862 90.952 18.8041 90.952 19.5846C90.952 20.3651 91.0779 20.9829 91.3612 21.4382C91.6446 21.8935 92.0538 22.1537 92.589 22.1537C93.1242 22.1537 93.5335 21.926 93.8168 21.4382C94.1002 20.9829 94.2261 20.3651 94.2261 19.5846C94.2261 18.8041 94.1002 18.1862 93.8168 17.7309Z" fill="#1169B0"/>
<path d="M104.615 23.194V18.3485C104.615 17.9257 104.489 17.6331 104.269 17.4054C104.017 17.1778 103.702 17.0802 103.293 17.0802C102.726 17.0802 102.317 17.2428 102.034 17.568V23.2266H100.617V18.2184C100.617 17.8607 100.491 17.568 100.239 17.3729C99.9874 17.1778 99.6411 17.0802 99.2003 17.0802C98.7281 17.0802 98.3503 17.1452 98.004 17.3078V23.2266H96.6188V16.3973C97.4058 16.0721 98.2244 15.877 99.1059 15.877C100.113 15.877 100.837 16.1371 101.31 16.6574C101.876 16.1371 102.663 15.877 103.608 15.877C104.332 15.877 104.93 16.0721 105.371 16.4948C105.812 16.9176 106 17.4704 106 18.1859V23.1615H104.615V23.194Z" fill="#1169B0"/>
</g>
<defs>
<clipPath id="clip0_3247_13612">
<rect width="106" height="36.0005" fill="white"/>
</clipPath>
</defs>
</svg>
