<svg width="51" height="24" viewBox="0 0 51 24" fill="none" xmlns="http://www.w3.org/2000/svg">
<path d="M43.9279 13.1784L36.7356 13.1802C35.9915 13.1802 35.4077 13.4101 34.9735 13.879C34.6817 14.188 34.4817 14.6282 34.3772 15.0144C34.3772 15.0144 34.1664 15.6216 34.3429 16.1642C34.433 16.6133 34.6384 17.0139 34.9591 17.3679C35.4077 17.8619 35.9969 18.1044 36.714 18.1026L41.038 18.1008C41.22 18.1008 41.3695 18.1727 41.4938 18.3146C41.6163 18.4476 41.6812 18.6147 41.6812 18.8087C41.6812 19.0009 41.6127 19.168 41.483 19.3063C41.3497 19.4482 41.1893 19.5201 41.0002 19.5201L35.7357 19.5219L34.3592 21.2717L41.0722 21.2699C41.8073 21.2699 42.4091 21.013 42.8793 20.4992C43.3442 19.9926 43.5802 19.3818 43.5838 18.6775C43.5874 17.9966 43.3568 17.4056 42.8955 16.9026C42.4469 16.4085 41.8488 16.1642 41.0957 16.1642L36.9734 16.166C36.9644 16.166 36.9518 16.166 36.9428 16.1624H36.7086C35.9212 16.1624 35.8203 15.0126 36.714 15.0126L40.5948 15.0108L40.5822 15.027L44.254 15.0252L44.227 21.2735H46.2755L46.3025 15.0252L49.5095 15.0234L51.0031 13.173L43.9279 13.1784Z" fill="white"/>
<path d="M27.3746 21.9093L28.5168 20.5063H31.3995V21.9093H33.4192V11.3871L31.6139 13.6561L24.8252 21.9093H27.3746ZM31.3995 16.9114V18.7726H29.9077L31.3995 16.9114Z" fill="white"/>
<path d="M7.41952 8.28637C7.41772 8.64568 7.29881 8.93492 7.06459 9.14691C6.83217 9.37147 6.53489 9.48106 6.16555 9.48106H3.69544C3.3387 9.48106 3.04323 9.37147 2.8 9.14691C2.56939 8.93492 2.45228 8.64747 2.45408 8.28817L2.4757 3.21477H0.414575L0.391152 8.61693C0.387549 9.32836 0.634382 9.95175 1.13705 10.4961C1.65233 11.0422 2.32256 11.3099 3.15854 11.3099L6.67542 11.3081C7.52582 11.3081 8.19785 11.0387 8.70412 10.4925C9.21039 9.94636 9.46262 9.32476 9.46623 8.61334L9.48965 3.21118H7.44114L7.41952 8.28637Z" fill="white"/>
<path d="M12.3576 3.21118L10.3091 3.22016L10.2749 11.3081L15.7718 11.3063L17.2961 9.47747L12.3324 9.47927L12.3576 3.21118Z" fill="white"/>
<path d="M29.02 9.54938L28.2003 8.74094C28.8128 8.6583 29.3371 8.40139 29.7605 7.94328C30.2668 7.38636 30.5262 6.72523 30.528 5.9671C30.5316 5.21795 30.2794 4.5694 29.7767 4.02505C29.2741 3.4807 28.6165 3.21123 27.8039 3.21302L24.2023 3.21482L24.2041 3.21302L15.1939 3.21482L13.7832 4.97542L17.455 4.97362L17.428 11.3118H19.4765L19.5035 4.97362H21.3142V5.01674L21.3052 6.98753L21.3016 7.91453L21.2872 11.31H23.3357L23.3465 8.78226H25.6383L27.7697 11.0674L29.02 9.54938ZM23.3591 6.98393L23.3682 5.01314L27.5661 5.01135C27.8525 5.01135 28.0759 5.10656 28.2489 5.30238C28.4255 5.49461 28.5156 5.72636 28.5138 5.98866C28.512 6.25095 28.4201 6.4863 28.2435 6.68751C28.0561 6.88512 27.8255 6.98214 27.539 6.98214L23.3591 6.98393Z" fill="white"/>
<path d="M35.4951 2.5789L27.6001 12.3538H30.1621L32.398 9.42726H35.2807V11.3082H37.3004V0.503906L35.4951 2.5789ZM35.2807 7.69361H33.7889L35.2807 5.83241V7.69361Z" fill="white"/>
<path d="M29.5346 15.0127L25.4321 15.0091L26.9257 13.1694L30.9957 13.1712L29.5346 15.0127Z" fill="white"/>
<path d="M17.9062 23.239L26.7579 16.396H23.4536L26.0823 13.1694L23.4122 13.1712L21.9078 15.0127L20.5511 16.6745L19.3746 18.0829H22.0934L17.9062 23.239Z" fill="white"/>
</svg>
