<svg width="18" height="19" viewBox="0 0 18 19" fill="none" xmlns="http://www.w3.org/2000/svg">
<path fill-rule="evenodd" clip-rule="evenodd" d="M9 16.8125C4.96142 16.8125 1.6875 13.5386 1.6875 9.5C1.6875 5.46142 4.96142 2.1875 9 2.1875C13.0386 2.1875 16.3125 5.46142 16.3125 9.5C16.3125 13.5386 13.0386 16.8125 9 16.8125ZM2.8125 9.5C2.8125 12.9173 5.58274 15.6875 9 15.6875C12.4173 15.6875 15.1875 12.9173 15.1875 9.5C15.1875 6.08274 12.4173 3.3125 9 3.3125C5.58274 3.3125 2.8125 6.08274 2.8125 9.5Z" fill="#141416"/>
<path fill-rule="evenodd" clip-rule="evenodd" d="M11.8352 7.60225C12.0549 7.82192 12.0549 8.17808 11.8352 8.39775L8.83525 11.3977C8.61558 11.6174 8.25942 11.6174 8.03975 11.3977L6.53975 9.89775C6.32008 9.67808 6.32008 9.32192 6.53975 9.10225C6.75942 8.88258 7.11558 8.88258 7.33525 9.10225L8.4375 10.2045L11.0398 7.60225C11.2594 7.38258 11.6156 7.38258 11.8352 7.60225Z" fill="#141416"/>
</svg>
