<svg width="41" height="40" viewBox="0 0 41 40" fill="none" xmlns="http://www.w3.org/2000/svg">
<path d="M26.2598 14.9841C24.8898 14.9841 23.7793 13.8683 23.7793 12.4918C23.7793 11.1158 24.8898 10 26.2598 10C27.6292 10 28.7398 11.1158 28.7398 12.4918C28.7398 13.8683 27.6292 14.9841 26.2598 14.9841Z" fill="black"/>
<path d="M13.7781 22.5288V27.4969C13.7781 28.8753 14.8874 29.994 16.2592 30C17.6386 30.0047 18.7598 28.883 18.7598 27.4969V25.0579C18.7598 23.6755 19.875 22.5549 21.2509 22.5549H21.2869C21.294 22.5549 21.301 22.5549 21.3081 22.5548C22.6828 22.5555 23.7979 23.6758 23.7979 25.0578V27.4969C23.7979 28.8829 24.9185 30.0046 26.2985 29.9999C27.6703 29.9939 28.779 28.8752 28.779 27.4969V22.5288C28.779 19.7644 26.5492 17.5239 23.7985 17.5239H21.6716C21.5462 17.5044 21.4177 17.4943 21.2869 17.4943H21.2509C19.875 17.4943 18.7598 16.3737 18.7598 14.9913V12.5523C18.7598 11.1662 17.6386 10.0445 16.2592 10.0493C14.8874 10.0552 13.7781 11.1739 13.7781 12.5523V17.5204C13.7781 18.4327 14.021 19.2881 14.4454 20.0246C14.021 20.7611 13.7781 21.6165 13.7781 22.5288Z" fill="black"/>
<path d="M13.7781 17.6416H18.2145V23.3727H13.7781V17.6416Z" fill="black"/>
</svg>
