<svg width="41" height="40" viewBox="0 0 41 40" fill="none" xmlns="http://www.w3.org/2000/svg">
<path d="M32.2836 13.6601C32.007 12.6199 31.1964 11.8 30.1684 11.5199C28.2903 11 20.7778 11 20.7778 11C20.7778 11 13.2656 11 11.3876 11.5002C10.3793 11.7799 9.54888 12.6201 9.27232 13.6601C8.77808 15.5599 8.77808 19.5 8.77808 19.5C8.77808 19.5 8.77808 23.4599 9.27232 25.3399C9.54917 26.3799 10.3595 27.1999 11.3877 27.48C13.2854 28 20.7781 28 20.7781 28C20.7781 28 28.2903 28 30.1684 27.4998C31.1965 27.2199 32.007 26.3999 32.2839 25.3599C32.778 23.4599 32.778 19.52 32.778 19.52C32.778 19.52 32.7978 15.5599 32.2836 13.6601ZM18.386 23.14V15.86L24.633 19.5L18.386 23.14Z" fill="black"/>
</svg>
