<svg width="15" height="15" viewBox="0 0 15 15" fill="none" xmlns="http://www.w3.org/2000/svg">
<path d="M12.8358 5.62781L11.8565 5.36542C12.2504 5.16995 12.5964 4.89021 12.87 4.54606C13.1436 4.2019 13.3381 3.80175 13.4397 3.37399C13.4798 3.22455 13.4588 3.06533 13.3815 2.93134C13.3041 2.79736 13.1767 2.6996 13.0273 2.65955C12.8778 2.61951 12.7186 2.64047 12.5846 2.71783C12.4506 2.79518 12.3529 2.92259 12.3128 3.07203C11.917 4.54942 10.4439 4.70307 9.38105 4.60609C9.93416 4.04171 10.3578 3.36368 10.6225 2.6191C10.7426 2.17079 10.6797 1.69311 10.4476 1.29117C10.2156 0.889219 9.83333 0.595921 9.38502 0.475796C8.9367 0.35567 8.45903 0.418557 8.05708 0.650621C7.65513 0.882686 7.36184 1.26492 7.24171 1.71323C7.09864 2.4904 7.12648 3.2894 7.3233 4.05472C6.35435 3.60727 5.15548 2.73768 5.55134 1.2603C5.59138 1.11086 5.57042 0.951637 5.49307 0.817655C5.41571 0.683672 5.2883 0.585907 5.13886 0.545865C4.98943 0.505823 4.8302 0.526785 4.69622 0.60414C4.56224 0.681495 4.46447 0.808906 4.42443 0.958344C4.29857 1.37961 4.26696 1.82342 4.33183 2.25827C4.3967 2.69313 4.55647 3.10838 4.79981 3.47457L3.82052 3.21217C3.22277 3.052 2.58587 3.13585 2.04994 3.44527C1.51401 3.75469 1.12295 4.26433 0.96278 4.86209L0.811802 5.42554C0.731718 5.72442 0.773643 6.04287 0.928352 6.31083C1.08306 6.5788 1.33788 6.77433 1.63676 6.85441L0.881871 9.6717C0.68263 10.4189 0.787868 11.2145 1.1745 11.8842C1.56113 12.5539 2.19759 13.0428 2.94427 13.2439L8.57883 14.7536C9.32599 14.9529 10.1217 14.8476 10.7913 14.461C11.461 14.0744 11.95 13.4379 12.151 12.6913L12.9059 9.87397C13.2048 9.95405 13.5232 9.91213 13.7912 9.75742C14.0591 9.60271 14.2547 9.34789 14.3348 9.04901L14.4857 8.48555C14.6459 7.8878 14.5621 7.2509 14.2526 6.71497C13.9432 6.17904 13.4336 5.78798 12.8358 5.62781ZM9.08306 1.60271C9.2325 1.64275 9.35991 1.74052 9.43726 1.8745C9.51462 2.00848 9.53558 2.16771 9.49554 2.31714C9.26706 2.89778 8.92026 3.42451 8.47719 3.86386C8.31315 3.26184 8.27618 2.63227 8.36863 2.01519C8.40867 1.86575 8.50643 1.73834 8.64042 1.66098C8.7744 1.58363 8.93362 1.56267 9.08306 1.60271ZM2.08969 5.16404C2.16978 4.86517 2.36531 4.61034 2.63327 4.45563C2.90124 4.30092 3.21969 4.259 3.51856 4.33908L7.46276 5.39593L7.00983 7.0863L1.93872 5.7275L2.08969 5.16404ZM2.00878 9.97365L2.76367 7.15637L6.70787 8.21321L5.50005 12.7209L3.24622 12.117C2.79791 11.9968 2.41567 11.7035 2.18361 11.3016C1.95155 10.8996 1.88866 10.422 2.00878 9.97365ZM11.0241 12.3893C10.904 12.8376 10.6107 13.2198 10.2087 13.4519C9.80677 13.684 9.3291 13.7469 8.88079 13.6267L6.62696 13.0228L7.83478 8.51517L11.779 9.57201L11.0241 12.3893ZM8.13674 7.38825L8.58967 5.69788L12.5339 6.75473C12.8327 6.83481 13.0876 7.03034 13.2423 7.29831C13.397 7.56627 13.4389 7.88472 13.3588 8.1836L13.2078 8.74705L8.13674 7.38825Z" fill="white"/>
</svg>
