<svg width="18" height="18" viewBox="0 0 18 18" fill="none" xmlns="http://www.w3.org/2000/svg">
<path fill-rule="evenodd" clip-rule="evenodd" d="M12.4471 11.9326C14.351 10.0288 14.351 6.94208 12.4471 5.03828C10.5433 3.13447 7.45666 3.13447 5.55286 5.03828C3.64905 6.94208 3.64905 10.0288 5.55285 11.9326L9 15.3797L12.4471 11.9326ZM13.2426 4.24278C15.5858 6.58593 15.5858 10.3849 13.2426 12.7281L9.53033 16.4404C9.23744 16.7333 8.76256 16.7333 8.46967 16.4404L4.75736 12.7281C2.41421 10.3849 2.41421 6.58593 4.75736 4.24278C7.10051 1.89964 10.8995 1.89964 13.2426 4.24278Z" fill="#B1B5C3"/>
<path d="M9 9.75C8.37868 9.75 7.875 9.24632 7.875 8.625C7.875 8.00368 8.37868 7.5 9 7.5C9.62132 7.5 10.125 8.00368 10.125 8.625C10.125 9.24632 9.62132 9.75 9 9.75Z" fill="#B1B5C3"/>
</svg>
