<svg width="24" height="25" viewBox="0 0 24 25" fill="none" xmlns="http://www.w3.org/2000/svg">
<path fill-rule="evenodd" clip-rule="evenodd" d="M7.86641 9.59946L13.0644 10.6565C13.4584 10.7355 13.7654 11.0425 13.8454 11.4365L14.9014 16.6345L18.4194 6.08146L7.86641 9.59946ZM14.6674 21.5005C14.6464 21.5005 14.6264 21.4995 14.6064 21.4985C14.1544 21.4715 13.7774 21.1435 13.6864 20.7005L12.0174 12.4835L3.80141 10.8135C3.35741 10.7235 3.02941 10.3465 3.00241 9.89446C2.97441 9.44246 3.25441 9.02846 3.68341 8.88546L19.6834 3.55246C20.0434 3.43046 20.4394 3.52546 20.7074 3.79346C20.9754 4.06146 21.0684 4.45746 20.9494 4.81746L15.6154 20.8175C15.4784 21.2275 15.0954 21.5005 14.6674 21.5005Z" fill="#F87D00"/>
</svg>
