<svg width="19" height="19" viewBox="0 0 19 19" fill="none" xmlns="http://www.w3.org/2000/svg">
<path fill-rule="evenodd" clip-rule="evenodd" d="M12.9471 12.4326C14.851 10.5288 14.851 7.44208 12.9471 5.53828C11.0433 3.63447 7.95666 3.63447 6.05286 5.53828C4.14905 7.44208 4.14905 10.5288 6.05285 12.4326L9.5 15.8797L12.9471 12.4326ZM13.7426 4.74278C16.0858 7.08593 16.0858 10.8849 13.7426 13.2281L10.0303 16.9404C9.73744 17.2333 9.26256 17.2333 8.96967 16.9404L5.25736 13.2281C2.91421 10.8849 2.91421 7.08593 5.25736 4.74278C7.60051 2.39964 11.3995 2.39964 13.7426 4.74278Z" fill="#F87D00"/>
<path d="M9.5 10.25C8.87868 10.25 8.375 9.74632 8.375 9.125C8.375 8.50368 8.87868 8 9.5 8C10.1213 8 10.625 8.50368 10.625 9.125C10.625 9.74632 10.1213 10.25 9.5 10.25Z" fill="#F87D00"/>
</svg>
