<svg width="18" height="18" viewBox="0 0 18 18" fill="none" xmlns="http://www.w3.org/2000/svg">
<path d="M14.9336 9.35355L15.2871 9L14.9336 8.64645L10.7785 4.49145C10.7691 4.482 10.7619 4.46731 10.7619 4.4475C10.7619 4.42769 10.7691 4.413 10.7785 4.40355C10.788 4.39411 10.8027 4.38688 10.8225 4.38688C10.8423 4.38688 10.857 4.39411 10.8664 4.40355L15.4189 8.95605C15.4284 8.9655 15.4356 8.98019 15.4356 9C15.4356 9.01981 15.4284 9.0345 15.4189 9.04395L10.8664 13.5964L11.2032 13.9332L10.8664 13.5964C10.858 13.6049 10.851 13.6087 10.8457 13.6109C10.8399 13.6132 10.8323 13.615 10.8225 13.615C10.8127 13.615 10.8051 13.6132 10.7993 13.6109C10.7939 13.6087 10.787 13.6049 10.7786 13.5964C10.7691 13.587 10.7619 13.5723 10.7619 13.5525C10.7619 13.5327 10.7691 13.518 10.7786 13.5086L14.9336 9.35355Z" fill="#292D32" stroke="white"/>
<path d="M15.2475 9.0625H2.625C2.61194 9.0625 2.59628 9.0573 2.58199 9.04301C2.5677 9.02872 2.5625 9.01306 2.5625 9C2.5625 8.98694 2.5677 8.97128 2.58199 8.95699C2.59628 8.9427 2.61194 8.9375 2.625 8.9375H15.2475C15.2606 8.9375 15.2762 8.9427 15.2905 8.95699C15.3048 8.97128 15.31 8.98694 15.31 9C15.31 9.01306 15.3048 9.02872 15.2905 9.04301C15.2762 9.0573 15.2606 9.0625 15.2475 9.0625Z" fill="#292D32" stroke="white"/>
</svg>
