<svg width="25" height="24" viewBox="0 0 25 24" fill="none" xmlns="http://www.w3.org/2000/svg">
<path d="M10.5 16.9498H6.71C3.34 16.9498 2.5 16.1098 2.5 12.7398V6.73979C2.5 3.36979 3.34 2.52979 6.71 2.52979H17.24C20.61 2.52979 21.45 3.36979 21.45 6.73979" stroke="white" stroke-linecap="round" stroke-linejoin="round"/>
<path d="M10.5 21.4702V16.9502" stroke="white" stroke-linecap="round" stroke-linejoin="round"/>
<path opacity="0.4" d="M2.5 12.9502H10.5" stroke="white" stroke-linecap="round" stroke-linejoin="round"/>
<path d="M7.24001 21.4702H10.5" stroke="white" stroke-linecap="round" stroke-linejoin="round"/>
<path d="M22.5 12.7998V18.5098C22.5 20.8798 21.91 21.4698 19.54 21.4698H15.99C13.62 21.4698 13.03 20.8798 13.03 18.5098V12.7998C13.03 10.4298 13.62 9.83984 15.99 9.83984H19.54C21.91 9.83984 22.5 10.4298 22.5 12.7998Z" stroke="#FF6B11" stroke-linecap="round" stroke-linejoin="round"/>
<path opacity="0.4" d="M17.7445 18.25H17.7535" stroke="#FF6B11" stroke-linecap="round" stroke-linejoin="round"/>
</svg>
