<svg width="35" height="35" viewBox="0 0 35 35" fill="none" xmlns="http://www.w3.org/2000/svg">
<path opacity="0.5" d="M21.0583 27.7811L23.275 29.9978L27.7084 25.5645" stroke="white" stroke-width="1.5" stroke-linecap="round" stroke-linejoin="round"/>
<path opacity="0.5" d="M17.7333 15.8519C17.5875 15.8373 17.4125 15.8373 17.252 15.8519C13.7812 15.7353 11.025 12.8915 11.025 9.3915C11.0104 5.81859 13.9125 2.9165 17.4854 2.9165C21.0583 2.9165 23.9604 5.81859 23.9604 9.3915C23.9604 12.8915 21.1895 15.7353 17.7333 15.8519Z" stroke="white" stroke-width="1.5" stroke-linecap="round" stroke-linejoin="round"/>
<path d="M17.4855 31.8061C14.8313 31.8061 12.1917 31.1353 10.1792 29.7936C6.65006 27.4311 6.65006 23.5811 10.1792 21.2332C14.1896 18.5499 20.7667 18.5499 24.7771 21.2332" stroke="white" stroke-width="1.5" stroke-linecap="round" stroke-linejoin="round"/>
</svg>
