<svg width="154" height="69" viewBox="0 0 154 69" fill="none" xmlns="http://www.w3.org/2000/svg">
<path d="M96.3809 3.08795C60.4151 -3.64362 18.7275 4.19986 3.92666 23.0272C-10.699 41.5991 17.8517 60.2912 51.2777 66.4067C86.2801 72.8077 128.522 65.6104 147.79 48.9768C169.918 29.879 128.26 13.9216 95.8554 9.12832C93.5492 8.78273 92.615 10.6009 94.8629 10.9615C109.81 13.3506 123.472 17.1221 134.828 22.7267C152.607 31.5318 154.679 41.5991 139.178 51.5763C118.684 64.7689 83.3025 70.073 52.3579 64.3632C19.3114 58.2778 -8.07167 39.6307 8.97705 21.5998C24.7997 4.87602 62.5462 -2.02083 96.0598 3.68898C96.8188 3.82421 97.1399 3.22318 96.3809 3.08795Z" fill="url(#paint0_linear_94_12032)"/>
<path d="M67.4215 62.1995C92.0312 65.5953 116.962 59.8104 130.303 48.7514C130.77 48.3457 129.632 47.8648 129.019 48.2405C113.371 57.9772 93.2281 64.6186 67.6842 61.7186C67.1004 61.6585 66.8376 62.1093 67.4215 62.1995Z" fill="url(#paint1_linear_94_12032)"/>
<path d="M136.463 44.3338C138.623 42.696 141.134 40.5473 141.484 38.5338C141.542 38.1282 140.287 37.9478 139.966 38.3235C139.119 39.2551 138.711 40.2618 137.923 41.2084C137.134 42.1551 136.142 43.0416 135.062 43.9131C134.478 44.3639 135.879 44.7846 136.463 44.3338Z" fill="url(#paint2_linear_94_12032)"/>
<path d="M18.5231 23.8386C22.6685 17.7832 32.7401 14.2672 43.5415 11.6226C44.3881 11.4123 43.7751 10.7061 42.8993 10.8413C30.8718 12.7045 20.7418 17.3625 17.2094 23.6433C16.9759 24.079 18.2312 24.2594 18.5231 23.8386Z" fill="url(#paint3_linear_94_12032)"/>
<defs>
<linearGradient id="paint0_linear_94_12032" x1="62.1923" y1="-21.6375" x2="172.751" y2="51.7867" gradientUnits="userSpaceOnUse">
<stop stop-color="#FE5D0C"/>
<stop offset="1" stop-color="#F63609"/>
</linearGradient>
<linearGradient id="paint1_linear_94_12032" x1="62.1923" y1="-21.6375" x2="172.751" y2="51.7867" gradientUnits="userSpaceOnUse">
<stop stop-color="#FE5D0C"/>
<stop offset="1" stop-color="#F63609"/>
</linearGradient>
<linearGradient id="paint2_linear_94_12032" x1="62.1923" y1="-21.6375" x2="172.751" y2="51.7867" gradientUnits="userSpaceOnUse">
<stop stop-color="#FE5D0C"/>
<stop offset="1" stop-color="#F63609"/>
</linearGradient>
<linearGradient id="paint3_linear_94_12032" x1="62.1923" y1="-21.6375" x2="172.751" y2="51.7867" gradientUnits="userSpaceOnUse">
<stop stop-color="#FE5D0C"/>
<stop offset="1" stop-color="#F63609"/>
</linearGradient>
</defs>
</svg>
