<svg width="196" height="69" viewBox="0 0 196 69" fill="none" xmlns="http://www.w3.org/2000/svg">
<path d="M122.667 2.41246C76.892 -4.41669 23.835 3.54049 4.99757 22.6408C-13.617 41.4819 22.7204 60.445 65.2626 66.6492C109.811 73.143 163.574 65.8413 188.096 48.9666C216.259 29.5919 163.24 13.4031 121.998 8.54041C119.063 8.1898 117.874 10.0343 120.735 10.4001C139.758 12.8239 157.146 16.65 171.599 22.3359C194.227 31.2687 196.865 41.4819 177.135 51.6037C151.053 64.9876 106.021 70.3686 66.6373 64.576C24.5781 58.4024 -10.273 39.485 11.4253 21.1926C31.5632 4.22645 79.6043 -2.77038 122.258 3.02221C123.224 3.1594 123.633 2.54965 122.667 2.41246Z" fill="url(#paint0_linear_59_1302)"/>
<path d="M85.8092 62.3809C117.131 65.826 148.861 59.9572 165.84 48.7379C166.435 48.3263 164.986 47.8385 164.206 48.2196C144.291 58.0975 118.654 64.8352 86.1436 61.8931C85.4005 61.8322 85.0661 62.2895 85.8092 62.3809Z" fill="url(#paint1_linear_59_1302)"/>
<path d="M173.68 44.2563C176.43 42.5947 179.625 40.4149 180.071 38.3722C180.145 37.9606 178.547 37.7777 178.139 38.1588C177.061 39.1039 176.541 40.1252 175.538 41.0856C174.535 42.0459 173.271 42.9453 171.897 43.8294C171.154 44.2868 172.937 44.7136 173.68 44.2563Z" fill="url(#paint2_linear_59_1302)"/>
<path d="M23.5749 23.464C28.8509 17.3208 41.6692 13.7538 55.4165 11.0709C56.494 10.8575 55.7137 10.141 54.5991 10.2782C39.2913 12.1684 26.3986 16.894 21.9029 23.2658C21.6057 23.7079 23.2033 23.8908 23.5749 23.464Z" fill="url(#paint3_linear_59_1302)"/>
<defs>
<linearGradient id="paint0_linear_59_1302" x1="79.1539" y1="-22.6714" x2="198.843" y2="77.049" gradientUnits="userSpaceOnUse">
<stop stop-color="#FE5D0C"/>
<stop offset="1" stop-color="#F63609"/>
</linearGradient>
<linearGradient id="paint1_linear_59_1302" x1="79.1539" y1="-22.6714" x2="198.843" y2="77.049" gradientUnits="userSpaceOnUse">
<stop stop-color="#FE5D0C"/>
<stop offset="1" stop-color="#F63609"/>
</linearGradient>
<linearGradient id="paint2_linear_59_1302" x1="79.1539" y1="-22.6714" x2="198.843" y2="77.049" gradientUnits="userSpaceOnUse">
<stop stop-color="#FE5D0C"/>
<stop offset="1" stop-color="#F63609"/>
</linearGradient>
<linearGradient id="paint3_linear_59_1302" x1="79.1539" y1="-22.6714" x2="198.843" y2="77.049" gradientUnits="userSpaceOnUse">
<stop stop-color="#FE5D0C"/>
<stop offset="1" stop-color="#F63609"/>
</linearGradient>
</defs>
</svg>
