<svg width="89" height="88" viewBox="0 0 89 88" fill="none" xmlns="http://www.w3.org/2000/svg">
<g opacity="0.8" filter="url(#filter0_d_5758_45251)">
<path d="M64.5 40.4585C64.5 29.4128 55.5457 20.4585 44.5 20.4585C33.4543 20.4585 24.5 29.4128 24.5 40.4585C24.5 51.5042 33.4543 60.4585 44.5 60.4585C55.5457 60.4585 64.5 51.5042 64.5 40.4585Z" fill="#3D3D3D" shape-rendering="crispEdges"/>
<path d="M42.875 34.5335V46.3835C42.875 46.8907 42.7657 47.1149 42.6447 47.2289C42.516 47.3501 42.2573 47.4585 41.7 47.4585H38.675C38.1177 47.4585 37.859 47.3501 37.7303 47.2289C37.6093 47.1149 37.5 46.8907 37.5 46.3835V34.5335C37.5 34.0263 37.6093 33.8021 37.7303 33.6881C37.859 33.5669 38.1177 33.4585 38.675 33.4585H41.7C42.2573 33.4585 42.516 33.5669 42.6447 33.6881C42.7657 33.8021 42.875 34.0263 42.875 34.5335Z" fill="white" stroke="white"/>
<path d="M52 46.3835V34.5335C52 33.4085 51.525 32.9585 50.325 32.9585H47.3C46.1083 32.9585 45.625 33.4085 45.625 34.5335V46.3835C45.625 47.5085 46.1 47.9585 47.3 47.9585H50.325C51.525 47.9585 52 47.5085 52 46.3835Z" fill="white"/>
</g>
<defs>
<filter id="filter0_d_5758_45251" x="0.5" y="0.458496" width="88" height="88" filterUnits="userSpaceOnUse" color-interpolation-filters="sRGB">
<feFlood flood-opacity="0" result="BackgroundImageFix"/>
<feColorMatrix in="SourceAlpha" type="matrix" values="0 0 0 0 0 0 0 0 0 0 0 0 0 0 0 0 0 0 127 0" result="hardAlpha"/>
<feOffset dy="4"/>
<feGaussianBlur stdDeviation="12"/>
<feComposite in2="hardAlpha" operator="out"/>
<feColorMatrix type="matrix" values="0 0 0 0 0 0 0 0 0 0 0 0 0 0 0 0 0 0 0.12 0"/>
<feBlend mode="normal" in2="BackgroundImageFix" result="effect1_dropShadow_5758_45251"/>
<feBlend mode="normal" in="SourceGraphic" in2="effect1_dropShadow_5758_45251" result="shape"/>
</filter>
</defs>
</svg>
