<svg width="56" height="56" viewBox="0 0 56 56" fill="none" xmlns="http://www.w3.org/2000/svg">
<circle cx="28" cy="28" r="28" fill="#FFF3F6"/>
<path d="M27.9999 11.334C18.8166 11.334 11.3333 18.8173 11.3333 28.0007C11.3333 37.184 18.8166 44.6673 27.9999 44.6673C37.1833 44.6673 44.6666 37.184 44.6666 28.0007C44.6666 18.8173 37.1833 11.334 27.9999 11.334ZM33.5999 31.834C34.0833 32.3173 34.0833 33.1173 33.5999 33.6007C33.3499 33.8507 33.0333 33.9673 32.7166 33.9673C32.3999 33.9673 32.0833 33.8507 31.8333 33.6007L27.9999 29.7673L24.1666 33.6007C23.9166 33.8507 23.5999 33.9673 23.2833 33.9673C22.9666 33.9673 22.6499 33.8507 22.3999 33.6007C21.9166 33.1173 21.9166 32.3173 22.3999 31.834L26.2333 28.0007L22.3999 24.1673C21.9166 23.684 21.9166 22.884 22.3999 22.4007C22.8833 21.9173 23.6833 21.9173 24.1666 22.4007L27.9999 26.234L31.8333 22.4007C32.3166 21.9173 33.1166 21.9173 33.5999 22.4007C34.0833 22.884 34.0833 23.684 33.5999 24.1673L29.7666 28.0007L33.5999 31.834Z" fill="#FF2156"/>
</svg>
