<svg width="56" height="56" viewBox="0 0 56 56" fill="none" xmlns="http://www.w3.org/2000/svg">
<circle cx="28" cy="28" r="28" fill="#F1FDF6"/>
<path d="M27.9999 11.333C18.8166 11.333 11.3333 18.8163 11.3333 27.9997C11.3333 37.183 18.8166 44.6663 27.9999 44.6663C37.1833 44.6663 44.6666 37.183 44.6666 27.9997C44.6666 18.8163 37.1833 11.333 27.9999 11.333ZM35.9666 24.1663L26.5166 33.6163C26.2833 33.8497 25.9666 33.983 25.6333 33.983C25.2999 33.983 24.9833 33.8497 24.7499 33.6163L20.0333 28.8997C19.5499 28.4163 19.5499 27.6163 20.0333 27.133C20.5166 26.6497 21.3166 26.6497 21.7999 27.133L25.6333 30.9663L34.1999 22.3997C34.6833 21.9163 35.4833 21.9163 35.9666 22.3997C36.4499 22.883 36.4499 23.6663 35.9666 24.1663Z" fill="#17BA58"/>
</svg>
