<svg width="89" height="89" viewBox="0 0 89 89" fill="none" xmlns="http://www.w3.org/2000/svg">
<g opacity="0.8" filter="url(#filter0_d_5758_45117)">
<path d="M64.5 40.4585C64.5 29.4128 55.5457 20.4585 44.5 20.4585C33.4543 20.4585 24.5 29.4128 24.5 40.4585C24.5 51.5042 33.4543 60.4585 44.5 60.4585C55.5457 60.4585 64.5 51.5042 64.5 40.4585Z" fill="#3D3D3D" shape-rendering="crispEdges"/>
<path d="M37.8333 40.4583V37.4917C37.8333 33.8083 40.4416 32.3 43.6333 34.1417L46.2083 35.625L48.7833 37.1083C51.9749 38.95 51.9749 41.9667 48.7833 43.8083L46.2083 45.2917L43.6333 46.775C40.4416 48.6167 37.8333 47.1083 37.8333 43.425V40.4583Z" fill="white" stroke="white" stroke-miterlimit="10" stroke-linecap="round" stroke-linejoin="round"/>
</g>
<defs>
<filter id="filter0_d_5758_45117" x="0.5" y="0.458496" width="88" height="88" filterUnits="userSpaceOnUse" color-interpolation-filters="sRGB">
<feFlood flood-opacity="0" result="BackgroundImageFix"/>
<feColorMatrix in="SourceAlpha" type="matrix" values="0 0 0 0 0 0 0 0 0 0 0 0 0 0 0 0 0 0 127 0" result="hardAlpha"/>
<feOffset dy="4"/>
<feGaussianBlur stdDeviation="12"/>
<feComposite in2="hardAlpha" operator="out"/>
<feColorMatrix type="matrix" values="0 0 0 0 0 0 0 0 0 0 0 0 0 0 0 0 0 0 0.12 0"/>
<feBlend mode="normal" in2="BackgroundImageFix" result="effect1_dropShadow_5758_45117"/>
<feBlend mode="normal" in="SourceGraphic" in2="effect1_dropShadow_5758_45117" result="shape"/>
</filter>
</defs>
</svg>
