<svg width="56" height="56" viewBox="0 0 56 56" fill="none" xmlns="http://www.w3.org/2000/svg">
<rect width="56" height="56" rx="28" fill="#FFF7EC"/>
<path d="M28 22.4395V25.7695" stroke="#FF730A" stroke-width="1.5" stroke-miterlimit="10" stroke-linecap="round"/>
<path d="M28.0209 18C24.3409 18 21.3609 20.98 21.3609 24.66V26.76C21.3609 27.44 21.0809 28.46 20.7309 29.04L19.4609 31.16C18.6809 32.47 19.2209 33.93 20.6609 34.41C25.4409 36 30.6109 36 35.3909 34.41C36.7409 33.96 37.3209 32.38 36.5909 31.16L35.3209 29.04C34.9709 28.46 34.6909 27.43 34.6909 26.76V24.66C34.6809 21 31.6809 18 28.0209 18Z" stroke="#FF730A" stroke-width="1.5" stroke-miterlimit="10" stroke-linecap="round"/>
<path d="M31.3299 34.8203C31.3299 36.6503 29.8299 38.1503 27.9999 38.1503C27.0899 38.1503 26.2499 37.7703 25.6499 37.1703C25.0499 36.5703 24.6699 35.7303 24.6699 34.8203" stroke="#FF730A" stroke-width="1.5" stroke-miterlimit="10"/>
</svg>
