<svg width="20" height="20" viewBox="0 0 20 20" fill="none" xmlns="http://www.w3.org/2000/svg">
<g clip-path="url(#clip0_314_1565)">
<path d="M18.3208 3.71721H15.3618C15.6673 3.50783 15.8966 3.19064 15.9919 2.81056C16.1638 2.1258 15.9392 1.4133 15.406 0.950408C14.8724 0.487518 14.1345 0.366033 13.4802 0.633221C12.477 1.04299 11.5329 1.61721 10.6728 2.34142C10.4825 2.18752 10.2478 2.10431 9.99971 2.10431C9.75127 2.10431 9.51689 2.18791 9.32666 2.34142C9.31846 2.33439 9.31064 2.32775 9.30244 2.32072C8.44619 1.60353 7.50518 1.034 6.50557 0.627362C5.84736 0.359783 5.13291 0.478924 4.59463 0.946502C4.06103 1.41056 3.83603 2.12463 4.00791 2.81056C4.10322 3.19064 4.33291 3.50744 4.63799 3.71721H1.67939C1.27822 3.71721 0.95166 4.04377 0.95166 4.44494V6.35119C0.95166 6.75236 1.27822 7.07892 1.67939 7.07892H1.85518V19.0547C1.85518 19.307 2.06025 19.5121 2.3126 19.5121H17.6876C17.9399 19.5121 18.145 19.307 18.145 19.0547V7.80275C18.145 7.72736 18.0837 7.66603 18.0083 7.66603C17.9329 7.66603 17.8716 7.72736 17.8716 7.80275V19.0543C17.8716 19.1559 17.7892 19.2383 17.6876 19.2383H11.8868V7.53283H12.0368C12.363 7.53283 12.6278 7.26838 12.6278 6.94181V3.85392C12.6278 3.52775 12.3634 3.26291 12.0368 3.26291H7.96338C7.63721 3.26291 7.37236 3.52736 7.37236 3.85392V6.94221C7.37236 7.26838 7.63682 7.53322 7.96338 7.53322H10.2255C10.2907 7.53322 10.3501 7.57736 10.363 7.64142C10.381 7.72931 10.3142 7.80666 10.229 7.80666H8.26963C8.1833 7.80666 8.11338 7.87658 8.11338 7.96291V19.2383H2.3126C2.21104 19.2383 2.12861 19.1559 2.12861 19.0543V7.07853H6.43838C6.51377 7.07853 6.5751 7.01721 6.5751 6.94181C6.5751 6.86642 6.51377 6.8051 6.43838 6.8051H3.85752C4.86728 6.46135 5.59385 5.50588 5.59385 4.37971C5.59385 4.22502 5.52666 4.08635 5.42041 3.99025H6.43799C6.51338 3.99025 6.57471 3.92892 6.57471 3.85353C6.57471 3.77814 6.51338 3.71681 6.43799 3.71681H5.5208C4.93018 3.71681 4.41689 3.31681 4.27314 2.74299C4.12432 2.14924 4.31182 1.5551 4.77471 1.15275C5.23369 0.754315 5.84228 0.652362 6.40322 0.880487C7.37666 1.27619 8.29307 1.83127 9.12744 2.5301C9.15596 2.55431 9.18447 2.57853 9.2126 2.60314L9.24033 2.62736C9.29502 2.67463 9.37705 2.67072 9.42744 2.61916C9.57939 2.4633 9.78252 2.37736 10.0001 2.37736C10.2138 2.37736 10.4145 2.46056 10.5669 2.6133L10.5724 2.61916C10.6228 2.67072 10.7044 2.67424 10.7591 2.62697C11.6216 1.88517 12.5716 1.29924 13.5837 0.885955C14.1505 0.654705 14.7645 0.755877 15.2267 1.15666C15.6884 1.55705 15.8755 2.15041 15.7267 2.74338C15.5829 3.31642 15.07 3.71642 14.479 3.71642H13.5618C13.4864 3.71642 13.4251 3.77775 13.4251 3.85314C13.4251 3.92853 13.4864 3.98986 13.5618 3.98986H16.2368C15.1782 4.30471 14.4063 5.28439 14.4063 6.44533C14.4063 6.58439 14.4606 6.71056 14.5489 6.80471H13.5622C13.4868 6.80471 13.4255 6.86603 13.4255 6.94142C13.4255 7.01681 13.4868 7.07814 13.5622 7.07814H18.3212C18.7224 7.07814 19.0489 6.75158 19.0489 6.35041V4.44416C19.0485 4.04338 18.722 3.71721 18.3208 3.71721Z" fill="white"/>
<path d="M14.4794 3.03364C14.404 3.03364 14.3427 3.09497 14.3427 3.17036C14.3427 3.24575 14.404 3.30708 14.4794 3.30708C14.8818 3.30708 15.2314 3.03442 15.329 2.64419C15.4396 2.20434 15.3009 1.76411 14.9583 1.46723C14.6154 1.16958 14.1595 1.09458 13.7392 1.26645C12.9025 1.60825 12.1056 2.07544 11.3712 2.65512C11.3118 2.702 11.3017 2.78794 11.3486 2.84731C11.3954 2.90669 11.4814 2.91684 11.5407 2.86997C12.2552 2.3063 13.0298 1.852 13.8427 1.51997C14.1657 1.38794 14.5157 1.44575 14.7794 1.67427C15.0427 1.90239 15.1489 2.24067 15.0642 2.57817C14.9966 2.84614 14.756 3.03364 14.4794 3.03364Z" fill="white"/>
<path d="M5.22267 1.66913C5.48283 1.44296 5.82814 1.38515 6.14533 1.51406C6.95978 1.84531 7.73478 2.29843 8.44923 2.86054C8.50861 2.90742 8.59454 2.89687 8.64142 2.83788C8.68829 2.77851 8.67775 2.69257 8.61837 2.6457C7.884 2.06757 7.08673 1.60195 6.24845 1.26093C5.83361 1.09218 5.38322 1.16757 5.04337 1.46288C4.69962 1.76171 4.56017 2.20312 4.67072 2.64335C4.76876 3.03398 5.11837 3.30702 5.52072 3.30702C5.59611 3.30702 5.65744 3.2457 5.65744 3.17031C5.65744 3.09492 5.59611 3.03359 5.52072 3.03359C5.24376 3.03359 5.00353 2.8457 4.93595 2.57695C4.85119 2.23827 4.95822 1.89882 5.22267 1.66913Z" fill="white"/>
</g>
<defs>
<clipPath id="clip0_314_1565">
<rect width="20" height="20" fill="white"/>
</clipPath>
</defs>
</svg>
