<svg width="20" height="20" viewBox="0 0 20 20" fill="none" xmlns="http://www.w3.org/2000/svg">
<g clip-path="url(#clip0_181_54463)">
<path d="M19.1843 11.7813C19.0499 11.6406 18.8718 11.5625 18.6781 11.5625C18.425 11.5625 18.1937 11.7031 18.0687 11.9281C17.7093 12.5844 17.2218 13.1406 16.6468 13.5813C16.4531 13.0094 16.1218 12.6125 15.625 12.3813H15.6218C15.6218 11.625 15.3781 11 14.9 10.5656C14.4406 10.15 13.8 9.95625 13.075 9.99688L11.4625 8.38438L9.74058 6.65938L9.09995 6.01563C8.87808 5.79375 8.75933 5.4875 8.77495 5.16875C8.79058 4.85 8.93745 4.5625 9.18433 4.35938C9.6187 4.00313 10.2937 4.05625 10.7187 4.48125L11.0468 4.80625C11.3468 5.10938 11.7437 5.275 12.1687 5.275C12.4749 5.275 12.7687 5.1875 13.0218 5.025L13.5968 5.6V6.25313C13.5968 6.425 13.7374 6.56563 13.9093 6.56563C14.0812 6.56563 14.2218 6.425 14.2218 6.25313V5.78438H14.6906C14.8625 5.78438 15.0031 5.64375 15.0031 5.47188C15.0031 5.3 14.8625 5.15938 14.6906 5.15938H14.0374L13.4687 4.59063C13.6531 4.32813 13.75 4.01875 13.75 3.69063C13.75 3.26563 13.5843 2.86875 13.2875 2.57188L12.9156 2.19375C12.0656 1.34375 10.8906 0.890628 9.68433 0.946878C9.4187 0.959378 9.15308 0.996878 8.89995 1.05938C8.89058 1.05938 8.8812 1.05938 8.87183 1.0625C7.99058 1.27188 7.19995 1.75938 6.59995 2.475C6.59995 2.47813 6.59683 2.47813 6.59683 2.47813C6.59058 2.48438 6.58433 2.49375 6.57808 2.5C5.18745 4.18438 5.34683 6.75 6.93745 8.34688L8.3687 9.78125C8.34058 9.77188 8.31245 9.7625 8.2812 9.75C7.2937 9.34688 5.45933 8.75 4.25933 9.26563C3.80933 9.45938 3.4937 9.78438 3.31245 10.2375C3.10933 10.7563 3.07183 11.2813 3.19683 11.7688C2.9687 11.85 2.77183 11.9594 2.59995 12.0906C2.11558 12.4656 1.87183 13.0219 1.87183 13.7438C1.87183 14.1563 1.91558 14.525 1.99995 14.8469C1.1937 15.1688 0.621826 15.9594 0.621826 16.8781C0.621826 18.0844 1.60308 19.0656 2.80933 19.0656H12.1906C13.2968 19.0656 14.3468 18.8125 15.2874 18.3656C15.2906 18.3656 15.2906 18.3625 15.2937 18.3625C15.3125 18.3563 15.3281 18.3469 15.3437 18.3375C17.6062 17.2313 19.2125 14.9719 19.3718 12.3094C19.3812 12.1156 19.3125 11.925 19.1812 11.7844L19.1843 11.7813ZM7.3812 7.9C6.08433 6.60313 5.89058 4.5625 6.88433 3.13125C7.14995 3.32813 7.47495 3.4375 7.81245 3.4375C8.67495 3.4375 9.37495 2.7375 9.37495 1.875C9.37495 1.78438 9.36558 1.69063 9.34683 1.6C9.4687 1.58438 9.59058 1.57188 9.71558 1.56563C10.7406 1.51875 11.7468 1.90625 12.4718 2.63125L12.8437 3.00938C13.025 3.19063 13.125 3.43125 13.125 3.6875C13.125 3.94375 13.025 4.18438 12.8437 4.36875C12.4812 4.73125 11.8499 4.73438 11.4874 4.36563L11.1593 4.0375C10.5093 3.3875 9.46558 3.31875 8.7812 3.87813C8.40308 4.19063 8.17183 4.65 8.14995 5.14063C8.12495 5.63125 8.30933 6.1125 8.65308 6.45938L9.06558 6.87188C8.86245 7.14063 8.74995 7.46875 8.74995 7.8125C8.74995 8.675 9.44995 9.375 10.3125 9.375C10.6593 9.375 10.9874 9.2625 11.2531 9.0625L12.2843 10.0969C11.2968 10.2438 10.4593 10.2844 9.6062 10.1313L7.37808 7.89688L7.3812 7.9ZM3.89683 10.4625C4.01245 10.1688 4.21245 9.9625 4.5062 9.8375C5.53433 9.39688 7.32495 10.0344 8.04683 10.3281C9.69058 10.9938 10.9781 10.9563 12.775 10.6563C13.475 10.5375 14.0781 10.6688 14.475 11.0281C14.7781 11.3031 14.95 11.7 14.9875 12.1844C14.55 12.1063 14.025 12.1063 13.4031 12.175C13.1625 12.2 12.9312 12.225 12.7062 12.2469C12.4781 11.6563 11.9031 11.25 11.25 11.25C10.5468 11.25 9.94683 11.7125 9.75308 12.3625C8.7812 12.3125 7.81558 12.1625 6.63745 11.8656C5.51558 11.5844 4.56558 11.5 3.81245 11.6156C3.71558 11.25 3.74058 10.8625 3.89683 10.4625ZM2.98745 12.5813C3.16245 12.4438 3.38745 12.3438 3.6562 12.2781C4.02495 12.1875 4.47495 12.1656 4.99995 12.2125C5.01245 13.2344 5.84995 14.0625 6.87495 14.0625C7.6562 14.0625 8.33433 13.5906 8.61245 12.8844C9.07495 12.9438 9.52183 12.9781 9.97495 12.9938C9.98433 12.9969 9.99683 12.9969 10.0062 12.9969C10.0125 12.9969 10.0218 12.9969 10.0281 12.9938C10.0281 12.9938 10.0302 12.9938 10.0343 12.9938C10.8031 13.0156 11.5875 12.9781 12.4718 12.8969C12.4906 12.8969 12.5125 12.8969 12.5343 12.8906C12.8343 12.8625 13.1437 12.8313 13.4718 12.7938C14.2687 12.7063 14.825 12.7469 15.2218 12.8938C15.7406 13.0844 15.9781 13.4531 16.1031 13.95C15.3875 14.3719 14.5718 14.625 13.7156 14.675C13.5656 13.9688 12.9375 13.4375 12.1875 13.4375C11.4375 13.4375 10.8 13.975 10.6562 14.6875H2.81245C2.7437 14.6875 2.67495 14.6906 2.60933 14.7C2.53745 14.425 2.49995 14.1063 2.49995 13.7406C2.49995 13.2156 2.65933 12.8344 2.98745 12.5813ZM15.3218 17.6438C14.9343 16.9844 14.2156 16.5625 13.4375 16.5625C12.3375 16.5625 11.425 17.3781 11.275 18.4375H2.81245C1.94995 18.4375 1.24995 17.7375 1.24995 16.875C1.24995 16.0125 1.94995 15.3125 2.81245 15.3125H3.77495C3.92495 16.3719 4.83745 17.1875 5.93745 17.1875C7.03745 17.1875 7.94995 16.3719 8.09995 15.3125H13.4468C14.5812 15.3 15.6656 14.9719 16.5906 14.375C16.6187 14.3625 16.6406 14.3469 16.6593 14.3313C17.4593 13.8156 18.1343 13.1 18.6156 12.2281C18.6406 12.1813 18.6968 12.175 18.7281 12.2094C18.7375 12.2188 18.7531 12.2375 18.75 12.2688C18.6093 14.6031 17.2562 16.5969 15.3218 17.6438Z" />
<path d="M12.1875 3.75C12.3601 3.75 12.5 3.61009 12.5 3.4375C12.5 3.26491 12.3601 3.125 12.1875 3.125C12.0149 3.125 11.875 3.26491 11.875 3.4375C11.875 3.61009 12.0149 3.75 12.1875 3.75Z"/>
</g>
<defs>
<clipPath id="clip0_181_54463">
<rect width="20" height="20" />
</clipPath>
</defs>
</svg>
