<svg width="588" height="296" viewBox="0 0 588 296" fill="none" xmlns="http://www.w3.org/2000/svg">
<g clip-path="url(#clip0_1370_5040)">
<path d="M574.817 194.778C574.779 195.417 574.75 196.056 574.711 196.694C573.961 209.052 571.691 222.887 567.641 238.305C567.468 238.972 567.294 239.639 567.112 240.316V240.326C563.389 254.123 558.252 269.178 551.537 285.55L419.252 285.493H416.876L175.491 285.397H172.047L43.9475 285.34C43.9475 285.34 -8.16397 212.322 22.9856 125.288C23.1972 124.687 23.4185 124.077 23.6494 123.476C31.8071 101.441 45.3424 78.5386 66.4295 55.7217C69.0172 52.9184 71.6146 50.2391 74.2217 47.6838C74.7219 47.188 75.2221 46.7017 75.7224 46.225C108.267 14.8553 142.283 1.57323 174.366 0.133471C175.27 0.0953317 176.174 0.0571923 177.079 0.0381226C234.164 -1.34443 284.774 34.4494 309.546 71.807C309.902 72.3409 310.248 72.8653 310.594 73.3898C314.991 80.2358 318.521 87.1199 321.051 93.8229C322.254 97.0076 323.533 99.992 324.89 102.776C325.178 103.386 325.477 103.997 325.784 104.588C346.352 144.987 382.225 142.413 421.407 130.313C422.081 130.103 422.764 129.893 423.447 129.674C435.404 125.898 447.651 121.283 459.839 116.792C464.803 114.962 469.863 113.427 474.952 112.225C475.587 112.063 476.212 111.92 476.838 111.787C498.175 107.057 519.945 108.03 537.54 116.564C538.127 116.85 538.704 117.136 539.281 117.441C561.657 129.121 576.818 153.549 574.817 194.778Z" fill="#D3E0FF"/>
<path d="M325.785 104.588C309.633 120.33 288.228 131.581 264.428 136.11C256.684 137.578 248.921 138.303 241.225 138.303C205.814 138.303 171.576 122.981 144.698 94.4713C122.581 71.0156 97.4732 56.5608 74.2217 47.6838C74.7219 47.188 75.2222 46.7017 75.7224 46.225C98.9835 55.2068 124.024 69.7379 146.102 93.1651C178.368 127.386 221.359 142.346 264.072 134.232C287.718 129.731 308.95 118.49 324.89 102.776C325.178 103.386 325.477 103.997 325.785 104.588Z" fill="white"/>
<path d="M310.594 73.3898C298.916 80.0928 284.563 85.7851 269.517 85.7851C267.449 85.7851 265.38 85.6803 263.283 85.4514C242.841 83.2298 225.207 70.1098 210.893 46.4539C199.262 27.2411 187.054 11.7661 174.366 0.133557C175.27 0.0954171 176.174 0.0572777 177.079 0.038208C188.363 10.6982 200.369 25.3628 212.538 45.4718C226.525 68.5843 243.668 81.3991 263.485 83.554C280.272 85.3751 296.568 79.2442 309.546 71.807C309.902 72.341 310.248 72.8654 310.594 73.3898Z" fill="white"/>
<path d="M175.491 285.397H172.047C169.854 283.795 167.699 282.146 165.583 280.439C144.881 263.753 127.314 241.566 113.375 214.496C82.1389 153.845 48.873 133.03 26.468 126.251C25.2944 125.898 24.1304 125.574 22.9856 125.288C23.1972 124.687 23.4185 124.077 23.6494 123.476C24.7076 123.753 25.785 124.058 26.8817 124.382C49.6811 131.238 83.4954 152.281 115.087 213.628C132.74 247.897 154.375 270.494 175.491 285.397Z" fill="white"/>
<path d="M567.641 238.305C567.468 238.972 567.294 239.639 567.112 240.316V240.326C560.051 241.537 553.49 242.138 547.4 242.138C534.317 242.138 523.427 239.353 514.587 233.785C488.805 217.557 483.447 180.199 479.512 136.663C478.694 127.586 477.088 119.472 474.952 112.225C475.587 112.063 476.212 111.92 476.838 111.787C478.983 119.119 480.599 127.328 481.426 136.491C485.322 179.513 490.585 216.413 515.616 232.174C528.333 240.183 545.515 242.233 567.641 238.305Z" fill="white"/>
<path d="M574.817 194.778C574.779 195.417 574.75 196.056 574.711 196.695C569.613 197.305 564.889 197.6 560.522 197.6C544.533 197.6 533.413 193.586 527.314 185.558C514.471 168.672 526.429 138.208 537.54 116.564C538.127 116.85 538.704 117.136 539.281 117.441C528.593 138.427 516.76 168.509 528.853 184.414C536.241 194.12 551.652 197.581 574.817 194.778Z" fill="white"/>
<path d="M413.942 277.321C415.548 280.144 417.319 282.871 419.252 285.493H416.876C415.221 283.157 413.682 280.744 412.268 278.256C396.674 250.814 396.453 214.677 411.624 173.754C417.819 157.039 421.09 142.432 421.407 130.313C422.08 130.103 422.763 129.893 423.447 129.674C423.216 142.06 419.877 157.01 413.422 174.412C398.463 214.801 398.637 250.385 413.942 277.321Z" fill="white"/>
<path d="M382.889 51.7361C344.832 53.1568 318.31 102.223 370.152 116.182C421.984 130.132 532.191 46.1773 382.889 51.7361Z" fill="#D3E0FF"/>
<path d="M557.405 296H30.0851C27.1125 296 24.7075 293.616 24.7075 290.67C24.7075 287.724 27.1125 285.34 30.0851 285.34H557.405C560.378 285.34 562.783 287.724 562.783 290.67C562.783 293.616 560.378 296 557.405 296Z" fill="#C7E4EA"/>
<path d="M100.436 232.021C100.436 232.021 78.9933 216.508 71.4609 200.709C63.938 184.909 83.9669 205.152 97.8966 205.676C111.817 206.201 61.3599 169.32 67.8053 155.895C75.8764 139.075 98.9259 188.771 94.9817 169.701C96.5979 177.51 74.3372 120.778 94.443 125.517C107.69 128.635 108.479 167.108 116.8 173.487C125.121 179.866 123.928 153.988 134.905 164.724C145.804 175.394 137.925 217.738 132.038 235.616L100.436 232.021Z" fill="url(#paint0_linear_1370_5040)"/>
<path d="M157.733 219.502C157.444 219.654 130.96 205.676 111.826 199.793C92.1245 193.825 116.656 213.037 117.156 228.179C117.098 235.911 106.564 227.463 96.7806 215.554C86.5834 203.769 77.1462 188.533 69.7196 185.577C62.0428 182.478 64.5729 194.292 68.6421 205.753C72.2496 217.233 77.3963 228.35 64.1111 224.098C36.7615 217.156 10.6913 186.149 13.1636 212.227C14.4431 225.766 28.4979 234.815 49.0751 240.65C69.6619 247.267 90.4891 246.733 94.4718 251.282C102.832 261.465 58.3872 254.199 55.1934 259.977C53.1155 263.133 71.6724 271.009 96.1938 270.847C120.484 271.419 150.739 263.944 166.756 253.227C164.188 241.823 161.177 230.572 157.733 219.502Z" fill="url(#paint1_linear_1370_5040)"/>
<path d="M147.747 272.392C141.956 271.991 127.083 275.166 111.807 280.191C96.5593 284.844 81.148 291.871 73.1346 283.691C66.9489 277.369 80.2918 276.701 94.0869 269.96C107.892 262.657 120.975 258.366 109.96 253.398C91.5665 245.332 69.8542 237.122 73.3366 224.069C75.1067 217.49 80.5708 213.485 92.9133 218.72C109.412 226.033 135.434 247.296 144.852 251.32C147.911 257.422 152.336 267.119 147.747 272.392Z" fill="url(#paint2_linear_1370_5040)"/>
<path d="M429.045 203.54V274.785C429.045 278.132 427.506 281.126 425.082 283.099C423.206 284.625 420.801 285.559 418.175 285.559H307.583C301.581 285.559 296.722 280.735 296.722 274.794V203.55H429.045V203.54Z" fill="url(#paint3_linear_1370_5040)"/>
<path d="M425.082 283.099C423.206 284.625 420.801 285.559 418.175 285.559H307.583C304.544 285.559 301.792 284.32 299.811 282.317C297.896 280.382 296.713 277.722 296.713 274.794V203.55L362.725 244.474L362.87 244.559L425.082 283.099Z" fill="url(#paint4_linear_1370_5040)"/>
<path d="M429.045 203.54V274.785C429.045 278.132 427.506 281.126 425.082 283.099L362.879 244.55L429.045 203.54Z" fill="url(#paint5_linear_1370_5040)"/>
<path d="M296.722 203.54L352.326 155.475C358.377 150.241 367.401 150.241 373.451 155.475L429.055 203.54H296.722Z" fill="url(#paint6_linear_1370_5040)"/>
<path d="M425.082 283.099C423.206 284.625 420.801 285.559 418.175 285.559H307.583C304.544 285.559 301.792 284.32 299.811 282.317L362.735 244.464L362.879 244.55L425.082 283.099Z" fill="url(#paint7_linear_1370_5040)"/>
<path d="M349.046 232.717H348.863C348.016 232.717 347.324 232.031 347.324 231.192V208.947C347.324 208.108 348.016 207.421 348.863 207.421H349.046C349.892 207.421 350.585 208.108 350.585 208.947V231.192C350.585 232.031 349.892 232.717 349.046 232.717Z" fill="url(#paint8_linear_1370_5040)"/>
<path d="M361.321 207.412H361.138C360.292 207.412 359.599 206.725 359.599 205.886V189.019C359.599 188.18 360.292 187.493 361.138 187.493H361.321C362.167 187.493 362.86 188.18 362.86 189.019V205.886C362.87 206.725 362.177 207.412 361.321 207.412Z" fill="url(#paint9_linear_1370_5040)"/>
<path d="M376.905 224.508H376.722C375.876 224.508 375.183 223.821 375.183 222.982V206.115C375.183 205.276 375.876 204.589 376.722 204.589H376.905C377.752 204.589 378.444 205.276 378.444 206.115V222.982C378.444 223.821 377.752 224.508 376.905 224.508Z" fill="url(#paint10_linear_1370_5040)"/>
<path d="M353.317 188.494H353.134C352.288 188.494 351.595 187.808 351.595 186.969V175.336C351.595 174.497 352.288 173.811 353.134 173.811H353.317C354.164 173.811 354.856 174.497 354.856 175.336V186.969C354.856 187.808 354.164 188.494 353.317 188.494Z" fill="url(#paint11_linear_1370_5040)"/>
<path d="M370.239 176.891H370.056C369.209 176.891 368.517 176.204 368.517 175.365V169.31C368.517 168.471 369.209 167.785 370.056 167.785H370.239C371.085 167.785 371.778 168.471 371.778 169.31V175.365C371.787 176.204 371.095 176.891 370.239 176.891Z" fill="url(#paint12_linear_1370_5040)"/>
<path d="M376.905 200.041H376.722C375.876 200.041 375.183 199.355 375.183 198.516V192.461C375.183 191.622 375.876 190.935 376.722 190.935H376.905C377.752 190.935 378.444 191.622 378.444 192.461V198.516C378.444 199.364 377.752 200.041 376.905 200.041Z" fill="url(#paint13_linear_1370_5040)"/>
<path d="M551.498 129.655L544.88 173.191C544.553 175.375 542.494 176.995 540.291 176.824L463.244 170.826C461.042 170.655 459.541 168.748 459.897 166.574L466.89 123.066C467.237 120.911 469.295 119.3 471.479 119.472L548.122 125.441C550.315 125.603 551.825 127.5 551.498 129.655Z" fill="url(#paint14_linear_1370_5040)"/>
<path opacity="0.42" d="M550.758 134.546L549.661 141.726L464.947 135.128L466.102 127.958L550.758 134.546Z" fill="#FFE98F"/>
<path opacity="0.42" d="M489.267 168.357L467.689 166.679C467.006 166.622 466.535 166.03 466.64 165.353L467.246 161.578C467.352 160.901 467.997 160.386 468.689 160.443L490.257 162.121C490.94 162.178 491.412 162.769 491.306 163.446L490.71 167.222C490.594 167.909 489.95 168.414 489.267 168.357Z" fill="#F98253"/>
<path opacity="0.42" d="M530.998 168.452C530.729 170.178 529.103 171.465 527.362 171.332C525.62 171.198 524.428 169.692 524.687 167.966C524.957 166.24 526.582 164.953 528.324 165.096C530.065 165.22 531.258 166.726 530.998 168.452Z" fill="#FFE98F"/>
<path opacity="0.42" d="M540.33 169.177C540.07 170.903 538.444 172.19 536.703 172.056C534.962 171.923 533.759 170.416 534.028 168.691C534.288 166.965 535.914 165.678 537.655 165.821C539.396 165.945 540.589 167.451 540.33 169.177Z" fill="#FFE98F"/>
<path d="M449.382 214.057C449.382 214.057 443.129 228.474 437.53 244.464C437.53 244.464 425.842 263.391 423.206 276.282H435.548C435.548 276.282 459.445 235.74 469.161 228.884L449.382 214.057Z" fill="url(#paint15_linear_1370_5040)"/>
<path d="M424.197 276.282C424.197 276.282 422.302 281.097 423.043 285.34H444.11C444.11 285.34 444.591 281.583 439.156 279.953C433.721 278.322 434.317 276.282 434.317 276.282H424.197Z" fill="url(#paint16_linear_1370_5040)"/>
<path d="M468.064 267.834C468.064 267.834 465.005 272.02 464.639 276.31L485.024 281.593C485.024 281.593 486.448 278.084 481.609 275.138C476.77 272.201 477.857 270.37 477.857 270.37L468.064 267.834Z" fill="url(#paint17_linear_1370_5040)"/>
<path d="M468.43 214.057C468.43 214.057 496.963 214.277 501.686 225.261C506.409 236.245 479.3 271.057 479.3 271.057L466.294 269.007L483.802 232.555C483.802 232.555 464.63 236.579 456.655 229.513C448.68 222.439 450.084 215.917 450.084 215.917L468.43 214.057Z" fill="url(#paint18_linear_1370_5040)"/>
<path d="M505.736 188.933C500.695 191.221 486.919 187.188 486.919 187.188C486.919 187.188 484.678 194.301 479.714 203.998C478.723 205.934 478.367 207.936 478.319 209.69C478.223 212.646 479.002 214.868 479.002 214.868C469.825 213.867 460.08 214.877 449.882 217.461L452.172 186.235L452.518 181.525C452.518 181.525 458.56 173.038 470.296 172.39C482.032 171.742 499.887 178.616 499.887 178.616L499.483 173.639L509.363 174.459C509.363 174.469 510.786 186.654 505.736 188.933Z" fill="url(#paint19_linear_1370_5040)"/>
<path opacity="0.33" d="M479.002 214.877C469.825 213.876 460.08 214.887 449.882 217.471L452.172 186.244L469.17 183.689C469.17 183.689 462.292 194.511 470.383 203.455C473.971 207.431 476.443 208.594 478.329 209.7C478.223 212.646 479.002 214.877 479.002 214.877Z" fill="#1784CE"/>
<path d="M475.827 171.151C475.827 171.151 471.123 164.934 472.605 157.43C473.105 154.884 476.058 154.016 476.058 154.016C476.058 154.016 475.856 151.29 478.223 149.354C479.877 148.01 483.745 148.267 485.303 149.468C486.862 150.679 490.998 151.776 492.076 151.947C493.153 152.11 494.904 152.586 494.981 154.999C495.058 157.602 493.701 160.109 489.93 159.661C486.159 159.213 480.878 171.875 475.827 171.151Z" fill="url(#paint20_linear_1370_5040)"/>
<path d="M484.572 177.262C484.659 177.949 484.659 179.303 483.658 180.161H483.649C483.119 180.619 482.292 180.933 481.032 180.924C476.53 180.876 473.365 175.346 473.365 175.346C474.173 173.887 475.183 171.112 475.943 168.662C476.693 166.24 477.194 164.114 477.03 163.799L484.995 172.295L484.495 176.843C484.495 176.843 484.524 177.005 484.572 177.262Z" fill="url(#paint21_linear_1370_5040)"/>
<path opacity="0.25" d="M484.572 177.262C484.659 177.949 484.659 179.303 483.658 180.161H483.648C478.021 179.055 476.395 172.943 475.943 168.653C476.693 166.231 477.193 164.104 477.03 163.79L484.995 172.285L484.495 176.833C484.495 176.843 484.524 177.005 484.572 177.262Z" fill="#F49290"/>
<path d="M490.681 159.652C490.681 159.652 490.864 174.087 486.15 174.087C481.436 174.078 477.53 169.635 477.261 168.366C476.992 167.108 476.943 164.076 476.943 164.076C476.943 164.076 474.404 160.91 476.972 159.823C478.656 159.108 479.06 163.342 479.06 163.342C479.06 163.342 481.551 162.712 482.369 159.671C482.812 158.012 483.726 157.401 485.044 157.983C486.352 158.565 488.334 159.756 490.681 159.652Z" fill="url(#paint22_linear_1370_5040)"/>
<path d="M476.703 164.715C476.703 164.715 477.549 163.752 478.098 163.752C478.646 163.752 483.254 170.035 490.373 165.449C490.373 165.449 489.603 172.266 488.324 175.212C486.939 178.397 481.551 182.745 481.686 182.612C481.686 182.612 481.734 178.054 480.08 174.698C478.608 171.713 476.809 168.853 476.703 164.715Z" fill="url(#paint23_linear_1370_5040)"/>
<path d="M448.449 217.414L443.726 198.964L464.947 193.634C467.949 192.881 470.998 194.683 471.768 197.657L475.106 210.72L448.449 217.414Z" fill="url(#paint24_linear_1370_5040)"/>
<path d="M445.015 220.856L440.589 203.56C440.08 201.586 441.292 199.574 443.283 199.069L465.168 193.567C466.554 193.214 467.958 194.053 468.314 195.426L473.018 213.819L445.015 220.856Z" fill="url(#paint25_linear_1370_5040)"/>
<path d="M459.839 211.34L454 195.188C454 195.188 469.007 186.492 470.296 181.648C472.056 175.069 466.178 172.028 457.213 176.843C448.237 181.658 443.466 192.575 444.206 196.256C444.947 199.927 452.605 214.773 452.605 214.773L459.839 211.34Z" fill="url(#paint26_linear_1370_5040)"/>
<path d="M458.684 211.883C458.684 211.883 462.773 212.532 463.215 215.907H464.697C464.697 215.907 464.61 218.405 461.696 219.988C458.771 221.561 457.395 222.057 456.356 220.913C455.317 219.769 453.951 214.124 453.951 214.124L458.684 211.883Z" fill="url(#paint27_linear_1370_5040)"/>
<path d="M155.684 268.721H136.704L110.518 155.275C108.767 147.676 114.01 140.248 121.802 139.276L149.498 245.103L155.684 268.721Z" fill="url(#paint28_linear_1370_5040)"/>
<path d="M337.858 268.721H146.112L143.245 256.65L117.223 147.085C116.396 143.595 118.531 140.229 121.802 139.276C122.389 139.104 123.024 139.009 123.678 139.009H295.991C302.475 139.009 308.103 143.433 309.594 149.688L313.086 164.4L337.858 268.721Z" fill="url(#paint29_linear_1370_5040)"/>
<path d="M153.019 260.082L127.699 153.463C126.997 150.489 129.267 147.647 132.346 147.647H291.864C296.723 147.647 300.946 150.956 302.052 155.647L326.852 260.082H153.019Z" fill="url(#paint30_linear_1370_5040)"/>
<path d="M173.51 268.721H390.748C399.406 268.721 407.324 274.06 411.229 282.527L412.528 285.34H183.274L173.51 268.721Z" fill="url(#paint31_linear_1370_5040)"/>
<path d="M136.704 268.721H222.706C229.402 268.721 235.337 273.011 237.406 279.352L239.359 285.34H148.806C144.111 285.34 140.023 282.146 138.897 277.607L136.704 268.721Z" fill="url(#paint32_linear_1370_5040)"/>
<path opacity="0.4" d="M311.855 159.203L153.231 268.721H136.704L110.518 155.275C108.767 147.676 114.01 140.248 121.802 139.276C122.389 139.104 123.024 139.009 123.678 139.009H295.991C302.475 139.009 308.103 143.433 309.594 149.688L311.855 159.203Z" fill="#AFBAC6"/>
<g opacity="0.36">
<path d="M316.213 177.549C316.174 177.405 248.219 268.826 248.219 268.826H311.864L323.841 209.633L316.213 177.549Z" fill="url(#paint33_linear_1370_5040)"/>
<path d="M328.449 229.103L321.321 268.721H337.858L328.449 229.103Z" fill="url(#paint34_linear_1370_5040)"/>
</g>
<path d="M233.231 195.436C232.086 195.407 230.96 194.454 230.71 193.31L226.083 171.885C224.496 164.553 229.238 158.917 236.578 159.242C243.851 159.566 251.085 165.649 252.778 172.867L253.49 175.918C253.75 177.015 253.067 177.882 251.97 177.844C250.874 177.806 249.767 176.881 249.508 175.775L248.796 172.714C247.622 167.651 242.552 163.389 237.463 163.179C232.336 162.96 229.046 166.917 230.171 172.028L234.847 193.405C235.087 194.549 234.366 195.465 233.231 195.436Z" fill="url(#paint35_linear_1370_5040)"/>
<path d="M244.813 195.855L252.605 230.467C252.615 230.496 252.624 230.572 252.624 230.677C252.836 234.1 250.046 236.979 246.593 236.979H213.009C210.123 236.979 207.641 234.958 207.083 232.155L199.916 196.313C199.003 191.717 202.562 187.446 207.285 187.465C207.901 187.465 208.372 187.474 208.632 187.484L235.761 188.228C239.849 188.332 243.889 191.746 244.813 195.855Z" fill="url(#paint36_linear_1370_5040)"/>
<path d="M244.813 195.855L252.605 230.467C252.692 230.867 252.721 231.249 252.682 231.621C252.374 231.745 252.009 231.792 251.624 231.792L216.03 231.735C213.923 231.735 211.845 229.971 211.422 227.826L204.419 192.509C204.12 191.021 204.274 189.648 204.794 188.514C205.833 187.808 207.141 187.427 208.623 187.474L235.751 188.218C239.849 188.332 243.889 191.746 244.813 195.855Z" fill="url(#paint37_linear_1370_5040)"/>
<path d="M237.175 219.426L232.105 207.698C233.105 206.649 233.423 204.971 232.586 203.121C231.845 201.481 230.239 200.127 228.526 199.717C225.409 198.983 223.235 201.185 223.841 204.074C224.168 205.619 225.207 206.992 226.545 207.85L226.323 219.283C226.275 221.99 228.844 224.613 231.576 224.632L234.183 224.651C236.886 224.66 238.339 222.114 237.175 219.426Z" fill="url(#paint38_linear_1370_5040)"/>
<path d="M337.607 151.547H233.519C229.652 151.547 225.804 148.439 224.919 144.606L218.55 116.792L211.893 87.7397C211.018 83.9067 213.433 80.8079 217.3 80.8079H321.321C325.178 80.8079 329.026 83.9067 329.911 87.7397L343.014 144.606C343.889 148.439 341.475 151.547 337.607 151.547Z" fill="url(#paint39_linear_1370_5040)"/>
<path d="M248.574 91.1818L254.346 116.316C254.741 118.051 253.644 119.453 251.903 119.453H232.163C230.412 119.453 228.671 118.041 228.276 116.316L222.514 91.1818C222.119 89.4464 223.216 88.0448 224.957 88.0448H244.698C246.429 88.0448 248.17 89.456 248.574 91.1818Z" fill="url(#paint40_linear_1370_5040)"/>
<path d="M318.964 96.5022H259.445C257.954 96.5022 256.463 95.3008 256.126 93.8229C255.789 92.345 256.723 91.1436 258.214 91.1436H317.733C319.224 91.1436 320.715 92.345 321.051 93.8229C321.388 95.3008 320.455 96.5022 318.964 96.5022Z" fill="url(#paint41_linear_1370_5040)"/>
<path d="M302.677 104.273H260.388C259.358 104.273 258.329 103.444 258.098 102.423C257.867 101.403 258.512 100.574 259.541 100.574H301.821C302.85 100.574 303.88 101.403 304.111 102.423C304.351 103.444 303.707 104.273 302.677 104.273Z" fill="url(#paint42_linear_1370_5040)"/>
<path d="M327.247 128.864H233.009C231.98 128.864 230.951 128.034 230.72 127.014C230.489 125.994 231.133 125.164 232.163 125.164H326.4C327.429 125.164 328.459 125.994 328.699 127.014C328.93 128.034 328.286 128.864 327.247 128.864Z" fill="url(#paint43_linear_1370_5040)"/>
<path d="M329.026 136.577H234.779C233.75 136.577 232.721 135.748 232.49 134.727C232.259 133.707 232.903 132.878 233.933 132.878H328.18C329.209 132.878 330.238 133.707 330.479 134.727C330.7 135.748 330.056 136.577 329.026 136.577Z" fill="url(#paint44_linear_1370_5040)"/>
<path d="M280.946 144.92H236.694C235.664 144.92 234.635 144.091 234.404 143.07C234.173 142.05 234.818 141.221 235.847 141.221H280.099C281.128 141.221 282.158 142.05 282.389 143.07C282.619 144.091 281.975 144.92 280.946 144.92Z" fill="url(#paint45_linear_1370_5040)"/>
<path opacity="0.4" d="M245.111 116.792H218.55L211.893 87.7397C211.018 83.9067 213.433 80.8079 217.3 80.8079H243.678C247.17 95.2055 250.643 109.555 250.643 109.555C251.614 113.551 249.132 116.792 245.111 116.792Z" fill="#AFBAC6"/>
<path d="M240.08 111.834H198.781C195.174 111.834 191.557 108.888 190.691 105.265C190.691 105.265 182.601 72.36 179.147 58.1435C178.349 54.8731 180.85 51.7266 184.246 51.7266H226.458C229.844 51.7266 232.788 54.0245 233.577 57.2854C236.896 70.9584 245.179 105.141 245.179 105.141C246.083 108.84 243.793 111.834 240.08 111.834Z" fill="url(#paint46_linear_1370_5040)"/>
<path d="M238.724 109.355C238.926 110.185 239.099 111.014 239.243 111.834H199.59C199.349 111.024 199.128 110.204 198.926 109.384C196.165 97.8276 198.358 87.8541 203.88 83.1344C200.754 80.8365 198.32 77.4993 197.425 73.7616C195.751 66.763 200.051 60.9944 207.045 60.88C214.077 60.7656 221.177 66.3816 222.88 73.447C223.793 77.2228 222.947 80.6172 220.907 82.9818C228.786 87.6157 235.886 97.6464 238.724 109.355Z" fill="url(#paint47_linear_1370_5040)"/>
<path d="M172.557 207.383H102.226C97.7137 207.383 93.2404 204.179 92.24 200.232L66.6219 99.8108C65.6599 96.0445 68.4497 93.0029 72.8461 93.0029H141.389C145.785 93.0029 150.181 96.0541 151.22 99.8108L178.762 200.232C179.849 204.179 177.069 207.383 172.557 207.383Z" fill="url(#paint48_linear_1370_5040)"/>
<path d="M128.344 119.863C130.143 126.575 125.265 132.029 117.454 132.029C109.633 132.029 101.87 126.575 100.119 119.863C98.3678 113.169 103.255 107.763 111.028 107.763C118.801 107.763 126.545 113.169 128.344 119.863Z" fill="url(#paint49_linear_1370_5040)"/>
<path d="M155.126 145.55H89.4886C88.3534 145.55 87.2279 144.749 86.9778 143.776C86.7276 142.794 87.4395 142.003 88.5747 142.003H154.164C155.299 142.003 156.434 142.794 156.703 143.776C156.963 144.758 156.261 145.55 155.126 145.55Z" fill="url(#paint50_linear_1370_5040)"/>
<path d="M157.473 154.15H91.7011C90.5659 154.15 89.4308 153.349 89.1806 152.367C88.9305 151.385 89.6424 150.584 90.7776 150.584H156.492C157.627 150.584 158.772 151.385 159.041 152.367C159.31 153.359 158.608 154.15 157.473 154.15Z" fill="url(#paint51_linear_1370_5040)"/>
<path d="M159.82 162.789H93.9233C92.7785 162.789 91.653 161.988 91.3933 160.996C91.1431 160.004 91.855 159.203 92.9998 159.203H158.839C159.974 159.203 161.119 160.004 161.388 160.996C161.667 161.988 160.965 162.789 159.82 162.789Z" fill="url(#paint52_linear_1370_5040)"/>
<path d="M162.177 171.456H96.1648C95.02 171.456 93.8848 170.655 93.6347 169.654C93.375 168.662 94.0965 167.852 95.2413 167.852H161.206C162.35 167.852 163.495 168.652 163.764 169.654C164.034 170.645 163.322 171.456 162.177 171.456Z" fill="url(#paint53_linear_1370_5040)"/>
<path d="M151.595 180.161H111.364C110.22 180.161 109.084 179.351 108.825 178.359C108.565 177.358 109.286 176.557 110.431 176.557H150.624C151.768 176.557 152.913 177.367 153.182 178.359C153.452 179.351 152.74 180.161 151.595 180.161Z" fill="url(#paint54_linear_1370_5040)"/>
<path d="M154.414 198.201H115.511C112.836 198.201 110.181 196.304 109.575 193.967C108.969 191.631 110.643 189.744 113.308 189.744H152.144C154.808 189.744 157.483 191.631 158.118 193.967C158.743 196.304 157.088 198.201 154.414 198.201Z" fill="url(#paint55_linear_1370_5040)"/>
</g>
<defs>
<linearGradient id="paint0_linear_1370_5040" x1="120.302" y1="219.285" x2="95.1252" y2="159.842" gradientUnits="userSpaceOnUse">
<stop stop-color="#BD70FE"/>
<stop offset="1" stop-color="#EF90FA"/>
</linearGradient>
<linearGradient id="paint1_linear_1370_5040" x1="165.955" y1="278.377" x2="23.307" y2="186.182" gradientUnits="userSpaceOnUse">
<stop stop-color="#545BB8"/>
<stop offset="1" stop-color="#B390FA"/>
</linearGradient>
<linearGradient id="paint2_linear_1370_5040" x1="142.765" y1="264.697" x2="60.3684" y2="246.702" gradientUnits="userSpaceOnUse">
<stop stop-color="#BD70FE"/>
<stop offset="1" stop-color="#EF90FA"/>
</linearGradient>
<linearGradient id="paint3_linear_1370_5040" x1="362.881" y1="273.827" x2="362.881" y2="210.489" gradientUnits="userSpaceOnUse">
<stop stop-color="#545BB8"/>
<stop offset="1" stop-color="#B390FA"/>
</linearGradient>
<linearGradient id="paint4_linear_1370_5040" x1="296.72" y1="244.548" x2="425.08" y2="244.548" gradientUnits="userSpaceOnUse">
<stop stop-color="#E489FB"/>
<stop offset="1" stop-color="#F7C1E0"/>
</linearGradient>
<linearGradient id="paint5_linear_1370_5040" x1="394.226" y1="263.886" x2="425.51" y2="216.156" gradientUnits="userSpaceOnUse">
<stop stop-color="#E489FB"/>
<stop offset="1" stop-color="#F7C1E0"/>
</linearGradient>
<linearGradient id="paint6_linear_1370_5040" x1="362.881" y1="202.825" x2="362.881" y2="157.796" gradientUnits="userSpaceOnUse">
<stop stop-color="#E489FB"/>
<stop offset="1" stop-color="#F7C1E0"/>
</linearGradient>
<linearGradient id="paint7_linear_1370_5040" x1="299.814" y1="265.008" x2="425.08" y2="265.008" gradientUnits="userSpaceOnUse">
<stop stop-color="#E489FB"/>
<stop offset="1" stop-color="#F7C1E0"/>
</linearGradient>
<linearGradient id="paint8_linear_1370_5040" x1="348.951" y1="232.714" x2="348.951" y2="207.412" gradientUnits="userSpaceOnUse">
<stop stop-color="#E4F0F4"/>
<stop offset="0.1867" stop-color="#EAF3F6"/>
<stop offset="0.9946" stop-color="white"/>
</linearGradient>
<linearGradient id="paint9_linear_1370_5040" x1="361.233" y1="207.412" x2="361.233" y2="187.495" gradientUnits="userSpaceOnUse">
<stop stop-color="#E4F0F4"/>
<stop offset="0.1867" stop-color="#EAF3F6"/>
<stop offset="0.9946" stop-color="white"/>
</linearGradient>
<linearGradient id="paint10_linear_1370_5040" x1="376.811" y1="224.508" x2="376.811" y2="204.59" gradientUnits="userSpaceOnUse">
<stop stop-color="#E4F0F4"/>
<stop offset="0.1867" stop-color="#EAF3F6"/>
<stop offset="0.9946" stop-color="white"/>
</linearGradient>
<linearGradient id="paint11_linear_1370_5040" x1="353.222" y1="188.49" x2="353.222" y2="173.801" gradientUnits="userSpaceOnUse">
<stop stop-color="#E4F0F4"/>
<stop offset="0.1867" stop-color="#EAF3F6"/>
<stop offset="0.9946" stop-color="white"/>
</linearGradient>
<linearGradient id="paint12_linear_1370_5040" x1="370.15" y1="176.892" x2="370.15" y2="167.785" gradientUnits="userSpaceOnUse">
<stop stop-color="#E4F0F4"/>
<stop offset="0.1867" stop-color="#EAF3F6"/>
<stop offset="0.9946" stop-color="white"/>
</linearGradient>
<linearGradient id="paint13_linear_1370_5040" x1="376.811" y1="200.046" x2="376.811" y2="190.939" gradientUnits="userSpaceOnUse">
<stop stop-color="#E4F0F4"/>
<stop offset="0.1867" stop-color="#EAF3F6"/>
<stop offset="0.9946" stop-color="white"/>
</linearGradient>
<linearGradient id="paint14_linear_1370_5040" x1="459.842" y1="148.147" x2="551.541" y2="148.147" gradientUnits="userSpaceOnUse">
<stop stop-color="#FBAB51"/>
<stop offset="0.9946" stop-color="#FCCE63"/>
</linearGradient>
<linearGradient id="paint15_linear_1370_5040" x1="453.742" y1="233.646" x2="429.23" y2="288.517" gradientUnits="userSpaceOnUse">
<stop stop-color="#1E3E73"/>
<stop offset="1" stop-color="#3061A7"/>
</linearGradient>
<linearGradient id="paint16_linear_1370_5040" x1="422.87" y1="280.81" x2="444.124" y2="280.81" gradientUnits="userSpaceOnUse">
<stop stop-color="#FB6D7C"/>
<stop offset="0.9946" stop-color="#FC9F95"/>
</linearGradient>
<linearGradient id="paint17_linear_1370_5040" x1="464.641" y1="274.71" x2="485.222" y2="274.71" gradientUnits="userSpaceOnUse">
<stop stop-color="#FB6D7C"/>
<stop offset="0.9946" stop-color="#FC9F95"/>
</linearGradient>
<linearGradient id="paint18_linear_1370_5040" x1="453.049" y1="249.803" x2="496.351" y2="225.874" gradientUnits="userSpaceOnUse">
<stop stop-color="#1E3E73"/>
<stop offset="1" stop-color="#3061A7"/>
</linearGradient>
<linearGradient id="paint19_linear_1370_5040" x1="467.159" y1="207.783" x2="486.585" y2="172.021" gradientUnits="userSpaceOnUse">
<stop stop-color="#545BB8"/>
<stop offset="1" stop-color="#B390FA"/>
</linearGradient>
<linearGradient id="paint20_linear_1370_5040" x1="472.225" y1="160.549" x2="495.329" y2="157.896" gradientUnits="userSpaceOnUse">
<stop stop-color="#1E3E73"/>
<stop offset="1" stop-color="#3061A7"/>
</linearGradient>
<linearGradient id="paint21_linear_1370_5040" x1="480.628" y1="169.237" x2="478.336" y2="179.953" gradientUnits="userSpaceOnUse">
<stop stop-color="#FAABA8"/>
<stop offset="1" stop-color="#FEE3D1"/>
</linearGradient>
<linearGradient id="paint22_linear_1370_5040" x1="481.255" y1="170.403" x2="484.824" y2="158.057" gradientUnits="userSpaceOnUse">
<stop stop-color="#FAABA8"/>
<stop offset="1" stop-color="#FEE3D1"/>
</linearGradient>
<linearGradient id="paint23_linear_1370_5040" x1="478.921" y1="173.863" x2="493.067" y2="161.796" gradientUnits="userSpaceOnUse">
<stop stop-color="#E489FB"/>
<stop offset="1" stop-color="#F7C1E0"/>
</linearGradient>
<linearGradient id="paint24_linear_1370_5040" x1="457.955" y1="201.672" x2="462.547" y2="214.284" gradientUnits="userSpaceOnUse">
<stop stop-color="#BD70FE"/>
<stop offset="1" stop-color="#EF90FA"/>
</linearGradient>
<linearGradient id="paint25_linear_1370_5040" x1="440.476" y1="207.173" x2="473.028" y2="207.173" gradientUnits="userSpaceOnUse">
<stop stop-color="#E489FB"/>
<stop offset="1" stop-color="#F7C1E0"/>
</linearGradient>
<linearGradient id="paint26_linear_1370_5040" x1="442.932" y1="203.575" x2="481.785" y2="179.466" gradientUnits="userSpaceOnUse">
<stop stop-color="#545BB8"/>
<stop offset="1" stop-color="#B390FA"/>
</linearGradient>
<linearGradient id="paint27_linear_1370_5040" x1="453.946" y1="216.713" x2="464.692" y2="216.713" gradientUnits="userSpaceOnUse">
<stop stop-color="#FAABA8"/>
<stop offset="1" stop-color="#FEE3D1"/>
</linearGradient>
<linearGradient id="paint28_linear_1370_5040" x1="145.649" y1="267.789" x2="128.152" y2="188.585" gradientUnits="userSpaceOnUse">
<stop stop-color="#60B0E0"/>
<stop offset="0.00194603" stop-color="#60B0E0"/>
<stop offset="0.1317" stop-color="#7AC1E6"/>
<stop offset="0.2752" stop-color="#8DCDEA"/>
<stop offset="0.4402" stop-color="#9BD6ED"/>
<stop offset="0.6437" stop-color="#A4DBEE"/>
<stop offset="1" stop-color="#A6DDEF"/>
</linearGradient>
<linearGradient id="paint29_linear_1370_5040" x1="230.132" y1="266.724" x2="224.461" y2="138.477" gradientUnits="userSpaceOnUse">
<stop offset="0.00540541" stop-color="#E6EEF2"/>
<stop offset="1" stop-color="#E4F0F4"/>
</linearGradient>
<linearGradient id="paint30_linear_1370_5040" x1="194.347" y1="292.458" x2="253.76" y2="132.985" gradientUnits="userSpaceOnUse">
<stop stop-color="#545BB8"/>
<stop offset="1" stop-color="#B390FA"/>
</linearGradient>
<linearGradient id="paint31_linear_1370_5040" x1="153.785" y1="277.029" x2="392.805" y2="277.029" gradientUnits="userSpaceOnUse">
<stop stop-color="#3063A0"/>
<stop offset="0.4733" stop-color="#4278B5"/>
<stop offset="1" stop-color="#5995D1"/>
</linearGradient>
<linearGradient id="paint32_linear_1370_5040" x1="136.704" y1="277.029" x2="263.73" y2="277.029" gradientUnits="userSpaceOnUse">
<stop stop-color="#1E3E73"/>
<stop offset="1" stop-color="#3061A7"/>
</linearGradient>
<linearGradient id="paint33_linear_1370_5040" x1="310.578" y1="196.952" x2="266.674" y2="302.114" gradientUnits="userSpaceOnUse">
<stop stop-color="#EBB3FF"/>
<stop offset="1" stop-color="#F5E2FF" stop-opacity="0.05"/>
</linearGradient>
<linearGradient id="paint34_linear_1370_5040" x1="348.51" y1="212.788" x2="304.606" y2="317.951" gradientUnits="userSpaceOnUse">
<stop stop-color="#EBB3FF"/>
<stop offset="1" stop-color="#F5E2FF" stop-opacity="0.05"/>
</linearGradient>
<linearGradient id="paint35_linear_1370_5040" x1="239.658" y1="187.452" x2="239.658" y2="167.49" gradientUnits="userSpaceOnUse">
<stop stop-color="#C9D7E5"/>
<stop offset="1" stop-color="#D4E1E8"/>
</linearGradient>
<linearGradient id="paint36_linear_1370_5040" x1="219.265" y1="235.783" x2="230.012" y2="199.64" gradientUnits="userSpaceOnUse">
<stop stop-color="#FB8B51"/>
<stop offset="0.9946" stop-color="#FCCE63"/>
</linearGradient>
<linearGradient id="paint37_linear_1370_5040" x1="222.426" y1="230.859" x2="237.08" y2="181.576" gradientUnits="userSpaceOnUse">
<stop stop-color="#FBB757"/>
<stop offset="0.4746" stop-color="#FBCE6E"/>
<stop offset="1" stop-color="#FCED8B"/>
</linearGradient>
<linearGradient id="paint38_linear_1370_5040" x1="230.566" y1="224.85" x2="230.803" y2="193.146" gradientUnits="userSpaceOnUse">
<stop stop-color="#FB8B51"/>
<stop offset="0.9946" stop-color="#FCCE63"/>
</linearGradient>
<linearGradient id="paint39_linear_1370_5040" x1="267.018" y1="193.571" x2="279.78" y2="97.2397" gradientUnits="userSpaceOnUse">
<stop stop-color="#B7C7E0"/>
<stop offset="0.4059" stop-color="#C8D6E8"/>
<stop offset="1" stop-color="#E8F1F6"/>
</linearGradient>
<linearGradient id="paint40_linear_1370_5040" x1="225.845" y1="103.751" x2="324.245" y2="103.751" gradientUnits="userSpaceOnUse">
<stop stop-color="#7C71D4"/>
<stop offset="1" stop-color="#B390FA"/>
</linearGradient>
<linearGradient id="paint41_linear_1370_5040" x1="256.055" y1="93.8212" x2="321.12" y2="93.8212" gradientUnits="userSpaceOnUse">
<stop stop-color="#7C71D4"/>
<stop offset="1" stop-color="#B390FA"/>
</linearGradient>
<linearGradient id="paint42_linear_1370_5040" x1="258.051" y1="102.422" x2="304.168" y2="102.422" gradientUnits="userSpaceOnUse">
<stop stop-color="#7C71D4"/>
<stop offset="1" stop-color="#B390FA"/>
</linearGradient>
<linearGradient id="paint43_linear_1370_5040" x1="230.667" y1="127.009" x2="328.74" y2="127.009" gradientUnits="userSpaceOnUse">
<stop stop-color="#7C71D4"/>
<stop offset="1" stop-color="#B390FA"/>
</linearGradient>
<linearGradient id="paint44_linear_1370_5040" x1="232.436" y1="134.725" x2="330.516" y2="134.725" gradientUnits="userSpaceOnUse">
<stop stop-color="#7C71D4"/>
<stop offset="1" stop-color="#B390FA"/>
</linearGradient>
<linearGradient id="paint45_linear_1370_5040" x1="234.348" y1="143.069" x2="282.435" y2="143.069" gradientUnits="userSpaceOnUse">
<stop stop-color="#7C71D4"/>
<stop offset="1" stop-color="#B390FA"/>
</linearGradient>
<linearGradient id="paint46_linear_1370_5040" x1="218.004" y1="110.805" x2="206.656" y2="53.0805" gradientUnits="userSpaceOnUse">
<stop stop-color="#DFEBF2"/>
<stop offset="0.5822" stop-color="#F0F6F9"/>
<stop offset="1" stop-color="white"/>
</linearGradient>
<linearGradient id="paint47_linear_1370_5040" x1="200.241" y1="125.55" x2="225.658" y2="74.2609" gradientUnits="userSpaceOnUse">
<stop stop-color="#BD70FE"/>
<stop offset="1" stop-color="#EF90FA"/>
</linearGradient>
<linearGradient id="paint48_linear_1370_5040" x1="138.405" y1="213.635" x2="110.498" y2="98.6253" gradientUnits="userSpaceOnUse">
<stop stop-color="#DFEBF2"/>
<stop offset="0.5822" stop-color="#F0F6F9"/>
<stop offset="1" stop-color="white"/>
</linearGradient>
<linearGradient id="paint49_linear_1370_5040" x1="99.7542" y1="119.897" x2="128.714" y2="119.897" gradientUnits="userSpaceOnUse">
<stop stop-color="#7C71D4"/>
<stop offset="1" stop-color="#B390FA"/>
</linearGradient>
<linearGradient id="paint50_linear_1370_5040" x1="86.9221" y1="143.776" x2="156.755" y2="143.776" gradientUnits="userSpaceOnUse">
<stop stop-color="#BD70FE"/>
<stop offset="1" stop-color="#EF90FA"/>
</linearGradient>
<linearGradient id="paint51_linear_1370_5040" x1="89.132" y1="152.37" x2="159.1" y2="152.37" gradientUnits="userSpaceOnUse">
<stop stop-color="#BD70FE"/>
<stop offset="1" stop-color="#EF90FA"/>
</linearGradient>
<linearGradient id="paint52_linear_1370_5040" x1="91.3505" y1="160.997" x2="161.455" y2="160.997" gradientUnits="userSpaceOnUse">
<stop stop-color="#BD70FE"/>
<stop offset="1" stop-color="#EF90FA"/>
</linearGradient>
<linearGradient id="paint53_linear_1370_5040" x1="93.5776" y1="169.657" x2="163.818" y2="169.657" gradientUnits="userSpaceOnUse">
<stop stop-color="#BD70FE"/>
<stop offset="1" stop-color="#EF90FA"/>
</linearGradient>
<linearGradient id="paint54_linear_1370_5040" x1="108.767" y1="178.351" x2="153.235" y2="178.351" gradientUnits="userSpaceOnUse">
<stop stop-color="#BD70FE"/>
<stop offset="1" stop-color="#EF90FA"/>
</linearGradient>
<linearGradient id="paint55_linear_1370_5040" x1="109.45" y1="193.976" x2="158.25" y2="193.976" gradientUnits="userSpaceOnUse">
<stop stop-color="#7C71D4"/>
<stop offset="1" stop-color="#B390FA"/>
</linearGradient>
<clipPath id="clip0_1370_5040">
<rect width="562" height="296" fill="white" transform="translate(13)"/>
</clipPath>
</defs>
</svg>
