<svg width="18" height="18" viewBox="0 0 18 18" fill="none" xmlns="http://www.w3.org/2000/svg">
<path d="M14.9336 9.3534L15.2871 8.99984L14.9336 8.64629L10.7786 4.49129C10.7691 4.48185 10.7619 4.46715 10.7619 4.44734C10.7619 4.42753 10.7691 4.41284 10.7786 4.4034C10.788 4.39395 10.8027 4.38672 10.8225 4.38672C10.8423 4.38672 10.857 4.39395 10.8665 4.4034L15.419 8.9559C15.4284 8.96534 15.4357 8.98003 15.4357 8.99984C15.4357 9.01965 15.4284 9.03435 15.419 9.04379L10.8665 13.5963L11.2032 13.933L10.8665 13.5963C10.858 13.6047 10.8511 13.6086 10.8457 13.6107C10.8399 13.6131 10.8323 13.6148 10.8225 13.6148C10.8128 13.6148 10.8052 13.6131 10.7993 13.6107C10.794 13.6086 10.787 13.6047 10.7786 13.5963C10.7691 13.5868 10.7619 13.5722 10.7619 13.5523C10.7619 13.5325 10.7691 13.5178 10.7786 13.5084L14.9336 9.3534Z" fill="#292D32" stroke="white"/>
<path d="M15.2475 9.0625H2.625C2.61194 9.0625 2.59628 9.0573 2.58199 9.04301C2.5677 9.02872 2.5625 9.01306 2.5625 9C2.5625 8.98694 2.5677 8.97128 2.58199 8.95699C2.59628 8.9427 2.61194 8.9375 2.625 8.9375H15.2475C15.2606 8.9375 15.2762 8.9427 15.2905 8.95699C15.3048 8.97128 15.31 8.98694 15.31 9C15.31 9.01306 15.3048 9.02872 15.2905 9.04301C15.2762 9.0573 15.2606 9.0625 15.2475 9.0625Z" fill="#292D32" stroke="white"/>
</svg>
