<svg width="281" height="34" viewBox="0 0 281 34" fill="none" xmlns="http://www.w3.org/2000/svg">
<g clip-path="url(#clip0_727_13816)">
<path fill-rule="evenodd" clip-rule="evenodd" d="M6.00791 10.6281C6.89538 7.82856 9.38601 5.81641 12.2774 5.81641H21.2094L17.5163 22.1469L17.1442 23.7508C16.2567 26.3462 13.9092 28.1833 11.1609 28.1833H2L5.80752 11.4154L5.95066 10.803C5.96497 10.7739 5.97213 10.7447 5.97928 10.7156C5.98644 10.6864 5.9936 10.6572 6.00791 10.6281ZM10.445 11.4446L10.5882 11.4154L18.4322 11.5029L18.4036 11.6196C18.2604 12.2611 17.9169 12.8152 17.373 13.2818C16.8004 13.7192 16.1992 13.9525 15.5694 13.9525H10.0156L9.58618 15.8188H15.9702L15.9416 15.9355C15.7984 16.577 15.4263 17.1311 14.8823 17.5977C14.3384 18.0643 13.7086 18.2976 13.0788 18.2976H9.01362L8.55557 20.2806C8.41243 20.9221 8.04027 21.4762 7.49634 21.9428C6.95241 22.4094 6.35122 22.6427 5.69278 22.6427H5.57827L7.63948 13.5734C7.75399 13.136 8.09753 12.5819 8.64146 12.1445C9.21401 11.6779 9.8152 11.4446 10.445 11.4446Z" fill="white"/>
<path fill-rule="evenodd" clip-rule="evenodd" d="M23.0982 5.72936C23.8712 2.92985 26.3905 0.859375 29.3964 0.859375H38.3283L32.1733 28.0671C31.4576 30.9833 28.8811 33.1412 25.8179 33.1412H16.886L22.9551 6.37091C22.9837 6.16678 23.041 5.93349 23.0982 5.72936ZM31.8307 11.3866C32.4033 11.3866 32.8613 11.5908 33.2049 11.9407C33.577 12.3198 33.7488 12.7572 33.7202 13.3113C33.7202 13.464 33.6984 13.5946 33.6738 13.7416C33.6702 13.7631 33.6666 13.7848 33.6629 13.807L33.1763 15.8775C33.0331 16.5482 32.6323 17.2773 32.0884 17.7147C31.5445 18.1521 30.9719 18.2396 30.3421 18.2396H24.9314L24.4734 20.2226C24.3302 20.8641 23.9581 21.4182 23.4141 21.8848C22.8702 22.3514 22.269 22.5847 21.6106 22.5847H21.4961V22.5555L24.0153 11.3866H31.8307ZM25.504 15.7609H30.7715L31.2009 13.8945H25.9334L25.504 15.7609Z" fill="white"/>
<path fill-rule="evenodd" clip-rule="evenodd" d="M38.1283 10.3073C39.0731 7.68275 41.4778 5.81641 44.2834 5.81641H53.2153L49.3505 22.8759C48.6062 25.9379 46.001 28.1833 42.9378 28.1833H34.0059L37.8993 11.0072C37.8993 11.0072 38.0711 10.4531 38.1283 10.3073ZM47.7477 11.4154C48.3202 11.4154 48.7783 11.6196 49.1218 11.9695C49.4654 12.3195 49.6371 12.7569 49.6085 13.3401C49.6085 13.4859 49.5799 13.6609 49.5512 13.8359L49.5226 13.9233H45.4574L44.0261 20.2514C43.8829 20.893 43.5108 21.447 42.9668 21.9136C42.4229 22.3802 41.8217 22.6135 41.1633 22.6135H41.0487L43.0241 13.9233H41.3064C40.7338 13.9233 40.2758 13.7192 39.9323 13.3693C39.5887 12.9902 39.417 12.5527 39.417 11.9987C39.417 11.8529 39.4456 11.6779 39.4742 11.5029L39.5028 11.4154H44.0833H44.3123H47.7477Z" fill="white"/>
<path d="M54.2151 17.0007C54.2151 15.25 55.6473 13.791 57.366 13.791C59.0847 13.791 60.517 15.25 60.517 17.0007C60.517 18.7515 59.0847 20.2104 57.366 20.2104C55.6473 20.2104 54.2151 18.7515 54.2151 17.0007ZM59.7531 17.0007C59.7531 15.4931 58.7028 14.4232 57.366 14.4232C56.0293 14.4232 54.979 15.4931 54.979 17.0007C54.979 18.5083 56.0293 19.5782 57.366 19.5782C58.7028 19.5782 59.7531 18.5083 59.7531 17.0007ZM56.1725 15.1527H57.5093C58.3686 15.1527 58.846 15.4445 58.846 16.2226C58.846 16.8548 58.5118 17.1466 57.8912 17.1952L58.846 18.8001H58.1776L57.2706 17.2439H56.8886V18.8001H56.2202V15.1527H56.1725ZM56.8409 16.7089H57.4138C57.7957 16.7089 58.1299 16.6603 58.1299 16.174C58.1299 15.7363 57.748 15.6877 57.4138 15.6877H56.8409V16.7089Z" fill="white"/>
<path d="M66.352 12.7025V23.8057H64.401V12.7025H61.517V11.0176H69.236V12.7025H66.352Z" fill="white"/>
<path d="M77.9734 19.0099L71.7812 19.8739C71.9932 21.6021 72.9263 22.4661 74.6228 22.4661C75.6407 22.4661 76.4889 22.2933 77.21 21.9045L77.7613 23.3302C76.9131 23.7622 75.8528 24.0214 74.4956 24.0214C73.0535 24.0214 71.9084 23.5894 71.1026 22.6821C70.2968 21.8181 69.915 20.6084 69.915 19.0531C69.915 17.5842 70.2967 16.4177 71.0602 15.5104C71.8236 14.6032 72.8415 14.1279 74.1563 14.1279C75.3438 14.1279 76.3193 14.5168 76.9979 15.2512C77.6765 15.9857 78.0158 17.0225 78.0158 18.3186C77.9734 18.5778 77.9734 18.8371 77.9734 19.0099ZM76.1921 17.973C76.1921 16.3313 75.4711 15.5104 74.1139 15.5104C73.3929 15.5104 72.7991 15.7696 72.375 16.3313C71.9084 16.8929 71.6964 17.6274 71.6964 18.621L76.1921 17.973Z" fill="white"/>
<path d="M79.3309 23.8055V9.98047H81.2394V23.8055H79.3309Z" fill="white"/>
<path d="M90.655 19.0099L84.4628 19.8739C84.6749 21.6021 85.6079 22.4661 87.3044 22.4661C88.3223 22.4661 89.1706 22.2933 89.8916 21.9045L90.443 23.3302C89.5947 23.7622 88.5344 24.0214 87.1772 24.0214C85.7352 24.0214 84.59 23.5894 83.7842 22.6821C82.9784 21.8181 82.5966 20.6084 82.5966 19.0531C82.5966 17.5842 82.9784 16.4177 83.7418 15.5104C84.5052 14.6032 85.5231 14.1279 86.8379 14.1279C88.0255 14.1279 89.0009 14.5168 89.6795 15.2512C90.3581 15.9857 90.6975 17.0225 90.6975 18.3186C90.655 18.5778 90.655 18.8371 90.655 19.0099ZM88.8313 17.973C88.8313 16.3313 88.1103 15.5104 86.7531 15.5104C86.0321 15.5104 85.4383 15.7696 85.0142 16.3313C84.5476 16.8929 84.3356 17.6274 84.3356 18.621L88.8313 17.973Z" fill="white"/>
<path d="M98.1187 23.3302C97.4825 23.7622 96.6767 23.9782 95.7436 23.9782C94.5985 23.9782 93.6654 23.5894 92.902 22.8117C92.0537 21.9045 91.6296 20.6516 91.6296 19.0531C91.6296 17.4546 92.0537 16.2017 92.902 15.2944C93.623 14.5168 94.5985 14.1279 95.7436 14.1279C96.7191 14.1279 97.4825 14.3439 98.1187 14.776L97.4825 16.1585C97.0584 15.8561 96.5495 15.6832 95.9557 15.6832C95.2771 15.6832 94.7257 15.9425 94.3016 16.4609C93.835 17.0657 93.5806 17.8866 93.5806 19.0099C93.5806 20.0899 93.835 20.954 94.344 21.5589C94.7681 22.1205 95.3195 22.3797 95.9981 22.3797C96.5919 22.3797 97.1008 22.2069 97.5249 21.9045L98.1187 23.3302Z" fill="white"/>
<path d="M106.009 22.552C105.288 23.5025 104.27 23.9777 102.955 23.9777C101.683 23.9777 100.665 23.5025 99.9013 22.552C99.1803 21.6448 98.841 20.4783 98.841 19.0094C98.841 17.5405 99.1803 16.374 99.9013 15.4667C100.622 14.5162 101.64 14.041 102.955 14.041C104.227 14.041 105.245 14.5162 106.009 15.4667C106.73 16.374 107.069 17.5405 107.069 19.0094C107.069 20.4783 106.73 21.688 106.009 22.552ZM104.609 16.5468C104.227 15.9419 103.676 15.6395 102.955 15.6395C102.234 15.6395 101.683 15.9419 101.301 16.5468C100.919 17.1516 100.75 17.9725 100.75 19.0094C100.75 20.0462 100.919 20.8671 101.301 21.4719C101.683 22.0768 102.234 22.4224 102.955 22.4224C103.676 22.4224 104.227 22.12 104.609 21.4719C104.991 20.8671 105.16 20.0462 105.16 19.0094C105.16 17.9725 104.991 17.1516 104.609 16.5468Z" fill="white"/>
<path d="M119.156 23.8057V17.3684C119.156 16.8068 118.987 16.4179 118.69 16.1155C118.35 15.8131 117.926 15.6835 117.375 15.6835C116.612 15.6835 116.06 15.8995 115.678 16.3315V23.8489H113.77V17.1956C113.77 16.7203 113.6 16.3315 113.261 16.0723C112.922 15.8131 112.455 15.6835 111.861 15.6835C111.225 15.6835 110.716 15.7699 110.25 15.9859V23.8489H108.384V14.7762C109.444 14.3442 110.547 14.085 111.734 14.085C113.091 14.085 114.067 14.4306 114.703 15.1218C115.466 14.4306 116.527 14.085 117.799 14.085C118.775 14.085 119.58 14.3442 120.174 14.9058C120.768 15.4675 121.022 16.2019 121.022 17.1524V23.7625H119.156V23.8057Z" fill="white"/>
<path d="M172.776 12.6354H181.553V3.90527H172.776C167.929 3.90527 164 7.81401 164 12.6354V30.0945H172.776V12.6354Z" fill="#FAF5F5"/>
<path d="M173.873 21.3646H181.552V13.7266C177.311 13.7266 173.873 17.1469 173.873 21.3646Z" fill="#FAF5F5"/>
<path d="M192.776 8.2627H199.491V11.1592H193.389V13.7258H199.491V16.291H193.389V21.3638H190.328V10.6983C190.328 9.29586 191.367 8.2627 192.776 8.2627Z" fill="#FAF5F5"/>
<path d="M207.47 13.7266H201.367V16.2918H207.47V13.7266Z" fill="#FAF5F5"/>
<path d="M214.173 10.5325C212.837 10.5325 212.262 11.2893 212.262 12.0266C212.262 12.8934 213.152 13.1894 214.877 13.7236C215.267 13.8533 215.62 13.9266 215.971 14.0562C218.124 14.7948 219.534 15.68 219.534 17.8759C219.534 20.2382 217.177 21.6223 214.396 21.6223C211.576 21.6223 208.905 20.0169 208.905 17.157H211.91C211.91 18.1902 213.079 19.0387 214.396 19.0387C215.694 19.0387 216.566 18.5595 216.566 17.8576C216.566 17.0457 215.62 16.8061 214.563 16.4368C213.951 16.2522 213.32 16.0676 212.8 15.8646C210.425 14.9414 209.295 13.7983 209.295 12.0266C209.295 9.64597 211.633 8.00391 214.303 8.00391C217.123 8.00391 218.867 9.81227 219.2 12.0266H216.195C215.934 11.1047 215.138 10.5325 214.173 10.5325Z" fill="#FAF5F5"/>
<path d="M226.397 21.6239C223.467 21.6239 221.017 19.28 221.017 16.2905C221.017 13.301 223.466 10.957 226.397 10.957C228.976 10.957 231.684 13.2826 231.684 16.5668V17.1023H223.8C224.134 18.4498 225.155 19.225 226.397 19.225C227.454 19.225 228.215 18.8007 228.568 18.2651H231.388C230.794 20.2031 228.661 21.6239 226.397 21.6239ZM228.79 15.2756C228.456 14.0762 227.492 13.3743 226.397 13.3743C225.284 13.3743 224.208 14.0015 223.818 15.2756H228.79Z" fill="#FAF5F5"/>
<path d="M238.586 21.6236C235.507 21.6236 233.224 19.243 233.224 16.2168C233.224 13.2456 235.505 10.958 238.586 10.958C241.461 10.958 243.427 13.061 243.817 15.4049H241.053C240.663 14.2421 239.735 13.5232 238.586 13.5232C237.046 13.5232 235.97 14.5931 235.97 16.2181C235.97 17.8785 237.046 19.0413 238.586 19.0413C239.828 19.0413 240.681 18.4874 241.053 17.3992H243.799C243.427 19.8335 241.479 21.6236 238.586 21.6236Z" fill="#FAF5F5"/>
<path d="M250.296 21.6231C247.199 21.6231 245.455 19.9443 245.455 16.9182V11.1592H248.293V16.9169C248.293 18.2826 249.017 19.0395 250.296 19.0395C251.596 19.0395 252.318 18.2826 252.318 16.9169V11.1592H255.157V16.9169C255.157 19.943 253.412 21.6231 250.296 21.6231Z" fill="#FAF5F5"/>
<path d="M259.38 11.1592H264.017V13.7257H259.806V21.3638H257.023V13.5214C257.023 12.1373 258.007 11.1592 259.38 11.1592Z" fill="#FAF5F5"/>
<path d="M270.344 21.6239C267.412 21.6239 264.964 19.28 264.964 16.2905C264.964 13.301 267.412 10.957 270.344 10.957C272.923 10.957 275.63 13.2826 275.63 16.5668V17.1023H267.747C268.081 18.4498 269.101 19.225 270.344 19.225C271.401 19.225 272.162 18.8007 272.515 18.2651H275.334C274.741 20.2031 272.607 21.6239 270.344 21.6239ZM272.737 15.2756C272.403 14.0762 271.439 13.3743 270.344 13.3743C269.23 13.3743 268.155 14.0015 267.765 15.2756H272.737Z" fill="#FAF5F5"/>
<path d="M276.564 21.0247H276.364V19.8135H276.826C276.973 19.8135 277.084 19.841 277.157 19.896C277.233 19.951 277.269 20.04 277.269 20.1618C277.269 20.2705 277.239 20.3504 277.179 20.4014C277.118 20.4525 277.042 20.4826 276.952 20.4918L277.293 21.0247H277.067L276.752 20.5075H276.564V21.0247ZM276.788 20.3373C276.824 20.3373 276.86 20.336 276.896 20.3333C276.93 20.3307 276.96 20.3215 276.985 20.3085C277.01 20.2954 277.031 20.2757 277.047 20.2508C277.063 20.226 277.071 20.1919 277.071 20.1474C277.071 20.1107 277.063 20.0806 277.046 20.0597C277.028 20.0387 277.007 20.0217 276.982 20.0099C276.957 19.9981 276.928 19.9903 276.897 19.9876C276.865 19.985 276.835 19.9837 276.806 19.9837H276.565V20.3373H276.788Z" fill="#FAF5F5"/>
<path d="M276.79 19.4198C277.344 19.4198 277.796 19.8689 277.796 20.4202C277.796 20.9715 277.344 21.4206 276.79 21.4206C276.236 21.4206 275.784 20.9715 275.784 20.4202C275.784 19.8689 276.236 19.4198 276.79 19.4198ZM276.79 19.2168C276.123 19.2168 275.58 19.755 275.58 20.4202C275.58 21.0841 276.121 21.6236 276.79 21.6236C277.458 21.6236 278 21.0854 278 20.4202C278 19.755 277.459 19.2168 276.79 19.2168Z" fill="#FAF5F5"/>
</g>
<defs>
<clipPath id="clip0_727_13816">
<rect width="281" height="34" fill="white"/>
</clipPath>
</defs>
</svg>
