<svg width="61" height="60" viewBox="0 0 61 60" fill="none" xmlns="http://www.w3.org/2000/svg">
<path d="M60.5 30C60.5 13.4312 47.0688 0 30.5 0C13.9317 0 0.5 13.4312 0.5 30C0.5 46.5688 13.9317 60 30.5 60C47.0688 60 60.5 46.5688 60.5 30Z" fill="url(#paint0_linear_1649_3948)"/>
<g filter="url(#filter0_d_1649_3948)">
<path d="M32.397 36.427H27.6021C26.6526 36.427 25.8828 35.635 25.8828 34.6574V12.318C25.8828 11.3405 26.6526 10.5485 27.6021 10.5485H32.397C33.3465 10.5485 34.1169 11.3405 34.1169 12.318V34.6574C34.1169 35.635 33.3471 36.427 32.397 36.427Z" fill="white"/>
</g>
<g filter="url(#filter1_d_1649_3948)">
<path d="M29.9996 50.5425C27.726 50.5425 25.8828 48.6992 25.8828 46.4261V46.4249C25.8828 44.1518 27.726 42.3085 29.9996 42.3085C32.2731 42.3085 34.1169 44.1518 34.1169 46.4249V46.4261C34.1169 48.6992 32.2731 50.5425 29.9996 50.5425Z" fill="white"/>
</g>
<defs>
<filter id="filter0_d_1649_3948" x="24.8828" y="10.5485" width="10.2339" height="27.8785" filterUnits="userSpaceOnUse" color-interpolation-filters="sRGB">
<feFlood flood-opacity="0" result="BackgroundImageFix"/>
<feColorMatrix in="SourceAlpha" type="matrix" values="0 0 0 0 0 0 0 0 0 0 0 0 0 0 0 0 0 0 127 0" result="hardAlpha"/>
<feOffset dy="1"/>
<feGaussianBlur stdDeviation="0.5"/>
<feColorMatrix type="matrix" values="0 0 0 0 0.683333 0 0 0 0 0 0 0 0 0 0.145955 0 0 0 1 0"/>
<feBlend mode="normal" in2="BackgroundImageFix" result="effect1_dropShadow_1649_3948"/>
<feBlend mode="normal" in="SourceGraphic" in2="effect1_dropShadow_1649_3948" result="shape"/>
</filter>
<filter id="filter1_d_1649_3948" x="24.8828" y="42.3085" width="10.2339" height="10.2341" filterUnits="userSpaceOnUse" color-interpolation-filters="sRGB">
<feFlood flood-opacity="0" result="BackgroundImageFix"/>
<feColorMatrix in="SourceAlpha" type="matrix" values="0 0 0 0 0 0 0 0 0 0 0 0 0 0 0 0 0 0 127 0" result="hardAlpha"/>
<feOffset dy="1"/>
<feGaussianBlur stdDeviation="0.5"/>
<feColorMatrix type="matrix" values="0 0 0 0 0.683333 0 0 0 0 0 0 0 0 0 0.145955 0 0 0 1 0"/>
<feBlend mode="normal" in2="BackgroundImageFix" result="effect1_dropShadow_1649_3948"/>
<feBlend mode="normal" in="SourceGraphic" in2="effect1_dropShadow_1649_3948" result="shape"/>
</filter>
<linearGradient id="paint0_linear_1649_3948" x1="30.5" y1="0" x2="30.5" y2="60" gradientUnits="userSpaceOnUse">
<stop stop-color="#FF2F2F"/>
<stop offset="1" stop-color="#E20000"/>
</linearGradient>
</defs>
</svg>
