<svg width="25" height="24" viewBox="0 0 25 24" fill="none" xmlns="http://www.w3.org/2000/svg">
<rect x="0.5" width="24" height="24" rx="12" fill="#E2E2E2"/>
<path fill-rule="evenodd" clip-rule="evenodd" d="M16.566 7.93414C16.8589 8.22703 16.8589 8.70191 16.566 8.9948L9.49491 16.0659C9.20201 16.3588 8.72714 16.3588 8.43425 16.0659C8.14135 15.773 8.14135 15.2981 8.43425 15.0052L15.5053 7.93414C15.7982 7.64125 16.2731 7.64125 16.566 7.93414Z" fill="#9899A5"/>
<path fill-rule="evenodd" clip-rule="evenodd" d="M16.5659 16.0659C16.273 16.3587 15.7981 16.3587 15.5052 16.0659L8.43413 8.99478C8.14124 8.70189 8.14124 8.22702 8.43413 7.93412C8.72703 7.64123 9.2019 7.64123 9.49479 7.93412L16.5659 15.0052C16.8588 15.2981 16.8588 15.773 16.5659 16.0659Z" fill="#9899A5"/>
</svg>
