<svg width="132" height="70" viewBox="0 0 132 70" fill="none" xmlns="http://www.w3.org/2000/svg">
<path d="M20.7093 24.4342H0.768227V24.4546C0.768227 24.4546 0.758545 33.1086 0.758545 33.1354V33.1448C0.758545 33.2565 0.758545 33.3683 0.768227 33.4784C0.777909 33.6515 0.792433 33.823 0.813412 33.9929C0.878892 33.8919 0.951128 33.7952 1.02965 33.7034L1.37016 33.3761L3.01133 31.8027L3.02747 26.626H18.4403V33.0268H18.429C18.4313 34.2966 17.9851 35.5284 17.1655 36.5152L13.7072 39.8997L10.725 42.8326L7.71701 39.8903L9.52924 38.1217C9.93766 37.6691 10.1725 37.0923 10.1937 36.4898C10.2148 35.8873 10.0211 35.2963 9.64543 34.8174L6.39051 37.9911L6.08067 38.2948L4.30556 36.564L7.80092 33.1574C8.18245 32.7016 8.39497 32.1335 8.40405 31.5452C8.41313 30.9569 8.21824 30.3829 7.85095 29.9161L2.77411 34.841C2.37111 35.3042 2.14629 35.8899 2.13834 36.4973C2.13039 37.1047 2.3398 37.6958 2.73054 38.1689L10.6992 45.9843L10.7153 46C10.7153 46 18.5759 38.3121 18.6372 38.2444C19.7991 36.9968 20.5114 35.4134 20.6657 33.7349C20.6834 33.5272 20.6947 33.3179 20.6963 33.1055L20.7093 24.4342Z" fill="url(#paint0_linear_1164_8295)"/>
<path d="M37.3227 34.5978H30.5551V41.1964C30.5551 41.5297 30.4953 41.7547 30.3757 41.8713C30.2561 41.9879 30.0253 42.0463 29.6836 42.0463H29.4272C29.0854 42.0463 28.8547 41.9879 28.7351 41.8713C28.6154 41.7547 28.5556 41.5297 28.5556 41.1964V28.4991C28.5556 27.5659 28.7692 26.8827 29.1965 26.4495C29.6408 26.0162 30.3501 25.7996 31.3242 25.7996H38.3481C38.6728 25.7996 38.8864 25.8496 38.989 25.9496C39.0915 26.0496 39.1428 26.2579 39.1428 26.5745V26.8494C39.1428 27.166 39.0915 27.3743 38.989 27.4743C38.8864 27.5743 38.6728 27.6242 38.3481 27.6242H31.76C31.3327 27.6242 31.0251 27.7159 30.8371 27.8992C30.6491 28.0825 30.5551 28.3824 30.5551 28.799V32.7732H37.3227C37.6474 32.7732 37.861 32.8232 37.9636 32.9232C38.0661 33.0231 38.1174 33.2314 38.1174 33.548V33.823C38.1174 34.1396 38.0661 34.3479 37.9636 34.4478C37.861 34.5478 37.6474 34.5978 37.3227 34.5978Z" fill="url(#paint1_linear_1164_8295)"/>
<path d="M49.049 34.0479V34.2479C49.049 34.5145 48.9977 34.6978 48.8952 34.7978C48.7926 34.8977 48.6047 34.9477 48.3312 34.9477H41.3842C41.0937 34.9477 40.8971 34.8977 40.7946 34.7978C40.7092 34.6978 40.6664 34.5145 40.6664 34.2479V34.0479C40.6664 33.7813 40.7092 33.598 40.7946 33.498C40.8971 33.3981 41.0937 33.3481 41.3842 33.3481H48.3312C48.6047 33.3481 48.7926 33.3981 48.8952 33.498C48.9977 33.598 49.049 33.7813 49.049 34.0479Z" fill="url(#paint2_linear_1164_8295)"/>
<path d="M49.8683 40.7715V40.4216C49.8683 39.8384 50.1246 39.6301 50.6373 39.7967C51.8849 40.23 53.3034 40.4466 54.8927 40.4466C56.2428 40.4466 57.2169 40.2883 57.8151 39.9717C58.4132 39.6384 58.7123 39.0885 58.7123 38.322C58.7123 37.7388 58.5499 37.2639 58.2252 36.8973C57.9176 36.5307 57.2938 36.0725 56.3539 35.5226L52.5599 33.2481C50.8681 32.2483 50.0221 30.9236 50.0221 29.2739C50.0221 27.9908 50.4579 27.0577 51.3295 26.4745C52.2011 25.8746 53.5512 25.5747 55.3798 25.5747C56.8837 25.5747 58.1654 25.7746 59.225 26.1745C59.5497 26.2912 59.7548 26.4078 59.8402 26.5245C59.9427 26.6245 59.994 26.8161 59.994 27.0994V27.4243C59.994 28.0075 59.7377 28.2075 59.225 28.0242C58.1312 27.6242 56.8495 27.4243 55.3798 27.4243C54.2006 27.4243 53.3546 27.5743 52.8419 27.8742C52.3292 28.1741 52.0729 28.6657 52.0729 29.3489C52.0729 29.8488 52.1925 30.257 52.4318 30.5736C52.6881 30.8902 53.1666 31.2735 53.8673 31.7234L57.7382 34.0729C58.8319 34.7394 59.6009 35.381 60.0453 35.9975C60.5067 36.6141 60.7374 37.3806 60.7374 38.297C60.7374 40.9632 58.7721 42.2962 54.8414 42.2962C53.2008 42.2962 51.8165 42.0963 50.6886 41.6963C50.2785 41.5297 50.0477 41.3964 49.9965 41.2964C49.9452 41.1964 49.9025 41.0215 49.8683 40.7715Z" fill="url(#paint3_linear_1164_8295)"/>
<path d="M73.0056 33.3981V38.347C73.0056 39.7301 72.5784 40.7382 71.7239 41.3714C70.8694 41.9879 69.5108 42.2962 67.648 42.2962C66.0928 42.2962 64.8965 41.9879 64.0591 41.3714C63.2388 40.7382 62.8286 39.7967 62.8286 38.547C62.8286 37.2639 63.2474 36.3391 64.0848 35.7726C64.9392 35.1893 66.2637 34.8977 68.0581 34.8977H71.083V33.3981C71.083 32.5982 70.8096 32.0233 70.2627 31.6734C69.7159 31.3068 68.8699 31.1235 67.7249 31.1235C66.6824 31.1235 65.7425 31.2152 64.9051 31.3985C64.5975 31.4651 64.3838 31.4568 64.2642 31.3735C64.1446 31.2735 64.0848 31.0735 64.0848 30.7736V30.5736C64.0848 30.2904 64.136 30.0987 64.2386 29.9988C64.3411 29.8821 64.5462 29.7905 64.8538 29.7238C65.6058 29.5572 66.5286 29.4739 67.6223 29.4739C71.2112 29.4739 73.0056 30.7819 73.0056 33.3981ZM71.083 38.272V36.3724H68.0838C66.9046 36.3724 66.0501 36.5391 65.5203 36.8723C65.0076 37.2056 64.7513 37.7638 64.7513 38.547C64.7513 39.9634 65.7083 40.6715 67.6223 40.6715C68.8699 40.6715 69.7586 40.4966 70.2884 40.1467C70.8181 39.7801 71.083 39.1552 71.083 38.272Z" fill="url(#paint4_linear_1164_8295)"/>
<path d="M74.6308 30.8236V30.6986C74.6308 30.4153 74.6736 30.2237 74.759 30.1237C74.8615 30.0238 75.0495 29.9571 75.323 29.9238L76.7842 29.7238V27.8742C76.7842 25.2914 78.2197 24 81.0908 24C81.6035 24 82.2529 24.0667 83.039 24.2C83.3637 24.2666 83.5774 24.3583 83.6799 24.4749C83.7824 24.5749 83.8337 24.7832 83.8337 25.0998V25.3247C83.8337 25.6413 83.7739 25.8496 83.6543 25.9496C83.5517 26.0329 83.3466 26.0412 83.039 25.9746C82.3554 25.8413 81.7317 25.7746 81.1677 25.7746C79.5271 25.7746 78.7068 26.4328 78.7068 27.7492V29.7238H82.757C83.0817 29.7238 83.2954 29.7738 83.3979 29.8738C83.5005 29.9738 83.5517 30.1821 83.5517 30.4987V30.7236C83.5517 31.0402 83.5005 31.2485 83.3979 31.3485C83.2954 31.4485 83.0817 31.4984 82.757 31.4984H78.7068V41.2464C78.7068 41.5797 78.6469 41.7963 78.5273 41.8963C78.4248 41.9963 78.2112 42.0463 77.8864 42.0463H77.6045C77.2627 42.0463 77.0405 41.9963 76.938 41.8963C76.8354 41.7963 76.7842 41.5797 76.7842 41.2464V31.4984H75.323C75.0324 31.4984 74.8445 31.4568 74.759 31.3735C74.6736 31.2902 74.6308 31.1069 74.6308 30.8236Z" fill="url(#paint5_linear_1164_8295)"/>
<path d="M95.8552 34.4728C95.8552 35.056 95.8296 35.506 95.7783 35.8226C95.7441 36.1392 95.6672 36.3474 95.5476 36.4474C95.4279 36.5474 95.1972 36.5974 94.8554 36.5974H87.1137V37.3472C87.1137 38.4803 87.4214 39.2968 88.0366 39.7967C88.6689 40.28 89.6943 40.5216 91.1128 40.5216C92.292 40.5216 93.4541 40.3633 94.5991 40.0467C94.9067 39.9634 95.1203 39.9717 95.24 40.0717C95.3596 40.1716 95.4194 40.3799 95.4194 40.6965V40.9215C95.4194 41.1881 95.3681 41.3797 95.2656 41.4964C95.1801 41.613 94.9665 41.7213 94.6247 41.8213C93.5822 42.1379 92.4116 42.2962 91.1128 42.2962C89.062 42.2962 87.5581 41.888 86.6011 41.0715C85.6611 40.2383 85.1911 38.9052 85.1911 37.0723V34.7478C85.1911 31.2318 86.9941 29.4739 90.6001 29.4739C92.3091 29.4739 93.6079 29.8988 94.4966 30.7486C95.4023 31.5984 95.8552 32.8398 95.8552 34.4728ZM87.1137 34.1979V35.0227H94.0351V34.1979C94.0351 32.165 92.8816 31.1485 90.5744 31.1485C88.2673 31.1485 87.1137 32.165 87.1137 34.1979Z" fill="url(#paint6_linear_1164_8295)"/>
<path d="M115.498 38.8969V33.9229C115.498 33.6063 115.549 33.3981 115.652 33.2981C115.754 33.1814 115.976 33.1231 116.318 33.1231H116.574C116.916 33.1231 117.138 33.1814 117.241 33.2981C117.343 33.3981 117.395 33.6063 117.395 33.9229V38.722C117.395 39.8217 117.207 40.6216 116.831 41.1215C116.455 41.6213 115.788 41.9546 114.831 42.1212C114.131 42.2379 113.396 42.2962 112.627 42.2962C110.097 42.2962 108.26 41.8046 107.115 40.8215C105.97 39.8217 105.398 38.2137 105.398 35.9975V31.9983C105.398 27.7159 107.756 25.5747 112.473 25.5747C113.772 25.5747 115.036 25.7913 116.267 26.2245C116.677 26.3912 116.916 26.5328 116.985 26.6495C117.019 26.7328 117.053 26.9077 117.087 27.1743V27.4993C117.087 28.1325 116.831 28.3324 116.318 28.0992C115.207 27.6326 113.917 27.3993 112.447 27.3993C110.67 27.3993 109.388 27.7742 108.602 28.5241C107.816 29.2572 107.423 30.457 107.423 32.1233V36.1225C107.423 37.6222 107.824 38.722 108.628 39.4218C109.431 40.1217 110.73 40.4716 112.524 40.4716C113.31 40.4716 113.917 40.4216 114.344 40.3216C114.754 40.255 115.045 40.1133 115.216 39.8967C115.404 39.6801 115.498 39.3468 115.498 38.8969Z" fill="url(#paint7_linear_1164_8295)"/>
<path d="M129.319 37.0473V34.7228C129.319 33.473 129.045 32.5816 128.498 32.0483C127.952 31.5151 127.003 31.2485 125.653 31.2485C124.286 31.2485 123.32 31.5151 122.756 32.0483C122.209 32.5816 121.936 33.473 121.936 34.7228V37.0473C121.936 38.297 122.209 39.1885 122.756 39.7217C123.32 40.255 124.286 40.5216 125.653 40.5216C127.003 40.5216 127.952 40.255 128.498 39.7217C129.045 39.1885 129.319 38.297 129.319 37.0473ZM125.653 42.2962C123.705 42.2962 122.278 41.863 121.372 40.9965C120.466 40.13 120.013 38.8136 120.013 37.0473V34.7228C120.013 31.2235 121.893 29.4739 125.653 29.4739C127.584 29.4739 128.994 29.9071 129.883 30.7736C130.788 31.6401 131.241 32.9565 131.241 34.7228V37.0473C131.241 40.5466 129.379 42.2962 125.653 42.2962Z" fill="url(#paint8_linear_1164_8295)"/>
<defs>
<linearGradient id="paint0_linear_1164_8295" x1="53.4535" y1="16.7714" x2="86.981" y2="75.0966" gradientUnits="userSpaceOnUse">
<stop stop-color="#FE5D0C"/>
<stop offset="1" stop-color="#F63609"/>
</linearGradient>
<linearGradient id="paint1_linear_1164_8295" x1="53.4535" y1="16.7714" x2="86.981" y2="75.0966" gradientUnits="userSpaceOnUse">
<stop stop-color="#FE5D0C"/>
<stop offset="1" stop-color="#F63609"/>
</linearGradient>
<linearGradient id="paint2_linear_1164_8295" x1="53.4535" y1="16.7714" x2="86.981" y2="75.0966" gradientUnits="userSpaceOnUse">
<stop stop-color="#FE5D0C"/>
<stop offset="1" stop-color="#F63609"/>
</linearGradient>
<linearGradient id="paint3_linear_1164_8295" x1="53.4535" y1="16.7714" x2="86.981" y2="75.0966" gradientUnits="userSpaceOnUse">
<stop stop-color="#FE5D0C"/>
<stop offset="1" stop-color="#F63609"/>
</linearGradient>
<linearGradient id="paint4_linear_1164_8295" x1="53.4535" y1="16.7714" x2="86.981" y2="75.0966" gradientUnits="userSpaceOnUse">
<stop stop-color="#FE5D0C"/>
<stop offset="1" stop-color="#F63609"/>
</linearGradient>
<linearGradient id="paint5_linear_1164_8295" x1="53.4535" y1="16.7714" x2="86.981" y2="75.0966" gradientUnits="userSpaceOnUse">
<stop stop-color="#FE5D0C"/>
<stop offset="1" stop-color="#F63609"/>
</linearGradient>
<linearGradient id="paint6_linear_1164_8295" x1="53.4535" y1="16.7714" x2="86.981" y2="75.0966" gradientUnits="userSpaceOnUse">
<stop stop-color="#FE5D0C"/>
<stop offset="1" stop-color="#F63609"/>
</linearGradient>
<linearGradient id="paint7_linear_1164_8295" x1="53.4535" y1="16.7714" x2="86.981" y2="75.0966" gradientUnits="userSpaceOnUse">
<stop stop-color="#FE5D0C"/>
<stop offset="1" stop-color="#F63609"/>
</linearGradient>
<linearGradient id="paint8_linear_1164_8295" x1="53.4535" y1="16.7714" x2="86.981" y2="75.0966" gradientUnits="userSpaceOnUse">
<stop stop-color="#FE5D0C"/>
<stop offset="1" stop-color="#F63609"/>
</linearGradient>
</defs>
</svg>
