<svg width="352" height="238" viewBox="0 0 352 238" fill="none" xmlns="http://www.w3.org/2000/svg">
<g style="mix-blend-mode:luminosity" opacity="0.2" clip-path="url(#clip0_719_13773)" filter="url(#filter0_f_719_13773)">
<path d="M26.8125 224.865C28.0653 225.479 29.4536 225.663 30.8267 225.394C41.2754 223.37 50.6152 219.177 58.5734 212.927C66.5292 206.694 72.9984 198.491 77.7995 188.56C78.6397 186.819 78.6607 184.815 77.8578 183.066C77.2454 181.731 76.183 180.639 74.8748 179.999C74.4823 179.806 74.025 179.67 73.2661 179.449C71.9293 179.058 69.9115 178.465 67.6172 177.342C63.5065 175.328 60.3115 172.452 58.1202 168.787C57.4894 167.731 56.5739 166.887 55.4745 166.343L55.4494 166.33C54.3475 165.791 53.1196 165.585 51.9013 165.729C47.6473 166.237 43.4236 165.486 39.3482 163.49C37.1344 162.406 35.434 161.191 34.3106 160.389C33.6355 159.908 33.1871 159.588 32.7594 159.379C31.4462 158.735 29.9376 158.568 28.5097 158.898C26.6309 159.333 25.0603 160.578 24.2025 162.317C19.3578 172.082 16.8448 182.066 16.7347 191.996C16.6235 202.184 19.0404 212.279 23.921 222.006C24.548 223.261 25.5496 224.247 26.805 224.868L26.81 224.871L26.8125 224.865Z" fill="url(#paint0_linear_719_13773)"/>
<path d="M26.8125 224.865C28.0653 225.479 29.4536 225.663 30.8267 225.394C41.2754 223.37 50.6152 219.177 58.5734 212.927C66.5292 206.694 72.9984 198.491 77.7995 188.56C78.6397 186.819 78.6607 184.815 77.8578 183.066C77.2454 181.731 76.183 180.639 74.8748 179.999C74.4823 179.806 74.025 179.67 73.2661 179.449C71.9293 179.058 69.9115 178.465 67.6172 177.342C63.5065 175.328 60.3115 172.452 58.1202 168.787C57.4894 167.731 56.5739 166.887 55.4745 166.343L55.4494 166.33C54.3475 165.791 53.1196 165.585 51.9013 165.729C47.6473 166.237 43.4236 165.486 39.3482 163.49C37.1344 162.406 35.434 161.191 34.3106 160.389C33.6355 159.908 33.1871 159.588 32.7594 159.379C31.4462 158.735 29.9376 158.568 28.5097 158.898C26.6309 159.333 25.0603 160.578 24.2025 162.317C19.3578 172.082 16.8448 182.066 16.7347 191.996C16.6235 202.184 19.0404 212.279 23.921 222.006C24.548 223.261 25.5496 224.247 26.805 224.868L26.81 224.871L26.8125 224.865Z" fill="url(#paint1_linear_719_13773)"/>
<path d="M27.8609 222.712C28.8219 223.183 29.8889 223.323 30.9362 223.12C40.8337 221.202 49.6706 217.234 57.1993 211.325C64.7306 205.424 70.8562 197.655 75.4069 188.236C76.0514 186.908 76.0675 185.372 75.4501 184.034C74.9826 183.014 74.17 182.177 73.1687 181.686C72.887 181.548 72.4623 181.422 71.819 181.232C70.5651 180.863 68.4694 180.251 66.155 179.117C61.9537 177.06 58.688 174.111 56.4411 170.356C55.9572 169.548 55.2561 168.903 54.4183 168.487L54.4032 168.479C53.5579 168.065 52.6188 167.907 51.6913 168.017C47.3296 168.542 43.0054 167.767 38.8444 165.729C36.6105 164.635 34.9152 163.422 33.7917 162.621C33.1897 162.194 32.7941 161.906 32.4721 161.749C31.4709 161.258 30.3137 161.124 29.2215 161.38C27.786 161.713 26.5825 162.667 25.9255 163.996C21.3287 173.254 18.9481 182.713 18.8424 192.113C18.7331 201.749 21.0264 211.307 25.6532 220.52C26.1354 221.484 26.8999 222.242 27.8609 222.712Z" fill="white"/>
<path d="M28.1138 222.196C28.9591 222.61 29.9005 222.738 30.8251 222.557C40.6399 220.655 49.3892 216.726 56.8455 210.876C64.3043 205.021 70.3752 197.326 74.8862 187.987C75.4563 186.811 75.4685 185.461 74.9248 184.279C74.5106 183.379 73.7989 182.641 72.9134 182.208C72.6769 182.092 72.2673 181.973 71.6567 181.793C70.3852 181.421 68.2594 180.794 65.9047 179.641C61.6028 177.534 58.2539 174.514 55.9487 170.661C55.5231 169.95 54.9052 169.378 54.163 169.008L54.1479 169.001C53.4032 168.636 52.5746 168.494 51.7524 168.593C47.2803 169.127 42.8482 168.343 38.5866 166.256C36.3124 165.142 34.5919 163.916 33.4558 163.103C32.9017 162.706 32.4936 162.418 32.2169 162.283C31.3313 161.849 30.3147 161.734 29.3503 161.958C28.0827 162.253 27.0215 163.096 26.4438 164.262C21.8867 173.44 19.5282 182.815 19.422 192.127C19.3146 201.67 21.5848 211.135 26.171 220.265C26.5923 221.112 27.2685 221.782 28.1138 222.196Z" fill="url(#paint2_linear_719_13773)"/>
<path d="M44.4736 206.153C45.9981 206.9 47.8184 206.329 48.5274 204.882L51.2642 199.293C54.0629 193.566 54.08 193.48 54.1266 193.296C54.4229 192.054 53.8307 190.729 52.7078 190.041L53.8283 187.753C55.6504 184.033 53.8675 179.407 49.8574 177.443C45.8474 175.479 41.0996 176.906 39.2775 180.627L38.157 182.914C36.8522 182.42 35.4071 182.81 34.6183 183.911C34.5411 184.018 34.459 184.135 28.9954 195.303C28.284 196.756 28.9491 198.544 30.4736 199.29L44.476 206.148L44.4736 206.153ZM42.7808 185.166C43.0907 184.534 43.3237 184.058 43.4922 183.701C43.9507 182.752 43.9929 182.666 44.1623 182.46C44.9418 181.493 46.4278 181.235 47.6907 181.854C48.9586 182.475 49.6687 183.802 49.3748 185.013C49.3111 185.271 49.2814 185.344 48.8078 186.298C48.6343 186.653 48.3963 187.126 48.0839 187.764L42.7808 185.166Z" fill="url(#paint3_linear_719_13773)"/>
<path d="M35.5957 184.615C36.0685 183.955 37.0353 183.701 37.9007 184.125L38.7107 184.522L40.3592 181.156C41.9037 178.002 45.9383 176.872 49.3244 178.53C52.7106 180.188 54.286 184.079 52.7466 187.222L51.0981 190.588L51.9081 190.985C52.7484 191.397 53.1373 192.271 52.956 193.023C52.9021 193.248 47.4557 204.343 47.4532 204.348C47.0541 205.163 45.9851 205.537 45.014 205.062L31.0116 198.204C30.0456 197.731 29.6781 196.659 30.0797 195.839C30.0772 195.832 35.4962 184.755 35.5957 184.615ZM37.9856 197.822L41.0296 199.313C41.2258 199.409 41.4315 199.41 41.6042 199.337C41.7368 199.283 41.8442 199.191 41.9061 199.065C41.926 199.024 41.9432 198.976 41.953 198.931L42.8092 195.196C43.5687 195.097 44.241 194.667 44.5781 193.978C45.1409 192.829 44.5756 191.398 43.3228 190.784C42.07 190.171 40.5925 190.602 40.0297 191.751C39.6901 192.444 39.7625 193.239 40.1476 193.892L37.7216 196.858C37.7066 196.876 37.6892 196.899 37.6793 196.919C37.5898 197.064 37.5707 197.23 37.6168 197.391C37.663 197.564 37.7944 197.729 37.9856 197.822ZM48.6427 189.386C50.2562 186.028 50.3987 185.941 50.5529 185.294C50.9693 183.565 50.03 181.649 48.2287 180.767C46.4224 179.883 44.3379 180.318 43.2272 181.707C42.8113 182.225 42.8223 182.393 41.1661 185.724L48.6427 189.386Z" fill="white"/>
</g>
<g style="mix-blend-mode:luminosity" opacity="0.2" clip-path="url(#clip1_719_13773)" filter="url(#filter1_f_719_13773)">
<path d="M313.81 187.522C312.963 187.107 312.29 186.442 311.864 185.597C308.615 179.177 306.983 172.451 307.023 165.61C307.054 158.777 308.754 151.921 312.068 145.241C312.65 144.071 313.711 143.229 314.978 142.933C315.945 142.706 316.969 142.821 317.853 143.255C318.118 143.384 318.381 143.572 318.813 143.886C319.576 144.438 320.729 145.27 322.281 146.03C325.06 147.391 327.92 147.905 330.786 147.556C331.612 147.456 332.442 147.595 333.188 147.956L333.205 147.965C333.95 148.329 334.569 148.9 334.997 149.61C336.489 152.093 338.641 154.038 341.396 155.387C342.893 156.12 344.247 156.525 345.14 156.793C345.677 156.954 346.034 157.061 346.323 157.202C347.211 157.637 347.926 158.373 348.342 159.273C348.888 160.457 348.874 161.812 348.3 162.991C345.093 169.626 340.802 175.106 335.544 179.281C330.148 183.563 323.754 186.457 316.536 187.881C315.606 188.067 314.664 187.94 313.812 187.527L313.809 187.526L313.81 187.522Z" fill="url(#paint4_linear_719_13773)"/>
<path d="M313.81 187.522C312.963 187.107 312.29 186.442 311.864 185.597C308.615 179.177 306.983 172.451 307.023 165.61C307.054 158.777 308.754 151.921 312.068 145.241C312.65 144.071 313.711 143.229 314.978 142.933C315.945 142.706 316.969 142.821 317.853 143.255C318.118 143.384 318.381 143.572 318.813 143.886C319.576 144.438 320.729 145.27 322.281 146.03C325.06 147.391 327.92 147.905 330.786 147.556C331.612 147.456 332.442 147.595 333.188 147.956L333.205 147.965C333.95 148.329 334.569 148.9 334.997 149.61C336.489 152.093 338.641 154.038 341.396 155.387C342.893 156.12 344.247 156.525 345.14 156.793C345.677 156.954 346.034 157.061 346.323 157.202C347.211 157.637 347.926 158.373 348.342 159.273C348.888 160.457 348.874 161.812 348.3 162.991C345.093 169.626 340.802 175.106 335.544 179.281C330.148 183.563 323.754 186.457 316.536 187.881C315.606 188.067 314.664 187.94 313.812 187.527L313.809 187.526L313.81 187.522Z" fill="url(#paint5_linear_719_13773)"/>
<path d="M314.527 186.07C313.877 185.752 313.36 185.24 313.034 184.597C309.956 178.515 308.413 172.15 308.448 165.68C308.478 159.212 310.089 152.72 313.233 146.385C313.676 145.49 314.49 144.845 315.46 144.62C316.198 144.447 316.983 144.534 317.659 144.866C317.85 144.959 318.093 145.133 318.461 145.398C319.178 145.915 320.374 146.781 321.939 147.547C324.779 148.938 327.708 149.46 330.645 149.104C331.277 149.027 331.912 149.135 332.481 149.409L332.492 149.414C333.063 149.694 333.537 150.13 333.863 150.671C335.39 153.218 337.596 155.207 340.41 156.585C341.92 157.324 343.27 157.727 344.164 157.995C344.642 158.14 344.959 158.232 345.177 158.338C345.854 158.67 346.405 159.232 346.721 159.922C347.138 160.826 347.127 161.865 346.69 162.766C343.65 169.059 339.585 174.251 334.608 178.204C329.507 182.256 323.451 184.993 316.612 186.341C315.898 186.483 315.176 186.388 314.527 186.07Z" fill="white"/>
<path d="M314.698 185.72C314.126 185.44 313.667 184.991 313.381 184.422C310.328 178.391 308.801 172.089 308.835 165.682C308.87 159.272 310.464 152.839 313.582 146.559C313.974 145.767 314.69 145.201 315.547 145.001C316.199 144.85 316.888 144.924 317.487 145.217C317.647 145.296 317.88 145.465 318.229 145.717C318.955 146.242 320.171 147.117 321.763 147.897C324.671 149.321 327.673 149.858 330.686 149.492C331.242 149.425 331.804 149.518 332.309 149.761L332.319 149.766C332.822 150.013 333.242 150.396 333.53 150.877C335.098 153.486 337.354 155.529 340.235 156.94C341.773 157.693 343.14 158.104 344.046 158.373C344.488 158.505 344.81 158.604 344.998 158.695C345.596 158.988 346.079 159.484 346.359 160.092C346.727 160.891 346.717 161.807 346.333 162.599C343.32 168.837 339.29 173.983 334.361 177.899C329.308 181.912 323.312 184.623 316.534 185.958C315.907 186.084 315.269 186 314.698 185.72Z" fill="url(#paint6_linear_719_13773)"/>
<path d="M316.485 170.333C315.454 169.828 315.005 168.619 315.484 167.64L317.334 163.862C319.233 159.994 319.272 159.949 319.351 159.848C319.892 159.175 320.845 158.942 321.678 159.256L322.436 157.71C323.667 155.194 326.877 154.229 329.588 155.557C332.3 156.885 333.505 160.012 332.273 162.528L331.516 164.074C332.321 164.566 332.711 165.5 332.45 166.378C332.425 166.463 332.397 166.555 328.696 174.103C328.215 175.085 326.984 175.471 325.954 174.966L316.487 170.329L316.485 170.333ZM328.396 162.538C328.606 162.11 328.763 161.789 328.884 161.551C329.201 160.913 329.229 160.854 329.269 160.679C329.463 159.861 328.984 158.961 328.13 158.543C327.273 158.123 326.27 158.293 325.745 158.953C325.634 159.093 325.607 159.14 325.293 159.788C325.176 160.028 325.022 160.351 324.811 160.782L328.396 162.538Z" fill="url(#paint7_linear_719_13773)"/>
<path d="M331.668 166.148C331.825 165.623 331.56 165.001 330.975 164.714L330.427 164.446L331.542 162.17C332.586 160.038 331.517 157.415 329.228 156.293C326.939 155.172 324.208 155.943 323.167 158.069L322.052 160.344L321.505 160.076C320.937 159.798 320.308 159.953 319.982 160.361C319.884 160.483 316.215 167.991 316.214 167.994C315.944 168.545 316.187 169.271 316.844 169.593L326.31 174.229C326.964 174.549 327.688 174.301 327.96 173.747C327.965 173.745 331.635 166.259 331.668 166.148ZM323.623 170.346L321.565 169.338C321.433 169.273 321.347 169.164 321.314 169.041C321.288 168.948 321.293 168.853 321.335 168.767C321.348 168.74 321.367 168.711 321.387 168.687L323.027 166.681C322.765 166.235 322.716 165.697 322.944 165.232C323.325 164.455 324.323 164.164 325.17 164.578C326.017 164.993 326.4 165.961 326.019 166.738C325.79 167.207 325.335 167.497 324.827 167.562L324.248 170.088C324.244 170.103 324.24 170.122 324.233 170.136C324.193 170.243 324.112 170.322 324.007 170.364C323.895 170.411 323.753 170.41 323.623 170.346ZM323.712 161.157C324.837 158.904 324.825 158.791 325.106 158.441C325.857 157.502 327.269 157.21 328.487 157.806C329.708 158.404 330.34 159.698 330.059 160.867C329.954 161.304 329.86 161.368 328.767 163.633L323.712 161.157Z" fill="white"/>
</g>
<g style="mix-blend-mode:luminosity" opacity="0.2" clip-path="url(#clip2_719_13773)" filter="url(#filter2_f_719_13773)">
<path d="M291.102 60.5417C290.044 60.0231 289.201 59.1917 288.669 58.1356C284.607 50.1107 282.568 41.7026 282.618 33.1511C282.657 24.6102 284.782 16.0409 288.924 7.69049C289.651 6.22745 290.979 5.17504 292.562 4.80502C293.771 4.52196 295.05 4.66581 296.156 5.20726C296.487 5.36969 296.815 5.6045 297.356 5.99662C298.31 6.68649 299.751 7.72648 301.69 8.67609C305.164 10.3775 308.74 11.0203 312.322 10.5844C313.354 10.4585 314.391 10.6326 315.324 11.0844L315.346 11.0948C316.277 11.5508 317.051 12.2639 317.586 13.1518C319.45 16.2554 322.14 18.6864 325.584 20.3732C327.455 21.2895 329.147 21.7949 330.264 22.1298C330.936 22.3312 331.382 22.4647 331.743 22.6417C332.853 23.1853 333.746 24.1056 334.266 25.2298C334.949 26.7098 334.931 28.4036 334.215 29.8772C330.205 38.1708 324.842 45.0214 318.269 50.2402C311.524 55.5927 303.532 59.2096 294.51 60.9906C293.347 61.2221 292.17 61.0644 291.104 60.548L291.1 60.5459L291.102 60.5417Z" fill="url(#paint8_linear_719_13773)"/>
<path d="M291.102 60.5417C290.044 60.0231 289.201 59.1917 288.669 58.1356C284.607 50.1107 282.568 41.7026 282.618 33.1511C282.657 24.6102 284.782 16.0409 288.924 7.69049C289.651 6.22745 290.979 5.17504 292.562 4.80502C293.771 4.52196 295.05 4.66581 296.156 5.20726C296.487 5.36969 296.815 5.6045 297.356 5.99662C298.31 6.68649 299.751 7.72648 301.69 8.67609C305.164 10.3775 308.74 11.0203 312.322 10.5844C313.354 10.4585 314.391 10.6326 315.324 11.0844L315.346 11.0948C316.277 11.5508 317.051 12.2639 317.586 13.1518C319.45 16.2554 322.14 18.6864 325.584 20.3732C327.455 21.2895 329.147 21.7949 330.264 22.1298C330.936 22.3312 331.382 22.4647 331.743 22.6417C332.853 23.1853 333.746 24.1056 334.266 25.2298C334.949 26.7098 334.931 28.4036 334.215 29.8772C330.205 38.1708 324.842 45.0214 318.269 50.2402C311.524 55.5927 303.532 59.2096 294.51 60.9906C293.347 61.2221 292.17 61.0644 291.104 60.548L291.1 60.5459L291.102 60.5417Z" fill="url(#paint9_linear_719_13773)"/>
<path d="M291.997 58.7264C291.185 58.3286 290.539 57.6887 290.132 56.8845C286.284 49.2829 284.355 41.3268 284.399 33.2391C284.437 25.1537 286.45 17.0387 290.381 9.12031C290.934 8.00166 291.951 7.19511 293.164 6.91414C294.087 6.69794 295.067 6.80668 295.913 7.22109C296.152 7.3377 296.456 7.55574 296.916 7.88703C297.812 8.53282 299.307 9.6148 301.263 10.5727C304.813 12.3116 308.474 12.9642 312.145 12.5188C312.935 12.4231 313.729 12.5573 314.441 12.9008L314.454 12.907C315.168 13.2569 315.76 13.8016 316.167 14.4781C318.077 17.6621 320.834 20.1477 324.351 21.8699C326.239 22.7945 327.927 23.2978 329.044 23.6328C329.641 23.8136 330.038 23.9286 330.31 24.0618C331.156 24.4763 331.845 25.1796 332.24 26.0413C332.762 27.172 332.748 28.47 332.202 29.5971C328.402 37.4629 323.32 43.9531 317.099 48.8937C310.722 53.9593 303.153 57.3802 294.605 59.0646C293.711 59.2422 292.81 59.1241 291.997 58.7264Z" fill="white"/>
<path d="M292.211 58.2893C291.497 57.9394 290.923 57.3775 290.565 56.6664C286.75 49.1282 284.84 41.2507 284.883 33.2417C284.927 25.2285 286.919 17.1882 290.817 9.33829C291.307 8.34798 292.202 7.6406 293.273 7.39092C294.088 7.2014 294.949 7.29438 295.698 7.66089C295.898 7.75877 296.189 7.97056 296.626 8.28507C297.533 8.94139 299.053 10.0359 301.042 11.0105C304.678 12.791 308.43 13.4617 312.196 13.0047C312.891 12.9207 313.594 13.0366 314.225 13.3406L314.238 13.3468C314.867 13.655 315.391 14.1345 315.751 14.735C317.712 17.9971 320.532 20.5501 324.133 22.314C326.055 23.2552 327.764 23.769 328.896 24.1059C329.449 24.2702 329.852 24.3936 330.086 24.5081C330.834 24.8746 331.438 25.4938 331.788 26.2539C332.247 27.2532 332.235 28.398 331.755 29.3882C327.989 37.1857 322.951 43.6179 316.79 48.5132C310.474 53.5293 302.979 56.9174 294.507 58.5862C293.723 58.7434 292.925 58.6392 292.211 58.2893Z" fill="url(#paint10_linear_719_13773)"/>
<path d="M294.446 39.0558C293.157 38.4248 292.595 36.9138 293.194 35.6904L295.507 30.9679C297.881 26.1321 297.929 26.0762 298.028 25.9497C298.704 25.1084 299.896 24.817 300.937 25.2102L301.884 23.2768C303.423 20.1328 307.436 18.9263 310.825 20.586C314.213 22.2457 315.72 26.1552 314.18 29.2993L313.234 31.2327C314.24 31.8476 314.728 33.0147 314.401 34.1118C314.37 34.2185 314.335 34.3338 309.709 43.768C309.108 44.9957 307.569 45.478 306.281 44.847L294.448 39.0515L294.446 39.0558ZM309.334 29.3125C309.596 28.7778 309.793 28.3757 309.944 28.0783C310.34 27.2805 310.376 27.2078 310.425 26.9881C310.667 25.9664 310.069 24.8408 309.002 24.3181C307.931 23.7934 306.677 24.0067 306.02 24.8307C305.881 25.0066 305.848 25.0644 305.456 25.875C305.309 26.1744 305.117 26.5786 304.853 27.1175L309.334 29.3125Z" fill="url(#paint11_linear_719_13773)"/>
<path d="M313.425 33.8236C313.62 33.1662 313.289 32.3889 312.558 32.0307L311.873 31.6954L313.266 28.8509C314.571 26.1859 313.236 22.9065 310.374 21.505C307.513 20.1035 304.099 21.0675 302.798 23.7238L301.405 26.5684L300.72 26.2331C300.01 25.8854 299.225 26.0788 298.816 26.5895C298.694 26.7419 294.108 36.1268 294.106 36.1311C293.769 36.8197 294.073 37.7272 294.894 38.1291L306.727 43.9246C307.544 44.3244 308.449 44.0148 308.789 43.3218C308.795 43.3196 313.383 33.9624 313.425 33.8236ZM303.369 39.0709L300.796 37.811C300.63 37.7298 300.523 37.5926 300.482 37.4399C300.45 37.3232 300.455 37.204 300.508 37.0971C300.525 37.0628 300.548 37.0264 300.573 36.9964L302.623 34.4895C302.296 33.9313 302.234 33.2596 302.519 32.6778C302.995 31.7068 304.243 31.3425 305.302 31.861C306.361 32.3796 306.839 33.5894 306.363 34.5604C306.076 35.1464 305.508 35.5099 304.872 35.5911L304.149 38.7477C304.145 38.7669 304.139 38.7904 304.13 38.8075C304.08 38.9421 303.979 39.041 303.848 39.0935C303.708 39.1524 303.53 39.15 303.369 39.0709ZM303.48 27.5847C304.886 24.7676 304.87 24.6273 305.221 24.1896C306.16 23.0158 307.926 22.6502 309.448 23.3957C310.975 24.1433 311.764 25.7604 311.412 27.2216C311.282 27.7677 311.164 27.8477 309.798 30.6792L303.48 27.5847Z" fill="white"/>
</g>
<g style="mix-blend-mode:luminosity" opacity="0.2" clip-path="url(#clip3_719_13773)" filter="url(#filter3_f_719_13773)">
<path d="M21.7631 123.254C21.2396 122.998 20.8232 122.587 20.5602 122.064C18.552 118.097 17.5435 113.94 17.5681 109.712C17.5875 105.489 18.6382 101.253 20.6862 97.124C21.0457 96.4007 21.7019 95.8804 22.4848 95.6974C23.0825 95.5575 23.7149 95.6286 24.2615 95.8963C24.4254 95.9766 24.5875 96.0927 24.8549 96.2865C25.3264 96.6276 26.039 97.1418 26.9976 97.6113C28.7151 98.4525 30.483 98.7703 32.2541 98.5548C32.7642 98.4925 33.2772 98.5786 33.7387 98.802L33.7492 98.8071C34.2096 99.0326 34.5921 99.3851 34.8567 99.8241C35.7785 101.359 37.1083 102.56 38.8111 103.394C39.736 103.847 40.5729 104.097 41.1251 104.263C41.4569 104.362 41.6774 104.429 41.8561 104.516C42.4048 104.785 42.8466 105.24 43.1035 105.796C43.441 106.527 43.4323 107.365 43.0781 108.093C41.0959 112.194 38.4441 115.581 35.1942 118.161C31.8599 120.807 27.9085 122.595 23.4476 123.476C22.8729 123.59 22.2907 123.512 21.7641 123.257L21.762 123.256L21.7631 123.254Z" fill="url(#paint12_linear_719_13773)"/>
<path d="M21.7631 123.254C21.2396 122.998 20.8232 122.587 20.5602 122.064C18.552 118.097 17.5435 113.94 17.5681 109.712C17.5875 105.489 18.6382 101.253 20.6862 97.124C21.0457 96.4007 21.7019 95.8804 22.4848 95.6974C23.0825 95.5575 23.7149 95.6286 24.2615 95.8963C24.4254 95.9766 24.5875 96.0927 24.8549 96.2865C25.3264 96.6276 26.039 97.1418 26.9976 97.6113C28.7151 98.4525 30.483 98.7703 32.2541 98.5548C32.7642 98.4925 33.2772 98.5786 33.7387 98.802L33.7492 98.8071C34.2096 99.0326 34.5921 99.3851 34.8567 99.8241C35.7785 101.359 37.1083 102.56 38.8111 103.394C39.736 103.847 40.5729 104.097 41.1251 104.263C41.4569 104.362 41.6774 104.429 41.8561 104.516C42.4048 104.785 42.8466 105.24 43.1035 105.796C43.441 106.527 43.4323 107.365 43.0781 108.093C41.0959 112.194 38.4441 115.581 35.1942 118.161C31.8599 120.807 27.9085 122.595 23.4476 123.476C22.8729 123.59 22.2907 123.512 21.7641 123.257L21.762 123.256L21.7631 123.254Z" fill="url(#paint13_linear_719_13773)"/>
<path d="M22.2056 122.357C21.8041 122.16 21.4846 121.844 21.2832 121.446C19.3809 117.688 18.4273 113.754 18.449 109.756C18.4676 105.758 19.463 101.746 21.4064 97.8312C21.6799 97.2781 22.1827 96.8794 22.7825 96.7404C23.2388 96.6335 23.7234 96.6873 24.1417 96.8922C24.2595 96.9498 24.41 97.0576 24.6373 97.2214C25.0804 97.5407 25.8193 98.0757 26.7863 98.5493C28.5417 99.409 30.3516 99.7316 32.1667 99.5114C32.5573 99.4641 32.9497 99.5304 33.3018 99.7003L33.3081 99.7034C33.6613 99.8763 33.9543 100.146 34.1554 100.48C35.0994 102.054 36.4629 103.283 38.2014 104.135C39.1348 104.592 39.9695 104.841 40.5218 105.006C40.8168 105.096 41.0131 105.152 41.1477 105.218C41.566 105.423 41.9066 105.771 42.1019 106.197C42.3599 106.756 42.3532 107.398 42.0829 107.955C40.2043 111.844 37.6918 115.053 34.6162 117.495C31.4634 120 27.7211 121.691 23.4947 122.524C23.0529 122.612 22.6071 122.553 22.2056 122.357Z" fill="white"/>
<path d="M22.3112 122.14C21.9581 121.967 21.6745 121.69 21.4974 121.338C19.6111 117.611 18.6671 113.716 18.688 109.757C18.7099 105.795 19.695 101.82 21.6219 97.9387C21.8643 97.4491 22.3066 97.0994 22.8363 96.9759C23.2392 96.8822 23.665 96.9282 24.035 97.1094C24.1338 97.1578 24.278 97.2625 24.4938 97.418C24.9422 97.7425 25.6937 98.2836 26.6776 98.7654C28.475 99.6457 30.33 99.9774 32.1922 99.7514C32.5357 99.7099 32.883 99.7672 33.1951 99.9175L33.2014 99.9205C33.5126 100.073 33.7718 100.31 33.9496 100.607C34.9191 102.22 36.3131 103.482 38.0937 104.354C39.0439 104.819 39.8891 105.073 40.4487 105.24C40.7217 105.321 40.9212 105.382 41.0368 105.439C41.4068 105.62 41.7052 105.926 41.8783 106.302C42.1054 106.796 42.0993 107.362 41.8621 107.852C40.0001 111.707 37.5095 114.887 34.4631 117.307C31.3406 119.787 27.6348 121.462 23.4461 122.287C23.0588 122.365 22.6644 122.313 22.3112 122.14Z" fill="url(#paint14_linear_719_13773)"/>
<path d="M23.416 112.631C22.779 112.319 22.5011 111.572 22.7974 110.967L23.9409 108.632C25.1144 106.241 25.1384 106.214 25.1873 106.151C25.5213 105.735 26.1105 105.591 26.6252 105.786L27.0934 104.83C27.8547 103.275 29.8384 102.679 31.5139 103.499C33.1894 104.32 33.9343 106.253 33.1731 107.807L32.7049 108.763C33.2024 109.067 33.4437 109.644 33.2823 110.187C33.2669 110.239 33.2494 110.296 30.9624 114.961C30.6651 115.568 29.9045 115.806 29.2676 115.494L23.4171 112.629L23.416 112.631ZM30.7771 107.814C30.9066 107.549 31.0039 107.351 31.0785 107.204C31.2743 106.809 31.2919 106.773 31.3165 106.665C31.4362 106.16 31.1405 105.603 30.6128 105.345C30.0831 105.085 29.4632 105.191 29.1386 105.598C29.0699 105.685 29.0533 105.714 28.8596 106.114C28.7871 106.262 28.6919 106.462 28.5614 106.729L30.7771 107.814Z" fill="url(#paint15_linear_719_13773)"/>
<path d="M32.7994 110.044C32.896 109.719 32.7323 109.335 32.3707 109.158L32.0323 108.992L32.7211 107.586C33.3664 106.268 32.706 104.647 31.2912 103.954C29.8764 103.261 28.1886 103.738 27.5454 105.051L26.8566 106.457L26.5181 106.292C26.1671 106.12 25.7788 106.215 25.5769 106.468C25.5166 106.543 23.2493 111.183 23.2483 111.185C23.0815 111.526 23.2319 111.974 23.6377 112.173L29.4882 115.038C29.8918 115.236 30.3395 115.083 30.5073 114.74C30.5104 114.739 32.7788 110.113 32.7994 110.044ZM27.8276 112.639L26.5557 112.016C26.4737 111.976 26.4209 111.908 26.4006 111.832C26.3845 111.775 26.3873 111.716 26.4132 111.663C26.4215 111.646 26.4329 111.628 26.4454 111.613L27.4591 110.374C27.2971 110.098 27.2668 109.766 27.4077 109.478C27.6428 108.998 28.2602 108.818 28.7836 109.074C29.3071 109.331 29.5432 109.929 29.3081 110.409C29.1662 110.698 28.8853 110.878 28.5711 110.918L28.2134 112.479C28.2114 112.488 28.2083 112.5 28.2041 112.509C28.1794 112.575 28.1293 112.624 28.0645 112.65C27.9955 112.679 27.9075 112.678 27.8276 112.639ZM27.8825 106.96C28.5776 105.567 28.5699 105.498 28.7437 105.281C29.2077 104.701 30.0808 104.52 30.8334 104.889C31.5881 105.258 31.9785 106.058 31.8045 106.78C31.7401 107.05 31.6816 107.09 31.0064 108.49L27.8825 106.96Z" fill="white"/>
</g>
<defs>
<filter id="filter0_f_719_13773" x="-1" y="152.211" width="84.2566" height="86.7705" filterUnits="userSpaceOnUse" color-interpolation-filters="sRGB">
<feFlood flood-opacity="0" result="BackgroundImageFix"/>
<feBlend mode="normal" in="SourceGraphic" in2="BackgroundImageFix" result="shape"/>
<feGaussianBlur stdDeviation="0.5" result="effect1_foregroundBlur_719_13773"/>
</filter>
<filter id="filter1_f_719_13773" x="294.704" y="138.089" width="57.612" height="59.3125" filterUnits="userSpaceOnUse" color-interpolation-filters="sRGB">
<feFlood flood-opacity="0" result="BackgroundImageFix"/>
<feBlend mode="normal" in="SourceGraphic" in2="BackgroundImageFix" result="shape"/>
<feGaussianBlur stdDeviation="0.5" result="effect1_foregroundBlur_719_13773"/>
</filter>
<filter id="filter2_f_719_13773" x="267.469" y="-1" width="71.5146" height="73.6396" filterUnits="userSpaceOnUse" color-interpolation-filters="sRGB">
<feFlood flood-opacity="0" result="BackgroundImageFix"/>
<feBlend mode="normal" in="SourceGraphic" in2="BackgroundImageFix" result="shape"/>
<feGaussianBlur stdDeviation="0.5" result="effect1_foregroundBlur_719_13773"/>
</filter>
<filter id="filter3_f_719_13773" x="9.57312" y="92.3213" width="36.3686" height="37.4189" filterUnits="userSpaceOnUse" color-interpolation-filters="sRGB">
<feFlood flood-opacity="0" result="BackgroundImageFix"/>
<feBlend mode="normal" in="SourceGraphic" in2="BackgroundImageFix" result="shape"/>
<feGaussianBlur stdDeviation="0.5" result="effect1_foregroundBlur_719_13773"/>
</filter>
<linearGradient id="paint0_linear_719_13773" x1="67.926" y1="208.72" x2="14.3295" y2="182.471" gradientUnits="userSpaceOnUse">
<stop stop-color="#613BEB"/>
<stop offset="1" stop-color="#9090F8"/>
</linearGradient>
<linearGradient id="paint1_linear_719_13773" x1="55.6415" y1="217.559" x2="34.6107" y2="156.75" gradientUnits="userSpaceOnUse">
<stop stop-color="#613BEB"/>
<stop offset="1" stop-color="#B8B8FF"/>
</linearGradient>
<linearGradient id="paint2_linear_719_13773" x1="54.553" y1="215.05" x2="35.4517" y2="159.82" gradientUnits="userSpaceOnUse">
<stop stop-color="#8B98FF"/>
<stop offset="0.2256" stop-color="#9AA5FF"/>
<stop offset="1" stop-color="#C9CDFF"/>
</linearGradient>
<linearGradient id="paint3_linear_719_13773" x1="53.4311" y1="194.866" x2="33.8962" y2="185.298" gradientUnits="userSpaceOnUse">
<stop stop-color="#613BEB"/>
<stop offset="1" stop-color="#9090F8"/>
</linearGradient>
<linearGradient id="paint4_linear_719_13773" x1="305.393" y1="158.871" x2="341.628" y2="176.618" gradientUnits="userSpaceOnUse">
<stop stop-color="#613BEB"/>
<stop offset="1" stop-color="#9090F8"/>
</linearGradient>
<linearGradient id="paint5_linear_719_13773" x1="305.764" y1="169.096" x2="346.96" y2="155.124" gradientUnits="userSpaceOnUse">
<stop stop-color="#613BEB"/>
<stop offset="1" stop-color="#B8B8FF"/>
</linearGradient>
<linearGradient id="paint6_linear_719_13773" x1="307.556" y1="168.637" x2="344.972" y2="155.947" gradientUnits="userSpaceOnUse">
<stop stop-color="#8B98FF"/>
<stop offset="0.2256" stop-color="#9AA5FF"/>
<stop offset="1" stop-color="#C9CDFF"/>
</linearGradient>
<linearGradient id="paint7_linear_719_13773" x1="318.801" y1="160.87" x2="332.008" y2="167.338" gradientUnits="userSpaceOnUse">
<stop stop-color="#613BEB"/>
<stop offset="1" stop-color="#9090F8"/>
</linearGradient>
<linearGradient id="paint8_linear_719_13773" x1="280.58" y1="24.7276" x2="325.874" y2="46.9108" gradientUnits="userSpaceOnUse">
<stop stop-color="#613BEB"/>
<stop offset="1" stop-color="#9090F8"/>
</linearGradient>
<linearGradient id="paint9_linear_719_13773" x1="281.044" y1="37.5086" x2="332.539" y2="20.0439" gradientUnits="userSpaceOnUse">
<stop stop-color="#613BEB"/>
<stop offset="1" stop-color="#B8B8FF"/>
</linearGradient>
<linearGradient id="paint10_linear_719_13773" x1="283.284" y1="36.9348" x2="330.054" y2="21.0724" gradientUnits="userSpaceOnUse">
<stop stop-color="#8B98FF"/>
<stop offset="0.2256" stop-color="#9AA5FF"/>
<stop offset="1" stop-color="#C9CDFF"/>
</linearGradient>
<linearGradient id="paint11_linear_719_13773" x1="297.341" y1="27.2272" x2="313.85" y2="35.3125" gradientUnits="userSpaceOnUse">
<stop stop-color="#613BEB"/>
<stop offset="1" stop-color="#9090F8"/>
</linearGradient>
<linearGradient id="paint12_linear_719_13773" x1="16.5608" y1="105.547" x2="38.9546" y2="116.515" gradientUnits="userSpaceOnUse">
<stop stop-color="#613BEB"/>
<stop offset="1" stop-color="#9090F8"/>
</linearGradient>
<linearGradient id="paint13_linear_719_13773" x1="16.79" y1="111.866" x2="42.2495" y2="103.232" gradientUnits="userSpaceOnUse">
<stop stop-color="#613BEB"/>
<stop offset="1" stop-color="#B8B8FF"/>
</linearGradient>
<linearGradient id="paint14_linear_719_13773" x1="17.8975" y1="111.583" x2="41.0212" y2="103.74" gradientUnits="userSpaceOnUse">
<stop stop-color="#8B98FF"/>
<stop offset="0.2256" stop-color="#9AA5FF"/>
<stop offset="1" stop-color="#C9CDFF"/>
</linearGradient>
<linearGradient id="paint15_linear_719_13773" x1="24.8473" y1="106.783" x2="33.0094" y2="110.78" gradientUnits="userSpaceOnUse">
<stop stop-color="#613BEB"/>
<stop offset="1" stop-color="#9090F8"/>
</linearGradient>
<clipPath id="clip0_719_13773">
<rect width="59.6771" height="65.1646" fill="white" transform="matrix(-0.898076 -0.439841 -0.439841 0.898076 82.2566 179.459)"/>
</clipPath>
<clipPath id="clip1_719_13773">
<rect width="40.3465" height="44.0565" fill="white" transform="translate(315.082 139.089) rotate(26.0937)"/>
</clipPath>
<clipPath id="clip2_719_13773">
<rect width="50.4328" height="55.0703" fill="white" transform="translate(292.691) rotate(26.0937)"/>
</clipPath>
<clipPath id="clip3_719_13773">
<rect width="24.9344" height="27.2272" fill="white" transform="translate(22.5487 93.3213) rotate(26.0937)"/>
</clipPath>
</defs>
</svg>
