<svg width="407" height="274" viewBox="0 0 407 274" fill="none" xmlns="http://www.w3.org/2000/svg">
<g opacity="0.2" clip-path="url(#clip0_730_13819)" filter="url(#filter0_f_730_13819)">
<path d="M341.513 206.226C342.383 206.652 343.347 206.78 344.3 206.593C351.553 205.188 358.036 202.279 363.56 197.941C369.083 193.616 373.574 187.924 376.906 181.033C377.49 179.825 377.504 178.434 376.947 177.22C376.522 176.294 375.784 175.536 374.876 175.092C374.604 174.958 374.286 174.864 373.759 174.71C372.831 174.439 371.431 174.028 369.838 173.248C366.985 171.851 364.767 169.855 363.246 167.311C362.808 166.579 362.172 165.993 361.409 165.615L361.392 165.607C360.627 165.232 359.775 165.089 358.929 165.189C355.976 165.542 353.044 165.021 350.215 163.636C348.678 162.884 347.498 162.04 346.718 161.484C346.25 161.15 345.938 160.928 345.641 160.783C344.73 160.336 343.683 160.22 342.691 160.449C341.387 160.751 340.297 161.615 339.702 162.822C336.339 169.598 334.594 176.526 334.518 183.417C334.441 190.487 336.118 197.492 339.506 204.242C339.941 205.113 340.637 205.797 341.508 206.228L341.512 206.23L341.513 206.226Z" fill="url(#paint0_linear_730_13819)"/>
<path d="M341.513 206.226C342.383 206.652 343.347 206.78 344.3 206.593C351.553 205.188 358.036 202.279 363.56 197.941C369.083 193.616 373.574 187.924 376.906 181.033C377.49 179.825 377.504 178.434 376.947 177.22C376.522 176.294 375.784 175.536 374.876 175.092C374.604 174.958 374.286 174.864 373.759 174.71C372.831 174.439 371.431 174.028 369.838 173.248C366.985 171.851 364.767 169.855 363.246 167.311C362.808 166.579 362.172 165.993 361.409 165.615L361.392 165.607C360.627 165.232 359.775 165.089 358.929 165.189C355.976 165.542 353.044 165.021 350.215 163.636C348.678 162.884 347.498 162.04 346.718 161.484C346.25 161.15 345.938 160.928 345.641 160.783C344.73 160.336 343.683 160.22 342.691 160.449C341.387 160.751 340.297 161.615 339.702 162.822C336.339 169.598 334.594 176.526 334.518 183.417C334.441 190.487 336.118 197.492 339.506 204.242C339.941 205.113 340.637 205.797 341.508 206.228L341.512 206.23L341.513 206.226Z" fill="url(#paint1_linear_730_13819)"/>
<path d="M342.241 204.732C342.908 205.058 343.649 205.155 344.376 205.015C351.246 203.684 357.38 200.93 362.606 196.83C367.834 192.735 372.086 187.344 375.245 180.808C375.693 179.886 375.704 178.82 375.275 177.892C374.951 177.184 374.387 176.603 373.692 176.263C373.496 176.167 373.201 176.079 372.755 175.948C371.884 175.691 370.43 175.267 368.823 174.48C365.907 173.052 363.64 171.006 362.08 168.4C361.744 167.839 361.257 167.392 360.676 167.103L360.665 167.098C360.079 166.811 359.427 166.7 358.783 166.777C355.755 167.141 352.754 166.604 349.865 165.189C348.314 164.43 347.138 163.588 346.358 163.032C345.94 162.736 345.665 162.537 345.442 162.427C344.747 162.087 343.944 161.994 343.185 162.172C342.189 162.402 341.353 163.065 340.897 163.987C337.707 170.411 336.054 176.975 335.981 183.498C335.905 190.185 337.497 196.817 340.708 203.211C341.043 203.88 341.574 204.405 342.241 204.732Z" fill="white"/>
<path d="M342.416 204.373C343.003 204.661 343.657 204.75 344.298 204.624C351.111 203.304 357.185 200.577 362.361 196.518C367.538 192.455 371.752 187.115 374.884 180.635C375.279 179.818 375.288 178.882 374.911 178.061C374.623 177.437 374.129 176.925 373.514 176.624C373.35 176.544 373.066 176.461 372.642 176.337C371.759 176.079 370.284 175.644 368.649 174.843C365.663 173.381 363.338 171.285 361.738 168.612C361.443 168.118 361.014 167.721 360.499 167.465L360.488 167.459C359.971 167.206 359.396 167.108 358.825 167.177C355.721 167.547 352.644 167.003 349.686 165.555C348.108 164.782 346.913 163.931 346.125 163.367C345.74 163.091 345.457 162.892 345.265 162.798C344.65 162.497 343.944 162.417 343.275 162.572C342.395 162.777 341.658 163.362 341.257 164.171C338.094 170.54 336.457 177.046 336.383 183.507C336.308 190.13 337.884 196.698 341.068 203.034C341.36 203.621 341.83 204.086 342.416 204.373Z" fill="url(#paint2_linear_730_13819)"/>
<path d="M353.773 193.241C354.831 193.759 356.095 193.363 356.587 192.358L358.486 188.481C360.429 184.506 360.441 184.447 360.473 184.319C360.679 183.457 360.268 182.537 359.489 182.06L360.266 180.472C361.531 177.891 360.293 174.681 357.51 173.318C354.726 171.955 351.431 172.945 350.166 175.527L349.388 177.115C348.482 176.771 347.479 177.042 346.932 177.806C346.878 177.88 346.821 177.961 343.028 185.712C342.535 186.72 342.996 187.96 344.055 188.479L353.774 193.237L353.773 193.241ZM352.598 178.677C352.813 178.238 352.974 177.908 353.091 177.661C353.41 177.002 353.439 176.942 353.557 176.8C354.098 176.128 355.129 175.95 356.006 176.379C356.886 176.81 357.379 177.73 357.175 178.571C357.131 178.75 357.11 178.801 356.781 179.463C356.661 179.709 356.496 180.037 356.279 180.48L352.598 178.677Z" fill="url(#paint3_linear_730_13819)"/>
<path d="M347.61 178.296C347.938 177.838 348.609 177.661 349.21 177.955L349.772 178.231L350.917 175.895C351.989 173.707 354.789 172.922 357.14 174.073C359.49 175.224 360.584 177.924 359.515 180.105L358.371 182.441L358.933 182.716C359.517 183.001 359.787 183.608 359.661 184.13C359.623 184.286 355.843 191.986 355.841 191.989C355.564 192.555 354.822 192.814 354.148 192.484L344.428 187.725C343.757 187.397 343.502 186.654 343.781 186.085C343.779 186.079 347.541 178.392 347.61 178.296ZM349.269 187.461L351.382 188.495C351.518 188.562 351.661 188.562 351.781 188.512C351.873 188.474 351.947 188.41 351.99 188.323C352.004 188.295 352.016 188.261 352.023 188.23L352.617 185.638C353.145 185.569 353.611 185.271 353.845 184.793C354.236 183.996 353.843 183.002 352.974 182.577C352.104 182.151 351.079 182.45 350.688 183.247C350.452 183.728 350.502 184.28 350.77 184.733L349.086 186.792C349.075 186.804 349.063 186.82 349.056 186.834C348.994 186.934 348.981 187.05 349.013 187.161C349.045 187.281 349.136 187.396 349.269 187.461ZM356.667 181.606C357.787 179.276 357.886 179.215 357.993 178.767C358.282 177.567 357.63 176.238 356.379 175.625C355.125 175.012 353.678 175.313 352.907 176.277C352.619 176.637 352.626 176.754 351.477 179.065L356.667 181.606Z" fill="white"/>
</g>
<g opacity="0.2" clip-path="url(#clip1_730_13819)" filter="url(#filter1_f_730_13819)">
<path d="M49.6891 140.722C50.1891 140.966 50.7432 141.04 51.2912 140.933C55.4615 140.125 59.1891 138.452 62.3654 135.958C65.5406 133.471 68.1226 130.198 70.0388 126.236C70.3741 125.542 70.3825 124.742 70.062 124.044C69.8176 123.512 69.3936 123.076 68.8715 122.82C68.7148 122.744 68.5323 122.689 68.2294 122.601C67.6959 122.445 66.8906 122.209 65.9749 121.76C64.3342 120.957 63.059 119.809 62.1845 118.347C61.9327 117.926 61.5673 117.589 61.1286 117.372L61.1185 117.367C60.6787 117.152 60.1887 117.069 59.7024 117.127C58.0046 117.33 56.3189 117.03 54.6923 116.234C53.8087 115.801 53.1301 115.316 52.6817 114.997C52.4123 114.805 52.2333 114.677 52.0626 114.593C51.5385 114.337 50.9364 114.27 50.3665 114.401C49.6166 114.575 48.9898 115.072 48.6474 115.766C46.7138 119.662 45.7109 123.645 45.6669 127.607C45.6225 131.672 46.5872 135.7 48.5351 139.581C48.7853 140.081 49.1851 140.475 49.6861 140.723L49.6881 140.724L49.6891 140.722Z" fill="url(#paint4_linear_730_13819)"/>
<path d="M49.6891 140.722C50.1891 140.966 50.7432 141.04 51.2912 140.933C55.4615 140.125 59.1891 138.452 62.3654 135.958C65.5406 133.471 68.1226 130.198 70.0388 126.236C70.3741 125.542 70.3825 124.742 70.062 124.044C69.8176 123.512 69.3936 123.076 68.8715 122.82C68.7148 122.744 68.5323 122.689 68.2294 122.601C67.6959 122.445 66.8906 122.209 65.9749 121.76C64.3342 120.957 63.059 119.809 62.1845 118.347C61.9327 117.926 61.5673 117.589 61.1286 117.372L61.1185 117.367C60.6787 117.152 60.1887 117.069 59.7024 117.127C58.0046 117.33 56.3189 117.03 54.6923 116.234C53.8087 115.801 53.1301 115.316 52.6817 114.997C52.4123 114.805 52.2333 114.677 52.0626 114.593C51.5385 114.337 50.9364 114.27 50.3665 114.401C49.6166 114.575 48.9898 115.072 48.6474 115.766C46.7138 119.662 45.7109 123.645 45.6669 127.607C45.6225 131.672 46.5872 135.7 48.5351 139.581C48.7853 140.081 49.1851 140.475 49.6861 140.723L49.6881 140.724L49.6891 140.722Z" fill="url(#paint5_linear_730_13819)"/>
<path d="M50.1073 139.862C50.4908 140.05 50.9167 140.106 51.3347 140.025C55.2849 139.26 58.8118 137.676 61.8167 135.319C64.8225 132.965 67.2673 129.865 69.0836 126.107C69.3408 125.577 69.3472 124.964 69.1008 124.43C68.9142 124.023 68.5899 123.689 68.1903 123.494C68.0778 123.439 67.9083 123.388 67.6516 123.312C67.1511 123.165 66.3147 122.921 65.391 122.469C63.7142 121.648 62.4108 120.471 61.514 118.973C61.3209 118.65 61.0411 118.393 60.7067 118.227L60.7007 118.224C60.3633 118.059 59.9885 117.996 59.6183 118.04C57.8775 118.249 56.1517 117.94 54.4909 117.127C53.5993 116.69 52.9227 116.206 52.4743 115.887C52.2341 115.716 52.0762 115.602 51.9477 115.539C51.5481 115.343 51.0862 115.29 50.6503 115.392C50.0774 115.524 49.597 115.905 49.3348 116.435C47.5002 120.129 46.55 123.903 46.5079 127.654C46.4642 131.498 47.3795 135.312 49.2261 138.988C49.4186 139.372 49.7237 139.675 50.1073 139.862Z" fill="white"/>
<path d="M50.2082 139.656C50.5456 139.821 50.9213 139.872 51.2903 139.8C55.2075 139.041 58.6995 137.473 61.6754 135.139C64.6523 132.803 67.0753 129.733 68.8757 126.007C69.1033 125.538 69.1081 124.999 68.8911 124.527C68.7258 124.169 68.4418 123.874 68.0884 123.701C67.994 123.655 67.8305 123.608 67.5868 123.536C67.0793 123.388 66.2309 123.137 65.2911 122.677C63.5741 121.837 62.2375 120.631 61.3175 119.094C61.1476 118.811 60.901 118.582 60.6048 118.435L60.5988 118.432C60.3016 118.286 59.9709 118.23 59.6427 118.269C57.8578 118.482 56.0889 118.169 54.388 117.337C53.4804 116.892 52.7937 116.403 52.3403 116.079C52.1191 115.92 51.9562 115.805 51.8458 115.751C51.4924 115.578 51.0866 115.532 50.7017 115.622C50.1958 115.74 49.7722 116.076 49.5417 116.541C47.7229 120.203 46.7815 123.944 46.7392 127.659C46.6963 131.466 47.6024 135.243 49.4328 138.886C49.6009 139.224 49.8708 139.491 50.2082 139.656Z" fill="url(#paint6_linear_730_13819)"/>
<path d="M56.7376 133.256C57.3461 133.554 58.0726 133.326 58.3556 132.748L59.4479 130.519C60.5649 128.234 60.5717 128.2 60.5903 128.126C60.7085 127.631 60.4722 127.102 60.024 126.827L60.4712 125.914C61.1984 124.43 60.4868 122.584 58.8864 121.801C57.2859 121.017 55.391 121.587 54.6638 123.071L54.2166 123.984C53.6958 123.786 53.119 123.942 52.8042 124.382C52.7734 124.424 52.7407 124.471 50.5601 128.927C50.2761 129.506 50.5416 130.22 51.15 130.518L56.7386 133.254L56.7376 133.256ZM56.062 124.882C56.1857 124.63 56.2787 124.44 56.3459 124.298C56.5289 123.919 56.5458 123.885 56.6134 123.803C56.9245 123.417 57.5176 123.314 58.0216 123.561C58.5277 123.808 58.8111 124.338 58.6938 124.821C58.6683 124.924 58.6565 124.953 58.4675 125.334C58.3982 125.475 58.3032 125.664 58.1785 125.919L56.062 124.882Z" fill="url(#paint7_linear_730_13819)"/>
<path d="M53.1943 124.662C53.383 124.399 53.7689 124.298 54.1143 124.467L54.4376 124.625L55.0955 123.282C55.7119 122.024 57.3222 121.573 58.6737 122.234C60.0251 122.896 60.6539 124.448 60.0395 125.703L59.3816 127.046L59.7049 127.204C60.0402 127.368 60.1954 127.717 60.1231 128.017C60.1016 128.107 57.9278 132.534 57.9268 132.536C57.7675 132.861 57.3409 133.01 56.9533 132.82L51.3648 130.084C50.9792 129.895 50.8326 129.468 50.9928 129.141C50.9918 129.138 53.1546 124.718 53.1943 124.662ZM54.1482 129.932L55.3631 130.527C55.4414 130.565 55.5235 130.565 55.5924 130.536C55.6454 130.515 55.6882 130.478 55.7129 130.428C55.7208 130.411 55.7277 130.392 55.7316 130.374L56.0734 128.884C56.3765 128.844 56.6448 128.673 56.7794 128.398C57.004 127.94 56.7784 127.369 56.2783 127.124C55.7783 126.879 55.1886 127.051 54.964 127.509C54.8285 127.786 54.8574 128.103 55.0111 128.364L54.0428 129.547C54.0369 129.554 54.0299 129.564 54.0259 129.572C53.9902 129.629 53.9826 129.696 54.001 129.76C54.0194 129.829 54.0719 129.895 54.1482 129.932ZM58.4016 126.566C59.0456 125.226 59.1024 125.191 59.164 124.933C59.3302 124.244 58.9553 123.479 58.2364 123.127C57.5155 122.774 56.6835 122.948 56.2402 123.502C56.0742 123.709 56.0786 123.776 55.4176 125.105L58.4016 126.566Z" fill="white"/>
</g>
<g opacity="0.2" clip-path="url(#clip2_730_13819)" filter="url(#filter2_f_730_13819)">
<path d="M54.5103 244.547C55.7957 245.176 57.22 245.365 58.6288 245.089C69.3492 243.013 78.9319 238.712 87.097 232.301C95.2596 225.909 101.897 217.495 106.823 207.31C107.685 205.524 107.707 203.468 106.883 201.674C106.254 200.305 105.164 199.185 103.822 198.528C103.42 198.331 102.95 198.191 102.172 197.965C100.8 197.563 98.7299 196.955 96.3759 195.803C92.1584 193.738 88.8803 190.788 86.632 187.029C85.9849 185.946 85.0455 185.08 83.9176 184.522L83.8917 184.509C82.7612 183.955 81.5014 183.744 80.2514 183.892C75.8869 184.413 71.5533 183.643 67.3719 181.596C65.1005 180.484 63.356 179.237 62.2033 178.415C61.5107 177.922 61.0506 177.594 60.6118 177.379C59.2645 176.719 57.7167 176.547 56.2516 176.885C54.3239 177.332 52.7125 178.609 51.8324 180.393C46.8617 190.408 44.2834 200.648 44.1704 210.834C44.0564 221.283 46.5361 231.637 51.5436 241.614C52.1869 242.901 53.2145 243.912 54.5026 244.549L54.5077 244.552L54.5103 244.547Z" fill="url(#paint8_linear_730_13819)"/>
<path d="M54.5103 244.547C55.7957 245.176 57.22 245.365 58.6288 245.089C69.3492 243.013 78.9319 238.712 87.097 232.301C95.2596 225.909 101.897 217.495 106.823 207.31C107.685 205.524 107.707 203.468 106.883 201.674C106.254 200.305 105.164 199.185 103.822 198.528C103.42 198.331 102.95 198.191 102.172 197.965C100.8 197.563 98.7299 196.955 96.3759 195.803C92.1584 193.738 88.8803 190.788 86.632 187.029C85.9849 185.946 85.0455 185.08 83.9176 184.522L83.8917 184.509C82.7612 183.955 81.5014 183.744 80.2514 183.892C75.8869 184.413 71.5533 183.643 67.3719 181.596C65.1005 180.484 63.356 179.237 62.2033 178.415C61.5107 177.922 61.0506 177.594 60.6118 177.379C59.2645 176.719 57.7167 176.547 56.2516 176.885C54.3239 177.332 52.7125 178.609 51.8324 180.393C46.8617 190.408 44.2834 200.648 44.1704 210.834C44.0564 221.283 46.5361 231.637 51.5436 241.614C52.1869 242.901 53.2145 243.912 54.5026 244.549L54.5077 244.552L54.5103 244.547Z" fill="url(#paint9_linear_730_13819)"/>
<path d="M55.5852 242.337C56.5712 242.82 57.6659 242.963 58.7405 242.756C68.8953 240.789 77.962 236.718 85.6865 230.658C93.4135 224.606 99.6984 216.637 104.367 206.976C105.029 205.613 105.045 204.038 104.412 202.666C103.932 201.62 103.098 200.761 102.071 200.258C101.782 200.117 101.346 199.987 100.686 199.793C99.3997 199.414 97.2496 198.786 94.875 197.623C90.5645 195.513 87.2139 192.488 84.9085 188.637C84.4121 187.808 83.6927 187.147 82.8331 186.72L82.8177 186.712C81.9504 186.288 80.9869 186.125 80.0353 186.238C75.5601 186.776 71.1235 185.982 66.8543 183.891C64.5623 182.769 62.8229 181.525 61.6702 180.703C61.0525 180.266 60.6467 179.97 60.3164 179.809C59.2891 179.306 58.1018 179.169 56.9812 179.431C55.5084 179.772 54.2736 180.751 53.5995 182.114C48.8832 191.61 46.4407 201.312 46.3322 210.952C46.22 220.836 48.573 230.639 53.3201 240.089C53.8149 241.078 54.5993 241.855 55.5852 242.337Z" fill="white"/>
<path d="M55.8447 241.808C56.7119 242.232 57.6778 242.364 58.6265 242.178C68.6964 240.228 77.6733 236.197 85.3234 230.197C92.9762 224.192 99.2049 216.299 103.833 206.721C104.418 205.514 104.431 204.13 103.873 202.917C103.448 201.994 102.718 201.238 101.809 200.793C101.566 200.674 101.146 200.552 100.52 200.368C99.2152 199.986 97.0341 199.343 94.6182 198.161C90.2044 196 86.7684 192.901 84.4033 188.95C83.9666 188.221 83.3326 187.634 82.5712 187.254L82.5557 187.247C81.7917 186.873 80.9415 186.727 80.0979 186.829C75.5095 187.376 70.9622 186.572 66.5898 184.431C64.2565 183.289 62.4913 182.032 61.3256 181.197C60.757 180.79 60.3384 180.495 60.0544 180.356C59.1459 179.911 58.1028 179.793 57.1133 180.023C55.8127 180.326 54.7239 181.19 54.1312 182.387C49.4556 191.8 47.0358 201.416 46.9268 210.967C46.8167 220.755 49.1459 230.463 53.8513 239.828C54.2836 240.696 54.9774 241.383 55.8447 241.808Z" fill="url(#paint10_linear_730_13819)"/>
<path d="M72.6298 225.353C74.194 226.119 76.0616 225.534 76.7891 224.049L79.597 218.318C82.4685 212.443 82.486 212.355 82.5338 212.166C82.8378 210.893 82.2302 209.533 81.0782 208.827L82.2278 206.481C84.0972 202.665 82.2679 197.92 78.1536 195.906C74.0393 193.891 69.1681 195.356 67.2986 199.171L66.149 201.518C64.8103 201.011 63.3276 201.411 62.5183 202.541C62.4391 202.65 62.3549 202.769 56.7492 214.225C56.0192 215.715 56.7017 217.549 58.2659 218.314L72.6323 225.348L72.6298 225.353ZM70.893 203.828C71.2109 203.179 71.45 202.691 71.6229 202.325C72.0934 201.352 72.1366 201.263 72.3104 201.052C73.1102 200.06 74.6349 199.796 75.9306 200.43C77.2315 201.067 77.9601 202.428 77.6585 203.671C77.5931 203.935 77.5626 204.01 77.0768 204.989C76.8987 205.352 76.6545 205.838 76.334 206.492L70.893 203.828Z" fill="url(#paint11_linear_730_13819)"/>
<path d="M63.5211 203.264C64.0062 202.587 64.9981 202.326 65.886 202.761L66.7171 203.168L68.4085 199.715C69.9931 196.481 74.1326 195.321 77.6068 197.022C81.081 198.723 82.6974 202.714 81.1179 205.938L79.4265 209.39L80.2577 209.797C81.1198 210.219 81.5188 211.116 81.3328 211.888C81.2775 212.118 75.6894 223.498 75.6869 223.503C75.2774 224.339 74.1807 224.723 73.1843 224.235L58.8179 217.201C57.8267 216.716 57.4497 215.617 57.8617 214.776C57.8591 214.768 63.419 203.407 63.5211 203.264ZM65.9732 216.81L69.0963 218.339C69.2976 218.438 69.5087 218.438 69.6858 218.364C69.8219 218.308 69.932 218.214 69.9956 218.084C70.016 218.043 70.0337 217.993 70.0437 217.947L70.9222 214.116C71.7014 214.015 72.3912 213.573 72.7371 212.867C73.3145 211.689 72.7345 210.221 71.4491 209.591C70.1637 208.962 68.6478 209.404 68.0704 210.583C67.722 211.294 67.7962 212.109 68.1914 212.779L65.7023 215.821C65.687 215.84 65.6691 215.863 65.6589 215.884C65.5671 216.032 65.5475 216.203 65.5948 216.367C65.6422 216.545 65.777 216.714 65.9732 216.81ZM76.9074 208.157C78.5628 204.713 78.709 204.623 78.8672 203.96C79.2944 202.187 78.3307 200.222 76.4826 199.317C74.6294 198.41 72.4906 198.856 71.351 200.281C70.9243 200.812 70.9356 200.985 69.2363 204.401L76.9074 208.157Z" fill="white"/>
</g>
<g opacity="0.2" clip-path="url(#clip3_730_13819)" filter="url(#filter3_f_730_13819)">
<path d="M318.654 79.2698C319.743 79.803 320.95 79.9631 322.143 79.7294C331.226 77.9701 339.346 74.3263 346.264 68.8947C353.179 63.4784 358.803 56.3496 362.977 47.7199C363.707 46.2069 363.725 44.4652 363.027 42.9454C362.495 41.7849 361.572 40.8365 360.434 40.2797C360.093 40.1127 359.696 39.9944 359.036 39.8023C357.874 39.4624 356.12 38.9472 354.125 37.9707C350.552 36.2211 347.774 33.7214 345.87 30.5364C345.321 29.619 344.525 28.8857 343.57 28.4124L343.548 28.4016C342.59 27.9327 341.523 27.7537 340.464 27.8787C336.766 28.3206 333.094 27.6682 329.551 25.9336C327.627 24.9914 326.149 23.9351 325.172 23.2388C324.585 22.8205 324.195 22.5424 323.824 22.3604C322.682 21.8015 321.371 21.6557 320.129 21.9424C318.496 22.3208 317.131 23.403 316.385 24.914C312.173 33.3996 309.989 42.0759 309.893 50.7059C309.797 59.5592 311.898 68.3322 316.14 76.7848C316.685 77.8752 317.556 78.7323 318.647 79.2721L318.652 79.2742L318.654 79.2698Z" fill="url(#paint12_linear_730_13819)"/>
<path d="M318.654 79.2698C319.743 79.803 320.95 79.9631 322.143 79.7294C331.226 77.9701 339.346 74.3263 346.264 68.8947C353.179 63.4784 358.803 56.3496 362.977 47.7199C363.707 46.2069 363.725 44.4652 363.027 42.9454C362.495 41.7849 361.572 40.8365 360.434 40.2797C360.093 40.1127 359.696 39.9944 359.036 39.8023C357.874 39.4624 356.12 38.9472 354.125 37.9707C350.552 36.2211 347.774 33.7214 345.87 30.5364C345.321 29.619 344.525 28.8857 343.57 28.4124L343.548 28.4016C342.59 27.9327 341.523 27.7537 340.464 27.8787C336.766 28.3206 333.094 27.6682 329.551 25.9336C327.627 24.9914 326.149 23.9351 325.172 23.2388C324.585 22.8205 324.195 22.5424 323.824 22.3604C322.682 21.8015 321.371 21.6557 320.129 21.9424C318.496 22.3208 317.131 23.403 316.385 24.914C312.173 33.3996 309.989 42.0759 309.893 50.7059C309.797 59.5592 311.898 68.3322 316.14 76.7848C316.685 77.8752 317.556 78.7323 318.647 79.2721L318.652 79.2742L318.654 79.2698Z" fill="url(#paint13_linear_730_13819)"/>
<path d="M319.565 77.3983C320.4 77.8073 321.328 77.9287 322.238 77.7528C330.842 76.0861 338.524 72.6373 345.069 67.5028C351.616 62.3748 356.941 55.6233 360.897 47.438C361.457 46.2834 361.471 44.9486 360.934 43.786C360.528 42.8998 359.821 42.1722 358.951 41.7461C358.706 41.6261 358.337 41.5163 357.778 41.3516C356.688 41.0306 354.866 40.4986 352.854 39.5136C349.202 37.7255 346.363 35.163 344.41 31.8997C343.989 31.1975 343.38 30.6373 342.651 30.2753L342.638 30.2689C341.903 29.9091 341.087 29.7712 340.281 29.8673C336.489 30.3233 332.73 29.6499 329.113 27.879C327.171 26.9282 325.697 25.874 324.721 25.1777C324.197 24.8069 323.853 24.5568 323.574 24.4197C322.703 23.9936 321.697 23.8774 320.748 24.0997C319.5 24.3886 318.454 25.218 317.883 26.3727C313.887 34.4185 311.817 42.6385 311.725 50.8068C311.63 59.1809 313.624 67.4868 317.646 75.4933C318.065 76.3312 318.73 76.9893 319.565 77.3983Z" fill="white"/>
<path d="M319.785 76.9495C320.52 77.3093 321.338 77.4209 322.142 77.2636C330.674 75.6108 338.279 72.1957 344.761 67.1122C351.245 62.0242 356.523 55.3367 360.444 47.2217C360.94 46.1991 360.95 45.0263 360.477 43.9986C360.117 43.217 359.499 42.5759 358.729 42.199C358.523 42.0984 358.167 41.995 357.637 41.8387C356.531 41.5157 354.683 40.9709 352.636 39.9687C348.897 38.1378 345.986 35.5126 343.982 32.1645C343.612 31.5471 343.074 31.0496 342.429 30.7283L342.416 30.7219C341.769 30.4049 341.049 30.2813 340.334 30.3677C336.446 30.8312 332.593 30.1502 328.889 28.3364C326.912 27.3685 325.416 26.3035 324.429 25.5964C323.947 25.2515 323.592 25.0014 323.352 24.8836C322.582 24.5068 321.698 24.4068 320.86 24.6016C319.758 24.8584 318.835 25.5902 318.333 26.6041C314.372 34.5795 312.321 42.7271 312.229 50.8189C312.136 59.112 314.109 67.3372 318.096 75.2719C318.462 76.0075 319.05 76.5898 319.785 76.9495Z" fill="url(#paint14_linear_730_13819)"/>
<path d="M334.006 63.0084C335.332 63.6573 336.914 63.1613 337.53 61.9033L339.909 57.0472C342.342 52.0701 342.357 51.9956 342.398 51.8354C342.655 50.7563 342.14 49.6043 341.164 49.0065L342.138 47.0183C343.722 43.7852 342.172 39.7651 338.686 38.0584C335.201 36.3516 331.073 37.5923 329.489 40.8253L328.515 42.8135C327.381 42.3836 326.125 42.7229 325.439 43.6798C325.372 43.7724 325.301 43.8738 320.551 53.5794C319.933 54.8418 320.511 56.3956 321.836 57.0445L334.008 63.004L334.006 63.0084ZM332.535 44.7705C332.804 44.2207 333.007 43.8072 333.153 43.4972C333.552 42.6725 333.588 42.5977 333.736 42.4189C334.413 41.5781 335.705 41.3544 336.803 41.8919C337.905 42.4315 338.522 43.5845 338.267 44.6374C338.212 44.8612 338.186 44.9249 337.774 45.7541C337.623 46.062 337.416 46.4733 337.145 47.0276L332.535 44.7705Z" fill="url(#paint15_linear_730_13819)"/>
<path d="M326.289 44.2915C326.7 43.7183 327.54 43.4972 328.293 43.8655L328.997 44.2103L330.43 41.2851C331.772 38.5448 335.28 37.5623 338.223 39.0035C341.167 40.4447 342.536 43.8257 341.198 46.5573L339.765 49.4824L340.469 49.8272C341.2 50.1848 341.538 50.9448 341.38 51.5985C341.333 51.7937 336.599 61.4357 336.596 61.4401C336.25 62.1483 335.32 62.4732 334.476 62.0599L322.304 56.1003C321.464 55.6892 321.145 54.7584 321.494 54.0458C321.492 54.0392 326.202 44.4128 326.289 44.2915ZM328.366 55.769L331.012 57.0646C331.183 57.1481 331.362 57.1484 331.512 57.0855C331.627 57.0383 331.721 56.9586 331.774 56.8486C331.792 56.8134 331.807 56.7717 331.815 56.7322L332.559 53.4863C333.22 53.4005 333.804 53.0267 334.097 52.4285C334.586 51.43 334.095 50.1859 333.006 49.6527C331.917 49.1195 330.632 49.4941 330.143 50.4926C329.848 51.0953 329.911 51.786 330.246 52.3534L328.137 54.9313C328.124 54.9468 328.109 54.9666 328.1 54.9842C328.022 55.1097 328.006 55.2543 328.046 55.3939C328.086 55.5445 328.2 55.6876 328.366 55.769ZM337.631 48.4374C339.033 45.5192 339.157 45.4435 339.291 44.882C339.653 43.3794 338.836 41.7144 337.271 40.9477C335.7 40.179 333.888 40.557 332.923 41.7641C332.561 42.2142 332.571 42.3607 331.131 45.2553L337.631 48.4374Z" fill="white"/>
</g>
<defs>
<filter id="filter0_f_730_13819" x="321.901" y="155.503" width="59.0989" height="60.8262" filterUnits="userSpaceOnUse" color-interpolation-filters="sRGB">
<feFlood flood-opacity="0" result="BackgroundImageFix"/>
<feBlend mode="normal" in="SourceGraphic" in2="BackgroundImageFix" result="shape"/>
<feGaussianBlur stdDeviation="0.5" result="effect1_foregroundBlur_730_13819"/>
</filter>
<filter id="filter1_f_730_13819" x="37.9876" y="111.133" width="34.8298" height="35.8223" filterUnits="userSpaceOnUse" color-interpolation-filters="sRGB">
<feFlood flood-opacity="0" result="BackgroundImageFix"/>
<feBlend mode="normal" in="SourceGraphic" in2="BackgroundImageFix" result="shape"/>
<feGaussianBlur stdDeviation="0.5" result="effect1_foregroundBlur_730_13819"/>
</filter>
<filter id="filter2_f_730_13819" x="25.9999" y="170.053" width="86.3954" height="88.9473" filterUnits="userSpaceOnUse" color-interpolation-filters="sRGB">
<feFlood flood-opacity="0" result="BackgroundImageFix"/>
<feBlend mode="normal" in="SourceGraphic" in2="BackgroundImageFix" result="shape"/>
<feGaussianBlur stdDeviation="0.5" result="effect1_foregroundBlur_730_13819"/>
</filter>
<filter id="filter3_f_730_13819" x="294.346" y="16" width="73.5056" height="75.668" filterUnits="userSpaceOnUse" color-interpolation-filters="sRGB">
<feFlood flood-opacity="0" result="BackgroundImageFix"/>
<feBlend mode="normal" in="SourceGraphic" in2="BackgroundImageFix" result="shape"/>
<feGaussianBlur stdDeviation="0.5" result="effect1_foregroundBlur_730_13819"/>
</filter>
<linearGradient id="paint0_linear_730_13819" x1="370.052" y1="195.023" x2="332.853" y2="176.798" gradientUnits="userSpaceOnUse">
<stop stop-color="#757575"/>
<stop offset="1" stop-color="#B0B0B0"/>
</linearGradient>
<linearGradient id="paint1_linear_730_13819" x1="361.525" y1="201.156" x2="346.935" y2="158.956" gradientUnits="userSpaceOnUse">
<stop stop-color="#A6A6A6"/>
<stop offset="1" stop-color="#C8C8C8"/>
</linearGradient>
<linearGradient id="paint2_linear_730_13819" x1="360.769" y1="199.414" x2="347.518" y2="161.086" gradientUnits="userSpaceOnUse">
<stop stop-color="#D7D7D7"/>
<stop offset="0.2256" stop-color="#B7B7B7"/>
<stop offset="1" stop-color="#D2D2D2"/>
</linearGradient>
<linearGradient id="paint3_linear_730_13819" x1="359.991" y1="185.408" x2="346.432" y2="178.766" gradientUnits="userSpaceOnUse">
<stop stop-color="#979797"/>
<stop offset="1" stop-color="#B9B9B9"/>
</linearGradient>
<linearGradient id="paint4_linear_730_13819" x1="66.0981" y1="134.28" x2="44.7096" y2="123.801" gradientUnits="userSpaceOnUse">
<stop stop-color="#757575"/>
<stop offset="1" stop-color="#B0B0B0"/>
</linearGradient>
<linearGradient id="paint5_linear_730_13819" x1="61.1952" y1="137.806" x2="52.8063" y2="113.543" gradientUnits="userSpaceOnUse">
<stop stop-color="#A6A6A6"/>
<stop offset="1" stop-color="#C8C8C8"/>
</linearGradient>
<linearGradient id="paint6_linear_730_13819" x1="60.7605" y1="136.805" x2="53.1412" y2="114.767" gradientUnits="userSpaceOnUse">
<stop stop-color="#D7D7D7"/>
<stop offset="0.2256" stop-color="#B7B7B7"/>
<stop offset="1" stop-color="#D2D2D2"/>
</linearGradient>
<linearGradient id="paint7_linear_730_13819" x1="60.3127" y1="128.752" x2="52.517" y2="124.933" gradientUnits="userSpaceOnUse">
<stop stop-color="#979797"/>
<stop offset="1" stop-color="#B9B9B9"/>
</linearGradient>
<linearGradient id="paint8_linear_730_13819" x1="96.6927" y1="227.987" x2="41.7095" y2="201.05" gradientUnits="userSpaceOnUse">
<stop stop-color="#757575"/>
<stop offset="1" stop-color="#B0B0B0"/>
</linearGradient>
<linearGradient id="paint9_linear_730_13819" x1="84.0889" y1="237.053" x2="62.5236" y2="174.678" gradientUnits="userSpaceOnUse">
<stop stop-color="#A6A6A6"/>
<stop offset="1" stop-color="#C8C8C8"/>
</linearGradient>
<linearGradient id="paint10_linear_730_13819" x1="82.9713" y1="234.478" x2="63.3846" y2="177.826" gradientUnits="userSpaceOnUse">
<stop stop-color="#D7D7D7"/>
<stop offset="0.2256" stop-color="#B7B7B7"/>
<stop offset="1" stop-color="#D2D2D2"/>
</linearGradient>
<linearGradient id="paint11_linear_730_13819" x1="81.8203" y1="213.776" x2="61.7799" y2="203.958" gradientUnits="userSpaceOnUse">
<stop stop-color="#979797"/>
<stop offset="1" stop-color="#B9B9B9"/>
</linearGradient>
<linearGradient id="paint12_linear_730_13819" x1="354.394" y1="65.2394" x2="307.808" y2="42.4164" gradientUnits="userSpaceOnUse">
<stop stop-color="#757575"/>
<stop offset="1" stop-color="#B0B0B0"/>
</linearGradient>
<linearGradient id="paint13_linear_730_13819" x1="343.715" y1="72.9204" x2="325.443" y2="20.0725" gradientUnits="userSpaceOnUse">
<stop stop-color="#A6A6A6"/>
<stop offset="1" stop-color="#C8C8C8"/>
</linearGradient>
<linearGradient id="paint14_linear_730_13819" x1="342.768" y1="70.7392" x2="326.173" y2="22.74" gradientUnits="userSpaceOnUse">
<stop stop-color="#D7D7D7"/>
<stop offset="0.2256" stop-color="#B7B7B7"/>
<stop offset="1" stop-color="#D2D2D2"/>
</linearGradient>
<linearGradient id="paint15_linear_730_13819" x1="341.793" y1="53.1994" x2="324.814" y2="44.8808" gradientUnits="userSpaceOnUse">
<stop stop-color="#979797"/>
<stop offset="1" stop-color="#B9B9B9"/>
</linearGradient>
<clipPath id="clip0_730_13819">
<rect width="41.4226" height="45.2227" fill="white" transform="matrix(-0.898132 -0.439727 -0.439954 0.89802 380 174.718)"/>
</clipPath>
<clipPath id="clip1_730_13819">
<rect width="23.8165" height="26.0014" fill="white" transform="matrix(-0.898132 -0.439727 -0.439954 0.89802 71.8174 122.605)"/>
</clipPath>
<clipPath id="clip2_730_13819">
<rect width="61.225" height="66.8417" fill="white" transform="matrix(-0.898132 -0.439727 -0.439954 0.89802 111.395 197.975)"/>
</clipPath>
<clipPath id="clip3_730_13819">
<rect width="51.874" height="56.6329" fill="white" transform="matrix(-0.898132 -0.439727 -0.439954 0.89802 366.851 39.8105)"/>
</clipPath>
</defs>
</svg>
