<svg width="588" height="402" viewBox="0 0 588 402" fill="none" xmlns="http://www.w3.org/2000/svg">
<g clip-path="url(#clip0_1370_5292)">
<path d="M487.144 288.675H307.117C303.9 288.675 301.281 286.056 301.281 282.841V20.7377C301.281 17.522 303.9 14.9037 307.117 14.9037H487.144C490.361 14.9037 492.981 17.522 492.981 20.7377V282.841C492.981 286.056 490.361 288.675 487.144 288.675ZM307.117 15.1426C304.04 15.1426 301.53 17.6515 301.53 20.7278V282.841C301.53 285.917 304.04 288.426 307.117 288.426H487.144C490.222 288.426 492.732 285.917 492.732 282.841V20.7377C492.732 17.6614 490.222 15.1526 487.144 15.1526H307.117V15.1426Z" fill="#E0E0E0"/>
<path d="M279.548 288.675H99.5309C96.3138 288.675 93.6943 286.056 93.6943 282.841V20.7377C93.6943 17.522 96.3138 14.9037 99.5309 14.9037H279.558C282.775 14.9037 285.394 17.522 285.394 20.7377V282.841C285.384 286.056 282.775 288.675 279.548 288.675ZM99.5309 15.1426C96.4533 15.1426 93.9433 17.6515 93.9433 20.7278V282.841C93.9433 285.917 96.4533 288.426 99.5309 288.426H279.558C282.636 288.426 285.145 285.917 285.145 282.841V20.7377C285.145 17.6614 282.636 15.1526 279.558 15.1526H99.5309V15.1426Z" fill="#E0E0E0"/>
<path d="M543 349.474H45V349.723H543V349.474Z" fill="#E0E0E0"/>
<path d="M196.163 56.5283C194.679 58.7783 193.693 61.2572 193.155 63.8059L189.091 64.1842V72.0492L193.155 72.4275C193.683 74.9761 194.679 77.4551 196.163 79.7051L193.563 82.8411L199.131 88.4063L202.268 85.8079C204.519 87.2913 206.999 88.2769 209.549 88.8145L209.928 92.8764H217.796L218.175 88.8145C220.724 88.2869 223.204 87.2913 225.455 85.8079L228.593 88.4063L234.16 82.8411L231.561 79.7051C233.035 77.4551 234.031 74.9761 234.569 72.4275L238.632 72.0492V64.1842L234.569 63.8059C234.041 61.2572 233.045 58.7783 231.561 56.5283L234.16 53.3923L228.593 47.827L225.455 50.4255C223.204 48.9421 220.724 47.9565 218.175 47.4188L217.796 43.3569H209.928L209.549 47.4188C206.999 47.9465 204.519 48.9421 202.268 50.4255L199.131 47.827L193.563 53.3923L196.163 56.5283ZM221.412 60.5902C225.575 64.7517 225.575 71.4917 221.412 75.6531C217.248 79.8146 210.505 79.8146 206.342 75.6531C202.179 71.4917 202.179 64.7517 206.342 60.5902C210.495 56.4287 217.248 56.4287 221.412 60.5902Z" fill="url(#paint0_linear_1370_5292)"/>
<path d="M131.184 161.6L82.1409 167.723C76.2047 168.46 71.6928 162.506 74.0235 156.991L93.2363 111.474L112.449 65.9563C114.78 60.4508 122.19 59.5249 125.806 64.2937L155.636 103.688L185.466 143.083C189.071 147.852 186.173 154.741 180.237 155.478L131.184 161.6Z" fill="#E0E0E0"/>
<path d="M130.278 154.383L84.5512 160.087C82.5293 160.336 80.9954 158.315 81.7922 156.443L99.7103 114.002L117.409 72.089C118.296 69.9784 121.144 69.63 122.519 71.4519L149.978 107.72L177.896 144.596C179.072 146.159 178.125 148.409 176.183 148.648L130.278 154.383Z" fill="#EAF0FE"/>
<path d="M117.27 102.723L128.276 101.349L129.819 128.617L122.479 129.533L117.27 102.723ZM123.764 142.864C122.549 141.958 121.851 140.753 121.662 139.25C121.473 137.757 121.851 136.433 122.788 135.298C123.724 134.163 125.029 133.486 126.682 133.277C128.335 133.068 129.76 133.406 130.955 134.272C132.15 135.148 132.837 136.333 133.026 137.826C133.216 139.33 132.827 140.664 131.871 141.848C130.915 143.033 129.63 143.72 128.017 143.919C126.393 144.128 124.979 143.77 123.764 142.864Z" fill="#E0E0E0"/>
<path d="M87.3997 237.204C87.3997 257.523 102.868 274 121.951 274H128.744V200.408H121.951C102.868 200.408 87.3997 216.884 87.3997 237.204Z" fill="#E0E0E0"/>
<path d="M128.754 274C149.084 274 165.566 257.526 165.566 237.204C165.566 216.882 149.084 200.408 128.754 200.408C108.423 200.408 91.9414 216.882 91.9414 237.204C91.9414 257.526 108.423 274 128.754 274Z" fill="#EAF0FE"/>
<path d="M128.754 266.663C145.03 266.663 158.225 253.473 158.225 237.204C158.225 220.934 145.03 207.745 128.754 207.745C112.477 207.745 99.282 220.934 99.282 237.204C99.282 253.473 112.477 266.663 128.754 266.663Z" fill="#FFCD66"/>
<path d="M108.844 214.794C121.234 203.812 140.178 204.957 151.164 217.342C162.15 229.727 161.004 248.663 148.614 259.644C158.664 248.294 158.664 231.24 148.604 219.901C137.618 207.516 118.674 206.381 106.284 217.352C107.091 216.446 107.947 215.59 108.844 214.794Z" fill="#E0E0E0"/>
<path d="M141.562 238.856C140.516 237.791 138.982 237.124 136.951 236.845C138.046 236.387 139.002 235.651 139.729 234.715C140.626 233.46 141.024 231.917 140.835 230.384C140.686 228.522 139.729 226.81 138.216 225.705C136.662 224.54 134.56 224.092 131.911 224.361L130.277 224.52L129.819 219.901L126.732 220.209L127.19 224.829L123.365 225.207L122.907 220.588L119.829 220.896L120.288 225.516L113.584 226.183L114.142 231.748L116.553 231.509L118.186 247.856L115.776 248.095L116.333 253.66L123.037 252.993L123.495 257.613L126.572 257.304L126.114 252.685L129.939 252.306L130.397 256.926L133.485 256.617L133.026 251.998L133.415 251.958C134.68 251.769 135.945 251.52 137.19 251.201C138.614 250.873 139.66 250.465 140.327 249.977C141.393 249.22 142.239 248.195 142.777 247.01C143.325 245.776 143.534 244.412 143.375 243.068C143.215 241.325 142.608 239.922 141.562 238.856ZM125.138 230.653L128.893 230.275C130.178 230.145 131.104 230.285 131.672 230.683C132.25 231.101 132.608 231.768 132.638 232.485C132.757 233.221 132.548 233.978 132.06 234.546C131.592 235.053 130.686 235.372 129.361 235.511L125.666 235.88L125.138 230.653ZM134.092 245.168C133.544 245.746 132.538 246.114 131.074 246.253L126.742 246.682L126.184 241.096L130.497 240.668C131.991 240.519 133.056 240.658 133.694 241.096C134.331 241.515 134.73 242.201 134.779 242.958C134.909 243.764 134.65 244.581 134.092 245.168Z" fill="#E0E0E0"/>
<path d="M140.526 238.956C139.48 237.891 137.947 237.224 135.915 236.945C137.01 236.487 137.977 235.75 138.694 234.814C139.59 233.56 139.978 232.017 139.799 230.484C139.65 228.622 138.694 226.91 137.18 225.805C135.626 224.64 133.524 224.192 130.875 224.461L129.242 224.62L128.783 220L125.706 220.309L126.164 224.928L122.339 225.307L121.881 220.687L118.804 220.996L119.262 225.615L112.559 226.282L113.116 231.848L115.527 231.609L117.16 247.956L114.75 248.195L115.308 253.76L122.011 253.093L122.469 257.712L125.546 257.404L125.088 252.784L128.913 252.406L129.371 257.026L132.449 256.717L131.991 252.097L132.379 252.058C133.644 251.868 134.909 251.62 136.154 251.301C137.568 250.972 138.614 250.564 139.291 250.076C140.357 249.32 141.204 248.294 141.741 247.11C142.289 245.875 142.498 244.511 142.339 243.167C142.18 241.425 141.582 240.021 140.526 238.956ZM124.112 230.762L127.867 230.384C129.152 230.255 130.078 230.394 130.646 230.792C131.224 231.21 131.582 231.877 131.612 232.594C131.732 233.331 131.522 234.088 131.034 234.655C130.556 235.163 129.66 235.481 128.335 235.621L124.64 235.989L124.112 230.762ZM133.056 245.268C132.508 245.845 131.503 246.214 130.038 246.353L125.706 246.781L125.148 241.196L129.461 240.768C130.945 240.619 132.01 240.758 132.658 241.196C133.295 241.614 133.694 242.301 133.744 243.058C133.873 243.864 133.614 244.68 133.056 245.268Z" fill="white"/>
<path d="M313.96 61.5558C309.458 81.0192 320.623 100.224 338.9 104.455L345.404 105.958L361.718 35.472L355.214 33.9687C336.938 29.7375 318.462 42.0925 313.96 61.5558Z" fill="#E0E0E0"/>
<path d="M355.175 106.863C375.14 105.97 390.6 89.0693 389.706 69.1138C388.813 49.1582 371.905 33.7048 351.94 34.5977C331.976 35.4906 316.516 52.3917 317.409 72.3473C318.303 92.3028 335.211 107.756 355.175 106.863Z" fill="#EAF0FE"/>
<path d="M374.048 91.1965C385.363 79.8866 385.363 61.5497 374.048 50.2398C362.733 38.9299 344.388 38.9299 333.073 50.2398C321.759 61.5497 321.759 79.8866 333.073 91.1965C344.388 102.506 362.733 102.506 374.048 91.1965Z" fill="#FFCD66"/>
<path d="M339.467 44.8403C353.77 37.065 371.668 42.3614 379.437 56.6478C387.216 70.9441 381.917 88.8344 367.624 96.5999C379.766 87.9583 383.55 71.6111 376.429 58.5294C368.65 44.233 350.752 38.9466 336.459 46.722C337.416 46.035 338.422 45.4078 339.467 44.8403Z" fill="#E0E0E0"/>
<path d="M365.473 75.1354C364.706 73.881 363.381 72.9053 361.509 72.1885C362.664 71.9994 363.74 71.5016 364.646 70.7649C365.782 69.7593 366.509 68.3655 366.668 66.8622C366.937 65.0404 366.399 63.1986 365.194 61.8048C363.969 60.3512 362.057 59.4552 359.457 59.1167L357.863 58.9077L358.441 54.3778L355.423 53.9896L354.846 58.5194L351.101 58.0415L351.678 53.5117L348.66 53.1234L348.083 57.6532L341.519 56.807L340.822 62.2627L343.182 62.5614L341.121 78.5801L338.76 78.2814L338.063 83.7371L344.627 84.5833L344.049 89.1132L347.067 89.5014L347.645 84.9716L351.389 85.4495L350.812 89.9793L353.83 90.3676L354.407 85.8377L354.786 85.8875C356.041 85.9871 357.306 86.0269 358.561 85.997C359.995 85.997 361.091 85.8377 361.838 85.5192C363.023 85.0313 364.059 84.2349 364.845 83.2194C365.642 82.1541 366.14 80.8997 366.29 79.5756C366.509 77.8633 366.24 76.3898 365.473 75.1354ZM351.559 63.6466L355.234 64.1145C356.499 64.2738 357.356 64.6123 357.804 65.12C358.262 65.6576 358.461 66.3645 358.332 67.0614C358.282 67.7981 357.913 68.4651 357.316 68.9031C356.748 69.2815 355.822 69.391 354.517 69.2217L350.901 68.7538L351.559 63.6466ZM356.917 79.5258C356.26 79.9639 355.224 80.0834 353.79 79.9042L349.547 79.3566L350.254 73.881L354.477 74.4285C355.941 74.6177 356.927 74.9861 357.445 75.5436C357.963 76.0812 358.192 76.8378 358.073 77.5745C358.003 78.361 357.585 79.0878 356.917 79.5258Z" fill="#E0E0E0"/>
<path d="M364.457 75.006C363.69 73.7516 362.365 72.7759 360.493 72.0591C361.648 71.87 362.724 71.3722 363.63 70.6355C364.766 69.6299 365.483 68.2361 365.642 66.7328C365.911 64.911 365.373 63.0692 364.168 61.6754C362.943 60.2218 361.031 59.3258 358.431 58.9873L356.838 58.7783L357.415 54.2484L354.397 53.8602L353.82 58.39L350.065 57.9121L350.642 53.3823L347.625 52.994L347.047 57.5238L340.483 56.6776L339.786 62.1333L342.147 62.432L340.085 78.4507L337.724 78.152L337.027 83.6077L343.591 84.4539L343.013 88.9838L346.031 89.372L346.609 84.8422L350.364 85.3201L349.776 89.8499L352.794 90.2382L353.371 85.7083L353.75 85.7581C355.005 85.8577 356.27 85.8975 357.525 85.8676C358.959 85.8676 360.045 85.7083 360.802 85.3898C361.987 84.9019 363.023 84.1055 363.81 83.09C364.606 82.0248 365.104 80.7703 365.254 79.4462C365.493 77.7339 365.224 76.2604 364.457 75.006ZM350.543 63.5172L354.218 63.9851C355.483 64.1444 356.34 64.4829 356.788 64.9906C357.246 65.5282 357.445 66.2351 357.316 66.932C357.266 67.6687 356.897 68.3357 356.3 68.7738C355.732 69.1521 354.796 69.2616 353.501 69.0923L349.885 68.6244L350.543 63.5172ZM355.901 79.3965C355.244 79.8345 354.208 79.954 352.774 79.7748L348.531 79.2272L349.238 73.7516L353.461 74.2991C354.915 74.4883 355.911 74.8567 356.429 75.4142C356.947 75.9518 357.176 76.7084 357.057 77.4451C356.997 78.2316 356.569 78.9584 355.901 79.3965Z" fill="white"/>
<path d="M258.493 30.5938C260.753 44.7607 273.383 54.5272 286.689 52.4067L291.43 51.65L283.223 0.338501L278.482 1.09513C265.186 3.20573 256.232 16.4169 258.493 30.5938Z" fill="#E0E0E0"/>
<path d="M290.558 51.7661C304.803 49.9794 314.902 36.9882 313.115 22.7494C311.327 8.5106 298.331 -1.58385 284.086 0.202821C269.841 1.98949 259.742 14.9807 261.529 29.2195C263.317 43.4583 276.313 53.5527 290.558 51.7661Z" fill="#EAF0FE"/>
<path d="M295.845 44.9648C306.335 40.2613 311.023 27.9486 306.318 17.4637C301.612 6.97877 289.294 2.29201 278.805 6.99551C268.315 11.699 263.627 24.0117 268.332 34.4966C273.038 44.9815 285.356 49.6683 295.845 44.9648Z" fill="#FFCD66"/>
<path d="M270.952 12.574C278.373 3.53421 291.709 2.22006 300.753 9.63703C309.796 17.054 311.111 30.3846 303.691 39.4244C309.438 30.3946 307.536 18.4976 299.249 11.7078C290.205 4.29084 276.869 5.61494 269.448 14.6447C269.907 13.918 270.415 13.231 270.952 12.574Z" fill="#E0E0E0"/>
<path d="M296.45 25.7056C295.603 25.0784 294.458 24.7896 293.014 24.8195C293.731 24.3815 294.319 23.7642 294.717 23.0175C295.205 22.0419 295.305 20.9169 295.006 19.8715C294.697 18.5873 293.841 17.5021 292.655 16.9048C291.44 16.2676 289.926 16.1879 288.114 16.6658L286.998 16.9645L286.161 13.7986L284.05 14.3561L284.886 17.522L282.267 18.2189L281.43 15.053L279.319 15.6105L280.155 18.7764L275.554 19.991L276.56 23.814L278.213 23.3759L281.171 34.596L279.518 35.034L280.524 38.857L285.126 37.6424L285.962 40.8083L288.074 40.2508L287.237 37.0849L289.857 36.388L290.693 39.5539L292.805 38.9964L291.968 35.8305L292.237 35.7608C293.103 35.492 293.95 35.1734 294.787 34.815C295.743 34.4267 296.42 34.0285 296.838 33.6104C297.496 32.9632 297.974 32.1568 298.213 31.2708C298.452 30.3449 298.452 29.3792 298.183 28.4533C297.874 27.2487 297.297 26.3328 296.45 25.7056ZM284.08 21.8229L286.659 21.1459C287.546 20.9169 288.203 20.9069 288.641 21.116C289.09 21.345 289.408 21.7731 289.518 22.2609C289.687 22.7587 289.617 23.3062 289.339 23.7642C289.07 24.1724 288.472 24.491 287.566 24.7399L285.036 25.4069L284.08 21.8229ZM291.938 30.9422C291.619 31.4102 290.962 31.7686 289.956 32.0374L286.978 32.8239L285.962 28.9909L288.92 28.2144C289.946 27.9456 290.703 27.9257 291.201 28.1547C291.689 28.3737 292.048 28.8117 292.167 29.3394C292.356 29.877 292.267 30.4743 291.938 30.9422Z" fill="#E0E0E0"/>
<path d="M295.743 25.8947C294.896 25.2674 293.751 24.9787 292.307 25.0086C293.024 24.5705 293.612 23.9433 294.01 23.2066C294.498 22.231 294.598 21.106 294.299 20.0606C293.99 18.7763 293.133 17.6912 291.948 17.0938C290.733 16.4567 289.219 16.377 287.406 16.8549L286.291 17.1536L285.454 13.9877L283.343 14.5452L284.179 17.7111L281.55 18.408L280.713 15.2421L278.602 15.7996L279.438 18.9655L274.837 20.1801L275.843 24.0031L277.496 23.565L280.454 34.7851L278.801 35.2231L279.807 39.0461L284.408 37.8315L285.245 40.9974L287.357 40.4399L286.52 37.274L289.149 36.5771L289.986 39.743L292.098 39.1855L291.261 36.0196L291.53 35.9499C292.396 35.6811 293.243 35.3625 294.08 35.0041C295.036 34.6158 295.713 34.2176 296.131 33.7995C296.789 33.1523 297.267 32.3459 297.506 31.4599C297.745 30.534 297.745 29.5583 297.476 28.6424C297.167 27.4378 296.59 26.5219 295.743 25.8947ZM283.373 22.0119L285.952 21.335C286.839 21.106 287.496 21.096 287.934 21.3051C288.383 21.5341 288.701 21.9622 288.811 22.45C288.98 22.9478 288.91 23.4953 288.632 23.9533C288.363 24.3615 287.765 24.6801 286.859 24.929L284.319 25.596L283.373 22.0119ZM291.231 31.1313C290.912 31.5993 290.255 31.9577 289.249 32.2265L286.271 33.013L285.255 29.18L288.213 28.4035C289.239 28.1347 289.996 28.1148 290.494 28.3437C290.982 28.5628 291.341 29.0008 291.46 29.5285C291.649 30.0661 291.56 30.6634 291.231 31.1313Z" fill="white"/>
<path d="M496.855 83.9263H459.157V96.8487H496.855V83.9263Z" fill="#EAF0FE"/>
<path d="M456 84.5336V111.852C456 112.609 456.617 113.226 457.374 113.226H497.602C498.359 113.226 498.977 112.609 498.977 111.852V87.2216C498.977 86.465 498.359 85.8477 497.602 85.8477H473.141C472.643 85.8477 472.185 85.5789 471.945 85.1508L471.179 83.7968C470.979 83.4484 470.601 83.2294 470.193 83.2294H457.344C456.597 83.2393 456 83.8168 456 84.5336Z" fill="#E0E0E0"/>
<path d="M169.351 304.733L167.568 304.902V308.347L169.351 308.516C169.58 309.631 170.018 310.716 170.665 311.702L169.53 313.076L171.97 315.515L173.345 314.38C174.331 315.027 175.416 315.465 176.532 315.694L176.701 317.476H180.147L180.317 315.694C181.432 315.465 182.518 315.027 183.504 314.38L184.878 315.515L187.319 313.076L186.183 311.702C186.831 310.716 187.269 309.631 187.498 308.516L189.281 308.347V304.902L187.498 304.733C187.269 303.618 186.831 302.533 186.183 301.547L187.319 300.173L184.878 297.734L183.504 298.869C182.518 298.222 181.432 297.784 180.317 297.555L180.147 295.773H176.701L176.532 297.555C175.416 297.784 174.331 298.222 173.345 298.869L171.97 297.734L169.53 300.173L170.665 301.547C170.018 302.533 169.58 303.608 169.351 304.733ZM181.721 303.319C183.544 305.141 183.544 308.098 181.721 309.92C179.898 311.742 176.94 311.742 175.118 309.92C173.295 308.098 173.295 305.141 175.118 303.319C176.94 301.497 179.898 301.497 181.721 303.319Z" fill="url(#paint1_linear_1370_5292)"/>
<path d="M167.418 34.9146L165.406 35.1037V39.0064L167.418 39.1955C167.677 40.4599 168.175 41.6844 168.902 42.7995L167.618 44.3526L170.377 47.1103L171.93 45.826C173.046 46.5627 174.271 47.0506 175.536 47.3094L175.725 49.3204H179.629L179.819 47.3094C181.084 47.0506 182.309 46.5528 183.424 45.826L184.978 47.1103L187.737 44.3526L186.452 42.7995C187.189 41.6844 187.677 40.4599 187.936 39.1955L189.948 39.0064V35.1037L187.936 34.9146C187.677 33.6502 187.179 32.4257 186.452 31.3106L187.737 29.7576L184.978 26.9998L183.424 28.2841C182.309 27.5474 181.084 27.0596 179.819 26.8007L179.629 24.7897H175.725L175.536 26.8007C174.271 27.0596 173.046 27.5573 171.93 28.2841L170.377 26.9998L167.618 29.7576L168.902 31.3106C168.175 32.4257 167.687 33.6502 167.418 34.9146ZM181.412 33.3217C183.474 35.3825 183.474 38.7276 181.412 40.7884C179.351 42.8493 176.004 42.8493 173.942 40.7884C171.881 38.7276 171.881 35.3825 173.942 33.3217C176.014 31.2609 179.351 31.2609 181.412 33.3217Z" fill="url(#paint2_linear_1370_5292)"/>
<path d="M418.032 34.9942C416.966 36.617 416.249 38.409 415.861 40.2508L412.922 40.5295V46.2142L415.861 46.493C416.239 48.3348 416.966 50.1168 418.032 51.7496L416.159 54.0095L420.183 58.0316L422.444 56.1599C424.068 57.2252 425.86 57.942 427.703 58.3303L427.982 61.2672H433.669L433.948 58.3303C435.791 57.952 437.573 57.2252 439.207 56.1599L441.468 58.0316L445.492 54.0095L443.619 51.7496C444.685 50.1268 445.402 48.3348 445.79 46.493L448.729 46.2142V40.5295L445.79 40.2508C445.412 38.409 444.685 36.6269 443.619 34.9942L445.492 32.7342L441.468 28.7122L439.207 30.5838C437.583 29.5186 435.791 28.8018 433.948 28.4135L433.669 25.4766H427.982L427.703 28.4135C425.86 28.7918 424.078 29.5186 422.444 30.5838L420.183 28.7122L416.159 32.7342L418.032 34.9942ZM436.259 37.9211C439.267 40.9278 439.267 45.7961 436.259 48.8027C433.251 51.8093 428.38 51.8093 425.372 48.8027C422.364 45.7961 422.364 40.9278 425.372 37.9211C428.38 34.9245 433.251 34.9245 436.259 37.9211Z" fill="#FFCD66"/>
<path d="M486.626 179.909C485.561 181.532 484.843 183.324 484.455 185.165L481.517 185.444V191.129L484.455 191.408C484.834 193.249 485.561 195.032 486.626 196.664L484.754 198.924L488.778 202.946L491.039 201.075C492.662 202.14 494.455 202.857 496.297 203.245L496.576 206.182H502.264L502.542 203.245C504.385 202.867 506.168 202.14 507.801 201.075L510.062 202.946L514.086 198.924L512.214 196.664C513.279 195.041 513.996 193.249 514.385 191.408L517.323 191.129V185.444L514.385 185.165C514.006 183.324 513.279 181.542 512.214 179.909L514.086 177.649L510.062 173.627L507.801 175.498C506.178 174.433 504.385 173.716 502.542 173.328L502.264 170.391H496.576L496.297 173.328C494.455 173.706 492.672 174.433 491.039 175.498L488.778 173.627L484.754 177.649L486.626 179.909ZM504.853 182.846C507.861 185.852 507.861 190.721 504.853 193.727C501.845 196.734 496.975 196.734 493.967 193.727C490.959 190.721 490.959 185.852 493.967 182.846C496.975 179.839 501.845 179.839 504.853 182.846Z" fill="#EAF0FE"/>
<path d="M507.483 395.897C507.483 399.272 414.337 402 299.448 402C184.559 402 91.4036 399.262 91.4036 395.897C91.4036 392.522 184.549 389.794 299.448 389.794C414.347 389.794 507.483 392.522 507.483 395.897Z" fill="#EAF0FE"/>
<path d="M468.888 170.112C479.559 170.112 488.21 161.465 488.21 150.798C488.21 140.132 479.559 131.484 468.888 131.484C458.216 131.484 449.565 140.132 449.565 150.798C449.565 161.465 458.216 170.112 468.888 170.112Z" fill="#D684DB"/>
<path d="M465.979 165.652L461.826 168.38L464.047 174.244L468.599 170.073L465.979 165.652Z" fill="#D684DB"/>
<path d="M467.346 153.629L466.548 141.86H471.337L470.539 153.629H467.346ZM468.943 160.092C468.222 160.092 467.629 159.86 467.166 159.397C466.702 158.933 466.471 158.384 466.471 157.749C466.471 157.096 466.702 156.556 467.166 156.126C467.629 155.68 468.222 155.457 468.943 155.457C469.681 155.457 470.273 155.68 470.719 156.126C471.183 156.556 471.415 157.096 471.415 157.749C471.415 158.384 471.183 158.933 470.719 159.397C470.273 159.86 469.681 160.092 468.943 160.092Z" fill="white"/>
<path d="M480.063 132.062C485.68 134.869 489.694 140.664 490.351 146.906" stroke="#D684DB" stroke-width="0.5" stroke-miterlimit="10" stroke-linecap="round" stroke-linejoin="round"/>
<path d="M490.551 149.783C490.72 150.729 490.69 151.704 490.471 152.63" stroke="#D684DB" stroke-width="0.5" stroke-miterlimit="10" stroke-linecap="round" stroke-linejoin="round"/>
<path d="M331.828 344.576V348.578C331.828 349.076 331.42 349.474 330.922 349.474H217.876C213.693 349.474 210.844 345.253 212.408 341.39L248.234 252.705L306.121 253.103L304.149 264.612L291.381 339.09C290.962 341.49 292.815 343.7 295.255 343.7H330.922C331.42 343.69 331.828 344.078 331.828 344.576Z" fill="#263238"/>
<g opacity="0.6">
<path d="M331.828 344.576V348.578C331.828 349.076 331.42 349.474 330.922 349.474H217.876C213.693 349.474 210.844 345.253 212.408 341.39L234.619 286.415L248.234 252.705L306.121 253.103L304.149 264.612L298.592 296.998L291.371 339.08C290.952 341.48 292.805 343.69 295.245 343.69H330.912C331.42 343.69 331.828 344.078 331.828 344.576Z" fill="white"/>
</g>
<g opacity="0.4">
<path d="M295.255 343.69H221.7C219.858 343.69 218.613 341.818 219.32 340.116L250.724 264.602H304.139L291.371 339.08C290.952 341.479 292.805 343.69 295.255 343.69Z" fill="white"/>
</g>
<g opacity="0.2">
<path d="M306.121 253.103L304.139 264.602L298.592 296.998L234.619 286.415L248.224 252.705L306.121 253.103Z" fill="black"/>
</g>
<path d="M418.689 87.7792H413.012H156.363H150.686C146.901 87.7792 143.823 90.8455 143.823 94.6386V276.001C143.823 279.784 146.891 282.861 150.686 282.861H156.363H413.012H418.689C422.474 282.861 425.552 279.794 425.552 276.001V94.6287C425.552 90.8455 422.484 87.7792 418.689 87.7792Z" fill="#263238"/>
<g opacity="0.8">
<path d="M418.689 87.7792H413.012H156.363H150.686C146.901 87.7792 143.823 90.8455 143.823 94.6386V276.001C143.823 279.784 146.891 282.861 150.686 282.861H156.363H413.012H418.689C422.474 282.861 425.552 279.794 425.552 276.001V94.6287C425.552 90.8455 422.484 87.7792 418.689 87.7792Z" fill="white"/>
</g>
<g opacity="0.2">
<path d="M156.353 282.851H150.676C146.891 282.851 143.823 279.784 143.823 276.001V94.6386C143.823 90.8455 146.891 87.7792 150.676 87.7792H156.353C152.568 87.7792 149.5 90.8455 149.5 94.6386V276.001C149.5 279.784 152.568 282.851 156.353 282.851Z" fill="black"/>
</g>
<path d="M419.367 93.663H155.686V268.544H419.367V93.663Z" fill="#D684DB"/>
<g opacity="0.4">
<path d="M419.367 93.663H155.686V268.544H419.367V93.663Z" fill="white"/>
</g>
<path d="M419.476 93.663H155.477V268.753H419.476V93.663Z" fill="#D684DB"/>
<g opacity="0.5">
<path d="M419.476 93.663H155.477V268.753H419.476V93.663Z" fill="white"/>
</g>
<path d="M419.476 93.663H155.477V110.647H419.476V93.663Z" fill="#D684DB"/>
<g opacity="0.3">
<path d="M414.466 102.155C414.466 103.808 413.132 105.142 411.478 105.142C409.825 105.142 408.49 103.808 408.49 102.155C408.49 100.503 409.825 99.1685 411.478 99.1685C413.132 99.1685 414.466 100.512 414.466 102.155Z" fill="white"/>
</g>
<g opacity="0.3">
<path d="M405.98 102.155C405.98 103.808 404.646 105.142 402.992 105.142C401.339 105.142 400.004 103.808 400.004 102.155C400.004 100.503 401.339 99.1685 402.992 99.1685C404.646 99.1685 405.98 100.512 405.98 102.155Z" fill="white"/>
</g>
<g opacity="0.3">
<path d="M397.485 102.155C397.485 103.808 396.15 105.142 394.497 105.142C392.843 105.142 391.509 103.808 391.509 102.155C391.509 100.503 392.843 99.1685 394.497 99.1685C396.15 99.1685 397.485 100.512 397.485 102.155Z" fill="white"/>
</g>
<g opacity="0.1">
<path d="M419.476 110.647H415.731V268.723H419.476V110.647Z" fill="black"/>
</g>
<path d="M419.476 110.647H415.731V146.488H419.476V110.647Z" fill="white"/>
<path d="M396.917 128.797H368.591V138.503H396.917V128.797Z" fill="white"/>
<path d="M366.22 129.245V149.773C366.22 150.341 366.678 150.808 367.256 150.808H397.475C398.042 150.808 398.511 150.351 398.511 149.773V131.266C398.511 130.698 398.052 130.23 397.475 130.23H379.098C378.73 130.23 378.381 130.031 378.202 129.702L377.624 128.687C377.475 128.428 377.196 128.259 376.887 128.259H367.236C366.668 128.269 366.22 128.707 366.22 129.245Z" fill="#D684DB"/>
<path d="M396.917 168.42H368.591V178.127H396.917V168.42Z" fill="white"/>
<path d="M366.22 168.878V189.407C366.22 189.974 366.678 190.442 367.256 190.442H397.475C398.042 190.442 398.511 189.984 398.511 189.407V170.899C398.511 170.332 398.052 169.864 397.475 169.864H379.098C378.73 169.864 378.381 169.665 378.202 169.336L377.624 168.321C377.475 168.062 377.196 167.892 376.887 167.892H367.236C366.668 167.902 366.22 168.34 366.22 168.878Z" fill="#D684DB"/>
<path d="M396.917 204.4H368.591V214.107H396.917V204.4Z" fill="white"/>
<path d="M366.22 204.858V225.386C366.22 225.954 366.678 226.422 367.256 226.422H397.475C398.042 226.422 398.511 225.964 398.511 225.386V206.879C398.511 206.311 398.052 205.843 397.475 205.843H379.098C378.73 205.843 378.381 205.644 378.202 205.316L377.624 204.3C377.475 204.041 377.196 203.872 376.887 203.872H367.236C366.668 203.872 366.22 204.31 366.22 204.858Z" fill="#D684DB"/>
<path d="M196.91 128.797H168.584V138.503H196.91V128.797Z" fill="white"/>
<path d="M166.213 129.245V149.773C166.213 150.341 166.672 150.808 167.249 150.808H197.468C198.036 150.808 198.504 150.351 198.504 149.773V131.266C198.504 130.698 198.046 130.23 197.468 130.23H179.092C178.723 130.23 178.375 130.031 178.195 129.702L177.618 128.687C177.468 128.428 177.189 128.259 176.881 128.259H167.229C166.672 128.269 166.213 128.707 166.213 129.245Z" fill="#D684DB"/>
<path d="M196.91 170.869H168.584V180.576H196.91V170.869Z" fill="white"/>
<path d="M166.213 171.317V191.846C166.213 192.413 166.672 192.881 167.249 192.881H197.468C198.036 192.881 198.504 192.423 198.504 191.846V173.338C198.504 172.771 198.046 172.303 197.468 172.303H179.092C178.723 172.303 178.375 172.104 178.195 171.775L177.618 170.76C177.468 170.501 177.189 170.332 176.881 170.332H167.229C166.672 170.341 166.213 170.78 166.213 171.317Z" fill="#D684DB"/>
<path d="M196.91 209.338H168.584V219.045H196.91V209.338Z" fill="white"/>
<path d="M166.213 209.786V230.314C166.213 230.882 166.672 231.35 167.249 231.35H197.468C198.036 231.35 198.504 230.892 198.504 230.314V211.807C198.504 211.239 198.046 210.772 197.468 210.772H179.092C178.723 210.772 178.375 210.572 178.195 210.244L177.618 209.228C177.468 208.97 177.189 208.8 176.881 208.8H167.229C166.672 208.81 166.213 209.248 166.213 209.786Z" fill="#D684DB"/>
<path d="M344.169 127.841H228.473V168.51H344.169V127.841Z" fill="white"/>
<path d="M218.792 129.742V215.749C218.792 218.139 220.685 220.08 223.015 220.08H346.479C348.81 220.08 350.702 218.139 350.702 215.749V138.205C350.702 135.815 348.81 133.874 346.479 133.874H271.391C269.877 133.874 268.473 133.038 267.726 131.684L265.365 127.423C264.758 126.328 263.602 125.641 262.337 125.641H222.896C220.625 125.651 218.792 127.482 218.792 129.742Z" fill="#D684DB"/>
<path d="M214.38 162.875C214.101 162.875 213.882 162.656 213.882 162.377V136.293C213.882 136.014 214.101 135.795 214.38 135.795C214.659 135.795 214.878 136.014 214.878 136.293V162.377C214.878 162.646 214.649 162.875 214.38 162.875Z" fill="#D684DB"/>
<path d="M214.38 133.366C214.101 133.366 213.882 133.147 213.882 132.868V129.623C213.882 129.344 214.101 129.125 214.38 129.125C214.659 129.125 214.878 129.344 214.878 129.623V132.868C214.878 133.147 214.649 133.366 214.38 133.366Z" fill="#D684DB"/>
<path d="M306.131 197.102H268.921V185.394C268.921 174.991 277.267 166.538 287.526 166.538C297.785 166.538 306.131 175.001 306.131 185.394V197.102ZM273.054 192.901H301.978V185.394C301.978 177.31 295.494 170.73 287.516 170.73C279.538 170.73 273.054 177.31 273.054 185.394V192.901Z" fill="#E0E0E0"/>
<path d="M307.048 231.897H267.995C265.206 231.897 262.945 229.638 262.945 226.85V197.302C262.945 194.514 265.206 192.254 267.995 192.254H307.048C309.837 192.254 312.098 194.514 312.098 197.302V226.85C312.098 229.638 309.837 231.897 307.048 231.897Z" fill="#D684DB"/>
<g opacity="0.3">
<path d="M307.048 227.288H267.995C265.206 227.288 262.945 225.028 262.945 222.24V197.302C262.945 194.514 265.206 192.254 267.995 192.254H307.048C309.837 192.254 312.098 194.514 312.098 197.302V222.24C312.098 225.018 309.837 227.288 307.048 227.288Z" fill="black"/>
</g>
<path d="M293.144 206.68C293.144 209.945 290.534 212.593 287.307 212.593C284.08 212.593 281.47 209.945 281.47 206.68C281.47 203.414 284.08 200.766 287.307 200.766C290.534 200.756 293.144 203.414 293.144 206.68Z" fill="#263238"/>
<path d="M286.132 208.452L283.781 218.766H291.789L288.632 208.392L286.132 208.452Z" fill="#263238"/>
<path d="M331.54 188.282C326.171 188.282 321.301 184.558 320.016 179.033C319.289 175.907 319.807 172.691 321.46 169.963C323.123 167.235 325.733 165.324 328.811 164.587L341.619 161.521C344.697 160.784 347.874 161.302 350.573 162.994C353.262 164.677 355.145 167.325 355.882 170.451C357.386 176.892 353.432 183.374 347.077 184.897L334.269 187.963C333.352 188.182 332.446 188.282 331.54 188.282ZM344.348 166.1C343.82 166.1 343.272 166.16 342.735 166.29L329.926 169.356C326.161 170.262 323.831 174.095 324.717 177.908C325.603 181.721 329.388 184.09 333.153 183.184L345.962 180.118C349.727 179.212 352.057 175.379 351.171 171.566C350.404 168.301 347.525 166.1 344.348 166.1Z" fill="#E0E0E0"/>
<path d="M299.428 182.866C298.243 182.866 297.197 181.98 297.038 180.745C296.859 179.401 297.785 178.167 299.11 177.988L327.575 174.045C328.9 173.866 330.115 174.802 330.295 176.136C330.474 177.48 329.547 178.714 328.223 178.894L299.757 182.836C299.648 182.856 299.538 182.866 299.428 182.866Z" fill="#E0E0E0"/>
<g opacity="0.3">
<path d="M299.927 177.868L304.299 177.271L303.96 176.584L299.648 177.42L299.927 177.868Z" fill="black"/>
</g>
<g opacity="0.3">
<path d="M301.709 182.577L305.833 181.99L305.952 182.806L301.839 183.294L301.709 182.577Z" fill="black"/>
</g>
<g opacity="0.3">
<path d="M320.255 180.019L325.195 179.322L325.564 180.019L320.594 180.895L320.255 180.019Z" fill="black"/>
</g>
<g opacity="0.3">
<path d="M319.727 175.051L324.797 174.414L324.976 173.776L319.827 174.314L319.727 175.051Z" fill="black"/>
</g>
<path d="M381.778 175.708C376.419 175.986 371.36 172.522 369.796 167.076C368.909 164 369.258 160.754 370.782 157.937C372.306 155.129 374.816 153.078 377.854 152.182L390.483 148.449C393.521 147.553 396.718 147.911 399.497 149.455C402.275 150.998 404.287 153.546 405.174 156.623C406.996 162.974 403.391 169.655 397.116 171.516L384.487 175.25C383.581 175.509 382.674 175.658 381.778 175.708ZM393.441 152.879C392.913 152.909 392.375 152.999 391.837 153.158L379.208 156.891C375.493 157.987 373.352 161.939 374.437 165.702C375.523 169.465 379.417 171.636 383.132 170.541L395.762 166.807C399.477 165.712 401.618 161.76 400.532 157.997C399.606 154.771 396.608 152.71 393.441 152.879Z" fill="#E0E0E0"/>
<path d="M349.428 171.964C348.242 172.024 347.157 171.188 346.928 169.973C346.679 168.639 347.545 167.365 348.85 167.106L377.087 161.68C378.401 161.431 379.666 162.297 379.915 163.632C380.164 164.966 379.298 166.24 377.993 166.499L349.756 171.925C349.647 171.944 349.537 171.954 349.428 171.964Z" fill="#E0E0E0"/>
<g opacity="0.3">
<path d="M348.661 167.215L353.89 166.16L353.452 165.443L348.342 166.847L348.661 167.215Z" fill="black"/>
</g>
<g opacity="0.3">
<path d="M351.011 171.676L355.792 170.77L355.842 171.546L351.011 172.472V171.676Z" fill="black"/>
</g>
<g opacity="0.3">
<path d="M370.085 168.042L374.985 167.086L375.383 167.763L370.473 168.898L370.085 168.042Z" fill="black"/>
</g>
<g opacity="0.3">
<path d="M369.308 163.104L374.338 162.208L374.487 161.561L369.368 162.357L369.308 163.104Z" fill="black"/>
</g>
<path d="M400.293 160.356C399.108 160.416 398.022 159.579 397.793 158.365C397.544 157.031 398.411 155.756 399.716 155.498L427.952 150.072C429.267 149.823 430.532 150.689 430.781 152.023C431.03 153.357 430.163 154.631 428.859 154.89L400.622 160.316C400.512 160.336 400.403 160.346 400.293 160.356Z" fill="#E0E0E0"/>
<g opacity="0.3">
<path d="M399.526 155.597L404.746 154.542L404.317 153.835L399.208 155.239L399.526 155.597Z" fill="black"/>
</g>
<g opacity="0.3">
<path d="M401.877 160.067L406.648 159.151L406.708 159.938L401.877 160.864V160.067Z" fill="black"/>
</g>
<path d="M240.475 187.644L227.667 184.578C221.312 183.055 217.358 176.574 218.862 170.132C219.589 167.006 221.472 164.368 224.171 162.676C226.86 160.993 230.047 160.465 233.125 161.202L245.933 164.269C249.011 165.005 251.62 166.917 253.284 169.645C254.947 172.372 255.465 175.598 254.728 178.714C253.443 184.23 248.563 187.963 243.204 187.963C242.308 187.973 241.392 187.863 240.475 187.644ZM223.573 171.257C222.687 175.07 225.017 178.903 228.782 179.809L241.591 182.876C245.356 183.782 249.14 181.412 250.027 177.599C250.913 173.786 248.583 169.953 244.818 169.047L232.009 165.981C231.471 165.851 230.924 165.792 230.396 165.792C227.228 165.782 224.34 167.992 223.573 171.257Z" fill="#E0E0E0"/>
<path d="M275.325 182.557C276.51 182.557 277.556 181.671 277.716 180.437C277.895 179.093 276.969 177.858 275.644 177.679L247.178 173.736C245.854 173.557 244.638 174.493 244.459 175.827C244.28 177.171 245.206 178.406 246.531 178.585L274.997 182.527C275.106 182.547 275.216 182.557 275.325 182.557Z" fill="#E0E0E0"/>
<g opacity="0.3">
<path d="M275.226 177.609L270.694 176.992L271.112 176.305L275.554 177.171L275.226 177.609Z" fill="black"/>
</g>
<g opacity="0.3">
<path d="M273.433 182.318L269.31 181.761L269.2 182.577L273.313 183.065L273.433 182.318Z" fill="black"/>
</g>
<g opacity="0.3">
<path d="M254.489 179.71L249.549 179.013L249.19 179.71L254.15 180.586L254.489 179.71Z" fill="black"/>
</g>
<g opacity="0.3">
<path d="M255.017 174.742L249.957 174.105L249.768 173.468L254.917 174.005L255.017 174.742Z" fill="black"/>
</g>
<path d="M189.918 176.136L177.289 172.402C171.014 170.551 167.399 163.87 169.231 157.509C170.118 154.432 172.13 151.884 174.909 150.341C177.687 148.797 180.885 148.439 183.922 149.335L196.552 153.068C199.59 153.964 202.099 156.005 203.623 158.823C205.147 161.63 205.496 164.876 204.609 167.962C203.046 173.408 197.986 176.872 192.627 176.594C191.731 176.554 190.825 176.405 189.918 176.136ZM173.873 158.883C172.787 162.646 174.929 166.598 178.644 167.693L191.273 171.427C194.988 172.522 198.882 170.351 199.968 166.588C201.054 162.825 198.912 158.873 195.197 157.777L182.568 154.044C182.03 153.885 181.502 153.795 180.964 153.765C177.797 153.606 174.799 155.667 173.873 158.883Z" fill="#E0E0E0"/>
<path d="M224.978 172.86C226.163 172.92 227.248 172.084 227.477 170.869C227.726 169.535 226.86 168.261 225.555 168.002L197.319 162.576C196.004 162.327 194.739 163.193 194.49 164.527C194.241 165.861 195.107 167.136 196.412 167.395L224.649 172.82C224.758 172.84 224.868 172.85 224.978 172.86Z" fill="#E0E0E0"/>
<g opacity="0.3">
<path d="M225.346 167.962L220.127 166.907L220.555 166.2L225.675 167.604L225.346 167.962Z" fill="black"/>
</g>
<g opacity="0.3">
<path d="M223.384 172.572L218.613 171.666L218.563 172.452L223.384 173.368V172.572Z" fill="black"/>
</g>
<g opacity="0.3">
<path d="M204.32 168.938L199.42 167.982L199.022 168.659L203.932 169.794L204.32 168.938Z" fill="black"/>
</g>
<g opacity="0.3">
<path d="M205.097 164L200.068 163.104L199.918 162.457L205.038 163.263L205.097 164Z" fill="black"/>
</g>
<path d="M175.367 159.49C176.542 159.689 177.707 158.982 178.066 157.797C178.464 156.503 177.747 155.129 176.472 154.731L149.022 146.109C147.748 145.711 146.393 146.428 145.995 147.722C145.596 149.017 146.313 150.39 147.588 150.789L175.038 159.41C175.148 159.44 175.257 159.47 175.367 159.49Z" fill="#E0E0E0"/>
<g opacity="0.3">
<path d="M176.661 154.851L171.582 153.208L172.09 152.551L177.02 154.532L176.661 154.851Z" fill="black"/>
</g>
<g opacity="0.3">
<path d="M173.823 159.022L169.182 157.568L169.032 158.345L173.733 159.809L173.823 159.022Z" fill="black"/>
</g>
<path d="M325.733 258.21H245.734C240.834 258.21 236.87 254.238 236.87 249.35C236.87 244.452 240.844 240.489 245.734 240.489H325.733C330.633 240.489 334.597 244.461 334.597 249.35C334.597 254.238 330.633 258.21 325.733 258.21Z" fill="#D684DB"/>
<g opacity="0.3">
<path d="M325.733 258.21H245.734C240.834 258.21 236.87 254.238 236.87 249.35C236.87 244.452 240.844 240.489 245.734 240.489H325.733C330.633 240.489 334.597 244.461 334.597 249.35C334.597 254.238 330.633 258.21 325.733 258.21Z" fill="black"/>
</g>
<path d="M327.984 258.21H248.114C243.214 258.21 239.25 254.238 239.25 249.35C239.25 244.452 243.224 240.489 248.114 240.489H327.984C332.884 240.489 336.848 244.461 336.848 249.35C336.848 254.238 332.884 258.21 327.984 258.21Z" fill="#D684DB"/>
<path d="M258.732 247.319C259.11 247.528 259.409 247.827 259.628 248.215C259.847 248.603 259.947 249.051 259.947 249.559C259.947 250.067 259.837 250.515 259.628 250.903C259.409 251.291 259.12 251.59 258.732 251.799C258.353 252.008 257.935 252.117 257.467 252.117C256.83 252.117 256.332 251.918 255.973 251.52V253.84H254.529V247.08H255.903V247.647C256.262 247.219 256.78 247 257.467 247C257.935 247 258.353 247.11 258.732 247.319ZM258.134 250.564C258.373 250.315 258.493 249.977 258.493 249.559C258.493 249.141 258.373 248.802 258.134 248.553C257.895 248.304 257.596 248.175 257.228 248.175C256.859 248.175 256.551 248.294 256.322 248.553C256.083 248.802 255.963 249.141 255.963 249.559C255.963 249.977 256.083 250.315 256.322 250.564C256.561 250.813 256.859 250.943 257.228 250.943C257.587 250.933 257.895 250.813 258.134 250.564Z" fill="white"/>
<path d="M264.598 247.548C265.007 247.916 265.216 248.464 265.216 249.2V252.038H263.871V251.421C263.602 251.879 263.094 252.117 262.357 252.117C261.979 252.117 261.64 252.048 261.361 251.928C261.083 251.799 260.863 251.62 260.724 251.391C260.575 251.162 260.505 250.903 260.505 250.614C260.505 250.156 260.674 249.788 261.023 249.529C261.371 249.26 261.909 249.131 262.636 249.131H263.782C263.782 248.812 263.682 248.573 263.493 248.404C263.304 248.235 263.015 248.155 262.636 248.155C262.367 248.155 262.108 248.195 261.859 248.275C261.6 248.354 261.391 248.474 261.212 248.613L260.694 247.608C260.963 247.418 261.292 247.269 261.67 247.16C262.049 247.06 262.437 247 262.836 247C263.592 247 264.19 247.189 264.598 247.548ZM263.373 250.973C263.563 250.863 263.702 250.694 263.782 250.475V249.967H262.796C262.208 249.967 261.909 250.156 261.909 250.544C261.909 250.734 261.979 250.873 262.128 250.983C262.278 251.092 262.467 251.142 262.726 251.142C262.965 251.152 263.184 251.092 263.373 250.973Z" fill="white"/>
<path d="M271.361 247.08L269.12 252.346C268.891 252.924 268.612 253.322 268.274 253.551C267.935 253.79 267.537 253.899 267.059 253.899C266.8 253.899 266.541 253.86 266.292 253.78C266.043 253.7 265.833 253.591 265.674 253.451L266.202 252.426C266.312 252.526 266.441 252.605 266.58 252.655C266.73 252.715 266.869 252.735 267.009 252.735C267.208 252.735 267.367 252.685 267.487 252.595C267.606 252.496 267.716 252.346 267.815 252.117L267.835 252.068L265.684 247.06H267.168L268.562 250.425L269.967 247.06H271.361V247.08Z" fill="white"/>
<path d="M276.142 247.189H277.417V248.294H276.182V252.038H274.738V248.294H273.971V247.189H274.738V246.97C274.738 246.403 274.907 245.955 275.246 245.626C275.584 245.298 276.052 245.129 276.66 245.129C276.879 245.129 277.078 245.148 277.277 245.198C277.467 245.248 277.636 245.308 277.765 245.397L277.387 246.443C277.218 246.323 277.028 246.263 276.809 246.263C276.371 246.263 276.152 246.502 276.152 246.98V247.189H276.142Z" fill="white"/>
<path d="M279.03 251.789C278.612 251.57 278.293 251.271 278.054 250.883C277.825 250.495 277.706 250.057 277.706 249.559C277.706 249.061 277.825 248.623 278.054 248.235C278.283 247.846 278.612 247.548 279.03 247.329C279.449 247.11 279.917 247 280.435 247C280.963 247 281.431 247.11 281.839 247.329C282.248 247.548 282.576 247.846 282.805 248.235C283.034 248.623 283.154 249.061 283.154 249.559C283.154 250.047 283.034 250.495 282.805 250.883C282.576 251.271 282.248 251.57 281.839 251.789C281.431 252.008 280.963 252.117 280.435 252.117C279.917 252.117 279.449 252.008 279.03 251.789ZM281.351 250.564C281.59 250.315 281.71 249.977 281.71 249.559C281.71 249.141 281.59 248.802 281.351 248.553C281.112 248.304 280.813 248.175 280.445 248.175C280.076 248.175 279.768 248.294 279.528 248.553C279.289 248.802 279.17 249.141 279.17 249.559C279.17 249.977 279.289 250.315 279.528 250.564C279.768 250.813 280.076 250.943 280.445 250.943C280.803 250.933 281.112 250.813 281.351 250.564Z" fill="white"/>
<path d="M286.192 247.189C286.48 247.07 286.819 247 287.208 247V248.334C287.048 248.324 286.939 248.314 286.889 248.314C286.48 248.314 286.152 248.434 285.923 248.663C285.694 248.892 285.574 249.24 285.574 249.698V252.048H284.13V247.08H285.504V247.737C285.674 247.488 285.903 247.309 286.192 247.189Z" fill="white"/>
<path d="M295.723 247.08V252.048H294.359V251.46C294.17 251.679 293.941 251.839 293.672 251.958C293.403 252.068 293.124 252.127 292.815 252.127C292.158 252.127 291.65 251.938 291.261 251.56C290.883 251.182 290.684 250.624 290.684 249.887V247.08H292.128V249.678C292.128 250.475 292.466 250.883 293.134 250.883C293.482 250.883 293.751 250.773 293.96 250.544C294.17 250.315 294.269 249.987 294.269 249.539V247.08H295.723Z" fill="white"/>
<path d="M301.57 247.558C301.948 247.926 302.138 248.474 302.138 249.2V252.048H300.693V249.429C300.693 249.031 300.604 248.742 300.435 248.553C300.265 248.354 300.016 248.265 299.688 248.265C299.319 248.265 299.03 248.374 298.821 248.603C298.602 248.832 298.502 249.161 298.502 249.609V252.068H297.058V247.1H298.433V247.677C298.622 247.468 298.861 247.309 299.14 247.189C299.419 247.08 299.737 247.02 300.076 247.02C300.694 247 301.192 247.189 301.57 247.558Z" fill="white"/>
<path d="M303.442 245.198H304.887V252.048H303.442V245.198Z" fill="white"/>
<path d="M307.177 251.789C306.759 251.57 306.44 251.271 306.201 250.883C305.962 250.495 305.853 250.057 305.853 249.559C305.853 249.061 305.972 248.623 306.201 248.235C306.43 247.846 306.759 247.548 307.177 247.329C307.596 247.11 308.064 247 308.582 247C309.11 247 309.568 247.11 309.986 247.329C310.404 247.548 310.723 247.846 310.952 248.235C311.181 248.623 311.301 249.061 311.301 249.559C311.301 250.047 311.181 250.495 310.952 250.883C310.713 251.271 310.395 251.57 309.986 251.789C309.578 252.008 309.11 252.117 308.582 252.117C308.064 252.117 307.596 252.008 307.177 251.789ZM309.498 250.564C309.737 250.315 309.857 249.977 309.857 249.559C309.857 249.141 309.737 248.802 309.498 248.553C309.259 248.304 308.96 248.175 308.592 248.175C308.223 248.175 307.915 248.294 307.675 248.553C307.436 248.802 307.317 249.141 307.317 249.559C307.317 249.977 307.436 250.315 307.675 250.564C307.915 250.813 308.223 250.943 308.592 250.943C308.96 250.933 309.259 250.813 309.498 250.564Z" fill="white"/>
<path d="M313.243 251.789C312.825 251.57 312.496 251.271 312.257 250.883C312.018 250.495 311.898 250.057 311.898 249.559C311.898 249.061 312.018 248.623 312.257 248.235C312.496 247.846 312.825 247.548 313.243 247.329C313.661 247.11 314.139 247 314.667 247C315.195 247 315.643 247.11 316.042 247.329C316.43 247.548 316.719 247.856 316.898 248.265L315.783 248.862C315.524 248.404 315.155 248.175 314.667 248.175C314.289 248.175 313.98 248.294 313.731 248.543C313.482 248.792 313.363 249.121 313.363 249.549C313.363 249.977 313.482 250.306 313.731 250.554C313.98 250.803 314.289 250.923 314.667 250.923C315.155 250.923 315.534 250.694 315.783 250.236L316.898 250.843C316.719 251.241 316.44 251.54 316.042 251.769C315.653 251.988 315.195 252.098 314.667 252.098C314.139 252.117 313.671 252.008 313.243 251.789Z" fill="white"/>
<path d="M319.826 250.096L319.129 250.783V252.048H317.685V245.198H319.129V249.071L321.231 247.08H322.954L320.882 249.181L323.133 252.038H321.39L319.826 250.096Z" fill="white"/>
<path d="M159.849 342.017C159.849 342.017 166.452 331.066 172.369 334.749C178.285 338.443 177.159 348.419 171.213 349.673C165.257 350.927 160.835 348.209 160.835 348.209L159.849 342.017Z" fill="#D684DB"/>
<path opacity="0.4" d="M159.849 342.017C159.849 342.017 166.452 331.066 172.369 334.749C178.285 338.443 177.159 348.419 171.213 349.673C165.257 350.927 160.835 348.209 160.835 348.209L159.849 342.017Z" fill="white"/>
<path d="M155.616 372.213C155.616 372.213 173.205 337.995 154.012 334.65C134.819 331.305 136.453 362.725 143.007 370.5C149.58 378.276 155.616 372.213 155.616 372.213Z" fill="#D684DB"/>
<path opacity="0.5" d="M155.616 372.213C155.616 372.213 173.205 337.995 154.012 334.65C134.819 331.305 136.453 362.725 143.007 370.5C149.58 378.276 155.616 372.213 155.616 372.213Z" fill="white"/>
<path d="M144.411 336.701C144.411 336.701 146.672 307.113 133.306 306.893C119.939 306.674 111.174 334.461 140.118 343.172C140.118 343.172 144.281 339.588 144.411 336.701Z" fill="#D684DB"/>
<path opacity="0.4" d="M144.411 336.701C144.411 336.701 146.672 307.113 133.306 306.893C119.939 306.674 111.174 334.461 140.118 343.172C140.118 343.172 144.281 339.588 144.411 336.701Z" fill="white"/>
<path d="M127.479 307.162C127.817 307.6 128.106 308.078 128.345 308.576" stroke="#D684DB" stroke-width="0.5" stroke-miterlimit="10" stroke-linecap="round" stroke-linejoin="round"/>
<path d="M121.971 310.398C122.847 311.364 123.833 312.23 124.909 312.976" stroke="#D684DB" stroke-width="0.5" stroke-miterlimit="10" stroke-linecap="round" stroke-linejoin="round"/>
<path d="M120.218 315.505C121.005 315.943 121.792 316.381 122.589 316.819" stroke="#D684DB" stroke-width="0.5" stroke-miterlimit="10" stroke-linecap="round" stroke-linejoin="round"/>
<path d="M125.298 327.601C126.084 328.039 126.871 328.477 127.668 328.915" stroke="#D684DB" stroke-width="0.5" stroke-miterlimit="10" stroke-linecap="round" stroke-linejoin="round"/>
<path d="M121.005 330.887C121.881 331.006 122.798 330.717 123.455 330.13" stroke="#D684DB" stroke-width="0.5" stroke-miterlimit="10" stroke-linecap="round" stroke-linejoin="round"/>
<path d="M124.142 335.606C124.67 335.098 125.128 334.521 125.487 333.893" stroke="#D684DB" stroke-width="0.5" stroke-miterlimit="10" stroke-linecap="round" stroke-linejoin="round"/>
<path d="M128.365 339.13C128.654 338.443 128.923 337.756 129.172 337.049" stroke="#D684DB" stroke-width="0.5" stroke-miterlimit="10" stroke-linecap="round" stroke-linejoin="round"/>
<path d="M131.144 340.922C131.652 340.205 132.08 339.439 132.409 338.622" stroke="#D684DB" stroke-width="0.5" stroke-miterlimit="10" stroke-linecap="round" stroke-linejoin="round"/>
<path d="M137.538 343.7C137.06 342.943 136.901 341.997 137.1 341.131" stroke="#D684DB" stroke-width="0.5" stroke-miterlimit="10" stroke-linecap="round" stroke-linejoin="round"/>
<path d="M146.692 333.206C145.646 333.714 144.501 333.993 143.335 334.023" stroke="#D684DB" stroke-width="0.5" stroke-miterlimit="10" stroke-linecap="round" stroke-linejoin="round"/>
<path d="M145.407 329.134C144.57 329.443 143.654 329.533 142.768 329.383" stroke="#D684DB" stroke-width="0.5" stroke-miterlimit="10" stroke-linecap="round" stroke-linejoin="round"/>
<path d="M145.118 324.515C144.421 324.356 143.724 324.187 143.026 324.027" stroke="#D684DB" stroke-width="0.5" stroke-miterlimit="10" stroke-linecap="round" stroke-linejoin="round"/>
<path d="M139.023 323.629C138.325 323.47 137.628 323.3 136.931 323.141" stroke="#D684DB" stroke-width="0.5" stroke-miterlimit="10" stroke-linecap="round" stroke-linejoin="round"/>
<path d="M137.668 318.104C137.08 318.512 136.493 318.92 135.905 319.328" stroke="#D684DB" stroke-width="0.5" stroke-miterlimit="10" stroke-linecap="round" stroke-linejoin="round"/>
<path d="M138.335 307.411C137.917 307.989 137.499 308.576 137.08 309.153" stroke="#D684DB" stroke-width="0.5" stroke-miterlimit="10" stroke-linecap="round" stroke-linejoin="round"/>
<path d="M144.391 319.846C143.764 319.945 143.146 320.045 142.519 320.145" stroke="#D684DB" stroke-width="0.5" stroke-miterlimit="10" stroke-linecap="round" stroke-linejoin="round"/>
<path d="M143.465 316.252C142.867 316.341 142.279 316.441 141.682 316.531" stroke="#D684DB" stroke-width="0.5" stroke-miterlimit="10" stroke-linecap="round" stroke-linejoin="round"/>
<path d="M141.463 312.21C140.606 312.688 139.75 313.156 138.893 313.633" stroke="#D684DB" stroke-width="0.5" stroke-miterlimit="10" stroke-linecap="round" stroke-linejoin="round"/>
<path d="M132.648 306.615C132.808 307.441 132.907 308.287 132.937 309.124" stroke="#D684DB" stroke-width="0.5" stroke-miterlimit="10" stroke-linecap="round" stroke-linejoin="round"/>
<path d="M128.923 313.653C129.61 314.161 130.228 314.768 130.756 315.445" stroke="#D684DB" stroke-width="0.5" stroke-miterlimit="10" stroke-linecap="round" stroke-linejoin="round"/>
<path d="M128.296 319.687C129.053 319.836 129.82 319.906 130.586 319.876" stroke="#D684DB" stroke-width="0.5" stroke-miterlimit="10" stroke-linecap="round" stroke-linejoin="round"/>
<path d="M129.7 324.903C129.76 325.023 129.939 324.933 130.029 324.844C130.497 324.366 130.975 323.898 131.443 323.42" stroke="#D684DB" stroke-width="0.5" stroke-miterlimit="10" stroke-linecap="round" stroke-linejoin="round"/>
<path d="M131.781 330.12C132.349 329.622 132.867 329.065 133.325 328.467" stroke="#D684DB" stroke-width="0.5" stroke-miterlimit="10" stroke-linecap="round" stroke-linejoin="round"/>
<path d="M138.365 328.716C138.933 328.218 139.451 327.661 139.909 327.064" stroke="#D684DB" stroke-width="0.5" stroke-miterlimit="10" stroke-linecap="round" stroke-linejoin="round"/>
<path d="M135.377 334.859C135.646 334.202 136.045 333.595 136.543 333.087" stroke="#D684DB" stroke-width="0.5" stroke-miterlimit="10" stroke-linecap="round" stroke-linejoin="round"/>
<path d="M129.879 334.948C130.148 334.291 130.546 333.684 131.044 333.176" stroke="#D684DB" stroke-width="0.5" stroke-miterlimit="10" stroke-linecap="round" stroke-linejoin="round"/>
<path d="M139.869 338.294C140.038 337.487 139.979 336.631 139.7 335.845" stroke="#D684DB" stroke-width="0.5" stroke-miterlimit="10" stroke-linecap="round" stroke-linejoin="round"/>
<path d="M135.507 312.708C135.168 313.395 134.829 314.082 134.501 314.778" stroke="#D684DB" stroke-width="0.5" stroke-miterlimit="10" stroke-linecap="round" stroke-linejoin="round"/>
<path d="M121.603 320.344C122.12 321.011 122.768 321.568 123.495 321.986" stroke="#D684DB" stroke-width="0.5" stroke-miterlimit="10" stroke-linecap="round" stroke-linejoin="round"/>
<path d="M119.73 326.964C120.417 326.924 121.114 326.884 121.802 326.845" stroke="#D684DB" stroke-width="0.5" stroke-miterlimit="10" stroke-linecap="round" stroke-linejoin="round"/>
<path d="M152.219 332.679C152.737 333.585 153.046 334.62 153.096 335.655" stroke="#D684DB" stroke-width="0.5" stroke-miterlimit="10" stroke-linecap="round" stroke-linejoin="round"/>
<path d="M158.445 333.903C158.654 335.098 158.315 336.372 157.558 337.308" stroke="#D684DB" stroke-width="0.5" stroke-miterlimit="10" stroke-linecap="round" stroke-linejoin="round"/>
<path d="M145.755 335.456C146.154 336.064 146.632 336.611 147.18 337.079" stroke="#D684DB" stroke-width="0.5" stroke-miterlimit="10" stroke-linecap="round" stroke-linejoin="round"/>
<path d="M137.588 347.294C138.694 347.463 139.79 347.672 140.875 347.921" stroke="#D684DB" stroke-width="0.5" stroke-miterlimit="10" stroke-linecap="round" stroke-linejoin="round"/>
<path d="M136.612 353.685C137.529 354.541 138.983 354.76 140.108 354.203" stroke="#D684DB" stroke-width="0.5" stroke-miterlimit="10" stroke-linecap="round" stroke-linejoin="round"/>
<path d="M138.046 361.331C138.853 360.923 139.69 360.555 140.536 360.246" stroke="#D684DB" stroke-width="0.5" stroke-miterlimit="10" stroke-linecap="round" stroke-linejoin="round"/>
<path d="M139.381 367.932C140.138 367.394 140.895 366.856 141.652 366.319" stroke="#D684DB" stroke-width="0.5" stroke-miterlimit="10" stroke-linecap="round" stroke-linejoin="round"/>
<path d="M160.636 365.951C159.241 365.831 157.867 365.512 156.562 365.005" stroke="#D684DB" stroke-width="0.5" stroke-miterlimit="10" stroke-linecap="round" stroke-linejoin="round"/>
<path d="M161.462 362.496C160.705 362.297 159.958 362.068 159.221 361.809" stroke="#D684DB" stroke-width="0.5" stroke-miterlimit="10" stroke-linecap="round" stroke-linejoin="round"/>
<path d="M163.504 356.821C162.339 356.801 161.173 356.771 160.018 356.751" stroke="#D684DB" stroke-width="0.5" stroke-miterlimit="10" stroke-linecap="round" stroke-linejoin="round"/>
<path d="M164.43 352.381C163.464 352.252 162.508 352.023 161.592 351.684" stroke="#D684DB" stroke-width="0.5" stroke-miterlimit="10" stroke-linecap="round" stroke-linejoin="round"/>
<path d="M161.751 335.397C162.429 336.203 163.006 337.099 163.444 338.055" stroke="#D684DB" stroke-width="0.5" stroke-miterlimit="10" stroke-linecap="round" stroke-linejoin="round"/>
<path d="M167.179 333.804C167.448 334.62 167.717 335.426 167.986 336.243" stroke="#D684DB" stroke-width="0.5" stroke-miterlimit="10" stroke-linecap="round" stroke-linejoin="round"/>
<path d="M175.098 333.953C174.51 334.949 174.012 335.994 173.624 337.079" stroke="#D684DB" stroke-width="0.5" stroke-miterlimit="10" stroke-linecap="round" stroke-linejoin="round"/>
<path d="M177.478 339.558C176.94 340.344 176.024 340.872 175.068 340.932" stroke="#D684DB" stroke-width="0.5" stroke-miterlimit="10" stroke-linecap="round" stroke-linejoin="round"/>
<path d="M176.303 349.534C174.948 349.195 173.693 348.458 172.737 347.453" stroke="#D684DB" stroke-width="0.5" stroke-miterlimit="10" stroke-linecap="round" stroke-linejoin="round"/>
<path d="M168.604 351.863C168.434 350.917 168.305 349.962 168.235 348.996" stroke="#D684DB" stroke-width="0.5" stroke-miterlimit="10" stroke-linecap="round" stroke-linejoin="round"/>
<path d="M166.751 342.654C166.801 343.232 166.801 343.819 166.721 344.387" stroke="#D684DB" stroke-width="0.5" stroke-miterlimit="10" stroke-linecap="round" stroke-linejoin="round"/>
<path d="M171.432 340.444C171.641 341.33 171.412 342.306 170.835 343.013" stroke="#D684DB" stroke-width="0.5" stroke-miterlimit="10" stroke-linecap="round" stroke-linejoin="round"/>
<path d="M162.259 343.839C161.522 343.7 160.785 343.62 160.038 343.6" stroke="#D684DB" stroke-width="0.5" stroke-miterlimit="10" stroke-linecap="round" stroke-linejoin="round"/>
<path d="M156.014 348.787C156.124 348.05 156.164 347.304 156.144 346.557" stroke="#D684DB" stroke-width="0.5" stroke-miterlimit="10" stroke-linecap="round" stroke-linejoin="round"/>
<path d="M150.696 339.648C151.393 340.315 152 341.071 152.508 341.888" stroke="#D684DB" stroke-width="0.5" stroke-miterlimit="10" stroke-linecap="round" stroke-linejoin="round"/>
<path d="M153.544 345.133C152.887 346.029 151.861 346.646 150.755 346.816" stroke="#D684DB" stroke-width="0.5" stroke-miterlimit="10" stroke-linecap="round" stroke-linejoin="round"/>
<path d="M150.327 350.748C150.666 351.465 151.094 352.142 151.592 352.759" stroke="#D684DB" stroke-width="0.5" stroke-miterlimit="10" stroke-linecap="round" stroke-linejoin="round"/>
<path d="M153.405 357.747C152.03 358.344 150.466 358.962 149.072 358.414" stroke="#D684DB" stroke-width="0.5" stroke-miterlimit="10" stroke-linecap="round" stroke-linejoin="round"/>
<path d="M149.52 363.213C149.809 362.834 150.148 362.496 150.516 362.187" stroke="#D684DB" stroke-width="0.5" stroke-miterlimit="10" stroke-linecap="round" stroke-linejoin="round"/>
<path d="M155.078 361.968C155.367 361.59 155.706 361.251 156.074 360.943" stroke="#D684DB" stroke-width="0.5" stroke-miterlimit="10" stroke-linecap="round" stroke-linejoin="round"/>
<path d="M149.142 367.991C149.57 367.275 150.078 366.608 150.676 366.02" stroke="#D684DB" stroke-width="0.5" stroke-miterlimit="10" stroke-linecap="round" stroke-linejoin="round"/>
<path d="M142.927 343.68C143.634 344.217 144.281 344.835 144.859 345.512" stroke="#D684DB" stroke-width="0.5" stroke-miterlimit="10" stroke-linecap="round" stroke-linejoin="round"/>
<path d="M142.558 352.212C142.957 352.251 143.355 352.291 143.754 352.331" stroke="#D684DB" stroke-width="0.5" stroke-miterlimit="10" stroke-linecap="round" stroke-linejoin="round"/>
<path d="M142.598 357.717C143.106 357.807 143.614 357.896 144.112 357.996" stroke="#D684DB" stroke-width="0.5" stroke-miterlimit="10" stroke-linecap="round" stroke-linejoin="round"/>
<path d="M157.588 353.466C157.249 353.854 156.911 354.233 156.572 354.621" stroke="#D684DB" stroke-width="0.5" stroke-miterlimit="10" stroke-linecap="round" stroke-linejoin="round"/>
<path d="M143.405 363.87C144.042 363.681 144.68 363.491 145.317 363.312" stroke="#D684DB" stroke-width="0.5" stroke-miterlimit="10" stroke-linecap="round" stroke-linejoin="round"/>
<path d="M165.954 369.206H132.907L137.618 393.597H161.163L165.954 369.206Z" fill="#263238"/>
<path d="M167.379 369.206H131.015V375.07H167.379V369.206Z" fill="#263238"/>
<path d="M134.042 375.07L134.71 378.535L164.46 376.802L164.799 375.07H134.042Z" fill="black"/>
<path d="M470.899 272.218C470.899 272.218 468.519 320.025 458.21 328.258H469.226C469.226 328.258 479.047 311.971 479.784 272.218H470.899Z" fill="#263238"/>
<path opacity="0.6" d="M470.899 272.218C470.899 272.218 468.519 320.025 458.21 328.258H469.226C469.226 328.258 479.047 311.971 479.784 272.218H470.899Z" fill="white"/>
<path d="M426.478 324.296H474.654C477.124 324.296 479.126 326.297 479.126 328.766V332.221H421.996V328.766C422.006 326.297 424.008 324.296 426.478 324.296Z" fill="#D684DB"/>
<path opacity="0.3" d="M426.478 324.296H474.654C477.124 324.296 479.126 326.297 479.126 328.766V332.221H421.996V328.766C422.006 326.297 424.008 324.296 426.478 324.296Z" fill="black"/>
<path d="M477.154 378.953L455.133 377.031V348.12H447.384V377.021L425.283 378.953C423.33 379.142 421.846 380.784 421.846 382.736V385.673H450.491H451.926H480.571V382.736C480.581 380.784 479.097 379.142 477.154 378.953Z" fill="#263238"/>
<path d="M428.978 389.307C428.978 392.104 426.707 394.364 423.918 394.364C421.119 394.364 418.858 392.094 418.858 389.307C418.858 386.509 421.129 384.249 423.918 384.249C426.717 384.249 428.978 386.509 428.978 389.307Z" fill="#263238"/>
<path d="M473.459 389.307C473.459 392.104 475.73 394.364 478.519 394.364C481.318 394.364 483.579 392.094 483.579 389.307C483.579 386.509 481.308 384.249 478.519 384.249C475.72 384.249 473.459 386.509 473.459 389.307Z" fill="#263238"/>
<path d="M452.762 354.024H449.754C447.712 354.024 446.059 352.371 446.059 350.33V329.423H456.467V350.33C456.457 352.361 454.804 354.024 452.762 354.024Z" fill="#263238"/>
<path opacity="0.6" d="M452.762 354.024H449.754C447.712 354.024 446.059 352.371 446.059 350.33V329.423H456.467V350.33C456.457 352.361 454.804 354.024 452.762 354.024Z" fill="white"/>
<path d="M421.637 328.258H479.515C480.511 328.258 481.318 329.065 481.318 330.06V330.419C481.318 331.414 480.511 332.221 479.515 332.221H421.637C420.641 332.221 419.834 331.414 419.834 330.419V330.06C419.834 329.065 420.641 328.258 421.637 328.258Z" fill="#263238"/>
<path opacity="0.6" d="M421.637 328.258H479.515C480.511 328.258 481.318 329.065 481.318 330.06V330.419C481.318 331.414 480.511 332.221 479.515 332.221H421.637C420.641 332.221 419.834 331.414 419.834 330.419V330.06C419.834 329.065 420.641 328.258 421.637 328.258Z" fill="white"/>
<path d="M484.913 282.691H467.264C462.095 282.691 458.36 278.052 458.927 272.317L459.684 264.671C460.252 258.947 464.893 254.298 470.063 254.298H487.712C492.881 254.298 496.616 258.937 496.048 264.671L495.291 272.317C494.734 278.042 490.082 282.691 484.913 282.691Z" fill="#D684DB"/>
<path opacity="0.3" d="M484.913 282.691H467.264C462.095 282.691 458.36 278.052 458.927 272.317L459.684 264.671C460.252 258.947 464.893 254.298 470.063 254.298H487.712C492.881 254.298 496.616 258.937 496.048 264.671L495.291 272.317C494.734 278.042 490.082 282.691 484.913 282.691Z" fill="black"/>
<path opacity="0.2" d="M481.158 254.298L475.471 282.691H470.113L474.395 254.298H481.158Z" fill="black"/>
<path opacity="0.2" d="M479.365 282.691L479.116 286.106H469.774L470.113 282.691H479.365Z" fill="black"/>
<path d="M388.969 370.49L383.192 389.307L374.616 388.56L377.923 367.424L388.969 370.49Z" fill="#E9B376"/>
<path d="M381.698 386.768C380.562 387.823 379.088 387.863 377.973 386.997L377.744 385.414C377.544 384.05 376.738 383.184 375.273 383.373C374.556 383.462 373.57 384.259 372.973 385.563C371.907 387.903 370.244 388.908 370.244 388.908C370.244 388.908 363.7 392.164 361.349 392.881C359.945 393.309 358.073 393.956 357.077 395.459C356.788 395.887 356.529 396.395 356.31 396.992C356.13 397.48 356.13 398.595 356.13 398.615L372.714 398.605C372.714 398.605 374.407 397.619 375.124 397.649C376.399 397.699 376.977 398.804 376.977 398.804L383.002 398.844C383.002 398.844 383.122 397.918 383.281 396.564C383.361 395.957 383.441 395.26 383.53 394.523C383.919 391.367 384.526 387.405 384.636 386.509C384.815 384.946 381.698 386.768 381.698 386.768Z" fill="#263238"/>
<path d="M366.718 390.501C366.798 390.432 366.907 390.432 366.997 390.481C367.395 390.73 367.724 391.079 367.943 391.517C368.063 391.746 367.704 391.965 367.584 391.736C367.385 391.347 367.096 391.039 366.748 390.82C366.638 390.75 366.618 390.601 366.718 390.501Z" fill="#D684DB"/>
<path d="M368.003 389.814C368.082 389.745 368.192 389.745 368.282 389.794C368.68 390.043 369.009 390.392 369.228 390.83C369.347 391.059 368.989 391.278 368.869 391.049C368.67 390.66 368.381 390.352 368.033 390.133C367.913 390.063 367.893 389.904 368.003 389.814Z" fill="#D684DB"/>
<path d="M369.318 389.177C369.397 389.107 369.507 389.107 369.596 389.157C369.995 389.406 370.324 389.755 370.543 390.193C370.662 390.422 370.304 390.641 370.184 390.412C369.985 390.023 369.696 389.715 369.347 389.496C369.238 389.416 369.218 389.267 369.318 389.177Z" fill="#D684DB"/>
<path opacity="0.2" d="M356.638 396.266C356.519 396.504 356.409 396.753 356.31 397.032C356.13 397.52 356.13 398.635 356.13 398.655L372.714 398.645C372.714 398.645 374.407 397.659 375.124 397.689C376.399 397.739 376.977 398.844 376.977 398.844L383.002 398.884C383.002 398.884 383.122 397.958 383.281 396.604C383.291 396.494 383.311 396.375 383.321 396.266H356.638Z" fill="white"/>
<path d="M369.477 389.366C369.527 388.789 369.576 388.211 369.526 387.634C369.477 387.057 369.317 386.479 368.979 386.011C368.819 385.792 368.6 385.583 368.331 385.603C368.052 385.623 367.843 385.882 367.744 386.151C367.554 386.658 367.634 387.246 367.873 387.724C368.112 388.211 369.048 389.028 369.477 389.366Z" stroke="#D684DB" stroke-width="0.25" stroke-miterlimit="10"/>
<path d="M369.546 389.366C369.775 388.839 370.005 388.301 370.313 387.823C370.632 387.335 371.04 386.907 371.558 386.648C371.797 386.529 372.096 386.449 372.325 386.589C372.564 386.738 372.624 387.067 372.584 387.345C372.514 387.883 372.166 388.361 371.728 388.679C371.289 388.988 370.074 389.267 369.546 389.366Z" stroke="#D684DB" stroke-width="0.25" stroke-miterlimit="10"/>
<path d="M357.256 367.802L345.961 383.921L338.043 380.575L347.694 361.48L357.256 367.802Z" fill="#E9B376"/>
<path d="M342.844 392.93L337.117 391.039C337.117 391.039 336.918 389.804 335.712 389.366C335.035 389.117 333.123 389.536 333.123 389.536L317.346 384.438C317.356 384.418 317.695 383.353 318.023 382.945C318.422 382.447 318.82 382.039 319.229 381.72C320.643 380.605 322.625 380.566 324.089 380.585C326.539 380.625 333.77 379.55 333.77 379.55C333.77 379.55 335.663 379.102 337.396 377.201C338.362 376.145 339.547 375.687 340.254 375.827C341.708 376.105 342.206 377.171 341.977 378.535L341.708 380.108C342.505 381.282 343.91 381.691 345.324 381.043C345.324 381.043 348.85 380.267 348.192 381.7C347.824 382.517 346.011 386.111 344.676 388.988C344.368 389.655 344.069 390.292 343.81 390.85C343.242 392.084 342.844 392.93 342.844 392.93Z" fill="#263238"/>
<path d="M329.926 379.988C330.015 379.948 330.125 379.978 330.195 380.058C330.493 380.416 330.703 380.844 330.782 381.332C330.822 381.591 330.414 381.681 330.374 381.422C330.304 380.994 330.125 380.615 329.866 380.297C329.766 380.197 329.796 380.048 329.926 379.988Z" fill="#D684DB"/>
<path d="M331.36 379.729C331.45 379.689 331.559 379.719 331.629 379.799C331.928 380.157 332.137 380.585 332.217 381.073C332.256 381.332 331.848 381.422 331.808 381.163C331.738 380.735 331.559 380.356 331.3 380.038C331.201 379.928 331.231 379.779 331.36 379.729C331.35 379.729 331.35 379.729 331.36 379.729Z" fill="#D684DB"/>
<path d="M332.804 379.52C332.894 379.48 333.003 379.51 333.073 379.59C333.372 379.948 333.581 380.376 333.661 380.864C333.7 381.123 333.292 381.213 333.252 380.954C333.183 380.526 333.003 380.147 332.744 379.829C332.655 379.729 332.684 379.58 332.804 379.52Z" fill="#D684DB"/>
<path opacity="0.2" d="M318.571 382.318C318.382 382.507 318.203 382.716 318.023 382.945C317.695 383.353 317.356 384.418 317.346 384.438L333.123 389.535C333.123 389.535 335.035 389.117 335.712 389.366C336.918 389.804 337.117 391.039 337.117 391.039L342.844 392.93C342.844 392.93 343.242 392.084 343.82 390.85C343.87 390.75 343.919 390.641 343.959 390.541L318.571 382.318Z" fill="white"/>
<path d="M332.894 379.749C333.123 379.222 333.342 378.684 333.471 378.116C333.601 377.549 333.631 376.952 333.451 376.404C333.372 376.145 333.222 375.876 332.963 375.817C332.694 375.747 332.416 375.936 332.236 376.155C331.898 376.583 331.798 377.161 331.878 377.698C331.947 378.236 332.595 379.291 332.894 379.749Z" stroke="#D684DB" stroke-width="0.25" stroke-miterlimit="10"/>
<path d="M332.963 379.769C333.342 379.331 333.72 378.893 334.169 378.535C334.617 378.176 335.145 377.887 335.712 377.798C335.981 377.758 336.29 377.778 336.459 377.977C336.639 378.196 336.599 378.525 336.479 378.773C336.24 379.261 335.772 379.61 335.254 379.779C334.736 379.948 333.501 379.839 332.963 379.769Z" stroke="#D684DB" stroke-width="0.25" stroke-miterlimit="10"/>
<path d="M427.394 298.451C427.394 298.451 377.843 306.455 370.005 313.026C361.499 320.164 336.001 371.745 336.001 371.745L352.306 378.893C352.306 378.893 375.084 337.706 379.108 334.919C383.132 332.131 433.858 320.543 433.858 320.543L427.394 298.451Z" fill="#263238"/>
<path opacity="0.4" d="M427.175 299.267L424.356 303.668L394.686 304.992C401.528 303.21 412.544 301.139 424.914 298.809L427.175 299.267Z" fill="black"/>
<path opacity="0.4" d="M380.015 308.934C380.015 308.934 378.511 312.339 377.525 317.018C376.897 320.005 372.803 343.63 373.013 343.311C373.222 342.993 381.479 333.087 381.479 333.087L386.299 307.013L380.015 308.934Z" fill="black"/>
<path d="M367.335 378.654L376.06 338.682L381.608 313.275C382.564 308.914 386.259 305.689 390.712 305.32L424.665 303.877L428.36 293.334L468.987 298.879C468.987 298.879 468.41 316.64 463.449 323.161C459.565 328.258 405.393 328.925 401.369 330.24L387.186 380.645L367.335 378.654Z" fill="#263238"/>
<path d="M421.318 227.915C418.799 226.691 416.269 225.516 413.858 224.162C419.974 220.249 429.565 215.7 434.964 212.653L432.942 207.406C427.713 208.8 422.613 210.403 417.544 212.325C413.639 213.828 409.765 215.381 406.04 217.541C403.998 218.796 401.916 220.19 401.01 222.748C399.685 226.79 402.604 229.219 405.452 231.34C413.4 237.054 422.175 241.057 431.179 244.7L435.422 234.177C430.761 232.186 425.94 230.076 421.318 227.915Z" fill="#E9B376"/>
<path d="M430.84 209.676L432.314 203.345C432.474 202.648 432.892 202.03 433.47 201.612L440.721 196.376C440.721 196.376 441.398 197.282 440.721 198.257L442.513 197.54C442.513 197.54 443.111 198.705 441.916 199.611C440.721 200.517 438.848 202.588 438.848 202.588L442.962 200.647C442.962 200.647 444.007 201.035 442.962 202.329C441.916 203.623 438.629 205.376 438.629 205.376C438.629 205.376 438.071 212.066 436.876 213.231C435.681 214.395 431.627 214.047 431.627 214.047L430.84 209.676Z" fill="#E9B376"/>
<path opacity="0.2" d="M416.946 225.685L411.936 235.551L413.181 236.288L417.902 226.243L416.946 225.685Z" fill="black"/>
<path d="M502.533 226.083C502.204 221.773 498.13 220.03 495.063 218.268C488.18 214.714 481.109 212.026 473.778 209.676L471.447 214.784C475.82 217.601 483.26 221.882 488.728 225.536C481.995 228.951 473.698 232.395 467.702 235.173L472.105 245.626C479.216 242.709 486.059 239.474 492.762 235.671C495.033 234.376 497.254 233.032 499.594 231.28C499.734 231.181 500.122 230.882 500.252 230.782C501.686 229.837 502.682 227.696 502.533 226.083Z" fill="#E9B376"/>
<path opacity="0.2" d="M488.728 225.536L493.11 224.401L487.433 224.689L488.728 225.536Z" fill="black"/>
<path d="M423.629 297.694L428.211 269.291L432.175 232.803L446.229 232.674L457.045 232.405L468.668 233.022L475.461 251.48C475.461 251.48 471.617 277.275 471.497 278.619C471.358 280.262 469.615 308.437 469.615 308.437C450.402 309.691 423.111 299.088 423.629 297.694Z" fill="#D684DB"/>
<path d="M430.093 251.998C426.677 250.096 417.912 243.894 414.426 241.943C411.219 240.151 411.219 240.151 411.219 240.151L418.45 224.749C418.45 224.749 427.105 228.204 435.163 232.017C435.163 232.017 435.82 231.688 436.229 231.718C436.637 231.738 438.042 233.938 438.042 233.938L430.093 251.998Z" fill="#D684DB"/>
<path opacity="0.2" d="M475.471 251.48L469.894 245.109C469.894 245.109 469.206 251.829 474.904 255.283L475.471 251.48Z" fill="black"/>
<path d="M475.471 251.48L493.19 242.371L485.322 227.019C485.481 226.949 477.035 229.08 468.679 233.022C463.23 235.591 468.23 249.17 475.471 251.48Z" fill="#D684DB"/>
<path opacity="0.2" d="M437.753 278.609C442.753 286.285 450.272 292.299 458.868 295.474" stroke="black" stroke-width="0.5" stroke-miterlimit="10" stroke-linecap="round" stroke-linejoin="round"/>
<path opacity="0.2" d="M430.094 251.998L430.94 239.245L427.414 250.365L430.094 251.998Z" fill="black"/>
<path d="M459.007 232.385C459.007 232.385 458.28 227.178 461.328 218.149C461.328 218.139 460.86 217.9 460.86 217.89C461.278 216.625 461.716 215.461 462.135 214.455C462.145 214.425 462.145 214.415 462.145 214.415L449.296 221.603C449.466 224.54 448.171 230.145 447.434 232.505C447.434 232.505 444.715 237.692 450.452 238.13C454.655 238.458 459.007 232.385 459.007 232.385Z" fill="#E9B376"/>
<path opacity="0.2" d="M448.908 225.715L456.178 224.411C455.431 226.621 453.33 229.189 448.31 229.189C448.31 229.18 448.918 226.691 448.908 225.715Z" fill="black"/>
<path d="M441.587 199.631C439.993 202.458 439.187 208.8 443.858 207.675C448.529 206.55 444.336 194.773 441.587 199.631Z" fill="#263238"/>
<path d="M462.503 208.362C461.318 216.257 460.8 220.727 456.427 224.411C449.854 229.946 440.581 225.556 439.386 217.442C438.31 210.144 440.432 198.466 448.489 196.067C456.427 193.707 463.688 200.467 462.503 208.362Z" fill="#E9B376"/>
<path d="M464.983 197.998C464.276 193.528 458.838 190.621 455.571 192.582C455.083 192.871 458.439 194.374 458.061 194.195L457.732 200.656C458.21 200.597 459.087 201.224 459.435 202.727C459.435 202.727 457.523 211.02 460.66 214.853C469.604 211.657 470.71 200.358 464.983 197.998Z" fill="#263238"/>
<path d="M465.053 215.251C464.236 217.243 462.573 218.656 460.929 219.293C458.459 220.259 456.935 218.099 457.374 215.62C457.772 213.39 459.545 210.194 462.145 210.284C464.714 210.383 465.989 212.972 465.053 215.251Z" fill="#E9B376"/>
<path d="M450.94 209.646C450.87 210.463 450.382 211.07 449.844 211.02C449.316 210.971 448.938 210.264 449.007 209.457C449.077 208.641 449.565 208.034 450.103 208.083C450.641 208.133 451.009 208.83 450.94 209.646Z" fill="#263238"/>
<path d="M442.962 209.099C442.892 209.915 442.404 210.523 441.866 210.473C441.338 210.423 440.96 209.716 441.029 208.91C441.099 208.093 441.587 207.486 442.125 207.536C442.663 207.586 443.031 208.292 442.962 209.099Z" fill="#263238"/>
<path d="M445.591 208.88C445.591 208.88 442.663 212.683 441.697 214.256C442.732 215.381 444.724 215.082 444.724 215.082L445.591 208.88Z" fill="#D58745"/>
<path d="M450.073 204.848C450.203 204.838 450.342 204.898 450.422 205.017C451.368 206.441 452.772 206.451 452.792 206.451C453.001 206.451 453.181 206.62 453.181 206.829C453.181 207.038 453.011 207.207 452.802 207.207C452.732 207.207 450.969 207.187 449.794 205.425C449.675 205.246 449.724 205.017 449.904 204.898C449.953 204.878 450.013 204.858 450.073 204.848Z" fill="#263238"/>
<path d="M442.822 203.613C442.892 203.623 442.961 203.653 443.021 203.703C443.181 203.842 443.21 204.081 443.071 204.241C441.736 205.863 439.993 205.664 439.914 205.664C439.704 205.634 439.555 205.445 439.575 205.236C439.595 205.027 439.784 204.878 439.993 204.898C440.063 204.908 441.408 205.047 442.483 203.743C442.573 203.643 442.693 203.593 442.822 203.613Z" fill="#263238"/>
<path d="M436.109 195.728C436.498 193.698 438.689 192.095 440.691 192.632C440.043 191.308 440.621 189.526 441.926 188.829C443.221 188.132 445.033 188.64 445.77 189.914C445.84 188.68 447.165 187.774 448.4 187.873C449.635 187.973 450.691 188.859 451.318 189.924C451.697 190.581 451.975 191.338 452.593 191.786C453.559 192.483 454.874 192.125 456.059 192.035C458.051 191.886 460.093 192.642 461.497 194.056C462.912 195.47 463.658 197.511 463.509 199.502C464.605 199.8 465.152 200.686 465.87 201.572L459.784 202.548C458.081 199.362 453.469 201.831 451.169 202.697C449.515 203.325 447.882 203.374 446.617 203.325C445.352 203.275 444.784 202.359 444.774 201.095C442.842 201.841 440.581 201.891 438.768 200.895C436.946 199.9 435.721 197.759 436.109 195.728Z" fill="#263238"/>
<path d="M464.625 198.178C465.87 197.331 467.294 196.814 468.409 196.794" stroke="#263238" stroke-width="0.5" stroke-miterlimit="10" stroke-linecap="round" stroke-linejoin="round"/>
<path d="M464.774 198.088C465.64 196.794 466.009 195.181 465.79 193.638" stroke="#263238" stroke-width="0.5" stroke-miterlimit="10" stroke-linecap="round" stroke-linejoin="round"/>
<path d="M445.462 220.189C445.163 219.244 445.203 218.169 445.81 217.382C446.418 216.596 447.434 216.167 448.42 216.187C449.416 216.217 450.372 216.685 451.059 217.402C451.398 217.76 451.696 218.218 451.667 218.706C451.637 219.274 451.188 219.751 450.671 219.98C450.153 220.209 449.565 220.239 448.997 220.259C448.43 220.279 447.842 220.289 447.314 220.498C447.065 220.598 446.816 220.737 446.547 220.757C446.557 220.757 445.661 220.817 445.462 220.189Z" fill="#263238"/>
<path d="M450.242 216.735C450.003 216.785 446.288 217.581 446.109 217.521C445.96 217.462 445.98 217.233 445.989 217.153C446.089 217.044 446.179 216.944 446.298 216.854C446.328 216.835 446.358 216.805 446.398 216.785C446.976 216.357 447.703 216.128 448.43 216.148C449.077 216.158 449.695 216.396 450.242 216.735Z" fill="white"/>
<path d="M447.683 219.274C449.077 218.617 451.527 219.144 451.557 219.154C451.388 219.522 451.059 219.821 450.68 219.99C450.163 220.219 449.575 220.249 449.007 220.269C448.439 220.289 447.852 220.299 447.324 220.508C447.075 220.608 446.826 220.747 446.557 220.767C446.557 220.767 446.338 220.777 446.099 220.727C446.278 220.369 446.706 219.732 447.683 219.274Z" fill="#DE5753"/>
<path opacity="0.2" d="M463.439 212.892C463.16 212.394 462.523 212.155 461.955 212.245C461.388 212.335 460.89 212.693 460.511 213.121C460.053 213.639 459.734 214.276 459.605 214.953" stroke="black" stroke-width="0.5" stroke-miterlimit="10" stroke-linecap="round" stroke-linejoin="round"/>
<path d="M474.107 210.393L471.686 202.359C471.547 201.891 471.248 201.483 470.84 201.204L464.226 196.625C464.226 196.625 463.549 197.56 464.226 198.566L462.433 197.829C462.433 197.829 461.836 199.034 463.031 199.97C464.226 200.905 466.099 203.046 466.099 203.046L461.985 201.035C461.985 201.035 460.94 201.433 461.985 202.777C463.031 204.121 466.318 205.923 466.318 205.923C466.318 205.923 467.065 212.185 468.26 213.39C469.455 214.594 473.32 214.893 473.32 214.893L474.107 210.393Z" fill="#E9B376"/>
<path d="M400.951 268.554C401.12 270.645 399.785 272.337 397.982 272.337H340.673C338.86 272.337 337.246 270.645 337.087 268.554L333.681 226.392C333.641 225.954 333.671 225.546 333.75 225.157C334.069 223.674 335.205 222.599 336.649 222.599H393.959C395.781 222.599 397.385 224.291 397.544 226.382L400.951 268.554Z" fill="#263238"/>
<path opacity="0.7" d="M400.951 268.554C401.12 270.645 399.785 272.337 397.982 272.337H340.673C338.86 272.337 337.246 270.645 337.087 268.554L333.681 226.392C333.641 225.954 333.671 225.546 333.75 225.157C334.069 223.674 335.205 222.599 336.649 222.599H393.959C395.781 222.599 397.385 224.291 397.544 226.382L400.951 268.554Z" fill="white"/>
<path d="M397.773 272.337H340.663C338.85 272.337 337.236 270.645 337.077 268.554L333.671 226.392C333.631 225.954 333.661 225.546 333.74 225.157H390.851C392.664 225.157 394.267 226.85 394.437 228.941L397.843 271.103C397.883 271.541 397.863 271.959 397.773 272.337Z" fill="#263238"/>
<path opacity="0.5" d="M397.773 272.337H340.663C338.85 272.337 337.236 270.645 337.077 268.554L333.671 226.392C333.631 225.954 333.661 225.546 333.74 225.157H390.851C392.664 225.157 394.267 226.85 394.437 228.941L397.843 271.103C397.883 271.541 397.863 271.959 397.773 272.337Z" fill="white"/>
<path d="M359.348 262.501L370.861 262.561L368.63 283.299L379.955 283.478V285.917L349.467 285.997V283.577L356.818 283.438L359.348 262.501Z" fill="#263238"/>
<path opacity="0.3" d="M370.861 262.561C370.831 262.87 373.411 272.337 373.411 272.337H369.805L370.861 262.561Z" fill="black"/>
<path opacity="0.3" d="M358.162 272.337L359.347 262.501L356.369 272.337H358.162Z" fill="black"/>
<path d="M330.782 287.042H326.818V395.927H330.782V287.042Z" fill="#263238"/>
<path opacity="0.3" d="M330.782 287.042H326.818V395.927H330.782V287.042Z" fill="white"/>
<path d="M302.317 287.042H298.353V395.927H302.317V287.042Z" fill="#263238"/>
<path opacity="0.3" d="M302.317 287.042H298.353V395.927H302.317V287.042Z" fill="white"/>
<path opacity="0.2" d="M298.353 293.931V300.96L302.317 299.198V293.334L298.353 293.931Z" fill="black"/>
<path opacity="0.2" d="M326.818 293.931V300.96L330.782 299.198V293.334L326.818 293.931Z" fill="black"/>
<path d="M415.173 287.042H411.209V395.927H415.173V287.042Z" fill="#263238"/>
<path opacity="0.3" d="M415.173 287.042H411.209V395.927H415.173V287.042Z" fill="white"/>
<path opacity="0.2" d="M411.209 293.931V300.96L415.173 299.198V293.334L411.209 293.931Z" fill="black"/>
<path d="M451.537 287.042H447.573V395.927H451.537V287.042Z" fill="#263238"/>
<path opacity="0.3" d="M451.537 287.042H447.573V395.927H451.537V287.042Z" fill="white"/>
<path opacity="0.2" d="M447.573 293.861V300.88L451.527 299.118V293.254L447.573 293.861Z" fill="black"/>
<path d="M456.468 285.877H293.223V293.941H456.468V285.877Z" fill="#263238"/>
<path opacity="0.3" d="M456.468 285.877H418.171V293.941H456.468V285.877Z" fill="black"/>
<path opacity="0.6" d="M359.348 262.501L370.861 262.561L368.63 283.299L379.955 283.478V285.917L349.467 285.997V283.577L356.818 283.438L359.348 262.501Z" fill="white"/>
</g>
<defs>
<linearGradient id="paint0_linear_1370_5292" x1="213.862" y1="43.3569" x2="213.862" y2="92.8764" gradientUnits="userSpaceOnUse">
<stop stop-color="#D3E0FF"/>
<stop offset="1" stop-color="#EA9AF3" stop-opacity="0"/>
</linearGradient>
<linearGradient id="paint1_linear_1370_5292" x1="178.424" y1="295.773" x2="178.424" y2="317.476" gradientUnits="userSpaceOnUse">
<stop stop-color="#D3E0FF"/>
<stop offset="1" stop-color="#EA9AF3" stop-opacity="0"/>
</linearGradient>
<linearGradient id="paint2_linear_1370_5292" x1="177.677" y1="24.7897" x2="177.677" y2="49.3204" gradientUnits="userSpaceOnUse">
<stop stop-color="#D3E0FF"/>
<stop offset="1" stop-color="#EA9AF3" stop-opacity="0"/>
</linearGradient>
<clipPath id="clip0_1370_5292">
<rect width="498" height="402" fill="white" transform="translate(45)"/>
</clipPath>
</defs>
</svg>
