<svg width="36" height="36" viewBox="0 0 36 36" fill="none" xmlns="http://www.w3.org/2000/svg">
<path d="M15.8397 34.0649C14.2197 34.0649 12.5847 33.5999 11.3247 32.6549L4.90466 27.855C3.20966 26.595 1.88965 23.94 1.88965 21.81V10.695C1.88965 8.39997 3.56967 5.95495 5.72967 5.14495L13.1997 2.33996C14.6847 1.78496 17.0097 1.78496 18.4947 2.33996L25.9497 5.14495C27.7047 5.80495 29.1897 7.55996 29.6697 9.50995C29.7447 9.83995 29.6697 10.2 29.4597 10.47C29.2497 10.74 28.9197 10.9049 28.5747 10.9049L16.7097 10.92C14.8047 11.04 14.3397 11.355 14.3397 14.13V22.275C14.3397 25.14 14.7147 25.5 17.6247 25.5H26.5047C26.9697 25.5 27.3896 25.785 27.5546 26.22C27.7197 26.655 27.5997 27.15 27.2547 27.465C27.0897 27.6 26.9547 27.735 26.7897 27.855L20.3697 32.67C19.0797 33.6 17.4597 34.0649 15.8397 34.0649ZM15.8397 4.18497C15.1647 4.18497 14.4747 4.27498 13.9797 4.46998L6.50965 7.27497C5.24965 7.75497 4.12466 9.35995 4.12466 10.725V21.84C4.12466 23.25 5.11466 25.23 6.23966 26.07L12.6597 30.8699C14.3847 32.1449 17.2797 32.1449 19.0047 30.8699L23.1597 27.765H17.6097C13.4697 27.765 12.0747 26.3849 12.0747 22.2899V14.1449C12.0747 10.9499 12.8397 8.92497 16.6347 8.68497L17.6097 8.66996H26.8347C26.3847 8.02496 25.7847 7.51497 25.1547 7.27497L17.6997 4.46998C17.1897 4.27498 16.5147 4.18497 15.8397 4.18497Z" fill="#00022B"/>
<path d="M32.9997 17.955H13.1997C12.5847 17.955 12.0747 17.445 12.0747 16.83C12.0747 16.215 12.5847 15.705 13.1997 15.705H32.9997C33.6147 15.705 34.1247 16.215 34.1247 16.83C34.1247 17.445 33.6147 17.955 32.9997 17.955Z" fill="#00022B"/>
<path d="M28.5897 27.75H17.6097C13.4697 27.75 12.0747 26.37 12.0747 22.275V14.13C12.0747 10.935 12.8397 8.90995 16.6347 8.66995L17.6097 8.65494H28.5897C32.7297 8.65494 34.1247 10.035 34.1247 14.13V22.455C34.0947 26.415 32.6997 27.75 28.5897 27.75ZM17.6097 10.9049L16.6947 10.92C14.7897 11.04 14.3247 11.355 14.3247 14.13V22.275C14.3247 25.14 14.6997 25.5 17.6097 25.5H28.5897C31.4547 25.5 31.8447 25.125 31.8747 22.455V14.1449C31.8747 11.2799 31.4997 10.92 28.5897 10.92H17.6097V10.9049Z" fill="#00022B"/>
<path d="M18.9751 24.015H16.9651C16.3501 24.015 15.8401 23.505 15.8401 22.89C15.8401 22.275 16.3501 21.765 16.9651 21.765H18.9751C19.5901 21.765 20.1001 22.275 20.1001 22.89C20.1001 23.505 19.6051 24.015 18.9751 24.015Z" fill="#00022B"/>
<path d="M27.03 24.015H22.125C21.51 24.015 21 23.505 21 22.89C21 22.275 21.51 21.765 22.125 21.765H27.03C27.645 21.765 28.155 22.275 28.155 22.89C28.155 23.505 27.66 24.015 27.03 24.015Z" fill="#00022B"/>
</svg>
