<svg width="58" height="58" viewBox="0 0 58 58" fill="none" xmlns="http://www.w3.org/2000/svg">
<path d="M28.9999 54.9791C26.2691 54.9791 23.659 54.1816 21.7016 52.7075L11.3099 44.95C8.55489 42.8958 6.40405 38.6183 6.40405 35.1866V17.2066C6.40405 13.485 9.13489 9.52165 12.6391 8.21665L24.6982 3.69748C27.0907 2.80331 30.8607 2.80331 33.2532 3.69748L45.3366 8.21665C48.8407 9.52165 51.5716 13.485 51.5716 17.2066V25.4958C51.5716 26.4866 50.7499 27.3083 49.7591 27.3083C48.7682 27.3083 47.9466 26.4866 47.9466 25.4958V17.2066C47.9466 15.0075 46.134 12.3975 44.0557 11.6L31.9966 7.08081C30.4016 6.47665 27.5741 6.47665 25.9791 7.08081L13.9199 11.6241C11.8416 12.3975 10.0291 15.0075 10.0291 17.2308V35.1866C10.0291 37.4825 11.6482 40.6966 13.4607 42.05L23.8524 49.8075C25.1816 50.7983 27.0424 51.3541 28.9757 51.3541C29.9666 51.3541 30.7882 52.1758 30.7882 53.1666C30.7882 54.1575 29.9907 54.9791 28.9999 54.9791Z" fill="url(#paint0_linear_1708_741)"/>
<path d="M38.6667 50.1458C32.335 50.1458 27.1875 44.9983 27.1875 38.6667C27.1875 32.335 32.335 27.1875 38.6667 27.1875C44.9983 27.1875 50.1458 32.335 50.1458 38.6667C50.1458 44.9983 44.9983 50.1458 38.6667 50.1458ZM38.6667 30.8367C34.3408 30.8367 30.8125 34.365 30.8125 38.6908C30.8125 43.0167 34.3408 46.545 38.6667 46.545C42.9925 46.545 46.5208 43.0167 46.5208 38.6908C46.5208 34.365 42.9925 30.8367 38.6667 30.8367Z" fill="url(#paint1_linear_1708_741)"/>
<path d="M50.7499 53.1666C50.5808 53.1666 50.4358 53.1425 50.2666 53.1183C50.1216 53.0941 49.9766 53.0458 49.8316 52.9733C49.6866 52.925 49.5416 52.8525 49.3966 52.7558C49.2758 52.6591 49.1549 52.5625 49.0341 52.4658C48.5991 52.0066 48.3333 51.3783 48.3333 50.75C48.3333 50.4358 48.4058 50.1217 48.5266 49.8317C48.6474 49.5417 48.8166 49.2758 49.0341 49.0342C49.9283 48.14 51.5716 48.14 52.4658 49.0342C52.6833 49.2758 52.8524 49.5417 52.9733 49.8317C53.0941 50.1217 53.1666 50.4358 53.1666 50.75C53.1666 51.3783 52.9008 52.0066 52.4658 52.4658C52.0066 52.9008 51.3783 53.1666 50.7499 53.1666Z" fill="url(#paint2_linear_1708_741)"/>
<defs>
<linearGradient id="paint0_linear_1708_741" x1="28.9878" y1="12.1185" x2="28.9878" y2="61.1676" gradientUnits="userSpaceOnUse">
<stop stop-color="#26CBFF"/>
<stop offset="1" stop-color="#ADFF00"/>
</linearGradient>
<linearGradient id="paint1_linear_1708_741" x1="38.6667" y1="31.2052" x2="38.6667" y2="52.8806" gradientUnits="userSpaceOnUse">
<stop stop-color="#26CBFF"/>
<stop offset="1" stop-color="#ADFF00"/>
</linearGradient>
<linearGradient id="paint2_linear_1708_741" x1="50.7499" y1="49.2041" x2="50.7499" y2="53.7388" gradientUnits="userSpaceOnUse">
<stop stop-color="#26CBFF"/>
<stop offset="1" stop-color="#ADFF00"/>
</linearGradient>
</defs>
</svg>
