<svg width="58" height="58" viewBox="0 0 58 58" fill="none" xmlns="http://www.w3.org/2000/svg">
<path d="M29 51.3541H16.9167C8.09587 51.3541 3.02087 46.2791 3.02087 37.4583V20.5416C3.02087 11.7208 8.09587 6.64581 16.9167 6.64581H41.0834C49.9042 6.64581 54.9792 11.7208 54.9792 20.5416V27.7916C54.9792 28.7825 54.1575 29.6041 53.1667 29.6041C52.1759 29.6041 51.3542 28.7825 51.3542 27.7916V20.5416C51.3542 13.63 47.995 10.2708 41.0834 10.2708H16.9167C10.005 10.2708 6.64587 13.63 6.64587 20.5416V37.4583C6.64587 44.37 10.005 47.7291 16.9167 47.7291H29C29.9909 47.7291 30.8125 48.5508 30.8125 49.5416C30.8125 50.5325 29.9909 51.3541 29 51.3541Z" fill="url(#paint0_linear_1708_751)"/>
<path d="M28.9994 31.1024C26.9694 31.1024 24.9153 30.4741 23.3444 29.1932L15.7803 23.1516C15.0069 22.5232 14.8619 21.3874 15.4903 20.6141C16.1186 19.8408 17.2544 19.7199 18.0277 20.3241L25.5919 26.3658C27.4286 27.8399 30.5461 27.8399 32.3827 26.3658L39.9469 20.3241C40.7203 19.6958 41.8561 19.8166 42.4844 20.6141C43.1127 21.3874 42.9919 22.5474 42.1944 23.1516L34.6302 29.1932C33.0836 30.4741 31.0294 31.1024 28.9994 31.1024Z" fill="url(#paint1_linear_1708_751)"/>
<path d="M38.2318 52.6349C37.3134 52.6349 36.4434 52.2966 35.8151 51.6683C35.0659 50.9191 34.7276 49.8316 34.8968 48.6958L35.3559 45.4333C35.4768 44.5874 35.9843 43.5724 36.5884 42.9683L45.1434 34.4133C46.3034 33.2533 47.4393 32.6491 48.6718 32.5283C50.1701 32.3833 51.6684 33.0116 53.0701 34.4133C54.4717 35.8149 55.1001 37.2891 54.9551 38.8116C54.8342 40.0199 54.2059 41.1799 53.0701 42.3399L44.5151 50.8949C43.9109 51.4991 42.8959 52.0066 42.0501 52.1275L38.7876 52.5866C38.5942 52.6108 38.4251 52.6349 38.2318 52.6349ZM49.0826 36.1291C49.0584 36.1291 49.0342 36.1291 49.0101 36.1291C48.6717 36.1533 48.2126 36.4674 47.7051 36.9749L39.1501 45.5299C39.0776 45.6024 38.9567 45.8441 38.9567 45.9408L38.5218 48.9616L41.5426 48.5266C41.6393 48.5024 41.8809 48.3816 41.9534 48.3091L50.5084 39.7541C51.0159 39.2225 51.3301 38.7875 51.3542 38.4491C51.4026 37.9658 50.9192 37.3858 50.5084 36.9749C50.1217 36.5883 49.5659 36.1291 49.0826 36.1291Z" fill="url(#paint2_linear_1708_751)"/>
<path d="M50.5569 44.104C50.3877 44.104 50.2185 44.0798 50.0735 44.0315C46.8835 43.1373 44.346 40.5999 43.4519 37.4099C43.186 36.4432 43.7418 35.4523 44.7085 35.1623C45.6752 34.8965 46.666 35.4523 46.9319 36.419C47.4877 38.4007 49.0585 39.9715 51.0402 40.5273C52.0068 40.7931 52.5627 41.8082 52.2969 42.7749C52.0794 43.5724 51.3544 44.104 50.5569 44.104Z" fill="url(#paint3_linear_1708_751)"/>
<defs>
<linearGradient id="paint0_linear_1708_751" x1="29" y1="14.4698" x2="29" y2="56.6797" gradientUnits="userSpaceOnUse">
<stop stop-color="#26CBFF"/>
<stop offset="1" stop-color="#ADFF00"/>
</linearGradient>
<linearGradient id="paint1_linear_1708_751" x1="28.9911" y1="21.8797" x2="28.9911" y2="32.434" gradientUnits="userSpaceOnUse">
<stop stop-color="#26CBFF"/>
<stop offset="1" stop-color="#ADFF00"/>
</linearGradient>
<linearGradient id="paint2_linear_1708_751" x1="44.9147" y1="36.0301" x2="44.9147" y2="55.0324" gradientUnits="userSpaceOnUse">
<stop stop-color="#26CBFF"/>
<stop offset="1" stop-color="#ADFF00"/>
</linearGradient>
<linearGradient id="paint3_linear_1708_751" x1="47.8744" y1="36.6724" x2="47.8744" y2="45.177" gradientUnits="userSpaceOnUse">
<stop stop-color="#26CBFF"/>
<stop offset="1" stop-color="#ADFF00"/>
</linearGradient>
</defs>
</svg>
