<svg width="58" height="58" viewBox="0 0 58 58" fill="none" xmlns="http://www.w3.org/2000/svg">
<path d="M42.5818 23.2484H29.8943C28.9035 23.2484 28.0818 22.4267 28.0818 21.4359C28.0818 20.445 28.9035 19.6234 29.8943 19.6234H42.5818C43.5726 19.6234 44.3943 20.445 44.3943 21.4359C44.3943 22.4267 43.5968 23.2484 42.5818 23.2484Z" fill="url(#paint0_linear_1708_794)"/>
<path d="M17.2066 25.085C16.7474 25.085 16.2883 24.9159 15.9258 24.5534L14.1133 22.7409C13.4124 22.04 13.4124 20.88 14.1133 20.1792C14.8141 19.4784 15.9741 19.4784 16.6749 20.1792L17.2066 20.7109L21.3633 16.5542C22.0641 15.8534 23.2241 15.8534 23.9249 16.5542C24.6258 17.255 24.6258 18.415 23.9249 19.1159L18.4874 24.5534C18.1491 24.8917 17.6899 25.085 17.2066 25.085Z" fill="url(#paint1_linear_1708_794)"/>
<path d="M42.5818 40.165H29.8943C28.9035 40.165 28.0818 39.3433 28.0818 38.3525C28.0818 37.3616 28.9035 36.54 29.8943 36.54H42.5818C43.5726 36.54 44.3943 37.3616 44.3943 38.3525C44.3943 39.3433 43.5968 40.165 42.5818 40.165Z" fill="url(#paint2_linear_1708_794)"/>
<path d="M17.2066 42.0016C16.7474 42.0016 16.2883 41.8325 15.9258 41.47L14.1133 39.6575C13.4124 38.9566 13.4124 37.7966 14.1133 37.0958C14.8141 36.395 15.9741 36.395 16.6749 37.0958L17.2066 37.6275L21.3633 33.4708C22.0641 32.77 23.2241 32.77 23.9249 33.4708C24.6258 34.1716 24.6258 35.3316 23.9249 36.0325L18.4874 41.47C18.1491 41.8083 17.6899 42.0016 17.2066 42.0016Z" fill="url(#paint3_linear_1708_794)"/>
<path d="M36.2499 54.9791H21.7499C8.62742 54.9791 3.02075 49.3725 3.02075 36.25V21.75C3.02075 8.62748 8.62742 3.02081 21.7499 3.02081H36.2499C49.3724 3.02081 54.9791 8.62748 54.9791 21.75V36.25C54.9791 49.3725 49.3724 54.9791 36.2499 54.9791ZM21.7499 6.64581C10.6091 6.64581 6.64575 10.6091 6.64575 21.75V36.25C6.64575 47.3908 10.6091 51.3541 21.7499 51.3541H36.2499C47.3908 51.3541 51.3541 47.3908 51.3541 36.25V21.75C51.3541 10.6091 47.3908 6.64581 36.2499 6.64581H21.7499Z" fill="url(#paint4_linear_1708_794)"/>
<defs>
<linearGradient id="paint0_linear_1708_794" x1="36.238" y1="20.2577" x2="36.238" y2="23.6802" gradientUnits="userSpaceOnUse">
<stop stop-color="#26CBFF"/>
<stop offset="1" stop-color="#ADFF00"/>
</linearGradient>
<linearGradient id="paint1_linear_1708_794" x1="19.0191" y1="17.6134" x2="19.0191" y2="26.1638" gradientUnits="userSpaceOnUse">
<stop stop-color="#26CBFF"/>
<stop offset="1" stop-color="#ADFF00"/>
</linearGradient>
<linearGradient id="paint2_linear_1708_794" x1="36.238" y1="37.1744" x2="36.238" y2="40.5968" gradientUnits="userSpaceOnUse">
<stop stop-color="#26CBFF"/>
<stop offset="1" stop-color="#ADFF00"/>
</linearGradient>
<linearGradient id="paint3_linear_1708_794" x1="19.0191" y1="34.5301" x2="19.0191" y2="43.0804" gradientUnits="userSpaceOnUse">
<stop stop-color="#26CBFF"/>
<stop offset="1" stop-color="#ADFF00"/>
</linearGradient>
<linearGradient id="paint4_linear_1708_794" x1="28.9999" y1="12.1135" x2="28.9999" y2="61.1683" gradientUnits="userSpaceOnUse">
<stop stop-color="#26CBFF"/>
<stop offset="1" stop-color="#ADFF00"/>
</linearGradient>
</defs>
</svg>
