<svg width="587" height="326" viewBox="0 0 587 326" fill="none" xmlns="http://www.w3.org/2000/svg">
<g clip-path="url(#clip0_1370_5148)">
<path d="M549.172 282.492C546.424 301.377 535.18 315.445 535.18 315.445H67.4445C67.4445 315.445 41.2093 290.406 31.5348 251.938C31.3449 251.188 31.155 250.429 30.9851 249.67C26.0978 228.537 26.3177 203.518 38.4609 176.46C42.9683 166.429 48.2453 158.165 54.132 151.321C54.5418 150.821 54.9715 150.342 55.4113 149.862C95.4087 105.229 161.631 122.955 198.59 94.8279C199.05 94.4881 199.5 94.1284 199.94 93.7687C205.077 89.6321 209.604 84.5364 213.372 78.2016C223.586 61.0358 236.309 46.0882 250.661 33.9982C251.181 33.5686 251.69 33.1389 252.21 32.7193C273.178 15.4836 297.495 4.28284 322.48 1.01554C323.03 0.935608 323.58 0.865666 324.129 0.795723C354.682 -2.78131 386.134 5.5318 413.579 29.1822C420.735 35.3471 426.751 41.7218 431.879 48.2464C432.218 48.6661 432.548 49.0957 432.878 49.5154C447.38 68.4197 454.566 88.4331 460.163 107.637C460.333 108.207 460.502 108.776 460.662 109.346C464.72 123.434 468.018 137.043 472.835 149.433C473.075 150.032 473.305 150.632 473.555 151.231C480.611 168.647 490.985 183.504 511.194 193.626C523.747 199.911 532.742 209.333 538.918 220.204C539.438 221.123 539.938 222.052 540.417 222.992C550.082 241.806 551.821 264.367 549.172 282.492Z" fill="#EAF0FE"/>
<path d="M288.283 315.449H286.684C284.895 300.651 280.327 285.044 270.743 271.116C251.804 243.588 217.633 228.311 169.17 225.723C119.738 223.085 85.1977 207.648 66.5283 179.821C60.4617 170.769 56.5339 161.047 54.1353 151.325C54.545 150.825 54.9748 150.346 55.4145 149.866C57.7532 159.788 61.671 169.73 67.8575 178.942C86.2471 206.319 120.358 221.517 169.26 224.134C218.243 226.742 252.833 242.249 272.062 270.226C281.837 284.445 286.484 300.371 288.283 315.449Z" fill="white"/>
<path d="M256.991 315.449H255.102C254.932 315.189 254.752 314.929 254.562 314.67C241.989 297.194 204.72 287.812 129.932 283.295C87.3364 280.728 55.1846 267.588 31.538 251.941C31.3481 251.192 31.1582 250.433 30.9883 249.673C54.565 265.58 86.8967 279.099 130.022 281.707C205.35 286.253 242.979 295.835 255.861 313.74C256.261 314.3 256.641 314.869 256.991 315.449Z" fill="white"/>
<path d="M473.558 151.235C447.883 145.47 402.249 142.722 327.481 159.838C287.034 169.1 254.432 163.575 230.566 143.411C215.134 130.362 205.1 112.527 198.594 94.8316C199.053 94.4919 199.503 94.1322 199.943 93.7725C206.489 111.867 216.454 129.403 231.595 142.192C255.062 162.006 287.204 167.421 327.121 158.279C401.099 141.343 446.744 143.791 472.839 149.436C473.079 150.036 473.309 150.635 473.558 151.235Z" fill="white"/>
<path d="M460.665 109.35C434.86 105.093 397.871 104.534 331.418 111.398C305.023 114.116 284.685 107.451 270.953 91.5743C257.99 76.5767 252.493 54.9946 250.664 34.002C251.184 33.5723 251.693 33.1427 252.213 32.723C253.922 54.465 259.419 75.7974 272.162 90.5351C285.534 105.982 305.413 112.477 331.259 109.799C397.221 102.995 434.28 103.484 460.166 107.641C460.336 108.211 460.506 108.78 460.665 109.35Z" fill="white"/>
<path d="M432.881 49.5191C409.384 62.7881 389.406 69.4326 373.115 69.4326C363.48 69.4326 355.135 67.1145 348.119 62.4484C333.267 52.5866 324.422 31.8138 322.553 2.35815C322.523 1.90852 322.493 1.46888 322.483 1.01926C323.033 0.939323 323.583 0.869381 324.132 0.799438C325.392 23.3108 331.069 49.2193 349.008 61.1195C367.318 73.2794 395.172 68.943 431.882 48.2501C432.221 48.6698 432.551 49.0994 432.881 49.5191Z" fill="white"/>
<path d="M540.42 222.995C487.34 189.973 456.488 199.525 441.366 210.366C415.031 229.22 409.564 269.897 420.978 296.045C423.986 302.929 426.355 309.404 428.104 315.449H426.415C424.796 309.843 422.547 303.609 419.519 296.684C407.845 269.956 413.472 228.371 440.427 209.067C455.678 198.146 486.461 188.444 538.921 220.208C539.441 221.127 539.941 222.056 540.42 222.995Z" fill="white"/>
<path d="M553.723 326H36.9049C33.9866 326 31.6279 323.642 31.6279 320.724C31.6279 317.807 33.9866 315.449 36.9049 315.449H553.713C556.631 315.449 558.99 317.807 558.99 320.724C559 323.642 556.641 326 553.723 326Z" fill="#8CC3E0"/>
<path d="M471.029 225.044C471.029 225.044 476.506 204.121 475.557 193C474.607 181.879 466.452 182.939 466.452 182.939C466.452 182.939 465.243 158.689 454.279 157.38C443.315 156.071 455.238 185.676 455.238 185.676C455.238 185.676 450.001 185.956 449.232 194.449C448.232 205.61 457.057 212.624 454.729 234.346L466.702 236.894L471.029 225.044Z" fill="url(#paint0_linear_1370_5148)"/>
<path d="M457.237 169.22C457.237 169.22 465.193 189.043 461.465 238.832" stroke="#A053EA" stroke-miterlimit="10" stroke-linecap="round" stroke-linejoin="round"/>
<path d="M467.232 210.186C470.969 202.422 476.996 207.648 476.996 207.648C476.996 207.648 489.719 185.956 499.214 188.704C508.708 191.451 490.219 212.524 490.219 212.524C490.219 212.524 496.965 214.932 493.966 223.425C490.968 231.918 479.225 243.408 479.055 261.394H464.983C464.983 261.394 455.738 234.076 467.232 210.186Z" fill="url(#paint1_linear_1370_5148)"/>
<path d="M492.467 197.107C492.467 197.107 475.227 214.422 469.73 261.384" stroke="#6262DD" stroke-miterlimit="10" stroke-linecap="round" stroke-linejoin="round"/>
<path d="M458.486 261.393C458.486 261.393 459.846 261.224 449.162 249.403C444.704 244.477 441.326 240.751 443.995 231.039C443.995 231.039 430.752 216.301 437.059 210.755C443.545 205.05 453.539 222.855 453.539 222.855C453.539 222.855 458.606 221.996 462.734 228.171C466.862 234.346 473.518 253.23 473.848 261.383H458.486V261.393Z" fill="url(#paint2_linear_1370_5148)"/>
<path d="M442.995 216.93C442.995 216.93 459.486 240.411 466.982 269.387" stroke="#A053EA" stroke-miterlimit="10" stroke-linecap="round" stroke-linejoin="round"/>
<path d="M484.971 261.394H448.992L454.609 315.449H481.104L484.971 261.394Z" fill="url(#paint3_linear_1370_5148)"/>
<path d="M134.989 225.044C134.989 225.044 140.466 204.121 139.517 193C138.567 181.879 130.412 182.939 130.412 182.939C130.412 182.939 129.203 158.689 118.239 157.38C107.275 156.071 119.198 185.676 119.198 185.676C119.198 185.676 113.961 185.956 113.192 194.449C112.192 205.61 121.017 212.624 118.688 234.346L130.662 236.894L134.989 225.044Z" fill="url(#paint4_linear_1370_5148)"/>
<path d="M121.197 169.22C121.197 169.22 129.153 189.043 125.425 238.832" stroke="#6262DD" stroke-miterlimit="10" stroke-linecap="round" stroke-linejoin="round"/>
<path d="M131.192 210.186C134.929 202.422 140.956 207.648 140.956 207.648C140.956 207.648 153.679 185.956 163.173 188.704C172.668 191.451 154.179 212.524 154.179 212.524C154.179 212.524 160.925 214.932 157.926 223.425C154.928 231.918 143.185 243.408 143.015 261.394H128.943C128.943 261.394 119.698 234.076 131.192 210.186Z" fill="url(#paint5_linear_1370_5148)"/>
<path d="M156.427 197.107C156.427 197.107 139.187 214.422 133.69 261.384" stroke="#A053EA" stroke-miterlimit="10" stroke-linecap="round" stroke-linejoin="round"/>
<path d="M122.446 261.394C122.446 261.394 123.806 261.224 113.122 249.404C108.664 244.478 105.286 240.751 107.955 231.039C107.955 231.039 94.7121 216.301 101.019 210.756C107.505 205.05 117.499 222.856 117.499 222.856C117.499 222.856 122.566 221.996 126.694 228.171C130.822 234.346 137.478 253.23 137.808 261.384H122.446V261.394Z" fill="url(#paint6_linear_1370_5148)"/>
<path d="M106.955 216.93C106.955 216.93 123.446 240.411 130.942 269.387" stroke="#6262DD" stroke-miterlimit="10" stroke-linecap="round" stroke-linejoin="round"/>
<path d="M148.931 261.394H112.952L118.568 315.449H145.064L148.931 261.394Z" fill="url(#paint7_linear_1370_5148)"/>
<path d="M347.459 151.484H273.481C269.693 151.484 266.075 148.417 265.396 144.62L257.27 99.3976C256.571 95.5208 259.119 92.3734 262.957 92.3734L337.925 92.3634C341.763 92.3634 345.381 95.5108 346 99.3876L353.226 144.63C353.826 148.407 351.247 151.484 347.459 151.484Z" fill="url(#paint8_linear_1370_5148)"/>
<path d="M347.569 149.406H275.03C271.312 149.406 267.764 146.439 267.095 142.782L259.129 99.1479C258.45 95.401 260.938 92.3635 264.706 92.3635L338.215 92.3535C341.983 92.3535 345.521 95.391 346.13 99.1379L353.216 142.792C353.816 146.439 351.287 149.406 347.569 149.406Z" fill="url(#paint9_linear_1370_5148)"/>
<path d="M287.553 122.958H276.499C274.87 122.958 273.301 121.649 273.011 120.031L270.223 104.543C269.933 102.915 271.023 101.586 272.662 101.586H283.775C285.414 101.586 286.984 102.905 287.273 104.543L290.002 120.031C290.282 121.649 289.182 122.958 287.553 122.958Z" fill="url(#paint10_linear_1370_5148)"/>
<path d="M337.235 105.003L295.479 105.013C294.529 105.013 293.63 104.244 293.46 103.304C293.29 102.355 293.93 101.596 294.879 101.596L336.666 101.586C337.615 101.586 338.515 102.355 338.664 103.294C338.824 104.234 338.185 105.003 337.235 105.003Z" fill="url(#paint11_linear_1370_5148)"/>
<path d="M312.339 114.006H297.048C296.098 114.006 295.199 113.246 295.039 112.307C294.879 111.368 295.509 110.598 296.458 110.598H311.76C312.709 110.598 313.608 111.358 313.768 112.307C313.918 113.236 313.289 114.006 312.339 114.006Z" fill="url(#paint12_linear_1370_5148)"/>
<path d="M341.783 132.64H276.989C276.05 132.64 275.14 131.881 274.98 130.952C274.81 130.022 275.44 129.263 276.39 129.263H341.233C342.182 129.263 343.072 130.022 343.222 130.952C343.362 131.891 342.722 132.64 341.783 132.64Z" fill="url(#paint13_linear_1370_5148)"/>
<path d="M343.372 142.282H278.728C277.789 142.282 276.889 141.533 276.72 140.604C276.55 139.674 277.179 138.925 278.119 138.925H342.812C343.752 138.925 344.641 139.674 344.791 140.604C344.951 141.533 344.311 142.282 343.372 142.282Z" fill="url(#paint14_linear_1370_5148)"/>
<path d="M292.541 112.277H252.003C248.845 112.277 245.787 109.749 245.177 106.622L234.883 54.265C234.044 49.9986 237.312 46.0219 241.669 46.0219H280.068C283.266 46.0219 286.344 48.6097 286.934 51.8071L297.198 106.622C297.778 109.749 295.699 112.277 292.541 112.277Z" fill="url(#paint15_linear_1370_5148)"/>
<path d="M292.72 109.719H253.033C250.114 109.719 247.606 107.651 247.056 104.783L236.792 51.5772C236.192 48.5098 238.191 46.0219 241.259 46.0219H280.727C283.805 46.0219 286.764 48.5098 287.333 51.5772L297.198 104.284C297.767 107.291 295.758 109.719 292.72 109.719Z" fill="url(#paint16_linear_1370_5148)"/>
<path d="M260.859 61.0294C261.328 63.4674 260.629 65.6455 259.14 67.0644C258.01 68.1535 256.411 68.8129 254.552 68.8129C252.683 68.8129 250.824 68.1535 249.265 67.0444C247.246 65.6256 245.697 63.4574 245.227 61.0294C244.378 56.7129 247.206 53.2258 251.534 53.2258C255.841 53.2258 260.019 56.7129 260.859 61.0294Z" fill="url(#paint17_linear_1370_5148)"/>
<path opacity="0.65" d="M259.14 67.0744C258.01 68.1635 256.411 68.8229 254.552 68.8229C252.683 68.8229 250.824 68.1635 249.265 67.0544C249.235 64.1568 250.514 62.4582 251.254 61.7188C250.634 61.2192 250.175 60.5098 250.015 59.7305C249.715 58.2017 250.714 56.9628 252.253 56.9628C253.793 56.9628 255.272 58.2017 255.562 59.7305C255.692 60.3999 255.562 61.0194 255.252 61.499C257.271 62.718 258.47 65.2059 259.14 67.0744Z" fill="white"/>
<path d="M281.217 58.6413H266.915C266.145 58.6413 265.406 58.0219 265.266 57.2525C265.116 56.4831 265.626 55.8636 266.385 55.8636H280.697C281.467 55.8636 282.206 56.4831 282.346 57.2525C282.486 58.0219 281.977 58.6413 281.217 58.6413Z" fill="url(#paint18_linear_1370_5148)"/>
<path d="M282.536 65.6756H268.264C267.495 65.6756 266.755 65.0561 266.615 64.2967C266.465 63.5373 266.975 62.9178 267.734 62.9178H282.026C282.796 62.9178 283.526 63.5373 283.675 64.2967C283.805 65.0561 283.306 65.6756 282.536 65.6756Z" fill="url(#paint19_linear_1370_5148)"/>
<path d="M284.645 76.8163H249.695C248.935 76.8163 248.196 76.1968 248.046 75.4374C247.896 74.6781 248.395 74.0586 249.165 74.0586H284.135C284.895 74.0586 285.634 74.6781 285.774 75.4374C285.914 76.2068 285.405 76.8163 284.645 76.8163Z" fill="url(#paint20_linear_1370_5148)"/>
<path d="M286.144 84.7996H251.244C250.484 84.7996 249.745 84.1901 249.595 83.4308C249.445 82.6714 249.945 82.0619 250.704 82.0619H285.625C286.384 82.0619 287.124 82.6714 287.264 83.4308C287.414 84.1901 286.914 84.7996 286.144 84.7996Z" fill="url(#paint21_linear_1370_5148)"/>
<path d="M287.643 92.7231H252.793C252.033 92.7231 251.294 92.1136 251.144 91.3542C250.994 90.5948 251.494 89.9854 252.253 89.9854H287.113C287.873 89.9854 288.613 90.5948 288.753 91.3542C288.902 92.1136 288.403 92.7231 287.643 92.7231Z" fill="url(#paint22_linear_1370_5148)"/>
<path d="M289.143 100.657H254.352C253.593 100.657 252.853 100.047 252.713 99.2977C252.563 98.5483 253.063 97.9388 253.822 97.9388H288.633C289.392 97.9388 290.122 98.5483 290.272 99.2977C290.402 100.047 289.902 100.657 289.143 100.657Z" fill="url(#paint23_linear_1370_5148)"/>
<path d="M238.031 151.485H155.578C152.38 151.485 149.331 148.857 148.772 145.609L138.667 90.6849C137.808 85.9988 141.396 81.6724 146.153 81.6724H225.318C228.497 81.6724 231.555 84.3002 232.144 87.5475L242.758 145.619C243.338 148.847 241.229 151.485 238.031 151.485Z" fill="url(#paint24_linear_1370_5148)"/>
<path d="M237.791 148.437H157.776C154.668 148.437 151.71 145.919 151.17 142.822L141.415 87.2877C140.866 84.1803 142.925 81.6724 146.013 81.6724H225.458C228.536 81.6724 231.505 84.1903 232.084 87.2877L242.388 142.822C242.948 145.919 240.899 148.437 237.791 148.437Z" fill="url(#paint25_linear_1370_5148)"/>
<path d="M159.506 101.246C159.356 101.246 159.206 101.206 159.056 101.126L151.42 97.0097C151.14 96.8598 150.94 96.59 150.88 96.3002C150.82 96.0105 150.91 95.7307 151.13 95.5708L157.217 90.9447C157.557 90.6849 158.106 90.7948 158.426 91.1845C158.756 91.5742 158.746 92.1037 158.396 92.3635L153.299 96.2403L159.655 99.6675C160.095 99.9073 160.325 100.427 160.155 100.836C160.055 101.106 159.795 101.246 159.506 101.246Z" fill="#6B73FE"/>
<path d="M167.051 101.246C167.201 101.246 167.341 101.206 167.461 101.126L173.638 97.0097C173.858 96.8598 173.968 96.59 173.928 96.3002C173.888 96.0105 173.688 95.7307 173.418 95.5708L165.682 90.9447C165.252 90.6849 164.743 90.7948 164.553 91.1845C164.363 91.5742 164.563 92.1037 164.993 92.3635L171.469 96.2403L166.332 99.6675C165.972 99.9073 165.932 100.427 166.242 100.836C166.462 101.106 166.762 101.246 167.051 101.246Z" fill="#6B73FE"/>
<path d="M225.288 92.3934H181.753C180.883 92.3934 180.044 91.684 179.884 90.8047C179.724 89.9255 180.304 89.2161 181.173 89.2161H224.689C225.558 89.2161 226.398 89.9255 226.558 90.8047C226.737 91.684 226.168 92.3934 225.288 92.3934Z" fill="url(#paint26_linear_1370_5148)"/>
<path d="M227.017 101.766H183.442C182.572 101.766 181.733 101.056 181.573 100.177C181.413 99.2978 181.993 98.5884 182.872 98.5884H226.438C227.307 98.5884 228.147 99.2978 228.316 100.177C228.466 101.046 227.897 101.766 227.017 101.766Z" fill="url(#paint27_linear_1370_5148)"/>
<path d="M228.866 111.747H155.188C154.308 111.747 153.479 111.038 153.319 110.159C153.169 109.279 153.749 108.57 154.618 108.57H228.267C229.136 108.57 229.986 109.279 230.146 110.159C230.316 111.038 229.736 111.747 228.866 111.747Z" fill="url(#paint28_linear_1370_5148)"/>
<path d="M230.735 121.859H156.977C156.098 121.859 155.268 121.15 155.108 120.27C154.958 119.391 155.538 118.682 156.407 118.682H230.136C231.015 118.682 231.855 119.391 232.015 120.27C232.185 121.15 231.605 121.859 230.735 121.859Z" fill="url(#paint29_linear_1370_5148)"/>
<path d="M216.783 140.314H175.846C172.678 140.314 169.65 137.746 169.08 134.569C168.521 131.391 170.629 128.823 173.798 128.823H214.684C217.853 128.823 220.891 131.391 221.471 134.569C222.06 137.746 219.961 140.314 216.783 140.314Z" fill="url(#paint30_linear_1370_5148)"/>
<path d="M177.615 136.027L176.856 135.538C176.626 135.398 176.606 135.328 176.746 135.148L177.385 134.319L176.256 134.139C176.006 134.099 175.956 134.049 175.996 133.809L176.116 133.01C176.146 132.77 176.206 132.74 176.436 132.85L177.535 133.31L177.176 132.241C177.096 132.001 177.136 131.941 177.385 131.941H178.225C178.465 131.941 178.525 131.991 178.525 132.241L178.575 133.31L179.474 132.85C179.674 132.74 179.734 132.77 179.854 133.01L180.264 133.809C180.384 134.049 180.354 134.099 180.124 134.139L179.054 134.319L179.994 135.148C180.194 135.328 180.194 135.398 180.024 135.538L179.434 136.027C179.254 136.167 179.194 136.147 179.044 135.937L178.335 134.918L177.995 135.937C177.905 136.147 177.845 136.167 177.615 136.027Z" fill="white"/>
<path d="M184.222 136.027L183.462 135.538C183.232 135.398 183.212 135.328 183.352 135.148L183.992 134.319L182.862 134.139C182.613 134.099 182.563 134.049 182.603 133.809L182.723 133.01C182.753 132.77 182.813 132.74 183.042 132.85L184.142 133.31L183.782 132.241C183.702 132.001 183.742 131.941 183.992 131.941H184.831C185.071 131.941 185.131 131.991 185.131 132.241L185.181 133.31L186.081 132.85C186.281 132.74 186.341 132.77 186.46 133.01L186.87 133.809C186.99 134.049 186.96 134.099 186.73 134.139L185.661 134.319L186.6 135.148C186.8 135.328 186.8 135.398 186.63 135.538L186.041 136.027C185.861 136.167 185.801 136.147 185.651 135.937L184.931 134.918L184.592 135.937C184.512 136.147 184.462 136.167 184.222 136.027Z" fill="white"/>
<path d="M190.838 136.027L190.078 135.538C189.849 135.398 189.829 135.328 189.968 135.148L190.608 134.319L189.479 134.139C189.229 134.099 189.179 134.049 189.219 133.809L189.339 133.01C189.369 132.77 189.429 132.74 189.659 132.85L190.768 133.31L190.408 132.241C190.328 132.001 190.368 131.941 190.618 131.941H191.458C191.697 131.941 191.757 131.991 191.757 132.241L191.807 133.31L192.707 132.85C192.907 132.74 192.967 132.77 193.087 133.01L193.496 133.809C193.616 134.049 193.596 134.099 193.357 134.139L192.287 134.319L193.227 135.148C193.426 135.328 193.426 135.398 193.257 135.538L192.667 136.027C192.487 136.167 192.427 136.147 192.277 135.937L191.558 134.918L191.218 135.937C191.118 136.147 191.068 136.167 190.838 136.027Z" fill="white"/>
<path d="M197.444 136.027L196.674 135.538C196.444 135.398 196.424 135.328 196.564 135.148L197.194 134.319L196.065 134.139C195.815 134.099 195.765 134.049 195.805 133.809L195.915 133.01C195.945 132.77 196.005 132.74 196.235 132.85L197.344 133.31L196.984 132.241C196.904 132.001 196.944 131.941 197.194 131.941H198.034C198.273 131.941 198.333 131.991 198.333 132.241L198.383 133.31L199.283 132.85C199.483 132.74 199.543 132.77 199.663 133.01L200.072 133.809C200.192 134.049 200.172 134.099 199.932 134.139L198.863 134.319L199.803 135.148C200.002 135.328 200.002 135.398 199.833 135.538L199.243 136.027C199.063 136.167 199.003 136.147 198.853 135.937L198.133 134.918L197.794 135.937C197.734 136.147 197.674 136.167 197.444 136.027Z" fill="white"/>
<path d="M204.05 136.027L203.281 135.538C203.051 135.398 203.031 135.328 203.171 135.148L203.8 134.319L202.671 134.139C202.421 134.099 202.371 134.049 202.411 133.809L202.521 133.01C202.551 132.77 202.611 132.74 202.841 132.85L203.95 133.31L203.591 132.241C203.511 132.001 203.551 131.941 203.8 131.941H204.64C204.88 131.941 204.94 131.991 204.94 132.241L204.99 133.31L205.889 132.85C206.089 132.74 206.149 132.77 206.269 133.01L206.679 133.809C206.799 134.049 206.779 134.099 206.539 134.139L205.47 134.319L206.409 135.148C206.609 135.328 206.609 135.398 206.439 135.538L205.849 136.027C205.669 136.167 205.609 136.147 205.46 135.937L204.74 134.918L204.4 135.937C204.34 136.147 204.28 136.167 204.05 136.027Z" fill="white"/>
<path d="M210.657 136.027L209.887 135.538C209.657 135.398 209.637 135.328 209.777 135.148L210.407 134.319L209.278 134.139C209.028 134.099 208.978 134.049 209.018 133.809L209.128 133.01C209.158 132.77 209.218 132.74 209.447 132.85L210.557 133.31L210.197 132.241C210.117 132.001 210.157 131.941 210.407 131.941H211.246C211.486 131.941 211.546 131.991 211.546 132.241L211.596 133.31L212.496 132.85C212.696 132.74 212.756 132.77 212.876 133.01L213.285 133.809C213.405 134.049 213.385 134.099 213.145 134.139L212.076 134.319L213.015 135.148C213.215 135.328 213.215 135.398 213.045 135.538L212.456 136.027C212.276 136.167 212.216 136.147 212.066 135.937L211.346 134.918L211.007 135.937C210.947 136.147 210.897 136.167 210.657 136.027Z" fill="white"/>
<path d="M354.426 46.0518C353.346 46.0518 352.467 45.1725 352.467 44.0934V23.6104C352.467 16.4663 358.284 10.6511 365.429 10.6511C372.575 10.6511 378.392 16.4663 378.392 23.6104V26.6079C378.392 27.687 377.513 28.5663 376.433 28.5663C375.354 28.5663 374.474 27.687 374.474 26.6079V23.6104C374.474 18.6245 370.417 14.5579 365.419 14.5579C360.432 14.5579 356.365 18.6145 356.365 23.6104V44.0934C356.385 45.1725 355.505 46.0518 354.426 46.0518Z" fill="url(#paint31_linear_1370_5148)"/>
<path d="M361.992 81.6723H329.24C327.331 81.6723 325.792 80.1236 325.792 78.2252V46.2017C325.792 42.2949 328.96 39.1276 332.868 39.1276H358.374C362.281 39.1276 365.45 42.2949 365.45 46.2017V78.2252C365.44 80.1236 363.89 81.6723 361.992 81.6723Z" fill="url(#paint32_linear_1370_5148)"/>
<path d="M351.797 75.5873L348.359 60.1001C349.279 59.3208 349.868 58.1717 349.868 56.8728C349.868 54.5248 347.959 52.6163 345.611 52.6163C343.262 52.6163 341.353 54.5248 341.353 56.8728C341.353 58.2916 342.063 59.5506 343.132 60.32L339.584 75.5773H351.797V75.5873Z" fill="#FEE9C5"/>
<path d="M133.87 91.6141C151.114 91.6141 165.093 77.639 165.093 60.3999C165.093 43.1608 151.114 29.1858 133.87 29.1858C116.627 29.1858 102.648 43.1608 102.648 60.3999C102.648 77.639 116.627 91.6141 133.87 91.6141Z" fill="url(#paint33_linear_1370_5148)"/>
<path d="M133.87 86.5383C148.31 86.5383 160.016 74.8358 160.016 60.4C160.016 45.9641 148.31 34.2616 133.87 34.2616C119.431 34.2616 107.725 45.9641 107.725 60.4C107.725 74.8358 119.431 86.5383 133.87 86.5383Z" fill="#FFFBF5"/>
<path d="M129.483 73.7389C129.483 71.1411 131.292 69.2826 133.89 69.2826C136.489 69.2826 138.208 71.1411 138.248 73.7389C138.248 76.2868 136.529 78.1952 133.89 78.1952C131.252 78.2052 129.483 76.2868 129.483 73.7389Z" fill="#FFA91D"/>
<path d="M131.102 64.1567L129.973 41.9651H137.768L136.689 64.1567H131.102Z" fill="#F9A113"/>
<path d="M192.377 197.107L174.387 315.449H180.384L201.492 197.107H192.377Z" fill="url(#paint34_linear_1370_5148)"/>
<path d="M235.353 197.107L241.349 315.449H235.353L226.358 197.107H235.353Z" fill="url(#paint35_linear_1370_5148)"/>
<path d="M359.782 197.107L341.792 315.449H347.789L368.897 197.107H359.782Z" fill="url(#paint36_linear_1370_5148)"/>
<path d="M402.758 197.107L408.755 315.449H402.758L393.763 197.107H402.758Z" fill="url(#paint37_linear_1370_5148)"/>
<path d="M375.273 197.107H187.869C185.94 197.107 184.381 195.548 184.381 193.62C184.381 191.691 185.94 190.133 187.869 190.133H375.273V197.107Z" fill="url(#paint38_linear_1370_5148)"/>
<path d="M410.094 197.107H232.844C230.915 197.107 229.356 195.548 229.356 193.62C229.356 191.691 230.915 190.133 232.844 190.133H410.094C412.023 190.133 413.582 191.691 413.582 193.62C413.582 195.548 412.023 197.107 410.094 197.107Z" fill="#234277"/>
<path d="M293.78 155.641H250.484C247.386 155.641 245.147 158.589 245.967 161.566L253.443 188.704C253.762 189.873 254.972 190.822 256.141 190.822H303.754C304.924 190.822 305.603 189.873 305.273 188.704L296.478 157.759C296.158 156.59 294.949 155.641 293.78 155.641Z" fill="url(#paint39_linear_1370_5148)"/>
<path d="M296.898 155.641H249.625C248.465 155.641 247.776 156.59 248.095 157.759L256.561 188.704C256.88 189.873 258.09 190.822 259.259 190.822H306.872C308.042 190.822 308.721 189.873 308.391 188.704L299.596 157.759C299.276 156.59 298.057 155.641 296.898 155.641Z" fill="url(#paint40_linear_1370_5148)"/>
<path d="M296.349 159.058H252.074C251.824 159.058 251.674 159.258 251.744 159.508L259.419 187.495C259.489 187.745 259.749 187.944 259.999 187.944H304.534C304.784 187.944 304.934 187.745 304.864 187.495L296.928 159.508C296.858 159.258 296.598 159.058 296.349 159.058Z" fill="url(#paint41_linear_1370_5148)"/>
<path d="M324.972 191.262H271.592C270.313 191.262 269.273 190.223 269.273 188.944V186.496H321.704C323.513 186.496 324.972 187.954 324.972 189.763V191.262Z" fill="white" stroke="#1498E2" stroke-miterlimit="10"/>
<path d="M280.987 191.262H255.161C253.882 191.262 252.843 190.223 252.843 188.944V186.496H277.719C279.528 186.496 280.987 187.954 280.987 189.763V191.262Z" fill="url(#paint42_linear_1370_5148)"/>
<path d="M251.753 159.508C251.753 159.508 252.673 149.726 264.666 148.437C276.659 147.148 282.986 149.486 286.484 138.156C289.982 126.835 301.655 119.081 311.31 120.88L321.704 186.496H259.149L251.753 159.508Z" fill="url(#paint43_linear_1370_5148)"/>
<path d="M335.206 300.611C335.206 300.611 333.167 305.567 334.667 315.449H350.538C350.538 315.449 351.287 303.858 347.789 300.611H335.206Z" fill="url(#paint44_linear_1370_5148)"/>
<path d="M314.808 246.576L331.338 300.611H349.448L341.253 245.906L314.808 246.576Z" fill="url(#paint45_linear_1370_5148)"/>
<path d="M301.825 212.434C301.825 212.434 273.861 224.674 270.343 234.915C266.825 245.157 283.815 300.611 283.815 300.611H300.466L293.81 244.737L324.972 234.915L301.825 212.434Z" fill="url(#paint46_linear_1370_5148)"/>
<path d="M286.074 300.611C286.074 300.611 284.695 303.609 276.959 305.487C269.223 307.365 269.343 315.459 269.343 315.459H298.827C298.827 315.459 301.075 310.113 298.827 300.621H286.074V300.611Z" fill="url(#paint47_linear_1370_5148)"/>
<path d="M316.187 146.798C316.187 146.798 311 154.392 306.433 152.644C305.743 152.384 305.163 151.704 304.664 150.735C301.865 145.31 301.825 130.822 301.825 130.822C305.403 130.992 308.132 132.55 310.2 134.639C314.898 139.375 316.187 146.798 316.187 146.798Z" fill="#FFA795"/>
<path opacity="0.53" d="M316.187 146.798C316.187 146.798 311 154.392 306.433 152.644C305.743 152.384 305.163 151.704 304.664 150.735C305.243 150.645 305.873 150.485 306.562 150.236C310.28 148.897 310.42 139.724 310.2 134.639C314.898 139.375 316.187 146.798 316.187 146.798Z" fill="#F27272"/>
<path d="M270.343 181.25C270.343 181.25 268.204 180.121 265.206 181.07C262.208 182.019 257.15 190.133 257.15 190.133H268.024L270.343 181.25Z" fill="#FFA795"/>
<path d="M275.14 182.329C275.14 182.329 273.831 180.95 271.202 181.08C268.764 181.2 264.896 184.887 265.646 188.824C265.975 190.542 268.084 191.262 268.084 191.262L275.14 182.329Z" fill="#7ADAF4"/>
<path d="M348.789 230.919C337.465 233.916 312.309 230.919 312.309 230.919C312.309 230.919 309.271 230.299 306.453 227.002C304.004 224.134 301.735 219.228 301.815 210.935L305.693 207.748C305.693 207.748 305.933 203.751 306.813 201.883C306.813 201.883 307.032 197.237 303.874 191.651V191.641C303.704 191.332 303.514 191.022 303.315 190.702C303.315 190.702 301.106 194.849 297.438 198.526C294.14 201.843 289.662 204.77 284.575 203.941C276.02 202.552 269.374 195.138 267.015 192.181C266.385 191.402 266.235 190.352 266.615 189.423C267.605 187.045 270.073 182.589 275.13 181.49C275.53 181.41 275.96 181.44 276.36 181.54L284.825 183.788C284.825 183.788 289.203 163.355 296.199 157.1C303.195 150.865 308.811 152.983 308.811 152.983C308.811 152.983 308.482 149.566 311.23 148.817C311.23 148.817 303.564 140.614 298.567 128.504C298.567 128.504 298.737 125.176 302.735 125.336C302.735 125.336 308.891 115.594 314.638 115.095C316.427 114.935 318.636 115.235 320.935 115.984C325.992 117.623 331.429 121.459 333.547 127.425C336.626 136.077 331.968 147.568 331.968 147.568C331.968 147.568 334.657 148.157 334.597 151.065C334.597 151.065 344.961 152.654 350.788 165.973C351.467 167.521 352.107 169.55 352.707 171.928C357.224 189.983 358.793 228.271 348.789 230.919Z" fill="url(#paint48_linear_1370_5148)"/>
<g opacity="0.34">
<path d="M303.874 191.641C303.704 191.332 303.514 191.022 303.314 190.702C303.314 190.702 301.105 194.849 297.437 198.526C295.628 189.963 301.065 175.844 301.065 175.844L303.874 191.641Z" fill="#191738"/>
<path d="M348.788 230.919C337.465 233.916 312.309 230.919 312.309 230.919C312.309 230.919 309.271 230.299 306.452 227.002C312.059 226.273 317.556 223.875 318.555 217.43C320.724 203.522 331.298 196.447 346.54 185.417C351.407 181.899 352.906 176.984 352.706 171.928C357.223 189.983 358.793 228.271 348.788 230.919Z" fill="#191738"/>
<path d="M331.968 147.568C328.51 144.52 322.183 142.742 320.934 138.995C319.695 135.248 326.801 132.62 329.049 128.124C331.298 123.628 320.934 115.984 320.934 115.984C325.991 117.623 331.428 121.459 333.547 127.425C336.625 136.077 331.968 147.568 331.968 147.568Z" fill="#191738"/>
</g>
<path d="M372.775 244.737V246.576H293.82V244.737C293.82 237.204 299.936 231.089 307.482 231.089H359.113C366.659 231.089 372.775 237.204 372.775 244.737Z" fill="url(#paint49_linear_1370_5148)"/>
<path d="M327.301 244.737V246.576H293.82V244.737C293.82 237.204 299.936 231.089 307.482 231.089H313.639C321.184 231.089 327.301 237.204 327.301 244.737Z" fill="url(#paint50_linear_1370_5148)"/>
<path d="M383.539 176.504L376.853 205.4C375.903 209.517 372.236 212.434 368.008 212.434H326.042C321.924 212.434 318.886 208.607 319.805 204.591L326.681 174.865C327.451 171.558 330.389 169.22 333.787 169.22H377.742C381.57 169.22 384.399 172.777 383.539 176.504Z" fill="url(#paint51_linear_1370_5148)"/>
<path d="M383.539 176.504L376.853 205.4C375.903 209.517 372.235 212.434 368.008 212.434H331.368C327.261 212.434 324.213 208.607 325.142 204.591L331.698 176.254C332.648 172.138 336.316 169.22 340.543 169.22H377.742C381.57 169.22 384.399 172.777 383.539 176.504Z" fill="url(#paint52_linear_1370_5148)"/>
<path d="M350.748 234.916H341.253L351.837 193.06C352.277 191.342 353.816 190.133 355.595 190.133H360.212C361.152 190.133 361.851 191.022 361.621 191.941L350.748 234.916Z" fill="url(#paint53_linear_1370_5148)"/>
<path d="M350.818 234.916H341.253V242.909H350.818V234.916Z" fill="#4957FE"/>
<path d="M344.101 253.15H324.992C323.023 253.15 321.434 251.552 321.434 249.593V246.576H347.669V249.593C347.659 251.552 346.07 253.15 344.101 253.15Z" fill="#4957FE"/>
<path d="M337.455 302.859V253.151H332.298V302.859L305.643 309.354V311.852L334.547 307.186L364.78 311.852V308.854L337.455 302.859Z" fill="#4957FE"/>
<path d="M305.643 315.449C308.254 315.449 310.371 313.333 310.371 310.723C310.371 308.113 308.254 305.997 305.643 305.997C303.032 305.997 300.916 308.113 300.916 310.723C300.916 313.333 303.032 315.449 305.643 315.449Z" fill="#3F50C9"/>
<path d="M305.643 312.761C306.769 312.761 307.682 311.848 307.682 310.723C307.682 309.597 306.769 308.684 305.643 308.684C304.517 308.684 303.604 309.597 303.604 310.723C303.604 311.848 304.517 312.761 305.643 312.761Z" fill="#7A8AF9"/>
<path d="M364.78 315.449C367.39 315.449 369.507 313.333 369.507 310.723C369.507 308.113 367.39 305.997 364.78 305.997C362.169 305.997 360.052 308.113 360.052 310.723C360.052 313.333 362.169 315.449 364.78 315.449Z" fill="#3F50C9"/>
<path d="M364.78 312.761C365.906 312.761 366.818 311.848 366.818 310.723C366.818 309.597 365.906 308.684 364.78 308.684C363.654 308.684 362.741 309.597 362.741 310.723C362.741 311.848 363.654 312.761 364.78 312.761Z" fill="#7A8AF9"/>
</g>
<defs>
<linearGradient id="paint0_linear_1370_5148" x1="464.023" y1="219.821" x2="460.277" y2="163.617" gradientUnits="userSpaceOnUse">
<stop stop-color="#BD70FE"/>
<stop offset="1" stop-color="#EF90FA"/>
</linearGradient>
<linearGradient id="paint1_linear_1370_5148" x1="469.242" y1="243.062" x2="497.464" y2="190.349" gradientUnits="userSpaceOnUse">
<stop stop-color="#6870FE"/>
<stop offset="1" stop-color="#B390FA"/>
</linearGradient>
<linearGradient id="paint2_linear_1370_5148" x1="463.711" y1="259.026" x2="443.232" y2="210.313" gradientUnits="userSpaceOnUse">
<stop stop-color="#BD70FE"/>
<stop offset="1" stop-color="#EF90FA"/>
</linearGradient>
<linearGradient id="paint3_linear_1370_5148" x1="466.983" y1="316.011" x2="466.983" y2="260.054" gradientUnits="userSpaceOnUse">
<stop stop-color="#8BC2E0"/>
<stop offset="0.3849" stop-color="#95CFE2"/>
<stop offset="1" stop-color="#A1E0E5"/>
</linearGradient>
<linearGradient id="paint4_linear_1370_5148" x1="128.119" y1="219.673" x2="124.873" y2="174.96" gradientUnits="userSpaceOnUse">
<stop stop-color="#6870FE"/>
<stop offset="1" stop-color="#B390FA"/>
</linearGradient>
<linearGradient id="paint5_linear_1370_5148" x1="134.018" y1="244.101" x2="149.502" y2="203.632" gradientUnits="userSpaceOnUse">
<stop stop-color="#BD70FE"/>
<stop offset="1" stop-color="#EF90FA"/>
</linearGradient>
<linearGradient id="paint6_linear_1370_5148" x1="129.406" y1="256.742" x2="111.174" y2="224.264" gradientUnits="userSpaceOnUse">
<stop stop-color="#6870FE"/>
<stop offset="1" stop-color="#B390FA"/>
</linearGradient>
<linearGradient id="paint7_linear_1370_5148" x1="130.945" y1="315.345" x2="130.945" y2="262.829" gradientUnits="userSpaceOnUse">
<stop stop-color="#8BC2E0"/>
<stop offset="0.3849" stop-color="#95CFE2"/>
<stop offset="1" stop-color="#A1E0E5"/>
</linearGradient>
<linearGradient id="paint8_linear_1370_5148" x1="257.15" y1="121.915" x2="353.311" y2="121.915" gradientUnits="userSpaceOnUse">
<stop stop-color="#6870FE"/>
<stop offset="1" stop-color="#8B90FA"/>
</linearGradient>
<linearGradient id="paint9_linear_1370_5148" x1="276.536" y1="160.875" x2="322.162" y2="99.2483" gradientUnits="userSpaceOnUse">
<stop stop-color="#B7C7E0"/>
<stop offset="0.4364" stop-color="#C8D6E8"/>
<stop offset="1" stop-color="#E4F0F4"/>
</linearGradient>
<linearGradient id="paint10_linear_1370_5148" x1="270.173" y1="112.275" x2="290.038" y2="112.275" gradientUnits="userSpaceOnUse">
<stop stop-color="#6870FE"/>
<stop offset="1" stop-color="#8B90FA"/>
</linearGradient>
<linearGradient id="paint11_linear_1370_5148" x1="293.432" y1="103.295" x2="338.693" y2="103.295" gradientUnits="userSpaceOnUse">
<stop stop-color="#BD70FE"/>
<stop offset="1" stop-color="#EF90FA"/>
</linearGradient>
<linearGradient id="paint12_linear_1370_5148" x1="295.004" y1="112.298" x2="313.788" y2="112.298" gradientUnits="userSpaceOnUse">
<stop stop-color="#BD70FE"/>
<stop offset="1" stop-color="#EF90FA"/>
</linearGradient>
<linearGradient id="paint13_linear_1370_5148" x1="274.952" y1="130.956" x2="343.236" y2="130.956" gradientUnits="userSpaceOnUse">
<stop stop-color="#6870FE"/>
<stop offset="1" stop-color="#8B90FA"/>
</linearGradient>
<linearGradient id="paint14_linear_1370_5148" x1="276.691" y1="140.606" x2="344.821" y2="140.606" gradientUnits="userSpaceOnUse">
<stop stop-color="#6870FE"/>
<stop offset="1" stop-color="#8B90FA"/>
</linearGradient>
<linearGradient id="paint15_linear_1370_5148" x1="266.844" y1="114.011" x2="265.18" y2="45.4668" gradientUnits="userSpaceOnUse">
<stop stop-color="#6870FE"/>
<stop offset="1" stop-color="#8B90FA"/>
</linearGradient>
<linearGradient id="paint16_linear_1370_5148" x1="261.446" y1="132.636" x2="266.78" y2="79.9539" gradientUnits="userSpaceOnUse">
<stop offset="0.00540541" stop-color="#E6EEF2"/>
<stop offset="1" stop-color="#E4F0F4"/>
</linearGradient>
<linearGradient id="paint17_linear_1370_5148" x1="245.066" y1="61.0214" x2="260.999" y2="61.0214" gradientUnits="userSpaceOnUse">
<stop stop-color="#BD70FE"/>
<stop offset="1" stop-color="#EF90FA"/>
</linearGradient>
<linearGradient id="paint18_linear_1370_5148" x1="265.234" y1="57.2541" x2="282.365" y2="57.2541" gradientUnits="userSpaceOnUse">
<stop stop-color="#BD70FE"/>
<stop offset="1" stop-color="#EF90FA"/>
</linearGradient>
<linearGradient id="paint19_linear_1370_5148" x1="266.583" y1="64.2953" x2="283.691" y2="64.2953" gradientUnits="userSpaceOnUse">
<stop stop-color="#BD70FE"/>
<stop offset="1" stop-color="#EF90FA"/>
</linearGradient>
<linearGradient id="paint20_linear_1370_5148" x1="248.009" y1="75.4454" x2="285.791" y2="75.4454" gradientUnits="userSpaceOnUse">
<stop stop-color="#6870FE"/>
<stop offset="1" stop-color="#8B90FA"/>
</linearGradient>
<linearGradient id="paint21_linear_1370_5148" x1="249.572" y1="83.4292" x2="287.295" y2="83.4292" gradientUnits="userSpaceOnUse">
<stop stop-color="#6870FE"/>
<stop offset="1" stop-color="#8B90FA"/>
</linearGradient>
<linearGradient id="paint22_linear_1370_5148" x1="251.124" y1="91.3575" x2="288.787" y2="91.3575" gradientUnits="userSpaceOnUse">
<stop stop-color="#6870FE"/>
<stop offset="1" stop-color="#8B90FA"/>
</linearGradient>
<linearGradient id="paint23_linear_1370_5148" x1="252.677" y1="99.292" x2="290.282" y2="99.292" gradientUnits="userSpaceOnUse">
<stop stop-color="#6870FE"/>
<stop offset="1" stop-color="#8B90FA"/>
</linearGradient>
<linearGradient id="paint24_linear_1370_5148" x1="191.485" y1="152.136" x2="189.82" y2="80.868" gradientUnits="userSpaceOnUse">
<stop stop-color="#6870FE"/>
<stop offset="1" stop-color="#8B90FA"/>
</linearGradient>
<linearGradient id="paint25_linear_1370_5148" x1="188.543" y1="147.566" x2="194.204" y2="92.6113" gradientUnits="userSpaceOnUse">
<stop offset="0.00540541" stop-color="#E6EEF2"/>
<stop offset="1" stop-color="#E4F0F4"/>
</linearGradient>
<linearGradient id="paint26_linear_1370_5148" x1="179.868" y1="90.8056" x2="226.605" y2="90.8056" gradientUnits="userSpaceOnUse">
<stop stop-color="#6870FE"/>
<stop offset="1" stop-color="#8B90FA"/>
</linearGradient>
<linearGradient id="paint27_linear_1370_5148" x1="181.552" y1="100.173" x2="228.336" y2="100.173" gradientUnits="userSpaceOnUse">
<stop stop-color="#6870FE"/>
<stop offset="1" stop-color="#8B90FA"/>
</linearGradient>
<linearGradient id="paint28_linear_1370_5148" x1="153.299" y1="110.155" x2="230.181" y2="110.155" gradientUnits="userSpaceOnUse">
<stop stop-color="#6870FE"/>
<stop offset="1" stop-color="#8B90FA"/>
</linearGradient>
<linearGradient id="paint29_linear_1370_5148" x1="155.086" y1="120.273" x2="232.051" y2="120.273" gradientUnits="userSpaceOnUse">
<stop stop-color="#6870FE"/>
<stop offset="1" stop-color="#8B90FA"/>
</linearGradient>
<linearGradient id="paint30_linear_1370_5148" x1="182.073" y1="134.848" x2="229.713" y2="133.848" gradientUnits="userSpaceOnUse">
<stop stop-color="#BD70FE"/>
<stop offset="1" stop-color="#EF90FA"/>
</linearGradient>
<linearGradient id="paint31_linear_1370_5148" x1="365.437" y1="38.2413" x2="365.437" y2="18.7226" gradientUnits="userSpaceOnUse">
<stop stop-color="#A4AEB8"/>
<stop offset="1" stop-color="#CEDAE0"/>
</linearGradient>
<linearGradient id="paint32_linear_1370_5148" x1="339.631" y1="81.8741" x2="349.621" y2="48.5668" gradientUnits="userSpaceOnUse">
<stop stop-color="#FC9454"/>
<stop offset="1" stop-color="#FFD637"/>
</linearGradient>
<linearGradient id="paint33_linear_1370_5148" x1="117.395" y1="86.7963" x2="145.352" y2="41.977" gradientUnits="userSpaceOnUse">
<stop stop-color="#FC9D56"/>
<stop offset="1" stop-color="#FCE483"/>
</linearGradient>
<linearGradient id="paint34_linear_1370_5148" x1="201.608" y1="202.099" x2="187.29" y2="253.059" gradientUnits="userSpaceOnUse">
<stop stop-color="#60B0E0"/>
<stop offset="0.00194603" stop-color="#60B0E0"/>
<stop offset="0.1317" stop-color="#7AC1E6"/>
<stop offset="0.2752" stop-color="#8DCDEA"/>
<stop offset="0.4402" stop-color="#9BD6ED"/>
<stop offset="0.6437" stop-color="#A4DBEE"/>
<stop offset="1" stop-color="#A6DDEF"/>
</linearGradient>
<linearGradient id="paint35_linear_1370_5148" x1="230.813" y1="199.177" x2="238.139" y2="291.435" gradientUnits="userSpaceOnUse">
<stop stop-color="#60B0E0"/>
<stop offset="0.00194603" stop-color="#60B0E0"/>
<stop offset="0.1317" stop-color="#7AC1E6"/>
<stop offset="0.2752" stop-color="#8DCDEA"/>
<stop offset="0.4402" stop-color="#9BD6ED"/>
<stop offset="0.6437" stop-color="#A4DBEE"/>
<stop offset="1" stop-color="#A6DDEF"/>
</linearGradient>
<linearGradient id="paint36_linear_1370_5148" x1="363.964" y1="203.78" x2="344.984" y2="301.701" gradientUnits="userSpaceOnUse">
<stop stop-color="#60B0E0"/>
<stop offset="0.00194603" stop-color="#60B0E0"/>
<stop offset="0.1317" stop-color="#7AC1E6"/>
<stop offset="0.2752" stop-color="#8DCDEA"/>
<stop offset="0.4402" stop-color="#9BD6ED"/>
<stop offset="0.6437" stop-color="#A4DBEE"/>
<stop offset="1" stop-color="#A6DDEF"/>
</linearGradient>
<linearGradient id="paint37_linear_1370_5148" x1="398.575" y1="201.953" x2="404.568" y2="279.889" gradientUnits="userSpaceOnUse">
<stop stop-color="#60B0E0"/>
<stop offset="0.00194603" stop-color="#60B0E0"/>
<stop offset="0.1317" stop-color="#7AC1E6"/>
<stop offset="0.2752" stop-color="#8DCDEA"/>
<stop offset="0.4402" stop-color="#9BD6ED"/>
<stop offset="0.6437" stop-color="#A4DBEE"/>
<stop offset="1" stop-color="#A6DDEF"/>
</linearGradient>
<linearGradient id="paint38_linear_1370_5148" x1="230.3" y1="194.477" x2="180.328" y2="195.31" gradientUnits="userSpaceOnUse">
<stop stop-color="#3063A0"/>
<stop offset="0.4733" stop-color="#4278B5"/>
<stop offset="1" stop-color="#5995D1"/>
</linearGradient>
<linearGradient id="paint39_linear_1370_5148" x1="245.807" y1="173.234" x2="305.372" y2="173.234" gradientUnits="userSpaceOnUse">
<stop stop-color="#6870FE"/>
<stop offset="1" stop-color="#8B90FA"/>
</linearGradient>
<linearGradient id="paint40_linear_1370_5148" x1="248.021" y1="173.234" x2="308.485" y2="173.234" gradientUnits="userSpaceOnUse">
<stop stop-color="#C9D7E5"/>
<stop offset="1" stop-color="#D4E1E8"/>
</linearGradient>
<linearGradient id="paint41_linear_1370_5148" x1="286.522" y1="182.953" x2="267.705" y2="161.632" gradientUnits="userSpaceOnUse">
<stop stop-color="#7FCCF0"/>
<stop offset="1" stop-color="#BAFFDF"/>
</linearGradient>
<linearGradient id="paint42_linear_1370_5148" x1="261.168" y1="188.878" x2="248.673" y2="188.878" gradientUnits="userSpaceOnUse">
<stop stop-color="#6870FE"/>
<stop offset="1" stop-color="#8B90FA"/>
</linearGradient>
<linearGradient id="paint43_linear_1370_5148" x1="256.72" y1="168.729" x2="314.064" y2="153.514" gradientUnits="userSpaceOnUse">
<stop stop-color="#EADDA2"/>
<stop offset="1" stop-color="#FFF9A6" stop-opacity="0"/>
</linearGradient>
<linearGradient id="paint44_linear_1370_5148" x1="334.118" y1="308.028" x2="350.602" y2="308.028" gradientUnits="userSpaceOnUse">
<stop stop-color="#1898F0"/>
<stop offset="1" stop-color="#14C4DF"/>
</linearGradient>
<linearGradient id="paint45_linear_1370_5148" x1="333.673" y1="272.183" x2="345.327" y2="325.806" gradientUnits="userSpaceOnUse">
<stop stop-color="#1E3E73"/>
<stop offset="1" stop-color="#3061A7"/>
</linearGradient>
<linearGradient id="paint46_linear_1370_5148" x1="297.707" y1="257.078" x2="242.405" y2="266.075" gradientUnits="userSpaceOnUse">
<stop stop-color="#0F1F39"/>
<stop offset="1" stop-color="#182C4A"/>
</linearGradient>
<linearGradient id="paint47_linear_1370_5148" x1="297.981" y1="308.028" x2="269.33" y2="308.028" gradientUnits="userSpaceOnUse">
<stop stop-color="#1898F0"/>
<stop offset="1" stop-color="#14C4DF"/>
</linearGradient>
<linearGradient id="paint48_linear_1370_5148" x1="328.463" y1="219.217" x2="291.75" y2="141.774" gradientUnits="userSpaceOnUse">
<stop stop-color="#343456"/>
<stop offset="1" stop-color="#29283E"/>
</linearGradient>
<linearGradient id="paint49_linear_1370_5148" x1="329.963" y1="238.829" x2="380.046" y2="238.829" gradientUnits="userSpaceOnUse">
<stop stop-color="#6870FE"/>
<stop offset="1" stop-color="#8B90FA"/>
</linearGradient>
<linearGradient id="paint50_linear_1370_5148" x1="293.817" y1="238.829" x2="327.298" y2="238.829" gradientUnits="userSpaceOnUse">
<stop offset="0.0216" stop-color="#4A56FE"/>
<stop offset="1" stop-color="#566FFA"/>
</linearGradient>
<linearGradient id="paint51_linear_1370_5148" x1="347.287" y1="214.87" x2="358.575" y2="152.239" gradientUnits="userSpaceOnUse">
<stop offset="0.0216" stop-color="#4A56FE"/>
<stop offset="1" stop-color="#566FFA"/>
</linearGradient>
<linearGradient id="paint52_linear_1370_5148" x1="351.813" y1="212.176" x2="357.141" y2="166.547" gradientUnits="userSpaceOnUse">
<stop stop-color="#6870FE"/>
<stop offset="1" stop-color="#8B90FA"/>
</linearGradient>
<linearGradient id="paint53_linear_1370_5148" x1="345.885" y1="230.832" x2="361.119" y2="183.369" gradientUnits="userSpaceOnUse">
<stop offset="0.0216" stop-color="#4A56FE"/>
<stop offset="1" stop-color="#566FFA"/>
</linearGradient>
<clipPath id="clip0_1370_5148">
<rect width="531" height="326" fill="white" transform="translate(28)"/>
</clipPath>
</defs>
</svg>
