<svg width="72" height="73" viewBox="0 0 72 73" fill="none" xmlns="http://www.w3.org/2000/svg">
<path d="M39.4785 34.629L34.6422 31.7033C33.4508 30.9826 32.855 30.6222 32.3646 30.6666C31.9369 30.7054 31.5464 30.9256 31.2919 31.2714C31 31.668 31 32.3643 31 33.7568V39.3991C31 40.7473 31 41.4214 31.2834 41.8143C31.5306 42.1571 31.9109 42.3797 32.3309 42.4274C32.8123 42.482 33.4 42.1519 34.5754 41.4916L39.4117 38.7749C40.5908 38.1126 41.1803 37.7814 41.3841 37.341C41.5618 36.9568 41.5689 36.5154 41.4037 36.1257C41.2142 35.679 40.6357 35.329 39.4785 34.629Z" fill="white"/>
<path fill-rule="evenodd" clip-rule="evenodd" d="M34.9989 31.0425L39.8979 34.0061C40.4499 34.34 40.9084 34.6173 41.2492 34.8687C41.5936 35.1228 41.9193 35.4206 42.0941 35.8329C42.342 36.4175 42.3313 37.0796 42.0648 37.6559C41.8767 38.0624 41.5416 38.3495 41.1891 38.5923C40.8404 38.8326 40.3733 39.095 39.8108 39.4109L34.9109 42.1634C34.3503 42.4783 33.8845 42.7399 33.4989 42.9123C33.1091 43.0865 32.6905 43.223 32.2463 43.1726C31.6164 43.1011 31.0459 42.7672 30.675 42.253C30.4136 41.8904 30.3276 41.4587 30.2886 41.0334C30.25 40.6128 30.25 40.0786 30.25 39.4356V33.72C30.25 33.0551 30.25 32.5043 30.2896 32.0721C30.3295 31.637 30.4175 31.1942 30.6879 30.8268C31.0696 30.3081 31.6554 29.9778 32.2969 29.9197C32.7511 29.8785 33.1755 30.0324 33.5685 30.2235C33.9588 30.4133 34.43 30.6984 34.9989 31.0425ZM32.9126 31.5725C32.5872 31.4143 32.4685 31.4103 32.4323 31.4136C32.2185 31.4329 32.0232 31.543 31.896 31.7159C31.8744 31.7452 31.8164 31.8489 31.7834 32.2092C31.7508 32.5645 31.75 33.0457 31.75 33.7568V39.3991C31.75 40.088 31.7508 40.5526 31.7823 40.8964C31.8141 41.2435 31.8698 41.3452 31.8917 41.3756C32.0153 41.547 32.2055 41.6583 32.4154 41.6821C32.4527 41.6864 32.5686 41.6851 32.8868 41.5428C33.202 41.402 33.6075 41.175 34.2081 40.8377L39.0443 38.121C39.6468 37.7826 40.0529 37.5536 40.3381 37.3571C40.6262 37.1587 40.6877 37.06 40.7034 37.0261C40.7922 36.834 40.7958 36.6133 40.7132 36.4185C40.6986 36.3841 40.6403 36.2835 40.3588 36.0759C40.0801 35.8703 39.6815 35.6283 39.0903 35.2707L34.254 32.345C33.6456 31.977 33.2335 31.7285 32.9126 31.5725Z" fill="white"/>
<rect x="0.5" y="1" width="71" height="71" rx="35.5" stroke="white"/>
</svg>
