<svg width="169" height="169" viewBox="0 0 169 169" fill="none" xmlns="http://www.w3.org/2000/svg">
<path d="M122.802 66.106L107.151 48.4776C106.638 47.9007 105.953 47.5048 105.197 47.3494L82.1043 42.6091C78.435 41.8516 74.6224 42.2678 71.2081 43.7986C67.7939 45.3294 64.9517 47.897 63.0853 51.1365L53.9719 66.9213C40.5023 90.2514 61.5102 119.56 62.4186 120.8C62.7127 121.204 63.0881 121.541 63.5206 121.791C63.953 122.041 64.433 122.197 64.9293 122.25C66.4575 122.417 102.344 125.956 115.813 102.625L124.927 86.8407C126.799 83.6046 127.602 79.8594 127.22 76.1371C126.839 72.4149 125.293 68.905 122.802 66.106ZM103.547 86.1535L82.7293 91.7052C81.8754 91.936 80.9837 91.9949 80.106 91.8787C79.2283 91.7624 78.3821 91.4732 77.6165 91.0278L77.5145 90.9689C76.7388 90.5051 76.065 89.8891 75.5338 89.1583C75.0027 88.4275 74.6252 87.5969 74.4243 86.7169L71.5683 75.1968C71.4245 74.7327 71.3772 74.2443 71.4291 73.7616C71.481 73.279 71.6312 72.8122 71.8703 72.39C72.1094 71.9677 72.4325 71.5989 72.8197 71.3062C73.207 71.0134 73.6502 70.8029 74.1221 70.6876C74.5941 70.5722 75.0849 70.5544 75.5643 70.6354C76.0438 70.7163 76.5019 70.8941 76.9105 71.1581C77.319 71.422 77.6695 71.7664 77.9403 72.1702C78.2111 72.5739 78.3966 73.0286 78.4853 73.5061L81.2564 84.7305L101.686 79.2509C102.594 79.0257 103.554 79.1657 104.361 79.6408C105.168 80.1159 105.756 80.8881 105.999 81.791C106.242 82.694 106.121 83.6554 105.661 84.4683C105.201 85.2812 104.439 85.8805 103.54 86.1371L103.547 86.1535Z" fill="white"/>
<rect x="62.1064" y="1.36603" width="121.481" height="121.481" rx="60.7404" transform="rotate(30 62.1064 1.36603)" stroke="white" stroke-opacity="0.5" stroke-width="2"/>
</svg>
