<svg width="20" height="20" viewBox="0 0 20 20" fill="none" xmlns="http://www.w3.org/2000/svg">
<path d="M5.31771 8.31666L8.90101 12.7455C9.04164 12.9199 9.224 13.0615 9.43364 13.159C9.64329 13.2565 9.87446 13.3073 10.1089 13.3073C10.3432 13.3073 10.5744 13.2565 10.7841 13.159C10.9937 13.0615 11.1761 12.9199 11.3167 12.7455L14.8698 8.31666C14.995 8.16059 15.0711 7.97517 15.0894 7.78116C15.1078 7.58716 15.0677 7.39223 14.9736 7.21823C14.8796 7.04423 14.7353 6.89803 14.5569 6.79602C14.3786 6.694 14.1733 6.64019 13.9639 6.64063H6.22361C6.01425 6.64019 5.80889 6.694 5.63055 6.79602C5.45221 6.89803 5.30795 7.04423 5.2139 7.21823C5.11986 7.39223 5.07975 7.58716 5.09808 7.78116C5.11642 7.97517 5.19247 8.16059 5.31771 8.31666Z" fill="#464646"/>
</svg>
