<svg width="20" height="20" viewBox="0 0 20 20" fill="none" xmlns="http://www.w3.org/2000/svg">
<path d="M18.3337 3.89167V13.95C18.3337 14.75 17.6837 15.5 16.8837 15.6L16.6087 15.6334C14.792 15.875 11.992 16.8 10.392 17.6833C10.1753 17.8083 9.817 17.8083 9.592 17.6833L9.55863 17.6667C7.95863 16.7917 5.16702 15.875 3.35868 15.6334L3.11698 15.6C2.31698 15.5 1.66699 14.75 1.66699 13.95V3.88332C1.66699 2.89166 2.4753 2.14167 3.46697 2.225C5.21697 2.36667 7.86697 3.25002 9.3503 4.17502L9.55863 4.29999C9.8003 4.44999 10.2003 4.44999 10.442 4.29999L10.5837 4.20834C11.1087 3.88334 11.7753 3.55833 12.5003 3.26667V6.66668L14.167 5.55833L15.8337 6.66668V2.31671C16.0587 2.27504 16.2753 2.25001 16.4753 2.23334H16.5253C17.517 2.15001 18.3337 2.89167 18.3337 3.89167Z" stroke="#3D3D3D" stroke-width="1.25" stroke-linecap="round" stroke-linejoin="round"/>
<path d="M10 4.5752V17.0752" stroke="#3D3D3D" stroke-width="1.25" stroke-linecap="round" stroke-linejoin="round"/>
<path d="M15.8333 2.31689V6.66687L14.1667 5.55852L12.5 6.66687V3.26686C13.5917 2.83352 14.8083 2.48356 15.8333 2.31689Z" stroke="#3D3D3D" stroke-width="1.25" stroke-linecap="round" stroke-linejoin="round"/>
</svg>
