<svg width="32" height="32" viewBox="0 0 32 32" fill="none" xmlns="http://www.w3.org/2000/svg">
<path d="M18.6931 8.13367C19.7845 8.13367 21.0212 8.72803 22.1686 9.93738V9.93835C23.2545 11.0874 23.8669 12.4381 23.8669 13.2938C23.8666 13.4986 23.6986 13.6666 23.4938 13.6669C23.2943 13.6669 23.1335 13.504 23.1335 13.3065C23.1334 12.893 22.9466 12.3944 22.7067 11.9393C22.4846 11.518 22.1779 11.0613 21.8015 10.6259L21.6364 10.4403L21.6325 10.4374L21.4684 10.2675C20.6376 9.43705 19.648 8.85339 18.6931 8.85339C18.4937 8.85323 18.3337 8.6904 18.3337 8.49304C18.3339 8.30146 18.5015 8.13384 18.6931 8.13367Z" fill="white" stroke="white" stroke-width="1.33333"/>
<path d="M18.6937 3.33366C24.1919 3.33385 28.6661 7.80812 28.6663 13.3063C28.6663 13.498 28.4986 13.6665 28.3069 13.6667C28.1074 13.6667 27.9466 13.5038 27.9466 13.3063C27.9464 8.20428 23.7938 4.06706 18.7064 4.06706C18.507 4.0669 18.347 3.90406 18.347 3.70671C18.347 3.49226 18.5241 3.33366 18.6937 3.33366Z" fill="white" stroke="white" stroke-width="1.33333"/>
<path d="M7.4538 3.33366C7.6636 3.33371 7.86999 3.36729 8.06024 3.4323L8.24481 3.50749L8.2536 3.51237C8.43938 3.59812 8.60469 3.71226 8.74579 3.86589L8.8786 4.03288L8.88251 4.03874L11.9763 8.39909L11.9792 8.403C12.1409 8.62764 12.2626 8.83061 12.3542 9.01726L12.4362 9.1989L12.4401 9.20964C12.5341 9.42895 12.5729 9.6189 12.5729 9.76042C12.5729 9.94611 12.5198 10.1473 12.3903 10.36L12.3854 10.3688L12.3796 10.3786C12.2775 10.5592 12.1332 10.7582 11.945 10.9684L11.7419 11.1823L11.7331 11.1911L10.7282 12.235C10.4463 12.517 10.32 12.865 10.32 13.2399C10.32 13.4097 10.342 13.5582 10.3796 13.7087L10.3893 13.7448L10.402 13.7809C10.4279 13.8498 10.4546 13.9101 10.4714 13.9499L10.5007 14.0241L10.5192 14.0807L10.5485 14.1325C10.7521 14.5057 11.0534 14.9442 11.444 15.4382L11.864 15.9509L11.8688 15.9567C12.324 16.4826 12.8035 17.0174 13.3122 17.5553L13.8307 18.0934L13.8356 18.0983C13.9089 18.1716 13.9846 18.2438 14.0534 18.3092L14.2487 18.4977L14.2546 18.5036C14.4913 18.7344 14.5243 19.0905 14.3493 19.3551L14.2624 19.4616L11.7956 21.9284C11.5389 22.1851 11.1267 22.1944 10.8483 21.9323C10.7719 21.8562 10.6962 21.7838 10.6266 21.7175C10.5533 21.6474 10.4859 21.5835 10.4196 21.5173H10.4206C9.07081 20.1544 7.85294 18.7279 6.76727 17.237H6.76825C5.83221 15.9356 5.06103 14.6426 4.46942 13.3659L4.22723 12.819C3.62884 11.3656 3.33374 10.0014 3.33368 8.72038C3.33368 7.99615 3.44491 7.30641 3.66473 6.6657L3.76532 6.39421L3.76727 6.3903C4.04917 5.67402 4.49778 5.00838 5.13739 4.40495L5.14227 4.40007L5.14813 4.39519C5.90078 3.65437 6.6733 3.33366 7.4538 3.33366Z" fill="white" stroke="white" stroke-width="1.33333"/>
<path d="M29.2933 24.44C29.2933 24.8133 29.2267 25.2 29.0933 25.5733C29.0533 25.68 29.0133 25.7867 28.96 25.8933C28.7333 26.3733 28.44 26.8267 28.0533 27.2533C27.4 27.9733 26.68 28.4933 25.8667 28.8267C25.8533 28.8267 25.84 28.84 25.8267 28.84C25.04 29.16 24.1867 29.3333 23.2667 29.3333C21.9067 29.3333 20.4533 29.0133 18.92 28.36C17.3867 27.7067 15.8533 26.8267 14.3333 25.72C13.8133 25.3333 13.2933 24.9467 12.8 24.5333L17.16 20.1733C17.5333 20.4533 17.8667 20.6667 18.1467 20.8133C18.2133 20.84 18.2933 20.88 18.3867 20.92C18.4933 20.96 18.6 20.9733 18.72 20.9733C18.9467 20.9733 19.12 20.8933 19.2667 20.7467L20.28 19.7467C20.6133 19.4133 20.9333 19.16 21.24 19C21.5467 18.8133 21.8533 18.72 22.1867 18.72C22.44 18.72 22.7067 18.7733 23 18.8933C23.2933 19.0133 23.6 19.1867 23.9333 19.4133L28.3467 22.5467C28.6933 22.7867 28.9333 23.0667 29.08 23.4C29.2133 23.7333 29.2933 24.0667 29.2933 24.44Z" fill="white"/>
</svg>
