<svg width="48" height="48" viewBox="0 0 48 48" fill="none" xmlns="http://www.w3.org/2000/svg">
<rect width="48" height="48" rx="24" fill="#FF730A"/>
<path d="M26.3079 17.3516C27.2088 17.3516 28.2458 17.8426 29.218 18.8672V18.8682C30.14 19.8438 30.6467 20.9791 30.6467 21.6787C30.6467 21.802 30.5454 21.9033 30.4221 21.9033C30.3046 21.9032 30.2093 21.8078 30.2092 21.6904C30.2092 21.312 30.0398 20.8674 29.8323 20.4736C29.6108 20.0535 29.2934 19.5945 28.8997 19.1689H28.9006L28.8967 19.165L28.6086 18.8779C27.9179 18.2315 27.106 17.7783 26.3079 17.7783C26.1903 17.7783 26.095 17.6819 26.095 17.5645C26.095 17.5129 26.1161 17.4594 26.1594 17.416C26.2028 17.3727 26.2563 17.3516 26.3079 17.3516Z" fill="white" stroke="white" stroke-width="1.33333"/>
<path d="M26.3076 13.2373C30.968 13.2373 34.7617 17.03 34.7617 21.6904C34.7617 21.742 34.7396 21.7955 34.6963 21.8389C34.6529 21.8822 34.5994 21.9033 34.5479 21.9033C34.4304 21.9032 34.335 21.8078 34.335 21.6904C34.335 17.2644 30.7326 13.6748 26.3193 13.6748C26.2018 13.6747 26.1065 13.5793 26.1064 13.4619C26.1064 13.403 26.1306 13.3436 26.1738 13.2988C26.2158 13.2554 26.2636 13.2374 26.3076 13.2373Z" fill="white" stroke="white" stroke-width="1.33333"/>
<path d="M16.6734 13.2373C16.8432 13.2373 17.01 13.2643 17.1627 13.3164L17.3111 13.377L17.3199 13.3809C17.4685 13.4495 17.5995 13.5411 17.7115 13.6631L17.817 13.7959L17.8218 13.8018L20.4732 17.5391L20.4752 17.543C20.6113 17.7321 20.7138 17.9011 20.7896 18.0557L20.857 18.2061L20.8609 18.2158C20.9378 18.3952 20.9673 18.545 20.9673 18.6504C20.9673 18.7905 20.9267 18.9462 20.8238 19.1152L20.8189 19.124L20.813 19.1338C20.7017 19.3307 20.5267 19.5578 20.2828 19.8018L20.7535 20.2734L20.2818 19.8018L20.273 19.8105L19.4048 20.7139C19.1502 20.9732 19.0358 21.2924 19.0357 21.6328C19.0357 21.7873 19.0556 21.9225 19.0894 22.0576L19.0992 22.0947L19.1119 22.1299C19.1348 22.191 19.1582 22.2447 19.1724 22.2783C19.1886 22.3166 19.1938 22.3287 19.1959 22.335L19.2144 22.3916L19.2427 22.4434C19.4207 22.7696 19.6828 23.1507 20.0201 23.5771L20.3824 24.0186L20.3863 24.0234C20.7772 24.4751 21.1893 24.9351 21.6265 25.3975L22.0718 25.8604L22.0767 25.8643C22.1405 25.928 22.2064 25.9909 22.2652 26.0469L22.4312 26.207L22.4371 26.2129C22.6069 26.3785 22.6304 26.6331 22.5054 26.8223L22.442 26.8984L20.3277 29.0137C20.1452 29.1957 19.8519 29.2042 19.65 29.0146C19.5841 28.949 19.5186 28.8875 19.4595 28.8311C19.3966 28.7709 19.3396 28.717 19.2838 28.6611H19.2847C18.2747 27.6413 17.3509 26.58 16.5142 25.4766L16.1617 25.001C15.3632 23.8906 14.7064 22.7882 14.2027 21.7012L13.9957 21.2354C13.4867 19.9989 13.2379 18.8418 13.2379 17.7588C13.2379 17.1481 13.3315 16.5678 13.5162 16.0293L13.6011 15.8008L13.6031 15.7969C13.8393 15.1968 14.2158 14.6381 14.7545 14.1299L14.7642 14.1201C15.3949 13.4993 16.0339 13.2374 16.6734 13.2373Z" fill="white" stroke="white" stroke-width="1.33333"/>
<path d="M35.3937 31.2339C35.3937 31.5539 35.3366 31.8853 35.2223 32.2053C35.188 32.2968 35.1537 32.3882 35.108 32.4796C34.9137 32.8911 34.6623 33.2796 34.3309 33.6453C33.7709 34.2625 33.1537 34.7082 32.4566 34.9939C32.4452 34.9939 32.4337 35.0053 32.4223 35.0053C31.748 35.2796 31.0166 35.4282 30.228 35.4282C29.0623 35.4282 27.8166 35.1539 26.5023 34.5939C25.188 34.0339 23.8737 33.2796 22.5709 32.3311C22.1252 31.9996 21.6794 31.6682 21.2566 31.3139L24.9937 27.5768C25.3137 27.8168 25.5994 27.9996 25.8394 28.1253C25.8966 28.1482 25.9652 28.1825 26.0452 28.2168C26.1366 28.2511 26.228 28.2625 26.3309 28.2625C26.5252 28.2625 26.6737 28.1939 26.7994 28.0682L27.668 27.2111C27.9537 26.9253 28.228 26.7082 28.4909 26.5711C28.7537 26.4111 29.0166 26.3311 29.3023 26.3311C29.5194 26.3311 29.748 26.3768 29.9994 26.4796C30.2509 26.5825 30.5137 26.7311 30.7994 26.9253L34.5823 29.6111C34.8794 29.8168 35.0852 30.0568 35.2109 30.3425C35.3252 30.6282 35.3937 30.9139 35.3937 31.2339Z" fill="white"/>
</svg>
