<svg width="24" height="24" viewBox="0 0 24 24" fill="none" xmlns="http://www.w3.org/2000/svg">
<rect x="6" y="6" width="12" height="12" fill="white"/>
<path d="M12 2.5C17.2339 2.5 21.5 6.76614 21.5 12C21.5 17.2339 17.2339 21.5 12 21.5C6.76614 21.5 2.5 17.2339 2.5 12C2.5 6.76614 6.76614 2.5 12 2.5ZM15.7139 8.28613C15.2589 7.83121 14.5302 7.80314 14.041 8.20117L13.9463 8.28613L12 10.2324L10.0537 8.28613C9.56844 7.80095 8.77137 7.8009 8.28613 8.28613C7.83121 8.74105 7.80314 9.46985 8.20117 9.95898L8.28613 10.0537L10.2324 12L8.28613 13.9463C7.80095 14.4316 7.8009 15.2286 8.28613 15.7139C8.53482 15.9626 8.85449 16.0801 9.16992 16.0801C9.44591 16.0801 9.72499 15.9899 9.95703 15.8008L10.0537 15.7139L12 13.7666L13.9463 15.7139C14.195 15.9625 14.5147 16.0801 14.8301 16.0801C15.1455 16.0801 15.4652 15.9626 15.7139 15.7139C16.1688 15.2589 16.1969 14.5302 15.7988 14.041L15.7139 13.9463L13.7666 12L15.7139 10.0537C16.1991 9.56844 16.1991 8.77137 15.7139 8.28613Z" fill="#FF730A" stroke="#FF730A"/>
</svg>
