<svg width="250" height="140" viewBox="0 0 250 140" fill="none" xmlns="http://www.w3.org/2000/svg">
<g clip-path="url(#clip0_6461_37505)">
<path fill-rule="evenodd" clip-rule="evenodd" d="M207.5 35C211.366 35 214.5 38.134 214.5 42C214.5 45.866 211.366 49 207.5 49H167.5C171.366 49 174.5 52.134 174.5 56C174.5 59.866 171.366 63 167.5 63H189.5C193.366 63 196.5 66.134 196.5 70C196.5 73.866 193.366 77 189.5 77H179.326C174.452 77 170.5 80.134 170.5 84C170.5 86.5773 172.5 88.9107 176.5 91C180.366 91 183.5 94.134 183.5 98C183.5 101.866 180.366 105 176.5 105H93.5C89.634 105 86.5 101.866 86.5 98C86.5 94.134 89.634 91 93.5 91H54.5C50.634 91 47.5 87.866 47.5 84C47.5 80.134 50.634 77 54.5 77H94.5C98.366 77 101.5 73.866 101.5 70C101.5 66.134 98.366 63 94.5 63H69.5C65.634 63 62.5 59.866 62.5 56C62.5 52.134 65.634 49 69.5 49H109.5C105.634 49 102.5 45.866 102.5 42C102.5 38.134 105.634 35 109.5 35H207.5ZM207.5 63C211.366 63 214.5 66.134 214.5 70C214.5 73.866 211.366 77 207.5 77C203.634 77 200.5 73.866 200.5 70C200.5 66.134 203.634 63 207.5 63Z" fill="#F3F7FF"/>
<path d="M121 103C139.502 103 154.5 88.0015 154.5 69.5C154.5 50.9985 139.502 36 121 36C102.498 36 87.5 50.9985 87.5 69.5C87.5 88.0015 102.498 103 121 103Z" fill="#F3F7FF" stroke="#1F64E7" stroke-width="2.5"/>
<path fill-rule="evenodd" clip-rule="evenodd" d="M115.632 95.4939C117.391 95.8185 119.18 95.9872 121 96C135.636 96 147.5 84.1355 147.5 69.5C147.5 54.8645 135.636 43 121 43C117.24 43 113.664 43.7829 110.424 45.1946C104.794 47.6479 100.182 51.9999 97.396 57.4419C95.5445 61.0589 94.5 65.1575 94.5 69.5C94.5 73.44 95.3599 77.1792 96.9021 80.5401C98.0032 82.9396 99.4521 85.1463 101.184 87.0956" fill="white"/>
<path d="M115.632 95.4939C117.391 95.8185 119.18 95.9872 121 96C135.636 96 147.5 84.1355 147.5 69.5C147.5 54.8645 135.636 43 121 43C117.24 43 113.664 43.7829 110.424 45.1946C104.794 47.6479 100.182 51.9999 97.396 57.4419C95.5445 61.0589 94.5 65.1575 94.5 69.5C94.5 73.44 95.3599 77.1792 96.9021 80.5401C98.0032 82.9396 99.4521 85.1463 101.184 87.0956" stroke="#1F64E7" stroke-width="2.5" stroke-linecap="round"/>
<path d="M104.298 90.0747C106.446 91.8207 108.873 93.237 111.501 94.2466" stroke="#1F64E7" stroke-width="2.5" stroke-linecap="round"/>
<path d="M148.5 96L154.5 102" stroke="#1F64E7" stroke-width="2.5"/>
<path fill-rule="evenodd" clip-rule="evenodd" d="M153.53 101.03C151.637 102.923 151.637 105.992 153.53 107.885L164.615 118.97C166.508 120.863 169.577 120.863 171.469 118.97C173.362 117.077 173.362 114.008 171.469 112.116L160.384 101.03C158.491 99.1377 155.423 99.1377 153.53 101.03Z" fill="#E8F0FE" stroke="#1F64E7" stroke-width="2.5"/>
<path d="M158.5 103L169.5 114" stroke="white" stroke-width="2.5" stroke-linecap="round"/>
<path fill-rule="evenodd" clip-rule="evenodd" d="M114.501 58C114.501 69.598 123.903 79 135.501 79C137.779 79 139.972 78.6372 142.027 77.9662C138.674 86.2871 130.523 92.1607 121.001 92.1607C108.485 92.1607 98.3398 82.0152 98.3398 69.5C98.3398 58.1596 106.67 48.7648 117.546 47.1011C115.613 50.2793 114.501 54.0097 114.501 58Z" fill="#E8F0FE"/>
<path d="M121.5 51C120.227 51 118.982 51.1253 117.779 51.3642M114.145 52.4761C107.304 55.3508 102.5 62.1144 102.5 70" stroke="#75A4FE" stroke-width="2.5" stroke-linecap="round"/>
<path d="M181 62H163.824M188 62H185.779M174.676 69.7773H166.5" stroke="#75A4FE" stroke-width="2.5" stroke-linecap="round" stroke-linejoin="round"/>
<path d="M84.6763 91.7773H76.5005M80.0005 83H62.8247H80.0005ZM57.0005 83H52.7793H57.0005Z" stroke="#75A4FE" stroke-width="2.5" stroke-linecap="round" stroke-linejoin="round"/>
</g>
<defs>
<clipPath id="clip0_6461_37505">
<rect width="250" height="140" fill="white"/>
</clipPath>
</defs>
</svg>
