<svg width="215" height="120" viewBox="0 0 215 120" fill="none" xmlns="http://www.w3.org/2000/svg">
<path d="M214.397 0H0.11084V120H214.397V0Z" fill="white"/>
<path fill-rule="evenodd" clip-rule="evenodd" d="M175.428 30C178.742 30 181.428 32.6863 181.428 36C181.428 39.3137 178.742 42 175.428 42H141.143C144.456 42 147.143 44.6863 147.143 48C147.143 51.3137 144.456 54 141.143 54H160C163.314 54 166 56.6863 166 60C166 63.3137 163.314 66 160 66H151.279C147.101 66 143.714 68.6863 143.714 72C143.714 74.209 145.428 76.209 148.857 78C152.171 78 154.857 80.686 154.857 84C154.857 87.314 152.171 90 148.857 90H77.7142C74.4005 90 71.7142 87.314 71.7142 84C71.7142 80.686 74.4005 78 77.7142 78H44.2856C40.9719 78 38.2856 75.314 38.2856 72C38.2856 68.6863 40.9719 66 44.2856 66H78.5714C81.8851 66 84.5714 63.3137 84.5714 60C84.5714 56.6863 81.8851 54 78.5714 54H57.1428C53.8291 54 51.1428 51.3137 51.1428 48C51.1428 44.6863 53.8291 42 57.1428 42H91.4285C88.1148 42 85.4285 39.3137 85.4285 36C85.4285 32.6863 88.1148 30 91.4285 30H175.428ZM175.428 54C178.742 54 181.428 56.6863 181.428 60C181.428 63.3137 178.742 66 175.428 66C172.115 66 169.428 63.3137 169.428 60C169.428 56.6863 172.115 54 175.428 54Z" fill="#F3F7FF"/>
<path d="M108.143 106.285C95.9249 99.758 76.857 89.571 76.857 89.571V71.4279L66.5713 65.5707M108.143 106.285C120.193 99.59 139 89.142 139 89.142V71.2629L148.857 65.5707M108.143 106.285C108.143 98.084 108.143 87.75 108.143 87.75M66.5713 65.5707L76.857 55.285M66.5713 65.5707L97.4284 83.142L108.143 73.285M148.857 65.5707L139 56.1422M148.857 65.5707L118.428 83.142L108.143 73.285M139 56.1422L108.143 73.285M139 56.1422L149.286 45.4279L138.143 38.5707M139 56.1422L108.143 38.1422M108.143 73.285L76.857 55.285M108.143 38.1422L76.857 55.285M108.143 38.1422L97.857 28.285L66.9999 45.4279L76.857 55.285M108.143 38.1422L118.428 27.8564L128.714 33.8564" stroke="#4564ED" stroke-width="2.14286" stroke-linecap="round" stroke-linejoin="round"/>
<path d="M108.112 82.7133C108.585 82.7133 108.969 82.3296 108.969 81.8562C108.969 81.3828 108.585 80.999 108.112 80.999C107.639 80.999 107.255 81.3828 107.255 81.8562C107.255 82.3296 107.639 82.7133 108.112 82.7133Z" fill="#4564ED" stroke="#4564ED" stroke-width="0.857143"/>
<path d="M133.699 36.9809C134.172 36.9809 134.556 36.5971 134.556 36.1237C134.556 35.6504 134.172 35.2666 133.699 35.2666C133.226 35.2666 132.842 35.6504 132.842 36.1237C132.842 36.5971 133.226 36.9809 133.699 36.9809Z" fill="#4564ED" stroke="#4564ED" stroke-width="0.857143"/>
<path d="M67.789 90H53.0669M48.0747 90H44.4565" stroke="#75A4FE" stroke-width="2.14286" stroke-linecap="round" stroke-linejoin="round"/>
<path d="M150.17 90H164.893M169.885 90H173.503" stroke="#75A4FE" stroke-width="2.14286" stroke-linecap="round" stroke-linejoin="round"/>
<path d="M150.17 90H164.893M169.885 90H173.503" stroke="#75A4FE" stroke-width="2.14286" stroke-linecap="round" stroke-linejoin="round"/>
</svg>
