<svg width="112" height="40" viewBox="0 0 112 40" fill="none" xmlns="http://www.w3.org/2000/svg">
<path d="M7.8731 8.20696C8.12978 7.15275 8.5973 6.24522 9.36733 5.53324C11.0846 3.94123 13.083 3.50427 15.2526 4.39347C17.4252 5.28573 18.516 7.01219 18.5985 9.3559C18.6566 11.0304 18.241 12.6255 17.6818 14.1839C16.9118 16.332 15.8698 18.3457 14.6506 20.2708C14.5162 20.4816 14.3725 20.6405 14.0884 20.6253C10.9807 20.4847 7.922 20.0752 5.00382 18.9232C3.74182 18.4252 2.57455 17.7621 1.6609 16.7201C-0.322232 14.465 0.108618 10.7004 2.55011 8.94644C4.12073 7.81889 5.81357 7.52249 7.65309 8.14891C7.71115 8.16724 7.76921 8.18252 7.8731 8.21002V8.20696Z" fill="#FC75A2"/>
<path d="M110.403 26.2752C109.765 26.9505 108.967 27.4089 108.133 27.7939C107.345 28.1575 106.538 28.4447 105.707 28.677C105.664 28.6892 105.624 28.6984 105.582 28.7106C105.536 28.7228 105.49 28.7381 105.444 28.7473H104.307V24.2982C104.307 23.9376 104.207 23.6504 104.005 23.4334C103.965 23.3784 103.919 23.3265 103.867 23.2776C103.632 23.0698 103.32 22.9659 102.929 22.9659C102.841 22.9659 102.755 22.969 102.673 22.9781C102.187 22.9995 101.814 23.1462 101.554 23.4273V25.1477C101.466 24.9735 101.383 24.7932 101.307 24.6129C101.032 23.9682 100.848 23.302 100.87 22.5962C100.867 22.5778 100.87 22.5595 100.87 22.5412C100.867 22.5167 100.87 22.4923 100.87 22.4678C100.87 22.4526 100.87 22.4403 100.873 22.4281C100.995 20.7628 102.657 19.4641 104.307 19.7452C105.368 19.9316 106.144 20.4878 106.614 21.4625C106.627 21.4931 106.648 21.5206 106.676 21.5725C107.195 21.2608 107.739 21.0958 108.32 21.1203C109.624 21.1814 110.578 21.8048 111.07 23.0117C111.562 24.2218 111.305 25.3249 110.403 26.2752Z" fill="#FC75A2"/>
<path d="M65.9219 20.885V28.7534H64.5102V20.885H62.4201V19.6963H67.9998V20.885H65.9219Z" fill="#1368B1"/>
<path d="M74.3312 24.839C74.3312 23.9315 74.0836 23.2104 73.5917 22.6756C73.0905 22.1409 72.4091 21.875 71.5413 21.875C70.6063 21.875 69.8638 22.1989 69.3137 22.8498C68.7698 23.4915 68.5009 24.3349 68.5009 25.3768C68.5009 26.4708 68.7882 27.3264 69.3626 27.9436C69.9463 28.5761 70.7652 28.8939 71.8163 28.8939C72.7758 28.8939 73.5581 28.735 74.1692 28.4172L73.7689 27.3905C73.2586 27.6655 72.6383 27.8031 71.9019 27.8031C70.6674 27.8031 69.9799 27.195 69.8393 25.9788L74.3189 25.3524C74.325 25.2363 74.3312 25.0652 74.3312 24.839ZM69.7507 25.0774C69.7599 24.3837 69.9279 23.8429 70.2518 23.4518C70.5604 23.0667 70.9821 22.8742 71.5169 22.8742C72.5069 22.8742 73.008 23.4579 73.0172 24.6282L69.7507 25.0774Z" fill="#1368B1"/>
<path d="M76.681 18.9324H75.3059V28.7534H76.681V18.9324Z" fill="#1368B1"/>
<path d="M83.489 24.839C83.489 23.9315 83.2415 23.2104 82.7495 22.6756C82.2484 22.1409 81.567 21.875 80.6992 21.875C79.7641 21.875 79.0216 22.1989 78.4716 22.8498C77.9277 23.4915 77.6588 24.3349 77.6588 25.3768C77.6588 26.4708 77.946 27.3264 78.5205 27.9436C79.1041 28.5761 79.923 28.8939 80.9742 28.8939C81.9337 28.8939 82.7159 28.735 83.327 28.4172L82.9237 27.3905C82.4165 27.6655 81.7961 27.8031 81.0597 27.8031C79.8252 27.8031 79.1377 27.195 78.9971 25.9788L83.4768 25.3524C83.4829 25.2363 83.489 25.0652 83.489 24.839ZM78.9085 25.0774C78.9177 24.3837 79.0858 23.8429 79.4097 23.4518C79.7183 23.0667 80.14 22.8742 80.6717 22.8742C81.6648 22.8742 82.1659 23.4579 82.175 24.6282L78.9085 25.0774Z" fill="#1368B1"/>
<path d="M88.867 28.4295C88.4087 28.7381 87.8312 28.8939 87.1406 28.8939C86.3155 28.8939 85.6341 28.6159 85.1024 28.0567C84.4852 27.415 84.1766 26.5227 84.1766 25.3799C84.1766 24.2371 84.4852 23.3479 85.1024 22.7153C85.6372 22.1561 86.3155 21.8781 87.1406 21.8781C87.8342 21.8781 88.4087 22.0309 88.867 22.3425L88.4148 23.3295C88.1153 23.1126 87.7487 23.0026 87.3148 23.0026C86.8228 23.0026 86.4225 23.192 86.1139 23.5648C85.7625 23.9896 85.5883 24.5915 85.5883 25.3677C85.5883 26.1438 85.7686 26.7427 86.1261 27.1675C86.4439 27.5525 86.8381 27.745 87.3148 27.745C87.7487 27.745 88.1153 27.638 88.4148 27.4211L88.867 28.4325V28.4295Z" fill="#1368B1"/>
<path d="M94.5842 22.8742C94.0495 22.2081 93.3161 21.875 92.3811 21.875C91.446 21.875 90.7157 22.2081 90.181 22.8742C89.6707 23.5098 89.4171 24.344 89.4171 25.3768C89.4171 26.4097 89.6707 27.2469 90.181 27.8794C90.7157 28.5548 91.4491 28.8939 92.3811 28.8939C93.313 28.8939 94.0495 28.5548 94.5842 27.8794C95.0915 27.2469 95.3481 26.4127 95.3481 25.3768C95.3481 24.341 95.0915 23.5098 94.5842 22.8742ZM93.5728 27.1155C93.2978 27.5586 92.9005 27.7786 92.3811 27.7786C91.8616 27.7786 91.4705 27.5586 91.1955 27.1155C90.9266 26.6908 90.7952 26.1071 90.7952 25.3646C90.7952 24.6221 90.9266 24.0385 91.1955 23.6137C91.4705 23.1798 91.8646 22.9629 92.3811 22.9629C92.8975 22.9629 93.2978 23.1798 93.5728 23.6137C93.8386 24.0385 93.9731 24.6221 93.9731 25.3646C93.9731 26.1071 93.8386 26.6908 93.5728 27.1155Z" fill="#1368B1"/>
<path d="M105.444 24.0507V28.7564H104.081V24.1882C104.081 23.8918 104.008 23.6412 103.867 23.4426C103.828 23.3876 103.782 23.3356 103.73 23.2868C103.495 23.079 103.183 22.9751 102.792 22.9751C102.752 22.9751 102.712 22.9751 102.673 22.9781C102.187 22.9995 101.814 23.1462 101.554 23.4273V28.7564H100.176V24.0629C100.176 23.7298 100.051 23.464 99.8003 23.2623C99.5497 23.0729 99.2166 22.9751 98.8011 22.9751C98.3427 22.9751 97.9577 23.0423 97.6491 23.1768V28.7564H96.2862V22.3487C97.0532 22.0339 97.863 21.875 98.7124 21.875C99.5619 21.875 100.265 22.0737 100.732 22.477C100.778 22.5137 100.821 22.5564 100.864 22.5992C100.864 22.5992 100.866 22.5982 100.87 22.5962C101.438 22.1134 102.181 21.875 103.103 21.875C103.822 21.875 104.393 22.0706 104.818 22.4617C105.236 22.8559 105.444 23.3845 105.444 24.0507Z" fill="#1368B1"/>
<path d="M47.4839 11.171C44.4894 11.171 41.9134 13.1388 40.8837 15.9012C40.8317 16.0448 40.6484 16.6284 40.6484 16.6284L36.4804 34.6753H46.0508C49.3418 34.6753 52.1225 32.3041 52.9139 29.1078L57.0513 11.171H47.4839ZM53.137 19.6536H48.7765L47.2334 26.3058C47.0806 26.9902 46.6986 27.583 46.1028 28.0689C45.51 28.5548 44.8591 28.7992 44.1685 28.7992H44.0432L46.1486 19.6536H44.2999C43.7041 19.6536 43.2121 19.4641 42.8424 19.0852C42.4696 18.7032 42.2862 18.2204 42.2954 17.649C42.2985 17.484 42.3198 17.316 42.3596 17.1326L42.3779 17.0471H51.2119C51.8077 17.0471 52.2997 17.2396 52.6694 17.6185C53.0422 17.9943 53.2256 18.471 53.2133 19.0363C53.2133 19.2166 53.192 19.3969 53.1553 19.571L53.137 19.6536Z" fill="#16B14B"/>
<path d="M53.2133 19.0363C53.2133 19.2166 53.192 19.3969 53.1553 19.5711L53.137 19.6536H48.7765L47.2334 26.3058C47.0806 26.9902 46.6986 27.583 46.1028 28.0689C45.51 28.5548 44.8591 28.7992 44.1685 28.7992H44.0433L46.1486 19.6536H44.2999C43.7041 19.6536 43.2121 19.4641 42.8424 19.0852C42.4696 18.7032 42.2862 18.2204 42.2954 17.649C42.2985 17.484 42.3198 17.316 42.3596 17.1326L42.3779 17.0471H51.2119C51.8077 17.0471 52.2997 17.2396 52.6694 17.6185C53.0422 17.9943 53.2256 18.471 53.2133 19.0363Z" fill="white"/>
<path d="M33.4797 19.6444L33.0214 21.6153L27.3745 21.6092L27.8298 19.6383L33.4797 19.6444Z" fill="#F27227"/>
<path d="M31.5455 5.94882C28.3401 5.94882 25.6358 8.11835 24.7955 11.0793C24.7344 11.3024 24.6824 11.5285 24.6396 11.7577L18.1432 39.9005H27.7075C30.9863 39.9005 33.7425 37.6301 34.5125 34.5622L41.1189 5.94882H31.5424H31.5455ZM35.6156 21.7406C35.4506 22.4342 35.032 23.1859 34.4453 23.6626C33.8556 24.1362 33.2475 24.2157 32.5661 24.2157L26.7694 24.2096L26.2836 26.3058C26.1277 26.9902 25.7488 27.583 25.153 28.0689C24.5602 28.5517 23.9093 28.7992 23.2187 28.7992H23.0935V28.7839L25.7977 17.0318L34.1703 17.0409C34.7662 17.0409 35.2581 17.2335 35.634 17.6124C36.0129 17.9882 36.1962 18.4649 36.187 19.0271C36.184 19.2105 36.1626 19.3908 36.1259 19.5619L35.6156 21.7406Z" fill="#F27227"/>
<path d="M35.6341 17.6124C35.2582 17.2335 34.7662 17.0409 34.1704 17.0409L25.7978 17.0318L23.0935 28.7839H23.0966V28.7992H23.2188C23.9094 28.7992 24.5603 28.5517 25.1531 28.0689C25.7489 27.583 26.1278 26.9902 26.2837 26.3058L26.7695 24.2096L32.5661 24.2157C33.2476 24.2157 33.8556 24.1362 34.4454 23.6626C35.0321 23.1859 35.4507 22.4342 35.6157 21.7406L36.126 19.5619C36.1627 19.3908 36.1841 19.2105 36.1871 19.0271C36.1963 18.4649 36.013 17.9882 35.6341 17.6124ZM33.0214 21.6153L27.3745 21.6092L27.8298 19.6383L33.4798 19.6444L33.0214 21.6153Z" fill="white"/>
<path d="M13.2053 11.171C10.1007 11.171 7.44839 13.2825 6.49502 16.2067C6.47363 16.2709 6.45529 16.3381 6.4339 16.4023L6.27501 17.0318L2.20178 34.6753H12.0044C14.9348 34.6753 17.4496 32.7319 18.4244 30.0093L18.8125 28.3286L22.7757 11.171H13.2053ZM18.6566 18.9232C18.0699 19.3999 17.4252 19.6413 16.7407 19.6413L10.8096 19.6505L10.3513 21.6153L17.2021 21.6214L17.1746 21.7467C17.0218 22.4312 16.6399 23.0209 16.0471 23.5007C15.4512 23.9804 14.7942 24.2371 14.1098 24.2371H9.74626L9.26346 26.3058C9.11068 26.9902 8.73177 27.583 8.13591 28.0689C7.54311 28.5548 6.8892 28.7992 6.19861 28.7992H6.07333L8.27037 19.2624H8.27648C8.40481 18.801 8.77761 18.2357 9.34596 17.7713C9.93571 17.2915 10.5774 17.0471 11.2619 17.0471H11.4085L11.4147 17.0318L19.8056 17.0409L19.775 17.1662C19.6131 17.8446 19.2464 18.4435 18.6566 18.9232Z" fill="#1169B0"/>
<path d="M19.8055 17.0409L19.7749 17.1662C19.613 17.8446 19.2463 18.4435 18.6566 18.9232C18.0699 19.3999 17.4251 19.6413 16.7407 19.6413L10.8096 19.6505L10.3512 21.6153L17.2021 21.6214L17.1746 21.7467C17.0218 22.4312 16.6398 23.0209 16.047 23.5007C15.4512 23.9804 14.7942 24.2371 14.1097 24.2371H9.7462L9.2634 26.3058C9.11062 26.9902 8.73172 27.583 8.13586 28.0689C7.54306 28.5547 6.88914 28.7992 6.19856 28.7992H6.07327L8.27031 19.2624H8.27642C8.40476 18.801 8.77755 18.2357 9.34591 17.7713C9.93565 17.2915 10.5773 17.0471 11.2618 17.0471H11.4085L11.4146 17.0318L19.8055 17.0409Z" fill="white"/>
<path d="M56.7304 32.7838C57.1062 32.7502 57.3323 32.5607 57.3323 32.1666C57.3323 31.6838 57.0329 31.4943 56.4859 31.4943H55.6334V33.7861H56.0581V32.7991H56.3178L56.9106 33.7861H57.3476L56.7304 32.7838ZM56.0581 32.4752V31.8213H56.4401C56.6601 31.8213 56.9045 31.861 56.9045 32.136C56.9045 32.4385 56.6845 32.4752 56.437 32.4752H56.0581ZM56.7304 32.7838C57.1062 32.7502 57.3323 32.5607 57.3323 32.1666C57.3323 31.6838 57.0329 31.4943 56.4859 31.4943H55.6334V33.7861H56.0581V32.7991H56.3178L56.9106 33.7861H57.3476L56.7304 32.7838ZM56.0581 32.4752V31.8213H56.4401C56.6601 31.8213 56.9045 31.861 56.9045 32.136C56.9045 32.4385 56.6845 32.4752 56.437 32.4752H56.0581ZM56.7304 32.7838C57.1062 32.7502 57.3323 32.5607 57.3323 32.1666C57.3323 31.6838 57.0329 31.4943 56.4859 31.4943H55.6334V33.7861H56.0581V32.7991H56.3178L56.9106 33.7861H57.3476L56.7304 32.7838ZM56.0581 32.4752V31.8213H56.4401C56.6601 31.8213 56.9045 31.861 56.9045 32.136C56.9045 32.4385 56.6845 32.4752 56.437 32.4752H56.0581ZM56.7304 32.7838C57.1062 32.7502 57.3323 32.5607 57.3323 32.1666C57.3323 31.6838 57.0329 31.4943 56.4859 31.4943H55.6334V33.7861H56.0581V32.7991H56.3178L56.9106 33.7861H57.3476L56.7304 32.7838ZM56.0581 32.4752V31.8213H56.4401C56.6601 31.8213 56.9045 31.861 56.9045 32.136C56.9045 32.4385 56.6845 32.4752 56.437 32.4752H56.0581ZM56.7304 32.7838C57.1062 32.7502 57.3323 32.5607 57.3323 32.1666C57.3323 31.6838 57.0329 31.4943 56.4859 31.4943H55.6334V33.7861H56.0581V32.7991H56.3178L56.9106 33.7861H57.3476L56.7304 32.7838ZM56.0581 32.4752V31.8213H56.4401C56.6601 31.8213 56.9045 31.861 56.9045 32.136C56.9045 32.4385 56.6845 32.4752 56.437 32.4752H56.0581ZM56.7304 32.7838C57.1062 32.7502 57.3323 32.5607 57.3323 32.1666C57.3323 31.6838 57.0329 31.4943 56.4859 31.4943H55.6334V33.7861H56.0581V32.7991H56.3178L56.9106 33.7861H57.3476L56.7304 32.7838ZM56.0581 32.4752V31.8213H56.4401C56.6601 31.8213 56.9045 31.861 56.9045 32.136C56.9045 32.4385 56.6845 32.4752 56.437 32.4752H56.0581ZM56.7304 32.7838C57.1062 32.7502 57.3323 32.5607 57.3323 32.1666C57.3323 31.6838 57.0329 31.4943 56.4859 31.4943H55.6334V33.7861H56.0581V32.7991H56.3178L56.9106 33.7861H57.3476L56.7304 32.7838ZM56.0581 32.4752V31.8213H56.4401C56.6601 31.8213 56.9045 31.861 56.9045 32.136C56.9045 32.4385 56.6845 32.4752 56.437 32.4752H56.0581ZM56.7304 32.7838C57.1062 32.7502 57.3323 32.5607 57.3323 32.1666C57.3323 31.6838 57.0329 31.4943 56.4859 31.4943H55.6334V33.7861H56.0581V32.7991H56.3178L56.9106 33.7861H57.3476L56.7304 32.7838ZM56.0581 32.4752V31.8213H56.4401C56.6601 31.8213 56.9045 31.861 56.9045 32.136C56.9045 32.4385 56.6845 32.4752 56.437 32.4752H56.0581ZM56.4095 30.6265C55.2942 30.6265 54.3867 31.534 54.3867 32.6494C54.3867 33.7647 55.2942 34.6753 56.4095 34.6753C57.5248 34.6753 58.4354 33.7647 58.4354 32.6494C58.4354 31.534 57.5279 30.6265 56.4095 30.6265ZM56.4095 34.2811C55.5661 34.2811 54.8817 33.5966 54.8817 32.6494C54.8817 31.7021 55.5661 31.0176 56.4095 31.0176C57.2529 31.0176 57.9435 31.7021 57.9435 32.6494C57.9435 33.5966 57.259 34.2811 56.4095 34.2811ZM57.3323 32.1666C57.3323 31.6838 57.0329 31.4943 56.4859 31.4943H55.6334V33.7861H56.0581V32.7991H56.3178L56.9106 33.7861H57.3476L56.7304 32.7838C57.1062 32.7502 57.3323 32.5607 57.3323 32.1666ZM56.0581 32.4752V31.8213H56.4401C56.6601 31.8213 56.9045 31.861 56.9045 32.136C56.9045 32.4385 56.6845 32.4752 56.437 32.4752H56.0581ZM56.7304 32.7838C57.1062 32.7502 57.3323 32.5607 57.3323 32.1666C57.3323 31.6838 57.0329 31.4943 56.4859 31.4943H55.6334V33.7861H56.0581V32.7991H56.3178L56.9106 33.7861H57.3476L56.7304 32.7838ZM56.0581 32.4752V31.8213H56.4401C56.6601 31.8213 56.9045 31.861 56.9045 32.136C56.9045 32.4385 56.6845 32.4752 56.437 32.4752H56.0581ZM56.7304 32.7838C57.1062 32.7502 57.3323 32.5607 57.3323 32.1666C57.3323 31.6838 57.0329 31.4943 56.4859 31.4943H55.6334V33.7861H56.0581V32.7991H56.3178L56.9106 33.7861H57.3476L56.7304 32.7838ZM56.0581 32.4752V31.8213H56.4401C56.6601 31.8213 56.9045 31.861 56.9045 32.136C56.9045 32.4385 56.6845 32.4752 56.437 32.4752H56.0581ZM56.7304 32.7838C57.1062 32.7502 57.3323 32.5607 57.3323 32.1666C57.3323 31.6838 57.0329 31.4943 56.4859 31.4943H55.6334V33.7861H56.0581V32.7991H56.3178L56.9106 33.7861H57.3476L56.7304 32.7838ZM56.0581 32.4752V31.8213H56.4401C56.6601 31.8213 56.9045 31.861 56.9045 32.136C56.9045 32.4385 56.6845 32.4752 56.437 32.4752H56.0581ZM56.7304 32.7838C57.1062 32.7502 57.3323 32.5607 57.3323 32.1666C57.3323 31.6838 57.0329 31.4943 56.4859 31.4943H55.6334V33.7861H56.0581V32.7991H56.3178L56.9106 33.7861H57.3476L56.7304 32.7838ZM56.0581 32.4752V31.8213H56.4401C56.6601 31.8213 56.9045 31.861 56.9045 32.136C56.9045 32.4385 56.6845 32.4752 56.437 32.4752H56.0581ZM56.7304 32.7838C57.1062 32.7502 57.3323 32.5607 57.3323 32.1666C57.3323 31.6838 57.0329 31.4943 56.4859 31.4943H55.6334V33.7861H56.0581V32.7991H56.3178L56.9106 33.7861H57.3476L56.7304 32.7838ZM56.0581 32.4752V31.8213H56.4401C56.6601 31.8213 56.9045 31.861 56.9045 32.136C56.9045 32.4385 56.6845 32.4752 56.437 32.4752H56.0581ZM56.7304 32.7838C57.1062 32.7502 57.3323 32.5607 57.3323 32.1666C57.3323 31.6838 57.0329 31.4943 56.4859 31.4943H55.6334V33.7861H56.0581V32.7991H56.3178L56.9106 33.7861H57.3476L56.7304 32.7838ZM56.0581 32.4752V31.8213H56.4401C56.6601 31.8213 56.9045 31.861 56.9045 32.136C56.9045 32.4385 56.6845 32.4752 56.437 32.4752H56.0581Z" fill="#1169B0"/>
<path d="M50.9582 6.55385C49.5862 8.19169 47.9178 6.87775 45.3297 7.70278C45.2197 7.7364 45.1066 7.64473 45.1219 7.52861C45.4825 4.83656 43.8966 3.42178 45.2655 1.78393C46.0203 0.88556 47.2211 0.958896 47.9576 1.57614C48.5351 2.05894 48.7826 2.79536 48.6756 3.49511C49.3479 3.26594 50.1118 3.38205 50.6893 3.86485C51.4258 4.4821 51.7099 5.65242 50.9582 6.55079V6.55385Z" fill="#FC75A2"/>
<path d="M72.8583 14.4192C73.1303 15.6995 71.8653 16.0051 71.2847 17.5665C71.2602 17.6338 71.1716 17.6521 71.1227 17.6001C69.9616 16.4084 68.6812 16.6407 68.4093 15.3603C68.2595 14.6575 68.7515 14.1075 69.326 13.9853C69.7782 13.8905 70.2244 14.0494 70.5208 14.3642C70.6644 13.9547 71.0097 13.6278 71.4588 13.533C72.0364 13.4108 72.7056 13.7164 72.8553 14.4192H72.8583Z" fill="#FC75A2"/>
</svg>
