<svg width="111" height="54" viewBox="0 0 111 54" fill="none" xmlns="http://www.w3.org/2000/svg">
<g clip-path="url(#clip0_5639_21562)">
<path d="M62.0592 33.9712L65.1314 32.0499C63.173 28.9222 59.0521 27.9755 55.9336 29.9338L55.9058 29.9524L57.6785 32.7832C59.2192 32.0035 61.1218 32.5047 62.0685 33.9805L62.0592 33.9712Z" fill="#F9C404"/>
<path d="M62.0034 33.915L64.9549 31.7803L68.4539 36.6065C66.0501 36.9685 63.5348 36.0125 62.0127 33.915H62.0034Z" fill="#F27227"/>
<path d="M39.8027 39.7432L37.4824 44.9685C42.8006 47.326 49.019 44.9314 51.3765 39.6132L51.4043 39.5575L46.5966 37.4229C45.2787 39.7989 42.3458 40.8291 39.8027 39.7432Z" fill="#F9C404"/>
<path d="M71.665 27.3828V35.2069H70.2636V27.3828H68.1846V26.2041H73.7348V27.3828H71.665Z" fill="#1368B1"/>
<path d="M80.0181 31.8174L75.5631 32.4392C75.7023 33.6458 76.3891 34.2584 77.6142 34.2584C78.3474 34.2584 78.96 34.1191 79.4705 33.85L79.8696 34.8709C79.2663 35.1865 78.4867 35.3443 77.5307 35.3443C76.4819 35.3443 75.6744 35.0287 75.0897 34.3976C74.5143 33.785 74.2358 32.9311 74.2358 31.8452C74.2358 30.7593 74.505 29.9704 75.0433 29.33C75.5909 28.6803 76.3241 28.3555 77.2615 28.3555C78.1247 28.3555 78.8022 28.6246 79.3034 29.1537C79.7953 29.6827 80.0366 30.3974 80.0366 31.3069C80.0366 31.5297 80.0366 31.6967 80.0274 31.8174H80.0181ZM78.728 31.0934C78.728 29.9333 78.2175 29.3486 77.2337 29.3486C76.7047 29.3486 76.287 29.5435 75.9807 29.924C75.6559 30.3138 75.4888 30.8521 75.4795 31.5389L78.728 31.0934Z" fill="#1368B1"/>
<path d="M82.3575 25.4424H80.9932V35.2063H82.3575V25.4424Z" fill="#1368B1"/>
<path d="M89.1235 31.8174L84.6685 32.4392C84.8078 33.6458 85.4946 34.2584 86.7197 34.2584C87.4529 34.2584 88.0655 34.1191 88.5759 33.85L88.975 34.8709C88.3718 35.1865 87.5921 35.3443 86.6362 35.3443C85.5874 35.3443 84.7799 35.0287 84.1952 34.3976C83.6197 33.785 83.3413 32.9311 83.3413 31.8452C83.3413 30.7593 83.6105 29.9704 84.1488 29.33C84.6964 28.6803 85.4296 28.3555 86.367 28.3555C87.2302 28.3555 87.9077 28.6246 88.4089 29.1537C88.9008 29.6827 89.1421 30.3974 89.1421 31.3069C89.1421 31.5297 89.1421 31.6967 89.1328 31.8174H89.1235ZM87.8335 31.0934C87.8335 29.9333 87.323 29.3486 86.3392 29.3486C85.8101 29.3486 85.3925 29.5435 85.0862 29.924C84.7613 30.3138 84.5943 30.8521 84.585 31.5389L87.8335 31.0934Z" fill="#1368B1"/>
<path d="M94.479 34.8807C94.0242 35.187 93.4488 35.3448 92.762 35.3448C91.936 35.3448 91.2677 35.0663 90.7387 34.5094C90.1261 33.869 89.8198 32.9873 89.8198 31.8457C89.8198 30.7041 90.1261 29.8224 90.7387 29.2005C91.2677 28.6437 91.9452 28.3652 92.762 28.3652C93.4488 28.3652 94.0242 28.523 94.479 28.8293L94.0335 29.8131C93.7365 29.5996 93.3746 29.4883 92.9383 29.4883C92.4464 29.4883 92.0473 29.6739 91.741 30.0451C91.3884 30.4721 91.2213 31.0661 91.2213 31.8364C91.2213 32.6068 91.3976 33.2008 91.7596 33.6277C92.0752 34.0083 92.465 34.2032 92.9383 34.2032C93.3653 34.2032 93.7365 34.0918 94.0335 33.8783L94.479 34.89V34.8807Z" fill="#1368B1"/>
<path d="M100.169 34.3331C99.6397 35.0013 98.9064 35.3448 97.9783 35.3448C97.0502 35.3448 96.317 35.0106 95.7879 34.3331C95.2774 33.702 95.0269 32.8759 95.0269 31.8457C95.0269 30.8155 95.2774 29.9895 95.7879 29.3583C96.317 28.6994 97.0502 28.3652 97.9783 28.3652C98.9064 28.3652 99.6397 28.6994 100.169 29.3583C100.67 29.9895 100.93 30.8155 100.93 31.8457C100.93 32.8759 100.679 33.702 100.169 34.3331ZM99.157 30.0916C98.8879 29.6646 98.4888 29.4419 97.9783 29.4419C97.4678 29.4419 97.0687 29.6553 96.7996 30.0916C96.5304 30.5185 96.4005 31.0939 96.4005 31.8364C96.4005 32.5789 96.5304 33.1544 96.7996 33.5813C97.0687 34.0175 97.4678 34.2403 97.9783 34.2403C98.4888 34.2403 98.8879 34.0175 99.157 33.5813C99.4262 33.1544 99.5561 32.5789 99.5561 31.8364C99.5561 31.0939 99.4262 30.5185 99.157 30.0916Z" fill="#1368B1"/>
<path d="M109.608 35.2051V30.6665C109.608 30.286 109.487 29.989 109.255 29.7755C109.023 29.5713 108.708 29.4599 108.318 29.4599C107.779 29.4599 107.371 29.6084 107.083 29.9054V35.2051H105.719V30.5366C105.719 30.2024 105.598 29.9426 105.348 29.7384C105.097 29.5435 104.763 29.4507 104.355 29.4507C103.9 29.4507 103.519 29.5156 103.213 29.6456V35.1958H101.858V28.8288C102.619 28.5133 103.426 28.3555 104.271 28.3555C105.236 28.3555 105.942 28.5968 106.415 29.0794C106.981 28.5968 107.724 28.3555 108.643 28.3555C109.357 28.3555 109.923 28.5504 110.35 28.9402C110.768 29.33 110.972 29.859 110.972 30.518V35.1958H109.617L109.608 35.2051Z" fill="#1368B1"/>
<path d="M53.3352 17.7197C50.3559 17.7197 47.7943 19.6781 46.7733 22.4253C46.7176 22.5646 46.5413 23.1493 46.5413 23.1493L42.4019 41.09H51.9152C55.1822 41.09 57.948 38.7325 58.7369 35.5491L62.8485 17.7197H53.3352Z" fill="#16B14B"/>
<path d="M37.4915 12.5322C34.308 12.5322 31.6164 14.6948 30.7811 17.6369C30.7162 17.8597 30.6697 18.0824 30.6233 18.3145L26.2055 37.4617L25.0639 42.4272L24.1729 46.2882H33.6862C36.9439 46.2882 39.6819 44.0329 40.4522 40.9793L47.0234 12.5322H37.5008H37.4915ZM41.5381 28.2362C41.3711 28.923 40.9534 29.6747 40.378 30.1481C39.7932 30.6214 39.19 30.6957 38.5124 30.6957H32.7488L32.2661 32.7747C32.1083 33.4615 31.7371 34.0462 31.1431 34.5289C30.5491 35.0115 29.9087 35.2528 29.2219 35.2528H29.1012V35.2435L31.7928 23.5584H40.1181C40.7121 23.5584 41.204 23.7626 41.5752 24.1338C41.9465 24.5051 42.1321 24.9877 42.1228 25.5446C42.1228 25.7209 42.095 25.9066 42.0579 26.0736L41.5474 28.2362H41.5381Z" fill="#F27227"/>
<path d="M42.1046 25.535C42.1046 25.7114 42.0768 25.897 42.0397 26.0641L41.5292 28.2266C41.3621 28.9134 40.9445 29.6652 40.369 30.1385C39.7843 30.6119 39.181 30.6861 38.5035 30.6861H32.7398L32.2572 32.7651C32.0994 33.452 31.7282 34.0367 31.1342 34.5193C30.5402 35.0019 29.8998 35.2432 29.2129 35.2432H29.0923V35.234L31.7839 23.5488H40.1092C40.7032 23.5488 41.1951 23.753 41.5663 24.1243C41.9376 24.4955 42.1232 24.9781 42.1139 25.535H42.1046Z" fill="#F27227"/>
<path d="M19.2542 17.7212C16.1728 17.7212 13.5276 19.8188 12.5809 22.7238C12.5624 22.7888 12.5345 22.8537 12.5159 22.9187L12.3582 23.5406L8.31152 41.0822H18.0569C20.9712 41.0822 23.4679 39.1517 24.4424 36.4415L24.8322 34.7709L28.7675 17.7119H19.2542V17.7212Z" fill="#1169B0"/>
<path d="M17.4725 23.5488V23.5674H17.324C16.6464 23.5674 16.006 23.8087 15.4213 24.2913C14.8551 24.7554 14.4839 25.3123 14.354 25.7763L12.1729 35.2618H12.2935C12.9803 35.2618 13.63 35.0205 14.2147 34.5379C14.8087 34.0552 15.1893 33.4705 15.3378 32.7837L15.8111 30.7233H20.1548C20.8323 30.7233 21.4913 30.4727 22.076 29.99C22.67 29.5167 23.0412 28.9227 23.199 28.2452L23.2269 28.1245H16.4144L16.8692 26.1661H22.7721C23.4496 26.1661 24.09 25.9156 24.6747 25.4422C25.2595 24.9689 25.6214 24.3656 25.7885 23.6973L25.8163 23.5767H17.4725V23.5488Z" fill="white"/>
<path d="M41.557 24.1248C41.1858 23.7535 40.6939 23.5586 40.0999 23.5586H31.7746L29.083 35.2344V35.253H29.2037C29.8905 35.253 30.5402 35.0117 31.1249 34.5291C31.7189 34.0464 32.0901 33.4617 32.2479 32.7749L32.7306 30.6959H38.4942C39.1718 30.6959 39.775 30.6216 40.3598 30.1483C40.9445 29.675 41.3621 28.9232 41.5199 28.2364L42.0304 26.0738C42.0675 25.8975 42.0861 25.7211 42.0954 25.5448C42.0954 24.9879 41.919 24.5146 41.5478 24.134L41.557 24.1248ZM38.9583 28.1064H33.3431L33.7979 26.1481H39.4131L38.9583 28.1064Z" fill="white"/>
<path d="M58.4954 24.1335C58.1242 23.753 57.6416 23.5674 57.0475 23.5674H48.2582L48.2396 23.6509C48.2025 23.8365 48.1746 24.0036 48.1746 24.1614C48.1654 24.7275 48.351 25.2102 48.713 25.5907C49.0842 25.962 49.5668 26.1569 50.1608 26.1569H51.9985L49.901 35.2525H50.0216C50.7084 35.2525 51.3581 35.0112 51.9428 34.5286C52.5368 34.0459 52.9174 33.4612 53.0659 32.7744L54.5973 26.1661H58.9317L58.9502 26.0826C58.9873 25.9063 59.0059 25.7299 59.0059 25.5536C59.0152 24.9874 58.8388 24.5141 58.4676 24.1428L58.4954 24.1335Z" fill="white"/>
<path d="M60.2031 39.0756C60.2031 37.9711 61.1034 37.0615 62.2172 37.0615C63.3309 37.0615 64.2312 37.9618 64.2312 39.0756C64.2312 40.1893 63.3309 41.0896 62.2172 41.0896C61.1034 41.0896 60.2031 40.1893 60.2031 39.0756ZM63.7393 39.0756C63.7393 38.1382 63.0618 37.4513 62.2172 37.4513C61.3726 37.4513 60.695 38.1289 60.695 39.0756C60.695 40.0222 61.3726 40.6998 62.2172 40.6998C63.0618 40.6998 63.7393 40.0222 63.7393 39.0756ZM61.4375 37.9247H62.2821C62.8297 37.9247 63.1267 38.1103 63.1267 38.5929C63.1267 38.9827 62.904 39.1684 62.5234 39.2055L63.136 40.1986H62.6998L62.1058 39.2148H61.8459V40.1986H61.419V37.9154L61.4375 37.9247ZM61.8645 38.8992H62.2357C62.4863 38.8992 62.6998 38.8621 62.6998 38.5558C62.6998 38.2867 62.4585 38.2402 62.2357 38.2402H61.8552V38.8899L61.8645 38.8992Z" fill="#1169B0"/>
<path d="M31.6072 8.80049C31.6072 7.41758 30.4935 6.30383 29.1198 6.30383C28.9435 6.30383 28.7672 6.32239 28.6094 6.35952C28.6094 6.31311 28.6094 6.2667 28.6094 6.2203C28.6094 4.83739 27.4956 3.72363 26.122 3.72363C24.7484 3.72363 23.6253 4.83739 23.6253 6.2203C23.6253 6.27598 23.6253 6.32239 23.6253 6.37808C23.4304 6.33167 23.2355 6.30383 23.0313 6.30383C21.6484 6.30383 20.5439 7.41758 20.5439 8.80049C20.5439 9.76574 21.0915 10.6103 21.9083 11.0187C21.732 11.3528 21.6391 11.7334 21.6391 12.1418C21.6391 13.5154 22.7529 14.6291 24.1265 14.6291C24.9154 14.6291 25.6208 14.2579 26.0756 13.6917C26.5304 14.2672 27.2357 14.6291 28.0247 14.6291C29.3983 14.6291 30.512 13.5154 30.512 12.1418C30.512 11.7334 30.4099 11.3528 30.2429 11.0187C31.0504 10.6103 31.6072 9.76574 31.6072 8.80049ZM27.0594 10.5361C26.2612 11.3064 26.1034 12.2346 26.0663 12.513C26.0385 12.2438 25.8807 11.2322 24.9897 10.4433C24.275 9.80287 23.4861 9.66365 23.1798 9.63581C23.4768 9.59868 24.2657 9.46874 24.9897 8.82834C25.8807 8.03943 26.0292 7.02777 26.0663 6.75861C26.1034 7.03705 26.2612 7.9559 27.0594 8.73552C27.8112 9.45946 28.6651 9.60796 28.9528 9.64509C28.6651 9.68221 27.8112 9.83071 27.0594 10.5547V10.5361Z" fill="#F27227"/>
<path d="M17.2771 12.9297C17.2771 12.2893 16.7573 11.7788 16.1262 11.7788C16.0427 11.7788 15.9684 11.7788 15.8849 11.8067C15.8849 11.7881 15.8849 11.7603 15.8849 11.7417C15.8849 11.1013 15.3651 10.5908 14.734 10.5908C14.1029 10.5908 13.5831 11.1106 13.5831 11.7417C13.5831 11.7695 13.5831 11.7881 13.5831 11.8159C13.4996 11.7974 13.4068 11.7788 13.314 11.7788C12.6736 11.7788 12.1631 12.2986 12.1631 12.9297C12.1631 13.3752 12.4137 13.765 12.7942 13.9599C12.7107 14.1177 12.6736 14.2941 12.6736 14.4797C12.6736 15.1108 13.1933 15.6306 13.8244 15.6306C14.1864 15.6306 14.5112 15.4635 14.7247 15.1943C14.9382 15.4542 15.263 15.6306 15.625 15.6306C16.2561 15.6306 16.7759 15.1108 16.7759 14.4797C16.7759 14.2941 16.7295 14.1177 16.6552 13.9599C17.0265 13.765 17.2864 13.3845 17.2864 12.9297H17.2771ZM15.1795 13.7279C14.8083 14.0806 14.7433 14.5168 14.7247 14.6375C14.7062 14.5168 14.6412 14.0435 14.2328 13.6815C13.8987 13.3845 13.5367 13.3195 13.3975 13.3102C13.5367 13.2917 13.8987 13.236 14.2328 12.939C14.6412 12.577 14.7154 12.1037 14.7247 11.983C14.7433 12.113 14.8083 12.5399 15.1795 12.8926C15.5229 13.2267 15.922 13.2917 16.0519 13.3102C15.922 13.3288 15.5229 13.3938 15.1795 13.7279Z" fill="#1169B0"/>
<path d="M21.5648 37.6935C20.9893 39.4383 19.9962 40.9326 18.7432 42.1021C16.0146 44.6451 12.0236 45.6475 8.23684 44.4038L8.18115 44.3853L9.83322 39.3734C11.4667 39.7539 13.1466 39.3362 14.3903 38.3431C14.5667 38.2039 14.7337 38.0554 14.8822 37.8884C15.6526 37.2294 16.4972 36.7096 17.3789 36.3105L21.5555 37.6935H21.5648Z" fill="#F27227"/>
<path d="M9.84277 39.3647L8.18142 44.3859C7.63382 44.2003 2.58481 42.4368 0.774957 36.998C-1.01633 31.6149 1.87015 27.2155 2.21356 26.7236C3.66144 27.4847 5.10003 28.2458 6.54791 29.0161C6.37157 29.2667 4.50603 31.9954 5.66619 35.2438C6.73354 38.2324 9.4808 39.2441 9.84277 39.374V39.3647Z" fill="#F9C404"/>
<path d="M6.47364 17.9794C4.94223 19.4366 3.41082 20.8937 1.87941 22.3416C1.77732 22.4344 1.71235 22.5551 1.6845 22.685C1.35966 24.2257 1.02553 25.7664 0.691408 27.3071C0.626439 27.6134 0.77494 27.9196 1.05338 28.0496C2.62191 28.8199 4.18117 29.5903 5.74971 30.3606C6.03742 30.4998 6.38083 30.4256 6.57574 30.175C7.53171 28.9777 8.4784 27.7804 9.43437 26.5831C9.51791 26.481 9.56431 26.3604 9.57359 26.2305C9.79634 24.0958 10.0191 21.9611 10.2418 19.8264C10.2697 19.5479 10.1212 19.2788 9.87059 19.1488C8.98887 18.7126 8.11643 18.2857 7.23471 17.8495C6.98411 17.7288 6.67783 17.7752 6.47364 17.9701V17.9794ZM4.64523 23.6039C4.47817 23.7988 4.18117 23.8359 3.98626 23.6688C3.78207 23.5018 3.75423 23.2048 3.92129 23.0099C4.08836 22.8057 4.38536 22.7778 4.58026 22.9449C4.77517 23.1027 4.8123 23.3997 4.64523 23.6039ZM7.71734 24.8475C7.55027 25.0425 7.25327 25.0796 7.05837 24.9125C6.85418 24.7455 6.82633 24.4485 6.9934 24.2535C7.16046 24.0494 7.45746 24.0215 7.65237 24.1886C7.84727 24.3556 7.8844 24.6526 7.71734 24.8475Z" fill="#F27227"/>
<path d="M26.4192 36.5225L25.1569 42.0077C24.7671 41.7293 23.5884 40.9589 21.9363 40.9868C20.1172 41.0239 18.892 41.9984 18.5486 42.2769C18.4651 42.3419 18.4001 42.4068 18.3537 42.4532C17.7412 41.8128 17.1286 41.1817 16.516 40.5413L14.3906 38.3509C14.567 38.2117 14.734 38.0632 14.8825 37.8961C15.6529 37.2372 16.4975 36.7174 17.3792 36.3183C19.5789 35.3345 22.0477 35.1396 24.3402 35.7429C25.0548 35.9285 25.7416 36.1884 26.4099 36.5318L26.4192 36.5225Z" fill="#F9C404"/>
<path d="M41.7891 6.07118C41.7891 5.19874 41.0837 4.49336 40.2206 4.49336C40.1092 4.49336 39.9978 4.50265 39.8957 4.53049C39.8957 4.50265 39.8957 4.4748 39.8957 4.44696C39.8957 3.57452 39.1903 2.86914 38.3272 2.86914C37.464 2.86914 36.7494 3.57452 36.7494 4.44696C36.7494 4.48408 36.7494 4.51193 36.7494 4.54905C36.6287 4.52121 36.508 4.50265 36.3781 4.50265C35.5057 4.50265 34.8096 5.20802 34.8096 6.08046C34.8096 6.69303 35.153 7.22206 35.6727 7.48194C35.5614 7.69541 35.5057 7.93672 35.5057 8.19659C35.5057 9.05975 36.211 9.76513 37.0742 9.76513C37.5754 9.76513 38.0209 9.5331 38.3086 9.17113C38.5963 9.5331 39.0418 9.76513 39.5337 9.76513C40.3969 9.76513 41.1023 9.05975 41.1023 8.19659C41.1023 7.93672 41.0373 7.69541 40.9352 7.48194C41.4457 7.22206 41.7984 6.69303 41.7984 6.08046L41.7891 6.07118ZM38.9212 7.16637C38.42 7.649 38.3179 8.23372 38.2993 8.41006C38.2808 8.243 38.1787 7.60259 37.6218 7.1014C37.167 6.69303 36.6751 6.6095 36.4802 6.59093C36.6658 6.57237 37.167 6.48884 37.6218 6.08046C38.1787 5.57927 38.2808 4.93887 38.2993 4.7718C38.3179 4.94815 38.42 5.53287 38.9212 6.01549C39.3945 6.47028 39.9328 6.56309 40.1185 6.59093C39.9421 6.6095 39.3945 6.70231 38.9212 7.16637Z" fill="#16B14B"/>
<path d="M7.48527 25.6082C8.01837 25.6082 8.45053 25.1761 8.45053 24.643C8.45053 24.1099 8.01837 23.6777 7.48527 23.6777C6.95218 23.6777 6.52002 24.1099 6.52002 24.643C6.52002 25.1761 6.95218 25.6082 7.48527 25.6082Z" fill="white"/>
<path d="M4.16349 24.2733C4.69659 24.2733 5.12875 23.8411 5.12875 23.308C5.12875 22.7749 4.69659 22.3428 4.16349 22.3428C3.6304 22.3428 3.19824 22.7749 3.19824 23.308C3.19824 23.8411 3.6304 24.2733 4.16349 24.2733Z" fill="white"/>
<path d="M51.796 12.8235C51.8093 12.6108 51.8773 12.4211 51.9998 12.2542C52.1238 12.0874 52.287 11.9567 52.4893 11.8622C52.6916 11.7662 52.9183 11.7182 53.1693 11.7182C53.3996 11.7182 53.6041 11.7581 53.7828 11.8378C53.9615 11.9161 54.1017 12.0246 54.2036 12.1634C54.3055 12.3022 54.3565 12.461 54.3565 12.6396C54.3565 12.7519 54.338 12.8552 54.3011 12.9497C54.2656 13.0428 54.2066 13.1365 54.1239 13.231C54.0427 13.324 53.9342 13.4259 53.7983 13.5367C53.6625 13.6459 53.4956 13.7729 53.2977 13.9176L52.8393 14.2499L52.8304 14.2942H54.0663L53.9157 15.0029H51.4195L51.5613 14.3518L52.6643 13.5367C52.8178 13.423 52.9448 13.3263 53.0452 13.2465C53.1471 13.1653 53.2269 13.0952 53.2844 13.0361C53.342 12.9756 53.3826 12.9202 53.4063 12.87C53.4299 12.8198 53.4417 12.7681 53.4417 12.7149C53.4417 12.6559 53.4262 12.6042 53.3952 12.5599C53.3657 12.5156 53.3236 12.4809 53.2689 12.4558C53.2158 12.4307 53.153 12.4182 53.0807 12.4182C53.0467 12.4182 52.9995 12.427 52.9389 12.4447C52.8799 12.4624 52.8223 12.5001 52.7662 12.5577C52.7101 12.6138 52.6687 12.7024 52.6421 12.8235C52.5019 12.8235 52.3608 12.8235 52.2191 12.8235C52.0773 12.8235 51.9363 12.8235 51.796 12.8235ZM56.0088 15.0915C55.7474 15.0915 55.5215 15.0391 55.331 14.9343C55.142 14.828 54.9958 14.6766 54.8925 14.4802C54.7906 14.2824 54.7396 14.0468 54.7396 13.7737C54.7396 13.4724 54.7795 13.1971 54.8592 12.9475C54.9404 12.6965 55.0541 12.4794 55.2003 12.2963C55.3465 12.1118 55.5193 11.9693 55.7186 11.8689C55.918 11.7684 56.1365 11.7182 56.3742 11.7182C56.64 11.7182 56.8681 11.7707 57.0586 11.8755C57.2506 11.9803 57.3975 12.1302 57.4994 12.3251C57.6028 12.52 57.6544 12.7541 57.6544 13.0272C57.6544 13.327 57.6138 13.6031 57.5326 13.8556C57.4514 14.1066 57.337 14.3244 57.1893 14.509C57.0416 14.6936 56.8674 14.8368 56.6666 14.9387C56.4672 15.0406 56.248 15.0915 56.0088 15.0915ZM55.6876 13.8445C55.6876 13.9568 55.7009 14.0527 55.7275 14.1325C55.7541 14.2122 55.7917 14.2728 55.8404 14.3141C55.8906 14.3554 55.9497 14.3761 56.0176 14.3761C56.1062 14.3761 56.1911 14.3377 56.2723 14.2609C56.355 14.1827 56.4289 14.0771 56.4938 13.9442C56.5603 13.8098 56.612 13.6578 56.6489 13.4879C56.6873 13.3181 56.7065 13.1417 56.7065 12.9586C56.7065 12.8464 56.6932 12.7519 56.6666 12.6751C56.64 12.5968 56.6009 12.537 56.5492 12.4957C56.499 12.4543 56.4385 12.4337 56.3676 12.4337C56.279 12.4337 56.1941 12.472 56.1129 12.5488C56.0317 12.6256 55.9586 12.7305 55.8936 12.8633C55.8301 12.9948 55.7799 13.1454 55.743 13.3152C55.7061 13.4835 55.6876 13.66 55.6876 13.8445ZM58.2414 12.8235C58.2547 12.6108 58.3226 12.4211 58.4451 12.2542C58.5692 12.0874 58.7323 11.9567 58.9346 11.8622C59.1369 11.7662 59.3636 11.7182 59.6146 11.7182C59.845 11.7182 60.0495 11.7581 60.2281 11.8378C60.4068 11.9161 60.5471 12.0246 60.649 12.1634C60.7509 12.3022 60.8018 12.461 60.8018 12.6396C60.8018 12.7519 60.7833 12.8552 60.7464 12.9497C60.711 13.0428 60.6519 13.1365 60.5692 13.231C60.488 13.324 60.3795 13.4259 60.2436 13.5367C60.1078 13.6459 59.9409 13.7729 59.7431 13.9176L59.2846 14.2499L59.2757 14.2942H60.5116L60.361 15.0029H57.8648L58.0066 14.3518L59.1096 13.5367C59.2632 13.423 59.3902 13.3263 59.4906 13.2465C59.5925 13.1653 59.6722 13.0952 59.7298 13.0361C59.7874 12.9756 59.828 12.9202 59.8516 12.87C59.8752 12.8198 59.887 12.7681 59.887 12.7149C59.887 12.6559 59.8715 12.6042 59.8405 12.5599C59.811 12.5156 59.7689 12.4809 59.7143 12.4558C59.6611 12.4307 59.5984 12.4182 59.526 12.4182C59.4921 12.4182 59.4448 12.427 59.3843 12.4447C59.3252 12.4624 59.2676 12.5001 59.2115 12.5577C59.1554 12.6138 59.114 12.7024 59.0875 12.8235C58.9472 12.8235 58.8062 12.8235 58.6644 12.8235C58.5227 12.8235 58.3817 12.8235 58.2414 12.8235ZM62.4497 15.0915C62.206 15.0915 61.989 15.048 61.7985 14.9608C61.6095 14.8737 61.4604 14.7549 61.3511 14.6042C61.2433 14.4522 61.1894 14.2787 61.1894 14.0837C61.1894 14.066 61.1887 14.0586 61.1872 14.0616C61.1872 14.0646 61.1872 14.0631 61.1872 14.0572C61.1887 14.0513 61.1909 14.0262 61.1938 13.9819H62.0355C62.0414 14.0601 62.0643 14.1288 62.1041 14.1878C62.1455 14.2469 62.2001 14.2934 62.2681 14.3274C62.3375 14.3599 62.4157 14.3761 62.5028 14.3761C62.5944 14.3761 62.6771 14.354 62.7509 14.3097C62.8262 14.2654 62.8853 14.2056 62.9281 14.1303C62.9724 14.055 62.9945 13.9708 62.9945 13.8778C62.9945 13.7906 62.9768 13.7153 62.9414 13.6518C62.9074 13.5884 62.8587 13.5396 62.7952 13.5057C62.7317 13.4702 62.6571 13.4525 62.5715 13.4525C62.5242 13.4525 62.4748 13.4614 62.4231 13.4791C62.3714 13.4968 62.3227 13.5204 62.2769 13.55C62.2326 13.5795 62.1957 13.6135 62.1662 13.6518C62.0274 13.6518 61.8878 13.6518 61.7476 13.6518C61.6088 13.6518 61.47 13.6518 61.3312 13.6518L61.8649 11.8068H64.082L63.9248 12.5245H62.4497L62.2525 13.1313H62.2946C62.3744 13.0413 62.4726 12.9719 62.5892 12.9231C62.7073 12.8744 62.8336 12.8501 62.968 12.8501C63.1378 12.8501 63.2899 12.8914 63.4242 12.9741C63.5586 13.0553 63.6642 13.166 63.741 13.3063C63.8192 13.4466 63.8583 13.6053 63.8583 13.7825C63.8583 14.0365 63.7978 14.2624 63.6767 14.4603C63.5571 14.6567 63.391 14.811 63.1784 14.9232C62.9672 15.0354 62.7243 15.0915 62.4497 15.0915Z" fill="#F27227"/>
</g>
<defs>
<clipPath id="clip0_5639_21562">
<rect width="111" height="43.4348" fill="white" transform="translate(0 3)"/>
</clipPath>
</defs>
</svg>
