<svg width="12" height="12" viewBox="0 0 12 12" fill="none" xmlns="http://www.w3.org/2000/svg">
<g clip-path="url(#clip0_5317_11169)">
<path d="M4.87496 11.9999C4.75644 12.0005 4.64057 11.965 4.54282 11.8979C4.44507 11.8309 4.3701 11.7357 4.32792 11.6249L3.39418 9.19681C3.37526 9.14788 3.34633 9.10345 3.30924 9.06635C3.27215 9.02926 3.22771 9.00033 3.17878 8.98142L0.749956 8.04697C0.639318 8.0045 0.544156 7.92949 0.47703 7.83183C0.409904 7.73416 0.37397 7.61844 0.37397 7.49994C0.37397 7.38143 0.409904 7.26571 0.47703 7.16804C0.544156 7.07038 0.639318 6.99537 0.749956 6.9529L3.17808 6.01915C3.22701 6.00024 3.27145 5.97131 3.30854 5.93422C3.34563 5.89713 3.37456 5.85269 3.39347 5.80376L4.32792 3.37494C4.37039 3.2643 4.4454 3.16913 4.54306 3.10201C4.64073 3.03488 4.75645 2.99895 4.87496 2.99895C4.99346 2.99895 5.10918 3.03488 5.20685 3.10201C5.30451 3.16913 5.37952 3.2643 5.42199 3.37494L6.35574 5.80306C6.37465 5.85199 6.40358 5.89642 6.44067 5.93352C6.47776 5.97061 6.5222 5.99954 6.57113 6.01845L8.98519 6.94728C9.10033 6.98996 9.19953 7.06708 9.26927 7.16815C9.33901 7.26922 9.37591 7.38933 9.37496 7.51212C9.37317 7.62857 9.33647 7.74179 9.26961 7.83715C9.20276 7.9325 9.10882 8.0056 8.99996 8.04697L6.57183 8.98072C6.5229 8.99963 6.47847 9.02856 6.44137 9.06565C6.40428 9.10274 6.37535 9.14718 6.35644 9.19611L5.42199 11.6249C5.37981 11.7357 5.30484 11.8309 5.20709 11.8979C5.10934 11.965 4.99347 12.0005 4.87496 11.9999Z" fill="white"/>
<path d="M2.06246 4.12494C1.99298 4.12493 1.92513 4.10388 1.86785 4.06455C1.81057 4.02522 1.76656 3.96946 1.7416 3.90462L1.34644 2.87712C1.33788 2.85465 1.32466 2.83424 1.30765 2.81724C1.29065 2.80023 1.27024 2.78702 1.24777 2.77845L0.220268 2.38329C0.155435 2.35833 0.0996864 2.31431 0.0603664 2.25703C0.0210464 2.19975 0 2.13191 0 2.06244C0 1.99296 0.0210464 1.92512 0.0603664 1.86784C0.0996864 1.81056 0.155435 1.76654 0.220268 1.74158L1.24777 1.34642C1.27022 1.33782 1.29061 1.32458 1.30761 1.30758C1.3246 1.29058 1.33784 1.2702 1.34644 1.24775L1.73808 0.229388C1.76017 0.169436 1.79817 0.116635 1.84802 0.0766623C1.89786 0.0366892 1.95765 0.0110544 2.02097 0.0025133C2.09699 -0.00672805 2.17392 0.00967318 2.23956 0.0491163C2.3052 0.0885593 2.35579 0.148787 2.38332 0.220248L2.77847 1.24775C2.78707 1.2702 2.80031 1.29058 2.81731 1.30758C2.83431 1.32458 2.85469 1.33782 2.87714 1.34642L3.90464 1.74158C3.96948 1.76654 4.02523 1.81056 4.06455 1.86784C4.10387 1.92512 4.12491 1.99296 4.12491 2.06244C4.12491 2.13191 4.10387 2.19975 4.06455 2.25703C4.02523 2.31431 3.96948 2.35833 3.90464 2.38329L2.87714 2.77845C2.85467 2.78702 2.83426 2.80023 2.81726 2.81724C2.80025 2.83424 2.78704 2.85465 2.77847 2.87712L2.38332 3.90462C2.35836 3.96946 2.31434 4.02522 2.25706 4.06455C2.19978 4.10388 2.13194 4.12493 2.06246 4.12494Z" fill="white"/>
<path d="M9.37496 5.99994C9.29916 5.99991 9.22515 5.97692 9.16269 5.93399C9.10022 5.89107 9.05223 5.83022 9.02503 5.75947L8.48972 4.36798C8.4803 4.34346 8.46584 4.3212 8.44727 4.30262C8.4287 4.28405 8.40643 4.26959 8.38191 4.26017L6.99042 3.72486C6.91973 3.69762 6.85895 3.6496 6.81607 3.58714C6.7732 3.52468 6.75026 3.4507 6.75026 3.37494C6.75026 3.29918 6.7732 3.22519 6.81607 3.16273C6.85895 3.10027 6.91973 3.05225 6.99042 3.02501L8.38191 2.4897C8.40643 2.48028 8.4287 2.46582 8.44727 2.44725C8.46584 2.42868 8.4803 2.40641 8.48972 2.38189L9.02105 1.00025C9.04531 0.934911 9.08682 0.877372 9.14117 0.833749C9.19552 0.790127 9.26068 0.762052 9.32972 0.752513C9.41268 0.742472 9.49661 0.760424 9.5682 0.803522C9.63979 0.84662 9.69493 0.912393 9.72488 0.990404L10.2602 2.38189C10.2696 2.40641 10.2841 2.42868 10.3026 2.44725C10.3212 2.46582 10.3435 2.48028 10.368 2.4897L11.7595 3.02501C11.8302 3.05225 11.891 3.10027 11.9338 3.16273C11.9767 3.22519 11.9997 3.29918 11.9997 3.37494C11.9997 3.4507 11.9767 3.52468 11.9338 3.58714C11.891 3.6496 11.8302 3.69762 11.7595 3.72486L10.368 4.26017C10.3435 4.26959 10.3212 4.28405 10.3026 4.30262C10.2841 4.3212 10.2696 4.34346 10.2602 4.36798L9.72488 5.75947C9.69769 5.83022 9.64969 5.89107 9.58723 5.93399C9.52476 5.97692 9.45075 5.99991 9.37496 5.99994Z" fill="white"/>
</g>
<defs>
<clipPath id="clip0_5317_11169">
<rect width="12" height="12" fill="white"/>
</clipPath>
</defs>
</svg>
