<svg width="96" height="97" viewBox="0 0 96 97" fill="none" xmlns="http://www.w3.org/2000/svg">
<rect y="0.5" width="96" height="96" rx="48" fill="#121619" fill-opacity="0.5"/>
<path d="M63.64 49.546C63.7804 49.3256 63.8751 49.0793 63.9185 48.8216C63.9619 48.5639 63.9531 48.3001 63.8927 48.0459C63.8322 47.7917 63.7214 47.5522 63.5667 47.3416C63.412 47.131 63.2165 46.9537 62.992 46.82L43.148 34.756C42.8253 34.5607 42.4552 34.4576 42.078 34.458C40.958 34.458 40.052 35.344 40.052 36.438V60.56C40.052 60.93 40.158 61.292 40.358 61.606C40.95 62.534 42.198 62.818 43.148 62.24L62.992 50.178C63.254 50.018 63.478 49.8 63.642 49.544L63.64 49.546ZM65.132 53.54L45.29 65.602C42.44 67.336 38.69 66.482 36.918 63.7C36.3189 62.7623 36.0004 61.6728 36 60.56V36.44C36 33.158 38.72 30.5 42.08 30.5C43.214 30.5 44.326 30.81 45.29 31.396L65.132 43.46C67.982 45.192 68.856 48.852 67.082 51.636C66.59 52.408 65.922 53.06 65.132 53.54Z" fill="white"/>
</svg>
