<svg width="88" height="88" viewBox="0 0 88 88" fill="none" xmlns="http://www.w3.org/2000/svg">
<circle cx="44" cy="44" r="44" fill="#F1FDF6"/>
<path d="M44 14C27.47 14 14 27.47 14 44C14 60.53 27.47 74 44 74C60.53 74 74 60.53 74 44C74 27.47 60.53 14 44 14ZM58.34 37.1L41.33 54.11C40.91 54.53 40.34 54.77 39.74 54.77C39.14 54.77 38.57 54.53 38.15 54.11L29.66 45.62C28.79 44.75 28.79 43.31 29.66 42.44C30.53 41.57 31.97 41.57 32.84 42.44L39.74 49.34L55.16 33.92C56.03 33.05 57.47 33.05 58.34 33.92C59.21 34.79 59.21 36.2 58.34 37.1Z" fill="#17BA58"/>
</svg>
