<svg width="51" height="43" viewBox="0 0 51 43" fill="none" xmlns="http://www.w3.org/2000/svg">
<g filter="url(#filter0_bd)">
<path d="M42.6466 13.9375V26.125C42.6466 26.7715 42.3891 27.3915 41.9309 27.8486C41.4726 28.3057 40.8511 28.5625 40.2031 28.5625C38.3583 28.6722 37.7597 27.3437 37.7597 26.0275V11.5H40.2031C40.8511 11.5 41.4726 11.7568 41.9309 12.2139C42.3891 12.671 42.6466 13.291 42.6466 13.9375Z" fill="white"/>
<path d="M35.3163 7.84375C35.3163 6.87405 34.9301 5.94407 34.2428 5.25839C33.5554 4.57271 32.6232 4.1875 31.6511 4.1875H12.1035C11.1314 4.1875 10.1992 4.57271 9.51182 5.25839C8.82446 5.94407 8.43831 6.87405 8.43831 7.84375V24.9062C8.41216 26.4945 9.01884 28.0283 10.1252 29.1708C11.2315 30.3133 12.7471 30.9712 14.3392 31H41.4249C40.1321 30.8497 38.8843 30.4348 37.7597 29.7812C37.0622 29.445 36.4677 28.9286 36.038 28.2856C35.6083 27.6426 35.3591 26.8966 35.3163 26.125V7.84375ZM26.7642 23.6875H16.9904C16.6664 23.6875 16.3556 23.5591 16.1265 23.3305C15.8974 23.102 15.7687 22.792 15.7687 22.4687C15.7687 22.1455 15.8974 21.8355 16.1265 21.607C16.3556 21.3784 16.6664 21.25 16.9904 21.25H26.7642C27.0882 21.25 27.399 21.3784 27.6281 21.607C27.8572 21.8355 27.9859 22.1455 27.9859 22.4687C27.9859 22.792 27.8572 23.102 27.6281 23.3305C27.399 23.5591 27.0882 23.6875 26.7642 23.6875ZM26.7642 18.8125H16.9904C16.6664 18.8125 16.3556 18.6841 16.1265 18.4555C15.8974 18.227 15.7687 17.917 15.7687 17.5937C15.7687 17.2705 15.8974 16.9605 16.1265 16.732C16.3556 16.5034 16.6664 16.375 16.9904 16.375H26.7642C27.0882 16.375 27.399 16.5034 27.6281 16.732C27.8572 16.9605 27.9859 17.2705 27.9859 17.5937C27.9859 17.917 27.8572 18.227 27.6281 18.4555C27.399 18.6841 27.0882 18.8125 26.7642 18.8125ZM26.7642 13.9375H16.9904C16.6664 13.9375 16.3556 13.8091 16.1265 13.5805C15.8974 13.352 15.7687 13.042 15.7687 12.7187C15.7687 12.3955 15.8974 12.0855 16.1265 11.857C16.3556 11.6284 16.6664 11.5 16.9904 11.5H26.7642C27.0882 11.5 27.399 11.6284 27.6281 11.857C27.8572 12.0855 27.9859 12.3955 27.9859 12.7187C27.9859 13.042 27.8572 13.352 27.6281 13.5805C27.399 13.8091 27.0882 13.9375 26.7642 13.9375Z" fill="white"/>
</g>
<defs>
<filter id="filter0_bd" x="-0.375" y="-3.0625" width="51.75" height="51.75" filterUnits="userSpaceOnUse" color-interpolation-filters="sRGB">
<feFlood flood-opacity="0" result="BackgroundImageFix"/>
<feGaussianBlur in="BackgroundImage" stdDeviation="2"/>
<feComposite in2="SourceAlpha" operator="in" result="effect1_backgroundBlur"/>
<feColorMatrix in="SourceAlpha" type="matrix" values="0 0 0 0 0 0 0 0 0 0 0 0 0 0 0 0 0 0 127 0" result="hardAlpha"/>
<feOffset dy="4"/>
<feGaussianBlur stdDeviation="4"/>
<feColorMatrix type="matrix" values="0 0 0 0 0 0 0 0 0 0 0 0 0 0 0 0 0 0 0.1 0"/>
<feBlend mode="normal" in2="effect1_backgroundBlur" result="effect2_dropShadow"/>
<feBlend mode="normal" in="SourceGraphic" in2="effect2_dropShadow" result="shape"/>
</filter>
</defs>
</svg>
