<svg width="36" height="36" viewBox="0 0 36 36" fill="none" xmlns="http://www.w3.org/2000/svg">
<path d="M29.0081 14.526C29.2705 14.5262 29.5223 14.4241 29.7086 14.2419C29.801 14.151 29.8743 14.0429 29.9243 13.924C29.9743 13.8051 30 13.6776 30 13.5489C30 13.4202 29.9743 13.2927 29.9243 13.1738C29.8743 13.0549 29.801 12.9468 29.7086 12.8559C28.2495 11.4076 26.5141 10.2582 24.6025 9.47381C22.6908 8.68945 20.6407 8.28564 18.5701 8.28564C16.4995 8.28564 14.4494 8.68945 12.5378 9.47381C10.6261 10.2582 8.89076 11.4076 7.43159 12.8559C7.24581 13.0403 7.14196 13.29 7.14289 13.5499C7.14382 13.8099 7.24946 14.0588 7.43656 14.2419C7.62366 14.4251 7.87691 14.5275 8.14058 14.5266C8.40425 14.5256 8.65675 14.4215 8.84254 14.2371C10.117 12.9724 11.6325 11.9687 13.302 11.2838C14.9715 10.5989 16.7619 10.2463 18.5701 10.2463C20.3784 10.2463 22.1687 10.5989 23.8382 11.2838C25.5077 11.9687 27.0232 12.9724 28.2977 14.2371C28.3907 14.3293 28.5014 14.4024 28.6234 14.452C28.7454 14.5016 28.8762 14.5268 29.0081 14.526Z" fill="#0F1E47"/>
<path d="M25.5304 17.9888C25.7268 17.9889 25.9188 17.9318 26.0822 17.8244C26.2455 17.7171 26.373 17.5645 26.4485 17.3858C26.524 17.2071 26.5441 17.0104 26.5062 16.8205C26.4684 16.6305 26.3743 16.4559 26.2359 16.3186C25.2349 15.3253 24.0444 14.5369 22.733 13.9989C21.4217 13.461 20.0153 13.184 18.595 13.184C17.1746 13.184 15.7683 13.461 14.4569 13.9989C13.1455 14.5369 11.9551 15.3253 10.954 16.3186C10.8544 16.4079 10.7743 16.5162 10.7184 16.6369C10.6626 16.7577 10.6322 16.8883 10.6291 17.021C10.6261 17.1536 10.6504 17.2855 10.7006 17.4087C10.7508 17.5318 10.8258 17.6436 10.9211 17.7372C11.0165 17.8309 11.1301 17.9045 11.2552 17.9535C11.3803 18.0026 11.5141 18.0261 11.6487 18.0226C11.7832 18.0191 11.9157 17.9887 12.0379 17.9332C12.1602 17.8777 12.2698 17.7983 12.36 17.6998C13.1772 16.8898 14.1487 16.247 15.2187 15.8083C16.2887 15.3697 17.4361 15.1439 18.595 15.1439C19.7538 15.1439 20.9012 15.3697 21.9712 15.8083C23.0412 16.247 24.0128 16.8898 24.8299 17.6998C25.0154 17.8838 25.2673 17.9877 25.5304 17.9888Z" fill="#0F1E47"/>
<path d="M22.7185 21.1675C22.8108 21.0765 22.8841 20.9685 22.9341 20.8495C22.9841 20.7306 23.0099 20.6032 23.0099 20.4744C23.0099 20.3457 22.9841 20.2182 22.9341 20.0993C22.8841 19.9804 22.8108 19.8724 22.7185 19.7814C22.1746 19.2426 21.5282 18.8151 20.8163 18.5234C20.1044 18.2317 19.341 18.0815 18.5701 18.0815C17.7991 18.0815 17.0358 18.2317 16.3239 18.5234C15.612 18.8151 14.9655 19.2426 14.4217 19.7814C14.3297 19.8727 14.2569 19.981 14.2073 20.1001C14.1578 20.2192 14.1325 20.3467 14.133 20.4754C14.1335 20.6042 14.1596 20.7315 14.21 20.8503C14.2604 20.969 14.334 21.0768 14.4267 21.1675C14.5193 21.2582 14.6292 21.33 14.75 21.3788C14.8708 21.4276 15.0001 21.4526 15.1307 21.4521C15.2612 21.4516 15.3904 21.4258 15.5109 21.3762C15.6313 21.3265 15.7407 21.2539 15.8326 21.1626C16.5708 20.4736 17.5486 20.0897 18.5651 20.0897C19.5816 20.0897 20.5594 20.4736 21.2976 21.1626C21.3899 21.2537 21.4994 21.3259 21.6201 21.3752C21.7407 21.4245 21.87 21.4499 22.0006 21.4499C22.1311 21.4499 22.2604 21.4245 22.3811 21.3752C22.5017 21.3259 22.6113 21.2537 22.7036 21.1626L22.7185 21.1675Z" fill="#0F1E47"/>
<path d="M18.5751 22.9797C17.9855 22.9797 17.4092 23.152 16.919 23.4749C16.4288 23.7978 16.0467 24.2568 15.8211 24.7938C15.5955 25.3308 15.5365 25.9216 15.6515 26.4917C15.7665 27.0617 16.0504 27.5854 16.4673 27.9963C16.8842 28.4073 17.4153 28.6872 17.9935 28.8006C18.5718 28.914 19.1711 28.8558 19.7158 28.6334C20.2605 28.4109 20.726 28.0343 21.0536 27.551C21.3811 27.0678 21.5559 26.4996 21.5559 25.9184C21.5559 25.139 21.2419 24.3915 20.6829 23.8404C20.1238 23.2893 19.3656 22.9797 18.5751 22.9797ZM18.5751 26.8979C18.3785 26.8979 18.1864 26.8405 18.023 26.7329C17.8596 26.6252 17.7323 26.4722 17.6571 26.2932C17.5819 26.1142 17.5622 25.9173 17.6005 25.7273C17.6389 25.5372 17.7335 25.3627 17.8725 25.2257C18.0114 25.0887 18.1885 24.9954 18.3812 24.9576C18.574 24.9198 18.7737 24.9392 18.9553 25.0134C19.1369 25.0875 19.2921 25.2131 19.4012 25.3742C19.5104 25.5352 19.5687 25.7246 19.5687 25.9184C19.5687 26.1782 19.464 26.4273 19.2777 26.611C19.0913 26.7947 18.8386 26.8979 18.5751 26.8979Z" fill="#0F1E47"/>
</svg>
