<svg width="22" height="22" viewBox="0 0 22 22" fill="none" xmlns="http://www.w3.org/2000/svg">
<path d="M15.8177 9.92861C15.4491 9.92861 15.1577 9.62861 15.1577 9.26861C15.1577 8.95147 14.8405 8.29147 14.3091 7.71718C13.7863 7.16004 13.212 6.83432 12.732 6.83432C12.3634 6.83432 12.072 6.53432 12.072 6.17432C12.072 5.81432 12.372 5.51432 12.732 5.51432C13.5891 5.51432 14.4891 5.97718 15.2777 6.80861C16.0148 7.58861 16.4863 8.55718 16.4863 9.26004C16.4863 9.62861 16.1863 9.92861 15.8177 9.92861Z" fill="#FF730A"/>
<path d="M18.912 9.92969C18.5434 9.92969 18.252 9.62969 18.252 9.26969C18.252 6.22683 15.7748 3.75826 12.7406 3.75826C12.372 3.75826 12.0806 3.45826 12.0806 3.09826C12.0806 2.73826 12.372 2.42969 12.732 2.42969C16.5034 2.42969 19.572 5.49826 19.572 9.26969C19.572 9.62969 19.272 9.92969 18.912 9.92969Z" fill="#FF730A"/>
<path d="M10.1863 13.5297L8.60054 15.1154C8.26625 15.4497 7.73482 15.4497 7.39196 15.124C7.29768 15.0297 7.20339 14.944 7.10911 14.8497C6.22625 13.9583 5.42911 13.024 4.71768 12.0468C4.01482 11.0697 3.44911 10.0925 3.03768 9.12397C2.63482 8.14683 2.42911 7.21254 2.42911 6.32112C2.42911 5.73826 2.53196 5.18112 2.73768 4.66683C2.94339 4.14397 3.26911 3.66397 3.72339 3.2354C4.27196 2.6954 4.87196 2.42969 5.50625 2.42969C5.74625 2.42969 5.98625 2.48112 6.20054 2.58397C6.42339 2.68683 6.62054 2.84112 6.77482 3.06397L8.76339 5.86683C8.91768 6.08112 9.02911 6.27826 9.10625 6.46683C9.18339 6.64683 9.22625 6.82683 9.22625 6.98969C9.22625 7.1954 9.16625 7.40112 9.04625 7.59826C8.93482 7.7954 8.77196 8.00112 8.56625 8.20683L7.91482 8.88397C7.82054 8.97826 7.77768 9.08969 7.77768 9.22683C7.77768 9.2954 7.78625 9.3554 7.80339 9.42397C7.82911 9.49254 7.85482 9.54397 7.87197 9.5954C8.02625 9.87826 8.29196 10.2468 8.66911 10.6925C9.05482 11.1383 9.46625 11.5925 9.91196 12.0468C9.99768 12.1325 10.092 12.2183 10.1777 12.304C10.5205 12.6383 10.5291 13.1868 10.1863 13.5297Z" fill="#FF730A"/>
<path d="M19.5462 16.4258C19.5462 16.6658 19.5034 16.9144 19.4177 17.1544C19.392 17.223 19.3662 17.2916 19.332 17.3601C19.1862 17.6687 18.9977 17.9601 18.7491 18.2344C18.3291 18.6973 17.8662 19.0316 17.3434 19.2458C17.3348 19.2458 17.3262 19.2544 17.3177 19.2544C16.812 19.4601 16.2634 19.5716 15.672 19.5716C14.7977 19.5716 13.8634 19.3658 12.8777 18.9458C11.892 18.5258 10.9062 17.9601 9.9291 17.2487C9.59482 17.0001 9.26053 16.7516 8.94339 16.4858L11.7462 13.683C11.9862 13.863 12.2005 14.0001 12.3805 14.0944C12.4234 14.1116 12.4748 14.1373 12.5348 14.163C12.6034 14.1887 12.672 14.1973 12.7491 14.1973C12.8948 14.1973 13.0062 14.1458 13.1005 14.0516L13.752 13.4087C13.9662 13.1944 14.172 13.0316 14.3691 12.9287C14.5662 12.8087 14.7634 12.7487 14.9777 12.7487C15.1405 12.7487 15.312 12.783 15.5005 12.8601C15.6891 12.9373 15.8862 13.0487 16.1005 13.1944L18.9377 15.2087C19.1605 15.363 19.3148 15.543 19.4091 15.7573C19.4948 15.9716 19.5462 16.1858 19.5462 16.4258Z" fill="#FF730A"/>
</svg>
