<svg width="160" height="24" viewBox="0 0 160 24" fill="none" xmlns="http://www.w3.org/2000/svg">
<path d="M0 0H160V0C160 13.2548 149.255 24 136 24H0V0Z" fill="#FF2156"/>
<g clip-path="url(#clip0_10048_2525)">
<path d="M128 20.0009C127.842 20.0017 127.687 19.9543 127.557 19.8649C127.427 19.7756 127.327 19.6486 127.271 19.5009L126.026 16.2634C126 16.1982 125.962 16.1389 125.912 16.0894C125.863 16.04 125.804 16.0014 125.738 15.9762L122.5 14.7303C122.352 14.6736 122.226 14.5736 122.136 14.4434C122.047 14.3132 121.999 14.1589 121.999 14.0009C121.999 13.8429 122.047 13.6886 122.136 13.5584C122.226 13.4282 122.352 13.3281 122.5 13.2715L125.737 12.0265C125.803 12.0013 125.862 11.9627 125.911 11.9133C125.961 11.8638 125.999 11.8046 126.025 11.7393L127.271 8.50089C127.327 8.35337 127.427 8.22649 127.557 8.13699C127.688 8.04749 127.842 7.99958 128 7.99958C128.158 7.99958 128.312 8.04749 128.442 8.13699C128.573 8.22649 128.673 8.35337 128.729 8.50089L129.974 11.7384C130 11.8036 130.038 11.8629 130.088 11.9123C130.137 11.9618 130.196 12.0004 130.262 12.0256L133.48 13.264C133.634 13.3209 133.766 13.4238 133.859 13.5585C133.952 13.6933 134.001 13.8534 134 14.0171C133.998 14.1724 133.949 14.3234 133.859 14.4505C133.77 14.5776 133.645 14.6751 133.5 14.7303L130.262 15.9753C130.197 16.0005 130.138 16.0391 130.088 16.0885C130.039 16.138 130 16.1972 129.975 16.2625L128.729 19.5009C128.673 19.6486 128.573 19.7756 128.443 19.8649C128.312 19.9543 128.158 20.0017 128 20.0009Z" fill="white"/>
<path d="M124.25 9.50089C124.157 9.50089 124.067 9.47282 123.99 9.42038C123.914 9.36794 123.855 9.2936 123.822 9.20714L123.295 7.83714C123.284 7.80718 123.266 7.77997 123.244 7.75729C123.221 7.73462 123.194 7.717 123.164 7.70558L121.794 7.1787C121.707 7.14541 121.633 7.08672 121.58 7.01035C121.528 6.93398 121.5 6.84352 121.5 6.75089C121.5 6.65826 121.528 6.5678 121.58 6.49143C121.633 6.41506 121.707 6.35637 121.794 6.32308L123.164 5.7962C123.194 5.78473 123.221 5.76709 123.243 5.74442C123.266 5.72176 123.284 5.69457 123.295 5.66464L123.817 4.30683C123.847 4.22689 123.898 4.15649 123.964 4.10319C124.03 4.0499 124.11 4.01572 124.195 4.00433C124.296 3.99201 124.399 4.01387 124.486 4.06646C124.574 4.11906 124.641 4.19936 124.678 4.29464L125.205 5.66464C125.216 5.69457 125.234 5.72176 125.256 5.74442C125.279 5.76709 125.306 5.78473 125.336 5.7962L126.706 6.32308C126.793 6.35637 126.867 6.41506 126.919 6.49143C126.972 6.5678 127 6.65826 127 6.75089C127 6.84352 126.972 6.93398 126.919 7.01035C126.867 7.08672 126.793 7.14541 126.706 7.1787L125.336 7.70558C125.306 7.717 125.279 7.73462 125.256 7.75729C125.234 7.77997 125.216 7.80718 125.205 7.83714L124.678 9.20714C124.644 9.2936 124.586 9.36794 124.509 9.42038C124.433 9.47282 124.343 9.50089 124.25 9.50089Z" fill="white"/>
<path d="M134 12.0009C133.899 12.0009 133.8 11.9702 133.717 11.913C133.634 11.8557 133.57 11.7746 133.533 11.6803L132.82 9.82495C132.807 9.79226 132.788 9.76257 132.763 9.73781C132.738 9.71304 132.709 9.69376 132.676 9.6812L130.821 8.96745C130.726 8.93113 130.645 8.86712 130.588 8.78383C130.531 8.70055 130.5 8.6019 130.5 8.50089C130.5 8.39988 130.531 8.30123 130.588 8.21795C130.645 8.13466 130.726 8.07065 130.821 8.03433L132.676 7.32058C132.709 7.30802 132.738 7.28874 132.763 7.26397C132.788 7.23921 132.807 7.20952 132.82 7.17683L133.528 5.33464C133.56 5.24753 133.616 5.17081 133.688 5.11264C133.761 5.05448 133.848 5.01705 133.94 5.00433C134.05 4.99094 134.162 5.01488 134.258 5.07234C134.353 5.1298 134.427 5.2175 134.467 5.32152L135.18 7.17683C135.193 7.20952 135.212 7.23921 135.237 7.26397C135.262 7.28874 135.291 7.30802 135.324 7.32058L137.179 8.03433C137.274 8.07065 137.355 8.13466 137.412 8.21795C137.469 8.30123 137.5 8.39988 137.5 8.50089C137.5 8.6019 137.469 8.70055 137.412 8.78383C137.355 8.86712 137.274 8.93113 137.179 8.96745L135.324 9.6812C135.291 9.69376 135.262 9.71304 135.237 9.73781C135.212 9.76257 135.193 9.79226 135.18 9.82495L134.467 11.6803C134.43 11.7746 134.366 11.8557 134.283 11.913C134.2 11.9702 134.101 12.0009 134 12.0009Z" fill="white"/>
</g>
<defs>
<clipPath id="clip0_10048_2525">
<rect width="16" height="16" fill="white" transform="translate(121.5 4)"/>
</clipPath>
</defs>
</svg>
