<svg width="40" height="40" viewBox="0 0 40 40" fill="none" xmlns="http://www.w3.org/2000/svg">
<path d="M28.6715 23.0051L28.6715 23.0051L28.6709 22.9987C28.5872 22.1196 28.9214 21.2948 29.5106 20.7197L29.5107 20.7198L29.5203 20.71C30.0346 20.1818 30.7447 19.8733 31.5334 19.8733H34.95C35.6052 19.8733 36.1267 20.4016 36.1267 21.0333V24.4666C36.1267 25.0983 35.6052 25.6266 34.95 25.6266H31.7334C30.1716 25.6266 28.7948 24.4847 28.6715 23.0051Z" fill="white" stroke="white" stroke-width="1.08"/>
<path d="M25.6335 23.2667C25.4835 21.5167 26.1168 19.8 27.3835 18.55C28.4502 17.4667 29.9335 16.8333 31.5335 16.8333H32.4835C32.9502 16.8333 33.3335 16.45 33.2668 15.9833C32.8168 12.75 30.0168 10.25 26.6668 10.25H10.0002C6.31683 10.25 3.3335 13.2333 3.3335 16.9167V28.5833C3.3335 32.2667 6.31683 35.25 10.0002 35.25H26.6668C30.0335 35.25 32.8168 32.75 33.2668 29.5167C33.3335 29.05 32.9502 28.6667 32.4835 28.6667H31.7335C28.5668 28.6667 25.9002 26.3 25.6335 23.2667ZM21.6668 19.8333H11.6668C10.9835 19.8333 10.4168 19.2833 10.4168 18.5833C10.4168 17.8833 10.9835 17.3333 11.6668 17.3333H21.6668C22.3502 17.3333 22.9168 17.9 22.9168 18.5833C22.9168 19.2667 22.3502 19.8333 21.6668 19.8333Z" fill="white"/>
<path d="M23.6838 6.63333C24.1171 7.08333 23.7337 7.75 23.1004 7.75H10.0504C8.23375 7.75 6.53375 8.28333 5.11708 9.2C4.46708 9.61667 3.58375 9.16667 3.90042 8.45C4.83375 6.26667 7.01708 4.75 9.53375 4.75H18.9004C20.8337 4.75 22.5504 5.43333 23.6838 6.63333Z" fill="white"/>
</svg>
