<svg width="41" height="40" viewBox="0 0 41 40" fill="none" xmlns="http://www.w3.org/2000/svg">
<path d="M20.69 23.7636L20.6902 23.7637L25.8464 26.8409C26.1472 27.0375 26.4682 27.1067 26.7669 27.1067C27.3786 27.1067 27.9774 26.7998 28.3139 26.2269C28.8353 25.368 28.547 24.2693 27.6916 23.7684C27.6907 23.7679 27.6899 23.7674 27.689 23.7669L22.527 20.6863L22.527 20.6863L22.5214 20.6831C22.377 20.5992 22.1818 20.3926 22.0176 20.1039C21.8537 19.8159 21.7736 19.5389 21.7736 19.3667V12.5334C21.7736 11.5518 20.9652 10.7434 19.9836 10.7434C19.002 10.7434 18.1936 11.5518 18.1936 12.5334V19.3667C18.1936 21.0397 19.2431 22.8993 20.69 23.7636ZM4.47359 20C4.47359 11.1149 11.7152 3.87337 20.6003 3.87337C29.4854 3.87337 36.7269 11.1149 36.7269 20C36.7269 28.8851 29.4854 36.1267 20.6003 36.1267C11.7152 36.1267 4.47359 28.8851 4.47359 20Z" fill="white" stroke="white" stroke-width="1.08"/>
</svg>
