<svg width="41" height="40" viewBox="0 0 41 40" fill="none" xmlns="http://www.w3.org/2000/svg">
<path d="M36.327 16.9C36.327 17.2518 36.0521 17.5267 35.7004 17.5267C33.9021 17.5267 32.4437 18.9851 32.4437 20.7833C32.4437 22.5816 33.9021 24.04 35.7004 24.04C36.0521 24.04 36.327 24.3149 36.327 24.6667C36.327 28.0644 35.8002 30.0948 34.5894 31.3057C33.3785 32.5166 31.348 33.0433 27.9504 33.0433H12.4504C9.05269 33.0433 7.02224 32.5166 5.81136 31.3057C4.60048 30.0948 4.07369 28.0644 4.07369 24.6667V23.8834C4.07369 23.5316 4.34859 23.2567 4.70036 23.2567C6.49425 23.2567 7.95703 21.8192 7.95703 20.0167C7.95703 18.2184 6.49859 16.76 4.70036 16.76C4.34859 16.76 4.07369 16.4851 4.07369 16.1334V15.35C4.07369 11.9524 4.60048 9.9219 5.81136 8.71102C7.02224 7.50014 9.05269 6.97335 12.4504 6.97335H27.9504C31.348 6.97335 33.3785 7.50014 34.5894 8.71102C35.8002 9.9219 36.327 11.9524 36.327 15.35V16.9ZM17.407 16.4667C17.407 15.2518 16.4153 14.26 15.2004 14.26C13.9653 14.26 12.9937 15.2553 12.9937 16.4667C12.9937 17.6816 13.9855 18.6734 15.2004 18.6734C16.4354 18.6734 17.407 17.6781 17.407 16.4667ZM22.977 24.8C22.977 26.0184 23.9723 27.0067 25.2004 27.0067C26.4425 27.0067 27.3904 26.0042 27.3904 24.8C27.3904 23.5851 26.3986 22.5933 25.1837 22.5933C23.9688 22.5933 22.977 23.5851 22.977 24.8ZM15.8655 27.3985L27.0822 16.1819C27.7764 15.4876 27.7764 14.3457 27.0822 13.6515C26.388 12.9573 25.2461 12.9573 24.5519 13.6515L13.3352 24.8682C12.641 25.5624 12.641 26.7043 13.3352 27.3985C13.6918 27.7551 14.1482 27.9234 14.6004 27.9234C15.0525 27.9234 15.5089 27.7551 15.8655 27.3985Z" fill="white" stroke="white" stroke-width="1.08"/>
</svg>
