<svg width="20" height="20" viewBox="0 0 20 20" fill="none" xmlns="http://www.w3.org/2000/svg">
<path d="M9.99996 1.6665C5.40829 1.6665 1.66663 5.40817 1.66663 9.99984C1.66663 14.5915 5.40829 18.3332 9.99996 18.3332C14.5916 18.3332 18.3333 14.5915 18.3333 9.99984C18.3333 5.40817 14.5916 1.6665 9.99996 1.6665ZM13.9833 8.08317L9.25829 12.8082C9.14163 12.9248 8.98329 12.9915 8.81663 12.9915C8.64996 12.9915 8.49163 12.9248 8.37496 12.8082L6.01663 10.4498C5.77496 10.2082 5.77496 9.80817 6.01663 9.5665C6.25829 9.32484 6.65829 9.32484 6.89996 9.5665L8.81663 11.4832L13.1 7.19984C13.3416 6.95817 13.7416 6.95817 13.9833 7.19984C14.225 7.4415 14.225 7.83317 13.9833 8.08317Z" fill="#4564ED"/>
</svg>
