<?xml version="1.0" standalone="no"?>
<!DOCTYPE svg PUBLIC "-//W3C//DTD SVG 1.1//EN" "http://www.w3.org/Graphics/SVG/1.1/DTD/svg11.dtd" >
<svg xmlns="http://www.w3.org/2000/svg" xmlns:xlink="http://www.w3.org/1999/xlink" version="1.1">
<metadata>
Created by FontForge 20170731 at Sat Aug  7 15:00:52 2021
 By Aleksey,,,
Copyright (c) 2015 by Radomir Tinkov. All rights reserved.
</metadata>
<defs>
<font id="SVN-GilroyLightItalic" horiz-adv-x="1155" >
  <font-face 
    font-family="SVN-Gilroy Light"
    font-weight="300"
    font-style="italic"
    font-stretch="normal"
    units-per-em="2048"
    panose-1="0 0 4 0 0 0 0 0 0 0"
    ascent="1638"
    descent="-410"
    x-height="1024"
    cap-height="1434"
    bbox="-606 -492 2128 2161"
    underline-thickness="102"
    underline-position="-307"
    slope="-10"
    unicode-range="U+0020-FB02"
  />
<missing-glyph horiz-adv-x="1024" 
d="M190 1638h650v-2048h-650v2048zM682 1434v67h-338v-67h133v-76h-135v-68h340v68h-135v76h135zM547 1094v143h-205v-213h340v70h-135zM410 1167h67v-73h-67v73zM682 901v68h-340v-68h135v-76h-135v-67h205v143h135zM682 641v205h-68v-135h-272v-70h340zM682 365v231h-205
v-115h70v47h67v-96h-204v164h-68v-231h340zM682 10v232h-340v-232h340zM410 174h204v-96h-204v96zM682 -104v67h-340v-67h143l-143 -97v-67h340v67h-209l143 97h66z" />
    <glyph glyph-name="fi" unicode="fi" horiz-adv-x="1044" 
d="M791 1358q-160 0 -244.5 -66t-110.5 -213l-10 -55h553l-180 -1024h-105l162 924h-446l-164 -924h-105l164 924h-178l18 100h177l10 55q64 377 477 377q85 0 192 -22l-14 -95q-104 19 -196 19z" />
    <glyph glyph-name="fl" unicode="fl" horiz-adv-x="1044" 
d="M809 1456q107 0 242 -22l-252 -1434h-105l238 1354q-52 8 -141 8q-158 0 -243.5 -67.5t-111.5 -215.5l-10 -55h244l-17 -100h-243l-164 -924h-105l164 924h-178l18 100h177l10 55q64 377 477 377z" />
    <glyph glyph-name="f_f" unicode="ff" horiz-adv-x="1193" 
d="M874 1024l13 76q35 197 157 293.5t320 83.5l-18 -99q-303 24 -355 -278l-12 -76h305l-18 -100h-305l-162 -924h-105l162 924h-446l-164 -924h-105l164 924h-178l18 100h177l10 55q35 197 157 293.5t320 83.5l-18 -98q-303 24 -355 -279l-10 -55h448z" />
    <glyph glyph-name="f_f_i" unicode="ffi" horiz-adv-x="1597" 
d="M1346 1378q-159 0 -244 -65.5t-111 -212.5l-12 -76h551l-180 -1024h-103l162 924h-448l-162 -924h-105l162 924h-446l-164 -924h-105l164 924h-178l18 100h177l10 55q35 197 157 293.5t320 83.5l-18 -98q-303 24 -355 -279l-10 -55h448l13 76q64 377 477 377
q83 0 195 -23l-17 -94q-99 18 -196 18z" />
    <glyph glyph-name="f_f_l" unicode="ffl" horiz-adv-x="1597" 
d="M1364 1477q101 0 242 -23l-256 -1454h-103l242 1374q-57 8 -141 8q-159 0 -245 -67.5t-112 -214.5l-12 -76h244l-19 -100h-243l-162 -924h-105l162 924h-446l-164 -924h-105l164 924h-178l18 100h177l10 55q35 197 157 293.5t320 83.5l-18 -98q-303 24 -355 -279l-10 -55
h448l13 76q64 377 477 377z" />
    <glyph glyph-name=".notdef" horiz-adv-x="1024" 
d="M190 1638h650v-2048h-650v2048zM682 1434v67h-338v-67h133v-76h-135v-68h340v68h-135v76h135zM547 1094v143h-205v-213h340v70h-135zM410 1167h67v-73h-67v73zM682 901v68h-340v-68h135v-76h-135v-67h205v143h135zM682 641v205h-68v-135h-272v-70h340zM682 365v231h-205
v-115h70v47h67v-96h-204v164h-68v-231h340zM682 10v232h-340v-232h340zM410 174h204v-96h-204v96zM682 -104v67h-340v-67h143l-143 -97v-67h340v67h-209l143 97h66z" />
    <glyph glyph-name=".null" horiz-adv-x="0" 
 />
    <glyph glyph-name="nonmarkingreturn" horiz-adv-x="682" 
 />
    <glyph glyph-name="space" unicode=" " horiz-adv-x="546" 
 />
    <glyph glyph-name="exclam" unicode="!" horiz-adv-x="450" 
d="M242 369h-82l94 655l72 410h123l-72 -410zM131 -20q-38 0 -60 28t-14 66q6 41 35.5 65.5t71.5 24.5q38 0 60.5 -28t15.5 -66q-8 -41 -37 -65.5t-72 -24.5z" />
    <glyph glyph-name="quotedbl" unicode="&#x22;" horiz-adv-x="600" 
d="M299 1051h-82l53 383h111zM573 1051h-81l53 383h108z" />
    <glyph glyph-name="numbersign" unicode="#" horiz-adv-x="1234" 
d="M1237 948l-33 -94h-241l-95 -274h246l-33 -95h-245l-131 -383h-103l131 383h-315l-131 -383h-103l131 383h-243l30 95h246l94 274h-247l32 94h248l131 383h103l-131 -383h315l131 383h102l-131 -383h242zM451 580h315l94 274h-315z" />
    <glyph glyph-name="dollar" unicode="$" horiz-adv-x="1142" 
d="M1126 1196l-96 -49q-72 173 -237 199l-105 -588q30 -12 51.5 -21.5t52.5 -24t51.5 -27t48.5 -31.5t44 -36.5t38 -42t29.5 -49t19 -56t7 -63.5t-7.5 -73q-30 -161 -156.5 -253.5t-314.5 -103.5l-33 -182h-96l33 185q-160 13 -265.5 90t-142.5 206l98 50
q27 -107 111.5 -171t216.5 -71l107 602q-85 34 -138 63.5t-108 77.5q-116 107 -80 283q30 164 164 254q136 92 297 92l33 182h96l-33 -190q235 -37 315 -252zM362 1100q-5 -40 -5 -71.5t14.5 -60t32.5 -50.5t49.5 -44t65 -39.5t79.5 -37.5l98 555q-122 -3 -217 -74
q-96 -72 -117 -178zM913 346q16 73 -10 129t-81 94.5t-152 79.5l-101 -565q139 10 230 79.5t114 182.5z" />
    <glyph glyph-name="percent" unicode="%" horiz-adv-x="1466" 
d="M504 846q-129 0 -207 90q-74 89 -53 221q21 129 125 213q106 86 241 86q133 0 207 -92q75 -86 53 -219q-21 -128 -125 -215q-104 -84 -241 -84zM377 999q53 -59 143 -59q91 0 162 59q73 64 88 152q16 93 -35 149q-50 62 -141 62q-93 0 -164 -62q-71 -59 -86 -149
q-16 -92 33 -152zM215 143l-70 41l1166 1096l71 -41zM930 -23q-128 0 -207 91q-74 89 -53 221q21 129 125 213q106 86 241 86q133 0 207 -92q75 -86 53 -220q-21 -129 -127 -215q-104 -84 -239 -84zM770 283q-14 -91 35 -151t141 -60t162.5 60t87.5 151t-33.5 151t-142.5 60
t-162.5 -60t-87.5 -151z" />
    <glyph glyph-name="ampersand" unicode="&#x26;" horiz-adv-x="1351" 
d="M1120 610l84 -55q-57 -175 -162 -309l170 -217l-94 -47l-147 186q-194 -191 -459 -191q-210 0 -324 117q-112 117 -77 305q47 266 362 406q-89 142 -65 293q27 160 149 258q124 100 295 100q141 0 243.5 -72t145.5 -198l-94 -51q-33 101 -111 159t-186 58
q-126 0 -219 -72.5t-113 -189.5q-27 -143 103 -308l358 -456q89 127 141 284zM520 82q219 0 389 164l-372 473q0 2 -2 2q-276 -112 -316 -332q-26 -140 57.5 -223.5t243.5 -83.5z" />
    <glyph glyph-name="quotesingle" unicode="'" horiz-adv-x="321" 
d="M299 1051h-82l53 383h111z" />
    <glyph glyph-name="parenleft" unicode="(" horiz-adv-x="514" 
d="M326 -205h-103q-143 450 -61 932q82 477 387 911h102q-304 -446 -386.5 -921.5t61.5 -921.5z" />
    <glyph glyph-name="parenright" unicode=")" horiz-adv-x="514" 
d="M260 1638h102q144 -451 62 -931q-82 -479 -387 -912h-103q304 446 387 921.5t-61 921.5z" />
    <glyph glyph-name="asterisk" unicode="*" horiz-adv-x="792" 
d="M598 1247l195 4l-15 -88l-194 4l80 -161l-84 -48l-70 172l-129 -172l-78 48l137 161l-194 -4l14 88l195 -4l-82 162l86 47l69 -170l129 170l76 -47z" />
    <glyph glyph-name="plus" unicode="+" horiz-adv-x="1091" 
d="M641 766h367l-19 -98h-364l-66 -367h-100l65 367h-366l16 98h367l65 367h101z" />
    <glyph glyph-name="comma" unicode="," horiz-adv-x="456" 
d="M137 139h129l-186 -426h-94z" />
    <glyph glyph-name="hyphen" unicode="-" horiz-adv-x="1091" 
d="M928 584h-738l17 98h737z" />
    <glyph glyph-name="period" unicode="." horiz-adv-x="436" 
d="M125 -20q-56 -3 -71 48q-15 49 16 94q31 47 86 42q38 0 61 -28t16 -66q-8 -41 -36.5 -65.5t-71.5 -24.5z" />
    <glyph glyph-name="slash" unicode="/" horiz-adv-x="1079" 
d="M1188 1638l-1139 -1843h-88l1141 1843h86z" />
    <glyph glyph-name="zero" unicode="0" horiz-adv-x="1294" 
d="M553 -23q-244 0 -356 207q-109 210 -50 545q59 339 232 533q176 194 434 194q246 0 354 -209q111 -205 52 -542q-59 -340 -234 -533q-174 -195 -432 -195zM1110 717q51 301 -31.5 468t-283.5 167t-343 -167t-196 -468q-51 -301 31.5 -468t283.5 -167t343 167t196 468z
" />
    <glyph glyph-name="one" unicode="1" horiz-adv-x="679" 
d="M174 1305l397 129h93l-252 -1434h-109l232 1311l-351 -103z" />
    <glyph glyph-name="two" unicode="2" horiz-adv-x="1079" 
d="M899 0h-901l18 98l621 541q273 237 303 405q24 140 -50 224t-212 84q-232 0 -377 -219l-86 57q85 129 209.5 197.5t267.5 68.5q176 0 283 -119q108 -117 74 -307q-22 -116 -105 -225t-239 -244l-529 -457h742z" />
    <glyph glyph-name="three" unicode="3" horiz-adv-x="1103" 
d="M274 1434h828l-19 -103l-426 -493q173 -21 267 -138q97 -115 67 -297q-34 -198 -192 -313q-155 -113 -359 -113q-157 0 -266 72t-141 201l92 51q59 -219 330 -219q161 0 280 90q118 87 146 242q27 152 -62 241q-87 90 -248 90h-30l-37 74l446 512h-692z" />
    <glyph glyph-name="four" unicode="4" horiz-adv-x="1161" 
d="M920 403h184l-19 -102h-184l-53 -301h-109l54 301h-773l19 102l725 1031h123l-723 -1031h645l80 451h110z" />
    <glyph glyph-name="five" unicode="5" horiz-adv-x="1114" 
d="M1135 1434l-17 -103h-659l-117 -481h268q192 0 314 -125q122 -123 88 -322t-191 -313q-152 -113 -360 -113q-160 0 -271 77t-141 212l96 51q20 -114 107 -174.5t223 -60.5q161 0 283 90q117 86 145 242q26 151 -60 241t-251 90h-383l168 689h758z" />
    <glyph glyph-name="six" unicode="6" horiz-adv-x="1099" 
d="M621 922q205 0 319 -138q115 -139 78 -346q-38 -211 -193 -336q-152 -125 -370 -125q-206 0 -320 138q-116 141 -76 344q34 187 160 307l574 668h133l-457 -531q74 19 152 19zM909 449q29 165 -53.5 265.5t-253.5 100.5q-169 0 -289 -102q-118 -103 -145 -264
q-30 -163 53 -265t252 -102q170 0 287 102q119 101 149 265z" />
    <glyph glyph-name="seven" unicode="7" horiz-adv-x="1003" 
d="M193 1331l16 103h868l-18 -103l-785 -1331h-118l784 1331h-747z" />
    <glyph glyph-name="eight" unicode="8" horiz-adv-x="1128" 
d="M1090 1061q-41 -226 -267 -324q108 -52 160.5 -148.5t32.5 -215.5q-35 -188 -182.5 -292t-364.5 -104q-200 0 -319 113q-117 114 -82 303q20 123 104 214t213 136q-88 52 -129 140t-23 196q35 185 173 279q140 98 323 98q172 0 283 -108q112 -109 78 -287zM612 788
q142 0 243 76.5t126 204.5q23 131 -52.5 207t-215.5 76q-142 0 -244.5 -76t-126.5 -207q-23 -127 54 -204t216 -77zM905 383q24 138 -62 218.5t-249 80.5q-167 0 -280 -80t-138 -219q-26 -140 59 -220.5t252 -80.5q168 0 280.5 80.5t137.5 220.5z" />
    <glyph glyph-name="nine" unicode="9" horiz-adv-x="1103" 
d="M719 1456q204 0 319 -139t78 -346q-30 -174 -149 -293l-584 -678h-131l455 530q-73 -18 -156 -18q-209 0 -322 137t-75 348q38 209 192 334q155 125 373 125zM1008 985q29 163 -55 265t-253 102t-290 -103t-148 -264q-29 -165 54.5 -266t252.5 -101q170 0 289 101
q123 105 150 266z" />
    <glyph glyph-name="colon" unicode=":" horiz-adv-x="436" 
d="M276 840q-56 -3 -71 48q-15 49 16 94q32 46 86 42q38 0 61.5 -28t16.5 -66q-8 -41 -37 -65.5t-72 -24.5zM125 -20q-56 -3 -71 48q-15 49 16 94q31 47 86 42q38 0 61 -28t16 -66q-8 -41 -36.5 -65.5t-71.5 -24.5z" />
    <glyph glyph-name="semicolon" unicode=";" horiz-adv-x="471" 
d="M311 840q-56 -3 -71 48q-15 49 16 94q32 46 86 42q38 0 61.5 -28t16.5 -66q-8 -41 -37 -65.5t-72 -24.5zM137 139h129l-186 -426h-94z" />
    <glyph glyph-name="less" unicode="&#x3c;" horiz-adv-x="1079" 
d="M176 770l883 365l-23 -121l-751 -303l645 -303l-19 -109l-753 365l8 53z" />
    <glyph glyph-name="equal" unicode="=" horiz-adv-x="1099" 
d="M1034 872h-839l16 99h840zM961 463h-840l18 98h840z" />
    <glyph glyph-name="greater" unicode="&#x3e;" horiz-adv-x="1079" 
d="M221 1026l19 109l753 -365l-8 -53l-10 -53l-883 -365l23 121l751 303z" />
    <glyph glyph-name="question" unicode="?" horiz-adv-x="1083" 
d="M535 369h-111q18 95 71.5 181t125.5 150q23 20 68 59t70.5 61.5t62 59t57.5 65.5t40.5 66.5t26.5 75.5q20 127 -50 196t-214 69q-117 0 -215 -58t-148 -161l-92 53q66 128 194 199t279 71q171 0 279 -102q106 -100 76 -275q-23 -150 -193 -297q-8 -7 -49.5 -41.5
t-54 -45.5t-48.5 -44t-50.5 -50.5t-41 -50t-39 -57.5t-25.5 -58t-19 -66zM412 -20q-56 -3 -71 48q-15 49 15 94q31 47 86 42q38 0 61.5 -28t16.5 -66q-8 -41 -36.5 -65.5t-71.5 -24.5z" />
    <glyph glyph-name="at" unicode="@" horiz-adv-x="1654" 
d="M973 1253q210 0 360 -108q146 -106 205 -266t27 -336q-37 -208 -134 -313t-225 -105q-83 0 -133 48.5t-51 133.5q-108 -123 -268 -123q-136 0 -219 99q-80 99 -56 235q25 141 133 230q112 92 256 92q151 0 219 -129l21 114h98l-80 -456q-30 -187 103 -187
q99 0 173.5 95.5t106.5 275.5q49 274 -108 463q-155 186 -436 186q-294 0 -527 -196q-231 -191 -284 -488q-53 -300 118 -498t486 -198q211 0 360 57l-4 -53q-162 -55 -366 -55q-334 0 -521 217t-129 538q52 306 303 516q251 211 572 211zM776 279q99 0 178.5 65.5
t98.5 167.5t-37.5 167.5t-157.5 65.5q-99 0 -182 -65q-80 -65 -98 -168q-19 -102 37.5 -167.5t160.5 -65.5z" />
    <glyph glyph-name="A" unicode="A" horiz-adv-x="1288" 
d="M1167 0h-110l-74 365h-719l-205 -365h-118l809 1434h114zM791 1300l-469 -833h639z" />
    <glyph glyph-name="B" unicode="B" horiz-adv-x="1275" 
d="M1221 1049q-17 -100 -80.5 -183t-157.5 -127q101 -43 151 -139.5t31 -216.5q-24 -158 -153 -272q-129 -111 -310 -111h-614l252 1434h543q162 0 262 -115q100 -112 76 -270zM334 782h463q110 0 202 80q92 83 113 195q21 114 -47 194t-186 80h-449zM825 680h-510
l-100 -578h498q124 0 225 84q97 81 119 205q21 122 -47 205q-69 84 -185 84z" />
    <glyph glyph-name="C" unicode="C" horiz-adv-x="1538" 
d="M748 -23q-319 0 -496 222q-175 220 -119 532q56 314 297 518q245 207 549 207q202 0 354 -92t226 -254l-97 -51q-138 293 -485 293q-274 0 -483 -185q-208 -183 -254 -450q-46 -266 100 -453q144 -182 418 -182q173 0 325.5 81t251.5 224l92 -57q-117 -163 -297 -258
t-382 -95z" />
    <glyph glyph-name="D" unicode="D" horiz-adv-x="1490" 
d="M340 1434h539q285 0 444 -217q160 -218 107 -517q-52 -300 -279 -501q-224 -199 -524 -199h-539zM1323 717q43 257 -86 436q-126 178 -375 178h-432l-215 -1229h430q248 0 440 177q191 177 238 438z" />
    <glyph glyph-name="E" unicode="E" horiz-adv-x="1091" 
d="M1155 1434l-16 -103h-709l-98 -557h657l-18 -102h-656l-100 -570h717l-19 -102h-825l252 1434h815z" />
    <glyph glyph-name="F" unicode="F" horiz-adv-x="1060" 
d="M1135 1434l-19 -103h-686l-100 -573h661l-18 -103h-662l-114 -655h-109l252 1434h795z" />
    <glyph glyph-name="G" unicode="G" horiz-adv-x="1638" 
d="M852 668h719l-10 -54q-49 -272 -267 -454q-216 -183 -518 -183q-335 0 -516 224q-180 224 -125 540q53 305 295 510t555 205q203 0 352 -91t230 -255l-97 -51q-147 293 -489 293q-277 0 -485 -181t-254 -446q-46 -268 102 -457q149 -186 436 -186q249 0 426 137
q179 136 236 346h-608z" />
    <glyph glyph-name="H" unicode="H" horiz-adv-x="1406" 
d="M1169 788l113 646h109l-252 -1434h-109l121 686h-834l-120 -686h-109l252 1434h109l-113 -646h833z" />
    <glyph glyph-name="I" unicode="I" horiz-adv-x="464" 
d="M88 0l252 1434h109l-252 -1434h-109z" />
    <glyph glyph-name="J" unicode="J" horiz-adv-x="1132" 
d="M438 -23q-155 0 -259 63t-140 183l96 53q56 -194 309 -194q158 0 267 82t135 229l182 1041h109l-183 -1043q-37 -205 -180 -309q-144 -105 -336 -105z" />
    <glyph glyph-name="K" unicode="K" horiz-adv-x="1169" 
d="M1147 1434h147l-850 -707l615 -727h-131l-606 715l-125 -715h-109l252 1434h109l-117 -668z" />
    <glyph glyph-name="L" unicode="L" horiz-adv-x="1009" 
d="M449 1434l-234 -1332h676l-19 -102h-784l252 1434h109z" />
    <glyph glyph-name="M" unicode="M" horiz-adv-x="1652" 
d="M1497 1434h139l-252 -1434h-108l221 1264l-678 -871h-18l-379 889l-225 -1282h-109l252 1434h129l365 -854z" />
    <glyph glyph-name="N" unicode="N" horiz-adv-x="1406" 
d="M197 0h-109l252 1434h86l639 -1233l217 1233h109l-252 -1434h-88l-637 1233z" />
    <glyph glyph-name="O" unicode="O" horiz-adv-x="1677" 
d="M748 -23q-307 0 -488 224q-179 222 -127 532q53 309 301 514q250 209 563 209q307 0 488 -227q181 -225 129 -535q-56 -308 -303 -512q-245 -205 -563 -205zM766 82q272 0 479 180q211 181 258 449q46 264 -104 452q-151 189 -420 189t-481 -185q-208 -184 -254 -450
q-47 -268 102 -451q150 -184 420 -184z" />
    <glyph glyph-name="P" unicode="P" horiz-adv-x="1200" 
d="M340 1434h477q199 0 305 -127q109 -127 74 -318q-35 -194 -182 -317q-146 -125 -371 -125h-350l-96 -547h-109zM1090 1004q25 146 -53 236.5t-228 90.5h-379l-119 -682h344q172 0 291 101q120 102 144 254z" />
    <glyph glyph-name="Q" unicode="Q" horiz-adv-x="1687" 
d="M1614 694q-58 -314 -316 -522l129 -154l-77 -67l-136 162q-216 -136 -466 -136q-307 0 -488 224q-179 222 -127 532q53 309 301 514q250 209 563 209q307 0 488 -227q181 -225 129 -535zM1149 190l-266 318l78 67l272 -323q217 178 270 459q46 264 -104 452
q-151 189 -420 189t-481 -185q-208 -184 -254 -450q-47 -268 102 -451q150 -184 420 -184q202 0 383 108z" />
    <glyph glyph-name="R" unicode="R" horiz-adv-x="1255" 
d="M340 1434h565q168 0 275 -134q107 -131 73 -305q-25 -145 -129.5 -252t-253.5 -143l248 -600h-112l-242 588h-6h-459l-102 -588h-109zM889 1331h-459l-113 -641h459q131 0 240 92q109 95 133 228q24 132 -53 227q-76 94 -207 94z" />
    <glyph glyph-name="S" unicode="S" horiz-adv-x="1173" 
d="M532 -23q-195 0 -322.5 89t-162.5 249l96 50q25 -133 127 -208t267 -75t272.5 70t132.5 192q14 74 -5.5 127t-78.5 90q-59 41 -106 62q-32 14 -136 55q-58 21 -84 31t-64 28t-77 41q-88 55 -126 134t-21 198q35 169 168 256q140 90 307 90q168 0 278.5 -80.5
t153.5 -218.5l-96 -49q-77 244 -342 244q-133 0 -234 -68.5t-125 -183.5q-14 -73 5.5 -125.5t76.5 -93.5q57 -39 107 -62q6 -3 135 -53q74 -27 117 -45q45 -17 108 -57q65 -41 94 -80q35 -44 51 -111t3 -141q-35 -169 -174.5 -262t-344.5 -93z" />
    <glyph glyph-name="T" unicode="T" horiz-adv-x="1105" 
d="M209 1434h1012l-19 -103h-450l-234 -1331h-110l233 1331h-448z" />
    <glyph glyph-name="U" unicode="U" horiz-adv-x="1366" 
d="M606 -23q-238 0 -366 140q-128 143 -88 362l167 955h109l-168 -955q-31 -181 59.5 -289t284.5 -108q201 0 330 111q131 116 160 286l168 955h108l-168 -955q-41 -232 -203 -366q-165 -136 -393 -136z" />
    <glyph glyph-name="V" unicode="V" horiz-adv-x="1239" 
d="M586 0h-115l-283 1434h111l248 -1297l704 1297h121z" />
    <glyph glyph-name="W" unicode="W" horiz-adv-x="2033" 
d="M524 0h-131l-164 1434h109l145 -1293l627 1293h129l174 -1293l600 1293h115l-668 -1434h-131l-174 1292z" />
    <glyph glyph-name="X" unicode="X" horiz-adv-x="1173" 
d="M1133 1434h129l-576 -703l350 -731h-112l-310 645l-528 -645h-129l610 743l-331 691h112l289 -605z" />
    <glyph glyph-name="Y" unicode="Y" horiz-adv-x="1167" 
d="M1174 1434h129l-637 -764l-119 -670h-109l119 674l-369 760h113l320 -664z" />
    <glyph glyph-name="Z" unicode="Z" horiz-adv-x="1071" 
d="M270 1434h875l-17 -103l-987 -1229h791l-19 -102h-915l18 102l988 1229h-750z" />
    <glyph glyph-name="bracketleft" unicode="[" horiz-adv-x="567" 
d="M725 1638l-18 -100h-293l-289 -1642h293l-19 -101h-397l326 1843h397z" />
    <glyph glyph-name="backslash" unicode="\" horiz-adv-x="1079" 
d="M862 -205h-80l-495 1843h82z" />
    <glyph glyph-name="bracketright" unicode="]" horiz-adv-x="567" 
d="M240 1638h395l-326 -1843h-395l18 101h293l289 1642h-291z" />
    <glyph glyph-name="asciicircum" unicode="^" horiz-adv-x="1028" 
d="M623 1434h102l254 -615h-113l-202 498l-379 -498h-129z" />
    <glyph glyph-name="underscore" unicode="_" horiz-adv-x="1038" 
d="M817 -272h-874l18 98h873z" />
    <glyph glyph-name="grave" unicode="`" horiz-adv-x="370" 
d="M444 1167h-98l-143 260h123z" />
    <glyph glyph-name="a" unicode="a" horiz-adv-x="1323" 
d="M1108 766l45 258h102l-180 -1024h-102l37 209q-173 -232 -473 -232q-219 0 -351 166q-134 169 -94 392q44 241 211 374q169 138 381 138q147 0 261 -75.5t163 -205.5zM1059 498q34 199 -78 323q-112 127 -291 127q-176 0 -317 -114t-176 -308q-35 -185 73 -317
q109 -133 291 -133q186 0 326 119q142 121 172 303z" />
    <glyph glyph-name="b" unicode="b" horiz-adv-x="1320" 
d="M788 1047q218 0 349 -162q134 -162 94 -385q-41 -228 -213 -375q-174 -148 -404 -148q-140 0 -247.5 75.5t-151.5 203.5l-45 -256h-102l251 1434h103l-111 -627q83 114 207 177t270 63zM1126 512q35 183 -73 309q-109 127 -289 127q-182 0 -326 -123q-141 -121 -176 -307
q-34 -181 74 -313q108 -129 289 -129q185 0 325 125q141 123 176 311z" />
    <glyph glyph-name="c" unicode="c" horiz-adv-x="1150" 
d="M532 -23q-226 0 -354 162q-126 164 -86 389q41 230 215 373q181 146 408 146q147 0 258.5 -71t152.5 -190l-88 -47q-36 99 -121.5 154t-211.5 55q-188 0 -332 -123q-141 -121 -176 -307q-34 -187 67 -315q103 -127 287 -127q122 0 230 58t171 157l82 -55
q-78 -122 -210.5 -190.5t-291.5 -68.5z" />
    <glyph glyph-name="d" unicode="d" horiz-adv-x="1323" 
d="M1108 768l117 666h102l-252 -1434h-102l37 209q-173 -232 -473 -232q-219 0 -351 166q-134 169 -94 392q44 241 211 374q169 138 381 138q147 0 261 -74.5t163 -204.5zM1059 498q34 199 -78 323q-112 127 -291 127q-176 0 -317 -114t-176 -308q-35 -185 73 -317
q109 -133 291 -133q187 0 324 119q140 119 174 303z" />
    <glyph glyph-name="e" unicode="e" horiz-adv-x="1204" 
d="M700 1047q229 0 347 -160q119 -158 75 -379q-6 -34 -12 -49h-924q-12 -173 87 -278t276 -105q254 0 389 188l80 -53q-73 -109 -203.5 -171.5t-279.5 -62.5q-233 0 -359 156q-125 154 -84 393q41 228 211 373q171 148 397 148zM203 559h821q18 182 -73 285.5t-259 103.5
q-179 0 -309 -106q-134 -110 -180 -283z" />
    <glyph glyph-name="f" unicode="f" horiz-adv-x="643" 
d="M322 1024l10 55q35 198 157 294.5t320 82.5l-18 -98q-303 24 -355 -279l-10 -55h305l-16 -100h-305l-164 -924h-105l164 924h-178l18 100h177z" />
    <glyph glyph-name="g" unicode="g" horiz-adv-x="1331" 
d="M1114 768l45 256h105l-172 -975q-41 -227 -198 -354t-390 -127q-164 0 -281.5 66t-165.5 180l93 47q34 -90 124.5 -142.5t233.5 -52.5q198 0 322.5 100t156.5 283l29 160q-82 -111 -201 -171.5t-258 -60.5q-233 0 -364 162q-130 165 -93 396q34 229 207 370
q174 142 381 142q147 0 262 -74.5t164 -204.5zM573 76q173 0 308 108q136 107 180 283l12 65q18 185 -96 299q-114 117 -283 117q-175 0 -319 -117q-145 -118 -172 -305q-27 -191 76 -321q108 -129 294 -129z" />
    <glyph glyph-name="h" unicode="h" 
d="M713 1047q183 0 274 -112t60 -298l-113 -637h-105l113 637q25 144 -39.5 227.5t-208.5 83.5q-162 0 -277.5 -106.5t-150.5 -300.5v2l-96 -543h-102l251 1434h103l-103 -588q145 201 394 201z" />
    <glyph glyph-name="i" unicode="i" horiz-adv-x="417" 
d="M170 0h-102l180 1024h102zM328 1184q-34 0 -52 23t-12 57q5 32 30.5 54.5t61.5 22.5q31 0 51.5 -23.5t14.5 -53.5q-6 -34 -32.5 -57t-61.5 -23z" />
    <glyph glyph-name="j" unicode="j" horiz-adv-x="456" 
d="M86 -117l201 1141h102l-201 -1141q-59 -350 -395 -315l17 98q233 -24 276 217zM371 1184q-34 0 -52 23t-12 57q5 32 30.5 54.5t61.5 22.5q31 0 51.5 -23.5t14.5 -53.5q-6 -34 -32.5 -57t-61.5 -23z" />
    <glyph glyph-name="k" unicode="k" horiz-adv-x="989" 
d="M868 1024h146l-641 -494l479 -530h-127l-465 514l-90 -514h-102l251 1434h103l-154 -869z" />
    <glyph glyph-name="l" unicode="l" horiz-adv-x="419" 
d="M172 0h-102l108 627l154 868h102l-151 -868z" />
    <glyph glyph-name="m" unicode="m" horiz-adv-x="1755" 
d="M1346 1047q157 0 245 -107q92 -109 58 -291l-115 -649h-102l112 649q25 141 -34 220t-185 79q-133 0 -230 -86t-134 -252l-109 -610h-102l112 649q26 141 -30 220t-179 79q-140 0 -245 -97t-136 -276l-102 -575h-102l180 1024h102l-28 -158q138 181 356 181
q111 0 187 -54t100 -155q70 102 171 155.5t210 53.5z" />
    <glyph glyph-name="n" unicode="n" 
d="M713 1047q183 0 274 -112t60 -298l-113 -637h-105l113 637q25 144 -39.5 227.5t-208.5 83.5q-162 0 -277.5 -106.5t-150.5 -300.5v2l-96 -543h-102l180 1024h102l-31 -178q145 201 394 201z" />
    <glyph glyph-name="o" unicode="o" horiz-adv-x="1253" 
d="M541 -23q-215 0 -355 152q-137 149 -96 393q44 241 227 381q185 144 406 144q215 0 348 -154q133 -151 92 -389q-44 -246 -223 -385q-183 -142 -399 -142zM551 76q180 0 326 119q149 119 184 321q34 193 -74 313q-107 119 -282 119q-181 -3 -328 -121
q-148 -121 -182 -315q-35 -199 71 -317q107 -119 285 -119z" />
    <glyph glyph-name="p" unicode="p" horiz-adv-x="1323" 
d="M786 1047q219 0 351 -166q134 -169 94 -392q-43 -238 -213 -376q-171 -136 -379 -136q-147 0 -261 75.5t-163 205.5l-117 -668h-102l252 1434h102l-37 -209q176 232 473 232zM1126 498q35 185 -73 317q-109 133 -291 133q-186 0 -326 -119q-138 -120 -172 -303
q-35 -200 76 -325q113 -125 293 -125q178 0 317 112q141 114 176 310z" />
    <glyph glyph-name="q" unicode="q" horiz-adv-x="1323" 
d="M1108 766l45 258h102l-251 -1434h-103l109 619q-173 -232 -473 -232q-219 0 -351 166q-134 169 -94 392q44 241 211 374q169 138 381 138q147 0 261 -75.5t163 -205.5zM1059 496q35 200 -78 325q-112 127 -291 127q-176 0 -317 -114t-176 -308q-35 -185 73 -317
q109 -133 291 -133q186 0 326 119q142 121 172 301z" />
    <glyph glyph-name="r" unicode="r" horiz-adv-x="651" 
d="M350 1024l-31 -174q136 197 377 188l-18 -98q-147 0 -260 -94q-113 -91 -148 -277l-100 -569h-102l180 1024h102z" />
    <glyph glyph-name="s" unicode="s" horiz-adv-x="966" 
d="M418 -23q-292 0 -365 234l92 47q24 -86 97 -134t184 -48q114 0 192 48.5t95 133.5q13 71 -39.5 120.5t-147.5 78.5q-154 44 -215 76q-160 86 -129 247q21 118 123 191q104 76 250 76q121 0 209.5 -54t126.5 -151l-90 -47q-24 73 -92.5 113t-157.5 40q-99 0 -173 -47.5
t-91 -134.5q-13 -69 38.5 -117.5t145.5 -77.5q154 -43 218 -78q155 -85 126 -251q-20 -123 -127.5 -194t-269.5 -71z" />
    <glyph glyph-name="t" unicode="t" horiz-adv-x="772" 
d="M756 924h-305l-119 -666q-21 -127 41 -154q64 -27 235 -12l-14 -92q-210 -33 -302.5 30t-62.5 228l117 666h-225l18 100h226l45 256l108 31l-51 -287h307z" />
    <glyph glyph-name="u" unicode="u" 
d="M889 481l96 543h102l-180 -1024h-102l31 178q-145 -201 -394 -201q-183 0 -273.5 112t-59.5 298l112 637h105l-113 -637q-25 -144 39.5 -227.5t208.5 -83.5q162 0 277.5 106.5t150.5 300.5v-2z" />
    <glyph glyph-name="v" unicode="v" horiz-adv-x="976" 
d="M412 111l512 913h116l-579 -1024h-125l-219 1024h106z" />
    <glyph glyph-name="w" unicode="w" horiz-adv-x="1576" 
d="M1057 131l430 893h112l-503 -1024h-113l-131 872l-438 -872h-113l-143 1024h102l117 -893l444 893h107l-2 -4z" />
    <glyph glyph-name="x" unicode="x" horiz-adv-x="1038" 
d="M922 1024h133l-471 -502l315 -522h-115l-272 446l-420 -446h-135l504 535l-299 489h117l251 -416z" />
    <glyph glyph-name="y" unicode="y" horiz-adv-x="1044" 
d="M469 102l522 922h117l-639 -1118q-91 -161 -211 -243.5t-250 -72.5l17 97q192 -18 342 239l34 58l-284 1040h104z" />
    <glyph glyph-name="z" unicode="z" horiz-adv-x="948" 
d="M207 1024h737l-12 -68l-760 -856h629l-17 -100h-778l12 68l758 856h-588z" />
    <glyph glyph-name="braceleft" unicode="{" horiz-adv-x="714" 
d="M561 -123l-16 -98q-168 -14 -242 64t-45 239l66 383q23 116 -21 160.5t-166 44.5l19 98q120 0 179 44.5t79 160.5l67 383q59 337 396 303l-19 -100q-123 14 -187.5 -33.5t-84.5 -169.5l-68 -383q-20 -117 -70.5 -179t-138.5 -83q156 -41 119 -246l-68 -383
q-23 -121 26 -169t175 -36z" />
    <glyph glyph-name="bar" unicode="|" horiz-adv-x="458" 
d="M119 -410h-103l332 1885h103z" />
    <glyph glyph-name="braceright" unicode="}" horiz-adv-x="716" 
d="M227 1561l17 98q168 14 241.5 -64t44.5 -239l-65 -383q-23 -116 20.5 -160.5t165.5 -44.5l-18 -98q-120 0 -179 -44.5t-79 -160.5l-68 -383q-59 -337 -395 -303l18 100q123 -14 188 33.5t85 169.5l67 383q20 117 70.5 179t138.5 83q-156 41 -119 246l68 383
q23 121 -26 169t-175 36z" />
    <glyph glyph-name="asciitilde" unicode="~" horiz-adv-x="1202" 
d="M240 592l-88 45q30 70 78 121t112.5 78.5t149.5 9.5t176 -86q248 -181 368 82l86 -45q-24 -56 -58 -100t-82.5 -74.5t-103.5 -38.5t-125 14t-145 76q-254 184 -368 -82z" />
    <glyph glyph-name="exclamdown" unicode="&#xa1;" horiz-adv-x="450" 
d="M319 1044q38 0 60 -28t14 -66q-6 -41 -35 -65.5t-71 -24.5q-38 0 -60.5 28t-15.5 66q8 41 36.5 65.5t71.5 24.5zM209 655h82l-94 -655l-72 -410h-123l72 410z" />
    <glyph glyph-name="cent" unicode="&#xa2;" horiz-adv-x="1153" 
d="M1163 991l-88 -47q-49 135 -184 184l-416 -833q46 -14 113 -14q122 0 230 58t171 157l82 -56q-78 -122 -210.5 -190t-291.5 -68q-77 0 -141 21l-100 -203h-88l114 231q-130 67 -192 203t-33 299q41 230 215 373q180 145 408 145q43 0 108 -10l96 193h88l-108 -215
q171 -67 227 -228zM401 324l412 823q-35 6 -72 6q-187 0 -331 -123q-142 -122 -177 -307q-23 -130 22.5 -237.5t145.5 -161.5z" />
    <glyph glyph-name="sterling" unicode="&#xa3;" horiz-adv-x="1208" 
d="M834 1352q-132 0 -223 -81t-115 -227l-62 -348h494l-19 -96h-491l-88 -496h772l-19 -104h-1085l18 104h205l88 496h-164l17 96h164l61 348q35 196 156 304t301 108q130 0 225.5 -70.5t136.5 -195.5l-90 -49q-76 211 -282 211z" />
    <glyph glyph-name="currency" unicode="&#xa4;" horiz-adv-x="1132" 
d="M1106 1194l49 -53l-172 -148q82 -122 55 -282q-27 -158 -149 -277l117 -143l-64 -51l-117 141q-137 -96 -299 -96q-152 0 -256 98l-170 -143l-49 53l172 145q-82 125 -55 285q27 159 149 278l-116 142l61 51l117 -141q140 96 299 96q155 0 258 -100zM272 717
q-27 -137 54 -238q81 -96 219 -96q136 0 252 96q113 98 137 238q24 141 -55 235q-77 99 -217 99t-254 -99q-115 -95 -136 -235z" />
    <glyph glyph-name="yen" unicode="&#xa5;" horiz-adv-x="1167" 
d="M1174 1434h129l-609 -729h359l-17 -93h-381l-28 -157h381l-15 -90h-381l-65 -365h-109l64 365h-377l16 90h377l27 157h-375l14 93h357l-353 729h113l320 -664z" />
    <glyph glyph-name="brokenbar" unicode="&#xa6;" horiz-adv-x="458" 
d="M317 717h-102l133 758h103zM119 -410h-103l134 758h102z" />
    <glyph glyph-name="section" unicode="&#xa7;" horiz-adv-x="1046" 
d="M596 920l94 -48q158 -74 224 -154t44 -202q-27 -152 -182 -240q83 -95 62 -223q-23 -129 -131 -205.5t-271 -76.5q-148 0 -246.5 68.5t-140.5 197.5l94 51q52 -217 306 -217q115 0 192 50t94 142q8 48 -6.5 88t-55.5 75.5t-94.5 65t-136.5 66.5q-157 71 -225.5 151.5
t-46.5 201.5q27 149 192 243q-78 90 -57 217q23 128 128.5 206.5t258.5 78.5q124 0 214 -62t128 -177l-90 -48q-68 189 -264 189q-104 0 -179.5 -53t-92.5 -142q-11 -75 41 -143q19 -22 69 -55q38 -25 78 -45zM856 526q16 86 -36.5 141t-186.5 117q-133 58 -203 109
q-135 -70 -156 -191q-13 -87 41 -144.5t183 -111.5q139 -59 209 -108q128 70 149 188z" />
    <glyph glyph-name="dieresis" unicode="&#xa8;" horiz-adv-x="600" 
d="M174 1255q6 51 56 68q46 16 77 -9q24 -22 17 -59q-6 -31 -31.5 -52t-56.5 -21t-49.5 21.5t-12.5 51.5zM543 1255q6 50 55 68q44 16 76 -8q26 -21 18 -60q-6 -31 -31.5 -52t-56.5 -21t-49 21t-12 52z" />
    <glyph glyph-name="copyright" unicode="&#xa9;" horiz-adv-x="1675" 
d="M743 -23q-302 0 -485 222q-181 220 -125 528q52 306 305 518q254 211 566 211q301 0 483 -221q180 -218 127 -528q-56 -308 -307 -519t-564 -211zM752 27q285 0 520 200q233 199 287 490q53 286 -115 487q-164 203 -449 203q-284 0 -522 -203q-235 -198 -285 -487
q-53 -285 113 -490q167 -200 451 -200zM811 324q-167 0 -260 118q-95 121 -68 285q26 163 156 274q130 109 301 109q103 0 186 -52t125 -140l-88 -44q-75 140 -239 140q-130 0 -224 -88q-93 -84 -114 -209q-21 -121 43 -209q67 -88 192 -88q82 0 157 39t122 108l82 -53
q-63 -88 -162 -139t-209 -51z" />
    <glyph glyph-name="guillemotleft" unicode="&#xab;" horiz-adv-x="968" 
d="M467 987h135l-289 -362l154 -346h-125l-158 354zM754 987h135l-287 -362l154 -346h-127l-156 354z" />
    <glyph glyph-name="logicalnot" unicode="&#xac;" horiz-adv-x="1064" 
d="M176 782h807l-61 -354h-105l45 254h-702z" />
    <glyph glyph-name="registered" unicode="&#xae;" horiz-adv-x="1675" 
d="M1004 1456q301 0 483 -221q180 -218 127 -528q-56 -308 -307 -519t-564 -211q-302 0 -485 222q-181 220 -125 528q52 306 305 518q254 211 566 211zM995 1407q-284 0 -522 -203q-235 -198 -285 -487q-53 -285 113 -490q167 -200 451 -200q285 0 520 200q233 199 287 490
q53 286 -115 487q-164 203 -449 203zM721 1096h231q126 0 189 -71t45 -173q-27 -174 -197 -215l123 -299h-102l-113 285h-27h-135l-49 -285h-98zM1087 858q12 67 -25 105t-120 38h-139l-49 -284h139q173 0 194 141z" />
    <glyph glyph-name="overscore" unicode="&#xaf;" horiz-adv-x="600" 
d="M682 1202h-520l16 90h518z" />
    <glyph glyph-name="degree" unicode="&#xb0;" horiz-adv-x="790" 
d="M492 1059q-126 0 -201 90q-72 90 -51 217q21 128 122 209q104 84 236 84q130 0 201 -92q72 -87 51 -215q-20 -129 -118.5 -211t-239.5 -82zM510 1153q88 0 157 59.5t83 145.5q17 88 -31.5 147.5t-136.5 59.5q-89 0 -156.5 -59t-85.5 -148q-14 -89 32.5 -147t137.5 -58z
" />
    <glyph glyph-name="plusminus" unicode="&#xb1;" horiz-adv-x="1093" 
d="M727 1243l-61 -346h364l-16 -100h-367l-61 -346h-101l62 346h-367l19 100h364l62 346h102zM907 190h-833l16 101h834z" />
    <glyph glyph-name="acute" unicode="&#xb4;" horiz-adv-x="366" 
d="M156 1167l204 260h127l-229 -260h-102z" />
    <glyph glyph-name="uni00B5" unicode="&#xb5;" horiz-adv-x="1243" 
d="M1114 1024l-147 -840q-7 -38 12 -61t57 -23h66l-17 -100h-77q-73 0 -114 46t-34 120q-148 -189 -385 -189q-204 0 -282 152l-95 -539h-102l252 1434h102l-112 -637h2q-25 -145 39 -228t208 -83q153 0 267.5 97t154.5 276l101 575h104z" />
    <glyph glyph-name="paragraph" unicode="&#xb6;" horiz-adv-x="1167" 
d="M647 1434h594l-18 -97h-121l-307 -1747h-103l307 1747h-268l-307 -1747h-100l184 1051q-167 3 -260 121q-93 119 -66 285q27 161 164 274q134 113 301 113z" />
    <glyph glyph-name="middot" unicode="&#xb7;" horiz-adv-x="438" 
d="M238 614q-56 -3 -71 48q-15 48 15 94q31 48 86 43q38 0 61.5 -28t16.5 -66q-8 -42 -37 -66.5t-71 -24.5z" />
    <glyph glyph-name="cedilla" unicode="&#xb8;" horiz-adv-x="481" 
d="M164 0l-21 -115q80 -11 125 -55t35 -106q-35 -190 -428 -156l16 84q145 -13 227 8t93 72q7 44 -38 67t-134 21l33 180h92z" />
    <glyph glyph-name="guillemotright" unicode="&#xbb;" horiz-adv-x="970" 
d="M256 987h127l156 -354l-281 -354h-135l287 362zM545 987h125l157 -354l-282 -354h-135l288 362z" />
    <glyph glyph-name="onequarter" unicode="&#xbc;" horiz-adv-x="1697" 
d="M276 614l125 703l-217 -66l-10 90l266 93h80l-145 -820h-99zM182 0l1075 1434h105l-1075 -1434h-105zM1493 256h111l-17 -92h-110l-29 -164h-98l28 164h-436l14 92l408 563h113l-406 -563h324l37 213h98z" />
    <glyph glyph-name="onehalf" unicode="&#xbd;" horiz-adv-x="1669" 
d="M276 614l125 703l-217 -66l-10 90l266 93h80l-145 -820h-99zM182 0l1075 1434h105l-1075 -1434h-105zM1602 594q-18 -122 -170 -244l-314 -256h408l-15 -94h-565l15 80l413 340q114 88 129 178q11 67 -28 109.5t-113 42.5q-133 0 -211 -140l-80 49q44 85 125.5 135
t177.5 50q116 0 180.5 -72t47.5 -178z" />
    <glyph glyph-name="threequarters" unicode="&#xbe;" horiz-adv-x="1910" 
d="M688 842q-20 -116 -110 -184t-224 -68q-196 0 -254 166l86 43q38 -115 183 -115q92 0 150.5 45.5t70.5 120.5q14 75 -29.5 121.5t-132.5 46.5h-6l-37 72l236 249h-394l17 95h514l-17 -95l-233 -245q98 -19 147.5 -88.5t32.5 -163.5zM395 0l1075 1434h105l-1075 -1434
h-105zM1706 256h111l-17 -92h-110l-29 -164h-98l28 164h-436l14 92l408 563h113l-406 -563h324l37 213h98z" />
    <glyph glyph-name="questiondown" unicode="&#xbf;" horiz-adv-x="1083" 
d="M672 1044q56 3 71 -48q15 -49 -16 -94q-31 -47 -86 -42q-38 0 -61.5 28t-16.5 66q8 41 37 65.5t72 24.5zM549 655h110q-18 -95 -71.5 -181.5t-126.5 -151.5q-19 -17 -66.5 -57.5t-71 -61t-61.5 -59t-58.5 -66.5t-40 -66t-26.5 -75q-20 -127 50 -196t214 -69q117 0 215 58
t148 161l92 -53q-66 -128 -194 -199t-279 -71q-171 0 -279 102q-105 100 -75 275q24 155 190 295q13 12 57 49t62.5 53.5t55 51.5t55.5 59.5t43 59t37.5 70t19.5 72.5z" />
    <glyph glyph-name="Agrave" unicode="&#xc0;" horiz-adv-x="1288" 
d="M786 1837l119 -260h-98l-143 260h122zM1167 0h-110l-74 365h-719l-205 -365h-118l809 1434h114zM791 1300l-469 -833h639z" />
    <glyph glyph-name="Aacute" unicode="&#xc1;" horiz-adv-x="1288" 
d="M952 1837h127l-229 -260h-102zM1167 0h-110l-74 365h-719l-205 -365h-118l809 1434h114zM791 1300l-469 -833h639z" />
    <glyph glyph-name="Acircumflex" unicode="&#xc2;" horiz-adv-x="1288" 
d="M1001 1577l-131 195l-198 -195h-123l266 260h121l178 -260h-113zM1167 0h-110l-74 365h-719l-205 -365h-118l809 1434h114zM791 1300l-469 -833h639z" />
    <glyph glyph-name="Atilde" unicode="&#xc3;" horiz-adv-x="1288" 
d="M844 1661q-155 155 -195 -57h-90q19 112 69.5 169t114 50.5t125.5 -68.5q155 -155 195 57h90q-26 -166 -125 -208q-93 -40 -184 57zM1167 0h-110l-74 365h-719l-205 -365h-118l809 1434h114zM791 1300l-469 -833h639z" />
    <glyph glyph-name="Adieresis" unicode="&#xc4;" horiz-adv-x="1288" 
d="M588 1665q6 50 55 68q44 16 76 -8q26 -21 18 -60q-6 -31 -31.5 -52.5t-56.5 -21.5t-49 21.5t-12 52.5zM956 1665q6 51 56 68q46 16 77 -9q24 -22 17 -59q-6 -31 -31.5 -52.5t-56.5 -21.5t-49.5 21.5t-12.5 52.5zM1167 0h-110l-74 365h-719l-205 -365h-118l809 1434h114z
M791 1300l-469 -833h639z" />
    <glyph glyph-name="Aring" unicode="&#xc5;" horiz-adv-x="1288" 
d="M1167 0h-110l-74 365h-719l-205 -365h-118l782 1384q-59 20 -86 72t-16 119q13 86 80.5 140t158.5 54q93 0 142.5 -57.5t37.5 -144.5q-10 -66 -55 -115.5t-111 -69.5zM709 1571q-11 -51 17 -84t83 -33t94.5 32.5t50.5 84.5q8 54 -20 85.5t-84 31.5q-55 0 -94.5 -32
t-46.5 -85zM791 1300l-469 -833h639z" />
    <glyph glyph-name="AE" unicode="&#xc6;" horiz-adv-x="1787" 
d="M1849 1434l-16 -103h-659l-99 -557h623l-19 -102h-620l-101 -570h668l-18 -102h-779l66 375h-553l-295 -375h-131l1131 1434h802zM1055 1282l-633 -805h491z" />
    <glyph glyph-name="Ccedilla" unicode="&#xc7;" horiz-adv-x="1538" 
d="M977 1352q-274 0 -483 -185q-208 -183 -254 -450q-46 -266 100 -453q144 -182 418 -182q173 0 325.5 81t251.5 224l92 -57q-110 -154 -277 -247t-357 -103l-17 -95q80 -11 125 -55t35 -106q-35 -190 -428 -156l16 84q145 -13 227 8t93 72q7 44 -38 67t-134 21l28 160
q-301 15 -460 233t-107 518q56 314 297 518q245 207 549 207q202 0 354 -92t226 -254l-97 -51q-138 293 -485 293z" />
    <glyph glyph-name="Egrave" unicode="&#xc8;" horiz-adv-x="1091" 
d="M723 1837l119 -260h-99l-143 260h123zM1155 1434l-16 -103h-709l-98 -557h657l-18 -102h-656l-100 -570h717l-19 -102h-825l252 1434h815z" />
    <glyph glyph-name="Eacute" unicode="&#xc9;" horiz-adv-x="1091" 
d="M889 1837h127l-230 -260h-102zM1155 1434l-16 -103h-709l-98 -557h657l-18 -102h-656l-100 -570h717l-19 -102h-825l252 1434h815z" />
    <glyph glyph-name="Ecircumflex" unicode="&#xca;" horiz-adv-x="1091" 
d="M938 1577l-131 195l-199 -195h-123l267 260h120l179 -260h-113zM1155 1434l-16 -103h-709l-98 -557h657l-18 -102h-656l-100 -570h717l-19 -102h-825l252 1434h815z" />
    <glyph glyph-name="Edieresis" unicode="&#xcb;" horiz-adv-x="1091" 
d="M524 1665q6 51 56 68q46 16 77 -9q24 -22 17 -59q-6 -31 -31.5 -52.5t-56.5 -21.5t-49.5 21.5t-12.5 52.5zM893 1665q6 50 55 68q44 16 76 -8q26 -21 18 -60q-6 -31 -31.5 -52.5t-56.5 -21.5t-49 21.5t-12 52.5zM1155 1434l-16 -103h-709l-98 -557h657l-18 -102h-656
l-100 -570h717l-19 -102h-825l252 1434h815z" />
    <glyph glyph-name="Igrave" unicode="&#xcc;" horiz-adv-x="464" 
d="M492 1577h-99l-143 260h123zM340 1434l-252 -1434h109l252 1434h-109z" />
    <glyph glyph-name="Iacute" unicode="&#xcd;" horiz-adv-x="464" 
d="M334 1577l205 260h127l-230 -260h-102zM340 1434l-252 -1434h109l252 1434h-109z" />
    <glyph glyph-name="Icircumflex" unicode="&#xce;" horiz-adv-x="464" 
d="M522 1837l178 -260h-112l-131 195l-199 -195h-123l266 260h121zM197 0h-109l252 1434h109z" />
    <glyph glyph-name="Idieresis" unicode="&#xcf;" horiz-adv-x="464" 
d="M174 1665q6 51 56 68q46 16 77 -9q24 -22 17 -59q-6 -31 -31.5 -52.5t-56.5 -21.5t-49.5 21.5t-12.5 52.5zM543 1665q6 50 55 68q44 16 76 -8q26 -21 18 -60q-6 -31 -31.5 -52.5t-56.5 -21.5t-49 21.5t-12 52.5zM88 0l252 1434h109l-252 -1434h-109z" />
    <glyph glyph-name="Eth" unicode="&#xd0;" horiz-adv-x="1531" 
d="M381 1434h539q285 0 444 -217t106 -517q-52 -301 -278 -501q-224 -199 -524 -199h-539l117 668h-137l16 98h139zM1364 717q43 257 -86 436q-126 178 -375 178h-432l-98 -565h489l-16 -98h-492l-98 -566h430q248 0 440 177q191 177 238 438z" />
    <glyph glyph-name="Ntilde" unicode="&#xd1;" horiz-adv-x="1406" 
d="M707 1604h-91q19 112 70 169t114.5 50.5t125.5 -68.5q78 -78 126 -64t68 121h90q-26 -166 -125 -208q-93 -40 -184 57q-78 78 -126 64t-68 -121zM197 0h-109l252 1434h86l639 -1233l217 1233h109l-252 -1434h-88l-637 1233z" />
    <glyph glyph-name="Ograve" unicode="&#xd2;" horiz-adv-x="1677" 
d="M1130 1577h-98l-143 260h123zM748 -23q318 0 563 205q247 204 303 512q52 310 -129 535q-181 227 -488 227q-313 0 -563 -209q-248 -205 -301 -514q-52 -310 127 -532q181 -224 488 -224zM766 82q-270 0 -420 184q-149 183 -102 451q46 266 254 450q212 185 481 185
t420 -189q150 -188 104 -452q-47 -268 -258 -449q-207 -180 -479 -180z" />
    <glyph glyph-name="Oacute" unicode="&#xd3;" horiz-adv-x="1677" 
d="M1006 1577l204 260h127l-229 -260h-102zM748 -23q318 0 563 205q247 204 303 512q52 310 -129 535q-181 227 -488 227q-313 0 -563 -209q-248 -205 -301 -514q-52 -310 127 -532q181 -224 488 -224zM766 82q-270 0 -420 184q-149 183 -102 451q46 266 254 450
q212 185 481 185t420 -189q150 -188 104 -452q-47 -268 -258 -449q-207 -180 -479 -180z" />
    <glyph glyph-name="Ocircumflex" unicode="&#xd4;" horiz-adv-x="1677" 
d="M1243 1577l-131 195l-199 -195h-122l266 260h121l178 -260h-113zM997 1456q307 0 488 -227q181 -225 129 -535q-56 -308 -303 -512q-245 -205 -563 -205q-307 0 -488 224q-179 222 -127 532q53 309 301 514q250 209 563 209zM244 717q-47 -268 102 -451
q150 -184 420 -184q272 0 479 180q211 181 258 449q46 264 -104 452q-151 189 -420 189t-481 -185q-208 -184 -254 -450z" />
    <glyph glyph-name="Otilde" unicode="&#xd5;" horiz-adv-x="1677" 
d="M897 1604h-90q19 112 69.5 169t114 50.5t125.5 -68.5q155 -155 195 57h90q-26 -166 -125 -208q-93 -40 -184 57q-155 155 -195 -57zM748 -23q-307 0 -488 224q-179 222 -127 532q53 309 301 514q250 209 563 209q307 0 488 -227q181 -225 129 -535q-56 -308 -303 -512
q-245 -205 -563 -205zM766 82q272 0 479 180q211 181 258 449q46 264 -104 452q-151 189 -420 189t-481 -185q-208 -184 -254 -450q-47 -268 102 -451q150 -184 420 -184z" />
    <glyph glyph-name="Odieresis" unicode="&#xd6;" horiz-adv-x="1677" 
d="M780 1665q6 51 56 68q46 16 77 -9q24 -22 17 -59q-6 -31 -31.5 -52.5t-56.5 -21.5t-49.5 21.5t-12.5 52.5zM1149 1665q6 50 55 68q44 16 76 -8q26 -21 18 -60q-6 -31 -31.5 -52.5t-56.5 -21.5t-49 21.5t-12 52.5zM748 -23q-307 0 -488 224q-179 222 -127 532
q53 309 301 514q250 209 563 209q307 0 488 -227q181 -225 129 -535q-56 -308 -303 -512q-245 -205 -563 -205zM766 82q272 0 479 180q211 181 258 449q46 264 -104 452q-151 189 -420 189t-481 -185q-208 -184 -254 -450q-47 -268 102 -451q150 -184 420 -184z" />
    <glyph glyph-name="multiply" unicode="&#xd7;" horiz-adv-x="960" 
d="M864 1077l68 -65l-348 -299l243 -291l-75 -66l-244 293l-340 -293l-68 66l349 299l-244 291l76 65l243 -291z" />
    <glyph glyph-name="Oslash" unicode="&#xd8;" horiz-adv-x="1697" 
d="M1636 1386l-143 -141q197 -228 141 -551q-56 -308 -303 -512q-245 -205 -563 -205q-240 0 -418 152l-131 -129l-72 45l146 141q-194 226 -139 547q53 309 301 514q250 209 563 209q239 0 416 -151l131 129zM264 717q-49 -267 107 -455l985 967q-141 123 -357 123
q-269 0 -481 -185q-208 -184 -254 -450zM1524 711q47 271 -109 458l-987 -964q144 -123 358 -123q273 0 480 180q211 181 258 449z" />
    <glyph glyph-name="Ugrave" unicode="&#xd9;" horiz-adv-x="1366" 
d="M938 1577h-98l-144 260h123zM606 -23q228 0 393 136q162 134 203 366l168 955h-108l-168 -955q-29 -170 -160 -286q-129 -111 -330 -111q-194 0 -284.5 108t-59.5 289l168 955h-109l-167 -955q-40 -219 88 -362q128 -140 366 -140z" />
    <glyph glyph-name="Uacute" unicode="&#xda;" horiz-adv-x="1366" 
d="M780 1577l205 260h127l-229 -260h-103zM606 -23q228 0 393 136q162 134 203 366l168 955h-108l-168 -955q-29 -170 -160 -286q-129 -111 -330 -111q-194 0 -284.5 108t-59.5 289l168 955h-109l-167 -955q-40 -219 88 -362q128 -140 366 -140z" />
    <glyph glyph-name="Ucircumflex" unicode="&#xdb;" horiz-adv-x="1366" 
d="M1034 1577l-131 195l-198 -195h-123l266 260h121l178 -260h-113zM1094 479l168 955h108l-168 -955q-41 -232 -203 -366q-165 -136 -393 -136q-238 0 -366 140q-128 143 -88 362l167 955h109l-168 -955q-31 -181 59.5 -289t284.5 -108q201 0 330 111q131 116 160 286z" />
    <glyph glyph-name="Udieresis" unicode="&#xdc;" horiz-adv-x="1366" 
d="M621 1665q6 50 55 68q44 16 76 -8q26 -21 18 -60q-6 -31 -31.5 -52.5t-56.5 -21.5t-49 21.5t-12 52.5zM989 1665q6 51 56 68q46 16 77 -9q24 -22 17 -59q-6 -31 -31.5 -52.5t-56.5 -21.5t-49.5 21.5t-12.5 52.5zM606 -23q-238 0 -366 140q-128 143 -88 362l167 955h109
l-168 -955q-31 -181 59.5 -289t284.5 -108q201 0 330 111q131 116 160 286l168 955h108l-168 -955q-41 -232 -203 -366q-165 -136 -393 -136z" />
    <glyph glyph-name="Yacute" unicode="&#xdd;" horiz-adv-x="1167" 
d="M887 1837h127l-230 -260h-102zM1174 1434h129l-637 -764l-119 -670h-109l119 674l-369 760h113l320 -664z" />
    <glyph glyph-name="Thorn" unicode="&#xde;" horiz-adv-x="1202" 
d="M401 1161h371q199 0 305 -127q106 -128 72 -317q-30 -192 -180 -318q-151 -127 -373 -127h-352l-47 -272h-109l252 1434h109zM1042 731q26 147 -51 237.5t-229 90.5h-379l-121 -684h346q173 0 291 100q119 101 143 256z" />
    <glyph glyph-name="germandbls" unicode="&#xdf;" horiz-adv-x="1056" 
d="M502 -8l16 94q146 -10 238.5 43.5t109.5 159.5q10 63 -21 137t-83 133q-124 152 -107 246q5 34 30 68.5t58.5 65t67.5 62.5t60.5 73t33.5 85q17 90 -42 144.5t-169 54.5q-125 0 -219 -78t-119 -225l-186 -1055h-102l186 1061q34 192 155.5 293.5t297.5 101.5
q157 0 241 -90q86 -89 62 -217q-8 -50 -48 -108t-84 -100.5t-80.5 -84.5t-37.5 -63q-4 -35 19.5 -78.5t58.5 -89.5t69 -96.5t53 -116.5t9 -133q-25 -148 -146 -224t-321 -63z" />
    <glyph glyph-name="agrave" unicode="&#xe0;" horiz-adv-x="1323" 
d="M795 1427l118 -260h-98l-143 260h123zM1108 766l45 258h102l-180 -1024h-102l37 209q-173 -232 -473 -232q-219 0 -351 166q-134 169 -94 392q44 241 211 374q169 138 381 138q147 0 261 -75.5t163 -205.5zM1059 498q34 199 -78 323q-112 127 -291 127q-176 0 -317 -114
t-176 -308q-35 -185 73 -317q109 -133 291 -133q186 0 326 119q142 121 172 303z" />
    <glyph glyph-name="aacute" unicode="&#xe1;" horiz-adv-x="1323" 
d="M936 1427h127l-229 -260h-103zM1108 766l45 258h102l-180 -1024h-102l37 209q-173 -232 -473 -232q-219 0 -351 166q-134 169 -94 392q44 241 211 374q169 138 381 138q147 0 261 -75.5t163 -205.5zM1059 498q34 199 -78 323q-112 127 -291 127q-176 0 -317 -114
t-176 -308q-35 -185 73 -317q109 -133 291 -133q186 0 326 119q142 121 172 303z" />
    <glyph glyph-name="acircumflex" unicode="&#xe2;" horiz-adv-x="1323" 
d="M999 1167l-131 195l-198 -195h-123l266 260h121l178 -260h-113zM1108 766l45 258h102l-180 -1024h-102l37 209q-173 -232 -473 -232q-219 0 -351 166q-134 169 -94 392q44 241 211 374q169 138 381 138q147 0 261 -75.5t163 -205.5zM1059 498q34 199 -78 323
q-112 127 -291 127q-176 0 -317 -114t-176 -308q-35 -185 73 -317q109 -133 291 -133q186 0 326 119q142 121 172 303z" />
    <glyph glyph-name="atilde" unicode="&#xe3;" horiz-adv-x="1323" 
d="M817 1251q-78 78 -126 64t-68 -121h-91q19 112 69.5 169t114.5 51t126 -68q78 -78 126 -64t68 121h90q-27 -167 -125 -209q-93 -40 -184 57zM1108 766l45 258h102l-180 -1024h-102l37 209q-173 -232 -473 -232q-219 0 -351 166q-134 169 -94 392q44 241 211 374
q169 138 381 138q147 0 261 -75.5t163 -205.5zM1059 498q34 199 -78 323q-112 127 -291 127q-176 0 -317 -114t-176 -308q-35 -185 73 -317q109 -133 291 -133q186 0 326 119q142 121 172 303z" />
    <glyph glyph-name="adieresis" unicode="&#xe4;" horiz-adv-x="1323" 
d="M496 1255q6 50 55 68q44 16 76 -8q26 -21 18 -60q-6 -31 -31.5 -52t-56.5 -21t-49 21t-12 52zM864 1255q6 51 56 68q46 16 77 -9q24 -22 17 -59q-6 -31 -31.5 -52t-56.5 -21t-49.5 21.5t-12.5 51.5zM1108 766l45 258h102l-180 -1024h-102l37 209q-173 -232 -473 -232
q-219 0 -351 166q-134 169 -94 392q44 241 211 374q169 138 381 138q147 0 261 -75.5t163 -205.5zM1059 498q34 199 -78 323q-112 127 -291 127q-176 0 -317 -114t-176 -308q-35 -185 73 -317q109 -133 291 -133q186 0 326 119q142 121 172 303z" />
    <glyph glyph-name="aring" unicode="&#xe5;" horiz-adv-x="1323" 
d="M739 1133q-93 0 -142.5 57.5t-35.5 144.5q13 86 81 140.5t159 54.5q93 0 142.5 -58t37.5 -145q-13 -86 -81 -140t-161 -54zM649 1331q-11 -51 17.5 -84t83.5 -33t94.5 32.5t50.5 84.5q8 54 -20.5 85.5t-83.5 31.5t-95 -32t-47 -85zM1108 766l45 258h102l-180 -1024h-102
l37 209q-173 -232 -473 -232q-219 0 -351 166q-134 169 -94 392q44 241 211 374q169 138 381 138q147 0 261 -75.5t163 -205.5zM1059 498q34 199 -78 323q-112 127 -291 127q-176 0 -317 -114t-176 -308q-35 -185 73 -317q109 -133 291 -133q186 0 326 119q142 121 172 303z
" />
    <glyph glyph-name="ae" unicode="&#xe6;" horiz-adv-x="2174" 
d="M1688 1047q218 0 331 -162q114 -164 74 -377q-3 -26 -12 -49h-922q-14 -174 84 -278.5t275 -104.5q126 0 227.5 49t163.5 137l82 -53q-83 -108 -209.5 -170t-270.5 -62q-148 0 -250.5 68.5t-144.5 192.5l-41 -238h-102l37 215q-82 -113 -207.5 -175.5t-272.5 -62.5
q-217 0 -348 162q-130 165 -90 389q44 240 215 377q177 142 385 142q144 0 256.5 -72t161.5 -199l43 248h102l-41 -229q172 252 474 252zM555 76q184 0 328 123q143 122 178 305q34 199 -76 321q-108 123 -289 123q-178 0 -321 -119q-143 -116 -178 -311q-34 -183 69 -313
q105 -129 289 -129zM1176 559h819q18 180 -73.5 284.5t-254.5 104.5q-178 0 -313 -108q-131 -107 -178 -281z" />
    <glyph glyph-name="ccedilla" unicode="&#xe7;" horiz-adv-x="1150" 
d="M705 948q-188 0 -332 -123q-141 -121 -176 -307q-34 -187 67 -315q103 -127 287 -127q122 0 230 58t171 157l82 -55q-74 -113 -195.5 -181t-269.5 -78l-16 -92q80 -11 125 -55t35 -106q-35 -190 -428 -156l16 84q145 -13 227 8t93 72q7 44 -38 67t-134 21l28 160
q-199 21 -311 178t-74 370q41 230 215 373q181 146 408 146q147 0 258.5 -71t152.5 -190l-88 -47q-36 99 -121.5 154t-211.5 55z" />
    <glyph glyph-name="egrave" unicode="&#xe8;" horiz-adv-x="1204" 
d="M686 1427l119 -260h-98l-144 260h123zM700 1047q229 0 347 -160q119 -158 75 -379q-6 -34 -12 -49h-924q-12 -173 87 -278t276 -105q254 0 389 188l80 -53q-73 -109 -203.5 -171.5t-279.5 -62.5q-233 0 -359 156q-125 154 -84 393q41 228 211 373q171 148 397 148z
M203 559h821q18 182 -73 285.5t-259 103.5q-179 0 -309 -106q-134 -110 -180 -283z" />
    <glyph glyph-name="eacute" unicode="&#xe9;" horiz-adv-x="1204" 
d="M885 1427h127l-230 -260h-102zM700 1047q229 0 347 -160q119 -158 75 -379q-6 -34 -12 -49h-924q-12 -173 87 -278t276 -105q254 0 389 188l80 -53q-73 -109 -203.5 -171.5t-279.5 -62.5q-233 0 -359 156q-125 154 -84 393q41 228 211 373q171 148 397 148zM203 559h821
q18 182 -73 285.5t-259 103.5q-179 0 -309 -106q-134 -110 -180 -283z" />
    <glyph glyph-name="ecircumflex" unicode="&#xea;" horiz-adv-x="1204" 
d="M913 1167l-131 195l-198 -195h-123l266 260h121l178 -260h-113zM700 1047q229 0 347 -160q119 -158 75 -379q-6 -34 -12 -49h-924q-12 -173 87 -278t276 -105q254 0 389 188l80 -53q-73 -109 -203.5 -171.5t-279.5 -62.5q-233 0 -359 156q-125 154 -84 393
q41 228 211 373q171 148 397 148zM203 559h821q18 182 -73 285.5t-259 103.5q-179 0 -309 -106q-134 -110 -180 -283z" />
    <glyph glyph-name="edieresis" unicode="&#xeb;" horiz-adv-x="1204" 
d="M487 1255q6 51 56 68q46 16 77 -9q24 -22 17 -59q-6 -31 -31.5 -52t-56.5 -21t-49.5 21.5t-12.5 51.5zM856 1255q6 51 56 68q46 16 77 -9q24 -22 17 -59q-6 -31 -31.5 -52t-56.5 -21t-49.5 21.5t-12.5 51.5zM700 1047q229 0 347 -160q119 -158 75 -379q-6 -34 -12 -49
h-924q-12 -173 87 -278t276 -105q254 0 389 188l80 -53q-73 -109 -203.5 -171.5t-279.5 -62.5q-233 0 -359 156q-125 154 -84 393q41 228 211 373q171 148 397 148zM203 559h821q18 182 -73 285.5t-259 103.5q-179 0 -309 -106q-134 -110 -180 -283z" />
    <glyph glyph-name="igrave" unicode="&#xec;" horiz-adv-x="417" 
d="M426 1167h-100l-93 260h125zM170 0l180 1024h-102l-180 -1024h102z" />
    <glyph glyph-name="iacute" unicode="&#xed;" horiz-adv-x="417" 
d="M217 1167l158 260h123l-181 -260h-100zM68 0h102l180 1024h-102z" />
    <glyph glyph-name="icircumflex" unicode="&#xee;" horiz-adv-x="417" 
d="M430 1427l129 -260h-117l-86 176l-147 -176h-117l217 260h121zM170 0h-102l180 1024h102z" />
    <glyph glyph-name="idieresis" unicode="&#xef;" horiz-adv-x="417" 
d="M193 1182q-32 0 -51 21t-13 52q6 32 32 54t58 22q31 0 48.5 -22t13.5 -54q-6 -31 -31.5 -52t-56.5 -21zM463 1182q-32 0 -50.5 21t-13.5 52q6 32 32 54t58 22q31 0 49.5 -22t12.5 -54q-6 -31 -31.5 -52t-56.5 -21zM170 0h-102l180 1024h102z" />
    <glyph glyph-name="eth" unicode="&#xf0;" horiz-adv-x="1204" 
d="M774 1241l279 -485q78 -136 51 -314q-40 -220 -201 -344q-160 -121 -375 -121q-206 0 -346 152q-137 149 -96 371q34 205 190 325q157 121 357 121q137 0 229 -57l-170 305l-284 -158l16 97l229 127l-96 174h107l73 -127l248 137l-18 -96zM999 451q24 154 -28 245
q-96 158 -330 158q-178 0 -300 -97.5t-151 -264.5q-34 -175 72 -297q107 -119 285 -119q171 0 295 100q128 103 157 275z" />
    <glyph glyph-name="ntilde" unicode="&#xf1;" 
d="M696 1251q-78 78 -126 64t-68 -121h-90q19 113 69.5 169.5t114 50.5t125.5 -68q78 -78 126 -64t68 121h91q-27 -167 -125 -209q-94 -40 -185 57zM713 1047q183 0 274 -112t60 -298l-113 -637h-105l113 637q25 144 -39.5 227.5t-208.5 83.5q-162 0 -277.5 -106.5
t-150.5 -300.5v2l-96 -543h-102l180 1024h102l-31 -178q145 201 394 201z" />
    <glyph glyph-name="ograve" unicode="&#xf2;" horiz-adv-x="1253" 
d="M850 1167h-98l-144 260h123zM541 -23q216 0 399 142q179 139 223 385q41 238 -92 389q-133 154 -348 154q-221 0 -406 -144q-183 -140 -227 -381q-41 -244 96 -393q140 -152 355 -152zM551 76q-178 0 -285 119q-106 118 -71 317q34 194 182 315q147 118 328 121
q175 0 282 -119q108 -120 74 -313q-35 -202 -184 -321q-146 -119 -326 -119z" />
    <glyph glyph-name="oacute" unicode="&#xf3;" horiz-adv-x="1253" 
d="M709 1167l204 260h127l-229 -260h-102zM541 -23q216 0 399 142q179 139 223 385q41 238 -92 389q-133 154 -348 154q-221 0 -406 -144q-183 -140 -227 -381q-41 -244 96 -393q140 -152 355 -152zM551 76q-178 0 -285 119q-106 118 -71 317q34 194 182 315
q147 118 328 121q175 0 282 -119q108 -120 74 -313q-35 -202 -184 -321q-146 -119 -326 -119z" />
    <glyph glyph-name="ocircumflex" unicode="&#xf4;" horiz-adv-x="1253" 
d="M936 1167l-131 195l-199 -195h-123l267 260h120l179 -260h-113zM723 1047q215 0 348 -154q133 -151 92 -389q-44 -246 -223 -385q-183 -142 -399 -142q-215 0 -355 152q-137 149 -96 393q44 241 227 381q185 144 406 144zM1061 516q34 193 -74 313q-107 119 -282 119
q-181 -3 -328 -121q-148 -121 -182 -315q-35 -199 71 -317q107 -119 285 -119q180 0 326 119q149 119 184 321z" />
    <glyph glyph-name="otilde" unicode="&#xf5;" horiz-adv-x="1253" 
d="M582 1194h-90q19 113 69.5 169.5t114 50.5t125.5 -68q78 -78 126 -64t68 121h90q-27 -167 -124 -209q-94 -40 -185 57q-78 78 -126 64t-68 -121zM541 -23q-215 0 -355 152q-137 149 -96 393q44 241 227 381q185 144 406 144q215 0 348 -154q133 -151 92 -389
q-44 -246 -223 -385q-183 -142 -399 -142zM551 76q180 0 326 119q149 119 184 321q34 193 -74 313q-107 119 -282 119q-181 -3 -328 -121q-148 -121 -182 -315q-35 -199 71 -317q107 -119 285 -119z" />
    <glyph glyph-name="odieresis" unicode="&#xf6;" horiz-adv-x="1253" 
d="M494 1255q6 50 55 68q44 16 76 -8q26 -21 18 -60q-6 -31 -31.5 -52t-56.5 -21t-49 21t-12 52zM862 1255q6 51 56 68q46 16 77 -9q24 -22 17 -59q-6 -31 -31.5 -52t-56.5 -21t-49.5 21.5t-12.5 51.5zM541 -23q-215 0 -355 152q-137 149 -96 393q44 241 227 381
q185 144 406 144q215 0 348 -154q133 -151 92 -389q-44 -246 -223 -385q-183 -142 -399 -142zM551 76q180 0 326 119q149 119 184 321q34 193 -74 313q-107 119 -282 119q-181 -3 -328 -121q-148 -121 -182 -315q-35 -199 71 -317q107 -119 285 -119z" />
    <glyph glyph-name="divide" unicode="&#xf7;" horiz-adv-x="1187" 
d="M606 1104q6 38 36 63t71 25q38 0 61 -28.5t17 -67.5q-7 -38 -38.5 -63t-70.5 -25q-38 0 -61 29t-15 67zM1085 668h-927l16 98h928zM471 338q6 38 36 63t71 25q38 0 60.5 -28.5t16.5 -67.5q-7 -38 -38 -63t-70 -25q-38 0 -61 29t-15 67z" />
    <glyph glyph-name="oslash" unicode="&#xf8;" horiz-adv-x="1253" 
d="M1130 1030l66 -41l-115 -106q122 -156 82 -379q-44 -246 -223 -385q-183 -142 -399 -142q-185 0 -314 111l-100 -94l-66 41l115 106q-126 153 -86 381q44 241 227 381q185 144 406 144q181 0 307 -111zM195 512q-30 -179 59 -299l698 651q-104 84 -247 84
q-181 -3 -328 -121q-148 -121 -182 -315zM1061 516q30 178 -57 293l-699 -649q96 -84 246 -84q180 0 326 119q149 119 184 321z" />
    <glyph glyph-name="ugrave" unicode="&#xf9;" 
d="M631 1427l119 -260h-99l-143 260h123zM889 481l96 543h102l-180 -1024h-102l31 178q-145 -201 -394 -201q-183 0 -273.5 112t-59.5 298l112 637h105l-113 -637q-25 -144 39.5 -227.5t208.5 -83.5q162 0 277.5 106.5t150.5 300.5v-2z" />
    <glyph glyph-name="uacute" unicode="&#xfa;" 
d="M831 1427h127l-229 -260h-102zM889 481l96 543h102l-180 -1024h-102l31 178q-145 -201 -394 -201q-183 0 -273.5 112t-59.5 298l112 637h105l-113 -637q-25 -144 39.5 -227.5t208.5 -83.5q162 0 277.5 106.5t150.5 300.5v-2z" />
    <glyph glyph-name="ucircumflex" unicode="&#xfb;" 
d="M846 1167l-131 195l-199 -195h-123l266 260h121l178 -260h-112zM889 481l96 543h102l-180 -1024h-102l31 178q-145 -201 -394 -201q-183 0 -273.5 112t-59.5 298l112 637h105l-113 -637q-25 -144 39.5 -227.5t208.5 -83.5q162 0 277.5 106.5t150.5 300.5v-2z" />
    <glyph glyph-name="udieresis" unicode="&#xfc;" 
d="M432 1255q6 51 56 68q46 16 77 -9q24 -22 17 -59q-6 -31 -31.5 -52t-56.5 -21t-49.5 21.5t-12.5 51.5zM801 1255q6 50 55 68q44 16 76 -8q26 -21 18 -60q-6 -31 -31.5 -52t-56.5 -21t-49 21t-12 52zM889 481l96 543h102l-180 -1024h-102l31 178q-145 -201 -394 -201
q-183 0 -273.5 112t-59.5 298l112 637h105l-113 -637q-25 -144 39.5 -227.5t208.5 -83.5q162 0 277.5 106.5t150.5 300.5v-2z" />
    <glyph glyph-name="yacute" unicode="&#xfd;" horiz-adv-x="1044" 
d="M760 1427h127l-230 -260h-102zM469 102l522 922h117l-639 -1118q-91 -161 -211 -243.5t-250 -72.5l17 97q192 -18 342 239l34 58l-284 1040h104z" />
    <glyph glyph-name="thorn" unicode="&#xfe;" horiz-adv-x="1323" 
d="M786 1047q219 0 351 -166q134 -169 94 -392q-43 -238 -213 -376q-171 -136 -379 -136q-147 0 -261 74.5t-163 204.5l-117 -666h-102l323 1844h103l-109 -619q173 232 473 232zM1126 498q35 185 -73 317q-109 133 -291 133q-186 0 -326 -119q-138 -120 -172 -303
q-35 -200 76 -325q113 -125 293 -125q178 0 317 112q141 114 176 310z" />
    <glyph glyph-name="ydieresis" unicode="&#xff;" horiz-adv-x="1044" 
d="M360 1255q6 51 56 68q46 16 77 -9q24 -22 17 -59q-6 -31 -31.5 -52t-56.5 -21t-49.5 21.5t-12.5 51.5zM729 1255q6 51 56 68q46 16 77 -9q24 -22 17 -59q-6 -31 -31.5 -52t-56.5 -21t-49.5 21.5t-12.5 51.5zM469 102l522 922h117l-639 -1118q-91 -161 -211 -243.5
t-250 -72.5l17 97q192 -18 342 239l34 58l-284 1040h104z" />
    <glyph glyph-name="Amacron" unicode="&#x100;" horiz-adv-x="1288" 
d="M594 1702h518l-14 -90h-520zM1167 0h-110l-74 365h-719l-205 -365h-118l809 1434h114zM791 1300l-469 -833h639z" />
    <glyph glyph-name="amacron" unicode="&#x101;" horiz-adv-x="1323" 
d="M502 1292h518l-14 -90h-521zM1108 766l45 258h102l-180 -1024h-102l37 209q-173 -232 -473 -232q-219 0 -351 166q-134 169 -94 392q44 241 211 374q169 138 381 138q147 0 261 -75.5t163 -205.5zM1059 498q34 199 -78 323q-112 127 -291 127q-176 0 -317 -114t-176 -308
q-35 -185 73 -317q109 -133 291 -133q186 0 326 119q142 121 172 303z" />
    <glyph glyph-name="Abreve" unicode="&#x102;" horiz-adv-x="1288" 
d="M834 1567q-123 0 -187.5 68t-44.5 182h98q-27 -160 146 -160q82 0 135.5 42.5t67.5 117.5h98q-20 -118 -102.5 -184t-210.5 -66zM1167 0h-110l-74 365h-719l-205 -365h-118l809 1434h114zM791 1300l-469 -833h639z" />
    <glyph glyph-name="abreve" unicode="&#x103;" horiz-adv-x="1323" 
d="M850 1157q-123 0 -187.5 68t-44.5 182h99q-27 -160 145 -160q82 0 135.5 42.5t67.5 117.5h98q-20 -118 -102.5 -184t-210.5 -66zM1108 766l45 258h102l-180 -1024h-102l37 209q-173 -232 -473 -232q-219 0 -351 166q-134 169 -94 392q44 241 211 374q169 138 381 138
q147 0 261 -75.5t163 -205.5zM1059 498q34 199 -78 323q-112 127 -291 127q-176 0 -317 -114t-176 -308q-35 -185 73 -317q109 -133 291 -133q186 0 326 119q142 121 172 303z" />
    <glyph glyph-name="Aogonek" unicode="&#x104;" horiz-adv-x="1288" 
d="M950 -266q-12 -78 70 -78q47 0 90 16l-14 -84q-44 -20 -115 -20t-108 44t-25 112q21 129 209 280l-74 361h-719l-205 -365h-118l809 1434h114l303 -1434q-196 -152 -217 -266zM791 1300l-469 -833h639z" />
    <glyph glyph-name="aogonek" unicode="&#x105;" horiz-adv-x="1325" 
d="M1255 1024l-180 -1024q-199 -156 -217 -268q-12 -76 70 -76q44 0 90 18l-14 -86q-47 -20 -115 -20q-73 0 -109 44t-24 112q21 128 221 301l33 184q-173 -232 -473 -232q-219 0 -351 166q-134 169 -94 392q44 241 211 374q169 138 381 138q147 0 261 -75.5t163 -205.5
l45 258h102zM1059 498q34 199 -78 323q-112 127 -291 127q-176 0 -317 -114t-176 -308q-35 -185 73 -317q109 -133 291 -133q186 0 326 119q142 121 172 303z" />
    <glyph glyph-name="Cacute" unicode="&#x106;" horiz-adv-x="1538" 
d="M944 1577l205 260h127l-229 -260h-103zM748 -23q202 0 382 95t297 258l-92 57q-99 -143 -251.5 -224t-325.5 -81q-274 0 -418 182q-146 187 -100 453q46 267 254 450q209 185 483 185q347 0 485 -293l97 51q-74 162 -226 254t-354 92q-304 0 -549 -207
q-241 -204 -297 -518q-56 -312 119 -532q177 -222 496 -222z" />
    <glyph glyph-name="cacute" unicode="&#x107;" horiz-adv-x="1150" 
d="M633 1167l205 260h127l-230 -260h-102zM532 -23q159 0 291.5 68.5t210.5 190.5l-82 55q-63 -99 -171 -157t-230 -58q-184 0 -287 127q-101 128 -67 315q35 186 176 307q144 123 332 123q126 0 211.5 -55t121.5 -154l88 47q-41 119 -152.5 190t-258.5 71q-227 0 -408 -146
q-174 -143 -215 -373q-40 -225 86 -389q128 -162 354 -162z" />
    <glyph glyph-name="Cdotaccent" unicode="&#x10a;" horiz-adv-x="1538" 
d="M950 1679q6 41 39 69t72 28q42 0 65 -28.5t16 -68t-42 -69.5q-22 -21 -52.5 -25t-55 6.5t-38 34.5t-4.5 53zM748 -23q-319 0 -496 222q-175 220 -119 532q56 314 297 518q245 207 549 207q202 0 354 -92t226 -254l-97 -51q-138 293 -485 293q-274 0 -483 -185
q-208 -183 -254 -450q-46 -266 100 -453q144 -182 418 -182q173 0 325.5 81t251.5 224l92 -57q-117 -163 -297 -258t-382 -95z" />
    <glyph glyph-name="cdotaccent" unicode="&#x10b;" horiz-adv-x="1150" 
d="M639 1270q6 40 39 68t72 28q42 0 64.5 -28.5t15.5 -68t-42 -69.5q-22 -21 -52.5 -25t-54.5 6.5t-37.5 35t-4.5 53.5zM532 -23q-226 0 -354 162q-126 164 -86 389q41 230 215 373q181 146 408 146q147 0 258.5 -71t152.5 -190l-88 -47q-36 99 -121.5 154t-211.5 55
q-188 0 -332 -123q-141 -121 -176 -307q-34 -187 67 -315q103 -127 287 -127q122 0 230 58t171 157l82 -55q-78 -122 -210.5 -190.5t-291.5 -68.5z" />
    <glyph glyph-name="Ccaron" unicode="&#x10c;" horiz-adv-x="1538" 
d="M1090 1577h-121l-176 260h110l131 -192l197 192h125zM977 1352q-274 0 -483 -185q-208 -183 -254 -450q-46 -266 100 -453q144 -182 418 -182q173 0 325.5 81t251.5 224l92 -57q-117 -163 -297 -258t-382 -95q-319 0 -496 222q-175 220 -119 532q56 314 297 518
q245 207 549 207q202 0 354 -92t226 -254l-97 -51q-138 293 -485 293z" />
    <glyph glyph-name="ccaron" unicode="&#x10d;" horiz-adv-x="1150" 
d="M778 1167h-121l-176 260h111l131 -192l197 192h124zM705 948q-188 0 -332 -123q-141 -121 -176 -307q-34 -187 67 -315q103 -127 287 -127q122 0 230 58t171 157l82 -55q-78 -122 -210.5 -190.5t-291.5 -68.5q-226 0 -354 162q-126 164 -86 389q41 230 215 373
q181 146 408 146q147 0 258.5 -71t152.5 -190l-88 -47q-36 99 -121.5 154t-211.5 55z" />
    <glyph glyph-name="Dcaron" unicode="&#x10e;" horiz-adv-x="1490" 
d="M944 1577h-121l-176 260h111l131 -192l196 192h125zM340 1434h539q285 0 444 -217q160 -218 107 -517q-52 -300 -279 -501q-224 -199 -524 -199h-539zM1323 717q43 257 -86 436q-126 178 -375 178h-432l-215 -1229h430q248 0 440 177q191 177 238 438z" />
    <glyph glyph-name="dcaron" unicode="&#x10f;" horiz-adv-x="1427" 
d="M1108 768l117 666h102l-252 -1434h-102l37 209q-173 -232 -473 -232q-219 0 -351 166q-134 169 -94 392q44 241 211 374q169 138 381 138q147 0 261 -74.5t163 -204.5zM1417 1085l82 349h105l-113 -349h-74zM1059 498q34 199 -78 323q-112 127 -291 127q-176 0 -317 -114
t-176 -308q-35 -185 73 -317q109 -133 291 -133q187 0 324 119q140 119 174 303z" />
    <glyph glyph-name="Dcroat" unicode="&#x110;" horiz-adv-x="1531" 
d="M381 1434h539q285 0 444 -217t106 -517q-52 -301 -278 -501q-224 -199 -524 -199h-539l117 664h-137l12 90h139zM1364 717q43 257 -86 436q-126 178 -375 178h-432l-102 -577h311l-12 -90h-314l-98 -562h430q248 0 440 177q191 177 238 438z" />
    <glyph glyph-name="dslash" unicode="&#x111;" horiz-adv-x="1337" 
d="M1300 1278h138l-15 -86h-139l-209 -1192h-104l37 205q-175 -228 -471 -228q-219 0 -351 166q-134 169 -94 392q44 241 211 374q169 138 381 138q144 0 258.5 -74.5t163.5 -202.5l74 422h-412l14 86h414l27 156h104zM561 76q173 0 311 108q141 111 181 277l10 67
q21 189 -90 303q-111 117 -283 117q-176 0 -317 -114t-176 -308q-35 -185 73 -317q109 -133 291 -133z" />
    <glyph glyph-name="Emacron" unicode="&#x112;" horiz-adv-x="1091" 
d="M530 1702h519l-15 -90h-520zM1155 1434l-16 -103h-709l-98 -557h657l-18 -102h-656l-100 -570h717l-19 -102h-825l252 1434h815z" />
    <glyph glyph-name="emacron" unicode="&#x113;" horiz-adv-x="1204" 
d="M494 1292h518l-15 -90h-520zM700 1047q229 0 347 -160q119 -158 75 -379q-6 -34 -12 -49h-924q-12 -173 87 -278t276 -105q254 0 389 188l80 -53q-73 -109 -203.5 -171.5t-279.5 -62.5q-233 0 -359 156q-125 154 -84 393q41 228 211 373q171 148 397 148zM203 559h821
q18 182 -73 285.5t-259 103.5q-179 0 -309 -106q-134 -110 -180 -283z" />
    <glyph glyph-name="Edotaccent" unicode="&#x116;" horiz-adv-x="1091" 
d="M690 1679q6 41 39 69t72 28q42 0 65 -28.5t16 -68t-42 -69.5q-22 -21 -52.5 -25t-55 6.5t-38 34.5t-4.5 53zM1155 1434l-16 -103h-709l-98 -557h657l-18 -102h-656l-100 -570h717l-19 -102h-825l252 1434h815z" />
    <glyph glyph-name="edotaccent" unicode="&#x117;" horiz-adv-x="1204" 
d="M653 1270q6 40 39 68t72 28q42 0 65 -28.5t16 -68t-42 -69.5q-22 -21 -52.5 -25t-55 6.5t-38 35t-4.5 53.5zM700 1047q229 0 347 -160q119 -158 75 -379q-6 -34 -12 -49h-924q-12 -173 87 -278t276 -105q254 0 389 188l80 -53q-73 -109 -203.5 -171.5t-279.5 -62.5
q-233 0 -359 156q-125 154 -84 393q41 228 211 373q171 148 397 148zM203 559h821q18 182 -73 285.5t-259 103.5q-179 0 -309 -106q-134 -110 -180 -283z" />
    <glyph glyph-name="Eogonek" unicode="&#x118;" horiz-adv-x="1093" 
d="M1155 1434l-16 -103h-709l-98 -557h657l-18 -102h-656l-100 -570h717l-19 -102q-199 -150 -217 -260q-6 -37 13 -60.5t57 -23.5q44 0 90 18l-16 -88q-40 -18 -111 -18q-76 0 -112.5 47t-24.5 117q21 130 209 268h-713l252 1434h815z" />
    <glyph glyph-name="eogonek" unicode="&#x119;" horiz-adv-x="1204" 
d="M700 1047q229 0 347 -160q119 -158 75 -379q-6 -34 -12 -49h-924q-12 -173 87 -278t276 -105q254 0 389 188l80 -53q-44 -67 -115 -119q-288 -242 -309 -360q-15 -76 74 -76q40 0 86 18l-15 -86q-47 -20 -108 -20q-80 0 -117 42.5t-25 113.5q27 131 205 272
q-81 -19 -159 -19q-233 0 -359 156q-125 154 -84 393q41 228 211 373q171 148 397 148zM203 559h821q18 182 -73 285.5t-259 103.5q-179 0 -309 -106q-134 -110 -180 -283z" />
    <glyph glyph-name="Ecaron" unicode="&#x11a;" horiz-adv-x="1091" 
d="M829 1577h-120l-177 260h111l131 -192l197 192h125zM1155 1434l-16 -103h-709l-98 -557h657l-18 -102h-656l-100 -570h717l-19 -102h-825l252 1434h815z" />
    <glyph glyph-name="ecaron" unicode="&#x11b;" horiz-adv-x="1204" 
d="M793 1167h-121l-176 260h110l131 -192l197 192h125zM700 1047q229 0 347 -160q119 -158 75 -379q-6 -34 -12 -49h-924q-12 -173 87 -278t276 -105q254 0 389 188l80 -53q-73 -109 -203.5 -171.5t-279.5 -62.5q-233 0 -359 156q-125 154 -84 393q41 228 211 373
q171 148 397 148zM203 559h821q18 182 -73 285.5t-259 103.5q-179 0 -309 -106q-134 -110 -180 -283z" />
    <glyph glyph-name="Gbreve" unicode="&#x11e;" horiz-adv-x="1638" 
d="M1012 1567q-123 0 -187.5 68t-44.5 182h99q-27 -160 145 -160q82 0 135.5 42.5t67.5 117.5h98q-20 -118 -102.5 -184t-210.5 -66zM852 668h719l-10 -54q-49 -272 -267 -454q-216 -183 -518 -183q-335 0 -516 224q-180 224 -125 540q53 305 295 510t555 205q203 0 352 -91
t230 -255l-97 -51q-147 293 -489 293q-277 0 -485 -181t-254 -446q-46 -268 102 -457q149 -186 436 -186q249 0 426 137q179 136 236 346h-608z" />
    <glyph glyph-name="gbreve" unicode="&#x11f;" horiz-adv-x="1331" 
d="M764 1157q-123 0 -187.5 68t-44.5 182h99q-27 -160 145 -160q82 0 135.5 42.5t67.5 117.5h98q-20 -118 -102.5 -184t-210.5 -66zM1114 768l45 256h105l-172 -975q-41 -227 -198 -354t-390 -127q-164 0 -281.5 66t-165.5 180l93 47q34 -90 124.5 -142.5t233.5 -52.5
q198 0 322.5 100t156.5 283l29 160q-82 -111 -201 -171.5t-258 -60.5q-233 0 -364 162q-130 165 -93 396q34 229 207 370q174 142 381 142q147 0 262 -74.5t164 -204.5zM573 76q173 0 308 108q136 107 180 283l12 65q18 185 -96 299q-114 117 -283 117q-175 0 -319 -117
q-145 -118 -172 -305q-27 -191 76 -321q108 -129 294 -129z" />
    <glyph glyph-name="Gdotaccent" unicode="&#x120;" horiz-adv-x="1638" 
d="M932 1679q6 41 38.5 69t71.5 28q42 0 65 -28.5t16 -68t-42 -69.5q-22 -21 -52.5 -25t-54.5 6.5t-37.5 34.5t-4.5 53zM852 668h719l-10 -54q-49 -272 -267 -454q-216 -183 -518 -183q-335 0 -516 224q-180 224 -125 540q53 305 295 510t555 205q203 0 352 -91t230 -255
l-97 -51q-147 293 -489 293q-277 0 -485 -181t-254 -446q-46 -268 102 -457q149 -186 436 -186q249 0 426 137q179 136 236 346h-608z" />
    <glyph glyph-name="gdotaccent" unicode="&#x121;" horiz-adv-x="1331" 
d="M684 1270q6 40 39 68t72 28q42 0 65 -28.5t16 -68t-42 -69.5q-22 -21 -52.5 -25t-55 6.5t-38 35t-4.5 53.5zM1114 768l45 256h105l-172 -975q-41 -227 -198 -354t-390 -127q-164 0 -281.5 66t-165.5 180l93 47q34 -90 124.5 -142.5t233.5 -52.5q198 0 322.5 100
t156.5 283l29 160q-82 -111 -201 -171.5t-258 -60.5q-233 0 -364 162q-130 165 -93 396q34 229 207 370q174 142 381 142q147 0 262 -74.5t164 -204.5zM573 76q173 0 308 108q136 107 180 283l12 65q18 185 -96 299q-114 117 -283 117q-175 0 -319 -117q-145 -118 -172 -305
q-27 -191 76 -321q108 -129 294 -129z" />
    <glyph glyph-name="Gcommaaccent" unicode="&#x122;" horiz-adv-x="1638" 
d="M852 668h719l-10 -54q-49 -272 -267 -454q-216 -183 -518 -183q-335 0 -516 224q-180 224 -125 540q53 305 295 510t555 205q203 0 352 -91t230 -255l-97 -51q-147 293 -489 293q-277 0 -485 -181t-254 -446q-46 -268 102 -457q149 -186 436 -186q249 0 426 137
q179 136 236 346h-608zM707 -492h-74l82 349h104z" />
    <glyph glyph-name="gcommaaccent" unicode="&#x123;" horiz-adv-x="1331" 
d="M817 1556h74l-82 -348h-104zM1114 768l45 256h105l-172 -975q-41 -227 -198 -354t-390 -127q-164 0 -281.5 66t-165.5 180l93 47q34 -90 124.5 -142.5t233.5 -52.5q198 0 322.5 100t156.5 283l29 160q-82 -111 -201 -171.5t-258 -60.5q-233 0 -364 162q-130 165 -93 396
q34 229 207 370q174 142 381 142q147 0 262 -74.5t164 -204.5zM573 76q173 0 308 108q136 107 180 283l12 65q18 185 -96 299q-114 117 -283 117q-175 0 -319 -117q-145 -118 -172 -305q-27 -191 76 -321q108 -129 294 -129z" />
    <glyph glyph-name="Hbar" unicode="&#x126;" horiz-adv-x="1515" 
d="M1397 1151h135l-14 -90h-138l-186 -1061h-111l121 686h-831l-121 -686h-111l187 1061h-135l16 90h135l49 283h111l-49 -283h831l49 283h111zM391 788h832l47 273h-832z" />
    <glyph glyph-name="hbar" unicode="&#x127;" horiz-adv-x="1181" 
d="M739 1047q183 0 274.5 -112t59.5 -298l-112 -637h-103l111 637q25 144 -39.5 227.5t-208.5 83.5q-154 0 -268.5 -96t-151.5 -274l-102 -578h-105l209 1192h-147l14 86h149l27 156h105l-27 -156h319l-14 -86h-321l-60 -344q144 199 391 199z" />
    <glyph glyph-name="Itilde" unicode="&#x128;" horiz-adv-x="464" 
d="M88 0l252 1434h109l-252 -1434h-109zM236 1604h-91q19 112 70 169t114.5 50.5t125.5 -68.5q78 -78 126 -64t68 121h90q-27 -167 -123 -208q-95 -41 -186 57q-78 78 -126 64t-68 -121z" />
    <glyph glyph-name="itilde" unicode="&#x129;" horiz-adv-x="417" 
d="M170 0h-102l180 1024h102zM156 1194h-76q16 112 59 169t96.5 51t104.5 -68q66 -78 106.5 -64t57.5 121h76q-24 -167 -103 -209q-80 -39 -158 57q-66 78 -106 64t-57 -121z" />
    <glyph glyph-name="Imacron" unicode="&#x12a;" horiz-adv-x="464" 
d="M684 1612h-520l16 90h518zM88 0l252 1434h109l-252 -1434h-109z" />
    <glyph glyph-name="imacron" unicode="&#x12b;" horiz-adv-x="417" 
d="M522 1202h-383l17 90h381zM170 0h-102l180 1024h102z" />
    <glyph glyph-name="Iogonek" unicode="&#x12e;" horiz-adv-x="464" 
d="M53 -260q-15 -84 70 -84q43 0 90 18l-14 -86q-41 -20 -115 -20q-72 0 -108 45t-25 119q21 128 139 278l250 1424h109l-252 -1434q-129 -174 -144 -260z" />
    <glyph glyph-name="iogonek" unicode="&#x12f;" horiz-adv-x="417" 
d="M371 1434q32 0 52.5 -24t14.5 -56q-6 -36 -33 -59t-63 -23q-35 0 -53.5 23.5t-12.5 58.5q5 33 32 56.5t63 23.5zM350 1024l-180 -1024q-117 -155 -135 -252q-6 -39 12.5 -65.5t54.5 -26.5q44 0 91 18l-15 -86q-47 -20 -115 -20q-73 0 -109 49.5t-24 120.5q21 106 140 274
l178 1012h102z" />
    <glyph glyph-name="Idot" unicode="&#x130;" horiz-adv-x="464" 
d="M340 1679q6 41 39 69t72 28q42 0 64.5 -28.5t15.5 -68t-42 -69.5q-22 -21 -52.5 -25t-54.5 6.5t-37.5 34.5t-4.5 53zM88 0l252 1434h109l-252 -1434h-109z" />
    <glyph glyph-name="dotlessi" unicode="&#x131;" horiz-adv-x="417" 
d="M170 0h-102l180 1024h102z" />
    <glyph glyph-name="Kcommaaccent" unicode="&#x136;" horiz-adv-x="1169" 
d="M1147 1434h147l-850 -707l615 -727h-131l-606 715l-125 -715h-109l252 1434h109l-117 -668zM463 -492h-74l82 349h104z" />
    <glyph glyph-name="kcommaaccent" unicode="&#x137;" horiz-adv-x="989" 
d="M868 1024h146l-641 -494l479 -530h-127l-465 514l-90 -514h-102l251 1434h103l-154 -869zM365 -492h-74l82 349h104z" />
    <glyph glyph-name="Lacute" unicode="&#x139;" horiz-adv-x="1009" 
d="M571 1837h127l-229 -260h-102zM449 1434l-234 -1332h676l-19 -102h-784l252 1434h109z" />
    <glyph glyph-name="lacute" unicode="&#x13a;" horiz-adv-x="419" 
d="M344 1577l205 260h127l-230 -260h-102zM70 0h102l111 627l151 868h-102l-154 -868z" />
    <glyph glyph-name="Lcommaaccent" unicode="&#x13b;" horiz-adv-x="1009" 
d="M449 1434l-234 -1332h676l-19 -102h-784l252 1434h109zM416 -492h-74l82 349h104z" />
    <glyph glyph-name="lcommaaccent" unicode="&#x13c;" horiz-adv-x="419" 
d="M172 0h-102l108 627l154 868h102l-151 -868zM37 -492h-74l82 349h105z" />
    <glyph glyph-name="Lcaron" unicode="&#x13d;" horiz-adv-x="1009" 
d="M449 1434l-234 -1332h676l-19 -102h-784l252 1434h109zM729 1434h102l-110 -349h-74z" />
    <glyph glyph-name="lcaron" unicode="&#x13e;" horiz-adv-x="505" 
d="M172 0h-102l108 627l154 868h102l-151 -868zM582 1147h-74l82 348h102z" />
    <glyph glyph-name="Lslash" unicode="&#x141;" horiz-adv-x="1058" 
d="M348 590l-86 -488h676l-18 -102h-785l92 518l-151 -88l18 109l152 90l141 805h109l-129 -736l405 240l-18 -109z" />
    <glyph glyph-name="lslash" unicode="&#x142;" horiz-adv-x="491" 
d="M352 821l172 107l-18 -107l-172 -106l-17 -88l-110 -627h-103l109 627l2 16l-168 -102l19 106l170 105l131 743h102z" />
    <glyph glyph-name="Nacute" unicode="&#x143;" horiz-adv-x="1406" 
d="M805 1577l205 260h127l-230 -260h-102zM88 0h109l217 1233l637 -1233h88l252 1434h-109l-217 -1233l-639 1233h-86z" />
    <glyph glyph-name="nacute" unicode="&#x144;" 
d="M805 1427h127l-230 -260h-102zM713 1047q183 0 274 -112t60 -298l-113 -637h-105l113 637q25 144 -39.5 227.5t-208.5 83.5q-162 0 -277.5 -106.5t-150.5 -300.5v2l-96 -543h-102l180 1024h102l-31 -178q145 201 394 201z" />
    <glyph glyph-name="Ncommaaccent" unicode="&#x145;" horiz-adv-x="1406" 
d="M197 0h-109l252 1434h86l639 -1233l217 1233h109l-252 -1434h-88l-637 1233zM530 -492h-73l82 349h104z" />
    <glyph glyph-name="ncommaaccent" unicode="&#x146;" 
d="M713 1047q183 0 274 -112t60 -298l-113 -637h-105l113 637q25 144 -39.5 227.5t-208.5 83.5q-162 0 -277.5 -106.5t-150.5 -300.5v2l-96 -543h-102l180 1024h102l-31 -178q145 201 394 201zM444 -492h-73l82 349h104z" />
    <glyph glyph-name="Ncaron" unicode="&#x147;" horiz-adv-x="1406" 
d="M950 1577h-121l-176 260h111l131 -192l197 192h125zM1065 201l217 1233h109l-252 -1434h-88l-637 1233l-217 -1233h-109l252 1434h86z" />
    <glyph glyph-name="ncaron" unicode="&#x148;" 
d="M745 1167h-120l-176 260h110l131 -192l197 192h125zM713 1047q183 0 274 -112t60 -298l-113 -637h-105l113 637q25 144 -39.5 227.5t-208.5 83.5q-162 0 -277.5 -106.5t-150.5 -300.5v2l-96 -543h-102l180 1024h102l-31 -178q145 201 394 201z" />
    <glyph glyph-name="Eng" unicode="&#x14a;" horiz-adv-x="1406" 
d="M1065 201l217 1233h109l-252 -1434q-40 -224 -160.5 -318t-331.5 -92l19 105q159 -2 246.5 68.5t117.5 236.5l4 31l-620 1202l-217 -1233h-109l252 1434h86z" />
    <glyph glyph-name="eng" unicode="&#x14b;" 
d="M713 1047q183 0 274 -112t60 -298l-134 -754q-29 -165 -131.5 -246.5t-263.5 -68.5l17 98q231 -24 274 217l133 754q25 144 -39.5 227.5t-208.5 83.5q-162 0 -277.5 -106.5t-150.5 -300.5v2l-96 -543h-102l180 1024h102l-31 -178q145 201 394 201z" />
    <glyph glyph-name="Omacron" unicode="&#x14c;" horiz-adv-x="1677" 
d="M1290 1612h-520l16 90h519zM748 -23q-307 0 -488 224q-179 222 -127 532q53 309 301 514q250 209 563 209q307 0 488 -227q181 -225 129 -535q-56 -308 -303 -512q-245 -205 -563 -205zM766 82q272 0 479 180q211 181 258 449q46 264 -104 452q-151 189 -420 189
t-481 -185q-208 -184 -254 -450q-47 -268 102 -451q150 -184 420 -184z" />
    <glyph glyph-name="omacron" unicode="&#x14d;" horiz-adv-x="1253" 
d="M1004 1202h-521l17 90h518zM541 -23q-215 0 -355 152q-137 149 -96 393q44 241 227 381q185 144 406 144q215 0 348 -154q133 -151 92 -389q-44 -246 -223 -385q-183 -142 -399 -142zM551 76q180 0 326 119q149 119 184 321q34 193 -74 313q-107 119 -282 119
q-181 -3 -328 -121q-148 -121 -182 -315q-35 -199 71 -317q107 -119 285 -119z" />
    <glyph glyph-name="Ohungarumlaut" unicode="&#x150;" horiz-adv-x="1677" 
d="M774 1577l184 266h119l-196 -266h-107zM1065 1577l205 266h119l-215 -266h-109zM748 -23q318 0 563 205q247 204 303 512q52 310 -129 535q-181 227 -488 227q-313 0 -563 -209q-248 -205 -301 -514q-52 -310 127 -532q181 -224 488 -224zM766 82q-270 0 -420 184
q-149 183 -102 451q46 266 254 450q212 185 481 185t420 -189q150 -188 104 -452q-47 -268 -258 -449q-207 -180 -479 -180z" />
    <glyph glyph-name="ohungarumlaut" unicode="&#x151;" horiz-adv-x="1253" 
d="M487 1167l185 267h119l-197 -267h-107zM778 1167l205 267h119l-215 -267h-109zM541 -23q216 0 399 142q179 139 223 385q41 238 -92 389q-133 154 -348 154q-221 0 -406 -144q-183 -140 -227 -381q-41 -244 96 -393q140 -152 355 -152zM551 76q-178 0 -285 119
q-106 118 -71 317q34 194 182 315q147 118 328 121q175 0 282 -119q108 -120 74 -313q-35 -202 -184 -321q-146 -119 -326 -119z" />
    <glyph glyph-name="OE" unicode="&#x152;" horiz-adv-x="1875" 
d="M1939 1434l-18 -103h-659l-99 -557h623l-19 -102h-620l-100 -570h669l-18 -102h-778l233 1323q-92 29 -188 29q-265 0 -471 -185q-203 -179 -250 -450q-49 -267 90 -453q138 -182 407 -182q95 0 197 29l-18 -111q-104 -23 -197 -23q-307 0 -477 218q-169 217 -113 530
q56 311 293 520q239 211 557 211q98 0 188 -22h768z" />
    <glyph glyph-name="oe" unicode="&#x153;" horiz-adv-x="2172" 
d="M1675 1047q219 0 338 -162q119 -158 78 -377l-12 -49h-924q-13 -173 86.5 -278t276.5 -105q252 0 387 188l82 -53q-74 -109 -203.5 -171.5t-272.5 -62.5q-169 0 -283.5 86.5t-150.5 235.5q-82 -149 -227.5 -235.5t-317.5 -86.5q-220 0 -354 158q-129 159 -88 385
q40 227 219 377t412 150q157 0 271 -88t151 -232q80 149 221.5 234.5t310.5 85.5zM551 76q183 0 328 127q148 127 178 309q35 182 -68 309t-284 127q-187 0 -332 -127q-144 -126 -178 -309q-35 -185 67 -311q101 -125 289 -125zM1171 559h822q18 182 -73.5 285.5
t-258.5 103.5q-179 0 -309 -106q-135 -111 -181 -283z" />
    <glyph glyph-name="Racute" unicode="&#x154;" horiz-adv-x="1255" 
d="M905 1837h127l-229 -260h-103zM340 1434h565q168 0 275 -134q107 -131 73 -305q-25 -145 -129.5 -252t-253.5 -143l248 -600h-112l-242 588h-6h-459l-102 -588h-109zM889 1331h-459l-113 -641h459q131 0 240 92q109 95 133 228q24 132 -53 227q-76 94 -207 94z" />
    <glyph glyph-name="racute" unicode="&#x155;" horiz-adv-x="651" 
d="M614 1427h127l-229 -260h-102zM350 1024l-31 -174q136 197 377 188l-18 -98q-147 0 -260 -94q-113 -91 -148 -277l-100 -569h-102l180 1024h102z" />
    <glyph glyph-name="Rcommaaccent" unicode="&#x156;" horiz-adv-x="1255" 
d="M340 1434h565q168 0 275 -134q107 -131 73 -305q-25 -145 -129.5 -252t-253.5 -143l248 -600h-112l-242 588h-6h-459l-102 -588h-109zM889 1331h-459l-113 -641h459q131 0 240 92q109 95 133 228q24 132 -53 227q-76 94 -207 94zM524 -492h-73l81 349h105z" />
    <glyph glyph-name="rcommaaccent" unicode="&#x157;" horiz-adv-x="651" 
d="M350 1024l-31 -174q136 197 377 188l-18 -98q-147 0 -260 -94q-113 -91 -148 -277l-100 -569h-102l180 1024h102zM35 -492h-74l82 349h104z" />
    <glyph glyph-name="Rcaron" unicode="&#x158;" horiz-adv-x="1255" 
d="M846 1577h-121l-176 260h110l132 -192l196 192h125zM340 1434h565q168 0 275 -134q107 -131 73 -305q-25 -145 -129.5 -252t-253.5 -143l248 -600h-112l-242 588h-6h-459l-102 -588h-109zM889 1331h-459l-113 -641h459q131 0 240 92q109 95 133 228q24 132 -53 227
q-76 94 -207 94z" />
    <glyph glyph-name="rcaron" unicode="&#x159;" horiz-adv-x="651" 
d="M555 1167h-121l-176 260h111l131 -192l196 192h125zM350 1024l-31 -174q136 197 377 188l-18 -98q-147 0 -260 -94q-113 -91 -148 -277l-100 -569h-102l180 1024h102z" />
    <glyph glyph-name="Sacute" unicode="&#x15a;" horiz-adv-x="1173" 
d="M684 1577l205 260h127l-230 -260h-102zM532 -23q205 0 344.5 93t174.5 262q13 74 -3 141t-51 111q-29 39 -94 80q-63 40 -108 57q-43 18 -117 45q-129 50 -135 53q-50 23 -107 62q-57 41 -76.5 93.5t-5.5 125.5q24 115 125 183.5t234 68.5q265 0 342 -244l96 49
q-43 138 -153.5 218.5t-278.5 80.5q-167 0 -307 -90q-133 -87 -168 -256q-17 -119 21 -198t126 -134q39 -23 77 -41t64 -28t84 -31q104 -41 136 -55q47 -21 106 -62q59 -37 78.5 -90t5.5 -127q-25 -122 -132.5 -192t-272.5 -70t-267 75t-127 208l-96 -50q35 -160 162.5 -249
t322.5 -89z" />
    <glyph glyph-name="sacute" unicode="&#x15b;" horiz-adv-x="966" 
d="M514 1167l205 260h127l-230 -260h-102zM418 -23q162 0 269.5 71t127.5 194q14 79 -9 136.5t-86.5 95t-109.5 54.5t-132 41q-5 1 -7 2q-94 29 -145.5 77.5t-38.5 117.5q17 87 91 134.5t173 47.5q89 0 157.5 -40t92.5 -113l90 47q-38 97 -126.5 151t-209.5 54
q-146 0 -250 -76q-102 -73 -123 -191q-6 -32 -5.5 -59.5t8 -51.5t19.5 -44t29.5 -37t37.5 -31t43.5 -26t48 -22t50.5 -18.5t51 -16t51 -14.5q3 -1 5.5 -1.5t5.5 -1.5q95 -29 147.5 -78.5t39.5 -120.5q-17 -85 -95 -133.5t-192 -48.5q-111 0 -184 48t-97 134l-92 -47
q73 -234 365 -234z" />
    <glyph glyph-name="Scedilla" unicode="&#x15e;" horiz-adv-x="1173" 
d="M678 766q74 -27 117 -45q45 -17 108 -57q65 -41 94 -80q35 -44 51 -111t3 -141q-35 -167 -169 -258.5t-333 -96.5l-17 -92q80 -11 125 -55t35 -106q-35 -190 -428 -156l17 84q145 -13 226.5 8t92.5 72q7 44 -38 67t-134 21l29 162q-164 17 -271 104t-139 229l96 50
q25 -133 127 -208t267 -75t272.5 70t132.5 192q14 74 -5.5 127t-78.5 90q-59 41 -106 62q-32 14 -136 55q-58 21 -84 31t-64 28t-77 41q-88 55 -126 134t-21 198q35 169 168 256q140 90 307 90q168 0 278.5 -80.5t153.5 -218.5l-96 -49q-77 244 -342 244q-133 0 -234 -68.5
t-125 -183.5q-14 -73 5.5 -125.5t76.5 -93.5q57 -39 107 -62q6 -3 135 -53z" />
    <glyph glyph-name="scedilla" unicode="&#x15f;" horiz-adv-x="966" 
d="M287 766q-13 -69 38.5 -117.5t145.5 -77.5q154 -43 218 -78q155 -85 126 -251q-20 -118 -120 -188.5t-253 -76.5l-16 -92q80 -11 125 -55t35 -106q-35 -190 -428 -156l16 84q145 -13 227 8t93 72q7 44 -38 67t-134 21l28 162q-233 27 -297 229l92 47q24 -86 97 -134
t184 -48q114 0 192 48.5t95 133.5q13 71 -39.5 120.5t-147.5 78.5q-154 44 -215 76q-160 86 -129 247q21 118 123 191q104 76 250 76q121 0 209.5 -54t126.5 -151l-90 -47q-24 73 -92.5 113t-157.5 40q-99 0 -173 -47.5t-91 -134.5z" />
    <glyph glyph-name="Scaron" unicode="&#x160;" horiz-adv-x="1173" 
d="M829 1577h-120l-177 260h111l131 -192l197 192h125zM678 766q74 -27 117 -45q45 -17 108 -57q65 -41 94 -80q35 -44 51 -111t3 -141q-35 -169 -174.5 -262t-344.5 -93q-195 0 -322.5 89t-162.5 249l96 50q25 -133 127 -208t267 -75t272.5 70t132.5 192q14 74 -5.5 127
t-78.5 90q-59 41 -106 62q-32 14 -136 55q-58 21 -84 31t-64 28t-77 41q-88 55 -126 134t-21 198q35 169 168 256q140 90 307 90q168 0 278.5 -80.5t153.5 -218.5l-96 -49q-77 244 -342 244q-133 0 -234 -68.5t-125 -183.5q-14 -73 5.5 -125.5t76.5 -93.5q57 -39 107 -62
q6 -3 135 -53z" />
    <glyph glyph-name="scaron" unicode="&#x161;" horiz-adv-x="966" 
d="M659 1167h-120l-177 260h111l131 -192l197 192h125zM551 948q-99 0 -173 -47.5t-91 -134.5q-13 -69 38.5 -117.5t145.5 -77.5q154 -43 218 -78q155 -85 126 -251q-20 -123 -127.5 -194t-269.5 -71q-292 0 -365 234l92 47q24 -86 97 -134t184 -48q114 0 192 48.5t95 133.5
q13 71 -39.5 120.5t-147.5 78.5q-154 44 -215 76q-160 86 -129 247q21 118 123 191q104 76 250 76q121 0 209.5 -54t126.5 -151l-90 -47q-24 73 -92.5 113t-157.5 40z" />
    <glyph glyph-name="uni0162" unicode="&#x162;" horiz-adv-x="1105" 
d="M209 1434h1012l-19 -103h-450l-234 -1331h-110l233 1331h-448zM381 -492h-74l82 349h105z" />
    <glyph glyph-name="uni0163" unicode="&#x163;" horiz-adv-x="772" 
d="M756 924h-305l-119 -666q-21 -127 41 -154q64 -27 235 -12l-14 -92q-210 -33 -302.5 30t-62.5 228l117 666h-225l18 100h226l45 256l108 31l-51 -287h307zM313 -492h-73l82 349h104z" />
    <glyph glyph-name="Tcaron" unicode="&#x164;" horiz-adv-x="1105" 
d="M801 1577h-121l-176 260h110l131 -192l197 192h125zM209 1434h1012l-19 -103h-450l-234 -1331h-110l233 1331h-448z" />
    <glyph glyph-name="tcaron" unicode="&#x165;" horiz-adv-x="772" 
d="M686 1462h105l-109 -321h-74zM410 1280l108 31l-51 -287h307l-18 -100h-305l-119 -666q-21 -127 41 -154q64 -27 235 -12l-14 -92q-210 -33 -302.5 30t-62.5 228l117 666h-225l18 100h226z" />
    <glyph glyph-name="Tbar" unicode="&#x166;" horiz-adv-x="1105" 
d="M1221 1434l-19 -103h-450l-99 -565h312l-17 -98h-313l-117 -668h-110l116 668h-313l16 98h316l98 565h-448l16 103h1012z" />
    <glyph glyph-name="tbar" unicode="&#x167;" horiz-adv-x="772" 
d="M774 1024l-18 -100h-305l-62 -344h205l-14 -86h-207l-41 -236q-21 -127 41 -154q64 -27 235 -12l-14 -92q-210 -33 -302.5 30t-62.5 228l41 236h-141l14 86h144l59 344h-225l18 100h226l45 256l108 31l-51 -287h307z" />
    <glyph glyph-name="Utilde" unicode="&#x168;" horiz-adv-x="1366" 
d="M606 -23q-238 0 -366 140q-128 143 -88 362l167 955h109l-168 -955q-31 -181 59.5 -289t284.5 -108q201 0 330 111q131 116 160 286l168 955h108l-168 -955q-41 -232 -203 -366q-165 -136 -393 -136zM682 1604h-90q19 112 69.5 169t114 50.5t125.5 -68.5q155 -155 195 57
h90q-27 -167 -123 -208q-95 -41 -186 57q-155 155 -195 -57z" />
    <glyph glyph-name="utilde" unicode="&#x169;" 
d="M889 481l96 543h102l-180 -1024h-102l31 178q-145 -201 -394 -201q-183 0 -273.5 112t-59.5 298l112 637h105l-113 -637q-25 -144 39.5 -227.5t208.5 -83.5q162 0 277.5 106.5t150.5 300.5v-2zM494 1194h-91q19 112 69.5 169t114.5 51t126 -68q78 -78 126 -64t68 121h90
q-27 -168 -123 -209q-95 -41 -186 57q-78 78 -126 64t-68 -121z" />
    <glyph glyph-name="Umacron" unicode="&#x16a;" horiz-adv-x="1366" 
d="M1130 1612h-520l17 90h518zM606 -23q-238 0 -366 140q-128 143 -88 362l167 955h109l-168 -955q-31 -181 59.5 -289t284.5 -108q201 0 330 111q131 116 160 286l168 955h108l-168 -955q-41 -232 -203 -366q-165 -136 -393 -136z" />
    <glyph glyph-name="umacron" unicode="&#x16b;" 
d="M438 1292h518l-14 -90h-520zM889 481l96 543h102l-180 -1024h-102l31 178q-145 -201 -394 -201q-183 0 -273.5 112t-59.5 298l112 637h105l-113 -637q-25 -144 39.5 -227.5t208.5 -83.5q162 0 277.5 106.5t150.5 300.5v-2z" />
    <glyph glyph-name="Uring" unicode="&#x16e;" horiz-adv-x="1366" 
d="M852 1475q-93 0 -142.5 57.5t-35.5 144.5q13 86 80.5 140.5t158.5 54.5q93 0 143 -58t38 -145q-13 -86 -81 -140t-161 -54zM1008 1673q7 54 -21 85.5t-84 31.5q-55 0 -94.5 -32t-46.5 -85q-11 -51 17 -84t83 -33t95 32.5t51 84.5zM606 -23q-238 0 -366 140
q-128 143 -88 362l167 955h109l-168 -955q-31 -181 59.5 -289t284.5 -108q201 0 330 111q131 116 160 286l168 955h108l-168 -955q-41 -232 -203 -366q-165 -136 -393 -136z" />
    <glyph glyph-name="uring" unicode="&#x16f;" 
d="M676 1133q-93 0 -142.5 57.5t-35.5 144.5q13 86 80.5 140.5t158.5 54.5q93 0 143 -58t38 -145q-13 -86 -81 -140t-161 -54zM586 1331q-11 -51 17 -84t83 -33t94.5 32.5t50.5 84.5q7 54 -21 85.5t-83 31.5t-94.5 -32t-46.5 -85zM889 481l96 543h102l-180 -1024h-102
l31 178q-145 -201 -394 -201q-183 0 -273.5 112t-59.5 298l112 637h105l-113 -637q-25 -144 39.5 -227.5t208.5 -83.5q162 0 277.5 106.5t150.5 300.5v-2z" />
    <glyph glyph-name="Uhungarumlaut" unicode="&#x170;" horiz-adv-x="1366" 
d="M614 1577l185 266h119l-197 -266h-107zM905 1577l205 266h119l-215 -266h-109zM606 -23q228 0 393 136q162 134 203 366l168 955h-108l-168 -955q-29 -170 -160 -286q-129 -111 -330 -111q-194 0 -284.5 108t-59.5 289l168 955h-109l-167 -955q-40 -219 88 -362
q128 -140 366 -140z" />
    <glyph glyph-name="uhungarumlaut" unicode="&#x171;" 
d="M610 1434h119l-197 -267h-106zM1040 1434l-215 -267h-108l205 267h118zM889 481l96 543h102l-180 -1024h-102l31 178q-145 -201 -394 -201q-183 0 -273.5 112t-59.5 298l112 637h105l-113 -637q-25 -144 39.5 -227.5t208.5 -83.5q162 0 277.5 106.5t150.5 300.5v-2z" />
    <glyph glyph-name="Uogonek" unicode="&#x172;" horiz-adv-x="1366" 
d="M1094 479l168 955h108l-168 -955q-50 -276 -262 -409q-162 -119 -233 -193q-73 -76 -82 -139q-12 -82 77 -82q39 0 82 16l-14 -86q-44 -18 -102 -18q-80 0 -119.5 44t-28.5 114q21 123 195 260q-47 -9 -109 -9q-238 0 -366 140q-128 143 -88 362l167 955h109l-168 -955
q-31 -181 59.5 -289t284.5 -108q201 0 330 111q131 116 160 286z" />
    <glyph glyph-name="uogonek" unicode="&#x173;" 
d="M1087 1024l-180 -1024q-199 -156 -217 -268q-12 -76 70 -76q44 0 90 18l-14 -86q-50 -20 -115 -20q-74 0 -110 43.5t-25 112.5q21 118 223 296l27 158q-145 -201 -394 -201q-183 0 -273.5 112t-59.5 298l112 637h105l-113 -637q-25 -144 39.5 -227.5t208.5 -83.5
q162 0 277.5 106.5t150.5 300.5v-2l96 543h102z" />
    <glyph glyph-name="Wcircumflex" unicode="&#x174;" horiz-adv-x="2033" 
d="M1374 1577l-131 195l-199 -195h-122l266 260h121l178 -260h-113zM1413 141l600 1293h115l-668 -1434h-131l-174 1292l-631 -1292h-131l-164 1434h109l145 -1293l627 1293h129z" />
    <glyph glyph-name="wcircumflex" unicode="&#x175;" horiz-adv-x="1576" 
d="M1042 1167l-131 195l-198 -195h-123l266 260h121l178 -260h-113zM1057 131l430 893h112l-503 -1024h-113l-131 872l-438 -872h-113l-143 1024h102l117 -893l444 893h107l-2 -4z" />
    <glyph glyph-name="Ycircumflex" unicode="&#x176;" horiz-adv-x="1167" 
d="M936 1577l-131 195l-199 -195h-123l267 260h120l179 -260h-113zM1174 1434h129l-637 -764l-119 -670h-109l119 674l-369 760h113l320 -664z" />
    <glyph glyph-name="ycircumflex" unicode="&#x177;" horiz-adv-x="1044" 
d="M774 1167l-131 195l-199 -195h-122l266 260h121l178 -260h-113zM469 102l522 922h117l-639 -1118q-91 -161 -211 -243.5t-250 -72.5l17 97q192 -18 342 239l34 58l-284 1040h104z" />
    <glyph glyph-name="Ydieresis" unicode="&#x178;" horiz-adv-x="1167" 
d="M522 1665q6 51 56 68q46 16 77 -9q24 -22 17 -59q-6 -31 -31.5 -52.5t-56.5 -21.5t-49.5 21.5t-12.5 52.5zM891 1665q6 50 55 68q44 16 76 -8q26 -21 18 -60q-6 -31 -31.5 -52.5t-56.5 -21.5t-49 21.5t-12 52.5zM1174 1434h129l-637 -764l-119 -670h-109l119 674
l-369 760h113l320 -664z" />
    <glyph glyph-name="Zacute" unicode="&#x179;" horiz-adv-x="1071" 
d="M854 1837h127l-229 -260h-103zM270 1434h875l-17 -103l-987 -1229h791l-19 -102h-915l18 102l988 1229h-750z" />
    <glyph glyph-name="zacute" unicode="&#x17a;" horiz-adv-x="948" 
d="M723 1427h127l-229 -260h-103zM207 1024h737l-12 -68l-760 -856h629l-17 -100h-778l12 68l758 856h-588z" />
    <glyph glyph-name="Zdotaccent" unicode="&#x17b;" horiz-adv-x="1071" 
d="M655 1679q6 41 39 69t72 28q42 0 65 -28.5t16 -68t-42 -69.5q-22 -21 -52.5 -25t-55 6.5t-38 34.5t-4.5 53zM270 1434h875l-17 -103l-987 -1229h791l-19 -102h-915l18 102l988 1229h-750z" />
    <glyph glyph-name="zdotaccent" unicode="&#x17c;" horiz-adv-x="948" 
d="M524 1270q6 40 39 68t72 28q42 0 65 -28.5t16 -68t-42 -69.5q-22 -21 -52.5 -25t-55 6.5t-38 35t-4.5 53.5zM207 1024h737l-12 -68l-760 -856h629l-17 -100h-778l12 68l758 856h-588z" />
    <glyph glyph-name="Zcaron" unicode="&#x17d;" horiz-adv-x="1071" 
d="M795 1577h-121l-176 260h110l131 -192l197 192h125zM270 1434h875l-17 -103l-987 -1229h791l-19 -102h-915l18 102l988 1229h-750z" />
    <glyph glyph-name="zcaron" unicode="&#x17e;" horiz-adv-x="948" 
d="M664 1167h-121l-176 260h110l131 -192l197 192h125zM207 1024h737l-12 -68l-760 -856h629l-17 -100h-778l12 68l758 856h-588z" />
    <glyph glyph-name="florin" unicode="&#x192;" horiz-adv-x="892" 
d="M481 768l144 414q59 171 175 238.5t257 19.5l-17 -103q-99 44 -183 0.5t-126 -157.5l-141 -412h246l-19 -100h-262l-285 -826q-59 -170 -176.5 -238t-255.5 -20l17 103q99 -44 183 -0.5t126 157.5l285 824h-234l18 100h248z" />
    <glyph glyph-name="Ohorn" unicode="&#x1a0;" horiz-adv-x="1677" 
d="M748 -23q-307 0 -488 224q-179 222 -127 532q53 309 301 514q250 209 563 209q93 0 183 -22h157q74 0 102.5 31.5t41.5 111.5l2 10h100l-2 -10q-20 -116 -70.5 -171.5t-142.5 -64.5q69 -53 117 -112q181 -225 129 -535q-56 -308 -303 -512q-245 -205 -563 -205zM766 82
q272 0 479 180q211 181 258 449q46 264 -104 452q-151 189 -420 189t-481 -185q-208 -184 -254 -450q-47 -268 102 -451q150 -184 420 -184z" />
    <glyph glyph-name="ohorn" unicode="&#x1a1;" horiz-adv-x="1253" 
d="M541 -23q-215 0 -355 152q-137 149 -96 393q44 241 227 381q185 144 406 144q74 0 151 -23h103q74 0 102 31.5t41 111.5l2 11h101l-2 -11q-19 -108 -65 -163.5t-126 -69.5q6 -5 13 -12t15 -15.5t13 -13.5q133 -151 92 -389q-44 -246 -223 -385q-183 -142 -399 -142z
M551 76q180 0 326 119q149 119 184 321q34 193 -74 313q-107 119 -282 119q-181 -3 -328 -121q-148 -121 -182 -315q-35 -199 71 -317q107 -119 285 -119z" />
    <glyph glyph-name="Uhorn" unicode="&#x1af;" horiz-adv-x="1366" 
d="M606 -23q-238 0 -366 140q-128 143 -88 362l167 955h109l-168 -955q-31 -181 59.5 -289t284.5 -108q201 0 330 111q131 116 160 286l168 955h63q65 3 90.5 34.5t38.5 108.5l2 10h100l-2 -10q-19 -112 -67 -168t-133 -68l-152 -862q-41 -232 -203 -366
q-165 -136 -393 -136z" />
    <glyph glyph-name="uhorn" unicode="&#x1b0;" 
d="M889 481l96 543h57q74 0 102.5 31.5t41.5 111.5l2 11h100l-2 -11q-20 -117 -71 -172t-144 -63l-164 -932h-102l31 178q-145 -201 -394 -201q-183 0 -273.5 112t-59.5 298l112 637h105l-113 -637q-25 -144 39.5 -227.5t208.5 -83.5q162 0 277.5 106.5t150.5 300.5v-2z" />
    <glyph glyph-name="Scommaaccent" unicode="&#x218;" horiz-adv-x="1173" 
d="M532 -23q-195 0 -322.5 89t-162.5 249l96 50q25 -133 127 -208t267 -75t272.5 70t132.5 192q14 74 -5.5 127t-78.5 90q-59 41 -106 62q-32 14 -136 55q-58 21 -84 31t-64 28t-77 41q-88 55 -126 134t-21 198q35 169 168 256q140 90 307 90q168 0 278.5 -80.5
t153.5 -218.5l-96 -49q-77 244 -342 244q-133 0 -234 -68.5t-125 -183.5q-14 -73 5.5 -125.5t76.5 -93.5q57 -39 107 -62q6 -3 135 -53q74 -27 117 -45q45 -17 108 -57q65 -41 94 -80q35 -44 51 -111t3 -141q-35 -169 -174.5 -262t-344.5 -93zM446 -492h-73l82 349h104z" />
    <glyph glyph-name="scommaaccent" unicode="&#x219;" horiz-adv-x="966" 
d="M418 -23q-292 0 -365 234l92 47q24 -86 97 -134t184 -48q114 0 192 48.5t95 133.5q13 71 -39.5 120.5t-147.5 78.5q-154 44 -215 76q-160 86 -129 247q21 118 123 191q104 76 250 76q121 0 209.5 -54t126.5 -151l-90 -47q-24 73 -92.5 113t-157.5 40q-99 0 -173 -47.5
t-91 -134.5q-13 -69 38.5 -117.5t145.5 -77.5q154 -43 218 -78q155 -85 126 -251q-20 -123 -127.5 -194t-269.5 -71zM340 -492h-74l82 349h105z" />
    <glyph glyph-name="uni021A" unicode="&#x21a;" horiz-adv-x="1105" 
d="M209 1434h1012l-19 -103h-450l-234 -1331h-110l233 1331h-448zM381 -492h-74l82 349h105z" />
    <glyph glyph-name="uni021B" unicode="&#x21b;" horiz-adv-x="772" 
d="M756 924h-305l-119 -666q-21 -127 41 -154q64 -27 235 -12l-14 -92q-210 -33 -302.5 30t-62.5 228l117 666h-225l18 100h226l45 256l108 31l-51 -287h307zM313 -492h-73l82 349h104z" />
    <glyph glyph-name="circumflex" unicode="&#x2c6;" horiz-adv-x="645" 
d="M543 1427l178 -260h-113l-131 195l-198 -195h-123l266 260h121z" />
    <glyph glyph-name="caron" unicode="&#x2c7;" horiz-adv-x="645" 
d="M444 1235l197 192h125l-266 -260h-121l-176 260h110z" />
    <glyph glyph-name="breve" unicode="&#x2d8;" horiz-adv-x="628" 
d="M430 1157q-123 0 -187 68t-44 182h98q-27 -160 145 -160q82 0 135.5 42.5t67.5 117.5h98q-20 -118 -102.5 -184t-210.5 -66z" />
    <glyph glyph-name="dotaccent" unicode="&#x2d9;" horiz-adv-x="219" 
d="M168 1270q6 40 39 68t72 28q42 0 64.5 -28.5t15.5 -68t-42 -69.5q-22 -21 -52.5 -25t-54.5 6.5t-37.5 35t-4.5 53.5z" />
    <glyph glyph-name="ring" unicode="&#x2da;" horiz-adv-x="501" 
d="M365 1133q-93 0 -143 57.5t-36 144.5q13 86 81 140.5t159 54.5q93 0 142.5 -58t37.5 -145q-13 -86 -80.5 -140t-160.5 -54zM520 1331q8 54 -20 85.5t-84 31.5q-55 0 -95 -32t-47 -85q-11 -51 17.5 -84t83.5 -33t94.5 32.5t50.5 84.5z" />
    <glyph glyph-name="ogonek" unicode="&#x2db;" horiz-adv-x="356" 
d="M41 -432q-76 0 -112.5 47t-24.5 117q21 130 209 268h112q-199 -150 -217 -260q-6 -37 13 -60.5t57 -23.5q44 0 90 18l-16 -88q-40 -18 -111 -18z" />
    <glyph glyph-name="tilde" unicode="&#x2dc;" horiz-adv-x="638" 
d="M252 1194h-90q19 113 69.5 169.5t114 50.5t125.5 -68q155 -155 195 57h90q-27 -167 -125 -209q-94 -40 -185 57q-78 78 -126 64t-68 -121z" />
    <glyph glyph-name="hungarumlaut" unicode="&#x2dd;" horiz-adv-x="649" 
d="M156 1167l184 267h119l-197 -267h-106zM446 1167l205 267h119l-215 -267h-109z" />
    <glyph glyph-name="gravecomb" unicode="&#x300;" horiz-adv-x="0" 
d="M76 1167h-99l-143 260h123z" />
    <glyph glyph-name="acutecomb" unicode="&#x301;" horiz-adv-x="0" 
d="M-211 1167l205 260h127l-230 -260h-102z" />
    <glyph glyph-name="uni0302" unicode="&#x302;" horiz-adv-x="0" 
d="M-102 1427l178 -260h-113l-131 195l-199 -195h-122l266 260h121z" />
    <glyph glyph-name="tildecomb" unicode="&#x303;" horiz-adv-x="0" 
d="M-387 1194h-90q19 113 69.5 169.5t114 50.5t125.5 -68q155 -155 195 57h90q-27 -168 -123 -209q-95 -41 -187 57q-78 78 -126 64t-68 -121z" />
    <glyph glyph-name="uni0304" unicode="&#x304;" horiz-adv-x="0" 
d="M82 1202h-520l16 90h518z" />
    <glyph glyph-name="uni0306" unicode="&#x306;" horiz-adv-x="0" 
d="M-211 1157q-123 0 -187 68t-44 182h98q-27 -160 145 -160q82 0 135.5 42.5t67.5 117.5h98q-20 -118 -102.5 -184t-210.5 -66z" />
    <glyph glyph-name="uni0307" unicode="&#x307;" horiz-adv-x="0" 
d="M-98 1270q6 41 38.5 68.5t71.5 27.5q42 0 65 -28.5t16 -68t-42 -69.5q-22 -21 -52.5 -25t-54.5 6.5t-37.5 35t-4.5 53.5z" />
    <glyph glyph-name="uni0308" unicode="&#x308;" horiz-adv-x="0" 
d="M-426 1255q6 51 56 68q46 16 77 -9q24 -22 17 -59q-6 -31 -32 -52t-57 -21t-49 21t-12 52zM-57 1255q6 50 55 68q44 16 76 -8q26 -21 18 -60q-6 -31 -31.5 -52t-56.5 -21t-49 21t-12 52z" />
    <glyph glyph-name="uni030A" unicode="&#x30a;" horiz-adv-x="0" 
d="M-137 1133q-93 0 -142.5 57.5t-35.5 144.5q13 86 80.5 140.5t158.5 54.5q93 0 142.5 -58t37.5 -145q-13 -86 -80.5 -140t-160.5 -54zM18 1331q7 54 -20.5 85.5t-83.5 31.5q-55 0 -94.5 -32t-46.5 -85q-11 -51 17 -84t83 -33t94.5 32.5t50.5 84.5z" />
    <glyph glyph-name="uni030B" unicode="&#x30b;" horiz-adv-x="0" 
d="M-487 1167l184 267h119l-197 -267h-106zM-197 1167l205 267h119l-215 -267h-109z" />
    <glyph glyph-name="uni030C" unicode="&#x30c;" horiz-adv-x="0" 
d="M-201 1235l197 192h125l-266 -260h-121l-176 260h110z" />
    <glyph glyph-name="uni0312" unicode="&#x312;" horiz-adv-x="0" 
d="M141 1966h74l-82 -348h-104z" />
    <glyph glyph-name="uni0326" unicode="&#x326;" horiz-adv-x="0" 
d="M-268 -492h-74l82 349h104z" />
    <glyph glyph-name="uni0327" unicode="&#x327;" horiz-adv-x="0" 
d="M-317 0l-21 -115q80 -11 125 -55t35 -106q-35 -190 -428 -156l16 84q145 -13 227 8t93 72q7 44 -38 67t-134 21l32 180h93z" />
    <glyph glyph-name="uni0328" unicode="&#x328;" horiz-adv-x="0" 
d="M-315 -432q-76 0 -113 47t-25 117q21 130 209 268h113q-199 -150 -217 -260q-6 -37 12.5 -60.5t56.5 -23.5q45 0 91 18l-17 -88q-40 -18 -110 -18z" />
    <glyph glyph-name="uni0394" unicode="&#x394;" horiz-adv-x="1282" 
d="M745 1434h115l305 -1434h-1228zM784 1300l-667 -1198h917z" />
    <glyph glyph-name="uni03A9" unicode="&#x3a9;" horiz-adv-x="1675" 
d="M1614 702q-35 -195 -157 -353.5t-302 -246.5h328l-19 -102h-557l19 102q211 52 377 224q161 167 202 391q46 265 -104 450t-416 185q-267 0 -481 -187q-213 -184 -260 -448q-41 -222 61 -391q104 -173 299 -224l-18 -102h-555l18 102h334q-149 93 -217 261.5t-33 367.5
q53 308 301 516q250 209 570 209q303 0 483 -223t127 -531z" />
    <glyph glyph-name="pi" unicode="&#x3c0;" horiz-adv-x="1331" 
d="M158 1024h1196l-19 -100h-170l-161 -924h-105l162 924h-639l-162 -924h-104l161 924h-176z" />
    <glyph glyph-name="uni0401" unicode="&#x401;" horiz-adv-x="1091" 
d="M524 1665q6 51 56 68q46 16 77 -9q24 -22 17 -59q-6 -31 -31.5 -52.5t-56.5 -21.5t-49.5 21.5t-12.5 52.5zM893 1665q6 50 55 68q44 16 76 -8q26 -21 18 -60q-6 -31 -31.5 -52.5t-56.5 -21.5t-49 21.5t-12 52.5zM1155 1434l-16 -103h-709l-98 -557h657l-18 -102h-656
l-100 -570h717l-19 -102h-825l252 1434h815z" />
    <glyph glyph-name="uni0402" unicode="&#x402;" horiz-adv-x="1417" 
d="M977 965q181 0 271 -98t61 -279l-52 -285q-61 -344 -395 -317l17 100q118 -13 182.5 39.5t87.5 177.5l49 285q49 278 -229 278q-168 0 -357 -92l-135 -774h-110l233 1331h-407l16 103h997l-16 -103h-479l-78 -448q180 82 344 82z" />
    <glyph glyph-name="uni0403" unicode="&#x403;" horiz-adv-x="1009" 
d="M872 1835h127l-229 -260h-102zM340 1434h784l-16 -103h-678l-233 -1331h-109l234 1331z" />
    <glyph glyph-name="uni0404" unicode="&#x404;" horiz-adv-x="1538" 
d="M977 1352q-262 0 -463 -168q-199 -166 -264 -416h813l-19 -102h-811q-24 -247 121 -418q144 -166 404 -166q173 0 325.5 81t251.5 224l92 -57q-117 -163 -297 -258t-382 -95q-319 0 -496 222q-175 220 -119 532q56 314 297 518q245 207 549 207q202 0 354 -92t226 -254
l-97 -51q-138 293 -485 293z" />
    <glyph glyph-name="uni0405" unicode="&#x405;" horiz-adv-x="1173" 
d="M532 -23q-195 0 -322.5 89t-162.5 249l96 50q25 -133 127 -208t267 -75t272.5 70t132.5 192q14 74 -5.5 127t-78.5 90q-59 41 -106 62q-32 14 -136 55q-58 21 -84 31t-64 28t-77 41q-88 55 -126 134t-21 198q35 169 168 256q140 90 307 90q168 0 278.5 -80.5
t153.5 -218.5l-96 -49q-77 244 -342 244q-133 0 -234 -68.5t-125 -183.5q-14 -73 5.5 -125.5t76.5 -93.5q57 -39 107 -62q6 -3 135 -53q74 -27 117 -45q45 -17 108 -57q65 -41 94 -80q35 -44 51 -111t3 -141q-35 -169 -174.5 -262t-344.5 -93z" />
    <glyph glyph-name="uni0406" unicode="&#x406;" horiz-adv-x="464" 
d="M88 0l252 1434h109l-252 -1434h-109z" />
    <glyph glyph-name="uni0407" unicode="&#x407;" horiz-adv-x="464" 
d="M174 1665q6 51 56 68q46 16 77 -9q24 -22 17 -59q-6 -31 -31.5 -52.5t-56.5 -21.5t-49.5 21.5t-12.5 52.5zM543 1665q6 50 55 68q44 16 76 -8q26 -21 18 -60q-6 -31 -31.5 -52.5t-56.5 -21.5t-49 21.5t-12 52.5zM88 0l252 1434h109l-252 -1434h-109z" />
    <glyph glyph-name="uni0408" unicode="&#x408;" horiz-adv-x="1132" 
d="M438 -23q-155 0 -259 63t-140 183l96 53q56 -194 309 -194q158 0 267 82t135 229l182 1041h109l-183 -1043q-37 -205 -180 -309q-144 -105 -336 -105z" />
    <glyph glyph-name="uni0409" unicode="&#x409;" horiz-adv-x="2039" 
d="M1235 805h344q173 0 276 -121q104 -119 74 -293q-30 -170 -172 -282q-139 -109 -321 -109h-451l236 1331h-621l-129 -725q-61 -350 -188 -489q-125 -137 -336 -119l18 96q147 -15 246 99q101 116 154 415l143 826h838zM1561 702h-344l-105 -600h342q128 0 238 84
q108 86 129 217q21 134 -54 215q-78 84 -206 84z" />
    <glyph glyph-name="uni040A" unicode="&#x40a;" horiz-adv-x="2017" 
d="M1212 805h342q173 0 279 -121q104 -119 74 -293q-30 -170 -172 -282q-142 -109 -324 -109h-450l122 702h-764l-122 -702h-109l252 1434h109l-111 -629h764l110 629h111zM1536 702h-342l-104 -600h340q130 0 237 84q108 86 129 217q21 135 -53 215q-78 84 -207 84z" />
    <glyph glyph-name="uni040B" unicode="&#x40b;" horiz-adv-x="1431" 
d="M977 965q181 0 271 -98t61 -279l-105 -588h-108l102 588q49 278 -229 278q-168 0 -357 -92l-135 -774h-110l233 1331h-407l16 103h997l-16 -103h-479l-78 -448q180 82 344 82z" />
    <glyph glyph-name="uni040C" unicode="&#x40c;" horiz-adv-x="1169" 
d="M893 1835h127l-229 -260h-103zM1147 1434h147l-850 -707l615 -727h-131l-606 715l-125 -715h-109l252 1434h109l-117 -668z" />
    <glyph glyph-name="uni040E" unicode="&#x40e;" horiz-adv-x="1159" 
d="M543 1700h518l-14 -90h-521zM631 504l551 930h112l-659 -1119q-103 -178 -220.5 -252t-271.5 -63l17 96q113 -8 199.5 46.5t164.5 183.5l37 61l-332 1047h107z" />
    <glyph glyph-name="uni040F" unicode="&#x40f;" horiz-adv-x="1378" 
d="M1020 102l233 1332h111l-252 -1434h-459l-49 -274h-108l47 274h-455l252 1434h109l-234 -1332h805z" />
    <glyph glyph-name="uni0410" unicode="&#x410;" horiz-adv-x="1288" 
d="M1167 0h-110l-74 365h-719l-205 -365h-118l809 1434h114zM791 1300l-469 -833h639z" />
    <glyph glyph-name="uni0411" unicode="&#x411;" horiz-adv-x="1200" 
d="M1165 1434l-16 -103h-719l-84 -485h410q165 0 274 -133q108 -132 74 -305q-30 -174 -174 -291q-141 -117 -324 -117h-518l252 1434h825zM737 743h-409l-113 -641h410q130 0 239 95q112 95 133 227q27 137 -51 227q-77 92 -209 92z" />
    <glyph glyph-name="uni0412" unicode="&#x412;" horiz-adv-x="1275" 
d="M1221 1049q-17 -100 -80.5 -183t-157.5 -127q101 -43 151 -139.5t31 -216.5q-24 -158 -153 -272q-129 -111 -310 -111h-614l252 1434h543q162 0 262 -115q100 -112 76 -270zM334 782h463q110 0 202 80q92 83 113 195q21 114 -47 194t-186 80h-449zM825 680h-510
l-100 -578h498q124 0 225 84q97 81 119 205q21 122 -47 205q-69 84 -185 84z" />
    <glyph glyph-name="uni0413" unicode="&#x413;" horiz-adv-x="1009" 
d="M340 1434h784l-16 -103h-678l-233 -1331h-109l234 1331z" />
    <glyph glyph-name="uni0414" unicode="&#x414;" horiz-adv-x="1413" 
d="M1346 1434l-234 -1332h152l-68 -376h-109l48 274h-1078l-49 -274h-108l65 376h115q175 169 237 514l144 818h885zM553 1331l-127 -717q-62 -338 -211 -512h789l217 1229h-668z" />
    <glyph glyph-name="uni0415" unicode="&#x415;" horiz-adv-x="1091" 
d="M1155 1434l-16 -103h-709l-98 -557h657l-18 -102h-656l-100 -570h717l-19 -102h-825l252 1434h815z" />
    <glyph glyph-name="uni0416" unicode="&#x416;" horiz-adv-x="1712" 
d="M1677 1434h140l-760 -709l524 -725h-117l-518 713l-125 -713h-108l125 711l-746 -711h-141l784 750l-510 684h117l504 -670l119 670h108l-119 -672z" />
    <glyph glyph-name="uni0417" unicode="&#x417;" horiz-adv-x="1142" 
d="M1104 1059q-41 -232 -268 -322q115 -44 167.5 -140.5t32.5 -221.5q-33 -183 -175 -290.5t-367 -107.5q-188 0 -300.5 83.5t-150.5 232.5l100 49q32 -129 118.5 -195.5t250.5 -66.5q167 0 279 84.5t137 222.5q23 132 -54 212.5t-231 80.5h-162l17 102h114q149 0 256 84
q106 81 127 209q23 123 -55 201t-227 78q-261 0 -404 -242l-88 57q171 287 510 287q191 0 297 -115q103 -112 76 -282z" />
    <glyph glyph-name="uni0418" unicode="&#x418;" horiz-adv-x="1406" 
d="M182 0h-94l252 1434h109l-216 -1223l1061 1223h97l-252 -1434h-109l215 1223z" />
    <glyph glyph-name="uni0419" unicode="&#x419;" horiz-adv-x="1406" 
d="M1149 1612h-520l16 90h518zM182 0h-94l252 1434h109l-216 -1223l1061 1223h97l-252 -1434h-109l215 1223z" />
    <glyph glyph-name="uni041A" unicode="&#x41a;" horiz-adv-x="1169" 
d="M1147 1434h147l-850 -707l615 -727h-131l-606 715l-125 -715h-109l252 1434h109l-117 -668z" />
    <glyph glyph-name="uni041B" unicode="&#x41b;" horiz-adv-x="1429" 
d="M-53 -2l18 96q147 -15 246 99q101 116 154 415l143 826h907l-252 -1434h-110l235 1331h-688l-129 -725q-61 -353 -190 -491q-126 -135 -334 -117z" />
    <glyph glyph-name="uni041C" unicode="&#x41c;" horiz-adv-x="1652" 
d="M1497 1434h139l-252 -1434h-108l221 1264l-678 -871h-18l-379 889l-225 -1282h-109l252 1434h129l365 -854z" />
    <glyph glyph-name="uni041D" unicode="&#x41d;" horiz-adv-x="1406" 
d="M1169 788l113 646h109l-252 -1434h-109l121 686h-834l-120 -686h-109l252 1434h109l-113 -646h833z" />
    <glyph glyph-name="uni041E" unicode="&#x41e;" horiz-adv-x="1677" 
d="M748 -23q-307 0 -488 224q-179 222 -127 532q53 309 301 514q250 209 563 209q307 0 488 -227q181 -225 129 -535q-56 -308 -303 -512q-245 -205 -563 -205zM766 82q272 0 479 180q211 181 258 449q46 264 -104 452q-151 189 -420 189t-481 -185q-208 -184 -254 -450
q-47 -268 102 -451q150 -184 420 -184z" />
    <glyph glyph-name="uni041F" unicode="&#x41f;" horiz-adv-x="1378" 
d="M340 1434h1024l-252 -1434h-111l234 1331h-805l-233 -1331h-109z" />
    <glyph glyph-name="uni0420" unicode="&#x420;" horiz-adv-x="1200" 
d="M340 1434h477q199 0 305 -127q109 -127 74 -318q-35 -194 -182 -317q-146 -125 -371 -125h-350l-96 -547h-109zM1090 1004q25 146 -53 236.5t-228 90.5h-379l-119 -682h344q172 0 291 101q120 102 144 254z" />
    <glyph glyph-name="uni0421" unicode="&#x421;" horiz-adv-x="1538" 
d="M748 -23q-319 0 -496 222q-175 220 -119 532q56 314 297 518q245 207 549 207q202 0 354 -92t226 -254l-97 -51q-138 293 -485 293q-274 0 -483 -185q-208 -183 -254 -450q-46 -266 100 -453q144 -182 418 -182q173 0 325.5 81t251.5 224l92 -57q-117 -163 -297 -258
t-382 -95z" />
    <glyph glyph-name="uni0422" unicode="&#x422;" horiz-adv-x="1105" 
d="M209 1434h1012l-19 -103h-450l-234 -1331h-110l233 1331h-448z" />
    <glyph glyph-name="uni0423" unicode="&#x423;" horiz-adv-x="1159" 
d="M631 504l551 930h112l-659 -1119q-103 -178 -220.5 -252t-271.5 -63l17 96q113 -8 199.5 46.5t164.5 183.5l37 61l-332 1047h107z" />
    <glyph glyph-name="uni0424" unicode="&#x424;" horiz-adv-x="1650" 
d="M1040 1434l-28 -162q306 -15 477 -164q173 -151 127 -401q-46 -255 -264 -396q-216 -142 -535 -151l-29 -160h-108l29 162q-306 15 -478 162q-171 151 -125 403q46 254 261 395q221 143 536 152l29 160h108zM1507 717q36 208 -101 327t-411 130l-161 -912q271 9 454 127
q178 115 219 328zM725 262l162 909q-280 -11 -458 -128.5t-214 -325.5t100 -326t410 -129z" />
    <glyph glyph-name="uni0425" unicode="&#x425;" horiz-adv-x="1173" 
d="M1133 1434h129l-576 -703l350 -731h-112l-310 645l-528 -645h-129l610 743l-331 691h112l289 -605z" />
    <glyph glyph-name="uni0426" unicode="&#x426;" horiz-adv-x="1413" 
d="M1350 1434l-234 -1332h150l-66 -376h-108l47 274h-1051l252 1434h109l-234 -1332h793l233 1332h109z" />
    <glyph glyph-name="uni0427" unicode="&#x427;" horiz-adv-x="1284" 
d="M1032 709l127 725h109l-252 -1434h-109l105 600q-192 -74 -377 -74q-233 0 -342 110.5t-76 291.5l88 506h109l-88 -506q-25 -143 54.5 -221t266.5 -78t385 80z" />
    <glyph glyph-name="uni0428" unicode="&#x428;" horiz-adv-x="1959" 
d="M1602 102l233 1332h109l-252 -1434h-1604l252 1434h109l-234 -1332h639l233 1332h109l-233 -1332h639z" />
    <glyph glyph-name="uni0429" unicode="&#x429;" horiz-adv-x="2007" 
d="M1944 1434l-234 -1332h150l-68 -376h-109l50 274h-1645l252 1434h109l-234 -1332h639l233 1332h109l-233 -1332h639l233 1332h109z" />
    <glyph glyph-name="uni042A" unicode="&#x42a;" horiz-adv-x="1421" 
d="M795 0h-490l234 1331h-394l17 103h506l-97 -547h371q188 0 299 -135q112 -134 78 -324q-34 -187 -180 -309q-143 -119 -344 -119zM553 784l-119 -682h377q141 0 258 97q112 92 139 245q26 150 -52 245t-230 95h-373z" />
    <glyph glyph-name="uni042B" unicode="&#x42b;" horiz-adv-x="1562" 
d="M575 0h-487l252 1434h109l-97 -547h373q189 0 297 -135q112 -134 78 -324q-34 -187 -180 -309q-143 -119 -345 -119zM1296 0h-110l252 1434h110zM336 784l-121 -682h377q143 0 260 97q112 92 139 245q27 151 -53 246q-82 97 -231 94h-371z" />
    <glyph glyph-name="uni042C" unicode="&#x42c;" horiz-adv-x="1202" 
d="M352 887h373q189 0 297 -135q112 -134 78 -324q-34 -187 -180 -309q-143 -119 -345 -119h-487l252 1434h109zM707 784h-373l-119 -682h377q143 0 260 97q112 92 139 245q27 151 -53 246q-82 97 -231 94z" />
    <glyph glyph-name="uni042D" unicode="&#x42d;" horiz-adv-x="1529" 
d="M864 1456q316 0 486 -221q171 -219 118 -530q-53 -309 -288 -519q-238 -209 -564 -209q-202 0 -351.5 94t-213.5 257l99 53q52 -138 178 -218.5t297 -80.5q261 0 460 166q202 169 263 418h-809l18 102h809q27 254 -115 418q-141 166 -399 166q-176 0 -329 -83.5
t-251 -226.5l-90 58q114 164 295 258q180 98 387 98z" />
    <glyph glyph-name="uni042E" unicode="&#x42e;" horiz-adv-x="2146" 
d="M1466 1456q149 3 278 -60t212.5 -167.5t119.5 -246t7 -288.5q-56 -308 -303 -512q-245 -205 -563 -205q-295 0 -472 207q-176 206 -141 502h-287l-120 -686h-109l252 1434h109l-113 -646h287q71 293 305 478q236 190 538 190zM1974 711q46 262 -106 452
q-151 189 -420 189q-267 0 -479 -185q-210 -186 -256 -450q-47 -265 102 -451q150 -184 420 -184q271 0 481 180q211 181 258 449z" />
    <glyph glyph-name="uni042F" unicode="&#x42f;" horiz-adv-x="1284" 
d="M707 1434h561l-252 -1434h-109l103 588h-387l-504 -588h-133l510 594q-151 27 -236 149q-84 128 -57 283q35 179 174 291q141 117 330 117zM584 690h444l113 641h-451q-134 0 -246 -92q-110 -90 -131 -223q-21 -134 56 -230q78 -96 215 -96z" />
    <glyph glyph-name="uni0430" unicode="&#x430;" horiz-adv-x="1323" 
d="M1108 766l45 258h102l-180 -1024h-102l37 209q-173 -232 -473 -232q-219 0 -351 166q-134 169 -94 392q44 241 211 374q169 138 381 138q147 0 261 -75.5t163 -205.5zM1059 498q34 199 -78 323q-112 127 -291 127q-176 0 -317 -114t-176 -308q-35 -185 73 -317
q109 -133 291 -133q186 0 326 119q142 121 172 303z" />
    <glyph glyph-name="uni0431" unicode="&#x431;" horiz-adv-x="1171" 
d="M514 -25q-212 0 -342 148q-127 148 -86 379q29 172 76 280q95 227 420 373l133 55l125 50q193 82 223 200l80 -47q-40 -113 -152 -180l-104 -55q-48 -23 -135 -56l-129 -51q-162 -69 -244 -145t-129 -203q179 209 448 209q192 0 312 -141q120 -138 82 -347
q-38 -206 -197 -338q-158 -131 -381 -131zM526 78q176 0 303 106q131 110 158 271q27 163 -61 270q-87 106 -256 106q-156 0 -299 -96q-140 -94 -181 -252q-30 -176 64 -290q95 -115 272 -115z" />
    <glyph glyph-name="uni0432" unicode="&#x432;" horiz-adv-x="1036" 
d="M961 745q-27 -159 -170 -221q80 -31 116 -98t19 -154q-21 -126 -114.5 -199t-248.5 -73h-495l180 1024h457q133 0 205 -80t51 -199zM856 750q17 82 -28 128t-142 46h-354l-62 -355h346q99 0 163 47.5t77 133.5zM825 287q17 86 -31.5 134t-148.5 48h-393l-64 -369h392
q100 0 166 50t79 137z" />
    <glyph glyph-name="uni0433" unicode="&#x433;" horiz-adv-x="813" 
d="M248 1024h641l-17 -100h-540l-162 -924h-102l161 924z" />
    <glyph glyph-name="uni0434" unicode="&#x434;" horiz-adv-x="1208" 
d="M1087 1024l-161 -924h141l-66 -374h-104l49 274h-885l-49 -274h-104l67 374h119q138 150 185 412l90 512h718zM227 100h594l144 824h-510l-72 -412q-47 -259 -156 -412z" />
    <glyph glyph-name="uni0435" unicode="&#x435;" horiz-adv-x="1204" 
d="M700 1047q229 0 347 -160q119 -158 75 -379q-6 -34 -12 -49h-924q-12 -173 87 -278t276 -105q254 0 389 188l80 -53q-73 -109 -203.5 -171.5t-279.5 -62.5q-233 0 -359 156q-125 154 -84 393q41 228 211 373q171 148 397 148zM203 559h821q18 182 -73 285.5t-259 103.5
q-179 0 -309 -106q-134 -110 -180 -283z" />
    <glyph glyph-name="uni0436" unicode="&#x436;" horiz-adv-x="1353" 
d="M1251 1024h127l-549 -502l388 -522h-115l-373 506l-90 -506h-104l88 504l-539 -504h-127l580 543l-379 481h118l357 -461l82 461h104l-82 -469z" />
    <glyph glyph-name="uni0437" unicode="&#x437;" horiz-adv-x="913" 
d="M836 748q-30 -166 -183 -226q82 -32 122.5 -104t23.5 -158q-21 -126 -133.5 -204.5t-288.5 -78.5q-159 0 -249.5 64.5t-111.5 177.5l90 49q30 -192 283 -192q128 0 210.5 56t96.5 149q17 85 -35.5 136.5t-156.5 51.5h-139l18 100h100q100 0 167 51.5t81 137.5
q17 85 -42 137.5t-171 52.5q-210 0 -301 -168l-82 51q133 216 393 216q159 0 244 -91t64 -208z" />
    <glyph glyph-name="uni0438" unicode="&#x438;" horiz-adv-x="1161" 
d="M203 186l801 838h90l-181 -1024h-104l147 838l-798 -838h-90l180 1024h102z" />
    <glyph glyph-name="uni0439" unicode="&#x439;" horiz-adv-x="1161" 
d="M961 1202h-521l17 90h518zM203 186l801 838h90l-181 -1024h-104l147 838l-798 -838h-90l180 1024h102z" />
    <glyph glyph-name="uni043A" unicode="&#x43a;" horiz-adv-x="989" 
d="M868 1024h146l-641 -494l479 -530h-127l-465 514l-90 -514h-102l180 1024h102l-80 -459z" />
    <glyph glyph-name="uni043B" unicode="&#x43b;" horiz-adv-x="1146" 
d="M358 1024h721l-180 -1024h-102l161 924h-514l-86 -494q-47 -264 -151 -352q-107 -90 -270 -78l18 96q120 -11 192 67.5t107 266.5z" />
    <glyph glyph-name="uni043C" unicode="&#x43c;" horiz-adv-x="1304" 
d="M1108 1024h129l-180 -1024h-105l152 866l-488 -602h-16l-276 610l-154 -874h-102l180 1024h114l269 -588z" />
    <glyph glyph-name="uni043D" unicode="&#x43d;" horiz-adv-x="1161" 
d="M907 561l82 463h105l-181 -1024h-104l82 463h-639l-82 -463h-102l180 1024h102l-82 -463h639z" />
    <glyph glyph-name="uni043E" unicode="&#x43e;" horiz-adv-x="1253" 
d="M541 -23q-215 0 -355 152q-137 149 -96 393q44 241 227 381q185 144 406 144q215 0 348 -154q133 -151 92 -389q-44 -246 -223 -385q-183 -142 -399 -142zM551 76q180 0 326 119q149 119 184 321q34 193 -74 313q-107 119 -282 119q-181 -3 -328 -121
q-148 -121 -182 -315q-35 -199 71 -317q107 -119 285 -119z" />
    <glyph glyph-name="uni043F" unicode="&#x43f;" horiz-adv-x="1161" 
d="M248 1024h846l-181 -1024h-104l162 924h-639l-162 -924h-102z" />
    <glyph glyph-name="uni0440" unicode="&#x440;" horiz-adv-x="1323" 
d="M786 1047q219 0 351 -166q134 -169 94 -392q-43 -238 -213 -376q-171 -136 -379 -136q-147 0 -261 75.5t-163 205.5l-117 -668h-102l252 1434h102l-37 -209q176 232 473 232zM1126 498q35 185 -73 317q-109 133 -291 133q-186 0 -326 -119q-138 -120 -172 -303
q-35 -200 76 -325q113 -125 293 -125q178 0 317 112q141 114 176 310z" />
    <glyph glyph-name="uni0441" unicode="&#x441;" horiz-adv-x="1150" 
d="M532 -23q-226 0 -354 162q-126 164 -86 389q41 230 215 373q181 146 408 146q147 0 258.5 -71t152.5 -190l-88 -47q-36 99 -121.5 154t-211.5 55q-188 0 -332 -123q-141 -121 -176 -307q-34 -187 67 -315q103 -127 287 -127q122 0 230 58t171 157l82 -55
q-78 -122 -210.5 -190.5t-291.5 -68.5z" />
    <glyph glyph-name="uni0442" unicode="&#x442;" horiz-adv-x="901" 
d="M117 1024h848l-19 -100h-373l-161 -924h-103l162 924h-371z" />
    <glyph glyph-name="uni0443" unicode="&#x443;" horiz-adv-x="1044" 
d="M469 102l522 922h117l-639 -1118q-91 -161 -211 -243.5t-250 -72.5l17 97q192 -18 342 239l34 58l-284 1040h104z" />
    <glyph glyph-name="uni0444" unicode="&#x444;" horiz-adv-x="1376" 
d="M901 1434l-67 -387q236 -15 364 -173q128 -156 88 -372q-41 -223 -215 -365q-177 -145 -426 -160l-67 -387h-103l68 387q-237 15 -365 170q-128 159 -88 375q41 223 215 365q177 145 426 160l68 387h102zM1182 512q35 176 -68 297q-101 122 -299 137l-151 -868
q203 15 344 135q144 120 174 299zM195 512q-30 -181 67 -299q102 -120 299 -135l152 868q-203 -15 -344 -135q-139 -118 -174 -299z" />
    <glyph glyph-name="uni0445" unicode="&#x445;" horiz-adv-x="1038" 
d="M922 1024h133l-471 -502l315 -522h-115l-272 446l-420 -446h-135l504 535l-299 489h117l251 -416z" />
    <glyph glyph-name="uni0446" unicode="&#x446;" horiz-adv-x="1214" 
d="M1073 1024l-164 -924h164l-65 -374h-105l49 274h-884l180 1024h102l-162 -924h619l162 924h104z" />
    <glyph glyph-name="uni0447" unicode="&#x447;" horiz-adv-x="1099" 
d="M836 500l92 524h104l-180 -1024h-104l69 395q-158 -61 -321 -61q-193 0 -285 98t-61 264l57 328h102l-57 -328q-23 -127 41 -195.5t207 -68.5q153 0 336 68z" />
    <glyph glyph-name="uni0448" unicode="&#x448;" horiz-adv-x="1673" 
d="M1339 100l162 924h105l-181 -1024h-1357l180 1024h102l-162 -924h525l161 924h105l-162 -924h522z" />
    <glyph glyph-name="uni0449" unicode="&#x449;" horiz-adv-x="1726" 
d="M1606 1024l-162 -924h141l-65 -374h-105l49 274h-1396l180 1024h102l-162 -924h525l161 924h105l-162 -924h522l162 924h105z" />
    <glyph glyph-name="uni044A" unicode="&#x44a;" horiz-adv-x="1107" 
d="M418 627h303q136 0 219 -95q85 -91 61 -229q-24 -139 -135 -221q-110 -82 -258 -82h-405l162 924h-291l16 100h397zM899 313q17 95 -40 154t-159 59h-301l-73 -426h301q99 0 177 60t95 153z" />
    <glyph glyph-name="uni044B" unicode="&#x44b;" horiz-adv-x="1318" 
d="M281 627h303q138 0 221 -95q85 -91 61 -229q-24 -139 -135 -221q-110 -82 -258 -82h-405l180 1024h102zM969 0l180 1024h102l-180 -1024h-102zM762 313q17 95 -39.5 154t-157.5 59h-303l-74 -426h301q99 0 177.5 60t95.5 153z" />
    <glyph glyph-name="uni044C" unicode="&#x44c;" horiz-adv-x="970" 
d="M281 627h303q138 0 221 -95q85 -91 61 -229q-24 -139 -135 -221q-110 -82 -258 -82h-405l180 1024h102zM762 313q17 95 -39.5 154t-157.5 59h-303l-74 -426h301q99 0 177.5 60t95.5 153z" />
    <glyph glyph-name="uni044D" unicode="&#x44d;" horiz-adv-x="1150" 
d="M618 1047q230 0 355 -162q126 -159 86 -389q-41 -230 -215 -373q-178 -146 -408 -146q-147 0 -258.5 71t-152.5 190l88 47q71 -209 333 -209q178 0 316 108q138 111 184 279h-530l18 98h527q9 170 -89 277q-94 110 -272 110q-122 0 -230 -58t-171 -157l-82 55
q78 122 210 190.5t291 68.5z" />
    <glyph glyph-name="uni044E" unicode="&#x44e;" horiz-adv-x="1644" 
d="M1114 1047q215 0 348 -154q133 -151 92 -389q-44 -246 -223 -385q-180 -142 -399 -142q-202 0 -336 134q-133 136 -115 352h-229l-82 -463h-102l180 1024h102l-82 -463h230q51 220 229 354q179 132 387 132zM1452 516q34 193 -74 313q-107 119 -282 119
q-181 -3 -328 -121q-148 -121 -182 -315q-35 -197 73 -317q107 -119 283 -119q178 0 326 121q150 120 184 319z" />
    <glyph glyph-name="uni044F" unicode="&#x44f;" horiz-adv-x="1024" 
d="M551 1024h405l-180 -1024h-102l69 399h-227l-387 -399h-131l397 403q-117 18 -188 107q-70 88 -49 211q24 137 137 219q116 84 256 84zM459 498h303l74 426h-301q-99 0 -177.5 -60t-95.5 -153q-17 -95 39.5 -154t157.5 -59z" />
    <glyph glyph-name="uni0451" unicode="&#x451;" horiz-adv-x="1204" 
d="M487 1255q6 51 56 68q46 16 77 -9q24 -22 17 -59q-6 -31 -31.5 -52t-56.5 -21t-49.5 21.5t-12.5 51.5zM856 1255q6 51 56 68q46 16 77 -9q24 -22 17 -59q-6 -31 -31.5 -52t-56.5 -21t-49.5 21.5t-12.5 51.5zM700 1047q229 0 347 -160q119 -158 75 -379q-6 -34 -12 -49
h-924q-12 -173 87 -278t276 -105q254 0 389 188l80 -53q-73 -109 -203.5 -171.5t-279.5 -62.5q-233 0 -359 156q-125 154 -84 393q41 228 211 373q171 148 397 148zM203 559h821q18 182 -73 285.5t-259 103.5q-179 0 -309 -106q-134 -110 -180 -283z" />
    <glyph glyph-name="uni0452" unicode="&#x452;" horiz-adv-x="1181" 
d="M739 1047q183 0 274.5 -112t59.5 -298l-133 -754q-58 -342 -395 -315l16 98q234 -24 277 217l131 754q25 144 -39.5 227.5t-208.5 83.5q-154 0 -268.5 -96t-151.5 -274l-102 -578h-105l209 1192h-147l14 86h149l27 156h105l-27 -156h319l-14 -86h-321l-60 -344
q144 199 391 199z" />
    <glyph glyph-name="uni0453" unicode="&#x453;" horiz-adv-x="813" 
d="M664 1427h127l-230 -260h-102zM248 1024h641l-17 -100h-540l-162 -924h-102l161 924z" />
    <glyph glyph-name="uni0454" unicode="&#x454;" horiz-adv-x="1150" 
d="M705 948q-179 0 -316 -110q-135 -106 -182 -277h528l-18 -98h-527q-9 -169 89 -279q102 -108 272 -108q122 0 230 58t171 157l82 -55q-78 -122 -210.5 -190.5t-291.5 -68.5q-226 0 -354 162q-126 164 -86 389q41 230 215 373q181 146 408 146q147 0 258.5 -71t152.5 -190
l-88 -47q-36 99 -121.5 154t-211.5 55z" />
    <glyph glyph-name="uni0455" unicode="&#x455;" horiz-adv-x="966" 
d="M418 -23q-292 0 -365 234l92 47q24 -86 97 -134t184 -48q114 0 192 48.5t95 133.5q13 71 -39.5 120.5t-147.5 78.5q-154 44 -215 76q-160 86 -129 247q21 118 123 191q104 76 250 76q121 0 209.5 -54t126.5 -151l-90 -47q-24 73 -92.5 113t-157.5 40q-99 0 -173 -47.5
t-91 -134.5q-13 -69 38.5 -117.5t145.5 -77.5q154 -43 218 -78q155 -85 126 -251q-20 -123 -127.5 -194t-269.5 -71z" />
    <glyph glyph-name="uni0456" unicode="&#x456;" horiz-adv-x="417" 
d="M342 1272q-35 0 -53.5 23.5t-12.5 58.5q5 33 32 56.5t63 23.5q32 0 52.5 -24t14.5 -56q-6 -36 -33 -59t-63 -23zM170 0h-102l180 1024h102z" />
    <glyph glyph-name="uni0457" unicode="&#x457;" horiz-adv-x="417" 
d="M80 1255q6 50 55 68q44 16 76 -8q26 -21 18 -60q-6 -31 -31.5 -52t-56.5 -21t-49 21t-12 52zM449 1255q6 50 55 68q44 16 76 -8q26 -21 18 -60q-6 -31 -31.5 -52t-56.5 -21t-49 21t-12 52zM170 0h-102l180 1024h102z" />
    <glyph glyph-name="uni0458" unicode="&#x458;" horiz-adv-x="456" 
d="M410 1434q32 0 52.5 -24t14.5 -56q-6 -36 -33 -59t-63 -23q-35 0 -53.5 23.5t-12.5 58.5q5 33 32 56.5t63 23.5zM86 -117l201 1141h102l-201 -1141q-59 -350 -395 -315l17 98q233 -24 276 217z" />
    <glyph glyph-name="uni0459" unicode="&#x459;" horiz-adv-x="1646" 
d="M981 586h289q130 0 211 -84q81 -81 57 -219q-24 -134 -125.5 -208.5t-245.5 -74.5h-391l162 924h-494l-86 -494q-47 -259 -151 -350q-108 -92 -270 -80l18 96q123 -12 193.5 66t105.5 268l104 594h701zM1434 293q17 91 -33.5 141.5t-147.5 50.5h-288l-68 -385h287
q96 0 164.5 51.5t85.5 141.5z" />
    <glyph glyph-name="uni045A" unicode="&#x45a;" horiz-adv-x="1640" 
d="M975 586h289q130 0 211 -84q81 -81 57 -219q-24 -132 -126 -207.5t-245 -75.5h-393l86 485h-598l-86 -485h-102l180 1024h102l-78 -438h598l78 438h105zM1427 293q17 91 -33 141.5t-147 50.5h-289l-67 -385h287q96 0 164 51t85 142z" />
    <glyph glyph-name="uni045B" unicode="&#x45b;" horiz-adv-x="1181" 
d="M739 1047q183 0 274.5 -112t59.5 -298l-112 -637h-103l111 637q25 144 -39.5 227.5t-208.5 83.5q-154 0 -268.5 -96t-151.5 -274l-102 -578h-105l209 1192h-147l14 86h149l27 156h105l-27 -156h319l-14 -86h-321l-60 -344q144 199 391 199z" />
    <glyph glyph-name="uni045C" unicode="&#x45c;" horiz-adv-x="989" 
d="M725 1427h127l-229 -260h-103zM868 1024h146l-641 -494l479 -530h-127l-465 514l-90 -514h-102l180 1024h102l-80 -459z" />
    <glyph glyph-name="uni045E" unicode="&#x45e;" horiz-adv-x="1044" 
d="M367 1292h518l-15 -90h-520zM469 102l522 922h117l-639 -1118q-91 -161 -211 -243.5t-250 -72.5l17 97q192 -18 342 239l34 58l-284 1040h104z" />
    <glyph glyph-name="uni045F" unicode="&#x45f;" horiz-adv-x="1161" 
d="M827 100l162 924h105l-181 -1024h-370l-49 -274h-105l49 274h-370l180 1024h102l-162 -924h639z" />
    <glyph glyph-name="uni0490" unicode="&#x490;" horiz-adv-x="1009" 
d="M1016 1434l45 245h108l-61 -348h-678l-233 -1331h-109l234 1331l18 103h676z" />
    <glyph glyph-name="uni0491" unicode="&#x491;" horiz-adv-x="813" 
d="M784 1024l37 213h105l-54 -313h-540l-162 -924h-102l161 924l19 100h536z" />
    <glyph glyph-name="Wgrave" unicode="&#x1e80;" horiz-adv-x="2033" 
d="M1278 1577h-98l-144 260h123zM393 0h131l631 1292l174 -1292h131l668 1434h-115l-600 -1293l-174 1293h-129l-627 -1293l-145 1293h-109z" />
    <glyph glyph-name="wgrave" unicode="&#x1e81;" horiz-adv-x="1576" 
d="M827 1427l119 -260h-98l-143 260h122zM1057 131l430 893h112l-503 -1024h-113l-131 872l-438 -872h-113l-143 1024h102l117 -893l444 893h107l-2 -4z" />
    <glyph glyph-name="Wacute" unicode="&#x1e82;" horiz-adv-x="2033" 
d="M1120 1577l205 260h127l-229 -260h-103zM393 0h131l631 1292l174 -1292h131l668 1434h-115l-600 -1293l-174 1293h-129l-627 -1293l-145 1293h-109z" />
    <glyph glyph-name="wacute" unicode="&#x1e83;" horiz-adv-x="1576" 
d="M993 1427h127l-229 -260h-103zM1057 131l430 893h112l-503 -1024h-113l-131 872l-438 -872h-113l-143 1024h102l117 -893l444 893h107l-2 -4z" />
    <glyph glyph-name="Wdieresis" unicode="&#x1e84;" horiz-adv-x="2033" 
d="M961 1665q6 50 55 68q44 16 76 -8q26 -21 18 -60q-6 -31 -31.5 -52.5t-56.5 -21.5t-49 21.5t-12 52.5zM1329 1665q6 51 56 68q46 16 77 -9q24 -22 17 -59q-6 -31 -31.5 -52.5t-56.5 -21.5t-49.5 21.5t-12.5 52.5zM524 0h-131l-164 1434h109l145 -1293l627 1293h129
l174 -1293l600 1293h115l-668 -1434h-131l-174 1292z" />
    <glyph glyph-name="wdieresis" unicode="&#x1e85;" horiz-adv-x="1576" 
d="M629 1255q6 50 55 68q44 16 76 -8q26 -21 18 -60q-6 -31 -31.5 -52t-56.5 -21t-49 21t-12 52zM997 1255q6 51 56 68q46 16 77 -9q24 -22 17 -59q-6 -31 -31.5 -52t-56.5 -21t-49.5 21.5t-12.5 51.5zM1057 131l430 893h112l-503 -1024h-113l-131 872l-438 -872h-113
l-143 1024h102l117 -893l444 893h107l-2 -4z" />
    <glyph glyph-name="uni1EA0" unicode="&#x1ea0;" horiz-adv-x="1288" 
d="M471 -338q-33 0 -51 23t-12 57q5 32 30.5 55t61.5 23q31 0 51 -23.5t14 -54.5q-6 -34 -32.5 -57t-61.5 -23zM1167 0h-110l-74 365h-719l-205 -365h-118l809 1434h114zM791 1300l-469 -833h639z" />
    <glyph glyph-name="uni1EA1" unicode="&#x1ea1;" horiz-adv-x="1323" 
d="M489 -338q-33 0 -51 23t-12 57q5 32 30.5 55t61.5 23q31 0 51.5 -24t14.5 -54q-6 -34 -33 -57t-62 -23zM1108 766l45 258h102l-180 -1024h-102l37 209q-173 -232 -473 -232q-219 0 -351 166q-134 169 -94 392q44 241 211 374q169 138 381 138q147 0 261 -75.5t163 -205.5
zM1059 498q34 199 -78 323q-112 127 -291 127q-176 0 -317 -114t-176 -308q-35 -185 73 -317q109 -133 291 -133q186 0 326 119q142 121 172 303z" />
    <glyph glyph-name="uni1EA2" unicode="&#x1ea2;" horiz-adv-x="1288" 
d="M877 1577h-84l2 14q6 37 14.5 55t28.5 31q23 21 41 25q3 6 8 6q19 12 27.5 18t17.5 20.5t12 33.5q10 63 -57 63q-66 0 -113 -71q-6 3 -22 10t-28.5 13t-16.5 9q33 55 84 85t108 30q64 0 103 -34.5t26 -102.5q-13 -88 -96 -129q-30 -11 -39 -25t-14 -45zM1167 0h-110
l-74 365h-719l-205 -365h-118l809 1434h114zM791 1300l-469 -833h639z" />
    <glyph glyph-name="uni1EA3" unicode="&#x1ea3;" horiz-adv-x="1323" 
d="M893 1167h-84l2 15q6 37 14.5 55t28.5 31q23 20 41 24q3 6 8 6q20 12 28 18t17.5 20.5t12.5 33.5q5 29 -9.5 46.5t-48.5 17.5q-65 0 -112 -72q-6 3 -22 10.5t-29 13.5t-17 9q33 55 83.5 84.5t108.5 29.5q64 0 103 -34.5t26 -102.5q-13 -88 -96 -129q-30 -11 -39 -25
t-14 -44zM1108 766l45 258h102l-180 -1024h-102l37 209q-173 -232 -473 -232q-219 0 -351 166q-134 169 -94 392q44 241 211 374q169 138 381 138q147 0 261 -75.5t163 -205.5zM1059 498q34 199 -78 323q-112 127 -291 127q-176 0 -317 -114t-176 -308q-35 -185 73 -317
q109 -133 291 -133q186 0 326 119q142 121 172 303z" />
    <glyph glyph-name="uni1EA4" unicode="&#x1ea4;" horiz-adv-x="1288" 
d="M1167 0h-110l-74 365h-719l-205 -365h-118l809 1434h114zM791 1300l-469 -833h639zM991 1577l-123 180l-184 -180h-115l248 242h113l166 -242h-105zM1059 1747l190 242h119l-213 -242h-96z" />
    <glyph glyph-name="uni1EA5" unicode="&#x1ea5;" horiz-adv-x="1323" 
d="M989 1167l-123 181l-184 -181h-115l248 242h113l166 -242h-105zM1108 766l45 258h102l-180 -1024h-102l37 209q-173 -232 -473 -232q-219 0 -351 166q-134 169 -94 392q44 241 211 374q169 138 381 138q147 0 261 -75.5t163 -205.5zM1059 498q34 199 -78 323
q-112 127 -291 127q-176 0 -317 -114t-176 -308q-35 -185 73 -317q109 -133 291 -133q186 0 326 119q142 121 172 303zM1057 1337l190 242h119l-213 -242h-96z" />
    <glyph glyph-name="uni1EA6" unicode="&#x1ea6;" horiz-adv-x="1288" 
d="M1167 0h-110l-74 365h-719l-205 -365h-118l809 1434h114zM791 1300l-469 -833h639zM991 1577l-123 180l-184 -180h-115l248 242h113l166 -242h-105zM1184 1747h-90l-133 242h112z" />
    <glyph glyph-name="uni1EA7" unicode="&#x1ea7;" horiz-adv-x="1323" 
d="M989 1167l-123 181l-184 -181h-115l248 242h113l166 -242h-105zM1108 766l45 258h102l-180 -1024h-102l37 209q-173 -232 -473 -232q-219 0 -351 166q-134 169 -94 392q44 241 211 374q169 138 381 138q147 0 261 -75.5t163 -205.5zM1059 498q34 199 -78 323
q-112 127 -291 127q-176 0 -317 -114t-176 -308q-35 -185 73 -317q109 -133 291 -133q186 0 326 119q142 121 172 303zM1182 1337h-90l-134 242h113z" />
    <glyph glyph-name="uni1EA8" unicode="&#x1ea8;" horiz-adv-x="1288" 
d="M1167 0h-110l-74 365h-719l-205 -365h-118l809 1434h114zM791 1300l-469 -833h639zM991 1577l-123 180l-184 -180h-115l248 242h113l166 -242h-105zM1133 1747h-78l2 14q6 33 14.5 50t26.5 30q21 19 37 23q3 6 8 6q17 10 25 16t16.5 19t11.5 30q5 27 -8.5 43.5
t-44.5 16.5q-61 0 -105 -68q-9 5 -34.5 17.5t-28.5 13.5q65 106 180 106q60 0 96 -32t23 -95q-10 -81 -90 -118q-27 -11 -35.5 -24t-13.5 -42z" />
    <glyph glyph-name="uni1EA9" unicode="&#x1ea9;" horiz-adv-x="1323" 
d="M989 1167l-123 181l-184 -181h-115l248 242h113l166 -242h-105zM1108 766l45 258h102l-180 -1024h-102l37 209q-173 -232 -473 -232q-219 0 -351 166q-134 169 -94 392q44 241 211 374q169 138 381 138q147 0 261 -75.5t163 -205.5zM1059 498q34 199 -78 323
q-112 127 -291 127q-176 0 -317 -114t-176 -308q-35 -185 73 -317q109 -133 291 -133q186 0 326 119q142 121 172 303zM1130 1337h-77l2 15q6 33 14.5 50t26.5 30q21 18 37 22q3 6 8 6q17 10 25.5 16.5t16.5 19t11 30.5q10 59 -53 59q-62 0 -105 -67q-9 4 -34.5 16t-28.5 14
q66 107 180 107q60 0 96 -32t23 -95q-10 -82 -90 -119q-27 -11 -35.5 -24t-13.5 -42z" />
    <glyph glyph-name="uni1EAA" unicode="&#x1eaa;" horiz-adv-x="1288" 
d="M1167 0h-110l-74 365h-719l-205 -365h-118l809 1434h114zM791 1300l-469 -833h639zM991 1577l-123 180l-184 -180h-115l248 242h113l166 -242h-105zM705 1870h-84q18 105 65 158t106 47t117 -64q144 -144 181 53h84q-24 -154 -117 -194q-86 -38 -170 53
q-145 145 -182 -53z" />
    <glyph glyph-name="uni1EAB" unicode="&#x1eab;" horiz-adv-x="1323" 
d="M989 1167l-123 181l-184 -181h-115l248 242h113l166 -242h-105zM1108 766l45 258h102l-180 -1024h-102l37 209q-173 -232 -473 -232q-219 0 -351 166q-134 169 -94 392q44 241 211 374q169 138 381 138q147 0 261 -75.5t163 -205.5zM1059 498q34 199 -78 323
q-112 127 -291 127q-176 0 -317 -114t-176 -308q-35 -185 73 -317q109 -133 291 -133q186 0 326 119q142 121 172 303zM702 1460h-84q18 105 65 158t106.5 47.5t117.5 -63.5q143 -143 180 53h84q-24 -156 -116 -195q-86 -38 -170 53q-146 146 -183 -53z" />
    <glyph glyph-name="uni1EAC" unicode="&#x1eac;" horiz-adv-x="1288" 
d="M1167 0h-110l-74 365h-719l-205 -365h-118l809 1434h114zM791 1300l-469 -833h639zM991 1577l-123 180l-184 -180h-115l248 242h113l166 -242h-105zM471 -338q-33 0 -51 23t-12 57q5 32 30.5 55t61.5 23q31 0 51 -23.5t14 -54.5q-6 -34 -32.5 -57t-61.5 -23z" />
    <glyph glyph-name="uni1EAD" unicode="&#x1ead;" horiz-adv-x="1323" 
d="M989 1167l-123 181l-184 -181h-115l248 242h113l166 -242h-105zM1108 766l45 258h102l-180 -1024h-102l37 209q-173 -232 -473 -232q-219 0 -351 166q-134 169 -94 392q44 241 211 374q169 138 381 138q147 0 261 -75.5t163 -205.5zM1059 498q34 199 -78 323
q-112 127 -291 127q-176 0 -317 -114t-176 -308q-35 -185 73 -317q109 -133 291 -133q186 0 326 119q142 121 172 303zM489 -338q-33 0 -51 23t-12 57q5 32 30.5 55t61.5 23q31 0 51.5 -24t14.5 -54q-6 -34 -33 -57t-62 -23z" />
    <glyph glyph-name="uni1EAE" unicode="&#x1eae;" horiz-adv-x="1288" 
d="M1167 0h-110l-74 365h-719l-205 -365h-118l809 1434h114zM791 1300l-469 -833h639zM834 1567q-115 0 -176 63.5t-42 169.5h93q-24 -149 135 -149q75 0 125.5 39.5t62.5 109.5h92q-19 -110 -95 -171.5t-195 -61.5zM819 1843l191 242h118l-213 -242h-96z" />
    <glyph glyph-name="uni1EAF" unicode="&#x1eaf;" horiz-adv-x="1323" 
d="M850 1157q-115 0 -175.5 64t-41.5 170h92q-24 -150 135 -150q75 0 126 40t63 110h92q-19 -110 -95.5 -172t-195.5 -62zM1108 766l45 258h102l-180 -1024h-102l37 209q-173 -232 -473 -232q-219 0 -351 166q-134 169 -94 392q44 241 211 374q169 138 381 138
q147 0 261 -75.5t163 -205.5zM1059 498q34 199 -78 323q-112 127 -291 127q-176 0 -317 -114t-176 -308q-35 -185 73 -317q109 -133 291 -133q186 0 326 119q142 121 172 303zM836 1434l190 241h119l-213 -241h-96z" />
    <glyph glyph-name="uni1EB0" unicode="&#x1eb0;" horiz-adv-x="1288" 
d="M1167 0h-110l-74 365h-719l-205 -365h-118l809 1434h114zM791 1300l-469 -833h639zM834 1567q-115 0 -176 63.5t-42 169.5h93q-24 -149 135 -149q75 0 125.5 39.5t62.5 109.5h92q-19 -110 -95 -171.5t-195 -61.5zM928 1843h-90l-133 242h112z" />
    <glyph glyph-name="uni1EB1" unicode="&#x1eb1;" horiz-adv-x="1323" 
d="M850 1157q-115 0 -175.5 64t-41.5 170h92q-24 -150 135 -150q75 0 126 40t63 110h92q-19 -110 -95.5 -172t-195.5 -62zM1108 766l45 258h102l-180 -1024h-102l37 209q-173 -232 -473 -232q-219 0 -351 166q-134 169 -94 392q44 241 211 374q169 138 381 138
q147 0 261 -75.5t163 -205.5zM1059 498q34 199 -78 323q-112 127 -291 127q-176 0 -317 -114t-176 -308q-35 -185 73 -317q109 -133 291 -133q186 0 326 119q142 121 172 303zM944 1434h-90l-133 241h113z" />
    <glyph glyph-name="uni1EB2" unicode="&#x1eb2;" horiz-adv-x="1288" 
d="M1167 0h-110l-74 365h-719l-205 -365h-118l809 1434h114zM791 1300l-469 -833h639zM834 1567q-115 0 -176 63.5t-42 169.5h93q-24 -149 135 -149q75 0 125.5 39.5t62.5 109.5h92q-19 -110 -95 -171.5t-195 -61.5zM918 1843h-78l2 15q6 33 14.5 49.5t26.5 29.5
q21 19 37 23q3 6 8 6q17 10 25.5 16.5t16.5 19t11 30.5q10 59 -53 59q-61 0 -105 -68q-9 5 -34.5 17.5t-28.5 13.5q66 107 180 107q60 0 96 -32t23 -95q-10 -82 -90 -119q-27 -11 -35.5 -24t-13.5 -42z" />
    <glyph glyph-name="uni1EB3" unicode="&#x1eb3;" horiz-adv-x="1323" 
d="M850 1157q-115 0 -175.5 64t-41.5 170h92q-24 -150 135 -150q75 0 126 40t63 110h92q-19 -110 -95.5 -172t-195.5 -62zM1108 766l45 258h102l-180 -1024h-102l37 209q-173 -232 -473 -232q-219 0 -351 166q-134 169 -94 392q44 241 211 374q169 138 381 138
q147 0 261 -75.5t163 -205.5zM1059 498q34 199 -78 323q-112 127 -291 127q-176 0 -317 -114t-176 -308q-35 -185 73 -317q109 -133 291 -133q186 0 326 119q142 121 172 303zM934 1434h-78l2 14q6 33 14.5 50t26.5 30q21 18 37 22q3 6 8 6q17 10 25.5 16.5t16.5 19t11 30.5
q10 59 -53 59q-61 0 -104 -67q-9 4 -35 16.5t-29 14.5q65 106 180 106q60 0 96 -32t23 -95q-10 -82 -90 -119q-27 -11 -35.5 -24t-13.5 -41z" />
    <glyph glyph-name="uni1EB4" unicode="&#x1eb4;" horiz-adv-x="1288" 
d="M1167 0h-110l-74 365h-719l-205 -365h-118l809 1434h114zM791 1300l-469 -833h639zM834 1567q-115 0 -176 63.5t-42 169.5h93q-24 -149 135 -149q75 0 125.5 39.5t62.5 109.5h92q-19 -110 -95 -171.5t-195 -61.5zM698 1849h-84q18 105 65 158t106.5 47.5t117.5 -63.5
q143 -143 180 53h84q-24 -156 -116 -195q-85 -37 -170 54q-145 145 -183 -54z" />
    <glyph glyph-name="uni1EB5" unicode="&#x1eb5;" horiz-adv-x="1323" 
d="M850 1157q-115 0 -175.5 64t-41.5 170h92q-24 -150 135 -150q75 0 126 40t63 110h92q-19 -110 -95.5 -172t-195.5 -62zM1108 766l45 258h102l-180 -1024h-102l37 209q-173 -232 -473 -232q-219 0 -351 166q-134 169 -94 392q44 241 211 374q169 138 381 138
q147 0 261 -75.5t163 -205.5zM1059 498q34 199 -78 323q-112 127 -291 127q-176 0 -317 -114t-176 -308q-35 -185 73 -317q109 -133 291 -133q186 0 326 119q142 121 172 303zM715 1440h-84q13 79 44.5 129.5t71 66t85 2t88.5 -56.5q143 -143 180 53h84q-24 -154 -117 -194
q-86 -38 -170 53q-145 145 -182 -53z" />
    <glyph glyph-name="uni1EB6" unicode="&#x1eb6;" horiz-adv-x="1288" 
d="M1167 0h-110l-74 365h-719l-205 -365h-118l809 1434h114zM791 1300l-469 -833h639zM834 1567q-115 0 -176 63.5t-42 169.5h93q-24 -149 135 -149q75 0 125.5 39.5t62.5 109.5h92q-19 -110 -95 -171.5t-195 -61.5zM471 -338q-33 0 -51 23t-12 57q5 32 30.5 55t61.5 23
q31 0 51 -23.5t14 -54.5q-6 -34 -32.5 -57t-61.5 -23z" />
    <glyph glyph-name="uni1EB7" unicode="&#x1eb7;" horiz-adv-x="1323" 
d="M850 1157q-115 0 -175.5 64t-41.5 170h92q-24 -150 135 -150q75 0 126 40t63 110h92q-19 -110 -95.5 -172t-195.5 -62zM1108 766l45 258h102l-180 -1024h-102l37 209q-173 -232 -473 -232q-219 0 -351 166q-134 169 -94 392q44 241 211 374q169 138 381 138
q147 0 261 -75.5t163 -205.5zM1059 498q34 199 -78 323q-112 127 -291 127q-176 0 -317 -114t-176 -308q-35 -185 73 -317q109 -133 291 -133q186 0 326 119q142 121 172 303zM489 -338q-33 0 -51 23t-12 57q5 32 30.5 55t61.5 23q31 0 51.5 -24t14.5 -54q-6 -34 -33 -57
t-62 -23z" />
    <glyph glyph-name="uni1EB8" unicode="&#x1eb8;" horiz-adv-x="1091" 
d="M432 -338q-33 0 -51 23t-12 57q5 32 30.5 55t61.5 23q31 0 51 -23.5t14 -54.5q-6 -34 -32.5 -57t-61.5 -23zM1155 1434l-16 -103h-709l-98 -557h657l-18 -102h-656l-100 -570h717l-19 -102h-825l252 1434h815z" />
    <glyph glyph-name="uni1EB9" unicode="&#x1eb9;" horiz-adv-x="1204" 
d="M465 -338q-34 0 -52 23t-12 57q5 32 31 55t62 23q31 0 51 -23.5t14 -54.5q-6 -34 -32.5 -57t-61.5 -23zM700 1047q229 0 347 -160q119 -158 75 -379q-6 -34 -12 -49h-924q-12 -173 87 -278t276 -105q254 0 389 188l80 -53q-73 -109 -203.5 -171.5t-279.5 -62.5
q-233 0 -359 156q-125 154 -84 393q41 228 211 373q171 148 397 148zM203 559h821q18 182 -73 285.5t-259 103.5q-179 0 -309 -106q-134 -110 -180 -283z" />
    <glyph glyph-name="uni1EBA" unicode="&#x1eba;" horiz-adv-x="1091" 
d="M825 1577h-84l2 14q6 37 14.5 55t28.5 31q23 21 41 25q3 6 9 6q19 12 27.5 18t17.5 20.5t12 33.5q10 63 -57 63q-66 0 -113 -71q-6 3 -22 10t-29 13t-17 9q33 55 84 85t109 30q64 0 103 -34.5t26 -102.5q-13 -88 -96 -129q-30 -11 -39.5 -25.5t-14.5 -44.5zM1155 1434
l-16 -103h-709l-98 -557h657l-18 -102h-656l-100 -570h717l-19 -102h-825l252 1434h815z" />
    <glyph glyph-name="uni1EBB" unicode="&#x1ebb;" horiz-adv-x="1204" 
d="M793 1167h-84l2 15q6 37 14.5 55t28.5 31q23 20 41 24q3 6 8 6q19 12 27.5 18t17.5 20.5t12 33.5q10 64 -57 64q-66 0 -113 -72q-5 3 -21.5 10.5t-29 13.5t-16.5 9q33 55 83.5 84.5t108.5 29.5q64 0 103 -34.5t26 -102.5q-13 -88 -96 -129q-30 -11 -39 -25t-14 -44z
M700 1047q229 0 347 -160q119 -158 75 -379q-6 -34 -12 -49h-924q-12 -173 87 -278t276 -105q254 0 389 188l80 -53q-73 -109 -203.5 -171.5t-279.5 -62.5q-233 0 -359 156q-125 154 -84 393q41 228 211 373q171 148 397 148zM203 559h821q18 182 -73 285.5t-259 103.5
q-179 0 -309 -106q-134 -110 -180 -283z" />
    <glyph glyph-name="uni1EBC" unicode="&#x1ebc;" horiz-adv-x="1091" 
d="M1155 1434l-16 -103h-709l-98 -557h657l-18 -102h-656l-100 -570h717l-19 -102h-825l252 1434h815zM586 1604h-90q19 112 69.5 169t114 50.5t125.5 -68.5q78 -78 126 -64t68 121h91q-27 -167 -123 -208q-95 -41 -187 57q-78 78 -126 64t-68 -121z" />
    <glyph glyph-name="uni1EBD" unicode="&#x1ebd;" horiz-adv-x="1204" 
d="M700 1047q229 0 347 -160q119 -158 75 -379q-6 -34 -12 -49h-924q-12 -173 87 -278t276 -105q254 0 389 188l80 -53q-73 -109 -203.5 -171.5t-279.5 -62.5q-233 0 -359 156q-125 154 -84 393q41 228 211 373q171 148 397 148zM203 559h821q18 182 -73 285.5t-259 103.5
q-179 0 -309 -106q-134 -110 -180 -283zM549 1194h-90q19 113 69.5 169.5t114 50.5t125.5 -68q155 -155 195 57h90q-27 -168 -123 -209q-95 -41 -187 57q-78 78 -126 64t-68 -121z" />
    <glyph glyph-name="uni1EBE" unicode="&#x1ebe;" horiz-adv-x="1091" 
d="M928 1577l-123 180l-184 -180h-115l248 242h112l166 -242h-104zM1155 1434l-16 -103h-709l-98 -557h657l-18 -102h-656l-100 -570h717l-19 -102h-825l252 1434h815zM995 1747l191 242h119l-213 -242h-97z" />
    <glyph glyph-name="uni1EBF" unicode="&#x1ebf;" horiz-adv-x="1204" 
d="M903 1167l-123 181l-184 -181h-115l248 242h113l166 -242h-105zM700 1047q229 0 347 -160q119 -158 75 -379q-6 -34 -12 -49h-924q-12 -173 87 -278t276 -105q254 0 389 188l80 -53q-73 -109 -203.5 -171.5t-279.5 -62.5q-233 0 -359 156q-125 154 -84 393
q41 228 211 373q171 148 397 148zM203 559h821q18 182 -73 285.5t-259 103.5q-179 0 -309 -106q-134 -110 -180 -283zM971 1337l190 242h119l-213 -242h-96z" />
    <glyph glyph-name="uni1EC0" unicode="&#x1ec0;" horiz-adv-x="1091" 
d="M928 1577l-123 180l-184 -180h-115l248 242h112l166 -242h-104zM1155 1434l-16 -103h-709l-98 -557h657l-18 -102h-656l-100 -570h717l-19 -102h-825l252 1434h815zM1120 1747h-90l-133 242h113z" />
    <glyph glyph-name="uni1EC1" unicode="&#x1ec1;" horiz-adv-x="1204" 
d="M903 1167l-123 181l-184 -181h-115l248 242h113l166 -242h-105zM700 1047q229 0 347 -160q119 -158 75 -379q-6 -34 -12 -49h-924q-12 -173 87 -278t276 -105q254 0 389 188l80 -53q-73 -109 -203.5 -171.5t-279.5 -62.5q-233 0 -359 156q-125 154 -84 393
q41 228 211 373q171 148 397 148zM203 559h821q18 182 -73 285.5t-259 103.5q-179 0 -309 -106q-134 -110 -180 -283zM1096 1337h-90l-134 242h113z" />
    <glyph glyph-name="uni1EC2" unicode="&#x1ec2;" horiz-adv-x="1091" 
d="M928 1577l-123 180l-184 -180h-115l248 242h112l166 -242h-104zM1155 1434l-16 -103h-709l-98 -557h657l-18 -102h-656l-100 -570h717l-19 -102h-825l252 1434h815zM1069 1747h-78l2 14q6 33 14.5 50t26.5 30q21 19 37 23q3 6 8 6q18 10 26 16t16.5 19t11.5 30
q5 27 -9 43.5t-45 16.5q-60 0 -104 -68q-9 4 -35 16.5t-29 14.5q65 106 181 106q60 0 95.5 -32t22.5 -95q-10 -81 -90 -118q-27 -11 -35.5 -24t-13.5 -42z" />
    <glyph glyph-name="uni1EC3" unicode="&#x1ec3;" horiz-adv-x="1204" 
d="M903 1167l-123 181l-184 -181h-115l248 242h113l166 -242h-105zM700 1047q229 0 347 -160q119 -158 75 -379q-6 -34 -12 -49h-924q-12 -173 87 -278t276 -105q254 0 389 188l80 -53q-73 -109 -203.5 -171.5t-279.5 -62.5q-233 0 -359 156q-125 154 -84 393
q41 228 211 373q171 148 397 148zM203 559h821q18 182 -73 285.5t-259 103.5q-179 0 -309 -106q-134 -110 -180 -283zM1044 1337h-77l2 15q6 33 14.5 50t26.5 30q21 18 37 22q3 6 8 6q17 10 25.5 16.5t16.5 19t11 30.5q10 59 -53 59q-62 0 -105 -67q-9 4 -34.5 16t-28.5 14
q66 107 180 107q60 0 96 -32t23 -95q-10 -82 -90 -119q-27 -11 -35.5 -24t-13.5 -42z" />
    <glyph glyph-name="uni1EC4" unicode="&#x1ec4;" horiz-adv-x="1091" 
d="M928 1577l-123 180l-184 -180h-115l248 242h112l166 -242h-104zM1155 1434l-16 -103h-709l-98 -557h657l-18 -102h-656l-100 -570h717l-19 -102h-825l252 1434h815zM641 1870h-84q13 79 44.5 129.5t71 66t85 2t88.5 -56.5q143 -143 180 53h84q-24 -154 -117 -194
q-86 -38 -170 53q-145 145 -182 -53z" />
    <glyph glyph-name="uni1EC5" unicode="&#x1ec5;" horiz-adv-x="1204" 
d="M903 1167l-123 181l-184 -181h-115l248 242h113l166 -242h-105zM700 1047q229 0 347 -160q119 -158 75 -379q-6 -34 -12 -49h-924q-12 -173 87 -278t276 -105q254 0 389 188l80 -53q-73 -109 -203.5 -171.5t-279.5 -62.5q-233 0 -359 156q-125 154 -84 393
q41 228 211 373q171 148 397 148zM203 559h821q18 182 -73 285.5t-259 103.5q-179 0 -309 -106q-134 -110 -180 -283zM616 1460h-84q18 105 65 158t106.5 47.5t117.5 -63.5q143 -143 180 53h84q-24 -156 -116 -195q-86 -38 -170 53q-146 146 -183 -53z" />
    <glyph glyph-name="uni1EC6" unicode="&#x1ec6;" horiz-adv-x="1091" 
d="M928 1577l-123 180l-184 -180h-115l248 242h112l166 -242h-104zM1155 1434l-16 -103h-709l-98 -557h657l-18 -102h-656l-100 -570h717l-19 -102h-825l252 1434h815zM432 -338q-33 0 -51 23t-12 57q5 32 30.5 55t61.5 23q31 0 51 -23.5t14 -54.5q-6 -34 -32.5 -57
t-61.5 -23z" />
    <glyph glyph-name="uni1EC7" unicode="&#x1ec7;" horiz-adv-x="1204" 
d="M903 1167l-123 181l-184 -181h-115l248 242h113l166 -242h-105zM700 1047q229 0 347 -160q119 -158 75 -379q-6 -34 -12 -49h-924q-12 -173 87 -278t276 -105q254 0 389 188l80 -53q-73 -109 -203.5 -171.5t-279.5 -62.5q-233 0 -359 156q-125 154 -84 393
q41 228 211 373q171 148 397 148zM203 559h821q18 182 -73 285.5t-259 103.5q-179 0 -309 -106q-134 -110 -180 -283zM465 -338q-34 0 -52 23t-12 57q5 32 31 55t62 23q31 0 51 -23.5t14 -54.5q-6 -34 -32.5 -57t-61.5 -23z" />
    <glyph glyph-name="uni1EC8" unicode="&#x1ec8;" horiz-adv-x="464" 
d="M463 1577h-84l2 14q6 37 14.5 55t28.5 31q23 21 41 25q3 6 8 6q19 12 27.5 18t17.5 20.5t12 33.5q10 63 -57 63q-66 0 -113 -71q-6 3 -22 10t-28.5 13t-16.5 9q33 55 84 85t108 30q64 0 103 -34.5t26 -102.5q-13 -88 -96 -129q-30 -11 -39 -25t-14 -45zM88 0l252 1434
h109l-252 -1434h-109z" />
    <glyph glyph-name="uni1EC9" unicode="&#x1ec9;" horiz-adv-x="417" 
d="M170 0h-102l180 1024h102zM367 1167h-84l2 15q6 37 14.5 55t28.5 31q23 20 41 24q3 6 8 6q19 12 27.5 18t17.5 20.5t12 33.5q10 64 -57 64q-66 0 -113 -72q-5 3 -21.5 10.5t-29 13.5t-16.5 9q33 55 83.5 84.5t108.5 29.5q64 0 103 -34.5t26 -102.5q-13 -88 -96 -129
q-30 -11 -39 -25t-14 -44z" />
    <glyph glyph-name="uni1ECA" unicode="&#x1eca;" horiz-adv-x="464" 
d="M86 -338q-33 0 -51 23t-12 57q5 32 30.5 55t61.5 23q31 0 51 -23.5t14 -54.5q-6 -34 -32.5 -57t-61.5 -23zM88 0l252 1434h109l-252 -1434h-109z" />
    <glyph glyph-name="uni1ECB" unicode="&#x1ecb;" horiz-adv-x="417" 
d="M66 -338q-34 0 -52 23t-12 57q5 32 30.5 55t61.5 23q31 0 51.5 -24t14.5 -54q-6 -34 -32.5 -57t-61.5 -23zM170 0h-102l180 1024h102zM328 1184q-34 0 -52 23t-12 57q5 32 30.5 54.5t61.5 22.5q31 0 51.5 -23.5t14.5 -53.5q-6 -34 -32.5 -57t-61.5 -23z" />
    <glyph glyph-name="uni1ECC" unicode="&#x1ecc;" horiz-adv-x="1677" 
d="M651 -338q-33 0 -51 23t-12 57q5 32 30.5 55t61.5 23q31 0 51 -23.5t14 -54.5q-6 -34 -32.5 -57t-61.5 -23zM748 -23q-307 0 -488 224q-179 222 -127 532q53 309 301 514q250 209 563 209q307 0 488 -227q181 -225 129 -535q-56 -308 -303 -512q-245 -205 -563 -205z
M766 82q272 0 479 180q211 181 258 449q46 264 -104 452q-151 189 -420 189t-481 -185q-208 -184 -254 -450q-47 -268 102 -451q150 -184 420 -184z" />
    <glyph glyph-name="uni1ECD" unicode="&#x1ecd;" horiz-adv-x="1253" 
d="M451 -338q-34 0 -52 23t-12 57q5 32 30.5 55t61.5 23q31 0 51.5 -24t14.5 -54q-6 -34 -32.5 -57t-61.5 -23zM541 -23q-215 0 -355 152q-137 149 -96 393q44 241 227 381q185 144 406 144q215 0 348 -154q133 -151 92 -389q-44 -246 -223 -385q-183 -142 -399 -142z
M551 76q180 0 326 119q149 119 184 321q34 193 -74 313q-107 119 -282 119q-181 -3 -328 -121q-148 -121 -182 -315q-35 -199 71 -317q107 -119 285 -119z" />
    <glyph glyph-name="uni1ECE" unicode="&#x1ece;" horiz-adv-x="1677" 
d="M1149 1577h-84l2 14q6 37 14.5 55t28.5 31q23 21 41 25q3 6 8 6q20 12 28 18t17.5 20.5t12.5 33.5q10 63 -58 63q-65 0 -112 -71q-6 3 -22 10t-29 13t-17 9q33 55 84 85t108 30q64 0 103 -34.5t26 -102.5q-13 -88 -96 -129q-30 -11 -39 -25t-14 -45zM748 -23
q-307 0 -488 224q-179 222 -127 532q53 309 301 514q250 209 563 209q307 0 488 -227q181 -225 129 -535q-56 -308 -303 -512q-245 -205 -563 -205zM766 82q272 0 479 180q211 181 258 449q46 264 -104 452q-151 189 -420 189t-481 -185q-208 -184 -254 -450
q-47 -268 102 -451q150 -184 420 -184z" />
    <glyph glyph-name="uni1ECF" unicode="&#x1ecf;" horiz-adv-x="1253" 
d="M825 1167h-84l2 15q6 37 14.5 55t28.5 31q23 20 41 24q3 6 9 6q19 12 27.5 18t17.5 20.5t12 33.5q10 64 -57 64q-66 0 -113 -72q-6 3 -22 10.5t-29 13.5t-17 9q33 55 84 84.5t109 29.5q64 0 103 -34.5t26 -102.5q-13 -88 -96 -129q-30 -11 -39.5 -25t-14.5 -44zM541 -23
q-215 0 -355 152q-137 149 -96 393q44 241 227 381q185 144 406 144q215 0 348 -154q133 -151 92 -389q-44 -246 -223 -385q-183 -142 -399 -142zM551 76q180 0 326 119q149 119 184 321q34 193 -74 313q-107 119 -282 119q-181 -3 -328 -121q-148 -121 -182 -315
q-35 -199 71 -317q107 -119 285 -119z" />
    <glyph glyph-name="uni1ED0" unicode="&#x1ed0;" horiz-adv-x="1677" 
d="M997 1456q307 0 488 -227q181 -225 129 -535q-56 -308 -303 -512q-245 -205 -563 -205q-307 0 -488 224q-179 222 -127 532q53 309 301 514q250 209 563 209zM244 717q-47 -268 102 -451q150 -184 420 -184q272 0 479 180q211 181 258 449q46 264 -104 452
q-151 189 -420 189t-481 -185q-208 -184 -254 -450zM1223 1577l-123 180l-185 -180h-114l248 242h112l166 -242h-104zM1290 1747l191 242h118l-213 -242h-96z" />
    <glyph glyph-name="uni1ED1" unicode="&#x1ed1;" horiz-adv-x="1253" 
d="M926 1167l-123 181l-185 -181h-114l248 242h112l166 -242h-104zM723 1047q215 0 348 -154q133 -151 92 -389q-44 -246 -223 -385q-183 -142 -399 -142q-215 0 -355 152q-137 149 -96 393q44 241 227 381q185 144 406 144zM1061 516q34 193 -74 313q-107 119 -282 119
q-181 -3 -328 -121q-148 -121 -182 -315q-35 -199 71 -317q107 -119 285 -119q180 0 326 119q149 119 184 321zM993 1337l191 242h119l-213 -242h-97z" />
    <glyph glyph-name="uni1ED2" unicode="&#x1ed2;" horiz-adv-x="1677" 
d="M997 1456q307 0 488 -227q181 -225 129 -535q-56 -308 -303 -512q-245 -205 -563 -205q-307 0 -488 224q-179 222 -127 532q53 309 301 514q250 209 563 209zM244 717q-47 -268 102 -451q150 -184 420 -184q272 0 479 180q211 181 258 449q46 264 -104 452
q-151 189 -420 189t-481 -185q-208 -184 -254 -450zM1223 1577l-123 180l-185 -180h-114l248 242h112l166 -242h-104zM1415 1747h-90l-133 242h113z" />
    <glyph glyph-name="uni1ED3" unicode="&#x1ed3;" horiz-adv-x="1253" 
d="M926 1167l-123 181l-185 -181h-114l248 242h112l166 -242h-104zM723 1047q215 0 348 -154q133 -151 92 -389q-44 -246 -223 -385q-183 -142 -399 -142q-215 0 -355 152q-137 149 -96 393q44 241 227 381q185 144 406 144zM1061 516q34 193 -74 313q-107 119 -282 119
q-181 -3 -328 -121q-148 -121 -182 -315q-35 -199 71 -317q107 -119 285 -119q180 0 326 119q149 119 184 321zM1118 1337h-90l-133 242h113z" />
    <glyph glyph-name="uni1ED4" unicode="&#x1ed4;" horiz-adv-x="1677" 
d="M997 1456q307 0 488 -227q181 -225 129 -535q-56 -308 -303 -512q-245 -205 -563 -205q-307 0 -488 224q-179 222 -127 532q53 309 301 514q250 209 563 209zM244 717q-47 -268 102 -451q150 -184 420 -184q272 0 479 180q211 181 258 449q46 264 -104 452
q-151 189 -420 189t-481 -185q-208 -184 -254 -450zM1223 1577l-123 180l-185 -180h-114l248 242h112l166 -242h-104zM1364 1747h-78l2 14q6 33 14.5 50t26.5 30q21 19 37 23q3 6 8 6q17 10 25 16t16.5 19t11.5 30q5 27 -8.5 43.5t-44.5 16.5q-60 0 -104 -68q-9 4 -35 16.5
t-29 14.5q65 106 180 106q60 0 96 -32t23 -95q-10 -81 -90 -118q-27 -11 -35.5 -24t-13.5 -42z" />
    <glyph glyph-name="uni1ED5" unicode="&#x1ed5;" horiz-adv-x="1253" 
d="M926 1167l-123 181l-185 -181h-114l248 242h112l166 -242h-104zM723 1047q215 0 348 -154q133 -151 92 -389q-44 -246 -223 -385q-183 -142 -399 -142q-215 0 -355 152q-137 149 -96 393q44 241 227 381q185 144 406 144zM1061 516q34 193 -74 313q-107 119 -282 119
q-181 -3 -328 -121q-148 -121 -182 -315q-35 -199 71 -317q107 -119 285 -119q180 0 326 119q149 119 184 321zM1067 1337h-78l2 15q6 33 14.5 50t26.5 30q21 18 37 22q3 6 8 6q17 10 25.5 16.5t16.5 19t11 30.5q10 59 -53 59q-61 0 -104 -67q-9 5 -35 17t-29 13
q66 107 181 107q60 0 95.5 -32t22.5 -95q-10 -82 -90 -119q-27 -11 -35.5 -24t-13.5 -42z" />
    <glyph glyph-name="uni1ED6" unicode="&#x1ed6;" horiz-adv-x="1677" 
d="M997 1456q307 0 488 -227q181 -225 129 -535q-56 -308 -303 -512q-245 -205 -563 -205q-307 0 -488 224q-179 222 -127 532q53 309 301 514q250 209 563 209zM244 717q-47 -268 102 -451q150 -184 420 -184q272 0 479 180q211 181 258 449q46 264 -104 452
q-151 189 -420 189t-481 -185q-208 -184 -254 -450zM1223 1577l-123 180l-185 -180h-114l248 242h112l166 -242h-104zM936 1870h-84q13 79 44.5 129.5t71 66t85 2t88.5 -56.5q143 -143 180 53h84q-24 -154 -117 -194q-86 -38 -170 53q-145 145 -182 -53z" />
    <glyph glyph-name="uni1ED7" unicode="&#x1ed7;" horiz-adv-x="1253" 
d="M926 1167l-123 181l-185 -181h-114l248 242h112l166 -242h-104zM723 1047q215 0 348 -154q133 -151 92 -389q-44 -246 -223 -385q-183 -142 -399 -142q-215 0 -355 152q-137 149 -96 393q44 241 227 381q185 144 406 144zM1061 516q34 193 -74 313q-107 119 -282 119
q-181 -3 -328 -121q-148 -121 -182 -315q-35 -199 71 -317q107 -119 285 -119q180 0 326 119q149 119 184 321zM639 1460h-84q18 105 65 158t106.5 47.5t117.5 -63.5q143 -143 180 53h84q-24 -156 -117 -195q-86 -38 -170 53q-145 145 -182 -53z" />
    <glyph glyph-name="uni1ED8" unicode="&#x1ed8;" horiz-adv-x="1677" 
d="M1223 1577l-123 180l-185 -180h-114l248 242h112l166 -242h-104zM997 1456q307 0 488 -227q181 -225 129 -535q-56 -308 -303 -512q-245 -205 -563 -205q-307 0 -488 224q-179 222 -127 532q53 309 301 514q250 209 563 209zM244 717q-47 -268 102 -451
q150 -184 420 -184q272 0 479 180q211 181 258 449q46 264 -104 452q-151 189 -420 189t-481 -185q-208 -184 -254 -450zM651 -338q-33 0 -51 23t-12 57q5 32 30.5 55t61.5 23q31 0 51 -23.5t14 -54.5q-6 -34 -32.5 -57t-61.5 -23z" />
    <glyph glyph-name="uni1ED9" unicode="&#x1ed9;" horiz-adv-x="1253" 
d="M926 1167l-123 181l-185 -181h-114l248 242h112l166 -242h-104zM723 1047q215 0 348 -154q133 -151 92 -389q-44 -246 -223 -385q-183 -142 -399 -142q-215 0 -355 152q-137 149 -96 393q44 241 227 381q185 144 406 144zM1061 516q34 193 -74 313q-107 119 -282 119
q-181 -3 -328 -121q-148 -121 -182 -315q-35 -199 71 -317q107 -119 285 -119q180 0 326 119q149 119 184 321zM451 -338q-34 0 -52 23t-12 57q5 32 30.5 55t61.5 23q31 0 51.5 -24t14.5 -54q-6 -34 -32.5 -57t-61.5 -23z" />
    <glyph glyph-name="uni1EDA" unicode="&#x1eda;" horiz-adv-x="1677" 
d="M1006 1577l204 260h127l-229 -260h-102zM748 -23q-307 0 -488 224q-179 222 -127 532q53 309 301 514q250 209 563 209q93 0 183 -22h157q74 0 102.5 31.5t41.5 111.5l2 10h100l-2 -10q-20 -116 -70.5 -171.5t-142.5 -64.5q69 -53 117 -112q181 -225 129 -535
q-56 -308 -303 -512q-245 -205 -563 -205zM766 82q272 0 479 180q211 181 258 449q46 264 -104 452q-151 189 -420 189t-481 -185q-208 -184 -254 -450q-47 -268 102 -451q150 -184 420 -184z" />
    <glyph glyph-name="uni1EDB" unicode="&#x1edb;" horiz-adv-x="1253" 
d="M709 1167l204 260h127l-229 -260h-102zM541 -23q-215 0 -355 152q-137 149 -96 393q44 241 227 381q185 144 406 144q74 0 151 -23h103q74 0 102 31.5t41 111.5l2 11h101l-2 -11q-19 -108 -65 -163.5t-126 -69.5q6 -5 13 -12t15 -15.5t13 -13.5q133 -151 92 -389
q-44 -246 -223 -385q-183 -142 -399 -142zM551 76q180 0 326 119q149 119 184 321q34 193 -74 313q-107 119 -282 119q-181 -3 -328 -121q-148 -121 -182 -315q-35 -199 71 -317q107 -119 285 -119z" />
    <glyph glyph-name="uni1EDC" unicode="&#x1edc;" horiz-adv-x="1677" 
d="M1130 1577h-98l-143 260h123zM748 -23q-307 0 -488 224q-179 222 -127 532q53 309 301 514q250 209 563 209q93 0 183 -22h157q74 0 102.5 31.5t41.5 111.5l2 10h100l-2 -10q-20 -116 -70.5 -171.5t-142.5 -64.5q69 -53 117 -112q181 -225 129 -535q-56 -308 -303 -512
q-245 -205 -563 -205zM766 82q272 0 479 180q211 181 258 449q46 264 -104 452q-151 189 -420 189t-481 -185q-208 -184 -254 -450q-47 -268 102 -451q150 -184 420 -184z" />
    <glyph glyph-name="uni1EDD" unicode="&#x1edd;" horiz-adv-x="1253" 
d="M850 1167h-98l-144 260h123zM541 -23q-215 0 -355 152q-137 149 -96 393q44 241 227 381q185 144 406 144q74 0 151 -23h103q74 0 102 31.5t41 111.5l2 11h101l-2 -11q-19 -108 -65 -163.5t-126 -69.5q6 -5 13 -12t15 -15.5t13 -13.5q133 -151 92 -389
q-44 -246 -223 -385q-183 -142 -399 -142zM551 76q180 0 326 119q149 119 184 321q34 193 -74 313q-107 119 -282 119q-181 -3 -328 -121q-148 -121 -182 -315q-35 -199 71 -317q107 -119 285 -119z" />
    <glyph glyph-name="uni1EDE" unicode="&#x1ede;" horiz-adv-x="1677" 
d="M1149 1577h-84l2 14q6 37 14.5 55t28.5 31q23 21 41 25q3 6 8 6q20 12 28 18t17.5 20.5t12.5 33.5q10 63 -58 63q-65 0 -112 -71q-6 3 -22 10t-29 13t-17 9q33 55 84 85t108 30q64 0 103 -34.5t26 -102.5q-13 -88 -96 -129q-30 -11 -39 -25t-14 -45zM748 -23
q-307 0 -488 224q-179 222 -127 532q53 309 301 514q250 209 563 209q93 0 183 -22h157q74 0 102.5 31.5t41.5 111.5l2 10h100l-2 -10q-20 -116 -70.5 -171.5t-142.5 -64.5q69 -53 117 -112q181 -225 129 -535q-56 -308 -303 -512q-245 -205 -563 -205zM766 82
q272 0 479 180q211 181 258 449q46 264 -104 452q-151 189 -420 189t-481 -185q-208 -184 -254 -450q-47 -268 102 -451q150 -184 420 -184z" />
    <glyph glyph-name="uni1EDF" unicode="&#x1edf;" horiz-adv-x="1253" 
d="M825 1167h-84l2 15q6 37 14.5 55t28.5 31q23 20 41 24q3 6 9 6q19 12 27.5 18t17.5 20.5t12 33.5q10 64 -57 64q-66 0 -113 -72q-6 3 -22 10.5t-29 13.5t-17 9q33 55 84 84.5t109 29.5q64 0 103 -34.5t26 -102.5q-13 -88 -96 -129q-30 -11 -39.5 -25t-14.5 -44zM541 -23
q-215 0 -355 152q-137 149 -96 393q44 241 227 381q185 144 406 144q74 0 151 -23h103q74 0 102 31.5t41 111.5l2 11h101l-2 -11q-19 -108 -65 -163.5t-126 -69.5q6 -5 13 -12t15 -15.5t13 -13.5q133 -151 92 -389q-44 -246 -223 -385q-183 -142 -399 -142zM551 76
q180 0 326 119q149 119 184 321q34 193 -74 313q-107 119 -282 119q-181 -3 -328 -121q-148 -121 -182 -315q-35 -199 71 -317q107 -119 285 -119z" />
    <glyph glyph-name="uni1EE0" unicode="&#x1ee0;" horiz-adv-x="1677" 
d="M897 1604h-90q19 112 69.5 169t114 50.5t125.5 -68.5q155 -155 195 57h90q-26 -166 -125 -208q-93 -40 -184 57q-155 155 -195 -57zM748 -23q-307 0 -488 224q-179 222 -127 532q53 309 301 514q250 209 563 209q93 0 183 -22h157q74 0 102.5 31.5t41.5 111.5l2 10h100
l-2 -10q-20 -116 -70.5 -171.5t-142.5 -64.5q69 -53 117 -112q181 -225 129 -535q-56 -308 -303 -512q-245 -205 -563 -205zM766 82q272 0 479 180q211 181 258 449q46 264 -104 452q-151 189 -420 189t-481 -185q-208 -184 -254 -450q-47 -268 102 -451q150 -184 420 -184z
" />
    <glyph glyph-name="uni1EE1" unicode="&#x1ee1;" horiz-adv-x="1253" 
d="M582 1194h-90q19 113 69.5 169.5t114 50.5t125.5 -68q78 -78 126 -64t68 121h90q-27 -167 -124 -209q-94 -40 -185 57q-78 78 -126 64t-68 -121zM541 -23q-215 0 -355 152q-137 149 -96 393q44 241 227 381q185 144 406 144q74 0 151 -23h103q74 0 102 31.5t41 111.5
l2 11h101l-2 -11q-19 -108 -65 -163.5t-126 -69.5q6 -5 13 -12t15 -15.5t13 -13.5q133 -151 92 -389q-44 -246 -223 -385q-183 -142 -399 -142zM551 76q180 0 326 119q149 119 184 321q34 193 -74 313q-107 119 -282 119q-181 -3 -328 -121q-148 -121 -182 -315
q-35 -199 71 -317q107 -119 285 -119z" />
    <glyph glyph-name="uni1EE2" unicode="&#x1ee2;" horiz-adv-x="1677" 
d="M651 -338q-33 0 -51 23t-12 57q5 32 30.5 55t61.5 23q31 0 51 -23.5t14 -54.5q-6 -34 -32.5 -57t-61.5 -23zM748 -23q-307 0 -488 224q-179 222 -127 532q53 309 301 514q250 209 563 209q93 0 183 -22h157q74 0 102.5 31.5t41.5 111.5l2 10h100l-2 -10
q-20 -116 -70.5 -171.5t-142.5 -64.5q69 -53 117 -112q181 -225 129 -535q-56 -308 -303 -512q-245 -205 -563 -205zM766 82q272 0 479 180q211 181 258 449q46 264 -104 452q-151 189 -420 189t-481 -185q-208 -184 -254 -450q-47 -268 102 -451q150 -184 420 -184z" />
    <glyph glyph-name="uni1EE3" unicode="&#x1ee3;" horiz-adv-x="1253" 
d="M451 -338q-34 0 -52 23t-12 57q5 32 30.5 55t61.5 23q31 0 51.5 -24t14.5 -54q-6 -34 -32.5 -57t-61.5 -23zM541 -23q-215 0 -355 152q-137 149 -96 393q44 241 227 381q185 144 406 144q74 0 151 -23h103q74 0 102 31.5t41 111.5l2 11h101l-2 -11q-19 -108 -65 -163.5
t-126 -69.5q6 -5 13 -12t15 -15.5t13 -13.5q133 -151 92 -389q-44 -246 -223 -385q-183 -142 -399 -142zM551 76q180 0 326 119q149 119 184 321q34 193 -74 313q-107 119 -282 119q-181 -3 -328 -121q-148 -121 -182 -315q-35 -199 71 -317q107 -119 285 -119z" />
    <glyph glyph-name="uni1EE4" unicode="&#x1ee4;" horiz-adv-x="1366" 
d="M500 -338q-34 0 -52 23t-12 57q5 32 30.5 55t61.5 23q31 0 51.5 -24t14.5 -54q-6 -34 -32.5 -57t-61.5 -23zM606 -23q-238 0 -366 140q-128 143 -88 362l167 955h109l-168 -955q-31 -181 59.5 -289t284.5 -108q201 0 330 111q131 116 160 286l168 955h108l-168 -955
q-41 -232 -203 -366q-165 -136 -393 -136z" />
    <glyph glyph-name="uni1EE5" unicode="&#x1ee5;" 
d="M391 -338q-33 0 -51 23t-12 57q5 32 30.5 55t61.5 23q31 0 51 -23.5t14 -54.5q-6 -34 -32.5 -57t-61.5 -23zM889 481l96 543h102l-180 -1024h-102l31 178q-145 -201 -394 -201q-183 0 -273.5 112t-59.5 298l112 637h105l-113 -637q-25 -144 39.5 -227.5t208.5 -83.5
q162 0 277.5 106.5t150.5 300.5v-2z" />
    <glyph glyph-name="uni1EE6" unicode="&#x1ee6;" horiz-adv-x="1366" 
d="M926 1577h-84l2 14q6 37 14.5 55t28.5 31q23 21 41 25q3 6 8 6q19 12 27.5 18t17.5 20.5t12 33.5q10 63 -57 63q-66 0 -113 -71q-6 3 -22 10t-28.5 13t-16.5 9q33 55 84 85t108 30q64 0 103 -34.5t26 -102.5q-13 -88 -96 -129q-30 -11 -39 -25t-14 -45zM606 -23
q-238 0 -366 140q-128 143 -88 362l167 955h109l-168 -955q-31 -181 59.5 -289t284.5 -108q201 0 330 111q131 116 160 286l168 955h108l-168 -955q-41 -232 -203 -366q-165 -136 -393 -136z" />
    <glyph glyph-name="uni1EE7" unicode="&#x1ee7;" 
d="M737 1167h-84l2 15q6 37 14.5 55t28.5 31q23 20 41 24q3 6 9 6q19 12 27.5 18t17.5 20.5t12 33.5q10 64 -57 64q-66 0 -113 -72q-6 3 -22 10.5t-29 13.5t-17 9q33 55 84 84.5t109 29.5q64 0 103 -34.5t26 -102.5q-13 -88 -96 -129q-30 -11 -39.5 -25t-14.5 -44zM889 481
l96 543h102l-180 -1024h-102l31 178q-145 -201 -394 -201q-183 0 -273.5 112t-59.5 298l112 637h105l-113 -637q-25 -144 39.5 -227.5t208.5 -83.5q162 0 277.5 106.5t150.5 300.5v-2z" />
    <glyph glyph-name="uni1EE8" unicode="&#x1ee8;" horiz-adv-x="1366" 
d="M780 1577l205 260h127l-229 -260h-103zM606 -23q-238 0 -366 140q-128 143 -88 362l167 955h109l-168 -955q-31 -181 59.5 -289t284.5 -108q201 0 330 111q131 116 160 286l168 955h63q65 3 90.5 34.5t38.5 108.5l2 10h100l-2 -10q-19 -112 -67 -168t-133 -68l-152 -862
q-41 -232 -203 -366q-165 -136 -393 -136z" />
    <glyph glyph-name="uni1EE9" unicode="&#x1ee9;" 
d="M831 1427h127l-229 -260h-102zM889 481l96 543h57q74 0 102.5 31.5t41.5 111.5l2 11h100l-2 -11q-20 -117 -71 -172t-144 -63l-164 -932h-102l31 178q-145 -201 -394 -201q-183 0 -273.5 112t-59.5 298l112 637h105l-113 -637q-25 -144 39.5 -227.5t208.5 -83.5
q162 0 277.5 106.5t150.5 300.5v-2z" />
    <glyph glyph-name="uni1EEA" unicode="&#x1eea;" horiz-adv-x="1366" 
d="M938 1577h-98l-144 260h123zM606 -23q-238 0 -366 140q-128 143 -88 362l167 955h109l-168 -955q-31 -181 59.5 -289t284.5 -108q201 0 330 111q131 116 160 286l168 955h63q65 3 90.5 34.5t38.5 108.5l2 10h100l-2 -10q-19 -112 -67 -168t-133 -68l-152 -862
q-41 -232 -203 -366q-165 -136 -393 -136z" />
    <glyph glyph-name="uni1EEB" unicode="&#x1eeb;" 
d="M631 1427l119 -260h-99l-143 260h123zM889 481l96 543h57q74 0 102.5 31.5t41.5 111.5l2 11h100l-2 -11q-20 -117 -71 -172t-144 -63l-164 -932h-102l31 178q-145 -201 -394 -201q-183 0 -273.5 112t-59.5 298l112 637h105l-113 -637q-25 -144 39.5 -227.5t208.5 -83.5
q162 0 277.5 106.5t150.5 300.5v-2z" />
    <glyph glyph-name="uni1EEC" unicode="&#x1eec;" horiz-adv-x="1366" 
d="M926 1577h-84l2 14q6 37 14.5 55t28.5 31q23 21 41 25q3 6 8 6q19 12 27.5 18t17.5 20.5t12 33.5q10 63 -57 63q-66 0 -113 -71q-6 3 -22 10t-28.5 13t-16.5 9q33 55 84 85t108 30q64 0 103 -34.5t26 -102.5q-13 -88 -96 -129q-30 -11 -39 -25t-14 -45zM606 -23
q-238 0 -366 140q-128 143 -88 362l167 955h109l-168 -955q-31 -181 59.5 -289t284.5 -108q201 0 330 111q131 116 160 286l168 955h63q65 3 90.5 34.5t38.5 108.5l2 10h100l-2 -10q-19 -112 -67 -168t-133 -68l-152 -862q-41 -232 -203 -366q-165 -136 -393 -136z" />
    <glyph glyph-name="uni1EED" unicode="&#x1eed;" 
d="M737 1167h-84l2 15q6 37 14.5 55t28.5 31q23 20 41 24q3 6 9 6q19 12 27.5 18t17.5 20.5t12 33.5q10 64 -57 64q-66 0 -113 -72q-6 3 -22 10.5t-29 13.5t-17 9q33 55 84 84.5t109 29.5q64 0 103 -34.5t26 -102.5q-13 -88 -96 -129q-30 -11 -39.5 -25t-14.5 -44zM889 481
l96 543h57q74 0 102.5 31.5t41.5 111.5l2 11h100l-2 -11q-20 -117 -71 -172t-144 -63l-164 -932h-102l31 178q-145 -201 -394 -201q-183 0 -273.5 112t-59.5 298l112 637h105l-113 -637q-25 -144 39.5 -227.5t208.5 -83.5q162 0 277.5 106.5t150.5 300.5v-2z" />
    <glyph glyph-name="uni1EEE" unicode="&#x1eee;" horiz-adv-x="1366" 
d="M606 -23q-238 0 -366 140q-128 143 -88 362l167 955h109l-168 -955q-31 -181 59.5 -289t284.5 -108q201 0 330 111q131 116 160 286l168 955h63q65 3 90.5 34.5t38.5 108.5l2 10h100l-2 -10q-19 -112 -67 -168t-133 -68l-152 -862q-41 -232 -203 -366
q-165 -136 -393 -136zM682 1604h-90q19 112 69.5 169t114 50.5t125.5 -68.5q155 -155 195 57h90q-27 -167 -123 -208q-95 -41 -186 57q-155 155 -195 -57z" />
    <glyph glyph-name="uni1EEF" unicode="&#x1eef;" 
d="M889 481l96 543h57q74 0 102.5 31.5t41.5 111.5l2 11h100l-2 -11q-20 -117 -71 -172t-144 -63l-164 -932h-102l31 178q-145 -201 -394 -201q-183 0 -273.5 112t-59.5 298l112 637h105l-113 -637q-25 -144 39.5 -227.5t208.5 -83.5q162 0 277.5 106.5t150.5 300.5v-2z
M494 1194h-91q19 112 69.5 169t114.5 51t126 -68q78 -78 126 -64t68 121h90q-27 -168 -123 -209q-95 -41 -186 57q-78 78 -126 64t-68 -121z" />
    <glyph glyph-name="uni1EF0" unicode="&#x1ef0;" horiz-adv-x="1366" 
d="M500 -338q-34 0 -52 23t-12 57q5 32 30.5 55t61.5 23q31 0 51.5 -24t14.5 -54q-6 -34 -32.5 -57t-61.5 -23zM606 -23q-238 0 -366 140q-128 143 -88 362l167 955h109l-168 -955q-31 -181 59.5 -289t284.5 -108q201 0 330 111q131 116 160 286l168 955h63q65 3 90.5 34.5
t38.5 108.5l2 10h100l-2 -10q-19 -112 -67 -168t-133 -68l-152 -862q-41 -232 -203 -366q-165 -136 -393 -136z" />
    <glyph glyph-name="uni1EF1" unicode="&#x1ef1;" 
d="M391 -338q-33 0 -51 23t-12 57q5 32 30.5 55t61.5 23q31 0 51 -23.5t14 -54.5q-6 -34 -32.5 -57t-61.5 -23zM889 481l96 543h57q74 0 102.5 31.5t41.5 111.5l2 11h100l-2 -11q-20 -117 -71 -172t-144 -63l-164 -932h-102l31 178q-145 -201 -394 -201q-183 0 -273.5 112
t-59.5 298l112 637h105l-113 -637q-25 -144 39.5 -227.5t208.5 -83.5q162 0 277.5 106.5t150.5 300.5v-2z" />
    <glyph glyph-name="Ygrave" unicode="&#x1ef2;" horiz-adv-x="1167" 
d="M721 1837l119 -260h-99l-143 260h123zM1174 1434h129l-637 -764l-119 -670h-109l119 674l-369 760h113l320 -664z" />
    <glyph glyph-name="ygrave" unicode="&#x1ef3;" horiz-adv-x="1044" 
d="M559 1427l119 -260h-98l-144 260h123zM469 102l522 922h117l-639 -1118q-91 -161 -211 -243.5t-250 -72.5l17 97q192 -18 342 239l34 58l-284 1040h104z" />
    <glyph glyph-name="uni1EF4" unicode="&#x1ef4;" horiz-adv-x="1167" 
d="M434 -338q-33 0 -51 23t-12 57q5 32 30.5 55t61.5 23q31 0 51 -23.5t14 -54.5q-6 -34 -32.5 -57t-61.5 -23zM1174 1434h129l-637 -764l-119 -670h-109l119 674l-369 760h113l320 -664z" />
    <glyph glyph-name="uni1EF5" unicode="&#x1ef5;" horiz-adv-x="1044" 
d="M604 -338q-33 0 -51 23t-12 57q5 32 30.5 55t61.5 23q31 0 51 -23.5t14 -54.5q-6 -34 -32.5 -57t-61.5 -23zM469 102l522 922h117l-639 -1118q-91 -161 -211 -243.5t-250 -72.5l17 97q192 -18 342 239l34 58l-284 1040h104z" />
    <glyph glyph-name="uni1EF6" unicode="&#x1ef6;" horiz-adv-x="1167" 
d="M801 1577h-84l2 14q6 37 14.5 55t28.5 31q23 21 41 25q3 6 8 6q19 12 27.5 18t17.5 20.5t12 33.5q10 63 -57 63q-66 0 -113 -71q-6 3 -22 10t-28.5 13t-16.5 9q33 55 84 85t108 30q64 0 103 -34.5t26 -102.5q-13 -88 -96 -129q-30 -11 -39 -25t-14 -45zM1174 1434h129
l-637 -764l-119 -670h-109l119 674l-369 760h113l320 -664z" />
    <glyph glyph-name="uni1EF7" unicode="&#x1ef7;" horiz-adv-x="1044" 
d="M668 1167h-84l2 15q6 37 14.5 55t28.5 31q23 20 41 24q3 6 8 6q19 12 27.5 18t17.5 20.5t12 33.5q10 64 -57 64q-66 0 -113 -72q-5 3 -21.5 10.5t-29 13.5t-16.5 9q33 55 83.5 84.5t108.5 29.5q64 0 103 -34.5t26 -102.5q-13 -88 -96 -129q-30 -11 -39 -25t-14 -44z
M469 102l522 922h117l-639 -1118q-91 -161 -211 -243.5t-250 -72.5l17 97q192 -18 342 239l34 58l-284 1040h104z" />
    <glyph glyph-name="uni1EF8" unicode="&#x1ef8;" horiz-adv-x="1167" 
d="M1174 1434h129l-637 -764l-119 -670h-109l119 674l-369 760h113l320 -664zM584 1604h-90q19 112 69.5 169t114 50.5t125.5 -68.5q78 -78 126 -64t68 121h90q-27 -167 -122 -208t-187 57q-78 78 -126 64t-68 -121z" />
    <glyph glyph-name="uni1EF9" unicode="&#x1ef9;" horiz-adv-x="1044" 
d="M469 102l522 922h117l-639 -1118q-91 -161 -211 -243.5t-250 -72.5l17 97q192 -18 342 239l34 58l-284 1040h104zM422 1194h-90q19 113 69.5 169.5t114 50.5t125.5 -68q155 -155 195 57h90q-27 -168 -123 -209q-95 -41 -187 57q-78 78 -126 64t-68 -121z" />
    <glyph glyph-name="endash" unicode="&#x2013;" horiz-adv-x="1361" 
d="M1198 584h-1008l17 98h1007z" />
    <glyph glyph-name="emdash" unicode="&#x2014;" horiz-adv-x="1566" 
d="M1403 584h-1213l17 98h1212z" />
    <glyph glyph-name="quoteleft" unicode="&#x2018;" horiz-adv-x="458" 
d="M342 1008h-129l186 426h95z" />
    <glyph glyph-name="quoteright" unicode="&#x2019;" horiz-adv-x="458" 
d="M367 1434h129l-187 -426h-94z" />
    <glyph glyph-name="quotesinglbase" unicode="&#x201a;" horiz-adv-x="456" 
d="M137 139h129l-186 -426h-94z" />
    <glyph glyph-name="quotedblleft" unicode="&#x201c;" horiz-adv-x="718" 
d="M342 1008h-129l186 426h95zM602 1008h-129l186 426h95z" />
    <glyph glyph-name="quotedblright" unicode="&#x201d;" horiz-adv-x="718" 
d="M367 1434h129l-187 -426h-94zM627 1434h129l-187 -426h-94z" />
    <glyph glyph-name="quotedblbase" unicode="&#x201e;" horiz-adv-x="716" 
d="M137 139h129l-186 -426h-94zM397 139h129l-186 -426h-94z" />
    <glyph glyph-name="dagger" unicode="&#x2020;" horiz-adv-x="968" 
d="M637 1079h303l-18 -98h-304l-172 -981h-104l172 981h-301l16 98h303l62 355h104z" />
    <glyph glyph-name="daggerdbl" unicode="&#x2021;" horiz-adv-x="968" 
d="M940 1079l-18 -98h-304l-92 -528h303l-18 -99h-303l-62 -354h-104l61 354h-301l17 99h303l92 528h-301l16 98h303l62 355h104l-61 -355h303z" />
    <glyph glyph-name="bullet" unicode="&#x2022;" horiz-adv-x="573" 
d="M293 539q-73 0 -116.5 56t-29.5 130q13 73 73.5 121.5t135.5 48.5q72 0 115 -55t29 -127q-13 -75 -72.5 -124.5t-134.5 -49.5z" />
    <glyph glyph-name="ellipsis" unicode="&#x2026;" horiz-adv-x="1214" 
d="M125 -20q-56 -3 -71 48q-15 49 16 94q31 47 86 42q38 0 61 -28t16 -66q-8 -41 -36.5 -65.5t-71.5 -24.5zM514 -20q-56 -3 -71 48q-15 49 16 94q31 47 86 42q38 0 61.5 -28t16.5 -66q-8 -41 -37 -65.5t-72 -24.5zM903 -20q-56 -3 -71 48q-15 49 16 94q31 47 86 42
q38 0 61.5 -28t16.5 -66q-8 -41 -37 -65.5t-72 -24.5z" />
    <glyph glyph-name="perthousand" unicode="&#x2030;" horiz-adv-x="2203" 
d="M504 846q-129 0 -207 90q-74 89 -53 221q21 129 125 213q106 86 241 86q133 0 207 -92q75 -86 53 -219q-21 -128 -125 -215q-104 -84 -241 -84zM377 999q53 -59 143 -59q91 0 162 59q73 64 88 152q16 93 -35 149q-50 62 -141 62q-93 0 -164 -62q-71 -59 -86 -149
q-16 -92 33 -152zM215 143l-70 41l1166 1096l71 -41zM930 -23q-128 0 -207 91q-74 89 -53 221q21 129 125 213q106 86 241 86q133 0 207 -92q75 -86 53 -220q-21 -129 -127 -215q-104 -84 -239 -84zM1667 -23q-128 0 -207 91q-74 89 -53 221q21 129 125 213q106 86 242 86
q132 0 206 -92q76 -87 54 -220q-21 -129 -127 -215q-104 -84 -240 -84zM770 283q-14 -91 35 -151t141 -60t162.5 60t87.5 151t-33.5 151t-142.5 60t-162.5 -60t-87.5 -151zM1507 283q-14 -91 35 -151t141 -60t162.5 60t87.5 151t-33.5 151t-142.5 60t-162.5 -60t-87.5 -151z
" />
    <glyph glyph-name="guilsinglleft" unicode="&#x2039;" horiz-adv-x="681" 
d="M467 987h135l-289 -362l154 -346h-125l-158 354z" />
    <glyph glyph-name="guilsinglright" unicode="&#x203a;" horiz-adv-x="684" 
d="M258 987h125l158 -354l-283 -354h-135l289 362z" />
    <glyph glyph-name="fraction" unicode="&#x2044;" horiz-adv-x="464" 
d="M858 1434l-1075 -1434h-105l1076 1434h104z" />
    <glyph glyph-name="Euro" unicode="&#x20ac;" horiz-adv-x="1234" 
d="M889 1352q-167 0 -295.5 -118.5t-200.5 -338.5h549l-16 -90h-557l-19 -88q-4 -22 -7 -49l-3 -27h557l-16 -92h-549q-11 -223 76.5 -345t257.5 -122q236 0 374 225l88 -53q-173 -277 -481 -277q-208 0 -323 154q-112 153 -103 418h-166l15 92h159q2 35 13 86q2 24 16 78
h-158l15 90h166q83 267 245 414t381 147q140 0 239 -71.5t142 -202.5l-98 -49q-65 219 -301 219z" />
    <glyph glyph-name="uni20BD" unicode="&#x20bd;" horiz-adv-x="1181" 
d="M373 1434h491q171 0 275 -131q108 -128 73 -304q-26 -171 -172 -292q-143 -119 -323 -119h-383l-37 -213h547l-17 -90h-546l-50 -285h-110l49 285h-182l16 90h182l37 213h-182l18 102h183zM1104 1010q24 134 -51 227q-76 94 -205 94h-383l-113 -641h383q129 0 238 92
q110 96 131 228z" />
    <glyph glyph-name="uni2116" unicode="&#x2116;" horiz-adv-x="2088" 
d="M1753 856q-126 0 -201 90q-72 90 -51 217t123 209q104 84 236 84q129 0 200 -92q72 -87 51 -215q-20 -129 -118.5 -211t-239.5 -82zM197 0h-109l252 1434h86l639 -1233l217 1233h109l-252 -1434h-88l-637 1233zM1772 950q88 0 156.5 59.5t82.5 145.5q17 88 -31.5 147.5
t-136.5 59.5q-89 0 -156 -59t-85 -148q-14 -89 32.5 -147t137.5 -58zM1991 594h-568l19 100h565z" />
    <glyph glyph-name="trademark" unicode="&#x2122;" horiz-adv-x="980" 
d="M573 1434l-10 -64h-119l-61 -346h-70l62 346h-121l12 64h307zM965 1434h75l-71 -410h-68l51 295l-174 -217h-8l-92 215l-51 -293h-70l72 410h69l90 -224z" />
    <glyph glyph-name="estimated" unicode="&#x212e;" horiz-adv-x="1705" 
d="M1020 1454q330 0 506 -215q178 -211 123 -522q-6 -31 -37 -31h-1147q-31 0 -37 -31l-68 -393q-6 -22 7 -39q141 -182 446 -182q295 0 512 199q18 18 39 18h72q20 0 24.5 -13t-12.5 -26q-266 -239 -647 -239q-354 0 -539 221q-182 221 -127 536q56 311 299 514
q247 203 586 203zM1352 778l71 398q3 20 -8 38q-138 179 -405 179q-262 0 -469 -183q-18 -18 -21 -39l-69 -393q-6 -30 24 -30h840q31 0 37 30z" />
    <glyph glyph-name="oneeighth" unicode="&#x215b;" horiz-adv-x="1669" 
d="M276 614l125 703l-217 -66l-10 90l266 93h80l-145 -820h-99zM182 0l1075 1434h105l-1075 -1434h-105zM1599 606q-21 -120 -149 -178q133 -74 106 -221q-20 -108 -109 -170t-220 -62q-126 0 -197.5 69t-52.5 177q27 151 184 213q-109 71 -88 187q18 103 103.5 163
t201.5 60q107 0 173 -67.5t48 -170.5zM1501 614q12 63 -26.5 100.5t-112.5 37.5q-75 0 -127 -37.5t-64 -100.5q-10 -63 30 -101t114 -38q72 0 124 38t62 101zM1296 381q-88 0 -147.5 -42t-71.5 -114t32 -113.5t134 -41.5q88 0 146.5 41.5t70.5 113.5q12 71 -33.5 113.5
t-130.5 42.5z" />
    <glyph glyph-name="threeeighths" unicode="&#x215c;" horiz-adv-x="1882" 
d="M688 842q-20 -116 -110 -184t-224 -68q-196 0 -254 166l86 43q38 -115 183 -115q92 0 150.5 45.5t70.5 120.5q14 75 -29.5 121.5t-132.5 46.5h-6l-37 72l236 249h-394l17 95h514l-17 -95l-233 -245q98 -19 147.5 -88.5t32.5 -163.5zM395 0l1075 1434h105l-1075 -1434
h-105zM1812 606q-21 -120 -149 -178q133 -74 106 -221q-20 -108 -109 -170t-220 -62q-126 0 -197.5 69t-52.5 177q27 151 184 213q-109 71 -88 187q18 103 103.5 163t201.5 60q107 0 173 -67.5t48 -170.5zM1714 614q12 63 -26.5 100.5t-112.5 37.5q-75 0 -127 -37.5
t-64 -100.5q-10 -63 30 -101t114 -38q72 0 124 38t62 101zM1509 381q-88 0 -147.5 -42t-71.5 -114t32 -113.5t134 -41.5q88 0 146.5 41.5t70.5 113.5q12 71 -33.5 113.5t-130.5 42.5z" />
    <glyph glyph-name="fiveeighths" unicode="&#x215d;" horiz-adv-x="1861" 
d="M352 590q-193 0 -252 164l88 45q41 -115 179 -115q87 0 146 45.5t71 120.5q14 80 -28.5 126t-129.5 46h-242l103 412h465l-17 -93h-377l-57 -225h145q119 0 187 -80q70 -76 49 -194q-20 -117 -107.5 -184.5t-222.5 -67.5zM375 0l1075 1434h104l-1075 -1434h-104z
M1792 606q-21 -119 -150 -178q134 -75 107 -221q-20 -108 -109.5 -170t-220.5 -62q-126 0 -197.5 69t-52.5 177q27 151 185 213q-109 71 -88 187q18 103 103.5 163t201.5 60q107 0 173 -67.5t48 -170.5zM1694 614q12 63 -27 100.5t-113 37.5q-75 0 -126.5 -37.5
t-63.5 -100.5q-10 -63 29.5 -101t113.5 -38q73 0 125 38t62 101zM1489 381q-88 0 -147.5 -42t-71.5 -114t32 -113.5t134 -41.5q88 0 146.5 41.5t70.5 113.5q12 71 -33.5 113.5t-130.5 42.5z" />
    <glyph glyph-name="seveneighths" unicode="&#x215e;" horiz-adv-x="1798" 
d="M197 1434h544l-14 -80l-442 -740h-109l438 725h-434zM311 0l1075 1434h105l-1075 -1434h-105zM1729 606q-21 -119 -150 -178q134 -75 107 -221q-20 -108 -109.5 -170t-220.5 -62q-126 0 -197.5 69t-52.5 177q27 151 184 213q-109 71 -88 187q18 103 103.5 163t201.5 60
q107 0 173.5 -67.5t48.5 -170.5zM1630 614q12 63 -26.5 100.5t-112.5 37.5q-75 0 -127 -37.5t-64 -100.5q-10 -63 30 -101t114 -38q72 0 124 38t62 101zM1425 381q-88 0 -147.5 -42t-71.5 -114t32 -113.5t134 -41.5q88 0 146.5 41.5t70.5 113.5q12 71 -33.5 113.5
t-130.5 42.5z" />
    <glyph glyph-name="arrowleft" unicode="&#x2190;" horiz-adv-x="1693" 
d="M373 766h1235l-17 -98h-1249l467 -566h-137l-506 615l723 614l145 -2z" />
    <glyph glyph-name="arrowup" unicode="&#x2191;" horiz-adv-x="1488" 
d="M905 1434l506 -615l-22 -137l-465 565l-217 -1247h-105l217 1231l-661 -561l26 149z" />
    <glyph glyph-name="arrowright" unicode="&#x2192;" horiz-adv-x="1693" 
d="M958 1331h136l505 -614l-714 -615h-150l660 566h-1237l16 98h1251z" />
    <glyph glyph-name="arrowdown" unicode="&#x2193;" horiz-adv-x="1488" 
d="M958 1434l-217 -1233l662 561l-27 -148l-723 -614l-506 614l25 134l463 -564l219 1250h104z" />
    <glyph glyph-name="arrowboth" unicode="&#x2194;" horiz-adv-x="2115" 
d="M1473 1223h135l415 -506l-593 -506h-148l535 457h-1475l375 -457h-135l-416 506l594 506h147l-534 -457h1474z" />
    <glyph glyph-name="arrowupdn" unicode="&#x2195;" horiz-adv-x="1284" 
d="M1255 1141l-22 -135l-371 450l-262 -1466l533 452l-27 -149l-592 -504l-416 504l25 135l373 -455l260 1473l-535 -453l27 148l594 504z" />
    <glyph glyph-name="uni2196" unicode="&#x2196;" horiz-adv-x="1308" 
d="M1120 1202l80 -98h-801l729 -883l-79 -67l-730 882l-139 -800l-82 98l154 868h868z" />
    <glyph glyph-name="uni2197" unicode="&#x2197;" horiz-adv-x="1310" 
d="M315 1104l119 98h869l-154 -868l-121 -101l139 791l-1024 -870l-63 75l1028 875h-793z" />
    <glyph glyph-name="uni2198" unicode="&#x2198;" horiz-adv-x="1308" 
d="M1053 346l141 803l80 -98l-152 -869h-868l-82 99h803l-731 884l80 68z" />
    <glyph glyph-name="uni2199" unicode="&#x2199;" horiz-adv-x="1310" 
d="M1229 1231l65 -76l-1030 -874h793l-117 -99h-868l151 869l119 98l-139 -791z" />
    <glyph glyph-name="partialdiff" unicode="&#x2202;" horiz-adv-x="1185" 
d="M647 1456q239 0 371 -209q131 -207 72 -540q-65 -352 -242 -541t-412 -189q-187 0 -282 127q-96 131 -62 316q37 209 182 336q146 125 367 125q208 0 352 -117q34 251 -61 422q-95 170 -303 170q-146 0 -275 -72l19 102q122 70 274 70zM453 76q184 0 321 155
q143 158 201 428q-139 121 -350 121q-169 0 -283.5 -97.5t-144.5 -272.5q-25 -151 42 -242.5t214 -91.5z" />
    <glyph glyph-name="emptyset" unicode="&#x2205;" horiz-adv-x="1677" 
d="M1575 1475h119l-221 -222q198 -224 143 -548q-56 -308 -307 -519q-250 -209 -564 -209q-237 0 -407 144l-164 -162h-119l221 221q-95 106 -133.5 249.5t-9.5 299.5q52 307 305 516q254 211 566 211q239 0 407 -143zM229 717q-49 -278 115 -469l1002 997
q-148 121 -357 121q-267 0 -491 -190q-223 -189 -269 -459zM1520 717q49 278 -115 469l-1002 -998q147 -120 357 -120q268 0 489 188q224 190 271 461z" />
    <glyph glyph-name="product" unicode="&#x220f;" horiz-adv-x="1310" 
d="M119 -410h-103l324 1844h954l-323 -1844h-103l306 1743h-748z" />
    <glyph glyph-name="summation" unicode="&#x2211;" horiz-adv-x="1107" 
d="M877 -410h-922l16 103l668 848l-348 792l16 101h862l-16 -101h-754l357 -807l-658 -835h797z" />
    <glyph glyph-name="minus" unicode="&#x2212;" horiz-adv-x="1105" 
d="M1004 668h-846l16 98h846z" />
    <glyph glyph-name="radical" unicode="&#x221a;" horiz-adv-x="1308" 
d="M625 0h-111l-211 514h-172l16 100h226l200 -491l770 1515h117z" />
    <glyph glyph-name="infinity" unicode="&#x221e;" horiz-adv-x="1650" 
d="M1300 1038q131 0 209 -96t54 -233q-24 -140 -129 -228q-106 -86 -244 -86q-108 0 -187 61t-153 181q-224 -242 -426 -242q-135 0 -211 94t-51 236q24 140 129 225q104 88 244 88q109 0 188.5 -61t153.5 -180q72 78 133 128t136 81.5t154 31.5zM440 489q88 0 172.5 56.5
t190.5 171.5q-65 115 -130 171t-153 56q-96 0 -167.5 -63.5t-88.5 -163.5q-19 -100 30 -164t146 -64zM1462 717q17 100 -32.5 163.5t-145.5 63.5q-87 0 -170.5 -56.5t-189.5 -170.5q120 -228 280 -228q96 0 167.5 64t90.5 164z" />
    <glyph glyph-name="integral" unicode="&#x222b;" horiz-adv-x="892" 
d="M-164 -416l19 103q98 -42 178.5 1t118.5 156l460 1338q59 175 174 239.5t271 16.5l-19 -101q-114 42 -197 -0.5t-122 -156.5l-461 -1338q-56 -170 -169.5 -236.5t-252.5 -21.5z" />
    <glyph glyph-name="approxequal" unicode="&#x2248;" horiz-adv-x="1202" 
d="M635 838q-250 185 -367 -82l-88 45q31 71 79 122t112 77.5t149 8.5t176 -85q249 -187 367 82l88 -45q-24 -57 -58.5 -101t-82.5 -74.5t-103.5 -38.5t-126 14.5t-145.5 76.5zM209 428l-86 45q30 70 78 121t112.5 78.5t149.5 9.5t176 -86q249 -187 367 82l88 -45
q-24 -56 -58.5 -100.5t-83 -75t-104 -38.5t-125.5 14t-145 77q-249 182 -369 -82z" />
    <glyph glyph-name="notequal" unicode="&#x2260;" horiz-adv-x="1099" 
d="M1051 971l-17 -99h-303l-196 -311h444l-18 -98h-488l-197 -316h-88l197 316h-264l18 98h307l197 311h-448l16 99h494l196 315h88l-196 -315h258z" />
    <glyph glyph-name="lessequal" unicode="&#x2264;" horiz-adv-x="1079" 
d="M197 891l876 323l-22 -120l-736 -260l643 -261l-18 -108l-762 323l8 52zM897 219h-819l18 98h817z" />
    <glyph glyph-name="greaterequal" unicode="&#x2265;" horiz-adv-x="1079" 
d="M236 1106l18 108l762 -323l-10 -51l-9 -52l-876 -323l22 121l734 260zM897 219h-819l18 98h817z" />
    <glyph glyph-name="lozenge" unicode="&#x25ca;" horiz-adv-x="1101" 
d="M514 0h-106l-254 717l505 717h107l256 -717zM264 705l211 -592l436 616l-211 592z" />
    <glyph glyph-name="NULL" horiz-adv-x="0" 
 />
    <glyph glyph-name="CR" horiz-adv-x="681" 
 />
    <glyph glyph-name="i.loclTRK" horiz-adv-x="417" 
d="M246 1270q6 41 38.5 68.5t71.5 27.5q42 0 65 -28.5t16 -68t-42 -69.5q-22 -21 -52.5 -25t-54.5 6.5t-37.5 35t-4.5 53.5zM170 0h-102l180 1024h102z" />
    <glyph glyph-name="f_f_j" horiz-adv-x="1597" 
d="M1346 1378q-159 0 -244 -65.5t-111 -212.5l-12 -76h551l-201 -1141q-29 -165 -131.5 -246.5t-263.5 -68.5l16 98q234 -24 277 217l182 1041h-448l-162 -924h-105l162 924h-446l-164 -924h-105l164 924h-178l18 100h177l10 55q35 197 157 293.5t320 83.5l-18 -98
q-303 24 -355 -279l-10 -55h448l13 76q64 377 477 377q83 0 195 -23l-17 -94q-99 18 -196 18z" />
    <glyph glyph-name="f_j" horiz-adv-x="1044" 
d="M791 1358q-160 0 -244.5 -66t-110.5 -213l-10 -55h553l-201 -1141q-29 -164 -132.5 -246t-264.5 -69l18 98q232 -24 275 217l182 1041h-446l-164 -924h-105l164 924h-178l18 100h177l10 55q64 377 477 377q85 0 192 -22l-14 -95q-104 19 -196 19z" />
    <glyph glyph-name="uni0414.loclBGR" horiz-adv-x="1439" 
d="M1184 102h131l-68 -376h-110l49 274h-1112l-49 -274h-109l49 274l19 102h131l710 1332h115zM866 1300l-635 -1198h842z" />
    <glyph glyph-name="uni041B.loclBGR" horiz-adv-x="1239" 
d="M55 0h-118l786 1434h117l280 -1434h-108l-248 1300z" />
    <glyph glyph-name="uni0424.loclBGR" horiz-adv-x="1746" 
d="M1126 1638l-32 -184q308 -15 479 -225q169 -205 113 -527q-56 -321 -289 -514t-563 -208l-33 -185h-111l33 185q-308 18 -479 225q-167 206 -111 526q55 318 287 512q237 196 563 211l33 184h110zM244 717q-49 -273 86 -449q135 -175 409 -190l228 1278
q-285 -15 -482 -191q-195 -177 -241 -448zM1575 717q47 273 -88 448q-135 176 -410 191l-227 -1278q284 15 481 188q198 177 244 451z" />
    <glyph glyph-name="uni0414.ss01" horiz-adv-x="1413" 
d="M461 1434h885l-234 -1332h152l-19 -102h-1298l18 102h115q175 169 237 514zM553 1331l-127 -717q-62 -338 -211 -512h789l217 1229h-668z" />
    <glyph glyph-name="uni0426.ss01" horiz-adv-x="1413" 
d="M1350 1434l-234 -1332h150l-19 -102h-1159l252 1434h109l-234 -1332h793l233 1332h109z" />
    <glyph glyph-name="uni0429.ss01" horiz-adv-x="2007" 
d="M1944 1434l-234 -1332h150l-19 -102h-1753l252 1434h109l-234 -1332h639l233 1332h109l-233 -1332h639l233 1332h109z" />
    <glyph glyph-name="uni0414.loclBGR.ss01" horiz-adv-x="1439" 
d="M940 1434l244 -1332h131l-19 -102h-1331l19 102h131l710 1332h115zM866 1300l-635 -1198h842z" />
    <glyph glyph-name="uni0432.loclBGR" horiz-adv-x="1177" 
d="M844 815q132 -43 191.5 -152t33.5 -266q-35 -202 -175.5 -311t-363.5 -109q-206 0 -315 136q-104 133 -63 366l88 502q41 229 171 352t332 123q165 0 252 -100q91 -101 70 -242q-27 -167 -221 -299zM725 1358q-149 0 -249.5 -99t-131.5 -278l-35 -203l244 47
q96 19 170 13q214 127 240 286q18 100 -48.5 167t-189.5 67zM965 408q33 188 -82.5 276t-347.5 41l-242 -45l-37 -209q-32 -190 44.5 -292.5t248.5 -102.5q168 0 277.5 87t138.5 245z" />
    <glyph glyph-name="uni0433.loclBGR" horiz-adv-x="940" 
d="M381 -23q-167 0 -256 89q-87 87 -66 219q12 75 54.5 127t101 79t126.5 45t135.5 32.5t124 33t96 55t48.5 91.5q13 89 -47 144.5t-161 55.5q-93 0 -170.5 -45.5t-118.5 -124.5l-82 53q52 99 153.5 157.5t229.5 58.5q145 0 235 -93q87 -87 66 -213q-18 -95 -87 -156.5
t-169 -86.5q-29 -7 -90.5 -20.5t-96 -22t-84 -26t-77.5 -36t-52.5 -49t-31.5 -68.5q-17 -90 49 -145t178 -55q111 0 200 52.5t134 141.5l84 -55q-130 -238 -426 -238z" />
    <glyph glyph-name="uni0434.loclBGR" horiz-adv-x="1331" 
d="M1114 768l45 256h105l-172 -975q-41 -227 -198 -354t-390 -127q-164 0 -281.5 66t-165.5 180l93 47q34 -90 124.5 -142.5t233.5 -52.5q198 0 322.5 100t156.5 283l29 160q-82 -111 -201 -171.5t-258 -60.5q-233 0 -364 162q-130 165 -93 396q34 229 207 370
q174 142 381 142q147 0 262 -74.5t164 -204.5zM573 76q173 0 308 108q136 107 180 283l12 65q18 185 -96 299q-114 117 -283 117q-175 0 -319 -117q-145 -118 -172 -305q-27 -191 76 -321q108 -129 294 -129z" />
    <glyph glyph-name="uni0436.loclBGR" horiz-adv-x="1357" 
d="M84 0h-127l580 543l-379 481h118l359 -463l156 873h102l-156 -879l514 469h127l-549 -502l388 -522h-115l-373 506l-90 -506h-104l90 504z" />
    <glyph glyph-name="uni0438.loclBGR" 
d="M889 481l96 543h102l-180 -1024h-102l31 178q-145 -201 -394 -201q-183 0 -273.5 112t-59.5 298l112 637h105l-113 -637q-25 -144 39.5 -227.5t208.5 -83.5q162 0 277.5 106.5t150.5 300.5v-2z" />
    <glyph glyph-name="uni0439.loclBGR" 
d="M438 1292h518l-14 -90h-520zM889 481l96 543h102l-180 -1024h-102l31 178q-145 -201 -394 -201q-183 0 -273.5 112t-59.5 298l112 637h105l-113 -637q-25 -144 39.5 -227.5t208.5 -83.5q162 0 277.5 106.5t150.5 300.5v-2z" />
    <glyph glyph-name="uni043A.loclBGR" horiz-adv-x="989" 
d="M868 1024h146l-641 -494l479 -530h-127l-465 514l-90 -514h-102l251 1434h103l-154 -869z" />
    <glyph glyph-name="uni043B.loclBGR" horiz-adv-x="976" 
d="M641 1024l219 -1024h-106l-189 911l-514 -911h-114l579 1024h125z" />
    <glyph glyph-name="uni043F.loclBGR" 
d="M713 1047q183 0 274 -112t60 -298l-113 -637h-105l113 637q25 144 -39.5 227.5t-208.5 83.5q-162 0 -277.5 -106.5t-150.5 -300.5v2l-96 -543h-102l180 1024h102l-31 -178q145 201 394 201z" />
    <glyph glyph-name="uni0442.loclBGR" horiz-adv-x="1755" 
d="M1346 1047q157 0 245 -107q92 -109 58 -291l-115 -649h-102l112 649q25 141 -34 220t-185 79q-133 0 -230 -86t-134 -252l-109 -610h-102l112 649q26 141 -30 220t-179 79q-140 0 -245 -97t-136 -276l-102 -575h-102l180 1024h102l-28 -158q138 181 356 181
q111 0 187 -54t100 -155q70 102 171 155.5t210 53.5z" />
    <glyph glyph-name="uni0446.loclBGR" horiz-adv-x="1216" 
d="M1087 1024l-147 -840q-7 -38 12 -61t58 -23h65l-65 -381h-105l49 283q-61 7 -93.5 52t-26.5 114q-147 -191 -392 -191q-183 0 -274 112t-59 298l112 637h103l-111 -637q-25 -144 39.5 -227.5t208.5 -83.5q153 0 267.5 97t154.5 276l100 575h104z" />
    <glyph glyph-name="uni0448.loclBGR" horiz-adv-x="1755" 
d="M1483 449l102 575h103l-181 -1024h-102l29 158q-138 -181 -357 -181q-111 0 -186.5 54t-99.5 155q-70 -102 -171 -155.5t-210 -53.5q-160 0 -248 105q-90 110 -56 293l115 649h103l-113 -649q-25 -141 34 -220t185 -79q133 0 230.5 86t134.5 252l108 610h103l-113 -649
q-26 -141 30 -220t179 -79q140 0 245 97t136 276z" />
    <glyph glyph-name="uni0449.loclBGR" horiz-adv-x="1818" 
d="M1688 1024l-148 -840q-12 -84 70 -84h67l-67 -374h-103l47 276q-60 8 -92 50t-28 108q-139 -183 -357 -183q-110 0 -186 54.5t-100 156.5q-70 -103 -171 -157t-210 -54q-160 0 -248 105q-90 110 -56 293l115 649h103l-113 -649q-25 -141 34 -220t185 -79q133 0 230.5 86
t134.5 252l108 610h103l-113 -649q-26 -141 30 -220t179 -79q141 0 245.5 96t135.5 274l102 578h103z" />
    <glyph glyph-name="uni044C.loclBGR" horiz-adv-x="987" 
d="M264 680h289q175 0 266 -105q91 -102 64 -262q-26 -150 -146.5 -243t-292.5 -93q-182 0 -276 107q-95 108 -68 258l121 682h103zM780 330q19 113 -47 181.5t-198 68.5h-289l-41 -238q-23 -119 46.5 -192.5t205.5 -73.5q128 0 215 71t108 183z" />
    <glyph glyph-name="uni044A.loclBGR" horiz-adv-x="1157" 
d="M434 680h289q174 0 266 -105q91 -105 64 -264q-26 -150 -146.5 -242t-292.5 -92q-182 0 -276 107q-95 108 -68 258l103 582h-299l16 100h404zM950 328q19 114 -47 183t-198 69h-289l-41 -238q-23 -119 45 -192.5t207 -73.5q128 0 215 70.5t108 181.5z" />
    <glyph glyph-name="uni044E.loclBGR" horiz-adv-x="1644" 
d="M1114 1047q215 0 348 -154q133 -151 92 -389q-44 -246 -223 -385q-180 -142 -399 -142q-202 0 -336 134q-133 136 -115 352h-229l-82 -463h-102l251 1434h103l-154 -873h230q52 224 229 354q175 132 387 132zM1452 516q34 193 -74 313q-107 119 -282 119
q-181 -3 -328 -121q-148 -121 -182 -315q-35 -197 73 -317q107 -119 283 -119q178 0 326 121q150 120 184 319z" />
    <glyph glyph-name="zero.sinf" horiz-adv-x="841" 
d="M272 -352q-159 0 -235 125q-77 124 -43 317q35 198 148 312t276 114q159 0 235 -125q77 -124 43 -317q-35 -198 -148 -312t-276 -114zM115 -168q53 -90 170 -90q116 0 200 90q87 93 113 250q27 165 -23 250q-53 90 -169 90q-119 0 -203 -90q-85 -91 -111 -250
q-27 -165 23 -250z" />
    <glyph glyph-name="one.sinf" horiz-adv-x="487" 
d="M8 399l266 93h80l-145 -820h-98l125 703l-218 -66z" />
    <glyph glyph-name="two.sinf" horiz-adv-x="700" 
d="M485 -328h-565l14 80l414 340q114 88 129 178q11 67 -28 109.5t-113 42.5q-134 0 -211 -139l-80 49q44 85 125.5 134.5t177.5 49.5q116 0 180 -71.5t47 -178.5q-18 -122 -169 -243l-314 -256h408z" />
    <glyph glyph-name="three.sinf" horiz-adv-x="706" 
d="M78 492h514l-17 -95l-233 -245q98 -19 147.5 -88.5t32.5 -163.5q-20 -116 -110 -184t-224 -68q-196 0 -254 166l86 43q38 -115 183 -115q92 0 150.5 45.5t70.5 120.5q14 75 -29.5 121.5t-132.5 46.5h-6l-37 71l236 250h-394z" />
    <glyph glyph-name="four.sinf" horiz-adv-x="729" 
d="M467 -72h111l-17 -92h-110l-29 -164h-98l28 164h-436l14 92l408 564h113l-406 -564h324l37 213h98z" />
    <glyph glyph-name="five.sinf" horiz-adv-x="669" 
d="M586 492l-17 -93h-376l-58 -225h146q118 0 186 -80q70 -76 49 -194q-20 -117 -107.5 -184.5t-222.5 -67.5q-193 0 -252 164l89 45q41 -115 178 -115q87 0 146 45.5t71 120.5q14 80 -28.5 126t-129.5 46h-242l103 412h465z" />
    <glyph glyph-name="six.sinf" horiz-adv-x="694" 
d="M293 205q124 0 196 -84q73 -82 52 -203q-20 -118 -116.5 -194t-227.5 -76q-124 0 -199 84q-73 82 -51 205q15 94 78 157l333 398h123l-250 -291q54 4 62 4zM444 -72q14 82 -33 132.5t-137 50.5q-88 0 -153 -51t-78 -132q-13 -84 33.5 -135t134.5 -51t152 51t81 135z" />
    <glyph glyph-name="seven.sinf" horiz-adv-x="634" 
d="M14 397l17 95h544l-14 -80l-442 -740h-109l439 725h-435z" />
    <glyph glyph-name="eight.sinf" horiz-adv-x="700" 
d="M573 279q-21 -121 -149 -179q133 -74 106 -221q-20 -108 -108.5 -169.5t-220.5 -61.5q-126 0 -197.5 69t-52.5 177q27 150 184 212q-109 71 -88 187q18 103 103.5 163t201.5 60q107 0 173 -67t48 -170zM475 287q12 63 -26.5 100t-112.5 37q-75 0 -127 -37t-64 -100
q-10 -63 30 -101.5t114 -38.5q72 0 124 38.5t62 101.5zM270 53q-88 0 -147.5 -41.5t-71.5 -113.5t32 -114t134 -42q88 0 146.5 42t70.5 114q12 71 -33 113t-131 42z" />
    <glyph glyph-name="nine.sinf" horiz-adv-x="694" 
d="M346 516q123 0 197 -86q74 -83 53 -203q-9 -73 -66 -143l-342 -412h-122l249 293q-30 -6 -65 -6q-122 0 -197 84q-72 87 -51 203q20 116 117 194q98 76 227 76zM98 236q-14 -82 33 -132.5t137 -50.5q88 0 153.5 51t78.5 132q13 84 -33.5 135t-134.5 51t-152.5 -51
t-81.5 -135z" />
    <glyph glyph-name="zero.tf" horiz-adv-x="1167" 
d="M492 -23q-248 0 -357 207q-108 206 -49 543q59 341 233 533q175 196 431 196q247 0 356 -207q108 -205 49 -542q-59 -340 -233 -535q-177 -195 -430 -195zM1044 717q54 298 -29 466.5t-282 168.5q-201 0 -342.5 -167t-195.5 -468q-51 -301 30.5 -468t282.5 -167
t343 167.5t193 467.5z" />
    <glyph glyph-name="one.tf" horiz-adv-x="1167" 
d="M840 1434l-234 -1330h432l-20 -104h-1022l18 104h482l213 1207l-349 -103l-12 97l400 129h92z" />
    <glyph glyph-name="two.tf" horiz-adv-x="1167" 
d="M995 0h-983l17 98l633 477q172 131 260.5 232.5t107.5 206.5q26 155 -55.5 246.5t-245.5 91.5q-121 0 -228.5 -66t-176.5 -182l-88 55q81 139 218.5 218t293.5 79q200 0 313 -125q115 -124 78 -325q-23 -131 -120.5 -250.5t-281.5 -253.5l-536 -398h813z" />
    <glyph glyph-name="three.tf" horiz-adv-x="1167" 
d="M272 1434h902l-19 -103l-461 -493q198 -19 298.5 -135t70.5 -300q-37 -199 -197 -313q-158 -113 -389 -113q-174 0 -296 80t-154 219l98 52q26 -113 123 -179.5t239 -66.5q187 0 313 89.5t152 242.5q26 154 -66.5 242.5t-281.5 88.5h-29l-34 72l483 514h-770z" />
    <glyph glyph-name="four.tf" horiz-adv-x="1167" 
d="M903 403h191l-19 -102h-190l-54 -301h-108l53 301h-766l19 102l725 1031h123l-723 -1031h641l73 422h109z" />
    <glyph glyph-name="five.tf" horiz-adv-x="1167" 
d="M1190 1434l-19 -103h-716l-117 -481h305q209 0 332 -123t88 -324q-36 -200 -190 -313t-379 -113q-171 0 -292 81.5t-153 220.5l96 51q25 -116 121 -182t242 -66q178 0 299 89.5t147 242.5t-63 242t-266 89h-420l168 689h817z" />
    <glyph glyph-name="six.tf" horiz-adv-x="1167" 
d="M641 922q226 0 346 -138q121 -139 84 -346q-37 -209 -197 -336q-158 -125 -397 -125q-227 0 -348 136q-121 139 -84 346q29 166 139 282l629 693h133l-477 -533q77 21 172 21zM963 449q30 168 -60.5 268t-279.5 100q-211 0 -344 -127l-11 -12q-91 -94 -112 -229
q-31 -166 59.5 -266.5t278.5 -100.5t313 100t156 267z" />
    <glyph glyph-name="seven.tf" horiz-adv-x="1167" 
d="M227 1331l17 103h989l-16 -103l-832 -1331h-121l834 1331h-871z" />
    <glyph glyph-name="eight.tf" horiz-adv-x="1167" 
d="M1139 1063q-37 -224 -271 -326q113 -50 165 -145.5t32 -216.5q-32 -189 -185 -293.5t-388 -104.5q-224 0 -347 111q-122 114 -88 301q20 124 106 217t220 137q-93 52 -135.5 139.5t-22.5 194.5q30 180 174 279q141 100 351 100q195 0 307 -106q116 -110 82 -287zM633 788
q160 0 267 76t130 205q25 133 -55.5 208t-241.5 75q-165 0 -269.5 -74t-129.5 -209q-23 -129 57.5 -205t241.5 -76zM956 383q23 141 -65 220t-277 79q-190 0 -307.5 -79t-140.5 -220q-25 -140 66 -220.5t276 -80.5q189 0 306 79.5t142 221.5z" />
    <glyph glyph-name="nine.tf" horiz-adv-x="1167" 
d="M764 1456q226 0 346 -135q121 -136 84 -346q-27 -156 -129 -270l-637 -705h-133l479 532q-87 -20 -176 -20q-226 0 -346 135q-121 136 -84 346q37 209 197 336q165 127 399 127zM1085 985q30 167 -60.5 267t-279.5 100q-188 0 -315 -103t-154 -264q-30 -168 60 -268.5
t280 -100.5q188 0 313.5 100.5t155.5 268.5z" />
    <glyph glyph-name="zero.dnom" horiz-adv-x="841" 
d="M330 -25q-160 0 -236 123q-77 127 -43 320q35 198 148 312t276 114q160 0 236 -125q77 -125 43 -318q-35 -198 -148 -312t-276 -114zM172 158q52 -88 170 -88q119 0 201 88q86 92 112 252q27 166 -22 249q-54 91 -170 91q-118 0 -203 -91q-84 -90 -110 -249
q-28 -168 22 -252z" />
    <glyph glyph-name="one.dnom" horiz-adv-x="503" 
d="M66 727l266 92h80l-146 -819h-98l125 702l-217 -65z" />
    <glyph glyph-name="two.dnom" horiz-adv-x="700" 
d="M543 0h-566l15 80l414 340q114 88 129 178q11 67 -28.5 109.5t-113.5 42.5q-133 0 -211 -140l-80 49q44 85 126 135t178 50q116 0 180 -71.5t47 -178.5q-18 -122 -170 -244l-313 -256h407z" />
    <glyph glyph-name="three.dnom" horiz-adv-x="716" 
d="M137 819h514l-16 -94l-234 -246q98 -19 148 -88.5t33 -163.5q-20 -116 -110 -184t-224 -68q-196 0 -254 166l86 43q38 -114 182 -114q92 0 150.5 45.5t70.5 120.5q14 75 -29 121t-132 46h-7l-36 72l235 250h-393z" />
    <glyph glyph-name="four.dnom" horiz-adv-x="729" 
d="M524 256h111l-17 -92h-110l-29 -164h-98l29 164h-437l15 92l407 563h113l-406 -563h324l37 213h98z" />
    <glyph glyph-name="five.dnom" horiz-adv-x="698" 
d="M645 819l-16 -92h-377l-57 -225h145q118 0 186 -80q70 -76 49 -195q-20 -118 -107.5 -185t-221.5 -67q-193 0 -252 164l88 45q40 -114 178 -114q87 0 146 45.5t71 120.5q14 80 -28.5 126t-129.5 46h-241l102 411h465z" />
    <glyph glyph-name="six.dnom" horiz-adv-x="696" 
d="M352 532q126 0 197 -83q72 -81 51 -203q-20 -119 -117 -195t-227 -76q-124 0 -199 84q-73 82 -51 205q16 96 78 158l334 397h123l-250 -291q54 4 61 4zM504 256q14 82 -32.5 132t-137.5 50q-88 0 -153.5 -50.5t-78.5 -131.5q-13 -84 33.5 -135t134.5 -51t152.5 51
t81.5 135z" />
    <glyph glyph-name="seven.dnom" horiz-adv-x="632" 
d="M72 725l16 94h545l-15 -80l-442 -739h-108l438 725h-434z" />
    <glyph glyph-name="eight.dnom" horiz-adv-x="700" 
d="M631 606q-21 -119 -150 -178q134 -75 107 -221q-20 -108 -109.5 -170t-220.5 -62q-126 0 -197.5 69t-52.5 177q27 151 185 213q-110 72 -89 187q18 103 104 163t202 60q107 0 173 -67.5t48 -170.5zM532 614q12 63 -26.5 100.5t-112.5 37.5q-75 0 -126.5 -37.5
t-63.5 -100.5q-10 -63 29.5 -101t113.5 -38q72 0 124 38t62 101zM328 381q-88 0 -147.5 -42t-71.5 -114t31.5 -113.5t133.5 -41.5q88 0 147 41.5t71 113.5q12 71 -33.5 113.5t-130.5 42.5z" />
    <glyph glyph-name="nine.dnom" horiz-adv-x="694" 
d="M403 844q123 0 197 -86q74 -83 53 -203q-9 -75 -65 -143l-342 -412h-123l250 293q-30 -6 -66 -6q-121 0 -196 84q-72 88 -52 202q20 117 117 195q98 76 227 76zM156 563q-14 -82 32.5 -132t137.5 -50q88 0 153 50.5t78 131.5q13 84 -33.5 135.5t-134.5 51.5t-152 -51
t-81 -136z" />
    <glyph glyph-name="zero.numr" horiz-adv-x="841" 
d="M438 590q-158 0 -235 123q-77 127 -43 319q35 198 148 312t276 114q159 0 235 -125q77 -124 43 -317q-35 -198 -148 -312t-276 -114zM281 772q52 -88 170 -88t200 88q87 93 113 252q27 165 -23 250q-53 90 -170 90q-118 0 -202 -90q-85 -91 -111 -250q-28 -167 23 -252z
" />
    <glyph glyph-name="one.numr" horiz-adv-x="503" 
d="M174 1341l266 93h80l-145 -820h-99l125 703l-217 -66z" />
    <glyph glyph-name="two.numr" horiz-adv-x="700" 
d="M651 614h-565l14 80l414 340q114 88 129 178q11 67 -28 109.5t-113 42.5q-134 0 -211 -139l-80 49q44 85 125.5 134.5t177.5 49.5q116 0 180 -71.5t47 -178.5q-18 -121 -170 -243l-313 -256h408z" />
    <glyph glyph-name="three.numr" horiz-adv-x="716" 
d="M244 1434h514l-17 -95l-233 -245q98 -19 147.5 -88.5t32.5 -163.5q-20 -116 -110 -184t-224 -68q-196 0 -254 166l86 43q38 -115 183 -115q92 0 150.5 45.5t70.5 120.5q14 75 -29.5 121.5t-132.5 46.5h-6l-37 72l236 249h-394z" />
    <glyph glyph-name="four.numr" horiz-adv-x="729" 
d="M633 870h110l-16 -92h-111l-28 -164h-99l29 164h-436l14 92l408 564h112l-405 -564h324l36 213h99z" />
    <glyph glyph-name="five.numr" horiz-adv-x="696" 
d="M752 1434l-17 -93h-377l-57 -225h145q119 0 187 -80q70 -76 49 -194q-20 -117 -107.5 -184.5t-222.5 -67.5q-193 0 -252 164l88 45q41 -115 179 -115q87 0 146 45.5t71 120.5q14 80 -28.5 126t-129.5 46h-242l103 412h465z" />
    <glyph glyph-name="six.numr" horiz-adv-x="694" 
d="M459 1147q124 0 196 -84q73 -82 52 -203q-20 -118 -117 -194t-228 -76q-123 0 -198 84q-73 82 -51 205q16 96 77 157l334 398h123l-250 -291q54 4 62 4zM610 870q14 82 -33 132.5t-137 50.5q-88 0 -153 -51t-78 -132q-13 -84 33.5 -135t134.5 -51t152 51t81 135z" />
    <glyph glyph-name="seven.numr" horiz-adv-x="632" 
d="M180 1339l17 95h544l-14 -80l-442 -740h-109l438 725h-434z" />
    <glyph glyph-name="eight.numr" horiz-adv-x="700" 
d="M739 1221q-21 -121 -149 -179q133 -74 106 -221q-20 -108 -108.5 -169.5t-220.5 -61.5q-126 0 -197.5 69t-52.5 177q27 151 184 213q-109 71 -88 186q18 103 103.5 163t201.5 60q107 0 173 -67t48 -170zM641 1229q12 63 -26.5 100t-112.5 37q-75 0 -127 -37t-64 -100
q-10 -63 30 -101t114 -38q72 0 124 38t62 101zM436 995q-88 0 -147.5 -41.5t-71.5 -113.5t32 -114t134 -42q88 0 146.5 42t70.5 114q12 71 -33 113t-131 42z" />
    <glyph glyph-name="nine.numr" horiz-adv-x="694" 
d="M512 1458q123 0 197 -86q74 -83 53 -203q-9 -73 -66 -143l-342 -412h-123l250 293q-30 -6 -65 -6q-122 0 -197 84q-72 87 -51 203q20 116 117 194q98 76 227 76zM264 1178q-14 -82 33 -132.5t137 -50.5q88 0 153.5 51t78.5 132q13 84 -33.5 135t-134.5 51t-152.5 -51
t-81.5 -135z" />
    <glyph glyph-name="zero.sups" horiz-adv-x="841" 
d="M496 918q-160 0 -236 122q-77 127 -43 320q35 198 148 312t276 114q160 0 236 -125q77 -125 43 -318q-35 -198 -148 -311.5t-276 -113.5zM338 1100q52 -88 170 -88q119 0 201 88q86 92 112 252q28 167 -22 250q-53 90 -170 90q-119 0 -203 -90q-85 -91 -111 -250
q-28 -167 23 -252z" />
    <glyph glyph-name="one.sups" horiz-adv-x="505" 
d="M233 1669l267 92h80l-146 -819h-98l125 703l-217 -66z" />
    <glyph glyph-name="two.sups" horiz-adv-x="700" 
d="M709 942h-566l15 80l413 340q114 88 129 178q11 67 -28 109.5t-113 42.5q-133 0 -211 -140l-80 50q44 85 125.5 134.5t177.5 49.5q116 0 180.5 -72t47.5 -178q-18 -122 -170 -244l-314 -256h408z" />
    <glyph glyph-name="three.sups" horiz-adv-x="716" 
d="M303 1761h514l-16 -94l-234 -246q98 -19 148 -88.5t33 -163.5q-20 -116 -109.5 -183.5t-224.5 -67.5q-196 0 -254 165l86 43q38 -114 182 -114q92 0 150.5 45.5t70.5 120.5q14 75 -29.5 121.5t-132.5 46.5h-6l-37 71l236 250h-393z" />
    <glyph glyph-name="four.sups" horiz-adv-x="729" 
d="M690 1198h111l-17 -92h-110l-29 -164h-98l28 164h-436l15 92l407 563h113l-406 -563h324l37 213h98z" />
    <glyph glyph-name="five.sups" horiz-adv-x="696" 
d="M811 1761l-16 -92h-377l-58 -225h146q118 0 186 -80q70 -76 49 -195q-20 -117 -107 -184t-222 -67q-194 0 -252 163l88 45q40 -114 178 -114q87 0 146 45.5t71 120.5q14 80 -28.5 126t-129.5 46h-241l102 411h465z" />
    <glyph glyph-name="six.sups" horiz-adv-x="694" 
d="M518 1475q125 0 197 -84q72 -81 51 -203q-20 -118 -116.5 -194t-227.5 -76q-125 0 -199 83q-73 82 -51 205q16 96 78 158l334 397h123l-250 -291q10 1 31.5 3t29.5 2zM670 1198q14 82 -32.5 132t-137.5 50q-88 0 -153.5 -50.5t-78.5 -131.5q-13 -84 33.5 -135t134.5 -51
t152.5 51t81.5 135z" />
    <glyph glyph-name="seven.sups" horiz-adv-x="634" 
d="M240 1667l16 94h545l-15 -80l-442 -739h-108l438 725h-434z" />
    <glyph glyph-name="eight.sups" horiz-adv-x="700" 
d="M797 1548q-21 -119 -150 -178q134 -75 107 -221q-20 -108 -109 -169.5t-221 -61.5q-126 0 -197.5 68.5t-52.5 176.5q27 151 184 213q-109 71 -88 187q18 103 103.5 163t201.5 60q107 0 173.5 -67.5t48.5 -170.5zM698 1556q12 63 -26.5 100.5t-112.5 37.5
q-75 0 -126.5 -37.5t-63.5 -100.5q-10 -63 29.5 -101t113.5 -38q72 0 124 38t62 101zM494 1323q-88 0 -148 -42t-72 -114t32 -113.5t134 -41.5q88 0 146.5 41.5t70.5 113.5t-33 114t-130 42z" />
    <glyph glyph-name="nine.sups" horiz-adv-x="694" 
d="M569 1786q123 0 197 -86q74 -83 53 -203q-9 -75 -65 -143l-342 -412h-123l250 293q-30 -6 -66 -6q-122 0 -197 84q-72 87 -51 203q20 116 117 194q98 76 227 76zM322 1505q-14 -82 32.5 -132t137.5 -50q88 0 153 50.5t78 131.5q13 84 -33.5 135.5t-134.5 51.5t-152 -51
t-81 -136z" />
    <glyph glyph-name="cent.tf" horiz-adv-x="1167" 
d="M1171 991l-88 -47q-49 135 -184 184l-416 -833q46 -14 113 -14q122 0 230 58t171 157l82 -56q-78 -122 -210 -190t-291 -68q-78 0 -142 21l-100 -203h-88l114 231q-130 67 -192 203t-33 299q41 230 215 373q180 145 408 145q43 0 108 -10l97 193h88l-109 -215
q171 -67 227 -228zM410 324l411 823q-34 6 -71 6q-188 0 -332 -123q-141 -121 -176 -307q-23 -130 22.5 -237.5t145.5 -161.5z" />
    <glyph glyph-name="dollar.tf" horiz-adv-x="1167" 
d="M1161 1196l-98 -49q-71 177 -256 201l-105 -586q71 -28 111.5 -48t95.5 -57q85 -55 119 -130.5t19 -192.5q-32 -163 -159.5 -254.5t-322.5 -102.5l-33 -182h-96l33 185q-165 12 -273 88.5t-145 207.5l99 50q55 -224 337 -242l107 604q-86 35 -139 64.5t-107 76.5
q-115 106 -78 281q31 162 162 250q134 93 297 96l33 182h96l-33 -186q253 -34 336 -256zM379 1100q-22 -109 35.5 -176t197.5 -127l99 555q-124 -8 -216.5 -77.5t-115.5 -174.5zM936 346q16 75 -11 132t-84 95.5t-157 79.5l-100 -569q142 10 235.5 79.5t116.5 182.5z" />
    <glyph glyph-name="Euro.tf" horiz-adv-x="1167" 
d="M834 1352q-156 0 -277.5 -119t-187.5 -338h520l-17 -90h-528l-18 -88l-13 -76h531l-17 -92h-522q-12 -223 66.5 -345t236.5 -122q113 0 210.5 66.5t160.5 187.5l88 -55q-79 -144 -203 -224t-272 -80q-197 0 -302.5 154t-94.5 418h-144l17 92h135q3 42 12 86q2 24 16 78
h-135l17 90h141q79 266 233 413.5t361 147.5q137 0 235.5 -78.5t130.5 -214.5l-94 -49q-26 112 -101.5 175t-184.5 63z" />
    <glyph glyph-name="florin.tf" horiz-adv-x="1167" 
d="M635 768l170 414q71 172 189.5 237.5t269.5 20.5l-19 -103q-110 42 -197 -1t-135 -156l-170 -412h314l-19 -100h-336l-340 -826q-71 -172 -189 -237.5t-267 -20.5l16 103q111 -42 197.5 0.5t134.5 156.5l340 824h-307l18 100h330z" />
    <glyph glyph-name="uni20BD.tf" horiz-adv-x="1167" 
d="M367 1434h477q170 0 274 -131q108 -129 74 -304q-26 -171 -172 -292q-143 -119 -324 -119h-370l-37 -213h534l-16 -90h-535l-49 -285h-108l49 285h-182l14 90h184l37 213h-184l18 102h185zM1083 1010q24 134 -51 227q-76 94 -205 94h-370l-113 -641h371q128 0 237 92
q110 96 131 228z" />
    <glyph glyph-name="sterling.tf" horiz-adv-x="1167" 
d="M813 1352q-132 0 -223 -81t-115 -227l-61 -348h493l-18 -96h-492l-88 -496h772l-18 -104h-1086l19 104h205l88 496h-164l16 96h164l62 348q35 197 155.5 304.5t300.5 107.5q130 0 226 -70.5t137 -195.5l-90 -49q-76 211 -283 211z" />
    <glyph glyph-name="yen.tf" horiz-adv-x="1167" 
d="M1176 1434h127l-609 -729h359l-17 -93h-381l-26 -157h381l-17 -90h-381l-63 -365h-111l66 365h-377l14 90h377l29 157h-377l16 93h355l-351 729h113l320 -664z" />
    <glyph glyph-name="brevecy" horiz-adv-x="600" 
d="M682 1202h-520l16 90h518z" />
    </font>
</defs>
</svg>
