<?xml version="1.0" standalone="no"?>
<!DOCTYPE svg PUBLIC "-//W3C//DTD SVG 1.1//EN" "http://www.w3.org/Graphics/SVG/1.1/DTD/svg11.dtd" >
<svg xmlns="http://www.w3.org/2000/svg" xmlns:xlink="http://www.w3.org/1999/xlink" version="1.1">
<metadata>
Created by FontForge 20170731 at Sat Aug  7 15:00:56 2021
 By Aleksey,,,
Copyright (c) 2016 by Radomir Tinkov. All rights reserved.
</metadata>
<defs>
<font id="SVN-GilroyThin" horiz-adv-x="1105" >
  <font-face 
    font-family="SVN-Gilroy Thin"
    font-weight="100"
    font-stretch="normal"
    units-per-em="2048"
    panose-1="0 0 3 0 0 0 0 0 0 0"
    ascent="1638"
    descent="-410"
    x-height="1024"
    cap-height="1434"
    bbox="-573 -492 2148 2142"
    underline-thickness="102"
    underline-position="-307"
    unicode-range="U+0020-FB02"
  />
<missing-glyph horiz-adv-x="1024" 
d="M190 1638h650v-2048h-650v2048zM682 1434v67h-338v-67h133v-76h-135v-68h340v68h-135v76h135zM547 1094v143h-205v-213h340v70h-135zM410 1167h67v-73h-67v73zM682 901v68h-340v-68h135v-76h-135v-67h205v143h135zM682 641v205h-68v-135h-272v-70h340zM682 365v231h-205
v-115h70v47h67v-96h-204v164h-68v-231h340zM682 10v232h-340v-232h340zM410 174h204v-96h-204v96zM682 -104v67h-340v-67h143l-143 -97v-67h340v67h-209l143 97h66z" />
    <glyph glyph-name="fi" unicode="fi" horiz-adv-x="1021" 
d="M287 1024h551v-1024h-41v987h-510v-987h-41v987h-185v37h185v82q0 348 366 348q111 0 205 -20v-37q-94 20 -205 20q-169 0 -247 -76t-78 -235v-82z" />
    <glyph glyph-name="fl" unicode="fl" horiz-adv-x="1021" 
d="M612 1454q112 0 226 -20v-1434h-41v1403q-69 14 -185 14q-169 0 -247 -76t-78 -235v-82h264v-37h-264v-987h-41v987h-185v37h185v82q0 348 366 348z" />
    <glyph glyph-name="f_f" unicode="ff" horiz-adv-x="1163" 
d="M1163 1475v-37q-325 27 -325 -312v-102h325v-37h-325v-987h-41v987h-510v-987h-41v987h-185v37h185v82q0 180 92 270.5t274 77.5v-37q-325 27 -325 -311v-82h510v102q0 180 92 271t274 78z" />
    <glyph glyph-name="f_f_i" unicode="ffi" horiz-adv-x="1572" 
d="M838 1024h551v-1024h-41v987h-510v-987h-41v987h-510v-987h-41v987h-185v37h185v82q0 180 92 270.5t274 77.5v-37q-325 27 -325 -311v-82h510v102q0 349 366 349q106 0 205 -21v-37q-99 21 -205 21q-169 0 -247 -76t-78 -236v-102z" />
    <glyph glyph-name="f_f_l" unicode="ffl" horiz-adv-x="1572" 
d="M1163 1475q106 0 226 -21v-1454h-41v1423q-74 15 -185 15q-169 0 -247 -76t-78 -236v-102h264v-37h-264v-987h-41v987h-510v-987h-41v987h-185v37h185v82q0 180 92 270.5t274 77.5v-37q-325 27 -325 -311v-82h510v102q0 349 366 349z" />
    <glyph glyph-name=".notdef" horiz-adv-x="1024" 
d="M190 1638h650v-2048h-650v2048zM682 1434v67h-338v-67h133v-76h-135v-68h340v68h-135v76h135zM547 1094v143h-205v-213h340v70h-135zM410 1167h67v-73h-67v73zM682 901v68h-340v-68h135v-76h-135v-67h205v143h135zM682 641v205h-68v-135h-272v-70h340zM682 365v231h-205
v-115h70v47h67v-96h-204v164h-68v-231h340zM682 10v232h-340v-232h340zM410 174h204v-96h-204v96zM682 -104v67h-340v-67h143l-143 -97v-67h340v67h-209l143 97h66z" />
    <glyph glyph-name=".null" horiz-adv-x="0" 
 />
    <glyph glyph-name="nonmarkingreturn" horiz-adv-x="682" 
 />
    <glyph glyph-name="space" unicode=" " horiz-adv-x="614" 
 />
    <glyph glyph-name="exclam" unicode="!" horiz-adv-x="409" 
d="M225 328h-41v1106h41v-1106zM240 -6q-21 -21 -49 -11t-35.5 35t12.5 50q21 23 50 13t36 -36t-14 -51z" />
    <glyph glyph-name="quotedbl" unicode="&#x22;" horiz-adv-x="532" 
d="M164 1106h-41v328h41v-328zM410 1106h-41v328h41v-328z" />
    <glyph glyph-name="numbersign" unicode="#" horiz-adv-x="1253" 
d="M1151 922l-6 -41h-246l-53 -328h246l-9 -41h-245l-68 -410h-41l68 410h-410l-68 -410h-40l67 410h-244l7 41h245l54 328h-246l6 41h248l67 409h41l-67 -409h409l68 409h41l-68 -409h244zM395 553h410l53 328h-409z" />
    <glyph glyph-name="dollar" unicode="$" horiz-adv-x="1126" 
d="M1024 352q0 -158 -111 -258t-301 -112v-187h-41v185h-6q-178 0 -301.5 72.5t-161.5 201.5l35 20q35 -123 148.5 -190.5t279.5 -67.5h6v695q-151 50 -235 94q-87 48 -128 114t-48 175q0 152 116 256q119 104 295 104v184h41v-186q283 -15 371 -246l-33 -18
q-80 209 -338 227v-678q15 -5 56 -20t53.5 -20l40 -16t47.5 -21.5t43 -24.5q86 -50 129 -116t43 -167zM201 1094q0 -153 121 -232q53 -33 110 -59q8 -4 139 -53v667q-169 0 -270 -98q-100 -93 -100 -225zM612 696v-678q176 12 273.5 103.5t97.5 230.5q0 129 -87 203.5
t-284 140.5z" />
    <glyph glyph-name="percent" unicode="%" horiz-adv-x="1492" 
d="M457 848q-137 0 -226 86q-88 88 -88 217q0 130 88 215q88 88 226 88q135 0 223 -88q90 -87 90 -215q0 -129 -88 -217q-89 -86 -225 -86zM457 885q118 0 195 75t77 191q0 112 -78 190q-76 76 -194 76q-119 0 -195 -76q-78 -78 -78 -190t78 -190q76 -76 195 -76zM264 145
l-31 19l994 1124l33 -18zM1260 66q-89 -86 -224 -86q-136 0 -225 86q-88 88 -88 217q0 130 88 215q88 88 225 88q136 0 224 -88q90 -87 90 -215q0 -127 -90 -217zM842 92q76 -76 194 -76q119 0 195 76q78 78 78 191q0 112 -78 190q-76 76 -195 76q-118 0 -194 -76
q-78 -78 -78 -190q0 -113 78 -191z" />
    <glyph glyph-name="ampersand" unicode="&#x26;" horiz-adv-x="1333" 
d="M1063 231l209 -211l-35 -20l-197 199q-160 -219 -442 -219q-212 0 -333.5 108.5t-121.5 292.5q0 139 80.5 251.5t222.5 172.5q-133 148 -133 297q0 156 113 254t285 98q134 0 231.5 -64.5t138.5 -181.5l-32 -18q-37 106 -125 166.5t-213 60.5q-165 0 -260 -92
q-97 -91 -97 -227q0 -63 24 -119.5t63.5 -106t117.5 -129.5l475 -481q82 129 105 309l35 -20q-27 -182 -111 -320zM596 16q265 0 416 213l-482 490q-45 45 -55 57q-139 -55 -215 -160.5t-76 -236.5q0 -167 111.5 -265t300.5 -98z" />
    <glyph glyph-name="quotesingle" unicode="'" horiz-adv-x="266" 
d="M164 1106h-41v328h41v-328z" />
    <glyph glyph-name="parenleft" unicode="(" horiz-adv-x="512" 
d="M389 -205h-41q-226 450 -226 921.5t226 921.5h41q-226 -450 -226 -921.5t226 -921.5z" />
    <glyph glyph-name="parenright" unicode=")" horiz-adv-x="512" 
d="M164 -205h-41q226 450 226 921.5t-226 921.5h41q226 -450 226 -921.5t-226 -921.5z" />
    <glyph glyph-name="asterisk" unicode="*" horiz-adv-x="770" 
d="M416 1255l211 2v-36l-211 2l112 -179l-32 -20l-111 182l-111 -182l-32 20l112 179l-211 -2v36l211 -2l-112 179l32 20l111 -182l111 182l32 -20z" />
    <glyph glyph-name="plus" unicode="+" horiz-adv-x="1064" 
d="M553 735h369v-37h-369v-370h-41v370h-369v37h369v371h41v-371z" />
    <glyph glyph-name="comma" unicode="," horiz-adv-x="389" 
d="M203 72h53l-86 -359h-37z" />
    <glyph glyph-name="hyphen" unicode="-" horiz-adv-x="1146" 
d="M942 614h-737v37h737v-37z" />
    <glyph glyph-name="period" unicode="." horiz-adv-x="368" 
d="M219 -6q-21 -21 -49 -11t-35.5 35t12.5 50q21 23 50 13t36 -36t-14 -51z" />
    <glyph glyph-name="slash" unicode="/" horiz-adv-x="1064" 
d="M963 1638l-820 -1843h-41l820 1843h41z" />
    <glyph glyph-name="zero" unicode="0" horiz-adv-x="1290" 
d="M1028 180q-138 -200 -383 -200t-383 200q-139 201 -139 537q0 335 139 536t383 201t383 -201t139 -536q0 -336 -139 -537zM293 203q132 -187 352 -187q221 0 350 187q131 186 131 514q0 326 -131 512q-129 188 -350 188q-220 0 -352 -188q-129 -187 -129 -512
q0 -327 129 -514z" />
    <glyph glyph-name="one" unicode="1" horiz-adv-x="647" 
d="M41 1307l371 127h30v-1434h-41v1391l-350 -119z" />
    <glyph glyph-name="two" unicode="2" horiz-adv-x="1085" 
d="M983 0h-881v37l545 581q254 272 254 457q0 153 -100 246q-104 96 -269 96q-279 0 -387 -246l-32 21q54 124 164 193t255 69q176 0 293 -102t117 -277q0 -197 -268 -483l-518 -555h827v-37z" />
    <glyph glyph-name="three" unicode="3" horiz-adv-x="1140" 
d="M936 1397l-365 -557q196 -9 320 -127q127 -121 127 -303q0 -191 -133 -312q-130 -118 -328 -118q-157 0 -273.5 66.5t-170.5 184.5l32 21q48 -111 155 -173.5t257 -62.5q189 0 303 111q117 114 117 283q0 170 -119 280q-116 113 -311 113h-12l-17 24l373 570h-754v37h799
v-37z" />
    <glyph glyph-name="four" unicode="4" horiz-adv-x="1146" 
d="M911 365h185v-37h-185v-328h-41v328h-798v37l565 1069h45l-565 -1069h753v475h41v-475z" />
    <glyph glyph-name="five" unicode="5" horiz-adv-x="1112" 
d="M219 840h330q205 0 338 -121t133 -309q0 -191 -133 -312q-130 -118 -338 -118q-151 0 -266.5 68.5t-169.5 187.5l32 20q48 -112 153.5 -176t250.5 -64q194 0 311 111q119 113 119 283t-119 280q-116 113 -311 113h-371l43 631h737v-37h-702z" />
    <glyph glyph-name="six" unicode="6" horiz-adv-x="1126" 
d="M563 922q209 0 346 -134q135 -132 135 -337q0 -208 -135 -340q-134 -131 -346 -131t-346 131q-135 132 -135 340q0 159 88 284l502 699h45l-414 -580q118 68 260 68zM242 139q120 -123 321 -123q202 0 322 123q119 125 119 312t-119 309q-119 125 -322 125
q-202 0 -321 -125q-119 -122 -119 -309t119 -312z" />
    <glyph glyph-name="seven" unicode="7" horiz-adv-x="1003" 
d="M61 1397v37h840v-37l-588 -1397h-41l590 1397h-801z" />
    <glyph glyph-name="eight" unicode="8" horiz-adv-x="1134" 
d="M719 741q148 -35 230.5 -132.5t82.5 -239.5q0 -179 -125.5 -284t-339.5 -105t-339.5 105t-125.5 284q0 142 83 239.5t231 132.5q-126 37 -197.5 128t-71.5 218q0 163 117 265t303 102t303 -102t117 -265q0 -127 -71.5 -218t-196.5 -128zM289 1323q-101 -94 -101 -236
q0 -141 101 -235t278 -94q178 0 279 94q100 93 100 235q0 143 -100 236q-101 94 -279 94q-177 0 -278 -94zM254 115q111 -99 313 -99q203 0 314 99q110 98 110 254t-110 254t-314 98q-203 0 -313 -98q-111 -99 -111 -254t111 -254z" />
    <glyph glyph-name="nine" unicode="9" horiz-adv-x="1126" 
d="M1044 983q0 -160 -88 -285l-501 -698h-45l413 580q-118 -68 -260 -68q-212 0 -346 131q-135 132 -135 340q0 206 135 338q136 133 346 133t346 -133q135 -132 135 -338zM242 1292q-119 -122 -119 -309q0 -186 119 -311q120 -123 321 -123q202 0 322 123q119 125 119 311
q0 187 -119 309q-119 125 -322 125q-202 0 -321 -125z" />
    <glyph glyph-name="colon" unicode=":" horiz-adv-x="368" 
d="M219 895q-21 -21 -49 -11t-35.5 35t12.5 50q21 23 50 13t36 -36t-14 -51zM219 -6q-21 -21 -49 -11t-35.5 35t12.5 50q21 23 50 13t36 -36t-14 -51z" />
    <glyph glyph-name="semicolon" unicode=";" horiz-adv-x="409" 
d="M260 895q-21 -21 -49 -11t-35.5 35t12.5 50q21 23 50 13t36 -36t-14 -51zM203 72h53l-86 -359h-37z" />
    <glyph glyph-name="less" unicode="&#x3c;" 
d="M143 735l820 375v-41l-775 -352l775 -352v-41l-820 374v37z" />
    <glyph glyph-name="equal" unicode="=" horiz-adv-x="1085" 
d="M942 903h-799v37h799v-37zM942 494h-799v36h799v-36z" />
    <glyph glyph-name="greater" unicode="&#x3e;" 
d="M143 1069v41l820 -375v-37l-820 -374v41l775 352z" />
    <glyph glyph-name="question" unicode="?" horiz-adv-x="1077" 
d="M532 328h-40q0 94 39 185.5t102 162.5q19 22 58.5 66.5t61 69.5t52.5 67t47 74t28.5 73t12.5 80q0 144 -92.5 227.5t-265.5 83.5q-134 0 -237.5 -65.5t-139.5 -169.5l-35 18q39 110 156 182q116 72 256 72q185 0 292 -93.5t107 -254.5q0 -150 -141 -305
q-110 -121 -145 -169q-116 -156 -116 -304zM547 -6q-21 -21 -49 -11t-35.5 35t12.5 50q21 23 50 13t36 -36t-14 -51z" />
    <glyph glyph-name="at" unicode="@" horiz-adv-x="1708" 
d="M868 1253q219 0 385 -106q163 -101 247.5 -258t84.5 -336q0 -207 -73.5 -310.5t-192.5 -103.5q-90 0 -136 56.5t-46 146.5v27q-37 -85 -114.5 -135t-176.5 -50q-143 0 -238 95q-94 94 -94 233t94 233q95 95 238 95q99 0 176.5 -50t114.5 -135v170h41v-483q0 -78 37 -122
t104 -44q106 0 165.5 99.5t59.5 277.5q0 281 -196 471q-193 193 -480 193q-296 0 -501 -205q-203 -203 -203 -500q0 -306 209 -506q211 -199 532 -199q197 0 342 54l15 -35q-152 -55 -357 -55q-335 0 -559 211q-223 207 -223 530q0 308 213 524q214 217 532 217zM637 303
q82 -82 209 -82q125 0 207 82q84 84 84 209q0 123 -84 207t-207 84q-125 0 -209 -84q-82 -82 -82 -207q0 -127 82 -209z" />
    <glyph glyph-name="A" unicode="A" horiz-adv-x="1286" 
d="M1235 0h-43l-154 391h-790l-154 -391h-43l567 1434h50zM643 1391l-381 -963h762z" />
    <glyph glyph-name="B" unicode="B" horiz-adv-x="1290" 
d="M889 737q131 -27 213 -129q86 -103 86 -233q0 -155 -111 -266q-109 -109 -264 -109h-608v1434h561q150 0 254 -107q106 -106 106 -254q0 -115 -65.5 -207t-171.5 -129zM766 1397h-520v-647h520q131 0 225 94t94 229q0 133 -94 227q-97 97 -225 97zM246 37h567
q138 0 236 98q98 101 98 240t-98 237q-98 101 -236 101h-567v-676z" />
    <glyph glyph-name="C" unicode="C" horiz-adv-x="1564" 
d="M860 -20q-315 0 -528 213q-209 215 -209 524q0 310 209 522q212 215 528 215q190 0 350.5 -88.5t251.5 -241.5l-35 -20q-86 144 -237.5 228.5t-329.5 84.5q-300 0 -500 -203q-196 -202 -196 -497q0 -296 196 -498q200 -203 500 -203q185 0 340.5 89t235.5 239l37 -20
q-88 -159 -252.5 -251.5t-360.5 -92.5z" />
    <glyph glyph-name="D" unicode="D" horiz-adv-x="1515" 
d="M205 1434h512q292 0 483 -209q193 -205 193 -508q0 -302 -193 -510q-192 -207 -483 -207h-512v1434zM246 37h471q276 0 454 196q181 196 181 484q0 287 -181 483q-179 197 -454 197h-471v-1360z" />
    <glyph glyph-name="E" unicode="E" 
d="M246 705v-668h758v-37h-799v1434h788v-37h-747v-656h696v-36h-696z" />
    <glyph glyph-name="F" unicode="F" horiz-adv-x="1075" 
d="M973 1434v-37h-727v-664h717v-37h-717v-696h-41v1434h768z" />
    <glyph glyph-name="G" unicode="G" horiz-adv-x="1679" 
d="M838 641h718v-20q0 -269 -188 -457q-187 -184 -487 -184q-332 0 -545 213t-213 524q0 310 209 522q212 215 528 215q191 0 354.5 -91.5t251.5 -246.5l-34 -20q-83 147 -236 233q-152 88 -336 88q-300 0 -500 -203q-196 -202 -196 -497q0 -294 201 -498q203 -203 516 -203
q280 0 454 168q177 171 183 420h-680v37z" />
    <glyph glyph-name="H" unicode="H" horiz-adv-x="1433" 
d="M1188 756v678h41v-1434h-41v719h-942v-719h-41v1434h41v-678h942z" />
    <glyph glyph-name="I" unicode="I" horiz-adv-x="450" 
d="M205 0v1434h41v-1434h-41z" />
    <glyph glyph-name="J" unicode="J" horiz-adv-x="1134" 
d="M510 -20q-148 0 -254 60.5t-154 170.5l33 20q89 -215 375 -215q184 0 291.5 97.5t107.5 255.5v1065h41v-1065q0 -175 -123 -283q-121 -106 -317 -106z" />
    <glyph glyph-name="K" unicode="K" horiz-adv-x="1136" 
d="M291 737l825 -737h-55l-815 727v-727h-41v1434h41v-686l794 686h56z" />
    <glyph glyph-name="L" unicode="L" horiz-adv-x="1024" 
d="M246 1434v-1397h717v-37h-758v1434h41z" />
    <glyph glyph-name="M" unicode="M" horiz-adv-x="1679" 
d="M1421 1434h54v-1434h-41v1378l-586 -950h-17l-585 950v-1378h-41v1434h53l582 -947z" />
    <glyph glyph-name="N" unicode="N" horiz-adv-x="1433" 
d="M1188 70v1364h41v-1434h-41l-942 1364v-1364h-41v1434h41z" />
    <glyph glyph-name="O" unicode="O" horiz-adv-x="1720" 
d="M1380 195q-215 -215 -520 -215q-304 0 -522 215q-215 218 -215 522q0 305 215 520q217 217 522 217q306 0 520 -217q217 -214 217 -520q0 -305 -217 -522zM367 221q205 -205 493 -205q290 0 492 205q204 204 204 496q0 291 -204 495q-202 205 -492 205q-288 0 -493 -205
q-203 -206 -203 -495q0 -290 203 -496z" />
    <glyph glyph-name="P" unicode="P" horiz-adv-x="1187" 
d="M205 1434h440q190 0 316 -123q124 -121 124 -307q0 -187 -124 -308q-126 -123 -316 -123h-399v-573h-41v1434zM246 610h399q173 0 287 111q112 112 112 283t-112 280q-113 113 -287 113h-399v-787z" />
    <glyph glyph-name="Q" unicode="Q" horiz-adv-x="1730" 
d="M1597 717q0 -161 -65 -305.5t-182 -247.5l178 -176l-27 -27l-180 180q-196 -161 -461 -161q-304 0 -522 215q-215 218 -215 522q0 305 215 520q217 217 522 217q306 0 520 -217q217 -214 217 -520zM860 16q239 0 432 152l-327 326l26 24l330 -325q111 97 173 234t62 290
q0 291 -204 495q-202 205 -492 205q-288 0 -493 -205q-203 -206 -203 -495q0 -290 203 -496q205 -205 493 -205z" />
    <glyph glyph-name="R" unicode="R" horiz-adv-x="1269" 
d="M840 623l368 -623h-45l-364 616q-8 -2 -41 -2h-512v-614h-41v1434h553q168 0 289 -121q120 -120 120 -289q0 -147 -94 -260q-91 -114 -233 -141zM246 1397v-746h512q151 0 260 109q108 111 108 264q0 154 -108 262q-108 111 -260 111h-512z" />
    <glyph glyph-name="S" unicode="S" horiz-adv-x="1167" 
d="M618 -20q-193 0 -328 87.5t-177 227.5l34 20q37 -136 162.5 -217.5t308.5 -81.5q193 0 299.5 95t106.5 247q0 126 -100.5 206t-311.5 143q-109 31 -178 60t-135 71q-129 84 -129 245q0 155 117 263q120 108 305 108q159 0 270 -77.5t162 -211.5l-33 -18
q-105 270 -399 270q-181 0 -281 -100t-100 -234q0 -106 80 -186q25 -25 96 -63q87 -40 109 -48q8 -2 53.5 -18t79.5 -27q228 -73 332 -158t104 -225q0 -171 -120.5 -274.5t-326.5 -103.5z" />
    <glyph glyph-name="T" unicode="T" 
d="M61 1434h983v-37h-471v-1397h-41v1397h-471v37z" />
    <glyph glyph-name="U" unicode="U" horiz-adv-x="1392" 
d="M184 461v973h41v-973q0 -193 121 -320q122 -125 350 -125q229 0 348 125q123 126 123 320v973h41v-973q0 -212 -139 -348q-139 -133 -373 -133q-235 0 -374 133q-138 135 -138 348z" />
    <glyph glyph-name="V" unicode="V" horiz-adv-x="1224" 
d="M637 0h-49l-547 1434h43l528 -1389l529 1389h43z" />
    <glyph glyph-name="W" unicode="W" horiz-adv-x="2007" 
d="M547 0h-49l-416 1434h41l399 -1385l457 1385h49l457 -1385l399 1385h41l-416 -1434h-49l-456 1384z" />
    <glyph glyph-name="X" unicode="X" horiz-adv-x="1146" 
d="M598 731l487 -731h-49l-463 694l-462 -694h-50l488 731l-469 703h49l444 -666l445 666h49z" />
    <glyph glyph-name="Y" unicode="Y" horiz-adv-x="1146" 
d="M1081 1434h45l-532 -840v-594h-41v594l-533 840h46l507 -805z" />
    <glyph glyph-name="Z" unicode="Z" horiz-adv-x="1085" 
d="M983 1397l-836 -1360h857v-37h-902v37l838 1360h-817v37h860v-37z" />
    <glyph glyph-name="bracketleft" unicode="[" horiz-adv-x="552" 
d="M512 1638v-39h-328v-1765h328v-39h-369v1843h369z" />
    <glyph glyph-name="backslash" unicode="\" horiz-adv-x="1064" 
d="M963 -205h-41l-820 1843h41z" />
    <glyph glyph-name="bracketright" unicode="]" horiz-adv-x="552" 
d="M41 1638h369v-1843h-369v39h328v1765h-328v39z" />
    <glyph glyph-name="asciicircum" unicode="^" horiz-adv-x="1036" 
d="M502 1434h33l358 -615h-45l-330 565l-330 -565h-45z" />
    <glyph glyph-name="underscore" unicode="_" horiz-adv-x="983" 
d="M901 -242h-819v37h819v-37z" />
    <glyph glyph-name="grave" unicode="`" horiz-adv-x="288" 
d="M248 1167h-35l-172 246h43z" />
    <glyph glyph-name="a" unicode="a" horiz-adv-x="1355" 
d="M1130 711v313h41v-1024h-41v313q-59 -151 -192 -243q-134 -90 -301 -90q-223 0 -379 153t-156 379t156 379t379 153q168 0 301 -92q133 -89 192 -241zM287 160q144 -144 350 -144t350 144q143 143 143 352t-143 352q-144 144 -350 144t-350 -144t-144 -352t144 -352z" />
    <glyph glyph-name="b" unicode="b" horiz-adv-x="1355" 
d="M719 1044q223 0 379 -153q155 -152 155 -379t-155 -379q-156 -153 -379 -153q-171 0 -305 94q-134 96 -189 248v-322h-41v1434h41v-732q55 152 189 248q134 94 305 94zM369 160q144 -144 350 -144t350 144q143 143 143 352t-143 352q-144 144 -350 144t-350 -144
t-144 -352t144 -352z" />
    <glyph glyph-name="c" unicode="c" horiz-adv-x="1185" 
d="M637 -20q-228 0 -381 153q-154 154 -154 379t154 379q153 153 381 153q149 0 269 -67t177 -182l-32 -21q-55 107 -165.5 170.5t-248.5 63.5q-213 0 -354 -144q-140 -143 -140 -352q0 -208 140 -354q142 -142 354 -142q138 0 248 63.5t166 170.5l32 -21
q-57 -115 -177 -182t-269 -67z" />
    <glyph glyph-name="d" unicode="d" horiz-adv-x="1355" 
d="M1130 702v732h41v-1434h-41v322q-56 -154 -190 -248q-131 -94 -303 -94q-223 0 -379 153t-156 379t156 379t379 153q172 0 303 -94q134 -94 190 -248zM287 160q144 -144 350 -144t350 144q143 143 143 352t-143 352q-144 144 -350 144t-350 -144t-144 -352t144 -352z" />
    <glyph glyph-name="e" unicode="e" horiz-adv-x="1226" 
d="M621 1044q224 0 362 -159q141 -156 141 -377v-21h-981q9 -209 146 -340t340 -131q134 0 242 57t159 154l35 -20q-61 -105 -176 -166t-260 -61q-228 0 -377 149q-150 150 -150 383q0 227 146 379q147 153 373 153zM143 524h944q-12 215 -145 348q-133 136 -321 136
q-200 0 -338 -138q-137 -137 -140 -346z" />
    <glyph glyph-name="f" unicode="f" horiz-adv-x="612" 
d="M612 1454v-37q-325 27 -325 -311v-82h325v-37h-325v-987h-41v987h-185v37h185v82q0 180 92 270.5t274 77.5z" />
    <glyph glyph-name="g" unicode="g" horiz-adv-x="1376" 
d="M1151 702v322h41v-961q0 -229 -134 -361t-370 -132q-172 0 -299 67t-178 175l33 18q46 -98 165 -160.5t279 -62.5q218 0 340.5 122t122.5 334v259q-56 -154 -190 -248q-131 -94 -304 -94q-222 0 -378 153t-156 379t156 379t378 153q173 0 304 -94q134 -94 190 -248z
M307 160q144 -144 350 -144q207 0 351 144q143 143 143 352t-143 352q-144 144 -351 144q-206 0 -350 -144q-143 -143 -143 -352t143 -352z" />
    <glyph glyph-name="h" unicode="h" horiz-adv-x="1177" 
d="M635 1044q172 0 280 -108q109 -109 109 -285v-651h-41v651q0 157 -95.5 257t-254.5 100q-180 0 -295 -127q-113 -125 -113 -332v-549h-41v1434h41v-691q41 144 151 222.5t259 78.5z" />
    <glyph glyph-name="i" unicode="i" horiz-adv-x="409" 
d="M238 1217q-19 -22 -45.5 -12.5t-33.5 33t11 44.5q21 21 47 12.5t32.5 -31.5t-11.5 -46zM225 0h-41v1024h41v-1024z" />
    <glyph glyph-name="j" unicode="j" horiz-adv-x="428" 
d="M203 -184v1208h41v-1208q0 -129 -73.5 -194t-211.5 -52v37q244 -27 244 209zM256 1217q-19 -22 -45.5 -12.5t-33.5 33t11 44.5q21 21 47 12.5t32.5 -31.5t-11.5 -46z" />
    <glyph glyph-name="k" unicode="k" horiz-adv-x="944" 
d="M268 532l615 -532h-58l-600 520v-520h-41v1434h41v-889l580 479h57z" />
    <glyph glyph-name="l" unicode="l" horiz-adv-x="409" 
d="M225 0h-41v1495h41v-1495z" />
    <glyph glyph-name="m" unicode="m" horiz-adv-x="1792" 
d="M1284 1044q162 0 258 -97t96 -277v-670h-41v670q0 159 -84.5 248.5t-228.5 89.5q-158 0 -255 -115.5t-97 -314.5v-578h-41v670q0 160 -82 249t-223 89q-162 0 -261.5 -115t-99.5 -315v-578h-41v1024h41v-248q37 131 133 199.5t228 68.5q133 0 223.5 -72t114.5 -206
q37 135 134.5 206.5t225.5 71.5z" />
    <glyph glyph-name="n" unicode="n" horiz-adv-x="1177" 
d="M635 1044q172 0 280 -108q109 -109 109 -285v-651h-41v651q0 157 -95.5 257t-254.5 100q-180 0 -295 -127q-113 -125 -113 -332v-549h-41v1024h41v-281q41 144 151 222.5t259 78.5z" />
    <glyph glyph-name="o" unicode="o" horiz-adv-x="1273" 
d="M1016 133q-156 -153 -379 -153t-379 153t-156 379t156 379t379 153t379 -153q155 -152 155 -379t-155 -379zM287 160q144 -144 350 -144t350 144q143 143 143 352t-143 352q-144 144 -350 144t-350 -144t-144 -352t144 -352z" />
    <glyph glyph-name="p" unicode="p" horiz-adv-x="1355" 
d="M719 1044q223 0 379 -153q155 -152 155 -379t-155 -379q-156 -153 -379 -153q-171 0 -305 94q-134 96 -189 248v-732h-41v1434h41v-322q55 152 189 248q134 94 305 94zM369 160q144 -144 350 -144t350 144q143 143 143 352t-143 352q-144 144 -350 144t-350 -144
t-144 -352t144 -352z" />
    <glyph glyph-name="q" unicode="q" horiz-adv-x="1355" 
d="M1130 702v322h41v-1434h-41v732q-56 -154 -190 -248q-131 -94 -303 -94q-223 0 -379 153t-156 379t156 379t379 153q172 0 303 -94q134 -94 190 -248zM287 160q144 -144 350 -144t350 144q143 143 143 352t-143 352q-144 144 -350 144t-350 -144t-144 -352t144 -352z" />
    <glyph glyph-name="r" unicode="r" horiz-adv-x="665" 
d="M225 1024v-274q35 137 139.5 211.5t239.5 74.5v-37q-159 0 -270 -114q-109 -115 -109 -316v-569h-41v1024h41z" />
    <glyph glyph-name="s" unicode="s" horiz-adv-x="952" 
d="M184 758q0 -83 64.5 -134t171.5 -73q172 -34 234 -56q172 -61 193 -187q3 -20 3 -42q0 -124 -100 -205t-258 -81q-302 0 -379 215l32 18q65 -197 347 -197q139 0 228 70.5t89 179.5q0 86 -64.5 138.5t-171.5 74.5q-20 5 -62.5 14t-67 15t-64 16.5t-63.5 20.5t-55 25
t-49.5 33t-36 41t-25.5 51.5t-7 62.5q0 125 94 205.5t250 80.5q118 0 204.5 -52.5t123.5 -143.5l-33 -19q-33 82 -111.5 130.5t-183.5 48.5q-136 0 -219.5 -69.5t-83.5 -180.5z" />
    <glyph glyph-name="t" unicode="t" horiz-adv-x="776" 
d="M674 1024v-37h-326v-760q0 -134 73 -175.5t253 -14.5v-37q-193 -31 -280 22t-87 205v760h-246v37h246v274l41 13v-287h326z" />
    <glyph glyph-name="u" unicode="u" horiz-adv-x="1177" 
d="M952 475v549h41v-1024h-41v281q-41 -144 -150.5 -222.5t-258.5 -78.5q-175 0 -283 108q-106 106 -106 285v651h41v-651q0 -157 95.5 -257t254.5 -100q180 0 293 125q114 126 114 334z" />
    <glyph glyph-name="v" unicode="v" horiz-adv-x="1048" 
d="M524 45l441 979h43l-461 -1024h-45l-461 1024h43z" />
    <glyph glyph-name="w" unicode="w" horiz-adv-x="1576" 
d="M1135 59l317 965h43l-336 -1024h-45l-326 969l-325 -969h-45l-336 1024h43l317 -965l322 965h49z" />
    <glyph glyph-name="x" unicode="x" horiz-adv-x="1024" 
d="M537 524l426 -524h-52l-399 494l-399 -494h-52l426 524l-405 500h49l381 -469l381 469h49z" />
    <glyph glyph-name="y" unicode="y" horiz-adv-x="1044" 
d="M553 2l410 1022h41l-449 -1118q-62 -154 -167.5 -240t-223.5 -76v37q105 -7 199.5 71t154.5 220l14 37l-491 1069h41z" />
    <glyph glyph-name="z" unicode="z" horiz-adv-x="1003" 
d="M881 1001l-703 -964h723v-37h-778v23l702 964h-682v37h738v-23z" />
    <glyph glyph-name="braceleft" unicode="{" horiz-adv-x="692" 
d="M651 -186v-37q-138 -13 -211 52t-73 194v469q0 109 -58 158.5t-186 49.5v37q127 0 185.5 50t58.5 159v467q0 129 73 194t211 52v-37q-243 27 -243 -209v-467q0 -199 -170 -229q170 -27 170 -225v-469q0 -236 243 -209z" />
    <glyph glyph-name="bar" unicode="|" horiz-adv-x="450" 
d="M246 -410h-41v1885h41v-1885z" />
    <glyph glyph-name="braceright" unicode="}" horiz-adv-x="692" 
d="M41 -223v37q244 -27 244 209v469q0 198 170 225q-170 30 -170 229v467q0 236 -244 209v37q138 13 211.5 -52t73.5 -194v-467q0 -109 58 -159t185 -50v-37q-127 0 -185 -49.5t-58 -158.5v-469q0 -129 -73.5 -194t-211.5 -52z" />
    <glyph glyph-name="asciitilde" unicode="~" horiz-adv-x="1171" 
d="M991 827l37 -16q-18 -79 -76 -139q-34 -41 -83 -57t-126.5 3t-167.5 82q-97 70 -178 84.5t-121 -24.5q-73 -60 -96 -154l-37 17q18 79 76 139q131 139 377 -29q65 -47 123.5 -69t102.5 -19t73 27q73 63 96 155z" />
    <glyph glyph-name="exclamdown" unicode="&#xa1;" horiz-adv-x="409" 
d="M168 1030q21 23 50 13t36 -36t-14 -51q-21 -21 -49 -11t-35.5 35t12.5 50zM184 -410v1106h41v-1106h-41z" />
    <glyph glyph-name="cent" unicode="&#xa2;" horiz-adv-x="1185" 
d="M637 221q138 0 248 63.5t166 170.5l32 -21q-57 -116 -177 -183t-269 -67q-93 0 -170 27l-72 -211h-41l76 223q-150 60 -239 193.5t-89 300.5q0 225 154 379q153 153 381 153q62 0 133 -14l68 199h41l-72 -209q193 -61 276 -226l-32 -20q-76 156 -254 209l-320 -942
q77 -25 160 -25zM143 717q0 -154 81.5 -278.5t217.5 -180.5l316 940q-49 14 -121 14q-214 0 -354 -143t-140 -352z" />
    <glyph glyph-name="sterling" unicode="&#xa3;" horiz-adv-x="1228" 
d="M369 616v-579h819v-37h-1086v37h226v579h-185v37h185v422q0 170 112 273q112 106 287 106q273 0 365 -252l-33 -20q-79 235 -332 235q-164 0 -262 -98q-96 -96 -96 -244v-422h532v-37h-532z" />
    <glyph glyph-name="currency" unicode="&#xa4;" horiz-adv-x="1134" 
d="M999 717q0 -170 -112 -291l145 -147l-28 -25l-146 143q-119 -110 -291 -110q-171 0 -293 110l-143 -143l-29 25l146 145q-113 122 -113 293t113 293l-146 145l29 25l145 -144q120 111 291 111q170 0 293 -111l144 144l28 -25l-145 -145q112 -121 112 -293zM289 995
q-113 -113 -113 -278q0 -168 113 -281q112 -112 278 -112q165 0 277 112q114 114 114 281q0 164 -114 278q-115 115 -277 115q-163 0 -278 -115z" />
    <glyph glyph-name="yen" unicode="&#xa5;" horiz-adv-x="1146" 
d="M1081 1434h45l-471 -744h340v-37h-364l-37 -59v-166h401v-37h-401v-391h-41v391h-397v37h397v166l-37 59h-360v37h336l-472 744h46l469 -744h77zM557 653l16 -24l17 24h-33z" />
    <glyph glyph-name="brokenbar" unicode="&#xa6;" horiz-adv-x="450" 
d="M246 717h-41v758h41v-758zM246 -410h-41v758h41v-758z" />
    <glyph glyph-name="section" unicode="&#xa7;" horiz-adv-x="1034" 
d="M791 276q100 -84 100 -213q0 -126 -98 -208q-101 -84 -261 -84q-297 0 -380 256l32 20q76 -240 348 -240q142 0 230 70.5t88 185.5q0 125 -111 199q-53 40 -100.5 65t-136.5 64q-186 79 -256 133q-103 83 -103 193q0 148 142 231q-101 82 -101 207q0 130 95.5 214.5
t248.5 84.5q126 0 219.5 -59t135.5 -168l-33 -19q-83 209 -322 209q-134 0 -218.5 -74t-84.5 -188q0 -139 158 -229q38 -20 201 -92q113 -52 129 -60q34 -15 102 -61q117 -77 117 -205q0 -149 -141 -232zM184 717q0 -111 107 -182q91 -54 100 -58q14 -6 32.5 -14t46.5 -19.5
t48 -19.5q169 -67 240 -121q63 32 98 87t35 118q0 110 -105 180q-46 33 -96 57q-45 24 -123 56q-184 78 -250 123q-133 -71 -133 -207z" />
    <glyph glyph-name="dieresis" unicode="&#xa8;" horiz-adv-x="491" 
d="M111 1200q-17 -17 -39.5 -9.5t-28 27t9.5 39.5q17 17 39.5 9.5t28 -27t-9.5 -39.5zM438 1200q-17 -17 -39 -9.5t-27.5 27t9.5 39.5q17 17 39 9.5t27.5 -27t-9.5 -39.5z" />
    <glyph glyph-name="copyright" unicode="&#xa9;" horiz-adv-x="1728" 
d="M1389 195q-218 -215 -525 -215q-306 0 -524 215q-217 214 -217 522t217 522q218 215 524 215q307 0 525 -215q217 -214 217 -522t-217 -522zM369 221q205 -205 495 -205q291 0 496 205t205 496q0 290 -205 495t-496 205q-290 0 -495 -205t-205 -495q0 -291 205 -496z
M870 324q-172 0 -284 112q-113 113 -113 281q0 165 113 278q115 115 284 115q109 0 196.5 -50.5t135.5 -139.5l-35 -19q-42 80 -120 126t-177 46q-155 0 -256 -104q-100 -100 -100 -252q0 -151 100 -254q103 -103 256 -103q99 0 177 46t120 126l35 -18q-44 -88 -133 -139
t-199 -51z" />
    <glyph glyph-name="guillemotleft" unicode="&#xab;" horiz-adv-x="868" 
d="M410 961h45l-205 -328l205 -328h-45l-205 328zM618 961h46l-205 -328l205 -328h-46l-204 328z" />
    <glyph glyph-name="logicalnot" unicode="&#xac;" horiz-adv-x="1064" 
d="M143 745v37h779v-327h-41v290h-738z" />
    <glyph glyph-name="registered" unicode="&#xae;" horiz-adv-x="1728" 
d="M340 1239q218 215 524 215q307 0 525 -215q217 -214 217 -522t-217 -522q-218 -215 -525 -215q-306 0 -524 215q-217 214 -217 522t217 522zM369 221q205 -205 495 -205q291 0 496 205t205 496q0 290 -205 495t-496 205q-290 0 -495 -205t-205 -495q0 -291 205 -496z
M1139 872q0 -182 -185 -217l199 -317h-45l-195 313q-8 -2 -41 -2h-172v-311h-41v758h213q128 0 197.5 -64t69.5 -160zM700 1059v-373h172q226 0 226 186q0 82 -60 134.5t-166 52.5h-172z" />
    <glyph glyph-name="overscore" unicode="&#xaf;" horiz-adv-x="573" 
d="M532 1231h-491v33h491v-33z" />
    <glyph glyph-name="degree" unicode="&#xb0;" horiz-adv-x="790" 
d="M395 1085q-125 0 -209 84t-84 203t84 203t209 84t209 -84t84 -203q0 -121 -84 -205q-82 -82 -209 -82zM395 1122q108 0 180 72t72 178t-73 178t-179 72t-179 -72t-73 -178t73 -178t179 -72z" />
    <glyph glyph-name="plusminus" unicode="&#xb1;" horiz-adv-x="1064" 
d="M553 1229v-371h369v-37h-369v-370h-41v370h-369v37h369v371h41zM922 205h-779v37h779v-37z" />
    <glyph glyph-name="acute" unicode="&#xb4;" horiz-adv-x="288" 
d="M41 1167l164 246h43l-170 -246h-37z" />
    <glyph glyph-name="uni00B5" unicode="&#xb5;" horiz-adv-x="1249" 
d="M1126 37h41v-37h-41q-68 0 -105.5 38t-37.5 105v138q-41 -144 -151 -222.5t-259 -78.5q-124 0 -215.5 57t-132.5 160v-607h-41v1434h41v-651q0 -157 95.5 -257t254.5 -100q180 0 293 125q115 127 115 334v549h41v-881q0 -51 27 -78.5t75 -27.5z" />
    <glyph glyph-name="paragraph" unicode="&#xb6;" horiz-adv-x="1126" 
d="M471 1434h553v-37h-123v-1807h-41v1807h-348v-1807h-41v1106q-153 0 -262 109q-107 107 -107 260t107 260q109 109 262 109z" />
    <glyph glyph-name="middot" unicode="&#xb7;" horiz-adv-x="368" 
d="M219 649q-21 -21 -49 -11t-35.5 35t12.5 50q21 23 50 13t36 -36t-14 -51z" />
    <glyph glyph-name="cedilla" unicode="&#xb8;" horiz-adv-x="399" 
d="M199 0v-162q72 6 126 -28t54 -97q0 -80 -93 -115t-266 -12v33q322 -40 322 94q0 107 -180 92v195h37z" />
    <glyph glyph-name="guillemotright" unicode="&#xbb;" horiz-adv-x="868" 
d="M205 961h45l205 -328l-205 -328h-45l205 328zM414 961h45l205 -328l-205 -328h-45l204 328z" />
    <glyph glyph-name="onequarter" unicode="&#xbc;" horiz-adv-x="1728" 
d="M338 614h-41v766l-244 -90l-12 37l276 107h21v-820zM297 0l860 1434h41l-860 -1434h-41zM1540 221h127v-37h-127v-184h-41v184h-465v37l316 598h41l-314 -598h422v248h41v-248z" />
    <glyph glyph-name="onehalf" unicode="&#xbd;" horiz-adv-x="1701" 
d="M338 614h-41v766l-244 -90l-12 37l276 107h21v-820zM297 0l860 1434h41l-860 -1434h-41zM1491 375l-354 -338h483v-37h-545v31l385 368q103 95 103 207q0 85 -60 143t-160 58q-84 0 -144 -42.5t-81 -111.5l-35 19q25 77 95.5 124.5t167.5 47.5q116 0 187 -68t71 -170
q0 -121 -113 -231z" />
    <glyph glyph-name="threequarters" unicode="&#xbe;" horiz-adv-x="1929" 
d="M610 844q0 -111 -74 -182.5t-200 -71.5q-205 0 -264 151l32 19q53 -133 232 -133q109 0 171 61t62 156t-62 156t-171 61h-6l-19 26l226 310h-445v37h488v-37l-218 -299q115 -7 181.5 -78t66.5 -176zM498 0l860 1434h41l-860 -1434h-41zM1741 221h127v-37h-127v-184h-41
v184h-465v37l315 598h41l-313 -598h422v248h41v-248z" />
    <glyph glyph-name="questiondown" unicode="&#xbf;" horiz-adv-x="1077" 
d="M528 1030q21 23 50 13t36 -36t-14 -51q-21 -21 -49 -11t-35.5 35t12.5 50zM545 696h41q0 -94 -39 -185.5t-103 -164.5q-12 -14 -50 -55.5t-53.5 -59.5t-46.5 -56t-45.5 -63t-32.5 -60t-25 -67.5t-7 -66.5q0 -144 92.5 -227.5t266.5 -83.5q134 0 237.5 65.5t139.5 169.5
l34 -18q-39 -110 -155 -182t-256 -72q-185 0 -292.5 93.5t-107.5 254.5q0 149 142 305q7 7 20 22q45 50 69 77.5t62 79t58 91.5t35.5 94.5t15.5 108.5z" />
    <glyph glyph-name="Agrave" unicode="&#xc0;" horiz-adv-x="1286" 
d="M530 1823l164 -246h-35l-172 246h43zM1235 0h-43l-154 391h-790l-154 -391h-43l567 1434h50zM643 1391l-381 -963h762z" />
    <glyph glyph-name="Aacute" unicode="&#xc1;" horiz-adv-x="1286" 
d="M756 1823h43l-170 -246h-37zM1235 0h-43l-154 391h-790l-154 -391h-43l567 1434h50zM643 1391l-381 -963h762z" />
    <glyph glyph-name="Acircumflex" unicode="&#xc2;" horiz-adv-x="1286" 
d="M846 1577l-207 221l-207 -221h-45l229 246h46l229 -246h-45zM1235 0h-43l-154 391h-790l-154 -391h-43l567 1434h50zM643 1391l-381 -963h762z" />
    <glyph glyph-name="Atilde" unicode="&#xc3;" horiz-adv-x="1286" 
d="M633 1692q-97 94 -157 70.5t-60 -144.5h-35q0 142 82 176q83 35 190 -78q94 -94 155.5 -70t61.5 144h35q0 -139 -84 -174q-81 -34 -188 76zM1235 0h-43l-154 391h-790l-154 -391h-43l567 1434h50zM643 1391l-381 -963h762z" />
    <glyph glyph-name="Adieresis" unicode="&#xc4;" horiz-adv-x="1286" 
d="M508 1610q-17 -17 -39 -9.5t-27.5 27t9.5 39.5q17 17 39 9.5t27.5 -27t-9.5 -39.5zM836 1610q-17 -17 -39.5 -9.5t-28 27t9.5 39.5q17 17 39.5 9.5t28 -27t-9.5 -39.5zM1235 0h-43l-154 391h-790l-154 -391h-43l567 1434h50zM643 1391l-381 -963h762z" />
    <glyph glyph-name="Aring" unicode="&#xc5;" horiz-adv-x="1286" 
d="M1235 0h-43l-154 391h-790l-154 -391h-43l559 1415q-73 7 -117 58t-44 124q0 80 54 132.5t140 52.5q87 0 141 -52.5t54 -132.5q0 -73 -44.5 -124t-117.5 -58zM528 1706q-43 -41 -43 -108.5t43 -110.5q44 -41 114.5 -41t113.5 41q45 42 45 110q0 70 -45 109
q-43 43 -113.5 43t-114.5 -43zM643 1391l-381 -963h762z" />
    <glyph glyph-name="AE" unicode="&#xc6;" horiz-adv-x="1757" 
d="M958 705v-668h697v-37h-737v418h-596l-254 -418h-48l877 1434h748v-37h-687v-656h635v-36h-635zM918 1393l-574 -938h574v938z" />
    <glyph glyph-name="Ccedilla" unicode="&#xc7;" horiz-adv-x="1564" 
d="M1436 344l37 -20q-87 -153 -242.5 -245t-343.5 -99v-142q72 6 126 -28t54 -97q0 -80 -92.5 -115t-265.5 -12v33q321 -40 321 94q0 107 -180 92v175q-312 3 -520 217q-207 216 -207 520q0 310 209 522q212 215 528 215q190 0 350.5 -88.5t251.5 -241.5l-35 -20
q-86 144 -237.5 228.5t-329.5 84.5q-300 0 -500 -203q-196 -202 -196 -497q0 -296 196 -498q200 -203 500 -203q185 0 340.5 89t235.5 239z" />
    <glyph glyph-name="Egrave" unicode="&#xc8;" 
d="M485 1823l164 -246h-35l-172 246h43zM246 705v-668h758v-37h-799v1434h788v-37h-747v-656h696v-36h-696z" />
    <glyph glyph-name="Eacute" unicode="&#xc9;" 
d="M711 1823h43l-170 -246h-37zM246 705v-668h758v-37h-799v1434h788v-37h-747v-656h696v-36h-696z" />
    <glyph glyph-name="Ecircumflex" unicode="&#xca;" 
d="M801 1577l-207 221l-207 -221h-45l229 246h45l230 -246h-45zM246 705v-668h758v-37h-799v1434h788v-37h-747v-656h696v-36h-696z" />
    <glyph glyph-name="Edieresis" unicode="&#xcb;" 
d="M463 1610q-17 -17 -39 -9.5t-27.5 27t9.5 39.5q17 17 39 9.5t27.5 -27t-9.5 -39.5zM791 1610q-17 -17 -39.5 -9.5t-28 27t9.5 39.5q17 17 39.5 9.5t28 -27t-9.5 -39.5zM246 705v-668h758v-37h-799v1434h788v-37h-747v-656h696v-36h-696z" />
    <glyph glyph-name="Igrave" unicode="&#xcc;" horiz-adv-x="450" 
d="M276 1577h-34l-172 246h43zM205 1434v-1434h41v1434h-41z" />
    <glyph glyph-name="Iacute" unicode="&#xcd;" horiz-adv-x="450" 
d="M174 1577l164 246h43l-170 -246h-37zM205 1434v-1434h41v1434h-41z" />
    <glyph glyph-name="Icircumflex" unicode="&#xce;" horiz-adv-x="450" 
d="M199 1823h45l229 -246h-45l-207 221l-207 -221h-45zM246 0h-41v1434h41v-1434z" />
    <glyph glyph-name="Idieresis" unicode="&#xcf;" horiz-adv-x="450" 
d="M90 1610q-17 -17 -39 -9.5t-27.5 27t9.5 39.5q17 17 39 9.5t27.5 -27t-9.5 -39.5zM418 1610q-17 -17 -39.5 -9.5t-28 27t9.5 39.5q17 17 39.5 9.5t28 -27t-9.5 -39.5zM205 0v1434h41v-1434h-41z" />
    <glyph glyph-name="Eth" unicode="&#xd0;" horiz-adv-x="1556" 
d="M246 1434h512q292 0 483 -209q193 -205 193 -508q0 -302 -193 -510q-192 -207 -483 -207h-512v698h-123v37h123v699zM287 37h471q276 0 454 196q181 196 181 484q0 287 -181 483q-179 197 -454 197h-471v-662h573v-37h-573v-661z" />
    <glyph glyph-name="Ntilde" unicode="&#xd1;" horiz-adv-x="1433" 
d="M469 1618h-35q0 142 82 176q84 35 191 -78q94 -94 155.5 -70t61.5 144h34q0 -139 -84 -174q-81 -34 -188 76q-97 94 -157 70.5t-60 -144.5zM1188 70v1364h41v-1434h-41l-942 1364v-1364h-41v1434h41z" />
    <glyph glyph-name="Ograve" unicode="&#xd2;" horiz-adv-x="1720" 
d="M932 1577h-35l-172 246h43zM1380 195q217 217 217 522q0 306 -217 520q-214 217 -520 217q-305 0 -522 -217q-215 -215 -215 -520q0 -304 215 -522q218 -215 522 -215q305 0 520 215zM367 221q-203 206 -203 496q0 289 203 495q205 205 493 205q290 0 492 -205
q204 -204 204 -495q0 -292 -204 -496q-202 -205 -492 -205q-288 0 -493 205z" />
    <glyph glyph-name="Oacute" unicode="&#xd3;" horiz-adv-x="1720" 
d="M842 1577l164 246h43l-170 -246h-37zM1380 195q217 217 217 522q0 306 -217 520q-214 217 -520 217q-305 0 -522 -217q-215 -215 -215 -520q0 -304 215 -522q218 -215 522 -215q305 0 520 215zM367 221q-203 206 -203 496q0 289 203 495q205 205 493 205q290 0 492 -205
q204 -204 204 -495q0 -292 -204 -496q-202 -205 -492 -205q-288 0 -493 205z" />
    <glyph glyph-name="Ocircumflex" unicode="&#xd4;" horiz-adv-x="1720" 
d="M1065 1577l-207 221l-207 -221h-45l230 246h45l229 -246h-45zM338 1237q217 217 522 217q306 0 520 -217q217 -214 217 -520q0 -305 -217 -522q-215 -215 -520 -215q-304 0 -522 215q-215 218 -215 522q0 305 215 520zM367 221q205 -205 493 -205q290 0 492 205
q204 204 204 496q0 291 -204 495q-202 205 -492 205q-288 0 -493 -205q-203 -206 -203 -495q0 -290 203 -496z" />
    <glyph glyph-name="Otilde" unicode="&#xd5;" horiz-adv-x="1720" 
d="M651 1618h-35q0 142 82 176q84 35 191 -78q94 -94 155.5 -70t61.5 144h35q0 -139 -84 -174q-82 -34 -189 76q-97 94 -157 70.5t-60 -144.5zM1380 195q-215 -215 -520 -215q-304 0 -522 215q-215 218 -215 522q0 305 215 520q217 217 522 217q306 0 520 -217
q217 -214 217 -520q0 -305 -217 -522zM367 221q205 -205 493 -205q290 0 492 205q204 204 204 496q0 291 -204 495q-202 205 -492 205q-288 0 -493 -205q-203 -206 -203 -495q0 -290 203 -496z" />
    <glyph glyph-name="Odieresis" unicode="&#xd6;" horiz-adv-x="1720" 
d="M725 1610q-17 -17 -39 -9.5t-27.5 27t9.5 39.5q17 17 39 9.5t27.5 -27t-9.5 -39.5zM1053 1610q-17 -17 -39.5 -9.5t-28 27t9.5 39.5q17 17 39.5 9.5t28 -27t-9.5 -39.5zM1380 195q-215 -215 -520 -215q-304 0 -522 215q-215 218 -215 522q0 305 215 520q217 217 522 217
q306 0 520 -217q217 -214 217 -520q0 -305 -217 -522zM367 221q205 -205 493 -205q290 0 492 205q204 204 204 496q0 291 -204 495q-202 205 -492 205q-288 0 -493 -205q-203 -206 -203 -495q0 -290 203 -496z" />
    <glyph glyph-name="multiply" unicode="&#xd7;" horiz-adv-x="950" 
d="M778 1047l29 -25l-305 -305l305 -305l-29 -25l-303 303l-303 -303l-29 25l306 305l-306 305l29 25l303 -304z" />
    <glyph glyph-name="Oslash" unicode="&#xd8;" horiz-adv-x="1740" 
d="M1503 1415l-129 -149q244 -221 244 -549q0 -305 -217 -522q-215 -215 -520 -215q-269 0 -467 165l-125 -145l-31 18l129 150q-244 221 -244 549q0 305 215 520q217 217 523 217q268 0 467 -166l125 146zM184 717q0 -150 60.5 -285t167.5 -233l911 1061q-195 157 -442 157
q-289 0 -494 -205q-203 -206 -203 -495zM881 16q289 0 491 205q205 205 205 496q0 150 -60 285t-167 233l-912 -1061q196 -158 443 -158z" />
    <glyph glyph-name="Ugrave" unicode="&#xd9;" horiz-adv-x="1392" 
d="M737 1577h-35l-172 246h43zM184 461q0 -213 138 -348q139 -133 374 -133q234 0 373 133q139 136 139 348v973h-41v-973q0 -194 -123 -320q-119 -125 -348 -125q-228 0 -350 125q-121 127 -121 320v973h-41v-973z" />
    <glyph glyph-name="Uacute" unicode="&#xda;" horiz-adv-x="1392" 
d="M668 1577l163 246h43l-169 -246h-37zM184 461q0 -213 138 -348q139 -133 374 -133q234 0 373 133q139 136 139 348v973h-41v-973q0 -194 -123 -320q-119 -125 -348 -125q-228 0 -350 125q-121 127 -121 320v973h-41v-973z" />
    <glyph glyph-name="Ucircumflex" unicode="&#xdb;" horiz-adv-x="1392" 
d="M889 1577l-207 221l-207 -221h-45l229 246h46l229 -246h-45zM1167 461v973h41v-973q0 -212 -139 -348q-139 -133 -373 -133q-235 0 -374 133q-138 135 -138 348v973h41v-973q0 -193 121 -320q122 -125 350 -125q229 0 348 125q123 126 123 320z" />
    <glyph glyph-name="Udieresis" unicode="&#xdc;" horiz-adv-x="1392" 
d="M551 1610q-17 -17 -39 -9.5t-27.5 27t9.5 39.5q17 17 39 9.5t27.5 -27t-9.5 -39.5zM879 1610q-17 -17 -39.5 -9.5t-28 27t9.5 39.5q17 17 39.5 9.5t28 -27t-9.5 -39.5zM184 461v973h41v-973q0 -193 121 -320q122 -125 350 -125q229 0 348 125q123 126 123 320v973h41
v-973q0 -212 -139 -348q-139 -133 -373 -133q-235 0 -374 133q-138 135 -138 348z" />
    <glyph glyph-name="Yacute" unicode="&#xdd;" horiz-adv-x="1146" 
d="M711 1823h43l-170 -246h-37zM1081 1434h45l-532 -840v-594h-41v594l-533 840h46l507 -805z" />
    <glyph glyph-name="Thorn" unicode="&#xde;" horiz-adv-x="1187" 
d="M246 1147h399q190 0 316 -123q124 -121 124 -307t-124 -307q-126 -123 -316 -123h-399v-287h-41v1434h41v-287zM246 324h399q174 0 287 110q112 112 112 283t-112 280q-113 113 -287 113h-399v-786z" />
    <glyph glyph-name="germandbls" unicode="&#xdf;" horiz-adv-x="1056" 
d="M596 -10v37q167 -7 262.5 63.5t95.5 198.5q0 68 -45 143.5t-110 136.5q-156 148 -156 238q0 36 20.5 70t49.5 63t57.5 59.5t49 71.5t20.5 86q0 115 -75 187.5t-206 72.5q-158 0 -246 -97t-88 -261v-1059h-41v1059q0 184 101 289.5t274 105.5q149 0 235.5 -84t86.5 -213
q2 -45 -18.5 -90.5t-51 -80.5t-61.5 -66t-51.5 -60.5t-18.5 -52.5q0 -75 158 -221q66 -59 111.5 -139.5t45.5 -157.5q0 -143 -107.5 -224.5t-291.5 -74.5z" />
    <glyph glyph-name="agrave" unicode="&#xe0;" horiz-adv-x="1355" 
d="M612 1413l164 -246h-35l-172 246h43zM1130 711v313h41v-1024h-41v313q-59 -151 -192 -243q-134 -90 -301 -90q-223 0 -379 153t-156 379t156 379t379 153q168 0 301 -92q133 -89 192 -241zM287 160q144 -144 350 -144t350 144q143 143 143 352t-143 352
q-144 144 -350 144t-350 -144t-144 -352t144 -352z" />
    <glyph glyph-name="aacute" unicode="&#xe1;" horiz-adv-x="1355" 
d="M813 1413h43l-170 -246h-37zM1130 711v313h41v-1024h-41v313q-59 -151 -192 -243q-134 -90 -301 -90q-223 0 -379 153t-156 379t156 379t379 153q168 0 301 -92q133 -89 192 -241zM287 160q144 -144 350 -144t350 144q143 143 143 352t-143 352q-144 144 -350 144
t-350 -144t-144 -352t144 -352z" />
    <glyph glyph-name="acircumflex" unicode="&#xe2;" horiz-adv-x="1355" 
d="M926 1167l-207 222l-207 -222h-45l229 246h45l230 -246h-45zM1130 711v313h41v-1024h-41v313q-59 -151 -192 -243q-134 -90 -301 -90q-223 0 -379 153t-156 379t156 379t379 153q168 0 301 -92q133 -89 192 -241zM287 160q144 -144 350 -144t350 144q143 143 143 352
t-143 352q-144 144 -350 144t-350 -144t-144 -352t144 -352z" />
    <glyph glyph-name="atilde" unicode="&#xe3;" horiz-adv-x="1355" 
d="M723 1282q-97 94 -157 70.5t-60 -144.5h-35q0 142 82 176q84 35 190 -77q94 -94 156 -70.5t62 143.5h34q0 -139 -84 -174q-81 -34 -188 76zM1130 711v313h41v-1024h-41v313q-59 -151 -192 -243q-134 -90 -301 -90q-223 0 -379 153t-156 379t156 379t379 153
q168 0 301 -92q133 -89 192 -241zM287 160q144 -144 350 -144t350 144q143 143 143 352t-143 352q-144 144 -350 144t-350 -144t-144 -352t144 -352z" />
    <glyph glyph-name="adieresis" unicode="&#xe4;" horiz-adv-x="1355" 
d="M500 1200q-17 -17 -39.5 -9.5t-28 27t9.5 39.5q17 17 39.5 9.5t28 -27t-9.5 -39.5zM827 1200q-17 -17 -39 -9.5t-27.5 27t9.5 39.5q17 17 39 9.5t27.5 -27t-9.5 -39.5zM1130 711v313h41v-1024h-41v313q-59 -151 -192 -243q-134 -90 -301 -90q-223 0 -379 153t-156 379
t156 379t379 153q168 0 301 -92q133 -89 192 -241zM287 160q144 -144 350 -144t350 144q143 143 143 352t-143 352q-144 144 -350 144t-350 -144t-144 -352t144 -352z" />
    <glyph glyph-name="aring" unicode="&#xe5;" horiz-adv-x="1355" 
d="M635 1147q-86 0 -140.5 52t-54.5 132t54.5 132.5t140.5 52.5q87 0 140.5 -52.5t53.5 -132.5t-53.5 -132t-140.5 -52zM748 1440q-43 43 -113.5 43t-114.5 -43q-43 -41 -43 -108.5t43 -110.5q44 -41 114.5 -41t113.5 41q45 42 45 110q0 70 -45 109zM1130 711v313h41v-1024
h-41v313q-59 -151 -192 -243q-134 -90 -301 -90q-223 0 -379 153t-156 379t156 379t379 153q168 0 301 -92q133 -89 192 -241zM287 160q144 -144 350 -144t350 144q143 143 143 352t-143 352q-144 144 -350 144t-350 -144t-144 -352t144 -352z" />
    <glyph glyph-name="ae" unicode="&#xe6;" horiz-adv-x="2250" 
d="M1651 1044q229 0 362 -157q135 -156 135 -379v-21h-977q9 -208 144 -340q137 -131 344 -131q141 0 249.5 56t159.5 155l35 -20q-61 -107 -177 -167t-267 -60q-177 0 -306.5 89t-185.5 244v-313h-37v313q-59 -151 -192 -243q-134 -90 -301 -90q-223 0 -379 153t-156 379
t156 379t379 153q168 0 301 -92q133 -89 192 -241v313h37v-313q54 154 183 243.5t301 89.5zM287 160q144 -144 350 -144t350 144q143 143 143 352t-143 352q-144 144 -350 144t-350 -144t-144 -352t144 -352zM1171 524h940q-12 217 -139 350q-128 134 -321 134
q-206 0 -342 -136q-135 -138 -138 -348z" />
    <glyph glyph-name="ccedilla" unicode="&#xe7;" horiz-adv-x="1185" 
d="M637 16q138 0 248 63.5t166 170.5l32 -21q-54 -109 -164 -175.5t-249 -73.5v-142q72 6 126 -28t54 -97q0 -80 -92.5 -115t-265.5 -12v33q321 -40 321 94q0 107 -180 92v175q-229 3 -379 153q-152 155 -152 379q0 225 154 379q153 153 381 153q149 0 269 -67t177 -182
l-32 -21q-55 107 -165.5 170.5t-248.5 63.5q-213 0 -354 -144q-140 -143 -140 -352q0 -208 140 -354q142 -142 354 -142z" />
    <glyph glyph-name="egrave" unicode="&#xe8;" horiz-adv-x="1226" 
d="M532 1413l164 -246h-34l-173 246h43zM621 1044q224 0 362 -159q141 -156 141 -377v-21h-981q9 -209 146 -340t340 -131q134 0 242 57t159 154l35 -20q-61 -105 -176 -166t-260 -61q-228 0 -377 149q-150 150 -150 383q0 227 146 379q147 153 373 153zM143 524h944
q-12 215 -145 348q-133 136 -321 136q-200 0 -338 -138q-137 -137 -140 -346z" />
    <glyph glyph-name="eacute" unicode="&#xe9;" horiz-adv-x="1226" 
d="M745 1413h43l-170 -246h-36zM621 1044q224 0 362 -159q141 -156 141 -377v-21h-981q9 -209 146 -340t340 -131q134 0 242 57t159 154l35 -20q-61 -105 -176 -166t-260 -61q-228 0 -377 149q-150 150 -150 383q0 227 146 379q147 153 373 153zM143 524h944
q-12 215 -145 348q-133 136 -321 136q-200 0 -338 -138q-137 -137 -140 -346z" />
    <glyph glyph-name="ecircumflex" unicode="&#xea;" horiz-adv-x="1226" 
d="M831 1167l-206 222l-207 -222h-45l229 246h45l230 -246h-46zM621 1044q224 0 362 -159q141 -156 141 -377v-21h-981q9 -209 146 -340t340 -131q134 0 242 57t159 154l35 -20q-61 -105 -176 -166t-260 -61q-228 0 -377 149q-150 150 -150 383q0 227 146 379
q147 153 373 153zM143 524h944q-12 215 -145 348q-133 136 -321 136q-200 0 -338 -138q-137 -137 -140 -346z" />
    <glyph glyph-name="edieresis" unicode="&#xeb;" horiz-adv-x="1226" 
d="M473 1200q-17 -17 -39 -9.5t-27.5 27t9.5 39.5q17 17 39 9.5t27.5 -27t-9.5 -39.5zM801 1200q-17 -17 -39.5 -9.5t-28 27t9.5 39.5q17 17 39.5 9.5t28 -27t-9.5 -39.5zM621 1044q224 0 362 -159q141 -156 141 -377v-21h-981q9 -209 146 -340t340 -131q134 0 242 57
t159 154l35 -20q-61 -105 -176 -166t-260 -61q-228 0 -377 149q-150 150 -150 383q0 227 146 379q147 153 373 153zM143 524h944q-12 215 -145 348q-133 136 -321 136q-200 0 -338 -138q-137 -137 -140 -346z" />
    <glyph glyph-name="igrave" unicode="&#xec;" horiz-adv-x="409" 
d="M274 1167h-36l-140 246h43zM225 0v1024h-41v-1024h41z" />
    <glyph glyph-name="iacute" unicode="&#xed;" horiz-adv-x="409" 
d="M127 1167l133 246h43l-139 -246h-37zM184 0h41v1024h-41v-1024z" />
    <glyph glyph-name="icircumflex" unicode="&#xee;" horiz-adv-x="409" 
d="M182 1413h45l168 -246h-45l-145 213l-146 -213h-45zM225 0h-41v1024h41v-1024z" />
    <glyph glyph-name="idieresis" unicode="&#xef;" horiz-adv-x="409" 
d="M111 1200q-17 -17 -39.5 -9.5t-28 27t9.5 39.5q17 17 39.5 9.5t28 -27t-9.5 -39.5zM356 1200q-17 -17 -39 -9.5t-27.5 27t9.5 39.5q17 17 39 9.5t27.5 -27t-9.5 -39.5zM225 0h-41v1024h41v-1024z" />
    <glyph glyph-name="eth" unicode="&#xf0;" horiz-adv-x="1208" 
d="M643 1251l369 -493q94 -125 94 -287q0 -217 -148 -356q-147 -135 -350 -135q-206 0 -356 135q-150 138 -150 356q0 207 148 340q147 135 346 135q168 0 287 -76l-271 363l-272 -168v41l252 156l-129 172h45l115 -154l223 137v-41zM608 16q194 0 326 129q131 131 131 326
q0 157 -82 264q-71 98 -163.5 136t-223.5 38q-190 0 -322 -129q-131 -125 -131 -309q0 -193 133 -326q132 -129 332 -129z" />
    <glyph glyph-name="ntilde" unicode="&#xf1;" horiz-adv-x="1177" 
d="M594 1282q-94 94 -155.5 70.5t-61.5 -144.5h-35q0 142 82 176q84 35 190 -77q94 -94 155.5 -70.5t61.5 143.5h35q0 -139 -84 -174q-81 -34 -188 76zM635 1044q172 0 280 -108q109 -109 109 -285v-651h-41v651q0 157 -95.5 257t-254.5 100q-180 0 -295 -127
q-113 -125 -113 -332v-549h-41v1024h41v-281q41 144 151 222.5t259 78.5z" />
    <glyph glyph-name="ograve" unicode="&#xf2;" horiz-adv-x="1273" 
d="M700 1167h-34l-172 246h43zM1016 133q155 152 155 379t-155 379q-156 153 -379 153t-379 -153t-156 -379t156 -379t379 -153t379 153zM287 160q-144 144 -144 352t144 352t350 144t350 -144q143 -143 143 -352t-143 -352q-144 -144 -350 -144t-350 144z" />
    <glyph glyph-name="oacute" unicode="&#xf3;" horiz-adv-x="1273" 
d="M608 1167l164 246h43l-170 -246h-37zM1016 133q155 152 155 379t-155 379q-156 153 -379 153t-379 -153t-156 -379t156 -379t379 -153t379 153zM287 160q-144 144 -144 352t144 352t350 144t350 -144q143 -143 143 -352t-143 -352q-144 -144 -350 -144t-350 144z" />
    <glyph glyph-name="ocircumflex" unicode="&#xf4;" horiz-adv-x="1273" 
d="M842 1167l-207 222l-207 -222h-45l229 246h45l230 -246h-45zM258 891q156 153 379 153t379 -153q155 -152 155 -379t-155 -379q-156 -153 -379 -153t-379 153t-156 379t156 379zM287 160q144 -144 350 -144t350 144q143 143 143 352t-143 352q-144 144 -350 144
t-350 -144t-144 -352t144 -352z" />
    <glyph glyph-name="otilde" unicode="&#xf5;" horiz-adv-x="1273" 
d="M436 1208h-35q0 142 82 176q85 35 191 -77q94 -94 155.5 -70.5t61.5 143.5h35q0 -139 -84 -174q-82 -34 -189 76q-94 94 -155.5 70.5t-61.5 -144.5zM1016 133q-156 -153 -379 -153t-379 153t-156 379t156 379t379 153t379 -153q155 -152 155 -379t-155 -379zM287 160
q144 -144 350 -144t350 144q143 143 143 352t-143 352q-144 144 -350 144t-350 -144t-144 -352t144 -352z" />
    <glyph glyph-name="odieresis" unicode="&#xf6;" horiz-adv-x="1273" 
d="M485 1200q-17 -17 -39 -9.5t-27.5 27t9.5 39.5q17 17 39 9.5t27.5 -27t-9.5 -39.5zM813 1200q-17 -17 -39 -9.5t-27.5 27t9.5 39.5q17 17 39 9.5t27.5 -27t-9.5 -39.5zM1016 133q-156 -153 -379 -153t-379 153t-156 379t156 379t379 153t379 -153q155 -152 155 -379
t-155 -379zM287 160q144 -144 350 -144t350 144q143 143 143 352t-143 352q-144 144 -350 144t-350 -144t-144 -352t144 -352z" />
    <glyph glyph-name="divide" unicode="&#xf7;" horiz-adv-x="1187" 
d="M629 1063q-21 -21 -49 -11t-35.5 35t12.5 50q21 23 50 13t36 -36t-14 -51zM1044 698h-901v37h901v-37zM629 297q-21 -21 -49 -11t-35.5 35t12.5 50q21 23 50 13t36 -36t-14 -51z" />
    <glyph glyph-name="oslash" unicode="&#xf8;" horiz-adv-x="1273" 
d="M1116 1006l-102 -113q157 -154 157 -381t-155 -379q-156 -153 -379 -153q-200 0 -350 126l-99 -106l-30 18l102 113q-158 155 -158 381t156 379t379 153q200 0 350 -126l98 106zM287 160l674 729q-137 119 -324 119q-206 0 -350 -144t-144 -352t144 -352zM637 16
q206 0 350 144q143 143 143 352t-143 352l-674 -729q137 -119 324 -119z" />
    <glyph glyph-name="ugrave" unicode="&#xf9;" horiz-adv-x="1177" 
d="M465 1413l164 -246h-35l-172 246h43zM952 475v549h41v-1024h-41v281q-41 -144 -150.5 -222.5t-258.5 -78.5q-175 0 -283 108q-106 106 -106 285v651h41v-651q0 -157 95.5 -257t254.5 -100q180 0 293 125q114 126 114 334z" />
    <glyph glyph-name="uacute" unicode="&#xfa;" horiz-adv-x="1177" 
d="M717 1413h43l-170 -246h-37zM952 475v549h41v-1024h-41v281q-41 -144 -150.5 -222.5t-258.5 -78.5q-175 0 -283 108q-106 106 -106 285v651h41v-651q0 -157 95.5 -257t254.5 -100q180 0 293 125q114 126 114 334z" />
    <glyph glyph-name="ucircumflex" unicode="&#xfb;" horiz-adv-x="1177" 
d="M776 1167l-207 222l-207 -222h-45l230 246h45l229 -246h-45zM952 475v549h41v-1024h-41v281q-41 -144 -150.5 -222.5t-258.5 -78.5q-175 0 -283 108q-106 106 -106 285v651h41v-651q0 -157 95.5 -257t254.5 -100q180 0 293 125q114 126 114 334z" />
    <glyph glyph-name="udieresis" unicode="&#xfc;" horiz-adv-x="1177" 
d="M438 1200q-17 -17 -39 -9.5t-27.5 27t9.5 39.5q17 17 39 9.5t27.5 -27t-9.5 -39.5zM766 1200q-17 -17 -39 -9.5t-27.5 27t9.5 39.5q17 17 39 9.5t27.5 -27t-9.5 -39.5zM952 475v549h41v-1024h-41v281q-41 -144 -150.5 -222.5t-258.5 -78.5q-175 0 -283 108
q-106 106 -106 285v651h41v-651q0 -157 95.5 -257t254.5 -100q180 0 293 125q114 126 114 334z" />
    <glyph glyph-name="yacute" unicode="&#xfd;" horiz-adv-x="1044" 
d="M678 1413h43l-170 -246h-37zM553 2l410 1022h41l-449 -1118q-62 -154 -167.5 -240t-223.5 -76v37q105 -7 199.5 71t154.5 220l14 37l-491 1069h41z" />
    <glyph glyph-name="thorn" unicode="&#xfe;" horiz-adv-x="1355" 
d="M719 1044q223 0 379 -153q155 -152 155 -379t-155 -379q-156 -153 -379 -153q-171 0 -305 94q-134 96 -189 248v-732h-41v1844h41v-732q55 152 189 248q134 94 305 94zM369 160q144 -144 350 -144t350 144q143 143 143 352t-143 352q-144 144 -350 144t-350 -144
t-144 -352t144 -352z" />
    <glyph glyph-name="ydieresis" unicode="&#xff;" horiz-adv-x="1044" 
d="M414 1200q-17 -17 -39.5 -9.5t-28 27t9.5 39.5q17 17 39.5 9.5t28 -27t-9.5 -39.5zM741 1200q-17 -17 -39 -9.5t-27.5 27t9.5 39.5q17 17 39 9.5t27.5 -27t-9.5 -39.5zM553 2l410 1022h41l-449 -1118q-62 -154 -167.5 -240t-223.5 -76v37q105 -7 199.5 71t154.5 220
l14 37l-491 1069h41z" />
    <glyph glyph-name="Amacron" unicode="&#x100;" horiz-adv-x="1286" 
d="M397 1673h492v-33h-492v33zM1235 0h-43l-154 391h-790l-154 -391h-43l567 1434h50zM643 1391l-381 -963h762z" />
    <glyph glyph-name="amacron" unicode="&#x101;" horiz-adv-x="1355" 
d="M389 1264h492v-33h-492v33zM1130 711v313h41v-1024h-41v313q-59 -151 -192 -243q-134 -90 -301 -90q-223 0 -379 153t-156 379t156 379t379 153q168 0 301 -92q133 -89 192 -241zM287 160q144 -144 350 -144t350 144q143 143 143 352t-143 352q-144 144 -350 144
t-350 -144t-144 -352t144 -352z" />
    <glyph glyph-name="Abreve" unicode="&#x102;" horiz-adv-x="1286" 
d="M397 1796h37q0 -82 57.5 -132t151.5 -50t151.5 50t57.5 132h37q0 -97 -68 -156t-178 -59t-178 59t-68 156zM1235 0h-43l-154 391h-790l-154 -391h-43l567 1434h50zM643 1391l-381 -963h762z" />
    <glyph glyph-name="abreve" unicode="&#x103;" horiz-adv-x="1355" 
d="M508 1386h37q0 -82 57.5 -132t151.5 -50t151.5 50t57.5 132h36q0 -97 -67.5 -156t-177.5 -59t-178 59t-68 156zM1130 711v313h41v-1024h-41v313q-59 -151 -192 -243q-134 -90 -301 -90q-223 0 -379 153t-156 379t156 379t379 153q168 0 301 -92q133 -89 192 -241z
M287 160q144 -144 350 -144t350 144q143 143 143 352t-143 352q-144 144 -350 144t-350 -144t-144 -352t144 -352z" />
    <glyph glyph-name="Aogonek" unicode="&#x104;" horiz-adv-x="1286" 
d="M1036 -295q0 -47 29.5 -74.5t77.5 -27.5q55 0 92 16v-33q-32 -16 -92 -16q-66 0 -105 36.5t-39 98.5q0 134 189 305l-150 381h-790l-154 -391h-43l567 1434h50l567 -1434q-199 -169 -199 -295zM643 1391l-381 -963h762z" />
    <glyph glyph-name="aogonek" unicode="&#x105;" horiz-adv-x="1355" 
d="M1171 1024v-1024q-198 -168 -198 -295q0 -47 29 -74.5t77 -27.5q49 0 92 16v-33q-37 -16 -92 -16q-66 0 -104.5 36.5t-38.5 98.5q0 141 194 305v303q-59 -151 -192 -243q-134 -90 -301 -90q-223 0 -379 153t-156 379t156 379t379 153q168 0 301 -92q133 -89 192 -241v313
h41zM287 160q144 -144 350 -144t350 144q143 143 143 352t-143 352q-144 144 -350 144t-350 -144t-144 -352t144 -352z" />
    <glyph glyph-name="Cacute" unicode="&#x106;" horiz-adv-x="1564" 
d="M809 1577l164 246h43l-170 -246h-37zM860 -20q196 0 360.5 92.5t252.5 251.5l-37 20q-80 -150 -235.5 -239t-340.5 -89q-300 0 -500 203q-196 202 -196 498q0 295 196 497q200 203 500 203q178 0 329.5 -84.5t237.5 -228.5l35 20q-91 153 -251.5 241.5t-350.5 88.5
q-316 0 -528 -215q-209 -212 -209 -522q0 -309 209 -524q213 -213 528 -213z" />
    <glyph glyph-name="cacute" unicode="&#x107;" horiz-adv-x="1185" 
d="M588 1167l164 246h43l-170 -246h-37zM637 -20q149 0 269 67t177 182l-32 21q-56 -107 -166 -170.5t-248 -63.5q-212 0 -354 142q-140 146 -140 354q0 209 140 352q141 144 354 144q138 0 248.5 -63.5t165.5 -170.5l32 21q-57 115 -177 182t-269 67q-228 0 -381 -153
q-154 -154 -154 -379t154 -379q153 -153 381 -153z" />
    <glyph glyph-name="Cdotaccent" unicode="&#x10a;" horiz-adv-x="1564" 
d="M903 1614q-17 -17 -43 -17t-45 17q-17 19 -17 45t17 43q16 16 36.5 18t36 -8t25.5 -25.5t8 -36t-18 -36.5zM860 -20q-315 0 -528 213q-209 215 -209 524q0 310 209 522q212 215 528 215q190 0 350.5 -88.5t251.5 -241.5l-35 -20q-86 144 -237.5 228.5t-329.5 84.5
q-300 0 -500 -203q-196 -202 -196 -497q0 -296 196 -498q200 -203 500 -203q185 0 340.5 89t235.5 239l37 -20q-88 -159 -252.5 -251.5t-360.5 -92.5z" />
    <glyph glyph-name="cdotaccent" unicode="&#x10b;" horiz-adv-x="1185" 
d="M682 1204q-17 -17 -43 -17t-45 17q-17 19 -17 45t17 43q20 20 45.5 18t41 -19.5t20 -40.5t-18.5 -46zM637 -20q-228 0 -381 153q-154 154 -154 379t154 379q153 153 381 153q149 0 269 -67t177 -182l-32 -21q-55 107 -165.5 170.5t-248.5 63.5q-213 0 -354 -144
q-140 -143 -140 -352q0 -208 140 -354q142 -142 354 -142q138 0 248 63.5t166 170.5l32 -21q-57 -115 -177 -182t-269 -67z" />
    <glyph glyph-name="Ccaron" unicode="&#x10c;" horiz-adv-x="1564" 
d="M1110 1823l-229 -246h-45l-230 246h45l207 -221l207 221h45zM1436 344l37 -20q-88 -159 -252.5 -251.5t-360.5 -92.5q-315 0 -528 213q-209 215 -209 524q0 310 209 522q212 215 528 215q190 0 350.5 -88.5t251.5 -241.5l-35 -20q-86 144 -237.5 228.5t-329.5 84.5
q-300 0 -500 -203q-196 -202 -196 -497q0 -296 196 -498q200 -203 500 -203q185 0 340.5 89t235.5 239z" />
    <glyph glyph-name="ccaron" unicode="&#x10d;" horiz-adv-x="1185" 
d="M889 1413l-230 -246h-45l-229 246h45l207 -221l207 221h45zM637 16q138 0 248 63.5t166 170.5l32 -21q-57 -115 -177 -182t-269 -67q-228 0 -381 153q-154 154 -154 379t154 379q153 153 381 153q149 0 269 -67t177 -182l-32 -21q-55 107 -165.5 170.5t-248.5 63.5
q-213 0 -354 -144q-140 -143 -140 -352q0 -208 140 -354q142 -142 354 -142z" />
    <glyph glyph-name="Dcaron" unicode="&#x10e;" horiz-adv-x="1515" 
d="M967 1823l-230 -246h-45l-229 246h45l207 -221l207 221h45zM205 1434h512q292 0 483 -209q193 -205 193 -508q0 -302 -193 -510q-192 -207 -483 -207h-512v1434zM246 37h471q276 0 454 196q181 196 181 484q0 287 -181 483q-179 197 -454 197h-471v-1360z" />
    <glyph glyph-name="dcaron" unicode="&#x10f;" horiz-adv-x="1404" 
d="M1130 702v732h41v-1434h-41v322q-56 -154 -190 -248q-131 -94 -303 -94q-223 0 -379 153t-156 379t156 379t379 153q172 0 303 -94q134 -94 190 -248zM1343 1085l21 349h41l-29 -349h-33zM287 160q144 -144 350 -144t350 144q143 143 143 352t-143 352q-144 144 -350 144
t-350 -144t-144 -352t144 -352z" />
    <glyph glyph-name="Dcroat" unicode="&#x110;" horiz-adv-x="1556" 
d="M246 1434h512q292 0 483 -209q193 -205 193 -508q0 -302 -193 -510q-192 -207 -483 -207h-512v698h-123v37h123v699zM287 37h471q276 0 454 196q181 196 181 484q0 287 -181 483q-179 197 -454 197h-471v-662h454v-37h-454v-661z" />
    <glyph glyph-name="dslash" unicode="&#x111;" horiz-adv-x="1363" 
d="M1171 1253h132v-34h-132v-1219h-41v322q-56 -154 -190 -248q-131 -94 -303 -94q-223 0 -379 153t-156 379t156 379t379 153q172 0 303 -94q134 -94 190 -248v517h-483v34h483v181h41v-181zM287 160q144 -144 350 -144t350 144q143 143 143 352t-143 352
q-144 144 -350 144t-350 -144t-144 -352t144 -352z" />
    <glyph glyph-name="Emacron" unicode="&#x112;" 
d="M352 1673h492v-33h-492v33zM246 705v-668h758v-37h-799v1434h788v-37h-747v-656h696v-36h-696z" />
    <glyph glyph-name="emacron" unicode="&#x113;" horiz-adv-x="1226" 
d="M362 1264h492v-33h-492v33zM621 1044q224 0 362 -159q141 -156 141 -377v-21h-981q9 -209 146 -340t340 -131q134 0 242 57t159 154l35 -20q-61 -105 -176 -166t-260 -61q-228 0 -377 149q-150 150 -150 383q0 227 146 379q147 153 373 153zM143 524h944
q-12 215 -145 348q-133 136 -321 136q-200 0 -338 -138q-137 -137 -140 -346z" />
    <glyph glyph-name="Edotaccent" unicode="&#x116;" 
d="M641 1614q-17 -17 -43 -17t-45 17q-17 19 -17 45t17 43q20 20 45.5 18t41 -19.5t20 -40.5t-18.5 -46zM246 705v-668h758v-37h-799v1434h788v-37h-747v-656h696v-36h-696z" />
    <glyph glyph-name="edotaccent" unicode="&#x117;" horiz-adv-x="1226" 
d="M651 1204q-17 -17 -43 -17t-45 17q-17 19 -17 45t17 43q20 20 45.5 18t41 -19.5t20 -40.5t-18.5 -46zM621 1044q224 0 362 -159q141 -156 141 -377v-21h-981q9 -209 146 -340t340 -131q134 0 242 57t159 154l35 -20q-61 -105 -176 -166t-260 -61q-228 0 -377 149
q-150 150 -150 383q0 227 146 379q147 153 373 153zM143 524h944q-12 215 -145 348q-133 136 -321 136q-200 0 -338 -138q-137 -137 -140 -346z" />
    <glyph glyph-name="Eogonek" unicode="&#x118;" horiz-adv-x="1110" 
d="M915 -397q50 0 93 16v-33q-37 -16 -93 -16q-68 0 -107.5 36t-39.5 99q0 139 188 295h-751v1434h788v-37h-747v-656h696v-36h-696v-668h758v-37q-199 -169 -199 -295q0 -47 30 -74.5t80 -27.5z" />
    <glyph glyph-name="eogonek" unicode="&#x119;" horiz-adv-x="1226" 
d="M621 1044q224 0 362 -159q141 -156 141 -377v-21h-981q9 -209 146 -340t340 -131q134 0 242 57t159 154l35 -20q-23 -45 -68 -90q-147 -160 -229 -267q-57 -77 -57 -145q0 -47 30 -74.5t80 -27.5q49 0 92 16v-33q-37 -16 -92 -16q-68 0 -107.5 36t-39.5 99q0 125 205 330
q-116 -55 -250 -55q-228 0 -377 149q-150 150 -150 383q0 227 146 379q147 153 373 153zM143 524h944q-12 215 -145 348q-133 136 -321 136q-200 0 -338 -138q-137 -137 -140 -346z" />
    <glyph glyph-name="Ecaron" unicode="&#x11a;" 
d="M848 1823l-230 -246h-45l-229 246h45l207 -221l207 221h45zM246 705v-668h758v-37h-799v1434h788v-37h-747v-656h696v-36h-696z" />
    <glyph glyph-name="ecaron" unicode="&#x11b;" horiz-adv-x="1226" 
d="M858 1413l-229 -246h-45l-230 246h45l207 -221l207 221h45zM621 1044q224 0 362 -159q141 -156 141 -377v-21h-981q9 -209 146 -340t340 -131q134 0 242 57t159 154l35 -20q-61 -105 -176 -166t-260 -61q-228 0 -377 149q-150 150 -150 383q0 227 146 379
q147 153 373 153zM143 524h944q-12 215 -145 348q-133 136 -321 136q-200 0 -338 -138q-137 -137 -140 -346z" />
    <glyph glyph-name="Gbreve" unicode="&#x11e;" horiz-adv-x="1679" 
d="M614 1796h37q0 -82 57.5 -132t151.5 -50t151.5 50t57.5 132h37q0 -97 -68 -156t-178 -59t-178 59t-68 156zM838 641h718v-20q0 -269 -188 -457q-187 -184 -487 -184q-332 0 -545 213t-213 524q0 310 209 522q212 215 528 215q191 0 354.5 -91.5t251.5 -246.5l-34 -20
q-83 147 -236 233q-152 88 -336 88q-300 0 -500 -203q-196 -202 -196 -497q0 -294 201 -498q203 -203 516 -203q280 0 454 168q177 171 183 420h-680v37z" />
    <glyph glyph-name="gbreve" unicode="&#x11f;" horiz-adv-x="1376" 
d="M426 1386h37q0 -82 57.5 -132t151.5 -50t151.5 50t57.5 132h37q0 -97 -68 -156t-178 -59t-178 59t-68 156zM1151 702v322h41v-961q0 -229 -134 -361t-370 -132q-172 0 -299 67t-178 175l33 18q46 -98 165 -160.5t279 -62.5q218 0 340.5 122t122.5 334v259
q-56 -154 -190 -248q-131 -94 -304 -94q-222 0 -378 153t-156 379t156 379t378 153q173 0 304 -94q134 -94 190 -248zM307 160q144 -144 350 -144q207 0 351 144q143 143 143 352t-143 352q-144 144 -351 144q-206 0 -350 -144q-143 -143 -143 -352t143 -352z" />
    <glyph glyph-name="Gdotaccent" unicode="&#x120;" horiz-adv-x="1679" 
d="M903 1614q-17 -17 -43 -17t-45 17q-17 19 -17 45t17 43q16 16 36.5 18t36 -8t25.5 -25.5t8 -36t-18 -36.5zM838 641h718v-20q0 -269 -188 -457q-187 -184 -487 -184q-332 0 -545 213t-213 524q0 310 209 522q212 215 528 215q191 0 354.5 -91.5t251.5 -246.5l-34 -20
q-83 147 -236 233q-152 88 -336 88q-300 0 -500 -203q-196 -202 -196 -497q0 -294 201 -498q203 -203 516 -203q280 0 454 168q177 171 183 420h-680v37z" />
    <glyph glyph-name="gdotaccent" unicode="&#x121;" horiz-adv-x="1376" 
d="M715 1204q-17 -17 -43 -17t-45 17q-17 19 -17 45t17 43q16 16 36.5 18t36 -8t25.5 -25.5t8 -36t-18 -36.5zM1151 702v322h41v-961q0 -229 -134 -361t-370 -132q-172 0 -299 67t-178 175l33 18q46 -98 165 -160.5t279 -62.5q218 0 340.5 122t122.5 334v259
q-56 -154 -190 -248q-131 -94 -304 -94q-222 0 -378 153t-156 379t156 379t378 153q173 0 304 -94q134 -94 190 -248zM307 160q144 -144 350 -144q207 0 351 144q143 143 143 352t-143 352q-144 144 -351 144q-206 0 -350 -144q-143 -143 -143 -352t143 -352z" />
    <glyph glyph-name="Gcommaaccent" unicode="&#x122;" horiz-adv-x="1679" 
d="M838 641h718v-20q0 -269 -188 -457q-187 -184 -487 -184q-332 0 -545 213t-213 524q0 310 209 522q212 215 528 215q191 0 354.5 -91.5t251.5 -246.5l-34 -20q-83 147 -236 233q-152 88 -336 88q-300 0 -500 -203q-196 -202 -196 -497q0 -294 201 -498q203 -203 516 -203
q280 0 454 168q177 171 183 420h-680v37zM877 -492h-33l20 349h41z" />
    <glyph glyph-name="gcommaaccent" unicode="&#x123;" horiz-adv-x="1376" 
d="M662 1556h32l-20 -348h-41zM1151 702v322h41v-961q0 -229 -134 -361t-370 -132q-172 0 -299 67t-178 175l33 18q46 -98 165 -160.5t279 -62.5q218 0 340.5 122t122.5 334v259q-56 -154 -190 -248q-131 -94 -304 -94q-222 0 -378 153t-156 379t156 379t378 153
q173 0 304 -94q134 -94 190 -248zM307 160q144 -144 350 -144q207 0 351 144q143 143 143 352t-143 352q-144 144 -351 144q-206 0 -350 -144q-143 -143 -143 -352t143 -352z" />
    <glyph glyph-name="Hbar" unicode="&#x126;" horiz-adv-x="1556" 
d="M1290 1124h144v-37h-144v-1087h-41v719h-942v-719h-41v1087h-143v37h143v310h41v-310h942v310h41v-310zM307 756h942v331h-942v-331z" />
    <glyph glyph-name="hbar" unicode="&#x127;" horiz-adv-x="1218" 
d="M676 1044q172 0 280 -108q109 -109 109 -285v-651h-41v651q0 157 -95.5 257t-254.5 100q-180 0 -295 -127q-113 -125 -113 -332v-549h-41v1219h-164v34h164v181h41v-181h369v-34h-369v-476q41 144 151 222.5t259 78.5z" />
    <glyph glyph-name="Itilde" unicode="&#x128;" horiz-adv-x="450" 
d="M205 0v1434h41v-1434h-41zM-2 1618h-35q0 142 82 176q84 35 191 -78q94 -94 155.5 -70t61.5 144h34q0 -140 -81 -174q-83 -35 -191 76q-97 94 -157 70.5t-60 -144.5z" />
    <glyph glyph-name="itilde" unicode="&#x129;" horiz-adv-x="409" 
d="M225 0h-41v1024h41v-1024zM25 1208h-31q0 143 65 176q67 36 152 -77q73 -94 119.5 -70.5t46.5 143.5h31q0 -140 -66 -174q-66 -35 -152 76q-76 94 -120.5 71t-44.5 -145z" />
    <glyph glyph-name="Imacron" unicode="&#x12a;" horiz-adv-x="450" 
d="M471 1640h-491v33h491v-33zM205 0v1434h41v-1434h-41z" />
    <glyph glyph-name="imacron" unicode="&#x12b;" horiz-adv-x="409" 
d="M369 1231h-328v33h328v-33zM225 0h-41v1024h41v-1024z" />
    <glyph glyph-name="Iogonek" unicode="&#x12e;" horiz-adv-x="450" 
d="M250 -397q49 0 92 16v-33q-37 -16 -92 -16q-68 0 -108 36t-40 99q0 109 103 295v1434h41v-1434q-1 -3 -16.5 -33.5t-20.5 -36.5l-31 -65q-2 -6 -11 -32t-11.5 -34.5t-8 -28t-7 -34.5t-1.5 -31q0 -47 30.5 -74.5t80.5 -27.5z" />
    <glyph glyph-name="iogonek" unicode="&#x12f;" horiz-adv-x="409" 
d="M238 1348q-19 -22 -45.5 -12.5t-33.5 33t11 44.5q21 21 47 12.5t32.5 -31.5t-11.5 -46zM229 -397q50 0 93 16v-33q-37 -16 -93 -16q-67 0 -107 39.5t-40 103.5q0 115 102 297v1014h41v-1024l-59 -111q-47 -107 -47 -176q0 -48 30.5 -79t79.5 -31z" />
    <glyph glyph-name="Idot" unicode="&#x130;" horiz-adv-x="450" 
d="M268 1614q-17 -17 -43 -17t-45 17q-17 19 -17 45t17 43q20 20 45.5 18t41 -19.5t20 -40.5t-18.5 -46zM205 0v1434h41v-1434h-41z" />
    <glyph glyph-name="dotlessi" unicode="&#x131;" horiz-adv-x="409" 
d="M225 0h-41v1024h41v-1024z" />
    <glyph glyph-name="Kcommaaccent" unicode="&#x136;" horiz-adv-x="1136" 
d="M1096 1434l-805 -697l825 -737h-55l-815 727v-727h-41v1434h41v-686l794 686h56zM645 -492h-33l21 349h41z" />
    <glyph glyph-name="kcommaaccent" unicode="&#x137;" horiz-adv-x="944" 
d="M862 1024l-594 -492l615 -532h-58l-600 520v-520h-41v1434h41v-889l580 479h57zM518 -492h-33l21 349h41z" />
    <glyph glyph-name="Lacute" unicode="&#x139;" horiz-adv-x="1024" 
d="M362 1823h44l-170 -246h-37zM246 1434v-1397h717v-37h-758v1434h41z" />
    <glyph glyph-name="lacute" unicode="&#x13a;" horiz-adv-x="409" 
d="M184 1577l164 246h43l-170 -246h-37zM184 0h41v1495h-41v-1495z" />
    <glyph glyph-name="Lcommaaccent" unicode="&#x13b;" horiz-adv-x="1024" 
d="M246 1434v-1397h717v-37h-758v1434h41zM580 -492h-33l20 349h41z" />
    <glyph glyph-name="lcommaaccent" unicode="&#x13c;" horiz-adv-x="409" 
d="M225 0h-41v1495h41v-1495zM199 -492h-33l20 349h41z" />
    <glyph glyph-name="Lcaron" unicode="&#x13d;" horiz-adv-x="1024" 
d="M246 1434v-1397h717v-37h-758v1434h41zM586 1434h41l-29 -349h-33z" />
    <glyph glyph-name="lcaron" unicode="&#x13e;" horiz-adv-x="462" 
d="M225 0h-41v1495h41v-1495zM434 1147h-33l21 348h41z" />
    <glyph glyph-name="Lslash" unicode="&#x141;" horiz-adv-x="1044" 
d="M266 557v-520h717v-37h-758v532l-123 -71v41l123 71v861h41v-836l430 254v-41z" />
    <glyph glyph-name="lslash" unicode="&#x142;" horiz-adv-x="491" 
d="M266 774l185 127v-43l-185 -127v-731h-41v705l-184 -127v43l184 127v747h41v-721z" />
    <glyph glyph-name="Nacute" unicode="&#x143;" horiz-adv-x="1433" 
d="M645 1577l164 246h43l-170 -246h-37zM1188 1434v-1364l-942 1364h-41v-1434h41v1364l942 -1364h41v1434h-41z" />
    <glyph glyph-name="nacute" unicode="&#x144;" horiz-adv-x="1177" 
d="M717 1413h43l-170 -246h-37zM635 1044q172 0 280 -108q109 -109 109 -285v-651h-41v651q0 157 -95.5 257t-254.5 100q-180 0 -295 -127q-113 -125 -113 -332v-549h-41v1024h41v-281q41 144 151 222.5t259 78.5z" />
    <glyph glyph-name="Ncommaaccent" unicode="&#x145;" horiz-adv-x="1433" 
d="M1188 70v1364h41v-1434h-41l-942 1364v-1364h-41v1434h41zM692 -492h-33l21 349h41z" />
    <glyph glyph-name="ncommaaccent" unicode="&#x146;" horiz-adv-x="1177" 
d="M635 1044q172 0 280 -108q109 -109 109 -285v-651h-41v651q0 157 -95.5 257t-254.5 100q-180 0 -295 -127q-113 -125 -113 -332v-549h-41v1024h41v-281q41 144 151 222.5t259 78.5zM606 -492h-33l21 349h41z" />
    <glyph glyph-name="Ncaron" unicode="&#x147;" horiz-adv-x="1433" 
d="M946 1823l-229 -246h-45l-230 246h45l207 -221l207 221h45zM1188 70v1364h41v-1434h-41l-942 1364v-1364h-41v1434h41z" />
    <glyph glyph-name="ncaron" unicode="&#x148;" horiz-adv-x="1177" 
d="M854 1413l-229 -246h-45l-230 246h45l207 -221l207 221h45zM635 1044q172 0 280 -108q109 -109 109 -285v-651h-41v651q0 157 -95.5 257t-254.5 100q-180 0 -295 -127q-113 -125 -113 -332v-549h-41v1024h41v-281q41 144 151 222.5t259 78.5z" />
    <glyph glyph-name="Eng" unicode="&#x14a;" horiz-adv-x="1433" 
d="M1188 70v1364h41v-1434q0 -213 -100.5 -311.5t-299.5 -98.5v37q186 0 272.5 89t86.5 284l-942 1364v-1364h-41v1434h41z" />
    <glyph glyph-name="eng" unicode="&#x14b;" horiz-adv-x="1177" 
d="M635 1044q172 0 280 -108q109 -109 109 -285v-835q0 -129 -73.5 -194t-211.5 -52v37q244 -27 244 209v835q0 157 -95.5 257t-254.5 100q-180 0 -295 -127q-113 -125 -113 -332v-549h-41v1024h41v-281q41 144 151 222.5t259 78.5z" />
    <glyph glyph-name="Omacron" unicode="&#x14c;" horiz-adv-x="1720" 
d="M1106 1640h-492v33h492v-33zM1380 195q-215 -215 -520 -215q-304 0 -522 215q-215 218 -215 522q0 305 215 520q217 217 522 217q306 0 520 -217q217 -214 217 -520q0 -305 -217 -522zM367 221q205 -205 493 -205q290 0 492 205q204 204 204 496q0 291 -204 495
q-202 205 -492 205q-288 0 -493 -205q-203 -206 -203 -495q0 -290 203 -496z" />
    <glyph glyph-name="omacron" unicode="&#x14d;" horiz-adv-x="1273" 
d="M866 1231h-491v33h491v-33zM1016 133q-156 -153 -379 -153t-379 153t-156 379t156 379t379 153t379 -153q155 -152 155 -379t-155 -379zM287 160q144 -144 350 -144t350 144q143 143 143 352t-143 352q-144 144 -350 144t-350 -144t-144 -352t144 -352z" />
    <glyph glyph-name="Ohungarumlaut" unicode="&#x150;" horiz-adv-x="1720" 
d="M635 1577l143 266h43l-151 -266h-35zM920 1577l163 266h43l-172 -266h-34zM1380 195q217 217 217 522q0 306 -217 520q-214 217 -520 217q-305 0 -522 -217q-215 -215 -215 -520q0 -304 215 -522q218 -215 522 -215q305 0 520 215zM367 221q-203 206 -203 496
q0 289 203 495q205 205 493 205q290 0 492 -205q204 -204 204 -495q0 -292 -204 -496q-202 -205 -492 -205q-288 0 -493 205z" />
    <glyph glyph-name="ohungarumlaut" unicode="&#x151;" horiz-adv-x="1273" 
d="M395 1167l144 267h43l-152 -267h-35zM680 1167l164 267h43l-172 -267h-35zM1016 133q155 152 155 379t-155 379q-156 153 -379 153t-379 -153t-156 -379t156 -379t379 -153t379 153zM287 160q-144 144 -144 352t144 352t350 144t350 -144q143 -143 143 -352t-143 -352
q-144 -144 -350 -144t-350 144z" />
    <glyph glyph-name="OE" unicode="&#x152;" horiz-adv-x="1855" 
d="M1077 705v-668h676v-37h-717q-87 -20 -196 -20q-315 0 -516 213t-201 524t201 524t516 213q109 0 196 -20h707v-37h-666v-656h615v-36h-615zM1036 39v1356q-90 22 -196 22q-300 0 -488 -203q-188 -200 -188 -497t188 -500q189 -201 488 -201q102 0 196 23z" />
    <glyph glyph-name="oe" unicode="&#x153;" horiz-adv-x="2244" 
d="M1638 1044q225 0 363 -159q141 -156 141 -377v-21h-981q9 -209 146 -340t340 -131q134 0 242 57t159 154l35 -20q-61 -105 -176 -166t-260 -61q-193 0 -328 106q-137 107 -178 287q-43 -172 -183 -285q-138 -108 -321 -108q-223 0 -379 153t-156 379t156 379t379 153
q184 0 321 -110q140 -110 183 -283q43 174 176 283q134 110 321 110zM287 160q144 -144 350 -144t344 144q139 145 139 352t-139 352q-138 144 -344 144t-350 -144t-144 -352t144 -352zM1161 524h944q-12 215 -145 348q-133 136 -322 136q-200 0 -338 -138
q-136 -136 -139 -346z" />
    <glyph glyph-name="Racute" unicode="&#x154;" horiz-adv-x="1269" 
d="M768 1823h43l-170 -246h-37zM840 623l368 -623h-45l-364 616q-8 -2 -41 -2h-512v-614h-41v1434h553q168 0 289 -121q120 -120 120 -289q0 -147 -94 -260q-91 -114 -233 -141zM246 1397v-746h512q151 0 260 109q108 111 108 264q0 154 -108 262q-108 111 -260 111h-512z
" />
    <glyph glyph-name="racute" unicode="&#x155;" horiz-adv-x="665" 
d="M506 1413h43l-170 -246h-37zM225 1024v-274q35 137 139.5 211.5t239.5 74.5v-37q-159 0 -270 -114q-109 -115 -109 -316v-569h-41v1024h41z" />
    <glyph glyph-name="Rcommaaccent" unicode="&#x156;" horiz-adv-x="1269" 
d="M840 623l368 -623h-45l-364 616q-8 -2 -41 -2h-512v-614h-41v1434h553q168 0 289 -121q120 -120 120 -289q0 -147 -94 -260q-91 -114 -233 -141zM246 1397v-746h512q151 0 260 109q108 111 108 264q0 154 -108 262q-108 111 -260 111h-512zM692 -492h-33l21 349h41z" />
    <glyph glyph-name="rcommaaccent" unicode="&#x157;" horiz-adv-x="665" 
d="M225 1024v-274q35 137 139.5 211.5t239.5 74.5v-37q-159 0 -270 -114q-109 -115 -109 -316v-569h-41v1024h41zM197 -492h-33l20 349h41z" />
    <glyph glyph-name="Rcaron" unicode="&#x158;" horiz-adv-x="1269" 
d="M905 1823l-229 -246h-45l-230 246h45l207 -221l207 221h45zM840 623l368 -623h-45l-364 616q-8 -2 -41 -2h-512v-614h-41v1434h553q168 0 289 -121q120 -120 120 -289q0 -147 -94 -260q-91 -114 -233 -141zM246 1397v-746h512q151 0 260 109q108 111 108 264
q0 154 -108 262q-108 111 -260 111h-512z" />
    <glyph glyph-name="rcaron" unicode="&#x159;" horiz-adv-x="665" 
d="M643 1413l-229 -246h-45l-230 246h45l207 -221l207 221h45zM225 1024v-274q35 137 139.5 211.5t239.5 74.5v-37q-159 0 -270 -114q-109 -115 -109 -316v-569h-41v1024h41z" />
    <glyph glyph-name="Sacute" unicode="&#x15a;" horiz-adv-x="1167" 
d="M514 1577l164 246h43l-170 -246h-37zM618 -20q206 0 326.5 103.5t120.5 274.5q0 140 -104 225t-332 158q-34 11 -79.5 27t-53.5 18q-22 8 -109 48q-71 38 -96 63q-80 80 -80 186q0 134 100 234t281 100q294 0 399 -270l33 18q-51 134 -162 211.5t-270 77.5
q-185 0 -305 -108q-117 -108 -117 -263q0 -161 129 -245q66 -42 135 -71t178 -60q211 -63 311.5 -143t100.5 -206q0 -152 -106.5 -247t-299.5 -95q-183 0 -308.5 81.5t-162.5 217.5l-34 -20q42 -140 177 -227.5t328 -87.5z" />
    <glyph glyph-name="sacute" unicode="&#x15b;" horiz-adv-x="952" 
d="M584 1413h43l-170 -246h-37zM184 758q0 -83 64.5 -134t171.5 -73q172 -34 234 -56q172 -61 193 -187q3 -20 3 -42q0 -124 -100 -205t-258 -81q-302 0 -379 215l32 18q65 -197 347 -197q139 0 228 70.5t89 179.5q0 86 -64.5 138.5t-171.5 74.5q-20 5 -62.5 14t-67 15
t-64 16.5t-63.5 20.5t-55 25t-49.5 33t-36 41t-25.5 51.5t-7 62.5q0 125 94 205.5t250 80.5q118 0 204.5 -52.5t123.5 -143.5l-33 -19q-33 82 -111.5 130.5t-183.5 48.5q-136 0 -219.5 -69.5t-83.5 -180.5z" />
    <glyph glyph-name="Scedilla" unicode="&#x15e;" horiz-adv-x="1167" 
d="M618 -20h-10v-142q72 6 126 -28t54 -97q0 -80 -92.5 -115t-265.5 -12v33q322 -40 322 94q0 107 -181 92v177q-176 10 -297.5 95.5t-160.5 217.5l34 20q37 -136 162.5 -217.5t308.5 -81.5q193 0 299.5 95t106.5 247q0 126 -100.5 206t-311.5 143q-109 31 -178 60t-135 71
q-129 84 -129 245q0 155 117 263q120 108 305 108q159 0 270 -77.5t162 -211.5l-33 -18q-105 270 -399 270q-181 0 -281 -100t-100 -234q0 -106 80 -186q25 -25 96 -63q87 -40 109 -48q8 -2 53.5 -18t79.5 -27q228 -73 332 -158t104 -225q0 -171 -120.5 -274.5
t-326.5 -103.5z" />
    <glyph glyph-name="scedilla" unicode="&#x15f;" horiz-adv-x="952" 
d="M850 266q0 -118 -92.5 -198.5t-239.5 -87.5v-142q72 6 126 -28t54 -97q0 -80 -92.5 -115t-265.5 -12v33q322 -40 322 94q0 107 -181 92v175q-291 3 -368 215l32 18q65 -197 347 -197q139 0 228 70.5t89 179.5q0 86 -64.5 138.5t-171.5 74.5q-20 5 -62.5 14t-67 15
t-64 16.5t-63.5 20.5t-55 25t-49.5 33t-36 41t-25.5 51.5t-7 62.5q0 125 94 205.5t250 80.5q118 0 204.5 -52.5t123.5 -143.5l-33 -19q-33 82 -111.5 130.5t-183.5 48.5q-136 0 -219.5 -69.5t-83.5 -180.5q0 -83 64.5 -134t171.5 -73q172 -34 234 -56q172 -61 193 -187
q3 -20 3 -42z" />
    <glyph glyph-name="Scaron" unicode="&#x160;" horiz-adv-x="1167" 
d="M815 1823l-229 -246h-45l-230 246h45l207 -221l207 221h45zM629 741q228 -73 332 -158t104 -225q0 -171 -120.5 -274.5t-326.5 -103.5q-193 0 -328 87.5t-177 227.5l34 20q37 -136 162.5 -217.5t308.5 -81.5q193 0 299.5 95t106.5 247q0 126 -100.5 206t-311.5 143
q-109 31 -178 60t-135 71q-129 84 -129 245q0 155 117 263q120 108 305 108q159 0 270 -77.5t162 -211.5l-33 -18q-105 270 -399 270q-181 0 -281 -100t-100 -234q0 -106 80 -186q25 -25 96 -63q87 -40 109 -48q8 -2 53.5 -18t79.5 -27z" />
    <glyph glyph-name="scaron" unicode="&#x161;" horiz-adv-x="952" 
d="M721 1413l-229 -246h-46l-229 246h45l207 -221l207 221h45zM184 758q0 -83 64.5 -134t171.5 -73q172 -34 234 -56q172 -61 193 -187q3 -20 3 -42q0 -124 -100 -205t-258 -81q-302 0 -379 215l32 18q65 -197 347 -197q139 0 228 70.5t89 179.5q0 86 -64.5 138.5
t-171.5 74.5q-20 5 -62.5 14t-67 15t-64 16.5t-63.5 20.5t-55 25t-49.5 33t-36 41t-25.5 51.5t-7 62.5q0 125 94 205.5t250 80.5q118 0 204.5 -52.5t123.5 -143.5l-33 -19q-33 82 -111.5 130.5t-183.5 48.5q-136 0 -219.5 -69.5t-83.5 -180.5z" />
    <glyph glyph-name="uni0162" unicode="&#x162;" 
d="M61 1434h983v-37h-471v-1397h-41v1397h-471v37zM549 -492h-33l21 349h41z" />
    <glyph glyph-name="uni0163" unicode="&#x163;" horiz-adv-x="776" 
d="M674 1024v-37h-326v-760q0 -134 73 -175.5t253 -14.5v-37q-193 -31 -280 22t-87 205v760h-246v37h246v274l41 13v-287h326zM479 -492h-33l21 349h41z" />
    <glyph glyph-name="Tcaron" unicode="&#x164;" 
d="M803 1823l-230 -246h-45l-229 246h45l207 -221l207 221h45zM61 1434h983v-37h-471v-1397h-41v1397h-471v37z" />
    <glyph glyph-name="tcaron" unicode="&#x165;" horiz-adv-x="776" 
d="M504 1458h41l-29 -307h-33zM674 1024v-37h-326v-760q0 -134 73 -175.5t253 -14.5v-37q-193 -31 -280 22t-87 205v760h-246v37h246v274l41 13v-287h326z" />
    <glyph glyph-name="Tbar" unicode="&#x166;" 
d="M1044 1434v-37h-471v-662h349v-37h-349v-698h-41v698h-348v37h348v662h-471v37h983z" />
    <glyph glyph-name="tbar" unicode="&#x167;" horiz-adv-x="776" 
d="M674 1024v-37h-326v-426h215v-35h-215v-299q0 -134 73 -175.5t253 -14.5v-37q-193 -31 -280 22t-87 205v299h-153v35h153v426h-246v37h246v274l41 13v-287h326z" />
    <glyph glyph-name="Utilde" unicode="&#x168;" horiz-adv-x="1392" 
d="M184 461v973h41v-973q0 -193 121 -320q122 -125 350 -125q229 0 348 125q123 126 123 320v973h41v-973q0 -212 -139 -348q-139 -133 -373 -133q-235 0 -374 133q-138 135 -138 348zM459 1618h-35q0 142 82 176q83 35 190 -78q94 -94 155.5 -70t61.5 144h35
q0 -140 -82 -174t-190 76q-97 94 -157 70.5t-60 -144.5z" />
    <glyph glyph-name="utilde" unicode="&#x169;" horiz-adv-x="1177" 
d="M952 475v549h41v-1024h-41v281q-41 -144 -150.5 -222.5t-258.5 -78.5q-175 0 -283 108q-106 106 -106 285v651h41v-651q0 -157 95.5 -257t254.5 -100q180 0 293 125q114 126 114 334zM346 1208h-35q0 142 82 176q85 35 191 -77q94 -94 155.5 -70.5t61.5 143.5h35
q0 -140 -82 -174q-83 -35 -191 76q-97 94 -157 70.5t-60 -144.5z" />
    <glyph glyph-name="Umacron" unicode="&#x16a;" horiz-adv-x="1392" 
d="M932 1640h-492v33h492v-33zM184 461v973h41v-973q0 -193 121 -320q122 -125 350 -125q229 0 348 125q123 126 123 320v973h41v-973q0 -212 -139 -348q-139 -133 -373 -133q-235 0 -374 133q-138 135 -138 348z" />
    <glyph glyph-name="umacron" unicode="&#x16b;" horiz-adv-x="1177" 
d="M328 1264h491v-33h-491v33zM952 475v549h41v-1024h-41v281q-41 -144 -150.5 -222.5t-258.5 -78.5q-175 0 -283 108q-106 106 -106 285v651h41v-651q0 -157 95.5 -257t254.5 -100q180 0 293 125q114 126 114 334z" />
    <glyph glyph-name="Uring" unicode="&#x16e;" horiz-adv-x="1392" 
d="M686 1475q-86 0 -140 52t-54 132t54 132t140 52q87 0 141 -52t54 -132t-54 -132t-141 -52zM571 1548q44 -41 114.5 -41t113.5 41q45 42 45 111t-45 108q-43 43 -113.5 43t-114.5 -43q-43 -41 -43 -108.5t43 -110.5zM184 461v973h41v-973q0 -193 121 -320
q122 -125 350 -125q229 0 348 125q123 126 123 320v973h41v-973q0 -212 -139 -348q-139 -133 -373 -133q-235 0 -374 133q-138 135 -138 348z" />
    <glyph glyph-name="uring" unicode="&#x16f;" horiz-adv-x="1177" 
d="M573 1147q-86 0 -140 52t-54 132t54 132.5t140 52.5q87 0 141 -52.5t54 -132.5t-54 -132t-141 -52zM686 1440q-43 43 -113 43t-114 -43q-43 -41 -43 -108.5t43 -110.5q44 -41 114 -41t113 41q45 42 45 110q0 70 -45 109zM952 475v549h41v-1024h-41v281
q-41 -144 -150.5 -222.5t-258.5 -78.5q-175 0 -283 108q-106 106 -106 285v651h41v-651q0 -157 95.5 -257t254.5 -100q180 0 293 125q114 126 114 334z" />
    <glyph glyph-name="Uhungarumlaut" unicode="&#x170;" horiz-adv-x="1392" 
d="M461 1577l143 266h43l-151 -266h-35zM745 1577l164 266h43l-172 -266h-35zM184 461q0 -213 138 -348q139 -133 374 -133q234 0 373 133q139 136 139 348v973h-41v-973q0 -194 -123 -320q-119 -125 -348 -125q-228 0 -350 125q-121 127 -121 320v973h-41v-973z" />
    <glyph glyph-name="uhungarumlaut" unicode="&#x171;" horiz-adv-x="1177" 
d="M492 1434h43l-152 -267h-35zM797 1434h43l-172 -267h-35zM952 475v549h41v-1024h-41v281q-41 -144 -150.5 -222.5t-258.5 -78.5q-175 0 -283 108q-106 106 -106 285v651h41v-651q0 -157 95.5 -257t254.5 -100q180 0 293 125q114 126 114 334z" />
    <glyph glyph-name="Uogonek" unicode="&#x172;" horiz-adv-x="1392" 
d="M1167 461v973h41v-973q0 -244 -176 -379q-175 -149 -235 -225q-58 -73 -58 -152q0 -47 30.5 -74.5t80.5 -27.5q49 0 92 16v-33q-37 -16 -92 -16q-68 0 -108 36t-40 99q0 138 207 309q-98 -34 -213 -34q-235 0 -374 133q-138 135 -138 348v973h41v-973q0 -193 121 -320
q122 -125 350 -125q229 0 348 125q123 126 123 320z" />
    <glyph glyph-name="uogonek" unicode="&#x173;" horiz-adv-x="1177" 
d="M993 1024v-1024q-198 -168 -198 -295q0 -47 29 -74.5t77 -27.5q49 0 92 16v-33q-37 -16 -92 -16q-66 0 -104.5 36.5t-38.5 98.5q0 132 194 305v271q-41 -144 -150.5 -222.5t-258.5 -78.5q-175 0 -283 108q-106 106 -106 285v651h41v-651q0 -157 95.5 -257t254.5 -100
q180 0 293 125q114 126 114 334v549h41z" />
    <glyph glyph-name="Wcircumflex" unicode="&#x174;" horiz-adv-x="2007" 
d="M1067 1577l-207 221l-207 -221h-45l230 246h45l229 -246h-45zM1485 49l399 1385h41l-416 -1434h-49l-456 1384l-457 -1384h-49l-416 1434h41l399 -1385l457 1385h49z" />
    <glyph glyph-name="wcircumflex" unicode="&#x175;" horiz-adv-x="1576" 
d="M991 1167l-207 222l-206 -222h-46l230 246h45l229 -246h-45zM1135 59l317 965h43l-336 -1024h-45l-326 969l-325 -969h-45l-336 1024h43l317 -965l322 965h49z" />
    <glyph glyph-name="Ycircumflex" unicode="&#x176;" horiz-adv-x="1146" 
d="M776 1577l-207 221l-207 -221h-45l230 246h45l229 -246h-45zM1081 1434h45l-532 -840v-594h-41v594l-533 840h46l507 -805z" />
    <glyph glyph-name="ycircumflex" unicode="&#x177;" horiz-adv-x="1044" 
d="M752 1167l-207 222l-207 -222h-45l229 246h45l230 -246h-45zM553 2l410 1022h41l-449 -1118q-62 -154 -167.5 -240t-223.5 -76v37q105 -7 199.5 71t154.5 220l14 37l-491 1069h41z" />
    <glyph glyph-name="Ydieresis" unicode="&#x178;" horiz-adv-x="1146" 
d="M438 1610q-17 -17 -39 -9.5t-27.5 27t9.5 39.5q17 17 39 9.5t27.5 -27t-9.5 -39.5zM766 1610q-17 -17 -39 -9.5t-27.5 27t9.5 39.5q17 17 39 9.5t27.5 -27t-9.5 -39.5zM1081 1434h45l-532 -840v-594h-41v594l-533 840h46l507 -805z" />
    <glyph glyph-name="Zacute" unicode="&#x179;" horiz-adv-x="1085" 
d="M666 1823h43l-170 -246h-37zM983 1397l-836 -1360h857v-37h-902v37l838 1360h-817v37h860v-37z" />
    <glyph glyph-name="zacute" unicode="&#x17a;" horiz-adv-x="1003" 
d="M625 1413h43l-170 -246h-37zM881 1001l-703 -964h723v-37h-778v23l702 964h-682v37h738v-23z" />
    <glyph glyph-name="Zdotaccent" unicode="&#x17b;" horiz-adv-x="1085" 
d="M596 1614q-17 -17 -43 -17t-45 17q-17 19 -17 45t17 43q20 20 45.5 18t41 -19.5t20 -40.5t-18.5 -46zM983 1397l-836 -1360h857v-37h-902v37l838 1360h-817v37h860v-37z" />
    <glyph glyph-name="zdotaccent" unicode="&#x17c;" horiz-adv-x="1003" 
d="M555 1204q-17 -17 -43 -17t-45 17q-17 19 -17 45t17 43q20 20 45.5 18t41 -19.5t20 -40.5t-18.5 -46zM881 1001l-703 -964h723v-37h-778v23l702 964h-682v37h738v-23z" />
    <glyph glyph-name="Zcaron" unicode="&#x17d;" horiz-adv-x="1085" 
d="M803 1823l-230 -246h-45l-229 246h45l207 -221l207 221h45zM983 1397l-836 -1360h857v-37h-902v37l838 1360h-817v37h860v-37z" />
    <glyph glyph-name="zcaron" unicode="&#x17e;" horiz-adv-x="1003" 
d="M762 1413l-230 -246h-45l-229 246h45l207 -221l207 221h45zM881 1001l-703 -964h723v-37h-778v23l702 964h-682v37h738v-23z" />
    <glyph glyph-name="florin" unicode="&#x192;" horiz-adv-x="882" 
d="M459 737l82 471q24 142 123 207q103 65 219 23v-41q-109 47 -193 -8q-87 -56 -108 -189l-80 -463h268v-39h-274l-154 -891q-24 -142 -125 -206q-100 -65 -217 -23v41q109 -47 193 8q87 56 108 189l152 882h-256v39h262z" />
    <glyph glyph-name="Ohorn" unicode="&#x1a0;" horiz-adv-x="1720" 
d="M1380 195q-215 -215 -520 -215q-304 0 -522 215q-215 218 -215 522q0 305 215 520q217 217 522 217q83 0 178 -20h127q74 0 96.5 31t22.5 112v10h39v-10q0 -59 -10.5 -96t-33.5 -55t-47.5 -23.5t-62.5 -5.5h-20q127 -56 231 -160q217 -214 217 -520q0 -305 -217 -522z
M367 221q205 -205 493 -205q290 0 492 205q204 204 204 496q0 291 -204 495q-202 205 -492 205q-288 0 -493 -205q-203 -206 -203 -495q0 -290 203 -496z" />
    <glyph glyph-name="ohorn" unicode="&#x1a1;" horiz-adv-x="1273" 
d="M1016 133q-156 -153 -379 -153t-379 153t-156 379t156 379t379 153q76 0 154 -20h90q74 0 96 31t22 112v11h39v-11q0 -59 -10.5 -96t-33 -55t-47 -23.5t-62.5 -5.5q68 -36 131 -96q155 -152 155 -379t-155 -379zM287 160q144 -144 350 -144t350 144q143 143 143 352
t-143 352q-144 144 -350 144t-350 -144t-144 -352t144 -352z" />
    <glyph glyph-name="Uhorn" unicode="&#x1af;" horiz-adv-x="1392" 
d="M184 461v973h41v-973q0 -193 121 -320q122 -125 350 -125q229 0 348 125q123 126 123 320v973h41q74 0 96.5 31t22.5 112v10h39v-10q0 -59 -10.5 -96t-33.5 -55t-47.5 -23.5t-62.5 -5.5h-4v-936q0 -212 -139 -348q-139 -133 -373 -133q-235 0 -374 133q-138 135 -138 348
z" />
    <glyph glyph-name="uhorn" unicode="&#x1b0;" horiz-adv-x="1177" 
d="M952 475v549h43q74 0 96.5 31t22.5 112v11h39v-11q0 -59 -10.5 -96t-33.5 -55t-47.5 -23.5t-62.5 -5.5h-6v-987h-41v281q-41 -144 -150.5 -222.5t-258.5 -78.5q-175 0 -283 108q-106 106 -106 285v651h41v-651q0 -157 95.5 -257t254.5 -100q180 0 293 125
q114 126 114 334z" />
    <glyph glyph-name="Scommaaccent" unicode="&#x218;" horiz-adv-x="1167" 
d="M618 -20q-193 0 -328 87.5t-177 227.5l34 20q37 -136 162.5 -217.5t308.5 -81.5q193 0 299.5 95t106.5 247q0 126 -100.5 206t-311.5 143q-109 31 -178 60t-135 71q-129 84 -129 245q0 155 117 263q120 108 305 108q159 0 270 -77.5t162 -211.5l-33 -18
q-105 270 -399 270q-181 0 -281 -100t-100 -234q0 -106 80 -186q25 -25 96 -63q87 -40 109 -48q8 -2 53.5 -18t79.5 -27q228 -73 332 -158t104 -225q0 -171 -120.5 -274.5t-326.5 -103.5zM578 -492h-33l20 349h41z" />
    <glyph glyph-name="scommaaccent" unicode="&#x219;" horiz-adv-x="952" 
d="M184 758q0 -83 64.5 -134t171.5 -73q172 -34 234 -56q172 -61 193 -187q3 -20 3 -42q0 -124 -100 -205t-258 -81q-302 0 -379 215l32 18q65 -197 347 -197q139 0 228 70.5t89 179.5q0 86 -64.5 138.5t-171.5 74.5q-20 5 -62.5 14t-67 15t-64 16.5t-63.5 20.5t-55 25
t-49.5 33t-36 41t-25.5 51.5t-7 62.5q0 125 94 205.5t250 80.5q118 0 204.5 -52.5t123.5 -143.5l-33 -19q-33 82 -111.5 130.5t-183.5 48.5q-136 0 -219.5 -69.5t-83.5 -180.5zM487 -492h-32l20 349h41z" />
    <glyph glyph-name="uni021A" unicode="&#x21a;" 
d="M61 1434h983v-37h-471v-1397h-41v1397h-471v37zM549 -492h-33l21 349h41z" />
    <glyph glyph-name="uni021B" unicode="&#x21b;" horiz-adv-x="776" 
d="M674 1024v-37h-326v-760q0 -134 73 -175.5t253 -14.5v-37q-193 -31 -280 22t-87 205v760h-246v37h246v274l41 13v-287h326zM479 -492h-33l21 349h41z" />
    <glyph glyph-name="circumflex" unicode="&#x2c6;" horiz-adv-x="585" 
d="M315 1413l230 -246h-45l-207 222l-207 -222h-45l229 246h45z" />
    <glyph glyph-name="caron" unicode="&#x2c7;" horiz-adv-x="585" 
d="M295 1192l207 221h45l-230 -246h-45l-229 246h45z" />
    <glyph glyph-name="breve" unicode="&#x2d8;" horiz-adv-x="573" 
d="M41 1386h37q0 -82 57.5 -132t151.5 -50t151.5 50t57.5 132h36q0 -97 -67.5 -156t-177.5 -59t-178 59t-68 156z" />
    <glyph glyph-name="dotaccent" unicode="&#x2d9;" horiz-adv-x="204" 
d="M145 1204q-17 -17 -43 -17t-45 17q-17 19 -17 45t17 43q20 20 45.5 18t41 -19.5t20 -40.5t-18.5 -46z" />
    <glyph glyph-name="ring" unicode="&#x2da;" horiz-adv-x="471" 
d="M236 1147q-86 0 -140.5 52t-54.5 132t54.5 132.5t140.5 52.5q87 0 140.5 -52.5t53.5 -132.5t-53.5 -132t-140.5 -52zM121 1221q44 -41 114 -41t113 41q45 42 45 110q0 70 -45 109q-43 43 -113 43t-114 -43q-43 -41 -43 -108.5t43 -110.5z" />
    <glyph glyph-name="ogonek" unicode="&#x2db;" horiz-adv-x="321" 
d="M188 -430q-68 0 -107.5 36t-39.5 99q0 139 188 295h47q-198 -168 -198 -295q0 -47 30 -74.5t80 -27.5t93 16v-33q-37 -16 -93 -16z" />
    <glyph glyph-name="tilde" unicode="&#x2dc;" horiz-adv-x="606" 
d="M76 1208h-35q0 142 82 176q84 35 190 -77q94 -94 155.5 -70.5t61.5 143.5h35q0 -139 -84 -174q-81 -34 -188 76q-97 94 -157 70.5t-60 -144.5z" />
    <glyph glyph-name="hungarumlaut" unicode="&#x2dd;" horiz-adv-x="573" 
d="M41 1167l143 267h43l-151 -267h-35zM326 1167l163 267h43l-172 -267h-34z" />
    <glyph glyph-name="gravecomb" unicode="&#x300;" horiz-adv-x="0" 
d="M-41 1167h-35l-172 246h43z" />
    <glyph glyph-name="acutecomb" unicode="&#x301;" horiz-adv-x="0" 
d="M-248 1167l164 246h43l-170 -246h-37z" />
    <glyph glyph-name="uni0302" unicode="&#x302;" horiz-adv-x="0" 
d="M-270 1413l229 -246h-45l-207 222l-207 -222h-45l230 246h45z" />
    <glyph glyph-name="tildecomb" unicode="&#x303;" horiz-adv-x="0" 
d="M-530 1208h-35q0 142 82 176q84 35 190 -77q94 -94 155.5 -70.5t61.5 143.5h35q0 -140 -82 -174t-190 76q-97 94 -157 70.5t-60 -144.5z" />
    <glyph glyph-name="uni0304" unicode="&#x304;" horiz-adv-x="0" 
d="M-41 1231h-491v33h491v-33z" />
    <glyph glyph-name="uni0306" unicode="&#x306;" horiz-adv-x="0" 
d="M-573 1386h36q0 -82 57.5 -132t151.5 -50t151.5 50t57.5 132h37q0 -97 -68 -156t-178 -59t-177.5 59t-67.5 156z" />
    <glyph glyph-name="uni0307" unicode="&#x307;" horiz-adv-x="0" 
d="M-57 1204q-19 -17 -45 -17t-43 17q-19 19 -19 45t19 43q17 19 43 19t45 -19q17 -17 17 -43t-17 -45z" />
    <glyph glyph-name="uni0308" unicode="&#x308;" horiz-adv-x="0" 
d="M-381 1200q-17 -17 -39 -9.5t-27.5 27t9.5 39.5q17 17 39 9.5t27.5 -27t-9.5 -39.5zM-53 1200q-17 -17 -39.5 -9.5t-28 27t9.5 39.5q17 17 39.5 9.5t28 -27t-9.5 -39.5z" />
    <glyph glyph-name="uni030A" unicode="&#x30a;" horiz-adv-x="0" 
d="M-236 1147q-86 0 -140 52t-54 132t54 132.5t140 52.5q87 0 141 -52.5t54 -132.5t-54 -132t-141 -52zM-348 1221q43 -41 113 -41t114 41q43 43 43 110.5t-43 108.5q-44 43 -114 43t-113 -43q-45 -39 -45 -109q0 -68 45 -110z" />
    <glyph glyph-name="uni030B" unicode="&#x30b;" horiz-adv-x="0" 
d="M-512 1167l143 267h43l-151 -267h-35zM-227 1167l164 267h43l-173 -267h-34z" />
    <glyph glyph-name="uni030C" unicode="&#x30c;" horiz-adv-x="0" 
d="M-291 1192l207 221h45l-229 -246h-45l-230 246h45z" />
    <glyph glyph-name="uni0312" unicode="&#x312;" horiz-adv-x="0" 
d="M-74 1966h33l-20 -348h-41z" />
    <glyph glyph-name="uni0326" unicode="&#x326;" horiz-adv-x="0" 
d="M-70 -492h-32l20 349h41z" />
    <glyph glyph-name="uni0327" unicode="&#x327;" horiz-adv-x="0" 
d="M-221 0v-162q72 6 126 -28t54 -97q0 -80 -92.5 -115t-265.5 -12v33q321 -40 321 94q0 107 -180 92v195h37z" />
    <glyph glyph-name="uni0328" unicode="&#x328;" horiz-adv-x="0" 
d="M-133 -430q-68 0 -108 36t-40 99q0 138 189 295h47q-199 -169 -199 -295q0 -47 30.5 -74.5t80.5 -27.5q49 0 92 16v-33q-37 -16 -92 -16z" />
    <glyph glyph-name="uni0394" unicode="&#x394;" horiz-adv-x="1265" 
d="M608 1434h49l568 -1434h-1184zM633 1391l-535 -1354h1069z" />
    <glyph glyph-name="uni03A9" unicode="&#x3a9;" horiz-adv-x="1720" 
d="M1597 717q0 -230 -131 -416q-128 -184 -336 -264h447v-37h-549v37q228 58 379 246q149 189 149 434q0 291 -204 495q-202 205 -492 205q-288 0 -493 -205q-203 -206 -203 -495q0 -245 149 -434q151 -188 379 -246v-37h-549v37h447q-206 80 -338 264q-129 187 -129 416
q0 305 215 520q217 217 522 217q306 0 520 -217q217 -214 217 -520z" />
    <glyph glyph-name="pi" unicode="&#x3c0;" horiz-adv-x="1331" 
d="M82 1024h1167v-37h-170v-987h-41v987h-737v-987h-41v987h-178v37z" />
    <glyph glyph-name="uni0401" unicode="&#x401;" 
d="M463 1610q-17 -17 -39 -9.5t-27.5 27t9.5 39.5q17 17 39 9.5t27.5 -27t-9.5 -39.5zM791 1610q-17 -17 -39.5 -9.5t-28 27t9.5 39.5q17 17 39.5 9.5t28 -27t-9.5 -39.5zM246 705v-668h758v-37h-799v1434h788v-37h-747v-656h696v-36h-696z" />
    <glyph glyph-name="uni0402" unicode="&#x402;" horiz-adv-x="1433" 
d="M932 963q151 0 254 -95q104 -91 104 -260v-372q0 -129 -73 -194t-211 -52v37q243 -27 243 209v372q0 144 -89 231t-228 87q-108 0 -195.5 -25t-204.5 -84v-817h-40v1397h-431v37h983v-37h-512v-541q116 56 197 80q83 27 203 27z" />
    <glyph glyph-name="uni0403" unicode="&#x403;" horiz-adv-x="1024" 
d="M678 1821h43l-170 -246h-37zM205 1434h758v-37h-717v-1397h-41v1434z" />
    <glyph glyph-name="uni0404" unicode="&#x404;" horiz-adv-x="1564" 
d="M1436 344l37 -20q-88 -159 -252.5 -251.5t-360.5 -92.5q-315 0 -528 213q-209 215 -209 524q0 310 209 522q212 215 528 215q190 0 350.5 -88.5t251.5 -241.5l-35 -20q-86 144 -237.5 228.5t-329.5 84.5q-295 0 -491 -196t-205 -486h856v-37h-856q9 -289 205 -485
q197 -197 491 -197q185 0 340.5 89t235.5 239z" />
    <glyph glyph-name="uni0405" unicode="&#x405;" horiz-adv-x="1167" 
d="M618 -20q-193 0 -328 87.5t-177 227.5l34 20q37 -136 162.5 -217.5t308.5 -81.5q193 0 299.5 95t106.5 247q0 126 -100.5 206t-311.5 143q-109 31 -178 60t-135 71q-129 84 -129 245q0 155 117 263q120 108 305 108q159 0 270 -77.5t162 -211.5l-33 -18
q-105 270 -399 270q-181 0 -281 -100t-100 -234q0 -106 80 -186q25 -25 96 -63q87 -40 109 -48q8 -2 53.5 -18t79.5 -27q228 -73 332 -158t104 -225q0 -171 -120.5 -274.5t-326.5 -103.5z" />
    <glyph glyph-name="uni0406" unicode="&#x406;" horiz-adv-x="450" 
d="M205 0v1434h41v-1434h-41z" />
    <glyph glyph-name="uni0407" unicode="&#x407;" horiz-adv-x="450" 
d="M90 1610q-17 -17 -39 -9.5t-27.5 27t9.5 39.5q17 17 39 9.5t27.5 -27t-9.5 -39.5zM418 1610q-17 -17 -39.5 -9.5t-28 27t9.5 39.5q17 17 39.5 9.5t28 -27t-9.5 -39.5zM205 0v1434h41v-1434h-41z" />
    <glyph glyph-name="uni0408" unicode="&#x408;" horiz-adv-x="1134" 
d="M510 -20q-148 0 -254 60.5t-154 170.5l33 20q89 -215 375 -215q184 0 291.5 97.5t107.5 255.5v1065h41v-1065q0 -175 -123 -283q-121 -106 -317 -106z" />
    <glyph glyph-name="uni0409" unicode="&#x409;" horiz-adv-x="2037" 
d="M1157 778h369q172 0 291 -110q118 -109 118 -279q0 -169 -118 -278q-120 -111 -291 -111h-410v1397h-696v-844q0 -287 -91 -428.5t-278 -128.5v37q158 -12 243 113.5t85 406.5v881h778v-656zM1157 37h369q154 0 260 100q108 102 108 252t-108 252q-106 100 -260 100h-369
v-704z" />
    <glyph glyph-name="uni040A" unicode="&#x40a;" horiz-adv-x="2027" 
d="M1147 778h369q171 0 290 -110t119 -279q0 -168 -119 -278q-120 -111 -290 -111h-410v741h-860v-741h-41v1434h41v-656h860v656h41v-656zM1147 37h369q154 0 260 100q108 102 108 252t-108 252q-106 100 -260 100h-369v-704z" />
    <glyph glyph-name="uni040B" unicode="&#x40b;" horiz-adv-x="1454" 
d="M932 963q151 0 254 -95q104 -91 104 -260v-608h-41v608q0 144 -89 231t-228 87q-108 0 -195.5 -25t-204.5 -84v-817h-40v1397h-431v37h983v-37h-512v-541q116 56 197 80q83 27 203 27z" />
    <glyph glyph-name="uni040C" unicode="&#x40c;" horiz-adv-x="1136" 
d="M698 1821h43l-170 -246h-36zM291 737l825 -737h-55l-815 727v-727h-41v1434h41v-686l794 686h56z" />
    <glyph glyph-name="uni040E" unicode="&#x40e;" horiz-adv-x="1144" 
d="M340 1671h491v-33h-491v33zM627 414l436 1020h41l-477 -1121q-144 -334 -396 -313v37q228 -18 359 291l16 39l-524 1067h41z" />
    <glyph glyph-name="uni040F" unicode="&#x40f;" horiz-adv-x="1433" 
d="M1188 37v1397h41v-1434h-492v-274h-41v274h-491v1434h41v-1397h942z" />
    <glyph glyph-name="uni0410" unicode="&#x410;" horiz-adv-x="1286" 
d="M1235 0h-43l-154 391h-790l-154 -391h-43l567 1434h50zM643 1391l-381 -963h762z" />
    <glyph glyph-name="uni0411" unicode="&#x411;" horiz-adv-x="1198" 
d="M246 819h450q168 0 289 -121t121 -288q0 -168 -121 -289t-289 -121h-491v1434h799v-37h-758v-578zM246 37h450q152 0 260 108q109 112 109 265t-109 262q-107 110 -260 110h-450v-745z" />
    <glyph glyph-name="uni0412" unicode="&#x412;" horiz-adv-x="1290" 
d="M889 737q131 -27 213 -129q86 -103 86 -233q0 -155 -111 -266q-109 -109 -264 -109h-608v1434h561q150 0 254 -107q106 -106 106 -254q0 -115 -65.5 -207t-171.5 -129zM766 1397h-520v-647h520q131 0 225 94t94 229q0 133 -94 227q-97 97 -225 97zM246 37h567
q138 0 236 98q98 101 98 240t-98 237q-98 101 -236 101h-567v-676z" />
    <glyph glyph-name="uni0413" unicode="&#x413;" horiz-adv-x="1024" 
d="M205 1434h758v-37h-717v-1397h-41v1434z" />
    <glyph glyph-name="uni0414" unicode="&#x414;" horiz-adv-x="1413" 
d="M1178 1434v-1397h143v-311h-41v274h-1188v-274h-41v311h109q157 165 157 520v877h861zM358 1397v-840q0 -346 -145 -520h924v1360h-779z" />
    <glyph glyph-name="uni0415" unicode="&#x415;" 
d="M246 705v-668h758v-37h-799v1434h788v-37h-747v-656h696v-36h-696z" />
    <glyph glyph-name="uni0416" unicode="&#x416;" horiz-adv-x="1654" 
d="M891 737l723 -737h-51l-715 727v-727h-41v727l-715 -727h-51l723 737l-703 697h52l694 -686v686h41v-686l694 686h51z" />
    <glyph glyph-name="uni0417" unicode="&#x417;" 
d="M713 735q142 -29 226.5 -129t84.5 -237q0 -169 -127 -281q-126 -108 -330 -108q-377 0 -485 299l35 18q95 -281 450 -281q187 0 301 99q115 103 115 254q0 146 -102 245t-271 99h-157v37h120q167 0 261 94q98 94 98 233q0 150 -107 244q-107 96 -264 96q-299 0 -407 -260
l-33 19q117 278 440 278q178 0 295 -108t117 -269q0 -122 -69.5 -213.5t-190.5 -128.5z" />
    <glyph glyph-name="uni0418" unicode="&#x418;" horiz-adv-x="1433" 
d="M1229 0h-41v1364l-942 -1364h-41v1434h41v-1364l942 1364h41v-1434z" />
    <glyph glyph-name="uni0419" unicode="&#x419;" horiz-adv-x="1433" 
d="M963 1640h-492v33h492v-33zM1229 0h-41v1364l-942 -1364h-41v1434h41v-1364l942 1364h41v-1434z" />
    <glyph glyph-name="uni041A" unicode="&#x41a;" horiz-adv-x="1136" 
d="M291 737l825 -737h-55l-815 727v-727h-41v1434h41v-686l794 686h56z" />
    <glyph glyph-name="uni041B" unicode="&#x41b;" horiz-adv-x="1443" 
d="M51 0v37q158 -14 243 110.5t85 405.5v881h860v-1434h-41v1397h-778v-844q0 -287 -91.5 -428.5t-277.5 -124.5z" />
    <glyph glyph-name="uni041C" unicode="&#x41c;" horiz-adv-x="1679" 
d="M1421 1434h54v-1434h-41v1378l-586 -950h-17l-585 950v-1378h-41v1434h53l582 -947z" />
    <glyph glyph-name="uni041D" unicode="&#x41d;" horiz-adv-x="1433" 
d="M1188 756v678h41v-1434h-41v719h-942v-719h-41v1434h41v-678h942z" />
    <glyph glyph-name="uni041E" unicode="&#x41e;" horiz-adv-x="1720" 
d="M1380 195q-215 -215 -520 -215q-304 0 -522 215q-215 218 -215 522q0 305 215 520q217 217 522 217q306 0 520 -217q217 -214 217 -520q0 -305 -217 -522zM367 221q205 -205 493 -205q290 0 492 205q204 204 204 496q0 291 -204 495q-202 205 -492 205q-288 0 -493 -205
q-203 -206 -203 -495q0 -290 203 -496z" />
    <glyph glyph-name="uni041F" unicode="&#x41f;" horiz-adv-x="1433" 
d="M205 1434h1024v-1434h-41v1397h-942v-1397h-41v1434z" />
    <glyph glyph-name="uni0420" unicode="&#x420;" horiz-adv-x="1187" 
d="M205 1434h440q190 0 316 -123q124 -121 124 -307q0 -187 -124 -308q-126 -123 -316 -123h-399v-573h-41v1434zM246 610h399q173 0 287 111q112 112 112 283t-112 280q-113 113 -287 113h-399v-787z" />
    <glyph glyph-name="uni0421" unicode="&#x421;" horiz-adv-x="1564" 
d="M860 -20q-315 0 -528 213q-209 215 -209 524q0 310 209 522q212 215 528 215q190 0 350.5 -88.5t251.5 -241.5l-35 -20q-86 144 -237.5 228.5t-329.5 84.5q-300 0 -500 -203q-196 -202 -196 -497q0 -296 196 -498q200 -203 500 -203q185 0 340.5 89t235.5 239l37 -20
q-88 -159 -252.5 -251.5t-360.5 -92.5z" />
    <glyph glyph-name="uni0422" unicode="&#x422;" 
d="M61 1434h983v-37h-471v-1397h-41v1397h-471v37z" />
    <glyph glyph-name="uni0423" unicode="&#x423;" horiz-adv-x="1144" 
d="M627 414l436 1020h41l-477 -1121q-144 -334 -396 -313v37q228 -18 359 291l16 39l-524 1067h41z" />
    <glyph glyph-name="uni0424" unicode="&#x424;" horiz-adv-x="1646" 
d="M844 160v-160h-41v160q-318 3 -520 149q-201 145 -201 408q0 262 201 407q204 147 520 150v160h41v-160q316 -3 520 -150q201 -145 201 -407q0 -263 -201 -408q-202 -146 -520 -149zM803 197v1040q-311 -3 -498 -143q-182 -138 -182 -377t182 -377q187 -140 498 -143z
M844 1237v-1040q311 3 495 143q185 138 185 377t-185 377q-184 140 -495 143z" />
    <glyph glyph-name="uni0425" unicode="&#x425;" horiz-adv-x="1146" 
d="M598 731l487 -731h-49l-463 694l-462 -694h-50l488 731l-469 703h49l444 -666l445 666h49z" />
    <glyph glyph-name="uni0426" unicode="&#x426;" horiz-adv-x="1413" 
d="M1188 1434v-1397h143v-311h-41v274h-1085v1434h41v-1397h901v1397h41z" />
    <glyph glyph-name="uni0427" unicode="&#x427;" horiz-adv-x="1290" 
d="M1044 690v744h41v-1434h-41v649q-209 -96 -430 -96q-212 0 -333 109q-117 111 -117 280v492h41v-492q0 -160 109.5 -256t299.5 -96q220 0 430 100z" />
    <glyph glyph-name="uni0428" unicode="&#x428;" horiz-adv-x="1986" 
d="M1741 37v1397h41v-1434h-1577v1434h41v-1397h727v1397h41v-1397h727z" />
    <glyph glyph-name="uni0429" unicode="&#x429;" horiz-adv-x="2007" 
d="M1782 1434v-1397h143v-311h-41v274h-1679v1434h41v-1397h727v1397h41v-1397h727v1397h41z" />
    <glyph glyph-name="uni042A" unicode="&#x42a;" horiz-adv-x="1392" 
d="M850 0h-440v1397h-410v37h451v-574h399q189 0 315 -123q125 -122 125 -307t-125 -307q-126 -123 -315 -123zM451 823v-786h399q174 0 287 110q112 112 112 283q0 172 -112 281q-112 112 -287 112h-399z" />
    <glyph glyph-name="uni042B" unicode="&#x42b;" horiz-adv-x="1515" 
d="M645 0h-440v1434h41v-574h399q190 0 316 -123q124 -121 124 -307t-124 -307q-126 -123 -316 -123zM1311 0h-41v1434h41v-1434zM246 823v-786h399q174 0 287 110q112 112 112 283q0 172 -112 281q-112 112 -287 112h-399z" />
    <glyph glyph-name="uni042C" unicode="&#x42c;" horiz-adv-x="1187" 
d="M246 860h399q190 0 316 -123q124 -121 124 -307t-124 -307q-126 -123 -316 -123h-440v1434h41v-574zM246 37h399q174 0 287 110q112 112 112 283q0 172 -112 281q-112 112 -287 112h-399v-786z" />
    <glyph glyph-name="uni042D" unicode="&#x42d;" horiz-adv-x="1564" 
d="M705 1454q317 0 526 -215q211 -211 211 -522q0 -310 -211 -524q-210 -213 -526 -213q-196 0 -360.5 92.5t-252.5 251.5l37 20q80 -150 235.5 -239t340.5 -89q294 0 491 197q196 196 205 485h-856v37h856q-9 290 -205 486t-491 196q-179 0 -331 -84.5t-237 -228.5l-35 20
q91 153 252 241.5t351 88.5z" />
    <glyph glyph-name="uni042E" unicode="&#x42e;" horiz-adv-x="2170" 
d="M1311 1454q306 0 520 -217q217 -214 217 -520q0 -305 -217 -522q-215 -215 -520 -215t-523 215q-215 218 -215 522v2h-327v-719h-41v1434h41v-678h327q15 289 230 495q212 203 508 203zM817 221q205 -205 494 -205t491 205q205 205 205 496q0 290 -205 495
q-202 205 -491 205t-494 -205q-203 -206 -203 -495q0 -290 203 -496z" />
    <glyph glyph-name="uni042F" unicode="&#x42f;" horiz-adv-x="1310" 
d="M553 1434h553v-1434h-41v614h-496l-422 -614h-45l424 614q-158 9 -272 129q-111 120 -111 281q0 168 121 289t289 121zM553 651h512v746h-512q-152 0 -260 -111q-109 -109 -109 -262q0 -152 109 -264q109 -109 260 -109z" />
    <glyph glyph-name="uni0430" unicode="&#x430;" horiz-adv-x="1355" 
d="M1130 711v313h41v-1024h-41v313q-59 -151 -192 -243q-134 -90 -301 -90q-223 0 -379 153t-156 379t156 379t379 153q168 0 301 -92q133 -89 192 -241zM287 160q144 -144 350 -144t350 144q143 143 143 352t-143 352q-144 144 -350 144t-350 -144t-144 -352t144 -352z" />
    <glyph glyph-name="uni0431" unicode="&#x431;" horiz-adv-x="1187" 
d="M614 -23q-224 0 -368 144t-144 381q0 248 70 385q70 140 293 252q87 40 135 59q28 13 70 30t55 23q195 84 209 199l33 -18q-11 -59 -59 -109.5t-107 -77.5l-154 -67q-74 -29 -162 -70q-172 -84 -247 -190q-76 -108 -91 -293q72 146 200.5 225.5t279.5 79.5
q202 0 340 -135q139 -136 139 -344q0 -207 -139 -340q-140 -134 -353 -134zM614 14q197 0 324 121q127 124 127 316q0 190 -125 315q-127 127 -313 127q-178 0 -310 -111q-134 -113 -174 -280q0 -215 131 -352q133 -136 340 -136z" />
    <glyph glyph-name="uni0432" unicode="&#x432;" horiz-adv-x="1064" 
d="M770 532q103 -23 158 -91.5t55 -168.5q0 -122 -80.5 -197t-224.5 -75h-494v1024h459q136 0 212.5 -71.5t76.5 -186.5q0 -179 -162 -234zM643 987h-418v-442h418q117 0 182.5 59t65.5 162t-65.5 162t-182.5 59zM225 37h453q124 0 194 62.5t70 172.5q0 111 -70 173.5
t-194 62.5h-453v-471z" />
    <glyph glyph-name="uni0433" unicode="&#x433;" horiz-adv-x="829" 
d="M184 1024h615v-37h-574v-987h-41v1024z" />
    <glyph glyph-name="uni0434" unicode="&#x434;" horiz-adv-x="1208" 
d="M983 1024v-987h143v-311h-41v274h-983v-274h-41v311h109q123 176 123 461v526h690zM217 37h725v950h-608v-489q0 -282 -117 -461z" />
    <glyph glyph-name="uni0435" unicode="&#x435;" horiz-adv-x="1226" 
d="M621 1044q224 0 362 -159q141 -156 141 -377v-21h-981q9 -209 146 -340t340 -131q134 0 242 57t159 154l35 -20q-61 -105 -176 -166t-260 -61q-228 0 -377 149q-150 150 -150 383q0 227 146 379q147 153 373 153zM143 524h944q-12 215 -145 348q-133 136 -321 136
q-200 0 -338 -138q-137 -137 -140 -346z" />
    <glyph glyph-name="uni0436" unicode="&#x436;" horiz-adv-x="1314" 
d="M719 532l534 -532h-53l-522 518v-518h-41v518l-522 -518h-54l535 532l-514 492h53l502 -477v477h41v-477l502 477h53z" />
    <glyph glyph-name="uni0437" unicode="&#x437;" horiz-adv-x="911" 
d="M598 532q109 -24 170 -97t61 -173q0 -122 -98 -202t-264 -80q-309 0 -385 235l33 18q64 -217 352 -217q147 0 234 67.5t87 178.5t-77 178.5t-207 67.5h-123v37h88q123 0 195.5 63t72.5 168q0 102 -80.5 167t-205.5 65q-117 0 -200 -51t-116 -138l-33 19q37 95 129 150.5
t220 55.5q149 0 237 -79q90 -78 90 -189q0 -85 -47 -150t-133 -94z" />
    <glyph glyph-name="uni0438" unicode="&#x438;" horiz-adv-x="1187" 
d="M225 66l738 958h41v-1024h-41v958l-738 -958h-41v1024h41v-958z" />
    <glyph glyph-name="uni0439" unicode="&#x439;" horiz-adv-x="1187" 
d="M840 1231h-492v33h492v-33zM225 66l738 958h41v-1024h-41v958l-738 -958h-41v1024h41v-958z" />
    <glyph glyph-name="uni043A" unicode="&#x43a;" horiz-adv-x="944" 
d="M268 532l615 -532h-58l-600 520v-520h-41v1024h41v-479l580 479h57z" />
    <glyph glyph-name="uni043B" unicode="&#x43b;" horiz-adv-x="1187" 
d="M303 1024h701v-1024h-41v987h-619v-571q0 -230 -79.5 -329.5t-223.5 -86.5v37q134 -11 198 82t64 297v608z" />
    <glyph glyph-name="uni043C" unicode="&#x43c;" horiz-adv-x="1331" 
d="M1092 1024h55v-1024h-41v973l-434 -654h-13l-434 654v-973h-41v1024h56l426 -639z" />
    <glyph glyph-name="uni043D" unicode="&#x43d;" horiz-adv-x="1187" 
d="M963 530v494h41v-1024h-41v494h-738v-494h-41v1024h41v-494h738z" />
    <glyph glyph-name="uni043E" unicode="&#x43e;" horiz-adv-x="1273" 
d="M1016 133q-156 -153 -379 -153t-379 153t-156 379t156 379t379 153t379 -153q155 -152 155 -379t-155 -379zM287 160q144 -144 350 -144t350 144q143 143 143 352t-143 352q-144 144 -350 144t-350 -144t-144 -352t144 -352z" />
    <glyph glyph-name="uni043F" unicode="&#x43f;" horiz-adv-x="1187" 
d="M184 1024h820v-1024h-41v987h-738v-987h-41v1024z" />
    <glyph glyph-name="uni0440" unicode="&#x440;" horiz-adv-x="1355" 
d="M719 1044q223 0 379 -153q155 -152 155 -379t-155 -379q-156 -153 -379 -153q-171 0 -305 94q-134 96 -189 248v-732h-41v1434h41v-322q55 152 189 248q134 94 305 94zM369 160q144 -144 350 -144t350 144q143 143 143 352t-143 352q-144 144 -350 144t-350 -144
t-144 -352t144 -352z" />
    <glyph glyph-name="uni0441" unicode="&#x441;" horiz-adv-x="1185" 
d="M637 -20q-228 0 -381 153q-154 154 -154 379t154 379q153 153 381 153q149 0 269 -67t177 -182l-32 -21q-55 107 -165.5 170.5t-248.5 63.5q-213 0 -354 -144q-140 -143 -140 -352q0 -208 140 -354q142 -142 354 -142q138 0 248 63.5t166 170.5l32 -21
q-57 -115 -177 -182t-269 -67z" />
    <glyph glyph-name="uni0442" unicode="&#x442;" horiz-adv-x="901" 
d="M41 1024h819v-37h-389v-987h-41v987h-389v37z" />
    <glyph glyph-name="uni0443" unicode="&#x443;" horiz-adv-x="1044" 
d="M553 2l410 1022h41l-449 -1118q-62 -154 -167.5 -240t-223.5 -76v37q105 -7 199.5 71t154.5 220l14 37l-491 1069h41z" />
    <glyph glyph-name="uni0444" unicode="&#x444;" horiz-adv-x="1372" 
d="M707 -25v-385h-41v385q-249 9 -406 160q-158 152 -158 377t158 377q157 151 406 160v385h41v-385q248 -9 405 -160q158 -152 158 -377t-158 -377q-157 -151 -405 -160zM666 12v1000q-230 -9 -377 -150q-146 -140 -146 -350q0 -209 146 -352q148 -139 377 -148zM707 1012
v-1000q229 9 374 148q148 142 148 352q0 211 -148 350q-144 141 -374 150z" />
    <glyph glyph-name="uni0445" unicode="&#x445;" horiz-adv-x="1024" 
d="M537 524l426 -524h-52l-399 494l-399 -494h-52l426 524l-405 500h49l381 -469l381 469h49z" />
    <glyph glyph-name="uni0446" unicode="&#x446;" horiz-adv-x="1228" 
d="M983 1024v-987h164v-311h-41v274h-922v1024h41v-987h717v987h41z" />
    <glyph glyph-name="uni0447" unicode="&#x447;" horiz-adv-x="1126" 
d="M901 467v557h41v-1024h-41v426q-170 -78 -352 -78q-189 0 -297.5 87.5t-108.5 240.5v348h41v-348q0 -136 96.5 -213.5t268.5 -77.5q184 0 352 82z" />
    <glyph glyph-name="uni0448" unicode="&#x448;" horiz-adv-x="1699" 
d="M1475 37v987h41v-1024h-1332v1024h41v-987h604v987h41v-987h605z" />
    <glyph glyph-name="uni0449" unicode="&#x449;" horiz-adv-x="1740" 
d="M1516 1024v-987h143v-311h-41v274h-1434v1024h41v-987h604v987h41v-987h605v987h41z" />
    <glyph glyph-name="uni044A" unicode="&#x44a;" 
d="M348 610h344q138 0 234 -84q98 -82 98 -219q0 -138 -98 -223q-96 -84 -234 -84h-385v987h-307v37h348v-414zM348 37h344q125 0 207 76q84 78 84 194q0 117 -81.5 191.5t-209.5 74.5h-344v-536z" />
    <glyph glyph-name="uni044B" unicode="&#x44b;" horiz-adv-x="1310" 
d="M225 610h344q138 0 234 -84q98 -82 98 -219q0 -138 -98 -223q-96 -84 -234 -84h-385v1024h41v-414zM1085 0v1024h41v-1024h-41zM225 37h344q125 0 207 76q84 78 84 194q0 117 -81.5 191.5t-209.5 74.5h-344v-536z" />
    <glyph glyph-name="uni044C" unicode="&#x44c;" horiz-adv-x="983" 
d="M225 610h344q138 0 234 -84q98 -82 98 -219q0 -138 -98 -223q-96 -84 -234 -84h-385v1024h41v-414zM225 37h344q125 0 207 76q84 78 84 194q0 117 -81.5 191.5t-209.5 74.5h-344v-536z" />
    <glyph glyph-name="uni044D" unicode="&#x44d;" horiz-adv-x="1165" 
d="M539 1044q234 0 379 -151t145 -381t-145 -381t-379 -151q-155 0 -277.5 66.5t-179.5 182.5l33 21q56 -110 167.5 -172t256.5 -62q211 0 344 136t139 342h-567v36h567q-6 206 -139 342t-344 136q-147 0 -258.5 -62t-165.5 -172l-33 21q57 116 179.5 182.5t277.5 66.5z" />
    <glyph glyph-name="uni044E" unicode="&#x44e;" horiz-adv-x="1658" 
d="M1022 1044q223 0 379 -153q155 -152 155 -379t-155 -379q-156 -153 -379 -153q-220 0 -373 147t-162 367h-262v-494h-41v1024h41v-494h262q9 220 162 367t373 147zM672 160q144 -144 350 -144t350 144t144 352t-144 352t-350 144t-350 -144t-144 -352t144 -352z" />
    <glyph glyph-name="uni044F" unicode="&#x44f;" horiz-adv-x="1024" 
d="M455 1024h385v-1024h-41v414h-312l-331 -414h-54l338 414q-133 3 -225 86t-92 217q0 137 96 221q100 86 236 86zM455 451h344v536h-344q-125 0 -209 -78q-82 -76 -82 -192q0 -117 81.5 -191.5t209.5 -74.5z" />
    <glyph glyph-name="uni0451" unicode="&#x451;" horiz-adv-x="1226" 
d="M473 1200q-17 -17 -39 -9.5t-27.5 27t9.5 39.5q17 17 39 9.5t27.5 -27t-9.5 -39.5zM801 1200q-17 -17 -39.5 -9.5t-28 27t9.5 39.5q17 17 39.5 9.5t28 -27t-9.5 -39.5zM621 1044q224 0 362 -159q141 -156 141 -377v-21h-981q9 -209 146 -340t340 -131q134 0 242 57
t159 154l35 -20q-61 -105 -176 -166t-260 -61q-228 0 -377 149q-150 150 -150 383q0 227 146 379q147 153 373 153zM143 524h944q-12 215 -145 348q-133 136 -321 136q-200 0 -338 -138q-137 -137 -140 -346z" />
    <glyph glyph-name="uni0452" unicode="&#x452;" horiz-adv-x="1218" 
d="M676 1044q172 0 280 -108q109 -109 109 -285v-835q0 -129 -73.5 -194t-211.5 -52v37q244 -27 244 209v835q0 157 -95.5 257t-254.5 100q-180 0 -295 -127q-113 -125 -113 -332v-549h-41v1219h-164v34h164v181h41v-181h369v-34h-369v-476q41 144 151 222.5t259 78.5z" />
    <glyph glyph-name="uni0453" unicode="&#x453;" horiz-adv-x="829" 
d="M555 1413h43l-170 -246h-37zM184 1024h615v-37h-574v-987h-41v1024z" />
    <glyph glyph-name="uni0454" unicode="&#x454;" horiz-adv-x="1165" 
d="M627 16q145 0 256.5 62t167.5 172l32 -21q-57 -116 -179 -182.5t-277 -66.5q-234 0 -379 151q-146 152 -146 381t146 381q145 151 379 151q155 0 277 -66.5t179 -182.5l-32 -21q-54 110 -165.5 172t-258.5 62q-213 0 -346 -136q-132 -135 -138 -342h568v-36h-568
q6 -207 138 -342q133 -136 346 -136z" />
    <glyph glyph-name="uni0455" unicode="&#x455;" horiz-adv-x="952" 
d="M184 758q0 -83 64.5 -134t171.5 -73q172 -34 234 -56q172 -61 193 -187q3 -20 3 -42q0 -124 -100 -205t-258 -81q-302 0 -379 215l32 18q65 -197 347 -197q139 0 228 70.5t89 179.5q0 86 -64.5 138.5t-171.5 74.5q-20 5 -62.5 14t-67 15t-64 16.5t-63.5 20.5t-55 25
t-49.5 33t-36 41t-25.5 51.5t-7 62.5q0 125 94 205.5t250 80.5q118 0 204.5 -52.5t123.5 -143.5l-33 -19q-33 82 -111.5 130.5t-183.5 48.5q-136 0 -219.5 -69.5t-83.5 -180.5z" />
    <glyph glyph-name="uni0456" unicode="&#x456;" horiz-adv-x="409" 
d="M238 1348q-19 -22 -45.5 -12.5t-33.5 33t11 44.5q21 21 47 12.5t32.5 -31.5t-11.5 -46zM225 0h-41v1024h41v-1024z" />
    <glyph glyph-name="uni0457" unicode="&#x457;" horiz-adv-x="409" 
d="M70 1200q-17 -17 -39.5 -9.5t-28 27t9.5 39.5q17 17 39.5 9.5t28 -27t-9.5 -39.5zM397 1200q-17 -17 -39 -9.5t-27.5 27t9.5 39.5q17 17 39 9.5t27.5 -27t-9.5 -39.5zM225 0h-41v1024h41v-1024z" />
    <glyph glyph-name="uni0458" unicode="&#x458;" horiz-adv-x="428" 
d="M188 1413q21 21 47 12.5t32.5 -31.5t-11.5 -46q-19 -22 -45.5 -12.5t-33.5 33t11 44.5zM203 -184v1208h41v-1208q0 -129 -73.5 -194t-211.5 -52v37q244 -27 244 209z" />
    <glyph glyph-name="uni0459" unicode="&#x459;" horiz-adv-x="1699" 
d="M983 569h324q137 0 224 -75t87 -207t-88.5 -209.5t-222.5 -77.5h-365v987h-598v-571q0 -230 -79.5 -329.5t-223.5 -86.5v37q134 -11 198 82t64 297v608h680v-455zM983 37h324q122 0 196 67.5t74 182.5q0 114 -73.5 179.5t-196.5 65.5h-324v-495z" />
    <glyph glyph-name="uni045A" unicode="&#x45a;" horiz-adv-x="1658" 
d="M942 569h324q137 0 224 -75t87 -207t-88.5 -209.5t-222.5 -77.5h-365v532h-696v-532h-41v1024h41v-455h696v455h41v-455zM942 37h324q122 0 196 67.5t74 182.5q0 114 -73.5 179.5t-196.5 65.5h-324v-495z" />
    <glyph glyph-name="uni045B" unicode="&#x45b;" horiz-adv-x="1218" 
d="M676 1044q172 0 280 -108q109 -109 109 -285v-651h-41v651q0 157 -95.5 257t-254.5 100q-180 0 -295 -127q-113 -125 -113 -332v-549h-41v1219h-164v34h164v181h41v-181h369v-34h-369v-476q41 144 151 222.5t259 78.5z" />
    <glyph glyph-name="uni045C" unicode="&#x45c;" horiz-adv-x="944" 
d="M596 1413h43l-170 -246h-37zM268 532l615 -532h-58l-600 520v-520h-41v1024h41v-479l580 479h57z" />
    <glyph glyph-name="uni045E" unicode="&#x45e;" horiz-adv-x="1044" 
d="M303 1264h492v-33h-492v33zM553 2l410 1022h41l-449 -1118q-62 -154 -167.5 -240t-223.5 -76v37q105 -7 199.5 71t154.5 220l14 37l-491 1069h41z" />
    <glyph glyph-name="uni045F" unicode="&#x45f;" horiz-adv-x="1187" 
d="M963 37v987h41v-1024h-390v-274h-41v274h-389v1024h41v-987h738z" />
    <glyph glyph-name="uni0490" unicode="&#x490;" horiz-adv-x="1024" 
d="M922 1434v245h41v-282h-717v-1397h-41v1434h717z" />
    <glyph glyph-name="uni0491" unicode="&#x491;" horiz-adv-x="829" 
d="M758 1024v213h41v-250h-574v-987h-41v1024h574z" />
    <glyph glyph-name="Wgrave" unicode="&#x1e80;" horiz-adv-x="2007" 
d="M915 1577h-34l-172 246h43zM498 0h49l457 1384l456 -1384h49l416 1434h-41l-399 -1385l-457 1385h-49l-457 -1385l-399 1385h-41z" />
    <glyph glyph-name="wgrave" unicode="&#x1e81;" horiz-adv-x="1576" 
d="M676 1413l164 -246h-35l-172 246h43zM1135 59l317 965h43l-336 -1024h-45l-326 969l-325 -969h-45l-336 1024h43l317 -965l322 965h49z" />
    <glyph glyph-name="Wacute" unicode="&#x1e82;" horiz-adv-x="2007" 
d="M813 1577l164 246h43l-170 -246h-37zM498 0h49l457 1384l456 -1384h49l416 1434h-41l-399 -1385l-457 1385h-49l-457 -1385l-399 1385h-41z" />
    <glyph glyph-name="wacute" unicode="&#x1e83;" horiz-adv-x="1576" 
d="M901 1413h43l-170 -246h-37zM1135 59l317 965h43l-336 -1024h-45l-326 969l-325 -969h-45l-336 1024h43l317 -965l322 965h49z" />
    <glyph glyph-name="Wdieresis" unicode="&#x1e84;" horiz-adv-x="2007" 
d="M729 1610q-17 -17 -39 -9.5t-27.5 27t9.5 39.5q17 17 39 9.5t27.5 -27t-9.5 -39.5zM1057 1610q-17 -17 -39.5 -9.5t-28 27t9.5 39.5q17 17 39.5 9.5t28 -27t-9.5 -39.5zM547 0h-49l-416 1434h41l399 -1385l457 1385h49l457 -1385l399 1385h41l-416 -1434h-49l-456 1384z
" />
    <glyph glyph-name="wdieresis" unicode="&#x1e85;" horiz-adv-x="1576" 
d="M653 1200q-17 -17 -39 -9.5t-27.5 27t9.5 39.5q17 17 39 9.5t27.5 -27t-9.5 -39.5zM981 1200q-17 -17 -39 -9.5t-27.5 27t9.5 39.5q17 17 39 9.5t27.5 -27t-9.5 -39.5zM1135 59l317 965h43l-336 -1024h-45l-326 969l-325 -969h-45l-336 1024h43l317 -965l322 965h49z" />
    <glyph glyph-name="uni1EA0" unicode="&#x1ea0;" horiz-adv-x="1286" 
d="M680 -274q-19 -22 -45.5 -12.5t-33.5 33t11 44.5q21 21 47 12.5t32.5 -31.5t-11.5 -46zM1235 0h-43l-154 391h-790l-154 -391h-43l567 1434h50zM643 1391l-381 -963h762z" />
    <glyph glyph-name="uni1EA1" unicode="&#x1ea1;" horiz-adv-x="1355" 
d="M664 -274q-19 -22 -45.5 -12.5t-33.5 33t11 44.5q21 21 47 12.5t32.5 -31.5t-11.5 -46zM1130 711v313h41v-1024h-41v313q-59 -151 -192 -243q-134 -90 -301 -90q-223 0 -379 153t-156 379t156 379t379 153q168 0 301 -92q133 -89 192 -241zM287 160q144 -144 350 -144
t350 144q143 143 143 352t-143 352q-144 144 -350 144t-350 -144t-144 -352t144 -352z" />
    <glyph glyph-name="uni1EA2" unicode="&#x1ea2;" horiz-adv-x="1286" 
d="M657 1577h-32q0 55 12 61q13 16 49 37q3 2 5 3t5 3q74 45 74 99q0 44 -33 71t-90 27q-78 0 -129 -72h-4q-4 3 -22 17q25 39 65.5 61.5t89.5 22.5q62 0 108 -33t46 -92q0 -33 -16.5 -60t-30.5 -37.5t-39 -25.5h2q-43 -22 -51.5 -35.5t-8.5 -46.5zM1235 0h-43l-154 391
h-790l-154 -391h-43l567 1434h50zM643 1391l-381 -963h762z" />
    <glyph glyph-name="uni1EA3" unicode="&#x1ea3;" horiz-adv-x="1355" 
d="M776 1167h-33q0 55 13 62q13 16 49 37q3 2 5 3t5 3q74 45 74 98q0 44 -33 71t-90 27q-79 0 -129 -71h-4q-18 12 -23 16q25 39 66 61.5t90 22.5q62 0 108 -33t46 -92q0 -33 -16.5 -60t-30.5 -37.5t-39 -25.5h2q-43 -22 -51.5 -35.5t-8.5 -46.5zM1130 711v313h41v-1024h-41
v313q-59 -151 -192 -243q-134 -90 -301 -90q-223 0 -379 153t-156 379t156 379t379 153q168 0 301 -92q133 -89 192 -241zM287 160q144 -144 350 -144t350 144q143 143 143 352t-143 352q-144 144 -350 144t-350 -144t-144 -352t144 -352z" />
    <glyph glyph-name="uni1EA4" unicode="&#x1ea4;" horiz-adv-x="1286" 
d="M1235 0h-43l-154 391h-790l-154 -391h-43l567 1434h50zM643 1391l-381 -963h762zM831 1577l-192 207l-193 -207h-40l212 229h41l215 -229h-43zM856 1747l154 229h39l-158 -229h-35z" />
    <glyph glyph-name="uni1EA5" unicode="&#x1ea5;" horiz-adv-x="1355" 
d="M911 1167l-192 207l-193 -207h-41l213 230h41l215 -230h-43zM1130 711v313h41v-1024h-41v313q-59 -151 -192 -243q-134 -90 -301 -90q-223 0 -379 153t-156 379t156 379t379 153q168 0 301 -92q133 -89 192 -241zM287 160q144 -144 350 -144t350 144q143 143 143 352
t-143 352q-144 144 -350 144t-350 -144t-144 -352t144 -352zM936 1337l154 230h38l-157 -230h-35z" />
    <glyph glyph-name="uni1EA6" unicode="&#x1ea6;" horiz-adv-x="1286" 
d="M1235 0h-43l-154 391h-790l-154 -391h-43l567 1434h50zM643 1391l-381 -963h762zM831 1577l-192 207l-193 -207h-40l212 229h41l215 -229h-43zM920 1747h-33l-160 229h41z" />
    <glyph glyph-name="uni1EA7" unicode="&#x1ea7;" horiz-adv-x="1355" 
d="M911 1167l-192 207l-193 -207h-41l213 230h41l215 -230h-43zM1130 711v313h41v-1024h-41v313q-59 -151 -192 -243q-134 -90 -301 -90q-223 0 -379 153t-156 379t156 379t379 153q168 0 301 -92q133 -89 192 -241zM287 160q144 -144 350 -144t350 144q143 143 143 352
t-143 352q-144 144 -350 144t-350 -144t-144 -352t144 -352zM999 1337h-32l-160 230h41z" />
    <glyph glyph-name="uni1EA8" unicode="&#x1ea8;" horiz-adv-x="1286" 
d="M1235 0h-43l-154 391h-790l-154 -391h-43l567 1434h50zM643 1391l-381 -963h762zM831 1577l-192 207l-193 -207h-40l212 229h41l215 -229h-43zM883 1747h-31q0 51 10 57q12 14 47 35l2.5 2.5t2.5 1t4 2.5q69 40 69 90q0 41 -31 67t-84 26q-73 0 -120 -68h-4q-2 2 -9 7
t-12 9q24 36 62 57t83 21q57 0 100.5 -31t43.5 -86q0 -12 -2.5 -23t-5.5 -19.5t-10 -17.5t-11 -14t-13.5 -13t-12.5 -10t-13.5 -9.5t-11.5 -7.5q-27 -14 -38.5 -25.5t-13 -19.5t-1.5 -31z" />
    <glyph glyph-name="uni1EA9" unicode="&#x1ea9;" horiz-adv-x="1355" 
d="M911 1167l-192 207l-193 -207h-41l213 230h41l215 -230h-43zM1130 711v313h41v-1024h-41v313q-59 -151 -192 -243q-134 -90 -301 -90q-223 0 -379 153t-156 379t156 379t379 153q168 0 301 -92q133 -89 192 -241zM287 160q144 -144 350 -144t350 144q143 143 143 352
t-143 352q-144 144 -350 144t-350 -144t-144 -352t144 -352zM963 1337h-31q0 52 10 58q12 14 47 35q2 2 8 6q70 41 70 90q0 41 -31 66.5t-84 25.5q-74 0 -121 -68h-4q-5 5 -20 17q24 36 62 57t83 21q57 0 100.5 -31t43.5 -86q0 -11 -1.5 -20.5t-5.5 -18.5t-7 -15.5t-10 -14
t-10.5 -11.5t-12.5 -11t-11 -9t-11.5 -8.5t-10.5 -6.5q-27 -14 -38.5 -25.5t-13 -19.5t-1.5 -31z" />
    <glyph glyph-name="uni1EAA" unicode="&#x1eaa;" horiz-adv-x="1286" 
d="M1235 0h-43l-154 391h-790l-154 -391h-43l567 1434h50zM643 1391l-381 -963h762zM831 1577l-192 207l-193 -207h-40l212 229h41l215 -229h-43zM430 1872h-33q0 130 76 164q79 31 178 -74q86 -87 143.5 -64t57.5 134h33q0 -131 -78 -162q-77 -30 -176 69q-89 88 -145 66.5
t-56 -133.5z" />
    <glyph glyph-name="uni1EAB" unicode="&#x1eab;" horiz-adv-x="1355" 
d="M911 1167l-192 207l-193 -207h-41l213 230h41l215 -230h-43zM1130 711v313h41v-1024h-41v313q-59 -151 -192 -243q-134 -90 -301 -90q-223 0 -379 153t-156 379t156 379t379 153q168 0 301 -92q133 -89 192 -241zM287 160q144 -144 350 -144t350 144q143 143 143 352
t-143 352q-144 144 -350 144t-350 -144t-144 -352t144 -352zM510 1462h-33q0 130 76 164q79 31 178 -74q86 -87 143.5 -64t57.5 134h33q0 -131 -78 -162q-76 -30 -176 70q-89 88 -145 66t-56 -134z" />
    <glyph glyph-name="uni1EAC" unicode="&#x1eac;" horiz-adv-x="1286" 
d="M1235 0h-43l-154 391h-790l-154 -391h-43l567 1434h50zM643 1391l-381 -963h762zM831 1577l-192 207l-193 -207h-40l212 229h41l215 -229h-43zM680 -274q-19 -22 -45.5 -12.5t-33.5 33t11 44.5q21 21 47 12.5t32.5 -31.5t-11.5 -46z" />
    <glyph glyph-name="uni1EAD" unicode="&#x1ead;" horiz-adv-x="1355" 
d="M911 1167l-192 207l-193 -207h-41l213 230h41l215 -230h-43zM1130 711v313h41v-1024h-41v313q-59 -151 -192 -243q-134 -90 -301 -90q-223 0 -379 153t-156 379t156 379t379 153q168 0 301 -92q133 -89 192 -241zM287 160q144 -144 350 -144t350 144q143 143 143 352
t-143 352q-144 144 -350 144t-350 -144t-144 -352t144 -352zM664 -274q-19 -22 -45.5 -12.5t-33.5 33t11 44.5q21 21 47 12.5t32.5 -31.5t-11.5 -46z" />
    <glyph glyph-name="uni1EAE" unicode="&#x1eae;" horiz-adv-x="1286" 
d="M1235 0h-43l-154 391h-790l-154 -391h-43l567 1434h50zM643 1391l-381 -963h762zM416 1782h35q0 -76 53 -123t139 -47q88 0 141.5 47t53.5 123h34q0 -91 -63 -146t-166 -55t-165 55t-62 146zM612 1835l154 229h39l-158 -229h-35z" />
    <glyph glyph-name="uni1EAF" unicode="&#x1eaf;" horiz-adv-x="1355" 
d="M526 1372h35q0 -76 53.5 -123t139.5 -47q88 0 141 46.5t53 123.5h35q0 -91 -63 -146t-166 -55t-165.5 55t-62.5 146zM1130 711v313h41v-1024h-41v313q-59 -151 -192 -243q-134 -90 -301 -90q-223 0 -379 153t-156 379t156 379t379 153q168 0 301 -92q133 -89 192 -241z
M287 160q144 -144 350 -144t350 144q143 143 143 352t-143 352q-144 144 -350 144t-350 -144t-144 -352t144 -352zM723 1425l154 230h38l-157 -230h-35z" />
    <glyph glyph-name="uni1EB0" unicode="&#x1eb0;" horiz-adv-x="1286" 
d="M1235 0h-43l-154 391h-790l-154 -391h-43l567 1434h50zM643 1391l-381 -963h762zM416 1782h35q0 -76 53 -123t139 -47q88 0 141.5 47t53.5 123h34q0 -91 -63 -146t-166 -55t-165 55t-62 146zM690 1835h-33l-159 229h41z" />
    <glyph glyph-name="uni1EB1" unicode="&#x1eb1;" horiz-adv-x="1355" 
d="M526 1372h35q0 -76 53.5 -123t139.5 -47q88 0 141 46.5t53 123.5h35q0 -91 -63 -146t-166 -55t-165.5 55t-62.5 146zM1130 711v313h41v-1024h-41v313q-59 -151 -192 -243q-134 -90 -301 -90q-223 0 -379 153t-156 379t156 379t379 153q168 0 301 -92q133 -89 192 -241z
M287 160q144 -144 350 -144t350 144q143 143 143 352t-143 352q-144 144 -350 144t-350 -144t-144 -352t144 -352zM801 1425h-33l-160 230h41z" />
    <glyph glyph-name="uni1EB2" unicode="&#x1eb2;" horiz-adv-x="1286" 
d="M1235 0h-43l-154 391h-790l-154 -391h-43l567 1434h50zM643 1391l-381 -963h762zM416 1782h35q0 -76 53 -123t139 -47q88 0 141.5 47t53.5 123h34q0 -91 -63 -146t-166 -55t-165 55t-62 146zM659 1835h-30q0 51 10 57q12 14 47 35q2 2 8 6q70 41 70 90q0 41 -31 67
t-84 26q-74 0 -121 -68h-4q-2 2 -4.5 4t-7 5.5t-8.5 6.5q24 36 62 57t83 21q57 0 100.5 -31t43.5 -86q0 -12 -2.5 -23t-5.5 -19.5t-10 -17.5t-11 -14t-13.5 -13t-12.5 -10t-13.5 -9.5t-11.5 -7.5q-39 -20 -46.5 -32.5t-7.5 -43.5z" />
    <glyph glyph-name="uni1EB3" unicode="&#x1eb3;" horiz-adv-x="1355" 
d="M526 1372h35q0 -76 53.5 -123t139.5 -47q88 0 141 46.5t53 123.5h35q0 -91 -63 -146t-166 -55t-165.5 55t-62.5 146zM1130 711v313h41v-1024h-41v313q-59 -151 -192 -243q-134 -90 -301 -90q-223 0 -379 153t-156 379t156 379t379 153q168 0 301 -92q133 -89 192 -241z
M287 160q144 -144 350 -144t350 144q143 143 143 352t-143 352q-144 144 -350 144t-350 -144t-144 -352t144 -352zM770 1425h-31q0 51 11 58q12 14 47 35q2 2 8 6q69 40 69 90q0 41 -30.5 66.5t-83.5 25.5q-74 0 -121 -68h-4q-1 1 -21 17q24 36 62.5 57t83.5 21
q57 0 100 -31t43 -86q0 -11 -1.5 -20.5t-5.5 -18.5t-7 -15.5t-10 -14t-10.5 -11.5t-12.5 -11t-11 -9t-11.5 -8.5t-10.5 -6.5q-27 -14 -38.5 -25.5t-13 -19.5t-1.5 -31z" />
    <glyph glyph-name="uni1EB4" unicode="&#x1eb4;" horiz-adv-x="1286" 
d="M1235 0h-43l-154 391h-790l-154 -391h-43l567 1434h50zM643 1391l-381 -963h762zM416 1782h35q0 -76 53 -123t139 -47q88 0 141.5 47t53.5 123h34q0 -91 -63 -146t-166 -55t-165 55t-62 146zM432 1851h-33q0 130 76 164q80 31 178 -73q86 -87 143.5 -64.5t57.5 133.5h33
q0 -131 -78 -162q-76 -30 -176 70q-89 88 -145 66t-56 -134z" />
    <glyph glyph-name="uni1EB5" unicode="&#x1eb5;" horiz-adv-x="1355" 
d="M526 1372h35q0 -76 53.5 -123t139.5 -47q88 0 141 46.5t53 123.5h35q0 -91 -63 -146t-166 -55t-165.5 55t-62.5 146zM1130 711v313h41v-1024h-41v313q-59 -151 -192 -243q-134 -90 -301 -90q-223 0 -379 153t-156 379t156 379t379 153q168 0 301 -92q133 -89 192 -241z
M287 160q144 -144 350 -144t350 144q143 143 143 352t-143 352q-144 144 -350 144t-350 -144t-144 -352t144 -352zM543 1442h-33q0 130 76 164q79 31 178 -74q86 -87 143.5 -64t57.5 134h32q0 -132 -77 -162q-78 -30 -177 69q-89 88 -144.5 66.5t-55.5 -133.5z" />
    <glyph glyph-name="uni1EB6" unicode="&#x1eb6;" horiz-adv-x="1286" 
d="M1235 0h-43l-154 391h-790l-154 -391h-43l567 1434h50zM643 1391l-381 -963h762zM416 1782h35q0 -76 53 -123t139 -47q88 0 141.5 47t53.5 123h34q0 -91 -63 -146t-166 -55t-165 55t-62 146zM680 -274q-19 -22 -45.5 -12.5t-33.5 33t11 44.5q21 21 47 12.5t32.5 -31.5
t-11.5 -46z" />
    <glyph glyph-name="uni1EB7" unicode="&#x1eb7;" horiz-adv-x="1355" 
d="M526 1372h35q0 -76 53.5 -123t139.5 -47q88 0 141 46.5t53 123.5h35q0 -91 -63 -146t-166 -55t-165.5 55t-62.5 146zM1130 711v313h41v-1024h-41v313q-59 -151 -192 -243q-134 -90 -301 -90q-223 0 -379 153t-156 379t156 379t379 153q168 0 301 -92q133 -89 192 -241z
M287 160q144 -144 350 -144t350 144q143 143 143 352t-143 352q-144 144 -350 144t-350 -144t-144 -352t144 -352zM664 -274q-19 -22 -45.5 -12.5t-33.5 33t11 44.5q21 21 47 12.5t32.5 -31.5t-11.5 -46z" />
    <glyph glyph-name="uni1EB8" unicode="&#x1eb8;" 
d="M614 -274q-19 -22 -45 -12.5t-33 33t11 44.5q13 13 28.5 15t27 -6t19.5 -19.5t6 -27t-14 -27.5zM246 705v-668h758v-37h-799v1434h788v-37h-747v-656h696v-36h-696z" />
    <glyph glyph-name="uni1EB9" unicode="&#x1eb9;" horiz-adv-x="1226" 
d="M657 -274q-19 -22 -45 -12.5t-33 33t11 44.5q13 13 28.5 15t27 -6t19.5 -19.5t6 -27t-14 -27.5zM621 1044q224 0 362 -159q141 -156 141 -377v-21h-981q9 -209 146 -340t340 -131q134 0 242 57t159 154l35 -20q-61 -105 -176 -166t-260 -61q-228 0 -377 149
q-150 150 -150 383q0 227 146 379q147 153 373 153zM143 524h944q-12 215 -145 348q-133 136 -321 136q-200 0 -338 -138q-137 -137 -140 -346z" />
    <glyph glyph-name="uni1EBA" unicode="&#x1eba;" 
d="M643 1577h-33q0 55 13 61q13 16 49 37q3 2 5 3t5 3q74 45 74 99q0 44 -33 71t-90 27q-78 0 -129 -72h-4q-11 7 -23 17q25 39 66 61.5t90 22.5q62 0 107.5 -33t45.5 -92q0 -33 -16.5 -60t-30.5 -37.5t-39 -25.5h2q-30 -15 -42.5 -27.5t-14.5 -21.5t-2 -33zM246 705v-668
h758v-37h-799v1434h788v-37h-747v-656h696v-36h-696z" />
    <glyph glyph-name="uni1EBB" unicode="&#x1ebb;" horiz-adv-x="1226" 
d="M649 1167h-33q0 55 13 62q13 16 49 37q3 2 5 3t5 3q74 45 74 98q0 44 -33 71t-90 27q-79 0 -129 -71h-4q-18 12 -23 16q25 39 66 61.5t90 22.5q62 0 108 -33t46 -92q0 -33 -16.5 -60t-30.5 -37.5t-39 -25.5h2q-43 -22 -51.5 -35.5t-8.5 -46.5zM621 1044q224 0 362 -159
q141 -156 141 -377v-21h-981q9 -209 146 -340t340 -131q134 0 242 57t159 154l35 -20q-61 -105 -176 -166t-260 -61q-228 0 -377 149q-150 150 -150 383q0 227 146 379q147 153 373 153zM143 524h944q-12 215 -145 348q-133 136 -321 136q-200 0 -338 -138
q-137 -137 -140 -346z" />
    <glyph glyph-name="uni1EBC" unicode="&#x1ebc;" 
d="M246 705v-668h758v-37h-799v1434h788v-37h-747v-656h696v-36h-696zM371 1618h-35q0 142 82 176q83 35 190 -78q94 -94 155.5 -70t61.5 144h35q0 -140 -82 -174t-190 76q-97 94 -157 70.5t-60 -144.5z" />
    <glyph glyph-name="uni1EBD" unicode="&#x1ebd;" horiz-adv-x="1226" 
d="M621 1044q224 0 362 -159q141 -156 141 -377v-21h-981q9 -209 146 -340t340 -131q134 0 242 57t159 154l35 -20q-61 -105 -176 -166t-260 -61q-228 0 -377 149q-150 150 -150 383q0 227 146 379q147 153 373 153zM143 524h944q-12 215 -145 348q-133 136 -321 136
q-200 0 -338 -138q-137 -137 -140 -346zM381 1208h-35q0 142 82 176q84 35 190 -77q94 -94 156 -70.5t62 143.5h34q0 -140 -82 -174t-190 76q-97 94 -157 70.5t-60 -144.5z" />
    <glyph glyph-name="uni1EBE" unicode="&#x1ebe;" 
d="M246 705v-668h758v-37h-799v1434h788v-37h-747v-656h696v-36h-696zM786 1577l-192 207l-193 -207h-41l213 229h41l215 -229h-43zM811 1747l154 229h39l-158 -229h-35z" />
    <glyph glyph-name="uni1EBF" unicode="&#x1ebf;" horiz-adv-x="1226" 
d="M817 1167l-192 207l-193 -207h-41l213 230h41l215 -230h-43zM621 1044q224 0 362 -159q141 -156 141 -377v-21h-981q9 -209 146 -340t340 -131q134 0 242 57t159 154l35 -20q-61 -105 -176 -166t-260 -61q-228 0 -377 149q-150 150 -150 383q0 227 146 379
q147 153 373 153zM143 524h944q-12 215 -145 348q-133 136 -321 136q-200 0 -338 -138q-137 -137 -140 -346zM842 1337l153 230h39l-157 -230h-35z" />
    <glyph glyph-name="uni1EC0" unicode="&#x1ec0;" 
d="M246 705v-668h758v-37h-799v1434h788v-37h-747v-656h696v-36h-696zM786 1577l-192 207l-193 -207h-41l213 229h41l215 -229h-43zM874 1747h-32l-160 229h41z" />
    <glyph glyph-name="uni1EC1" unicode="&#x1ec1;" horiz-adv-x="1226" 
d="M817 1167l-192 207l-193 -207h-41l213 230h41l215 -230h-43zM621 1044q224 0 362 -159q141 -156 141 -377v-21h-981q9 -209 146 -340t340 -131q134 0 242 57t159 154l35 -20q-61 -105 -176 -166t-260 -61q-228 0 -377 149q-150 150 -150 383q0 227 146 379
q147 153 373 153zM143 524h944q-12 215 -145 348q-133 136 -321 136q-200 0 -338 -138q-137 -137 -140 -346zM905 1337h-33l-159 230h41z" />
    <glyph glyph-name="uni1EC2" unicode="&#x1ec2;" 
d="M246 705v-668h758v-37h-799v1434h788v-37h-747v-656h696v-36h-696zM786 1577l-192 207l-193 -207h-41l213 229h41l215 -229h-43zM838 1747h-31q0 51 10 57q12 14 47 35q2 2 8 6q70 41 70 90q0 41 -31 67t-84 26q-73 0 -120 -68h-5q-2 2 -4.5 4t-7 5.5t-8.5 6.5
q24 36 62 57t83 21q57 0 100.5 -31t43.5 -86q0 -12 -2.5 -23t-5.5 -19.5t-10 -17.5t-11 -14t-13.5 -13t-12.5 -10t-13.5 -9.5t-11.5 -7.5q-27 -14 -38.5 -25.5t-13 -19.5t-1.5 -31z" />
    <glyph glyph-name="uni1EC3" unicode="&#x1ec3;" horiz-adv-x="1226" 
d="M817 1167l-192 207l-193 -207h-41l213 230h41l215 -230h-43zM621 1044q224 0 362 -159q141 -156 141 -377v-21h-981q9 -209 146 -340t340 -131q134 0 242 57t159 154l35 -20q-61 -105 -176 -166t-260 -61q-228 0 -377 149q-150 150 -150 383q0 227 146 379
q147 153 373 153zM143 524h944q-12 215 -145 348q-133 136 -321 136q-200 0 -338 -138q-137 -137 -140 -346zM868 1337h-30q0 52 10 58q12 14 47 35q2 2 8 6q70 41 70 90q0 41 -31 66.5t-84 25.5q-74 0 -121 -68h-4q-5 5 -20 17q24 36 62 57t83 21q57 0 100 -31t43 -86
q0 -10 -1.5 -19t-3.5 -16t-6.5 -15t-7.5 -13t-10 -12t-9.5 -10t-10.5 -9l-10 -7.5t-10.5 -7.5t-9.5 -6q-39 -20 -46.5 -32.5t-7.5 -43.5z" />
    <glyph glyph-name="uni1EC4" unicode="&#x1ec4;" 
d="M246 705v-668h758v-37h-799v1434h788v-37h-747v-656h696v-36h-696zM786 1577l-192 207l-193 -207h-41l213 229h41l215 -229h-43zM385 1872h-33q0 130 76 164q79 31 178 -74q86 -87 143.5 -64t57.5 134h33q0 -131 -78 -162q-77 -30 -176 69q-89 88 -145 66.5t-56 -133.5z
" />
    <glyph glyph-name="uni1EC5" unicode="&#x1ec5;" horiz-adv-x="1226" 
d="M817 1167l-192 207l-193 -207h-41l213 230h41l215 -230h-43zM621 1044q224 0 362 -159q141 -156 141 -377v-21h-981q9 -209 146 -340t340 -131q134 0 242 57t159 154l35 -20q-61 -105 -176 -166t-260 -61q-228 0 -377 149q-150 150 -150 383q0 227 146 379
q147 153 373 153zM143 524h944q-12 215 -145 348q-133 136 -321 136q-200 0 -338 -138q-137 -137 -140 -346zM416 1462h-33q0 130 76 164q79 31 178 -74q86 -87 143.5 -64t57.5 134h32q0 -132 -77 -162t-177 70q-89 88 -144.5 66t-55.5 -134z" />
    <glyph glyph-name="uni1EC6" unicode="&#x1ec6;" 
d="M246 705v-668h758v-37h-799v1434h788v-37h-747v-656h696v-36h-696zM786 1577l-192 207l-193 -207h-41l213 229h41l215 -229h-43zM614 -274q-19 -22 -45 -12.5t-33 33t11 44.5q13 13 28.5 15t27 -6t19.5 -19.5t6 -27t-14 -27.5z" />
    <glyph glyph-name="uni1EC7" unicode="&#x1ec7;" horiz-adv-x="1226" 
d="M817 1167l-192 207l-193 -207h-41l213 230h41l215 -230h-43zM621 1044q224 0 362 -159q141 -156 141 -377v-21h-981q9 -209 146 -340t340 -131q134 0 242 57t159 154l35 -20q-61 -105 -176 -166t-260 -61q-228 0 -377 149q-150 150 -150 383q0 227 146 379
q147 153 373 153zM143 524h944q-12 215 -145 348q-133 136 -321 136q-200 0 -338 -138q-137 -137 -140 -346zM657 -274q-19 -22 -45 -12.5t-33 33t11 44.5q13 13 28.5 15t27 -6t19.5 -19.5t6 -27t-14 -27.5z" />
    <glyph glyph-name="uni1EC8" unicode="&#x1ec8;" horiz-adv-x="450" 
d="M240 1577h-33q0 55 12 61q13 16 49 37q3 2 5.5 3t5.5 3q73 44 73 99q0 44 -33 71t-90 27q-78 0 -129 -72h-4q-5 3 -22 17q25 39 65.5 61.5t89.5 22.5q62 0 108 -33t46 -92q0 -33 -16.5 -60t-30.5 -37.5t-39 -25.5h2q-30 -15 -42.5 -27.5t-14.5 -21.5t-2 -33zM205 0v1434
h41v-1434h-41z" />
    <glyph glyph-name="uni1EC9" unicode="&#x1ec9;" horiz-adv-x="409" 
d="M225 0h-41v1024h41v-1024zM221 1167h-33q0 55 13 62q13 16 49 37q3 2 5 3t5 3q74 45 74 98q0 44 -33 71t-90 27q-79 0 -129 -71h-4q-18 12 -23 16q25 39 66 61.5t90 22.5q62 0 108 -33t46 -92q0 -33 -16.5 -60t-30.5 -37.5t-39 -25.5h2q-43 -22 -51.5 -35.5t-8.5 -46.5z
" />
    <glyph glyph-name="uni1ECA" unicode="&#x1eca;" horiz-adv-x="450" 
d="M260 -274q-19 -22 -45 -12.5t-33 33t11 44.5q13 13 28.5 15t27 -6t19.5 -19.5t6 -27t-14 -27.5zM205 0v1434h41v-1434h-41z" />
    <glyph glyph-name="uni1ECB" unicode="&#x1ecb;" horiz-adv-x="409" 
d="M240 -274q-19 -22 -45.5 -12.5t-33.5 33t11 44.5q21 21 47 12.5t32.5 -31.5t-11.5 -46zM238 1217q-19 -22 -45.5 -12.5t-33.5 33t11 44.5q21 21 47 12.5t32.5 -31.5t-11.5 -46zM225 0h-41v1024h41v-1024z" />
    <glyph glyph-name="uni1ECC" unicode="&#x1ecc;" horiz-adv-x="1720" 
d="M893 -274q-19 -22 -45.5 -12.5t-33.5 33t11 44.5q21 21 47 12.5t32.5 -31.5t-11.5 -46zM1380 195q-215 -215 -520 -215q-304 0 -522 215q-215 218 -215 522q0 305 215 520q217 217 522 217q306 0 520 -217q217 -214 217 -520q0 -305 -217 -522zM367 221
q205 -205 493 -205q290 0 492 205q204 204 204 496q0 291 -204 495q-202 205 -492 205q-288 0 -493 -205q-203 -206 -203 -495q0 -290 203 -496z" />
    <glyph glyph-name="uni1ECD" unicode="&#x1ecd;" horiz-adv-x="1273" 
d="M672 -274q-19 -22 -45.5 -12.5t-33.5 33t11 44.5q21 21 47 12.5t32.5 -31.5t-11.5 -46zM1016 133q-156 -153 -379 -153t-379 153t-156 379t156 379t379 153t379 -153q155 -152 155 -379t-155 -379zM287 160q144 -144 350 -144t350 144q143 143 143 352t-143 352
q-144 144 -350 144t-350 -144t-144 -352t144 -352z" />
    <glyph glyph-name="uni1ECE" unicode="&#x1ece;" horiz-adv-x="1720" 
d="M1380 195q-215 -215 -520 -215q-304 0 -522 215q-215 218 -215 522q0 305 215 520q217 217 522 217q306 0 520 -217q217 -214 217 -520q0 -305 -217 -522zM367 221q205 -205 493 -205q290 0 492 205q204 204 204 496q0 291 -204 495q-202 205 -492 205q-288 0 -493 -205
q-203 -206 -203 -495q0 -290 203 -496zM918 1577h-33q0 55 12 61q13 16 49 37q3 2 5 3t5 3q74 45 74 99q0 44 -33 71t-90 27q-78 0 -129 -72h-4q-5 3 -22 17q25 39 65.5 61.5t89.5 22.5q62 0 108 -33t46 -92q0 -33 -16.5 -60t-30.5 -37.5t-39 -25.5h2q-30 -15 -42.5 -27.5
t-14.5 -21.5t-2 -33z" />
    <glyph glyph-name="uni1ECF" unicode="&#x1ecf;" horiz-adv-x="1273" 
d="M1016 133q-156 -153 -379 -153t-379 153t-156 379t156 379t379 153t379 -153q155 -152 155 -379t-155 -379zM287 160q144 -144 350 -144t350 144q143 143 143 352t-143 352q-144 144 -350 144t-350 -144t-144 -352t144 -352zM678 1167h-33q0 56 12 62q12 14 50 37
q3 2 5 3t5 3q74 45 74 98q0 44 -33 71t-90 27q-79 0 -129 -71h-4q-18 12 -23 16q25 39 66 61.5t90 22.5q62 0 107.5 -33t45.5 -92q0 -33 -16.5 -60t-30.5 -37.5t-39 -25.5h2q-30 -15 -42.5 -27.5t-14.5 -21.5t-2 -33z" />
    <glyph glyph-name="uni1ED0" unicode="&#x1ed0;" horiz-adv-x="1720" 
d="M1051 1577l-193 207l-192 -207h-41l213 229h41l215 -229h-43zM338 1237q217 217 522 217q306 0 520 -217q217 -214 217 -520q0 -305 -217 -522q-215 -215 -520 -215q-304 0 -522 215q-215 218 -215 522q0 305 215 520zM367 221q205 -205 493 -205q290 0 492 205
q204 204 204 496q0 291 -204 495q-202 205 -492 205q-288 0 -493 -205q-203 -206 -203 -495q0 -290 203 -496zM1075 1747l154 229h39l-158 -229h-35z" />
    <glyph glyph-name="uni1ED1" unicode="&#x1ed1;" horiz-adv-x="1273" 
d="M827 1167l-192 207l-193 -207h-41l213 230h41l215 -230h-43zM258 891q156 153 379 153t379 -153q155 -152 155 -379t-155 -379q-156 -153 -379 -153t-379 153t-156 379t156 379zM287 160q144 -144 350 -144t350 144q143 143 143 352t-143 352q-144 144 -350 144
t-350 -144t-144 -352t144 -352zM852 1337l154 230h38l-157 -230h-35z" />
    <glyph glyph-name="uni1ED2" unicode="&#x1ed2;" horiz-adv-x="1720" 
d="M1051 1577l-193 207l-192 -207h-41l213 229h41l215 -229h-43zM338 1237q217 217 522 217q306 0 520 -217q217 -214 217 -520q0 -305 -217 -522q-215 -215 -520 -215q-304 0 -522 215q-215 218 -215 522q0 305 215 520zM367 221q205 -205 493 -205q290 0 492 205
q204 204 204 496q0 291 -204 495q-202 205 -492 205q-288 0 -493 -205q-203 -206 -203 -495q0 -290 203 -496zM1139 1747h-33l-160 229h41z" />
    <glyph glyph-name="uni1ED3" unicode="&#x1ed3;" horiz-adv-x="1273" 
d="M827 1167l-192 207l-193 -207h-41l213 230h41l215 -230h-43zM258 891q156 153 379 153t379 -153q155 -152 155 -379t-155 -379q-156 -153 -379 -153t-379 153t-156 379t156 379zM287 160q144 -144 350 -144t350 144q143 143 143 352t-143 352q-144 144 -350 144
t-350 -144t-144 -352t144 -352zM915 1337h-32l-160 230h41z" />
    <glyph glyph-name="uni1ED4" unicode="&#x1ed4;" horiz-adv-x="1720" 
d="M1051 1577l-193 207l-192 -207h-41l213 229h41l215 -229h-43zM338 1237q217 217 522 217q306 0 520 -217q217 -214 217 -520q0 -305 -217 -522q-215 -215 -520 -215q-304 0 -522 215q-215 218 -215 522q0 305 215 520zM367 221q205 -205 493 -205q290 0 492 205
q204 204 204 496q0 291 -204 495q-202 205 -492 205q-288 0 -493 -205q-203 -206 -203 -495q0 -290 203 -496zM1102 1747h-31q0 51 10 57q12 14 47 35l2.5 2.5t2.5 1t4 2.5q69 40 69 90q0 41 -30.5 67t-83.5 26q-74 0 -121 -68h-4q-2 2 -9 7t-12 9q24 36 62.5 57t83.5 21
q57 0 100 -31t43 -86q0 -12 -2.5 -23t-5.5 -19.5t-10 -17.5t-11 -14t-13.5 -13t-12.5 -10t-13.5 -9.5t-11.5 -7.5q-27 -14 -38.5 -25.5t-13 -19.5t-1.5 -31z" />
    <glyph glyph-name="uni1ED5" unicode="&#x1ed5;" horiz-adv-x="1273" 
d="M827 1167l-192 207l-193 -207h-41l213 230h41l215 -230h-43zM258 891q156 153 379 153t379 -153q155 -152 155 -379t-155 -379q-156 -153 -379 -153t-379 153t-156 379t156 379zM287 160q144 -144 350 -144t350 144q143 143 143 352t-143 352q-144 144 -350 144
t-350 -144t-144 -352t144 -352zM879 1337h-31q0 52 10 58q12 14 47 35q2 2 8 6q70 41 70 90q0 41 -31 66.5t-84 25.5q-73 0 -120 -68h-5q-5 5 -20 17q24 36 62 57t83 21q57 0 100.5 -31t43.5 -86q0 -11 -1.5 -20.5t-5.5 -18.5t-7 -15.5t-10 -14t-10.5 -11.5t-12.5 -11
t-11 -9t-11.5 -8.5t-10.5 -6.5q-27 -14 -38.5 -25.5t-13 -19.5t-1.5 -31z" />
    <glyph glyph-name="uni1ED6" unicode="&#x1ed6;" horiz-adv-x="1720" 
d="M1051 1577l-193 207l-192 -207h-41l213 229h41l215 -229h-43zM338 1237q217 217 522 217q306 0 520 -217q217 -214 217 -520q0 -305 -217 -522q-215 -215 -520 -215q-304 0 -522 215q-215 218 -215 522q0 305 215 520zM367 221q205 -205 493 -205q290 0 492 205
q204 204 204 496q0 291 -204 495q-202 205 -492 205q-288 0 -493 -205q-203 -206 -203 -495q0 -290 203 -496zM649 1872h-33q0 130 76 164q79 31 178 -74q86 -87 143.5 -64t57.5 134h33q0 -131 -78 -162q-77 -30 -176 69q-89 88 -145 66.5t-56 -133.5z" />
    <glyph glyph-name="uni1ED7" unicode="&#x1ed7;" horiz-adv-x="1273" 
d="M827 1167l-192 207l-193 -207h-41l213 230h41l215 -230h-43zM258 891q156 153 379 153t379 -153q155 -152 155 -379t-155 -379q-156 -153 -379 -153t-379 153t-156 379t156 379zM287 160q144 -144 350 -144t350 144q143 143 143 352t-143 352q-144 144 -350 144
t-350 -144t-144 -352t144 -352zM426 1462h-33q0 130 76 164q79 31 178 -74q86 -87 143.5 -64t57.5 134h33q0 -131 -78 -162q-76 -30 -176 70q-89 88 -145 66t-56 -134z" />
    <glyph glyph-name="uni1ED8" unicode="&#x1ed8;" horiz-adv-x="1720" 
d="M1051 1577l-193 207l-192 -207h-41l213 229h41l215 -229h-43zM338 1237q217 217 522 217q306 0 520 -217q217 -214 217 -520q0 -305 -217 -522q-215 -215 -520 -215q-304 0 -522 215q-215 218 -215 522q0 305 215 520zM367 221q205 -205 493 -205q290 0 492 205
q204 204 204 496q0 291 -204 495q-202 205 -492 205q-288 0 -493 -205q-203 -206 -203 -495q0 -290 203 -496zM893 -274q-19 -22 -45.5 -12.5t-33.5 33t11 44.5q21 21 47 12.5t32.5 -31.5t-11.5 -46z" />
    <glyph glyph-name="uni1ED9" unicode="&#x1ed9;" horiz-adv-x="1273" 
d="M827 1167l-192 207l-193 -207h-41l213 230h41l215 -230h-43zM258 891q156 153 379 153t379 -153q155 -152 155 -379t-155 -379q-156 -153 -379 -153t-379 153t-156 379t156 379zM287 160q144 -144 350 -144t350 144q143 143 143 352t-143 352q-144 144 -350 144
t-350 -144t-144 -352t144 -352zM672 -274q-19 -22 -45.5 -12.5t-33.5 33t11 44.5q21 21 47 12.5t32.5 -31.5t-11.5 -46z" />
    <glyph glyph-name="uni1EDA" unicode="&#x1eda;" horiz-adv-x="1720" 
d="M842 1577l164 246h43l-170 -246h-37zM1380 195q-215 -215 -520 -215q-304 0 -522 215q-215 218 -215 522q0 305 215 520q217 217 522 217q83 0 178 -20h127q74 0 96.5 31t22.5 112v10h39v-10q0 -59 -10.5 -96t-33.5 -55t-47.5 -23.5t-62.5 -5.5h-20q127 -56 231 -160
q217 -214 217 -520q0 -305 -217 -522zM367 221q205 -205 493 -205q290 0 492 205q204 204 204 496q0 291 -204 495q-202 205 -492 205q-288 0 -493 -205q-203 -206 -203 -495q0 -290 203 -496z" />
    <glyph glyph-name="uni1EDB" unicode="&#x1edb;" horiz-adv-x="1273" 
d="M608 1167l164 246h43l-170 -246h-37zM1016 133q-156 -153 -379 -153t-379 153t-156 379t156 379t379 153q76 0 154 -20h90q74 0 96 31t22 112v11h39v-11q0 -59 -10.5 -96t-33 -55t-47 -23.5t-62.5 -5.5q68 -36 131 -96q155 -152 155 -379t-155 -379zM287 160
q144 -144 350 -144t350 144q143 143 143 352t-143 352q-144 144 -350 144t-350 -144t-144 -352t144 -352z" />
    <glyph glyph-name="uni1EDC" unicode="&#x1edc;" horiz-adv-x="1720" 
d="M932 1577h-35l-172 246h43zM1380 195q-215 -215 -520 -215q-304 0 -522 215q-215 218 -215 522q0 305 215 520q217 217 522 217q83 0 178 -20h127q74 0 96.5 31t22.5 112v10h39v-10q0 -59 -10.5 -96t-33.5 -55t-47.5 -23.5t-62.5 -5.5h-20q127 -56 231 -160
q217 -214 217 -520q0 -305 -217 -522zM367 221q205 -205 493 -205q290 0 492 205q204 204 204 496q0 291 -204 495q-202 205 -492 205q-288 0 -493 -205q-203 -206 -203 -495q0 -290 203 -496z" />
    <glyph glyph-name="uni1EDD" unicode="&#x1edd;" horiz-adv-x="1273" 
d="M700 1167h-34l-172 246h43zM1016 133q-156 -153 -379 -153t-379 153t-156 379t156 379t379 153q76 0 154 -20h90q74 0 96 31t22 112v11h39v-11q0 -59 -10.5 -96t-33 -55t-47 -23.5t-62.5 -5.5q68 -36 131 -96q155 -152 155 -379t-155 -379zM287 160q144 -144 350 -144
t350 144q143 143 143 352t-143 352q-144 144 -350 144t-350 -144t-144 -352t144 -352z" />
    <glyph glyph-name="uni1EDE" unicode="&#x1ede;" horiz-adv-x="1720" 
d="M918 1577h-33q0 55 12 61q13 16 49 37q3 2 5 3t5 3q74 45 74 99q0 44 -33 71t-90 27q-78 0 -129 -72h-4q-5 3 -22 17q25 39 65.5 61.5t89.5 22.5q62 0 108 -33t46 -92q0 -33 -16.5 -60t-30.5 -37.5t-39 -25.5h2q-30 -15 -42.5 -27.5t-14.5 -21.5t-2 -33zM1380 195
q-215 -215 -520 -215q-304 0 -522 215q-215 218 -215 522q0 305 215 520q217 217 522 217q83 0 178 -20h127q74 0 96.5 31t22.5 112v10h39v-10q0 -59 -10.5 -96t-33.5 -55t-47.5 -23.5t-62.5 -5.5h-20q127 -56 231 -160q217 -214 217 -520q0 -305 -217 -522zM367 221
q205 -205 493 -205q290 0 492 205q204 204 204 496q0 291 -204 495q-202 205 -492 205q-288 0 -493 -205q-203 -206 -203 -495q0 -290 203 -496z" />
    <glyph glyph-name="uni1EDF" unicode="&#x1edf;" horiz-adv-x="1273" 
d="M678 1167h-33q0 56 12 62q12 14 50 37q3 2 5 3t5 3q74 45 74 98q0 44 -33 71t-90 27q-79 0 -129 -71h-4q-18 12 -23 16q25 39 66 61.5t90 22.5q62 0 107.5 -33t45.5 -92q0 -33 -16.5 -60t-30.5 -37.5t-39 -25.5h2q-30 -15 -42.5 -27.5t-14.5 -21.5t-2 -33zM1016 133
q-156 -153 -379 -153t-379 153t-156 379t156 379t379 153q76 0 154 -20h90q74 0 96 31t22 112v11h39v-11q0 -59 -10.5 -96t-33 -55t-47 -23.5t-62.5 -5.5q68 -36 131 -96q155 -152 155 -379t-155 -379zM287 160q144 -144 350 -144t350 144q143 143 143 352t-143 352
q-144 144 -350 144t-350 -144t-144 -352t144 -352z" />
    <glyph glyph-name="uni1EE0" unicode="&#x1ee0;" horiz-adv-x="1720" 
d="M651 1618h-35q0 142 82 176q84 35 191 -78q94 -94 155.5 -70t61.5 144h35q0 -139 -84 -174q-82 -34 -189 76q-97 94 -157 70.5t-60 -144.5zM1380 195q-215 -215 -520 -215q-304 0 -522 215q-215 218 -215 522q0 305 215 520q217 217 522 217q83 0 178 -20h127
q74 0 96.5 31t22.5 112v10h39v-10q0 -59 -10.5 -96t-33.5 -55t-47.5 -23.5t-62.5 -5.5h-20q127 -56 231 -160q217 -214 217 -520q0 -305 -217 -522zM367 221q205 -205 493 -205q290 0 492 205q204 204 204 496q0 291 -204 495q-202 205 -492 205q-288 0 -493 -205
q-203 -206 -203 -495q0 -290 203 -496z" />
    <glyph glyph-name="uni1EE1" unicode="&#x1ee1;" horiz-adv-x="1273" 
d="M436 1208h-35q0 142 82 176q85 35 191 -77q94 -94 155.5 -70.5t61.5 143.5h35q0 -139 -84 -174q-82 -34 -189 76q-94 94 -155.5 70.5t-61.5 -144.5zM1016 133q-156 -153 -379 -153t-379 153t-156 379t156 379t379 153q76 0 154 -20h90q74 0 96 31t22 112v11h39v-11
q0 -59 -10.5 -96t-33 -55t-47 -23.5t-62.5 -5.5q68 -36 131 -96q155 -152 155 -379t-155 -379zM287 160q144 -144 350 -144t350 144q143 143 143 352t-143 352q-144 144 -350 144t-350 -144t-144 -352t144 -352z" />
    <glyph glyph-name="uni1EE2" unicode="&#x1ee2;" horiz-adv-x="1720" 
d="M893 -274q-19 -22 -45.5 -12.5t-33.5 33t11 44.5q21 21 47 12.5t32.5 -31.5t-11.5 -46zM1380 195q-215 -215 -520 -215q-304 0 -522 215q-215 218 -215 522q0 305 215 520q217 217 522 217q83 0 178 -20h127q74 0 96.5 31t22.5 112v10h39v-10q0 -59 -10.5 -96t-33.5 -55
t-47.5 -23.5t-62.5 -5.5h-20q127 -56 231 -160q217 -214 217 -520q0 -305 -217 -522zM367 221q205 -205 493 -205q290 0 492 205q204 204 204 496q0 291 -204 495q-202 205 -492 205q-288 0 -493 -205q-203 -206 -203 -495q0 -290 203 -496z" />
    <glyph glyph-name="uni1EE3" unicode="&#x1ee3;" horiz-adv-x="1273" 
d="M672 -274q-19 -22 -45.5 -12.5t-33.5 33t11 44.5q21 21 47 12.5t32.5 -31.5t-11.5 -46zM1016 133q-156 -153 -379 -153t-379 153t-156 379t156 379t379 153q76 0 154 -20h90q74 0 96 31t22 112v11h39v-11q0 -59 -10.5 -96t-33 -55t-47 -23.5t-62.5 -5.5q68 -36 131 -96
q155 -152 155 -379t-155 -379zM287 160q144 -144 350 -144t350 144q143 143 143 352t-143 352q-144 144 -350 144t-350 -144t-144 -352t144 -352z" />
    <glyph glyph-name="uni1EE4" unicode="&#x1ee4;" horiz-adv-x="1392" 
d="M184 461v973h41v-973q0 -193 121 -320q122 -125 350 -125q229 0 348 125q123 126 123 320v973h41v-973q0 -212 -139 -348q-139 -133 -373 -133q-235 0 -374 133q-138 135 -138 348zM729 -274q-19 -22 -45 -12.5t-33 33t11 44.5q13 13 28.5 15t27 -6t19.5 -19.5t6 -27
t-14 -27.5z" />
    <glyph glyph-name="uni1EE5" unicode="&#x1ee5;" horiz-adv-x="1177" 
d="M571 -274q-19 -22 -45 -12.5t-33 33t11 44.5q13 13 28.5 15t27 -6t19.5 -19.5t6 -27t-14 -27.5zM952 475v549h41v-1024h-41v281q-41 -144 -150.5 -222.5t-258.5 -78.5q-175 0 -283 108q-106 106 -106 285v651h41v-651q0 -157 95.5 -257t254.5 -100q180 0 293 125
q114 126 114 334z" />
    <glyph glyph-name="uni1EE6" unicode="&#x1ee6;" horiz-adv-x="1392" 
d="M733 1577h-33q0 55 13 61q13 16 49 37q3 2 5 3t5 3q74 45 74 99q0 44 -33 71t-90 27q-78 0 -129 -72h-4q-11 7 -23 17q25 39 66 61.5t90 22.5q62 0 108 -33t46 -92q0 -33 -16.5 -60t-30.5 -37.5t-39 -25.5h2q-43 -22 -51.5 -35.5t-8.5 -46.5zM184 461v973h41v-973
q0 -193 121 -320q122 -125 350 -125q229 0 348 125q123 126 123 320v973h41v-973q0 -212 -139 -348q-139 -133 -373 -133q-235 0 -374 133q-138 135 -138 348z" />
    <glyph glyph-name="uni1EE7" unicode="&#x1ee7;" horiz-adv-x="1177" 
d="M621 1167h-33q0 56 12 62q13 16 49 37q3 2 5 3t5 3q74 45 74 98q0 44 -33 71t-90 27q-79 0 -129 -71h-4q-12 8 -22 16q25 39 65.5 61.5t89.5 22.5q62 0 108 -33t46 -92q0 -33 -16.5 -60t-30.5 -37.5t-39 -25.5h2q-30 -15 -42.5 -27.5t-14.5 -21.5t-2 -33zM952 475v549h41
v-1024h-41v281q-41 -144 -150.5 -222.5t-258.5 -78.5q-175 0 -283 108q-106 106 -106 285v651h41v-651q0 -157 95.5 -257t254.5 -100q180 0 293 125q114 126 114 334z" />
    <glyph glyph-name="uni1EE8" unicode="&#x1ee8;" horiz-adv-x="1392" 
d="M668 1577l163 246h43l-169 -246h-37zM184 461v973h41v-973q0 -193 121 -320q122 -125 350 -125q229 0 348 125q123 126 123 320v973h41q74 0 96.5 31t22.5 112v10h39v-10q0 -59 -10.5 -96t-33.5 -55t-47.5 -23.5t-62.5 -5.5h-4v-936q0 -212 -139 -348
q-139 -133 -373 -133q-235 0 -374 133q-138 135 -138 348z" />
    <glyph glyph-name="uni1EE9" unicode="&#x1ee9;" horiz-adv-x="1177" 
d="M717 1413h43l-170 -246h-37zM952 475v549h43q74 0 96.5 31t22.5 112v11h39v-11q0 -59 -10.5 -96t-33.5 -55t-47.5 -23.5t-62.5 -5.5h-6v-987h-41v281q-41 -144 -150.5 -222.5t-258.5 -78.5q-175 0 -283 108q-106 106 -106 285v651h41v-651q0 -157 95.5 -257t254.5 -100
q180 0 293 125q114 126 114 334z" />
    <glyph glyph-name="uni1EEA" unicode="&#x1eea;" horiz-adv-x="1392" 
d="M737 1577h-35l-172 246h43zM184 461v973h41v-973q0 -193 121 -320q122 -125 350 -125q229 0 348 125q123 126 123 320v973h41q74 0 96.5 31t22.5 112v10h39v-10q0 -59 -10.5 -96t-33.5 -55t-47.5 -23.5t-62.5 -5.5h-4v-936q0 -212 -139 -348q-139 -133 -373 -133
q-235 0 -374 133q-138 135 -138 348z" />
    <glyph glyph-name="uni1EEB" unicode="&#x1eeb;" horiz-adv-x="1177" 
d="M465 1413l164 -246h-35l-172 246h43zM952 475v549h43q74 0 96.5 31t22.5 112v11h39v-11q0 -59 -10.5 -96t-33.5 -55t-47.5 -23.5t-62.5 -5.5h-6v-987h-41v281q-41 -144 -150.5 -222.5t-258.5 -78.5q-175 0 -283 108q-106 106 -106 285v651h41v-651q0 -157 95.5 -257
t254.5 -100q180 0 293 125q114 126 114 334z" />
    <glyph glyph-name="uni1EEC" unicode="&#x1eec;" horiz-adv-x="1392" 
d="M733 1577h-33q0 55 13 61q13 16 49 37q3 2 5 3t5 3q74 45 74 99q0 44 -33 71t-90 27q-78 0 -129 -72h-4q-11 7 -23 17q25 39 66 61.5t90 22.5q62 0 108 -33t46 -92q0 -33 -16.5 -60t-30.5 -37.5t-39 -25.5h2q-43 -22 -51.5 -35.5t-8.5 -46.5zM184 461v973h41v-973
q0 -193 121 -320q122 -125 350 -125q229 0 348 125q123 126 123 320v973h41q74 0 96.5 31t22.5 112v10h39v-10q0 -59 -10.5 -96t-33.5 -55t-47.5 -23.5t-62.5 -5.5h-4v-936q0 -212 -139 -348q-139 -133 -373 -133q-235 0 -374 133q-138 135 -138 348z" />
    <glyph glyph-name="uni1EED" unicode="&#x1eed;" horiz-adv-x="1177" 
d="M621 1167h-33q0 56 12 62q13 16 49 37q3 2 5 3t5 3q74 45 74 98q0 44 -33 71t-90 27q-79 0 -129 -71h-4q-12 8 -22 16q25 39 65.5 61.5t89.5 22.5q62 0 108 -33t46 -92q0 -33 -16.5 -60t-30.5 -37.5t-39 -25.5h2q-30 -15 -42.5 -27.5t-14.5 -21.5t-2 -33zM952 475v549h43
q74 0 96.5 31t22.5 112v11h39v-11q0 -59 -10.5 -96t-33.5 -55t-47.5 -23.5t-62.5 -5.5h-6v-987h-41v281q-41 -144 -150.5 -222.5t-258.5 -78.5q-175 0 -283 108q-106 106 -106 285v651h41v-651q0 -157 95.5 -257t254.5 -100q180 0 293 125q114 126 114 334z" />
    <glyph glyph-name="uni1EEE" unicode="&#x1eee;" horiz-adv-x="1392" 
d="M184 461v973h41v-973q0 -193 121 -320q122 -125 350 -125q229 0 348 125q123 126 123 320v973h41q74 0 96.5 31t22.5 112v10h39v-10q0 -59 -10.5 -96t-33.5 -55t-47.5 -23.5t-62.5 -5.5h-4v-936q0 -212 -139 -348q-139 -133 -373 -133q-235 0 -374 133q-138 135 -138 348
zM459 1618h-35q0 142 82 176q83 35 190 -78q94 -94 155.5 -70t61.5 144h35q0 -140 -82 -174t-190 76q-97 94 -157 70.5t-60 -144.5z" />
    <glyph glyph-name="uni1EEF" unicode="&#x1eef;" horiz-adv-x="1177" 
d="M952 475v549h43q74 0 96.5 31t22.5 112v11h39v-11q0 -59 -10.5 -96t-33.5 -55t-47.5 -23.5t-62.5 -5.5h-6v-987h-41v281q-41 -144 -150.5 -222.5t-258.5 -78.5q-175 0 -283 108q-106 106 -106 285v651h41v-651q0 -157 95.5 -257t254.5 -100q180 0 293 125
q114 126 114 334zM346 1208h-35q0 142 82 176q85 35 191 -77q94 -94 155.5 -70.5t61.5 143.5h35q0 -140 -82 -174q-83 -35 -191 76q-97 94 -157 70.5t-60 -144.5z" />
    <glyph glyph-name="uni1EF0" unicode="&#x1ef0;" horiz-adv-x="1392" 
d="M729 -274q-19 -22 -45 -12.5t-33 33t11 44.5q13 13 28.5 15t27 -6t19.5 -19.5t6 -27t-14 -27.5zM184 461v973h41v-973q0 -193 121 -320q122 -125 350 -125q229 0 348 125q123 126 123 320v973h41q74 0 96.5 31t22.5 112v10h39v-10q0 -59 -10.5 -96t-33.5 -55t-47.5 -23.5
t-62.5 -5.5h-4v-936q0 -212 -139 -348q-139 -133 -373 -133q-235 0 -374 133q-138 135 -138 348z" />
    <glyph glyph-name="uni1EF1" unicode="&#x1ef1;" horiz-adv-x="1177" 
d="M571 -274q-19 -22 -45 -12.5t-33 33t11 44.5q13 13 28.5 15t27 -6t19.5 -19.5t6 -27t-14 -27.5zM952 475v549h43q74 0 96.5 31t22.5 112v11h39v-11q0 -59 -10.5 -96t-33.5 -55t-47.5 -23.5t-62.5 -5.5h-6v-987h-41v281q-41 -144 -150.5 -222.5t-258.5 -78.5
q-175 0 -283 108q-106 106 -106 285v651h41v-651q0 -157 95.5 -257t254.5 -100q180 0 293 125q114 126 114 334z" />
    <glyph glyph-name="Ygrave" unicode="&#x1ef2;" horiz-adv-x="1146" 
d="M461 1823l164 -246h-35l-172 246h43zM1081 1434h45l-532 -840v-594h-41v594l-533 840h46l507 -805z" />
    <glyph glyph-name="ygrave" unicode="&#x1ef3;" horiz-adv-x="1044" 
d="M436 1413l164 -246h-35l-172 246h43zM553 2l410 1022h41l-449 -1118q-62 -154 -167.5 -240t-223.5 -76v37q105 -7 199.5 71t154.5 220l14 37l-491 1069h41z" />
    <glyph glyph-name="uni1EF4" unicode="&#x1ef4;" horiz-adv-x="1146" 
d="M608 -274q-19 -22 -45 -12.5t-33 33t11 44.5q13 13 28.5 15t27 -6t19.5 -19.5t6 -27t-14 -27.5zM1081 1434h45l-532 -840v-594h-41v594l-533 840h46l507 -805z" />
    <glyph glyph-name="uni1EF5" unicode="&#x1ef5;" horiz-adv-x="1044" 
d="M776 -274q-19 -22 -45 -12.5t-33 33t11 44.5q13 13 28.5 15t27 -6t19.5 -19.5t6 -27t-14 -27.5zM553 2l410 1022h41l-449 -1118q-62 -154 -167.5 -240t-223.5 -76v37q105 -7 199.5 71t154.5 220l14 37l-491 1069h41z" />
    <glyph glyph-name="uni1EF6" unicode="&#x1ef6;" horiz-adv-x="1146" 
d="M592 1577h-33q0 55 12 61q12 14 50 37q3 2 5 3t5 3q74 45 74 99q0 44 -33 71t-90 27q-78 0 -129 -72h-4q-11 7 -23 17q25 39 66 61.5t90 22.5q62 0 107.5 -33t45.5 -92q0 -33 -16.5 -60t-30.5 -37.5t-39 -25.5h2q-30 -15 -42.5 -27.5t-14.5 -21.5t-2 -33zM1081 1434h45
l-532 -840v-594h-41v594l-533 840h46l507 -805z" />
    <glyph glyph-name="uni1EF7" unicode="&#x1ef7;" horiz-adv-x="1044" 
d="M569 1167h-32q0 56 12 62q13 16 49 37q3 2 5 3t5 3q74 45 74 98q0 44 -33 71t-90 27q-79 0 -129 -71h-4q-18 12 -23 16q25 39 66 61.5t90 22.5q62 0 108 -33t46 -92q0 -33 -16.5 -60t-30.5 -37.5t-39 -25.5h2q-43 -22 -51.5 -35.5t-8.5 -46.5zM553 2l410 1022h41
l-449 -1118q-62 -154 -167.5 -240t-223.5 -76v37q105 -7 199.5 71t154.5 220l14 37l-491 1069h41z" />
    <glyph glyph-name="uni1EF8" unicode="&#x1ef8;" horiz-adv-x="1146" 
d="M1081 1434h45l-532 -840v-594h-41v594l-533 840h46l507 -805zM346 1618h-35q0 142 82 176q84 35 191 -78q94 -94 155.5 -70t61.5 144h35q0 -140 -82 -174q-83 -35 -191 76q-97 94 -157 70.5t-60 -144.5z" />
    <glyph glyph-name="uni1EF9" unicode="&#x1ef9;" horiz-adv-x="1044" 
d="M553 2l410 1022h41l-449 -1118q-62 -154 -167.5 -240t-223.5 -76v37q105 -7 199.5 71t154.5 220l14 37l-491 1069h41zM322 1208h-35q0 142 82 176q84 35 190 -77q94 -94 155.5 -70.5t61.5 143.5h35q0 -140 -82 -174t-190 76q-97 94 -157 70.5t-60 -144.5z" />
    <glyph glyph-name="endash" unicode="&#x2013;" horiz-adv-x="1433" 
d="M1229 614h-1024v37h1024v-37z" />
    <glyph glyph-name="emdash" unicode="&#x2014;" horiz-adv-x="1638" 
d="M1434 614h-1229v37h1229v-37z" />
    <glyph glyph-name="quoteleft" unicode="&#x2018;" horiz-adv-x="389" 
d="M186 1075h-53l86 359h37z" />
    <glyph glyph-name="quoteright" unicode="&#x2019;" horiz-adv-x="389" 
d="M203 1434h53l-86 -359h-37z" />
    <glyph glyph-name="quotesinglbase" unicode="&#x201a;" horiz-adv-x="389" 
d="M203 72h53l-86 -359h-37z" />
    <glyph glyph-name="quotedblleft" unicode="&#x201c;" horiz-adv-x="593" 
d="M186 1075h-53l86 359h37zM391 1075h-53l86 359h37z" />
    <glyph glyph-name="quotedblright" unicode="&#x201d;" horiz-adv-x="593" 
d="M203 1434h53l-86 -359h-37zM408 1434h53l-86 -359h-37z" />
    <glyph glyph-name="quotedblbase" unicode="&#x201e;" horiz-adv-x="593" 
d="M203 72h53l-86 -359h-37zM408 72h53l-86 -359h-37z" />
    <glyph glyph-name="dagger" unicode="&#x2020;" horiz-adv-x="942" 
d="M492 1049h307v-37h-307v-1012h-41v1012h-308v37h308v385h41v-385z" />
    <glyph glyph-name="daggerdbl" unicode="&#x2021;" horiz-adv-x="942" 
d="M799 1049v-37h-307v-590h307v-37h-307v-385h-41v385h-308v37h308v590h-308v37h308v385h41v-385h307z" />
    <glyph glyph-name="bullet" unicode="&#x2022;" horiz-adv-x="491" 
d="M248 840q51 0 86 -35t35 -86q0 -40 -22 -71t-53 -44t-68.5 -7t-65.5 34t-34 65.5t7 68.5t44 53t71 22z" />
    <glyph glyph-name="ellipsis" unicode="&#x2026;" horiz-adv-x="1146" 
d="M219 -6q-21 -21 -49 -11t-35.5 35t12.5 50q21 23 50 13t36 -36t-14 -51zM608 -6q-21 -21 -48.5 -11t-35 35t12.5 50q21 23 49.5 13t35.5 -36t-14 -51zM997 -6q-21 -21 -48.5 -11t-35 35t12.5 50q21 23 49.5 13t35.5 -36t-14 -51z" />
    <glyph glyph-name="perthousand" unicode="&#x2030;" horiz-adv-x="2250" 
d="M457 848q-137 0 -226 86q-88 88 -88 217q0 130 88 215q88 88 226 88q135 0 223 -88q90 -87 90 -215q0 -129 -88 -217q-89 -86 -225 -86zM457 885q118 0 195 75t77 191q0 112 -78 190q-76 76 -194 76q-119 0 -195 -76q-78 -78 -78 -190t78 -190q76 -76 195 -76zM264 145
l-31 19l994 1124l33 -18zM1260 66q-89 -86 -224 -86q-136 0 -225 86q-88 88 -88 217q0 130 88 215q88 88 225 88q136 0 224 -88q90 -87 90 -215q0 -127 -90 -217zM2017 66q-89 -86 -223 -86q-136 0 -225 86q-88 88 -88 217q0 130 88 215q88 88 225 88q135 0 223 -88
q90 -87 90 -215q0 -127 -90 -217zM842 92q76 -76 194 -76q119 0 195 76q78 78 78 191q0 112 -78 190q-76 76 -195 76q-118 0 -194 -76q-78 -78 -78 -190q0 -113 78 -191zM1599 92q76 -76 195 -76t195 76q77 77 77 191q0 113 -77 190q-76 76 -195 76t-195 -76
q-77 -77 -77 -190q0 -114 77 -191z" />
    <glyph glyph-name="guilsinglleft" unicode="&#x2039;" horiz-adv-x="659" 
d="M410 961h45l-205 -328l205 -328h-45l-205 328z" />
    <glyph glyph-name="guilsinglright" unicode="&#x203a;" horiz-adv-x="659" 
d="M205 961h45l205 -328l-205 -328h-45l205 328z" />
    <glyph glyph-name="fraction" unicode="&#x2044;" horiz-adv-x="491" 
d="M696 1434l-860 -1434h-41l860 1434h41z" />
    <glyph glyph-name="Euro" unicode="&#x20ac;" horiz-adv-x="1267" 
d="M778 16q131 0 228.5 66.5t146.5 189.5l33 -16q-51 -131 -158.5 -203.5t-249.5 -72.5q-214 0 -352 153.5t-170 423.5h-195v37h191q-13 123 0 246h-191v37h195q32 270 170 423.5t352 153.5q142 0 249.5 -72.5t158.5 -201.5l-35 -19q-47 123 -144.5 189.5t-228.5 66.5
q-192 0 -320.5 -143.5t-160.5 -396.5h604v-37h-608q-13 -123 0 -246h608v-37h-604q32 -253 160.5 -397t320.5 -144z" />
    <glyph glyph-name="uni20BD" unicode="&#x20bd;" horiz-adv-x="1126" 
d="M635 614h-410v-249h574v-37h-574v-328h-41v328h-184v37h184v249h-184v37h184v783h451q168 0 289 -121q120 -120 120 -289t-120 -289q-121 -121 -289 -121zM635 1397h-410v-746h410q151 0 260 109q109 112 109 264q0 153 -109 262q-108 111 -260 111z" />
    <glyph glyph-name="uni2116" unicode="&#x2116;" horiz-adv-x="2101" 
d="M1706 881q-125 0 -209 84t-84 202q0 119 84 203t209 84t209 -84t84 -203q0 -120 -84 -204q-82 -82 -209 -82zM1188 70v1364h41v-1434h-41l-942 1364v-1364h-41v1434h41zM1706 918q108 0 180 71.5t72 177.5t-73 178t-179 72t-179 -72t-73 -178q0 -105 73 -177t179 -72z
M1978 643h-544v37h544v-37z" />
    <glyph glyph-name="trademark" unicode="&#x2122;" horiz-adv-x="1034" 
d="M143 1434h291v-39h-127v-371h-41v371h-123v39zM696 1184l154 250h41v-410h-41v338l-150 -244h-8l-149 244v-338h-41v410h41z" />
    <glyph glyph-name="estimated" unicode="&#x212e;" horiz-adv-x="1761" 
d="M1638 717q0 -31 -30 -31h-1147q-31 0 -31 -31v-393q0 -25 14 -39q173 -182 478 -182q298 0 473 199q15 18 37 18h75q20 0 26.5 -13t-7.5 -26q-224 -239 -604 -239q-364 0 -580 210q-219 213 -219 527q0 313 211 524q213 213 547 213q331 0 544 -213t213 -524zM1331 778
v393q0 25 -14 39q-174 183 -436 183q-263 0 -437 -183q-14 -14 -14 -39v-393q0 -30 31 -30h839q31 0 31 30z" />
    <glyph glyph-name="oneeighth" unicode="&#x215b;" horiz-adv-x="1720" 
d="M338 614h-41v766l-244 -90l-12 37l276 107h21v-820zM297 0l860 1434h41l-860 -1434h-41zM1468 430q78 -25 124 -84.5t46 -138.5q0 -104 -77.5 -168t-202.5 -64t-204 64t-79 168q0 79 46.5 138.5t125.5 84.5q-67 25 -106 75t-39 116q0 102 72.5 162.5t183.5 60.5
t182.5 -60.5t71.5 -162.5q0 -65 -39.5 -115t-104.5 -76zM1143 621q0 -76 62.5 -125.5t152.5 -49.5q88 0 150.5 49.5t62.5 125.5q0 86 -60 136t-153 50q-94 0 -154.5 -50t-60.5 -136zM1358 12q107 0 173 52.5t66 142.5q0 91 -67 147t-172 56q-106 0 -174 -56t-68 -147
q0 -90 66 -142.5t176 -52.5z" />
    <glyph glyph-name="threeeighths" unicode="&#x215c;" horiz-adv-x="1921" 
d="M610 844q0 -111 -74 -182.5t-200 -71.5q-205 0 -264 151l32 19q53 -133 232 -133q109 0 171 61t62 156t-62 156t-171 61h-6l-19 26l226 310h-445v37h488v-37l-218 -299q115 -7 181.5 -78t66.5 -176zM498 0l860 1434h41l-860 -1434h-41zM1669 430q78 -25 124 -84.5
t46 -138.5q0 -104 -77.5 -168t-202.5 -64t-204 64t-79 168q0 79 46.5 138.5t125.5 84.5q-67 25 -106 75t-39 116q0 102 72.5 162.5t183.5 60.5t182 -60.5t71 -162.5q0 -66 -39 -115.5t-104 -75.5zM1343 621q0 -76 63 -125.5t153 -49.5q88 0 150.5 49.5t62.5 125.5
q0 86 -60 136t-153 50q-95 0 -155.5 -50t-60.5 -136zM1559 12q107 0 173 52.5t66 142.5q0 91 -67 147t-172 56q-106 0 -174 -56t-68 -147q0 -90 66 -142.5t176 -52.5z" />
    <glyph glyph-name="fiveeighths" unicode="&#x215d;" horiz-adv-x="1906" 
d="M332 590q-192 0 -260 145l32 19q56 -127 228 -127q105 0 168 59t63 158t-63 158t-168 59h-226l31 373h434v-37h-397l-27 -299h185q122 0 197 -71.5t75 -182.5t-75 -182.5t-197 -71.5zM483 0l860 1434h41l-860 -1434h-41zM1655 430q78 -25 124 -84.5t46 -138.5
q0 -104 -78 -168t-203 -64t-203.5 64t-78.5 168q0 79 46.5 138.5t125.5 84.5q-68 25 -107 75t-39 116q0 102 72.5 162.5t183.5 60.5t182.5 -60.5t71.5 -162.5q0 -66 -39 -115.5t-104 -75.5zM1329 621q0 -76 62.5 -125.5t152.5 -49.5q88 0 150.5 49.5t62.5 125.5
q0 86 -60 136t-153 50q-94 0 -154.5 -50t-60.5 -136zM1544 12q107 0 173.5 52.5t66.5 142.5q0 91 -67.5 147t-172.5 56q-106 0 -173.5 -56t-67.5 -147q0 -90 65.5 -142.5t175.5 -52.5z" />
    <glyph glyph-name="seveneighths" unicode="&#x215e;" horiz-adv-x="1906" 
d="M61 1434h545v-33l-344 -787h-45l342 783h-498v37zM483 0l860 1434h41l-860 -1434h-41zM1655 430q78 -25 124 -84.5t46 -138.5q0 -104 -78 -168t-203 -64t-203.5 64t-78.5 168q0 79 46.5 138.5t125.5 84.5q-68 25 -107 75t-39 116q0 102 72.5 162.5t183.5 60.5
t182.5 -60.5t71.5 -162.5q0 -66 -39 -115.5t-104 -75.5zM1329 621q0 -76 62.5 -125.5t152.5 -49.5q88 0 150.5 49.5t62.5 125.5q0 86 -60 136t-153 50q-94 0 -154.5 -50t-60.5 -136zM1544 12q107 0 173.5 52.5t66.5 142.5q0 91 -67.5 147t-172.5 56q-106 0 -173.5 -56
t-67.5 -147q0 -90 65.5 -142.5t175.5 -52.5z" />
    <glyph glyph-name="arrowleft" unicode="&#x2190;" horiz-adv-x="1720" 
d="M217 735h1360v-37h-1360l596 -596h-55l-615 615l615 614h55z" />
    <glyph glyph-name="arrowup" unicode="&#x2191;" horiz-adv-x="1515" 
d="M758 1434l614 -615v-55l-594 594v-1358h-41v1358l-594 -594v55z" />
    <glyph glyph-name="arrowright" unicode="&#x2192;" horiz-adv-x="1720" 
d="M907 1331h56l614 -614l-614 -615h-56l596 596h-1360v37h1360z" />
    <glyph glyph-name="arrowdown" unicode="&#x2193;" horiz-adv-x="1515" 
d="M778 1434v-1358l594 594v-56l-614 -614l-615 614v56l594 -594v1358h41z" />
    <glyph glyph-name="arrowboth" unicode="&#x2194;" horiz-adv-x="2088" 
d="M1399 1208h55l492 -491l-492 -492h-55l473 473h-1655l473 -473h-55l-492 492l492 491h55l-473 -473h1655z" />
    <glyph glyph-name="arrowupdn" unicode="&#x2195;" horiz-adv-x="1310" 
d="M1147 1126v-55l-471 471v-1651l471 471v-55l-492 -491l-491 491v55l471 -471v1651l-471 -471v55l491 492z" />
    <glyph glyph-name="uni2196" unicode="&#x2196;" horiz-adv-x="1314" 
d="M211 1163l960 -958l-30 -31l-959 961v-840l-39 39v868h869l39 -39h-840z" />
    <glyph glyph-name="uni2197" unicode="&#x2197;" horiz-adv-x="1314" 
d="M264 1163l39 39h868v-868l-38 -39v840l-959 -961l-31 31l961 958h-840z" />
    <glyph glyph-name="uni2198" unicode="&#x2198;" horiz-adv-x="1314" 
d="M1133 250v840l38 -39v-869h-868l-39 39h840l-961 959l31 30z" />
    <glyph glyph-name="uni2199" unicode="&#x2199;" horiz-adv-x="1314" 
d="M1141 1210l30 -30l-960 -959h840l-39 -39h-869v869l39 39v-840z" />
    <glyph glyph-name="partialdiff" unicode="&#x2202;" horiz-adv-x="1187" 
d="M483 1454q241 0 400 -203q161 -199 161 -534q0 -351 -143 -543q-141 -194 -366 -194q-185 0 -299 120q-113 122 -113 310q0 211 123 340q125 131 334 131q236 0 424 -123q-9 287 -154 473q-140 186 -367 186q-144 0 -245 -67v43q104 61 245 61zM535 16q213 0 339 187
q127 189 130 506q-194 135 -424 135q-191 0 -304 -119q-112 -115 -112 -315q0 -174 102 -285q106 -109 269 -109z" />
    <glyph glyph-name="emptyset" unicode="&#x2205;" horiz-adv-x="1728" 
d="M1518 1475l-166 -201q120 -106 187 -250.5t67 -306.5q0 -308 -217 -522q-218 -215 -525 -215q-258 0 -456 155l-148 -176h-49l166 201q-120 106 -187 250.5t-67 306.5q0 308 217 522q218 215 524 215q258 0 457 -156l147 177h50zM164 717q0 -154 62.5 -291.5
t174.5 -235.5l895 1078q-186 149 -432 149q-290 0 -495 -205t-205 -495zM864 16q291 0 496 205t205 496q0 153 -63 290.5t-175 235.5l-895 -1077q188 -150 432 -150z" />
    <glyph glyph-name="product" unicode="&#x220f;" horiz-adv-x="1310" 
d="M246 -410h-41v1844h901v-1844h-41v1807h-819v-1807z" />
    <glyph glyph-name="summation" unicode="&#x2211;" horiz-adv-x="1110" 
d="M1028 -410h-885v35l572 907l-545 867v35h827v-37h-782l545 -865l-572 -905h840v-37z" />
    <glyph glyph-name="minus" unicode="&#x2212;" 
d="M963 698h-820v37h820v-37z" />
    <glyph glyph-name="radical" unicode="&#x221a;" horiz-adv-x="1288" 
d="M688 0h-45l-344 578h-156v36h176l343 -573l524 1597h41z" />
    <glyph glyph-name="infinity" unicode="&#x221e;" horiz-adv-x="1677" 
d="M1235 1024q130 0 214.5 -85.5t84.5 -221.5t-84.5 -221.5t-214.5 -85.5q-135 0 -240 96q-62 62 -80 82l-75 96q-14 -19 -28.5 -37.5t-28 -35t-19.5 -23.5q-20 -25 -80 -82q-105 -96 -242 -96q-130 0 -214.5 85.5t-84.5 221.5t84.5 221.5t214.5 85.5q137 0 242 -96
q60 -57 80 -82q6 -7 19.5 -23.5t28 -35t28.5 -37.5q56 72 75 94q20 25 80 82q104 98 240 98zM442 446q127 0 222 95q33 31 77 80q24 27 74 96q-50 69 -74 96q-44 49 -77 80q-94 94 -222 94q-116 0 -187 -74.5t-71 -195.5t71 -196t187 -75zM1235 446q116 0 187 75t71 196
t-71 195.5t-187 74.5q-124 0 -221 -94q-40 -40 -76 -80q-24 -27 -74 -96q50 -69 74 -96q36 -40 76 -80q98 -95 221 -95z" />
    <glyph glyph-name="integral" unicode="&#x222b;" horiz-adv-x="882" 
d="M0 -418v41q104 -47 184 7.5t105 189.5l239 1392q26 148 122.5 210t232.5 18v-39q-122 44 -205.5 -8.5t-108.5 -188.5l-239 -1392q-26 -143 -119 -208t-211 -22z" />
    <glyph glyph-name="approxequal" unicode="&#x2248;" horiz-adv-x="1171" 
d="M575 864q-82 56 -150 74t-108.5 5.5t-71.5 -46t-44.5 -64t-20.5 -63.5l-37 16q19 80 76 140q34 41 83 57t126.5 -3.5t167.5 -82.5q65 -47 123.5 -69t102.5 -19t73 27q73 63 96 155l37 -16q-18 -79 -76 -139q-132 -139 -377 28zM180 442l-37 17q18 79 76 139q34 41 83 57
t126.5 -3.5t167.5 -82.5q65 -47 123.5 -69t102.5 -19t73 27q73 63 96 156l37 -17q-18 -79 -76 -139q-131 -139 -377 29q-60 41 -112 61.5t-89.5 22.5t-69 -10.5t-52 -31.5t-36 -45.5t-23.5 -48t-13 -43.5z" />
    <glyph glyph-name="notequal" unicode="&#x2260;" horiz-adv-x="1085" 
d="M942 940v-37h-280l-175 -373h455v-36h-471l-160 -340h-41l160 340h-287v36h303l175 373h-478v37h494l160 340h41l-160 -340h264z" />
    <glyph glyph-name="lessequal" unicode="&#x2264;" 
d="M143 854l820 334v-41l-775 -311l775 -312v-41l-820 334v37zM963 246h-820v37h820v-37z" />
    <glyph glyph-name="greaterequal" unicode="&#x2265;" 
d="M143 1147v41l820 -334v-37l-820 -334v41l775 312zM963 246h-820v37h820v-37z" />
    <glyph glyph-name="lozenge" unicode="&#x25ca;" horiz-adv-x="1093" 
d="M567 0h-41l-383 717l383 717h41l383 -717zM188 717l359 -670l358 670l-358 669z" />
    <glyph glyph-name="NULL" horiz-adv-x="0" 
 />
    <glyph glyph-name="CR" horiz-adv-x="681" 
 />
    <glyph glyph-name="i.loclTRK" horiz-adv-x="409" 
d="M248 1204q-17 -17 -43 -17t-45 17q-17 19 -17 45t17 43q20 20 45.5 18t41 -19.5t20 -40.5t-18.5 -46zM225 0h-41v1024h41v-1024z" />
    <glyph glyph-name="f_f_j" horiz-adv-x="1572" 
d="M838 1024h551v-1208q0 -129 -73.5 -194t-211.5 -52v37q244 -27 244 209v1171h-510v-987h-41v987h-510v-987h-41v987h-185v37h185v82q0 180 92 270.5t274 77.5v-37q-325 27 -325 -311v-82h510v102q0 349 366 349q106 0 205 -21v-37q-99 21 -205 21q-169 0 -247 -76
t-78 -236v-102z" />
    <glyph glyph-name="f_j" horiz-adv-x="1021" 
d="M287 1024h551v-1208q0 -129 -73.5 -194t-211.5 -52v37q244 -27 244 209v1171h-510v-987h-41v987h-185v37h185v82q0 348 366 348q111 0 205 -20v-37q-94 20 -205 20q-169 0 -247 -76t-78 -235v-82z" />
    <glyph glyph-name="uni0414.loclBGR" horiz-adv-x="1454" 
d="M752 1434l512 -1397h129v-311h-41v274h-1250v-274h-41v311h129l512 1397h50zM727 1391l-494 -1354h988z" />
    <glyph glyph-name="uni041B.loclBGR" horiz-adv-x="1224" 
d="M41 0l547 1434h49l547 -1434h-43l-529 1389l-528 -1389h-43z" />
    <glyph glyph-name="uni0424.loclBGR" horiz-adv-x="1769" 
d="M905 -20v-185h-41v185q-325 6 -534 206q-207 204 -207 531t207 528q209 203 534 209v184h41v-184q327 -6 533 -209q209 -200 209 -528t-209 -531q-206 -200 -533 -206zM864 16v1401q-324 -6 -512 -200t-188 -500t188 -500q189 -195 512 -201zM905 1417v-1401
q323 6 512 201t189 500t-189 500q-188 194 -512 200z" />
    <glyph glyph-name="uni0414.ss01" horiz-adv-x="1413" 
d="M1178 1434v-1397h143v-37h-1270v37h109q157 165 157 520v877h861zM358 1397v-840q0 -346 -145 -520h924v1360h-779z" />
    <glyph glyph-name="uni0426.ss01" horiz-adv-x="1413" 
d="M1188 1434v-1397h143v-37h-1126v1434h41v-1397h901v1397h41z" />
    <glyph glyph-name="uni0429.ss01" horiz-adv-x="2007" 
d="M1782 1434v-1397h143v-37h-1720v1434h41v-1397h727v1397h41v-1397h727v1397h41z" />
    <glyph glyph-name="uni0414.loclBGR.ss01" horiz-adv-x="1454" 
d="M752 1434l512 -1397h129v-37h-1332v37h129l512 1397h50zM727 1391l-494 -1354h988z" />
    <glyph glyph-name="uni0432.loclBGR" horiz-adv-x="1187" 
d="M745 827q164 -20 252 -130.5t88 -286.5q0 -203 -118.5 -316.5t-331.5 -113.5q-214 0 -332.5 129.5t-118.5 361.5v502q0 228 111 354.5t309 126.5q159 0 248 -92q90 -90 90 -217q0 -90 -51 -174.5t-146 -143.5zM604 1417q-181 0 -280 -115.5t-99 -328.5v-209l285 53
q85 17 174 14q104 59 160.5 142.5t56.5 171.5q0 114 -81 193t-216 79zM1044 410q0 218 -137.5 318.5t-396.5 51.5l-285 -53v-256q0 -216 107.5 -335.5t302.5 -119.5t302 104t107 290z" />
    <glyph glyph-name="uni0433.loclBGR" horiz-adv-x="952" 
d="M817 223l33 -18q-37 -106 -134.5 -165.5t-244.5 -59.5q-157 0 -260 77q-98 79 -98 199q0 99 63.5 161t167.5 89q24 6 71 17t74.5 17.5t69.5 19.5t67.5 24.5t55.5 30.5t46.5 39.5t28 50t11.5 63.5q0 108 -79 174t-204 66q-117 0 -199.5 -50.5t-115.5 -138.5l-33 19
q37 95 128.5 150.5t219.5 55.5q142 0 233 -78.5t91 -197.5q0 -95 -63.5 -156t-167.5 -88q-18 -4 -56.5 -12.5t-59.5 -13.5t-57 -14.5t-57 -17t-51 -20t-47.5 -25t-38.5 -30.5t-31.5 -37.5t-18 -44.5t-7.5 -53q0 -108 88.5 -174t228.5 -66q278 0 346 207z" />
    <glyph glyph-name="uni0434.loclBGR" horiz-adv-x="1376" 
d="M1151 702v322h41v-961q0 -229 -134 -361t-370 -132q-172 0 -299 67t-178 175l33 18q46 -98 165 -160.5t279 -62.5q218 0 340.5 122t122.5 334v259q-56 -154 -190 -248q-131 -94 -304 -94q-222 0 -378 153t-156 379t156 379t378 153q173 0 304 -94q134 -94 190 -248z
M307 160q144 -144 350 -144q207 0 351 144q143 143 143 352t-143 352q-144 144 -351 144q-206 0 -350 -144q-143 -143 -143 -352t143 -352z" />
    <glyph glyph-name="uni0436.loclBGR" horiz-adv-x="1314" 
d="M719 532l534 -532h-53l-522 518v-518h-41v518l-522 -518h-54l535 532l-514 492h53l502 -477v887h41v-887l502 477h53z" />
    <glyph glyph-name="uni0438.loclBGR" horiz-adv-x="1177" 
d="M952 475v549h41v-1024h-41v281q-41 -144 -150.5 -222.5t-258.5 -78.5q-175 0 -283 108q-106 106 -106 285v651h41v-651q0 -157 95.5 -257t254.5 -100q180 0 293 125q114 126 114 334z" />
    <glyph glyph-name="uni0439.loclBGR" horiz-adv-x="1177" 
d="M328 1264h491v-33h-491v33zM952 475v549h41v-1024h-41v281q-41 -144 -150.5 -222.5t-258.5 -78.5q-175 0 -283 108q-106 106 -106 285v651h41v-651q0 -157 95.5 -257t254.5 -100q180 0 293 125q114 126 114 334z" />
    <glyph glyph-name="uni043A.loclBGR" horiz-adv-x="944" 
d="M268 532l615 -532h-58l-600 520v-520h-41v1434h41v-889l580 479h57z" />
    <glyph glyph-name="uni043B.loclBGR" horiz-adv-x="1048" 
d="M547 1024l461 -1024h-43l-441 979l-440 -979h-43l461 1024h45z" />
    <glyph glyph-name="uni043F.loclBGR" horiz-adv-x="1177" 
d="M635 1044q172 0 280 -108q109 -109 109 -285v-651h-41v651q0 157 -95.5 257t-254.5 100q-180 0 -295 -127q-113 -125 -113 -332v-549h-41v1024h41v-281q41 144 151 222.5t259 78.5z" />
    <glyph glyph-name="uni0442.loclBGR" horiz-adv-x="1792" 
d="M1284 1044q162 0 258 -97t96 -277v-670h-41v670q0 159 -84.5 248.5t-228.5 89.5q-158 0 -255 -115.5t-97 -314.5v-578h-41v670q0 160 -82 249t-223 89q-162 0 -261.5 -115t-99.5 -315v-578h-41v1024h41v-248q37 131 133 199.5t228 68.5q133 0 223.5 -72t114.5 -206
q37 135 134.5 206.5t225.5 71.5z" />
    <glyph glyph-name="uni0446.loclBGR" horiz-adv-x="1218" 
d="M1096 37h41v-311h-41v274q-68 0 -106 38t-38 105v138q-41 -144 -150.5 -222.5t-258.5 -78.5q-175 0 -283 108q-106 106 -106 285v651h41v-651q0 -157 95.5 -257t254.5 -100q180 0 293 125q114 126 114 334v549h41v-881q0 -50 27.5 -78t75.5 -28z" />
    <glyph glyph-name="uni0448.loclBGR" horiz-adv-x="1792" 
d="M1567 446v578h41v-1024h-41v248q-37 -131 -133 -199.5t-228 -68.5q-133 0 -223.5 72t-114.5 206q-37 -135 -134.5 -206.5t-225.5 -71.5q-162 0 -258 97t-96 277v670h41v-670q0 -159 84.5 -248.5t228.5 -89.5q158 0 255 115.5t97 314.5v578h41v-670q0 -160 82 -249
t223 -89q162 0 261.5 115t99.5 315z" />
    <glyph glyph-name="uni0449.loclBGR" horiz-adv-x="1832" 
d="M1710 37h41v-311h-41v274q-68 0 -105.5 38t-37.5 105v105q-37 -131 -133 -199.5t-228 -68.5q-133 0 -223.5 72t-114.5 206q-37 -135 -134.5 -206.5t-225.5 -71.5q-162 0 -258 97t-96 277v670h41v-670q0 -159 84.5 -248.5t228.5 -89.5q158 0 255 115.5t97 314.5v578h41
v-670q0 -160 82 -249t223 -89q162 0 261.5 115t99.5 315v578h41v-881q0 -51 27 -78.5t75 -27.5z" />
    <glyph glyph-name="uni044C.loclBGR" horiz-adv-x="993" 
d="M195 655h337q170 0 274.5 -89.5t104.5 -237.5q0 -150 -106 -250q-104 -98 -273 -98q-183 0 -280.5 93.5t-97.5 254.5v696h41v-369zM532 16q150 0 244 88t94 224q0 131 -93 210.5t-245 79.5h-337v-290q0 -143 87.5 -227.5t249.5 -84.5z" />
    <glyph glyph-name="uni044A.loclBGR" horiz-adv-x="1167" 
d="M369 655h338q170 0 274 -89.5t104 -237.5q0 -150 -106 -250q-104 -98 -272 -98q-183 0 -281 93.5t-98 254.5v659h-328v37h369v-369zM707 16q149 0 243 88t94 224q0 131 -92.5 210.5t-244.5 79.5h-338v-290q0 -143 88 -227.5t250 -84.5z" />
    <glyph glyph-name="uni044E.loclBGR" horiz-adv-x="1658" 
d="M1022 1044q223 0 379 -153q155 -152 155 -379t-155 -379q-156 -153 -379 -153q-220 0 -373 147t-162 367h-262v-494h-41v1434h41v-904h262q9 220 162 367t373 147zM672 160q144 -144 350 -144t350 144t144 352t-144 352t-350 144t-350 -144t-144 -352t144 -352z" />
    <glyph glyph-name="zero.sinf" horiz-adv-x="839" 
d="M666 -231q-92 -121 -246 -121t-246 121t-92 313t92 313t246 121t246 -121t92 -313t-92 -313zM203 -207q79 -108 217 -108t217 108q80 109 80 289t-80 289q-79 108 -217 108t-217 -108q-80 -109 -80 -289t80 -289z" />
    <glyph glyph-name="one.sinf" horiz-adv-x="481" 
d="M41 385l276 107h21v-820h-41v766l-244 -90z" />
    <glyph glyph-name="two.sinf" horiz-adv-x="708" 
d="M627 -328h-545v31l385 369q102 95 102 207q0 85 -59.5 142.5t-159.5 57.5q-85 0 -144.5 -42t-80.5 -111l-35 18q25 77 95 124.5t167 47.5q116 0 187 -67.5t71 -169.5q0 -123 -112 -232l-355 -338h484v-37z" />
    <glyph glyph-name="three.sinf" horiz-adv-x="692" 
d="M580 455l-218 -299q115 -7 181.5 -78t66.5 -176q0 -111 -74 -182.5t-200 -71.5q-205 0 -264 151l32 19q53 -133 232 -133q109 0 171 61t62 156t-62 156t-171 61h-6l-19 26l226 310h-445v37h488v-37z" />
    <glyph glyph-name="four.sinf" horiz-adv-x="735" 
d="M547 -106h127v-37h-127v-185h-41v185h-465v37l315 598h41l-313 -598h422v247h41v-247z" />
    <glyph glyph-name="five.sinf" horiz-adv-x="655" 
d="M147 156h185q122 0 197 -71.5t75 -182.5t-75 -182.5t-197 -71.5q-192 0 -260 145l32 19q56 -127 228 -127q105 0 168 59t63 158t-63 158t-168 59h-226l31 373h434v-37h-397z" />
    <glyph glyph-name="six.sinf" horiz-adv-x="686" 
d="M342 178q122 0 202.5 -74.5t80.5 -189.5q0 -116 -80.5 -191t-202.5 -75q-120 0 -200.5 75t-80.5 191q0 73 37 137l287 441h45l-223 -345q60 31 135 31zM342 -315q105 0 173.5 63.5t68.5 165.5q0 99 -69 163t-173 64q-103 0 -171.5 -64t-68.5 -163q0 -102 68 -165.5
t172 -63.5z" />
    <glyph glyph-name="seven.sinf" horiz-adv-x="688" 
d="M61 455v37h545v-33l-344 -787h-45l342 783h-498z" />
    <glyph glyph-name="eight.sinf" horiz-adv-x="727" 
d="M475 102q78 -25 124 -84.5t46 -138.5q0 -104 -77.5 -167.5t-202.5 -63.5t-204 63.5t-79 167.5q0 79 46.5 138.5t125.5 84.5q-67 25 -106 75t-39 116q0 102 72.5 162.5t183.5 60.5t182 -60.5t71 -162.5q0 -66 -39 -115.5t-104 -75.5zM150 293q0 -76 62.5 -125t152.5 -49
q88 0 150.5 49t62.5 125q0 86 -60 136t-153 50q-94 0 -154.5 -50t-60.5 -136zM365 -315q107 0 173 52t66 142q0 91 -67 147t-172 56q-106 0 -174 -56t-68 -147q0 -90 66 -142t176 -52z" />
    <glyph glyph-name="nine.sinf" horiz-adv-x="686" 
d="M625 250q0 -73 -37 -137l-287 -441h-45l223 344q-59 -30 -135 -30q-122 0 -202.5 74.5t-80.5 189.5q0 116 80.5 191t202.5 75q120 0 200.5 -75t80.5 -191zM102 250q0 -99 69 -163t173 -64q103 0 171.5 64t68.5 163q0 102 -68 165.5t-172 63.5q-105 0 -173.5 -63.5
t-68.5 -165.5z" />
    <glyph glyph-name="zero.tf" horiz-adv-x="1167" 
d="M967 180q-138 -200 -383 -200t-383 200q-140 202 -140 537q0 334 140 536q139 201 383 201t383 -201t139 -536q0 -336 -139 -537zM231 203q132 -187 353 -187t350 187q131 186 131 514q0 326 -131 512q-129 188 -350 188t-353 -188q-129 -187 -129 -512q0 -327 129 -514z
" />
    <glyph glyph-name="one.tf" horiz-adv-x="1167" 
d="M655 1434v-1393h461v-41h-1024v41h522v1350l-350 -119l-10 35l371 127h30z" />
    <glyph glyph-name="two.tf" horiz-adv-x="1167" 
d="M1085 0h-962v37l606 541q275 251 275 446q0 179 -112.5 286t-307.5 107q-141 0 -248 -69.5t-152 -186.5l-34 21q50 123 168 197.5t266 74.5q205 0 331 -117q129 -114 129 -313q0 -216 -288 -473l-580 -514h909v-37z" />
    <glyph glyph-name="three.tf" horiz-adv-x="1167" 
d="M987 1397l-393 -557q214 -9 344 -127q131 -116 131 -303q0 -191 -139 -312q-136 -118 -363 -118q-165 0 -288 66.5t-177 184.5l35 21q48 -111 159.5 -173.5t270.5 -62.5q218 0 338 111q123 111 123 283q0 171 -123 282q-120 111 -338 111h-12l-16 24l403 570h-815v37h860
v-37z" />
    <glyph glyph-name="four.tf" horiz-adv-x="1167" 
d="M901 365h184v-37h-184v-328h-41v328h-799v37l566 1069h45l-566 -1069h754v475h41v-475z" />
    <glyph glyph-name="five.tf" horiz-adv-x="1167" 
d="M223 840h361q217 0 354 -119t137 -311q0 -193 -137 -312q-136 -118 -354 -118q-164 0 -283.5 68t-173.5 190l33 18q48 -112 159.5 -176t264.5 -64q209 0 329 111q121 112 121 283q0 170 -121 282q-120 111 -329 111h-402l43 631h789v-37h-754z" />
    <glyph glyph-name="six.tf" horiz-adv-x="1167" 
d="M584 922q225 0 362 -131q139 -133 139 -340t-139 -340q-137 -131 -362 -131q-226 0 -363 131q-139 133 -139 340q0 167 96 292l514 691h45l-430 -580q124 68 277 68zM246 139q123 -123 338 -123t338 123q122 122 122 312q0 189 -122 311q-123 123 -338 123t-338 -123
t-123 -311q0 -189 123 -312z" />
    <glyph glyph-name="seven.tf" horiz-adv-x="1167" 
d="M82 1397v37h962v-37l-649 -1397h-41l650 1397h-922z" />
    <glyph glyph-name="eight.tf" horiz-adv-x="1167" 
d="M745 741q156 -35 243 -132.5t87 -239.5q0 -179 -132 -284t-359 -105t-359.5 105t-132.5 284q0 142 87 239.5t243 132.5q-134 35 -209.5 127t-75.5 219q0 163 123 265t324 102q200 0 323 -102t123 -265q0 -127 -75.5 -219t-209.5 -127zM285 1323q-107 -94 -107 -236
q0 -141 107 -235t299 -94t299 94q106 93 106 235q0 143 -106 236q-107 94 -299 94t-299 -94zM250 113q120 -97 334 -97t334 97q116 98 116 256q0 160 -116 254q-116 98 -334 98t-334 -98q-117 -95 -117 -254q0 -157 117 -256z" />
    <glyph glyph-name="nine.tf" horiz-adv-x="1167" 
d="M1085 983q0 -168 -96 -293l-514 -690h-45l430 580q-124 -68 -276 -68q-226 0 -363 131q-139 133 -139 340t139 340q137 131 363 131q225 0 362 -131q139 -133 139 -340zM246 1294q-123 -123 -123 -311t123 -311t338 -123t338 123q122 122 122 311t-122 311
q-123 123 -338 123t-338 -123z" />
    <glyph glyph-name="zero.dnom" horiz-adv-x="839" 
d="M666 94q-91 -119 -246 -119t-246 119q-92 121 -92 316q0 192 92 313t246 121t246 -121t92 -313q0 -195 -92 -316zM203 119q79 -107 217 -107t217 107q80 109 80 291q0 179 -80 288t-217 109t-217 -109t-80 -288q0 -182 80 -291z" />
    <glyph glyph-name="one.dnom" horiz-adv-x="501" 
d="M41 713l276 106h21v-819h-41v766l-244 -90z" />
    <glyph glyph-name="two.dnom" horiz-adv-x="708" 
d="M627 0h-545v31l385 368q102 95 102 207q0 85 -59.5 143t-159.5 58q-84 0 -144 -42.5t-81 -111.5l-35 19q25 77 95 124.5t167 47.5q116 0 187 -68t71 -170q0 -122 -112 -231l-355 -338h484v-37z" />
    <glyph glyph-name="three.dnom" horiz-adv-x="702" 
d="M580 782l-218 -299q115 -7 181.5 -78t66.5 -176q0 -111 -74 -182.5t-200 -71.5q-205 0 -264 152l32 18q53 -133 232 -133q109 0 171 61t62 156t-62 156t-171 61h-6l-19 27l226 309h-445v37h488v-37z" />
    <glyph glyph-name="four.dnom" horiz-adv-x="735" 
d="M547 221h127v-37h-127v-184h-41v184h-465v37l315 598h41l-313 -598h422v248h41v-248z" />
    <glyph glyph-name="five.dnom" horiz-adv-x="688" 
d="M147 483h185q122 0 197 -71.5t75 -182.5t-75 -182.5t-197 -71.5q-192 0 -260 146l32 18q56 -127 228 -127q105 0 168 59t63 158t-63 158t-168 59h-226l31 373h434v-37h-397z" />
    <glyph glyph-name="six.dnom" horiz-adv-x="686" 
d="M342 506q122 0 202.5 -74.5t80.5 -189.5q0 -116 -80.5 -191.5t-202.5 -75.5q-120 0 -200.5 75.5t-80.5 191.5q0 73 37 137l287 440h45l-223 -344q60 31 135 31zM342 12q105 0 173.5 64t68.5 166q0 99 -69 163t-173 64q-103 0 -171.5 -64t-68.5 -163q0 -102 68 -166
t172 -64z" />
    <glyph glyph-name="seven.dnom" horiz-adv-x="688" 
d="M61 782v37h545v-33l-344 -786h-45l342 782h-498z" />
    <glyph glyph-name="eight.dnom" horiz-adv-x="727" 
d="M475 430q78 -25 124 -84.5t46 -138.5q0 -104 -77.5 -168t-202.5 -64t-204 64t-79 168q0 79 46.5 138.5t125.5 84.5q-67 25 -106 75t-39 116q0 102 72.5 162.5t183.5 60.5t182 -60.5t71 -162.5q0 -66 -39 -115.5t-104 -75.5zM150 621q0 -76 62.5 -125.5t152.5 -49.5
q88 0 150.5 49.5t62.5 125.5q0 86 -60 136t-153 50q-94 0 -154.5 -50t-60.5 -136zM365 12q107 0 173 52.5t66 142.5q0 91 -67 147t-172 56q-106 0 -174 -56t-68 -147q0 -90 66 -142.5t176 -52.5z" />
    <glyph glyph-name="nine.dnom" horiz-adv-x="686" 
d="M625 578q0 -74 -37 -138l-287 -440h-45l223 344q-60 -31 -135 -31q-122 0 -202.5 75t-80.5 190q0 116 80.5 191t202.5 75q120 0 200.5 -75t80.5 -191zM102 578q0 -99 69.5 -163.5t172.5 -64.5t171.5 64.5t68.5 163.5q0 102 -68 165.5t-172 63.5q-105 0 -173.5 -63.5
t-68.5 -165.5z" />
    <glyph glyph-name="zero.numr" horiz-adv-x="839" 
d="M666 709q-91 -119 -246 -119t-246 119q-92 121 -92 315q0 192 92 313t246 121t246 -121t92 -313q0 -194 -92 -315zM203 733q78 -106 217 -106t217 106q80 109 80 291q0 180 -80 289q-79 108 -217 108t-217 -108q-80 -109 -80 -289q0 -182 80 -291z" />
    <glyph glyph-name="one.numr" horiz-adv-x="501" 
d="M41 1327l276 107h21v-820h-41v766l-244 -90z" />
    <glyph glyph-name="two.numr" horiz-adv-x="708" 
d="M627 614h-545v31l385 369q102 94 102 207q0 85 -59.5 142.5t-159.5 57.5q-85 0 -144.5 -42t-80.5 -111l-35 18q25 77 95 124.5t167 47.5q116 0 187 -67.5t71 -169.5q0 -123 -112 -232l-355 -338h484v-37z" />
    <glyph glyph-name="three.numr" horiz-adv-x="702" 
d="M580 1397l-218 -299q115 -7 181.5 -78t66.5 -176q0 -111 -74 -182.5t-200 -71.5q-205 0 -264 151l32 19q53 -133 232 -133q109 0 171 61t62 156t-62 156t-171 61h-6l-19 26l226 310h-445v37h488v-37z" />
    <glyph glyph-name="four.numr" horiz-adv-x="735" 
d="M547 836h127v-37h-127v-185h-41v185h-465v37l315 598h41l-313 -598h422v247h41v-247z" />
    <glyph glyph-name="five.numr" horiz-adv-x="688" 
d="M147 1098h185q122 0 197 -71.5t75 -182.5t-75 -182.5t-197 -71.5q-192 0 -260 145l32 19q56 -127 228 -127q105 0 168 59t63 158t-63 158t-168 59h-226l31 373h434v-37h-397z" />
    <glyph glyph-name="six.numr" horiz-adv-x="686" 
d="M342 1120q122 0 202.5 -74.5t80.5 -189.5q0 -116 -80.5 -191t-202.5 -75q-120 0 -200.5 75t-80.5 191q0 73 37 137l287 441h45l-223 -344q59 30 135 30zM342 627q105 0 173.5 63.5t68.5 165.5q0 99 -69 163t-173 64q-103 0 -171.5 -64t-68.5 -163q0 -102 68 -165.5
t172 -63.5z" />
    <glyph glyph-name="seven.numr" horiz-adv-x="688" 
d="M61 1397v37h545v-33l-344 -787h-45l342 783h-498z" />
    <glyph glyph-name="eight.numr" horiz-adv-x="727" 
d="M475 1044q78 -25 124 -84.5t46 -138.5q0 -104 -77.5 -167.5t-202.5 -63.5t-204 63.5t-79 167.5q0 79 46.5 138.5t125.5 84.5q-67 25 -106 75t-39 116q0 102 72.5 162.5t183.5 60.5t182 -60.5t71 -162.5q0 -66 -39 -115.5t-104 -75.5zM150 1235q0 -76 62.5 -125t152.5 -49
q88 0 150.5 49t62.5 125q0 86 -60 136t-153 50q-94 0 -154.5 -50t-60.5 -136zM365 627q107 0 173 52t66 142q0 91 -67 147t-172 56q-106 0 -174 -56t-68 -147q0 -90 66 -142t176 -52z" />
    <glyph glyph-name="nine.numr" horiz-adv-x="686" 
d="M625 1192q0 -73 -37 -137l-287 -441h-45l223 344q-59 -30 -135 -30q-122 0 -202.5 74.5t-80.5 189.5q0 116 80.5 191t202.5 75q120 0 200.5 -75t80.5 -191zM102 1192q0 -99 69 -163t173 -64q103 0 171.5 64t68.5 163q0 102 -68 165.5t-172 63.5q-105 0 -173.5 -63.5
t-68.5 -165.5z" />
    <glyph glyph-name="zero.sups" horiz-adv-x="839" 
d="M666 1036q-90 -118 -246 -118t-246 118q-92 121 -92 316q0 192 92 313t246 121t246 -121t92 -313q0 -195 -92 -316zM203 1061q79 -107 217 -107t217 107q80 109 80 291q0 179 -80 288t-217 109t-217 -109t-80 -288q0 -182 80 -291z" />
    <glyph glyph-name="one.sups" horiz-adv-x="501" 
d="M41 1655l276 106h21v-819h-41v766l-244 -90z" />
    <glyph glyph-name="two.sups" horiz-adv-x="708" 
d="M627 942h-545v31l385 368q102 95 102 207q0 85 -59.5 143t-159.5 58q-84 0 -144 -42.5t-81 -111.5l-35 19q25 77 95 124.5t167 47.5q116 0 187 -68t71 -170q0 -122 -112 -231l-355 -338h484v-37z" />
    <glyph glyph-name="three.sups" horiz-adv-x="702" 
d="M580 1724l-218 -299q115 -7 181.5 -78t66.5 -176q0 -111 -74 -182t-200 -71q-205 0 -264 151l32 18q53 -133 232 -133q109 0 171 61t62 156t-62 156.5t-171 61.5h-6l-19 26l226 309h-445v37h488v-37z" />
    <glyph glyph-name="four.sups" horiz-adv-x="735" 
d="M547 1163h127v-37h-127v-184h-41v184h-465v37l315 598h41l-313 -598h422v248h41v-248z" />
    <glyph glyph-name="five.sups" horiz-adv-x="688" 
d="M147 1425h185q122 0 197 -71.5t75 -182.5t-75 -182t-197 -71q-192 0 -260 145l32 18q56 -127 228 -127q105 0 168 59t63 158t-63 158.5t-168 59.5h-226l31 372h434v-37h-397z" />
    <glyph glyph-name="six.sups" horiz-adv-x="686" 
d="M342 1448q122 0 202.5 -74.5t80.5 -189.5q0 -116 -80.5 -191t-202.5 -75q-120 0 -200.5 75t-80.5 191q0 73 37 137l287 440h45l-223 -344q60 31 135 31zM342 954q105 0 173.5 64t68.5 166q0 99 -69 163t-173 64q-103 0 -171.5 -64t-68.5 -163q0 -102 68 -166t172 -64z
" />
    <glyph glyph-name="seven.sups" horiz-adv-x="688" 
d="M61 1724v37h545v-32l-344 -787h-45l342 782h-498z" />
    <glyph glyph-name="eight.sups" horiz-adv-x="727" 
d="M475 1372q78 -25 124 -84.5t46 -138.5q0 -104 -77.5 -167.5t-202.5 -63.5t-204 63.5t-79 167.5q0 79 46.5 138.5t125.5 84.5q-67 25 -106 75t-39 116q0 102 72.5 162.5t183.5 60.5t182 -60.5t71 -162.5q0 -66 -39 -115.5t-104 -75.5zM150 1563q0 -76 62.5 -125t152.5 -49
q88 0 150.5 49t62.5 125q0 86 -60 136t-153 50q-94 0 -154.5 -50t-60.5 -136zM365 954q107 0 173 52.5t66 142.5q0 91 -67 147t-172 56q-106 0 -174 -56t-68 -147q0 -90 66 -142.5t176 -52.5z" />
    <glyph glyph-name="nine.sups" horiz-adv-x="686" 
d="M625 1520q0 -74 -37 -138l-287 -440h-45l223 344q-60 -31 -135 -31q-122 0 -202.5 75t-80.5 190q0 116 80.5 191t202.5 75q120 0 200.5 -75t80.5 -191zM102 1520q0 -99 69.5 -163.5t172.5 -64.5t171.5 64.5t68.5 163.5q0 102 -68 165.5t-172 63.5q-105 0 -173.5 -63.5
t-68.5 -165.5z" />
    <glyph glyph-name="cent.tf" horiz-adv-x="1167" 
d="M639 221q138 0 248 63.5t166 170.5l32 -21q-57 -116 -177 -183t-269 -67q-93 0 -170 27l-72 -211h-41l76 223q-150 60 -239 193.5t-89 300.5q0 224 152 379q153 153 383 153q62 0 133 -14l68 199h41l-72 -209q193 -61 276 -226l-32 -20q-76 156 -254 209l-320 -942
q77 -25 160 -25zM145 717q0 -154 81.5 -278.5t217.5 -180.5l316 940q-49 14 -121 14q-214 0 -354 -143t-140 -352z" />
    <glyph glyph-name="dollar.tf" horiz-adv-x="1167" 
d="M1061 340q0 -159 -123 -258q-120 -99 -317 -102v-185h-41v185q-185 7 -310.5 88t-160.5 215l34 18q31 -125 145.5 -201.5t291.5 -83.5v703l-123 43q-43 15 -107 49q-59 33 -94 68q-80 92 -80 215q0 153 115 256q113 101 289 104v184h41v-184q317 -15 403 -301l-35 -20
q-76 266 -368 284v-672q1 0 6 -2t6 -2q68 -23 135 -49q55 -21 113 -55q68 -35 98 -72q82 -90 82 -225zM217 1094q0 -109 70 -191q27 -30 84 -61l94 -43q52 -19 115 -39v657q-168 -3 -265 -96q-98 -94 -98 -227zM621 705v-689q185 1 292 91t107 233q0 123 -74 205
q-21 27 -92 65q-52 29 -104 47q-8 3 -30 11.5t-47.5 18t-51.5 18.5z" />
    <glyph glyph-name="Euro.tf" horiz-adv-x="1167" 
d="M692 16q125 0 221 74t140 207l32 -18q-47 -140 -152 -219.5t-241 -79.5q-211 0 -337 151.5t-156 425.5h-168v37h164q-1 19 -2 45.5t-2 45t-1 32.5t1 32.5t2 45t2 45.5h-164v37h168q30 274 156 425.5t337 151.5q137 0 241.5 -79t151.5 -218l-32 -18q-44 132 -140.5 205
t-220.5 73q-190 0 -306.5 -140.5t-145.5 -399.5h565v-37h-569q-1 -19 -2 -45.5t-2 -45t-1 -32.5t1 -32.5t2 -45t2 -45.5h569v-37h-565q29 -259 146 -400t306 -141z" />
    <glyph glyph-name="florin.tf" horiz-adv-x="1167" 
d="M616 737l109 471q33 143 132 207.5t228 22.5v-41q-118 44 -203 -9.5t-116 -187.5l-107 -463h326v-39h-336l-205 -891q-33 -142 -133 -206.5t-229 -22.5v41q118 -44 204 9.5t117 187.5l205 882h-319v39h327z" />
    <glyph glyph-name="uni20BD.tf" horiz-adv-x="1167" 
d="M696 614h-450v-249h614v-37h-614v-328h-41v328h-185v37h185v249h-185v37h185v783h491q168 0 289 -121t121 -289t-121 -289t-289 -121zM696 1397h-450v-746h450q151 0 260 109q109 112 109 264q0 153 -109 262q-108 111 -260 111z" />
    <glyph glyph-name="sterling.tf" horiz-adv-x="1167" 
d="M348 616v-579h819v-37h-1085v37h225v579h-184v37h184v422q0 175 111 277t278 102q147 0 245.5 -71.5t139.5 -206.5l-34 -19q-73 260 -351 260q-159 0 -253.5 -94.5t-94.5 -247.5v-422h533v-37h-533z" />
    <glyph glyph-name="yen.tf" horiz-adv-x="1167" 
d="M1071 1434h45l-502 -744h392v-37h-402v-225h402v-37h-402v-391h-41v391h-397v37h397v225h-397v37h387l-502 744h45l488 -725z" />
    <glyph glyph-name="brevecy" horiz-adv-x="573" 
d="M532 1231h-491v33h491v-33z" />
    </font>
</defs>
</svg>
