<?xml version="1.0" standalone="no"?>
<!DOCTYPE svg PUBLIC "-//W3C//DTD SVG 1.1//EN" "http://www.w3.org/Graphics/SVG/1.1/DTD/svg11.dtd" >
<svg xmlns="http://www.w3.org/2000/svg" xmlns:xlink="http://www.w3.org/1999/xlink" version="1.1">
<metadata>
Created by FontForge 20170731 at Sat Aug  7 15:00:55 2021
 By Aleksey,,,
Copyright (c) 2015 by Radomir Tinkov. All rights reserved.
</metadata>
<defs>
<font id="SVN-GilroyMediumItalic" horiz-adv-x="1196" >
  <font-face 
    font-family="SVN-Gilroy Medium"
    font-weight="500"
    font-style="italic"
    font-stretch="normal"
    units-per-em="2048"
    panose-1="0 0 6 0 0 0 0 0 0 0"
    ascent="1638"
    descent="-410"
    x-height="1024"
    cap-height="1434"
    bbox="-639 -508 2159 2187"
    underline-thickness="102"
    underline-position="-307"
    slope="-10"
    unicode-range="U+0020-FB02"
  />
<missing-glyph horiz-adv-x="1024" 
d="M190 1638h650v-2048h-650v2048zM682 1434v67h-338v-67h133v-76h-135v-68h340v68h-135v76h135zM547 1094v143h-205v-213h340v70h-135zM410 1167h67v-73h-67v73zM682 901v68h-340v-68h135v-76h-135v-67h205v143h135zM682 641v205h-68v-135h-272v-70h340zM682 365v231h-205
v-115h70v47h67v-96h-204v164h-68v-231h340zM682 10v232h-340v-232h340zM410 174h204v-96h-204v96zM682 -104v67h-340v-67h143l-143 -97v-67h340v67h-209l143 97h66z" />
    <glyph glyph-name="fi" unicode="fi" horiz-adv-x="1085" 
d="M481 1024h557l-180 -1024h-178l149 852h-376l-152 -852h-178l151 852h-165l30 172h164l6 31q71 405 520 405q89 0 205 -26l-28 -162q-94 16 -197 16q-144 0 -221.5 -54t-100.5 -179z" />
    <glyph glyph-name="fl" unicode="fl" horiz-adv-x="1085" 
d="M829 1460q125 0 281 -30l-252 -1430h-178l227 1296q-98 4 -106 4q-138 0 -214 -58t-100 -187l-6 -31h213l-28 -172h-213l-152 -852h-178l151 852h-165l30 172h164l6 31q71 405 520 405z" />
    <glyph glyph-name="f_f" unicode="ff" horiz-adv-x="1218" 
d="M862 1024l8 51q37 213 169.5 316.5t349.5 89.5l-29 -172q-267 21 -311 -234l-9 -51h269l-29 -172h-270l-150 -852h-178l149 852h-378l-152 -852h-178l151 852h-165l30 172h164l6 31q37 213 169.5 316t350.5 89l-32 -172q-264 21 -310 -233l-6 -31h381z" />
    <glyph glyph-name="f_f_i" unicode="ffi" horiz-adv-x="1642" 
d="M1040 1024h557l-180 -1024h-178l150 852h-379l-150 -852h-178l149 852h-378l-152 -852h-178l151 852h-165l30 172h164l6 31q37 213 169.5 316t350.5 89l-32 -172q-264 21 -310 -233l-6 -31h381l8 51q71 406 514 406q94 0 211 -27l-26 -162q-104 17 -197 17
q-145 0 -222.5 -54.5t-100.5 -179.5z" />
    <glyph glyph-name="f_f_l" unicode="ffl" horiz-adv-x="1642" 
d="M1389 1481q121 0 282 -31l-254 -1450h-178l231 1317q-98 4 -108 4q-138 0 -214 -58.5t-99 -187.5l-9 -51h213l-30 -172h-213l-150 -852h-178l149 852h-378l-152 -852h-178l151 852h-165l30 172h164l6 31q37 213 169.5 316t350.5 89l-32 -172q-264 21 -310 -233l-6 -31
h381l8 51q71 406 519 406z" />
    <glyph glyph-name=".notdef" horiz-adv-x="1024" 
d="M190 1638h650v-2048h-650v2048zM682 1434v67h-338v-67h133v-76h-135v-68h340v68h-135v76h135zM547 1094v143h-205v-213h340v70h-135zM410 1167h67v-73h-67v73zM682 901v68h-340v-68h135v-76h-135v-67h205v143h135zM682 641v205h-68v-135h-272v-70h340zM682 365v231h-205
v-115h70v47h67v-96h-204v164h-68v-231h340zM682 10v232h-340v-232h340zM410 174h204v-96h-204v96zM682 -104v67h-340v-67h143l-143 -97v-67h340v67h-209l143 97h66z" />
    <glyph glyph-name=".null" horiz-adv-x="0" 
 />
    <glyph glyph-name="nonmarkingreturn" horiz-adv-x="682" 
 />
    <glyph glyph-name="space" unicode=" " horiz-adv-x="512" 
 />
    <glyph glyph-name="exclam" unicode="!" horiz-adv-x="497" 
d="M303 420h-139l67 604l72 410h215l-72 -410zM154 -23q-55 0 -87.5 40t-21.5 96q11 58 54 94.5t102 36.5q56 0 88 -40t22 -95q-11 -58 -53.5 -95t-103.5 -37z" />
    <glyph glyph-name="quotedbl" unicode="&#x22;" horiz-adv-x="681" 
d="M338 1004h-129l51 430h178zM645 1004h-129l51 430h178z" />
    <glyph glyph-name="numbersign" unicode="#" horiz-adv-x="1239" 
d="M1264 979l-52 -150h-235l-78 -225h240l-52 -147h-239l-121 -355h-156l121 355h-250l-120 -355h-158l121 355h-238l51 147h238l78 225h-242l51 150h242l121 352h157l-120 -352h249l121 352h156l-121 -352h236zM494 604h249l78 225h-250z" />
    <glyph glyph-name="dollar" unicode="$" horiz-adv-x="1148" 
d="M795 1264l-84 -476q20 -9 46.5 -20t53.5 -25q36 -14 53 -28q78 -47 94 -70q128 -112 89 -301q-32 -166 -162.5 -263t-319.5 -108l-30 -178h-129l32 185q-155 19 -259.5 99.5t-145.5 211.5l172 86q56 -188 266 -215l86 491q-146 69 -208 117q-162 126 -120 326
q34 174 172 268q136 93 299 96l31 178h129l-33 -190q225 -49 316 -266l-170 -84q-64 132 -178 166zM420 1079q-16 -80 26.5 -133.5t143.5 -101.5l78 430q-91 -6 -160.5 -58.5t-87.5 -136.5zM856 367q18 82 -26.5 134.5t-151.5 100.5l-78 -440q100 12 168.5 66.5t87.5 138.5z
" />
    <glyph glyph-name="percent" unicode="%" horiz-adv-x="1492" 
d="M498 825q-135 0 -217 97q-77 95 -56 225q21 134 127 223q110 90 252 90q140 0 215 -100q77 -100 53 -232q-24 -128 -129 -217q-103 -86 -245 -86zM385 1143q-12 -73 25.5 -120.5t109.5 -47.5q71 0 126 49t67 119t-25 118t-108 48t-127 -48t-68 -118zM248 143l-96 62
l1138 1065l99 -60zM965 -25q-138 0 -217 97q-75 97 -54 229q21 129 127 219q110 90 250 90q137 0 213 -98t55 -229q-24 -131 -129 -220q-101 -88 -245 -88zM1047 459q-73 0 -127.5 -48t-65.5 -118q-12 -70 25 -119q38 -47 108 -47q72 0 125 47q57 46 68.5 117t-26 122
t-107.5 46z" />
    <glyph glyph-name="ampersand" unicode="&#x26;" horiz-adv-x="1372" 
d="M1096 662l151 -97q-67 -175 -170 -305l164 -215l-162 -84l-129 170q-196 -158 -438 -158q-219 0 -336 123q-118 124 -80 318q46 257 344 395q-76 133 -51 281q26 164 158 268q129 102 309 102q153 0 262 -78t154 -215l-170 -90q-26 93 -94.5 146t-161.5 53
q-101 0 -176 -57t-92 -154q-21 -122 84 -260l307 -402q75 110 127 259zM539 154q169 0 307 114l-309 406q-216 -86 -250 -266q-20 -116 48.5 -185t203.5 -69z" />
    <glyph glyph-name="quotesingle" unicode="'" horiz-adv-x="374" 
d="M338 1004h-129l51 430h178z" />
    <glyph glyph-name="parenleft" unicode="(" horiz-adv-x="573" 
d="M395 -205h-178q-144 449 -59 936q83 465 385 907h178q-304 -446 -387 -921.5t61 -921.5z" />
    <glyph glyph-name="parenright" unicode=")" horiz-adv-x="571" 
d="M250 1638h178q144 -449 59 -936q-83 -465 -385 -907h-178q304 446 387 921.5t-61 921.5z" />
    <glyph glyph-name="asterisk" unicode="*" horiz-adv-x="808" 
d="M633 1239l186 10l-22 -131l-185 8l82 -149l-121 -70l-63 168l-121 -168l-110 70l133 149l-187 -8l23 131l184 -10l-82 152l123 69l62 -168l122 168l109 -69z" />
    <glyph glyph-name="plus" unicode="+" horiz-adv-x="1116" 
d="M694 803h355l-29 -170h-354l-64 -357h-170l64 357h-357l29 170h356l64 354h170z" />
    <glyph glyph-name="comma" unicode="," horiz-adv-x="518" 
d="M143 211h205l-221 -498h-154z" />
    <glyph glyph-name="hyphen" unicode="-" horiz-adv-x="1054" 
d="M907 543h-747l28 172h748z" />
    <glyph glyph-name="period" unicode="." horiz-adv-x="497" 
d="M154 -23q-55 0 -87.5 40t-21.5 96q11 58 54 94.5t102 36.5q56 0 88 -40t22 -95q-11 -58 -53.5 -95t-103.5 -37z" />
    <glyph glyph-name="slash" unicode="/" horiz-adv-x="1081" 
d="M1202 1638l-1136 -1843h-117l1138 1843h115z" />
    <glyph glyph-name="zero" unicode="0" horiz-adv-x="1294" 
d="M557 -27q-253 0 -371 213q-114 212 -55 549q61 342 236.5 533.5t441.5 191.5q256 0 371 -213q114 -211 55 -547q-61 -344 -236.5 -535.5t-441.5 -191.5zM1047 717q47 266 -22.5 412.5t-242.5 146.5t-294.5 -147t-165.5 -412q-47 -268 21.5 -412.5t242.5 -144.5t294 144.5
t167 412.5z" />
    <glyph glyph-name="one" unicode="1" horiz-adv-x="729" 
d="M168 1303l401 131h164l-252 -1434h-190l215 1227v-4l-320 -90z" />
    <glyph glyph-name="two" unicode="2" horiz-adv-x="1079" 
d="M911 0h-927l26 156l598 516q237 196 264 348q23 118 -37.5 187t-170.5 69q-189 0 -322 -195l-152 97q188 282 496 282q180 0 295 -127q117 -126 80 -327q-19 -118 -96 -221.5t-230 -235.5l-432 -365h639z" />
    <glyph glyph-name="three" unicode="3" horiz-adv-x="1095" 
d="M258 1434h860l-26 -168l-381 -424q154 -38 236 -153.5t54 -278.5q-38 -211 -196 -324q-155 -113 -363 -113q-163 0 -277.5 76t-152.5 215l168 92q49 -196 285 -196q135 0 230 70.5t118 193.5q20 123 -49.5 194.5t-204.5 71.5h-49l-57 121l397 444h-621z" />
    <glyph glyph-name="four" unicode="4" horiz-adv-x="1173" 
d="M958 451h175l-29 -179h-176l-47 -272h-191l47 272h-729l29 179l684 983h215l-684 -983h516l72 405h190z" />
    <glyph glyph-name="five" unicode="5" horiz-adv-x="1118" 
d="M1149 1434l-31 -179h-606l-94 -381h205q187 0 313 -129q127 -127 90 -335q-38 -211 -192 -324q-155 -113 -363 -113q-167 0 -284.5 80.5t-155.5 227.5l172 90q20 -103 95.5 -157t193.5 -54q135 0 229 70.5t117 193.5q20 123 -48.5 194.5t-203.5 71.5h-404l183 744h784z
" />
    <glyph glyph-name="six" unicode="6" horiz-adv-x="1101" 
d="M621 938q210 0 329 -143q122 -143 82 -353q-41 -216 -194 -342q-154 -127 -377 -127q-211 0 -332 142q-120 145 -80 356q34 187 160 307l553 656h229l-422 -498q10 2 52 2zM844 457q23 135 -45.5 217t-204.5 82q-139 0 -235 -81t-119 -218q-25 -136 42.5 -218.5
t204.5 -82.5t234.5 82.5t122.5 218.5z" />
    <glyph glyph-name="seven" unicode="7" horiz-adv-x="1003" 
d="M168 1253l31 181h895l-29 -170l-735 -1264h-209l729 1253h-682z" />
    <glyph glyph-name="eight" unicode="8" horiz-adv-x="1138" 
d="M1106 1042q-34 -204 -232 -307q95 -58 139.5 -151.5t24.5 -204.5q-36 -194 -186 -300t-375 -106q-207 0 -332 119q-123 120 -88 316q20 114 94 202t191 140q-157 118 -123 317q34 193 180 293q141 100 334 100q179 0 291 -112q117 -111 82 -306zM915 1051q20 109 -40 168
t-170 59q-113 0 -195 -59t-102 -168q-18 -105 45 -167.5t170 -62.5q112 0 193 61.5t99 168.5zM852 406q18 116 -54.5 181.5t-203.5 65.5q-137 0 -231.5 -65.5t-114.5 -181.5t52.5 -183t205.5 -67q137 0 230 65t116 185z" />
    <glyph glyph-name="nine" unicode="9" horiz-adv-x="1105" 
d="M715 1460q213 0 332 -143t81 -356q-27 -173 -147 -293l-563 -668h-230l422 500q-12 -2 -55 -2q-212 0 -332 141q-120 144 -82 356q38 213 193 338q157 127 381 127zM332 979q-25 -136 44 -218.5t206 -82.5t235 82.5t121 218.5q25 136 -44 217.5t-206 81.5t-235 -82
t-121 -217z" />
    <glyph glyph-name="colon" unicode=":" horiz-adv-x="497" 
d="M295 782q-55 0 -87.5 40t-21.5 96q11 58 54 94.5t102 36.5q56 0 88.5 -40.5t22.5 -95.5q-11 -58 -54 -94.5t-104 -36.5zM154 -23q-55 0 -87.5 40t-21.5 96q11 58 54 94.5t102 36.5q56 0 88 -40t22 -95q-11 -58 -53.5 -95t-103.5 -37z" />
    <glyph glyph-name="semicolon" unicode=";" horiz-adv-x="526" 
d="M326 782q-55 0 -87.5 40t-21.5 96q11 58 54 94.5t102 36.5q55 0 88 -40t22 -96q-11 -58 -53.5 -94.5t-103.5 -36.5zM143 211h205l-221 -498h-154z" />
    <glyph glyph-name="less" unicode="&#x3c;" horiz-adv-x="1071" 
d="M164 805l911 369l-37 -203l-686 -264l594 -263l-33 -182l-778 369l15 86z" />
    <glyph glyph-name="equal" unicode="=" horiz-adv-x="1095" 
d="M1040 840h-868l29 170h870zM967 424h-871l33 170h868z" />
    <glyph glyph-name="greater" unicode="&#x3e;" horiz-adv-x="1071" 
d="M199 991l30 183l779 -369l-15 -88l-16 -86l-907 -369l36 203l687 262z" />
    <glyph glyph-name="question" unicode="?" horiz-adv-x="1101" 
d="M592 420h-189q16 89 66.5 168t118.5 137q12 10 63 50t68.5 54.5t56 50.5t56 60t35.5 58t24 67q18 101 -40 156t-171 55q-213 0 -315 -205l-158 96q72 140 206.5 216.5t295.5 76.5q177 0 290 -110q116 -110 82 -291q-25 -159 -184 -289q-14 -11 -53 -41.5t-57.5 -45.5
t-51.5 -43.5t-51.5 -50.5t-40 -50.5t-33.5 -58t-18 -60.5zM420 -23q-55 0 -87.5 40t-21.5 96q11 58 54 94.5t102 36.5q56 0 88.5 -40t22.5 -95q-11 -58 -54 -95t-104 -37z" />
    <glyph glyph-name="at" unicode="@" horiz-adv-x="1617" 
d="M952 1253q156 0 284 -62t202 -167q73 -104 101 -230.5t5 -252.5q-35 -208 -138.5 -317t-240.5 -109q-86 0 -142.5 44.5t-68.5 123.5q-101 -101 -237 -101q-137 0 -213 101q-75 100 -51 239q25 142 129 230q107 90 243 90q126 0 197 -103l14 86h158l-80 -452
q-30 -180 96 -180q95 0 167 91.5t102 268.5q46 273 -107 455q-153 184 -428 184q-286 0 -516 -193q-228 -188 -281 -481q-53 -297 115 -491q171 -195 479 -195q210 0 359 57l-13 -65q-154 -53 -356 -53q-333 0 -522 219q-188 218 -129 542q53 308 303 515q250 206 569 206z
M641 379q44 -49 122.5 -49t139.5 49q63 51 78 133t-31 131q-43 51 -121 51t-141 -51q-63 -48 -78 -131q-15 -81 31 -133z" />
    <glyph glyph-name="A" unicode="A" horiz-adv-x="1316" 
d="M1210 0h-200l-58 322h-645l-176 -322h-207l789 1434h215zM791 1210l-388 -710h517z" />
    <glyph glyph-name="B" unicode="B" horiz-adv-x="1259" 
d="M1221 1032q-30 -191 -205 -293q88 -52 128 -141t23 -203q-24 -168 -159 -282q-131 -113 -330 -113h-615l252 1434h545q176 0 281 -117q107 -116 80 -285zM1032 1036q17 91 -35.5 155t-148.5 64h-373l-78 -438h381q91 0 164 63.5t90 155.5zM793 643h-426l-82 -465h417
q102 0 182 67.5t97 166.5q17 98 -37 164.5t-151 66.5z" />
    <glyph glyph-name="C" unicode="C" horiz-adv-x="1515" 
d="M737 -27q-325 0 -501 226q-175 224 -119 538q53 311 295 516q245 207 549 207q207 0 358 -93t225 -259l-170 -90q-120 258 -424 258q-243 0 -426 -160q-180 -158 -221 -399q-41 -245 84 -400q127 -157 367 -157q154 0 285 69.5t218 194.5l158 -100q-118 -163 -297.5 -257
t-380.5 -94z" />
    <glyph glyph-name="D" unicode="D" horiz-adv-x="1474" 
d="M315 1434h559q280 0 445 -220q163 -217 111 -518q-52 -298 -279 -499q-226 -197 -528 -197h-560zM1247 719q41 232 -73 381q-111 153 -330 153h-369l-190 -1073h364q221 0 389 154q169 155 209 385z" />
    <glyph glyph-name="E" unicode="E" horiz-adv-x="1085" 
d="M1161 1434l-31 -181h-655l-78 -440h604l-32 -178h-604l-80 -455h665l-30 -180h-857l252 1434h846z" />
    <glyph glyph-name="F" unicode="F" horiz-adv-x="1056" 
d="M1141 1434l-33 -181h-633l-82 -465h608l-32 -180h-609l-106 -608h-191l252 1434h826z" />
    <glyph glyph-name="G" unicode="G" horiz-adv-x="1615" 
d="M854 711h719l-14 -84q-49 -279 -269 -469q-218 -185 -530 -185q-336 0 -518 226q-183 230 -125 546q55 310 295 512q244 203 557 203q206 0 358.5 -93t233.5 -261l-170 -90q-131 260 -435 260q-246 0 -430 -158q-183 -157 -223 -397q-40 -242 86 -402q126 -159 383 -159
q211 0 363.5 104t210.5 275h-523z" />
    <glyph glyph-name="H" unicode="H" horiz-adv-x="1382" 
d="M1096 825l106 609h189l-252 -1434h-189l113 645h-696l-113 -645h-191l252 1434h191l-107 -609h697z" />
    <glyph glyph-name="I" unicode="I" horiz-adv-x="497" 
d="M63 0l252 1434h191l-252 -1434h-191z" />
    <glyph glyph-name="J" unicode="J" horiz-adv-x="1140" 
d="M449 -27q-328 0 -420 265l172 92q53 -170 264 -170q138 0 225.5 66.5t110.5 193.5l178 1014h190l-178 -1018q-41 -227 -190 -334q-148 -109 -352 -109z" />
    <glyph glyph-name="K" unicode="K" horiz-adv-x="1208" 
d="M1104 1434h242l-771 -707l529 -727h-213l-512 705l-125 -705h-191l252 1434h191l-113 -646z" />
    <glyph glyph-name="L" unicode="L" horiz-adv-x="999" 
d="M506 1434l-221 -1254h620l-33 -180h-809l252 1434h191z" />
    <glyph glyph-name="M" unicode="M" horiz-adv-x="1648" 
d="M1434 1434h223l-252 -1434h-188l196 1114l-604 -774h-25l-331 793l-199 -1133h-191l252 1434h209l316 -766z" />
    <glyph glyph-name="N" unicode="N" horiz-adv-x="1388" 
d="M254 0h-191l252 1434h146l559 -1076l186 1076h191l-252 -1434h-146l-557 1075z" />
    <glyph glyph-name="O" unicode="O" horiz-adv-x="1644" 
d="M733 -27q-309 0 -491 228q-183 230 -125 536q52 309 297 516t565 207q309 0 491 -231q181 -231 129 -541q-56 -311 -299 -514q-245 -201 -567 -201zM760 160q244 0 424 155q184 156 225 394q41 239 -90 401q-132 166 -371 166t-422 -160q-180 -158 -221 -399
q-40 -235 88 -398q129 -159 367 -159z" />
    <glyph glyph-name="P" unicode="P" horiz-adv-x="1206" 
d="M315 1434h506q208 0 318 -134q112 -133 78 -331q-35 -202 -187 -330q-151 -127 -389 -127h-297l-90 -512h-191zM1030 989q23 123 -40.5 194.5t-192.5 71.5h-322l-100 -565h287q146 0 245 83t123 216z" />
    <glyph glyph-name="Q" unicode="Q" horiz-adv-x="1654" 
d="M1599 688q-53 -303 -284 -500l115 -141l-140 -115l-125 152q-199 -111 -432 -111q-307 0 -491 228q-183 230 -125 536q52 309 297 516q248 207 565 207q309 0 491 -231q181 -231 129 -541zM1049 227l-240 293l141 113l250 -305q168 155 209 381q41 239 -90 401
q-132 166 -371 166t-422 -160q-180 -158 -221 -399q-40 -235 88 -398q129 -159 367 -159q155 0 289 67z" />
    <glyph glyph-name="R" unicode="R" horiz-adv-x="1251" 
d="M1255 969q-26 -145 -124 -250.5t-240 -147.5l233 -571h-196l-221 549h-357l-96 -549h-191l252 1434h570q176 0 291 -142q114 -138 79 -323zM1069 989q21 113 -43 189q-65 77 -172 77h-379l-94 -534h383q109 0 199 78q88 79 106 190z" />
    <glyph glyph-name="S" unicode="S" horiz-adv-x="1198" 
d="M549 -27q-203 0 -335.5 93t-174.5 260l168 88q56 -256 352 -256q139 0 228.5 56t109.5 153q24 116 -74 178q-85 54 -223 98q-93 32 -154.5 63.5t-123.5 81.5q-130 112 -93 306q34 177 179 272q143 94 319 94q172 0 289 -83.5t168 -227.5l-168 -86q-77 213 -303 213
q-108 0 -190.5 -53.5t-102.5 -143.5q-19 -86 37 -149q20 -26 67 -53q63 -33 185 -78q65 -24 116 -45q37 -13 109 -58q66 -41 98 -82q38 -46 54.5 -116.5t0.5 -151.5q-35 -182 -184 -276q-151 -97 -354 -97z" />
    <glyph glyph-name="T" unicode="T" horiz-adv-x="1105" 
d="M199 1434h1034l-31 -181h-424l-221 -1253h-188l221 1253h-422z" />
    <glyph glyph-name="U" unicode="U" horiz-adv-x="1341" 
d="M600 -27q-246 0 -379 142q-132 141 -92 366l166 953h190l-166 -945q-27 -152 47.5 -240.5t239.5 -88.5q167 0 275 89t135 240l166 945h188l-166 -953q-44 -240 -207 -375q-165 -133 -397 -133z" />
    <glyph glyph-name="V" unicode="V" horiz-adv-x="1261" 
d="M649 0h-215l-256 1434h193l200 -1203l623 1203h215z" />
    <glyph glyph-name="W" unicode="W" horiz-adv-x="2048" 
d="M594 0h-221l-160 1434h188l123 -1184l557 1184h193l141 -1184l541 1184h203l-664 -1434h-221l-139 1145z" />
    <glyph glyph-name="X" unicode="X" horiz-adv-x="1208" 
d="M1083 1434h224l-557 -705l333 -729h-200l-262 569l-451 -569h-225l594 750l-314 684h201l240 -525z" />
    <glyph glyph-name="Y" unicode="Y" 
d="M1118 1434h223l-624 -779l-115 -655h-190l116 659l-350 775h199l266 -600z" />
    <glyph glyph-name="Z" unicode="Z" horiz-adv-x="1075" 
d="M260 1434h901l-28 -164l-881 -1090h706l-32 -180h-936l28 166l881 1087h-670z" />
    <glyph glyph-name="bracketleft" unicode="[" horiz-adv-x="593" 
d="M752 1638l-29 -172h-258l-264 -1499h258l-33 -172h-436l327 1843h435z" />
    <glyph glyph-name="backslash" unicode="\" horiz-adv-x="1081" 
d="M877 -205h-107l-494 1843h107z" />
    <glyph glyph-name="bracketright" unicode="]" horiz-adv-x="593" 
d="M240 1638h436l-326 -1843h-436l31 172h258l264 1499h-256z" />
    <glyph glyph-name="asciicircum" unicode="^" horiz-adv-x="1064" 
d="M612 1434h160l260 -635h-190l-172 434l-328 -434h-211z" />
    <glyph glyph-name="underscore" unicode="_" horiz-adv-x="1064" 
d="M844 -309h-912l29 172h911z" />
    <glyph glyph-name="grave" unicode="`" horiz-adv-x="462" 
d="M537 1163h-172l-162 271h211z" />
    <glyph glyph-name="a" unicode="a" horiz-adv-x="1298" 
d="M1042 834l33 190h178l-180 -1024h-178l27 145q-159 -172 -410 -172q-221 0 -346 168t-84 394q40 236 207 374q168 142 375 142q128 0 226 -56.5t152 -160.5zM983 504q34 172 -61 274q-91 101 -246 101q-143 0 -266 -97q-124 -97 -150 -262q-28 -159 57 -266
q89 -109 244 -109q156 0 275 101q120 102 147 258z" />
    <glyph glyph-name="b" unicode="b" horiz-adv-x="1296" 
d="M788 1051q217 0 342 -162q129 -163 89 -385q-41 -229 -207 -379q-172 -152 -400 -152q-122 0 -213.5 57.5t-142.5 159.5l-33 -190h-178l252 1434h178l-100 -572q165 189 413 189zM1040 520q27 154 -59 256q-83 103 -240 103q-153 0 -276 -105q-125 -107 -152 -262
q-26 -153 60 -262q89 -105 241 -105q158 0 277 107q122 110 149 268z" />
    <glyph glyph-name="c" unicode="c" horiz-adv-x="1124" 
d="M532 -27q-228 0 -360 164q-131 165 -90 398q41 229 213 370q178 146 403 146q153 0 266 -72t158 -195l-157 -82q-67 175 -281 175q-155 0 -276 -103t-148 -254q-27 -157 55 -264q81 -106 240 -106q103 0 190.5 48t143.5 134l143 -94q-78 -125 -210 -195t-290 -70z" />
    <glyph glyph-name="d" unicode="d" horiz-adv-x="1300" 
d="M1042 831l107 603h178l-252 -1434h-178l27 147q-162 -174 -412 -174q-221 0 -346 168t-84 394q40 236 207 374q168 142 375 142q128 0 227.5 -58t150.5 -162zM985 504q30 174 -63 274q-91 101 -244 101q-145 0 -268 -97q-124 -97 -150 -262q-28 -159 57 -266
q89 -109 244 -109q158 0 277 101q120 102 147 258z" />
    <glyph glyph-name="e" unicode="e" 
d="M690 1051q230 0 354 -160q126 -156 82 -381q-2 -25 -20 -80h-856q0 -135 84.5 -212t226.5 -77q204 0 326 152l133 -96q-78 -105 -205 -164.5t-274 -59.5q-243 0 -371 162t-88 397q41 226 211 371q174 148 397 148zM276 588h682q6 143 -69.5 219t-208.5 76
q-143 0 -251.5 -79.5t-152.5 -215.5z" />
    <glyph glyph-name="f" unicode="f" horiz-adv-x="663" 
d="M303 1024l6 31q38 211 171 314.5t349 90.5l-32 -172q-264 21 -310 -233l-6 -31h271l-31 -172h-268l-152 -852h-178l151 852h-165l30 172h164z" />
    <glyph glyph-name="g" unicode="g" horiz-adv-x="1300" 
d="M1042 831l35 193h176l-172 -981q-41 -235 -202 -356q-159 -123 -385 -123q-164 0 -283.5 65.5t-173.5 184.5l158 82q70 -166 309 -166q167 0 271 81.5t130 231.5l21 121q-152 -180 -400 -180q-234 0 -358 161q-123 164 -86 394q34 225 203 368q170 144 377 144
q129 0 229 -57.5t151 -162.5zM567 156q145 0 264 90q118 92 152 241l10 54q18 154 -78 247t-237 93q-147 0 -270 -99q-124 -95 -148 -258q-27 -155 59 -264q88 -104 248 -104z" />
    <glyph glyph-name="h" unicode="h" horiz-adv-x="1155" 
d="M729 1051q180 0 272 -115q96 -116 62 -307l-111 -629h-178l109 618q23 127 -30.5 195t-176.5 68q-136 0 -232.5 -86t-124.5 -252v2l-96 -545h-178l252 1434h178l-96 -545q131 162 350 162z" />
    <glyph glyph-name="i" unicode="i" horiz-adv-x="450" 
d="M223 0h-178l180 1024h178zM340 1151q-49 0 -77.5 34.5t-20.5 84.5q8 52 47 86.5t92 34.5q49 0 78.5 -35.5t21.5 -85.5q-11 -52 -49.5 -85.5t-91.5 -33.5z" />
    <glyph glyph-name="j" unicode="j" horiz-adv-x="493" 
d="M80 -61l190 1085h179l-191 -1085q-36 -212 -148.5 -300.5t-312.5 -74.5l31 172q110 -11 171 37.5t81 165.5zM395 1151q-49 0 -77.5 34.5t-20.5 84.5q8 52 47 86.5t92 34.5q49 0 79 -35.5t22 -85.5q-11 -52 -50 -85.5t-92 -33.5z" />
    <glyph glyph-name="k" unicode="k" horiz-adv-x="1028" 
d="M840 1024h229l-577 -496l415 -528h-205l-391 504l-88 -504h-178l252 1434h178l-149 -854z" />
    <glyph glyph-name="l" unicode="l" horiz-adv-x="452" 
d="M225 0h-178l109 623l153 872h178z" />
    <glyph glyph-name="m" unicode="m" horiz-adv-x="1738" 
d="M1331 1051q165 0 256 -113q92 -114 62 -301l-113 -637h-178l110 631q20 120 -28.5 185t-153.5 65q-116 0 -196 -77.5t-109 -228.5l-100 -575h-179l111 631q20 120 -25.5 185t-146.5 65q-117 0 -203.5 -79t-111.5 -227v3l-103 -578h-178l180 1024h178l-22 -123
q132 150 324 150q206 0 274 -179q138 179 352 179z" />
    <glyph glyph-name="n" unicode="n" horiz-adv-x="1155" 
d="M729 1051q180 0 272 -115q96 -116 62 -307l-111 -629h-178l109 618q23 127 -30.5 195t-176.5 68q-136 0 -232.5 -86t-124.5 -252v2l-96 -545h-178l180 1024h178l-24 -135q131 162 350 162z" />
    <glyph glyph-name="o" unicode="o" horiz-adv-x="1234" 
d="M539 -27q-225 0 -365 158q-138 156 -94 399q44 238 225 379q183 142 406 142q218 0 352 -158q133 -157 92 -395q-40 -242 -219 -383q-180 -142 -397 -142zM553 147q149 0 272 99q127 100 154 270q27 168 -61 262q-88 99 -236 99q-143 -3 -268 -99q-121 -93 -156 -266
q-27 -174 59 -270q92 -98 236 -95z" />
    <glyph glyph-name="p" unicode="p" horiz-adv-x="1298" 
d="M786 1051q219 0 344 -168q129 -170 89 -391q-40 -236 -207 -377q-165 -142 -373 -142q-128 0 -229 58.5t-152 163.5l-106 -605h-179l252 1434h178l-26 -152q159 179 409 179zM1040 504q27 157 -59 266t-242 109q-157 0 -276 -101q-122 -103 -148 -256q-30 -174 62 -276
q94 -101 248 -101q145 0 266 95q122 96 149 264z" />
    <glyph glyph-name="q" unicode="q" horiz-adv-x="1298" 
d="M1042 834l33 190h178l-252 -1434h-178l99 555q-159 -172 -410 -172q-221 0 -346 168t-84 394q40 236 207 374q168 142 375 142q128 0 226 -56.5t152 -160.5zM983 502q34 172 -61 274q-92 103 -246 103q-143 0 -266 -97q-124 -97 -150 -262q-28 -159 57 -266
q89 -109 244 -109q156 0 275 101q120 102 147 256z" />
    <glyph glyph-name="r" unicode="r" horiz-adv-x="673" 
d="M403 1024l-26 -150q128 174 350 168l-33 -186q-133 3 -239 -72q-109 -75 -136 -241v2l-96 -545h-178l180 1024h178z" />
    <glyph glyph-name="s" unicode="s" horiz-adv-x="968" 
d="M420 -27q-150 0 -248 65t-135 183l160 82q18 -74 80 -118t157 -44q92 0 151.5 35t71.5 100q8 44 -18.5 75t-74.5 51t-106.5 38t-116.5 42.5t-103 58t-66.5 91.5t-7.5 136q21 125 131 203q112 80 258 80q261 0 356 -213l-157 -82q-40 129 -207 129q-76 0 -134 -35.5
t-69 -99.5q-10 -57 37 -94.5t137 -65.5q60 -16 99 -29.5t91.5 -41t80.5 -60t43.5 -85.5t3.5 -118q-25 -134 -135 -208.5t-279 -74.5z" />
    <glyph glyph-name="t" unicode="t" horiz-adv-x="776" 
d="M754 852h-273l-98 -555q-11 -57 1 -88.5t45.5 -41.5t85 -11t118.5 4l-29 -160q-230 -31 -330.5 41t-68.5 256l96 555h-203l33 172h201l41 233l188 54l-51 -287h274z" />
    <glyph glyph-name="u" unicode="u" horiz-adv-x="1155" 
d="M836 479l96 545h178l-180 -1024h-178l24 135q-131 -162 -350 -162q-179 0 -274 115q-94 117 -60 307l111 629h178l-109 -618q-23 -127 30.5 -195t176.5 -68q136 0 232.5 86t124.5 252v-2z" />
    <glyph glyph-name="v" unicode="v" horiz-adv-x="983" 
d="M430 203l430 821h199l-557 -1024h-201l-195 1024h181z" />
    <glyph glyph-name="w" unicode="w" horiz-adv-x="1583" 
d="M1067 244l360 780h195l-500 -1024h-182l-104 760l-369 -760h-186l-140 1024h176l95 -778l372 778h179l-2 -4z" />
    <glyph glyph-name="x" unicode="x" horiz-adv-x="1054" 
d="M870 1024h222l-459 -506l301 -518h-197l-225 387l-350 -387h-221l485 535l-283 489h197l207 -356z" />
    <glyph glyph-name="y" unicode="y" horiz-adv-x="1054" 
d="M489 215l443 809h198l-608 -1087q-205 -368 -516 -347l29 166q94 -7 164.5 42t138.5 163l31 49l-263 1014h181z" />
    <glyph glyph-name="z" unicode="z" horiz-adv-x="923" 
d="M188 1024h748l-23 -119l-645 -735h537l-29 -170h-790l22 119l645 735h-495z" />
    <glyph glyph-name="braceleft" unicode="{" horiz-adv-x="731" 
d="M588 -49l-29 -172q-189 -17 -274.5 74t-53.5 274l58 330q18 106 -19.5 142t-146.5 34l33 172q107 -2 157 34.5t68 141.5l57 330q36 200 146 282.5t307 65.5l-31 -172q-112 12 -168 -26.5t-76 -149.5l-57 -330q-20 -117 -65.5 -179t-126.5 -89q134 -58 100 -256l-57 -330
q-20 -110 21.5 -149t156.5 -27z" />
    <glyph glyph-name="bar" unicode="|" horiz-adv-x="485" 
d="M170 -410h-178l332 1885h178z" />
    <glyph glyph-name="braceright" unicode="}" horiz-adv-x="729" 
d="M215 1487l29 172q189 17 274 -74t53 -274l-57 -330q-18 -106 19.5 -142t146.5 -34l-33 -172q-107 2 -157 -34.5t-68 -141.5l-57 -330q-36 -200 -146 -282.5t-307 -65.5l31 172q112 -12 167.5 26.5t75.5 149.5l58 330q20 117 65.5 179t126.5 89q-134 58 -100 256l57 330
q20 110 -21.5 149t-156.5 27z" />
    <glyph glyph-name="asciitilde" unicode="~" horiz-adv-x="1220" 
d="M274 565l-139 72q74 186 220 231t319 -65q144 -85 215 -70q72 18 127 135l141 -73q-74 -187 -217 -231.5t-322 67.5q-142 83 -214.5 67.5t-129.5 -133.5z" />
    <glyph glyph-name="exclamdown" unicode="&#xa1;" horiz-adv-x="497" 
d="M344 1047q55 0 87.5 -40t21.5 -96q-11 -58 -54 -94.5t-102 -36.5q-56 0 -88.5 40t-22.5 95q11 58 54 95t104 37zM195 604h139l-68 -604l-71 -410h-215l71 410z" />
    <glyph glyph-name="cent" unicode="&#xa2;" horiz-adv-x="1124" 
d="M592 354q103 0 190.5 48.5t143.5 134.5l143 -95q-78 -125 -210 -194.5t-290 -69.5q-58 0 -131 17l-96 -195h-115l115 233q-130 68 -191 205.5t-32 300.5q41 230 213 371q177 145 403 145q42 0 107 -10l92 189h115l-109 -220q161 -69 219 -225l-158 -82q-37 102 -139 148
l-342 -695q34 -6 72 -6zM297 725q-19 -106 15 -193.5t112 -134.5l336 682q-8 2 -39 2q-157 0 -277 -102t-147 -254z" />
    <glyph glyph-name="sterling" unicode="&#xa3;" 
d="M911 582h-454l-70 -398h723l-33 -184h-1091l32 184h181l69 398h-143l31 168h143l47 272q38 213 165 325.5t316 112.5q136 0 239 -75.5t144 -206.5l-161 -86q-36 94 -94 139t-150 45q-103 0 -175 -65t-95 -189l-48 -272h455z" />
    <glyph glyph-name="currency" unicode="&#xa4;" horiz-adv-x="1124" 
d="M1092 1204l65 -71l-170 -146q76 -122 49 -276q-27 -155 -141 -269l117 -141l-82 -68l-117 142q-137 -90 -291 -90q-147 0 -248 88l-168 -144l-65 72l170 145q-76 123 -49 277t141 268l-117 142l80 69l119 -143q133 92 291 92q144 0 248 -90zM340 717q-20 -110 41.5 -186
t171.5 -76q113 0 197 75q89 77 110 187q19 113 -42 187.5t-173 74.5q-111 0 -199 -76q-88 -73 -106 -186z" />
    <glyph glyph-name="yen" unicode="&#xa5;" 
d="M1118 1434h223l-571 -713h315l-22 -133h-358l-19 -113h356l-22 -135h-358l-60 -340h-190l59 340h-352l22 135h355l20 113h-354l22 133h316l-322 713h199l266 -600z" />
    <glyph glyph-name="brokenbar" unicode="&#xa6;" horiz-adv-x="485" 
d="M369 717h-179l134 758h178zM170 -410h-178l133 758h178z" />
    <glyph glyph-name="section" unicode="&#xa7;" horiz-adv-x="1075" 
d="M631 956l110 -51q300 -136 260 -370q-27 -151 -178 -246q72 -93 51 -221q-26 -139 -138 -218t-283 -79q-312 0 -414 268l160 86q59 -191 270 -191q93 0 154 38t73 106q16 91 -82 149q-66 43 -90 54q-14 7 -54 24.5t-60 26.5q-294 129 -254 368q27 156 186 246
q-64 94 -43 217q25 136 134 216.5t265 80.5q129 0 226 -66t141 -184l-154 -80q-65 164 -227 164q-81 0 -139 -38t-70 -105q-12 -82 72 -143q58 -38 84 -52zM821 541q12 71 -34 122t-152 95q-113 46 -182 90q-104 -60 -119 -158q-12 -71 32 -121t144 -90q149 -61 197 -92
q99 58 114 154z" />
    <glyph glyph-name="dieresis" unicode="&#xa8;" horiz-adv-x="671" 
d="M176 1268q6 44 43 75t82 31q44 0 70 -31t20 -75q-11 -45 -47 -77t-80 -32t-70 32.5t-18 76.5zM565 1268q6 44 43 75t82 31q44 0 70 -31t20 -75q-11 -45 -47 -77t-80 -32t-70 32.5t-18 76.5z" />
    <glyph glyph-name="copyright" unicode="&#xa9;" horiz-adv-x="1636" 
d="M729 -25q-304 0 -485 224q-182 226 -127 530q52 305 303 518q248 211 561 211q305 0 485 -223q181 -225 129 -530q-55 -307 -305 -519q-248 -211 -561 -211zM737 37q282 0 512 196q229 198 279 484q49 281 -115 481q-163 199 -440 199q-282 0 -512 -199
q-229 -195 -279 -481q-53 -279 113 -481q163 -199 442 -199zM791 322q-164 0 -263 120q-94 122 -67 289q27 164 157 273q129 108 300 108q103 0 188.5 -52.5t128.5 -141.5l-145 -74q-62 108 -195 108q-106 0 -178 -69q-75 -72 -90 -166q-19 -95 33 -165.5t149 -70.5
q68 0 128.5 31t96.5 86l133 -84q-66 -91 -165 -141.5t-211 -50.5z" />
    <glyph glyph-name="guillemotleft" unicode="&#xab;" horiz-adv-x="1050" 
d="M446 1008h203l-293 -385l154 -363h-193l-157 373zM797 1008h202l-294 -387l153 -361h-192l-158 371z" />
    <glyph glyph-name="logicalnot" unicode="&#xac;" horiz-adv-x="1085" 
d="M164 803h860l-72 -410h-178l41 240h-682z" />
    <glyph glyph-name="registered" unicode="&#xae;" horiz-adv-x="1636" 
d="M981 1458q305 0 485 -223q181 -225 129 -530q-55 -307 -305 -519q-248 -211 -561 -211q-304 0 -485 224q-182 226 -127 530q52 305 303 518q248 211 561 211zM1528 717q49 281 -115 481q-163 199 -440 199q-282 0 -512 -199q-229 -195 -279 -481q-53 -279 113 -481
q163 -199 442 -199q282 0 512 196q229 198 279 484zM678 1096h264q125 0 191 -76t47 -184q-27 -160 -168 -215l106 -283h-164l-88 256h-14h-104l-46 -256h-157zM1022 842q9 54 -17.5 80t-89.5 26h-106l-37 -211h107q122 0 143 105z" />
    <glyph glyph-name="overscore" unicode="&#xaf;" horiz-adv-x="634" 
d="M711 1178h-553l26 149h553z" />
    <glyph glyph-name="degree" unicode="&#xb0;" horiz-adv-x="800" 
d="M492 1024q-135 0 -213 96q-76 94 -54 230q21 133 129 221q107 88 248 88q135 0 213 -96q77 -95 55 -230q-25 -137 -128 -223t-250 -86zM709 1341q12 70 -25.5 117t-108.5 47t-123.5 -47t-64.5 -117q-12 -73 23 -118t108 -45t126.5 46.5t64.5 116.5z" />
    <glyph glyph-name="plusminus" unicode="&#xb1;" horiz-adv-x="1118" 
d="M778 1276l-57 -324h356l-30 -170h-355l-57 -321h-170l57 321h-356l31 170h354l57 324h170zM936 160h-881l31 170h881z" />
    <glyph glyph-name="acute" unicode="&#xb4;" horiz-adv-x="458" 
d="M156 1163l204 271h220l-248 -271h-176z" />
    <glyph glyph-name="uni00B5" unicode="&#xb5;" horiz-adv-x="1249" 
d="M1133 1024l-138 -782q-12 -72 60 -72h78l-31 -170h-105q-68 0 -117.5 34t-62.5 91q-134 -152 -342 -152q-151 0 -239 97l-84 -480h-179l252 1434h178l-110 -629q-17 -123 36.5 -187.5t174.5 -64.5q136 0 231 86t123 252v-2l96 545h179z" />
    <glyph glyph-name="paragraph" unicode="&#xb6;" horiz-adv-x="1249" 
d="M653 1434h670l-27 -162h-125l-294 -1682h-170l294 1682h-206l-295 -1682h-170l176 1004q-173 3 -275 129q-96 125 -69 303q34 175 174 291q141 117 317 117z" />
    <glyph glyph-name="middot" unicode="&#xb7;" horiz-adv-x="497" 
d="M260 582q-55 0 -87 39.5t-21 95.5q11 58 53.5 94.5t101.5 36.5q56 0 88.5 -40t22.5 -95q-11 -58 -54 -94.5t-104 -36.5z" />
    <glyph glyph-name="cedilla" unicode="&#xb8;" horiz-adv-x="512" 
d="M207 0l-17 -92q75 -18 115.5 -66t28.5 -110q-34 -204 -461 -174l25 135q269 -21 284 63q6 36 -36 55t-121 19l28 170h154z" />
    <glyph glyph-name="guillemotright" unicode="&#xbb;" horiz-adv-x="1052" 
d="M236 1006h192l158 -371l-289 -377h-203l295 387zM584 1006h192l158 -373l-287 -375h-203l293 385z" />
    <glyph glyph-name="onequarter" unicode="&#xbc;" horiz-adv-x="1677" 
d="M252 614l115 643l-189 -53l-16 144l258 86h135l-145 -820h-158zM164 0l1061 1434h153l-1061 -1434h-153zM1503 291h96l-24 -146h-98l-25 -145h-156l27 145h-410l25 146l383 528h176l-377 -528h228l32 180h154z" />
    <glyph glyph-name="onehalf" unicode="&#xbd;" horiz-adv-x="1656" 
d="M252 614l115 643l-189 -53l-16 144l258 86h135l-145 -820h-158zM164 0l1061 1434h153l-1061 -1434h-153zM1595 578q-18 -113 -178 -246l-227 -185h342l-27 -147h-585l20 117l385 321q104 84 113 148q10 49 -19 79.5t-86 30.5q-97 0 -174 -123l-127 78q51 91 137.5 143
t186.5 52q123 0 191 -75.5t48 -192.5z" />
    <glyph glyph-name="threequarters" unicode="&#xbe;" horiz-adv-x="1875" 
d="M705 844q-20 -120 -114 -188t-235 -68q-204 0 -272 176l139 72q37 -101 156 -101q147 0 168 121q11 56 -23.5 89.5t-103.5 33.5h-19l-51 102l199 205h-344l26 148h539l-22 -136l-203 -208q86 -25 129.5 -91.5t30.5 -154.5zM362 0l1061 1434h154l-1061 -1434h-154z
M1702 291h96l-24 -146h-99l-24 -145h-156l27 145h-410l25 146l383 528h176l-377 -528h227l33 180h154z" />
    <glyph glyph-name="questiondown" unicode="&#xbf;" horiz-adv-x="1101" 
d="M682 1047q55 0 87.5 -40t21.5 -96q-11 -58 -54 -94.5t-102 -36.5q-56 0 -88.5 40t-22.5 95q11 58 54 95t104 37zM510 604h188q-17 -90 -67 -169t-119 -136q-17 -14 -61.5 -50t-66.5 -54t-57.5 -52t-54.5 -59t-37 -58.5t-24 -66.5q-18 -101 40 -156t171 -55q213 0 315 205
l158 -96q-72 -140 -206.5 -216.5t-295.5 -76.5q-178 0 -291 110q-116 110 -82 291q13 81 63.5 156t119.5 131q16 13 54.5 43t58 46t52 44.5t51 50t40 50t33.5 58t18 60.5z" />
    <glyph glyph-name="Agrave" unicode="&#xc0;" horiz-adv-x="1316" 
d="M829 1843l123 -270h-172l-162 270h211zM1210 0h-200l-58 322h-645l-176 -322h-207l789 1434h215zM791 1210l-388 -710h517z" />
    <glyph glyph-name="Aacute" unicode="&#xc1;" horiz-adv-x="1316" 
d="M928 1843h219l-248 -270h-176zM1210 0h-200l-58 322h-645l-176 -322h-207l789 1434h215zM791 1210l-388 -710h517z" />
    <glyph glyph-name="Acircumflex" unicode="&#xc2;" horiz-adv-x="1316" 
d="M973 1567l-96 166l-156 -166h-195l265 276h196l170 -276h-184zM1210 0h-200l-58 322h-645l-176 -322h-207l789 1434h215zM791 1210l-388 -710h517z" />
    <glyph glyph-name="Atilde" unicode="&#xc3;" horiz-adv-x="1316" 
d="M848 1632q-62 65 -101.5 56t-56.5 -105h-151q14 99 52 162.5t88 84t105.5 9t106.5 -52.5q62 -65 100.5 -56.5t55.5 103.5h151q-13 -97 -51.5 -161t-88.5 -85.5t-105.5 -10t-104.5 55.5zM1210 0h-200l-58 322h-645l-176 -322h-207l789 1434h215zM791 1210l-388 -710h517z
" />
    <glyph glyph-name="Adieresis" unicode="&#xc4;" horiz-adv-x="1316" 
d="M561 1677q6 44 43 75.5t82 31.5q44 0 70 -31.5t20 -75.5q-11 -45 -47 -76.5t-80 -31.5t-70 32t-18 76zM950 1677q6 44 43 75.5t82 31.5q44 0 70 -31.5t20 -75.5q-11 -45 -47 -76.5t-80 -31.5t-70 32t-18 76zM1210 0h-200l-58 322h-645l-176 -322h-207l789 1434h215z
M791 1210l-388 -710h517z" />
    <glyph glyph-name="Aring" unicode="&#xc5;" horiz-adv-x="1316" 
d="M1210 0h-200l-58 322h-645l-176 -322h-207l760 1380q-93 65 -72 189q17 93 90 152t172 59q102 0 157.5 -66t41.5 -160q-18 -121 -133 -180zM745 1563q-6 -42 15.5 -68.5t64.5 -26.5q44 0 76.5 27t38.5 66q7 42 -15 68t-65 26q-94 0 -115 -92zM791 1210l-388 -710h517z
" />
    <glyph glyph-name="AE" unicode="&#xc6;" horiz-adv-x="1802" 
d="M1878 1434l-31 -181h-608l-78 -440h572l-33 -178h-572l-79 -455h618l-31 -180h-805l58 322h-508l-252 -322h-219l1120 1434h848zM1034 1157l-514 -657h400z" />
    <glyph glyph-name="Ccedilla" unicode="&#xc7;" horiz-adv-x="1515" 
d="M754 160q154 0 285 69.5t218 194.5l158 -100q-107 -149 -266 -241.5t-340 -105.5l-12 -69q75 -18 115 -66t28 -110q-34 -204 -461 -174l25 135q269 -21 284 63q6 36 -36 55t-121 19l24 147q-290 30 -440 248q-151 218 -98 512q53 311 295 516q245 207 549 207
q207 0 358 -93t225 -259l-170 -90q-120 258 -424 258q-243 0 -426 -160q-180 -158 -221 -399q-41 -245 84 -400q127 -157 367 -157z" />
    <glyph glyph-name="Egrave" unicode="&#xc8;" horiz-adv-x="1085" 
d="M750 1843l122 -270h-172l-161 270h211zM1161 1434l-31 -181h-655l-78 -440h604l-32 -178h-604l-80 -455h665l-30 -180h-857l252 1434h846z" />
    <glyph glyph-name="Eacute" unicode="&#xc9;" horiz-adv-x="1085" 
d="M848 1843h219l-248 -270h-176zM1161 1434l-31 -181h-655l-78 -440h604l-32 -178h-604l-80 -455h665l-30 -180h-857l252 1434h846z" />
    <glyph glyph-name="Ecircumflex" unicode="&#xca;" horiz-adv-x="1085" 
d="M893 1567l-96 166l-156 -166h-195l265 276h196l170 -276h-184zM1161 1434l-31 -181h-655l-78 -440h604l-32 -178h-604l-80 -455h665l-30 -180h-857l252 1434h846z" />
    <glyph glyph-name="Edieresis" unicode="&#xcb;" horiz-adv-x="1085" 
d="M481 1677q6 44 43 75.5t82 31.5q44 0 70 -31.5t20 -75.5q-11 -45 -47 -76.5t-80 -31.5t-70 32t-18 76zM870 1677q6 44 43 75.5t82 31.5q44 0 70 -31.5t20 -75.5q-11 -45 -47 -76.5t-80 -31.5t-70 32t-18 76zM1161 1434l-31 -181h-655l-78 -440h604l-32 -178h-604
l-80 -455h665l-30 -180h-857l252 1434h846z" />
    <glyph glyph-name="Igrave" unicode="&#xcc;" horiz-adv-x="497" 
d="M543 1573h-172l-162 270h211zM315 1434l-252 -1434h191l252 1434h-191z" />
    <glyph glyph-name="Iacute" unicode="&#xcd;" horiz-adv-x="497" 
d="M313 1573l205 270h219l-248 -270h-176zM315 1434l-252 -1434h191l252 1434h-191z" />
    <glyph glyph-name="Icircumflex" unicode="&#xce;" horiz-adv-x="497" 
d="M381 1843h197l170 -276h-185l-96 166l-156 -166h-194zM254 0h-191l252 1434h191z" />
    <glyph glyph-name="Idieresis" unicode="&#xcf;" horiz-adv-x="497" 
d="M152 1677q6 44 43 75.5t81 31.5t70.5 -31.5t20.5 -75.5q-11 -45 -47 -76.5t-80 -31.5t-70 32t-18 76zM541 1677q6 44 43 75.5t82 31.5q44 0 70 -31.5t20 -75.5q-11 -45 -47 -76.5t-80 -31.5t-70 32t-18 76zM63 0l252 1434h191l-252 -1434h-191z" />
    <glyph glyph-name="Eth" unicode="&#xd0;" horiz-adv-x="1525" 
d="M367 1434h559q279 0 444 -220q163 -217 111 -518q-52 -298 -279 -499q-226 -197 -528 -197h-559l110 627h-147l28 172h150zM1298 719q41 232 -73 381q-111 153 -330 153h-369l-80 -454h408l-29 -172h-409l-80 -447h364q222 0 390 154t208 385z" />
    <glyph glyph-name="Ntilde" unicode="&#xd1;" horiz-adv-x="1388" 
d="M727 1583h-152q14 99 52.5 162.5t88.5 84t105.5 9t106.5 -52.5q62 -65 100 -56.5t55 103.5h152q-13 -97 -51.5 -161t-88.5 -85.5t-105.5 -10t-104.5 55.5q-62 65 -101.5 56t-56.5 -105zM254 0h-191l252 1434h146l559 -1076l186 1076h191l-252 -1434h-146l-557 1075z" />
    <glyph glyph-name="Ograve" unicode="&#xd2;" horiz-adv-x="1644" 
d="M1192 1579h-172l-162 270h211zM733 -27q322 0 567 201q243 203 299 514q52 310 -129 541q-182 231 -491 231q-320 0 -565 -207t-297 -516q-58 -306 125 -536q182 -228 491 -228zM760 160q-238 0 -367 159q-128 163 -88 398q41 241 221 399q183 160 422 160t371 -166
q131 -162 90 -401q-41 -238 -225 -394q-180 -155 -424 -155z" />
    <glyph glyph-name="Oacute" unicode="&#xd3;" horiz-adv-x="1644" 
d="M969 1579l205 270h219l-248 -270h-176zM733 -27q322 0 567 201q243 203 299 514q52 310 -129 541q-182 231 -491 231q-320 0 -565 -207t-297 -516q-58 -306 125 -536q182 -228 491 -228zM760 160q-238 0 -367 159q-128 163 -88 398q41 241 221 399q183 160 422 160
t371 -166q131 -162 90 -401q-41 -238 -225 -394q-180 -155 -424 -155z" />
    <glyph glyph-name="Ocircumflex" unicode="&#xd4;" horiz-adv-x="1644" 
d="M1196 1573l-96 166l-156 -166h-194l264 276h196l170 -276h-184zM979 1460q309 0 491 -231q181 -231 129 -541q-56 -311 -299 -514q-245 -201 -567 -201q-309 0 -491 228q-183 230 -125 536q52 309 297 516t565 207zM305 717q-40 -235 88 -398q129 -159 367 -159
q244 0 424 155q184 156 225 394q41 239 -90 401q-132 166 -371 166t-422 -160q-180 -158 -221 -399z" />
    <glyph glyph-name="Otilde" unicode="&#xd5;" horiz-adv-x="1644" 
d="M899 1589h-151q14 99 52 162.5t88 84t105.5 9t106.5 -52.5q62 -65 100 -56.5t55 103.5h152q-13 -97 -51.5 -161t-88.5 -85.5t-105.5 -10t-104.5 55.5q-62 65 -101.5 56t-56.5 -105zM733 -27q-309 0 -491 228q-183 230 -125 536q52 309 297 516t565 207q309 0 491 -231
q181 -231 129 -541q-56 -311 -299 -514q-245 -201 -567 -201zM760 160q244 0 424 155q184 156 225 394q41 239 -90 401q-132 166 -371 166t-422 -160q-180 -158 -221 -399q-40 -235 88 -398q129 -159 367 -159z" />
    <glyph glyph-name="Odieresis" unicode="&#xd6;" horiz-adv-x="1644" 
d="M725 1683q6 44 43 75.5t82 31.5q44 0 70 -31.5t20 -75.5q-11 -45 -47 -76.5t-80 -31.5t-70 32t-18 76zM1114 1683q6 44 43 75.5t82 31.5q44 0 70 -31.5t20 -75.5q-11 -45 -47 -76.5t-80 -31.5t-70 32t-18 76zM733 -27q-309 0 -491 228q-183 230 -125 536q52 309 297 516
t565 207q309 0 491 -231q181 -231 129 -541q-56 -311 -299 -514q-245 -201 -567 -201zM760 160q244 0 424 155q184 156 225 394q41 239 -90 401q-132 166 -371 166t-422 -160q-180 -158 -221 -399q-40 -235 88 -398q129 -159 367 -159z" />
    <glyph glyph-name="multiply" unicode="&#xd7;" horiz-adv-x="993" 
d="M864 1108l111 -115l-326 -280l230 -273l-131 -114l-230 274l-317 -274l-111 114l326 281l-228 272l129 115l230 -272z" />
    <glyph glyph-name="Oslash" unicode="&#xd8;" horiz-adv-x="1662" 
d="M1618 1372l-135 -133q191 -234 135 -551q-59 -314 -299 -514q-245 -201 -567 -201q-232 0 -404 140l-123 -121l-106 67l141 142q-182 226 -127 536q56 314 297 518q242 205 567 205q229 0 398 -135l116 117zM324 717q-41 -221 75 -379l856 850q-119 88 -288 88
q-239 0 -422 -160q-180 -158 -221 -399zM1427 709q40 228 -81 393l-861 -852q122 -90 293 -90q244 0 424 155q184 156 225 394z" />
    <glyph glyph-name="Ugrave" unicode="&#xd9;" horiz-adv-x="1341" 
d="M965 1573h-172l-162 270h211zM600 -27q232 0 397 133q163 135 207 375l166 953h-188l-166 -945q-27 -151 -135 -240t-275 -89q-165 0 -239.5 88.5t-47.5 240.5l166 945h-190l-166 -953q-40 -225 92 -366q133 -142 379 -142z" />
    <glyph glyph-name="Uacute" unicode="&#xda;" horiz-adv-x="1341" 
d="M772 1573l205 270h219l-248 -270h-176zM600 -27q232 0 397 133q163 135 207 375l166 953h-188l-166 -945q-27 -151 -135 -240t-275 -89q-165 0 -239.5 88.5t-47.5 240.5l166 945h-190l-166 -953q-40 -225 92 -366q133 -142 379 -142z" />
    <glyph glyph-name="Ucircumflex" unicode="&#xdb;" horiz-adv-x="1341" 
d="M985 1567l-96 166l-156 -166h-194l264 276h196l170 -276h-184zM1016 489l166 945h188l-166 -953q-44 -240 -207 -375q-165 -133 -397 -133q-246 0 -379 142q-132 141 -92 366l166 953h190l-166 -945q-27 -152 47.5 -240.5t239.5 -88.5q167 0 275 89t135 240z" />
    <glyph glyph-name="Udieresis" unicode="&#xdc;" horiz-adv-x="1341" 
d="M573 1677q6 44 43 75.5t82 31.5q44 0 70 -31.5t20 -75.5q-11 -45 -46.5 -76.5t-79.5 -31.5t-70.5 32t-18.5 76zM963 1677q6 44 43 75.5t81 31.5t70.5 -31.5t20.5 -75.5q-11 -45 -47 -76.5t-80 -31.5t-70 32t-18 76zM600 -27q-246 0 -379 142q-132 141 -92 366l166 953
h190l-166 -945q-27 -152 47.5 -240.5t239.5 -88.5q167 0 275 89t135 240l166 945h188l-166 -953q-44 -240 -207 -375q-165 -133 -397 -133z" />
    <glyph glyph-name="Yacute" unicode="&#xdd;" 
d="M868 1843h219l-247 -270h-176zM1118 1434h223l-624 -779l-115 -655h-190l116 659l-350 775h199l266 -600z" />
    <glyph glyph-name="Thorn" unicode="&#xde;" horiz-adv-x="1208" 
d="M461 1178h317q206 0 316 -134q110 -131 80 -331q-34 -199 -187 -328q-150 -129 -389 -129h-299l-45 -256h-191l252 1434h191zM987 733q20 123 -42 194.5t-191 71.5h-324l-100 -565h288q147 0 246 83t123 216z" />
    <glyph glyph-name="germandbls" unicode="&#xdf;" horiz-adv-x="1071" 
d="M494 -8l28 160q263 -18 297 153q10 56 -18 125t-76 129q-114 149 -96 246q9 60 110 158q101 101 113 167q13 74 -35 118t-137 44q-98 0 -173 -61.5t-97 -183.5l-187 -1047h-178l186 1055q35 195 160 300t314 105q164 0 260 -96q93 -93 65 -234q-10 -53 -43 -107t-74 -93
q-95 -86 -102 -135q-13 -65 96 -215q45 -61 71 -144t13 -160q-25 -153 -150.5 -227.5t-346.5 -56.5z" />
    <glyph glyph-name="agrave" unicode="&#xe0;" horiz-adv-x="1298" 
d="M813 1434l123 -271h-172l-162 271h211zM1042 834l33 190h178l-180 -1024h-178l27 145q-159 -172 -410 -172q-221 0 -346 168t-84 394q40 236 207 374q168 142 375 142q128 0 226 -56.5t152 -160.5zM983 504q34 172 -61 274q-91 101 -246 101q-143 0 -266 -97
q-124 -97 -150 -262q-28 -159 57 -266q89 -109 244 -109q156 0 275 101q120 102 147 258z" />
    <glyph glyph-name="aacute" unicode="&#xe1;" horiz-adv-x="1298" 
d="M903 1434h219l-248 -271h-176zM1042 834l33 190h178l-180 -1024h-178l27 145q-159 -172 -410 -172q-221 0 -346 168t-84 394q40 236 207 374q168 142 375 142q128 0 226 -56.5t152 -160.5zM983 504q34 172 -61 274q-91 101 -246 101q-143 0 -266 -97q-124 -97 -150 -262
q-28 -159 57 -266q89 -109 244 -109q156 0 275 101q120 102 147 258z" />
    <glyph glyph-name="acircumflex" unicode="&#xe2;" horiz-adv-x="1298" 
d="M950 1157l-96 166l-156 -166h-194l264 277h197l170 -277h-185zM1042 834l33 190h178l-180 -1024h-178l27 145q-159 -172 -410 -172q-221 0 -346 168t-84 394q40 236 207 374q168 142 375 142q128 0 226 -56.5t152 -160.5zM983 504q34 172 -61 274q-91 101 -246 101
q-143 0 -266 -97q-124 -97 -150 -262q-28 -159 57 -266q89 -109 244 -109q156 0 275 101q120 102 147 258z" />
    <glyph glyph-name="atilde" unicode="&#xe3;" horiz-adv-x="1298" 
d="M809 1223q-62 65 -101.5 56t-56.5 -105h-151q14 99 52 162.5t88 83.5t105.5 8.5t106.5 -52.5q62 -65 100.5 -56.5t55.5 103.5h151q-13 -97 -51.5 -161t-88.5 -85t-105.5 -9.5t-104.5 55.5zM1042 834l33 190h178l-180 -1024h-178l27 145q-159 -172 -410 -172
q-221 0 -346 168t-84 394q40 236 207 374q168 142 375 142q128 0 226 -56.5t152 -160.5zM983 504q34 172 -61 274q-91 101 -246 101q-143 0 -266 -97q-124 -97 -150 -262q-28 -159 57 -266q89 -109 244 -109q156 0 275 101q120 102 147 258z" />
    <glyph glyph-name="adieresis" unicode="&#xe4;" horiz-adv-x="1298" 
d="M451 1268q6 44 42.5 75t81.5 31q44 0 70.5 -31t20.5 -75q-11 -45 -47 -77t-80 -32t-70 32.5t-18 76.5zM840 1268q6 44 43 75t82 31q44 0 70 -31t20 -75q-11 -45 -47 -77t-80 -32t-70 32.5t-18 76.5zM1042 834l33 190h178l-180 -1024h-178l27 145q-159 -172 -410 -172
q-221 0 -346 168t-84 394q40 236 207 374q168 142 375 142q128 0 226 -56.5t152 -160.5zM983 504q34 172 -61 274q-91 101 -246 101q-143 0 -266 -97q-124 -97 -150 -262q-28 -159 57 -266q89 -109 244 -109q156 0 275 101q120 102 147 258z" />
    <glyph glyph-name="aring" unicode="&#xe5;" horiz-adv-x="1298" 
d="M535 1343q17 93 90 152t172 59q102 0 157 -65.5t41 -159.5q-17 -93 -89.5 -152t-174.5 -59t-157.5 65t-38.5 160zM668 1337q-6 -42 15 -68t65 -26t76 26.5t38 65.5q7 43 -15 69t-65 26q-93 0 -114 -93zM1042 834l33 190h178l-180 -1024h-178l27 145q-159 -172 -410 -172
q-221 0 -346 168t-84 394q40 236 207 374q168 142 375 142q128 0 226 -56.5t152 -160.5zM983 504q34 172 -61 274q-91 101 -246 101q-143 0 -266 -97q-124 -97 -150 -262q-28 -159 57 -266q89 -109 244 -109q156 0 275 101q120 102 147 258z" />
    <glyph glyph-name="ae" unicode="&#xe6;" horiz-adv-x="2101" 
d="M1630 1051q215 0 328 -162q115 -160 74 -379q-6 -32 -21 -80h-856q-1 -138 81.5 -213.5t225.5 -75.5q208 0 330 152l135 -96q-187 -224 -465 -224q-259 0 -362 201l-31 -174h-174l27 154q-159 -181 -410 -181q-221 0 -346 168t-84 394q40 236 207 374q168 142 375 142
q130 0 228.5 -55.5t149.5 -159.5l33 188h174l-26 -154q159 181 407 181zM1184 588h680q4 140 -71.5 217.5t-205.5 77.5q-141 0 -248 -79.5t-155 -215.5zM983 504q34 172 -61 274q-91 101 -246 101q-143 0 -266 -97t-152 -262q-27 -157 59 -266q89 -109 244 -109
q156 0 275 101q120 102 147 258z" />
    <glyph glyph-name="ccedilla" unicode="&#xe7;" horiz-adv-x="1124" 
d="M555 150q103 0 190.5 48t143.5 134l143 -94q-69 -113 -185 -182t-255 -81l-12 -67q75 -18 115 -66t28 -110q-34 -204 -461 -174l25 135q269 -21 284 63q6 36 -36 55t-121 19l24 152q-190 35 -291 190q-100 153 -65 363q41 229 213 370q178 146 403 146q153 0 266 -72
t158 -195l-157 -82q-67 175 -281 175q-155 0 -276 -103t-148 -254q-27 -157 55 -264q81 -106 240 -106z" />
    <glyph glyph-name="egrave" unicode="&#xe8;" 
d="M719 1436l123 -271h-172l-162 271h211zM690 1051q230 0 354 -160q126 -156 82 -381q-2 -25 -20 -80h-856q0 -135 84.5 -212t226.5 -77q204 0 326 152l133 -96q-78 -105 -205 -164.5t-274 -59.5q-243 0 -371 162t-88 397q41 226 211 371q174 148 397 148zM276 588h682
q6 143 -69.5 219t-208.5 76q-143 0 -251.5 -79.5t-152.5 -215.5z" />
    <glyph glyph-name="eacute" unicode="&#xe9;" 
d="M852 1436h219l-248 -271h-176zM690 1051q230 0 354 -160q126 -156 82 -381q-2 -25 -20 -80h-856q0 -135 84.5 -212t226.5 -77q204 0 326 152l133 -96q-78 -105 -205 -164.5t-274 -59.5q-243 0 -371 162t-88 397q41 226 211 371q174 148 397 148zM276 588h682
q6 143 -69.5 219t-208.5 76q-143 0 -251.5 -79.5t-152.5 -215.5z" />
    <glyph glyph-name="ecircumflex" unicode="&#xea;" 
d="M885 1159l-97 166l-155 -166h-195l264 277h197l170 -277h-184zM690 1051q230 0 354 -160q126 -156 82 -381q-2 -25 -20 -80h-856q0 -135 84.5 -212t226.5 -77q204 0 326 152l133 -96q-78 -105 -205 -164.5t-274 -59.5q-243 0 -371 162t-88 397q41 226 211 371
q174 148 397 148zM276 588h682q6 143 -69.5 219t-208.5 76q-143 0 -251.5 -79.5t-152.5 -215.5z" />
    <glyph glyph-name="edieresis" unicode="&#xeb;" 
d="M451 1270q6 44 42.5 75t81.5 31q44 0 70.5 -31t20.5 -75q-11 -45 -47 -77t-80 -32t-70 32.5t-18 76.5zM840 1270q6 44 43 75t82 31q44 0 70 -31t20 -75q-11 -45 -47 -77t-80 -32t-70 32.5t-18 76.5zM690 1051q230 0 354 -160q126 -156 82 -381q-2 -25 -20 -80h-856
q0 -135 84.5 -212t226.5 -77q204 0 326 152l133 -96q-78 -105 -205 -164.5t-274 -59.5q-243 0 -371 162t-88 397q41 226 211 371q174 148 397 148zM276 588h682q6 143 -69.5 219t-208.5 76q-143 0 -251.5 -79.5t-152.5 -215.5z" />
    <glyph glyph-name="igrave" unicode="&#xec;" horiz-adv-x="450" 
d="M449 1157h-170l-91 277h205zM223 0l180 1024h-178l-180 -1024h178z" />
    <glyph glyph-name="iacute" unicode="&#xed;" horiz-adv-x="450" 
d="M221 1157l144 277h210l-182 -277h-172zM45 0h178l180 1024h-178z" />
    <glyph glyph-name="icircumflex" unicode="&#xee;" horiz-adv-x="450" 
d="M289 1434h196l133 -277h-186l-67 143l-113 -143h-191zM223 0h-178l180 1024h178z" />
    <glyph glyph-name="idieresis" unicode="&#xef;" horiz-adv-x="450" 
d="M268 1194q-37 -31 -82 -31t-71 31q-25 31 -17 76t45 76q37 32 82 32t70 -32q26 -31 18 -76t-45 -76zM403 1270q6 44 43.5 76t81.5 32t70.5 -32t19.5 -76q-11 -45 -46.5 -76t-79.5 -31t-70 31.5t-19 75.5zM223 0h-178l180 1024h178z" />
    <glyph glyph-name="eth" unicode="&#xf0;" horiz-adv-x="1193" 
d="M776 1225l268 -463q37 -64 54.5 -153t5.5 -167q-41 -222 -203 -344q-159 -123 -379 -123q-98 0 -188.5 40t-155.5 107.5t-95 167.5t-9 210q38 213 202 331q168 122 375 107q59 -4 105 -16l-127 227l-281 -143l25 145l196 102l-100 181h186l62 -107l258 133l-25 -147z
M926 457q21 120 -25 202q-77 129 -268 129q-150 0 -253 -80.5t-128 -220.5q-27 -150 59 -245q91 -97 236 -97q144 0 248.5 83t130.5 229z" />
    <glyph glyph-name="ntilde" unicode="&#xf1;" horiz-adv-x="1155" 
d="M690 1229q-62 65 -101.5 56t-56.5 -105h-151q14 99 52 162.5t88 83.5t105.5 8.5t106.5 -52.5q62 -65 100.5 -56t55.5 104h151q-13 -97 -51.5 -161t-88.5 -85.5t-105.5 -10t-104.5 55.5zM729 1051q180 0 272 -115q96 -116 62 -307l-111 -629h-178l109 618
q23 127 -30.5 195t-176.5 68q-136 0 -232.5 -86t-124.5 -252v2l-96 -545h-178l180 1024h178l-24 -135q131 162 350 162z" />
    <glyph glyph-name="ograve" unicode="&#xf2;" horiz-adv-x="1234" 
d="M870 1169h-172l-161 271h211zM539 -27q217 0 397 142q179 141 219 383q41 238 -92 395q-134 158 -352 158q-223 0 -406 -142q-181 -141 -225 -379q-44 -243 94 -399q140 -158 365 -158zM553 147q-144 -3 -236 95q-86 96 -59 270q35 173 156 266q125 96 268 99
q148 0 236 -99q88 -94 61 -262q-27 -170 -154 -270q-123 -99 -272 -99z" />
    <glyph glyph-name="oacute" unicode="&#xf3;" horiz-adv-x="1234" 
d="M651 1169l205 271h219l-248 -271h-176zM539 -27q217 0 397 142q179 141 219 383q41 238 -92 395q-134 158 -352 158q-223 0 -406 -142q-181 -141 -225 -379q-44 -243 94 -399q140 -158 365 -158zM553 147q-144 -3 -236 95q-86 96 -59 270q35 173 156 266q125 96 268 99
q148 0 236 -99q88 -94 61 -262q-27 -170 -154 -270q-123 -99 -272 -99z" />
    <glyph glyph-name="ocircumflex" unicode="&#xf4;" horiz-adv-x="1234" 
d="M885 1163l-97 166l-155 -166h-195l264 277h197l170 -277h-184zM711 1051q218 0 352 -158q133 -157 92 -395q-40 -242 -219 -383q-180 -142 -397 -142q-225 0 -365 158q-138 156 -94 399q44 238 225 379q183 142 406 142zM979 516q27 168 -61 262q-88 99 -236 99
q-143 -3 -268 -99q-121 -93 -156 -266q-27 -174 59 -270q92 -98 236 -95q149 0 272 99q127 100 154 270z" />
    <glyph glyph-name="otilde" unicode="&#xf5;" horiz-adv-x="1234" 
d="M590 1180h-152q14 99 52.5 162.5t88.5 83.5t105.5 8.5t106.5 -52.5q62 -65 100 -56t55 104h152q-13 -97 -51.5 -161t-88.5 -85.5t-105.5 -10t-104.5 55.5q-62 65 -101.5 56t-56.5 -105zM539 -27q-225 0 -365 158q-138 156 -94 399q44 238 225 379q183 142 406 142
q218 0 352 -158q133 -157 92 -395q-40 -242 -219 -383q-180 -142 -397 -142zM553 147q149 0 272 99q127 100 154 270q27 168 -61 262q-88 99 -236 99q-143 -3 -268 -99q-121 -93 -156 -266q-27 -174 59 -270q92 -98 236 -95z" />
    <glyph glyph-name="odieresis" unicode="&#xf6;" horiz-adv-x="1234" 
d="M451 1274q6 44 42.5 75t81.5 31q44 0 70.5 -31t20.5 -75q-11 -45 -47 -77t-80 -32t-70 32.5t-18 76.5zM840 1274q6 44 43 75t82 31q44 0 70 -31t20 -75q-11 -45 -47 -77t-80 -32t-70 32.5t-18 76.5zM539 -27q-225 0 -365 158q-138 156 -94 399q44 238 225 379
q183 142 406 142q218 0 352 -158q133 -157 92 -395q-40 -242 -219 -383q-180 -142 -397 -142zM553 147q149 0 272 99q127 100 154 270q27 168 -61 262q-88 99 -236 99q-143 -3 -268 -99q-121 -93 -156 -266q-27 -174 59 -270q92 -98 236 -95z" />
    <glyph glyph-name="divide" unicode="&#xf7;" horiz-adv-x="1177" 
d="M672 975q-54 0 -86.5 40t-22.5 95q3 40 32 71.5t67 44.5t78 6.5t63 -36.5q28 -29 25 -68.5t-21.5 -75t-56 -58.5t-78.5 -19zM1085 633h-952l31 170h952zM535 199q-54 0 -86.5 40t-22.5 95q7 55 51.5 90t102.5 35q54 0 85 -38.5t23 -94.5q-11 -56 -53.5 -91.5t-99.5 -35.5
z" />
    <glyph glyph-name="oslash" unicode="&#xf8;" horiz-adv-x="1234" 
d="M1094 1036l92 -55l-109 -104q119 -158 78 -379q-40 -242 -219 -383q-177 -142 -397 -142q-177 0 -303 99l-86 -84l-95 55l107 102q-123 156 -82 385q44 238 225 379q183 142 406 142q173 0 295 -101zM258 512q-25 -145 39 -238l573 549q-85 54 -188 54q-143 -3 -268 -99
q-121 -93 -156 -266zM979 516q21 138 -37 232l-573 -549q76 -52 184 -52q149 0 272 99q127 100 154 270z" />
    <glyph glyph-name="ugrave" unicode="&#xf9;" horiz-adv-x="1155" 
d="M657 1434l123 -271h-172l-162 271h211zM836 479l96 545h178l-180 -1024h-178l24 135q-131 -162 -350 -162q-179 0 -274 115q-94 117 -60 307l111 629h178l-109 -618q-23 -127 30.5 -195t176.5 -68q136 0 232.5 86t124.5 252v-2z" />
    <glyph glyph-name="uacute" unicode="&#xfa;" horiz-adv-x="1155" 
d="M791 1434h219l-248 -271h-176zM836 479l96 545h178l-180 -1024h-178l24 135q-131 -162 -350 -162q-179 0 -274 115q-94 117 -60 307l111 629h178l-109 -618q-23 -127 30.5 -195t176.5 -68q136 0 232.5 86t124.5 252v-2z" />
    <glyph glyph-name="ucircumflex" unicode="&#xfb;" horiz-adv-x="1155" 
d="M801 1157l-96 166l-156 -166h-195l264 277h197l170 -277h-184zM836 479l96 545h178l-180 -1024h-178l24 135q-131 -162 -350 -162q-179 0 -274 115q-94 117 -60 307l111 629h178l-109 -618q-23 -127 30.5 -195t176.5 -68q136 0 232.5 86t124.5 252v-2z" />
    <glyph glyph-name="udieresis" unicode="&#xfc;" horiz-adv-x="1155" 
d="M389 1268q6 44 43 75t82 31q44 0 70 -31t20 -75q-11 -45 -47 -77t-80 -32t-70 32.5t-18 76.5zM778 1268q6 44 43 75t82 31q44 0 70 -31t20 -75q-11 -45 -47 -77t-80 -32t-70 32.5t-18 76.5zM836 479l96 545h178l-180 -1024h-178l24 135q-131 -162 -350 -162
q-179 0 -274 115q-94 117 -60 307l111 629h178l-109 -618q-23 -127 30.5 -195t176.5 -68q136 0 232.5 86t124.5 252v-2z" />
    <glyph glyph-name="yacute" unicode="&#xfd;" horiz-adv-x="1054" 
d="M721 1434h219l-248 -271h-176zM489 215l443 809h198l-608 -1087q-205 -368 -516 -347l29 166q94 -7 164.5 42t138.5 163l31 49l-263 1014h181z" />
    <glyph glyph-name="thorn" unicode="&#xfe;" horiz-adv-x="1298" 
d="M786 1051q219 0 344 -168q129 -170 89 -391q-40 -236 -207 -377q-165 -142 -373 -142q-128 0 -229 58.5t-152 163.5l-106 -605h-179l324 1844h178l-98 -564q159 181 409 181zM1040 504q27 157 -59 266t-242 109q-157 0 -276 -101q-122 -103 -148 -256q-30 -174 62 -276
q94 -101 248 -101q145 0 266 95q122 96 149 264z" />
    <glyph glyph-name="ydieresis" unicode="&#xff;" horiz-adv-x="1054" 
d="M326 1268q6 44 43 75t82 31q44 0 70 -31t20 -75q-11 -45 -47 -77t-80 -32t-70 32.5t-18 76.5zM715 1268q6 44 43 75t82 31q44 0 70 -31t20 -75q-11 -45 -47 -77t-80 -32t-70 32.5t-18 76.5zM489 215l443 809h198l-608 -1087q-205 -368 -516 -347l29 166q94 -7 164.5 42
t138.5 163l31 49l-263 1014h181z" />
    <glyph glyph-name="Amacron" unicode="&#x100;" horiz-adv-x="1316" 
d="M596 1737h553l-27 -150h-553zM1210 0h-200l-58 322h-645l-176 -322h-207l789 1434h215zM791 1210l-388 -710h517z" />
    <glyph glyph-name="amacron" unicode="&#x101;" horiz-adv-x="1298" 
d="M485 1327h553l-26 -149h-553zM1042 834l33 190h178l-180 -1024h-178l27 145q-159 -172 -410 -172q-221 0 -346 168t-84 394q40 236 207 374q168 142 375 142q128 0 226 -56.5t152 -160.5zM983 504q34 172 -61 274q-91 101 -246 101q-143 0 -266 -97q-124 -97 -150 -262
q-28 -159 57 -266q89 -109 244 -109q156 0 275 101q120 102 147 258z" />
    <glyph glyph-name="Abreve" unicode="&#x102;" horiz-adv-x="1316" 
d="M846 1550q-139 0 -212 75t-50 202h166q-24 -133 114 -133q140 0 164 133h166q-23 -134 -112 -205.5t-236 -71.5zM1210 0h-200l-58 322h-645l-176 -322h-207l789 1434h215zM791 1210l-388 -710h517z" />
    <glyph glyph-name="abreve" unicode="&#x103;" horiz-adv-x="1298" 
d="M842 1141q-139 0 -212 74.5t-50 201.5h165q-24 -133 115 -133q140 0 164 133h166q-23 -134 -112 -205t-236 -71zM1042 834l33 190h178l-180 -1024h-178l27 145q-159 -172 -410 -172q-221 0 -346 168t-84 394q40 236 207 374q168 142 375 142q128 0 226 -56.5t152 -160.5z
M983 504q34 172 -61 274q-91 101 -246 101q-143 0 -266 -97q-124 -97 -150 -262q-28 -159 57 -266q89 -109 244 -109q156 0 275 101q120 102 147 258z" />
    <glyph glyph-name="Aogonek" unicode="&#x104;" horiz-adv-x="1316" 
d="M1030 -231q-12 -62 53 -62q37 0 78 12l-22 -127q-70 -28 -140 -28q-77 0 -120 51t-29 125q21 122 184 260h-24l-58 322h-645l-176 -322h-207l789 1434h215l282 -1434q-165 -133 -180 -231zM791 1210l-388 -710h517z" />
    <glyph glyph-name="aogonek" unicode="&#x105;" horiz-adv-x="1300" 
d="M1253 1024l-180 -1024q-167 -136 -182 -238q-6 -57 55 -57q35 0 78 16l-23 -131q-62 -26 -133 -26q-85 0 -127 48t-28 124q18 109 182 266l27 143q-159 -172 -410 -172q-221 0 -346 168t-84 394q40 236 207 374q168 142 375 142q128 0 226 -56.5t152 -160.5l33 190h178z
M983 504q34 172 -61 274q-91 101 -246 101q-143 0 -266 -97q-124 -97 -150 -262q-28 -159 57 -266q89 -109 244 -109q156 0 275 101q120 102 147 258z" />
    <glyph glyph-name="Cacute" unicode="&#x106;" horiz-adv-x="1515" 
d="M893 1579l205 270h219l-248 -270h-176zM737 -27q201 0 380.5 94t297.5 257l-158 100q-87 -125 -218 -194.5t-285 -69.5q-240 0 -367 157q-125 155 -84 400q41 241 221 399q183 160 426 160q304 0 424 -258l170 90q-74 166 -225 259t-358 93q-304 0 -549 -207
q-242 -205 -295 -516q-56 -314 119 -538q176 -226 501 -226z" />
    <glyph glyph-name="cacute" unicode="&#x107;" horiz-adv-x="1124" 
d="M582 1163l204 271h220l-248 -271h-176zM532 -27q158 0 290 70t210 195l-143 94q-56 -86 -143.5 -134t-190.5 -48q-159 0 -240 106q-82 107 -55 264q27 151 148 254t276 103q214 0 281 -175l157 82q-45 123 -158 195t-266 72q-225 0 -403 -146q-172 -141 -213 -370
q-41 -233 90 -398q132 -164 360 -164z" />
    <glyph glyph-name="Cdotaccent" unicode="&#x10a;" horiz-adv-x="1515" 
d="M1163 1698q-8 -51 -51.5 -89t-97.5 -38t-85.5 36.5t-21.5 90.5q11 54 53.5 91.5t96.5 37.5t85 -37.5t21 -91.5zM737 -27q-325 0 -501 226q-175 224 -119 538q53 311 295 516q245 207 549 207q207 0 358 -93t225 -259l-170 -90q-120 258 -424 258q-243 0 -426 -160
q-180 -158 -221 -399q-41 -245 84 -400q127 -157 367 -157q154 0 285 69.5t218 194.5l158 -100q-118 -163 -297.5 -257t-380.5 -94z" />
    <glyph glyph-name="cdotaccent" unicode="&#x10b;" horiz-adv-x="1124" 
d="M852 1282q-8 -51 -52 -89t-98 -38t-85 36.5t-21 90.5q11 55 53 92t96 37t85.5 -37.5t21.5 -91.5zM532 -27q-228 0 -360 164q-131 165 -90 398q41 229 213 370q178 146 403 146q153 0 266 -72t158 -195l-157 -82q-67 175 -281 175q-155 0 -276 -103t-148 -254
q-27 -157 55 -264q81 -106 240 -106q103 0 190.5 48t143.5 134l143 -94q-78 -125 -210 -195t-290 -70z" />
    <glyph glyph-name="Ccaron" unicode="&#x10c;" horiz-adv-x="1515" 
d="M1110 1573h-197l-170 276h181l98 -163l154 163h198zM754 160q154 0 285 69.5t218 194.5l158 -100q-118 -163 -297.5 -257t-380.5 -94q-325 0 -501 226q-175 224 -119 538q53 311 295 516q245 207 549 207q207 0 358 -93t225 -259l-170 -90q-120 258 -424 258
q-243 0 -426 -160q-180 -158 -221 -399q-41 -245 84 -400q127 -157 367 -157z" />
    <glyph glyph-name="ccaron" unicode="&#x10d;" horiz-adv-x="1124" 
d="M799 1157h-197l-170 277h180l99 -164l153 164h199zM555 150q103 0 190.5 48t143.5 134l143 -94q-78 -125 -210 -195t-290 -70q-228 0 -360 164q-131 165 -90 398q41 229 213 370q178 146 403 146q153 0 266 -72t158 -195l-157 -82q-67 175 -281 175q-155 0 -276 -103
t-148 -254q-27 -157 55 -264q81 -106 240 -106z" />
    <glyph glyph-name="Dcaron" unicode="&#x10e;" horiz-adv-x="1474" 
d="M969 1567h-197l-170 276h180l99 -164l153 164h199zM315 1434h559q280 0 445 -220q163 -217 111 -518q-52 -298 -279 -499q-226 -197 -528 -197h-560zM1247 719q41 232 -73 381q-111 153 -330 153h-369l-190 -1073h364q221 0 389 154q169 155 209 385z" />
    <glyph glyph-name="dcaron" unicode="&#x10f;" horiz-adv-x="1464" 
d="M1042 831l107 603h178l-252 -1434h-178l27 147q-162 -174 -412 -174q-221 0 -346 168t-84 394q40 236 207 374q168 142 375 142q128 0 227.5 -58t150.5 -162zM1389 1065l86 369h172l-127 -369h-131zM985 504q30 174 -63 274q-91 101 -244 101q-145 0 -268 -97
q-124 -97 -150 -262q-28 -159 57 -266q89 -109 244 -109q158 0 277 101q120 102 147 258z" />
    <glyph glyph-name="Dcroat" unicode="&#x110;" horiz-adv-x="1525" 
d="M367 1434h559q279 0 444 -220q163 -217 111 -518q-52 -298 -279 -499q-226 -197 -528 -197h-559l110 629h-137l25 159h139zM1298 719q41 232 -73 381q-111 153 -330 153h-369l-84 -465h334l-24 -159h-336l-80 -449h364q222 0 390 154t208 385z" />
    <glyph glyph-name="dslash" unicode="&#x111;" horiz-adv-x="1314" 
d="M1300 1296h138l-23 -131h-137l-205 -1165h-178l25 145q-156 -172 -408 -172q-221 0 -346 168t-84 394q40 236 207 374q168 142 375 142q128 0 226 -56.5t152 -160.5l58 331h-357l23 131h356l25 138h178zM561 145q147 0 260 88q115 87 156 230l14 82q12 154 -80 243
q-94 91 -233 91q-145 0 -268 -97q-124 -97 -150 -262q-28 -159 57 -266q89 -109 244 -109z" />
    <glyph glyph-name="Emacron" unicode="&#x112;" horiz-adv-x="1085" 
d="M516 1737h553l-27 -150h-553zM1161 1434l-31 -181h-655l-78 -440h604l-32 -178h-604l-80 -455h665l-30 -180h-857l252 1434h846z" />
    <glyph glyph-name="emacron" unicode="&#x113;" 
d="M485 1329h553l-26 -149h-553zM690 1051q230 0 354 -160q126 -156 82 -381q-2 -25 -20 -80h-856q0 -135 84.5 -212t226.5 -77q204 0 326 152l133 -96q-78 -105 -205 -164.5t-274 -59.5q-243 0 -371 162t-88 397q41 226 211 371q174 148 397 148zM276 588h682
q6 143 -69.5 219t-208.5 76q-143 0 -251.5 -79.5t-152.5 -215.5z" />
    <glyph glyph-name="Edotaccent" unicode="&#x116;" horiz-adv-x="1085" 
d="M913 1692q-8 -51 -51.5 -89t-97.5 -38t-85.5 36.5t-21.5 90.5q11 54 53.5 91.5t96.5 37.5t85 -37.5t21 -91.5zM1161 1434l-31 -181h-655l-78 -440h604l-32 -178h-604l-80 -455h665l-30 -180h-857l252 1434h846z" />
    <glyph glyph-name="edotaccent" unicode="&#x117;" 
d="M883 1284q-8 -51 -52 -89t-98 -38t-85 36.5t-21 90.5q11 55 53 92t96 37t85.5 -37.5t21.5 -91.5zM690 1051q230 0 354 -160q126 -156 82 -381q-2 -25 -20 -80h-856q0 -135 84.5 -212t226.5 -77q204 0 326 152l133 -96q-78 -105 -205 -164.5t-274 -59.5q-243 0 -371 162
t-88 397q41 226 211 371q174 148 397 148zM276 588h682q6 143 -69.5 219t-208.5 76q-143 0 -251.5 -79.5t-152.5 -215.5z" />
    <glyph glyph-name="Eogonek" unicode="&#x118;" horiz-adv-x="1085" 
d="M1161 1434l-31 -181h-655l-78 -440h604l-32 -178h-604l-80 -455h665l-30 -180h-2q-166 -137 -181 -227q-9 -68 54 -68q40 0 77 16l-22 -133q-61 -24 -137 -24q-83 0 -123.5 50t-28.5 130q21 125 193 256h-687l252 1434h846z" />
    <glyph glyph-name="eogonek" unicode="&#x119;" 
d="M690 1051q230 0 354 -160q126 -156 82 -381q-2 -25 -20 -80h-856q0 -135 84.5 -212t226.5 -77q204 0 326 152l133 -96q-45 -63 -121 -117q-234 -196 -254 -311q-12 -64 55 -64q39 0 76 16l-22 -131q-62 -26 -131 -26q-88 0 -130 48t-28 124q20 122 170 244q-54 -7 -94 -7
q-243 0 -371 162t-88 397q41 226 211 371q174 148 397 148zM276 588h682q6 143 -69.5 219t-208.5 76q-143 0 -251.5 -79.5t-152.5 -215.5z" />
    <glyph glyph-name="Ecaron" unicode="&#x11a;" horiz-adv-x="1085" 
d="M860 1567h-196l-170 276h180l98 -164l154 164h198zM1161 1434l-31 -181h-655l-78 -440h604l-32 -178h-604l-80 -455h665l-30 -180h-857l252 1434h846z" />
    <glyph glyph-name="ecaron" unicode="&#x11b;" 
d="M829 1159h-196l-170 277h180l98 -164l154 164h199zM690 1051q230 0 354 -160q126 -156 82 -381q-2 -25 -20 -80h-856q0 -135 84.5 -212t226.5 -77q204 0 326 152l133 -96q-78 -105 -205 -164.5t-274 -59.5q-243 0 -371 162t-88 397q41 226 211 371q174 148 397 148z
M276 588h682q6 143 -69.5 219t-208.5 76q-143 0 -251.5 -79.5t-152.5 -215.5z" />
    <glyph glyph-name="Gbreve" unicode="&#x11e;" horiz-adv-x="1615" 
d="M995 1556q-139 0 -212 75t-50 202h166q-24 -133 115 -133q140 0 164 133h165q-23 -134 -112 -205.5t-236 -71.5zM854 711h719l-14 -84q-49 -279 -269 -469q-218 -185 -530 -185q-336 0 -518 226q-183 230 -125 546q55 310 295 512q244 203 557 203q206 0 358.5 -93
t233.5 -261l-170 -90q-131 260 -435 260q-246 0 -430 -158q-183 -157 -223 -397q-40 -242 86 -402q126 -159 383 -159q211 0 363.5 104t210.5 275h-523z" />
    <glyph glyph-name="gbreve" unicode="&#x11f;" horiz-adv-x="1300" 
d="M745 1147q-139 0 -212 74.5t-50 201.5h166q-24 -133 115 -133q140 0 164 133h166q-23 -134 -112.5 -205t-236.5 -71zM1042 831l35 193h176l-172 -981q-41 -235 -202 -356q-159 -123 -385 -123q-164 0 -283.5 65.5t-173.5 184.5l158 82q70 -166 309 -166q167 0 271 81.5
t130 231.5l21 121q-152 -180 -400 -180q-234 0 -358 161q-123 164 -86 394q34 225 203 368q170 144 377 144q129 0 229 -57.5t151 -162.5zM567 156q145 0 264 90q118 92 152 241l10 54q18 154 -78 247t-237 93q-147 0 -270 -99q-124 -95 -148 -258q-27 -155 59 -264
q88 -104 248 -104z" />
    <glyph glyph-name="Gdotaccent" unicode="&#x120;" horiz-adv-x="1615" 
d="M1143 1698q-8 -51 -52 -89t-98 -38t-85 36.5t-21 90.5q11 55 53 92t96 37t85.5 -37.5t21.5 -91.5zM854 711h719l-14 -84q-49 -279 -269 -469q-218 -185 -530 -185q-336 0 -518 226q-183 230 -125 546q55 310 295 512q244 203 557 203q206 0 358.5 -93t233.5 -261
l-170 -90q-131 260 -435 260q-246 0 -430 -158q-183 -157 -223 -397q-40 -242 86 -402q126 -159 383 -159q211 0 363.5 104t210.5 275h-523z" />
    <glyph glyph-name="gdotaccent" unicode="&#x121;" horiz-adv-x="1300" 
d="M893 1288q-8 -51 -52 -89t-98 -38t-85 36.5t-21 90.5q11 55 53 92t96 37t85.5 -37.5t21.5 -91.5zM1042 831l35 193h176l-172 -981q-41 -235 -202 -356q-159 -123 -385 -123q-164 0 -283.5 65.5t-173.5 184.5l158 82q70 -166 309 -166q167 0 271 81.5t130 231.5l21 121
q-152 -180 -400 -180q-234 0 -358 161q-123 164 -86 394q34 225 203 368q170 144 377 144q129 0 229 -57.5t151 -162.5zM567 156q145 0 264 90q118 92 152 241l10 54q18 154 -78 247t-237 93q-147 0 -270 -99q-124 -95 -148 -258q-27 -155 59 -264q88 -104 248 -104z" />
    <glyph glyph-name="Gcommaaccent" unicode="&#x122;" horiz-adv-x="1615" 
d="M854 711h719l-14 -84q-49 -279 -269 -469q-218 -185 -530 -185q-336 0 -518 226q-183 230 -125 546q55 310 295 512q244 203 557 203q206 0 358.5 -93t233.5 -261l-170 -90q-131 260 -435 260q-246 0 -430 -158q-183 -157 -223 -397q-40 -242 86 -402q126 -159 383 -159
q211 0 363.5 104t210.5 275h-523zM711 -508h-133l86 369h174z" />
    <glyph glyph-name="gcommaaccent" unicode="&#x123;" horiz-adv-x="1300" 
d="M776 1573h133l-86 -369h-174zM1042 831l35 193h176l-172 -981q-41 -235 -202 -356q-159 -123 -385 -123q-164 0 -283.5 65.5t-173.5 184.5l158 82q70 -166 309 -166q167 0 271 81.5t130 231.5l21 121q-152 -180 -400 -180q-234 0 -358 161q-123 164 -86 394
q34 225 203 368q170 144 377 144q129 0 229 -57.5t151 -162.5zM567 156q145 0 264 90q118 92 152 241l10 54q18 154 -78 247t-237 93q-147 0 -270 -99q-124 -95 -148 -258q-27 -155 59 -264q88 -104 248 -104z" />
    <glyph glyph-name="Hbar" unicode="&#x126;" horiz-adv-x="1480" 
d="M1397 1186h131l-27 -146h-131l-182 -1040h-191l111 633h-696l-111 -633h-188l182 1040h-129l24 146h132l43 248h188l-43 -248h696l43 248h191zM444 813h697l39 227h-697z" />
    <glyph glyph-name="hbar" unicode="&#x127;" horiz-adv-x="1171" 
d="M748 1051q180 0 272 -115q95 -115 61 -307l-110 -629h-178l108 618q23 127 -31.5 195t-177.5 68q-136 0 -231 -86t-123 -252v2l-96 -545h-179l205 1165h-137l23 131h137l24 138h179l-25 -138h295l-23 -131h-295l-49 -274q133 160 351 160z" />
    <glyph glyph-name="Itilde" unicode="&#x128;" horiz-adv-x="497" 
d="M63 0l252 1434h191l-252 -1434h-191zM281 1583h-152q14 99 52 162.5t88 84t105.5 9t106.5 -52.5q62 -65 100.5 -56.5t55.5 103.5h151q-13 -97 -51.5 -161t-88 -85.5t-105 -10t-105.5 55.5q-62 65 -101 56t-56 -105z" />
    <glyph glyph-name="itilde" unicode="&#x129;" horiz-adv-x="450" 
d="M223 0h-178l180 1024h178zM201 1174h-129q13 99 45.5 162.5t74.5 83.5t88.5 9t90.5 -53q55 -65 86.5 -56.5t46.5 103.5h129q-10 -78 -33 -135t-53.5 -86t-66.5 -37t-73 7.5t-71 50.5q-55 65 -88 56t-47 -105z" />
    <glyph glyph-name="Imacron" unicode="&#x12a;" horiz-adv-x="497" 
d="M713 1587h-553l26 150h553zM63 0l252 1434h191l-252 -1434h-191z" />
    <glyph glyph-name="imacron" unicode="&#x12b;" horiz-adv-x="450" 
d="M557 1178h-430l27 155h430zM223 0h-178l180 1024h178z" />
    <glyph glyph-name="Iogonek" unicode="&#x12e;" horiz-adv-x="497" 
d="M127 -227q-12 -68 53 -68q41 0 78 16l-20 -131q-62 -26 -142 -26q-77 0 -117.5 49.5t-29.5 128.5q22 123 127 258h-13l252 1434h191l-252 -1434q-111 -141 -127 -227z" />
    <glyph glyph-name="iogonek" unicode="&#x12f;" horiz-adv-x="450" 
d="M389 1450q49 0 78.5 -35.5t21.5 -85.5q-11 -52 -49.5 -85.5t-91.5 -33.5q-49 0 -77.5 34.5t-20.5 84.5q8 52 47 86.5t92 34.5zM403 1024l-180 -1024q-102 -132 -117 -219q-6 -32 7.5 -54t42.5 -22q37 0 80 16l-23 -131q-68 -26 -141 -26q-78 0 -118 53t-28 129
q15 102 125 254h-6l180 1024h178z" />
    <glyph glyph-name="Idot" unicode="&#x130;" horiz-adv-x="497" 
d="M584 1692q-8 -51 -52 -89t-98 -38t-85 36.5t-21 90.5q11 55 53 92t96 37t85.5 -37.5t21.5 -91.5zM63 0l252 1434h191l-252 -1434h-191z" />
    <glyph glyph-name="dotlessi" unicode="&#x131;" horiz-adv-x="450" 
d="M223 0h-178l180 1024h178z" />
    <glyph glyph-name="Kcommaaccent" unicode="&#x136;" horiz-adv-x="1208" 
d="M1104 1434h242l-771 -707l529 -727h-213l-512 705l-125 -705h-191l252 1434h191l-113 -646zM479 -508h-133l86 369h174z" />
    <glyph glyph-name="kcommaaccent" unicode="&#x137;" horiz-adv-x="1028" 
d="M840 1024h229l-577 -496l415 -528h-205l-391 504l-88 -504h-178l252 1434h178l-149 -854zM403 -508h-133l86 369h174z" />
    <glyph glyph-name="Lacute" unicode="&#x139;" horiz-adv-x="999" 
d="M551 1843h219l-248 -270h-176zM506 1434l-221 -1254h620l-33 -180h-809l252 1434h191z" />
    <glyph glyph-name="lacute" unicode="&#x13a;" horiz-adv-x="452" 
d="M324 1573l204 270h220l-248 -270h-176zM47 0h178l262 1495h-178l-153 -872z" />
    <glyph glyph-name="Lcommaaccent" unicode="&#x13b;" horiz-adv-x="999" 
d="M506 1434l-221 -1254h620l-33 -180h-809l252 1434h191zM422 -508h-133l86 369h174z" />
    <glyph glyph-name="lcommaaccent" unicode="&#x13c;" horiz-adv-x="452" 
d="M225 0h-178l109 623l153 872h178zM74 -508h-133l86 369h174z" />
    <glyph glyph-name="Lcaron" unicode="&#x13d;" horiz-adv-x="999" 
d="M506 1434l-221 -1254h620l-33 -180h-809l252 1434h191zM723 1434h178l-125 -359h-137z" />
    <glyph glyph-name="lcaron" unicode="&#x13e;" horiz-adv-x="595" 
d="M225 0h-178l109 623l153 872h178zM664 1126h-134l86 369h175z" />
    <glyph glyph-name="Lslash" unicode="&#x141;" horiz-adv-x="1060" 
d="M422 608l-76 -428h621l-33 -180h-809l84 483l-152 -90l33 191l154 90l133 760h190l-112 -635l344 200l-33 -188z" />
    <glyph glyph-name="lslash" unicode="&#x142;" horiz-adv-x="507" 
d="M406 874l145 89l-31 -179l-145 -90l-15 -76l-108 -618h-178l100 573l-141 -86l30 179l142 86l131 743h178z" />
    <glyph glyph-name="Nacute" unicode="&#x143;" horiz-adv-x="1388" 
d="M760 1573l205 270h219l-248 -270h-176zM63 0h191l188 1075l557 -1075h146l252 1434h-191l-186 -1076l-559 1076h-146z" />
    <glyph glyph-name="nacute" unicode="&#x144;" horiz-adv-x="1155" 
d="M770 1440h219l-248 -271h-176zM729 1051q180 0 272 -115q96 -116 62 -307l-111 -629h-178l109 618q23 127 -30.5 195t-176.5 68q-136 0 -232.5 -86t-124.5 -252v2l-96 -545h-178l180 1024h178l-24 -135q131 162 350 162z" />
    <glyph glyph-name="Ncommaaccent" unicode="&#x145;" horiz-adv-x="1388" 
d="M254 0h-191l252 1434h146l559 -1076l186 1076h191l-252 -1434h-146l-557 1075zM545 -508h-133l86 369h174z" />
    <glyph glyph-name="ncommaaccent" unicode="&#x146;" horiz-adv-x="1155" 
d="M729 1051q180 0 272 -115q96 -116 62 -307l-111 -629h-178l109 618q23 127 -30.5 195t-176.5 68q-136 0 -232.5 -86t-124.5 -252v2l-96 -545h-178l180 1024h178l-24 -135q131 162 350 162zM461 -508h-133l86 369h174z" />
    <glyph glyph-name="Ncaron" unicode="&#x147;" horiz-adv-x="1388" 
d="M977 1567h-197l-170 276h181l98 -164l153 164h199zM1020 358l186 1076h191l-252 -1434h-146l-557 1075l-188 -1075h-191l252 1434h146z" />
    <glyph glyph-name="ncaron" unicode="&#x148;" horiz-adv-x="1155" 
d="M782 1163h-196l-170 277h180l98 -164l154 164h199zM729 1051q180 0 272 -115q96 -116 62 -307l-111 -629h-178l109 618q23 127 -30.5 195t-176.5 68q-136 0 -232.5 -86t-124.5 -252v2l-96 -545h-178l180 1024h178l-24 -135q131 162 350 162z" />
    <glyph glyph-name="Eng" unicode="&#x14a;" horiz-adv-x="1388" 
d="M1020 358l186 1076h191l-252 -1434q-40 -227 -168 -322.5t-350 -87.5l32 179q129 -5 200.5 49.5t96.5 189.5l11 55l-525 1012l-188 -1075h-191l252 1434h146z" />
    <glyph glyph-name="eng" unicode="&#x14b;" horiz-adv-x="1155" 
d="M729 1051q180 0 272 -115q96 -116 62 -307l-121 -690q-35 -196 -152 -292.5t-303 -82.5l29 172q208 -21 248 203l119 679q23 127 -30.5 195t-176.5 68q-136 0 -232.5 -86t-124.5 -252v2l-96 -545h-178l180 1024h178l-24 -135q131 162 350 162z" />
    <glyph glyph-name="Omacron" unicode="&#x14c;" horiz-adv-x="1644" 
d="M1286 1593h-553l27 150h553zM733 -27q-309 0 -491 228q-183 230 -125 536q52 309 297 516t565 207q309 0 491 -231q181 -231 129 -541q-56 -311 -299 -514q-245 -201 -567 -201zM760 160q244 0 424 155q184 156 225 394q41 239 -90 401q-132 166 -371 166t-422 -160
q-180 -158 -221 -399q-40 -235 88 -398q129 -159 367 -159z" />
    <glyph glyph-name="omacron" unicode="&#x14d;" horiz-adv-x="1234" 
d="M1012 1184h-553l26 149h553zM539 -27q-225 0 -365 158q-138 156 -94 399q44 238 225 379q183 142 406 142q218 0 352 -158q133 -157 92 -395q-40 -242 -219 -383q-180 -142 -397 -142zM553 147q149 0 272 99q127 100 154 270q27 168 -61 262q-88 99 -236 99
q-143 -3 -268 -99q-121 -93 -156 -266q-27 -174 59 -270q92 -98 236 -95z" />
    <glyph glyph-name="Ohungarumlaut" unicode="&#x150;" horiz-adv-x="1644" 
d="M711 1573l192 272h195l-203 -272h-184zM1024 1573l213 272h195l-224 -272h-184zM733 -27q322 0 567 201q243 203 299 514q52 310 -129 541q-182 231 -491 231q-320 0 -565 -207t-297 -516q-58 -306 125 -536q182 -228 491 -228zM760 160q-238 0 -367 159
q-128 163 -88 398q41 241 221 399q183 160 422 160t371 -166q131 -162 90 -401q-41 -238 -225 -394q-180 -155 -424 -155z" />
    <glyph glyph-name="ohungarumlaut" unicode="&#x151;" horiz-adv-x="1234" 
d="M436 1163l193 273h194l-202 -273h-185zM750 1163l213 273h194l-223 -273h-184zM539 -27q217 0 397 142q179 141 219 383q41 238 -92 395q-134 158 -352 158q-223 0 -406 -142q-181 -141 -225 -379q-44 -243 94 -399q140 -158 365 -158zM553 147q-144 -3 -236 95
q-86 96 -59 270q35 173 156 266q125 96 268 99q148 0 236 -99q88 -94 61 -262q-27 -170 -154 -270q-123 -99 -272 -99z" />
    <glyph glyph-name="OE" unicode="&#x152;" horiz-adv-x="1875" 
d="M1952 1434l-31 -181h-604l-78 -440h567l-32 -178h-568l-80 -455h615l-31 -180h-805q-102 -27 -198 -27q-304 0 -478 222q-170 226 -112 534q53 311 293 520q242 211 553 211q106 0 194 -26h795zM938 190l186 1055q-85 31 -188 31q-232 0 -412 -160q-178 -159 -219 -399
q-44 -237 78 -398q120 -159 352 -159q121 0 203 30z" />
    <glyph glyph-name="oe" unicode="&#x153;" horiz-adv-x="2095" 
d="M1604 1051q216 0 340 -160q125 -158 81 -381q-6 -48 -20 -80h-856q0 -135 84.5 -212t226.5 -77q204 0 326 152l133 -96q-77 -104 -203.5 -164t-263.5 -60q-158 0 -268.5 71.5t-155.5 197.5q-86 -126 -217.5 -197.5t-284.5 -71.5q-235 0 -360 162q-126 164 -86 389
q41 227 211 375q178 152 414 152q139 0 245 -72t156 -197q82 126 213.5 197.5t284.5 71.5zM1178 588h680q6 143 -70 219t-209 76q-142 0 -249.5 -79t-151.5 -216zM979 512q27 157 -57 260q-86 105 -240 105q-156 0 -276 -105q-121 -103 -148 -260t55 -262q83 -103 240 -103
q153 0 276 105t150 260z" />
    <glyph glyph-name="Racute" unicode="&#x154;" horiz-adv-x="1251" 
d="M860 1843h219l-248 -270h-176zM1255 969q-26 -145 -124 -250.5t-240 -147.5l233 -571h-196l-221 549h-357l-96 -549h-191l252 1434h570q176 0 291 -142q114 -138 79 -323zM1069 989q21 113 -43 189q-65 77 -172 77h-379l-94 -534h383q109 0 199 78q88 79 106 190z" />
    <glyph glyph-name="racute" unicode="&#x155;" horiz-adv-x="673" 
d="M580 1434h219l-248 -271h-176zM403 1024l-26 -150q128 174 350 168l-33 -186q-133 3 -239 -72q-109 -75 -136 -241v2l-96 -545h-178l180 1024h178z" />
    <glyph glyph-name="Rcommaaccent" unicode="&#x156;" horiz-adv-x="1251" 
d="M1255 969q-26 -145 -124 -250.5t-240 -147.5l233 -571h-196l-221 549h-357l-96 -549h-191l252 1434h570q176 0 291 -142q114 -138 79 -323zM1069 989q21 113 -43 189q-65 77 -172 77h-379l-94 -534h383q109 0 199 78q88 79 106 190zM537 -508h-134l86 369h175z" />
    <glyph glyph-name="rcommaaccent" unicode="&#x157;" horiz-adv-x="673" 
d="M403 1024l-26 -150q128 174 350 168l-33 -186q-133 3 -239 -72q-109 -75 -136 -241v2l-96 -545h-178l180 1024h178zM74 -508h-133l86 369h174z" />
    <glyph glyph-name="Rcaron" unicode="&#x158;" horiz-adv-x="1251" 
d="M872 1567h-196l-170 276h180l98 -164l154 164h199zM1255 969q-26 -145 -124 -250.5t-240 -147.5l233 -571h-196l-221 549h-357l-96 -549h-191l252 1434h570q176 0 291 -142q114 -138 79 -323zM1069 989q21 113 -43 189q-65 77 -172 77h-379l-94 -534h383q109 0 199 78
q88 79 106 190z" />
    <glyph glyph-name="rcaron" unicode="&#x159;" horiz-adv-x="673" 
d="M592 1157h-197l-170 277h181l98 -164l153 164h199zM403 1024l-26 -150q128 174 350 168l-33 -186q-133 3 -239 -72q-109 -75 -136 -241v2l-96 -545h-178l180 1024h178z" />
    <glyph glyph-name="Sacute" unicode="&#x15a;" horiz-adv-x="1198" 
d="M664 1579l204 270h219l-247 -270h-176zM549 -27q203 0 354 97q149 94 184 276q16 81 -0.5 151.5t-54.5 116.5q-32 41 -98 82q-72 45 -109 58q-51 21 -116 45q-122 45 -185 78q-47 27 -67 53q-56 63 -37 149q20 90 102.5 143.5t190.5 53.5q226 0 303 -213l168 86
q-51 144 -168 227.5t-289 83.5q-176 0 -319 -94q-145 -95 -179 -272q-37 -194 93 -306q62 -50 123.5 -81.5t154.5 -63.5q138 -44 223 -98q98 -62 74 -178q-20 -97 -109.5 -153t-228.5 -56q-296 0 -352 256l-168 -88q42 -167 174.5 -260t335.5 -93z" />
    <glyph glyph-name="sacute" unicode="&#x15b;" horiz-adv-x="968" 
d="M481 1169l205 271h219l-248 -271h-176zM420 -27q169 0 279 74.5t135 208.5q12 65 -3.5 118t-43.5 85.5t-80.5 60t-91.5 41t-99 29.5q-90 28 -137 65.5t-37 94.5q11 64 69 99.5t134 35.5q167 0 207 -129l157 82q-95 213 -356 213q-146 0 -258 -80q-110 -78 -131 -203
q-14 -78 7.5 -136t66.5 -91.5t103 -58t116.5 -42.5t106.5 -38t74.5 -51t18.5 -75q-12 -65 -71.5 -100t-151.5 -35q-95 0 -157 44t-80 118l-160 -82q37 -118 135 -183t248 -65z" />
    <glyph glyph-name="Scedilla" unicode="&#x15e;" horiz-adv-x="1198" 
d="M709 799q65 -24 116 -45q37 -13 109 -58q66 -41 98 -82q38 -46 54.5 -116.5t0.5 -151.5q-35 -167 -166 -263.5t-325 -107.5l-12 -67q75 -18 115 -66t28 -110q-34 -204 -461 -174l25 135q269 -21 284 63q6 36 -36 55t-121 19l24 150q-160 23 -264 113t-139 233l168 88
q56 -256 352 -256q139 0 228.5 56t109.5 153q24 116 -74 178q-85 54 -223 98q-93 32 -154.5 63.5t-123.5 81.5q-130 112 -93 306q34 177 179 272q143 94 319 94q172 0 289 -83.5t168 -227.5l-168 -86q-77 213 -303 213q-108 0 -190.5 -53.5t-102.5 -143.5q-19 -86 37 -149
q20 -26 67 -53q63 -33 185 -78z" />
    <glyph glyph-name="scedilla" unicode="&#x15f;" horiz-adv-x="968" 
d="M342 750q-10 -57 37 -94.5t137 -65.5q60 -16 99 -29.5t91.5 -41t80.5 -60t43.5 -85.5t3.5 -118q-23 -123 -116.5 -196t-240.5 -85l-12 -67q75 -18 115 -66t28 -110q-34 -204 -461 -174l25 135q270 -21 285 63q6 36 -36 55t-122 19l25 152q-223 40 -287 239l160 82
q18 -74 80 -118t157 -44q92 0 151.5 35t71.5 100q8 44 -18.5 75t-74.5 51t-106.5 38t-116.5 42.5t-103 58t-66.5 91.5t-7.5 136q21 125 131 203q112 80 258 80q261 0 356 -213l-157 -82q-40 129 -207 129q-76 0 -134 -35.5t-69 -99.5z" />
    <glyph glyph-name="Scaron" unicode="&#x160;" horiz-adv-x="1198" 
d="M881 1573h-197l-170 276h180l99 -163l153 163h199zM709 799q65 -24 116 -45q37 -13 109 -58q66 -41 98 -82q38 -46 54.5 -116.5t0.5 -151.5q-35 -182 -184 -276q-151 -97 -354 -97t-335.5 93t-174.5 260l168 88q56 -256 352 -256q139 0 228.5 56t109.5 153
q24 116 -74 178q-85 54 -223 98q-93 32 -154.5 63.5t-123.5 81.5q-130 112 -93 306q34 177 179 272q143 94 319 94q172 0 289 -83.5t168 -227.5l-168 -86q-77 213 -303 213q-108 0 -190.5 -53.5t-102.5 -143.5q-19 -86 37 -149q20 -26 67 -53q63 -33 185 -78z" />
    <glyph glyph-name="scaron" unicode="&#x161;" horiz-adv-x="968" 
d="M698 1163h-196l-170 277h180l98 -164l154 164h199zM545 885q-76 0 -134 -35.5t-69 -99.5q-10 -57 37 -94.5t137 -65.5q60 -16 99 -29.5t91.5 -41t80.5 -60t43.5 -85.5t3.5 -118q-25 -134 -135 -208.5t-279 -74.5q-150 0 -248 65t-135 183l160 82q18 -74 80 -118t157 -44
q92 0 151.5 35t71.5 100q8 44 -18.5 75t-74.5 51t-106.5 38t-116.5 42.5t-103 58t-66.5 91.5t-7.5 136q21 125 131 203q112 80 258 80q261 0 356 -213l-157 -82q-40 129 -207 129z" />
    <glyph glyph-name="uni0162" unicode="&#x162;" horiz-adv-x="1105" 
d="M199 1434h1034l-31 -181h-424l-221 -1253h-188l221 1253h-422zM401 -508h-133l86 369h174z" />
    <glyph glyph-name="uni0163" unicode="&#x163;" horiz-adv-x="776" 
d="M754 852h-273l-98 -555q-11 -57 1 -88.5t45.5 -41.5t85 -11t118.5 4l-29 -160q-230 -31 -330.5 41t-68.5 256l96 555h-203l33 172h201l41 233l188 54l-51 -287h274zM330 -508h-133l86 369h174z" />
    <glyph glyph-name="Tcaron" unicode="&#x164;" horiz-adv-x="1105" 
d="M836 1567h-197l-170 276h180l99 -164l153 164h199zM199 1434h1034l-31 -181h-424l-221 -1253h-188l221 1253h-422z" />
    <glyph glyph-name="tcaron" unicode="&#x165;" horiz-adv-x="790" 
d="M717 1473h172l-123 -345h-131zM373 1257l188 54l-51 -287h274l-30 -172h-273l-98 -555q-11 -57 1 -88.5t45.5 -41.5t85 -11t118.5 4l-29 -160q-230 -31 -330.5 41t-68.5 256l96 555h-203l33 172h201z" />
    <glyph glyph-name="Tbar" unicode="&#x166;" horiz-adv-x="1105" 
d="M1233 1434l-31 -181h-424l-80 -454h279l-29 -172h-280l-111 -627h-188l110 627h-278l28 172h281l80 454h-422l31 181h1034z" />
    <glyph glyph-name="tbar" unicode="&#x167;" horiz-adv-x="776" 
d="M784 1024l-30 -172h-273l-45 -254h187l-25 -143h-186l-29 -158q-11 -57 1 -88.5t45.5 -41.5t85 -11t118.5 4l-29 -160q-230 -31 -330.5 41t-68.5 256l26 158h-129l25 143h131l43 254h-203l33 172h201l41 233l188 54l-51 -287h274z" />
    <glyph glyph-name="Utilde" unicode="&#x168;" horiz-adv-x="1341" 
d="M600 -27q-246 0 -379 142q-132 141 -92 366l166 953h190l-166 -945q-27 -152 47.5 -240.5t239.5 -88.5q167 0 275 89t135 240l166 945h188l-166 -953q-44 -240 -207 -375q-165 -133 -397 -133zM702 1583h-151q14 99 52 162.5t88 84t105.5 9t106.5 -52.5
q62 -65 100.5 -56.5t55.5 103.5h151q-13 -97 -51.5 -161t-88 -85.5t-105 -10t-105.5 55.5q-62 65 -101.5 56t-56.5 -105z" />
    <glyph glyph-name="utilde" unicode="&#x169;" horiz-adv-x="1155" 
d="M836 479l96 545h178l-180 -1024h-178l24 135q-131 -162 -350 -162q-179 0 -274 115q-94 117 -60 307l111 629h178l-109 -618q-23 -127 30.5 -195t176.5 -68q136 0 232.5 86t124.5 252v-2zM518 1174h-151q14 99 52 162.5t88 83.5t105.5 8.5t106.5 -52.5q62 -65 100 -56.5
t55 103.5h152q-13 -97 -51.5 -161t-88 -85t-105 -9.5t-105.5 55.5q-62 65 -101.5 56t-56.5 -105z" />
    <glyph glyph-name="Umacron" unicode="&#x16a;" horiz-adv-x="1341" 
d="M1135 1587h-553l26 150h553zM600 -27q-246 0 -379 142q-132 141 -92 366l166 953h190l-166 -945q-27 -152 47.5 -240.5t239.5 -88.5q167 0 275 89t135 240l166 945h188l-166 -953q-44 -240 -207 -375q-165 -133 -397 -133z" />
    <glyph glyph-name="umacron" unicode="&#x16b;" horiz-adv-x="1155" 
d="M424 1327h553l-27 -149h-553zM836 479l96 545h178l-180 -1024h-178l24 135q-131 -162 -350 -162q-179 0 -274 115q-94 117 -60 307l111 629h178l-109 -618q-23 -127 30.5 -195t176.5 -68q136 0 232.5 86t124.5 252v-2z" />
    <glyph glyph-name="Uring" unicode="&#x16e;" horiz-adv-x="1341" 
d="M647 1692q17 93 90 152t172 59q102 0 157.5 -66t41.5 -160q-17 -93 -89.5 -152t-174.5 -59t-158 65.5t-39 160.5zM975 1683q7 43 -15 69t-65 26q-94 0 -115 -92q-6 -42 15.5 -68.5t64.5 -26.5q44 0 76.5 26.5t38.5 65.5zM600 -27q-246 0 -379 142q-132 141 -92 366
l166 953h190l-166 -945q-27 -152 47.5 -240.5t239.5 -88.5q167 0 275 89t135 240l166 945h188l-166 -953q-44 -240 -207 -375q-165 -133 -397 -133z" />
    <glyph glyph-name="uring" unicode="&#x16f;" horiz-adv-x="1155" 
d="M473 1343q17 93 90 152t172 59q102 0 157.5 -65.5t41.5 -159.5q-17 -93 -89.5 -152t-174.5 -59t-158 65t-39 160zM606 1337q-6 -42 15 -68t65 -26t76.5 26.5t38.5 65.5q7 43 -15 69t-65 26q-94 0 -115 -93zM836 479l96 545h178l-180 -1024h-178l24 135
q-131 -162 -350 -162q-179 0 -274 115q-94 117 -60 307l111 629h178l-109 -618q-23 -127 30.5 -195t176.5 -68q136 0 232.5 86t124.5 252v-2z" />
    <glyph glyph-name="Uhungarumlaut" unicode="&#x170;" horiz-adv-x="1341" 
d="M559 1567l193 272h194l-203 -272h-184zM872 1567l213 272h195l-223 -272h-185zM600 -27q232 0 397 133q163 135 207 375l166 953h-188l-166 -945q-27 -151 -135 -240t-275 -89q-165 0 -239.5 88.5t-47.5 240.5l166 945h-190l-166 -953q-40 -225 92 -366
q133 -142 379 -142z" />
    <glyph glyph-name="uhungarumlaut" unicode="&#x171;" horiz-adv-x="1155" 
d="M567 1430h195l-203 -273h-184zM1096 1430l-224 -273h-184l213 273h195zM836 479l96 545h178l-180 -1024h-178l24 135q-131 -162 -350 -162q-179 0 -274 115q-94 117 -60 307l111 629h178l-109 -618q-23 -127 30.5 -195t176.5 -68q136 0 232.5 86t124.5 252v-2z" />
    <glyph glyph-name="Uogonek" unicode="&#x172;" horiz-adv-x="1341" 
d="M1016 489l166 945h188l-166 -953q-53 -291 -278 -424q-244 -179 -264 -290q-9 -62 59 -62q36 0 74 14l-23 -131q-62 -24 -127 -24q-90 0 -133 49.5t-29 126.5q17 114 160 235q-10 -2 -43 -2q-246 0 -379 142q-132 141 -92 366l166 953h190l-166 -945
q-27 -152 47.5 -240.5t239.5 -88.5q167 0 275 89t135 240z" />
    <glyph glyph-name="uogonek" unicode="&#x173;" horiz-adv-x="1155" 
d="M836 479l96 545h178l-180 -1024h-2q-168 -137 -183 -238q-9 -57 54 -57q41 0 78 16l-21 -131q-68 -26 -133 -26q-84 0 -128 48t-30 124q21 109 189 270l22 129q-131 -162 -350 -162q-179 0 -274 115q-94 117 -60 307l111 629h178l-109 -618q-23 -127 30.5 -195t176.5 -68
q136 0 232.5 86t124.5 252v-2z" />
    <glyph glyph-name="Wcircumflex" unicode="&#x174;" horiz-adv-x="2048" 
d="M1339 1567l-96 166l-156 -166h-194l264 276h197l170 -276h-185zM1415 250l541 1184h203l-664 -1434h-221l-139 1145l-541 -1145h-221l-160 1434h188l123 -1184l557 1184h193z" />
    <glyph glyph-name="wcircumflex" unicode="&#x175;" horiz-adv-x="1583" 
d="M1034 1157l-96 166l-156 -166h-194l264 277h197l170 -277h-185zM1067 244l360 780h195l-500 -1024h-182l-104 760l-369 -760h-186l-140 1024h176l95 -778l372 778h179l-2 -4z" />
    <glyph glyph-name="Ycircumflex" unicode="&#x176;" 
d="M907 1567l-96 166l-156 -166h-194l264 276h197l170 -276h-185zM1118 1434h223l-624 -779l-115 -655h-190l116 659l-350 775h199l266 -600z" />
    <glyph glyph-name="ycircumflex" unicode="&#x177;" horiz-adv-x="1054" 
d="M737 1157l-96 166l-156 -166h-194l264 277h197l170 -277h-185zM489 215l443 809h198l-608 -1087q-205 -368 -516 -347l29 166q94 -7 164.5 42t138.5 163l31 49l-263 1014h181z" />
    <glyph glyph-name="Ydieresis" unicode="&#x178;" 
d="M496 1677q6 44 43 75.5t82 31.5q44 0 70 -31.5t20 -75.5q-11 -45 -47 -76.5t-80 -31.5t-70 32t-18 76zM885 1677q6 44 43 75.5t82 31.5q44 0 70 -31.5t20 -75.5q-11 -45 -47 -76.5t-80 -31.5t-70 32t-18 76zM1118 1434h223l-624 -779l-115 -655h-190l116 659l-350 775
h199l266 -600z" />
    <glyph glyph-name="Zacute" unicode="&#x179;" horiz-adv-x="1075" 
d="M819 1843h219l-247 -270h-177zM260 1434h901l-28 -164l-881 -1090h706l-32 -180h-936l28 166l881 1087h-670z" />
    <glyph glyph-name="zacute" unicode="&#x17a;" horiz-adv-x="923" 
d="M674 1434h219l-248 -271h-176zM188 1024h748l-23 -119l-645 -735h537l-29 -170h-790l22 119l645 735h-495z" />
    <glyph glyph-name="Zdotaccent" unicode="&#x17b;" horiz-adv-x="1075" 
d="M885 1692q-8 -51 -52 -89t-98 -38t-85 36.5t-21 90.5q11 55 53 92t96 37t85.5 -37.5t21.5 -91.5zM260 1434h901l-28 -164l-881 -1090h706l-32 -180h-936l28 166l881 1087h-670z" />
    <glyph glyph-name="zdotaccent" unicode="&#x17c;" horiz-adv-x="923" 
d="M739 1282q-8 -51 -51.5 -89t-97.5 -38t-85.5 36.5t-21.5 90.5q11 54 53.5 91.5t96.5 37.5t85 -37.5t21 -91.5zM188 1024h748l-23 -119l-645 -735h537l-29 -170h-790l22 119l645 735h-495z" />
    <glyph glyph-name="Zcaron" unicode="&#x17d;" horiz-adv-x="1075" 
d="M831 1567h-196l-170 276h180l98 -164l154 164h199zM260 1434h901l-28 -164l-881 -1090h706l-32 -180h-936l28 166l881 1087h-670z" />
    <glyph glyph-name="zcaron" unicode="&#x17e;" horiz-adv-x="923" 
d="M686 1157h-197l-170 277h181l98 -164l154 164h198zM653 854h-495l30 170h748l-23 -119l-645 -735h537l-29 -170h-790l22 119z" />
    <glyph glyph-name="florin" unicode="&#x192;" horiz-adv-x="901" 
d="M459 805l119 346q45 132 119.5 209.5t167 95t200.5 -13.5l-31 -176q-88 42 -166 5t-110 -136l-113 -330h217l-31 -172h-245l-260 -756q-67 -196 -195.5 -268t-292.5 -21l31 174q88 -39 166 -2.5t110 134.5l254 739h-204l30 172h234z" />
    <glyph glyph-name="Ohorn" unicode="&#x1a0;" horiz-adv-x="1644" 
d="M733 -27q-309 0 -491 228q-183 230 -125 536q52 309 297 516t565 207q99 0 195 -26h147q64 0 89 27.5t38 99.5l4 24h158l-4 -24q-19 -113 -67 -174.5t-140 -81.5q29 -27 71 -76q181 -231 129 -541q-56 -311 -299 -514q-245 -201 -567 -201zM760 160q244 0 424 155
q184 156 225 394q41 239 -90 401q-132 166 -371 166t-422 -160q-180 -158 -221 -399q-40 -235 88 -398q129 -159 367 -159z" />
    <glyph glyph-name="ohorn" unicode="&#x1a1;" horiz-adv-x="1234" 
d="M539 -27q-225 0 -365 158q-138 156 -94 399q44 238 225 379q183 142 406 142q80 0 163 -27h113q64 0 89 27.5t38 99.5l4 25h158l-4 -25q-21 -115 -69 -176.5t-142 -79.5q0 -2 2 -2q133 -157 92 -395q-40 -242 -219 -383q-180 -142 -397 -142zM553 147q149 0 272 99
q127 100 154 270q27 168 -61 262q-88 99 -236 99q-143 -3 -268 -99q-121 -93 -156 -266q-27 -174 59 -270q92 -98 236 -95z" />
    <glyph glyph-name="Uhorn" unicode="&#x1af;" horiz-adv-x="1341" 
d="M600 -27q-246 0 -379 142q-132 141 -92 366l166 953h190l-166 -945q-27 -152 47.5 -240.5t239.5 -88.5q167 0 275 89t135 240l166 945h118q57 1 79.5 29t35.5 98l4 24h158l-4 -24q-21 -119 -72.5 -181t-152.5 -77l-144 -822q-44 -240 -207 -375q-165 -133 -397 -133z" />
    <glyph glyph-name="uhorn" unicode="&#x1b0;" horiz-adv-x="1155" 
d="M836 479l96 545h90q64 0 89 27.5t38 99.5l4 25h158l-4 -25q-21 -116 -71.5 -178t-148.5 -80l-157 -893h-178l24 135q-131 -162 -350 -162q-179 0 -274 115q-94 117 -60 307l111 629h178l-109 -618q-23 -127 30.5 -195t176.5 -68q136 0 232.5 86t124.5 252v-2z" />
    <glyph glyph-name="Scommaaccent" unicode="&#x218;" horiz-adv-x="1198" 
d="M549 -27q-203 0 -335.5 93t-174.5 260l168 88q56 -256 352 -256q139 0 228.5 56t109.5 153q24 116 -74 178q-85 54 -223 98q-93 32 -154.5 63.5t-123.5 81.5q-130 112 -93 306q34 177 179 272q143 94 319 94q172 0 289 -83.5t168 -227.5l-168 -86q-77 213 -303 213
q-108 0 -190.5 -53.5t-102.5 -143.5q-19 -86 37 -149q20 -26 67 -53q63 -33 185 -78q65 -24 116 -45q37 -13 109 -58q66 -41 98 -82q38 -46 54.5 -116.5t0.5 -151.5q-35 -182 -184 -276q-151 -97 -354 -97zM487 -508h-133l86 369h174z" />
    <glyph glyph-name="scommaaccent" unicode="&#x219;" horiz-adv-x="968" 
d="M420 -27q-150 0 -248 65t-135 183l160 82q18 -74 80 -118t157 -44q92 0 151.5 35t71.5 100q8 44 -18.5 75t-74.5 51t-106.5 38t-116.5 42.5t-103 58t-66.5 91.5t-7.5 136q21 125 131 203q112 80 258 80q261 0 356 -213l-157 -82q-40 129 -207 129q-76 0 -134 -35.5
t-69 -99.5q-10 -57 37 -94.5t137 -65.5q60 -16 99 -29.5t91.5 -41t80.5 -60t43.5 -85.5t3.5 -118q-25 -134 -135 -208.5t-279 -74.5zM369 -508h-133l86 369h174z" />
    <glyph glyph-name="uni021A" unicode="&#x21a;" horiz-adv-x="1105" 
d="M199 1434h1034l-31 -181h-424l-221 -1253h-188l221 1253h-422zM401 -508h-133l86 369h174z" />
    <glyph glyph-name="uni021B" unicode="&#x21b;" horiz-adv-x="776" 
d="M754 852h-273l-98 -555q-11 -57 1 -88.5t45.5 -41.5t85 -11t118.5 4l-29 -160q-230 -31 -330.5 41t-68.5 256l96 555h-203l33 172h201l41 233l188 54l-51 -287h274zM330 -508h-133l86 369h174z" />
    <glyph glyph-name="circumflex" unicode="&#x2c6;" horiz-adv-x="712" 
d="M614 1434l170 -277h-184l-96 166l-156 -166h-194l264 277h196z" />
    <glyph glyph-name="caron" unicode="&#x2c7;" horiz-adv-x="712" 
d="M481 1270l154 164h199l-265 -277h-196l-170 277h180z" />
    <glyph glyph-name="breve" unicode="&#x2d8;" horiz-adv-x="692" 
d="M463 1141q-139 0 -212 74.5t-50 201.5h166q-24 -133 114 -133q140 0 164 133h166q-23 -134 -112 -205t-236 -71z" />
    <glyph glyph-name="dotaccent" unicode="&#x2d9;" horiz-adv-x="296" 
d="M424 1282q-8 -51 -52 -89t-98 -38t-85 36.5t-21 90.5q11 55 53 92t96 37t85.5 -37.5t21.5 -91.5z" />
    <glyph glyph-name="ring" unicode="&#x2da;" horiz-adv-x="544" 
d="M186 1343q17 93 90.5 152t172.5 59q102 0 157 -65.5t41 -159.5q-17 -93 -89.5 -152t-174.5 -59t-158 65t-39 160zM514 1335q7 43 -15 69t-65 26q-94 0 -115 -93q-6 -42 15 -68t65 -26t76.5 26.5t38.5 65.5z" />
    <glyph glyph-name="ogonek" unicode="&#x2db;" horiz-adv-x="397" 
d="M57 -436q-83 0 -123 50t-28 130q21 125 192 256h168q-165 -136 -180 -227q-9 -68 53 -68q41 0 78 16l-22 -133q-61 -24 -138 -24z" />
    <glyph glyph-name="tilde" unicode="&#x2dc;" horiz-adv-x="696" 
d="M313 1174h-151q14 99 52 162.5t88 83.5t105.5 8.5t106.5 -52.5q62 -65 100.5 -56.5t55.5 103.5h151q-13 -97 -51.5 -161t-88.5 -85t-105.5 -9.5t-104.5 55.5q-62 65 -101.5 56t-56.5 -105z" />
    <glyph glyph-name="hungarumlaut" unicode="&#x2dd;" horiz-adv-x="755" 
d="M154 1157l192 273h195l-203 -273h-184zM467 1157l213 273h194l-223 -273h-184z" />
    <glyph glyph-name="gravecomb" unicode="&#x300;" horiz-adv-x="0" 
d="M76 1163h-172l-162 271h211z" />
    <glyph glyph-name="acutecomb" unicode="&#x301;" horiz-adv-x="0" 
d="M-303 1163l205 271h219l-248 -271h-176z" />
    <glyph glyph-name="uni0302" unicode="&#x302;" horiz-adv-x="0" 
d="M-98 1434l170 -277h-185l-96 166l-156 -166h-194l264 277h197z" />
    <glyph glyph-name="tildecomb" unicode="&#x303;" horiz-adv-x="0" 
d="M-387 1174h-152q14 99 52.5 162.5t88.5 83.5t105.5 8.5t106.5 -52.5q62 -65 100 -56.5t55 103.5h152q-13 -97 -51.5 -161t-88 -85t-105 -9.5t-105.5 55.5q-62 65 -101.5 56t-56.5 -105z" />
    <glyph glyph-name="uni0304" unicode="&#x304;" horiz-adv-x="0" 
d="M76 1178h-553l26 149h553z" />
    <glyph glyph-name="uni0306" unicode="&#x306;" horiz-adv-x="0" 
d="M-229 1141q-139 0 -212.5 74.5t-50.5 201.5h166q-24 -133 115 -133q140 0 164 133h166q-23 -134 -112 -205t-236 -71z" />
    <glyph glyph-name="uni0307" unicode="&#x307;" horiz-adv-x="0" 
d="M94 1282q-8 -51 -51.5 -89t-97.5 -38t-85.5 36.5t-21.5 90.5q11 54 53.5 91.5t96.5 37.5t85 -37.5t21 -91.5z" />
    <glyph glyph-name="uni0308" unicode="&#x308;" horiz-adv-x="0" 
d="M-510 1268q6 44 43 75t82 31q44 0 70 -31t20 -75q-11 -45 -47 -77t-80 -32t-70 32.5t-18 76.5zM-121 1268q6 44 43 75t82 31q44 0 70 -31t20 -75q-11 -45 -47 -77t-80 -32t-70 32.5t-18 76.5z" />
    <glyph glyph-name="uni030A" unicode="&#x30a;" horiz-adv-x="0" 
d="M-358 1343q17 93 90 152t172 59q102 0 157 -65.5t41 -159.5q-17 -93 -89.5 -152t-174.5 -59t-157.5 65t-38.5 160zM-31 1335q7 43 -15 69t-65 26q-93 0 -114 -93q-6 -42 15 -68t65 -26t76 26.5t38 65.5z" />
    <glyph glyph-name="uni030B" unicode="&#x30b;" horiz-adv-x="0" 
d="M-602 1157l192 273h195l-203 -273h-184zM-289 1157l213 273h195l-223 -273h-185z" />
    <glyph glyph-name="uni030C" unicode="&#x30c;" horiz-adv-x="0" 
d="M-231 1270l153 164h199l-264 -277h-197l-170 277h180z" />
    <glyph glyph-name="uni0312" unicode="&#x312;" horiz-adv-x="0" 
d="M84 1976h133l-86 -368h-174z" />
    <glyph glyph-name="uni0326" unicode="&#x326;" horiz-adv-x="0" 
d="M-283 -508h-133l86 369h174z" />
    <glyph glyph-name="uni0327" unicode="&#x327;" horiz-adv-x="0" 
d="M-305 0l-17 -92q75 -18 115.5 -66t28.5 -110q-34 -204 -461 -174l25 135q269 -21 284 63q6 36 -36 55t-121 19l28 170h154z" />
    <glyph glyph-name="uni0328" unicode="&#x328;" horiz-adv-x="0" 
d="M-346 -436q-83 0 -123.5 50t-28.5 130q21 125 193 256h168q-165 -136 -180 -227q-9 -68 53 -68q41 0 78 16l-23 -133q-61 -24 -137 -24z" />
    <glyph glyph-name="uni0394" unicode="&#x394;" horiz-adv-x="1306" 
d="M707 1434h215l278 -1434h-1276zM784 1210l-551 -1032h740z" />
    <glyph glyph-name="uni03A9" unicode="&#x3a9;" horiz-adv-x="1632" 
d="M1595 711q-29 -165 -123.5 -302t-238.5 -229h242l-33 -180h-561l10 57l22 123q183 49 322 197q135 144 170 340q41 239 -90 397q-131 162 -365 162q-236 0 -422 -162q-186 -158 -227 -397q-34 -193 49 -342q84 -146 252 -195l-20 -123l-11 -57h-563l33 180h260
q-118 98 -168 246.5t-20 318.5q52 307 299 510q245 205 567 205q305 0 485 -223q184 -220 131 -526z" />
    <glyph glyph-name="pi" unicode="&#x3c0;" horiz-adv-x="1341" 
d="M147 1024h1229l-30 -170h-168l-150 -854h-178l149 854h-530l-150 -854h-178l150 854h-174z" />
    <glyph glyph-name="uni0401" unicode="&#x401;" horiz-adv-x="1085" 
d="M481 1677q6 44 43 75.5t82 31.5q44 0 70 -31.5t20 -75.5q-11 -45 -47 -76.5t-80 -31.5t-70 32t-18 76zM870 1677q6 44 43 75.5t82 31.5q44 0 70 -31.5t20 -75.5q-11 -45 -47 -76.5t-80 -31.5t-70 32t-18 76zM1161 1434l-31 -181h-655l-78 -440h604l-32 -178h-604
l-80 -455h665l-30 -180h-857l252 1434h846z" />
    <glyph glyph-name="uni0402" unicode="&#x402;" horiz-adv-x="1413" 
d="M985 963q182 0 274 -103.5t62 -290.5l-37 -213q-37 -204 -149 -295.5t-312 -78.5l31 176q109 -11 164.5 35t75.5 163l36 205q20 122 -27.5 176t-160.5 54q-145 0 -293 -68l-127 -723h-190l221 1253h-385l31 181h1018l-31 -181h-443l-63 -352q157 62 305 62z" />
    <glyph glyph-name="uni0403" unicode="&#x403;" horiz-adv-x="993" 
d="M831 1841h220l-248 -270h-176zM315 1434h805l-30 -181h-615l-221 -1253h-191z" />
    <glyph glyph-name="uni0404" unicode="&#x404;" horiz-adv-x="1515" 
d="M754 160q154 0 285 69.5t218 194.5l158 -100q-118 -163 -297.5 -257t-380.5 -94q-325 0 -501 226q-175 224 -119 538q53 311 295 516q245 207 549 207q207 0 358 -93t225 -259l-170 -90q-120 258 -424 258q-218 0 -389 -131q-170 -130 -235 -338h739l-33 -178h-739
q-6 -207 119 -338t342 -131z" />
    <glyph glyph-name="uni0405" unicode="&#x405;" horiz-adv-x="1198" 
d="M549 -27q-203 0 -335.5 93t-174.5 260l168 88q56 -256 352 -256q139 0 228.5 56t109.5 153q24 116 -74 178q-85 54 -223 98q-93 32 -154.5 63.5t-123.5 81.5q-130 112 -93 306q34 177 179 272q143 94 319 94q172 0 289 -83.5t168 -227.5l-168 -86q-77 213 -303 213
q-108 0 -190.5 -53.5t-102.5 -143.5q-19 -86 37 -149q20 -26 67 -53q63 -33 185 -78q65 -24 116 -45q37 -13 109 -58q66 -41 98 -82q38 -46 54.5 -116.5t0.5 -151.5q-35 -182 -184 -276q-151 -97 -354 -97z" />
    <glyph glyph-name="uni0406" unicode="&#x406;" horiz-adv-x="497" 
d="M63 0l252 1434h191l-252 -1434h-191z" />
    <glyph glyph-name="uni0407" unicode="&#x407;" horiz-adv-x="497" 
d="M152 1677q6 44 43 75.5t81 31.5t70.5 -31.5t20.5 -75.5q-11 -45 -47 -76.5t-80 -31.5t-70 32t-18 76zM541 1677q6 44 43 75.5t82 31.5q44 0 70 -31.5t20 -75.5q-11 -45 -47 -76.5t-80 -31.5t-70 32t-18 76zM63 0l252 1434h191l-252 -1434h-191z" />
    <glyph glyph-name="uni0408" unicode="&#x408;" horiz-adv-x="1140" 
d="M449 -27q-328 0 -420 265l172 92q53 -170 264 -170q138 0 225.5 66.5t110.5 193.5l178 1014h190l-178 -1018q-41 -227 -190 -334q-148 -109 -352 -109z" />
    <glyph glyph-name="uni0409" unicode="&#x409;" horiz-adv-x="2017" 
d="M1266 846h288q182 0 293 -129q115 -127 80 -309t-180 -295q-143 -113 -342 -113h-479l221 1253h-514l-113 -632q-72 -402 -229 -527q-77 -62 -159.5 -84.5t-192.5 -11.5l28 172q144 -19 230 83.5t135 367.5l141 813h895zM1737 426q20 108 -40.5 175t-172.5 67h-291
l-86 -490h291q110 0 194.5 69.5t104.5 178.5z" />
    <glyph glyph-name="uni040A" unicode="&#x40a;" horiz-adv-x="1992" 
d="M1243 846h289q182 0 293 -129q112 -128 78 -309t-181 -295q-143 -113 -340 -113h-479l117 668h-649l-117 -668h-191l252 1434h191l-103 -588h650l102 588h191zM1714 426q20 107 -41.5 174.5t-173.5 67.5h-289l-86 -490h289q111 0 196 69.5t105 178.5z" />
    <glyph glyph-name="uni040B" unicode="&#x40b;" horiz-adv-x="1423" 
d="M979 963q186 0 279 -103.5t63 -290.5l-100 -569h-191l100 561q20 121 -29 175.5t-163 54.5q-147 0 -289 -68l-127 -723h-190l221 1253h-385l31 181h1018l-31 -181h-443l-63 -350q154 60 299 60z" />
    <glyph glyph-name="uni040C" unicode="&#x40c;" horiz-adv-x="1208" 
d="M872 1841h220l-248 -270h-176zM1104 1434h242l-771 -707l529 -727h-213l-512 705l-125 -705h-191l252 1434h191l-113 -646z" />
    <glyph glyph-name="uni040E" unicode="&#x40e;" horiz-adv-x="1187" 
d="M545 1741h553l-27 -156h-553zM657 612l478 822h194l-633 -1094q-112 -191 -243 -271t-310 -69l31 172q117 -8 197 39t147 162l23 39l-322 1022h182z" />
    <glyph glyph-name="uni040F" unicode="&#x40f;" horiz-adv-x="1347" 
d="M944 180l221 1254h191l-252 -1434h-426l-49 -274h-189l49 274h-426l252 1434h191l-221 -1254h659z" />
    <glyph glyph-name="uni0410" unicode="&#x410;" horiz-adv-x="1316" 
d="M1210 0h-200l-58 322h-645l-176 -322h-207l789 1434h215zM791 1210l-388 -710h517z" />
    <glyph glyph-name="uni0411" unicode="&#x411;" horiz-adv-x="1202" 
d="M1176 1434l-31 -181h-670l-67 -383h348q177 0 288 -135q112 -136 78 -319q-34 -184 -178 -301q-145 -115 -342 -115h-539l252 1434h861zM723 692h-348l-90 -514h348q107 0 196 74q88 73 109 184q20 114 -42 185t-173 71z" />
    <glyph glyph-name="uni0412" unicode="&#x412;" horiz-adv-x="1259" 
d="M1221 1032q-30 -191 -205 -293q88 -52 128 -141t23 -203q-24 -168 -159 -282q-131 -113 -330 -113h-615l252 1434h545q176 0 281 -117q107 -116 80 -285zM1032 1036q17 91 -35.5 155t-148.5 64h-373l-78 -438h381q91 0 164 63.5t90 155.5zM793 643h-426l-82 -465h417
q102 0 182 67.5t97 166.5q17 98 -37 164.5t-151 66.5z" />
    <glyph glyph-name="uni0413" unicode="&#x413;" horiz-adv-x="993" 
d="M315 1434h805l-30 -181h-615l-221 -1253h-191z" />
    <glyph glyph-name="uni0414" unicode="&#x414;" horiz-adv-x="1423" 
d="M451 1434h915l-221 -1254h153l-79 -454h-189l49 274h-948l-49 -274h-188l79 454h123q165 171 223 504zM319 180h637l189 1075h-535l-102 -575q-58 -331 -189 -500z" />
    <glyph glyph-name="uni0415" unicode="&#x415;" horiz-adv-x="1085" 
d="M1161 1434l-31 -181h-655l-78 -440h604l-32 -178h-604l-80 -455h665l-30 -180h-857l252 1434h846z" />
    <glyph glyph-name="uni0416" unicode="&#x416;" horiz-adv-x="1777" 
d="M1657 1434h229l-684 -715l451 -719h-201l-436 688l-121 -688h-190l120 686l-649 -686h-231l710 752l-440 682h201l426 -656l114 656h191l-115 -654z" />
    <glyph glyph-name="uni0417" unicode="&#x417;" horiz-adv-x="1157" 
d="M1124 1042q-35 -213 -233 -307q100 -51 145 -144.5t25 -211.5q-33 -189 -180.5 -297.5t-388.5 -108.5q-185 0 -301.5 88.5t-159.5 241.5l172 88q31 -120 102.5 -178.5t216.5 -58.5q144 0 237.5 68.5t114.5 180.5q19 112 -46 176t-203 64h-168l30 174h119q131 0 221 67
t109 173q19 100 -46 162.5t-192 62.5q-212 0 -344 -217l-151 100q175 295 528 295q199 0 311 -121q113 -118 82 -297z" />
    <glyph glyph-name="uni0418" unicode="&#x418;" horiz-adv-x="1388" 
d="M217 0h-154l252 1434h191l-189 -1055l926 1055h154l-252 -1434h-191l187 1055z" />
    <glyph glyph-name="uni0419" unicode="&#x419;" horiz-adv-x="1388" 
d="M1153 1587h-553l27 156h553zM217 0h-154l252 1434h191l-189 -1055l926 1055h154l-252 -1434h-191l187 1055z" />
    <glyph glyph-name="uni041A" unicode="&#x41a;" horiz-adv-x="1208" 
d="M1104 1434h242l-771 -707l529 -727h-213l-512 705l-125 -705h-191l252 1434h191l-113 -646z" />
    <glyph glyph-name="uni041B" unicode="&#x41b;" horiz-adv-x="1411" 
d="M-61 -2l28 172q144 -19 230 83.5t135 367.5l141 813h946l-252 -1434h-190l221 1253h-565l-113 -632q-70 -400 -233 -529q-77 -62 -158.5 -83.5t-189.5 -10.5z" />
    <glyph glyph-name="uni041C" unicode="&#x41c;" horiz-adv-x="1648" 
d="M1434 1434h223l-252 -1434h-188l196 1114l-604 -774h-25l-331 793l-199 -1133h-191l252 1434h209l316 -766z" />
    <glyph glyph-name="uni041D" unicode="&#x41d;" horiz-adv-x="1382" 
d="M1096 825l106 609h189l-252 -1434h-189l113 645h-696l-113 -645h-191l252 1434h191l-107 -609h697z" />
    <glyph glyph-name="uni041E" unicode="&#x41e;" horiz-adv-x="1644" 
d="M733 -27q-309 0 -491 228q-183 230 -125 536q52 309 297 516t565 207q309 0 491 -231q181 -231 129 -541q-56 -311 -299 -514q-245 -201 -567 -201zM760 160q244 0 424 155q184 156 225 394q41 239 -90 401q-132 166 -371 166t-422 -160q-180 -158 -221 -399
q-40 -235 88 -398q129 -159 367 -159z" />
    <glyph glyph-name="uni041F" unicode="&#x41f;" horiz-adv-x="1347" 
d="M315 1434h1041l-252 -1434h-191l222 1253h-660l-221 -1253h-191z" />
    <glyph glyph-name="uni0420" unicode="&#x420;" horiz-adv-x="1206" 
d="M315 1434h506q208 0 318 -134q112 -133 78 -331q-35 -202 -187 -330q-151 -127 -389 -127h-297l-90 -512h-191zM1030 989q23 123 -40.5 194.5t-192.5 71.5h-322l-100 -565h287q146 0 245 83t123 216z" />
    <glyph glyph-name="uni0421" unicode="&#x421;" horiz-adv-x="1515" 
d="M737 -27q-325 0 -501 226q-175 224 -119 538q53 311 295 516q245 207 549 207q207 0 358 -93t225 -259l-170 -90q-120 258 -424 258q-243 0 -426 -160q-180 -158 -221 -399q-41 -245 84 -400q127 -157 367 -157q154 0 285 69.5t218 194.5l158 -100q-118 -163 -297.5 -257
t-380.5 -94z" />
    <glyph glyph-name="uni0422" unicode="&#x422;" horiz-adv-x="1105" 
d="M199 1434h1034l-31 -181h-424l-221 -1253h-188l221 1253h-422z" />
    <glyph glyph-name="uni0423" unicode="&#x423;" horiz-adv-x="1187" 
d="M657 612l478 822h194l-633 -1094q-112 -191 -243 -271t-310 -69l31 172q117 -8 197 39t147 162l23 39l-322 1022h182z" />
    <glyph glyph-name="uni0424" unicode="&#x424;" horiz-adv-x="1660" 
d="M1087 1444l-28 -164q292 -24 457 -178q166 -149 122 -397q-47 -251 -254 -394q-209 -144 -524 -159l-29 -162h-186l29 164q-293 24 -459 176q-163 152 -119 399q44 249 252 393q213 145 524 160l29 162h186zM285 717q-32 -176 77.5 -273.5t342.5 -115.5l137 780
q-238 -18 -382.5 -116t-174.5 -275zM1448 717q30 177 -79.5 275t-340.5 116l-137 -780q238 18 381.5 115t175.5 274z" />
    <glyph glyph-name="uni0425" unicode="&#x425;" horiz-adv-x="1208" 
d="M1083 1434h224l-557 -705l333 -729h-200l-262 569l-451 -569h-225l594 750l-314 684h201l240 -525z" />
    <glyph glyph-name="uni0426" unicode="&#x426;" horiz-adv-x="1413" 
d="M1356 1434l-221 -1254h153l-80 -454h-188l47 274h-1004l252 1434h191l-221 -1254h661l219 1254h191z" />
    <glyph glyph-name="uni0427" unicode="&#x427;" horiz-adv-x="1286" 
d="M983 741l121 693h190l-252 -1434h-190l96 551q-151 -53 -315 -53q-239 0 -355 115.5t-83 308.5l90 512h190l-88 -500q-21 -129 41 -191q65 -65 229 -65q171 0 326 63z" />
    <glyph glyph-name="uni0428" unicode="&#x428;" horiz-adv-x="1941" 
d="M1540 180l219 1254h191l-252 -1434h-1635l252 1434h191l-221 -1254h532l221 1254h189l-219 -1254h532z" />
    <glyph glyph-name="uni0429" unicode="&#x429;" horiz-adv-x="2007" 
d="M1950 1434l-221 -1254h153l-80 -454h-190l49 274h-1598l252 1434h191l-221 -1254h532l221 1254h189l-219 -1254h532l219 1254h191z" />
    <glyph glyph-name="uni042A" unicode="&#x42a;" horiz-adv-x="1429" 
d="M803 0h-518l219 1253h-373l31 181h563l-90 -512h321q192 0 306 -144q118 -146 84 -338q-34 -198 -185 -319q-148 -121 -358 -121zM604 743l-98 -565h328q119 0 208 80q94 82 115 203q23 123 -42.5 202.5t-188.5 79.5h-322z" />
    <glyph glyph-name="uni042B" unicode="&#x42b;" horiz-adv-x="1626" 
d="M582 0h-519l252 1434h191l-92 -512h321q190 0 307 -144q118 -146 84 -338q-35 -202 -184 -321t-360 -119zM1382 0h-190l252 1434h190zM385 743l-100 -565h327q121 0 211 79.5t113 203.5q23 123 -41.5 202.5t-187.5 79.5h-322z" />
    <glyph glyph-name="uni042C" unicode="&#x42c;" horiz-adv-x="1210" 
d="M416 922h319q190 0 307 -144q118 -146 84 -338q-35 -202 -184 -321t-360 -119h-519l252 1434h191zM707 743h-322l-100 -565h327q121 0 211 79.5t113 203.5q23 123 -41.5 202.5t-187.5 79.5z" />
    <glyph glyph-name="uni042D" unicode="&#x42d;" horiz-adv-x="1503" 
d="M852 1460q321 0 489 -223q171 -227 119 -537q-53 -312 -284 -518q-235 -209 -560 -209q-209 0 -359.5 94t-217.5 261l174 92q45 -124 154 -192t266 -68q220 0 385 131q166 132 231 338h-737l33 178h735q9 210 -113 338q-119 131 -336 131q-157 0 -288.5 -72t-214.5 -198
l-158 98q114 164 295 258q180 98 387 98z" />
    <glyph glyph-name="uni042E" unicode="&#x42e;" horiz-adv-x="2144" 
d="M1479 1460q309 0 491 -231q182 -232 127 -541t-299 -512t-565 -203q-284 0 -461 195q-173 194 -158 479h-245l-115 -647h-191l252 1434h191l-107 -607h246q80 281 309 455q230 178 525 178zM1909 709q40 237 -92 401q-132 166 -369 166q-239 0 -422 -160
q-180 -158 -221 -399q-43 -234 86 -398q132 -159 369 -159q243 0 423 155q185 157 226 394z" />
    <glyph glyph-name="uni042F" unicode="&#x42f;" horiz-adv-x="1271" 
d="M717 1434h563l-252 -1434h-188l96 549h-270l-467 -549h-230l484 565q-148 42 -222 164q-74 127 -47 279q34 180 181 303t352 123zM602 721h365l94 534h-373q-116 0 -203 -75q-92 -76 -112 -187t45 -192q65 -80 184 -80z" />
    <glyph glyph-name="uni0430" unicode="&#x430;" horiz-adv-x="1298" 
d="M1042 834l33 190h178l-180 -1024h-178l27 145q-159 -172 -410 -172q-221 0 -346 168t-84 394q40 236 207 374q168 142 375 142q128 0 226 -56.5t152 -160.5zM983 504q34 172 -61 274q-91 101 -246 101q-143 0 -266 -97q-124 -97 -150 -262q-28 -159 57 -266
q89 -109 244 -109q156 0 275 101q120 102 147 258z" />
    <glyph glyph-name="uni0431" unicode="&#x431;" horiz-adv-x="1163" 
d="M518 -27q-218 0 -352 152q-131 149 -90 383q48 270 145 405q102 144 357 258l127 54l116 49q74 29 132.5 78.5t78.5 113.5l135 -82q-26 -71 -67 -114q-4 -5 -14 -15.5t-14 -15t-13 -12.5t-15.5 -13.5t-17 -12t-22.5 -13.5q-14 -8 -35.5 -21.5t-39 -23t-46.5 -21.5
l-64 -26l-74 -29l-69 -27q-143 -56 -219 -114.5t-119 -145.5q150 144 375 144q180 0 299 -140q119 -137 84 -344q-37 -208 -195 -338q-156 -129 -383 -129zM920 455q21 136 -54 223q-76 88 -215 88q-133 0 -254 -80q-119 -79 -143 -215q-24 -139 55 -233q84 -93 226 -93
t251 86q110 90 134 224z" />
    <glyph glyph-name="uni0432" unicode="&#x432;" horiz-adv-x="1030" 
d="M967 731q-27 -146 -150 -211q69 -35 100 -100.5t17 -145.5q-24 -128 -120.5 -201t-256.5 -73h-512l180 1024h471q140 0 217 -86q75 -81 54 -207zM659 864h-288l-47 -268h280q168 0 189 137q12 62 -23.5 96.5t-110.5 34.5zM762 303q11 64 -25.5 99.5t-113.5 35.5h-326
l-49 -276h327q74 0 124.5 37.5t62.5 103.5z" />
    <glyph glyph-name="uni0433" unicode="&#x433;" horiz-adv-x="815" 
d="M225 1024h672l-31 -172h-493l-150 -852h-178z" />
    <glyph glyph-name="uni0434" unicode="&#x434;" horiz-adv-x="1214" 
d="M350 1024h756l-150 -854h142l-80 -444h-176l49 274h-768l-49 -274h-178l79 444h127q122 134 166 379zM311 170h469l121 688h-403l-54 -309q-43 -233 -133 -379z" />
    <glyph glyph-name="uni0435" unicode="&#x435;" 
d="M690 1051q230 0 354 -160q126 -156 82 -381q-2 -25 -20 -80h-856q0 -135 84.5 -212t226.5 -77q204 0 326 152l133 -96q-78 -105 -205 -164.5t-274 -59.5q-243 0 -371 162t-88 397q41 226 211 371q174 148 397 148zM276 588h682q6 143 -69.5 219t-208.5 76
q-143 0 -251.5 -79.5t-152.5 -215.5z" />
    <glyph glyph-name="uni0436" unicode="&#x436;" horiz-adv-x="1427" 
d="M1255 1024h207l-495 -508l333 -516h-188l-317 492l-86 -492h-177l86 487l-471 -487h-202l524 545l-324 479h191l297 -449l80 449h176l-80 -459z" />
    <glyph glyph-name="uni0437" unicode="&#x437;" horiz-adv-x="917" 
d="M852 733q-27 -155 -160 -217q72 -38 104.5 -106t18.5 -150q-24 -131 -137 -209t-297 -78q-156 0 -252.5 66t-126.5 180l156 82q30 -162 243 -162q101 0 166 44t76 114q12 62 -27 100.5t-118 38.5h-150l31 162h108q78 0 128.5 37.5t62.5 103.5q11 67 -34 107.5t-136 40.5
q-173 0 -256 -148l-137 88q149 224 409 224q169 0 260 -97q89 -95 68 -221z" />
    <glyph glyph-name="uni0438" unicode="&#x438;" horiz-adv-x="1157" 
d="M276 315l693 709h143l-180 -1024h-176l123 709l-691 -709h-143l180 1024h176z" />
    <glyph glyph-name="uni0439" unicode="&#x439;" horiz-adv-x="1157" 
d="M973 1178h-553l26 155h553zM276 315l693 709h143l-180 -1024h-176l123 709l-691 -709h-143l180 1024h176z" />
    <glyph glyph-name="uni043A" unicode="&#x43a;" horiz-adv-x="1028" 
d="M840 1024h229l-577 -496l415 -528h-205l-391 504l-88 -504h-178l180 1024h178l-77 -444z" />
    <glyph glyph-name="uni043B" unicode="&#x43b;" horiz-adv-x="1124" 
d="M319 1024h760l-180 -1024h-178l149 852h-403l-72 -418q-46 -262 -162 -358q-114 -91 -303 -76l29 168q107 -12 168 49t90 221z" />
    <glyph glyph-name="uni043C" unicode="&#x43c;" horiz-adv-x="1296" 
d="M1049 1024h200l-180 -1024h-174l131 741l-418 -522h-22l-234 526l-131 -745h-176l180 1024h185l225 -520z" />
    <glyph glyph-name="uni043D" unicode="&#x43d;" horiz-adv-x="1157" 
d="M858 598l76 426h178l-180 -1024h-178l75 428h-530l-76 -428h-178l180 1024h178l-75 -426h530z" />
    <glyph glyph-name="uni043E" unicode="&#x43e;" horiz-adv-x="1234" 
d="M539 -27q-225 0 -365 158q-138 156 -94 399q44 238 225 379q183 142 406 142q218 0 352 -158q133 -157 92 -395q-40 -242 -219 -383q-180 -142 -397 -142zM553 147q149 0 272 99q127 100 154 270q27 168 -61 262q-88 99 -236 99q-143 -3 -268 -99q-121 -93 -156 -266
q-27 -174 59 -270q92 -98 236 -95z" />
    <glyph glyph-name="uni043F" unicode="&#x43f;" horiz-adv-x="1157" 
d="M225 1024h887l-180 -1024h-178l149 854h-530l-150 -854h-178z" />
    <glyph glyph-name="uni0440" unicode="&#x440;" horiz-adv-x="1298" 
d="M786 1051q219 0 344 -168q129 -170 89 -391q-40 -236 -207 -377q-165 -142 -373 -142q-128 0 -229 58.5t-152 163.5l-106 -605h-179l252 1434h178l-26 -152q159 179 409 179zM1040 504q27 157 -59 266t-242 109q-157 0 -276 -101q-122 -103 -148 -256q-30 -174 62 -276
q94 -101 248 -101q145 0 266 95q122 96 149 264z" />
    <glyph glyph-name="uni0441" unicode="&#x441;" horiz-adv-x="1124" 
d="M532 -27q-228 0 -360 164q-131 165 -90 398q41 229 213 370q178 146 403 146q153 0 266 -72t158 -195l-157 -82q-67 175 -281 175q-155 0 -276 -103t-148 -254q-27 -157 55 -264q81 -106 240 -106q103 0 190.5 48t143.5 134l143 -94q-78 -125 -210 -195t-290 -70z" />
    <glyph glyph-name="uni0442" unicode="&#x442;" horiz-adv-x="917" 
d="M111 1024h876l-31 -172h-348l-149 -852h-178l149 852h-348z" />
    <glyph glyph-name="uni0443" unicode="&#x443;" horiz-adv-x="1054" 
d="M489 215l443 809h198l-608 -1087q-205 -368 -516 -347l29 166q94 -7 164.5 42t138.5 163l31 49l-263 1014h181z" />
    <glyph glyph-name="uni0444" unicode="&#x444;" horiz-adv-x="1386" 
d="M942 1434l-68 -392q230 -27 349 -182q121 -155 84 -362q-38 -215 -205 -357q-165 -140 -416 -161l-68 -390h-176l68 392q-228 27 -348 180q-120 155 -82 364q38 214 205 353q170 144 413 165l68 390h176zM844 872l-127 -720q165 20 276.5 118.5t136.5 241.5t-51.5 241.5
t-234.5 118.5zM541 152l127 720q-166 -23 -276.5 -120.5t-135.5 -239.5t51 -239.5t234 -120.5z" />
    <glyph glyph-name="uni0445" unicode="&#x445;" horiz-adv-x="1054" 
d="M870 1024h222l-459 -506l301 -518h-197l-225 387l-350 -387h-221l485 535l-283 489h197l207 -356z" />
    <glyph glyph-name="uni0446" unicode="&#x446;" horiz-adv-x="1218" 
d="M1085 1024l-149 -854h166l-78 -444h-176l49 274h-852l180 1024h178l-149 -854h504l149 854h178z" />
    <glyph glyph-name="uni0447" unicode="&#x447;" horiz-adv-x="1093" 
d="M784 535l86 489h179l-181 -1024h-178l64 362q-149 -47 -281 -47q-193 0 -286.5 100t-63.5 269l59 340h178l-57 -330q-38 -213 199 -213q114 0 282 54z" />
    <glyph glyph-name="uni0448" unicode="&#x448;" horiz-adv-x="1675" 
d="M1300 170l150 854h178l-180 -1024h-1403l180 1024h178l-149 -854h434l150 854h178l-150 -854h434z" />
    <glyph glyph-name="uni0449" unicode="&#x449;" horiz-adv-x="1726" 
d="M1440 1024h178l-150 -854h142l-80 -444h-176l49 274h-1358l180 1024h178l-149 -854h430l150 854h178l-150 -854h428z" />
    <glyph glyph-name="uni044A" unicode="&#x44a;" horiz-adv-x="1130" 
d="M487 655h254q147 0 234 -100q90 -100 63 -242q-25 -145 -136.5 -229t-274.5 -84h-432l149 852h-283l29 172h463zM864 328q12 73 -31.5 118.5t-119.5 45.5h-254l-58 -326h254q77 0 136.5 45t72.5 117z" />
    <glyph glyph-name="uni044B" unicode="&#x44b;" horiz-adv-x="1372" 
d="M338 655h256q146 0 233 -100q90 -101 64 -242q-26 -145 -138.5 -229t-275.5 -84h-432l180 1024h178zM967 0l180 1024h178l-180 -1024h-178zM715 328q13 72 -31 118t-121 46h-254l-57 -326h254q77 0 137 45t72 117z" />
    <glyph glyph-name="uni044C" unicode="&#x44c;" horiz-adv-x="983" 
d="M338 655h256q146 0 233 -100q90 -101 64 -242q-26 -145 -138.5 -229t-275.5 -84h-432l180 1024h178zM715 328q13 72 -31 118t-121 46h-254l-57 -326h254q77 0 137 45t72 117z" />
    <glyph glyph-name="uni044D" unicode="&#x44d;" horiz-adv-x="1124" 
d="M594 1051q231 0 360 -166q129 -163 88 -396q-40 -228 -213 -372t-405 -144q-149 0 -263.5 72.5t-158.5 194.5l156 82q62 -177 284 -177q133 0 246 78q112 75 160 205h-459l31 168h454q-5 129 -86.5 206t-216.5 77q-105 0 -194 -49.5t-144 -135.5l-141 92
q78 124 211.5 194.5t290.5 70.5z" />
    <glyph glyph-name="uni044E" unicode="&#x44e;" horiz-adv-x="1646" 
d="M1122 1051q219 0 353 -158q133 -157 92 -395q-40 -242 -219 -383q-177 -142 -396 -142q-203 0 -334 125q-129 126 -126 330h-193l-76 -428h-178l180 1024h178l-75 -426h190q62 213 230 332q171 121 374 121zM1391 516q30 166 -60 262q-89 99 -237 99q-146 -3 -271 -99
q-123 -94 -153 -266q-27 -171 59 -268q89 -100 236 -97q149 0 272 99q127 100 154 270z" />
    <glyph glyph-name="uni044F" unicode="&#x44f;" horiz-adv-x="1036" 
d="M555 1024h436l-180 -1024h-176l65 369h-155l-348 -369h-215l366 383q-106 35 -164 123q-60 93 -39 203q24 139 138 227q113 88 272 88zM475 528h252l59 330h-254q-79 0 -138.5 -46.5t-71.5 -119.5q-13 -73 30.5 -118.5t122.5 -45.5z" />
    <glyph glyph-name="uni0451" unicode="&#x451;" 
d="M451 1270q6 44 42.5 75t81.5 31q44 0 70.5 -31t20.5 -75q-11 -45 -47 -77t-80 -32t-70 32.5t-18 76.5zM840 1270q6 44 43 75t82 31q44 0 70 -31t20 -75q-11 -45 -47 -77t-80 -32t-70 32.5t-18 76.5zM690 1051q230 0 354 -160q126 -156 82 -381q-2 -25 -20 -80h-856
q0 -135 84.5 -212t226.5 -77q204 0 326 152l133 -96q-78 -105 -205 -164.5t-274 -59.5q-243 0 -371 162t-88 397q41 226 211 371q174 148 397 148zM276 588h682q6 143 -69.5 219t-208.5 76q-143 0 -251.5 -79.5t-152.5 -215.5z" />
    <glyph glyph-name="uni0452" unicode="&#x452;" horiz-adv-x="1171" 
d="M748 1051q180 0 272 -115q95 -115 61 -307l-123 -690q-70 -399 -458 -375l30 172q209 -18 250 203l121 679q23 127 -31.5 195t-177.5 68q-136 0 -231 -86t-123 -252v2l-96 -545h-179l205 1165h-137l23 131h137l24 138h179l-25 -138h295l-23 -131h-295l-49 -274
q133 160 351 160z" />
    <glyph glyph-name="uni0453" unicode="&#x453;" horiz-adv-x="815" 
d="M627 1434h219l-248 -271h-176zM225 1024h672l-31 -172h-493l-150 -852h-178z" />
    <glyph glyph-name="uni0454" unicode="&#x454;" horiz-adv-x="1124" 
d="M551 145q104 0 194 49.5t146 135.5l141 -92q-78 -124 -211.5 -194.5t-292.5 -70.5q-224 0 -356 166q-131 165 -90 396q41 229 213 370q178 146 405 146q149 0 263.5 -72t158.5 -195l-155 -79q-31 81 -105 127.5t-178 46.5q-134 0 -245.5 -79t-159.5 -204h456l-30 -168
h-455q6 -124 89 -203.5t212 -79.5z" />
    <glyph glyph-name="uni0455" unicode="&#x455;" horiz-adv-x="968" 
d="M420 -27q-150 0 -248 65t-135 183l160 82q18 -74 80 -118t157 -44q92 0 151.5 35t71.5 100q8 44 -18.5 75t-74.5 51t-106.5 38t-116.5 42.5t-103 58t-66.5 91.5t-7.5 136q21 125 131 203q112 80 258 80q261 0 356 -213l-157 -82q-40 129 -207 129q-76 0 -134 -35.5
t-69 -99.5q-10 -57 37 -94.5t137 -65.5q60 -16 99 -29.5t91.5 -41t80.5 -60t43.5 -85.5t3.5 -118q-25 -134 -135 -208.5t-279 -74.5z" />
    <glyph glyph-name="uni0456" unicode="&#x456;" horiz-adv-x="450" 
d="M348 1210q-49 0 -77.5 34.5t-20.5 84.5q8 52 47 86.5t92 34.5q49 0 78.5 -35.5t21.5 -85.5q-11 -52 -49.5 -85.5t-91.5 -33.5zM223 0h-178l180 1024h178z" />
    <glyph glyph-name="uni0457" unicode="&#x457;" horiz-adv-x="450" 
d="M57 1268q6 44 43 75t82 31q44 0 70 -31t20 -75q-11 -45 -47 -77t-80 -32t-70 32.5t-18 76.5zM446 1268q6 44 43 75t82 31q44 0 70.5 -31t20.5 -75q-11 -45 -47 -77t-80 -32t-70.5 32.5t-18.5 76.5zM223 0h-178l180 1024h178z" />
    <glyph glyph-name="uni0458" unicode="&#x458;" horiz-adv-x="493" 
d="M532 1329q-8 -51 -47.5 -85t-93.5 -34q-50 0 -77.5 35t-20.5 83.5t47 84.5q31 28 69.5 34t68 -7t46 -43t8.5 -68zM80 -61l190 1085h179l-191 -1085q-36 -212 -148.5 -300.5t-312.5 -74.5l31 172q110 -11 171 37.5t81 165.5z" />
    <glyph glyph-name="uni0459" unicode="&#x459;" horiz-adv-x="1607" 
d="M987 621h244q137 0 221 -93q86 -89 59 -233q-24 -139 -129.5 -217t-261.5 -78h-420l150 852h-383l-72 -418q-46 -252 -159.5 -352t-305.5 -82l29 168q106 -18 167 44.5t91 225.5l102 586h740zM1337 309q12 71 -25.5 108.5t-109.5 37.5h-244l-51 -289h244q71 0 122.5 37
t63.5 106z" />
    <glyph glyph-name="uni045A" unicode="&#x45a;" horiz-adv-x="1624" 
d="M1004 621h243q139 0 223 -93q84 -90 60 -233q-26 -141 -130.5 -218t-260.5 -77h-422l80 451h-494l-80 -451h-178l180 1024h178l-71 -403h493l72 403h178zM1221 455h-246l-51 -289h243q72 0 123.5 37t63.5 106q12 70 -25.5 108t-107.5 38z" />
    <glyph glyph-name="uni045B" unicode="&#x45b;" horiz-adv-x="1171" 
d="M748 1051q180 0 272 -115q95 -115 61 -307l-110 -629h-178l108 618q23 127 -31.5 195t-177.5 68q-136 0 -231 -86t-123 -252v2l-96 -545h-179l205 1165h-137l23 131h137l24 138h179l-25 -138h295l-23 -131h-295l-49 -274q133 160 351 160z" />
    <glyph glyph-name="uni045C" unicode="&#x45c;" horiz-adv-x="1028" 
d="M719 1434h219l-248 -271h-176zM840 1024h229l-577 -496l415 -528h-205l-391 504l-88 -504h-178l180 1024h178l-77 -444z" />
    <glyph glyph-name="uni045E" unicode="&#x45e;" horiz-adv-x="1054" 
d="M360 1333h553l-26 -155h-553zM489 215l443 809h198l-608 -1087q-205 -368 -516 -347l29 166q94 -7 164.5 42t138.5 163l31 49l-263 1014h181z" />
    <glyph glyph-name="uni045F" unicode="&#x45f;" horiz-adv-x="1157" 
d="M784 170l150 854h178l-180 -1024h-357l-47 -274h-176l47 274h-354l180 1024h178l-149 -854h530z" />
    <glyph glyph-name="uni0490" unicode="&#x490;" horiz-adv-x="993" 
d="M932 1434l43 245h190l-75 -426h-615l-221 -1253h-191l252 1434h617z" />
    <glyph glyph-name="uni0491" unicode="&#x491;" horiz-adv-x="815" 
d="M721 1024l37 211h176l-68 -383h-493l-150 -852h-178l180 1024h496z" />
    <glyph glyph-name="Wgrave" unicode="&#x1e80;" horiz-adv-x="2048" 
d="M1319 1573h-172l-162 270h211zM373 0h221l541 1145l139 -1145h221l664 1434h-203l-541 -1184l-141 1184h-193l-557 -1184l-123 1184h-188z" />
    <glyph glyph-name="wgrave" unicode="&#x1e81;" horiz-adv-x="1583" 
d="M891 1434l123 -271h-172l-162 271h211zM1067 244l360 780h195l-500 -1024h-182l-104 760l-369 -760h-186l-140 1024h176l95 -778l372 778h179l-2 -4z" />
    <glyph glyph-name="Wacute" unicode="&#x1e82;" horiz-adv-x="2048" 
d="M1090 1573l204 270h219l-247 -270h-176zM373 0h221l541 1145l139 -1145h221l664 1434h-203l-541 -1184l-141 1184h-193l-557 -1184l-123 1184h-188z" />
    <glyph glyph-name="wacute" unicode="&#x1e83;" horiz-adv-x="1583" 
d="M989 1434h219l-247 -271h-177zM1067 244l360 780h195l-500 -1024h-182l-104 760l-369 -760h-186l-140 1024h176l95 -778l372 778h179l-2 -4z" />
    <glyph glyph-name="Wdieresis" unicode="&#x1e84;" horiz-adv-x="2048" 
d="M928 1677q6 44 43 75.5t82 31.5q44 0 70 -31.5t20 -75.5q-11 -45 -47 -76.5t-80 -31.5t-70 32t-18 76zM1317 1677q6 44 43 75.5t82 31.5q44 0 70 -31.5t20 -75.5q-11 -45 -47 -76.5t-80 -31.5t-70 32t-18 76zM594 0h-221l-160 1434h188l123 -1184l557 1184h193l141 -1184
l541 1184h203l-664 -1434h-221l-139 1145z" />
    <glyph glyph-name="wdieresis" unicode="&#x1e85;" horiz-adv-x="1583" 
d="M623 1268q6 44 43 75t82 31q44 0 70 -31t20 -75q-11 -45 -47 -77t-80 -32t-70 32.5t-18 76.5zM1012 1268q6 44 43 75t82 31q44 0 70 -31t20 -75q-11 -45 -47 -77t-80 -32t-70 32.5t-18 76.5zM1067 244l360 780h195l-500 -1024h-182l-104 760l-369 -760h-186l-140 1024
h176l95 -778l372 778h179l-2 -4z" />
    <glyph glyph-name="uni1EA0" unicode="&#x1ea0;" horiz-adv-x="1316" 
d="M473 -414q-49 0 -77.5 34.5t-20.5 84.5q8 52 47 86.5t92 34.5q49 0 78.5 -35.5t21.5 -85.5q-11 -52 -49.5 -85.5t-91.5 -33.5zM1210 0h-200l-58 322h-645l-176 -322h-207l789 1434h215zM791 1210l-388 -710h517z" />
    <glyph glyph-name="uni1EA1" unicode="&#x1ea1;" horiz-adv-x="1298" 
d="M477 -414q-49 0 -77.5 34.5t-20.5 84.5q8 52 47 86.5t92 34.5q49 0 78.5 -35.5t21.5 -85.5q-11 -52 -49.5 -85.5t-91.5 -33.5zM1042 834l33 190h178l-180 -1024h-178l27 145q-159 -172 -410 -172q-221 0 -346 168t-84 394q40 236 207 374q168 142 375 142
q128 0 226 -56.5t152 -160.5zM983 504q34 172 -61 274q-91 101 -246 101q-143 0 -266 -97q-124 -97 -150 -262q-28 -159 57 -266q89 -109 244 -109q156 0 275 101q120 102 147 258z" />
    <glyph glyph-name="uni1EA2" unicode="&#x1ea2;" horiz-adv-x="1316" 
d="M905 1567h-125q12 70 23.5 94t44.5 47q33 19 35 21q43 18 49 51q3 16 -8.5 25.5t-36.5 9.5q-72 0 -105 -64l-106 49q80 135 233 135q77 0 119.5 -39.5t28.5 -113.5q-10 -54 -38.5 -90.5t-64.5 -53.5q-25 -10 -36.5 -24t-12.5 -47zM1210 0h-200l-58 322h-645l-176 -322
h-207l789 1434h215zM791 1210l-388 -710h517z" />
    <glyph glyph-name="uni1EA3" unicode="&#x1ea3;" horiz-adv-x="1298" 
d="M891 1157h-125q12 70 23.5 94t44.5 47q32 19 34 21q44 19 50 51q3 16 -9 25.5t-37 9.5q-71 0 -104 -64l-106 50q80 135 233 135q76 0 118.5 -39.5t28.5 -114.5q-19 -104 -102 -143q-25 -10 -36.5 -24.5t-12.5 -47.5zM1042 834l33 190h178l-180 -1024h-178l27 145
q-159 -172 -410 -172q-221 0 -346 168t-84 394q40 236 207 374q168 142 375 142q128 0 226 -56.5t152 -160.5zM983 504q34 172 -61 274q-91 101 -246 101q-143 0 -266 -97q-124 -97 -150 -262q-28 -159 57 -266q89 -109 244 -109q156 0 275 101q120 102 147 258z" />
    <glyph glyph-name="uni1EA4" unicode="&#x1ea4;" horiz-adv-x="1316" 
d="M1210 0h-200l-58 322h-645l-176 -322h-207l789 1434h215zM791 1210l-388 -710h517zM965 1567l-91 155l-145 -155h-180l246 258h182l158 -258h-170zM1081 1755l191 252h203l-230 -252h-164z" />
    <glyph glyph-name="uni1EA5" unicode="&#x1ea5;" horiz-adv-x="1298" 
d="M942 1157l-90 156l-145 -156h-181l246 258h182l158 -258h-170zM1042 834l33 190h178l-180 -1024h-178l27 145q-159 -172 -410 -172q-221 0 -346 168t-84 394q40 236 207 374q168 142 375 142q128 0 226 -56.5t152 -160.5zM983 504q34 172 -61 274q-91 101 -246 101
q-143 0 -266 -97q-124 -97 -150 -262q-28 -159 57 -266q89 -109 244 -109q156 0 275 101q120 102 147 258zM1059 1346l190 251h203l-229 -251h-164z" />
    <glyph glyph-name="uni1EA6" unicode="&#x1ea6;" horiz-adv-x="1316" 
d="M1210 0h-200l-58 322h-645l-176 -322h-207l789 1434h215zM791 1210l-388 -710h517zM965 1567l-91 155l-145 -155h-180l246 258h182l158 -258h-170zM1264 1755h-160l-152 252h197z" />
    <glyph glyph-name="uni1EA7" unicode="&#x1ea7;" horiz-adv-x="1298" 
d="M942 1157l-90 156l-145 -156h-181l246 258h182l158 -258h-170zM1042 834l33 190h178l-180 -1024h-178l27 145q-159 -172 -410 -172q-221 0 -346 168t-84 394q40 236 207 374q168 142 375 142q128 0 226 -56.5t152 -160.5zM983 504q34 172 -61 274q-91 101 -246 101
q-143 0 -266 -97q-124 -97 -150 -262q-28 -159 57 -266q89 -109 244 -109q156 0 275 101q120 102 147 258zM1241 1346h-160l-151 251h196z" />
    <glyph glyph-name="uni1EA8" unicode="&#x1ea8;" horiz-adv-x="1316" 
d="M1210 0h-200l-58 322h-645l-176 -322h-207l789 1434h215zM791 1210l-388 -710h517zM965 1567l-91 155l-145 -155h-180l246 258h182l158 -258h-170zM1188 1755h-117q12 65 23 88.5t41 44.5q30 17 32 19q1 0 5 2.5t6 3.5t6.5 3.5t7 4.5t6.5 6t6.5 7.5t4.5 8.5t3 11
q3 14 -8 23.5t-33 9.5q-67 0 -98 -60l-98 45q75 127 217 127q72 0 111 -36.5t26 -106.5q-19 -99 -96 -133q-23 -10 -33.5 -23.5t-11.5 -44.5z" />
    <glyph glyph-name="uni1EA9" unicode="&#x1ea9;" horiz-adv-x="1298" 
d="M942 1157l-90 156l-145 -156h-181l246 258h182l158 -258h-170zM1042 834l33 190h178l-180 -1024h-178l27 145q-159 -172 -410 -172q-221 0 -346 168t-84 394q40 236 207 374q168 142 375 142q128 0 226 -56.5t152 -160.5zM983 504q34 172 -61 274q-91 101 -246 101
q-143 0 -266 -97q-124 -97 -150 -262q-28 -159 57 -266q89 -109 244 -109q156 0 275 101q120 102 147 258zM1165 1346h-116q13 66 23 89t40 44q31 16 33 18q1 0 5 2.5t6 3.5t6.5 3.5t7 4.5t6.5 6t6.5 7.5t4.5 8.5t3 11q3 14 -8 23.5t-33 9.5q-68 0 -98 -59l-99 45
q75 127 217 127q72 0 111.5 -37t26.5 -107q-10 -51 -36.5 -84.5t-60.5 -48.5q-23 -10 -33.5 -23t-11.5 -44z" />
    <glyph glyph-name="uni1EAA" unicode="&#x1eaa;" horiz-adv-x="1316" 
d="M1210 0h-200l-58 322h-645l-176 -322h-207l789 1434h215zM791 1210l-388 -710h517zM965 1567l-91 155l-145 -155h-180l246 258h182l158 -258h-170zM743 1880h-141q13 92 48.5 150t81.5 76.5t97 8t99 -48.5q60 -60 95 -52t50 95h139q-17 -119 -72 -181.5t-122 -60
t-129 57.5q-58 59 -95 50.5t-51 -95.5z" />
    <glyph glyph-name="uni1EAB" unicode="&#x1eab;" horiz-adv-x="1298" 
d="M942 1157l-90 156l-145 -156h-181l246 258h182l158 -258h-170zM1042 834l33 190h178l-180 -1024h-178l27 145q-159 -172 -410 -172q-221 0 -346 168t-84 394q40 236 207 374q168 142 375 142q128 0 226 -56.5t152 -160.5zM983 504q34 172 -61 274q-91 101 -246 101
q-143 0 -266 -97q-124 -97 -150 -262q-28 -159 57 -266q89 -109 244 -109q156 0 275 101q120 102 147 258zM721 1470h-141q13 92 48.5 150t81.5 76.5t96.5 8.5t98.5 -48q60 -60 95.5 -52t50.5 95h139q-13 -90 -48.5 -149t-81.5 -78.5t-97 -8.5t-97 52q-41 38 -68.5 48
t-47 -12.5t-29.5 -81.5z" />
    <glyph glyph-name="uni1EAC" unicode="&#x1eac;" horiz-adv-x="1316" 
d="M1210 0h-200l-58 322h-645l-176 -322h-207l789 1434h215zM791 1210l-388 -710h517zM965 1567l-91 155l-145 -155h-180l246 258h182l158 -258h-170zM473 -414q-49 0 -77.5 34.5t-20.5 84.5q8 52 47 86.5t92 34.5q49 0 78.5 -35.5t21.5 -85.5q-11 -52 -49.5 -85.5
t-91.5 -33.5z" />
    <glyph glyph-name="uni1EAD" unicode="&#x1ead;" horiz-adv-x="1298" 
d="M942 1157l-90 156l-145 -156h-181l246 258h182l158 -258h-170zM1042 834l33 190h178l-180 -1024h-178l27 145q-159 -172 -410 -172q-221 0 -346 168t-84 394q40 236 207 374q168 142 375 142q128 0 226 -56.5t152 -160.5zM983 504q34 172 -61 274q-91 101 -246 101
q-143 0 -266 -97q-124 -97 -150 -262q-28 -159 57 -266q89 -109 244 -109q156 0 275 101q120 102 147 258zM477 -414q-49 0 -77.5 34.5t-20.5 84.5q8 52 47 86.5t92 34.5q49 0 78.5 -35.5t21.5 -85.5q-11 -52 -49.5 -85.5t-91.5 -33.5z" />
    <glyph glyph-name="uni1EAE" unicode="&#x1eae;" horiz-adv-x="1316" 
d="M1210 0h-200l-58 322h-645l-176 -322h-207l789 1434h215zM791 1210l-388 -710h517zM846 1550q-130 0 -197.5 69t-46.5 189h154q-21 -125 106 -125q130 0 154 125h153q-22 -125 -104.5 -191.5t-218.5 -66.5zM793 1843l190 252h203l-230 -252h-163z" />
    <glyph glyph-name="uni1EAF" unicode="&#x1eaf;" horiz-adv-x="1298" 
d="M842 1141q-130 0 -197.5 69t-46.5 189h154q-21 -125 106 -125q130 0 154 125h153q-22 -125 -104.5 -191.5t-218.5 -66.5zM1042 834l33 190h178l-180 -1024h-178l27 145q-159 -172 -410 -172q-221 0 -346 168t-84 394q40 236 207 374q168 142 375 142q128 0 226 -56.5
t152 -160.5zM983 504q34 172 -61 274q-91 101 -246 101q-143 0 -266 -97q-124 -97 -150 -262q-28 -159 57 -266q89 -109 244 -109q156 0 275 101q120 102 147 258zM788 1434l191 252h203l-230 -252h-164z" />
    <glyph glyph-name="uni1EB0" unicode="&#x1eb0;" horiz-adv-x="1316" 
d="M1210 0h-200l-58 322h-645l-176 -322h-207l789 1434h215zM791 1210l-388 -710h517zM846 1550q-130 0 -197.5 69t-46.5 189h154q-21 -125 106 -125q130 0 154 125h153q-22 -125 -104.5 -191.5t-218.5 -66.5zM985 1843h-160l-151 252h196z" />
    <glyph glyph-name="uni1EB1" unicode="&#x1eb1;" horiz-adv-x="1298" 
d="M842 1141q-130 0 -197.5 69t-46.5 189h154q-21 -125 106 -125q130 0 154 125h153q-22 -125 -104.5 -191.5t-218.5 -66.5zM1042 834l33 190h178l-180 -1024h-178l27 145q-159 -172 -410 -172q-221 0 -346 168t-84 394q40 236 207 374q168 142 375 142q128 0 226 -56.5
t152 -160.5zM983 504q34 172 -61 274q-91 101 -246 101q-143 0 -266 -97q-124 -97 -150 -262q-28 -159 57 -266q89 -109 244 -109q156 0 275 101q120 102 147 258zM981 1434h-160l-151 252h196z" />
    <glyph glyph-name="uni1EB2" unicode="&#x1eb2;" horiz-adv-x="1316" 
d="M1210 0h-200l-58 322h-645l-176 -322h-207l789 1434h215zM791 1210l-388 -710h517zM846 1550q-130 0 -197.5 69t-46.5 189h154q-21 -125 106 -125q130 0 154 125h153q-22 -125 -104.5 -191.5t-218.5 -66.5zM948 1843h-117q12 65 23 88.5t41 44.5q31 17 33 19q1 0 5 2.5
t6 3.5t6.5 3.5t7 4.5t6.5 6t6.5 7.5t4.5 8.5t3 11q3 14 -8 23.5t-33 9.5q-67 0 -98 -60l-99 45q75 127 217 127q72 0 111.5 -36.5t26.5 -106.5q-10 -51 -36.5 -84.5t-60.5 -48.5q-23 -10 -33.5 -23.5t-11.5 -44.5z" />
    <glyph glyph-name="uni1EB3" unicode="&#x1eb3;" horiz-adv-x="1298" 
d="M842 1141q-130 0 -197.5 69t-46.5 189h154q-21 -125 106 -125q130 0 154 125h153q-22 -125 -104.5 -191.5t-218.5 -66.5zM1042 834l33 190h178l-180 -1024h-178l27 145q-159 -172 -410 -172q-221 0 -346 168t-84 394q40 236 207 374q168 142 375 142q128 0 226 -56.5
t152 -160.5zM983 504q34 172 -61 274q-91 101 -246 101q-143 0 -266 -97q-124 -97 -150 -262q-28 -159 57 -266q89 -109 244 -109q156 0 275 101q120 102 147 258zM944 1434h-117q12 65 23 88.5t41 44.5q31 16 33 18q1 0 5 2.5t6 3.5t6.5 3.5t7 4.5t6.5 6t6.5 7.5t4.5 8.5
t3 11q3 14 -8 23.5t-33 9.5q-69 0 -99 -59l-98 45q75 127 217 127q72 0 111 -37t26 -107q-19 -99 -96 -133q-23 -10 -33.5 -23t-11.5 -44z" />
    <glyph glyph-name="uni1EB4" unicode="&#x1eb4;" horiz-adv-x="1316" 
d="M1210 0h-200l-58 322h-645l-176 -322h-207l789 1434h215zM791 1210l-388 -710h517zM846 1550q-130 0 -197.5 69t-46.5 189h154q-21 -125 106 -125q130 0 154 125h153q-22 -125 -104.5 -191.5t-218.5 -66.5zM754 1866h-142q13 92 48.5 150t81.5 76.5t97 8t99 -48.5
q60 -60 95 -52t50 95h140q-13 -90 -48.5 -149t-81.5 -78.5t-97 -8.5t-97 52q-58 59 -94.5 50.5t-50.5 -95.5z" />
    <glyph glyph-name="uni1EB5" unicode="&#x1eb5;" horiz-adv-x="1298" 
d="M842 1141q-130 0 -197.5 69t-46.5 189h154q-21 -125 106 -125q130 0 154 125h153q-22 -125 -104.5 -191.5t-218.5 -66.5zM1042 834l33 190h178l-180 -1024h-178l27 145q-159 -172 -410 -172q-221 0 -346 168t-84 394q40 236 207 374q168 142 375 142q128 0 226 -56.5
t152 -160.5zM983 504q34 172 -61 274q-91 101 -246 101q-143 0 -266 -97q-124 -97 -150 -262q-28 -159 57 -266q89 -109 244 -109q156 0 275 101q120 102 147 258zM750 1456h-142q13 92 48.5 150t81.5 76.5t97 8t99 -48.5q60 -60 95 -51.5t50 95.5h140q-17 -119 -72 -181.5
t-122.5 -60.5t-129.5 57q-58 59 -94.5 50.5t-50.5 -95.5z" />
    <glyph glyph-name="uni1EB6" unicode="&#x1eb6;" horiz-adv-x="1316" 
d="M1210 0h-200l-58 322h-645l-176 -322h-207l789 1434h215zM791 1210l-388 -710h517zM846 1550q-130 0 -197.5 69t-46.5 189h154q-21 -125 106 -125q130 0 154 125h153q-22 -125 -104.5 -191.5t-218.5 -66.5zM473 -414q-49 0 -77.5 34.5t-20.5 84.5q8 52 47 86.5t92 34.5
q49 0 78.5 -35.5t21.5 -85.5q-11 -52 -49.5 -85.5t-91.5 -33.5z" />
    <glyph glyph-name="uni1EB7" unicode="&#x1eb7;" horiz-adv-x="1298" 
d="M842 1141q-130 0 -197.5 69t-46.5 189h154q-21 -125 106 -125q130 0 154 125h153q-22 -125 -104.5 -191.5t-218.5 -66.5zM1042 834l33 190h178l-180 -1024h-178l27 145q-159 -172 -410 -172q-221 0 -346 168t-84 394q40 236 207 374q168 142 375 142q128 0 226 -56.5
t152 -160.5zM983 504q34 172 -61 274q-91 101 -246 101q-143 0 -266 -97q-124 -97 -150 -262q-28 -159 57 -266q89 -109 244 -109q156 0 275 101q120 102 147 258zM477 -414q-49 0 -77.5 34.5t-20.5 84.5q8 52 47 86.5t92 34.5q49 0 78.5 -35.5t21.5 -85.5
q-11 -52 -49.5 -85.5t-91.5 -33.5z" />
    <glyph glyph-name="uni1EB8" unicode="&#x1eb8;" horiz-adv-x="1085" 
d="M424 -414q-49 0 -77.5 34.5t-20.5 84.5q8 52 47 86.5t92 34.5q49 0 78.5 -35.5t21.5 -85.5q-11 -52 -49.5 -85.5t-91.5 -33.5zM1161 1434l-31 -181h-655l-78 -440h604l-32 -178h-604l-80 -455h665l-30 -180h-857l252 1434h846z" />
    <glyph glyph-name="uni1EB9" unicode="&#x1eb9;" 
d="M442 -414q-49 0 -77.5 34.5t-20.5 84.5q8 52 47 86.5t92 34.5q49 0 79 -35.5t22 -85.5q-11 -52 -50 -85.5t-92 -33.5zM690 1051q230 0 354 -160q126 -156 82 -381q-2 -25 -20 -80h-856q0 -135 84.5 -212t226.5 -77q204 0 326 152l133 -96q-78 -105 -205 -164.5
t-274 -59.5q-243 0 -371 162t-88 397q41 226 211 371q174 148 397 148zM276 588h682q6 143 -69.5 219t-208.5 76q-143 0 -251.5 -79.5t-152.5 -215.5z" />
    <glyph glyph-name="uni1EBA" unicode="&#x1eba;" horiz-adv-x="1085" 
d="M844 1567h-125q12 70 23 94.5t44 46.5q33 19 35 21q43 18 49 51q3 16 -8.5 25.5t-36.5 9.5q-71 0 -104 -64l-107 49q80 135 234 135q77 0 119 -39.5t28 -113.5q-19 -105 -102 -144q-25 -10 -36.5 -24t-12.5 -47zM1161 1434l-31 -181h-655l-78 -440h604l-32 -178h-604
l-80 -455h665l-30 -180h-857l252 1434h846z" />
    <glyph glyph-name="uni1EBB" unicode="&#x1ebb;" 
d="M817 1157h-125q12 70 23.5 94t44.5 47q33 19 35 21q43 18 49 51q3 16 -8.5 25.5t-36.5 9.5q-72 0 -105 -64l-106 50q80 135 233 135q77 0 119.5 -40t28.5 -114q-19 -104 -103 -143q-25 -10 -36.5 -24.5t-12.5 -47.5zM690 1051q230 0 354 -160q126 -156 82 -381
q-2 -25 -20 -80h-856q0 -135 84.5 -212t226.5 -77q204 0 326 152l133 -96q-78 -105 -205 -164.5t-274 -59.5q-243 0 -371 162t-88 397q41 226 211 371q174 148 397 148zM276 588h682q6 143 -69.5 219t-208.5 76q-143 0 -251.5 -79.5t-152.5 -215.5z" />
    <glyph glyph-name="uni1EBC" unicode="&#x1ebc;" horiz-adv-x="1085" 
d="M1161 1434l-31 -181h-655l-78 -440h604l-32 -178h-604l-80 -455h665l-30 -180h-857l252 1434h846zM610 1583h-151q14 99 52 162.5t88 84t105.5 9t106.5 -52.5q62 -65 100.5 -56.5t55.5 103.5h151q-13 -97 -51.5 -161t-88 -85.5t-105 -10t-105.5 55.5q-62 65 -101.5 56
t-56.5 -105z" />
    <glyph glyph-name="uni1EBD" unicode="&#x1ebd;" 
d="M690 1051q230 0 354 -160q126 -156 82 -381q-2 -25 -20 -80h-856q0 -135 84.5 -212t226.5 -77q204 0 326 152l133 -96q-78 -105 -205 -164.5t-274 -59.5q-243 0 -371 162t-88 397q41 226 211 371q174 148 397 148zM276 588h682q6 143 -69.5 219t-208.5 76
q-143 0 -251.5 -79.5t-152.5 -215.5zM580 1176h-152q14 99 52 162.5t88 83.5t105.5 8.5t106.5 -52.5q62 -65 100.5 -56.5t55.5 103.5h151q-13 -97 -51.5 -161t-88 -85t-105 -9.5t-105.5 55.5q-62 65 -101 56t-56 -105z" />
    <glyph glyph-name="uni1EBE" unicode="&#x1ebe;" horiz-adv-x="1085" 
d="M885 1567l-90 155l-146 -155h-180l246 258h182l158 -258h-170zM1161 1434l-31 -181h-655l-78 -440h604l-32 -178h-604l-80 -455h665l-30 -180h-857l252 1434h846zM1001 1755l191 252h203l-230 -252h-164z" />
    <glyph glyph-name="uni1EBF" unicode="&#x1ebf;" 
d="M877 1159l-91 156l-145 -156h-180l246 258h182l158 -258h-170zM690 1051q230 0 354 -160q126 -156 82 -381q-2 -25 -20 -80h-856q0 -135 84.5 -212t226.5 -77q204 0 326 152l133 -96q-78 -105 -205 -164.5t-274 -59.5q-243 0 -371 162t-88 397q41 226 211 371
q174 148 397 148zM276 588h682q6 143 -69.5 219t-208.5 76q-143 0 -251.5 -79.5t-152.5 -215.5zM993 1348l191 251h202l-229 -251h-164z" />
    <glyph glyph-name="uni1EC0" unicode="&#x1ec0;" horiz-adv-x="1085" 
d="M885 1567l-90 155l-146 -155h-180l246 258h182l158 -258h-170zM1161 1434l-31 -181h-655l-78 -440h604l-32 -178h-604l-80 -455h665l-30 -180h-857l252 1434h846zM1184 1755h-160l-152 252h197z" />
    <glyph glyph-name="uni1EC1" unicode="&#x1ec1;" 
d="M877 1159l-91 156l-145 -156h-180l246 258h182l158 -258h-170zM690 1051q230 0 354 -160q126 -156 82 -381q-2 -25 -20 -80h-856q0 -135 84.5 -212t226.5 -77q204 0 326 152l133 -96q-78 -105 -205 -164.5t-274 -59.5q-243 0 -371 162t-88 397q41 226 211 371
q174 148 397 148zM276 588h682q6 143 -69.5 219t-208.5 76q-143 0 -251.5 -79.5t-152.5 -215.5zM1176 1348h-160l-152 251h197z" />
    <glyph glyph-name="uni1EC2" unicode="&#x1ec2;" horiz-adv-x="1085" 
d="M885 1567l-90 155l-146 -155h-180l246 258h182l158 -258h-170zM1161 1434l-31 -181h-655l-78 -440h604l-32 -178h-604l-80 -455h665l-30 -180h-857l252 1434h846zM1108 1755h-117q12 65 23 88.5t41 44.5q30 17 32 19q7 4 16 8t18 14.5t12 24.5t-8 23.5t-33 9.5
q-68 0 -99 -60l-98 45q75 127 217 127q72 0 111 -36.5t26 -106.5q-19 -99 -96 -133q-23 -10 -33.5 -23.5t-11.5 -44.5z" />
    <glyph glyph-name="uni1EC3" unicode="&#x1ec3;" 
d="M877 1159l-91 156l-145 -156h-180l246 258h182l158 -258h-170zM690 1051q230 0 354 -160q126 -156 82 -381q-2 -25 -20 -80h-856q0 -135 84.5 -212t226.5 -77q204 0 326 152l133 -96q-78 -105 -205 -164.5t-274 -59.5q-243 0 -371 162t-88 397q41 226 211 371
q174 148 397 148zM276 588h682q6 143 -69.5 219t-208.5 76q-143 0 -251.5 -79.5t-152.5 -215.5zM1100 1348h-117q12 65 23 88.5t41 44.5q30 16 32 18q1 0 5 2.5t6 3.5t6.5 3.5t7 4.5t6.5 6t6.5 7.5t4.5 8.5t3 11q3 14 -8 23.5t-33 9.5q-68 0 -98 -59l-98 45q75 127 217 127
q72 0 111 -37t26 -107q-19 -99 -96 -133q-23 -10 -33.5 -23t-11.5 -44z" />
    <glyph glyph-name="uni1EC4" unicode="&#x1ec4;" horiz-adv-x="1085" 
d="M885 1567l-90 155l-146 -155h-180l246 258h182l158 -258h-170zM1161 1434l-31 -181h-655l-78 -440h604l-32 -178h-604l-80 -455h665l-30 -180h-857l252 1434h846zM664 1880h-142q13 92 48.5 150t81.5 76.5t97 8t99 -48.5q60 -60 95 -52t50 95h140q-13 -90 -48.5 -149
t-81.5 -78.5t-97 -8.5t-97 52q-58 59 -94.5 50.5t-50.5 -95.5z" />
    <glyph glyph-name="uni1EC5" unicode="&#x1ec5;" 
d="M877 1159l-91 156l-145 -156h-180l246 258h182l158 -258h-170zM690 1051q230 0 354 -160q126 -156 82 -381q-2 -25 -20 -80h-856q0 -135 84.5 -212t226.5 -77q204 0 326 152l133 -96q-78 -105 -205 -164.5t-274 -59.5q-243 0 -371 162t-88 397q41 226 211 371
q174 148 397 148zM276 588h682q6 143 -69.5 219t-208.5 76q-143 0 -251.5 -79.5t-152.5 -215.5zM655 1473h-141q13 92 48.5 150t81.5 76.5t97 8t99 -48.5q60 -60 95 -52t50 95h139q-17 -119 -72 -181.5t-122 -60t-129 57.5q-58 59 -95 50.5t-51 -95.5z" />
    <glyph glyph-name="uni1EC6" unicode="&#x1ec6;" horiz-adv-x="1085" 
d="M885 1567l-90 155l-146 -155h-180l246 258h182l158 -258h-170zM1161 1434l-31 -181h-655l-78 -440h604l-32 -178h-604l-80 -455h665l-30 -180h-857l252 1434h846zM424 -414q-49 0 -77.5 34.5t-20.5 84.5q8 52 47 86.5t92 34.5q49 0 78.5 -35.5t21.5 -85.5
q-11 -52 -49.5 -85.5t-91.5 -33.5z" />
    <glyph glyph-name="uni1EC7" unicode="&#x1ec7;" 
d="M877 1159l-91 156l-145 -156h-180l246 258h182l158 -258h-170zM690 1051q230 0 354 -160q126 -156 82 -381q-2 -25 -20 -80h-856q0 -135 84.5 -212t226.5 -77q204 0 326 152l133 -96q-78 -105 -205 -164.5t-274 -59.5q-243 0 -371 162t-88 397q41 226 211 371
q174 148 397 148zM276 588h682q6 143 -69.5 219t-208.5 76q-143 0 -251.5 -79.5t-152.5 -215.5zM442 -414q-49 0 -77.5 34.5t-20.5 84.5q8 52 47 86.5t92 34.5q49 0 79 -35.5t22 -85.5q-11 -52 -50 -85.5t-92 -33.5z" />
    <glyph glyph-name="uni1EC8" unicode="&#x1ec8;" horiz-adv-x="497" 
d="M498 1567h-125q12 70 23 94.5t44 46.5q33 19 35 21q43 18 49 51q3 16 -8.5 25.5t-36.5 9.5q-71 0 -104 -64l-107 49q80 135 234 135q77 0 119 -39.5t28 -113.5q-19 -105 -102 -144q-25 -10 -36.5 -24t-12.5 -47zM63 0l252 1434h191l-252 -1434h-191z" />
    <glyph glyph-name="uni1EC9" unicode="&#x1ec9;" horiz-adv-x="450" 
d="M223 0h-178l180 1024h178zM399 1157h-125q12 70 23.5 94t44.5 47q33 19 35 21q43 18 49 51q3 16 -8.5 25.5t-36.5 9.5q-72 0 -105 -64l-106 50q80 135 233 135q77 0 119.5 -40t28.5 -114q-19 -104 -102 -143q-25 -10 -37 -24.5t-13 -47.5z" />
    <glyph glyph-name="uni1ECA" unicode="&#x1eca;" horiz-adv-x="497" 
d="M88 -414q-49 0 -77.5 34.5t-20.5 84.5q8 52 47 86.5t92 34.5q49 0 78.5 -35.5t21.5 -85.5q-11 -52 -49.5 -85.5t-91.5 -33.5zM63 0l252 1434h191l-252 -1434h-191z" />
    <glyph glyph-name="uni1ECB" unicode="&#x1ecb;" horiz-adv-x="450" 
d="M63 -414q-49 0 -77.5 34.5t-20.5 84.5q8 52 47 86.5t92 34.5q49 0 79 -35.5t22 -85.5q-11 -52 -50 -85.5t-92 -33.5zM223 0h-178l180 1024h178zM340 1151q-49 0 -77.5 34.5t-20.5 84.5q8 52 47 86.5t92 34.5q49 0 78.5 -35.5t21.5 -85.5q-11 -52 -49.5 -85.5t-91.5 -33.5
z" />
    <glyph glyph-name="uni1ECC" unicode="&#x1ecc;" horiz-adv-x="1644" 
d="M627 -414q-49 0 -78 34.5t-21 84.5q8 52 47.5 86.5t92.5 34.5q49 0 78.5 -35.5t21.5 -85.5q-11 -52 -49.5 -85.5t-91.5 -33.5zM733 -27q-309 0 -491 228q-183 230 -125 536q52 309 297 516t565 207q309 0 491 -231q181 -231 129 -541q-56 -311 -299 -514
q-245 -201 -567 -201zM760 160q244 0 424 155q184 156 225 394q41 239 -90 401q-132 166 -371 166t-422 -160q-180 -158 -221 -399q-40 -235 88 -398q129 -159 367 -159z" />
    <glyph glyph-name="uni1ECD" unicode="&#x1ecd;" horiz-adv-x="1234" 
d="M444 -414q-49 0 -77.5 34.5t-20.5 84.5q8 52 47 86.5t92 34.5q49 0 79 -35.5t22 -85.5q-11 -52 -50 -85.5t-92 -33.5zM539 -27q-225 0 -365 158q-138 156 -94 399q44 238 225 379q183 142 406 142q218 0 352 -158q133 -157 92 -395q-40 -242 -219 -383
q-180 -142 -397 -142zM553 147q149 0 272 99q127 100 154 270q27 168 -61 262q-88 99 -236 99q-143 -3 -268 -99q-121 -93 -156 -266q-27 -174 59 -270q92 -98 236 -95z" />
    <glyph glyph-name="uni1ECE" unicode="&#x1ece;" horiz-adv-x="1644" 
d="M1139 1567h-125q12 70 23 94.5t44 46.5q33 19 35 21q43 18 49 51q3 16 -8.5 25.5t-36.5 9.5q-71 0 -104 -64l-107 49q80 135 234 135q77 0 119 -39.5t28 -113.5q-19 -105 -102 -144q-25 -10 -36.5 -24t-12.5 -47zM733 -27q-309 0 -491 228q-183 230 -125 536
q52 309 297 516t565 207q309 0 491 -231q181 -231 129 -541q-56 -311 -299 -514q-245 -201 -567 -201zM760 160q244 0 424 155q184 156 225 394q41 239 -90 401q-132 166 -371 166t-422 -160q-180 -158 -221 -399q-40 -235 88 -398q129 -159 367 -159z" />
    <glyph glyph-name="uni1ECF" unicode="&#x1ecf;" horiz-adv-x="1234" 
d="M848 1157h-125q12 70 23.5 94t44.5 47q32 19 34 21q43 18 49 51q3 16 -8.5 25.5t-36.5 9.5q-71 0 -104 -64l-107 50q80 135 234 135q76 0 118.5 -39.5t28.5 -114.5q-19 -104 -102 -143q-25 -10 -36.5 -24.5t-12.5 -47.5zM539 -27q-225 0 -365 158q-138 156 -94 399
q44 238 225 379q183 142 406 142q218 0 352 -158q133 -157 92 -395q-40 -242 -219 -383q-180 -142 -397 -142zM553 147q149 0 272 99q127 100 154 270q27 168 -61 262q-88 99 -236 99q-143 -3 -268 -99q-121 -93 -156 -266q-27 -174 59 -270q92 -98 236 -95z" />
    <glyph glyph-name="uni1ED0" unicode="&#x1ed0;" horiz-adv-x="1644" 
d="M979 1460q309 0 491 -231q181 -231 129 -541q-56 -311 -299 -514q-245 -201 -567 -201q-309 0 -491 228q-183 230 -125 536q52 309 297 516t565 207zM305 717q-40 -235 88 -398q129 -159 367 -159q244 0 424 155q184 156 225 394q41 239 -90 401q-132 166 -371 166
t-422 -160q-180 -158 -221 -399zM1176 1567l-91 155l-145 -155h-180l246 258h182l158 -258h-170zM1292 1755l191 252h203l-230 -252h-164z" />
    <glyph glyph-name="uni1ED1" unicode="&#x1ed1;" horiz-adv-x="1234" 
d="M877 1163l-91 156l-145 -156h-180l246 258h182l158 -258h-170zM711 1051q218 0 352 -158q133 -157 92 -395q-40 -242 -219 -383q-180 -142 -397 -142q-225 0 -365 158q-138 156 -94 399q44 238 225 379q183 142 406 142zM979 516q27 168 -61 262q-88 99 -236 99
q-143 -3 -268 -99q-121 -93 -156 -266q-27 -174 59 -270q92 -98 236 -95q149 0 272 99q127 100 154 270zM993 1352l191 252h202l-229 -252h-164z" />
    <glyph glyph-name="uni1ED2" unicode="&#x1ed2;" horiz-adv-x="1644" 
d="M979 1460q309 0 491 -231q181 -231 129 -541q-56 -311 -299 -514q-245 -201 -567 -201q-309 0 -491 228q-183 230 -125 536q52 309 297 516t565 207zM305 717q-40 -235 88 -398q129 -159 367 -159q244 0 424 155q184 156 225 394q41 239 -90 401q-132 166 -371 166
t-422 -160q-180 -158 -221 -399zM1176 1567l-91 155l-145 -155h-180l246 258h182l158 -258h-170zM1475 1755h-160l-152 252h197z" />
    <glyph glyph-name="uni1ED3" unicode="&#x1ed3;" horiz-adv-x="1234" 
d="M877 1163l-91 156l-145 -156h-180l246 258h182l158 -258h-170zM711 1051q218 0 352 -158q133 -157 92 -395q-40 -242 -219 -383q-180 -142 -397 -142q-225 0 -365 158q-138 156 -94 399q44 238 225 379q183 142 406 142zM979 516q27 168 -61 262q-88 99 -236 99
q-143 -3 -268 -99q-121 -93 -156 -266q-27 -174 59 -270q92 -98 236 -95q149 0 272 99q127 100 154 270zM1176 1352h-160l-152 252h197z" />
    <glyph glyph-name="uni1ED4" unicode="&#x1ed4;" horiz-adv-x="1644" 
d="M979 1460q309 0 491 -231q181 -231 129 -541q-56 -311 -299 -514q-245 -201 -567 -201q-309 0 -491 228q-183 230 -125 536q52 309 297 516t565 207zM305 717q-40 -235 88 -398q129 -159 367 -159q244 0 424 155q184 156 225 394q41 239 -90 401q-132 166 -371 166
t-422 -160q-180 -158 -221 -399zM1176 1567l-91 155l-145 -155h-180l246 258h182l158 -258h-170zM1399 1755h-117q12 65 23 88.5t41 44.5q30 17 32 19q1 0 5 2.5t6 3.5t6.5 3.5t7 4.5t6.5 6t6.5 7.5t4.5 8.5t3 11q3 14 -8 23.5t-33 9.5q-67 0 -98 -60l-98 45q75 127 217 127
q72 0 111 -36.5t26 -106.5q-19 -99 -96 -133q-23 -10 -33.5 -23.5t-11.5 -44.5z" />
    <glyph glyph-name="uni1ED5" unicode="&#x1ed5;" horiz-adv-x="1234" 
d="M877 1163l-91 156l-145 -156h-180l246 258h182l158 -258h-170zM711 1051q218 0 352 -158q133 -157 92 -395q-40 -242 -219 -383q-180 -142 -397 -142q-225 0 -365 158q-138 156 -94 399q44 238 225 379q183 142 406 142zM979 516q27 168 -61 262q-88 99 -236 99
q-143 -3 -268 -99q-121 -93 -156 -266q-27 -174 59 -270q92 -98 236 -95q149 0 272 99q127 100 154 270zM1100 1352h-117q12 65 23 88.5t41 44.5q30 16 32 18q1 0 5 2.5t6 3.5t6.5 3.5t7 4.5t6.5 6t6.5 7.5t4.5 8.5t3 11q3 14 -8 23.5t-33 9.5q-68 0 -98 -59l-98 45
q75 127 217 127q72 0 111 -37t26 -107q-19 -99 -96 -133q-23 -10 -33.5 -23t-11.5 -44z" />
    <glyph glyph-name="uni1ED6" unicode="&#x1ed6;" horiz-adv-x="1644" 
d="M979 1460q309 0 491 -231q181 -231 129 -541q-56 -311 -299 -514q-245 -201 -567 -201q-309 0 -491 228q-183 230 -125 536q52 309 297 516t565 207zM305 717q-40 -235 88 -398q129 -159 367 -159q244 0 424 155q184 156 225 394q41 239 -90 401q-132 166 -371 166
t-422 -160q-180 -158 -221 -399zM1176 1567l-91 155l-145 -155h-180l246 258h182l158 -258h-170zM954 1880h-141q13 92 48.5 150t81.5 76.5t97 8t99 -48.5q60 -60 95 -52t50 95h139q-17 -119 -72 -181.5t-122 -60t-129 57.5q-58 59 -95 50.5t-51 -95.5z" />
    <glyph glyph-name="uni1ED7" unicode="&#x1ed7;" horiz-adv-x="1234" 
d="M877 1163l-91 156l-145 -156h-180l246 258h182l158 -258h-170zM711 1051q218 0 352 -158q133 -157 92 -395q-40 -242 -219 -383q-180 -142 -397 -142q-225 0 -365 158q-138 156 -94 399q44 238 225 379q183 142 406 142zM979 516q27 168 -61 262q-88 99 -236 99
q-143 -3 -268 -99q-121 -93 -156 -266q-27 -174 59 -270q92 -98 236 -95q149 0 272 99q127 100 154 270zM655 1477h-141q13 92 48.5 150t81.5 76.5t97 8t99 -48.5q60 -60 95 -52t50 95h139q-17 -119 -72 -181.5t-122 -60t-129 57.5q-58 59 -95 50.5t-51 -95.5z" />
    <glyph glyph-name="uni1ED8" unicode="&#x1ed8;" horiz-adv-x="1644" 
d="M1176 1567l-91 155l-145 -155h-180l246 258h182l158 -258h-170zM979 1460q309 0 491 -231q181 -231 129 -541q-56 -311 -299 -514q-245 -201 -567 -201q-309 0 -491 228q-183 230 -125 536q52 309 297 516t565 207zM305 717q-40 -235 88 -398q129 -159 367 -159
q244 0 424 155q184 156 225 394q41 239 -90 401q-132 166 -371 166t-422 -160q-180 -158 -221 -399zM627 -414q-49 0 -78 34.5t-21 84.5q8 52 47.5 86.5t92.5 34.5q49 0 78.5 -35.5t21.5 -85.5q-11 -52 -49.5 -85.5t-91.5 -33.5z" />
    <glyph glyph-name="uni1ED9" unicode="&#x1ed9;" horiz-adv-x="1234" 
d="M877 1163l-91 156l-145 -156h-180l246 258h182l158 -258h-170zM711 1051q218 0 352 -158q133 -157 92 -395q-40 -242 -219 -383q-180 -142 -397 -142q-225 0 -365 158q-138 156 -94 399q44 238 225 379q183 142 406 142zM979 516q27 168 -61 262q-88 99 -236 99
q-143 -3 -268 -99q-121 -93 -156 -266q-27 -174 59 -270q92 -98 236 -95q149 0 272 99q127 100 154 270zM444 -414q-49 0 -77.5 34.5t-20.5 84.5q8 52 47 86.5t92 34.5q49 0 79 -35.5t22 -85.5q-11 -52 -50 -85.5t-92 -33.5z" />
    <glyph glyph-name="uni1EDA" unicode="&#x1eda;" horiz-adv-x="1644" 
d="M969 1579l205 270h219l-248 -270h-176zM733 -27q-309 0 -491 228q-183 230 -125 536q52 309 297 516t565 207q99 0 195 -26h147q64 0 89 27.5t38 99.5l4 24h158l-4 -24q-19 -113 -67 -174.5t-140 -81.5q29 -27 71 -76q181 -231 129 -541q-56 -311 -299 -514
q-245 -201 -567 -201zM760 160q244 0 424 155q184 156 225 394q41 239 -90 401q-132 166 -371 166t-422 -160q-180 -158 -221 -399q-40 -235 88 -398q129 -159 367 -159z" />
    <glyph glyph-name="uni1EDB" unicode="&#x1edb;" horiz-adv-x="1234" 
d="M651 1169l205 271h219l-248 -271h-176zM539 -27q-225 0 -365 158q-138 156 -94 399q44 238 225 379q183 142 406 142q80 0 163 -27h113q64 0 89 27.5t38 99.5l4 25h158l-4 -25q-21 -115 -69 -176.5t-142 -79.5q0 -2 2 -2q133 -157 92 -395q-40 -242 -219 -383
q-180 -142 -397 -142zM553 147q149 0 272 99q127 100 154 270q27 168 -61 262q-88 99 -236 99q-143 -3 -268 -99q-121 -93 -156 -266q-27 -174 59 -270q92 -98 236 -95z" />
    <glyph glyph-name="uni1EDC" unicode="&#x1edc;" horiz-adv-x="1644" 
d="M1192 1579h-172l-162 270h211zM733 -27q-309 0 -491 228q-183 230 -125 536q52 309 297 516t565 207q99 0 195 -26h147q64 0 89 27.5t38 99.5l4 24h158l-4 -24q-19 -113 -67 -174.5t-140 -81.5q29 -27 71 -76q181 -231 129 -541q-56 -311 -299 -514q-245 -201 -567 -201z
M760 160q244 0 424 155q184 156 225 394q41 239 -90 401q-132 166 -371 166t-422 -160q-180 -158 -221 -399q-40 -235 88 -398q129 -159 367 -159z" />
    <glyph glyph-name="uni1EDD" unicode="&#x1edd;" horiz-adv-x="1234" 
d="M870 1169h-172l-161 271h211zM539 -27q-225 0 -365 158q-138 156 -94 399q44 238 225 379q183 142 406 142q80 0 163 -27h113q64 0 89 27.5t38 99.5l4 25h158l-4 -25q-21 -115 -69 -176.5t-142 -79.5q0 -2 2 -2q133 -157 92 -395q-40 -242 -219 -383q-180 -142 -397 -142
zM553 147q149 0 272 99q127 100 154 270q27 168 -61 262q-88 99 -236 99q-143 -3 -268 -99q-121 -93 -156 -266q-27 -174 59 -270q92 -98 236 -95z" />
    <glyph glyph-name="uni1EDE" unicode="&#x1ede;" horiz-adv-x="1644" 
d="M1139 1567h-125q12 70 23 94.5t44 46.5q33 19 35 21q43 18 49 51q3 16 -8.5 25.5t-36.5 9.5q-71 0 -104 -64l-107 49q80 135 234 135q77 0 119 -39.5t28 -113.5q-19 -105 -102 -144q-25 -10 -36.5 -24t-12.5 -47zM733 -27q-309 0 -491 228q-183 230 -125 536
q52 309 297 516t565 207q99 0 195 -26h147q64 0 89 27.5t38 99.5l4 24h158l-4 -24q-19 -113 -67 -174.5t-140 -81.5q29 -27 71 -76q181 -231 129 -541q-56 -311 -299 -514q-245 -201 -567 -201zM760 160q244 0 424 155q184 156 225 394q41 239 -90 401q-132 166 -371 166
t-422 -160q-180 -158 -221 -399q-40 -235 88 -398q129 -159 367 -159z" />
    <glyph glyph-name="uni1EDF" unicode="&#x1edf;" horiz-adv-x="1234" 
d="M848 1157h-125q12 70 23.5 94t44.5 47q32 19 34 21q43 18 49 51q3 16 -8.5 25.5t-36.5 9.5q-71 0 -104 -64l-107 50q80 135 234 135q76 0 118.5 -39.5t28.5 -114.5q-19 -104 -102 -143q-25 -10 -36.5 -24.5t-12.5 -47.5zM539 -27q-225 0 -365 158q-138 156 -94 399
q44 238 225 379q183 142 406 142q80 0 163 -27h113q64 0 89 27.5t38 99.5l4 25h158l-4 -25q-21 -115 -69 -176.5t-142 -79.5q0 -2 2 -2q133 -157 92 -395q-40 -242 -219 -383q-180 -142 -397 -142zM553 147q149 0 272 99q127 100 154 270q27 168 -61 262q-88 99 -236 99
q-143 -3 -268 -99q-121 -93 -156 -266q-27 -174 59 -270q92 -98 236 -95z" />
    <glyph glyph-name="uni1EE0" unicode="&#x1ee0;" horiz-adv-x="1644" 
d="M899 1589h-151q14 99 52 162.5t88 84t105.5 9t106.5 -52.5q62 -65 100 -56.5t55 103.5h152q-13 -97 -51.5 -161t-88.5 -85.5t-105.5 -10t-104.5 55.5q-62 65 -101.5 56t-56.5 -105zM733 -27q-309 0 -491 228q-183 230 -125 536q52 309 297 516t565 207q99 0 195 -26h147
q64 0 89 27.5t38 99.5l4 24h158l-4 -24q-19 -113 -67 -174.5t-140 -81.5q29 -27 71 -76q181 -231 129 -541q-56 -311 -299 -514q-245 -201 -567 -201zM760 160q244 0 424 155q184 156 225 394q41 239 -90 401q-132 166 -371 166t-422 -160q-180 -158 -221 -399
q-40 -235 88 -398q129 -159 367 -159z" />
    <glyph glyph-name="uni1EE1" unicode="&#x1ee1;" horiz-adv-x="1234" 
d="M590 1180h-152q14 99 52.5 162.5t88.5 83.5t105.5 8.5t106.5 -52.5q62 -65 100 -56t55 104h152q-13 -97 -51.5 -161t-88.5 -85.5t-105.5 -10t-104.5 55.5q-62 65 -101.5 56t-56.5 -105zM539 -27q-225 0 -365 158q-138 156 -94 399q44 238 225 379q183 142 406 142
q80 0 163 -27h113q64 0 89 27.5t38 99.5l4 25h158l-4 -25q-21 -115 -69 -176.5t-142 -79.5q0 -2 2 -2q133 -157 92 -395q-40 -242 -219 -383q-180 -142 -397 -142zM553 147q149 0 272 99q127 100 154 270q27 168 -61 262q-88 99 -236 99q-143 -3 -268 -99
q-121 -93 -156 -266q-27 -174 59 -270q92 -98 236 -95z" />
    <glyph glyph-name="uni1EE2" unicode="&#x1ee2;" horiz-adv-x="1644" 
d="M627 -414q-49 0 -78 34.5t-21 84.5q8 52 47.5 86.5t92.5 34.5q49 0 78.5 -35.5t21.5 -85.5q-11 -52 -49.5 -85.5t-91.5 -33.5zM733 -27q-309 0 -491 228q-183 230 -125 536q52 309 297 516t565 207q99 0 195 -26h147q64 0 89 27.5t38 99.5l4 24h158l-4 -24
q-19 -113 -67 -174.5t-140 -81.5q29 -27 71 -76q181 -231 129 -541q-56 -311 -299 -514q-245 -201 -567 -201zM760 160q244 0 424 155q184 156 225 394q41 239 -90 401q-132 166 -371 166t-422 -160q-180 -158 -221 -399q-40 -235 88 -398q129 -159 367 -159z" />
    <glyph glyph-name="uni1EE3" unicode="&#x1ee3;" horiz-adv-x="1234" 
d="M444 -414q-49 0 -77.5 34.5t-20.5 84.5q8 52 47 86.5t92 34.5q49 0 79 -35.5t22 -85.5q-11 -52 -50 -85.5t-92 -33.5zM539 -27q-225 0 -365 158q-138 156 -94 399q44 238 225 379q183 142 406 142q80 0 163 -27h113q64 0 89 27.5t38 99.5l4 25h158l-4 -25
q-21 -115 -69 -176.5t-142 -79.5q0 -2 2 -2q133 -157 92 -395q-40 -242 -219 -383q-180 -142 -397 -142zM553 147q149 0 272 99q127 100 154 270q27 168 -61 262q-88 99 -236 99q-143 -3 -268 -99q-121 -93 -156 -266q-27 -174 59 -270q92 -98 236 -95z" />
    <glyph glyph-name="uni1EE4" unicode="&#x1ee4;" horiz-adv-x="1341" 
d="M494 -414q-49 0 -78 34.5t-21 84.5q8 52 47.5 86.5t92.5 34.5q49 0 78.5 -35.5t21.5 -85.5q-11 -52 -49.5 -85.5t-91.5 -33.5zM600 -27q-246 0 -379 142q-132 141 -92 366l166 953h190l-166 -945q-27 -152 47.5 -240.5t239.5 -88.5q167 0 275 89t135 240l166 945h188
l-166 -953q-44 -240 -207 -375q-165 -133 -397 -133z" />
    <glyph glyph-name="uni1EE5" unicode="&#x1ee5;" horiz-adv-x="1155" 
d="M397 -414q-49 0 -77.5 34.5t-20.5 84.5q8 52 47 86.5t92 34.5q49 0 79 -35.5t22 -85.5q-11 -52 -50 -85.5t-92 -33.5zM836 479l96 545h178l-180 -1024h-178l24 135q-131 -162 -350 -162q-179 0 -274 115q-94 117 -60 307l111 629h178l-109 -618q-23 -127 30.5 -195
t176.5 -68q136 0 232.5 86t124.5 252v-2z" />
    <glyph glyph-name="uni1EE6" unicode="&#x1ee6;" horiz-adv-x="1341" 
d="M932 1567h-125q12 70 23 94.5t44 46.5q33 19 35 21q43 18 49 51q3 16 -8.5 25.5t-36.5 9.5q-71 0 -104 -64l-107 49q80 135 234 135q77 0 119 -39.5t28 -113.5q-19 -105 -102 -144q-25 -10 -36.5 -24t-12.5 -47zM600 -27q-246 0 -379 142q-132 141 -92 366l166 953h190
l-166 -945q-27 -152 47.5 -240.5t239.5 -88.5q167 0 275 89t135 240l166 945h188l-166 -953q-44 -240 -207 -375q-165 -133 -397 -133z" />
    <glyph glyph-name="uni1EE7" unicode="&#x1ee7;" horiz-adv-x="1155" 
d="M754 1157h-125q12 70 23 94.5t44 46.5q33 19 35 21q43 18 49 51q3 16 -8.5 25.5t-36.5 9.5q-71 0 -104 -64l-107 50q80 135 234 135q76 0 118.5 -39.5t28.5 -114.5q-19 -104 -102 -143q-25 -10 -36.5 -24.5t-12.5 -47.5zM836 479l96 545h178l-180 -1024h-178l24 135
q-131 -162 -350 -162q-179 0 -274 115q-94 117 -60 307l111 629h178l-109 -618q-23 -127 30.5 -195t176.5 -68q136 0 232.5 86t124.5 252v-2z" />
    <glyph glyph-name="uni1EE8" unicode="&#x1ee8;" horiz-adv-x="1341" 
d="M772 1573l205 270h219l-248 -270h-176zM600 -27q-246 0 -379 142q-132 141 -92 366l166 953h190l-166 -945q-27 -152 47.5 -240.5t239.5 -88.5q167 0 275 89t135 240l166 945h118q57 1 79.5 29t35.5 98l4 24h158l-4 -24q-21 -119 -72.5 -181t-152.5 -77l-144 -822
q-44 -240 -207 -375q-165 -133 -397 -133z" />
    <glyph glyph-name="uni1EE9" unicode="&#x1ee9;" horiz-adv-x="1155" 
d="M791 1434h219l-248 -271h-176zM836 479l96 545h90q64 0 89 27.5t38 99.5l4 25h158l-4 -25q-21 -116 -71.5 -178t-148.5 -80l-157 -893h-178l24 135q-131 -162 -350 -162q-179 0 -274 115q-94 117 -60 307l111 629h178l-109 -618q-23 -127 30.5 -195t176.5 -68
q136 0 232.5 86t124.5 252v-2z" />
    <glyph glyph-name="uni1EEA" unicode="&#x1eea;" horiz-adv-x="1341" 
d="M965 1573h-172l-162 270h211zM600 -27q-246 0 -379 142q-132 141 -92 366l166 953h190l-166 -945q-27 -152 47.5 -240.5t239.5 -88.5q167 0 275 89t135 240l166 945h118q57 1 79.5 29t35.5 98l4 24h158l-4 -24q-21 -119 -72.5 -181t-152.5 -77l-144 -822
q-44 -240 -207 -375q-165 -133 -397 -133z" />
    <glyph glyph-name="uni1EEB" unicode="&#x1eeb;" horiz-adv-x="1155" 
d="M657 1434l123 -271h-172l-162 271h211zM836 479l96 545h90q64 0 89 27.5t38 99.5l4 25h158l-4 -25q-21 -116 -71.5 -178t-148.5 -80l-157 -893h-178l24 135q-131 -162 -350 -162q-179 0 -274 115q-94 117 -60 307l111 629h178l-109 -618q-23 -127 30.5 -195t176.5 -68
q136 0 232.5 86t124.5 252v-2z" />
    <glyph glyph-name="uni1EEC" unicode="&#x1eec;" horiz-adv-x="1341" 
d="M932 1567h-125q12 70 23 94.5t44 46.5q33 19 35 21q43 18 49 51q3 16 -8.5 25.5t-36.5 9.5q-71 0 -104 -64l-107 49q80 135 234 135q77 0 119 -39.5t28 -113.5q-19 -105 -102 -144q-25 -10 -36.5 -24t-12.5 -47zM600 -27q-246 0 -379 142q-132 141 -92 366l166 953h190
l-166 -945q-27 -152 47.5 -240.5t239.5 -88.5q167 0 275 89t135 240l166 945h118q57 1 79.5 29t35.5 98l4 24h158l-4 -24q-21 -119 -72.5 -181t-152.5 -77l-144 -822q-44 -240 -207 -375q-165 -133 -397 -133z" />
    <glyph glyph-name="uni1EED" unicode="&#x1eed;" horiz-adv-x="1155" 
d="M754 1157h-125q12 70 23 94.5t44 46.5q33 19 35 21q43 18 49 51q3 16 -8.5 25.5t-36.5 9.5q-71 0 -104 -64l-107 50q80 135 234 135q76 0 118.5 -39.5t28.5 -114.5q-19 -104 -102 -143q-25 -10 -36.5 -24.5t-12.5 -47.5zM836 479l96 545h90q64 0 89 27.5t38 99.5l4 25
h158l-4 -25q-21 -116 -71.5 -178t-148.5 -80l-157 -893h-178l24 135q-131 -162 -350 -162q-179 0 -274 115q-94 117 -60 307l111 629h178l-109 -618q-23 -127 30.5 -195t176.5 -68q136 0 232.5 86t124.5 252v-2z" />
    <glyph glyph-name="uni1EEE" unicode="&#x1eee;" horiz-adv-x="1341" 
d="M600 -27q-246 0 -379 142q-132 141 -92 366l166 953h190l-166 -945q-27 -152 47.5 -240.5t239.5 -88.5q167 0 275 89t135 240l166 945h118q57 1 79.5 29t35.5 98l4 24h158l-4 -24q-21 -119 -72.5 -181t-152.5 -77l-144 -822q-44 -240 -207 -375q-165 -133 -397 -133z
M702 1583h-151q14 99 52 162.5t88 84t105.5 9t106.5 -52.5q62 -65 100.5 -56.5t55.5 103.5h151q-13 -97 -51.5 -161t-88 -85.5t-105 -10t-105.5 55.5q-62 65 -101.5 56t-56.5 -105z" />
    <glyph glyph-name="uni1EEF" unicode="&#x1eef;" horiz-adv-x="1155" 
d="M836 479l96 545h90q64 0 89 27.5t38 99.5l4 25h158l-4 -25q-21 -116 -71.5 -178t-148.5 -80l-157 -893h-178l24 135q-131 -162 -350 -162q-179 0 -274 115q-94 117 -60 307l111 629h178l-109 -618q-23 -127 30.5 -195t176.5 -68q136 0 232.5 86t124.5 252v-2zM518 1174
h-151q14 99 52 162.5t88 83.5t105.5 8.5t106.5 -52.5q62 -65 100 -56.5t55 103.5h152q-13 -97 -51.5 -161t-88 -85t-105 -9.5t-105.5 55.5q-62 65 -101.5 56t-56.5 -105z" />
    <glyph glyph-name="uni1EF0" unicode="&#x1ef0;" horiz-adv-x="1341" 
d="M494 -414q-49 0 -78 34.5t-21 84.5q8 52 47.5 86.5t92.5 34.5q49 0 78.5 -35.5t21.5 -85.5q-11 -52 -49.5 -85.5t-91.5 -33.5zM600 -27q-246 0 -379 142q-132 141 -92 366l166 953h190l-166 -945q-27 -152 47.5 -240.5t239.5 -88.5q167 0 275 89t135 240l166 945h118
q57 1 79.5 29t35.5 98l4 24h158l-4 -24q-21 -119 -72.5 -181t-152.5 -77l-144 -822q-44 -240 -207 -375q-165 -133 -397 -133z" />
    <glyph glyph-name="uni1EF1" unicode="&#x1ef1;" horiz-adv-x="1155" 
d="M397 -414q-49 0 -77.5 34.5t-20.5 84.5q8 52 47 86.5t92 34.5q49 0 79 -35.5t22 -85.5q-11 -52 -50 -85.5t-92 -33.5zM836 479l96 545h90q64 0 89 27.5t38 99.5l4 25h158l-4 -25q-21 -116 -71.5 -178t-148.5 -80l-157 -893h-178l24 135q-131 -162 -350 -162
q-179 0 -274 115q-94 117 -60 307l111 629h178l-109 -618q-23 -127 30.5 -195t176.5 -68q136 0 232.5 86t124.5 252v-2z" />
    <glyph glyph-name="Ygrave" unicode="&#x1ef2;" 
d="M764 1843l123 -270h-172l-162 270h211zM1118 1434h223l-624 -779l-115 -655h-190l116 659l-350 775h199l266 -600z" />
    <glyph glyph-name="ygrave" unicode="&#x1ef3;" horiz-adv-x="1054" 
d="M594 1434l123 -271h-172l-162 271h211zM489 215l443 809h198l-608 -1087q-205 -368 -516 -347l29 166q94 -7 164.5 42t138.5 163l31 49l-263 1014h181z" />
    <glyph glyph-name="uni1EF4" unicode="&#x1ef4;" 
d="M434 -414q-49 0 -77.5 34.5t-20.5 84.5q8 52 47 86.5t92 34.5q49 0 78.5 -35.5t21.5 -85.5q-11 -52 -49.5 -85.5t-91.5 -33.5zM1118 1434h223l-624 -779l-115 -655h-190l116 659l-350 775h199l266 -600z" />
    <glyph glyph-name="uni1EF5" unicode="&#x1ef5;" horiz-adv-x="1054" 
d="M674 -418q-49 0 -78 34.5t-21 84.5q8 52 47.5 86.5t92.5 34.5q49 0 78.5 -35.5t21.5 -85.5q-11 -52 -49.5 -85.5t-91.5 -33.5zM489 215l443 809h198l-608 -1087q-205 -368 -516 -347l29 166q94 -7 164.5 42t138.5 163l31 49l-263 1014h181z" />
    <glyph glyph-name="uni1EF6" unicode="&#x1ef6;" 
d="M842 1567h-125q12 70 23 94.5t44 46.5q33 19 35 21q43 18 49 51q3 16 -8.5 25.5t-36.5 9.5q-71 0 -104 -64l-107 49q80 135 234 135q77 0 119 -39.5t28 -113.5q-19 -105 -102 -144q-25 -10 -36.5 -24t-12.5 -47zM1118 1434h223l-624 -779l-115 -655h-190l116 659
l-350 775h199l266 -600z" />
    <glyph glyph-name="uni1EF7" unicode="&#x1ef7;" horiz-adv-x="1054" 
d="M698 1157h-125q12 70 23.5 94t44.5 47q33 19 35 21q43 18 49 51q3 16 -8.5 25.5t-36.5 9.5q-72 0 -105 -64l-106 50q80 135 233 135q77 0 119.5 -40t28.5 -114q-19 -104 -102 -143q-25 -10 -37 -24.5t-13 -47.5zM489 215l443 809h198l-608 -1087q-205 -368 -516 -347
l29 166q94 -7 164.5 42t138.5 163l31 49l-263 1014h181z" />
    <glyph glyph-name="uni1EF8" unicode="&#x1ef8;" 
d="M1118 1434h223l-624 -779l-115 -655h-190l116 659l-350 775h199l266 -600zM625 1583h-152q14 99 52 162.5t88 84t105.5 9t106.5 -52.5q62 -65 100.5 -56.5t55.5 103.5h152q-13 -97 -51.5 -161t-88 -85.5t-105.5 -10t-106 55.5q-62 65 -101 56t-56 -105z" />
    <glyph glyph-name="uni1EF9" unicode="&#x1ef9;" horiz-adv-x="1054" 
d="M489 215l443 809h198l-608 -1087q-205 -368 -516 -347l29 166q94 -7 164.5 42t138.5 163l31 49l-263 1014h181zM455 1174h-152q14 99 52 162.5t88 83.5t105.5 8.5t106.5 -52.5q62 -65 100.5 -56.5t55.5 103.5h152q-13 -97 -51.5 -161t-88 -85t-105.5 -9.5t-106 55.5
q-62 65 -101 56t-56 -105z" />
    <glyph glyph-name="endash" unicode="&#x2013;" horiz-adv-x="1312" 
d="M1163 543h-1003l28 172h1006z" />
    <glyph glyph-name="emdash" unicode="&#x2014;" horiz-adv-x="1517" 
d="M1368 543h-1208l28 172h1211z" />
    <glyph glyph-name="quoteleft" unicode="&#x2018;" horiz-adv-x="518" 
d="M395 936h-205l222 498h153z" />
    <glyph glyph-name="quoteright" unicode="&#x2019;" horiz-adv-x="518" 
d="M360 1436h205l-221 -498h-154z" />
    <glyph glyph-name="quotesinglbase" unicode="&#x201a;" horiz-adv-x="518" 
d="M143 211h205l-221 -498h-154z" />
    <glyph glyph-name="quotedblleft" unicode="&#x201c;" horiz-adv-x="835" 
d="M395 936h-205l222 498h153zM713 936h-205l221 498h154z" />
    <glyph glyph-name="quotedblright" unicode="&#x201d;" horiz-adv-x="835" 
d="M360 1436h205l-221 -498h-154zM678 1436h205l-221 -498h-154z" />
    <glyph glyph-name="quotedblbase" unicode="&#x201e;" horiz-adv-x="835" 
d="M143 211h205l-221 -498h-154zM461 211h205l-222 -498h-153z" />
    <glyph glyph-name="dagger" unicode="&#x2020;" horiz-adv-x="983" 
d="M688 1116h289l-31 -172h-289l-165 -944h-179l166 944h-291l31 172h291l55 318h178z" />
    <glyph glyph-name="daggerdbl" unicode="&#x2021;" horiz-adv-x="983" 
d="M977 1116l-31 -172h-289l-79 -455h288l-30 -172h-289l-55 -317h-179l56 317h-291l31 172h290l80 455h-291l31 172h291l55 318h178l-55 -318h289z" />
    <glyph glyph-name="bullet" unicode="&#x2022;" horiz-adv-x="655" 
d="M326 487q-97 0 -152 70t-37 170q17 96 94 158.5t177 62.5q94 0 147 -71q54 -69 39 -166q-19 -97 -94 -160.5t-174 -63.5z" />
    <glyph glyph-name="ellipsis" unicode="&#x2026;" horiz-adv-x="1327" 
d="M154 -23q-55 0 -87.5 40t-21.5 96q11 58 54 94.5t102 36.5q56 0 88 -40t22 -95q-11 -58 -53.5 -95t-103.5 -37zM569 -23q-55 0 -87 40t-21 96q11 58 53.5 94.5t101.5 36.5q56 0 88.5 -40t22.5 -95q-11 -58 -54 -95t-104 -37zM983 -23q-55 0 -87.5 40t-21.5 96
q11 58 54 94.5t102 36.5q56 0 88.5 -40t22.5 -95q-11 -58 -54 -95t-104 -37z" />
    <glyph glyph-name="perthousand" unicode="&#x2030;" horiz-adv-x="2232" 
d="M498 825q-135 0 -217 97q-77 95 -56 225q21 134 127 223q110 90 252 90q140 0 215 -100q77 -100 53 -232q-24 -128 -129 -217q-103 -86 -245 -86zM385 1143q-12 -73 25.5 -120.5t109.5 -47.5q71 0 126 49t67 119t-25 118t-108 48t-127 -48t-68 -118zM248 143l-96 62
l1138 1065l99 -60zM965 -25q-138 0 -217 97q-75 97 -54 229q21 129 127 219q110 90 250 90q137 0 213 -98t55 -229q-24 -131 -129 -220q-101 -88 -245 -88zM1704 -25q-136 0 -215 97q-76 98 -55 229q21 129 127 219q110 90 249 90t215 -98q77 -100 54 -229
q-21 -130 -127 -220q-104 -88 -248 -88zM1047 459q-73 0 -127.5 -48t-65.5 -118q-12 -70 25 -119q38 -47 108 -47q72 0 125 47q57 46 68.5 117t-26 122t-107.5 46zM1593 293q-12 -70 25 -118t108 -48t127 48t68 118t-26 118t-109 48t-126.5 -48t-66.5 -118z" />
    <glyph glyph-name="guilsinglleft" unicode="&#x2039;" horiz-adv-x="702" 
d="M449 1008h202l-295 -385l156 -363h-193l-159 373z" />
    <glyph glyph-name="guilsinglright" unicode="&#x203a;" horiz-adv-x="704" 
d="M233 1006h193l160 -373l-289 -375h-203l295 385z" />
    <glyph glyph-name="fraction" unicode="&#x2044;" horiz-adv-x="430" 
d="M858 1434l-1061 -1434h-153l1061 1434h153z" />
    <glyph glyph-name="Euro" unicode="&#x20ac;" horiz-adv-x="1232" 
d="M668 160q200 0 323 194l150 -94q-180 -287 -502 -287q-213 0 -331 152.5t-113 413.5h-152l25 133h137q1 7 8 59q9 46 10 49h-137l23 131h147q82 260 248.5 404.5t390.5 144.5q146 0 249.5 -74t147.5 -208l-168 -88q-58 186 -260 186q-137 0 -242.5 -93.5t-168.5 -271.5
h485l-23 -131h-499l-13 -63l-8 -45h502l-25 -133h-487q-5 -185 68 -282t215 -97z" />
    <glyph glyph-name="uni20BD" unicode="&#x20bd;" horiz-adv-x="1218" 
d="M373 1434h518q178 0 289 -138q114 -138 80 -321q-30 -183 -179 -305q-148 -121 -346 -121h-329l-29 -166h508l-25 -139h-508l-43 -244h-188l43 244h-174l24 139h174l29 166h-174l31 172h174zM1071 989q21 112 -41 189q-59 77 -168 77h-332l-94 -534h330q107 0 197 78
q90 81 108 190z" />
    <glyph glyph-name="uni2116" unicode="&#x2116;" horiz-adv-x="2099" 
d="M1753 823q-134 0 -213 97q-75 92 -53 229q21 133 129 221q107 88 248 88q135 0 213 -96q76 -94 55 -229q-25 -137 -128.5 -223.5t-250.5 -86.5zM254 0h-191l252 1434h146l559 -1076l186 1076h191l-252 -1434h-146l-557 1075zM1970 1141q12 70 -25 117t-108 47t-123.5 -47
t-64.5 -117q-12 -73 23 -118.5t108 -45.5t126 47t64 117zM1999 522h-598l29 170h598z" />
    <glyph glyph-name="trademark" unicode="&#x2122;" horiz-adv-x="960" 
d="M569 1434l-16 -88h-117l-55 -322h-94l55 322h-119l17 88h329zM938 1434h106l-71 -410h-94l45 256l-152 -184h-8l-80 182l-45 -254h-94l71 410h95l77 -193z" />
    <glyph glyph-name="estimated" unicode="&#x212e;" horiz-adv-x="1658" 
d="M995 1454q330 0 506 -215q179 -211 123 -522q-6 -31 -37 -31h-1147q-31 0 -37 -31l-67 -393q-7 -23 6 -39q141 -182 446 -182q295 0 512 199q18 18 39 18h72q21 0 25 -13t-13 -26q-266 -239 -647 -239q-353 0 -538 221q-182 221 -127 536q56 311 299 514q247 203 585 203
zM1327 778l72 398q3 20 -8 38q-138 179 -406 179q-262 0 -469 -183q-17 -17 -20 -39l-70 -393q-6 -30 25 -30h839q31 0 37 30z" />
    <glyph glyph-name="oneeighth" unicode="&#x215b;" horiz-adv-x="1646" 
d="M252 614l115 643l-189 -53l-16 144l258 86h135l-145 -820h-158zM164 0l1061 1434h153l-1061 -1434h-153zM1589 600q-15 -112 -133 -174q116 -73 92 -215q-19 -110 -111 -174t-229 -64q-131 0 -206 72t-56 182q27 144 172 209q-94 64 -76 180q18 108 105 169t211 61
q110 0 180 -70q69 -66 51 -176zM1188 602q-8 -51 20.5 -79.5t89.5 -28.5q57 0 95 29t49 79q8 48 -21 75.5t-88 27.5q-124 0 -145 -103zM1399 240q7 57 -26 88.5t-99 31.5q-149 0 -170 -120q-11 -56 22.5 -88.5t104.5 -32.5q68 0 112.5 32.5t55.5 88.5z" />
    <glyph glyph-name="threeeighths" unicode="&#x215c;" horiz-adv-x="1845" 
d="M705 844q-20 -120 -114 -188t-235 -68q-204 0 -272 176l139 72q37 -101 156 -101q147 0 168 121q11 56 -23.5 89.5t-103.5 33.5h-19l-51 102l199 205h-344l26 148h539l-22 -136l-203 -208q86 -25 129.5 -91.5t30.5 -154.5zM362 0l1061 1434h154l-1061 -1434h-154z
M1788 600q-15 -112 -133 -174q116 -73 92 -215q-19 -110 -111 -174t-229 -64q-131 0 -206 72t-56 182q27 144 172 209q-94 64 -76 180q18 108 104.5 169t210.5 61q111 0 181 -70q69 -66 51 -176zM1386 602q-8 -51 21 -79.5t90 -28.5q57 0 94.5 29t48.5 79q8 48 -20.5 75.5
t-87.5 27.5q-125 0 -146 -103zM1597 240q7 57 -25.5 88.5t-98.5 31.5q-149 0 -170 -120q-11 -56 23.5 -88.5t103.5 -32.5q68 0 112 32.5t55 88.5z" />
    <glyph glyph-name="fiveeighths" unicode="&#x215d;" horiz-adv-x="1822" 
d="M694 842q-20 -121 -109 -187.5t-229 -66.5q-204 0 -268 178l139 70q38 -103 152 -103q67 0 111 33.5t55 89.5q11 58 -21.5 93.5t-99.5 35.5h-256l111 449h483l-25 -146h-346l-41 -162h105q122 0 192 -79q71 -80 47 -205zM340 0l1061 1434h153l-1060 -1434h-154zM1765 600
q-15 -112 -133 -174q116 -73 92 -215q-19 -110 -111 -174t-229 -64q-131 0 -206 72t-56 182q27 144 172 209q-93 64 -75 180q18 108 104.5 169t210.5 61q110 0 180 -70q69 -66 51 -176zM1364 602q-8 -51 21 -79.5t90 -28.5q57 0 94.5 29t48.5 79q8 48 -21 75.5t-88 27.5
q-124 0 -145 -103zM1575 240q7 57 -26 88.5t-99 31.5q-149 0 -170 -120q-11 -56 22.5 -88.5t104.5 -32.5q68 0 112.5 32.5t55.5 88.5z" />
    <glyph glyph-name="seveneighths" unicode="&#x215e;" horiz-adv-x="1732" 
d="M709 1309l-406 -695h-172l395 672h-374l26 148h551zM250 0l1061 1434h153l-1061 -1434h-153zM1675 600q-15 -112 -133 -174q116 -73 92 -215q-19 -110 -111 -174t-229 -64q-131 0 -206 72t-56 182q27 144 172 209q-94 64 -76 180q18 108 105 169t211 61q110 0 180 -70
q69 -66 51 -176zM1274 602q-8 -51 20.5 -79.5t89.5 -28.5q57 0 95 29t49 79q8 48 -21 75.5t-88 27.5q-124 0 -145 -103zM1485 240q7 57 -26 88.5t-99 31.5q-149 0 -170 -120q-11 -56 22.5 -88.5t104.5 -32.5q68 0 112.5 32.5t55.5 88.5z" />
    <glyph glyph-name="arrowleft" unicode="&#x2190;" horiz-adv-x="1665" 
d="M502 803h1100l-29 -172h-1120l436 -529h-234l-505 615l722 614l250 -2z" />
    <glyph glyph-name="arrowup" unicode="&#x2191;" horiz-adv-x="1454" 
d="M889 1434l506 -615l-39 -231l-432 528l-197 -1116h-178l192 1092l-618 -525l45 252z" />
    <glyph glyph-name="arrowright" unicode="&#x2192;" horiz-adv-x="1665" 
d="M852 1331h231l506 -614l-717 -615h-251l614 529h-1102l31 172h1124z" />
    <glyph glyph-name="arrowdown" unicode="&#x2193;" horiz-adv-x="1454" 
d="M979 1434l-193 -1092l617 524l-45 -252l-721 -614l-506 614l41 230l432 -527l197 1117h178z" />
    <glyph glyph-name="arrowboth" unicode="&#x2194;" horiz-adv-x="2160" 
d="M1653 1245l432 -528l-619 -527h-249l516 441h-1284l362 -441h-229l-432 527l618 528h252l-520 -442h1286l-363 442h230z" />
    <glyph glyph-name="arrowupdn" unicode="&#x2195;" horiz-adv-x="1280" 
d="M1280 1159l-39 -229l-360 440l-226 -1284l514 438l-45 -250l-618 -526l-434 526l41 228l360 -439l225 1287l-516 -439l45 248l621 527z" />
    <glyph glyph-name="uni2196" unicode="&#x2196;" horiz-adv-x="1310" 
d="M1108 1221l137 -168h-753l659 -801l-135 -115l-660 801l-133 -754l-137 168l154 869h868z" />
    <glyph glyph-name="uni2197" unicode="&#x2197;" horiz-adv-x="1312" 
d="M256 1053l199 168h868l-154 -869l-200 -170l127 731l-918 -778l-110 131l923 787h-735z" />
    <glyph glyph-name="uni2198" unicode="&#x2198;" horiz-adv-x="1310" 
d="M1020 453l133 755l137 -168l-151 -868h-869l-139 168h752l-658 801l135 112z" />
    <glyph glyph-name="uni2199" unicode="&#x2199;" horiz-adv-x="1312" 
d="M1200 1257l111 -131l-928 -786h737l-198 -168h-869l152 868l201 168l-130 -735z" />
    <glyph glyph-name="partialdiff" unicode="&#x2202;" horiz-adv-x="1187" 
d="M649 1460q241 0 379 -215q140 -215 82 -543q-64 -352 -246 -540q-183 -189 -424 -189q-192 0 -293 131q-99 133 -65 320q37 207 182 334q146 125 363 125q184 0 315 -101q21 224 -63 363q-82 140 -271 143q-141 0 -270 -69l29 167q130 74 282 74zM469 145
q153 0 269.5 125.5t172.5 347.5q-113 101 -295 101q-139 0 -235.5 -81t-120.5 -226q-21 -120 34 -193.5t175 -73.5z" />
    <glyph glyph-name="emptyset" unicode="&#x2205;" horiz-adv-x="1650" 
d="M1524 1475h176l-232 -234q189 -233 134 -541q-55 -307 -308 -516q-250 -209 -561 -209q-221 0 -389 131l-145 -147h-179l234 236q-188 226 -133 540q52 307 303 514q253 209 565 209q221 0 389 -131zM264 717q-43 -244 92 -420l920 928q-131 94 -309 94q-249 0 -455 -176
q-202 -175 -248 -426zM1460 717q44 251 -94 420l-920 -926q134 -96 310 -96q246 0 452 176q205 175 252 426z" />
    <glyph glyph-name="product" unicode="&#x220f;" horiz-adv-x="1310" 
d="M170 -410h-178l323 1844h1004l-324 -1844h-178l295 1672h-647z" />
    <glyph glyph-name="summation" unicode="&#x2211;" horiz-adv-x="1122" 
d="M893 -410h-963l29 172l612 787l-313 729l27 156h901l-29 -172h-702l317 -736l-594 -764h746z" />
    <glyph glyph-name="minus" unicode="&#x2212;" horiz-adv-x="1116" 
d="M1020 633h-881l29 170h881z" />
    <glyph glyph-name="radical" unicode="&#x221a;" horiz-adv-x="1341" 
d="M664 0h-181l-190 459h-189l29 172h281l168 -420l731 1427h196z" />
    <glyph glyph-name="infinity" unicode="&#x221e;" horiz-adv-x="1644" 
d="M1284 1055q142 0 225 -103t60 -247q-28 -149 -137 -236q-110 -90 -261 -90q-186 0 -333 209q-209 -209 -404 -209q-145 0 -227 102q-84 104 -57 248q27 148 135 236q113 90 262 90q183 0 334 -207q213 207 403 207zM465 541q127 0 291 176q-99 176 -230 176
q-75 0 -131 -49t-69 -127t25.5 -127t113.5 -49zM1253 893q-132 0 -288 -176q95 -176 227 -176q75 0 131.5 49t69.5 127t-26 127t-114 49z" />
    <glyph glyph-name="integral" unicode="&#x222b;" horiz-adv-x="901" 
d="M-164 -416l31 176q91 -38 164.5 -2t105.5 133l430 1258q132 391 498 289l-33 -174q-105 36 -178 1.5t-106 -132.5l-431 -1258q-66 -195 -192 -268t-289 -23z" />
    <glyph glyph-name="approxequal" unicode="&#x2248;" horiz-adv-x="1200" 
d="M635 807q-69 44 -121.5 60.5t-92.5 6t-69 -38t-57 -77.5l-129 57q75 186 215 230t313 -66q136 -80 209 -64.5t125 129.5l139 -71q-74 -186 -214.5 -230.5t-317.5 64.5zM244 389l-140 72q74 185 217.5 230.5t317.5 -64.5q69 -43 121.5 -59.5t92 -6.5t68 37.5t56.5 77.5
l129 -58q-74 -187 -211.5 -230t-316.5 67q-88 57 -151 65t-105.5 -24.5t-77.5 -106.5z" />
    <glyph glyph-name="notequal" unicode="&#x2260;" horiz-adv-x="1095" 
d="M1071 1010l-31 -170h-315l-154 -246h426l-30 -170h-500l-180 -291h-129l180 291h-242l33 170h313l154 246h-424l29 170h499l181 290h129l-181 -290h242z" />
    <glyph glyph-name="lessequal" unicode="&#x2264;" horiz-adv-x="1071" 
d="M188 938l904 328l-37 -203l-668 -219l590 -217l-31 -183l-786 326l12 84zM899 174h-846l31 170h844z" />
    <glyph glyph-name="greaterequal" unicode="&#x2265;" horiz-adv-x="1071" 
d="M215 1081l31 185l786 -328l-28 -168l-904 -326l37 201l666 219zM899 174h-846l31 170h844z" />
    <glyph glyph-name="lozenge" unicode="&#x25ca;" horiz-adv-x="1116" 
d="M549 0h-160l-254 717l506 717h160l256 -717zM324 698l174 -485l368 522l-174 486z" />
    <glyph glyph-name="NULL" horiz-adv-x="0" 
 />
    <glyph glyph-name="CR" horiz-adv-x="681" 
 />
    <glyph glyph-name="i.loclTRK" horiz-adv-x="450" 
d="M489 1282q-8 -51 -51.5 -89t-97.5 -38t-85.5 36.5t-21.5 90.5q11 54 53.5 91.5t96.5 37.5t85 -37.5t21 -91.5zM223 0h-178l180 1024h178z" />
    <glyph glyph-name="f_f_j" horiz-adv-x="1642" 
d="M1040 1024h557l-190 -1085q-71 -402 -461 -375l31 172q110 -11 171 37.5t81 165.5l160 913h-379l-150 -852h-178l149 852h-378l-152 -852h-178l151 852h-165l30 172h164l6 31q37 213 169.5 316t350.5 89l-32 -172q-264 21 -310 -233l-6 -31h381l8 51q71 406 519 406
q89 0 206 -27l-26 -162q-104 17 -197 17q-145 0 -222.5 -54.5t-100.5 -179.5z" />
    <glyph glyph-name="f_j" horiz-adv-x="1085" 
d="M481 1024h557l-190 -1085q-70 -402 -459 -375l29 172q111 -11 171.5 37.5t80.5 165.5l159 913h-376l-152 -852h-178l151 852h-165l30 172h164l6 31q71 405 520 405q89 0 205 -26l-28 -162q-94 16 -197 16q-144 0 -221.5 -54t-100.5 -179z" />
    <glyph glyph-name="uni0414.loclBGR" horiz-adv-x="1454" 
d="M997 1434l209 -1254h144l-80 -454h-191l49 274h-983l-49 -274h-190l82 454h143l651 1254h215zM858 1208l-522 -1028h680z" />
    <glyph glyph-name="uni041B.loclBGR" horiz-adv-x="1261" 
d="M133 0h-209l762 1434h215l256 -1434h-196l-197 1206z" />
    <glyph glyph-name="uni0424.loclBGR" horiz-adv-x="1742" 
d="M1161 1638l-33 -184q305 -30 465 -237q163 -205 107 -517q-55 -312 -281 -507q-227 -192 -551 -216l-32 -182h-185l33 185q-305 35 -463 239q-159 206 -104 516q59 315 278 504q226 194 549 215l33 184h184zM1509 717q41 241 -68 390.5t-343 174.5l-199 -1128
q246 25 406.5 173t203.5 390zM305 717q-43 -238 66.5 -387.5t343.5 -175.5l198 1128q-246 -26 -406.5 -175t-201.5 -390z" />
    <glyph glyph-name="uni0414.ss01" horiz-adv-x="1423" 
d="M451 1434h915l-221 -1254h153l-32 -180h-1325l32 180h123q165 171 223 504zM319 180h637l189 1075h-535l-102 -575q-58 -331 -189 -500z" />
    <glyph glyph-name="uni0426.ss01" horiz-adv-x="1413" 
d="M1356 1434l-221 -1254h153l-31 -180h-1194l252 1434h191l-221 -1254h661l219 1254h191z" />
    <glyph glyph-name="uni0429.ss01" horiz-adv-x="2007" 
d="M1950 1434l-221 -1254h153l-31 -180h-1788l252 1434h191l-221 -1254h532l221 1254h189l-219 -1254h532l219 1254h191z" />
    <glyph glyph-name="uni0414.loclBGR.ss01" horiz-adv-x="1454" 
d="M997 1434l209 -1254h144l-31 -180h-1364l33 180h143l651 1254h215zM858 1208l-522 -1028h680z" />
    <glyph glyph-name="uni0432.loclBGR" horiz-adv-x="1167" 
d="M879 815q115 -52 166.5 -158t27.5 -251q-37 -209 -179 -321t-370 -112q-208 0 -321 140q-112 142 -72 368l86 492q38 232 175 359.5t345 127.5q171 0 269 -104t71 -260t-198 -281zM395 971l-28 -166l180 35q79 15 153 12q178 116 199 250q17 82 -34.5 135t-153.5 53
q-118 0 -204 -85.5t-112 -233.5zM895 420q29 156 -72 224.5t-307 27.5l-178 -35l-29 -166q-26 -158 36 -241t204 -83q141 0 232 72t114 201z" />
    <glyph glyph-name="uni0433.loclBGR" horiz-adv-x="942" 
d="M395 -27q-171 0 -274 95q-99 95 -72 239q18 98 83.5 160.5t158.5 87.5q36 10 103 25t107 25.5t86 28.5t70.5 44t30.5 61q10 64 -37.5 105t-124.5 41q-74 0 -137.5 -37.5t-99.5 -104.5l-139 88q55 102 158 161t235 59q158 0 252 -101q94 -99 73 -231q-18 -95 -84 -158.5
t-159 -89.5q-31 -8 -84.5 -20t-88.5 -19.5t-78.5 -21.5t-70.5 -29t-48 -38t-26 -52q-13 -70 38 -110t139 -40q90 0 165 46.5t117 123.5l141 -94q-64 -115 -176 -179.5t-258 -64.5z" />
    <glyph glyph-name="uni0434.loclBGR" horiz-adv-x="1300" 
d="M1042 831l35 193h176l-172 -981q-41 -235 -202 -356q-159 -123 -385 -123q-164 0 -283.5 65.5t-173.5 184.5l158 82q70 -166 309 -166q167 0 271 81.5t130 231.5l21 121q-152 -180 -400 -180q-234 0 -358 161q-123 164 -86 394q34 225 203 368q170 144 377 144
q129 0 229 -57.5t151 -162.5zM567 156q145 0 264 90q118 92 152 241l10 54q18 154 -78 247t-237 93q-147 0 -270 -99q-124 -95 -148 -258q-27 -155 59 -264q88 -104 248 -104z" />
    <glyph glyph-name="uni0436.loclBGR" horiz-adv-x="1429" 
d="M147 0h-202l524 545l-324 479h191l299 -449l153 859h177l-156 -867l446 457h207l-495 -508l333 -516h-188l-315 489l-88 -489h-177l86 487z" />
    <glyph glyph-name="uni0438.loclBGR" horiz-adv-x="1155" 
d="M836 479l96 545h178l-180 -1024h-178l24 135q-131 -162 -350 -162q-179 0 -274 115q-94 117 -60 307l111 629h178l-109 -618q-23 -127 30.5 -195t176.5 -68q136 0 232.5 86t124.5 252v-2z" />
    <glyph glyph-name="uni0439.loclBGR" horiz-adv-x="1155" 
d="M424 1333h553l-27 -155h-553zM836 479l96 545h178l-180 -1024h-178l24 135q-131 -162 -350 -162q-179 0 -274 115q-94 117 -60 307l111 629h178l-109 -618q-23 -127 30.5 -195t176.5 -68q136 0 232.5 86t124.5 252v-2z" />
    <glyph glyph-name="uni043A.loclBGR" horiz-adv-x="1028" 
d="M840 1024h229l-577 -496l415 -528h-205l-391 504l-88 -504h-178l252 1434h178l-149 -854z" />
    <glyph glyph-name="uni043B.loclBGR" horiz-adv-x="983" 
d="M682 1024l197 -1024h-185l-139 821l-432 -821h-199l557 1024h201z" />
    <glyph glyph-name="uni043F.loclBGR" horiz-adv-x="1155" 
d="M729 1051q180 0 272 -115q96 -116 62 -307l-111 -629h-178l109 618q23 127 -30.5 195t-176.5 68q-136 0 -232.5 -86t-124.5 -252v2l-96 -545h-178l180 1024h178l-24 -135q131 162 350 162z" />
    <glyph glyph-name="uni0442.loclBGR" horiz-adv-x="1738" 
d="M1331 1051q165 0 256 -113q92 -114 62 -301l-113 -637h-178l110 631q20 120 -28.5 185t-153.5 65q-116 0 -196 -77.5t-109 -228.5l-100 -575h-179l111 631q20 120 -25.5 185t-146.5 65q-117 0 -203.5 -79t-111.5 -227v3l-103 -578h-178l180 1024h178l-22 -123
q132 150 324 150q206 0 274 -179q138 179 352 179z" />
    <glyph glyph-name="uni0446.loclBGR" horiz-adv-x="1230" 
d="M1030 170h84l-80 -444h-176l49 282q-98 24 -116 127q-137 -162 -361 -162q-186 0 -278 115t-60 307l111 629h178l-109 -616q-23 -128 30.5 -196.5t176.5 -68.5q127 0 219.5 76t128.5 221l103 584h178l-137 -782q-9 -72 59 -72z" />
    <glyph glyph-name="uni0448.loclBGR" horiz-adv-x="1738" 
d="M1413 446l103 578h178l-181 -1024h-178l23 123q-132 -150 -324 -150q-206 0 -274 179q-138 -179 -352 -179q-165 0 -256 113q-92 114 -62 301l113 637h178l-111 -631q-20 -120 29 -185t154 -65q116 0 196 77.5t109 228.5l100 575h178l-110 -631q-20 -120 25.5 -185
t146.5 -65q117 0 203.5 79t111.5 227v-3z" />
    <glyph glyph-name="uni0449.loclBGR" horiz-adv-x="1814" 
d="M1614 170h84l-80 -444h-176l49 282q-96 24 -117 123q-140 -158 -336 -158q-210 0 -278 177q-142 -177 -352 -177q-167 0 -258 113q-94 117 -60 301l113 637h178l-111 -629q-20 -120 29 -186t154 -66q108 0 187 69t110 202l108 610h178l-110 -629q-20 -121 25.5 -186.5
t146.5 -65.5q109 0 193.5 70.5t115.5 200.5l106 610h179l-138 -782q-9 -72 60 -72z" />
    <glyph glyph-name="uni044C.loclBGR" horiz-adv-x="991" 
d="M324 709h239q181 0 273 -109q92 -105 65 -274q-27 -154 -151 -254q-123 -99 -306 -99t-286 115q-99 117 -72 272l117 664h176zM727 346q14 91 -38 144t-157 53h-237l-33 -183q-17 -97 39 -156t166 -59q101 0 171.5 57t88.5 144z" />
    <glyph glyph-name="uni044A.loclBGR" horiz-adv-x="1163" 
d="M496 709h239q181 0 273 -109q92 -105 65 -276q-30 -157 -153 -254t-304 -97q-183 0 -286 115q-99 117 -72 272l86 494h-283l29 170h461zM899 344q14 92 -37.5 145.5t-156.5 53.5h-238l-33 -183q-17 -97 39 -156t166 -59q102 0 172 56t88 143z" />
    <glyph glyph-name="uni044E.loclBGR" horiz-adv-x="1646" 
d="M1122 1051q219 0 353 -158q133 -157 92 -395q-40 -242 -219 -383q-177 -142 -396 -142q-203 0 -334 125q-129 126 -126 330h-193l-76 -428h-178l252 1434h178l-147 -836h190q59 213 227 332q171 121 377 121zM1391 516q30 166 -60 262q-89 99 -237 99q-146 -3 -271 -99
q-123 -94 -153 -266q-27 -171 59 -268q89 -100 236 -97q149 0 272 99q127 100 154 270z" />
    <glyph glyph-name="zero.sinf" horiz-adv-x="841" 
d="M272 -354q-159 0 -241 125q-83 127 -49 321q35 199 150.5 312.5t285.5 113.5q159 0 241 -125q84 -128 50 -321q-35 -199 -151 -312.5t-286 -113.5zM141 82q-25 -134 16 -207.5t138 -73.5t163 72.5t91 208.5q25 135 -15.5 207.5t-138.5 72.5q-97 0 -163 -72t-91 -208z" />
    <glyph glyph-name="one.sinf" horiz-adv-x="509" 
d="M-4 406l258 86h135l-145 -820h-158l115 643l-189 -53z" />
    <glyph glyph-name="two.sinf" horiz-adv-x="704" 
d="M498 -328h-586l20 117l385 322q104 84 113 147q11 50 -18 80.5t-86 30.5q-98 0 -174 -123l-127 78q51 91 137 142.5t186 51.5q123 0 191.5 -75.5t48.5 -192.5q-18 -113 -178 -246l-228 -184h342z" />
    <glyph glyph-name="three.sinf" horiz-adv-x="710" 
d="M66 492h538l-22 -136l-203 -209q86 -25 129.5 -91t30.5 -154q-20 -120 -114 -188t-235 -68q-204 0 -272 176l139 72q37 -101 156 -101q147 0 168 121q11 56 -23.5 89.5t-103.5 33.5h-18l-52 102l199 205h-344z" />
    <glyph glyph-name="four.sinf" horiz-adv-x="727" 
d="M496 -37h96l-25 -145h-98l-25 -146h-155l26 146h-409l24 145l383 529h176l-376 -529h227l33 180h153z" />
    <glyph glyph-name="five.sinf" horiz-adv-x="677" 
d="M596 492l-25 -146h-346l-41 -162h105q121 0 192 -80t47 -204q-20 -121 -109 -187.5t-229 -66.5q-204 0 -268 178l139 70q38 -103 152 -103q67 0 111 33.5t55 89.5q11 58 -21.5 93.5t-99.5 35.5h-256l111 449h483z" />
    <glyph glyph-name="six.sinf" horiz-adv-x="698" 
d="M293 221h4q134 0 207 -88q74 -83 53 -211q-23 -124 -121 -200t-237 -76q-129 0 -207 90q-74 86 -53 211q16 96 77 157l320 388h186zM406 -66q11 66 -25 105t-109 39q-72 0 -121 -39t-61 -105q-11 -66 24 -105.5t107 -39.5q73 0 123 39.5t62 105.5z" />
    <glyph glyph-name="seven.sinf" horiz-adv-x="608" 
d="M-14 344l26 148h551l-20 -125l-406 -695h-172l395 672h-374z" />
    <glyph glyph-name="eight.sinf" horiz-adv-x="698" 
d="M582 272q-15 -112 -133 -174q116 -73 92 -215q-19 -110 -111 -173.5t-229 -63.5q-131 0 -206 72t-56 182q27 144 172 209q-94 64 -76 180q18 108 104.5 168.5t210.5 60.5q111 0 180 -69q70 -67 52 -177zM180 274q-8 -51 21 -79.5t90 -28.5q57 0 94.5 29t48.5 79
q8 48 -20.5 75.5t-87.5 27.5q-125 0 -146 -103zM391 -88q7 57 -26 89t-99 32q-149 0 -170 -121q-11 -56 22.5 -88.5t104.5 -32.5q68 0 112.5 32.5t55.5 88.5z" />
    <glyph glyph-name="nine.sinf" horiz-adv-x="698" 
d="M350 518q125 0 203 -90q76 -88 55 -211q-15 -84 -65 -145l-328 -400h-186l229 271h-6q-131 0 -207 88q-74 86 -53 211q23 123 122.5 199.5t235.5 76.5zM276 86q72 0 120.5 38.5t60.5 104.5t-23.5 106t-107.5 40t-122.5 -40t-60.5 -106q-11 -66 24.5 -104.5t108.5 -38.5z
" />
    <glyph glyph-name="zero.tf" horiz-adv-x="1173" 
d="M496 -27q-255 0 -369 211t-55 547q59 339 235 533q178 196 443 196q254 0 368 -211q115 -212 56 -547q-61 -343 -238 -536t-440 -193zM985 717q47 266 -22 412.5t-242 146.5q-172 0 -293.5 -147t-165.5 -412q-47 -268 21 -412.5t241 -144.5q174 0 294 144.5t167 412.5z
" />
    <glyph glyph-name="one.tf" horiz-adv-x="1173" 
d="M872 1434l-221 -1254h410l-33 -180h-1044l32 180h447l182 1043l-319 -90l-19 170l402 131h163z" />
    <glyph glyph-name="two.tf" horiz-adv-x="1173" 
d="M1001 0h-1007l29 156l598 456q164 123 242.5 210t94.5 179q20 125 -44 200t-197 75q-216 0 -359 -227l-151 96q91 149 233.5 232t307.5 83q199 0 317 -133q119 -131 84 -334q-24 -135 -118 -250.5t-283 -255.5l-416 -303h700z" />
    <glyph glyph-name="three.tf" horiz-adv-x="1173" 
d="M258 1434h938l-29 -168l-407 -418q174 -33 262.5 -149.5t58.5 -290.5q-37 -209 -197 -322t-399 -113q-185 0 -311.5 87.5t-161.5 240.5l170 90q26 -109 110.5 -170t211.5 -61q157 0 260.5 70t126.5 198q23 127 -55.5 197.5t-237.5 70.5h-43l-59 119l430 440h-697z" />
    <glyph glyph-name="four.tf" horiz-adv-x="1173" 
d="M942 451h180l-28 -179h-185l-47 -272h-190l47 272h-727l31 179l682 983h213l-682 -983h516l65 374h191z" />
    <glyph glyph-name="five.tf" horiz-adv-x="1173" 
d="M1204 1434l-30 -179h-670l-94 -381h245q210 0 336 -126q127 -127 90 -338q-38 -207 -195 -322t-384 -115q-181 0 -308 87.5t-165 240.5l172 90q23 -109 108.5 -170t214.5 -61q148 0 247 70t122 194q20 127 -53 196.5t-222 69.5h-440l182 744h844z" />
    <glyph glyph-name="six.tf" horiz-adv-x="1173" 
d="M641 942q241 0 363 -143q126 -141 88 -355q-38 -212 -199 -342q-163 -129 -412 -129q-238 0 -364 144q-125 146 -84 358q30 174 151 295l594 664h228l-439 -496q66 4 74 4zM903 459q23 140 -53.5 221.5t-235.5 81.5q-160 0 -264 -81t-129 -222q-26 -140 51 -221.5
t236 -81.5t264 81.5t131 221.5z" />
    <glyph glyph-name="seven.tf" horiz-adv-x="1173" 
d="M203 1253l30 181h1024l-28 -170l-780 -1264h-211l776 1253h-811z" />
    <glyph glyph-name="eight.tf" horiz-adv-x="1173" 
d="M1159 1047q-34 -205 -237 -310q99 -56 143.5 -149t24.5 -205q-35 -196 -191.5 -303t-402.5 -107q-234 0 -363 117q-127 117 -92 311q41 239 293 347q-163 114 -129 315q34 193 184 295t363 102q202 0 321 -110q120 -111 86 -303zM969 1051q18 108 -48.5 167.5
t-197.5 59.5q-137 0 -223.5 -58t-106.5 -169q-19 -108 48.5 -169t199.5 -61q134 0 221.5 61t106.5 169zM903 406q21 118 -55 182q-74 65 -236 65q-159 0 -262 -65q-98 -64 -119 -182q-20 -118 57.5 -184t235.5 -66q160 0 258 65.5t121 184.5z" />
    <glyph glyph-name="nine.tf" horiz-adv-x="1173" 
d="M764 1460q242 0 364 -143q123 -145 86 -356q-30 -169 -145 -287l-600 -674h-229l440 496q-66 -4 -76 -4q-236 0 -362 141q-125 143 -88 354q38 213 198 342q162 131 412 131zM1026 975q23 142 -53 222.5t-236 80.5t-265 -81.5t-130 -221.5t51.5 -220.5t237.5 -80.5
t265.5 80.5t129.5 220.5z" />
    <glyph glyph-name="zero.dnom" horiz-adv-x="841" 
d="M330 -27q-160 0 -242 125q-83 127 -49 322q35 199 150.5 312.5t285.5 113.5q160 0 242 -125q83 -127 49 -322q-35 -199 -150.5 -312.5t-285.5 -113.5zM199 410q-25 -134 15.5 -207.5t137.5 -73.5t163 72.5t91 208.5t-15.5 208t-137.5 72t-163 -72t-91 -208z" />
    <glyph glyph-name="one.dnom" horiz-adv-x="520" 
d="M53 733l258 86h135l-145 -819h-158l115 643l-188 -53z" />
    <glyph glyph-name="two.dnom" horiz-adv-x="706" 
d="M555 0h-586l21 117l385 321q103 83 112 148q10 49 -18.5 79.5t-85.5 30.5q-97 0 -174 -123l-127 78q51 91 137.5 143t186.5 52q123 0 191 -75.5t48 -192.5q-18 -113 -178 -246l-227 -185h342z" />
    <glyph glyph-name="three.dnom" horiz-adv-x="720" 
d="M125 819h539l-23 -135l-203 -209q86 -25 129.5 -91.5t30.5 -154.5q-20 -120 -113.5 -188t-234.5 -68q-205 0 -273 177l140 71q37 -100 155 -100q147 0 168 121q11 56 -23.5 89.5t-103.5 33.5h-18l-51 102l198 205h-344z" />
    <glyph glyph-name="four.dnom" horiz-adv-x="727" 
d="M553 291h96l-24 -146h-99l-24 -145h-156l27 145h-410l25 146l383 528h176l-377 -528h227l33 180h154z" />
    <glyph glyph-name="five.dnom" horiz-adv-x="696" 
d="M655 819l-24 -145h-346l-41 -162h104q122 0 193 -80t47 -205q-20 -121 -109 -187.5t-229 -66.5q-203 0 -268 179l139 69q37 -102 151 -102q67 0 111 33.5t55 89.5q11 58 -21.5 93.5t-99.5 35.5h-256l111 448h483z" />
    <glyph glyph-name="six.dnom" horiz-adv-x="700" 
d="M352 549h4q134 0 207 -88q74 -83 53 -211q-23 -124 -121 -200.5t-237 -76.5q-131 0 -207 88q-75 86 -53 213q16 96 78 158l319 387h187zM465 262q11 66 -24.5 105t-108.5 39q-72 0 -121 -39t-61 -105q-11 -66 24 -105.5t107 -39.5q73 0 122.5 39.5t61.5 105.5z" />
    <glyph glyph-name="seven.dnom" horiz-adv-x="606" 
d="M43 672l27 147h551l-21 -125l-405 -694h-172l395 672h-375z" />
    <glyph glyph-name="eight.dnom" horiz-adv-x="696" 
d="M639 600q-15 -112 -133 -174q116 -73 92 -215q-19 -110 -111 -174t-229 -64q-131 0 -206 72t-56 182q27 144 172 209q-94 64 -76 180q18 108 105 169t211 61q110 0 180 -70q69 -66 51 -176zM238 602q-8 -51 20.5 -79.5t89.5 -28.5q57 0 95 29t49 79q8 48 -21 75.5
t-88 27.5q-124 0 -145 -103zM449 240q7 57 -26 88.5t-99 31.5q-149 0 -170 -120q-11 -56 22.5 -88.5t104.5 -32.5q68 0 112.5 32.5t55.5 88.5z" />
    <glyph glyph-name="nine.dnom" horiz-adv-x="698" 
d="M408 846q124 0 202 -90q77 -89 56 -211q-15 -84 -66 -146l-328 -399h-186l229 270h-6q-131 0 -207 88q-74 86 -53 211q23 123 123 200t236 77zM334 414q72 0 120 38.5t60 104.5t-23.5 105.5t-107.5 39.5t-122 -39.5t-60 -105.5q-11 -66 24.5 -104.5t108.5 -38.5z" />
    <glyph glyph-name="zero.numr" horiz-adv-x="841" 
d="M438 588q-159 0 -241 125q-84 128 -50 321q35 199 151 312.5t286 113.5q159 0 241 -125q83 -127 49 -321q-35 -199 -150.5 -312.5t-285.5 -113.5zM307 1024q-25 -134 16 -207.5t138 -73.5t163 72.5t91 208.5t-16 208.5t-138 72.5t-163 -72.5t-91 -208.5z" />
    <glyph glyph-name="one.numr" horiz-adv-x="520" 
d="M162 1348l258 86h135l-145 -820h-158l115 643l-189 -53z" />
    <glyph glyph-name="two.numr" horiz-adv-x="706" 
d="M664 614h-586l20 117l385 322q104 84 113 147q11 50 -18 80.5t-86 30.5q-98 0 -175 -123l-127 78q51 91 137.5 142.5t186.5 51.5q123 0 191.5 -75.5t48.5 -192.5q-18 -112 -179 -246l-227 -184h342z" />
    <glyph glyph-name="three.numr" horiz-adv-x="718" 
d="M231 1434h539l-22 -136l-203 -208q86 -25 129.5 -91.5t30.5 -154.5q-20 -120 -114 -188t-235 -68q-204 0 -272 176l139 72q37 -101 156 -101q147 0 168 121q11 56 -23.5 89.5t-103.5 33.5h-19l-51 102l199 205h-344z" />
    <glyph glyph-name="four.numr" horiz-adv-x="727" 
d="M662 905h96l-25 -145h-98l-25 -146h-155l26 146h-409l24 145l383 529h176l-376 -529h227l33 180h153z" />
    <glyph glyph-name="five.numr" horiz-adv-x="696" 
d="M762 1434l-25 -146h-346l-41 -162h105q122 0 192 -79q71 -80 47 -205q-20 -121 -109 -187.5t-229 -66.5q-204 0 -268 178l139 70q38 -103 152 -103q67 0 111 33.5t55 89.5q11 58 -21.5 93.5t-99.5 35.5h-256l111 449h483z" />
    <glyph glyph-name="six.numr" horiz-adv-x="698" 
d="M459 1163h4q134 0 207 -88q74 -83 53 -211q-23 -124 -121 -200t-237 -76q-131 0 -207 88q-75 87 -54 213q16 96 78 158l320 387h186zM571 877q11 66 -24.5 104.5t-108.5 38.5q-72 0 -121 -38.5t-61 -104.5q-11 -67 24.5 -106.5t106.5 -39.5q73 0 122.5 39.5t61.5 106.5z
" />
    <glyph glyph-name="seven.numr" horiz-adv-x="606" 
d="M152 1286l26 148h551l-20 -125l-406 -695h-172l395 672h-374z" />
    <glyph glyph-name="eight.numr" horiz-adv-x="698" 
d="M748 1214q-15 -111 -134 -174q117 -74 93 -215q-19 -110 -111 -173.5t-229 -63.5q-131 0 -206.5 72t-56.5 182q27 144 172 209q-93 64 -75 180q18 108 104.5 168.5t210.5 60.5q111 0 180 -69q70 -67 52 -177zM346 1217q-8 -51 21 -80t90 -29q56 0 94 29.5t49 79.5
q8 48 -20.5 75t-87.5 27q-125 0 -146 -102zM557 854q7 57 -26 89t-99 32q-149 0 -170 -121q-11 -56 23.5 -88.5t103.5 -32.5q68 0 112.5 32.5t55.5 88.5z" />
    <glyph glyph-name="nine.numr" horiz-adv-x="698" 
d="M516 1460q125 0 203 -90q76 -88 55 -211q-15 -84 -65 -145l-328 -400h-186l229 271h-6q-131 0 -207 88q-74 86 -53 211q23 123 122.5 199.5t235.5 76.5zM442 1028q72 0 120.5 38.5t60.5 104.5t-23.5 106t-107.5 40t-122.5 -40t-60.5 -106q-11 -66 24.5 -104.5
t108.5 -38.5z" />
    <glyph glyph-name="zero.sups" horiz-adv-x="841" 
d="M496 915q-160 0 -242 125q-83 127 -49 322q35 199 150.5 312.5t285.5 113.5q160 0 242 -125q83 -127 49 -322q-35 -199 -150.5 -312.5t-285.5 -113.5zM365 1352q-25 -134 15.5 -207.5t137.5 -73.5t163 72.5t91 208.5q25 135 -15.5 207.5t-138.5 72.5q-97 0 -162.5 -72
t-90.5 -208z" />
    <glyph glyph-name="one.sups" horiz-adv-x="522" 
d="M221 1675l258 86h135l-145 -819h-158l115 643l-188 -53z" />
    <glyph glyph-name="two.sups" horiz-adv-x="706" 
d="M721 942h-586l21 117l385 321q103 83 112 148q10 49 -18.5 79.5t-85.5 30.5q-98 0 -174 -122l-127 77q51 91 137 143t186 52q123 0 191.5 -75.5t48.5 -192.5q-18 -113 -178 -246l-227 -184h342z" />
    <glyph glyph-name="three.sups" horiz-adv-x="720" 
d="M291 1761h538l-22 -135l-203 -209q86 -25 129.5 -91.5t30.5 -154.5q-20 -120 -113.5 -188t-234.5 -68q-205 0 -273 177l140 71q37 -100 155 -100q147 0 168 121q11 56 -23.5 89.5t-103.5 33.5h-18l-51 102l198 205h-344z" />
    <glyph glyph-name="four.sups" horiz-adv-x="727" 
d="M719 1233h96l-24 -146h-99l-24 -145h-156l27 145h-410l25 146l383 528h176l-377 -528h227l33 180h154z" />
    <glyph glyph-name="five.sups" horiz-adv-x="694" 
d="M821 1761l-24 -145h-346l-41 -162h104q122 0 193 -80t47 -205q-20 -121 -109 -187.5t-229 -66.5q-204 0 -269 179l140 69q37 -102 151 -102q67 0 111 33.5t55 89.5q11 58 -21.5 93.5t-99.5 35.5h-256l111 448h483z" />
    <glyph glyph-name="six.sups" horiz-adv-x="698" 
d="M518 1491h4q134 0 207 -88q74 -83 53 -211q-23 -124 -121 -200.5t-237 -76.5q-130 0 -207 89q-75 86 -53 213q15 94 78 157l319 387h187zM631 1204q11 66 -24.5 105t-108.5 39q-72 0 -121.5 -39t-61.5 -105q-11 -66 24 -105.5t107 -39.5q73 0 123 39.5t62 105.5z" />
    <glyph glyph-name="seven.sups" horiz-adv-x="608" 
d="M211 1614l27 147h550l-20 -125l-406 -694h-172l396 672h-375z" />
    <glyph glyph-name="eight.sups" horiz-adv-x="696" 
d="M805 1542q-15 -112 -133 -174q116 -73 92 -215q-19 -110 -111 -174t-229 -64q-131 0 -206 72t-56 182q27 144 172 209q-94 64 -76 181q18 108 104.5 168.5t210.5 60.5q111 0 181 -70q69 -66 51 -176zM403 1544q-8 -51 21 -79.5t90 -28.5q57 0 94.5 29t48.5 79
q8 48 -20.5 75.5t-87.5 27.5q-125 0 -146 -103zM614 1182q7 57 -26 89t-99 32q-149 0 -170 -121q-11 -56 23.5 -88.5t103.5 -32.5q68 0 112.5 32.5t55.5 88.5z" />
    <glyph glyph-name="nine.sups" horiz-adv-x="698" 
d="M573 1788q125 0 203 -90q76 -88 55 -211q-15 -85 -65 -146l-328 -399h-186l229 270h-6q-131 0 -207 88q-74 86 -53 211q23 123 122.5 200t235.5 77zM500 1356q72 0 120 38.5t60 104.5t-23.5 106t-107.5 40t-121.5 -40t-60.5 -106t24.5 -104.5t108.5 -38.5z" />
    <glyph glyph-name="cent.tf" horiz-adv-x="1173" 
d="M612 354q103 0 190.5 48.5t143.5 134.5l144 -95q-78 -125 -210 -194.5t-290 -69.5q-58 0 -131 17l-97 -195h-114l114 233q-130 68 -191 205.5t-32 300.5q41 230 213 371q177 145 404 145q41 0 106 -10l92 189h115l-108 -220q161 -69 219 -225l-158 -82q-37 102 -139 148
l-342 -695q35 -6 71 -6zM317 725q-19 -106 15 -193.5t112 -134.5l336 682q-8 2 -39 2q-156 0 -276 -102q-121 -103 -148 -254z" />
    <glyph glyph-name="dollar.tf" horiz-adv-x="1173" 
d="M817 1268l-84 -477q176 -74 250 -142q124 -118 90 -305q-32 -164 -163 -260.5t-322 -108.5l-31 -180h-129l33 182q-165 17 -275 98.5t-153 215.5l172 86q59 -196 287 -217l88 493q-31 13 -54.5 24t-53 26t-52.5 30t-48.5 33.5t-43.5 38.5t-36 43.5t-28.5 50.5t-17.5 57.5
t-6.5 65.5t8.5 74q35 176 170 266q139 95 305 98l31 178h129l-33 -188q244 -44 338 -268l-170 -84q-71 143 -201 170zM438 1079q-16 -82 26 -134t148 -103l78 434q-96 -8 -165 -60t-87 -137zM881 367q18 82 -26 134t-155 103l-79 -444q106 14 174.5 68t85.5 139z" />
    <glyph glyph-name="Euro.tf" horiz-adv-x="1173" 
d="M623 160q195 0 315 217l149 -96q-80 -147 -207.5 -227.5t-285.5 -80.5q-196 0 -304 153t-102 413h-135l25 133h123q1 7 8 59q9 46 10 49h-123l23 131h133q79 261 233 405t365 144q139 0 241 -79t140 -216l-164 -86q-25 94 -88 145.5t-154 51.5q-129 0 -225.5 -93
t-153.5 -272h451l-23 -131h-462l-13 -63l-8 -45h465l-25 -133h-452q-8 -185 54.5 -282t189.5 -97z" />
    <glyph glyph-name="florin.tf" horiz-adv-x="1173" 
d="M616 805l148 346q164 392 516 291l-31 -176q-109 36 -186 2t-119 -133l-139 -330h287l-31 -172h-330l-321 -756q-164 -391 -516 -289l30 174q219 -70 305 132l314 739h-283l33 172h323z" />
    <glyph glyph-name="uni20BD.tf" horiz-adv-x="1173" 
d="M356 1434h473q178 0 289 -138q114 -138 80 -321q-30 -184 -178 -305t-346 -121h-283l-29 -166h461l-24 -139h-461l-43 -244h-191l43 244h-174l25 139h174l29 166h-174l30 172h174zM1010 989q21 112 -41 189q-59 77 -168 77h-285l-94 -534h283q106 0 196 78q92 82 109 190
z" />
    <glyph glyph-name="sterling.tf" horiz-adv-x="1173" 
d="M901 582h-459l-69 -398h721l-31 -184h-1092l33 184h178l70 398h-141l28 168h144l47 272q38 213 165 325.5t316 112.5q136 0 239 -75.5t146 -206.5l-164 -86q-67 184 -241 184q-105 0 -176.5 -64.5t-94.5 -189.5l-47 -272h459z" />
    <glyph glyph-name="yen.tf" horiz-adv-x="1173" 
d="M1102 1434h221l-565 -713h317l-22 -133h-359l-18 -113h356l-24 -135h-357l-59 -340h-191l60 340h-355l25 135h354l19 113h-352l22 133h315l-315 713h201l260 -598z" />
    <glyph glyph-name="brevecy" horiz-adv-x="655" 
d="M721 1178h-553l27 155h553z" />
    </font>
</defs>
</svg>
