<svg width="56" height="57" viewBox="0 0 56 57" fill="none" xmlns="http://www.w3.org/2000/svg">
<rect x="4" y="4.5" width="48" height="48" rx="24" fill="#FFDEC3"/>
<rect x="4" y="4.5" width="48" height="48" rx="24" stroke="#FFEEE0" stroke-width="8"/>
<path d="M31.5799 28.4999C31.5799 30.4799 29.9799 32.0799 27.9999 32.0799C26.0199 32.0799 24.4199 30.4799 24.4199 28.4999C24.4199 26.5199 26.0199 24.9199 27.9999 24.9199C29.9799 24.9199 31.5799 26.5199 31.5799 28.4999Z" stroke="#FF730A" stroke-width="1.5" stroke-linecap="round" stroke-linejoin="round"/>
<path d="M27.9998 36.7702C31.5298 36.7702 34.8198 34.6902 37.1098 31.0902C38.0098 29.6802 38.0098 27.3102 37.1098 25.9002C34.8198 22.3002 31.5298 20.2202 27.9998 20.2202C24.4698 20.2202 21.1798 22.3002 18.8898 25.9002C17.9898 27.3102 17.9898 29.6802 18.8898 31.0902C21.1798 34.6902 24.4698 36.7702 27.9998 36.7702Z" stroke="#FF730A" stroke-width="1.5" stroke-linecap="round" stroke-linejoin="round"/>
</svg>
