<svg width="56" height="57" viewBox="0 0 56 57" fill="none" xmlns="http://www.w3.org/2000/svg">
<rect x="4" y="4.5" width="48" height="48" rx="24" fill="#FFDEC3"/>
<rect x="4" y="4.5" width="48" height="48" rx="24" stroke="#FFEEE0" stroke-width="8"/>
<path d="M23.4805 34.85L26.5805 37.25C26.9805 37.65 27.8805 37.85 28.4805 37.85H32.2805C33.4805 37.85 34.7805 36.95 35.0805 35.75L37.4805 28.45C37.9805 27.05 37.0805 25.85 35.5805 25.85H31.5805C30.9805 25.85 30.4805 25.35 30.5805 24.65L31.0805 21.45C31.2805 20.55 30.6805 19.55 29.7805 19.25C28.9805 18.95 27.9805 19.35 27.5805 19.95L23.4805 26.05" stroke="#FF730A" stroke-width="1.5" stroke-miterlimit="10"/>
<path d="M18.3809 34.8499V25.0499C18.3809 23.6499 18.9809 23.1499 20.3809 23.1499H21.3809C22.7809 23.1499 23.3809 23.6499 23.3809 25.0499V34.8499C23.3809 36.2499 22.7809 36.7499 21.3809 36.7499H20.3809C18.9809 36.7499 18.3809 36.2499 18.3809 34.8499Z" stroke="#FF730A" stroke-width="1.5" stroke-linecap="round" stroke-linejoin="round"/>
</svg>
