<svg width="21" height="21" viewBox="0 0 21 21" fill="none" xmlns="http://www.w3.org/2000/svg">
<path d="M10.0664 0.500244C4.55641 0.500244 0.0664062 4.99024 0.0664062 10.5002C0.0664062 16.0102 4.55641 20.5002 10.0664 20.5002C15.5764 20.5002 20.0664 16.0102 20.0664 10.5002C20.0664 4.99024 15.5764 0.500244 10.0664 0.500244ZM14.8464 8.20024L9.17641 13.8702C9.03641 14.0102 8.84641 14.0902 8.64641 14.0902C8.44641 14.0902 8.25641 14.0102 8.11641 13.8702L5.28641 11.0402C4.99641 10.7502 4.99641 10.2702 5.28641 9.98024C5.57641 9.69024 6.05641 9.69024 6.34641 9.98024L8.64641 12.2802L13.7864 7.14024C14.0764 6.85024 14.5564 6.85024 14.8464 7.14024C15.1364 7.43024 15.1364 7.90024 14.8464 8.20024Z" fill="#4564ED"/>
</svg>
