<svg width="146" height="42" viewBox="0 0 146 42" fill="none" xmlns="http://www.w3.org/2000/svg">
<g clip-path="url(#clip0_4056_100433)">
<path fill-rule="evenodd" clip-rule="evenodd" d="M4.86586 13.4727C5.9433 10.1132 8.96708 7.69867 12.4774 7.69867H23.3214L18.8378 27.2953L18.386 29.2199C17.3085 32.3344 14.4585 34.539 11.122 34.539H0L4.62256 14.4175L4.79634 13.6826C4.81372 13.6476 4.82241 13.6126 4.8311 13.5776C4.83979 13.5427 4.84848 13.5077 4.86586 13.4727ZM10.2523 14.4525L10.4261 14.4176L19.9493 14.5225L19.9145 14.6625C19.7408 15.4324 19.3237 16.0973 18.6633 16.6572C17.9682 17.1821 17.2383 17.462 16.4737 17.462H9.73101L9.20967 19.7016H16.9603L16.9255 19.8416C16.7517 20.6115 16.2999 21.2764 15.6395 21.8363C14.9792 22.3962 14.2145 22.6761 13.4499 22.6761H8.51454L7.95845 25.0557C7.78467 25.8256 7.33284 26.4904 6.67247 27.0504C6.0121 27.6103 5.28223 27.8902 4.48284 27.8902H4.34381L6.84625 17.0071C6.98528 16.4822 7.40235 15.8173 8.06271 15.2924C8.75784 14.7325 9.48771 14.4525 10.2523 14.4525Z" fill="#1569B2"/>
<path fill-rule="evenodd" clip-rule="evenodd" d="M25.6143 7.59386C26.5528 4.23444 29.6113 1.74988 33.2607 1.74988H44.1046L36.632 34.3992C35.7631 37.8986 32.6351 40.4881 28.9162 40.4881H18.0723L25.4406 8.36372C25.4753 8.11877 25.5448 7.83882 25.6143 7.59386ZM36.2166 14.3826C36.9117 14.3826 37.4678 14.6276 37.8848 15.0475C38.3367 15.5024 38.5452 16.0273 38.5105 16.6922C38.5105 16.8755 38.484 17.0321 38.4541 17.2086C38.4498 17.2343 38.4454 17.2604 38.4409 17.2871L37.8501 19.7717C37.6763 20.5765 37.1897 21.4514 36.5294 21.9763C35.869 22.5012 35.1739 22.6062 34.4092 22.6062H27.8403L27.2842 24.9858C27.1105 25.7556 26.6586 26.4205 25.9983 26.9804C25.3379 27.5403 24.608 27.8203 23.8086 27.8203H23.6696V27.7853L26.7282 14.3826H36.2166ZM28.5355 19.6317H34.9306L35.4519 17.3921H29.0568L28.5355 19.6317Z" fill="#F27228"/>
<path fill-rule="evenodd" clip-rule="evenodd" d="M43.8623 13.0877C45.0093 9.93828 47.9288 7.69867 51.3349 7.69867H62.1788L57.4867 28.1701C56.583 31.8445 53.4202 34.539 49.7013 34.539H38.8574L43.5843 13.9276C43.5843 13.9276 43.7928 13.2627 43.8623 13.0877ZM55.5404 14.4175C56.2355 14.4175 56.7916 14.6625 57.2086 15.0824C57.6257 15.5024 57.8343 16.0273 57.7995 16.7271C57.7995 16.9021 57.7647 17.1121 57.73 17.322L57.6952 17.427H52.7599L51.0221 25.0207C50.8483 25.7906 50.3965 26.4554 49.7361 27.0153C49.0757 27.5752 48.3458 27.8552 47.5465 27.8552H47.4074L49.8056 17.427H47.7202C47.0251 17.427 46.469 17.1821 46.0519 16.7621C45.6349 16.3072 45.4263 15.7823 45.4263 15.1174C45.4263 14.9425 45.4611 14.7325 45.4958 14.5225L45.5306 14.4175H51.0916H51.3696H55.5404Z" fill="#24B24B"/>
<path d="M58.2578 36.5948C58.2578 34.4939 59.9967 32.7432 62.0833 32.7432C64.1699 32.7432 65.9087 34.4939 65.9087 36.5948C65.9087 38.6957 64.1699 40.4464 62.0833 40.4464C59.9967 40.4464 58.2578 38.6957 58.2578 36.5948ZM64.9813 36.5948C64.9813 34.7857 63.7062 33.5018 62.0833 33.5018C60.4603 33.5018 59.1852 34.7857 59.1852 36.5948C59.1852 38.4039 60.4603 39.6878 62.0833 39.6878C63.7062 39.6878 64.9813 38.4039 64.9813 36.5948ZM60.6342 34.3772H62.2572C63.3005 34.3772 63.8801 34.7273 63.8801 35.6611C63.8801 36.4197 63.4743 36.7699 62.7208 36.8282L63.8801 38.7541H63.0686L61.9673 36.8866H61.5037V38.7541H60.6922V34.3772H60.6342ZM61.4457 36.2447H62.1412C62.6049 36.2447 63.0106 36.1863 63.0106 35.6027C63.0106 35.0775 62.547 35.0191 62.1412 35.0191H61.4457V36.2447Z" fill="#1569B2"/>
<path d="M79.3134 16.4844V29.8083H76.9448V16.4844H73.4434V14.4625H82.8148V16.4844H79.3134Z" fill="#1569B2"/>
<path d="M93.423 24.0533L85.9053 25.0902C86.1627 27.164 87.2955 28.2008 89.3552 28.2008C90.591 28.2008 91.6208 27.9935 92.4961 27.5269L93.1655 29.2377C92.1357 29.7561 90.8484 30.0672 89.2007 30.0672C87.45 30.0672 86.0597 29.5488 85.0814 28.46C84.1031 27.4232 83.6396 25.9716 83.6396 24.1052C83.6396 22.3425 84.1031 20.9427 85.0299 19.854C85.9567 18.7653 87.1925 18.195 88.7888 18.195C90.2305 18.195 91.4148 18.6616 92.2387 19.5429C93.0625 20.4243 93.4745 21.6685 93.4745 23.2238C93.423 23.5349 93.423 23.846 93.423 24.0533ZM91.2603 22.8091C91.2603 20.839 90.385 19.854 88.7373 19.854C87.8619 19.854 87.141 20.1651 86.6261 20.839C86.0597 21.513 85.8023 22.3943 85.8023 23.5867L91.2603 22.8091Z" fill="#1569B2"/>
<path d="M95.0703 29.808V13.218H97.3874V29.808H95.0703Z" fill="#1569B2"/>
<path d="M108.82 24.0533L101.302 25.0902C101.559 27.164 102.692 28.2008 104.752 28.2008C105.987 28.2008 107.017 27.9935 107.893 27.5269L108.562 29.2377C107.532 29.7561 106.245 30.0672 104.597 30.0672C102.846 30.0672 101.456 29.5488 100.478 28.46C99.4996 27.4232 99.0361 25.9716 99.0361 24.1052C99.0361 22.3425 99.4996 20.9427 100.426 19.854C101.353 18.7653 102.589 18.195 104.185 18.195C105.627 18.195 106.811 18.6616 107.635 19.5429C108.459 20.4243 108.871 21.6685 108.871 23.2238C108.82 23.5349 108.82 23.846 108.82 24.0533ZM106.605 22.8091C106.605 20.839 105.73 19.854 104.082 19.854C103.207 19.854 102.486 20.1651 101.971 20.839C101.405 21.513 101.147 22.3943 101.147 23.5867L106.605 22.8091Z" fill="#1569B2"/>
<path d="M117.88 29.2377C117.108 29.7561 116.129 30.0154 114.997 30.0154C113.606 30.0154 112.474 29.5488 111.547 28.6156C110.517 27.5269 110.002 26.0234 110.002 24.1052C110.002 22.187 110.517 20.6835 111.547 19.5948C112.422 18.6616 113.606 18.195 114.997 18.195C116.181 18.195 117.108 18.4542 117.88 18.9727L117.108 20.6317C116.593 20.2688 115.975 20.0614 115.254 20.0614C114.43 20.0614 113.761 20.3724 113.246 20.9946C112.68 21.7204 112.371 22.7054 112.371 24.0533C112.371 25.3494 112.68 26.3863 113.297 27.1121C113.812 27.7861 114.482 28.0971 115.306 28.0971C116.026 28.0971 116.644 27.8898 117.159 27.5269L117.88 29.2377Z" fill="#1569B2"/>
<path d="M127.459 28.3044C126.584 29.4449 125.348 30.0152 123.751 30.0152C122.207 30.0152 120.971 29.4449 120.044 28.3044C119.169 27.2157 118.757 25.8159 118.757 24.0532C118.757 22.2905 119.169 20.8907 120.044 19.802C120.919 18.6615 122.155 18.0912 123.751 18.0912C125.296 18.0912 126.532 18.6615 127.459 19.802C128.334 20.8907 128.746 22.2905 128.746 24.0532C128.746 25.8159 128.334 27.2675 127.459 28.3044ZM125.76 21.0981C125.296 20.3723 124.627 20.0094 123.751 20.0094C122.876 20.0094 122.207 20.3723 121.743 21.0981C121.28 21.8239 121.074 22.809 121.074 24.0532C121.074 25.2975 121.28 26.2825 121.743 27.0083C122.207 27.7341 122.876 28.1489 123.751 28.1489C124.627 28.1489 125.296 27.7859 125.76 27.0083C126.223 26.2825 126.429 25.2975 126.429 24.0532C126.429 22.809 126.223 21.8239 125.76 21.0981Z" fill="#1569B2"/>
<path d="M143.421 29.8081V22.0834C143.421 21.4094 143.215 20.9428 142.854 20.5799C142.442 20.217 141.927 20.0615 141.258 20.0615C140.331 20.0615 139.662 20.3207 139.198 20.8391V29.8599H136.881V21.876C136.881 21.3057 136.675 20.8391 136.263 20.5281C135.851 20.217 135.285 20.0615 134.564 20.0615C133.792 20.0615 133.174 20.1652 132.607 20.4244V29.8599H130.342V18.9727C131.629 18.4543 132.968 18.1432 134.41 18.1432C136.057 18.1432 137.242 18.558 138.014 19.3875C138.941 18.558 140.228 18.1432 141.773 18.1432C142.957 18.1432 143.936 18.4543 144.656 19.1283C145.377 19.8022 145.686 20.6836 145.686 21.8242V29.7562H143.421V29.8081Z" fill="#1569B2"/>
</g>
<defs>
<clipPath id="clip0_4056_100433">
<rect width="145.688" height="42" fill="white"/>
</clipPath>
</defs>
</svg>
