<svg width="264" height="45" viewBox="0 0 264 45" fill="none" xmlns="http://www.w3.org/2000/svg">
<g clip-path="url(#clip0_4445_100826)">
<path fill-rule="evenodd" clip-rule="evenodd" d="M33.525 16.8561C34.0767 17.3251 34.0736 18.16 33.5615 18.6721C33.0493 19.1842 32.2227 19.1786 31.6636 18.7183C30.629 17.8665 29.472 17.1709 28.2293 16.6562C26.5821 15.9739 24.8166 15.6227 23.0336 15.6227C21.2506 15.6227 19.4851 15.9739 17.8378 16.6562C16.5952 17.1709 15.4382 17.8665 14.4036 18.7183C13.8445 19.1786 13.018 19.1842 12.5058 18.6721C11.9937 18.16 11.9905 17.3251 12.5423 16.8561C13.8256 15.7654 15.2732 14.8798 16.8342 14.2331C18.7996 13.419 20.9062 13 23.0336 13C25.161 13 27.2676 13.419 29.2331 14.2331C30.794 14.8798 32.2416 15.7654 33.525 16.8561ZM28.4641 23.7695C28.9796 23.2539 28.9845 22.4089 28.3991 21.9741C27.8071 21.5346 27.162 21.1685 26.4777 20.885C25.3858 20.4328 24.2155 20.2 23.0336 20.2C21.8517 20.2 20.6813 20.4328 19.5895 20.885C18.9052 21.1685 18.2601 21.5346 17.6681 21.9741C17.0828 22.4089 17.0876 23.2539 17.6031 23.7695C18.1187 24.285 18.9492 24.2709 19.56 23.8727C19.8881 23.6587 20.2362 23.475 20.5998 23.3244C21.3715 23.0048 22.1985 22.8402 23.0336 22.8402C23.8687 22.8402 24.6957 23.0048 25.4673 23.3244C25.831 23.475 26.1791 23.6587 26.5072 23.8727C27.118 24.2709 27.9485 24.285 28.4641 23.7695ZM24.3063 27.9272C25.0092 28.6301 25.0092 29.7699 24.3063 30.4728C23.6033 31.1758 22.4637 31.1758 21.7607 30.4728C21.0577 29.7699 21.0577 28.6301 21.7607 27.9272C22.4637 27.2242 23.6033 27.2242 24.3063 27.9272Z" fill="#004597"/>
<path d="M24.3072 27.9276C25.0101 28.6305 25.0101 29.7703 24.3072 30.4731C23.6042 31.1761 22.4646 31.1761 21.7616 30.4731C21.0586 29.7703 21.0586 28.6305 21.7616 27.9276C22.4646 27.2246 23.6042 27.2246 24.3072 27.9276Z" fill="#004597"/>
<path fill-rule="evenodd" clip-rule="evenodd" d="M3.97161 13.707C4.11886 13.9634 4.20311 14.2605 4.20311 14.5774C4.20311 15.5439 3.41962 16.3274 2.45312 16.3274C1.48663 16.3274 0.703125 15.5439 0.703125 14.5774C0.703125 13.8175 1.1875 13.1706 1.86436 12.9289C2.82614 10.9956 4.95599 7.84298 7.51561 5.62461C12.2031 1.56211 18.8129 -0.125393 23.0004 -0.000393301C17.8754 0.411544 11.6106 2.94273 7.51561 7.63986C5.87874 9.51748 4.64986 12.0254 3.97161 13.707Z" fill="url(#paint0_linear_4445_100826)"/>
<path fill-rule="evenodd" clip-rule="evenodd" d="M42.0288 30.2454C41.8815 29.989 41.7972 29.6919 41.7972 29.375C41.7972 28.4085 42.5807 27.625 43.5472 27.625C44.5137 27.625 45.2972 28.4085 45.2972 29.375C45.2972 30.1349 44.8129 30.7817 44.136 31.0235C43.1743 32.9569 41.0444 36.1094 38.4847 38.3277C33.7972 42.3902 27.1875 44.0777 23 43.9527C28.125 43.5409 34.3897 41.0096 38.4847 36.3125C40.1216 34.435 41.3505 31.927 42.0288 30.2454Z" fill="url(#paint1_linear_4445_100826)"/>
<path d="M67.2861 2.35938V18H64.5898V2.35938H67.2861ZM73.667 9.20215V11.3398H66.5986V9.20215H73.667ZM74.5586 2.35938V4.50781H66.5986V2.35938H74.5586ZM82.6475 12.167H78.5762V10.0293H82.6475C83.3564 10.0293 83.9294 9.91471 84.3662 9.68555C84.8031 9.45638 85.1217 9.14128 85.3223 8.74023C85.5299 8.33203 85.6338 7.86654 85.6338 7.34375C85.6338 6.84961 85.5299 6.3877 85.3223 5.95801C85.1217 5.52116 84.8031 5.17025 84.3662 4.90527C83.9294 4.6403 83.3564 4.50781 82.6475 4.50781H79.4033V18H76.707V2.35938H82.6475C83.8577 2.35938 84.8854 2.57422 85.7305 3.00391C86.5827 3.42643 87.2308 4.01367 87.6748 4.76562C88.1188 5.51042 88.3408 6.36263 88.3408 7.32227C88.3408 8.33203 88.1188 9.19857 87.6748 9.92188C87.2308 10.6452 86.5827 11.2002 85.7305 11.5869C84.8854 11.9736 83.8577 12.167 82.6475 12.167ZM97.1924 2.35938V18H94.5176V2.35938H97.1924ZM102.102 2.35938V4.50781H89.6514V2.35938H102.102ZM111.759 9.00879H113.306C113.907 9.00879 114.405 8.90495 114.799 8.69727C115.2 8.48958 115.497 8.20312 115.69 7.83789C115.884 7.47266 115.98 7.05371 115.98 6.58105C115.98 6.08691 115.891 5.66439 115.712 5.31348C115.54 4.9554 115.275 4.67969 114.917 4.48633C114.566 4.29297 114.118 4.19629 113.574 4.19629C113.116 4.19629 112.701 4.28939 112.328 4.47559C111.963 4.65462 111.673 4.91243 111.458 5.24902C111.243 5.57845 111.136 5.97233 111.136 6.43066H108.536C108.536 5.59993 108.755 4.8623 109.191 4.21777C109.628 3.57324 110.223 3.06836 110.975 2.70312C111.734 2.33073 112.586 2.14453 113.531 2.14453C114.541 2.14453 115.422 2.31283 116.174 2.64941C116.933 2.97884 117.524 3.47298 117.946 4.13184C118.369 4.79069 118.58 5.6071 118.58 6.58105C118.58 7.02507 118.476 7.47624 118.269 7.93457C118.061 8.3929 117.753 8.81185 117.345 9.19141C116.937 9.5638 116.428 9.86816 115.819 10.1045C115.211 10.3337 114.505 10.4482 113.703 10.4482H111.759V9.00879ZM111.759 11.0283V9.61035H113.703C114.62 9.61035 115.4 9.71777 116.045 9.93262C116.697 10.1475 117.227 10.4447 117.635 10.8242C118.043 11.1966 118.34 11.6227 118.526 12.1025C118.72 12.5824 118.816 13.0908 118.816 13.6279C118.816 14.3584 118.684 15.0101 118.419 15.583C118.161 16.1488 117.792 16.6286 117.312 17.0225C116.833 17.4163 116.271 17.7135 115.626 17.9141C114.989 18.1146 114.294 18.2148 113.542 18.2148C112.869 18.2148 112.224 18.1217 111.608 17.9355C110.993 17.7493 110.441 17.4736 109.954 17.1084C109.467 16.736 109.08 16.2741 108.794 15.7227C108.515 15.1641 108.375 14.5195 108.375 13.7891H110.964C110.964 14.2546 111.071 14.6663 111.286 15.0244C111.508 15.3753 111.816 15.651 112.21 15.8516C112.611 16.0521 113.069 16.1523 113.585 16.1523C114.129 16.1523 114.598 16.0557 114.992 15.8623C115.386 15.6689 115.687 15.3825 115.895 15.0029C116.109 14.6234 116.217 14.165 116.217 13.6279C116.217 13.0192 116.099 12.5251 115.862 12.1455C115.626 11.766 115.289 11.4867 114.853 11.3076C114.416 11.1214 113.9 11.0283 113.306 11.0283H111.759ZM129.043 2.2627H129.365V4.37891H129.183C128.259 4.37891 127.46 4.52214 126.787 4.80859C126.121 5.09505 125.573 5.48893 125.144 5.99023C124.714 6.49154 124.392 7.07878 124.177 7.75195C123.969 8.41797 123.865 9.12695 123.865 9.87891V12.3389C123.865 12.9619 123.933 13.5133 124.069 13.9932C124.205 14.4658 124.395 14.8633 124.639 15.1855C124.889 15.5007 125.176 15.7406 125.498 15.9053C125.82 16.07 126.168 16.1523 126.54 16.1523C126.927 16.1523 127.278 16.0736 127.593 15.916C127.908 15.7513 128.176 15.5257 128.398 15.2393C128.62 14.9528 128.789 14.6126 128.903 14.2188C129.018 13.8249 129.075 13.3952 129.075 12.9297C129.075 12.4857 129.018 12.0703 128.903 11.6836C128.796 11.2897 128.635 10.946 128.42 10.6523C128.205 10.3516 127.937 10.1188 127.614 9.9541C127.299 9.78223 126.934 9.69629 126.519 9.69629C126.003 9.69629 125.534 9.81803 125.111 10.0615C124.696 10.305 124.359 10.6237 124.102 11.0176C123.851 11.4043 123.715 11.8161 123.693 12.2529L122.705 11.9307C122.762 11.2646 122.909 10.6667 123.146 10.1367C123.389 9.60677 123.708 9.1556 124.102 8.7832C124.495 8.41081 124.95 8.12793 125.466 7.93457C125.989 7.73405 126.562 7.63379 127.185 7.63379C127.944 7.63379 128.603 7.77702 129.161 8.06348C129.72 8.34993 130.182 8.74023 130.547 9.23438C130.919 9.72135 131.195 10.2799 131.374 10.9102C131.56 11.5332 131.653 12.1849 131.653 12.8652C131.653 13.6172 131.539 14.319 131.31 14.9707C131.08 15.6152 130.744 16.181 130.3 16.668C129.863 17.1549 129.329 17.5345 128.699 17.8066C128.076 18.0788 127.367 18.2148 126.572 18.2148C125.734 18.2148 124.986 18.0537 124.327 17.7314C123.675 17.4092 123.12 16.9652 122.662 16.3994C122.211 15.8337 121.867 15.182 121.631 14.4443C121.395 13.7067 121.276 12.9261 121.276 12.1025V11.0283C121.276 9.83952 121.427 8.71875 121.728 7.66602C122.028 6.60612 122.49 5.67155 123.113 4.8623C123.743 4.05306 124.549 3.41927 125.53 2.96094C126.511 2.49544 127.682 2.2627 129.043 2.2627ZM143.921 8.86914V11.4258C143.921 12.6504 143.799 13.696 143.556 14.5625C143.319 15.4219 142.976 16.1201 142.524 16.6572C142.073 17.1943 141.533 17.5882 140.902 17.8389C140.279 18.0895 139.581 18.2148 138.808 18.2148C138.192 18.2148 137.619 18.1361 137.089 17.9785C136.566 17.821 136.093 17.5739 135.671 17.2373C135.248 16.9007 134.887 16.4674 134.586 15.9375C134.292 15.4004 134.063 14.7594 133.898 14.0146C133.741 13.2699 133.662 12.4069 133.662 11.4258V8.86914C133.662 7.63737 133.784 6.59896 134.027 5.75391C134.271 4.90169 134.618 4.21061 135.069 3.68066C135.521 3.14355 136.058 2.75326 136.681 2.50977C137.311 2.26628 138.013 2.14453 138.786 2.14453C139.409 2.14453 139.982 2.22331 140.505 2.38086C141.035 2.53125 141.507 2.77116 141.923 3.10059C142.345 3.43001 142.703 3.8597 142.997 4.38965C143.298 4.91243 143.527 5.54622 143.685 6.29102C143.842 7.02865 143.921 7.88802 143.921 8.86914ZM141.332 11.791V8.48242C141.332 7.85938 141.296 7.31152 141.225 6.83887C141.153 6.35905 141.046 5.95443 140.902 5.625C140.766 5.28841 140.594 5.01628 140.387 4.80859C140.179 4.59375 139.943 4.43978 139.678 4.34668C139.413 4.24642 139.116 4.19629 138.786 4.19629C138.385 4.19629 138.027 4.27507 137.712 4.43262C137.397 4.58301 137.132 4.8265 136.917 5.16309C136.702 5.49967 136.537 5.94368 136.423 6.49512C136.315 7.03939 136.262 7.70182 136.262 8.48242V11.791C136.262 12.4212 136.298 12.9762 136.369 13.4561C136.441 13.9359 136.548 14.3477 136.691 14.6914C136.835 15.028 137.007 15.3073 137.207 15.5293C137.415 15.7441 137.651 15.9017 137.916 16.002C138.188 16.1022 138.485 16.1523 138.808 16.1523C139.216 16.1523 139.577 16.0736 139.893 15.916C140.208 15.7585 140.473 15.5078 140.688 15.1641C140.902 14.8132 141.063 14.3584 141.171 13.7998C141.278 13.2412 141.332 12.5716 141.332 11.791ZM156.038 14.4873L159.153 2.35938H160.786L160.604 5.48535L157.273 18H155.576L156.038 14.4873ZM153.707 2.35938L156.231 14.3906L156.457 18H154.652L151.032 2.35938H153.707ZM164.32 14.3584L166.812 2.35938H169.498L165.878 18H164.073L164.32 14.3584ZM161.42 2.35938L164.503 14.5195L164.954 18H163.257L159.98 5.48535L159.809 2.35938H161.42ZM174.375 2.35938V18H171.679V2.35938H174.375ZM180.423 2.35938V18H177.727V2.35938H180.423ZM186.804 9.20215V11.3398H179.735V9.20215H186.804ZM187.695 2.35938V4.50781H179.735V2.35938H187.695ZM192.723 2.35938V18H190.026V2.35938H192.723Z" fill="#1569B2"/>
<path d="M67.8262 35.0967H65.167V34.0234H67.8262C68.3411 34.0234 68.7581 33.9414 69.0771 33.7773C69.3962 33.6133 69.6286 33.3854 69.7744 33.0938C69.9248 32.8021 70 32.4694 70 32.0957C70 31.7539 69.9248 31.4326 69.7744 31.1318C69.6286 30.8311 69.3962 30.5895 69.0771 30.4072C68.7581 30.2204 68.3411 30.127 67.8262 30.127H65.4746V39H64.1553V29.0469H67.8262C68.5781 29.0469 69.2139 29.1768 69.7334 29.4365C70.2529 29.6963 70.6471 30.0563 70.916 30.5166C71.1849 30.9723 71.3193 31.4941 71.3193 32.082C71.3193 32.7201 71.1849 33.2646 70.916 33.7158C70.6471 34.167 70.2529 34.5111 69.7334 34.748C69.2139 34.9805 68.5781 35.0967 67.8262 35.0967ZM72.3652 35.3838V35.2266C72.3652 34.6934 72.4427 34.1989 72.5977 33.7432C72.7526 33.2829 72.9759 32.8841 73.2676 32.5469C73.5592 32.2051 73.9124 31.9408 74.3271 31.7539C74.7419 31.5625 75.2067 31.4668 75.7217 31.4668C76.2412 31.4668 76.7083 31.5625 77.123 31.7539C77.5423 31.9408 77.8978 32.2051 78.1895 32.5469C78.4857 32.8841 78.7113 33.2829 78.8662 33.7432C79.0212 34.1989 79.0986 34.6934 79.0986 35.2266V35.3838C79.0986 35.917 79.0212 36.4115 78.8662 36.8672C78.7113 37.3229 78.4857 37.7217 78.1895 38.0635C77.8978 38.4007 77.5446 38.665 77.1299 38.8564C76.7197 39.0433 76.2549 39.1367 75.7354 39.1367C75.2158 39.1367 74.7487 39.0433 74.334 38.8564C73.9193 38.665 73.5638 38.4007 73.2676 38.0635C72.9759 37.7217 72.7526 37.3229 72.5977 36.8672C72.4427 36.4115 72.3652 35.917 72.3652 35.3838ZM73.6299 35.2266V35.3838C73.6299 35.7529 73.6732 36.1016 73.7598 36.4297C73.8464 36.7533 73.9762 37.0404 74.1494 37.291C74.3271 37.5417 74.5482 37.7399 74.8125 37.8857C75.0768 38.027 75.3844 38.0977 75.7354 38.0977C76.0817 38.0977 76.3848 38.027 76.6445 37.8857C76.9089 37.7399 77.1276 37.5417 77.3008 37.291C77.474 37.0404 77.6038 36.7533 77.6904 36.4297C77.7816 36.1016 77.8271 35.7529 77.8271 35.3838V35.2266C77.8271 34.862 77.7816 34.5179 77.6904 34.1943C77.6038 33.8662 77.4717 33.5768 77.2939 33.3262C77.1208 33.071 76.902 32.8704 76.6377 32.7246C76.3779 32.5788 76.0726 32.5059 75.7217 32.5059C75.3753 32.5059 75.07 32.5788 74.8057 32.7246C74.5459 32.8704 74.3271 33.071 74.1494 33.3262C73.9762 33.5768 73.8464 33.8662 73.7598 34.1943C73.6732 34.5179 73.6299 34.862 73.6299 35.2266ZM82.5576 37.6875L84.458 31.6035H85.292L85.1279 32.8135L83.1934 39H82.3799L82.5576 37.6875ZM81.2793 31.6035L82.8994 37.7559L83.0156 39H82.1611L80.0146 31.6035H81.2793ZM87.1104 37.708L88.6553 31.6035H89.9131L87.7666 39H86.9189L87.1104 37.708ZM85.4766 31.6035L87.3359 37.585L87.5479 39H86.7412L84.752 32.7998L84.5879 31.6035H85.4766ZM94.2812 39.1367C93.7663 39.1367 93.2992 39.0501 92.8799 38.877C92.4652 38.6992 92.1074 38.4508 91.8066 38.1318C91.5104 37.8128 91.2826 37.4346 91.123 36.9971C90.9635 36.5596 90.8838 36.0811 90.8838 35.5615V35.2744C90.8838 34.6729 90.9727 34.1374 91.1504 33.668C91.3281 33.194 91.5697 32.793 91.875 32.4648C92.1803 32.1367 92.5267 31.8883 92.9141 31.7197C93.3014 31.5511 93.7025 31.4668 94.1172 31.4668C94.6458 31.4668 95.1016 31.5579 95.4844 31.7402C95.8717 31.9225 96.1885 32.1777 96.4346 32.5059C96.6807 32.8294 96.863 33.2122 96.9814 33.6543C97.0999 34.0918 97.1592 34.5703 97.1592 35.0898V35.6572H91.6357V34.625H95.8945V34.5293C95.8763 34.2012 95.8079 33.8822 95.6895 33.5723C95.5755 33.2624 95.3932 33.0072 95.1426 32.8066C94.8919 32.6061 94.5501 32.5059 94.1172 32.5059C93.8301 32.5059 93.5658 32.5674 93.3242 32.6904C93.0827 32.8089 92.8753 32.9867 92.7021 33.2236C92.529 33.4606 92.3945 33.75 92.2988 34.0918C92.2031 34.4336 92.1553 34.8278 92.1553 35.2744V35.5615C92.1553 35.9124 92.2031 36.2428 92.2988 36.5527C92.3991 36.8581 92.5426 37.127 92.7295 37.3594C92.9209 37.5918 93.151 37.7741 93.4199 37.9062C93.6934 38.0384 94.0033 38.1045 94.3496 38.1045C94.7962 38.1045 95.1745 38.0133 95.4844 37.8311C95.7943 37.6488 96.0654 37.4049 96.2979 37.0996L97.0635 37.708C96.904 37.9495 96.7012 38.1797 96.4551 38.3984C96.209 38.6172 95.9059 38.7949 95.5459 38.9316C95.1904 39.0684 94.7689 39.1367 94.2812 39.1367ZM99.9004 32.7656V39H98.6357V31.6035H99.8662L99.9004 32.7656ZM102.211 31.5625L102.204 32.7383C102.099 32.7155 101.999 32.7018 101.903 32.6973C101.812 32.6882 101.707 32.6836 101.589 32.6836C101.297 32.6836 101.04 32.7292 100.816 32.8203C100.593 32.9115 100.404 33.0391 100.249 33.2031C100.094 33.3672 99.971 33.5632 99.8799 33.791C99.7933 34.0143 99.7363 34.2604 99.709 34.5293L99.3535 34.7344C99.3535 34.2878 99.3968 33.8685 99.4834 33.4766C99.5745 33.0846 99.7135 32.7383 99.9004 32.4375C100.087 32.1322 100.324 31.8952 100.611 31.7266C100.903 31.5534 101.249 31.4668 101.65 31.4668C101.742 31.4668 101.846 31.4782 101.965 31.501C102.083 31.5192 102.165 31.5397 102.211 31.5625ZM106.312 39.1367C105.798 39.1367 105.33 39.0501 104.911 38.877C104.496 38.6992 104.139 38.4508 103.838 38.1318C103.542 37.8128 103.314 37.4346 103.154 36.9971C102.995 36.5596 102.915 36.0811 102.915 35.5615V35.2744C102.915 34.6729 103.004 34.1374 103.182 33.668C103.359 33.194 103.601 32.793 103.906 32.4648C104.212 32.1367 104.558 31.8883 104.945 31.7197C105.333 31.5511 105.734 31.4668 106.148 31.4668C106.677 31.4668 107.133 31.5579 107.516 31.7402C107.903 31.9225 108.22 32.1777 108.466 32.5059C108.712 32.8294 108.894 33.2122 109.013 33.6543C109.131 34.0918 109.19 34.5703 109.19 35.0898V35.6572H103.667V34.625H107.926V34.5293C107.908 34.2012 107.839 33.8822 107.721 33.5723C107.607 33.2624 107.424 33.0072 107.174 32.8066C106.923 32.6061 106.581 32.5059 106.148 32.5059C105.861 32.5059 105.597 32.5674 105.355 32.6904C105.114 32.8089 104.907 32.9867 104.733 33.2236C104.56 33.4606 104.426 33.75 104.33 34.0918C104.234 34.4336 104.187 34.8278 104.187 35.2744V35.5615C104.187 35.9124 104.234 36.2428 104.33 36.5527C104.43 36.8581 104.574 37.127 104.761 37.3594C104.952 37.5918 105.182 37.7741 105.451 37.9062C105.725 38.0384 106.035 38.1045 106.381 38.1045C106.827 38.1045 107.206 38.0133 107.516 37.8311C107.826 37.6488 108.097 37.4049 108.329 37.0996L109.095 37.708C108.935 37.9495 108.732 38.1797 108.486 38.3984C108.24 38.6172 107.937 38.7949 107.577 38.9316C107.222 39.0684 106.8 39.1367 106.312 39.1367ZM115.329 37.5645V28.5H116.601V39H115.438L115.329 37.5645ZM110.353 35.3838V35.2402C110.353 34.6751 110.421 34.1624 110.558 33.7021C110.699 33.2373 110.897 32.8385 111.152 32.5059C111.412 32.1732 111.72 31.918 112.075 31.7402C112.435 31.5579 112.836 31.4668 113.278 31.4668C113.743 31.4668 114.149 31.5488 114.495 31.7129C114.846 31.8724 115.142 32.1071 115.384 32.417C115.63 32.7223 115.824 33.0915 115.965 33.5244C116.106 33.9574 116.204 34.4473 116.259 34.9941V35.623C116.209 36.1654 116.111 36.653 115.965 37.0859C115.824 37.5189 115.63 37.888 115.384 38.1934C115.142 38.4987 114.846 38.7334 114.495 38.8975C114.144 39.057 113.734 39.1367 113.265 39.1367C112.832 39.1367 112.435 39.0433 112.075 38.8564C111.72 38.6696 111.412 38.4076 111.152 38.0703C110.897 37.7331 110.699 37.3366 110.558 36.8809C110.421 36.4206 110.353 35.9215 110.353 35.3838ZM111.624 35.2402V35.3838C111.624 35.7529 111.66 36.0993 111.733 36.4229C111.811 36.7464 111.929 37.0312 112.089 37.2773C112.248 37.5234 112.451 37.7171 112.697 37.8584C112.943 37.9951 113.237 38.0635 113.579 38.0635C113.998 38.0635 114.342 37.9746 114.611 37.7969C114.885 37.6191 115.104 37.3844 115.268 37.0928C115.432 36.8011 115.559 36.4844 115.65 36.1426V34.4951C115.596 34.2445 115.516 34.0029 115.411 33.7705C115.311 33.5335 115.179 33.3239 115.015 33.1416C114.855 32.9548 114.657 32.8066 114.42 32.6973C114.188 32.5879 113.912 32.5332 113.593 32.5332C113.246 32.5332 112.948 32.6061 112.697 32.752C112.451 32.8932 112.248 33.0892 112.089 33.3398C111.929 33.5859 111.811 33.873 111.733 34.2012C111.66 34.5247 111.624 34.8711 111.624 35.2402ZM122.035 28.5H123.307V37.5645L123.197 39H122.035V28.5ZM128.304 35.2402V35.3838C128.304 35.9215 128.24 36.4206 128.112 36.8809C127.985 37.3366 127.798 37.7331 127.552 38.0703C127.306 38.4076 127.005 38.6696 126.649 38.8564C126.294 39.0433 125.886 39.1367 125.426 39.1367C124.956 39.1367 124.544 39.057 124.188 38.8975C123.838 38.7334 123.541 38.4987 123.3 38.1934C123.058 37.888 122.865 37.5189 122.719 37.0859C122.577 36.653 122.479 36.1654 122.425 35.623V34.9941C122.479 34.4473 122.577 33.9574 122.719 33.5244C122.865 33.0915 123.058 32.7223 123.3 32.417C123.541 32.1071 123.838 31.8724 124.188 31.7129C124.539 31.5488 124.947 31.4668 125.412 31.4668C125.877 31.4668 126.289 31.5579 126.649 31.7402C127.009 31.918 127.31 32.1732 127.552 32.5059C127.798 32.8385 127.985 33.2373 128.112 33.7021C128.24 34.1624 128.304 34.6751 128.304 35.2402ZM127.032 35.3838V35.2402C127.032 34.8711 126.998 34.5247 126.93 34.2012C126.861 33.873 126.752 33.5859 126.602 33.3398C126.451 33.0892 126.253 32.8932 126.007 32.752C125.761 32.6061 125.458 32.5332 125.098 32.5332C124.779 32.5332 124.501 32.5879 124.264 32.6973C124.031 32.8066 123.833 32.9548 123.669 33.1416C123.505 33.3239 123.37 33.5335 123.266 33.7705C123.165 34.0029 123.09 34.2445 123.04 34.4951V36.1426C123.113 36.4616 123.231 36.7692 123.396 37.0654C123.564 37.3571 123.787 37.5964 124.065 37.7832C124.348 37.9701 124.697 38.0635 125.111 38.0635C125.453 38.0635 125.745 37.9951 125.986 37.8584C126.232 37.7171 126.431 37.5234 126.581 37.2773C126.736 37.0312 126.85 36.7464 126.923 36.4229C126.996 36.0993 127.032 35.7529 127.032 35.3838ZM131.899 38.2344L133.957 31.6035H135.311L132.344 40.1416C132.275 40.3239 132.184 40.5199 132.07 40.7295C131.961 40.9437 131.82 41.1465 131.646 41.3379C131.473 41.5293 131.264 41.6842 131.018 41.8027C130.776 41.9258 130.487 41.9873 130.149 41.9873C130.049 41.9873 129.922 41.9736 129.767 41.9463C129.612 41.9189 129.502 41.8962 129.438 41.8779L129.432 40.8525C129.468 40.8571 129.525 40.8617 129.603 40.8662C129.685 40.8753 129.742 40.8799 129.773 40.8799C130.061 40.8799 130.304 40.8411 130.505 40.7637C130.705 40.6908 130.874 40.5654 131.011 40.3877C131.152 40.2145 131.273 39.9753 131.373 39.6699L131.899 38.2344ZM130.389 31.6035L132.31 37.3457L132.638 38.6787L131.729 39.1436L129.008 31.6035H130.389ZM143.787 35.0967H141.128V34.0234H143.787C144.302 34.0234 144.719 33.9414 145.038 33.7773C145.357 33.6133 145.59 33.3854 145.735 33.0938C145.886 32.8021 145.961 32.4694 145.961 32.0957C145.961 31.7539 145.886 31.4326 145.735 31.1318C145.59 30.8311 145.357 30.5895 145.038 30.4072C144.719 30.2204 144.302 30.127 143.787 30.127H141.436V39H140.116V29.0469H143.787C144.539 29.0469 145.175 29.1768 145.694 29.4365C146.214 29.6963 146.608 30.0563 146.877 30.5166C147.146 30.9723 147.28 31.4941 147.28 32.082C147.28 32.7201 147.146 33.2646 146.877 33.7158C146.608 34.167 146.214 34.5111 145.694 34.748C145.175 34.9805 144.539 35.0967 143.787 35.0967ZM150.131 28.5V39H148.859V28.5H150.131ZM156.687 37.291V31.6035H157.958V39H156.748L156.687 37.291ZM156.926 35.7324L157.452 35.7188C157.452 36.2109 157.4 36.6667 157.295 37.0859C157.195 37.5007 157.031 37.8607 156.803 38.166C156.575 38.4714 156.276 38.7106 155.907 38.8838C155.538 39.0524 155.089 39.1367 154.561 39.1367C154.201 39.1367 153.87 39.0843 153.569 38.9795C153.273 38.8747 153.018 38.7129 152.804 38.4941C152.59 38.2754 152.423 37.9906 152.305 37.6396C152.191 37.2887 152.134 36.8672 152.134 36.375V31.6035H153.398V36.3887C153.398 36.7214 153.435 36.9971 153.508 37.2158C153.585 37.43 153.688 37.6009 153.815 37.7285C153.948 37.8516 154.093 37.9382 154.253 37.9883C154.417 38.0384 154.586 38.0635 154.759 38.0635C155.297 38.0635 155.723 37.9609 156.037 37.7559C156.352 37.5462 156.577 37.266 156.714 36.915C156.855 36.5596 156.926 36.1654 156.926 35.7324ZM161.144 33.0732V39H159.872V31.6035H161.075L161.144 33.0732ZM160.884 35.0215L160.296 35.001C160.3 34.4951 160.367 34.028 160.494 33.5996C160.622 33.1667 160.811 32.7907 161.062 32.4717C161.312 32.1527 161.624 31.9066 161.998 31.7334C162.372 31.5557 162.805 31.4668 163.297 31.4668C163.643 31.4668 163.962 31.5169 164.254 31.6172C164.546 31.7129 164.799 31.8656 165.013 32.0752C165.227 32.2848 165.393 32.5537 165.512 32.8818C165.63 33.21 165.689 33.6064 165.689 34.0713V39H164.425V34.1328C164.425 33.7454 164.359 33.4355 164.227 33.2031C164.099 32.9707 163.917 32.8021 163.68 32.6973C163.443 32.5879 163.165 32.5332 162.846 32.5332C162.472 32.5332 162.16 32.5993 161.909 32.7314C161.659 32.8636 161.458 33.0459 161.308 33.2783C161.157 33.5107 161.048 33.7773 160.979 34.0781C160.916 34.3743 160.884 34.6888 160.884 35.0215ZM165.676 34.3242L164.828 34.584C164.833 34.1784 164.899 33.7887 165.026 33.415C165.159 33.0413 165.348 32.7087 165.594 32.417C165.844 32.1253 166.152 31.8952 166.517 31.7266C166.881 31.5534 167.298 31.4668 167.768 31.4668C168.164 31.4668 168.515 31.5192 168.82 31.624C169.13 31.7288 169.39 31.8906 169.6 32.1094C169.814 32.3236 169.976 32.5993 170.085 32.9365C170.194 33.2738 170.249 33.6748 170.249 34.1396V39H168.978V34.126C168.978 33.7113 168.911 33.39 168.779 33.1621C168.652 32.9297 168.469 32.7679 168.232 32.6768C168 32.5811 167.722 32.5332 167.398 32.5332C167.12 32.5332 166.874 32.5811 166.66 32.6768C166.446 32.7725 166.266 32.9046 166.12 33.0732C165.974 33.2373 165.863 33.4264 165.785 33.6406C165.712 33.8548 165.676 34.0827 165.676 34.3242ZM175.232 39.1367C174.717 39.1367 174.25 39.0501 173.831 38.877C173.416 38.6992 173.059 38.4508 172.758 38.1318C172.462 37.8128 172.234 37.4346 172.074 36.9971C171.915 36.5596 171.835 36.0811 171.835 35.5615V35.2744C171.835 34.6729 171.924 34.1374 172.102 33.668C172.279 33.194 172.521 32.793 172.826 32.4648C173.132 32.1367 173.478 31.8883 173.865 31.7197C174.253 31.5511 174.654 31.4668 175.068 31.4668C175.597 31.4668 176.053 31.5579 176.436 31.7402C176.823 31.9225 177.14 32.1777 177.386 32.5059C177.632 32.8294 177.814 33.2122 177.933 33.6543C178.051 34.0918 178.11 34.5703 178.11 35.0898V35.6572H172.587V34.625H176.846V34.5293C176.827 34.2012 176.759 33.8822 176.641 33.5723C176.527 33.2624 176.344 33.0072 176.094 32.8066C175.843 32.6061 175.501 32.5059 175.068 32.5059C174.781 32.5059 174.517 32.5674 174.275 32.6904C174.034 32.8089 173.826 32.9867 173.653 33.2236C173.48 33.4606 173.346 33.75 173.25 34.0918C173.154 34.4336 173.106 34.8278 173.106 35.2744V35.5615C173.106 35.9124 173.154 36.2428 173.25 36.5527C173.35 36.8581 173.494 37.127 173.681 37.3594C173.872 37.5918 174.102 37.7741 174.371 37.9062C174.645 38.0384 174.954 38.1045 175.301 38.1045C175.747 38.1045 176.126 38.0133 176.436 37.8311C176.745 37.6488 177.017 37.4049 177.249 37.0996L178.015 37.708C177.855 37.9495 177.652 38.1797 177.406 38.3984C177.16 38.6172 176.857 38.7949 176.497 38.9316C176.142 39.0684 175.72 39.1367 175.232 39.1367ZM189.752 33.3262V34.3994H184.365V33.3262H189.752ZM184.57 29.0469V39H183.251V29.0469H184.57ZM190.9 29.0469V39H189.588V29.0469H190.9ZM192.719 35.3838V35.2266C192.719 34.6934 192.796 34.1989 192.951 33.7432C193.106 33.2829 193.329 32.8841 193.621 32.5469C193.913 32.2051 194.266 31.9408 194.681 31.7539C195.095 31.5625 195.56 31.4668 196.075 31.4668C196.595 31.4668 197.062 31.5625 197.477 31.7539C197.896 31.9408 198.251 32.2051 198.543 32.5469C198.839 32.8841 199.065 33.2829 199.22 33.7432C199.375 34.1989 199.452 34.6934 199.452 35.2266V35.3838C199.452 35.917 199.375 36.4115 199.22 36.8672C199.065 37.3229 198.839 37.7217 198.543 38.0635C198.251 38.4007 197.898 38.665 197.483 38.8564C197.073 39.0433 196.608 39.1367 196.089 39.1367C195.569 39.1367 195.102 39.0433 194.688 38.8564C194.273 38.665 193.917 38.4007 193.621 38.0635C193.329 37.7217 193.106 37.3229 192.951 36.8672C192.796 36.4115 192.719 35.917 192.719 35.3838ZM193.983 35.2266V35.3838C193.983 35.7529 194.027 36.1016 194.113 36.4297C194.2 36.7533 194.33 37.0404 194.503 37.291C194.681 37.5417 194.902 37.7399 195.166 37.8857C195.43 38.027 195.738 38.0977 196.089 38.0977C196.435 38.0977 196.738 38.027 196.998 37.8857C197.262 37.7399 197.481 37.5417 197.654 37.291C197.827 37.0404 197.957 36.7533 198.044 36.4297C198.135 36.1016 198.181 35.7529 198.181 35.3838V35.2266C198.181 34.862 198.135 34.5179 198.044 34.1943C197.957 33.8662 197.825 33.5768 197.647 33.3262C197.474 33.071 197.256 32.8704 196.991 32.7246C196.731 32.5788 196.426 32.5059 196.075 32.5059C195.729 32.5059 195.424 32.5788 195.159 32.7246C194.899 32.8704 194.681 33.071 194.503 33.3262C194.33 33.5768 194.2 33.8662 194.113 34.1943C194.027 34.5179 193.983 34.862 193.983 35.2266ZM202.296 33.0732V39H201.024V31.6035H202.228L202.296 33.0732ZM202.036 35.0215L201.448 35.001C201.453 34.4951 201.519 34.028 201.646 33.5996C201.774 33.1667 201.963 32.7907 202.214 32.4717C202.465 32.1527 202.777 31.9066 203.15 31.7334C203.524 31.5557 203.957 31.4668 204.449 31.4668C204.796 31.4668 205.115 31.5169 205.406 31.6172C205.698 31.7129 205.951 31.8656 206.165 32.0752C206.379 32.2848 206.546 32.5537 206.664 32.8818C206.783 33.21 206.842 33.6064 206.842 34.0713V39H205.577V34.1328C205.577 33.7454 205.511 33.4355 205.379 33.2031C205.251 32.9707 205.069 32.8021 204.832 32.6973C204.595 32.5879 204.317 32.5332 203.998 32.5332C203.624 32.5332 203.312 32.5993 203.062 32.7314C202.811 32.8636 202.61 33.0459 202.46 33.2783C202.31 33.5107 202.2 33.7773 202.132 34.0781C202.068 34.3743 202.036 34.6888 202.036 35.0215ZM206.828 34.3242L205.98 34.584C205.985 34.1784 206.051 33.7887 206.179 33.415C206.311 33.0413 206.5 32.7087 206.746 32.417C206.997 32.1253 207.304 31.8952 207.669 31.7266C208.034 31.5534 208.451 31.4668 208.92 31.4668C209.316 31.4668 209.667 31.5192 209.973 31.624C210.283 31.7288 210.542 31.8906 210.752 32.1094C210.966 32.3236 211.128 32.5993 211.237 32.9365C211.347 33.2738 211.401 33.6748 211.401 34.1396V39H210.13V34.126C210.13 33.7113 210.064 33.39 209.932 33.1621C209.804 32.9297 209.622 32.7679 209.385 32.6768C209.152 32.5811 208.874 32.5332 208.551 32.5332C208.273 32.5332 208.027 32.5811 207.812 32.6768C207.598 32.7725 207.418 32.9046 207.272 33.0732C207.127 33.2373 207.015 33.4264 206.938 33.6406C206.865 33.8548 206.828 34.0827 206.828 34.3242ZM216.385 39.1367C215.87 39.1367 215.403 39.0501 214.983 38.877C214.569 38.6992 214.211 38.4508 213.91 38.1318C213.614 37.8128 213.386 37.4346 213.227 36.9971C213.067 36.5596 212.987 36.0811 212.987 35.5615V35.2744C212.987 34.6729 213.076 34.1374 213.254 33.668C213.432 33.194 213.673 32.793 213.979 32.4648C214.284 32.1367 214.63 31.8883 215.018 31.7197C215.405 31.5511 215.806 31.4668 216.221 31.4668C216.749 31.4668 217.205 31.5579 217.588 31.7402C217.975 31.9225 218.292 32.1777 218.538 32.5059C218.784 32.8294 218.966 33.2122 219.085 33.6543C219.203 34.0918 219.263 34.5703 219.263 35.0898V35.6572H213.739V34.625H217.998V34.5293C217.98 34.2012 217.911 33.8822 217.793 33.5723C217.679 33.2624 217.497 33.0072 217.246 32.8066C216.995 32.6061 216.654 32.5059 216.221 32.5059C215.934 32.5059 215.669 32.5674 215.428 32.6904C215.186 32.8089 214.979 32.9867 214.806 33.2236C214.632 33.4606 214.498 33.75 214.402 34.0918C214.307 34.4336 214.259 34.8278 214.259 35.2744V35.5615C214.259 35.9124 214.307 36.2428 214.402 36.5527C214.503 36.8581 214.646 37.127 214.833 37.3594C215.024 37.5918 215.255 37.7741 215.523 37.9062C215.797 38.0384 216.107 38.1045 216.453 38.1045C216.9 38.1045 217.278 38.0133 217.588 37.8311C217.898 37.6488 218.169 37.4049 218.401 37.0996L219.167 37.708C219.007 37.9495 218.805 38.1797 218.559 38.3984C218.312 38.6172 218.009 38.7949 217.649 38.9316C217.294 39.0684 216.872 39.1367 216.385 39.1367ZM224.602 35.0967H221.942V34.0234H224.602C225.117 34.0234 225.534 33.9414 225.853 33.7773C226.172 33.6133 226.404 33.3854 226.55 33.0938C226.7 32.8021 226.775 32.4694 226.775 32.0957C226.775 31.7539 226.7 31.4326 226.55 31.1318C226.404 30.8311 226.172 30.5895 225.853 30.4072C225.534 30.2204 225.117 30.127 224.602 30.127H222.25V39H220.931V29.0469H224.602C225.354 29.0469 225.989 29.1768 226.509 29.4365C227.028 29.6963 227.423 30.0563 227.691 30.5166C227.96 30.9723 228.095 31.4941 228.095 32.082C228.095 32.7201 227.96 33.2646 227.691 33.7158C227.423 34.167 227.028 34.5111 226.509 34.748C225.989 34.9805 225.354 35.0967 224.602 35.0967ZM233.851 37.7354V33.9277C233.851 33.6361 233.791 33.3831 233.673 33.1689C233.559 32.9502 233.386 32.7816 233.153 32.6631C232.921 32.5446 232.634 32.4854 232.292 32.4854C231.973 32.4854 231.693 32.54 231.451 32.6494C231.214 32.7588 231.027 32.9023 230.891 33.0801C230.758 33.2578 230.692 33.4492 230.692 33.6543H229.428C229.428 33.39 229.496 33.1279 229.633 32.8682C229.77 32.6084 229.965 32.3737 230.221 32.1641C230.48 31.9499 230.79 31.7812 231.15 31.6582C231.515 31.5306 231.921 31.4668 232.367 31.4668C232.905 31.4668 233.379 31.5579 233.789 31.7402C234.204 31.9225 234.527 32.1982 234.76 32.5674C234.997 32.932 235.115 33.39 235.115 33.9414V37.3867C235.115 37.6328 235.136 37.8949 235.177 38.1729C235.222 38.4508 235.288 38.6901 235.375 38.8906V39H234.056C233.992 38.8542 233.942 38.6605 233.905 38.4189C233.869 38.1729 233.851 37.945 233.851 37.7354ZM234.069 34.5156L234.083 35.4043H232.805C232.445 35.4043 232.123 35.4339 231.841 35.4932C231.558 35.5479 231.321 35.6322 231.13 35.7461C230.938 35.86 230.793 36.0036 230.692 36.1768C230.592 36.3454 230.542 36.5436 230.542 36.7715C230.542 37.0039 230.594 37.2158 230.699 37.4072C230.804 37.5986 230.961 37.7513 231.171 37.8652C231.385 37.9746 231.647 38.0293 231.957 38.0293C232.344 38.0293 232.686 37.9473 232.982 37.7832C233.279 37.6191 233.513 37.4186 233.687 37.1816C233.864 36.9447 233.96 36.7145 233.974 36.4912L234.514 37.0996C234.482 37.291 234.395 37.5029 234.254 37.7354C234.113 37.9678 233.924 38.1911 233.687 38.4053C233.454 38.6149 233.176 38.7904 232.853 38.9316C232.534 39.0684 232.174 39.1367 231.772 39.1367C231.271 39.1367 230.831 39.0387 230.453 38.8428C230.079 38.6468 229.788 38.3848 229.578 38.0566C229.373 37.724 229.271 37.3525 229.271 36.9424C229.271 36.5459 229.348 36.1973 229.503 35.8965C229.658 35.5911 229.881 35.3382 230.173 35.1377C230.465 34.9326 230.815 34.7777 231.226 34.6729C231.636 34.568 232.094 34.5156 232.6 34.5156H234.069ZM241.411 37.0381C241.411 36.8558 241.37 36.6872 241.288 36.5322C241.211 36.3727 241.049 36.2292 240.803 36.1016C240.561 35.9694 240.197 35.8555 239.709 35.7598C239.299 35.6732 238.927 35.5706 238.595 35.4521C238.267 35.3337 237.986 35.1901 237.754 35.0215C237.526 34.8529 237.351 34.6546 237.228 34.4268C237.104 34.1989 237.043 33.9323 237.043 33.627C237.043 33.3353 237.107 33.0596 237.234 32.7998C237.367 32.54 237.551 32.3099 237.788 32.1094C238.03 31.9089 238.319 31.7516 238.656 31.6377C238.993 31.5238 239.369 31.4668 239.784 31.4668C240.377 31.4668 240.882 31.5716 241.302 31.7812C241.721 31.9909 242.042 32.2712 242.266 32.6221C242.489 32.9684 242.601 33.3535 242.601 33.7773H241.336C241.336 33.5723 241.274 33.374 241.151 33.1826C241.033 32.9867 240.857 32.8249 240.625 32.6973C240.397 32.5697 240.117 32.5059 239.784 32.5059C239.433 32.5059 239.148 32.5605 238.93 32.6699C238.715 32.7747 238.558 32.9092 238.458 33.0732C238.362 33.2373 238.314 33.4105 238.314 33.5928C238.314 33.7295 238.337 33.8525 238.383 33.9619C238.433 34.0667 238.52 34.1647 238.643 34.2559C238.766 34.3424 238.939 34.4245 239.162 34.502C239.385 34.5794 239.67 34.6569 240.017 34.7344C240.623 34.8711 241.122 35.0352 241.514 35.2266C241.906 35.418 242.197 35.6527 242.389 35.9307C242.58 36.2087 242.676 36.5459 242.676 36.9424C242.676 37.266 242.607 37.5622 242.471 37.8311C242.339 38.0999 242.145 38.3324 241.89 38.5283C241.639 38.7197 241.338 38.8701 240.987 38.9795C240.641 39.0843 240.251 39.1367 239.818 39.1367C239.167 39.1367 238.615 39.0205 238.164 38.7881C237.713 38.5557 237.371 38.2549 237.139 37.8857C236.906 37.5166 236.79 37.127 236.79 36.7168H238.062C238.08 37.0632 238.18 37.3389 238.362 37.5439C238.545 37.7445 238.768 37.888 239.032 37.9746C239.297 38.0566 239.559 38.0977 239.818 38.0977C240.165 38.0977 240.454 38.0521 240.687 37.9609C240.924 37.8698 241.104 37.7445 241.227 37.585C241.35 37.4255 241.411 37.2432 241.411 37.0381ZM248.644 37.0381C248.644 36.8558 248.603 36.6872 248.521 36.5322C248.443 36.3727 248.281 36.2292 248.035 36.1016C247.794 35.9694 247.429 35.8555 246.941 35.7598C246.531 35.6732 246.16 35.5706 245.827 35.4521C245.499 35.3337 245.219 35.1901 244.986 35.0215C244.758 34.8529 244.583 34.6546 244.46 34.4268C244.337 34.1989 244.275 33.9323 244.275 33.627C244.275 33.3353 244.339 33.0596 244.467 32.7998C244.599 32.54 244.784 32.3099 245.021 32.1094C245.262 31.9089 245.551 31.7516 245.889 31.6377C246.226 31.5238 246.602 31.4668 247.017 31.4668C247.609 31.4668 248.115 31.5716 248.534 31.7812C248.953 31.9909 249.275 32.2712 249.498 32.6221C249.721 32.9684 249.833 33.3535 249.833 33.7773H248.568C248.568 33.5723 248.507 33.374 248.384 33.1826C248.265 32.9867 248.09 32.8249 247.857 32.6973C247.63 32.5697 247.349 32.5059 247.017 32.5059C246.666 32.5059 246.381 32.5605 246.162 32.6699C245.948 32.7747 245.791 32.9092 245.69 33.0732C245.595 33.2373 245.547 33.4105 245.547 33.5928C245.547 33.7295 245.57 33.8525 245.615 33.9619C245.665 34.0667 245.752 34.1647 245.875 34.2559C245.998 34.3424 246.171 34.4245 246.395 34.502C246.618 34.5794 246.903 34.6569 247.249 34.7344C247.855 34.8711 248.354 35.0352 248.746 35.2266C249.138 35.418 249.43 35.6527 249.621 35.9307C249.812 36.2087 249.908 36.5459 249.908 36.9424C249.908 37.266 249.84 37.5622 249.703 37.8311C249.571 38.0999 249.377 38.3324 249.122 38.5283C248.871 38.7197 248.571 38.8701 248.22 38.9795C247.873 39.0843 247.484 39.1367 247.051 39.1367C246.399 39.1367 245.848 39.0205 245.396 38.7881C244.945 38.5557 244.604 38.2549 244.371 37.8857C244.139 37.5166 244.022 37.127 244.022 36.7168H245.294C245.312 37.0632 245.412 37.3389 245.595 37.5439C245.777 37.7445 246 37.888 246.265 37.9746C246.529 38.0566 246.791 38.0977 247.051 38.0977C247.397 38.0977 247.687 38.0521 247.919 37.9609C248.156 37.8698 248.336 37.7445 248.459 37.585C248.582 37.4255 248.644 37.2432 248.644 37.0381Z" fill="#777E90"/>
<path d="M255 30.5C255 28.0455 257.032 26 259.469 26C261.907 26 263.939 28.0455 263.939 30.5C263.939 32.9545 261.907 35 259.469 35C257.032 35 255 32.9545 255 30.5ZM262.855 30.5C262.855 28.3864 261.366 26.8864 259.469 26.8864C257.573 26.8864 256.083 28.3864 256.083 30.5C256.083 32.6136 257.573 34.1136 259.469 34.1136C261.366 34.1136 262.855 32.6136 262.855 30.5ZM257.776 27.9091H259.673C260.891 27.9091 261.569 28.3182 261.569 29.4091C261.569 30.2955 261.095 30.7045 260.214 30.7727L261.569 33.0227H260.621L259.334 30.8409H258.792V33.0227H257.844V27.9091H257.776ZM258.725 30.0909H259.537C260.079 30.0909 260.553 30.0227 260.553 29.3409C260.553 28.7273 260.011 28.6591 259.537 28.6591H258.725V30.0909Z" fill="#777E90"/>
</g>
<defs>
<linearGradient id="paint0_linear_4445_100826" x1="0.703125" y1="8.16023" x2="23.0004" y2="8.16023" gradientUnits="userSpaceOnUse">
<stop stop-color="#004597"/>
<stop offset="0.473207" stop-color="#5A8DC9"/>
<stop offset="1" stop-color="#94B7E2"/>
</linearGradient>
<linearGradient id="paint1_linear_4445_100826" x1="45.2972" y1="35.7921" x2="23" y2="35.7921" gradientUnits="userSpaceOnUse">
<stop stop-color="#004597"/>
<stop offset="0.473207" stop-color="#5A8DC9"/>
<stop offset="1" stop-color="#94B7E2"/>
</linearGradient>
<clipPath id="clip0_4445_100826">
<rect width="264" height="45" fill="white"/>
</clipPath>
</defs>
</svg>
