<svg width="32" height="32" viewBox="0 0 32 32" fill="none" xmlns="http://www.w3.org/2000/svg">
<path d="M26.9542 13.4286C26.9927 8.91699 23.1501 4.78104 18.3886 4.20911C18.2939 4.19788 18.1907 4.18079 18.0815 4.1627C17.8458 4.12364 17.602 4.0835 17.356 4.0835C16.3801 4.0835 16.1192 4.76901 16.0506 5.17786C15.9838 5.57537 16.0475 5.90919 16.2396 6.17045C16.5628 6.60991 17.1314 6.68792 17.5882 6.75043C17.722 6.76891 17.8483 6.7861 17.9541 6.80986C22.2321 7.76578 23.6726 9.26869 24.3766 13.5104C24.3938 13.614 24.4016 13.7417 24.4098 13.8772C24.4405 14.3842 24.5045 15.4391 25.6386 15.4391H25.6387C25.7332 15.4391 25.8346 15.431 25.9403 15.4149C26.9964 15.2544 26.9633 14.2901 26.9474 13.8268C26.9429 13.6963 26.9386 13.5729 26.9497 13.4908C26.9526 13.4701 26.9541 13.4494 26.9542 13.4286Z" fill="white"/>
<path d="M17.0791 2.55284C17.2058 2.56199 17.3257 2.57073 17.4256 2.58604C24.4506 3.66638 27.6813 6.99478 28.5766 14.0747C28.5918 14.1951 28.5942 14.3419 28.5967 14.4973C28.6056 15.0504 28.624 16.2011 29.8598 16.225L29.8982 16.2254C30.2857 16.2254 30.594 16.1085 30.8145 15.8778C31.1992 15.4754 31.1724 14.8776 31.1507 14.3972C31.1455 14.2794 31.1404 14.1683 31.1417 14.0712C31.231 6.83021 24.9632 0.264149 17.7287 0.0199752C17.6987 0.0189814 17.6701 0.0205714 17.6412 0.024646C17.627 0.0267329 17.6006 0.0293168 17.5555 0.0293168C17.4834 0.0293168 17.3946 0.0230559 17.3005 0.0166957C17.1867 0.0089441 17.0577 0 16.9269 0C15.7748 0 15.5558 0.818882 15.5278 1.30703C15.4632 2.43518 16.5546 2.51458 17.0791 2.55284Z" fill="white"/>
<path d="M28.2376 23.2251C28.0883 23.111 27.9338 22.9929 27.7892 22.8765C27.0222 22.2592 26.2062 21.6903 25.4171 21.14C25.2533 21.0259 25.0895 20.9117 24.9263 20.7973C23.9154 20.0872 23.0066 19.7422 22.148 19.7422C20.9915 19.7422 19.9832 20.3812 19.151 21.6412C18.7823 22.1998 18.335 22.4714 17.7838 22.4714C17.4578 22.4714 17.0874 22.3784 16.683 22.1948C13.4201 20.7152 11.0902 18.4466 9.75783 15.452C9.11375 14.0046 9.32255 13.0585 10.4561 12.2885C11.0997 11.8517 12.2979 11.0384 12.213 9.48089C12.1169 7.71224 8.21447 2.3906 6.57025 1.78618C5.8741 1.53018 5.14267 1.5278 4.39236 1.78022C2.50217 2.41565 1.14575 3.53157 0.46938 5.00715C-0.184235 6.43294 -0.15472 8.10708 0.554746 9.84859C2.60573 14.8837 5.48931 19.2737 9.12568 22.8963C12.685 26.4426 17.0598 29.3474 22.1283 31.5299C22.5852 31.7265 23.0644 31.8337 23.4143 31.9119C23.5335 31.9387 23.6365 31.9616 23.7115 31.9822C23.7528 31.9934 23.7953 31.9995 23.8379 31.9998L23.878 32C23.8781 32 23.878 32 23.8782 32C26.2621 32 29.1245 29.8217 30.0036 27.3382C30.7738 25.1636 29.3676 24.0887 28.2376 23.2251Z" fill="white"/>
<path d="M18.1335 8.30458C17.7253 8.31492 16.876 8.33598 16.5779 9.20108C16.4385 9.60535 16.4552 9.95636 16.6276 10.2444C16.8806 10.6669 17.3654 10.7964 17.8063 10.8675C19.4055 11.1241 20.2267 12.0083 20.391 13.6501C20.4673 14.4156 20.9828 14.9502 21.6447 14.9502H21.6448C21.6936 14.9502 21.7436 14.9473 21.7934 14.9412C22.5895 14.8465 22.9753 14.2617 22.9405 13.2031C22.9532 12.0983 22.375 10.844 21.3916 9.84495C20.4049 8.84282 19.2154 8.27844 18.1335 8.30458Z" fill="white"/>
</svg>
