<svg width="40" height="41" viewBox="0 0 40 41" fill="none" xmlns="http://www.w3.org/2000/svg">
<path d="M6.80024 24.0879C8.4874 24.0879 10.074 24.0763 11.6494 24.0879C12.5321 24.0994 13.0126 24.4805 13.102 25.208C13.2025 26.1202 12.6885 26.7322 11.7276 26.7438C9.91758 26.7669 8.11868 26.7553 6.30862 26.7553C5.78348 26.7553 5.26951 26.7784 4.74436 26.7438C4.09632 26.7091 3.45944 26.5706 3.14659 25.8777C2.83374 25.1849 3.05721 24.5613 3.48179 23.9955C5.20247 21.7322 6.93432 19.4574 8.66617 17.1942C8.76673 17.0556 8.86729 16.917 8.96785 16.79C8.85612 16.5937 8.69969 16.6861 8.56561 16.6745C7.3589 16.663 6.14102 16.6745 4.93431 16.663C4.65498 16.663 4.37565 16.6283 4.10749 16.5706C3.47062 16.4205 3.07955 15.7623 3.2248 15.1156C3.32536 14.6768 3.66056 14.3189 4.08514 14.2149C4.3533 14.1457 4.63263 14.111 4.91196 14.111C6.9008 14.0995 8.90081 14.0995 10.8896 14.111C11.2472 14.0995 11.5936 14.1457 11.9399 14.238C12.6997 14.5036 13.0237 15.2311 12.7221 15.9932C12.4539 16.6514 12.0293 17.2172 11.6047 17.7831C10.141 19.7115 8.67735 21.6283 7.21365 23.5336C7.09075 23.6837 6.97901 23.8339 6.80024 24.0879Z" fill="white"/>
<path fill-rule="evenodd" clip-rule="evenodd" d="M20.762 17.2278C20.3039 17.3202 20.0245 17.6551 19.7564 18.0131C18.3597 16.7544 16.8178 16.6736 15.2982 17.6089C13.4658 18.7174 12.7842 20.5188 13.0189 22.632C13.2424 24.5835 14.058 26.1885 16.0468 26.8583C17.2871 27.274 18.4379 27.1239 19.4547 26.2694C19.7228 26.05 19.8011 26.0961 19.991 26.3386C20.3597 26.8352 20.9966 27.0084 21.5553 26.789C22.1027 26.6158 22.4826 26.0846 22.4826 25.4841C22.505 23.1747 22.5162 20.8652 22.4826 18.5558C22.4715 17.632 21.6446 17.0431 20.762 17.2278ZM16.2532 23.6009C15.9736 23.2016 15.8229 22.7258 15.801 22.2278C15.7934 21.1183 16.1905 20.309 16.8332 19.9317C17.1335 19.7508 17.4875 19.6648 17.8783 19.687C18.2402 19.7029 18.5862 19.834 18.8687 20.0614C18.9965 20.1637 19.1114 20.2861 19.2089 20.4264C19.2283 20.4536 19.2471 20.4814 19.2652 20.5096C19.453 20.7985 19.5766 21.1439 19.636 21.5077C19.7579 22.2454 19.6155 23.0547 19.2089 23.625C19.0971 23.7751 18.9742 23.9022 18.8402 24.0061C18.4558 24.2999 17.9969 24.4168 17.5561 24.3713C17.2344 24.3387 16.9167 24.2187 16.6381 24.0057C16.5872 23.9662 16.5378 23.9234 16.4901 23.8772C16.4222 23.8122 16.3583 23.741 16.2993 23.6639C16.2892 23.651 16.2793 23.6379 16.2694 23.6246C16.2639 23.6167 16.2585 23.6088 16.2532 23.6009Z" fill="white"/>
<path fill-rule="evenodd" clip-rule="evenodd" d="M31.9799 17.0315C29.2983 17.1124 27.41 19.3294 27.4994 22.2971C27.4547 25.1839 29.7676 27.3663 32.6838 27.0661C35.3542 26.789 37.0861 24.722 36.9967 21.8006C36.9073 18.9137 34.8291 16.9392 31.9799 17.0315ZM30.7844 23.6366C30.4492 23.1631 30.2816 22.5973 30.3039 22.02C30.3039 20.6477 31.0714 19.7242 32.184 19.6961C32.245 19.6941 32.3071 19.695 32.3701 19.6986C32.8953 19.7101 33.3869 19.9873 33.6997 20.4261C34.3366 21.3036 34.3366 22.7932 33.6886 23.6593C33.4022 24.0345 33.0035 24.267 32.5792 24.3469C31.9208 24.4772 31.2187 24.2241 30.7844 23.6366Z" fill="white"/>
<path d="M26.5187 21.789C26.5174 21.1924 26.5162 20.5958 26.5162 19.9992C26.5162 19.3992 26.5174 18.7978 26.5187 18.1961C26.5211 16.9913 26.5236 15.7849 26.5162 14.5835C26.5162 13.6597 25.9463 13.0824 25.0972 13.0939C24.2704 13.0939 23.7229 13.6713 23.7117 14.5604C23.7043 14.9218 23.7067 15.2781 23.7092 15.636C23.7104 15.8157 23.7117 15.9957 23.7117 16.177V25.3571C23.7117 26.0846 24.1363 26.6966 24.6949 26.8467C24.829 26.8814 24.9743 26.8929 25.1084 26.8929C25.9017 26.8698 26.5274 26.1885 26.5162 25.3687C26.5236 24.1754 26.5211 22.9822 26.5187 21.789Z" fill="white"/>
</svg>
