<svg width="158" height="158" viewBox="0 0 158 158" fill="none" xmlns="http://www.w3.org/2000/svg">
<mask id="path-1-inside-1_4015_1257" fill="white">
<path d="M4 158C1.79086 158 0 156.209 0 154L0 146H12L12 158H4Z"/>
</mask>
<path d="M4 160C0.686292 160 -2 157.314 -2 154L-2 146H2L2 154C2 155.105 2.89543 156 4 156V160ZM12 146L12 158L12 146ZM12 160H4C0.686292 160 -2 157.314 -2 154H2C2 155.105 2.89543 156 4 156H12V160ZM0 146H12H0Z" fill="#4564ED" mask="url(#path-1-inside-1_4015_1257)"/>
<mask id="path-3-inside-2_4015_1257" fill="white">
<path d="M154 158C156.209 158 158 156.209 158 154V146H146V158H154Z"/>
</mask>
<path d="M154 160C157.314 160 160 157.314 160 154V146H156V154C156 155.105 155.105 156 154 156V160ZM146 146V158V146ZM146 160H154C157.314 160 160 157.314 160 154H156C156 155.105 155.105 156 154 156H146V160ZM158 146H146H158Z" fill="#4564ED" mask="url(#path-3-inside-2_4015_1257)"/>
<mask id="path-5-inside-3_4015_1257" fill="white">
<path d="M0 4C0 1.79086 1.79086 0 4 0H12V12H0V4Z"/>
</mask>
<path d="M-2 4C-2 0.686292 0.686292 -2 4 -2H12V2H4C2.89543 2 2 2.89543 2 4H-2ZM12 12H0H12ZM-2 12V4C-2 0.686292 0.686292 -2 4 -2V2C2.89543 2 2 2.89543 2 4V12H-2ZM12 0V12V0Z" fill="#4564ED" mask="url(#path-5-inside-3_4015_1257)"/>
<mask id="path-7-inside-4_4015_1257" fill="white">
<path d="M158 4C158 1.79086 156.209 0 154 0H146V12H158V4Z"/>
</mask>
<path d="M160 4C160 0.686292 157.314 -2 154 -2H146V2H154C155.105 2 156 2.89543 156 4H160ZM146 12H158H146ZM160 12V4C160 0.686292 157.314 -2 154 -2V2C155.105 2 156 2.89543 156 4V12H160ZM146 0V12V0Z" fill="#4564ED" mask="url(#path-7-inside-4_4015_1257)"/>
</svg>
