<svg width="16" height="16" viewBox="0 0 16 16" fill="none" xmlns="http://www.w3.org/2000/svg">
<g clip-path="url(#clip0_4756_220)">
<path d="M14.6473 12.5527C14.6473 12.7927 14.594 13.0393 14.4807 13.2793C14.3673 13.5193 14.2207 13.746 14.0273 13.9593C13.7007 14.3193 13.3407 14.5793 12.934 14.746C12.534 14.9127 12.1007 14.9993 11.634 14.9993C10.954 14.9993 10.2273 14.8393 9.46065 14.5127C8.69398 14.186 7.92732 13.746 7.16732 13.1927C6.40065 12.6327 5.67398 12.0127 4.98065 11.326C4.29398 10.6327 3.67398 9.90602 3.12065 9.14602C2.57398 8.38602 2.13398 7.62602 1.81398 6.87268C1.49398 6.11268 1.33398 5.38602 1.33398 4.69268C1.33398 4.23935 1.41398 3.80602 1.57398 3.40602C1.73398 2.99935 1.98732 2.62602 2.34065 2.29268C2.76732 1.87268 3.23398 1.66602 3.72732 1.66602C3.91398 1.66602 4.10065 1.70602 4.26732 1.78602C4.44065 1.86602 4.59398 1.98602 4.71398 2.15935L6.26065 4.33935C6.38065 4.50602 6.46732 4.65935 6.52732 4.80602C6.58732 4.94602 6.62065 5.08602 6.62065 5.21268C6.62065 5.37268 6.57398 5.53268 6.48065 5.68602C6.39398 5.83935 6.26732 5.99935 6.10732 6.15935L5.60065 6.68602C5.52732 6.75935 5.49398 6.84602 5.49398 6.95268C5.49398 7.00602 5.50065 7.05268 5.51398 7.10602C5.53398 7.15935 5.55398 7.19935 5.56732 7.23935C5.68732 7.45935 5.89398 7.74602 6.18732 8.09268C6.48732 8.43935 6.80732 8.79268 7.15398 9.14602C7.51398 9.49935 7.86065 9.82602 8.21398 10.126C8.56065 10.4193 8.84732 10.6193 9.07398 10.7393C9.10732 10.7527 9.14732 10.7727 9.19398 10.7927C9.24732 10.8127 9.30065 10.8193 9.36065 10.8193C9.47398 10.8193 9.56065 10.7793 9.63398 10.706L10.1407 10.206C10.3073 10.0393 10.4673 9.91268 10.6207 9.83268C10.774 9.73935 10.9273 9.69268 11.094 9.69268C11.2207 9.69268 11.354 9.71935 11.5007 9.77935C11.6473 9.83935 11.8007 9.92602 11.9673 10.0393L14.174 11.606C14.3473 11.726 14.4673 11.866 14.5407 12.0327C14.6073 12.1993 14.6473 12.366 14.6473 12.5527Z" stroke="#3D3D3D" stroke-miterlimit="10"/>
</g>
<defs>
<clipPath id="clip0_4756_220">
<rect width="16" height="16" fill="white"/>
</clipPath>
</defs>
</svg>
