<svg width="36" height="36" viewBox="0 0 36 36" fill="none" xmlns="http://www.w3.org/2000/svg">
<path d="M10.8147 17.0636H14.4243C15.1423 17.0636 15.8308 16.7784 16.3385 16.2707C16.8462 15.763 17.1314 15.0744 17.1314 14.3565V10.7469C17.1314 10.029 16.8462 9.34039 16.3385 8.8327C15.8308 8.32501 15.1423 8.03979 14.4243 8.03979H10.8147C10.0968 8.03979 9.4082 8.32501 8.90051 8.8327C8.39282 9.34039 8.1076 10.029 8.1076 10.7469V14.3565C8.1076 15.0744 8.39282 15.763 8.90051 16.2707C9.4082 16.7784 10.0968 17.0636 10.8147 17.0636ZM9.91237 10.7469C9.91237 10.5076 10.0074 10.2781 10.1767 10.1089C10.3459 9.93963 10.5754 9.84456 10.8147 9.84456H14.4243C14.6636 9.84456 14.8931 9.93963 15.0624 10.1089C15.2316 10.2781 15.3267 10.5076 15.3267 10.7469V14.3565C15.3267 14.5958 15.2316 14.8253 15.0624 14.9945C14.8931 15.1638 14.6636 15.2588 14.4243 15.2588H10.8147C10.5754 15.2588 10.3459 15.1638 10.1767 14.9945C10.0074 14.8253 9.91237 14.5958 9.91237 14.3565V10.7469ZM10.8147 27.8922H14.4243C15.1423 27.8922 15.8308 27.607 16.3385 27.0993C16.8462 26.5916 17.1314 25.903 17.1314 25.185V21.5755C17.1314 20.8575 16.8462 20.169 16.3385 19.6613C15.8308 19.1536 15.1423 18.8684 14.4243 18.8684H10.8147C10.0968 18.8684 9.4082 19.1536 8.90051 19.6613C8.39282 20.169 8.1076 20.8575 8.1076 21.5755V25.185C8.1076 25.903 8.39282 26.5916 8.90051 27.0993C9.4082 27.607 10.0968 27.8922 10.8147 27.8922ZM9.91237 21.5755C9.91237 21.3362 10.0074 21.1067 10.1767 20.9374C10.3459 20.7682 10.5754 20.6731 10.8147 20.6731H14.4243C14.6636 20.6731 14.8931 20.7682 15.0624 20.9374C15.2316 21.1067 15.3267 21.3362 15.3267 21.5755V25.185C15.3267 25.4244 15.2316 25.6539 15.0624 25.8231C14.8931 25.9924 14.6636 26.0874 14.4243 26.0874H10.8147C10.5754 26.0874 10.3459 25.9924 10.1767 25.8231C10.0074 25.6539 9.91237 25.4244 9.91237 25.185V21.5755ZM21.6433 27.8922H25.2528C25.9708 27.8922 26.6594 27.607 27.1671 27.0993C27.6748 26.5916 27.96 25.903 27.96 25.185V21.5755C27.96 20.8575 27.6748 20.169 27.1671 19.6613C26.6594 19.1536 25.9708 18.8684 25.2528 18.8684H21.6433C20.9253 18.8684 20.2368 19.1536 19.7291 19.6613C19.2214 20.169 18.9362 20.8575 18.9362 21.5755V25.185C18.9362 25.903 19.2214 26.5916 19.7291 27.0993C20.2368 27.607 20.9253 27.8922 21.6433 27.8922ZM20.7409 21.5755C20.7409 21.3362 20.836 21.1067 21.0052 20.9374C21.1745 20.7682 21.404 20.6731 21.6433 20.6731H25.2528C25.4922 20.6731 25.7217 20.7682 25.8909 20.9374C26.0602 21.1067 26.1552 21.3362 26.1552 21.5755V25.185C26.1552 25.4244 26.0602 25.6539 25.8909 25.8231C25.7217 25.9924 25.4922 26.0874 25.2528 26.0874H21.6433C21.404 26.0874 21.1745 25.9924 21.0052 25.8231C20.836 25.6539 20.7409 25.4244 20.7409 25.185V21.5755Z" fill="#0F1E47"/>
<path fill-rule="evenodd" clip-rule="evenodd" d="M18.9815 14.4662L21.5338 17.0185C22.0415 17.5262 22.7301 17.8114 23.4481 17.8114C24.1661 17.8114 24.8546 17.5262 25.3623 17.0185L27.9146 14.4662C28.4223 13.9585 28.7076 13.2699 28.7076 12.5519C28.7076 11.834 28.4223 11.1454 27.9146 10.6377L25.3623 8.08538C24.8546 7.57769 24.1661 7.29248 23.4481 7.29248C22.7301 7.29248 22.0415 7.57769 21.5338 8.08538L18.9815 10.6377C18.4738 11.1454 18.1886 11.834 18.1886 12.5519C18.1886 13.2699 18.4738 13.9585 18.9815 14.4662ZM22.81 9.36153C22.9792 9.1923 23.2088 9.09722 23.4481 9.09722C23.6874 9.09722 23.9169 9.1923 24.0862 9.36152L26.6385 11.9138C26.8077 12.0831 26.9028 12.3126 26.9028 12.5519C26.9028 12.7913 26.8077 13.0208 26.6385 13.19L24.0862 15.7423C23.9169 15.9116 23.6874 16.0066 23.4481 16.0066C23.2088 16.0066 22.9792 15.9116 22.81 15.7423L20.2577 13.19C20.0885 13.0208 19.9934 12.7913 19.9934 12.5519C19.9934 12.3126 20.0885 12.0831 20.2577 11.9138L22.81 9.36153Z" fill="#0F1E47"/>
</svg>
