<svg width="36" height="36" viewBox="0 0 36 36" fill="none" xmlns="http://www.w3.org/2000/svg">
<path d="M25.0645 11.1893H20.1551L23.1061 8.24718C23.2745 8.07879 23.3691 7.85041 23.3691 7.61227C23.3691 7.37412 23.2745 7.14574 23.1061 6.97735C22.9377 6.80896 22.7093 6.71436 22.4712 6.71436C22.2331 6.71436 22.0047 6.80896 21.8363 6.97735L18 10.8226L14.1636 6.97735C13.9952 6.80896 13.7668 6.71436 13.5287 6.71436C13.2906 6.71436 13.0622 6.80896 12.8938 6.97735C12.7254 7.14574 12.6308 7.37412 12.6308 7.61227C12.6308 7.85041 12.7254 8.07879 12.8938 8.24718L15.8448 11.1893H10.9354C10.0816 11.1893 9.26271 11.5284 8.65898 12.1322C8.05524 12.7359 7.71606 13.5548 7.71606 14.4086V24.0665C7.71606 24.9203 8.05524 25.7391 8.65898 26.3429C9.26271 26.9466 10.0816 27.2858 10.9354 27.2858H25.0645C25.9183 27.2858 26.7372 26.9466 27.3409 26.3429C27.9447 25.7391 28.2838 24.9203 28.2838 24.0665V14.4086C28.2838 13.5548 27.9447 12.7359 27.3409 12.1322C26.7372 11.5284 25.9183 11.1893 25.0645 11.1893ZM26.4953 24.0665C26.4953 24.4459 26.3446 24.8099 26.0763 25.0782C25.8079 25.3465 25.444 25.4973 25.0645 25.4973H10.9354C10.5559 25.4973 10.192 25.3465 9.92364 25.0782C9.65531 24.8099 9.50457 24.4459 9.50457 24.0665V14.4086C9.50457 14.0291 9.65531 13.6652 9.92364 13.3968C10.192 13.1285 10.5559 12.9778 10.9354 12.9778H25.0645C25.444 12.9778 25.8079 13.1285 26.0763 13.3968C26.3446 13.6652 26.4953 14.0291 26.4953 14.4086V24.0665Z" fill="#0F1E47"/>
<path d="M23.3655 17.4491C23.8593 17.4491 24.2597 17.0487 24.2597 16.5548C24.2597 16.0609 23.8593 15.6606 23.3655 15.6606C22.8716 15.6606 22.4712 16.0609 22.4712 16.5548C22.4712 17.0487 22.8716 17.4491 23.3655 17.4491Z" fill="#0F1E47"/>
<path d="M23.3655 21.9203C23.8593 21.9203 24.2597 21.52 24.2597 21.0261C24.2597 20.5322 23.8593 20.1318 23.3655 20.1318C22.8716 20.1318 22.4712 20.5322 22.4712 21.0261C22.4712 21.52 22.8716 21.9203 23.3655 21.9203Z" fill="#0F1E47"/>
</svg>
