<svg width="56" height="56" viewBox="0 0 56 56" fill="none" xmlns="http://www.w3.org/2000/svg">
<circle cx="28" cy="28" r="28" fill="#F1FDF6"/>
<path d="M27.9999 11.3333C18.8166 11.3333 11.3333 18.8166 11.3333 27.9999C11.3333 37.1833 18.8166 44.6666 27.9999 44.6666C37.1833 44.6666 44.6666 37.1833 44.6666 27.9999C44.6666 18.8166 37.1833 11.3333 27.9999 11.3333ZM35.9666 24.1666L26.5166 33.6166C26.2833 33.8499 25.9666 33.9833 25.6333 33.9833C25.2999 33.9833 24.9833 33.8499 24.7499 33.6166L20.0333 28.8999C19.5499 28.4166 19.5499 27.6166 20.0333 27.1333C20.5166 26.6499 21.3166 26.6499 21.7999 27.1333L25.6333 30.9666L34.1999 22.3999C34.6833 21.9166 35.4833 21.9166 35.9666 22.3999C36.4499 22.8833 36.4499 23.6666 35.9666 24.1666Z" fill="#17BA58"/>
</svg>
