<svg width="20" height="20" viewBox="0 0 20 20" fill="none" xmlns="http://www.w3.org/2000/svg">
<path d="M10.1007 10.6497C10.0423 10.6414 9.96733 10.6414 9.90067 10.6497C8.434 10.5997 7.26733 9.39974 7.26733 7.92474C7.26733 6.41641 8.484 5.19141 10.0007 5.19141C11.509 5.19141 12.734 6.41641 12.734 7.92474C12.7257 9.39974 11.5673 10.5997 10.1007 10.6497Z" stroke="#3D3D3D" stroke-width="1.25" stroke-linecap="round" stroke-linejoin="round"/>
<path d="M15.6164 16.1498C14.1331 17.5081 12.1664 18.3331 9.99972 18.3331C7.83306 18.3331 5.86639 17.5081 4.38306 16.1498C4.46639 15.3665 4.96639 14.5998 5.85806 13.9998C8.14139 12.4831 11.8747 12.4831 14.1414 13.9998C15.0331 14.5998 15.5331 15.3665 15.6164 16.1498Z" stroke="#3D3D3D" stroke-width="1.25" stroke-linecap="round" stroke-linejoin="round"/>
<path d="M10.0001 18.3332C14.6025 18.3332 18.3334 14.6022 18.3334 9.99984C18.3334 5.39746 14.6025 1.6665 10.0001 1.6665C5.39771 1.6665 1.66675 5.39746 1.66675 9.99984C1.66675 14.6022 5.39771 18.3332 10.0001 18.3332Z" stroke="#3D3D3D" stroke-width="1.25" stroke-linecap="round" stroke-linejoin="round"/>
</svg>
