<svg width="118" height="40" viewBox="0 0 118 40" fill="none" xmlns="http://www.w3.org/2000/svg">
<path fill-rule="evenodd" clip-rule="evenodd" d="M4.8972 12.1049C5.98159 8.63608 9.02485 6.14285 12.5578 6.14285H23.4716L18.9592 26.3777L18.5044 28.3651C17.4201 31.581 14.5517 33.8574 11.1936 33.8574H0L4.65234 13.0805L4.82724 12.3217C4.84473 12.2856 4.85348 12.2494 4.86223 12.2133C4.87097 12.1772 4.87971 12.141 4.8972 12.1049ZM10.3194 13.1166L10.4943 13.0805L20.0789 13.1889L20.0439 13.3335C19.869 14.1284 19.4492 14.8149 18.7846 15.3931C18.085 15.9351 17.3504 16.2241 16.5809 16.2241H9.79475L9.27005 18.5367H17.0706L17.0356 18.6812C16.8607 19.4762 16.406 20.1627 15.7414 20.7409C15.0767 21.319 14.3072 21.6081 13.5376 21.6081H8.57045L8.01077 24.0652C7.83587 24.8601 7.38113 25.5466 6.71651 26.1248C6.05188 26.7029 5.3173 26.992 4.51276 26.992H4.37284L6.89141 15.7544C7.03133 15.2124 7.45109 14.5259 8.11571 13.9839C8.81531 13.4057 9.54989 13.1166 10.3194 13.1166Z" fill="#1169B0"/>
<path fill-rule="evenodd" clip-rule="evenodd" d="M25.7802 6.03433C26.7247 2.56549 29.8029 0 33.4759 0H44.3896L36.8689 33.7127C35.9944 37.3261 32.8462 40 29.1033 40H18.1896L25.6053 6.82927C25.6403 6.57633 25.7103 6.28726 25.7802 6.03433ZM36.4489 13.0442C37.1485 13.0442 37.7081 13.2971 38.1279 13.7307C38.5826 14.2004 38.7925 14.7424 38.7575 15.429C38.7575 15.6183 38.7309 15.78 38.7008 15.9622C38.6965 15.9888 38.692 16.0157 38.6876 16.0433L38.0929 18.6088C37.918 19.4398 37.4283 20.3432 36.7637 20.8852C36.0991 21.4272 35.3995 21.5356 34.6299 21.5356H28.0187L27.459 23.9927C27.2841 24.7876 26.8294 25.4742 26.1647 26.0523C25.5001 26.6304 24.7655 26.9195 23.961 26.9195H23.8211V26.8834L26.8993 13.0442H36.4489ZM28.7183 18.4642H35.1546L35.6793 16.1517H29.243L28.7183 18.4642Z" fill="#F27227"/>
<path fill-rule="evenodd" clip-rule="evenodd" d="M44.1447 11.7074C45.299 8.45541 48.2373 6.14285 51.6654 6.14285H62.5792L57.8568 27.2811C56.9474 31.0751 53.7642 33.8574 50.0213 33.8574H39.1075L43.8648 12.5747C43.8648 12.5747 44.0747 11.8881 44.1447 11.7074ZM55.8981 13.0805C56.5977 13.0805 57.1574 13.3334 57.5771 13.7671C57.9969 14.2007 58.2067 14.7427 58.1718 15.4653C58.1718 15.646 58.1368 15.8628 58.1018 16.0796L58.0668 16.188H53.0997L51.3507 24.029C51.1758 24.824 50.721 25.5105 50.0564 26.0886C49.3918 26.6668 48.6572 26.9559 47.8527 26.9559H47.7127L50.1264 16.188H48.0276C47.328 16.188 46.7683 15.9351 46.3485 15.5015C45.9288 15.0317 45.7189 14.4897 45.7189 13.8032C45.7189 13.6225 45.7539 13.4057 45.7888 13.1889L45.8238 13.0805H51.4206H51.7005H55.8981Z" fill="#16B14B"/>
<path d="M59.5361 31.4726C59.5361 30.1717 60.5855 29.0877 61.8448 29.0877C63.1041 29.0877 64.1535 30.1717 64.1535 31.4726C64.1535 32.7734 63.1041 33.8574 61.8448 33.8574C60.5855 33.8574 59.5361 32.7734 59.5361 31.4726ZM63.5938 31.4726C63.5938 30.3524 62.8243 29.5575 61.8448 29.5575C60.8654 29.5575 60.0958 30.3524 60.0958 31.4726C60.0958 32.5927 60.8654 33.3877 61.8448 33.3877C62.8243 33.3877 63.5938 32.5927 63.5938 31.4726ZM60.9703 30.0995H61.9498C62.5794 30.0995 62.9292 30.3163 62.9292 30.8944C62.9292 31.3642 62.6843 31.581 62.2296 31.6171L62.9292 32.8095H62.4395L61.7749 31.6532H61.495V32.8095H61.0053V30.0995H60.9703ZM61.46 31.2558H61.8798C62.1596 31.2558 62.4045 31.2196 62.4045 30.8583C62.4045 30.5331 62.1246 30.497 61.8798 30.497H61.46V31.2558Z" fill="#1169B0"/>
<path d="M72.6889 16.486V25.7724H71.0798V16.486H68.7012V15.0768H75.0675V16.486H72.6889Z" fill="#1169B0"/>
<path d="M82.2734 21.7616L77.1663 22.4843C77.3412 23.9296 78.1107 24.6523 79.5099 24.6523C80.3495 24.6523 81.0491 24.5078 81.6437 24.1826L82.0985 25.375C81.3989 25.7363 80.5244 25.9531 79.405 25.9531C78.2157 25.9531 77.2712 25.5918 76.6066 24.833C75.942 24.1103 75.6272 23.0985 75.6272 21.7977C75.6272 20.5692 75.942 19.5936 76.5716 18.8348C77.2013 18.076 78.0408 17.6785 79.1252 17.6785C80.1046 17.6785 80.9091 18.0037 81.4688 18.618C82.0285 19.2322 82.3083 20.0995 82.3083 21.1835C82.2734 21.4003 82.2734 21.6171 82.2734 21.7616ZM80.8042 20.8944C80.8042 19.5213 80.2095 18.8348 79.0902 18.8348C78.4955 18.8348 78.0058 19.0516 77.656 19.5213C77.2712 19.9911 77.0963 20.6053 77.0963 21.4364L80.8042 20.8944Z" fill="#1169B0"/>
<path d="M83.393 25.7723V14.2095H84.9671V25.7723H83.393Z" fill="#1169B0"/>
<path d="M92.7324 21.7616L87.6253 22.4843C87.8002 23.9296 88.5697 24.6523 89.969 24.6523C90.8085 24.6523 91.5081 24.5078 92.1027 24.1826L92.5575 25.375C91.8579 25.7363 90.9834 25.9531 89.864 25.9531C88.6747 25.9531 87.7302 25.5918 87.0656 24.833C86.401 24.1103 86.0862 23.0985 86.0862 21.7977C86.0862 20.5692 86.401 19.5936 87.0306 18.8348C87.6603 18.076 88.4998 17.6785 89.5842 17.6785C90.5636 17.6785 91.3681 18.0037 91.9278 18.618C92.4875 19.2322 92.7674 20.0995 92.7674 21.1835C92.7324 21.4003 92.7324 21.6171 92.7324 21.7616ZM91.2282 20.8944C91.2282 19.5213 90.6336 18.8348 89.5142 18.8348C88.9195 18.8348 88.4298 19.0516 88.08 19.5213C87.6952 19.9911 87.5203 20.6053 87.5203 21.4364L91.2282 20.8944Z" fill="#1169B0"/>
<path d="M98.8893 25.375C98.3646 25.7363 97.7 25.917 96.9304 25.917C95.9859 25.917 95.2164 25.5918 94.5867 24.9414C93.8871 24.1826 93.5373 23.1347 93.5373 21.7977C93.5373 20.4608 93.8871 19.4129 94.5867 18.6541C95.1814 18.0037 95.9859 17.6785 96.9304 17.6785C97.735 17.6785 98.3646 17.8592 98.8893 18.2205L98.3646 19.3768C98.0148 19.1238 97.595 18.9793 97.1053 18.9793C96.5456 18.9793 96.0909 19.1961 95.7411 19.6297C95.3563 20.1356 95.1464 20.8221 95.1464 21.7616C95.1464 22.6649 95.3563 23.3876 95.7761 23.8935C96.1259 24.3632 96.5806 24.58 97.1403 24.58C97.63 24.58 98.0498 24.4355 98.3996 24.1826L98.8893 25.375Z" fill="#1169B0"/>
<path d="M105.395 24.7244C104.8 25.5193 103.961 25.9168 102.877 25.9168C101.827 25.9168 100.988 25.5193 100.358 24.7244C99.7634 23.9656 99.4835 22.99 99.4835 21.7614C99.4835 20.5329 99.7634 19.5573 100.358 18.7985C100.953 18.0035 101.792 17.6061 102.877 17.6061C103.926 17.6061 104.765 18.0035 105.395 18.7985C105.99 19.5573 106.27 20.5329 106.27 21.7614C106.27 22.99 105.99 24.0017 105.395 24.7244ZM104.241 19.7018C103.926 19.196 103.471 18.943 102.877 18.943C102.282 18.943 101.827 19.196 101.512 19.7018C101.198 20.2077 101.058 20.8942 101.058 21.7614C101.058 22.6287 101.198 23.3152 101.512 23.8211C101.827 24.3269 102.282 24.616 102.877 24.616C103.471 24.616 103.926 24.3631 104.241 23.8211C104.556 23.3152 104.696 22.6287 104.696 21.7614C104.696 20.8942 104.556 20.2077 104.241 19.7018Z" fill="#1169B0"/>
<path d="M116.239 25.7722V20.3883C116.239 19.9186 116.099 19.5934 115.854 19.3404C115.574 19.0875 115.225 18.9791 114.77 18.9791C114.14 18.9791 113.685 19.1598 113.371 19.5211V25.8084H111.797V20.2438C111.797 19.8463 111.657 19.5211 111.377 19.3043C111.097 19.0875 110.712 18.9791 110.222 18.9791C109.698 18.9791 109.278 19.0514 108.893 19.232V25.8084H107.354V18.2203C108.229 17.859 109.138 17.6421 110.117 17.6421C111.237 17.6421 112.041 17.9312 112.566 18.5094C113.196 17.9312 114.07 17.6421 115.12 17.6421C115.924 17.6421 116.589 17.859 117.079 18.3287C117.568 18.7984 117.778 19.4127 117.778 20.2076V25.7361H116.239V25.7722Z" fill="#1169B0"/>
</svg>
