<svg xmlns="http://www.w3.org/2000/svg">
<defs>
<font id="UTMNeoSansIntel-Italic" horiz-adv-x="1075" >
  <font-face 
    font-family="UTM Neo Sans Intel"
    font-weight="400"
    font-style="italic"
    font-stretch="normal"
    units-per-em="2048"
    panose-1="2 4 6 3 5 5 6 9 2 4"
    ascent="1638"
    descent="-410"
    x-height="1126"
    cap-height="1522"
    bbox="-169.857 -428 4956 2371"
    underline-thickness="109"
    underline-position="-359"
    slope="-12"
    unicode-range="U+0020-2122"
  />
<missing-glyph horiz-adv-x="5040" 
d="M3785 2045h10q35 -10 26 -52q-2 -12 -44 -57h-28q5 24 40 54l4 10q-2 13 -7 15h-9q-8 0 -14 -19h-30q16 49 52 49zM2447 2016l23 -31q-4 -16 -47 -30h-19l-56 12l-14 -12l-22 25q17 29 49 29h11l39 -11h2q10 0 34 18zM889 1980h142l-13 -60h-94l-16 -75h89l-13 -59h-89
l-27 -129l-6 -5h-49l69 323zM1576 1980h43l5 -5l-17 -78h30l-11 -52h-30l-40 -188l-7 -5h-49l41 193h-25l11 52h25l17 78zM2042 1980h42l3 -5l-20 -94h3q28 24 59 24h2q58 0 68 -71l-7 -39l-30 -143h-52l24 115q17 80 -25 80h-7q-43 0 -61 -86l-23 -109h-51l69 323z
M2621 1980h49l4 -5l-48 -222q0 -51 35 -51q45 7 56 59l46 214l6 5h49l-46 -216q-18 -85 -90 -112q-17 -8 -37 -8q-47 0 -70 55q-9 24 -2 57zM2856 1980h159l-13 -60h-56l-57 -268h-53l57 268h-55l12 55zM3042 1980h71q6 -4 29 -251h2l134 251h73l-70 -328h-54l51 242h-2
l-125 -242h-44q-4 0 -19 182l-7 60h-3l-51 -242h-55zM4181 1980h52l-70 -328h-45l-4 5l2 11l4 2v14q-38 -40 -87 -40q-67 0 -80 91l3 39l1 3q19 94 118 125l24 3q35 0 56 -32h3zM2467 1928h36l2 -6l-10 -49h-45l-47 -221h-48l5 23q-30 -31 -66 -31q-86 14 -68 97l33 156h51
l-22 -104q-17 -79 8 -86l17 -5h6q26 0 46 36l9 26l28 133h53l5 25zM3886 1928l-12 -55h-31l-47 -221h-47l5 25h-2q-22 -33 -64 -33q-68 0 -69 78l3 29l31 146h52l-25 -120q-11 -50 4 -68l20 -7h9q42 0 56 69l27 126h27q4 0 10 28l4 3h49zM1163 1905q68 0 86 -77q6 -18 1 -54

<glyph glyph-name=".notdef" horiz-adv-x="5040" 
d="M3785 2045h10q35 -10 26 -52q-2 -12 -44 -57h-28q5 24 40 54l4 10q-2 13 -7 15h-9q-8 0 -14 -19h-30q16 49 52 49zM2447 2016l23 -31q-4 -16 -47 -30h-19l-56 12l-14 -12l-22 25q17 29 49 29h11l39 -11h2q10 0 34 18zM889 1980h142l-13 -60h-94l-16 -75h89l-13 -59h-89
l-27 -129l-6 -5h-49l69 323zM1576 1980h43l5 -5l-17 -78h30l-11 -52h-30l-40 -188l-7 -5h-49l41 193h-25l11 52h25l17 78zM2042 1980h42l3 -5l-20 -94h3q28 24 59 24h2q58 0 68 -71l-7 -39l-30 -143h-52l24 115q17 80 -25 80h-7q-43 0 -61 -86l-23 -109h-51l69 323z
M2621 1980h49l4 -5l-48 -222q0 -51 35 -51q45 7 56 59l46 214l6 5h49l-46 -216q-18 -85 -90 -112q-17 -8 -37 -8q-47 0 -70 55q-9 24 -2 57zM2856 1980h159l-13 -60h-56l-57 -268h-53l57 268h-55l12 55zM3042 1980h71q6 -4 29 -251h2l134 251h73l-70 -328h-54l51 242h-2
l-125 -242h-44q-4 0 -19 182l-7 60h-3l-51 -242h-55zM4181 1980h52l-70 -328h-45l-4 5l2 11l4 2v14q-38 -40 -87 -40q-67 0 -80 91l3 39l1 3q19 94 118 125l24 3q35 0 56 -32h3zM2467 1928h36l2 -6l-10 -49h-45l-47 -221h-48l5 23q-30 -31 -66 -31q-86 14 -68 97l33 156h51
l-22 -104q-17 -79 8 -86l17 -5h6q26 0 46 36l9 26l28 133h53l5 25zM3886 1928l-12 -55h-31l-47 -221h-47l5 25h-2q-22 -33 -64 -33q-68 0 -69 78l3 29l31 146h52l-25 -120q-11 -50 4 -68l20 -7h9q42 0 56 69l27 126h27q4 0 10 28l4 3h49zM1163 1905q68 0 86 -77q6 -18 1 -54
q-19 -88 -117 -127l-33 -3q-63 0 -85 73q-8 22 -1 52l2 10q20 94 128 126h19zM1416 1905h3q74 0 61 -101l-32 -152h-51l25 119q16 76 -26 76h-5q-44 0 -60 -76l-25 -119h-52l52 245h46l-4 -21q36 29 68 29zM1871 1905h7q72 0 86 -89h-60q-10 31 -36 31h-17q-56 -14 -66 -61
l-6 -15q-2 -69 47 -69h9q22 0 52 27h40l3 3h3l1 -3l3 3l2 -3l3 3v-7q-50 -81 -127 -81q-76 0 -90 94l4 36l1 3q18 85 102 120q17 8 39 8zM3546 1905h2q49 0 57 -60l-3 -14h-52q3 16 -13 16h-4q-14 0 -21 -13l-3 -13q-2 -9 60 -35q26 -19 18 -59q-12 -58 -78 -80l-24 -3
q-73 12 -58 83h54q-4 -20 22 -25h4q19 0 28 23q5 22 -58 44q-28 27 -22 59q14 66 91 77zM4608 1905q55 0 63 -63q3 -18 -6 -65l-27 -125h-52l24 112q17 83 -23 83h-11q-33 0 -51 -54l-30 -141h-52l1 5h-2l2 2l51 238h47l-4 -21q31 29 70 29zM4837 1905h5q40 0 60 -40l4 18
l-2 3l5 11h47l-44 -208q-21 -97 -113 -132l-34 -4h-7q-70 0 -87 80h59q19 -22 40 -23h13q22 0 48 22q17 13 33 52h-3q-41 -40 -82 -40q-57 0 -81 70q-6 18 0 63q18 88 113 125zM4254 1897h53l-29 -136q-6 -59 28 -59h7q46 0 65 93l22 102h51l-52 -245h-47l-1 10h3l-2 3l1 5
l3 2l1 3h-4q-5 -23 -64 -31h-3q-59 0 -68 75l16 85zM1066 1771q-4 -69 49 -69h7q62 14 72 65l4 15q0 65 -46 65h-5q-58 0 -81 -76zM4007 1774q-2 -72 46 -72h5q58 0 82 75q10 49 -37 70h-22q-37 0 -68 -57zM4751 1774q-7 -72 50 -72h5q61 12 74 72q13 61 -44 73h-14
q-59 -16 -69 -62zM4272 1620h52l-12 -57h-52zM1352 1402q40 -11 32 -49v-4q-4 -17 -45 -60h-28q5 25 43 57l1 7q3 12 -3 15h-12q-11 -4 -14 -19h-28l1 6q7 32 42 44zM3633 1339q92 0 117 -99h-60q-28 42 -71 42q-55 0 -101 -68q-15 -22 -20 -47q-17 -78 57 -110l18 -1
q36 0 84 39h61q-65 -97 -159 -97q-93 0 -117 112q-4 31 3 62q21 97 122 152q32 15 66 15zM3948 1339q57 0 93 -47q36 -51 22 -115l-4 -20q-19 -89 -122 -146q-36 -13 -66 -13q-89 0 -117 101q-6 33 0 60l4 18q21 98 130 151q31 11 60 11zM2545 1337h2l45 -11h3q11 0 28 11
l10 -36q-22 -19 -39 -19h-3l-52 10l-21 -7l-12 36q21 16 39 16zM999 1334h19q118 0 124 -26q19 -26 12 -62q-22 -57 -42 -57l-2 -6q42 -23 33 -66l-4 -18q-13 -63 -87 -88l-55 -5h-67zM2833 1334h53l-46 -217q-7 -61 32 -61q29 0 53 39l9 30l43 203l5 6h45l4 -6l-36 -171
q-25 -118 -69 -133q-29 -26 -69 -26q-55 0 -75 76l8 54zM3088 1334h59q4 0 72 -237h4l50 237h50l3 -6l-68 -322h-58q-19 48 -75 238h-3l-50 -238h-53zM3384 1334h54l-69 -328h-54zM4142 1334h8q155 0 166 -40q21 -11 31 -75l-4 -36l-2 -11l2 -2q-19 -94 -113 -149
q-38 -15 -102 -15h-55zM4424 1334h153l-12 -60h-103l-16 -75h101l-12 -57h-101l-16 -74l3 -5h99l-12 -57h-157l68 322zM3813 1175l-3 -10q-16 -76 56 -108l19 -1q68 0 115 86l7 20l3 15q13 61 -40 94q-10 8 -37 11q-66 0 -113 -83zM1041 1274l-15 -67h9q54 0 60 28l6 14
q-5 25 -23 25h-37zM4183 1274l-44 -206l1 -3v-2q104 0 138 76l5 15l6 29q7 34 -17 68q-20 23 -73 23h-16zM1308 1259h5q38 0 63 -40l7 32h49l-52 -245h-49l6 32q-44 -40 -88 -40q-75 0 -80 97l2 36q19 89 112 125zM1581 1259h3q74 0 62 -102l-32 -151h-51l27 128
q14 67 -28 67h-10q-34 0 -52 -62l-28 -133h-52l52 245h47l-5 -21q34 29 67 29zM1810 1259h5q45 0 63 -40l7 32h47l-47 -219q-20 -95 -131 -126h-16q-74 0 -90 82h59q20 -25 38 -25h14q52 0 81 77q-42 -42 -85 -42q-60 0 -84 81l2 44l4 16q17 79 110 117zM2179 1259h2
q43 0 54 -37h2q39 37 76 37h4q57 0 68 -55q2 -25 -2 -45l-32 -153h-52l29 138q9 44 -11 55l-12 2h-15q-32 0 -50 -65l-27 -130h-52l29 136q12 59 -31 59h-8q-32 0 -48 -57l-29 -138h-54l52 245h50l-5 -21h2q11 24 60 29zM2549 1259q47 0 66 -42l8 34h47l-52 -245h-47l6 32
q-44 -40 -86 -40q-74 0 -83 92l3 41q19 90 112 125zM1222 1117q-10 -48 48 -61h4q45 0 72 46l6 15l5 22q1 62 -44 62h-14q-41 0 -71 -57zM1727 1128q-11 -48 28 -68l17 -4h5q47 0 75 57l5 23q3 65 -44 65h-12q-50 0 -74 -73zM2465 1131l-3 -14q2 -61 44 -61h14q61 12 72 64
l2 11q10 45 -23 65l-17 5h-10q-66 -8 -79 -70zM1014 1150l-17 -82q-1 -5 6 -5q77 0 86 45q8 34 -38 42h-37zM3126 753l18 -28l-63 -55q-15 12 -21 26zM1678 727l74 -54q-3 -15 -30 -42l-76 54q27 41 32 42zM2997 693h38l42 -60h-54l-15 26l-29 -26h-54q67 60 72 60z
M3569 693h40l43 -60h-54l-18 26h-1q-1 -5 -25 -26h-54zM767 685h52q8 -4 18 -137l11 -110q11 8 55 100l79 147h54v-2l-181 -326h-44zM1304 685h51l-11 -54h-51zM1499 685h46l5 -5l-68 -323h-52zM2462 685h45l3 -5l-16 -78h31l-11 -52h-31l-41 -193h-53l41 193h-26l11 52h26
l16 78zM2570 685h52l-20 -98h2q27 23 58 23h3q57 0 66 -71l-5 -38l-30 -144h-52l24 115q17 81 -22 81h-10q-42 0 -60 -87l-23 -109h-52zM2809 685h52l-11 -54h-52zM3173 685h44l5 -5l-16 -78h29l-11 -52h-29l-41 -193h-54l41 193h-27l11 52h27l16 78zM3379 685h52l-69 -328
h-52zM4102 685h52l-69 -328h-52zM4461 685h51l-11 -54h-51zM1684 610h5q83 0 89 -102l-2 -23l-2 -11q-18 -83 -111 -120l-36 -5q-76 0 -90 97l2 32q21 97 121 130zM1940 610h4q53 0 66 -60q1 -25 -11 -81l-23 -112h-54l31 146q3 50 -27 50h-10q-38 0 -54 -57l-29 -139h-54
l52 245h49l-5 -21q32 29 65 29zM2175 610h4q45 0 55 -39h3l7 31h49l-44 -206q-22 -102 -118 -135l-28 -3h-5q-73 0 -89 81h52l33 -20l14 -3h14q50 0 76 72q-41 -39 -81 -39q-62 0 -82 76q-6 23 1 60q18 85 112 123zM2995 610h2q82 0 89 -104l-3 -25l-8 -27h-172
q6 -45 36 -45l13 -3q29 0 54 22h57l-1 -3q-51 -76 -124 -76q-77 0 -90 97l5 28l1 8q11 49 51 89q42 39 90 39zM3558 610h5q41 0 62 -39h2l7 31h47l-52 -245h-47l6 31h-2q-43 -39 -85 -39q-71 0 -82 89l3 36l3 14q18 86 109 120zM3840 610h7q88 0 80 -128l-2 -1l-3 -15
q-14 -65 -89 -106q-23 -11 -48 -11q-34 0 -57 32l-21 -99l-6 -5h-49l69 325h49l-6 -28q38 36 76 36zM4280 610q44 0 67 -39l7 31h49l-52 -245h-49l6 31q-43 -39 -85 -39q-92 0 -80 132q18 84 99 121q16 8 38 8zM1050 602h50l-29 -136q-10 -60 29 -60h5q44 0 63 87l23 109h52
l-52 -245h-47l5 24h-5q-5 -23 -63 -32h-3q-55 0 -68 68q4 35 17 99l18 81zM1287 602h51l-52 -245h-51zM2792 602h52l-52 -245h-52zM4444 602h51l-52 -245h-51zM1596 488l-4 -16q-1 -66 45 -66h4q59 0 82 76q2 71 -44 71h-11q-62 -16 -72 -65zM2087 472q1 -66 45 -66h11
q48 0 75 75v1q2 71 -44 71h-14q-39 0 -68 -57zM2912 506h122l1 2q-7 45 -50 45h-7q-35 0 -66 -47zM3474 474q-2 -68 46 -68h5q52 0 78 63l3 12q5 72 -42 72h-16q-59 -14 -69 -63zM3743 478q-3 -72 46 -72h3q50 0 78 60l5 22q9 43 -36 65h-22q-47 0 -73 -72zM4195 472
q-4 -66 52 -66q43 0 71 48l5 15l4 16q11 54 -38 68h-18q-42 0 -71 -60zM3484 321h51l-11 -52h-51zM4205 321h51l-11 -52h-51zM2761 133h4q35 0 32 -50v-2q-3 -16 -33 -41l-13 -17h-28q5 25 40 56l3 2v2q1 19 -5 19h-10q-8 0 -13 -19h-30q17 50 53 50zM1570 116l40 -60
l-30 -19l-41 52zM369 79h4q64 -48 72 -60l-28 -37q-78 49 -76 58zM3507 79l73 -58l-26 -39q-10 0 -79 55q22 36 32 42zM4594 76l10 -42l-102 -52l-12 39l105 58zM1215 53h51l-4 -19l4 -5h14l-8 -36h-14l-6 -5l-59 -279h-46l7 31q-43 -40 -90 -40q-72 0 -80 105l3 26
q22 102 129 131h14q33 0 59 -33l12 59l-5 5h-43l8 36h49zM1489 45h40l43 -61h-53l-17 27l-29 -27h-53zM2650 45h33q12 0 50 -61h-54l-17 27q-23 -21 -25 -27h-58l1 4zM57 37h160l-13 -60h-56l-57 -268h-50l-3 5l52 245l3 3v2l-1 2l2 3l-1 2l2 3l-1 3h-54l11 54zM707 37h47
l-16 -73l2 -2l-3 -3l-1 -3l2 -2l-3 -3v-3l1 -2v-2l-3 -3l2 -3h3q22 24 56 24h3q53 0 64 -58q4 -17 -2 -42l-32 -153h-52l27 127q14 68 -26 68h-8q-43 0 -61 -86l-23 -109h-52l68 322zM1305 37h47l3 -6l-10 -49h-52zM1995 37h52l-42 -198l94 115h62l-103 -118l63 -125v-2h-70
q-5 22 -50 115l-24 -115h-52zM2279 37l-21 -99q29 24 58 24q57 0 68 -56q6 -19 -7 -77l-25 -120h-54l28 133q13 62 -28 62h-11q-31 0 -48 -55l-30 -140h-53l67 314l-1 3l1 3l1 2v3l2 3h53zM2466 37h51l-12 -55h-51zM3156 37h51l-23 -108q34 33 75 33h3q75 0 85 -94l-3 -37
q-16 -75 -90 -120q-32 -11 -51 -11q-41 0 -63 40l-7 -31h-47zM4283 37h52l-21 -99h2q28 24 59 24h3q60 0 66 -74l-7 -41l-29 -138h-52l24 111q17 82 -15 82l-10 2h-12q-37 0 -54 -80l-24 -115h-52zM321 -38h3l-13 -58h-5q-42 0 -54 -57l-29 -138h-53l52 245h47l-4 -21
q24 29 56 29zM556 -38q71 0 67 -87l-35 -166h-51l29 136q6 59 -29 59h-6q-45 0 -62 -84l-24 -111h-52l52 245h50l-4 -21q31 29 65 29zM1496 -38q72 0 85 -94l-4 -39q-7 -24 -12 -24h-169q7 -47 52 -47q24 0 53 21h57q-50 -79 -125 -79q-82 0 -91 105l8 37q17 81 114 117z
M2649 -38h5q77 0 86 -97l-2 -26l-5 -21l-6 -13h-170q8 -47 43 -47h12q21 0 47 21h59q-51 -79 -122 -79q-84 0 -93 102l4 29q20 93 118 128zM2907 -38h4q54 0 65 -60q2 -25 -10 -82l-24 -111h-54l29 138q10 48 -23 57h-11q-38 0 -55 -57l-29 -138h-54l52 245h50l-4 -21
q31 29 64 29zM3500 -38h6q40 0 61 -40h2l7 32h47l-52 -245h-47l7 31h-2q-43 -40 -87 -40q-71 0 -82 90l4 37l3 12q17 82 101 117q13 6 32 6zM3773 -38h4q62 0 65 -78l-15 -84l-19 -91h-54l29 138q10 48 -26 57h-9q-38 0 -53 -52l-30 -143h-54l52 245h49l-4 -21q32 29 65 29z
M4125 -38h1q74 0 84 -93l-5 -40q-18 -88 -110 -126l-26 -3q-41 0 -61 34l-22 -106h-52l69 326h47l-6 -29q38 37 81 37zM4706 -38h5q34 0 55 -37q35 37 77 37h6q56 0 65 -66l-5 -51l-29 -136h-52l26 122q15 73 -24 73h-7q-35 0 -51 -50l-30 -140l-6 -5h-48l30 140
q9 42 -20 55h-17q-40 0 -56 -77l-25 -118h-51l52 245h47l-4 -21q28 29 62 29zM349 -46h49l4 -6l-50 -234l-6 -5h-49zM1287 -46h52l-52 -245h-52zM1639 -46h52l-29 -136q-9 -60 30 -60h4q44 0 62 81l24 115h52l-52 -245h-47l5 24h-5q-19 -33 -66 -33q-52 0 -66 63q-2 12 3 34
zM2448 -46h51l-52 -245h-51zM4505 -46h51l-52 -245h-51zM1041 -169q-11 -53 35 -73h12q54 0 80 66l3 10q11 53 -40 70h-17q-38 0 -70 -57zM1407 -143h122q-8 47 -43 47h-7q-43 0 -71 -44zM2568 -143h122q-11 47 -44 47h-7q-46 0 -71 -47zM3162 -158l-2 -11q-6 -73 45 -73h5
q66 8 79 71l2 5q9 45 -25 65l-17 5h-14q-63 -14 -73 -62zM3415 -173q-1 -69 47 -69h11q41 0 72 60l3 13q7 73 -41 73h-17q-47 0 -74 -73zM4028 -158l-4 -22q-10 -47 45 -62h9q50 0 78 76q1 70 -44 70h-15q-59 -17 -69 -62z" />
    <glyph glyph-name=".null" horiz-adv-x="0" 
 />
    <glyph glyph-name="nonmarkingreturn" horiz-adv-x="571" 
 />
    <glyph glyph-name="space" unicode=" " horiz-adv-x="506" 
 />
    <glyph glyph-name="exclam" unicode="!" horiz-adv-x="397" 
d="M622 1501l-242 -1065q-4 -16 -18 -27.5t-30 -11.5h-92q-16 0 -26 11.5t-6 27.5l211 1065q4 17 19 28t30 11h121q17 0 27 -11t6 -28zM307 39q-3 -17 -16.5 -28t-30.5 -11h-115q-16 0 -25 11.5t-6 27.5l41 192q4 16 17.5 27.5t30.5 11.5h115q16 0 25 -10.5t5 -28.5z" />
    <glyph glyph-name="quotedbl" unicode="&#x22;" horiz-adv-x="725" 
d="M1012 1518q-2 -11 -5 -17l-202 -387q-19 -39 -47 -39h-112q-19 0 -15 21q3 12 6 18l178 387q16 39 49 39h131q22 0 17 -22zM648 1518q-2 -11 -5 -17l-202 -387q-19 -39 -47 -39h-113q-18 0 -14 21q3 12 6 18l177 387q16 39 49 39h131q23 0 18 -22z" />
    <glyph glyph-name="numbersign" unicode="#" horiz-adv-x="1313" 
d="M1456 1057l-1 -4l-17 -62q-5 -16 -19 -27.5t-31 -11.5h-191l-121 -397h193q15 0 21.5 -11t3.5 -28l-1 -4l-17 -59q-4 -16 -18 -27.5t-31 -11.5h-193l-113 -375q-12 -39 -44 -39h-107q-14 0 -21 10.5t-4 24.5v4l113 375h-301l-113 -375q-5 -16 -18 -27.5t-27 -11.5h-108
q-14 0 -21 11.5t-4 23.5v4l113 375h-182q-15 0 -21.5 11.5t-3.5 27.5l1 4l17 59q11 39 49 39h182l121 397h-184q-15 0 -21.5 11.5t-2.5 27.5l1 4l17 62q5 17 18.5 28t30.5 11h182l117 387q5 15 19 27t29 12h108q14 0 20 -10.5t3 -24.5l-1 -4l-117 -387h301l117 387
q6 17 19.5 28t28.5 11h107q15 0 20.5 -9.5t1.5 -25.5l-1 -4l-116 -387h192q15 0 21.5 -11t3.5 -28zM1021 952h-301l-121 -397h301z" />
    <glyph glyph-name="dollar" unicode="$" horiz-adv-x="1178" 
d="M1132 395q-32 -152 -142.5 -263.5t-315.5 -137.5l-41 -193q-3 -15 -18.5 -28t-30.5 -13h-96q-17 0 -26.5 13t-6.5 28l40 187q-89 8 -173.5 30.5t-137.5 51.5q-23 13 -27.5 22t0.5 33l18 84q8 40 46 24q85 -32 187 -54.5t190 -22.5q104 0 175 29t110 82.5t54 127.5
q17 77 -21.5 132.5t-163.5 142.5l-172 121q-129 90 -178 177.5t-24 205.5q35 162 151.5 251.5t293.5 106.5l37 174q4 17 18 29t32 12h96q17 0 26.5 -12t5.5 -29l-37 -176q139 -14 261 -68q15 -6 23 -14t4 -23l-22 -104q-8 -37 -44 -25q-66 23 -118.5 38t-113 24.5
t-119.5 9.5q-89 0 -151 -17.5t-100.5 -60.5t-54.5 -116q-15 -70 23.5 -121.5t147.5 -126.5l164 -113q104 -71 160.5 -135t72.5 -132t-2 -151z" />
    <glyph glyph-name="percent" unicode="%" horiz-adv-x="1593" 
d="M842 1014q-35 -165 -126 -249.5t-222 -84.5q-132 0 -187 84.5t-20 249.5l40 190q36 166 126 249t223 83q87 0 142 -36.5t71.5 -111.5t-7.5 -184zM1620 1477l-1166 -1452q-21 -25 -46 -25h-95q-30 0 -27 18q2 7 16 27l1167 1452q21 25 46 25h94q31 0 27 -19q-1 -6 -16 -26
zM709 1014l40 190q45 209 -99 209q-145 0 -190 -209l-40 -190q-44 -209 101 -209q144 0 188 209zM1593 319q-35 -165 -125.5 -249t-221.5 -84q-132 0 -187.5 84t-20.5 249l41 191q35 167 126 249.5t223 82.5q131 0 186 -82.5t20 -249.5zM1460 319l41 191q44 209 -100 209
q-145 0 -189 -209l-41 -191q-44 -208 101 -208q144 0 188 208z" />
    <glyph glyph-name="ampersand" unicode="&#x26;" horiz-adv-x="1354" 
d="M1297 23q-2 -10 -10 -16.5t-17 -6.5h-142q-18 0 -29 14l-79 111q-192 -139 -433 -139q-211 0 -337 91t-85 283l3 17q18 83 63 150.5t125 128.5t193 124l-10 17q-103 157 -124.5 237.5t-4.5 159.5l3 16q34 159 166 242.5t334 83.5q116 0 199.5 -36.5t122 -110.5t15.5 -179
l-3 -16q-15 -72 -53 -130.5t-119 -124t-227 -151.5l-65 -38l285 -400q110 141 156 361l6 28q7 33 40 33h88q35 0 28 -33l-6 -28q-28 -133 -87 -255t-142 -216l141 -195q8 -10 5 -22zM1077 1194l3 16q21 98 -31 143.5t-165 45.5q-262 0 -303 -189l-3 -16q-9 -43 -5.5 -79
t28.5 -87.5t86 -140.5l15 -23l79 43q114 62 173 105t85 83t38 99zM944 231l-315 437q-138 -77 -195.5 -137t-77.5 -154l-3 -17q-25 -117 52 -175t212 -58q183 0 327 104z" />
    <glyph glyph-name="quotesingle" unicode="'" horiz-adv-x="375" 
d="M662 1518q-2 -11 -5 -17l-202 -387q-19 -39 -47 -39h-112q-19 0 -15 21q3 12 6 18l177 387q17 39 49 39h131q23 0 18 -22z" />
    <glyph glyph-name="parenleft" unicode="(" horiz-adv-x="590" 
d="M461 -412q-3 -16 -24 -16h-96q-16 0 -25.5 4.5t-16.5 17.5q-100 165 -122 420t36 529l6 26q58 274 188 529t300 420q23 22 52 22h96q21 0 18 -16q-3 -12 -11 -21q-88 -100 -160.5 -208.5t-129.5 -223.5t-100.5 -243t-71.5 -259l-6 -26q-116 -546 66 -934q4 -9 1 -21z" />
    <glyph glyph-name="parenright" unicode=")" horiz-adv-x="590" 
d="M631 543q-58 -274 -189 -530.5t-299 -418.5q-14 -14 -25 -18t-27 -4h-96q-20 0 -17 16q3 12 11 21q346 388 462 934l6 26q30 142 39.5 269t1 242t-35 222.5t-71.5 200.5q-4 9 -1 21q3 16 23 16h96q29 0 43 -22q50 -81 81 -188t41 -228t1.5 -257t-38.5 -276z" />
    <glyph glyph-name="asterisk" unicode="*" horiz-adv-x="915" 
d="M1100 1225q-4 -20 -35 -31l-273 -80l112 -217q7 -13 4 -27q-3 -13 -17 -22l-57 -37q-11 -6 -18 -6q-16 0 -27 20l-109 217l-202 -217q-17 -20 -35 -20q-7 0 -15 6l-43 37q-10 9 -7 22q3 14 16 27l205 217l-236 80q-29 11 -25 31q2 3 3 5t1 5l31 59q10 21 31 21q6 0 18 -4
l236 -84l57 268q8 39 39 39h61q31 0 23 -39l-59 -268l274 84q12 4 19 4q20 0 22 -21l6 -59q2 -4 0 -10z" />
    <glyph glyph-name="plus" unicode="+" horiz-adv-x="1178" 
d="M1215 752q-7 -33 -48 -33h-344l-73 -342q-4 -18 -15 -29.5t-26 -11.5h-98q-33 0 -25 41l73 342h-342q-41 0 -34 33l21 98q3 15 16.5 24t31.5 9h342l73 344q9 41 42 41h98q15 0 21 -12.5t3 -28.5l-73 -344h344q16 0 26.5 -9t7.5 -24z" />
    <glyph glyph-name="comma" unicode="," horiz-adv-x="416" 
d="M405 242q-1 -5 -7 -17l-236 -387q-12 -20 -22 -29.5t-25 -9.5h-101q-24 0 -19 25q2 10 5 14l200 387q20 39 49 39h135q26 0 21 -22z" />
    <glyph glyph-name="hyphen" unicode="-" horiz-adv-x="645" 
d="M682 551q-7 -35 -46 -35h-407q-39 0 -32 35l21 96q3 17 16.5 27t30.5 10h407q39 0 31 -37z" />
    <glyph glyph-name="hyphen" unicode="&#x2010;" horiz-adv-x="645" 
d="M682 551q-7 -35 -46 -35h-407q-39 0 -32 35l21 96q3 17 16.5 27t30.5 10h407q39 0 31 -37z" />
    <glyph glyph-name="period" unicode="." horiz-adv-x="389" 
d="M307 43q-4 -18 -18 -29.5t-30 -11.5h-115q-15 0 -24.5 12t-5.5 29l40 190q3 16 16.5 27.5t30.5 11.5h115q16 0 25.5 -10.5t5.5 -28.5z" />
    <glyph glyph-name="slash" unicode="/" horiz-adv-x="713" 
d="M1004 1497q-2 -10 -5 -16l-769 -1440q-21 -41 -46 -41h-116q-29 0 -24 25q3 12 10 26l767 1430q21 41 44 41h116q29 0 23 -25z" />
    <glyph glyph-name="zero" unicode="0" horiz-adv-x="1198" 
d="M1234 623q-70 -330 -233 -483.5t-404 -153.5t-340 154t-29 483l59 276q70 329 234 483t405 154t339 -153.5t28 -483.5zM1047 623l59 276q53 252 -5 365.5t-209 113.5q-75 0 -137.5 -26.5t-115.5 -83.5t-95 -150.5t-68 -218.5l-59 -276q-36 -167 -21 -274.5t75.5 -156.5
t158.5 -49q151 0 257.5 114.5t159.5 365.5z" />
    <glyph glyph-name="one" unicode="1" horiz-adv-x="1198" 
d="M740 41q-4 -18 -16.5 -29.5t-29.5 -11.5h-112q-17 0 -24.5 12t-3.5 29l274 1288l-289 -115q-17 -6 -28 -6q-18 0 -13 23l22 104q3 16 26 27l340 147q28 13 46 13h84q16 0 25 -10.5t5 -28.5z" />
    <glyph glyph-name="two" unicode="2" horiz-adv-x="1198" 
d="M1304 1169q-18 -82 -58.5 -146.5t-110.5 -123t-182 -125.5l-225 -133q-127 -75 -204.5 -141t-116.5 -135t-58 -160l-9 -43h690q41 0 33 -35l-19 -90q-4 -18 -18 -27.5t-31 -9.5h-813q-16 0 -26 11.5t-7 27.5l36 166q22 107 75 202.5t140.5 179t212.5 156.5l237 140
q146 86 198.5 140.5t72.5 145.5q15 74 -3.5 120.5t-71 68.5t-139.5 22q-69 0 -142 -12.5t-146.5 -32l-122.5 -32.5q-20 -6 -29.5 2t-5.5 26l15 70q4 19 12.5 27.5t27.5 15.5q58 23 123 43t150 34.5t159 14.5q104 0 181.5 -24t121.5 -68t58 -113t-5 -162z" />
    <glyph glyph-name="three" unicode="3" horiz-adv-x="1198" 
d="M552 -14q-98 0 -195.5 24.5t-160.5 52.5q-16 9 -20.5 17t-0.5 26l15 70q8 41 47 29q114 -32 185 -48t157 -16q165 0 250.5 67t116.5 216l10 43q12 59 2 116.5t-56.5 95.5t-132.5 38h-372q-39 0 -31 37l15 71q3 17 16.5 28t30.5 11h372q92 0 153 36t93.5 91.5t45.5 116.5
l6 29q18 87 0.5 139.5t-79.5 78t-176 25.5q-86 0 -166.5 -16t-203.5 -47q-43 -12 -35 29l15 69q4 19 12.5 27.5t26.5 15.5q74 29 181.5 53.5t208.5 24.5q243 0 348 -91t59 -308l-6 -29q-11 -53 -33.5 -99.5t-56.5 -88t-78 -75.5t-95 -57q90 -48 119 -134.5t8 -186.5l-10 -43
q-47 -223 -199.5 -330.5t-385.5 -107.5z" />
    <glyph glyph-name="four" unicode="4" horiz-adv-x="1198" 
d="M1233 442q-4 -17 -17.5 -26.5t-29.5 -9.5h-178l-77 -365q-4 -17 -16 -29t-28 -12h-119q-35 0 -26 41l77 365h-592q-45 0 -60.5 18t-6.5 61l17 78q9 43 41 76l787 850q28 33 67 33h120q54 0 44 -45l-195 -916h178q17 0 26 -10t5 -27zM854 561l149 701q3 12 -5 12h-2
q-8 0 -19 -12l-616 -672q-8 -8 -10 -17q-3 -12 14 -12h489z" />
    <glyph glyph-name="five" unicode="5" horiz-adv-x="1198" 
d="M538 -14q-99 0 -196 24.5t-160 52.5q-17 10 -21.5 17.5t-0.5 25.5l15 70q9 42 47 29q199 -64 345 -64q172 0 270 81t132 241l6 31q32 151 -53 212.5t-316 61.5h-245q-14 0 -21.5 11.5t-4.5 23.5v2l202 682q6 16 20 25.5t29 9.5h705q17 0 27 -9.5t6 -25.5l-19 -90
q-7 -33 -48 -33h-588l-127 -442h96q200 0 327 -40t180 -135t19 -253l-6 -31q-49 -228 -211 -352.5t-409 -124.5z" />
    <glyph glyph-name="six" unicode="6" horiz-adv-x="1198" 
d="M1018 504l2 12q23 104 -7 167.5t-95.5 89.5t-153.5 26q-69 0 -162.5 -11.5t-154.5 -25.5l-42 -195q-35 -164 -19.5 -258t75.5 -133t164 -39q73 0 135.5 20t112 61.5t87 114t58.5 171.5zM961 1536q189 0 353 -76q17 -7 21 -14.5t0 -28.5l-16 -74q-8 -40 -47 -28
q-122 34 -185.5 49.5t-158.5 15.5q-149 0 -237.5 -55t-132.5 -151t-76 -248l-5 -23q189 41 317 41q142 0 246 -40t151.5 -135t13.5 -253l-2 -12q-35 -164 -115 -280t-204.5 -177t-290.5 -61q-116 0 -200 35.5t-133 106t-60 181.5t20 258l77 359q46 217 134.5 351
t220.5 196.5t309 62.5z" />
    <glyph glyph-name="seven" unicode="7" horiz-adv-x="1198" 
d="M1365 1393q-11 -51 -50 -107l-855 -1255q-23 -31 -52 -31h-123q-31 0 -24 31q2 10 10 22l893 1286q2 2 4 9q3 14 -12 14h-698q-41 0 -34 35l18 86q3 15 18 27t32 12h747q81 0 109.5 -36t16.5 -93z" />
    <glyph glyph-name="eight" unicode="8" horiz-adv-x="1198" 
d="M1196 424q-46 -215 -210 -326.5t-381 -111.5h-20q-217 0 -334 111.5t-71 326.5l8 39q20 96 93 188t177 144q-84 49 -116.5 133t-11.5 186l4 19q30 138 112.5 227.5t202.5 132.5t265 43h20q145 0 247 -43t146.5 -132.5t14.5 -227.5l-4 -19q-14 -69 -49.5 -130t-88 -108.5
t-124.5 -80.5q81 -51 115 -142t13 -190zM1158 1114l4 19q26 121 -41 186t-219 65h-20q-152 0 -247 -65t-121 -186l-4 -19q-22 -105 27 -175.5t182 -70.5h127q131 0 210.5 70.5t101.5 175.5zM1010 424l8 39q13 62 -1 121.5t-64 98t-138 38.5h-127q-87 0 -154 -38t-107 -98
t-53 -122l-8 -39q-29 -134 37 -208.5t215 -74.5h20q151 0 247 74.5t125 208.5z" />
    <glyph glyph-name="nine" unicode="9" horiz-adv-x="1198" 
d="M501 1018l-2 -12q-33 -154 42 -218.5t214 -64.5q62 0 156.5 10.5t160.5 26.5l41 194q52 241 -4.5 335.5t-214.5 94.5q-99 0 -176.5 -35t-133 -116.5t-83.5 -214.5zM558 -14q-97 0 -190.5 22t-161.5 53q-17 10 -21.5 17.5t-0.5 25.5l16 74q8 41 47 29q24 -7 63.5 -18.5
t87.5 -23.5t98.5 -18t94.5 -6q149 0 237.5 55t132.5 151.5t76 248.5l5 22q-97 -20 -169 -30t-148 -10q-107 0 -189.5 21t-143.5 71t-82.5 134t4.5 202l2 12q26 124 78 219.5t128 162t177.5 101.5t226.5 35q117 0 201 -35t133 -106t59.5 -182t-21.5 -259l-76 -358
q-35 -165 -93.5 -280t-141 -188t-189.5 -107.5t-240 -34.5z" />
    <glyph glyph-name="colon" unicode=":" horiz-adv-x="399" 
d="M494 895q-4 -17 -18 -28t-32 -11h-112q-17 0 -26.5 11t-5.5 28l40 190q3 16 17.5 28.5t32.5 12.5h112q18 0 27 -11.5t5 -29.5zM312 39q-4 -17 -18 -28t-32 -11h-112q-17 0 -26.5 11t-5.5 28l40 192q4 15 18 27t32 12h112q17 0 26.5 -11t5.5 -28z" />
    <glyph glyph-name="semicolon" unicode=";" horiz-adv-x="426" 
d="M518 895q-4 -17 -17 -28t-30 -11h-117q-16 0 -25.5 11.5t-5.5 27.5l40 190q4 17 17.5 29t30.5 12h117q17 0 25.5 -12t4.5 -29zM387 240q-1 -5 -8 -17l-236 -387q-14 -23 -23 -32t-25 -9h-98q-25 0 -19 27q2 10 5 14l199 387q20 39 49 39h133q27 0 23 -22z" />
    <glyph glyph-name="less" unicode="&#x3c;" horiz-adv-x="1145" 
d="M1007 307q-4 -20 -28 -20h-136q-32 0 -58 26l-405 418q-30 32 -22 70t52 69l583 418q36 27 68 27h136q24 0 20 -21q-4 -17 -27 -34l-635 -459l440 -459q16 -17 12 -35z" />
    <glyph glyph-name="equal" unicode="=" horiz-adv-x="1165" 
d="M1226 979q-7 -33 -48 -33h-789q-41 0 -34 33l21 98q7 33 48 33h789q41 0 34 -33zM1130 526q-7 -32 -48 -32h-789q-41 0 -34 32l21 99q7 32 48 32h789q41 0 34 -32z" />
    <glyph glyph-name="greater" unicode="&#x3e;" horiz-adv-x="1145" 
d="M1126 801q-8 -38 -51 -70l-582 -418q-38 -26 -70 -26h-135q-24 0 -20 20q4 18 28 35l634 459l-439 459q-17 17 -13 34q5 21 29 21h135q32 0 58 -27l405 -418q30 -30 21 -69z" />
    <glyph glyph-name="question" unicode="?" horiz-adv-x="893" 
d="M427 39q-4 -17 -17.5 -28t-30.5 -11h-115q-15 0 -25.5 11t-6.5 28l40 190q3 16 18.5 28.5t31.5 12.5h115q17 0 25.5 -12t4.5 -29zM677 1374q-90 0 -175 -17.5t-207 -53.5q-40 -13 -33 24l21 98q3 15 14 22.5t28 14.5q61 25 170 49.5t217 24.5q192 0 285.5 -71.5
t58.5 -237.5l-5 -25q-11 -50 -36 -97t-77.5 -106t-148.5 -147l-114 -104q-71 -66 -89.5 -85.5t-36.5 -51.5t-27 -74l-21 -101q-3 -16 -18 -27.5t-31 -11.5h-91q-15 0 -24 11.5t-6 27.5l21 101q15 67 36 113.5t61 93t104 102.5l116 104q94 85 130.5 136.5t50.5 115.5l5 25
q17 80 -26.5 113.5t-151.5 33.5z" />
    <glyph glyph-name="at" unicode="@" horiz-adv-x="1540" 
d="M718 102q-106 0 -163.5 42t-72.5 108t0 139q7 29 11 41l74 240q24 79 64 138.5t98.5 102.5t127.5 63.5t152 20.5q116 0 256 -30q21 -5 29.5 -14t4.5 -29l-161 -525q-5 -21 -9.5 -36.5t-8.5 -30.5q-18 -84 57 -84q85 0 149 76.5t103.5 180.5t59.5 200q33 155 2 271.5
t-131 182.5t-263 66q-264 0 -451 -140.5t-263 -379.5l-96 -312q-13 -44 -18 -65q-19 -91 -4 -171t66.5 -140t142 -93t218.5 -33q109 0 298 15h2q12 0 14 -5.5t1 -9.5l-14 -65q-5 -26 -39 -29q-144 -16 -287 -16q-144 0 -256 39t-182 113t-93 175.5t3 221.5q9 43 15 63
l98 320q57 185 181 328t303 222.5t392 79.5q204 0 330 -81.5t166.5 -225t0.5 -331.5q-38 -181 -109 -314t-169.5 -205.5t-214.5 -72.5q-129 0 -169 77q-136 -88 -245 -88zM954 350q8 39 15 60l129 428q-83 12 -137 12q-89 0 -142.5 -44t-82.5 -138l-72 -234q-5 -14 -11 -39
q-31 -147 113 -147q69 0 180 57q1 14 8 45z" />
    <glyph glyph-name="A" unicode="A" horiz-adv-x="1276" 
d="M1234 33q-7 -33 -42 -33h-121q-28 0 -28 31l-33 471h-530l-231 -471q-6 -13 -20 -22t-24 -9h-121q-14 0 -22.5 9.5t-5.5 23.5q2 10 5 14l662 1333q44 87 109 121.5t133 34.5q44 0 81.5 -13.5t63 -48t30.5 -92.5l95 -1335q1 -4 -1 -14zM1005 664l-43 673q-2 37 -31 37
q-31 0 -49 -37l-329 -673h452z" />
    <glyph glyph-name="B" unicode="B" horiz-adv-x="1210" 
d="M1217 420q-92 -434 -690 -434q-217 0 -329 18q-35 5 -47.5 21.5t-4.5 54.5l290 1364q15 70 82 76q138 16 329 16q178 0 302.5 -36t184.5 -123.5t29 -235.5l-7 -33q-24 -113 -100 -197.5t-188 -124.5q98 -35 140 -123.5t17 -207.5zM1170 1108l7 33q29 137 -63.5 187
t-300.5 50q-47 0 -61 -0.5t-59.5 -2t-83.5 -3.5l-108 -508h316q301 0 353 244zM1031 420l8 35q24 116 -31 188t-223 72h-316l-120 -563q36 -1 105.5 -5t105.5 -4q136 0 230.5 24t156 84.5t84.5 168.5z" />
    <glyph glyph-name="C" unicode="C" 
d="M230 618v3l60 282q73 343 258.5 488t423.5 145q63 0 126.5 -14t115.5 -34t82 -38q18 -12 14 -33l-22 -100q-2 -13 -13.5 -18.5t-25.5 -0.5q-49 21 -145 45.5t-168 24.5q-360 0 -459 -465l-60 -282q-36 -170 -13 -273.5t93.5 -148.5t180.5 -45q125 0 343 69q18 6 26 1
t5 -19l-22 -101q-4 -20 -27 -32q-37 -18 -98 -38t-130.5 -34t-132.5 -14q-238 0 -361.5 145t-50.5 487z" />
    <glyph glyph-name="D" unicode="D" horiz-adv-x="1260" 
d="M1298 623q-68 -321 -265 -479t-491 -158q-40 0 -106.5 2t-120 5t-78 5.5t-63.5 7.5q-42 6 -32 51l299 1407q9 44 54 52q44 6 87.5 9.5t126.5 7t163 3.5q295 0 424 -157.5t61 -479.5zM1112 623l59 276q37 176 5 282.5t-119.5 150.5t-218.5 44q-126 0 -229 -6l-260 -1220
q65 -5 227 -5q204 0 342.5 109t193.5 369z" />
    <glyph glyph-name="E" unicode="E" 
d="M991 25q-6 -26 -27 -29q-99 -10 -402 -10q-145 0 -233 39t-119 124t-3 218l168 788q42 199 169.5 290t347.5 91q102 0 220 -3t177 -9q20 -3 14 -29l-22 -102q-5 -25 -27 -25h-396q-108 0 -166.5 -20.5t-86 -65t-44.5 -127.5l-61 -285h629q19 0 28 -11t4 -30l-16 -77
q-4 -18 -18.5 -29.5t-31.5 -11.5h-629l-73 -344q-17 -83 -8.5 -127.5t58 -65t157.5 -20.5h396q22 0 17 -25z" />
    <glyph glyph-name="F" unicode="F" 
d="M1145 752q-4 -18 -18.5 -29.5t-31.5 -11.5h-629l-142 -670q-4 -18 -18.5 -29.5t-31.5 -11.5h-104q-17 0 -26.5 12t-5.5 29l236 1114q43 199 170 290t347 91q102 0 220.5 -3t177.5 -9q19 -3 14 -29l-22 -102q-5 -25 -27 -25h-396q-108 0 -166.5 -20.5t-86 -65
t-45.5 -127.5l-60 -285h629q19 0 27.5 -11t4.5 -30z" />
    <glyph glyph-name="G" unicode="G" horiz-adv-x="1200" 
d="M941 1368q-165 0 -289 -108t-179 -363l-58 -274q-26 -124 -19.5 -212.5t43 -145.5t98 -84t148.5 -27q110 0 235 10l124 586q4 16 16.5 28.5t29.5 12.5h110q15 0 24.5 -12t5.5 -29l-146 -689q-4 -18 -16.5 -30t-30.5 -15q-54 -8 -165 -19t-224 -11t-205.5 35t-154 111
t-79 198.5t18.5 292.5l58 274q39 180 112.5 304.5t168.5 197.5t199 105t211 32q109 0 218.5 -29t152.5 -57q19 -11 14 -33l-21 -100q-7 -31 -39 -19q-42 15 -98.5 30.5t-129 27.5t-133.5 12z" />
    <glyph glyph-name="H" unicode="H" horiz-adv-x="1331" 
d="M1211 41q-4 -18 -18.5 -29.5t-31.5 -11.5h-104q-17 0 -26.5 12t-5.5 29l144 680h-701l-144 -680q-4 -18 -18.5 -29.5t-31.5 -11.5h-104q-17 0 -26.5 12t-5.5 29l306 1440q3 15 17.5 28t31.5 13h104q17 0 26.5 -12t6.5 -29l-127 -594h701l127 594q3 15 17.5 28t31.5 13
h104q17 0 26.5 -12t6.5 -29z" />
    <glyph glyph-name="I" unicode="I" horiz-adv-x="477" 
d="M341 41q-4 -16 -17 -28.5t-29 -12.5h-113q-14 0 -23 11.5t-5 29.5l306 1442q4 15 17.5 27t28.5 12h113q15 0 23.5 -11t4.5 -28z" />
    <glyph glyph-name="J" unicode="J" horiz-adv-x="510" 
d="M364 -76q-31 -149 -121.5 -221t-258.5 -72q-26 0 -61 6.5t-43 10.5q-11 6 -8 22l17 76q7 35 48 35h79q79 0 112.5 32t49.5 111l332 1559q3 15 17.5 27t28.5 12h109q15 0 24.5 -12t6.5 -27z" />
    <glyph glyph-name="K" unicode="K" horiz-adv-x="1196" 
d="M1128 20q-4 -20 -30 -20h-160q-28 0 -41 20l-428 703l-145 -682q-4 -18 -16.5 -29.5t-28.5 -11.5h-113q-16 0 -24 11.5t-4 29.5l306 1442q4 16 18 27.5t30 11.5h108q16 0 25 -10.5t5 -28.5l-140 -662l735 682q23 19 45 19h148q28 0 23 -23q-3 -12 -13 -20l-764 -697
l460 -737q8 -10 4 -25z" />
    <glyph glyph-name="L" unicode="L" horiz-adv-x="1016" 
d="M992 33q-6 -26 -27 -29q-124 -18 -403 -18q-127 0 -216.5 27t-131 111.5t-7.5 242.5l236 1114q4 15 18.5 28t31.5 13h104q17 0 26.5 -12t5.5 -29l-236 -1114q-18 -83 -9.5 -127.5t58 -65t157.5 -20.5h396q22 0 17 -25z" />
    <glyph glyph-name="M" unicode="M" horiz-adv-x="1497" 
d="M1379 41q-4 -18 -18.5 -29.5t-31.5 -11.5h-100q-17 0 -26.5 12t-5.5 29l258 1214q1 7 -1 7t-5 -5l-368 -528q-47 -69 -95.5 -99t-108.5 -30q-59 0 -94 28.5t-56 98.5l-143 530q-1 5 -3 5t-3 -7l-258 -1214q-4 -18 -18.5 -29.5t-31.5 -11.5h-100q-17 0 -26.5 12t-5.5 29
l302 1421q5 25 26 42.5t45 17.5h134q49 0 58 -35l189 -703q5 -22 20 -22q14 0 29 22l487 703q13 20 28.5 27.5t44.5 7.5h133q16 0 28.5 -8.5t17 -22t1.5 -29.5z" />
    <glyph glyph-name="N" unicode="N" horiz-adv-x="1331" 
d="M1215 59q-6 -25 -27.5 -42t-44.5 -17h-127q-49 0 -59 33l-377 1202q-2 6 -5 6q-2 0 -3 -6l-255 -1196q-3 -16 -16 -27.5t-29 -11.5h-106q-37 0 -32 25l306 1439q5 24 26 41t46 17h113q41 0 54 -8.5t21 -32.5l375 -1196l2 -6q2 0 4 6l254 1198q4 16 17 27.5t29 11.5h108
q17 0 24.5 -11t3.5 -28z" />
    <glyph glyph-name="O" unicode="O" horiz-adv-x="1305" 
d="M1340 629q-36 -167 -102 -289.5t-156.5 -201t-200 -115.5t-231.5 -37q-121 0 -214.5 37t-152 115.5t-72.5 202.5t21 288l56 264q35 165 102.5 288.5t159 202.5t199.5 115.5t231 36.5t215.5 -37t150 -115.5t72 -200.5t-21.5 -290zM1152 629l56 264q27 125 21 218
t-40.5 148t-95.5 82t-149 27q-366 0 -467 -475l-56 -264q-35 -166 -14 -272.5t92 -154.5t187 -48q365 0 466 475z" />
    <glyph glyph-name="P" unicode="P" horiz-adv-x="1165" 
d="M1318 1065q-97 -459 -671 -459q-70 0 -203 10l-122 -575q-4 -18 -16.5 -29.5t-29.5 -11.5h-110q-16 0 -24 11.5t-4 29.5l303 1427q10 46 60 52q145 16 344 16q173 0 292 -44t170 -143.5t17 -256.5zM1131 1065l6 27q33 153 -45.5 219.5t-280.5 66.5q-107 0 -207 -8
l-127 -600q11 0 36 -1.5t54.5 -2.5t61.5 -2.5t51 -1.5q139 0 231 31t145 98t75 174z" />
    <glyph glyph-name="Q" unicode="Q" horiz-adv-x="1323" 
d="M1340 629q-85 -398 -345 -553q-8 -99 130 -99h121q43 0 36 -34l-13 -60q-6 -31 -47.5 -44t-128.5 -13q-125 0 -195 41t-86 135q-82 -16 -162 -16q-121 0 -214.5 37t-152 115.5t-72.5 202.5t21 288l56 264q35 165 102.5 288.5t159 202.5t199.5 115.5t231 36.5t215.5 -37
t150 -115.5t72 -200.5t-21.5 -290zM1152 629l56 264q27 125 21 218t-40.5 148t-95.5 82t-149 27q-366 0 -467 -475l-56 -264q-35 -166 -14 -272.5t92 -154.5t187 -48q365 0 466 475z" />
    <glyph glyph-name="R" unicode="R" horiz-adv-x="1235" 
d="M1175 27q-6 -27 -32 -27h-131q-22 0 -30.5 4.5t-17.5 22.5l-236 610h-19h-34q-62 0 -225 6l-128 -602q-4 -18 -16.5 -29.5t-29.5 -11.5h-110q-16 0 -24 11.5t-4 29.5l305 1434q8 40 58 45q38 4 111.5 8.5t143.5 6t110 1.5q170 0 289 -42.5t171 -141.5t19 -256l-3 -15
q-35 -164 -145 -269t-264 -144l240 -623q4 -9 2 -18zM1158 1081l3 15q21 99 -9 159.5t-109.5 86.5t-212.5 26q-177 0 -227 -6l-120 -561q180 -4 226 -4q132 0 221.5 25.5t147 88t80.5 170.5z" />
    <glyph glyph-name="S" unicode="S" horiz-adv-x="1087" 
d="M1084 395q-36 -173 -173.5 -291t-401.5 -118q-98 0 -203 25t-169 59q-23 13 -27.5 22t0.5 33l18 84q8 40 46 24q83 -31 185.5 -54t191.5 -23q104 0 175 29t110 82.5t54 127.5q17 77 -21.5 132.5t-163.5 142.5l-172 121q-129 90 -178 177.5t-24 205.5q25 119 97.5 201
t183.5 121.5t249 39.5q109 0 208 -24.5t146 -49.5q15 -6 23 -14t4 -23l-22 -104q-8 -37 -44 -25q-66 23 -118.5 38t-113 24.5t-119.5 9.5q-138 0 -210.5 -43.5t-95.5 -150.5q-15 -70 23.5 -121.5t147.5 -126.5l164 -113q154 -103 205.5 -198.5t24.5 -219.5z" />
    <glyph glyph-name="T" unicode="T" horiz-adv-x="1180" 
d="M1419 1395q-7 -33 -46 -33h-399l-281 -1321q-4 -18 -16.5 -29.5t-29.5 -11.5h-112q-16 0 -24 11.5t-4 29.5l281 1321h-400q-41 0 -34 33l19 90q3 14 18 25.5t31 11.5h985q16 0 25.5 -10.5t5.5 -26.5z" />
    <glyph glyph-name="U" unicode="U" horiz-adv-x="1294" 
d="M1289 553q-31 -145 -88 -252t-140.5 -177.5t-187 -104t-229.5 -33.5t-214 33.5t-141 104t-66 177.5t18 252l197 930q4 16 18 27.5t30 11.5h110q16 0 25 -10.5t5 -28.5l-197 -930q-44 -206 10.5 -307t238.5 -101q124 0 208.5 46t135 135.5t79.5 226.5l197 930
q4 16 18 27.5t30 11.5h111q16 0 24.5 -11t4.5 -28z" />
    <glyph glyph-name="V" unicode="V" horiz-adv-x="1292" 
d="M1551 1487q-2 -8 -5 -12l-660 -1334q-43 -87 -107.5 -121t-134.5 -34q-165 0 -176 155l-96 1334q-1 4 1 12q3 16 16.5 25.5t27.5 9.5h119q11 0 20.5 -9t10.5 -22l78 -1305q3 -43 32 -43q27 0 48 43l636 1305q16 31 41 31h121q35 0 28 -35z" />
    <glyph glyph-name="W" unicode="W" horiz-adv-x="1663" 
d="M1922 1487l-1 -6l-522 -1385q-23 -60 -59 -82t-90 -22h-88q-89 0 -95 102l-40 758q-1 18 -11 18q-9 0 -18 -18l-364 -758q-21 -46 -57.5 -74t-79.5 -28h-86q-54 0 -81 22t-24 82l66 1385l1 6q4 15 16 25t27 10h119q29 0 27 -35l-79 -1305q0 -11 -0.5 -17.5t0.5 -9.5t5 -3
q7 0 20 30l328 688q41 82 89.5 120t124.5 38t110 -39t37 -119l36 -688q1 -30 8 -30q5 0 9 9.5t8 20.5l475 1305q14 35 43 35h119q10 0 17 -4.5t10 -12.5t0 -18z" />
    <glyph glyph-name="X" unicode="X" horiz-adv-x="1288" 
d="M1225 29q-2 -12 -13.5 -20.5t-25.5 -8.5h-129q-16 0 -22.5 7t-13.5 24l-249 596l-493 -596q-26 -31 -50 -31h-120q-33 0 -26 31q2 11 10 20l609 723l-303 699q-4 9 -2 20q7 29 38 29h133q24 0 32 -21l244 -583l481 583q18 21 43 21h121q16 0 22.5 -8.5t3.5 -22.5
q-2 -9 -10 -18l-589 -703l307 -719q5 -8 2 -22z" />
    <glyph glyph-name="Y" unicode="Y" horiz-adv-x="1167" 
d="M1427 1493q-2 -9 -11 -23l-469 -712q-70 -108 -139 -135l-124 -582q-3 -17 -16.5 -29t-28.5 -12h-113q-15 0 -23.5 12t-5.5 29l124 582q-55 23 -81 135l-165 712q-3 14 -1 23q2 12 13.5 20.5t27.5 8.5h125q10 0 19.5 -9.5t11.5 -19.5l142 -664q12 -53 36 -53q23 0 58 53
l425 664q21 29 41 29h125q16 0 24 -8t5 -21z" />
    <glyph glyph-name="Z" unicode="Z" horiz-adv-x="1180" 
d="M1100 37q-4 -16 -18.5 -26.5t-30.5 -10.5h-789q-98 0 -128 29t-13 110q16 73 57 119l959 1067q8 9 10 16q3 15 -17 15h-680q-17 0 -27 9.5t-7 25.5l21 96q3 15 17 25t31 10h729q92 0 127 -27.5t18 -108.5q-6 -29 -22 -64t-36 -56l-958 -1067q-8 -9 -10 -19q-3 -12 17 -12
h736q17 0 27 -9.5t7 -25.5z" />
    <glyph glyph-name="bracketleft" unicode="[" horiz-adv-x="629" 
d="M513 -356q-4 -17 -19.5 -29t-30.5 -12h-381q-15 0 -22.5 12t-4.5 27l392 1841q3 15 15.5 27t27.5 12h381q15 0 25 -13t7 -28l-14 -68q-4 -15 -19.5 -28t-30.5 -13h-234l-344 -1620h234q17 0 26 -12t6 -29z" />
    <glyph glyph-name="backslash" unicode="\" horiz-adv-x="711" 
d="M681 29q-3 -13 -13 -21t-23 -8h-104q-25 0 -28 41l-157 1440q-1 4 1 12q2 10 12 19.5t23 9.5h104q23 0 26 -41l159 -1440q1 -4 0 -12z" />
    <glyph glyph-name="bracketright" unicode="]" horiz-adv-x="629" 
d="M422 -358q-3 -15 -15.5 -27t-27.5 -12h-381q-17 0 -26.5 12t-5.5 29l14 67q3 17 17.5 29t32.5 12h233l344 1620h-233q-17 0 -26.5 13t-5.5 28l14 68q3 15 18 28t32 13h381q15 0 22.5 -12t4.5 -27z" />
    <glyph glyph-name="asciicircum" unicode="^" horiz-adv-x="1157" 
d="M1242 1171q-4 -18 -26 -18h-123q-20 0 -26.5 6t-22.5 31l-159 246l-263 -246q-24 -23 -35 -30t-31 -7h-123q-22 0 -18 18q2 12 13 23l301 305q21 23 34 30t34 7h217q21 0 32 -7.5t23 -29.5l170 -305q5 -11 3 -23z" />
    <glyph glyph-name="underscore" unicode="_" horiz-adv-x="1036" 
d="M1044 -201q-7 -32 -47 -32h-1055q-41 0 -34 32l14 68q3 15 16.5 24t31.5 9h1055q40 0 33 -33z" />
    <glyph glyph-name="grave" unicode="`" horiz-adv-x="694" 
d="M755 1290q-3 -14 -21 -14h-111q-10 0 -16.5 3t-11 9t-13.5 19l-176 258q-6 8 -4 16q3 14 25 14h135q26 0 44 -30l145 -254q7 -8 4 -21z" />
    <glyph glyph-name="a" unicode="a" horiz-adv-x="1018" 
d="M921 78q-8 -38 -40 -45q-85 -23 -169 -35t-187 -12q-239 0 -326.5 80.5t-49.5 257.5l3 18q25 115 89 188t180 108.5t295 35.5h152l17 82q28 128 -10.5 177.5t-159.5 49.5q-93 0 -162.5 -12.5t-161.5 -38.5q-23 -7 -34.5 1t-8.5 25l17 80q6 25 37 37q52 21 149 43.5
t197 22.5q399 0 317 -385zM756 145l84 398h-152q-97 0 -157 -10.5t-99.5 -34.5t-62 -60.5t-34.5 -93.5l-4 -18q-15 -72 -2 -115.5t67.5 -63.5t158.5 -20q41 0 79.5 2.5t70 6.5t51.5 9z" />
    <glyph glyph-name="b" unicode="b" horiz-adv-x="1061" 
d="M1084 492q-51 -238 -190.5 -372t-364.5 -134q-196 0 -368 34q-27 6 -32.5 15.5t-0.5 32.5l304 1433q4 15 16 27t30 12h104q16 0 25 -11.5t5 -27.5l-81 -381q55 11 118.5 16t125.5 5q113 0 189.5 -33.5t119 -96.5t50 -156t-18.5 -216zM904 492l31 147q37 174 -6 259
t-188 85q-161 0 -242 -14l-172 -813q147 -13 236 -13q146 0 225 86.5t116 262.5z" />
    <glyph glyph-name="c" unicode="c" horiz-adv-x="889" 
d="M515 -14q-104 0 -180 34.5t-117.5 99.5t-49.5 155t17 208l34 160q33 155 105 266.5t183.5 171.5t253.5 60q84 0 153.5 -20.5t101.5 -41.5q16 -10 19.5 -17.5t0.5 -25.5l-16 -73q-9 -43 -53 -27q-123 47 -240 47q-256 0 -328 -340l-34 -160q-36 -169 11.5 -254.5
t172.5 -85.5q117 0 260 47q50 17 41 -26l-15 -74q-4 -18 -12 -26t-27 -17q-43 -21 -120 -41t-161 -20z" />
    <glyph glyph-name="d" unicode="d" horiz-adv-x="1061" 
d="M962 68q-4 -23 -15 -33t-38 -15q-187 -34 -384 -34q-148 0 -235.5 61.5t-111.5 176.5t9 268l31 147q26 123 73 215.5t115.5 156t160 97t203.5 33.5q128 0 236 -21l81 381q3 16 16.5 27.5t30.5 11.5h104q17 0 25 -11t4 -28zM801 156l173 813q-48 9 -104.5 11.5t-132.5 2.5
q-144 0 -223.5 -86t-115.5 -258l-31 -147q-38 -176 4 -262.5t187 -86.5q88 0 243 13z" />
    <glyph glyph-name="e" unicode="e" horiz-adv-x="1073" 
d="M577 143q68 0 136.5 13t135.5 34.5t108 36.5q24 10 35 1.5t7 -27.5l-18 -84q-5 -21 -36 -37q-198 -94 -401 -94q-128 0 -223 45.5t-135.5 155t-2.5 290.5l40 185q47 222 194 350.5t363 128.5q145 0 234 -58.5t116.5 -167.5t-2.5 -253l-24 -111q-9 -45 -48 -45h-686
l-7 -29q-37 -178 15.5 -256t198.5 -78zM942 643l4 19q24 113 9.5 185t-66.5 104t-143 32q-275 0 -343 -321l-4 -19h543z" />
    <glyph glyph-name="f" unicode="f" horiz-adv-x="760" 
d="M1027 1446q-7 -31 -44 -31h-98q-74 0 -105.5 -29t-49.5 -112l-31 -148h215q16 0 25 -10.5t6 -25.5l-17 -80q-7 -35 -46 -35h-215l-199 -934q-3 -16 -17.5 -28.5t-30.5 -12.5h-101q-17 0 -25.5 12.5t-5.5 28.5l199 934l-195 22q-38 3 -31 37l12 56q3 15 17 25.5t30 10.5
h199l31 148q23 106 69.5 169t115 89.5t162.5 26.5q57 0 112 -13q37 -11 32 -33z" />
    <glyph glyph-name="g" unicode="g" horiz-adv-x="1061" 
d="M454 -256q100 0 159.5 21t96.5 76.5t58 158.5l3 14q-42 -10 -115 -19t-120 -9q-457 0 -350 503l32 150q37 171 110.5 282t187 165.5t266.5 54.5q161 0 356 -47q25 -5 31.5 -14.5t1.5 -32.5l-223 -1047q-46 -220 -176 -311.5t-349 -91.5q-107 0 -193.5 25t-126.5 52
q-25 18 -19 47l15 68q3 18 18 27t34 0q96 -40 151 -56t152 -16zM802 160l172 807q-116 22 -224 22q-76 0 -134 -19.5t-98.5 -61.5t-70 -108t-49.5 -161l-32 -150q-27 -130 -13 -207t68 -111t148 -34q49 0 117 6.5t116 16.5z" />
    <glyph glyph-name="h" unicode="h" horiz-adv-x="1087" 
d="M984 41q-4 -17 -19.5 -29t-30.5 -12h-98q-17 0 -26.5 12t-5.5 29l143 674q31 148 -12.5 208t-150.5 60q-56 0 -142 -14.5t-152 -42.5l-188 -885q-4 -16 -19 -28.5t-31 -12.5h-100q-15 0 -24.5 12t-5.5 29l310 1458q3 18 16.5 29.5t30.5 11.5h102q18 0 26 -11.5t5 -29.5
l-90 -422q78 32 165.5 48t160.5 16q111 0 185 -44.5t99 -141t-5 -240.5z" />
    <glyph glyph-name="i" unicode="i" horiz-adv-x="444" 
d="M601 1348q-3 -18 -17.5 -29.5t-31.5 -11.5h-104q-17 0 -26.5 12t-6.5 29l35 163q4 17 18 29t32 12h104q19 0 27.5 -11t4.5 -30zM320 41q-4 -18 -18.5 -29.5t-31.5 -11.5h-98q-15 0 -25.5 12t-6.5 29l222 1044q3 17 17.5 29t31.5 12h98q19 0 28 -11t5 -30z" />
    <glyph glyph-name="j" unicode="j" horiz-adv-x="444" 
d="M601 1346q-4 -17 -17.5 -28t-31.5 -11h-104q-15 0 -26 11t-7 28l35 165q3 16 17.5 28.5t32.5 12.5h104q18 0 27 -11.5t5 -29.5zM283 -131q-32 -152 -108 -212t-206 -60q-55 0 -108 8q-36 5 -30 33l16 75q6 29 49 29h84q59 0 82.5 24.5t40.5 102.5l259 1216
q3 16 15.5 28.5t29.5 12.5h106q18 0 25.5 -11t3.5 -30z" />
    <glyph glyph-name="k" unicode="k" horiz-adv-x="975" 
d="M924 27q-6 -27 -29 -27h-147q-15 0 -22.5 5t-19.5 22l-300 503l-104 -489q-4 -17 -19.5 -29t-30.5 -12h-98q-17 0 -26.5 12t-5.5 29l310 1458q3 17 17 29t32 12h98q17 0 26.5 -12t6.5 -29l-182 -852l507 461q21 18 45 18h144q31 0 27 -22q-3 -12 -16 -23l-554 -487
l337 -549q6 -7 4 -18z" />
    <glyph glyph-name="l" unicode="l" horiz-adv-x="438" 
d="M318 41q-4 -18 -16.5 -29.5t-29.5 -11.5h-106q-16 0 -24 11.5t-4 29.5l310 1460q3 15 15 27t30 12h106q17 0 25 -11t4 -28z" />
    <glyph glyph-name="m" unicode="m" horiz-adv-x="1581" 
d="M122 41l209 987q9 41 48 49q140 34 240.5 49t183.5 15q71 0 131.5 -20.5t87.5 -61.5q196 84 358 84q98 0 164 -36t91 -120t-4 -221l-154 -725q-4 -18 -18.5 -29.5t-31.5 -11.5h-98q-15 0 -25.5 12t-6.5 29l154 725q25 121 -13.5 170t-126.5 49q-98 0 -251 -55
q3 -71 -15 -160l-155 -729q-4 -16 -17 -28.5t-29 -12.5h-109q-15 0 -22.5 12t-3.5 29l155 729q18 86 11 133.5t-37 64.5t-86 17q-119 0 -257 -35l-193 -909q-4 -18 -16.5 -29.5t-29.5 -11.5h-109q-14 0 -21.5 12t-3.5 29z" />
    <glyph glyph-name="n" unicode="n" horiz-adv-x="1087" 
d="M1126 713l-142 -672q-4 -17 -19.5 -29t-30.5 -12h-98q-17 0 -26.5 12t-5.5 29l142 672q22 102 10.5 162t-58.5 86t-131 26q-126 0 -272 -37l-193 -909q-4 -16 -19 -28.5t-31 -12.5h-100q-15 0 -24.5 12t-5.5 29l209 987q8 38 48 49q262 64 436 64q115 0 188.5 -28.5
t106.5 -82.5t36 -131.5t-20 -185.5z" />
    <glyph glyph-name="o" unicode="o" 
d="M1096 485q-49 -230 -195 -364.5t-367 -134.5q-220 0 -309 134.5t-40 364.5l33 156q49 231 195 365.5t366 134.5q221 0 310 -134.5t40 -365.5zM916 485l33 156q23 107 9.5 183.5t-66 117.5t-146.5 41q-139 0 -226 -89.5t-122 -252.5l-33 -156q-73 -342 202 -342
q139 0 226.5 89t122.5 253z" />
    <glyph glyph-name="p" unicode="p" horiz-adv-x="1061" 
d="M1082 487q-52 -243 -192 -372t-361 -129q-113 0 -235 22l-78 -370q-4 -16 -18 -27.5t-30 -11.5h-104q-17 0 -24.5 11t-3.5 28l299 1409q5 21 16 31t37 16q54 13 123 24t134.5 17t128.5 6q149 0 236 -61.5t111.5 -175.5t-7.5 -269zM902 487l32 148q23 112 14.5 190
t-58.5 121t-148 43q-125 0 -243 -20l-173 -811q104 -21 235 -21q144 0 224 88t117 262z" />
    <glyph glyph-name="q" unicode="q" horiz-adv-x="1061" 
d="M871 -362q-3 -17 -15.5 -28t-29.5 -11h-104q-16 0 -25 11.5t-6 27.5l79 370q-128 -22 -245 -22q-111 0 -187.5 33t-118.5 97.5t-50.5 157t17.5 213.5l31 148q25 116 71.5 209t117 160.5t160.5 102t205 34.5q182 0 367 -47q25 -5 31.5 -14.5t1.5 -32.5zM802 158l172 811
q-42 7 -66 10t-74.5 6.5t-95.5 3.5q-144 0 -224 -90.5t-117 -263.5l-31 -148q-37 -172 5.5 -261t185.5 -89q130 0 245 21z" />
    <glyph glyph-name="r" unicode="r" horiz-adv-x="743" 
d="M780 1143q81 0 137 -10q21 -4 25.5 -13.5t0.5 -29.5l-16 -74q-5 -21 -14.5 -28.5t-32.5 -6.5q-69 4 -134 4q-128 0 -250 -31l-194 -913q-4 -16 -19 -28.5t-31 -12.5h-100q-15 0 -24.5 12t-5.5 29l210 991q8 38 48 49q124 33 219.5 47.5t180.5 14.5z" />
    <glyph glyph-name="s" unicode="s" horiz-adv-x="913" 
d="M458 139q223 0 256 156q10 48 -15 82t-104 80l-184 106q-91 54 -129 126t-17 173q23 106 91 167.5t160 86.5t199 25q83 0 162 -18t113 -40q14 -9 19 -14.5t2 -21.5l-18 -84q-4 -18 -18.5 -26.5t-34.5 -0.5q-52 22 -124.5 36.5t-132.5 14.5q-96 0 -158.5 -24t-78.5 -99
q-11 -52 14 -88.5t92 -75.5l181 -104q76 -44 115.5 -89t49.5 -94t-3 -110q-22 -105 -89 -176.5t-165.5 -106t-215.5 -34.5q-89 0 -170 20.5t-123 44.5q-26 15 -21 37l18 84q3 18 18 27t34 0q141 -60 277 -60z" />
    <glyph glyph-name="t" unicode="t" horiz-adv-x="768" 
d="M734 31q-6 -30 -44 -35q-71 -10 -136 -10q-150 0 -202 56.5t-17 217.5l152 715l-195 22q-38 3 -31 37l12 56q8 36 47 36h199l43 201q7 34 44 41l111 16h6q14 0 20.5 -9.5t2.5 -24.5l-47 -224h221q17 0 26.5 -12t5.5 -29l-15 -69q-3 -17 -18.5 -29t-30.5 -12h-221
l-152 -715q-18 -82 0 -105.5t82 -23.5h115q43 0 37 -29z" />
    <glyph glyph-name="u" unicode="u" horiz-adv-x="1087" 
d="M201 414l143 671q3 17 17 29t32 12h98q17 0 26.5 -12t6.5 -29l-143 -671q-32 -151 10.5 -213t168.5 -62q47 0 129 11t143 26l194 909q3 16 17 28.5t32 12.5h100q17 0 25.5 -12t5.5 -29l-210 -987q-8 -38 -48 -49q-259 -63 -437 -63q-151 0 -229.5 50t-94.5 143.5
t14 234.5z" />
    <glyph glyph-name="v" unicode="v" horiz-adv-x="1057" 
d="M1223 1092q-2 -9 -5 -15l-484 -975q-31 -64 -83 -90t-126 -26q-72 0 -112.5 25.5t-47.5 90.5l-68 975q-1 6 1 15q3 16 13.5 25t25.5 9h113q27 0 31 -39l45 -892q3 -38 9.5 -49t20.5 -11t27 12t29 48l426 892q20 39 47 39h112q17 0 23 -9t3 -25z" />
    <glyph glyph-name="w" unicode="w" horiz-adv-x="1581" 
d="M1749 1085l-2 -8l-401 -950q-28 -68 -50 -95.5t-53 -36.5t-99 -9q-56 0 -83 10t-38.5 40.5t-14.5 96.5l-30 696q-1 15 -7 15q-5 0 -7 -2.5t-7 -12.5l-326 -696q-42 -89 -81 -118t-119 -29q-64 0 -93 9t-39 36.5t-10 95.5l3 950l2 8q4 17 17.5 29t30.5 12h111
q13 0 21 -9.5t7 -22.5l-29 -934q-1 -25 11 -25q10 0 22 25l368 786q31 62 95 62h115q65 0 69 -62l32 -786q2 -25 12 -25q12 0 21 25l369 934q5 13 17.5 22.5t24.5 9.5h111q17 0 25.5 -12t4.5 -29z" />
    <glyph glyph-name="x" unicode="x" horiz-adv-x="1090" 
d="M1035 23q-5 -23 -31 -23h-142q-17 0 -25 16l-202 428l-383 -424q-17 -20 -39 -20h-123q-24 0 -20 20q3 15 16 27l480 526l-242 502q-6 17 -4 27q5 24 36 24h133q22 0 35 -28l179 -385l343 385q17 19 25.5 23.5t23.5 4.5h119q26 0 21 -24q-2 -10 -16 -27l-447 -489
l260 -539q6 -11 3 -24z" />
    <glyph glyph-name="y" unicode="y" horiz-adv-x="1065" 
d="M1231 1092q-2 -11 -5 -15l-589 -1179q-57 -117 -113 -181t-132 -93.5t-193 -29.5q-90 0 -168 19q-41 10 -36 33l16 75q7 33 46 33h6q132 -12 179 -12q91 0 142 35.5t98 138.5l38 84h-28q-55 0 -84.5 26t-37.5 115l-73 936q-1 4 1 15q7 34 43 34h113q12 0 20 -10t9 -22
l53 -889q1 -45 28 -45h33l449 936q6 13 18.5 21.5t26.5 8.5h115q32 0 25 -34z" />
    <glyph glyph-name="z" unicode="z" horiz-adv-x="948" 
d="M875 41q-4 -18 -18.5 -29.5t-31.5 -11.5h-618q-61 0 -86 32.5t-15 80.5l8 39q9 42 26 70.5t50 62.5l667 657q12 11 13 19q3 14 -18 14h-498q-15 0 -25 12t-7 29l15 69q3 17 18 29t32 12h603q114 0 92 -100l-10 -49q-12 -57 -71 -113l-681 -674q-14 -10 -16 -22
q-4 -16 13 -16h540q17 0 26.5 -12t6.5 -29z" />
    <glyph glyph-name="braceleft" unicode="{" horiz-adv-x="659" 
d="M538 -356q-4 -19 -18 -30t-31 -11h-104q-127 0 -189 25.5t-75 85.5t11 171l76 361q21 97 7 151t-75 105l25 119q84 52 120.5 105.5t56.5 147.5l77 365q24 111 63.5 171.5t111.5 86t199 25.5h102q17 0 26 -12t6 -29l-15 -68q-3 -17 -17.5 -29t-31.5 -12h-92
q-90 0 -121 -25t-49 -108l-77 -365q-24 -110 -72.5 -185t-139.5 -130q67 -56 84.5 -129t-6.5 -184l-76 -361q-10 -45 -9.5 -69t11.5 -38t38.5 -20t71.5 -6h94q19 0 27.5 -11.5t5.5 -29.5z" />
    <glyph glyph-name="bar" unicode="|" horiz-adv-x="872" 
d="M1470 1495q648 -19 773 -386q20 -62 20 -126v-25q0 -236 -236 -411q-77 -50 -106 -50v120q221 158 221 341v35q0 266 -396 387q-153 30 -296 30h-20q-461 0 -933 -231l-5 5v35q108 85 401 186q309 90 577 90zM1731 1144h105l10 -10v-627l-10 -10q-103 0 -115 140v497z
M341 1129h100l11 -10v-96l-11 -10h-100l-10 10v96zM1023 1079h101l10 -10v-116h75l10 -10v-75l-10 -10h-75v-226q0 -26 20 -35h55l10 -10v-85l-10 -10h-45q-151 0 -151 135v442zM246 1064l5 -5v-56q-156 -187 -156 -386q0 -361 492 -441q105 -20 266 -20q552 0 1023 250
l5 -5v-160q-95 -75 -386 -156q-301 -85 -617 -85h-10q-694 0 -848 431q-20 97 -20 156q0 255 246 477zM1460 963q137 0 186 -135q15 -53 15 -106v-25l-10 -10h-286q0 -100 110 -100q49 0 95 40h5l71 -65q-67 -75 -156 -75h-45q-153 0 -196 180l-5 60q24 236 216 236z
M341 953h100l11 -10v-446l-6 -5v-5q-115 23 -115 110v346zM562 953h241q130 0 130 -170v-281l-10 -10h-105l-10 10v331q-13 25 -40 25h-96v-356l-10 -10h-100l-10 10v441zM1365 768h175v5q-11 90 -80 90h-5q-80 0 -90 -95zM2015 1107q0 -15 -7.5 -26.5t-19 -18.5t-24.5 -7
q-15 0 -27 7t-19 18.5t-7 26.5q0 14 7 26t19 19t27 7q14 0 25 -7t18.5 -19t7.5 -26zM2004 1107q0 17 -12 29t-28 12q-17 0 -29 -12t-12 -29q0 -12 5.5 -21t14.5 -14.5t21 -5.5q11 0 20 5.5t14.5 14.5t5.5 21zM1954 1100v-19q0 -4 -2 -4h-7q-4 0 -4 4v52q0 3 4 5h17
q25 0 25 -18q0 -14 -12 -18l13 -20v-3t-3 -2h-8q-2 0 -3 3l-11 20h-9zM1954 1110h6q8 0 11 2t3 7q0 10 -14 10h-6v-19z" />
    <glyph glyph-name="braceright" unicode="}" horiz-adv-x="659" 
d="M734 502q-83 -51 -120 -105.5t-57 -150.5l-77 -361q-24 -112 -63 -171.5t-111 -85t-200 -25.5h-104q-17 0 -26.5 12t-5.5 29l14 67q3 17 17.5 29t32.5 12h94q90 0 121 25.5t49 107.5l77 361q15 74 41 129.5t67.5 101t102.5 82.5q-69 56 -85 130.5t7 184.5l78 365
q17 83 -3.5 108t-110.5 25h-92q-15 0 -25.5 13t-6.5 28l14 68q3 15 19 28t31 13h102q128 0 188.5 -25.5t74.5 -85.5t-9 -172l-78 -365q-20 -93 -6 -147.5t75 -105.5z" />
    <glyph glyph-name="asciitilde" unicode="~" horiz-adv-x="1167" 
d="M1223 956q-29 -134 -96.5 -200t-187.5 -66q-83 0 -145 58l-134 126q-32 33 -48.5 44.5t-35.5 11.5q-51 0 -72.5 -28t-33.5 -89l-12 -53q-4 -20 -20 -32.5t-34 -12.5h-59q-19 0 -30 12.5t-7 32.5l12 53q28 133 102.5 201.5t186.5 68.5q82 0 144 -57q88 -88 144 -139
q18 -18 40 -29.5t36 -11.5q51 0 68.5 22.5t31.5 87.5l12 58q4 18 20.5 31.5t34.5 13.5h60q13 0 21.5 -6t12.5 -16t1 -23z" />
    <glyph glyph-name="dieresis" unicode="&#xa8;" horiz-adv-x="1024" 
 />
    <glyph glyph-name="copyright" unicode="&#xa9;" horiz-adv-x="713" 
d="M479 1241l3 16q38 179 192 179q54 0 90 -21q12 -7 9 -24l-5 -21q-6 -28 -30 -18q-63 14 -79 14q-40 0 -64 -25.5t-37 -83.5l-3 -16q-13 -59 1.5 -83.5t53.5 -24.5q16 0 32 2.5t31.5 6.5t21.5 5q28 10 22 -19l-4 -20q-4 -17 -20 -25q-42 -20 -98 -20q-154 0 -116 178z
M937 1245q-18 -84 -75 -153.5t-135 -109.5t-158 -40q-81 0 -143 40t-87.5 110t-7.5 153q17 81 72.5 151t134 111t160.5 41q81 0 141.5 -40.5t87.5 -110.5t10 -152zM869 1245q20 97 -33.5 167.5t-151.5 70.5q-99 0 -182.5 -70.5t-103.5 -167.5q-14 -66 5.5 -120t66 -85.5
t113.5 -31.5q66 0 125.5 31t102.5 85t58 121z" />
    <glyph glyph-name="registered" unicode="&#xae;" horiz-adv-x="713" 
d="M937 1245q-18 -84 -75 -153.5t-135 -109.5t-158 -40q-81 0 -143 40t-87.5 110t-7.5 153q17 81 72.5 151t134 111t160.5 41q81 0 141.5 -40.5t87.5 -110.5t10 -152zM869 1245q20 97 -33.5 167.5t-151.5 70.5q-99 0 -182.5 -70.5t-103.5 -167.5q-14 -66 5.5 -120t66 -85.5
t113.5 -31.5q66 0 125.5 31t102.5 85t58 121zM573 1206l-23 -108q-4 -21 -24 -21h-37q-18 0 -14 21l64 299q5 22 27 26q39 4 97 4q146 0 123 -108q-16 -76 -89 -100l46 -115q5 -10 0.5 -18.5t-14.5 -8.5h-51q-12 0 -16 13l-44 116h-45zM584 1264h37q44 0 64 11t27 42
q11 53 -69 53h-37z" />
    <glyph glyph-name="acute" unicode="&#xb4;" horiz-adv-x="1024" 
 />
    <glyph glyph-name="paragraph" unicode="&#xb6;" horiz-adv-x="1024" 
d="M1234 1435l-15 -70h-127l-290 -1365h-82l290 1365h-166l-290 -1365h-84l157 738q-172 8 -253.5 102.5t-49.5 245.5q33 157 161 253t306 96h443z" />
    <glyph glyph-name="onequarter" unicode="&#xbc;" horiz-adv-x="1493" 
d="M1549 1505q-2 -8 -16 -28l-1159 -1442q-19 -24 -31 -33.5t-28 -9.5h-100q-22 0 -18 20q1 3 14 27l1156 1442q21 25 32 33t28 8h104q21 0 18 -17zM529 707q-6 -27 -31 -27h-92q-22 0 -16 27l143 673l-157 -63q-29 -13 -23 14l18 86q3 15 21 23l161 67q34 15 57 15h65
q27 0 22 -25zM1469 236q-6 -27 -34 -27h-78l-38 -178q-2 -11 -12 -21t-21 -10h-86q-26 0 -20 31l38 178h-312q-28 0 -22 27l19 88q7 36 23 53l414 450q15 15 33 15h90q29 0 23 -27l-104 -489h78q11 0 18 -7.5t4 -19.5zM1243 326l64 301q1 4 -2 4t-7 -4l-259 -285
q-15 -16 3 -16h201z" />
    <glyph glyph-name="onehalf" unicode="&#xbd;" horiz-adv-x="1507" 
d="M529 707q-6 -27 -31 -27h-92q-22 0 -16 27l143 673l-157 -63q-11 -5 -18.5 -2.5t-5.5 12.5l19 90q3 15 21 23l161 67q34 15 57 15h65q27 0 22 -25zM1572 653q-10 -49 -36 -91t-69.5 -80.5t-102.5 -73.5l-119 -74q-67 -41 -101.5 -71.5t-49.5 -59.5t-24 -72l-2 -6h355
q13 0 20.5 -6.5t4.5 -18.5l-16 -75q-3 -12 -12.5 -18.5t-22.5 -6.5h-459q-11 0 -18.5 8t-4.5 21l17 82q22 103 80.5 177t172.5 142l128 76q59 35 82 62.5t32 66.5q11 53 -14.5 71.5t-99.5 18.5t-217 -37q-30 -8 -23 23l11 51q5 24 27 35q124 51 245 51q80 0 133 -20.5
t75.5 -64.5t7.5 -110zM1549 1505q-2 -8 -16 -28l-1159 -1442q-19 -24 -31 -33.5t-28 -9.5h-100q-22 0 -18 20q1 3 14 27l1156 1442q21 25 32 33t28 8h104q21 0 18 -17z" />
    <glyph glyph-name="threequarters" unicode="&#xbe;" horiz-adv-x="1655" 
d="M1629 236q-6 -27 -35 -27h-77l-38 -178q-2 -11 -12 -21t-21 -10h-86q-27 0 -21 31l38 178h-311q-29 0 -23 27l18 88q8 36 25 53l414 450q14 15 33 15h90q29 0 23 -27l-104 -489h77q12 0 19 -7.5t4 -19.5zM1402 326l64 301q1 4 -1.5 4t-6.5 -4l-260 -285q-14 -16 4 -16
h200zM1682 1505q-2 -8 -16 -28l-1159 -1442q-19 -24 -31 -33.5t-27 -9.5h-101q-22 0 -18 20q1 3 14 27l1156 1442q21 25 32 33t28 8h104q21 0 18 -17zM437 680q-116 0 -194 41q-18 10 -13 35l11 51q7 32 33 22q38 -11 88.5 -18.5t94.5 -7.5q86 0 130.5 29t57.5 92l5 22
q25 121 -94 121h-203q-11 0 -18 8t-5 19l14 63q5 27 34 27h199q74 0 105.5 31.5t41.5 80.5l3 13q22 104 -140 104q-94 0 -195 -27q-29 -8 -23 23l11 51q5 25 27 35q96 41 220 41q137 0 200.5 -50t38.5 -165l-3 -14q-25 -118 -132 -183q79 -60 54 -178l-5 -22
q-25 -116 -117 -179t-226 -65z" />
    <glyph glyph-name="Agrave" unicode="&#xc0;" horiz-adv-x="1276" 
d="M1234 33q-7 -33 -42 -33h-121q-28 0 -28 31l-33 471h-530l-231 -471q-6 -13 -20 -22t-24 -9h-121q-14 0 -22.5 9.5t-5.5 23.5q2 10 5 14l662 1333q44 87 109 121.5t133 34.5q44 0 81.5 -13.5t63 -48t30.5 -92.5l95 -1335q1 -4 -1 -14zM1005 664l-43 673q-2 37 -31 37
q-31 0 -49 -37l-329 -673h452zM1127 1641q-3 -14 -21 -14h-111q-10 0 -16.5 3t-11 9t-13.5 19l-176 258q-6 8 -4 16q3 14 25 14h135q26 0 44 -30l145 -254q7 -8 4 -21z" />
    <glyph glyph-name="Aacute" unicode="&#xc1;" horiz-adv-x="1276" 
d="M1234 33q-7 -33 -42 -33h-121q-28 0 -28 31l-33 471h-530l-231 -471q-6 -13 -20 -22t-24 -9h-121q-14 0 -22.5 9.5t-5.5 23.5q2 10 5 14l662 1333q44 87 109 121.5t133 34.5q44 0 81.5 -13.5t63 -48t30.5 -92.5l95 -1335q1 -4 -1 -14zM1005 664l-43 673q-2 37 -31 37
q-31 0 -49 -37l-329 -673h452zM1361 1932q-2 -8 -12 -16l-287 -258q-22 -20 -30 -25.5t-23 -5.5h-111q-18 0 -15 14q3 13 12 21l255 254q20 20 29.5 25t26.5 5h135q23 0 20 -14z" />
    <glyph glyph-name="Acircumflex" unicode="&#xc2;" horiz-adv-x="1276" 
d="M1234 33q-7 -33 -42 -33h-121q-28 0 -28 31l-33 471h-530l-231 -471q-6 -13 -20 -22t-24 -9h-121q-14 0 -22.5 9.5t-5.5 23.5q2 10 5 14l662 1333q44 87 109 121.5t133 34.5q44 0 81.5 -13.5t63 -48t30.5 -92.5l95 -1335q1 -4 -1 -14zM1005 664l-43 673q-2 37 -31 37
q-31 0 -49 -37l-329 -673h452zM1338 1641q-3 -14 -22 -14h-106q-15 0 -21 5.5t-20 25.5l-126 198l-212 -198q-21 -19 -30 -25t-23 -6h-107q-18 0 -15 14q3 13 12 21l251 254q20 20 29.5 25t26.5 5h174q26 0 44 -30l141 -254q7 -8 4 -21z" />
    <glyph glyph-name="Atilde" unicode="&#xc3;" horiz-adv-x="1276" 
d="M1234 33q-7 -33 -42 -33h-121q-28 0 -28 31l-33 471h-530l-231 -471q-6 -13 -20 -22t-24 -9h-121q-14 0 -22.5 9.5t-5.5 23.5q2 10 5 14l662 1333q44 87 109 121.5t133 34.5q44 0 81.5 -13.5t63 -48t30.5 -92.5l95 -1335q1 -4 -1 -14zM1005 664l-43 673q-2 37 -31 37
q-31 0 -49 -37l-329 -673h452zM1397 1831q-23 -108 -80.5 -161.5t-158.5 -53.5q-76 0 -121 43l-104 100q-28 29 -42 37t-33 8q-35 0 -53.5 -23t-29.5 -71l-9 -43q-3 -15 -15 -25t-27 -10h-64q-14 0 -21.5 10.5t-4.5 24.5l9 43q24 109 87.5 166t155.5 57q60 0 112 -49
l121 -114q17 -14 34.5 -21.5t31.5 -7.5q32 0 51 20t29 70l10 47q3 14 16 24.5t27 10.5h64q13 0 20.5 -11t4.5 -24z" />
    <glyph glyph-name="Egrave" unicode="&#xc8;" 
d="M991 25q-6 -26 -27 -29q-99 -10 -402 -10q-145 0 -233 39t-119 124t-3 218l168 788q42 199 169.5 290t347.5 91q102 0 220 -3t177 -9q20 -3 14 -29l-22 -102q-5 -25 -27 -25h-396q-108 0 -166.5 -20.5t-86 -65t-44.5 -127.5l-61 -285h629q19 0 28 -11t4 -30l-16 -77
q-4 -18 -18.5 -29.5t-31.5 -11.5h-629l-73 -344q-17 -83 -8.5 -127.5t58 -65t157.5 -20.5h396q22 0 17 -25zM1056 1639q-3 -14 -21 -14h-111q-10 0 -16.5 3t-11.5 9t-13 19l-176 258q-6 8 -5 16q3 14 25 14h135q26 0 45 -30l145 -254q6 -8 4 -21z" />
    <glyph glyph-name="Eacute" unicode="&#xc9;" 
d="M991 25q-6 -26 -27 -29q-99 -10 -402 -10q-145 0 -233 39t-119 124t-3 218l168 788q42 199 169.5 290t347.5 91q102 0 220 -3t177 -9q20 -3 14 -29l-22 -102q-5 -25 -27 -25h-396q-108 0 -166.5 -20.5t-86 -65t-44.5 -127.5l-61 -285h629q19 0 28 -11t4 -30l-16 -77
q-4 -18 -18.5 -29.5t-31.5 -11.5h-629l-73 -344q-17 -83 -8.5 -127.5t58 -65t157.5 -20.5h396q22 0 17 -25zM1273 1932q-2 -8 -11 -16l-287 -258q-23 -20 -31 -25.5t-23 -5.5h-111q-18 0 -15 14q3 13 13 21l255 254q20 20 29 25t26 5h135q23 0 20 -14z" />
    <glyph glyph-name="Ecircumflex" unicode="&#xca;" 
d="M991 25q-6 -26 -27 -29q-99 -10 -402 -10q-145 0 -233 39t-119 124t-3 218l168 788q42 199 169.5 290t347.5 91q102 0 220 -3t177 -9q20 -3 14 -29l-22 -102q-5 -25 -27 -25h-396q-108 0 -166.5 -20.5t-86 -65t-44.5 -127.5l-61 -285h629q19 0 28 -11t4 -30l-16 -77
q-4 -18 -18.5 -29.5t-31.5 -11.5h-629l-73 -344q-17 -83 -8.5 -127.5t58 -65t157.5 -20.5h396q22 0 17 -25zM1252 1641q-3 -14 -22 -14h-106q-15 0 -21 5.5t-19 25.5l-126 198l-212 -198q-21 -19 -30.5 -25t-23.5 -6h-107q-18 0 -15 14q3 13 13 21l251 254q20 20 29 25t26 5
h174q26 0 45 -30l141 -254q6 -8 3 -21z" />
    <glyph glyph-name="Igrave" unicode="&#xcc;" horiz-adv-x="477" 
d="M341 41q-4 -16 -17 -28.5t-29 -12.5h-113q-14 0 -23 11.5t-5 29.5l306 1442q4 15 17.5 27t28.5 12h113q15 0 23.5 -11t4.5 -28zM722 1641q-3 -14 -21 -14h-111q-10 0 -16.5 3t-11 9t-12.5 19l-177 258q-6 8 -4 16q3 14 25 14h135q26 0 44 -30l145 -254q7 -8 4 -21z" />
    <glyph glyph-name="Iacute" unicode="&#xcd;" horiz-adv-x="477" 
d="M341 41q-4 -16 -17 -28.5t-29 -12.5h-113q-14 0 -23 11.5t-5 29.5l306 1442q4 15 17.5 27t28.5 12h113q15 0 23.5 -11t4.5 -28zM935 1932q-2 -8 -12 -16l-286 -258q-23 -20 -31 -25.5t-23 -5.5h-111q-18 0 -15 14q3 13 12 21l255 254q21 20 30 25t26 5h135q23 0 20 -14z
" />
    <glyph glyph-name="Ograve" unicode="&#xd2;" horiz-adv-x="1305" 
d="M1340 629q-36 -167 -102 -289.5t-156.5 -201t-200 -115.5t-231.5 -37q-121 0 -214.5 37t-152 115.5t-72.5 202.5t21 288l56 264q35 165 102.5 288.5t159 202.5t199.5 115.5t231 36.5t215.5 -37t150 -115.5t72 -200.5t-21.5 -290zM1152 629l56 264q27 125 21 218
t-40.5 148t-95.5 82t-149 27q-366 0 -467 -475l-56 -264q-35 -166 -14 -272.5t92 -154.5t187 -48q365 0 466 475zM1137 1641q-3 -14 -21 -14h-111q-10 0 -16.5 3t-11 9t-12.5 19l-177 258q-6 8 -4 16q3 14 25 14h135q26 0 44 -30l145 -254q7 -8 4 -21z" />
    <glyph glyph-name="Oacute" unicode="&#xd3;" horiz-adv-x="1305" 
d="M1340 629q-36 -167 -102 -289.5t-156.5 -201t-200 -115.5t-231.5 -37q-121 0 -214.5 37t-152 115.5t-72.5 202.5t21 288l56 264q35 165 102.5 288.5t159 202.5t199.5 115.5t231 36.5t215.5 -37t150 -115.5t72 -200.5t-21.5 -290zM1152 629l56 264q27 125 21 218
t-40.5 148t-95.5 82t-149 27q-366 0 -467 -475l-56 -264q-35 -166 -14 -272.5t92 -154.5t187 -48q365 0 466 475zM1322 1932q-2 -8 -12 -16l-286 -258q-23 -20 -31 -25.5t-23 -5.5h-111q-18 0 -15 14q3 13 12 21l255 254q21 20 30 25t26 5h135q23 0 20 -14z" />
    <glyph glyph-name="Ocircumflex" unicode="&#xd4;" horiz-adv-x="1305" 
d="M1340 629q-36 -167 -102 -289.5t-156.5 -201t-200 -115.5t-231.5 -37q-121 0 -214.5 37t-152 115.5t-72.5 202.5t21 288l56 264q35 165 102.5 288.5t159 202.5t199.5 115.5t231 36.5t215.5 -37t150 -115.5t72 -200.5t-21.5 -290zM1152 629l56 264q27 125 21 218
t-40.5 148t-95.5 82t-149 27q-366 0 -467 -475l-56 -264q-35 -166 -14 -272.5t92 -154.5t187 -48q365 0 466 475zM1342 1643q-3 -14 -22 -14h-106q-15 0 -20.5 5.5t-19.5 25.5l-126 198l-212 -198q-21 -19 -30.5 -25t-23.5 -6h-107q-18 0 -15 14q3 13 13 21l251 254
q20 20 29 25t26 5h174q26 0 45 -30l141 -254q6 -8 3 -21z" />
    <glyph glyph-name="Otilde" unicode="&#xd5;" horiz-adv-x="1305" 
d="M1340 629q-36 -167 -102 -289.5t-156.5 -201t-200 -115.5t-231.5 -37q-121 0 -214.5 37t-152 115.5t-72.5 202.5t21 288l56 264q35 165 102.5 288.5t159 202.5t199.5 115.5t231 36.5t215.5 -37t150 -115.5t72 -200.5t-21.5 -290zM1152 629l56 264q27 125 21 218
t-40.5 148t-95.5 82t-149 27q-366 0 -467 -475l-56 -264q-35 -166 -14 -272.5t92 -154.5t187 -48q365 0 466 475zM1411 1831q-23 -108 -80 -161.5t-158 -53.5q-76 0 -122 43l-104 100q-28 29 -41.5 37t-32.5 8q-35 0 -54 -23t-29 -71l-10 -43q-3 -15 -15 -25t-27 -10h-64
q-14 0 -21 10.5t-5 24.5l10 43q23 109 86.5 166t155.5 57q60 0 113 -49l120 -114q17 -14 34.5 -21.5t31.5 -7.5q32 0 51 20t29 70l10 47q3 14 16 24.5t27 10.5h64q13 0 20.5 -11t4.5 -24z" />
    <glyph glyph-name="Ugrave" unicode="&#xd9;" horiz-adv-x="1294" 
d="M1289 553q-31 -145 -88 -252t-140.5 -177.5t-187 -104t-229.5 -33.5t-214 33.5t-141 104t-66 177.5t18 252l197 930q4 16 18 27.5t30 11.5h110q16 0 25 -10.5t5 -28.5l-197 -930q-44 -206 10.5 -307t238.5 -101q124 0 208.5 46t135 135.5t79.5 226.5l197 930
q4 16 18 27.5t30 11.5h111q16 0 24.5 -11t4.5 -28zM1115 1641q-3 -14 -21 -14h-111q-10 0 -16.5 3t-11 9t-12.5 19l-176 258q-7 8 -5 16q3 14 25 14h135q26 0 45 -30l145 -254q6 -8 3 -21z" />
    <glyph glyph-name="Uacute" unicode="&#xda;" horiz-adv-x="1294" 
d="M1289 553q-31 -145 -88 -252t-140.5 -177.5t-187 -104t-229.5 -33.5t-214 33.5t-141 104t-66 177.5t18 252l197 930q4 16 18 27.5t30 11.5h110q16 0 25 -10.5t5 -28.5l-197 -930q-44 -206 10.5 -307t238.5 -101q124 0 208.5 46t135 135.5t79.5 226.5l197 930
q4 16 18 27.5t30 11.5h111q16 0 24.5 -11t4.5 -28zM1361 1932q-2 -8 -11 -16l-287 -258q-23 -20 -31 -25.5t-23 -5.5h-111q-18 0 -15 14q3 13 13 21l255 254q20 20 29 25t26 5h135q23 0 20 -14z" />
    <glyph glyph-name="Yacute" unicode="&#xdd;" horiz-adv-x="1167" 
d="M1427 1493q-2 -9 -11 -23l-469 -712q-70 -108 -139 -135l-124 -582q-3 -17 -16.5 -29t-28.5 -12h-113q-15 0 -23.5 12t-5.5 29l124 582q-55 23 -81 135l-165 712q-3 14 -1 23q2 12 13.5 20.5t27.5 8.5h125q10 0 19.5 -9.5t11.5 -19.5l142 -664q12 -53 36 -53q23 0 58 53
l425 664q21 29 41 29h125q16 0 24 -8t5 -21zM1320 1932q-1 -8 -11 -16l-287 -258q-22 -20 -30.5 -25.5t-23.5 -5.5h-111q-18 0 -15 14q3 13 13 21l255 254q20 20 29 25t26 5h135q23 0 20 -14z" />
    <glyph glyph-name="agrave" unicode="&#xe0;" horiz-adv-x="1018" 
d="M921 78q-8 -38 -40 -45q-85 -23 -169 -35t-187 -12q-239 0 -326.5 80.5t-49.5 257.5l3 18q25 115 89 188t180 108.5t295 35.5h152l17 82q28 128 -10.5 177.5t-159.5 49.5q-93 0 -162.5 -12.5t-161.5 -38.5q-23 -7 -34.5 1t-8.5 25l17 80q6 25 37 37q52 21 149 43.5
t197 22.5q399 0 317 -385zM756 145l84 398h-152q-97 0 -157 -10.5t-99.5 -34.5t-62 -60.5t-34.5 -93.5l-4 -18q-15 -72 -2 -115.5t67.5 -63.5t158.5 -20q41 0 79.5 2.5t70 6.5t51.5 9zM919 1290q-3 -14 -21 -14h-111q-10 0 -16.5 3t-11 9t-12.5 19l-177 258q-6 8 -4 16
q3 14 25 14h135q26 0 44 -30l145 -254q7 -8 4 -21z" />
    <glyph glyph-name="aacute" unicode="&#xe1;" horiz-adv-x="1018" 
d="M921 78q-8 -38 -40 -45q-85 -23 -169 -35t-187 -12q-239 0 -326.5 80.5t-49.5 257.5l3 18q25 115 89 188t180 108.5t295 35.5h152l17 82q28 128 -10.5 177.5t-159.5 49.5q-93 0 -162.5 -12.5t-161.5 -38.5q-23 -7 -34.5 1t-8.5 25l17 80q6 25 37 37q52 21 149 43.5
t197 22.5q399 0 317 -385zM756 145l84 398h-152q-97 0 -157 -10.5t-99.5 -34.5t-62 -60.5t-34.5 -93.5l-4 -18q-15 -72 -2 -115.5t67.5 -63.5t158.5 -20q41 0 79.5 2.5t70 6.5t51.5 9zM1161 1581q-2 -8 -12 -16l-286 -258q-23 -20 -31 -25.5t-23 -5.5h-111q-18 0 -15 14
q3 13 12 21l255 254q21 20 30 25t26 5h135q23 0 20 -14z" />
    <glyph glyph-name="acircumflex" unicode="&#xe2;" horiz-adv-x="1018" 
d="M921 78q-8 -38 -40 -45q-85 -23 -169 -35t-187 -12q-239 0 -326.5 80.5t-49.5 257.5l3 18q25 115 89 188t180 108.5t295 35.5h152l17 82q28 128 -10.5 177.5t-159.5 49.5q-93 0 -162.5 -12.5t-161.5 -38.5q-23 -7 -34.5 1t-8.5 25l17 80q6 25 37 37q52 21 149 43.5
t197 22.5q399 0 317 -385zM756 145l84 398h-152q-97 0 -157 -10.5t-99.5 -34.5t-62 -60.5t-34.5 -93.5l-4 -18q-15 -72 -2 -115.5t67.5 -63.5t158.5 -20q41 0 79.5 2.5t70 6.5t51.5 9zM1126 1290q-3 -14 -22 -14h-106q-15 0 -21 5.5t-19 25.5l-126 198l-212 -198
q-21 -19 -30.5 -25t-23.5 -6h-107q-18 0 -15 14q3 13 12 21l251 254q21 20 30 25t26 5h174q26 0 44 -30l141 -254q7 -8 4 -21z" />
    <glyph glyph-name="atilde" unicode="&#xe3;" horiz-adv-x="1018" 
d="M921 78q-8 -38 -40 -45q-85 -23 -169 -35t-187 -12q-239 0 -326.5 80.5t-49.5 257.5l3 18q25 115 89 188t180 108.5t295 35.5h152l17 82q28 128 -10.5 177.5t-159.5 49.5q-93 0 -162.5 -12.5t-161.5 -38.5q-23 -7 -34.5 1t-8.5 25l17 80q6 25 37 37q52 21 149 43.5
t197 22.5q399 0 317 -385zM756 145l84 398h-152q-97 0 -157 -10.5t-99.5 -34.5t-62 -60.5t-34.5 -93.5l-4 -18q-15 -72 -2 -115.5t67.5 -63.5t158.5 -20q41 0 79.5 2.5t70 6.5t51.5 9zM1213 1497q-23 -108 -80.5 -161.5t-158.5 -53.5q-76 0 -122 43l-103 100q-28 29 -42 37
t-33 8q-35 0 -54 -23t-29 -71l-9 -43q-3 -15 -15 -25t-27 -10h-64q-14 0 -21.5 10.5t-4.5 24.5l9 43q23 109 87 166t156 57q60 0 112 -49l121 -114q17 -14 34.5 -21.5t31.5 -7.5q32 0 50.5 20t29.5 70l10 47q3 14 15.5 24.5t26.5 10.5h64q13 0 21 -11t5 -24z" />
    <glyph glyph-name="egrave" unicode="&#xe8;" horiz-adv-x="1073" 
d="M577 143q68 0 136.5 13t135.5 34.5t108 36.5q24 10 35 1.5t7 -27.5l-18 -84q-5 -21 -36 -37q-198 -94 -401 -94q-128 0 -223 45.5t-135.5 155t-2.5 290.5l40 185q47 222 194 350.5t363 128.5q145 0 234 -58.5t116.5 -167.5t-2.5 -253l-24 -111q-9 -45 -48 -45h-686
l-7 -29q-37 -178 15.5 -256t198.5 -78zM942 643l4 19q24 113 9.5 185t-66.5 104t-143 32q-275 0 -343 -321l-4 -19h543zM987 1290q-3 -14 -21 -14h-111q-10 0 -16 3t-11 9t-13 19l-176 258q-7 8 -5 16q3 14 25 14h135q26 0 45 -30l145 -254q6 -8 3 -21z" />
    <glyph glyph-name="eacute" unicode="&#xe9;" horiz-adv-x="1073" 
d="M577 143q68 0 136.5 13t135.5 34.5t108 36.5q24 10 35 1.5t7 -27.5l-18 -84q-5 -21 -36 -37q-198 -94 -401 -94q-128 0 -223 45.5t-135.5 155t-2.5 290.5l40 185q47 222 194 350.5t363 128.5q145 0 234 -58.5t116.5 -167.5t-2.5 -253l-24 -111q-9 -45 -48 -45h-686
l-7 -29q-37 -178 15.5 -256t198.5 -78zM942 643l4 19q24 113 9.5 185t-66.5 104t-143 32q-275 0 -343 -321l-4 -19h543zM1204 1581q-2 -8 -11 -16l-287 -258q-22 -20 -30.5 -25.5t-23.5 -5.5h-111q-18 0 -15 14q3 13 13 21l255 254q20 20 29 25t26 5h135q23 0 20 -14z" />
    <glyph glyph-name="ecircumflex" unicode="&#xea;" horiz-adv-x="1073" 
d="M577 143q68 0 136.5 13t135.5 34.5t108 36.5q24 10 35 1.5t7 -27.5l-18 -84q-5 -21 -36 -37q-198 -94 -401 -94q-128 0 -223 45.5t-135.5 155t-2.5 290.5l40 185q47 222 194 350.5t363 128.5q145 0 234 -58.5t116.5 -167.5t-2.5 -253l-24 -111q-9 -45 -48 -45h-686
l-7 -29q-37 -178 15.5 -256t198.5 -78zM942 643l4 19q24 113 9.5 185t-66.5 104t-143 32q-275 0 -343 -321l-4 -19h543zM1147 1260q-3 -14 -22 -14h-106q-15 0 -21 5.5t-19 25.5l-126 198l-212 -198q-22 -19 -31 -25t-23 -6h-107q-18 0 -15 14q3 13 12 21l251 254
q21 20 30 25t26 5h174q26 0 44 -30l141 -254q7 -8 4 -21z" />
    <glyph glyph-name="igrave" unicode="&#xec;" horiz-adv-x="444" 
d="M320 41q-4 -18 -18.5 -29.5t-31.5 -11.5h-98q-15 0 -25.5 12t-6.5 29l222 1044q3 17 17.5 29t31.5 12h98q19 0 28 -11t5 -30zM624 1290q-3 -14 -21 -14h-111q-10 0 -16.5 3t-11 9t-12.5 19l-176 258q-7 8 -5 16q3 14 25 14h135q26 0 45 -30l145 -254q6 -8 3 -21z" />
    <glyph glyph-name="iacute" unicode="&#xed;" horiz-adv-x="444" 
d="M320 41q-4 -18 -18.5 -29.5t-31.5 -11.5h-98q-15 0 -25.5 12t-6.5 29l222 1044q3 17 17.5 29t31.5 12h98q19 0 28 -11t5 -30zM862 1581q-2 -8 -11 -16l-287 -258q-23 -20 -31 -25.5t-23 -5.5h-111q-18 0 -15 14q3 13 13 21l255 254q20 20 29 25t26 5h135q23 0 20 -14z
" />
    <glyph glyph-name="ograve" unicode="&#xf2;" 
d="M1096 485q-49 -230 -195 -364.5t-367 -134.5q-220 0 -309 134.5t-40 364.5l33 156q49 231 195 365.5t366 134.5q221 0 310 -134.5t40 -365.5zM916 485l33 156q23 107 9.5 183.5t-66 117.5t-146.5 41q-139 0 -226 -89.5t-122 -252.5l-33 -156q-73 -342 202 -342
q139 0 226.5 89t122.5 253zM929 1290q-3 -14 -21 -14h-111q-10 0 -16.5 3t-11 9t-12.5 19l-177 258q-6 8 -4 16q3 14 25 14h135q26 0 44 -30l145 -254q7 -8 4 -21z" />
    <glyph glyph-name="oacute" unicode="&#xf3;" 
d="M1096 485q-49 -230 -195 -364.5t-367 -134.5q-220 0 -309 134.5t-40 364.5l33 156q49 231 195 365.5t366 134.5q221 0 310 -134.5t40 -365.5zM916 485l33 156q23 107 9.5 183.5t-66 117.5t-146.5 41q-139 0 -226 -89.5t-122 -252.5l-33 -156q-73 -342 202 -342
q139 0 226.5 89t122.5 253zM1188 1581q-2 -8 -12 -16l-286 -258q-23 -20 -31 -25.5t-23 -5.5h-111q-18 0 -15 14q3 13 12 21l255 254q21 20 30 25t26 5h135q23 0 20 -14z" />
    <glyph glyph-name="ocircumflex" unicode="&#xf4;" 
d="M1096 485q-49 -230 -195 -364.5t-367 -134.5q-220 0 -309 134.5t-40 364.5l33 156q49 231 195 365.5t366 134.5q221 0 310 -134.5t40 -365.5zM916 485l33 156q23 107 9.5 183.5t-66 117.5t-146.5 41q-139 0 -226 -89.5t-122 -252.5l-33 -156q-73 -342 202 -342
q139 0 226.5 89t122.5 253zM1155 1290q-3 -14 -22 -14h-106q-15 0 -21 5.5t-19 25.5l-126 198l-212 -198q-21 -19 -30.5 -25t-23.5 -6h-107q-18 0 -15 14q3 13 12 21l251 254q21 20 30 25t26 5h174q26 0 44 -30l141 -254q7 -8 4 -21z" />
    <glyph glyph-name="otilde" unicode="&#xf5;" 
d="M1096 485q-49 -230 -195 -364.5t-367 -134.5q-220 0 -309 134.5t-40 364.5l33 156q49 231 195 365.5t366 134.5q221 0 310 -134.5t40 -365.5zM916 485l33 156q23 107 9.5 183.5t-66 117.5t-146.5 41q-139 0 -226 -89.5t-122 -252.5l-33 -156q-73 -342 202 -342
q139 0 226.5 89t122.5 253zM1231 1497q-23 -108 -80.5 -161.5t-158.5 -53.5q-76 0 -122 43l-103 100q-28 29 -42 37t-33 8q-35 0 -54 -23t-29 -71l-9 -43q-3 -15 -15 -25t-27 -10h-64q-14 0 -21.5 10.5t-4.5 24.5l9 43q23 109 87 166t156 57q60 0 112 -49l121 -114
q17 -14 34.5 -21.5t31.5 -7.5q32 0 50.5 20t29.5 70l10 47q3 14 15.5 24.5t26.5 10.5h64q13 0 21 -11t5 -24z" />
    <glyph glyph-name="divide" unicode="&#xf7;" horiz-adv-x="1706" 
 />
    <glyph glyph-name="glyph218" unicode="&#xf9;" horiz-adv-x="1087" 
d="M201 414l143 671q3 17 17 29t32 12h98q17 0 26.5 -12t6.5 -29l-143 -671q-32 -151 10.5 -213t168.5 -62q47 0 129 11t143 26l194 909q3 16 17 28.5t32 12.5h100q17 0 25.5 -12t5.5 -29l-210 -987q-8 -38 -48 -49q-259 -63 -437 -63q-151 0 -229.5 50t-94.5 143.5
t14 234.5zM936 1290q-3 -14 -21 -14h-111q-10 0 -16.5 3t-11 9t-12.5 19l-176 258q-7 8 -5 16q3 14 25 14h135q26 0 45 -30l145 -254q6 -8 3 -21z" />
    <glyph glyph-name="glyph219" unicode="&#xfa;" horiz-adv-x="1087" 
d="M201 414l143 671q3 17 17 29t32 12h98q17 0 26.5 -12t6.5 -29l-143 -671q-32 -151 10.5 -213t168.5 -62q47 0 129 11t143 26l194 909q3 16 17 28.5t32 12.5h100q17 0 25.5 -12t5.5 -29l-210 -987q-8 -38 -48 -49q-259 -63 -437 -63q-151 0 -229.5 50t-94.5 143.5
t14 234.5zM1198 1581q-2 -8 -11 -16l-287 -258q-22 -20 -30.5 -25.5t-23.5 -5.5h-111q-18 0 -15 14q3 13 13 21l255 254q20 20 29 25t26 5h135q23 0 20 -14z" />
    <glyph glyph-name="glyph236" unicode="&#xfd;" horiz-adv-x="1065" 
d="M1231 1092q-2 -11 -5 -15l-589 -1179q-57 -117 -113 -181t-132 -93.5t-193 -29.5q-90 0 -168 19q-41 10 -36 33l16 75q7 33 46 33h6q132 -12 179 -12q91 0 142 35.5t98 138.5l38 84h-28q-55 0 -84.5 26t-37.5 115l-73 936q-1 4 1 15q7 34 43 34h113q12 0 20 -10t9 -22
l53 -889q1 -45 28 -45h33l449 936q6 13 18.5 21.5t26.5 8.5h115q32 0 25 -34zM1198 1581q-2 -8 -11 -16l-287 -258q-22 -20 -30.5 -25.5t-23.5 -5.5h-111q-18 0 -15 14q3 13 13 21l255 254q20 20 29 25t26 5h135q23 0 20 -14z" />
    <glyph glyph-name="Abreve" unicode="&#x102;" horiz-adv-x="1276" 
d="M1234 33q-7 -33 -42 -33h-121q-28 0 -28 31l-33 471h-530l-231 -471q-6 -13 -20 -22t-24 -9h-121q-14 0 -22.5 9.5t-5.5 23.5q2 10 5 14l662 1333q44 87 109 121.5t133 34.5q44 0 81.5 -13.5t63 -48t30.5 -92.5l95 -1335q1 -4 -1 -14zM1005 664l-43 673q-2 37 -31 37
q-31 0 -49 -37l-329 -673h452zM1340 1862l-2 -8q-25 -87 -84.5 -149t-136 -93t-152.5 -31q-77 0 -141 31t-96.5 92t-20.5 150l2 8q5 24 26 24h72q26 0 22 -30q-7 -74 40.5 -114.5t121.5 -40.5q73 0 138 41t87 114q10 30 35 30h72q22 0 17 -24z" />
    <glyph glyph-name="abreve" unicode="&#x103;" horiz-adv-x="1018" 
d="M921 78q-8 -38 -40 -45q-85 -23 -169 -35t-187 -12q-239 0 -326.5 80.5t-49.5 257.5l3 18q25 115 89 188t180 108.5t295 35.5h152l17 82q28 128 -10.5 177.5t-159.5 49.5q-93 0 -162.5 -12.5t-161.5 -38.5q-23 -7 -34.5 1t-8.5 25l17 80q6 25 37 37q52 21 149 43.5
t197 22.5q399 0 317 -385zM756 145l84 398h-152q-97 0 -157 -10.5t-99.5 -34.5t-62 -60.5t-34.5 -93.5l-4 -18q-15 -72 -2 -115.5t67.5 -63.5t158.5 -20q41 0 79.5 2.5t70 6.5t51.5 9zM1199 1539l-2 -8q-26 -92 -89 -157.5t-144 -98.5t-162 -33t-148.5 33t-102.5 97.5
t-22 158.5l2 8q5 26 27 26h76q28 0 25 -32q-8 -78 42 -121t128 -43t146.5 43.5t93.5 120.5q9 32 36 32h76q23 0 18 -26z" />
    <glyph glyph-name="Ccaron" unicode="&#x10c;" horiz-adv-x="1274" 
 />
    <glyph glyph-name="ccaron" unicode="&#x10d;" horiz-adv-x="922" 
 />
    <glyph glyph-name="Dslash" unicode="&#x110;" horiz-adv-x="1282" 
d="M1321 623q-68 -321 -266 -479t-491 -158q-78 0 -159.5 3.5t-124 7t-83.5 9.5q-42 6 -32 51l139 654h-78q-17 0 -26.5 12t-6.5 29l17 77q3 17 17 29t32 12h78l127 594q9 44 54 52q44 6 87.5 9.5t127 7t161.5 3.5q195 0 318.5 -68t168 -211.5t-0.5 -357.5zM1134 623l59 276
q37 176 5 282.5t-119.5 150.5t-218.5 44q-125 0 -228 -6l-107 -500h211q17 0 26.5 -12t6.5 -29l-17 -77q-3 -17 -18.5 -29t-30.5 -12h-211l-120 -561q65 -5 226 -5q204 0 342.5 109t193.5 369z" />
    <glyph glyph-name="dcroat" unicode="&#x111;" horiz-adv-x="1108" 
d="M1192 1276l-211 -1208q-3 -20 -13 -31.5t-38 -16.5q-99 -18 -194 -26t-189 -8t-163.5 27.5t-115.5 77t-69 118.5t-23 153q0 61 12 130l27 147q24 132 68.5 227t111 156t155 90t200.5 29q24 0 53 -1t60 -3.5t62 -6.5t60 -10l27 156h-346q-16 0 -24.5 9.5t-8.5 25.5v6
l12 67q3 17 17.5 29t31.5 12h344l15 76q3 16 16.5 27.5t30.5 11.5h104q29 0 29 -31v-8l-14 -76h96q15 0 24 -9.5t9 -24.5v-7l-13 -67q-3 -17 -17.5 -29t-31.5 -12h-94zM958 969q-24 4 -55 7t-62.5 4.5t-62.5 2t-55 0.5q-75 0 -130.5 -26t-95 -71.5t-64 -108.5t-38.5 -138
l-26 -147q-7 -38 -11 -71.5t-4 -62.5q0 -105 50.5 -160t168.5 -55q26 0 57 1t63 3t63.5 4.5t58.5 4.5z" />
    <glyph glyph-name="Itilde" unicode="&#x128;" horiz-adv-x="477" 
d="M341 41q-4 -16 -17 -28.5t-29 -12.5h-113q-14 0 -23 11.5t-5 29.5l306 1442q4 15 17.5 27t28.5 12h113q15 0 23.5 -11t4.5 -28zM996 1831q-23 -108 -80 -161.5t-158 -53.5q-76 0 -122 43l-104 100q-28 29 -41.5 37t-32.5 8q-35 0 -54 -23t-29 -71l-10 -43q-3 -15 -15 -25
t-27 -10h-64q-14 0 -21.5 10.5t-4.5 24.5l10 43q23 109 86.5 166t155.5 57q60 0 113 -49l120 -114q17 -14 34.5 -21.5t31.5 -7.5q32 0 51 20t29 70l10 47q3 14 16 24.5t27 10.5h64q13 0 20.5 -11t4.5 -24z" />
    <glyph glyph-name="itilde" unicode="&#x129;" horiz-adv-x="444" 
d="M320 41q-4 -18 -18.5 -29.5t-31.5 -11.5h-98q-15 0 -25.5 12t-6.5 29l222 1044q3 17 17.5 29t31.5 12h98q19 0 28 -11t5 -30zM938 1477q-23 -108 -80.5 -161.5t-158.5 -53.5q-76 0 -122 43l-103 100q-28 29 -42 37t-33 8q-35 0 -54 -23t-29 -71l-9 -43q-3 -15 -15 -25
t-27 -10h-64q-14 0 -21.5 10.5t-4.5 24.5l9 43q23 109 87 166t156 57q60 0 112 -49l121 -114q17 -14 34.5 -21.5t31.5 -7.5q32 0 50.5 20t29.5 70l10 47q3 14 15.5 24.5t26.5 10.5h64q13 0 21 -11t5 -24z" />
    <glyph glyph-name="Utilde" unicode="&#x168;" horiz-adv-x="1294" 
d="M1289 553q-31 -145 -88 -252t-140.5 -177.5t-187 -104t-229.5 -33.5t-214 33.5t-141 104t-66 177.5t18 252l197 930q4 16 18 27.5t30 11.5h110q16 0 25 -10.5t5 -28.5l-197 -930q-44 -206 10.5 -307t238.5 -101q124 0 208.5 46t135 135.5t79.5 226.5l197 930
q4 16 18 27.5t30 11.5h111q16 0 24.5 -11t4.5 -28zM1411 1831q-22 -108 -79.5 -161.5t-158.5 -53.5q-76 0 -122 43l-104 100q-28 29 -41.5 37t-32.5 8q-35 0 -54 -23t-29 -71l-9 -43q-4 -15 -16 -25t-27 -10h-64q-14 0 -21 10.5t-4 24.5l9 43q23 109 86.5 166t155.5 57
q60 0 113 -49l121 -114q17 -14 34 -21.5t31 -7.5q32 0 51 20t29 70l10 47q3 14 16 24.5t27 10.5h64q13 0 20.5 -11t4.5 -24z" />
    <glyph glyph-name="utilde" unicode="&#x169;" horiz-adv-x="1087" 
d="M201 414l143 671q3 17 17 29t32 12h98q17 0 26.5 -12t6.5 -29l-143 -671q-32 -151 10.5 -213t168.5 -62q47 0 129 11t143 26l194 909q3 16 17 28.5t32 12.5h100q17 0 25.5 -12t5.5 -29l-210 -987q-8 -38 -48 -49q-259 -63 -437 -63q-151 0 -229.5 50t-94.5 143.5
t14 234.5zM1231 1497q-23 -108 -80.5 -161.5t-158.5 -53.5q-76 0 -121 43l-104 100q-28 29 -42 37t-33 8q-35 0 -53.5 -23t-29.5 -71l-9 -43q-3 -15 -15 -25t-27 -10h-64q-14 0 -21.5 10.5t-4.5 24.5l9 43q24 109 87.5 166t155.5 57q60 0 112 -49l121 -114
q17 -14 34.5 -21.5t31.5 -7.5q32 0 51 20t29 70l10 47q3 14 16 24.5t27 10.5h64q13 0 20.5 -11t4.5 -24z" />
    <glyph glyph-name="Ohorn" unicode="&#x1a0;" horiz-adv-x="1305" 
d="M1340 629q-36 -167 -102 -289.5t-156.5 -201t-200 -115.5t-231.5 -37q-121 0 -214.5 37t-152 115.5t-72.5 202.5t21 288l56 264q35 165 102.5 288.5t159 202.5t199.5 115.5t231 36.5t215.5 -37t150 -115.5t72 -200.5t-21.5 -290zM1152 629l56 264q27 125 21 218
t-40.5 148t-95.5 82t-149 27q-366 0 -467 -475l-56 -264q-35 -166 -14 -272.5t92 -154.5t187 -48q365 0 466 475zM1634 1510q-41 -344 -330 -380l18 140q122 46 144 130l22 106q4 22 39 24h83q23 0 24 -20z" />
    <glyph glyph-name="ohorn" unicode="&#x1a1;" 
d="M1096 485q-49 -230 -195 -364.5t-367 -134.5q-220 0 -309 134.5t-40 364.5l33 156q49 231 195 365.5t366 134.5q221 0 310 -134.5t40 -365.5zM916 485l33 156q23 107 9.5 183.5t-66 117.5t-146.5 41q-139 0 -226 -89.5t-122 -252.5l-33 -156q-73 -342 202 -342
q139 0 226.5 89t122.5 253zM1342 1105q-41 -344 -330 -380l18 140q121 46 143 130l23 106q3 22 39 24h83q23 0 24 -20z" />
    <glyph glyph-name="Uhorn" unicode="&#x1af;" horiz-adv-x="1294" 
d="M1290 557q-31 -145 -88 -252t-140.5 -177.5t-187 -104t-229.5 -33.5t-214 33.5t-141 104t-66 177.5t18 252l197 930q4 16 18 27.5t30 11.5h110q16 0 25 -10.5t5 -28.5l-197 -930q-44 -206 10.5 -307t238.5 -101q124 0 208.5 46t135 135.5t79.5 226.5l197 930
q4 16 18 27.5t30 11.5h111q16 0 24.5 -11t4.5 -28zM1688 1510q-41 -344 -329 -380l17 140q122 46 144 130l23 106q3 22 39 24h83q23 0 23 -20z" />
    <glyph glyph-name="uhorn" unicode="&#x1b0;" horiz-adv-x="1087" 
d="M201 414l143 671q3 17 17 29t32 12h98q17 0 26.5 -12t6.5 -29l-143 -671q-32 -151 10.5 -213t168.5 -62q47 0 129 11t143 26l194 909q3 16 17 28.5t32 12.5h100q17 0 25.5 -12t5.5 -29l-210 -987q-8 -38 -48 -49q-259 -63 -437 -63q-151 0 -229.5 50t-94.5 143.5
t14 234.5zM1391 1105q-41 -344 -330 -380l18 140q122 46 143 130l23 106q4 22 39 24h83q23 0 24 -20z" />
    <glyph glyph-name="uni1EA0" unicode="&#x1ea0;" horiz-adv-x="1276" 
d="M1234 33q-7 -33 -42 -33h-121q-28 0 -28 31l-33 471h-530l-231 -471q-6 -13 -20 -22t-24 -9h-121q-14 0 -22.5 9.5t-5.5 23.5q2 10 5 14l662 1333q44 87 109 121.5t133 34.5q44 0 81.5 -13.5t63 -48t30.5 -92.5l95 -1335q1 -4 -1 -14zM1005 664l-43 673q-2 37 -31 37
q-31 0 -49 -37l-329 -673h452zM656 -294q-3 -17 -17.5 -28t-31.5 -11h-80q-15 0 -25.5 11t-7.5 28l36 166q3 15 18.5 28t30.5 13h80q17 0 26.5 -13t6.5 -28z" />
    <glyph glyph-name="uni1EA1" unicode="&#x1ea1;" horiz-adv-x="1018" 
d="M921 78q-8 -38 -40 -45q-85 -23 -169 -35t-187 -12q-239 0 -326.5 80.5t-49.5 257.5l3 18q25 115 89 188t180 108.5t295 35.5h152l17 82q28 128 -10.5 177.5t-159.5 49.5q-93 0 -162.5 -12.5t-161.5 -38.5q-23 -7 -34.5 1t-8.5 25l17 80q6 25 37 37q52 21 149 43.5
t197 22.5q399 0 317 -385zM756 145l84 398h-152q-97 0 -157 -10.5t-99.5 -34.5t-62 -60.5t-34.5 -93.5l-4 -18q-15 -72 -2 -115.5t67.5 -63.5t158.5 -20q41 0 79.5 2.5t70 6.5t51.5 9zM512 -294q-3 -17 -17.5 -28t-31.5 -11h-80q-15 0 -25.5 11t-7.5 28l36 166q3 15 18.5 28
t30.5 13h80q17 0 26.5 -13t6.5 -28z" />
    <glyph glyph-name="uni1EA2" unicode="&#x1ea2;" horiz-adv-x="1276" 
d="M1234 33q-7 -33 -42 -33h-121q-28 0 -28 31l-33 471h-530l-231 -471q-6 -13 -20 -22t-24 -9h-121q-14 0 -22.5 9.5t-5.5 23.5q2 10 5 14l662 1333q44 87 109 121.5t133 34.5q44 0 81.5 -13.5t63 -48t30.5 -92.5l95 -1335q1 -4 -1 -14zM1005 664l-43 673q-2 37 -31 37
q-31 0 -49 -37l-329 -673h452zM1027.5 1982.5q-32.5 -6.5 -81.5 -21.5q-61 -19 -51 30l9 41q3 14 14 22t22 12q29 12 78 23t98 11q90 0 137.5 -36t30.5 -114l-2 -10q-5 -23 -16.5 -45t-35 -48t-64.5 -64l-47 -43q-29 -27 -35 -33.5t-12 -17t-9 -25.5l-9 -42
q-3 -14 -18.5 -26t-36.5 -12h-37q-21 0 -31 12.5t-7 25.5l9 42q6 30 16 51.5t28 42.5t46 46l49 43q36 33 48.5 51.5t17.5 41.5l2 10q4 39 -38 39t-74.5 -6.5z" />
    <glyph glyph-name="uni1EA3" unicode="&#x1ea3;" horiz-adv-x="1018" 
d="M921 78q-8 -38 -40 -45q-85 -23 -169 -35t-187 -12q-239 0 -326.5 80.5t-49.5 257.5l3 18q25 115 89 188t180 108.5t295 35.5h152l17 82q28 128 -10.5 177.5t-159.5 49.5q-93 0 -162.5 -12.5t-161.5 -38.5q-23 -7 -34.5 1t-8.5 25l17 80q6 25 37 37q52 21 149 43.5
t197 22.5q399 0 317 -385zM756 145l84 398h-152q-97 0 -157 -10.5t-99.5 -34.5t-62 -60.5t-34.5 -93.5l-4 -18q-15 -72 -2 -115.5t67.5 -63.5t158.5 -20q41 0 79.5 2.5t70 6.5t51.5 9zM803.5 1641.5q-32.5 -6.5 -81.5 -21.5q-61 -19 -51 30l9 41q3 14 14.5 22t21.5 12
q29 12 78.5 23t98.5 11q90 0 137 -36t31 -114l-2 -10q-5 -23 -17 -45t-35.5 -48t-64.5 -64l-47 -43q-29 -27 -34.5 -33.5t-12 -17t-9.5 -25.5l-9 -42q-3 -14 -18.5 -26t-36.5 -12h-37q-21 0 -31 12.5t-7 25.5l9 42q6 30 16 51.5t28 42.5t47 46l48 43q36 33 49 51.5t18 41.5
l2 10q3 39 -39 39t-74.5 -6.5z" />
    <glyph glyph-name="uni1EA4" unicode="&#x1ea4;" horiz-adv-x="1276" 
d="M1234 33q-7 -33 -42 -33h-121q-28 0 -28 31l-33 471h-530l-231 -471q-6 -13 -20 -22t-24 -9h-121q-14 0 -22.5 9.5t-5.5 23.5q2 10 5 14l662 1333q44 87 109 121.5t133 34.5q44 0 81.5 -13.5t63 -48t30.5 -92.5l95 -1335q1 -4 -1 -14zM1005 664l-43 673q-2 37 -31 37
q-31 0 -49 -37l-329 -673h452zM1772 2163q-2 -8 -12 -16l-287 -258q-22 -20 -30 -25.5t-23 -5.5h-111q-18 0 -15 14q3 13 12 21l255 254q21 20 30 25t26 5h135q23 0 20 -14zM1338 1641q-3 -14 -22 -14h-106q-15 0 -21 5.5t-20 25.5l-126 198l-212 -198q-21 -19 -30 -25
t-23 -6h-107q-18 0 -15 14q3 13 12 21l251 254q20 20 29.5 25t26.5 5h174q26 0 44 -30l141 -254q7 -8 4 -21z" />
    <glyph glyph-name="uni1EA5" unicode="&#x1ea5;" horiz-adv-x="1018" 
d="M921 78q-8 -38 -40 -45q-85 -23 -169 -35t-187 -12q-239 0 -326.5 80.5t-49.5 257.5l3 18q25 115 89 188t180 108.5t295 35.5h152l17 82q28 128 -10.5 177.5t-159.5 49.5q-93 0 -162.5 -12.5t-161.5 -38.5q-23 -7 -34.5 1t-8.5 25l17 80q6 25 37 37q52 21 149 43.5
t197 22.5q399 0 317 -385zM756 145l84 398h-152q-97 0 -157 -10.5t-99.5 -34.5t-62 -60.5t-34.5 -93.5l-4 -18q-15 -72 -2 -115.5t67.5 -63.5t158.5 -20q41 0 79.5 2.5t70 6.5t51.5 9zM1541 1812q-2 -8 -11 -16l-287 -258q-23 -20 -31 -25.5t-23 -5.5h-111q-18 0 -15 14
q3 13 13 21l255 254q20 20 29 25t26 5h135q23 0 20 -14zM1126 1290q-3 -14 -22 -14h-106q-15 0 -21 5.5t-19 25.5l-126 198l-212 -198q-21 -19 -30.5 -25t-23.5 -6h-107q-18 0 -15 14q3 13 12 21l251 254q21 20 30 25t26 5h174q26 0 44 -30l141 -254q7 -8 4 -21z" />
    <glyph glyph-name="uni1EA6" unicode="&#x1ea6;" horiz-adv-x="1276" 
d="M1234 33q-7 -33 -42 -33h-121q-28 0 -28 31l-33 471h-530l-231 -471q-6 -13 -20 -22t-24 -9h-121q-14 0 -22.5 9.5t-5.5 23.5q2 10 5 14l662 1333q44 87 109 121.5t133 34.5q44 0 81.5 -13.5t63 -48t30.5 -92.5l95 -1335q1 -4 -1 -14zM1005 664l-43 673q-2 37 -31 37
q-31 0 -49 -37l-329 -673h452zM1427 1872q-3 -14 -21 -14h-111q-10 0 -16.5 3t-11 9t-13.5 19l-176 258q-6 8 -4 16q3 14 25 14h135q26 0 44 -30l145 -254q7 -8 4 -21zM1338 1641q-3 -14 -22 -14h-106q-15 0 -21 5.5t-20 25.5l-126 198l-212 -198q-21 -19 -30 -25t-23 -6
h-107q-18 0 -15 14q3 13 12 21l251 254q20 20 29.5 25t26.5 5h174q26 0 44 -30l141 -254q7 -8 4 -21z" />
    <glyph glyph-name="uni1EA7" unicode="&#x1ea7;" horiz-adv-x="1018" 
d="M921 78q-8 -38 -40 -45q-85 -23 -169 -35t-187 -12q-239 0 -326.5 80.5t-49.5 257.5l3 18q25 115 89 188t180 108.5t295 35.5h152l17 82q28 128 -10.5 177.5t-159.5 49.5q-93 0 -162.5 -12.5t-161.5 -38.5q-23 -7 -34.5 1t-8.5 25l17 80q6 25 37 37q52 21 149 43.5
t197 22.5q399 0 317 -385zM756 145l84 398h-152q-97 0 -157 -10.5t-99.5 -34.5t-62 -60.5t-34.5 -93.5l-4 -18q-15 -72 -2 -115.5t67.5 -63.5t158.5 -20q41 0 79.5 2.5t70 6.5t51.5 9zM1247 1511q-3 -14 -21 -14h-111q-10 0 -16.5 3t-11 9t-12.5 19l-177 258q-6 8 -4 16
q3 14 25 14h135q26 0 44 -30l145 -254q7 -8 4 -21zM1126 1290q-3 -14 -22 -14h-106q-15 0 -21 5.5t-19 25.5l-126 198l-212 -198q-21 -19 -30.5 -25t-23.5 -6h-107q-18 0 -15 14q3 13 12 21l251 254q21 20 30 25t26 5h174q26 0 44 -30l141 -254q7 -8 4 -21z" />
    <glyph glyph-name="uni1EA8" unicode="&#x1ea8;" horiz-adv-x="1276" 
d="M1234 33q-7 -33 -42 -33h-121q-28 0 -28 31l-33 471h-530l-231 -471q-6 -13 -20 -22t-24 -9h-121q-14 0 -22.5 9.5t-5.5 23.5q2 10 5 14l662 1333q44 87 109 121.5t133 34.5q44 0 81.5 -13.5t63 -48t30.5 -92.5l95 -1335q1 -4 -1 -14zM1005 664l-43 673q-2 37 -31 37
q-31 0 -49 -37l-329 -673h452zM1383.5 2243.5q-32.5 -6.5 -81.5 -21.5q-61 -19 -50 30l8 41q3 14 14.5 22t22.5 12q28 12 77.5 23t98.5 11q90 0 137.5 -36t30.5 -114l-2 -10q-5 -23 -16.5 -45t-35 -48t-65.5 -64l-47 -43q-28 -27 -34 -33.5t-12.5 -17t-9.5 -25.5l-9 -42
q-3 -14 -18.5 -26t-36.5 -12h-37q-21 0 -31 12.5t-7 25.5l9 42q7 30 17 51.5t28 42.5t46 46l48 43q36 33 49 51.5t18 41.5l2 10q3 39 -39 39t-74.5 -6.5zM1338 1641q-3 -14 -22 -14h-106q-15 0 -21 5.5t-20 25.5l-126 198l-212 -198q-21 -19 -30 -25t-23 -6h-107
q-18 0 -15 14q3 13 12 21l251 254q20 20 29.5 25t26.5 5h174q26 0 44 -30l141 -254q7 -8 4 -21z" />
    <glyph glyph-name="uni1EA9" unicode="&#x1ea9;" horiz-adv-x="1018" 
d="M921 78q-8 -38 -40 -45q-85 -23 -169 -35t-187 -12q-239 0 -326.5 80.5t-49.5 257.5l3 18q25 115 89 188t180 108.5t295 35.5h152l17 82q28 128 -10.5 177.5t-159.5 49.5q-93 0 -162.5 -12.5t-161.5 -38.5q-23 -7 -34.5 1t-8.5 25l17 80q6 25 37 37q52 21 149 43.5
t197 22.5q399 0 317 -385zM756 145l84 398h-152q-97 0 -157 -10.5t-99.5 -34.5t-62 -60.5t-34.5 -93.5l-4 -18q-15 -72 -2 -115.5t67.5 -63.5t158.5 -20q41 0 79.5 2.5t70 6.5t51.5 9zM1153.5 1912.5q-32.5 -6.5 -81.5 -21.5q-61 -19 -51 30l9 41q3 14 14 22t22 12
q29 12 78 23t98 11q90 0 137.5 -36t30.5 -114l-2 -10q-5 -23 -16.5 -45t-35 -48t-64.5 -64l-47 -43q-29 -27 -35 -33.5t-12 -17t-9 -25.5l-9 -42q-3 -14 -18.5 -26t-36.5 -12h-37q-21 0 -31 12.5t-7 25.5l9 42q6 30 16 51.5t28 42.5t46 46l48 43q36 33 49 51.5t18 41.5l2 10
q4 39 -38 39t-74.5 -6.5zM1126 1290q-3 -14 -22 -14h-106q-15 0 -21 5.5t-19 25.5l-126 198l-212 -198q-21 -19 -30.5 -25t-23.5 -6h-107q-18 0 -15 14q3 13 12 21l251 254q21 20 30 25t26 5h174q26 0 44 -30l141 -254q7 -8 4 -21z" />
    <glyph glyph-name="uni1EAA" unicode="&#x1eaa;" horiz-adv-x="1276" 
d="M1234 33q-7 -33 -42 -33h-121q-28 0 -28 31l-33 471h-530l-231 -471q-6 -13 -20 -22t-24 -9h-121q-14 0 -22.5 9.5t-5.5 23.5q2 10 5 14l662 1333q44 87 109 121.5t133 34.5q44 0 81.5 -13.5t63 -48t30.5 -92.5l95 -1335q1 -4 -1 -14zM1005 664l-43 673q-2 37 -31 37
q-31 0 -49 -37l-329 -673h452zM1580 2172q-23 -108 -80.5 -161.5t-158.5 -53.5q-76 0 -122 43l-104 100q-28 29 -41.5 37t-32.5 8q-35 0 -54 -23t-29 -71l-9 -43q-3 -15 -15.5 -25t-27.5 -10h-64q-14 0 -21 10.5t-4 24.5l9 43q23 109 86.5 166t155.5 57q60 0 113 -49
l121 -114q17 -14 34.5 -21.5t31.5 -7.5q32 0 50.5 20t29.5 70l10 47q3 14 15.5 24.5t26.5 10.5h64q13 0 20.5 -11t5.5 -24zM1338 1641q-3 -14 -22 -14h-106q-15 0 -21 5.5t-20 25.5l-126 198l-212 -198q-21 -19 -30 -25t-23 -6h-107q-18 0 -15 14q3 13 12 21l251 254
q20 20 29.5 25t26.5 5h174q26 0 44 -30l141 -254q7 -8 4 -21z" />
    <glyph glyph-name="uni1EAB" unicode="&#x1eab;" horiz-adv-x="1018" 
d="M921 78q-8 -38 -40 -45q-85 -23 -169 -35t-187 -12q-239 0 -326.5 80.5t-49.5 257.5l3 18q25 115 89 188t180 108.5t295 35.5h152l17 82q28 128 -10.5 177.5t-159.5 49.5q-93 0 -162.5 -12.5t-161.5 -38.5q-23 -7 -34.5 1t-8.5 25l17 80q6 25 37 37q52 21 149 43.5
t197 22.5q399 0 317 -385zM756 145l84 398h-152q-97 0 -157 -10.5t-99.5 -34.5t-62 -60.5t-34.5 -93.5l-4 -18q-15 -72 -2 -115.5t67.5 -63.5t158.5 -20q41 0 79.5 2.5t70 6.5t51.5 9zM1341 1818q-23 -108 -80.5 -161.5t-158.5 -53.5q-76 0 -121 43l-104 100q-28 29 -42 37
t-33 8q-35 0 -53.5 -23t-29.5 -71l-9 -43q-3 -15 -15 -25t-27 -10h-64q-14 0 -21.5 10.5t-4.5 24.5l9 43q24 109 87.5 166t155.5 57q60 0 112 -49l121 -114q17 -14 34.5 -21.5t31.5 -7.5q32 0 51 20t29 70l10 47q3 14 16 24.5t27 10.5h64q13 0 20.5 -11t4.5 -24zM1126 1290
q-3 -14 -22 -14h-106q-15 0 -21 5.5t-19 25.5l-126 198l-212 -198q-21 -19 -30.5 -25t-23.5 -6h-107q-18 0 -15 14q3 13 12 21l251 254q21 20 30 25t26 5h174q26 0 44 -30l141 -254q7 -8 4 -21z" />
    <glyph glyph-name="uni1EAC" unicode="&#x1eac;" horiz-adv-x="1276" 
d="M1234 33q-7 -33 -42 -33h-121q-28 0 -28 31l-33 471h-530l-231 -471q-6 -13 -20 -22t-24 -9h-121q-14 0 -22.5 9.5t-5.5 23.5q2 10 5 14l662 1333q44 87 109 121.5t133 34.5q44 0 81.5 -13.5t63 -48t30.5 -92.5l95 -1335q1 -4 -1 -14zM1005 664l-43 673q-2 37 -31 37
q-31 0 -49 -37l-329 -673h452zM656 -294q-3 -17 -17.5 -28t-31.5 -11h-80q-15 0 -25.5 11t-7.5 28l36 166q3 15 18.5 28t30.5 13h80q17 0 26.5 -13t6.5 -28zM1338 1641q-3 -14 -22 -14h-106q-15 0 -21 5.5t-20 25.5l-126 198l-212 -198q-21 -19 -30 -25t-23 -6h-107
q-18 0 -15 14q3 13 12 21l251 254q20 20 29.5 25t26.5 5h174q26 0 44 -30l141 -254q7 -8 4 -21z" />
    <glyph glyph-name="uni1EAD" unicode="&#x1ead;" horiz-adv-x="1018" 
d="M921 78q-8 -38 -40 -45q-85 -23 -169 -35t-187 -12q-239 0 -326.5 80.5t-49.5 257.5l3 18q25 115 89 188t180 108.5t295 35.5h152l17 82q28 128 -10.5 177.5t-159.5 49.5q-93 0 -162.5 -12.5t-161.5 -38.5q-23 -7 -34.5 1t-8.5 25l17 80q6 25 37 37q52 21 149 43.5
t197 22.5q399 0 317 -385zM756 145l84 398h-152q-97 0 -157 -10.5t-99.5 -34.5t-62 -60.5t-34.5 -93.5l-4 -18q-15 -72 -2 -115.5t67.5 -63.5t158.5 -20q41 0 79.5 2.5t70 6.5t51.5 9zM512 -294q-3 -17 -17.5 -28t-31.5 -11h-80q-15 0 -25.5 11t-7.5 28l36 166q3 15 18.5 28
t30.5 13h80q17 0 26.5 -13t6.5 -28zM1126 1290q-3 -14 -22 -14h-106q-15 0 -21 5.5t-19 25.5l-126 198l-212 -198q-21 -19 -30.5 -25t-23.5 -6h-107q-18 0 -15 14q3 13 12 21l251 254q21 20 30 25t26 5h174q26 0 44 -30l141 -254q7 -8 4 -21z" />
    <glyph glyph-name="uni1EAE" unicode="&#x1eae;" horiz-adv-x="1276" 
d="M1234 33q-7 -33 -42 -33h-121q-28 0 -28 31l-33 471h-530l-231 -471q-6 -13 -20 -22t-24 -9h-121q-14 0 -22.5 9.5t-5.5 23.5q2 10 5 14l662 1333q44 87 109 121.5t133 34.5q44 0 81.5 -13.5t63 -48t30.5 -92.5l95 -1335q1 -4 -1 -14zM1005 664l-43 673q-2 37 -31 37
q-31 0 -49 -37l-329 -673h452zM1421 2163q-2 -8 -12 -16l-287 -258q-22 -20 -30 -25.5t-23 -5.5h-111q-18 0 -15 14q3 13 12 21l255 254q21 20 30 25t26 5h135q23 0 20 -14zM1340 1862l-2 -8q-25 -87 -84.5 -149t-136 -93t-152.5 -31q-77 0 -141 31t-96.5 92t-20.5 150l2 8
q5 24 26 24h72q26 0 22 -30q-7 -74 40.5 -114.5t121.5 -40.5q73 0 138 41t87 114q10 30 35 30h72q22 0 17 -24z" />
    <glyph glyph-name="uni1EAF" unicode="&#x1eaf;" horiz-adv-x="1018" 
d="M921 78q-8 -38 -40 -45q-85 -23 -169 -35t-187 -12q-239 0 -326.5 80.5t-49.5 257.5l3 18q25 115 89 188t180 108.5t295 35.5h152l17 82q28 128 -10.5 177.5t-159.5 49.5q-93 0 -162.5 -12.5t-161.5 -38.5q-23 -7 -34.5 1t-8.5 25l17 80q6 25 37 37q52 21 149 43.5
t197 22.5q399 0 317 -385zM756 145l84 398h-152q-97 0 -157 -10.5t-99.5 -34.5t-62 -60.5t-34.5 -93.5l-4 -18q-15 -72 -2 -115.5t67.5 -63.5t158.5 -20q41 0 79.5 2.5t70 6.5t51.5 9zM1260 1812q-2 -8 -11 -16l-287 -258q-23 -20 -31 -25.5t-23 -5.5h-111q-18 0 -15 14
q3 13 13 21l255 254q20 20 29 25t26 5h135q23 0 20 -14zM1199 1539l-2 -8q-26 -92 -89 -157.5t-144 -98.5t-162 -33t-148.5 33t-102.5 97.5t-22 158.5l2 8q5 26 27 26h76q28 0 25 -32q-8 -78 42 -121t128 -43t146.5 43.5t93.5 120.5q9 32 36 32h76q23 0 18 -26z" />
    <glyph glyph-name="uni1EB0" unicode="&#x1eb0;" horiz-adv-x="1276" 
d="M1234 33q-7 -33 -42 -33h-121q-28 0 -28 31l-33 471h-530l-231 -471q-6 -13 -20 -22t-24 -9h-121q-14 0 -22.5 9.5t-5.5 23.5q2 10 5 14l662 1333q44 87 109 121.5t133 34.5q44 0 81.5 -13.5t63 -48t30.5 -92.5l95 -1335q1 -4 -1 -14zM1005 664l-43 673q-2 37 -31 37
q-31 0 -49 -37l-329 -673h452zM1136 1872q-3 -14 -21 -14h-111q-10 0 -16.5 3t-11 9t-13.5 19l-176 258q-6 8 -4 16q3 14 25 14h135q26 0 44 -30l145 -254q7 -8 4 -21zM1340 1862l-2 -8q-25 -87 -84.5 -149t-136 -93t-152.5 -31q-77 0 -141 31t-96.5 92t-20.5 150l2 8
q5 24 26 24h72q26 0 22 -30q-7 -74 40.5 -114.5t121.5 -40.5q73 0 138 41t87 114q10 30 35 30h72q22 0 17 -24z" />
    <glyph glyph-name="uni1EB1" unicode="&#x1eb1;" horiz-adv-x="1018" 
d="M921 78q-8 -38 -40 -45q-85 -23 -169 -35t-187 -12q-239 0 -326.5 80.5t-49.5 257.5l3 18q25 115 89 188t180 108.5t295 35.5h152l17 82q28 128 -10.5 177.5t-159.5 49.5q-93 0 -162.5 -12.5t-161.5 -38.5q-23 -7 -34.5 1t-8.5 25l17 80q6 25 37 37q52 21 149 43.5
t197 22.5q399 0 317 -385zM756 145l84 398h-152q-97 0 -157 -10.5t-99.5 -34.5t-62 -60.5t-34.5 -93.5l-4 -18q-15 -72 -2 -115.5t67.5 -63.5t158.5 -20q41 0 79.5 2.5t70 6.5t51.5 9zM976 1511q-3 -14 -21 -14h-111q-10 0 -16.5 3t-11 9t-12.5 19l-177 258q-6 8 -4 16
q3 14 25 14h135q26 0 44 -30l145 -254q7 -8 4 -21zM1199 1539l-2 -8q-26 -92 -89 -157.5t-144 -98.5t-162 -33t-148.5 33t-102.5 97.5t-22 158.5l2 8q5 26 27 26h76q28 0 25 -32q-8 -78 42 -121t128 -43t146.5 43.5t93.5 120.5q9 32 36 32h76q23 0 18 -26z" />
    <glyph glyph-name="uni1EB2" unicode="&#x1eb2;" horiz-adv-x="1276" 
d="M1234 33q-7 -33 -42 -33h-121q-28 0 -28 31l-33 471h-530l-231 -471q-6 -13 -20 -22t-24 -9h-121q-14 0 -22.5 9.5t-5.5 23.5q2 10 5 14l662 1333q44 87 109 121.5t133 34.5q44 0 81.5 -13.5t63 -48t30.5 -92.5l95 -1335q1 -4 -1 -14zM1005 664l-43 673q-2 37 -31 37
q-31 0 -49 -37l-329 -673h452zM1082.5 2243.5q-32.5 -6.5 -81.5 -21.5q-61 -19 -50 30l8 41q3 14 14.5 22t22.5 12q28 12 77.5 23t98.5 11q90 0 137.5 -36t30.5 -114l-2 -10q-5 -23 -16.5 -45t-35 -48t-65.5 -64l-47 -43q-28 -27 -34 -33.5t-12.5 -17t-9.5 -25.5l-9 -42
q-3 -14 -18.5 -26t-36.5 -12h-37q-21 0 -31 12.5t-7 25.5l9 42q7 30 17 51.5t28 42.5t46 46l48 43q36 33 49 51.5t18 41.5l2 10q3 39 -39 39t-74.5 -6.5zM1340 1862l-2 -8q-25 -87 -84.5 -149t-136 -93t-152.5 -31q-77 0 -141 31t-96.5 92t-20.5 150l2 8q5 24 26 24h72
q26 0 22 -30q-7 -74 40.5 -114.5t121.5 -40.5q73 0 138 41t87 114q10 30 35 30h72q22 0 17 -24z" />
    <glyph glyph-name="uni1EB3" unicode="&#x1eb3;" horiz-adv-x="1018" 
d="M921 78q-8 -38 -40 -45q-85 -23 -169 -35t-187 -12q-239 0 -326.5 80.5t-49.5 257.5l3 18q25 115 89 188t180 108.5t295 35.5h152l17 82q28 128 -10.5 177.5t-159.5 49.5q-93 0 -162.5 -12.5t-161.5 -38.5q-23 -7 -34.5 1t-8.5 25l17 80q6 25 37 37q52 21 149 43.5
t197 22.5q399 0 317 -385zM756 145l84 398h-152q-97 0 -157 -10.5t-99.5 -34.5t-62 -60.5t-34.5 -93.5l-4 -18q-15 -72 -2 -115.5t67.5 -63.5t158.5 -20q41 0 79.5 2.5t70 6.5t51.5 9zM912.5 1912.5q-32.5 -6.5 -81.5 -21.5q-61 -19 -51 30l9 41q3 14 14 22t22 12
q29 12 78 23t98 11q90 0 137.5 -36t30.5 -114l-2 -10q-5 -23 -16.5 -45t-35 -48t-64.5 -64l-47 -43q-29 -27 -35 -33.5t-12 -17t-9 -25.5l-9 -42q-3 -14 -18.5 -26t-36.5 -12h-37q-21 0 -31 12.5t-7 25.5l9 42q6 30 16 51.5t28 42.5t46 46l48 43q36 33 49 51.5t18 41.5l2 10
q4 39 -38 39t-74.5 -6.5zM1199 1539l-2 -8q-26 -92 -89 -157.5t-144 -98.5t-162 -33t-148.5 33t-102.5 97.5t-22 158.5l2 8q5 26 27 26h76q28 0 25 -32q-8 -78 42 -121t128 -43t146.5 43.5t93.5 120.5q9 32 36 32h76q23 0 18 -26z" />
    <glyph glyph-name="uni1EB4" unicode="&#x1eb4;" horiz-adv-x="1276" 
d="M1234 33q-7 -33 -42 -33h-121q-28 0 -28 31l-33 471h-530l-231 -471q-6 -13 -20 -22t-24 -9h-121q-14 0 -22.5 9.5t-5.5 23.5q2 10 5 14l662 1333q44 87 109 121.5t133 34.5q44 0 81.5 -13.5t63 -48t30.5 -92.5l95 -1335q1 -4 -1 -14zM1005 664l-43 673q-2 37 -31 37
q-31 0 -49 -37l-329 -673h452zM1548 2162q-23 -108 -80.5 -161.5t-158.5 -53.5q-76 0 -122 43l-104 100q-28 29 -41.5 37t-32.5 8q-35 0 -54 -23t-29 -71l-9 -43q-4 -15 -16 -25t-27 -10h-64q-14 0 -21 10.5t-4 24.5l9 43q23 109 86.5 166t155.5 57q60 0 113 -49l121 -114
q17 -14 34 -21.5t31 -7.5q32 0 51 20t30 70l9 47q3 14 16 24.5t27 10.5h64q13 0 20.5 -11t4.5 -24zM1340 1862l-2 -8q-25 -87 -84.5 -149t-136 -93t-152.5 -31q-77 0 -141 31t-96.5 92t-20.5 150l2 8q5 24 26 24h72q26 0 22 -30q-7 -74 40.5 -114.5t121.5 -40.5q73 0 138 41
t87 114q10 30 35 30h72q22 0 17 -24z" />
    <glyph glyph-name="uni1EB5" unicode="&#x1eb5;" horiz-adv-x="1018" 
d="M921 78q-8 -38 -40 -45q-85 -23 -169 -35t-187 -12q-239 0 -326.5 80.5t-49.5 257.5l3 18q25 115 89 188t180 108.5t295 35.5h152l17 82q28 128 -10.5 177.5t-159.5 49.5q-93 0 -162.5 -12.5t-161.5 -38.5q-23 -7 -34.5 1t-8.5 25l17 80q6 25 37 37q52 21 149 43.5
t197 22.5q399 0 317 -385zM756 145l84 398h-152q-97 0 -157 -10.5t-99.5 -34.5t-62 -60.5t-34.5 -93.5l-4 -18q-15 -72 -2 -115.5t67.5 -63.5t158.5 -20q41 0 79.5 2.5t70 6.5t51.5 9zM1341 1818q-23 -108 -80.5 -161.5t-158.5 -53.5q-76 0 -121 43l-104 100q-28 29 -42 37
t-33 8q-35 0 -53.5 -23t-29.5 -71l-9 -43q-3 -15 -15 -25t-27 -10h-64q-14 0 -21.5 10.5t-4.5 24.5l9 43q24 109 87.5 166t155.5 57q60 0 112 -49l121 -114q17 -14 34.5 -21.5t31.5 -7.5q32 0 51 20t29 70l10 47q3 14 16 24.5t27 10.5h64q13 0 20.5 -11t4.5 -24zM1199 1539
l-2 -8q-26 -92 -89 -157.5t-144 -98.5t-162 -33t-148.5 33t-102.5 97.5t-22 158.5l2 8q5 26 27 26h76q28 0 25 -32q-8 -78 42 -121t128 -43t146.5 43.5t93.5 120.5q9 32 36 32h76q23 0 18 -26z" />
    <glyph glyph-name="uni1EB6" unicode="&#x1eb6;" horiz-adv-x="1276" 
d="M1234 33q-7 -33 -42 -33h-121q-28 0 -28 31l-33 471h-530l-231 -471q-6 -13 -20 -22t-24 -9h-121q-14 0 -22.5 9.5t-5.5 23.5q2 10 5 14l662 1333q44 87 109 121.5t133 34.5q44 0 81.5 -13.5t63 -48t30.5 -92.5l95 -1335q1 -4 -1 -14zM1005 664l-43 673q-2 37 -31 37
q-31 0 -49 -37l-329 -673h452zM656 -294q-3 -17 -17.5 -28t-31.5 -11h-80q-15 0 -25.5 11t-7.5 28l36 166q3 15 18.5 28t30.5 13h80q17 0 26.5 -13t6.5 -28zM1340 1862l-2 -8q-25 -87 -84.5 -149t-136 -93t-152.5 -31q-77 0 -141 31t-96.5 92t-20.5 150l2 8q5 24 26 24h72
q26 0 22 -30q-7 -74 40.5 -114.5t121.5 -40.5q73 0 138 41t87 114q10 30 35 30h72q22 0 17 -24z" />
    <glyph glyph-name="uni1EB7" unicode="&#x1eb7;" horiz-adv-x="1018" 
d="M921 78q-8 -38 -40 -45q-85 -23 -169 -35t-187 -12q-239 0 -326.5 80.5t-49.5 257.5l3 18q25 115 89 188t180 108.5t295 35.5h152l17 82q28 128 -10.5 177.5t-159.5 49.5q-93 0 -162.5 -12.5t-161.5 -38.5q-23 -7 -34.5 1t-8.5 25l17 80q6 25 37 37q52 21 149 43.5
t197 22.5q399 0 317 -385zM756 145l84 398h-152q-97 0 -157 -10.5t-99.5 -34.5t-62 -60.5t-34.5 -93.5l-4 -18q-15 -72 -2 -115.5t67.5 -63.5t158.5 -20q41 0 79.5 2.5t70 6.5t51.5 9zM512 -294q-3 -17 -17.5 -28t-31.5 -11h-80q-15 0 -25.5 11t-7.5 28l36 166q3 15 18.5 28
t30.5 13h80q17 0 26.5 -13t6.5 -28zM1199 1539l-2 -8q-26 -92 -89 -157.5t-144 -98.5t-162 -33t-148.5 33t-102.5 97.5t-22 158.5l2 8q5 26 27 26h76q28 0 25 -32q-8 -78 42 -121t128 -43t146.5 43.5t93.5 120.5q9 32 36 32h76q23 0 18 -26z" />
    <glyph glyph-name="uni1EB8" unicode="&#x1eb8;" 
d="M991 25q-6 -26 -27 -29q-99 -10 -402 -10q-145 0 -233 39t-119 124t-3 218l168 788q42 199 169.5 290t347.5 91q102 0 220 -3t177 -9q20 -3 14 -29l-22 -102q-5 -25 -27 -25h-396q-108 0 -166.5 -20.5t-86 -65t-44.5 -127.5l-61 -285h629q19 0 28 -11t4 -30l-16 -77
q-4 -18 -18.5 -29.5t-31.5 -11.5h-629l-73 -344q-17 -83 -8.5 -127.5t58 -65t157.5 -20.5h396q22 0 17 -25zM657 -294q-4 -17 -18.5 -28t-31.5 -11h-80q-15 0 -25.5 11t-6.5 28l35 166q3 15 19 28t31 13h80q17 0 26 -13t6 -28z" />
    <glyph glyph-name="uni1EB9" unicode="&#x1eb9;" horiz-adv-x="1073" 
d="M577 143q68 0 136.5 13t135.5 34.5t108 36.5q24 10 35 1.5t7 -27.5l-18 -84q-5 -21 -36 -37q-198 -94 -401 -94q-128 0 -223 45.5t-135.5 155t-2.5 290.5l40 185q47 222 194 350.5t363 128.5q145 0 234 -58.5t116.5 -167.5t-2.5 -253l-24 -111q-9 -45 -48 -45h-686
l-7 -29q-37 -178 15.5 -256t198.5 -78zM942 643l4 19q24 113 9.5 185t-66.5 104t-143 32q-275 0 -343 -321l-4 -19h543zM513 -294q-4 -17 -18.5 -28t-31.5 -11h-80q-15 0 -25.5 11t-6.5 28l35 166q3 15 19 28t31 13h80q17 0 26 -13t6 -28z" />
    <glyph glyph-name="uni1EBA" unicode="&#x1eba;" 
d="M991 25q-6 -26 -27 -29q-99 -10 -402 -10q-145 0 -233 39t-119 124t-3 218l168 788q42 199 169.5 290t347.5 91q102 0 220 -3t177 -9q20 -3 14 -29l-22 -102q-5 -25 -27 -25h-396q-108 0 -166.5 -20.5t-86 -65t-44.5 -127.5l-61 -285h629q19 0 28 -11t4 -30l-16 -77
q-4 -18 -18.5 -29.5t-31.5 -11.5h-629l-73 -344q-17 -83 -8.5 -127.5t58 -65t157.5 -20.5h396q22 0 17 -25zM967.5 1982.5q-32.5 -6.5 -81.5 -21.5q-61 -19 -51 30l9 41q3 14 14.5 22t21.5 12q29 12 78.5 23t98.5 11q90 0 137 -36t31 -114l-2 -10q-5 -23 -17 -45t-35.5 -48
t-64.5 -64l-47 -43q-29 -27 -34.5 -33.5t-12 -17t-9.5 -25.5l-9 -42q-3 -14 -18.5 -26t-36.5 -12h-37q-21 0 -31 12.5t-7 25.5l9 42q6 30 16 51.5t28 42.5t47 46l48 43q36 33 49 51.5t18 41.5l2 10q3 39 -39 39t-74.5 -6.5z" />
    <glyph glyph-name="uni1EBB" unicode="&#x1ebb;" horiz-adv-x="1073" 
d="M577 143q68 0 136.5 13t135.5 34.5t108 36.5q24 10 35 1.5t7 -27.5l-18 -84q-5 -21 -36 -37q-198 -94 -401 -94q-128 0 -223 45.5t-135.5 155t-2.5 290.5l40 185q47 222 194 350.5t363 128.5q145 0 234 -58.5t116.5 -167.5t-2.5 -253l-24 -111q-9 -45 -48 -45h-686
l-7 -29q-37 -178 15.5 -256t198.5 -78zM942 643l4 19q24 113 9.5 185t-66.5 104t-143 32q-275 0 -343 -321l-4 -19h543zM819.5 1621.5q-32.5 -6.5 -81.5 -21.5q-61 -19 -50 30l8 41q3 14 14.5 22t21.5 12q29 12 78.5 23t98.5 11q90 0 137 -36t31 -114l-2 -10q-5 -23 -17 -45
t-35.5 -48t-64.5 -64l-47 -43q-29 -27 -34.5 -33.5t-12 -17t-9.5 -25.5l-9 -42q-3 -14 -18.5 -26t-36.5 -12h-37q-21 0 -31 12.5t-7 25.5l9 42q6 30 16.5 51.5t28 42.5t46.5 46l48 43q36 33 49 51.5t18 41.5l2 10q3 39 -39 39t-74.5 -6.5z" />
    <glyph glyph-name="uni1EBC" unicode="&#x1ebc;" 
d="M991 25q-6 -26 -27 -29q-99 -10 -402 -10q-145 0 -233 39t-119 124t-3 218l168 788q42 199 169.5 290t347.5 91q102 0 220 -3t177 -9q20 -3 14 -29l-22 -102q-5 -25 -27 -25h-396q-108 0 -166.5 -20.5t-86 -65t-44.5 -127.5l-61 -285h629q19 0 28 -11t4 -30l-16 -77
q-4 -18 -18.5 -29.5t-31.5 -11.5h-629l-73 -344q-17 -83 -8.5 -127.5t58 -65t157.5 -20.5h396q22 0 17 -25zM1397 1831q-23 -108 -80 -161.5t-158 -53.5q-76 0 -122 43l-104 100q-28 29 -41.5 37t-32.5 8q-35 0 -54 -23t-29 -71l-9 -43q-4 -15 -16 -25t-27 -10h-64
q-14 0 -21 10.5t-4 24.5l9 43q23 109 86.5 166t155.5 57q60 0 113 -49l120 -114q18 -14 35 -21.5t31 -7.5q32 0 51 20t29 70l10 47q3 14 16 24.5t27 10.5h64q13 0 20.5 -11t4.5 -24z" />
    <glyph glyph-name="uni1EBD" unicode="&#x1ebd;" horiz-adv-x="1073" 
d="M577 143q68 0 136.5 13t135.5 34.5t108 36.5q24 10 35 1.5t7 -27.5l-18 -84q-5 -21 -36 -37q-198 -94 -401 -94q-128 0 -223 45.5t-135.5 155t-2.5 290.5l40 185q47 222 194 350.5t363 128.5q145 0 234 -58.5t116.5 -167.5t-2.5 -253l-24 -111q-9 -45 -48 -45h-686
l-7 -29q-37 -178 15.5 -256t198.5 -78zM942 643l4 19q24 113 9.5 185t-66.5 104t-143 32q-275 0 -343 -321l-4 -19h543zM1213 1497q-23 -108 -80 -161.5t-158 -53.5q-76 0 -122 43l-104 100q-28 29 -41.5 37t-32.5 8q-35 0 -54 -23t-29 -71l-10 -43q-3 -15 -15 -25t-27 -10
h-64q-14 0 -21.5 10.5t-4.5 24.5l10 43q23 109 86.5 166t155.5 57q60 0 113 -49l120 -114q17 -14 34.5 -21.5t31.5 -7.5q32 0 51 20t29 70l10 47q3 14 16 24.5t27 10.5h64q13 0 20.5 -11t4.5 -24z" />
    <glyph glyph-name="uni1EBE" unicode="&#x1ebe;" 
d="M991 25q-6 -26 -27 -29q-99 -10 -402 -10q-145 0 -233 39t-119 124t-3 218l168 788q42 199 169.5 290t347.5 91q102 0 220 -3t177 -9q20 -3 14 -29l-22 -102q-5 -25 -27 -25h-396q-108 0 -166.5 -20.5t-86 -65t-44.5 -127.5l-61 -285h629q19 0 28 -11t4 -30l-16 -77
q-4 -18 -18.5 -29.5t-31.5 -11.5h-629l-73 -344q-17 -83 -8.5 -127.5t58 -65t157.5 -20.5h396q22 0 17 -25zM1675 2173q-2 -8 -11 -16l-287 -258q-22 -20 -30.5 -25.5t-23.5 -5.5h-111q-18 0 -15 14q3 13 13 21l255 254q20 20 29 25t26 5h135q23 0 20 -14zM1252 1641
q-3 -14 -22 -14h-106q-15 0 -21 5.5t-19 25.5l-126 198l-212 -198q-21 -19 -30.5 -25t-23.5 -6h-107q-18 0 -15 14q3 13 13 21l251 254q20 20 29 25t26 5h174q26 0 45 -30l141 -254q6 -8 3 -21z" />
    <glyph glyph-name="uni1EBF" unicode="&#x1ebf;" horiz-adv-x="1073" 
d="M577 143q68 0 136.5 13t135.5 34.5t108 36.5q24 10 35 1.5t7 -27.5l-18 -84q-5 -21 -36 -37q-198 -94 -401 -94q-128 0 -223 45.5t-135.5 155t-2.5 290.5l40 185q47 222 194 350.5t363 128.5q145 0 234 -58.5t116.5 -167.5t-2.5 -253l-24 -111q-9 -45 -48 -45h-686
l-7 -29q-37 -178 15.5 -256t198.5 -78zM942 643l4 19q24 113 9.5 185t-66.5 104t-143 32q-275 0 -343 -321l-4 -19h543zM1544 1812q-1 -8 -11 -16l-287 -258q-22 -20 -30.5 -25.5t-23.5 -5.5h-111q-18 0 -15 14q3 13 13 21l255 254q20 20 29 25t26 5h135q23 0 20 -14z
M1147 1260q-3 -14 -22 -14h-106q-15 0 -21 5.5t-19 25.5l-126 198l-212 -198q-22 -19 -31 -25t-23 -6h-107q-18 0 -15 14q3 13 12 21l251 254q21 20 30 25t26 5h174q26 0 44 -30l141 -254q7 -8 4 -21z" />
    <glyph glyph-name="uni1EC0" unicode="&#x1ec0;" 
d="M991 25q-6 -26 -27 -29q-99 -10 -402 -10q-145 0 -233 39t-119 124t-3 218l168 788q42 199 169.5 290t347.5 91q102 0 220 -3t177 -9q20 -3 14 -29l-22 -102q-5 -25 -27 -25h-396q-108 0 -166.5 -20.5t-86 -65t-44.5 -127.5l-61 -285h629q19 0 28 -11t4 -30l-16 -77
q-4 -18 -18.5 -29.5t-31.5 -11.5h-629l-73 -344q-17 -83 -8.5 -127.5t58 -65t157.5 -20.5h396q22 0 17 -25zM1363 1860q-3 -14 -21 -14h-111q-10 0 -16.5 3t-11.5 9t-13 19l-176 258q-6 8 -5 16q3 14 25 14h135q26 0 45 -30l145 -254q6 -8 4 -21zM1252 1641q-3 -14 -22 -14
h-106q-15 0 -21 5.5t-19 25.5l-126 198l-212 -198q-21 -19 -30.5 -25t-23.5 -6h-107q-18 0 -15 14q3 13 13 21l251 254q20 20 29 25t26 5h174q26 0 45 -30l141 -254q6 -8 3 -21z" />
    <glyph glyph-name="uni1EC1" unicode="&#x1ec1;" horiz-adv-x="1073" 
d="M577 143q68 0 136.5 13t135.5 34.5t108 36.5q24 10 35 1.5t7 -27.5l-18 -84q-5 -21 -36 -37q-198 -94 -401 -94q-128 0 -223 45.5t-135.5 155t-2.5 290.5l40 185q47 222 194 350.5t363 128.5q145 0 234 -58.5t116.5 -167.5t-2.5 -253l-24 -111q-9 -45 -48 -45h-686
l-7 -29q-37 -178 15.5 -256t198.5 -78zM942 643l4 19q24 113 9.5 185t-66.5 104t-143 32q-275 0 -343 -321l-4 -19h543zM1250 1491q-3 -14 -21 -14h-111q-10 0 -16.5 3t-11 9t-12.5 19l-177 258q-6 8 -4 16q3 14 25 14h135q26 0 44 -30l145 -254q7 -8 4 -21zM1147 1260
q-3 -14 -22 -14h-106q-15 0 -21 5.5t-19 25.5l-126 198l-212 -198q-22 -19 -31 -25t-23 -6h-107q-18 0 -15 14q3 13 12 21l251 254q21 20 30 25t26 5h174q26 0 44 -30l141 -254q7 -8 4 -21z" />
    <glyph glyph-name="uni1EC2" unicode="&#x1ec2;" 
d="M991 25q-6 -26 -27 -29q-99 -10 -402 -10q-145 0 -233 39t-119 124t-3 218l168 788q42 199 169.5 290t347.5 91q102 0 220 -3t177 -9q20 -3 14 -29l-22 -102q-5 -25 -27 -25h-396q-108 0 -166.5 -20.5t-86 -65t-44.5 -127.5l-61 -285h629q19 0 28 -11t4 -30l-16 -77
q-4 -18 -18.5 -29.5t-31.5 -11.5h-629l-73 -344q-17 -83 -8.5 -127.5t58 -65t157.5 -20.5h396q22 0 17 -25zM1300.5 2223.5q-32.5 -6.5 -81.5 -21.5q-61 -19 -50 30l8 41q3 14 14.5 22t22.5 12q28 12 77.5 23t98.5 11q90 0 137.5 -36t30.5 -114l-2 -10q-5 -23 -16.5 -45
t-35 -48t-65.5 -64l-47 -43q-28 -27 -34 -33.5t-12.5 -17t-9.5 -25.5l-9 -42q-3 -14 -18.5 -26t-36.5 -12h-37q-21 0 -31 12.5t-7 25.5l9 42q7 30 17 51.5t28 42.5t46 46l48 43q36 33 49 51.5t18 41.5l2 10q3 39 -39 39t-74.5 -6.5zM1252 1641q-3 -14 -22 -14h-106
q-15 0 -21 5.5t-19 25.5l-126 198l-212 -198q-21 -19 -30.5 -25t-23.5 -6h-107q-18 0 -15 14q3 13 13 21l251 254q20 20 29 25t26 5h174q26 0 45 -30l141 -254q6 -8 3 -21z" />
    <glyph glyph-name="uni1EC3" unicode="&#x1ec3;" horiz-adv-x="1073" 
d="M577 143q68 0 136.5 13t135.5 34.5t108 36.5q24 10 35 1.5t7 -27.5l-18 -84q-5 -21 -36 -37q-198 -94 -401 -94q-128 0 -223 45.5t-135.5 155t-2.5 290.5l40 185q47 222 194 350.5t363 128.5q145 0 234 -58.5t116.5 -167.5t-2.5 -253l-24 -111q-9 -45 -48 -45h-686
l-7 -29q-37 -178 15.5 -256t198.5 -78zM942 643l4 19q24 113 9.5 185t-66.5 104t-143 32q-275 0 -343 -321l-4 -19h543zM1168.5 1892.5q-32.5 -6.5 -81.5 -21.5q-61 -19 -51 30l9 41q3 14 14 22t22 12q29 12 78 23t98 11q90 0 137.5 -36t30.5 -114l-2 -10q-5 -23 -16.5 -45
t-35 -48t-64.5 -64l-47 -43q-29 -27 -35 -33.5t-12 -17t-9 -25.5l-9 -42q-3 -14 -18.5 -26t-36.5 -12h-37q-21 0 -31 12.5t-7 25.5l9 42q6 30 16 51.5t28 42.5t46 46l49 43q36 33 48.5 51.5t17.5 41.5l2 10q4 39 -38 39t-74.5 -6.5zM1147 1260q-3 -14 -22 -14h-106
q-15 0 -21 5.5t-19 25.5l-126 198l-212 -198q-22 -19 -31 -25t-23 -6h-107q-18 0 -15 14q3 13 12 21l251 254q21 20 30 25t26 5h174q26 0 44 -30l141 -254q7 -8 4 -21z" />
    <glyph glyph-name="uni1EC4" unicode="&#x1ec4;" 
d="M991 25q-6 -26 -27 -29q-99 -10 -402 -10q-145 0 -233 39t-119 124t-3 218l168 788q42 199 169.5 290t347.5 91q102 0 220 -3t177 -9q20 -3 14 -29l-22 -102q-5 -25 -27 -25h-396q-108 0 -166.5 -20.5t-86 -65t-44.5 -127.5l-61 -285h629q19 0 28 -11t4 -30l-16 -77
q-4 -18 -18.5 -29.5t-31.5 -11.5h-629l-73 -344q-17 -83 -8.5 -127.5t58 -65t157.5 -20.5h396q22 0 17 -25zM1478 2162q-23 -108 -80.5 -161.5t-158.5 -53.5q-76 0 -122 43l-103 100q-28 29 -42 37t-33 8q-35 0 -54 -23t-29 -71l-9 -43q-3 -15 -15 -25t-27 -10h-64
q-14 0 -21.5 10.5t-4.5 24.5l9 43q23 109 86.5 166t155.5 57q60 0 113 -49l121 -114q17 -14 34.5 -21.5t31.5 -7.5q32 0 50.5 20t29.5 70l10 47q3 14 15.5 24.5t26.5 10.5h64q13 0 21 -11t5 -24zM1252 1641q-3 -14 -22 -14h-106q-15 0 -21 5.5t-19 25.5l-126 198l-212 -198
q-21 -19 -30.5 -25t-23.5 -6h-107q-18 0 -15 14q3 13 13 21l251 254q20 20 29 25t26 5h174q26 0 45 -30l141 -254q6 -8 3 -21z" />
    <glyph glyph-name="uni1EC5" unicode="&#x1ec5;" horiz-adv-x="1073" 
d="M577 143q68 0 136.5 13t135.5 34.5t108 36.5q24 10 35 1.5t7 -27.5l-18 -84q-5 -21 -36 -37q-198 -94 -401 -94q-128 0 -223 45.5t-135.5 155t-2.5 290.5l40 185q47 222 194 350.5t363 128.5q145 0 234 -58.5t116.5 -167.5t-2.5 -253l-24 -111q-9 -45 -48 -45h-686
l-7 -29q-37 -178 15.5 -256t198.5 -78zM942 643l4 19q24 113 9.5 185t-66.5 104t-143 32q-275 0 -343 -321l-4 -19h543zM1363 1778q-23 -108 -80.5 -161.5t-158.5 -53.5q-76 0 -122 43l-103 100q-28 29 -42 37t-33 8q-35 0 -54 -23t-29 -71l-9 -43q-3 -15 -15 -25t-27 -10
h-64q-14 0 -21.5 10.5t-4.5 24.5l9 43q23 109 87 166t156 57q60 0 112 -49l121 -114q17 -14 34.5 -21.5t31.5 -7.5q32 0 50.5 20t29.5 70l10 47q3 14 15.5 24.5t26.5 10.5h64q13 0 21 -11t5 -24zM1147 1260q-3 -14 -22 -14h-106q-15 0 -21 5.5t-19 25.5l-126 198l-212 -198
q-22 -19 -31 -25t-23 -6h-107q-18 0 -15 14q3 13 12 21l251 254q21 20 30 25t26 5h174q26 0 44 -30l141 -254q7 -8 4 -21z" />
    <glyph glyph-name="uni1EC6" unicode="&#x1ec6;" 
d="M991 25q-6 -26 -27 -29q-99 -10 -402 -10q-145 0 -233 39t-119 124t-3 218l168 788q42 199 169.5 290t347.5 91q102 0 220 -3t177 -9q20 -3 14 -29l-22 -102q-5 -25 -27 -25h-396q-108 0 -166.5 -20.5t-86 -65t-44.5 -127.5l-61 -285h629q19 0 28 -11t4 -30l-16 -77
q-4 -18 -18.5 -29.5t-31.5 -11.5h-629l-73 -344q-17 -83 -8.5 -127.5t58 -65t157.5 -20.5h396q22 0 17 -25zM657 -294q-4 -17 -18.5 -28t-31.5 -11h-80q-15 0 -25.5 11t-6.5 28l35 166q3 15 19 28t31 13h80q17 0 26 -13t6 -28zM1252 1641q-3 -14 -22 -14h-106q-15 0 -21 5.5
t-19 25.5l-126 198l-212 -198q-21 -19 -30.5 -25t-23.5 -6h-107q-18 0 -15 14q3 13 13 21l251 254q20 20 29 25t26 5h174q26 0 45 -30l141 -254q6 -8 3 -21z" />
    <glyph glyph-name="uni1EC7" unicode="&#x1ec7;" horiz-adv-x="1073" 
d="M577 143q68 0 136.5 13t135.5 34.5t108 36.5q24 10 35 1.5t7 -27.5l-18 -84q-5 -21 -36 -37q-198 -94 -401 -94q-128 0 -223 45.5t-135.5 155t-2.5 290.5l40 185q47 222 194 350.5t363 128.5q145 0 234 -58.5t116.5 -167.5t-2.5 -253l-24 -111q-9 -45 -48 -45h-686
l-7 -29q-37 -178 15.5 -256t198.5 -78zM942 643l4 19q24 113 9.5 185t-66.5 104t-143 32q-275 0 -343 -321l-4 -19h543zM513 -294q-4 -17 -18.5 -28t-31.5 -11h-80q-15 0 -25.5 11t-6.5 28l35 166q3 15 19 28t31 13h80q17 0 26 -13t6 -28zM1147 1260q-3 -14 -22 -14h-106
q-15 0 -21 5.5t-19 25.5l-126 198l-212 -198q-22 -19 -31 -25t-23 -6h-107q-18 0 -15 14q3 13 12 21l251 254q21 20 30 25t26 5h174q26 0 44 -30l141 -254q7 -8 4 -21z" />
    <glyph glyph-name="uni1EC8" unicode="&#x1ec8;" horiz-adv-x="477" 
d="M341 41q-4 -16 -17 -28.5t-29 -12.5h-113q-14 0 -23 11.5t-5 29.5l306 1442q4 15 17.5 27t28.5 12h113q15 0 23.5 -11t4.5 -28zM606.5 1982.5q-32.5 -6.5 -81.5 -21.5q-61 -19 -51 30l9 41q3 14 14 22t22 12q29 12 78 23t98 11q90 0 137.5 -36t31.5 -114l-3 -10
q-4 -23 -16 -45t-35.5 -48t-64.5 -64l-47 -43q-29 -27 -35 -33.5t-12 -17t-9 -25.5l-9 -42q-3 -14 -18.5 -26t-36.5 -12h-37q-21 0 -31 12.5t-7 25.5l9 42q6 30 16 51.5t28 42.5t47 46l48 43q36 33 49 51.5t17 41.5l3 10q3 39 -39 39t-74.5 -6.5z" />
    <glyph glyph-name="uni1EC9" unicode="&#x1ec9;" horiz-adv-x="444" 
d="M320 41q-4 -18 -18.5 -29.5t-31.5 -11.5h-98q-15 0 -25.5 12t-6.5 29l222 1044q3 17 17.5 29t31.5 12h98q19 0 28 -11t5 -30zM517.5 1621.5q-32.5 -6.5 -81.5 -21.5q-61 -19 -51 30l9 41q3 14 14 22t22 12q29 12 78.5 23t98.5 11q90 0 137 -36t31 -114l-2 -10
q-5 -23 -17 -45t-35.5 -48t-64.5 -64l-47 -43q-29 -27 -34.5 -33.5t-12 -17t-9.5 -25.5l-9 -42q-3 -14 -18.5 -26t-36.5 -12h-37q-21 0 -31 12.5t-7 25.5l9 42q6 30 16 51.5t28 42.5t47 46l48 43q36 33 49 51.5t18 41.5l2 10q3 39 -39 39t-74.5 -6.5z" />
    <glyph glyph-name="uni1ECA" unicode="&#x1eca;" horiz-adv-x="477" 
d="M341 41q-4 -16 -17 -28.5t-29 -12.5h-113q-14 0 -23 11.5t-5 29.5l306 1442q4 15 17.5 27t28.5 12h113q15 0 23.5 -11t4.5 -28zM256 -294q-4 -17 -18.5 -28t-31.5 -11h-80q-15 0 -25.5 11t-6.5 28l35 166q3 15 19 28t31 13h80q17 0 26 -13t6 -28z" />
    <glyph glyph-name="uni1ECB" unicode="&#x1ecb;" horiz-adv-x="444" 
d="M602 1348q-4 -18 -18.5 -29.5t-31.5 -11.5h-104q-17 0 -26.5 12t-5.5 29l34 163q4 17 18 29t32 12h104q19 0 27.5 -11t4.5 -30zM320 41q-4 -18 -18.5 -29.5t-31.5 -11.5h-98q-15 0 -25.5 12t-6.5 29l222 1044q3 17 17.5 29t31.5 12h98q19 0 28 -11t5 -30zM242 -294
q-4 -17 -18.5 -28t-31.5 -11h-80q-15 0 -25.5 11t-6.5 28l35 166q3 15 19 28t31 13h80q17 0 26 -13t6 -28z" />
    <glyph glyph-name="uni1ECC" unicode="&#x1ecc;" horiz-adv-x="1305" 
d="M1340 629q-36 -167 -102 -289.5t-156.5 -201t-200 -115.5t-231.5 -37q-121 0 -214.5 37t-152 115.5t-72.5 202.5t21 288l56 264q35 165 102.5 288.5t159 202.5t199.5 115.5t231 36.5t215.5 -37t150 -115.5t72 -200.5t-21.5 -290zM1152 629l56 264q27 125 21 218
t-40.5 148t-95.5 82t-149 27q-366 0 -467 -475l-56 -264q-35 -166 -14 -272.5t92 -154.5t187 -48q365 0 466 475zM671 -294q-4 -17 -18.5 -28t-31.5 -11h-80q-15 0 -25.5 11t-6.5 28l35 166q3 15 19 28t31 13h80q17 0 26 -13t6 -28z" />
    <glyph glyph-name="uni1ECD" unicode="&#x1ecd;" 
d="M1096 485q-49 -230 -195 -364.5t-367 -134.5q-220 0 -309 134.5t-40 364.5l33 156q49 231 195 365.5t366 134.5q221 0 310 -134.5t40 -365.5zM916 485l33 156q23 107 9.5 183.5t-66 117.5t-146.5 41q-139 0 -226 -89.5t-122 -252.5l-33 -156q-73 -342 202 -342
q139 0 226.5 89t122.5 253zM556 -294q-3 -17 -17.5 -28t-31.5 -11h-80q-15 0 -25.5 11t-7.5 28l36 166q3 15 18.5 28t30.5 13h80q17 0 26.5 -13t6.5 -28z" />
    <glyph glyph-name="uni1ECE" unicode="&#x1ece;" horiz-adv-x="1305" 
d="M1340 629q-36 -167 -102 -289.5t-156.5 -201t-200 -115.5t-231.5 -37q-121 0 -214.5 37t-152 115.5t-72.5 202.5t21 288l56 264q35 165 102.5 288.5t159 202.5t199.5 115.5t231 36.5t215.5 -37t150 -115.5t72 -200.5t-21.5 -290zM1152 629l56 264q27 125 21 218
t-40.5 148t-95.5 82t-149 27q-366 0 -467 -475l-56 -264q-35 -166 -14 -272.5t92 -154.5t187 -48q365 0 466 475zM1017.5 1982.5q-32.5 -6.5 -81.5 -21.5q-61 -19 -51 30l9 41q3 14 14 22t22 12q29 12 78.5 23t98.5 11q90 0 137 -36t31 -114l-2 -10q-5 -23 -17 -45
t-35.5 -48t-64.5 -64l-47 -43q-29 -27 -34.5 -33.5t-12 -17t-9.5 -25.5l-9 -42q-3 -14 -18.5 -26t-36.5 -12h-37q-21 0 -31 12.5t-7 25.5l9 42q6 30 16 51.5t28 42.5t47 46l48 43q36 33 49 51.5t18 41.5l2 10q3 39 -39 39t-74.5 -6.5z" />
    <glyph glyph-name="uni1ECF" unicode="&#x1ecf;" 
d="M1096 485q-49 -230 -195 -364.5t-367 -134.5q-220 0 -309 134.5t-40 364.5l33 156q49 231 195 365.5t366 134.5q221 0 310 -134.5t40 -365.5zM916 485l33 156q23 107 9.5 183.5t-66 117.5t-146.5 41q-139 0 -226 -89.5t-122 -252.5l-33 -156q-73 -342 202 -342
q139 0 226.5 89t122.5 253zM819.5 1621.5q-32.5 -6.5 -81.5 -21.5q-61 -19 -51 30l9 41q3 14 14 22t22 12q29 12 78 23t98 11q90 0 137.5 -36t31.5 -114l-3 -10q-4 -23 -16 -45t-35.5 -48t-64.5 -64l-47 -43q-29 -27 -35 -33.5t-12 -17t-9 -25.5l-9 -42q-3 -14 -18.5 -26
t-36.5 -12h-37q-21 0 -31 12.5t-7 25.5l9 42q6 30 16 51.5t28 42.5t47 46l48 43q36 33 49 51.5t17 41.5l3 10q3 39 -39 39t-74.5 -6.5z" />
    <glyph glyph-name="uni1ED0" unicode="&#x1ed0;" horiz-adv-x="1305" 
d="M1340 629q-36 -167 -102 -289.5t-156.5 -201t-200 -115.5t-231.5 -37q-121 0 -214.5 37t-152 115.5t-72.5 202.5t21 288l56 264q35 165 102.5 288.5t159 202.5t199.5 115.5t231 36.5t215.5 -37t150 -115.5t72 -200.5t-21.5 -290zM1152 629l56 264q27 125 21 218
t-40.5 148t-95.5 82t-149 27q-366 0 -467 -475l-56 -264q-35 -166 -14 -272.5t92 -154.5t187 -48q365 0 466 475zM1744 2173q-2 -8 -11 -16l-287 -258q-22 -20 -30.5 -25.5t-23.5 -5.5h-111q-18 0 -15 14q3 13 13 21l255 254q20 20 29 25t26 5h135q23 0 20 -14zM1342 1643
q-3 -14 -22 -14h-106q-15 0 -20.5 5.5t-19.5 25.5l-126 198l-212 -198q-21 -19 -30.5 -25t-23.5 -6h-107q-18 0 -15 14q3 13 13 21l251 254q20 20 29 25t26 5h174q26 0 45 -30l141 -254q6 -8 3 -21z" />
    <glyph glyph-name="uni1ED1" unicode="&#x1ed1;" 
d="M1096 485q-49 -230 -195 -364.5t-367 -134.5q-220 0 -309 134.5t-40 364.5l33 156q49 231 195 365.5t366 134.5q221 0 310 -134.5t40 -365.5zM916 485l33 156q23 107 9.5 183.5t-66 117.5t-146.5 41q-139 0 -226 -89.5t-122 -252.5l-33 -156q-73 -342 202 -342
q139 0 226.5 89t122.5 253zM1558 1812q-2 -8 -11 -16l-287 -258q-23 -20 -31 -25.5t-23 -5.5h-111q-18 0 -15 14q3 13 13 21l255 254q20 20 29 25t26 5h135q23 0 20 -14zM1155 1290q-3 -14 -22 -14h-106q-15 0 -21 5.5t-19 25.5l-126 198l-212 -198q-21 -19 -30.5 -25
t-23.5 -6h-107q-18 0 -15 14q3 13 12 21l251 254q21 20 30 25t26 5h174q26 0 44 -30l141 -254q7 -8 4 -21z" />
    <glyph glyph-name="uni1ED2" unicode="&#x1ed2;" horiz-adv-x="1305" 
d="M1340 629q-36 -167 -102 -289.5t-156.5 -201t-200 -115.5t-231.5 -37q-121 0 -214.5 37t-152 115.5t-72.5 202.5t21 288l56 264q35 165 102.5 288.5t159 202.5t199.5 115.5t231 36.5t215.5 -37t150 -115.5t72 -200.5t-21.5 -290zM1152 629l56 264q27 125 21 218
t-40.5 148t-95.5 82t-149 27q-366 0 -467 -475l-56 -264q-35 -166 -14 -272.5t92 -154.5t187 -48q365 0 466 475zM1449 1882q-3 -14 -21 -14h-111q-10 0 -16.5 3t-11 9t-12.5 19l-176 258q-7 8 -5 16q3 14 25 14h135q26 0 45 -30l145 -254q6 -8 3 -21zM1342 1643
q-3 -14 -22 -14h-106q-15 0 -20.5 5.5t-19.5 25.5l-126 198l-212 -198q-21 -19 -30.5 -25t-23.5 -6h-107q-18 0 -15 14q3 13 13 21l251 254q20 20 29 25t26 5h174q26 0 45 -30l141 -254q6 -8 3 -21z" />
    <glyph glyph-name="uni1ED3" unicode="&#x1ed3;" 
d="M1096 485q-49 -230 -195 -364.5t-367 -134.5q-220 0 -309 134.5t-40 364.5l33 156q49 231 195 365.5t366 134.5q221 0 310 -134.5t40 -365.5zM916 485l33 156q23 107 9.5 183.5t-66 117.5t-146.5 41q-139 0 -226 -89.5t-122 -252.5l-33 -156q-73 -342 202 -342
q139 0 226.5 89t122.5 253zM1259 1521q-3 -14 -21 -14h-111q-10 0 -16.5 3t-11 9t-12.5 19l-176 258q-7 8 -5 16q3 14 25 14h135q26 0 45 -30l145 -254q6 -8 3 -21zM1155 1290q-3 -14 -22 -14h-106q-15 0 -21 5.5t-19 25.5l-126 198l-212 -198q-21 -19 -30.5 -25t-23.5 -6
h-107q-18 0 -15 14q3 13 12 21l251 254q21 20 30 25t26 5h174q26 0 44 -30l141 -254q7 -8 4 -21z" />
    <glyph glyph-name="uni1ED4" unicode="&#x1ed4;" horiz-adv-x="1305" 
d="M1340 629q-36 -167 -102 -289.5t-156.5 -201t-200 -115.5t-231.5 -37q-121 0 -214.5 37t-152 115.5t-72.5 202.5t21 288l56 264q35 165 102.5 288.5t159 202.5t199.5 115.5t231 36.5t215.5 -37t150 -115.5t72 -200.5t-21.5 -290zM1152 629l56 264q27 125 21 218
t-40.5 148t-95.5 82t-149 27q-366 0 -467 -475l-56 -264q-35 -166 -14 -272.5t92 -154.5t187 -48q365 0 466 475zM1366.5 2253.5q-32.5 -6.5 -81.5 -21.5q-61 -19 -51 30l9 41q3 14 14 22t22 12q28 12 77.5 23t98.5 11q90 0 137.5 -36t30.5 -114l-2 -10q-5 -23 -16.5 -45
t-35 -48t-64.5 -64l-47 -43q-29 -27 -35 -33.5t-12 -17t-10 -25.5l-8 -42q-3 -14 -19 -26t-37 -12h-37q-21 0 -30.5 12.5t-6.5 25.5l8 42q7 30 17 51.5t28 42.5t46 46l48 43q36 33 49 51.5t18 41.5l2 10q4 39 -38 39t-74.5 -6.5zM1342 1643q-3 -14 -22 -14h-106
q-15 0 -20.5 5.5t-19.5 25.5l-126 198l-212 -198q-21 -19 -30.5 -25t-23.5 -6h-107q-18 0 -15 14q3 13 13 21l251 254q20 20 29 25t26 5h174q26 0 45 -30l141 -254q6 -8 3 -21z" />
    <glyph glyph-name="uni1ED5" unicode="&#x1ed5;" 
d="M1096 485q-49 -230 -195 -364.5t-367 -134.5q-220 0 -309 134.5t-40 364.5l33 156q49 231 195 365.5t366 134.5q221 0 310 -134.5t40 -365.5zM916 485l33 156q23 107 9.5 183.5t-66 117.5t-146.5 41q-139 0 -226 -89.5t-122 -252.5l-33 -156q-73 -342 202 -342
q139 0 226.5 89t122.5 253zM1189 1892.5q-32 -6.5 -82 -21.5q-61 -19 -50 30l9 41q3 14 14 22t22 12q28 12 77.5 23t98.5 11q90 0 137.5 -36t30.5 -114l-2 -10q-5 -23 -16.5 -45t-35 -48t-64.5 -64l-47 -43q-29 -27 -35 -33.5t-12 -17t-10 -25.5l-9 -42q-3 -14 -18.5 -26
t-36.5 -12h-37q-21 0 -30.5 12.5t-7.5 25.5l9 42q7 30 17 51.5t28 42.5t46 46l48 43q36 33 49 51.5t18 41.5l2 10q3 39 -39 39t-74 -6.5zM1155 1290q-3 -14 -22 -14h-106q-15 0 -21 5.5t-19 25.5l-126 198l-212 -198q-21 -19 -30.5 -25t-23.5 -6h-107q-18 0 -15 14
q3 13 12 21l251 254q21 20 30 25t26 5h174q26 0 44 -30l141 -254q7 -8 4 -21z" />
    <glyph glyph-name="uni1ED6" unicode="&#x1ed6;" horiz-adv-x="1305" 
d="M1340 629q-36 -167 -102 -289.5t-156.5 -201t-200 -115.5t-231.5 -37q-121 0 -214.5 37t-152 115.5t-72.5 202.5t21 288l56 264q35 165 102.5 288.5t159 202.5t199.5 115.5t231 36.5t215.5 -37t150 -115.5t72 -200.5t-21.5 -290zM1152 629l56 264q27 125 21 218
t-40.5 148t-95.5 82t-149 27q-366 0 -467 -475l-56 -264q-35 -166 -14 -272.5t92 -154.5t187 -48q365 0 466 475zM1542 2162q-23 -108 -80.5 -161.5t-158.5 -53.5q-76 0 -122 43l-104 100q-27 29 -41 37t-33 8q-35 0 -54 -23t-29 -71l-9 -43q-3 -15 -15.5 -25t-27.5 -10h-64
q-14 0 -21 10.5t-4 24.5l9 43q23 109 86.5 166t155.5 57q60 0 113 -49l121 -114q17 -14 34.5 -21.5t31.5 -7.5q32 0 50.5 20t29.5 70l10 47q3 14 15.5 24.5t26.5 10.5h64q13 0 20.5 -11t5.5 -24zM1342 1643q-3 -14 -22 -14h-106q-15 0 -20.5 5.5t-19.5 25.5l-126 198
l-212 -198q-21 -19 -30.5 -25t-23.5 -6h-107q-18 0 -15 14q3 13 13 21l251 254q20 20 29 25t26 5h174q26 0 45 -30l141 -254q6 -8 3 -21z" />
    <glyph glyph-name="uni1ED7" unicode="&#x1ed7;" 
d="M1096 485q-49 -230 -195 -364.5t-367 -134.5q-220 0 -309 134.5t-40 364.5l33 156q49 231 195 365.5t366 134.5q221 0 310 -134.5t40 -365.5zM916 485l33 156q23 107 9.5 183.5t-66 117.5t-146.5 41q-139 0 -226 -89.5t-122 -252.5l-33 -156q-73 -342 202 -342
q139 0 226.5 89t122.5 253zM1369 1818q-23 -108 -80 -161.5t-158 -53.5q-76 0 -122 43l-104 100q-28 29 -42 37t-33 8q-35 0 -53.5 -23t-28.5 -71l-10 -43q-3 -15 -15 -25t-27 -10h-64q-14 0 -21.5 10.5t-4.5 24.5l10 43q23 109 86.5 166t155.5 57q60 0 112 -49l121 -114
q17 -14 34.5 -21.5t31.5 -7.5q32 0 51 20t29 70l10 47q3 14 16 24.5t27 10.5h64q13 0 20.5 -11t4.5 -24zM1155 1290q-3 -14 -22 -14h-106q-15 0 -21 5.5t-19 25.5l-126 198l-212 -198q-21 -19 -30.5 -25t-23.5 -6h-107q-18 0 -15 14q3 13 12 21l251 254q21 20 30 25t26 5
h174q26 0 44 -30l141 -254q7 -8 4 -21z" />
    <glyph glyph-name="uni1ED8" unicode="&#x1ed8;" horiz-adv-x="1305" 
d="M1340 629q-36 -167 -102 -289.5t-156.5 -201t-200 -115.5t-231.5 -37q-121 0 -214.5 37t-152 115.5t-72.5 202.5t21 288l56 264q35 165 102.5 288.5t159 202.5t199.5 115.5t231 36.5t215.5 -37t150 -115.5t72 -200.5t-21.5 -290zM1152 629l56 264q27 125 21 218
t-40.5 148t-95.5 82t-149 27q-366 0 -467 -475l-56 -264q-35 -166 -14 -272.5t92 -154.5t187 -48q365 0 466 475zM671 -294q-4 -17 -18.5 -28t-31.5 -11h-80q-15 0 -25.5 11t-6.5 28l35 166q3 15 19 28t31 13h80q17 0 26 -13t6 -28zM1342 1643q-3 -14 -22 -14h-106
q-15 0 -20.5 5.5t-19.5 25.5l-126 198l-212 -198q-21 -19 -30.5 -25t-23.5 -6h-107q-18 0 -15 14q3 13 13 21l251 254q20 20 29 25t26 5h174q26 0 45 -30l141 -254q6 -8 3 -21z" />
    <glyph glyph-name="uni1ED9" unicode="&#x1ed9;" 
d="M1096 485q-49 -230 -195 -364.5t-367 -134.5q-220 0 -309 134.5t-40 364.5l33 156q49 231 195 365.5t366 134.5q221 0 310 -134.5t40 -365.5zM916 485l33 156q23 107 9.5 183.5t-66 117.5t-146.5 41q-139 0 -226 -89.5t-122 -252.5l-33 -156q-73 -342 202 -342
q139 0 226.5 89t122.5 253zM556 -294q-3 -17 -17.5 -28t-31.5 -11h-80q-15 0 -25.5 11t-7.5 28l36 166q3 15 18.5 28t30.5 13h80q17 0 26.5 -13t6.5 -28zM1155 1290q-3 -14 -22 -14h-106q-15 0 -21 5.5t-19 25.5l-126 198l-212 -198q-21 -19 -30.5 -25t-23.5 -6h-107
q-18 0 -15 14q3 13 12 21l251 254q21 20 30 25t26 5h174q26 0 44 -30l141 -254q7 -8 4 -21z" />
    <glyph glyph-name="uni1EDA" unicode="&#x1eda;" horiz-adv-x="1305" 
d="M1152 629l56 264q27 125 21 218t-40.5 148t-95.5 82t-149 27q-366 0 -467 -475l-56 -264q-35 -166 -14 -272.5t92 -154.5t187 -48q365 0 466 475zM1322 1932q-2 -8 -12 -16l-286 -258q-23 -20 -31 -25.5t-23 -5.5h-111q-18 0 -15 14q3 13 12 21l255 254q21 20 30 25t26 5
h135q23 0 20 -14zM1419 1161q9 -115 -23 -268l-56 -264q-36 -167 -102 -289.5t-156.5 -201t-200 -115.5t-231.5 -37q-121 0 -214.5 37t-152 115.5t-72.5 202.5t21 288l56 264q35 165 102.5 288.5t159 202.5t199.5 115.5t231 36.5t215.5 -37t149.5 -115q27 -36 44 -81
q61 39 77 97l22 106q4 22 39 24h83q23 0 24 -20q-32 -268 -215 -349z" />
    <glyph glyph-name="uni1EDB" unicode="&#x1edb;" 
d="M916 485l33 156q23 107 9.5 183.5t-66 117.5t-146.5 41q-139 0 -226 -89.5t-122 -252.5l-33 -156q-73 -342 202 -342q139 0 226.5 89t122.5 253zM1188 1581q-2 -8 -12 -16l-286 -258q-23 -20 -31 -25.5t-23 -5.5h-111q-18 0 -15 14q3 13 12 21l255 254q21 20 30 25t26 5
h135q23 0 20 -14zM1145 765q-2 -58 -16 -124l-33 -156q-49 -230 -195 -364.5t-367 -134.5q-220 0 -309 134.5t-40 364.5l33 156q49 231 195 365.5t366 134.5q221 0 311 -134q25 -39 39 -85q34 32 44 73l23 106q3 22 39 24h83q23 0 24 -20q-30 -254 -197 -340z" />
    <glyph glyph-name="uni1EDC" unicode="&#x1edc;" horiz-adv-x="1305" 
d="M1152 629l56 264q27 125 21 218t-40.5 148t-95.5 82t-149 27q-366 0 -467 -475l-56 -264q-35 -166 -14 -272.5t92 -154.5t187 -48q365 0 466 475zM1137 1641q-3 -14 -21 -14h-111q-10 0 -16.5 3t-11 9t-12.5 19l-177 258q-6 8 -4 16q3 14 25 14h135q26 0 44 -30l145 -254
q7 -8 4 -21zM1419 1161q9 -115 -23 -268l-56 -264q-36 -167 -102 -289.5t-156.5 -201t-200 -115.5t-231.5 -37q-121 0 -214.5 37t-152 115.5t-72.5 202.5t21 288l56 264q35 165 102.5 288.5t159 202.5t199.5 115.5t231 36.5t215.5 -37t149.5 -115q27 -36 44 -81q61 39 77 97
l22 106q4 22 39 24h83q23 0 24 -20q-32 -268 -215 -349z" />
    <glyph glyph-name="uni1EDD" unicode="&#x1edd;" 
d="M916 485l33 156q23 107 9.5 183.5t-66 117.5t-146.5 41q-139 0 -226 -89.5t-122 -252.5l-33 -156q-73 -342 202 -342q139 0 226.5 89t122.5 253zM929 1290q-3 -14 -21 -14h-111q-10 0 -16.5 3t-11 9t-12.5 19l-177 258q-6 8 -4 16q3 14 25 14h135q26 0 44 -30l145 -254
q7 -8 4 -21zM1145 765q-2 -58 -16 -124l-33 -156q-49 -230 -195 -364.5t-367 -134.5q-220 0 -309 134.5t-40 364.5l33 156q49 231 195 365.5t366 134.5q221 0 311 -134q25 -39 39 -85q34 32 44 73l23 106q3 22 39 24h83q23 0 24 -20q-30 -254 -197 -340z" />
    <glyph glyph-name="uni1EDE" unicode="&#x1ede;" horiz-adv-x="1305" 
d="M1152 629l56 264q27 125 21 218t-40.5 148t-95.5 82t-149 27q-366 0 -467 -475l-56 -264q-35 -166 -14 -272.5t92 -154.5t187 -48q365 0 466 475zM1017.5 1982.5q-32.5 -6.5 -81.5 -21.5q-61 -19 -51 30l9 41q3 14 14 22t22 12q29 12 78.5 23t98.5 11q90 0 137 -36
t31 -114l-2 -10q-5 -23 -17 -45t-35.5 -48t-64.5 -64l-47 -43q-29 -27 -34.5 -33.5t-12 -17t-9.5 -25.5l-9 -42q-3 -14 -18.5 -26t-36.5 -12h-37q-21 0 -31 12.5t-7 25.5l9 42q6 30 16 51.5t28 42.5t47 46l48 43q36 33 49 51.5t18 41.5l2 10q3 39 -39 39t-74.5 -6.5z
M1419 1161q9 -115 -23 -268l-56 -264q-36 -167 -102 -289.5t-156.5 -201t-200 -115.5t-231.5 -37q-121 0 -214.5 37t-152 115.5t-72.5 202.5t21 288l56 264q35 165 102.5 288.5t159 202.5t199.5 115.5t231 36.5t215.5 -37t149.5 -115q27 -36 44 -81q61 39 77 97l22 106
q4 22 39 24h83q23 0 24 -20q-32 -268 -215 -349z" />
    <glyph glyph-name="uni1EDF" unicode="&#x1edf;" 
d="M916 485l33 156q23 107 9.5 183.5t-66 117.5t-146.5 41q-139 0 -226 -89.5t-122 -252.5l-33 -156q-73 -342 202 -342q139 0 226.5 89t122.5 253zM819.5 1621.5q-32.5 -6.5 -81.5 -21.5q-61 -19 -51 30l9 41q3 14 14 22t22 12q29 12 78 23t98 11q90 0 137.5 -36t31.5 -114
l-3 -10q-4 -23 -16 -45t-35.5 -48t-64.5 -64l-47 -43q-29 -27 -35 -33.5t-12 -17t-9 -25.5l-9 -42q-3 -14 -18.5 -26t-36.5 -12h-37q-21 0 -31 12.5t-7 25.5l9 42q6 30 16 51.5t28 42.5t47 46l48 43q36 33 49 51.5t17 41.5l3 10q3 39 -39 39t-74.5 -6.5zM1145 765
q-2 -58 -16 -124l-33 -156q-49 -230 -195 -364.5t-367 -134.5q-220 0 -309 134.5t-40 364.5l33 156q49 231 195 365.5t366 134.5q221 0 311 -134q25 -39 39 -85q34 32 44 73l23 106q3 22 39 24h83q23 0 24 -20q-30 -254 -197 -340z" />
    <glyph glyph-name="uni1EE0" unicode="&#x1ee0;" horiz-adv-x="1305" 
d="M1152 629l56 264q27 125 21 218t-40.5 148t-95.5 82t-149 27q-366 0 -467 -475l-56 -264q-35 -166 -14 -272.5t92 -154.5t187 -48q365 0 466 475zM1411 1831q-23 -108 -80 -161.5t-158 -53.5q-76 0 -122 43l-104 100q-28 29 -41.5 37t-32.5 8q-35 0 -54 -23t-29 -71
l-10 -43q-3 -15 -15 -25t-27 -10h-64q-14 0 -21 10.5t-5 24.5l10 43q23 109 86.5 166t155.5 57q60 0 113 -49l120 -114q17 -14 34.5 -21.5t31.5 -7.5q32 0 51 20t29 70l10 47q3 14 16 24.5t27 10.5h64q13 0 20.5 -11t4.5 -24zM1419 1161q9 -115 -23 -268l-56 -264
q-36 -167 -102 -289.5t-156.5 -201t-200 -115.5t-231.5 -37q-121 0 -214.5 37t-152 115.5t-72.5 202.5t21 288l56 264q35 165 102.5 288.5t159 202.5t199.5 115.5t231 36.5t215.5 -37t149.5 -115q27 -36 44 -81q61 39 77 97l22 106q4 22 39 24h83q23 0 24 -20
q-32 -268 -215 -349z" />
    <glyph glyph-name="uni1EE1" unicode="&#x1ee1;" 
d="M916 485l33 156q23 107 9.5 183.5t-66 117.5t-146.5 41q-139 0 -226 -89.5t-122 -252.5l-33 -156q-73 -342 202 -342q139 0 226.5 89t122.5 253zM1231 1497q-23 -108 -80.5 -161.5t-158.5 -53.5q-76 0 -122 43l-103 100q-28 29 -42 37t-33 8q-35 0 -54 -23t-29 -71
l-9 -43q-3 -15 -15 -25t-27 -10h-64q-14 0 -21.5 10.5t-4.5 24.5l9 43q23 109 87 166t156 57q60 0 112 -49l121 -114q17 -14 34.5 -21.5t31.5 -7.5q32 0 50.5 20t29.5 70l10 47q3 14 15.5 24.5t26.5 10.5h64q13 0 21 -11t5 -24zM1145 765q-2 -58 -16 -124l-33 -156
q-49 -230 -195 -364.5t-367 -134.5q-220 0 -309 134.5t-40 364.5l33 156q49 231 195 365.5t366 134.5q221 0 311 -134q25 -39 39 -85q34 32 44 73l23 106q3 22 39 24h83q23 0 24 -20q-30 -254 -197 -340z" />
    <glyph glyph-name="uni1EE2" unicode="&#x1ee2;" horiz-adv-x="1305" 
d="M1152 629l56 264q27 125 21 218t-40.5 148t-95.5 82t-149 27q-366 0 -467 -475l-56 -264q-35 -166 -14 -272.5t92 -154.5t187 -48q365 0 466 475zM671 -294q-4 -17 -18.5 -28t-31.5 -11h-80q-15 0 -25.5 11t-6.5 28l35 166q3 15 19 28t31 13h80q17 0 26 -13t6 -28z
M1419 1161q9 -115 -23 -268l-56 -264q-36 -167 -102 -289.5t-156.5 -201t-200 -115.5t-231.5 -37q-121 0 -214.5 37t-152 115.5t-72.5 202.5t21 288l56 264q35 165 102.5 288.5t159 202.5t199.5 115.5t231 36.5t215.5 -37t149.5 -115q27 -36 44 -81q61 39 77 97l22 106
q4 22 39 24h83q23 0 24 -20q-32 -268 -215 -349z" />
    <glyph glyph-name="uni1EE3" unicode="&#x1ee3;" 
d="M916 485l33 156q23 107 9.5 183.5t-66 117.5t-146.5 41q-139 0 -226 -89.5t-122 -252.5l-33 -156q-73 -342 202 -342q139 0 226.5 89t122.5 253zM556 -294q-3 -17 -17.5 -28t-31.5 -11h-80q-15 0 -25.5 11t-7.5 28l36 166q3 15 18.5 28t30.5 13h80q17 0 26.5 -13t6.5 -28
zM1145 765q-2 -58 -16 -124l-33 -156q-49 -230 -195 -364.5t-367 -134.5q-220 0 -309 134.5t-40 364.5l33 156q49 231 195 365.5t366 134.5q221 0 311 -134q25 -39 39 -85q34 32 44 73l23 106q3 22 39 24h83q23 0 24 -20q-30 -254 -197 -340z" />
    <glyph glyph-name="uni1EE4" unicode="&#x1ee4;" horiz-adv-x="1294" 
d="M1289 553q-31 -145 -88 -252t-140.5 -177.5t-187 -104t-229.5 -33.5t-214 33.5t-141 104t-66 177.5t18 252l197 930q4 16 18 27.5t30 11.5h110q16 0 25 -10.5t5 -28.5l-197 -930q-44 -206 10.5 -307t238.5 -101q124 0 208.5 46t135 135.5t79.5 226.5l197 930
q4 16 18 27.5t30 11.5h111q16 0 24.5 -11t4.5 -28zM666 -294q-4 -17 -18.5 -28t-31.5 -11h-80q-15 0 -25.5 11t-6.5 28l35 166q3 15 19 28t31 13h80q17 0 26 -13t6 -28z" />
    <glyph glyph-name="uni1EE5" unicode="&#x1ee5;" horiz-adv-x="1087" 
d="M201 414l143 671q3 17 17 29t32 12h98q17 0 26.5 -12t6.5 -29l-143 -671q-32 -151 10.5 -213t168.5 -62q47 0 129 11t143 26l194 909q3 16 17 28.5t32 12.5h100q17 0 25.5 -12t5.5 -29l-210 -987q-8 -38 -48 -49q-259 -63 -437 -63q-151 0 -229.5 50t-94.5 143.5
t14 234.5zM556 -294q-3 -17 -17.5 -28t-31.5 -11h-80q-15 0 -25.5 11t-7.5 28l36 166q3 15 18.5 28t30.5 13h80q17 0 26.5 -13t6.5 -28z" />
    <glyph glyph-name="uni1EE6" unicode="&#x1ee6;" horiz-adv-x="1294" 
d="M1289 553q-31 -145 -88 -252t-140.5 -177.5t-187 -104t-229.5 -33.5t-214 33.5t-141 104t-66 177.5t18 252l197 930q4 16 18 27.5t30 11.5h110q16 0 25 -10.5t5 -28.5l-197 -930q-44 -206 10.5 -307t238.5 -101q124 0 208.5 46t135 135.5t79.5 226.5l197 930
q4 16 18 27.5t30 11.5h111q16 0 24.5 -11t4.5 -28zM1017.5 1982.5q-32.5 -6.5 -81.5 -21.5q-61 -19 -51 30l9 41q3 14 14.5 22t21.5 12q29 12 78.5 23t98.5 11q90 0 137 -36t31 -114l-2 -10q-5 -23 -17 -45t-35.5 -48t-64.5 -64l-47 -43q-29 -27 -34.5 -33.5t-12 -17
t-9.5 -25.5l-9 -42q-3 -14 -18.5 -26t-36.5 -12h-37q-21 0 -31 12.5t-7 25.5l9 42q6 30 16 51.5t28 42.5t47 46l48 43q36 33 49 51.5t18 41.5l2 10q3 39 -39 39t-74.5 -6.5z" />
    <glyph glyph-name="uni1EE7" unicode="&#x1ee7;" horiz-adv-x="1087" 
d="M201 414l143 671q3 17 17 29t32 12h98q17 0 26.5 -12t6.5 -29l-143 -671q-32 -151 10.5 -213t168.5 -62q47 0 129 11t143 26l194 909q3 16 17 28.5t32 12.5h100q17 0 25.5 -12t5.5 -29l-210 -987q-8 -38 -48 -49q-259 -63 -437 -63q-151 0 -229.5 50t-94.5 143.5
t14 234.5zM839.5 1621.5q-32.5 -6.5 -81.5 -21.5q-61 -19 -51 30l9 41q3 14 14.5 22t21.5 12q29 12 78.5 23t98.5 11q90 0 137 -36t31 -114l-2 -10q-5 -23 -17 -45t-35.5 -48t-64.5 -64l-47 -43q-29 -27 -34.5 -33.5t-12 -17t-9.5 -25.5l-9 -42q-3 -14 -18.5 -26t-36.5 -12
h-37q-21 0 -31 12.5t-7 25.5l9 42q6 30 16 51.5t28 42.5t47 46l48 43q36 33 49 51.5t18 41.5l2 10q3 39 -39 39t-74.5 -6.5z" />
    <glyph glyph-name="uni1EE8" unicode="&#x1ee8;" horiz-adv-x="1294" 
d="M1361 1932q-2 -8 -11 -16l-287 -258q-23 -20 -31 -25.5t-23 -5.5h-111q-18 0 -15 14q3 13 13 21l255 254q20 20 29 25t26 5h135q23 0 20 -14zM1414 1140l-125 -587q-31 -145 -88 -252t-140.5 -177.5t-187 -104t-229.5 -33.5t-214 33.5t-141 104t-66 177.5t18 252l197 930
q4 16 18 27.5t30 11.5h110q16 0 25 -10.5t5 -28.5l-197 -930q-44 -206 10.5 -307t238.5 -101q124 0 208.5 46t135 135.5t79.5 226.5l197 930q4 16 18 27.5t30 11.5h111q16 0 24.5 -11t4.5 -28l-37 -176q56 38 71 93l22 106q4 22 39 24h83q23 0 24 -20q-37 -310 -274 -370z
" />
    <glyph glyph-name="uni1EE9" unicode="&#x1ee9;" horiz-adv-x="1087" 
d="M1198 1581q-2 -8 -11 -16l-287 -258q-22 -20 -30.5 -25.5t-23.5 -5.5h-111q-18 0 -15 14q3 13 13 21l255 254q20 20 29 25t26 5h135q23 0 20 -14zM1132 740l-136 -642q-8 -38 -48 -49q-259 -63 -437 -63q-151 0 -229.5 50t-94.5 143.5t14 234.5l143 671q3 17 17 29t32 12
h98q17 0 26.5 -12t6.5 -29l-143 -671q-32 -151 10.5 -213t168.5 -62q47 0 129 11t143 26l194 909q3 16 17 28.5t32 12.5h100q17 0 25.5 -12t5.5 -29l-37 -170q42 35 53 80l23 106q4 22 39 24h83q23 0 24 -20q-36 -299 -259 -365z" />
    <glyph glyph-name="uni1EEA" unicode="&#x1eea;" horiz-adv-x="1294" 
d="M1115 1641q-3 -14 -21 -14h-111q-10 0 -16.5 3t-11 9t-12.5 19l-176 258q-7 8 -5 16q3 14 25 14h135q26 0 45 -30l145 -254q6 -8 3 -21zM1414 1140l-125 -587q-31 -145 -88 -252t-140.5 -177.5t-187 -104t-229.5 -33.5t-214 33.5t-141 104t-66 177.5t18 252l197 930
q4 16 18 27.5t30 11.5h110q16 0 25 -10.5t5 -28.5l-197 -930q-44 -206 10.5 -307t238.5 -101q124 0 208.5 46t135 135.5t79.5 226.5l197 930q4 16 18 27.5t30 11.5h111q16 0 24.5 -11t4.5 -28l-37 -176q56 38 71 93l22 106q4 22 39 24h83q23 0 24 -20q-37 -310 -274 -370z
" />
    <glyph glyph-name="uni1EEB" unicode="&#x1eeb;" horiz-adv-x="1087" 
d="M936 1290q-3 -14 -21 -14h-111q-10 0 -16.5 3t-11 9t-12.5 19l-176 258q-7 8 -5 16q3 14 25 14h135q26 0 45 -30l145 -254q6 -8 3 -21zM1132 740l-136 -642q-8 -38 -48 -49q-259 -63 -437 -63q-151 0 -229.5 50t-94.5 143.5t14 234.5l143 671q3 17 17 29t32 12h98
q17 0 26.5 -12t6.5 -29l-143 -671q-32 -151 10.5 -213t168.5 -62q47 0 129 11t143 26l194 909q3 16 17 28.5t32 12.5h100q17 0 25.5 -12t5.5 -29l-37 -170q42 35 53 80l23 106q4 22 39 24h83q23 0 24 -20q-36 -299 -259 -365z" />
    <glyph glyph-name="uni1EEC" unicode="&#x1eec;" horiz-adv-x="1294" 
d="M1017.5 1982.5q-32.5 -6.5 -81.5 -21.5q-61 -19 -51 30l9 41q3 14 14.5 22t21.5 12q29 12 78.5 23t98.5 11q90 0 137 -36t31 -114l-2 -10q-5 -23 -17 -45t-35.5 -48t-64.5 -64l-47 -43q-29 -27 -34.5 -33.5t-12 -17t-9.5 -25.5l-9 -42q-3 -14 -18.5 -26t-36.5 -12h-37
q-21 0 -31 12.5t-7 25.5l9 42q6 30 16 51.5t28 42.5t47 46l48 43q36 33 49 51.5t18 41.5l2 10q3 39 -39 39t-74.5 -6.5zM1414 1140l-125 -587q-31 -145 -88 -252t-140.5 -177.5t-187 -104t-229.5 -33.5t-214 33.5t-141 104t-66 177.5t18 252l197 930q4 16 18 27.5t30 11.5
h110q16 0 25 -10.5t5 -28.5l-197 -930q-44 -206 10.5 -307t238.5 -101q124 0 208.5 46t135 135.5t79.5 226.5l197 930q4 16 18 27.5t30 11.5h111q16 0 24.5 -11t4.5 -28l-37 -176q56 38 71 93l22 106q4 22 39 24h83q23 0 24 -20q-37 -310 -274 -370z" />
    <glyph glyph-name="uni1EED" unicode="&#x1eed;" horiz-adv-x="1087" 
d="M839.5 1621.5q-32.5 -6.5 -81.5 -21.5q-61 -19 -51 30l9 41q3 14 14.5 22t21.5 12q29 12 78.5 23t98.5 11q90 0 137 -36t31 -114l-2 -10q-5 -23 -17 -45t-35.5 -48t-64.5 -64l-47 -43q-29 -27 -34.5 -33.5t-12 -17t-9.5 -25.5l-9 -42q-3 -14 -18.5 -26t-36.5 -12h-37
q-21 0 -31 12.5t-7 25.5l9 42q6 30 16 51.5t28 42.5t47 46l48 43q36 33 49 51.5t18 41.5l2 10q3 39 -39 39t-74.5 -6.5zM1132 740l-136 -642q-8 -38 -48 -49q-259 -63 -437 -63q-151 0 -229.5 50t-94.5 143.5t14 234.5l143 671q3 17 17 29t32 12h98q17 0 26.5 -12t6.5 -29
l-143 -671q-32 -151 10.5 -213t168.5 -62q47 0 129 11t143 26l194 909q3 16 17 28.5t32 12.5h100q17 0 25.5 -12t5.5 -29l-37 -170q42 35 53 80l23 106q4 22 39 24h83q23 0 24 -20q-36 -299 -259 -365z" />
    <glyph glyph-name="uni1EEE" unicode="&#x1eee;" horiz-adv-x="1294" 
d="M1411 1831q-22 -108 -79.5 -161.5t-158.5 -53.5q-76 0 -122 43l-104 100q-28 29 -41.5 37t-32.5 8q-35 0 -54 -23t-29 -71l-9 -43q-4 -15 -16 -25t-27 -10h-64q-14 0 -21 10.5t-4 24.5l9 43q23 109 86.5 166t155.5 57q60 0 113 -49l121 -114q17 -14 34 -21.5t31 -7.5
q32 0 51 20t29 70l10 47q3 14 16 24.5t27 10.5h64q13 0 20.5 -11t4.5 -24zM1414 1140l-125 -587q-31 -145 -88 -252t-140.5 -177.5t-187 -104t-229.5 -33.5t-214 33.5t-141 104t-66 177.5t18 252l197 930q4 16 18 27.5t30 11.5h110q16 0 25 -10.5t5 -28.5l-197 -930
q-44 -206 10.5 -307t238.5 -101q124 0 208.5 46t135 135.5t79.5 226.5l197 930q4 16 18 27.5t30 11.5h111q16 0 24.5 -11t4.5 -28l-37 -176q56 38 71 93l22 106q4 22 39 24h83q23 0 24 -20q-37 -310 -274 -370z" />
    <glyph glyph-name="uni1EEF" unicode="&#x1eef;" horiz-adv-x="1087" 
d="M1231 1497q-23 -108 -80.5 -161.5t-158.5 -53.5q-76 0 -121 43l-104 100q-28 29 -42 37t-33 8q-35 0 -53.5 -23t-29.5 -71l-9 -43q-3 -15 -15 -25t-27 -10h-64q-14 0 -21.5 10.5t-4.5 24.5l9 43q24 109 87.5 166t155.5 57q60 0 112 -49l121 -114q17 -14 34.5 -21.5
t31.5 -7.5q32 0 51 20t29 70l10 47q3 14 16 24.5t27 10.5h64q13 0 20.5 -11t4.5 -24zM1132 740l-136 -642q-8 -38 -48 -49q-259 -63 -437 -63q-151 0 -229.5 50t-94.5 143.5t14 234.5l143 671q3 17 17 29t32 12h98q17 0 26.5 -12t6.5 -29l-143 -671q-32 -151 10.5 -213
t168.5 -62q47 0 129 11t143 26l194 909q3 16 17 28.5t32 12.5h100q17 0 25.5 -12t5.5 -29l-37 -170q42 35 53 80l23 106q4 22 39 24h83q23 0 24 -20q-36 -299 -259 -365z" />
    <glyph glyph-name="uni1EF0" unicode="&#x1ef0;" horiz-adv-x="1294" 
d="M666 -294q-4 -17 -18.5 -28t-31.5 -11h-80q-15 0 -25.5 11t-6.5 28l35 166q3 15 19 28t31 13h80q17 0 26 -13t6 -28zM1414 1140l-125 -587q-31 -145 -88 -252t-140.5 -177.5t-187 -104t-229.5 -33.5t-214 33.5t-141 104t-66 177.5t18 252l197 930q4 16 18 27.5t30 11.5
h110q16 0 25 -10.5t5 -28.5l-197 -930q-44 -206 10.5 -307t238.5 -101q124 0 208.5 46t135 135.5t79.5 226.5l197 930q4 16 18 27.5t30 11.5h111q16 0 24.5 -11t4.5 -28l-37 -176q56 38 71 93l22 106q4 22 39 24h83q23 0 24 -20q-37 -310 -274 -370z" />
    <glyph glyph-name="uni1EF1" unicode="&#x1ef1;" horiz-adv-x="1087" 
d="M201 414l143 671q3 17 17 29t32 12h98q17 0 26.5 -12t6.5 -29l-143 -671q-32 -151 10.5 -213t168.5 -62q47 0 129 11t143 26l194 909q3 16 17 28.5t32 12.5h100q17 0 25.5 -12t5.5 -29l-210 -987q-8 -38 -48 -49q-259 -63 -437 -63q-151 0 -229.5 50t-94.5 143.5
t14 234.5zM556 -294q-3 -17 -17.5 -28t-31.5 -11h-80q-15 0 -25.5 11t-7.5 28l36 166q3 15 18.5 28t30.5 13h80q17 0 26.5 -13t6.5 -28zM1391 1105q-41 -344 -330 -380l18 140q122 46 143 130l23 106q4 22 39 24h83q23 0 24 -20z" />
    <glyph glyph-name="Ygrave" unicode="&#x1ef2;" horiz-adv-x="1167" 
d="M1427 1493q-2 -9 -11 -23l-469 -712q-70 -108 -139 -135l-124 -582q-3 -17 -16.5 -29t-28.5 -12h-113q-15 0 -23.5 12t-5.5 29l124 582q-55 23 -81 135l-165 712q-3 14 -1 23q2 12 13.5 20.5t27.5 8.5h125q10 0 19.5 -9.5t11.5 -19.5l142 -664q12 -53 36 -53q23 0 58 53
l425 664q21 29 41 29h125q16 0 24 -8t5 -21zM1114 1641q-3 -14 -21 -14h-111q-10 0 -16 3t-11 9t-13 19l-176 258q-6 8 -5 16q3 14 25 14h135q26 0 45 -30l145 -254q6 -8 3 -21z" />
    <glyph glyph-name="ygrave" unicode="&#x1ef3;" horiz-adv-x="1065" 
d="M1231 1092q-2 -11 -5 -15l-589 -1179q-57 -117 -113 -181t-132 -93.5t-193 -29.5q-90 0 -168 19q-41 10 -36 33l16 75q7 33 46 33h6q132 -12 179 -12q91 0 142 35.5t98 138.5l38 84h-28q-55 0 -84.5 26t-37.5 115l-73 936q-1 4 1 15q7 34 43 34h113q12 0 20 -10t9 -22
l53 -889q1 -45 28 -45h33l449 936q6 13 18.5 21.5t26.5 8.5h115q32 0 25 -34zM936 1290q-3 -14 -21 -14h-111q-10 0 -16 3t-11 9t-13 19l-176 258q-7 8 -5 16q3 14 25 14h135q26 0 45 -30l145 -254q6 -8 3 -21z" />
    <glyph glyph-name="uni1EF4" unicode="&#x1ef4;" horiz-adv-x="1167" 
d="M1427 1493q-2 -9 -11 -23l-469 -712q-70 -108 -139 -135l-124 -582q-3 -17 -16.5 -29t-28.5 -12h-113q-15 0 -23.5 12t-5.5 29l124 582q-55 23 -81 135l-165 712q-3 14 -1 23q2 12 13.5 20.5t27.5 8.5h125q10 0 19.5 -9.5t11.5 -19.5l142 -664q12 -53 36 -53q23 0 58 53
l425 664q21 29 41 29h125q16 0 24 -8t5 -21zM605 -294q-4 -17 -18 -28t-31 -11h-80q-15 0 -26 11t-7 28l35 166q4 15 19.5 28t30.5 13h80q17 0 26.5 -13t5.5 -28z" />
    <glyph glyph-name="uni1EF5" unicode="&#x1ef5;" horiz-adv-x="1065" 
d="M1231 1092q-2 -11 -5 -15l-589 -1179q-57 -117 -113 -181t-132 -93.5t-193 -29.5q-90 0 -168 19q-41 10 -36 33l16 75q7 33 46 33h6q132 -12 179 -12q91 0 142 35.5t98 138.5l38 84h-28q-55 0 -84.5 26t-37.5 115l-73 936q-1 4 1 15q7 34 43 34h113q12 0 20 -10t9 -22
l53 -889q1 -45 28 -45h33l449 936q6 13 18.5 21.5t26.5 8.5h115q32 0 25 -34zM817 -294q-4 -17 -18.5 -28t-31.5 -11h-80q-15 0 -25.5 11t-6.5 28l35 166q3 15 19 28t31 13h80q17 0 26 -13t6 -28z" />
    <glyph glyph-name="uni1EF6" unicode="&#x1ef6;" horiz-adv-x="1167" 
d="M1427 1493q-2 -9 -11 -23l-469 -712q-70 -108 -139 -135l-124 -582q-3 -17 -16.5 -29t-28.5 -12h-113q-15 0 -23.5 12t-5.5 29l124 582q-55 23 -81 135l-165 712q-3 14 -1 23q2 12 13.5 20.5t27.5 8.5h125q10 0 19.5 -9.5t11.5 -19.5l142 -664q12 -53 36 -53q23 0 58 53
l425 664q21 29 41 29h125q16 0 24 -8t5 -21zM967 1982.5q-32 -6.5 -82 -21.5q-61 -19 -50 30l8 41q3 14 14.5 22t22.5 12q28 12 77.5 23t98.5 11q90 0 137.5 -36t30.5 -114l-2 -10q-5 -23 -16.5 -45t-35 -48t-64.5 -64l-48 -43q-28 -27 -34 -33.5t-12.5 -17t-9.5 -25.5
l-9 -42q-3 -14 -18.5 -26t-36.5 -12h-37q-21 0 -30.5 12.5t-7.5 25.5l9 42q7 30 17 51.5t28 42.5t46 46l48 43q36 33 49 51.5t18 41.5l2 10q3 39 -39 39t-74 -6.5z" />
    <glyph glyph-name="uni1EF7" unicode="&#x1ef7;" horiz-adv-x="1065" 
d="M1231 1092q-2 -11 -5 -15l-589 -1179q-57 -117 -113 -181t-132 -93.5t-193 -29.5q-90 0 -168 19q-41 10 -36 33l16 75q7 33 46 33h6q132 -12 179 -12q91 0 142 35.5t98 138.5l38 84h-28q-55 0 -84.5 26t-37.5 115l-73 936q-1 4 1 15q7 34 43 34h113q12 0 20 -10t9 -22
l53 -889q1 -45 28 -45h33l449 936q6 13 18.5 21.5t26.5 8.5h115q32 0 25 -34zM839.5 1621.5q-32.5 -6.5 -81.5 -21.5q-61 -19 -50 30l8 41q3 14 14.5 22t22.5 12q28 12 77.5 23t98.5 11q90 0 137 -36t31 -114l-2 -10q-5 -23 -16.5 -45t-35.5 -48t-65 -64l-47 -43
q-28 -27 -34 -33.5t-12.5 -17t-9.5 -25.5l-9 -42q-3 -14 -18.5 -26t-36.5 -12h-37q-21 0 -31 12.5t-7 25.5l9 42q6 30 16.5 51.5t28.5 42.5t46 46l48 43q36 33 49 51.5t18 41.5l2 10q3 39 -39 39t-74.5 -6.5z" />
    <glyph glyph-name="uni1EF8" unicode="&#x1ef8;" horiz-adv-x="1167" 
d="M1427 1493q-2 -9 -11 -23l-469 -712q-70 -108 -139 -135l-124 -582q-3 -17 -16.5 -29t-28.5 -12h-113q-15 0 -23.5 12t-5.5 29l124 582q-55 23 -81 135l-165 712q-3 14 -1 23q2 12 13.5 20.5t27.5 8.5h125q10 0 19.5 -9.5t11.5 -19.5l142 -664q12 -53 36 -53q23 0 58 53
l425 664q21 29 41 29h125q16 0 24 -8t5 -21zM1360 1831q-23 -108 -80.5 -161.5t-158.5 -53.5q-76 0 -122 43l-104 100q-27 29 -41 37t-33 8q-35 0 -54 -23t-29 -71l-9 -43q-3 -15 -15.5 -25t-27.5 -10h-64q-14 0 -21 10.5t-4 24.5l9 43q23 109 86.5 166t155.5 57
q60 0 113 -49l121 -114q17 -14 34.5 -21.5t31.5 -7.5q32 0 50.5 20t29.5 70l10 47q3 14 15.5 24.5t26.5 10.5h64q13 0 21 -11t5 -24z" />
    <glyph glyph-name="uni1EF9" unicode="&#x1ef9;" horiz-adv-x="1065" 
d="M1231 1092q-2 -11 -5 -15l-589 -1179q-57 -117 -113 -181t-132 -93.5t-193 -29.5q-90 0 -168 19q-41 10 -36 33l16 75q7 33 46 33h6q132 -12 179 -12q91 0 142 35.5t98 138.5l38 84h-28q-55 0 -84.5 26t-37.5 115l-73 936q-1 4 1 15q7 34 43 34h113q12 0 20 -10t9 -22
l53 -889q1 -45 28 -45h33l449 936q6 13 18.5 21.5t26.5 8.5h115q32 0 25 -34zM1231 1497q-23 -108 -80 -161.5t-158 -53.5q-76 0 -122 43l-104 100q-28 29 -41.5 37t-32.5 8q-35 0 -54 -23t-29 -71l-10 -43q-3 -15 -15 -25t-27 -10h-64q-14 0 -21.5 10.5t-4.5 24.5l10 43
q23 109 86.5 166t155.5 57q60 0 113 -49l120 -114q17 -14 34.5 -21.5t31.5 -7.5q32 0 51 20t29 70l10 47q3 14 16 24.5t27 10.5h64q13 0 20.5 -11t4.5 -24z" />
    <glyph glyph-name="quoteleft" unicode="&#x2018;" horiz-adv-x="362" 
d="M651 1520q-3 -13 -6 -19l-159 -387q-16 -39 -49 -39h-137q-23 0 -18 23q2 10 5 16l208 387q19 39 47 39h94q19 0 15 -20z" />
    <glyph glyph-name="quoteright" unicode="&#x2019;" horiz-adv-x="362" 
d="M635 1518q-2 -11 -5 -17l-208 -387q-19 -39 -47 -39h-94q-18 0 -14 21q3 12 6 18l159 387q16 39 49 39h137q22 0 17 -22z" />
    <glyph glyph-name="quotedblleft" unicode="&#x201c;" horiz-adv-x="672" 
d="M960 1520q-3 -13 -6 -19l-159 -387q-16 -39 -49 -39h-137q-23 0 -18 23q2 10 5 16l208 387q20 39 47 39h94q19 0 15 -20zM636 1520q-3 -13 -6 -19l-158 -387q-17 -39 -49 -39h-138q-22 0 -17 23q2 10 5 16l208 387q19 39 47 39h94q18 0 14 -20z" />
    <glyph glyph-name="quotedblright" unicode="&#x201d;" horiz-adv-x="672" 
d="M959 1518q-2 -11 -5 -17l-208 -387q-19 -39 -47 -39h-94q-19 0 -15 21q3 12 6 18l159 387q16 39 49 39h137q23 0 18 -22zM635 1518q-2 -11 -5 -17l-208 -387q-19 -39 -47 -39h-94q-18 0 -14 21q3 12 6 18l159 387q16 39 49 39h137q22 0 17 -22z" />
    <glyph glyph-name="ellipsis" unicode="&#x2026;" horiz-adv-x="1200" 
d="M1127 39q-4 -17 -18 -28t-30 -11h-114q-17 0 -26.5 11t-5.5 28l40 192q4 16 18.5 27.5t31.5 11.5h114q17 0 25.5 -11t4.5 -28zM707 39q-4 -17 -18.5 -28t-31.5 -11h-114q-16 0 -25 11.5t-5 27.5l40 192q4 15 18 27t30 12h114q18 0 27 -11.5t5 -27.5zM285 39
q-4 -17 -17.5 -28t-29.5 -11h-115q-17 0 -26.5 11t-5.5 28l40 192q4 16 18.5 27.5t31.5 11.5h115q17 0 25 -11.5t4 -27.5z" />
    <glyph glyph-name="trademark" unicode="&#x2122;" horiz-adv-x="1034" 
d="M741 1470q-4 -18 -26 -18h-130l-95 -446q-4 -21 -24 -21h-43q-20 0 -16 21l95 446h-132q-20 0 -16 18l7 33q4 21 24 21h345q9 0 14.5 -5.5t3.5 -15.5zM972 1198q-28 0 -42 15t-21 44l-43 168h-2l-90 -426q-3 -14 -17 -14h-49q-15 0 -12 14l106 502q2 7 10.5 14t15.5 7h82
q17 0 19 -13l52 -231q1 -8 6 -8t10 8l149 231q8 13 26 13h82q7 0 12 -6.5t3 -14.5l-106 -502q-3 -14 -17 -14h-49q-15 0 -12 14l90 426h-2l-112 -168q-21 -29 -41 -44t-48 -15z" />
    <glyph glyph-name="glyph102" horiz-adv-x="872" 
d="M1172 1192q517 -15 616 -308q16 -49 16 -100v-20q0 -188 -188 -328q-61 -40 -84 -40v96q176 126 176 272v28q0 212 -316 308q-122 24 -236 24h-16q-367 0 -744 -184l-4 4v28q86 68 320 148q246 72 460 72zM1380 912h84l8 -8v-500l-8 -8q-82 0 -92 112v396zM272 900h80
l8 -8v-76l-8 -8h-80l-8 8v76zM816 860h80l8 -8v-92h60l8 -8v-60l-8 -8h-60v-180q0 -21 16 -28h44l8 -8v-68l-8 -8h-36q-120 0 -120 108v352zM196 848l4 -4v-44q-124 -149 -124 -308q0 -288 392 -352q84 -16 212 -16q440 0 816 200l4 -4v-128q-76 -60 -308 -124
q-240 -68 -492 -68h-8q-553 0 -676 344q-16 77 -16 124q0 203 196 380zM1164 768q109 0 148 -108q12 -42 12 -84v-20l-8 -8h-228q0 -80 88 -80q39 0 76 32h4l56 -52q-53 -60 -124 -60h-36q-122 0 -156 144l-4 48q19 188 172 188zM272 760h80l8 -8v-356l-4 -4v-4
q-92 19 -92 88v276zM448 760h192q104 0 104 -136v-224l-8 -8h-84l-8 8v264q-10 20 -32 20h-76v-284l-8 -8h-80l-8 8v352zM1088 612h140v4q-9 72 -64 72h-4q-64 0 -72 -76zM1607 883q0 -12 -6 -21.5t-15.5 -15t-19.5 -5.5q-12 0 -21.5 5.5t-15 15t-5.5 21.5q0 11 5.5 20.5
t15 15t21.5 5.5q11 0 20 -5.5t15 -15t6 -20.5zM1598 883q0 13 -9.5 22.5t-22.5 9.5q-14 0 -23.5 -9.5t-9.5 -22.5q0 -10 4.5 -17t11.5 -11.5t17 -4.5q9 0 16 4.5t11.5 11.5t4.5 17zM1558 877v-15q0 -3 -2 -3h-5q-3 0 -3 3v41q0 3 3 4h13q20 0 20 -14q0 -11 -9 -14l10 -16
v-2.5t-2 -1.5h-7q-1 0 -2 2l-9 16h-7zM1558 885h5q6 0 8.5 1.5t2.5 5.5q0 8 -11 8h-5v-15z" />
    <glyph glyph-name="ugrave" horiz-adv-x="582" 
 />
    <glyph glyph-name="uacute" horiz-adv-x="580" 
 />
    <glyph glyph-name="yacute" horiz-adv-x="629" 
 />
    </font>
</defs>
</svg>
