<?xml version="1.0" standalone="no"?>
<!DOCTYPE svg PUBLIC "-//W3C//DTD SVG 1.1//EN" "http://www.w3.org/Graphics/SVG/1.1/DTD/svg11.dtd" >
<svg xmlns="http://www.w3.org/2000/svg" xmlns:xlink="http://www.w3.org/1999/xlink" version="1.1">
<metadata>
Created by FontForge 20170731 at Sat Aug  7 15:00:53 2021
 By Aleksey,,,
Copyright (c) 2015 by Radomir Tinkov. All rights reserved.
</metadata>
<defs>
<font id="SVN-GilroyHeavyItalic" horiz-adv-x="1259" >
  <font-face 
    font-family="SVN-Gilroy Heavy"
    font-weight="900"
    font-style="italic"
    font-stretch="normal"
    units-per-em="2048"
    panose-1="0 0 10 0 0 0 0 0 0 0"
    ascent="1638"
    descent="-410"
    x-height="1024"
    cap-height="1434"
    bbox="-848 -567 2399.44 2226"
    underline-thickness="102"
    underline-position="-307"
    slope="-10"
    unicode-range="U+0020-FB02"
  />
<missing-glyph horiz-adv-x="1024" 
d="M190 1638h650v-2048h-650v2048zM682 1434v67h-338v-67h133v-76h-135v-68h340v68h-135v76h135zM547 1094v143h-205v-213h340v70h-135zM410 1167h67v-73h-67v73zM682 901v68h-340v-68h135v-76h-135v-67h205v143h135zM682 641v205h-68v-135h-272v-70h340zM682 365v231h-205
v-115h70v47h67v-96h-204v164h-68v-231h340zM682 10v232h-340v-232h340zM410 174h204v-96h-204v96zM682 -104v67h-340v-67h143l-143 -97v-67h340v67h-209l143 97h66z" />
    <glyph glyph-name="fi" unicode="fi" horiz-adv-x="1171" 
d="M590 1024h573l-180 -1024h-340l123 698h-234l-122 -698h-340l123 698h-127l55 326h129q38 226 183.5 333t410.5 107q134 0 260 -30l-51 -297q-111 18 -224 18q-215 0 -239 -131z" />
    <glyph glyph-name="fl" unicode="fl" horiz-adv-x="1171" 
d="M844 1464q180 0 391 -41l-252 -1423h-340l207 1174q-14 2 -62 2q-168 0 -198 -152h135l-57 -326h-136l-122 -698h-340l123 698h-127l55 326h129q38 226 183.5 333t410.5 107z" />
    <glyph glyph-name="f_f" unicode="ff" horiz-adv-x="1253" 
d="M1425 1485l-55 -316q-172 12 -196 -125l-5 -20h174l-55 -326h-176l-123 -698h-342l123 698h-238l-122 -698h-340l123 698h-127l55 326h129q83 470 594 440l-56 -315q-171 12 -198 -125h237l4 20q83 471 594 441z" />
    <glyph glyph-name="f_f_i" unicode="ffi" horiz-adv-x="1751" 
d="M1169 1024h574l-180 -1024h-342l122 698h-231l-123 -698h-342l123 698h-238l-122 -698h-340l123 698h-127l55 326h129q41 229 191.5 341t402.5 99l-56 -315q-171 12 -198 -125h237l4 20q77 441 584 441q141 0 271 -31l-52 -297q-117 19 -223 19q-216 0 -237 -132z" />
    <glyph glyph-name="f_f_l" unicode="ffl" horiz-adv-x="1751" 
d="M1425 1485q181 0 392 -41l-254 -1444h-342l211 1194q-14 2 -62 2q-169 0 -196 -152l-5 -20h134l-56 -326h-135l-123 -698h-342l123 698h-238l-122 -698h-340l123 698h-127l55 326h129q83 470 594 440l-56 -315q-171 12 -198 -125h237l4 20q38 226 183.5 333.5
t410.5 107.5z" />
    <glyph glyph-name=".notdef" horiz-adv-x="1024" 
d="M190 1638h650v-2048h-650v2048zM682 1434v67h-338v-67h133v-76h-135v-68h340v68h-135v76h135zM547 1094v143h-205v-213h340v70h-135zM410 1167h67v-73h-67v73zM682 901v68h-340v-68h135v-76h-135v-67h205v143h135zM682 641v205h-68v-135h-272v-70h340zM682 365v231h-205
v-115h70v47h67v-96h-204v164h-68v-231h340zM682 10v232h-340v-232h340zM410 174h204v-96h-204v96zM682 -104v67h-340v-67h143l-143 -97v-67h340v67h-209l143 97h66z" />
    <glyph glyph-name=".null" horiz-adv-x="0" 
 />
    <glyph glyph-name="nonmarkingreturn" horiz-adv-x="682" 
 />
    <glyph glyph-name="space" unicode=" " horiz-adv-x="464" 
 />
    <glyph glyph-name="exclam" unicode="!" horiz-adv-x="602" 
d="M444 522h-282l20 502l72 410h418l-72 -410zM205 -29q-88 0 -139.5 63.5t-34.5 153.5q17 89 88 149t162 60q88 0 140.5 -64.5t35.5 -152.5q-17 -92 -86.5 -150.5t-165.5 -58.5z" />
    <glyph glyph-name="quotedbl" unicode="&#x22;" horiz-adv-x="905" 
d="M434 903h-233l53 531h315zM842 903h-234l51 531h316z" />
    <glyph glyph-name="numbersign" unicode="#" horiz-adv-x="1292" 
d="M1343 1034l-81 -246h-207l-49 -143h206l-82 -246h-208l-103 -297h-262l102 297h-167l-103 -297h-262l102 297h-209l82 246h211l49 143h-208l82 246h210l103 297h262l-102 -297h168l102 297h262l-102 -297h204zM575 645h168l50 143h-168z" />
    <glyph glyph-name="dollar" unicode="$" horiz-adv-x="1161" 
d="M743 862q16 -7 51.5 -22t63.5 -29q30 -11 57 -29q78 -46 101 -73q126 -126 86 -330q-35 -188 -174 -293.5t-355 -116.5l-30 -174h-144l33 180q-168 20 -279.5 109.5t-150.5 230.5l324 168q53 -137 166 -164l45 248l-29 13q-86 36 -146.5 75t-113.5 95q-110 117 -76 313
q35 189 180 293q143 105 342 108l31 174h143l-32 -188q252 -58 350 -303l-316 -168q-39 86 -98 119l-41 -232q1 -1 6 -2t6 -2zM532 1030q-12 -60 68 -104l33 192q-85 -15 -101 -88zM737 414q9 58 -67 98l-35 -193q87 21 102 95z" />
    <glyph glyph-name="percent" unicode="%" horiz-adv-x="1685" 
d="M496 729q-164 0 -252 111q-89 114 -68 260q24 153 141 258q118 106 291 106q167 0 254 -118q89 -118 62 -271q-30 -145 -148 -248q-113 -98 -280 -98zM365 141l-129 86l1118 1024l129 -84zM530 989q35 0 65 19.5t44.5 48t17.5 60.5t-18 57q-18 24 -49.5 29t-61 -6.5
t-53 -38.5t-26.5 -60q-10 -47 13 -78t68 -31zM1155 -29q-166 0 -254 113q-89 115 -65 264t141 254q120 105 289 105q164 0 252 -117q90 -116 63 -268q-27 -147 -145 -250q-113 -101 -281 -101zM1188 231q46 0 81.5 31.5t43.5 75.5q8 48 -15.5 78t-70.5 30q-45 0 -79.5 -30.5
t-41.5 -77.5q-10 -44 14 -75.5t68 -31.5z" />
    <glyph glyph-name="ampersand" unicode="&#x26;" horiz-adv-x="1425" 
d="M1071 764l277 -176q-86 -173 -185 -299l156 -213l-303 -154l-109 146q-169 -99 -385 -99q-247 0 -372 131q-128 134 -93 328q47 258 312 389q-56 127 -35 254q26 177 170 287q141 106 346 106q357 0 477 -325l-332 -174q-53 151 -166 151q-52 0 -89 -28.5t-44 -77.5
q-3 -33 9 -70q3 -9 6 -17t5.5 -14.5t7.5 -14.5t7.5 -12.5t10 -15t11 -15.5t14 -19.5t15.5 -22.5l189 -256q58 99 100 211zM592 287q66 0 133 28l-193 260q-4 4 -4 7q-85 -52 -100 -142q-12 -68 31.5 -110.5t132.5 -42.5z" />
    <glyph glyph-name="quotesingle" unicode="'" horiz-adv-x="497" 
d="M434 903h-233l53 531h315z" />
    <glyph glyph-name="parenleft" unicode="(" horiz-adv-x="669" 
d="M532 -205h-335q-70 214 -87 456.5t23 496.5q83 470 383 890h342q-304 -446 -387 -921.5t61 -921.5z" />
    <glyph glyph-name="parenright" unicode=")" horiz-adv-x="667" 
d="M209 1638h336q70 -213 86.5 -456t-23.5 -496q-83 -471 -383 -891h-342q304 446 387 921.5t-61 921.5z" />
    <glyph glyph-name="asterisk" unicode="*" horiz-adv-x="829" 
d="M674 1219l190 20l-35 -197l-182 21l90 -143l-174 -103l-57 168l-117 -168l-153 103l139 143l-189 -21l35 197l182 -20l-90 143l174 102l58 -168l117 168l153 -102z" />
    <glyph glyph-name="plus" unicode="+" horiz-adv-x="1146" 
d="M801 879h327l-57 -324h-328l-57 -328h-326l58 328h-328l60 324h327l58 327h323z" />
    <glyph glyph-name="comma" unicode="," horiz-adv-x="618" 
d="M131 356h377l-287 -643h-274z" />
    <glyph glyph-name="hyphen" unicode="-" horiz-adv-x="1024" 
d="M901 455h-799l58 323h798z" />
    <glyph glyph-name="period" unicode="." horiz-adv-x="591" 
d="M201 -29q-88 0 -139.5 63.5t-34.5 153.5q17 89 87.5 149t161.5 60q88 0 140 -64.5t35 -152.5q-17 -92 -86 -150.5t-164 -58.5z" />
    <glyph glyph-name="slash" unicode="/" horiz-adv-x="1064" 
d="M1212 1638l-1134 -1843h-154l1135 1843h153z" />
    <glyph glyph-name="zero" unicode="0" horiz-adv-x="1290" 
d="M1272 696q-61 -339 -244 -534q-181 -193 -463 -193q-280 0 -407 213q-126 215 -68 555q58 337 242 533q185 194 465 194q281 0 407 -215q127 -212 68 -553zM612 326q224 0 295 391q68 391 -157 391t-293 -391q-71 -391 155 -391z" />
    <glyph glyph-name="one" unicode="1" horiz-adv-x="849" 
d="M150 1294l413 140h316l-252 -1434h-367l182 1032l-260 -63z" />
    <glyph glyph-name="two" unicode="2" horiz-adv-x="1105" 
d="M958 0h-1003l45 266l569 502q157 139 172 223q11 51 -15.5 84t-80.5 33q-123 0 -217 -156l-297 183q96 161 243 245t318 84q201 0 326 -137q129 -135 92 -346q-23 -122 -86 -217t-193 -207l-237 -203h426z" />
    <glyph glyph-name="three" unicode="3" horiz-adv-x="1122" 
d="M233 1434h932l-51 -289l-289 -305q127 -53 190.5 -162t39.5 -252q-41 -229 -203 -342q-160 -115 -383 -115q-182 0 -307 82.5t-174 241.5l336 174q44 -141 184 -141q160 0 184 135q11 62 -25.5 97.5t-111.5 35.5h-76l-104 209l266 280h-469z" />
    <glyph glyph-name="four" unicode="4" horiz-adv-x="1183" 
d="M1032 553h144l-60 -334h-143l-39 -219h-365l39 219h-628l59 334l569 881h418l-573 -881h215l45 258h364z" />
    <glyph glyph-name="five" unicode="5" horiz-adv-x="1124" 
d="M1169 1434l-61 -351h-502l-39 -153h88q206 0 330 -133q125 -131 84 -367q-40 -225 -203 -344q-164 -117 -381 -117q-388 0 -497 324l338 176q46 -143 198 -143q75 0 123.5 35.5t59.5 95.5q11 62 -23.5 98.5t-105.5 36.5h-461l207 842h845z" />
    <glyph glyph-name="six" unicode="6" horiz-adv-x="1146" 
d="M1130 1434l-382 -463q185 -34 288 -180q104 -147 70 -336q-40 -224 -203 -355q-162 -131 -403 -131q-249 0 -381 150q-131 149 -90 377q30 177 143 299l530 639h428zM741 475q13 80 -26.5 126t-116.5 46q-79 0 -135.5 -46t-69.5 -126q-13 -81 26 -125.5t118 -44.5
q77 0 134 46t70 124z" />
    <glyph glyph-name="seven" unicode="7" horiz-adv-x="1003" 
d="M100 1079l64 355h969l-52 -304l-632 -1130h-410l606 1079h-545z" />
    <glyph glyph-name="eight" unicode="8" horiz-adv-x="1165" 
d="M1161 1026q-35 -187 -198 -287q82 -61 117 -154.5t16 -199.5q-35 -199 -186 -306.5t-402 -107.5q-259 0 -387 125q-127 127 -90 326q40 223 256 338q-127 115 -97 293q34 193 185 301q150 108 360 108q209 0 334 -119q126 -120 92 -317zM530 1008q-11 -57 21 -90t98 -33
q62 0 108.5 34t53.5 89q10 55 -23 88.5t-96 33.5q-65 0 -108 -33t-54 -89zM743 455q10 69 -29 109t-114 40q-78 0 -131.5 -40t-65.5 -109q-13 -67 26.5 -107.5t117.5 -40.5q75 0 129 40.5t67 107.5z" />
    <glyph glyph-name="nine" unicode="9" horiz-adv-x="1146" 
d="M719 1464q248 0 381 -151q131 -149 90 -375q-30 -177 -143 -299l-531 -639h-428l383 463q-190 35 -291 178q-102 144 -67 338q40 223 202 354t404 131zM477 958q-13 -80 27 -126t117 -46q79 0 135 46t69 126q13 81 -25.5 125.5t-117.5 44.5q-77 0 -134.5 -46t-70.5 -124z
" />
    <glyph glyph-name="colon" unicode=":" horiz-adv-x="591" 
d="M317 629q-88 0 -139.5 63.5t-34.5 153.5q17 89 88 149t162 60q88 0 139.5 -64.5t34.5 -152.5q-17 -92 -86 -150.5t-164 -58.5zM201 -29q-88 0 -139.5 63.5t-34.5 153.5q17 89 87.5 149t161.5 60q88 0 140 -64.5t35 -152.5q-17 -92 -86 -150.5t-164 -58.5z" />
    <glyph glyph-name="semicolon" unicode=";" horiz-adv-x="618" 
d="M342 629q-88 0 -139.5 63.5t-34.5 153.5q17 89 88 149t162 60q88 0 139.5 -64.5t34.5 -152.5q-17 -92 -86 -150.5t-164 -58.5zM127 356h377l-287 -643h-274z" />
    <glyph glyph-name="less" unicode="&#x3c;" horiz-adv-x="1067" 
d="M135 868l993 400l-67 -371l-588 -199l520 -198l-61 -334l-850 399z" />
    <glyph glyph-name="equal" unicode="=" horiz-adv-x="1046" 
d="M1018 778h-899l59 326h899zM940 330h-899l57 325h899z" />
    <glyph glyph-name="greater" unicode="&#x3e;" horiz-adv-x="1067" 
d="M147 934l60 334l850 -400l-53 -303l-994 -399l68 371l590 198z" />
    <glyph glyph-name="question" unicode="?" horiz-adv-x="1122" 
d="M713 522h-346q11 67 42.5 125t72 95.5t86.5 73.5t85 63.5t68.5 62t36.5 70.5q8 44 -17.5 71t-74.5 27q-136 0 -222 -170l-294 186q83 163 234 250.5t337 87.5q200 0 321 -121q123 -120 88 -311q-12 -72 -47 -134.5t-78.5 -103t-93.5 -79.5t-91.5 -66.5t-71.5 -61
t-35 -65.5zM442 -29q-88 0 -139.5 63.5t-34.5 153.5q17 89 88 149t162 60q88 0 140.5 -64.5t35.5 -152.5q-17 -92 -86.5 -150.5t-165.5 -58.5z" />
    <glyph glyph-name="at" unicode="@" horiz-adv-x="1574" 
d="M920 1253q93 0 177 -21.5t148.5 -61t118.5 -93.5t87.5 -117.5t56.5 -134.5t24.5 -144t-8.5 -146q-38 -216 -145.5 -328.5t-272.5 -112.5q-96 0 -163.5 43t-90.5 117q-86 -80 -207 -80q-134 0 -205 105q-70 104 -43 251q26 142 119.5 231t216.5 89q115 0 182 -88l13 63
h278l-86 -483q-21 -129 82 -129q173 0 232 330q47 262 -107 444q-150 182 -418 182q-276 0 -493 -184q-216 -184 -266 -463q-49 -284 114 -477q166 -190 459 -190q180 0 319 45l-16 -88q-140 -41 -315 -41q-329 0 -521 219q-189 219 -131 540q56 313 297 517
q244 206 564 206zM676 512q-16 -68 36 -94q45 -23 96 2q56 28 62 92q10 47 -11.5 76.5t-65.5 29.5t-75 -29t-42 -77z" />
    <glyph glyph-name="A" unicode="A" horiz-adv-x="1374" 
d="M1292 0h-391l-22 207h-478l-98 -207h-403l725 1434h446zM791 1018l-238 -496h291z" />
    <glyph glyph-name="B" unicode="B" horiz-adv-x="1232" 
d="M1239 1012q-35 -187 -184 -281q150 -114 123 -325q-25 -186 -173 -296t-389 -110h-593l251 1434h545q213 0 332 -119q118 -118 88 -303zM766 1106h-182l-39 -225h180q57 0 96.5 29.5t46.5 82.5q8 51 -19.5 82t-82.5 31zM819 449q11 56 -17 88t-89 32h-224l-43 -241h222
q59 0 99.5 33t51.5 88z" />
    <glyph glyph-name="C" unicode="C" horiz-adv-x="1478" 
d="M735 -31q-330 0 -512 221q-180 219 -127 547q53 318 289 523q238 204 557 204q207 0 356.5 -89.5t229.5 -252.5l-336 -178q-82 162 -285 162q-166 0 -293 -109q-124 -109 -153 -280q-28 -173 53 -281q82 -108 246 -108q207 0 336 172l301 -195q-116 -160 -288.5 -248
t-373.5 -88z" />
    <glyph glyph-name="D" unicode="D" horiz-adv-x="1452" 
d="M274 1434h584q284 0 453 -217q169 -216 116 -521q-56 -308 -280 -501q-227 -195 -541 -195h-583zM1071 723q26 161 -49 258.5t-225 97.5h-207l-129 -725h196q156 0 269 101q115 103 145 268z" />
    <glyph glyph-name="E" unicode="E" horiz-adv-x="1095" 
d="M1186 1434l-62 -342h-542l-37 -201h495l-61 -336h-492l-36 -211h553l-60 -344h-921l251 1434h912z" />
    <glyph glyph-name="F" unicode="F" horiz-adv-x="1060" 
d="M1155 1434l-61 -355h-514l-41 -233h501l-61 -354h-504l-86 -492h-366l251 1434h881z" />
    <glyph glyph-name="G" unicode="G" horiz-adv-x="1595" 
d="M868 821h723l-24 -145q-53 -326 -277 -516q-226 -191 -549 -191q-334 0 -516 221q-181 225 -129 547q52 316 291 523q235 204 557 204q208 0 362.5 -88.5t237.5 -249.5l-336 -180q-89 160 -301 160q-166 0 -293 -109q-124 -109 -153 -280q-30 -173 55 -287
q85 -113 258 -113q262 0 371 189h-332z" />
    <glyph glyph-name="H" unicode="H" horiz-adv-x="1361" 
d="M950 903l94 531h365l-252 -1434h-364l96 551h-404l-96 -551h-366l251 1434h367l-94 -531h403z" />
    <glyph glyph-name="I" unicode="I" horiz-adv-x="591" 
d="M23 0l251 1434h367l-252 -1434h-366z" />
    <glyph glyph-name="J" unicode="J" horiz-adv-x="1165" 
d="M479 -31q-358 0 -471 297l332 178q20 -63 59 -90.5t107 -27.5q168 0 192 145l170 963h367l-172 -969q-42 -247 -191.5 -371.5t-392.5 -124.5z" />
    <glyph glyph-name="K" unicode="K" horiz-adv-x="1292" 
d="M1028 1434h428l-610 -713l364 -721h-379l-327 653l-115 -653h-366l251 1434h367l-102 -582z" />
    <glyph glyph-name="L" unicode="L" horiz-adv-x="993" 
d="M641 1434l-190 -1080h493l-61 -354h-860l251 1434h367z" />
    <glyph glyph-name="M" unicode="M" horiz-adv-x="1689" 
d="M1348 1434h389l-252 -1434h-365l135 774l-448 -577h-37l-244 587l-137 -784h-366l251 1434h367l233 -619z" />
    <glyph glyph-name="N" unicode="N" horiz-adv-x="1382" 
d="M389 0h-366l251 1434h285l373 -750l133 750h365l-252 -1434h-283l-373 750z" />
    <glyph glyph-name="O" unicode="O" horiz-adv-x="1617" 
d="M737 -31q-107 -2 -205 27t-174 81.5t-136.5 125.5t-93 159t-44 182t11.5 195q53 308 289 516q238 209 571 209q326 0 506 -229q183 -230 131 -537q-53 -312 -286 -520q-232 -209 -570 -209zM1229 717q30 168 -60 278q-89 111 -256 111q-166 0 -295 -111
q-127 -109 -157 -278q-30 -173 55 -281q89 -108 254 -108t297 108q135 114 162 281z" />
    <glyph glyph-name="P" unicode="P" horiz-adv-x="1212" 
d="M274 1434h541q215 0 342 -148q128 -146 94 -375q-30 -217 -190 -350q-155 -131 -408 -131h-188l-76 -430h-366zM887 932q13 69 -23 110t-110 41h-174l-54 -305h179q71 0 120.5 42t61.5 112z" />
    <glyph glyph-name="Q" unicode="Q" horiz-adv-x="1628" 
d="M956 1464q326 0 506 -229q183 -230 131 -537q-44 -265 -229 -462l104 -138l-270 -204l-113 147q-162 -72 -348 -72q-156 -3 -291 62.5t-220.5 172.5t-122.5 249t-7 286q53 309 291 516q241 209 569 209zM692 549l273 205l180 -236q67 94 84 199q30 168 -60 278
q-89 111 -256 111q-166 0 -295 -111q-127 -109 -157 -278q-30 -173 55 -281q89 -108 254 -108q50 0 86 8z" />
    <glyph glyph-name="R" unicode="R" horiz-adv-x="1269" 
d="M1278 918q-25 -136 -105.5 -239t-205.5 -159l196 -520h-368l-168 463h-156l-82 -463h-366l253 1434h562q212 0 346 -152q134 -153 94 -364zM778 1096h-196l-58 -322h211q67 -1 115.5 43.5t60.5 116.5q12 73 -24 117.5t-109 44.5z" />
    <glyph glyph-name="S" unicode="S" horiz-adv-x="1204" 
d="M551 -31q-225 0 -368.5 94t-188.5 263l325 168q59 -179 263 -179q168 0 186 99q12 66 -94 112q-5 3 -150 54q-191 66 -284 172q-98 112 -64 297q34 196 186 305q152 110 363 110q180 0 310.5 -84.5t191.5 -242.5l-314 -168q-67 149 -217 149q-129 0 -147 -92
q-12 -50 35 -83.5t186 -82.5q103 -36 160.5 -64.5t116.5 -80.5q130 -106 92 -332q-36 -200 -191 -307t-397 -107z" />
    <glyph glyph-name="T" unicode="T" horiz-adv-x="1116" 
d="M182 1434h1075l-63 -355h-352l-191 -1079h-366l190 1079h-354z" />
    <glyph glyph-name="U" unicode="U" horiz-adv-x="1320" 
d="M594 -31q-261 0 -406 142q-142 143 -102 360l170 963h367l-164 -928q-34 -180 170 -180q199 0 233 180l162 928h367l-170 -963q-43 -241 -213 -373q-170 -129 -414 -129z" />
    <glyph glyph-name="V" unicode="V" horiz-adv-x="1310" 
d="M784 0h-438l-194 1434h380l93 -1008l444 1008h414z" />
    <glyph glyph-name="W" unicode="W" horiz-adv-x="2056" 
d="M709 0h-387l-150 1434h371l71 -904l414 904h293l98 -904l385 904h402l-652 -1434h-387l-88 809z" />
    <glyph glyph-name="X" unicode="X" horiz-adv-x="1294" 
d="M1004 1434h426l-541 -717l303 -717h-395l-162 381l-289 -381h-426l561 743l-293 691h398l149 -355z" />
    <glyph glyph-name="Y" unicode="Y" horiz-adv-x="1292" 
d="M1020 1434h434l-604 -809l-111 -625h-366l110 625l-321 809h389l154 -461z" />
    <glyph glyph-name="Z" unicode="Z" horiz-adv-x="1110" 
d="M240 1434h970l-47 -283l-639 -797h512l-61 -354h-998l50 283l641 796h-492z" />
    <glyph glyph-name="bracketleft" unicode="[" horiz-adv-x="673" 
d="M831 1638l-55 -325h-201l-210 -1192h200l-59 -326h-541l326 1843h540z" />
    <glyph glyph-name="backslash" unicode="\" horiz-adv-x="1064" 
d="M887 -205h-139l-498 1843h139z" />
    <glyph glyph-name="bracketright" unicode="]" horiz-adv-x="673" 
d="M240 1638h540l-325 -1843h-541l57 326h201l211 1192h-201z" />
    <glyph glyph-name="asciicircum" unicode="^" horiz-adv-x="1187" 
d="M635 1434h242l282 -725h-356l-105 323l-225 -323h-377z" />
    <glyph glyph-name="underscore" unicode="_" horiz-adv-x="1054" 
d="M846 -381h-952l57 324h952z" />
    <glyph glyph-name="grave" unicode="`" horiz-adv-x="643" 
d="M713 1137h-316l-194 297h385z" />
    <glyph glyph-name="a" unicode="a" 
d="M891 911l20 113h340l-180 -1024h-340l14 80q-121 -109 -299 -109q-217 0 -325 166q-105 167 -68 389q34 217 185 371q150 156 370 156q197 0 283 -142zM821 506v6q17 100 -30.5 161.5t-145.5 61.5q-96 0 -166 -61q-71 -62 -86 -162q-15 -101 31 -162t143 -61t166 59.5
t88 157.5z" />
    <glyph glyph-name="b" unicode="b" 
d="M803 1053q211 0 325 -166q115 -168 78 -395q-40 -224 -186 -373q-145 -148 -358 -148q-203 0 -293 146l-21 -117h-340l252 1434h340l-86 -494q116 113 289 113zM866 512q19 101 -30 162t-144 61t-165 -60.5t-89 -162.5q-17 -102 32 -162.5t146 -60.5q95 0 164 60.5
t86 162.5z" />
    <glyph glyph-name="c" unicode="c" horiz-adv-x="1089" 
d="M532 -29q-246 0 -380 162q-136 165 -99 399q38 230 209 373q174 148 402 148q158 0 270.5 -71.5t169.5 -197.5l-309 -161q-46 98 -160 98q-92 0 -160.5 -58t-81.5 -149q-17 -91 31 -151t135 -60q120 0 191 103l270 -173q-77 -127 -205 -194.5t-283 -67.5z" />
    <glyph glyph-name="d" unicode="d" horiz-adv-x="1261" 
d="M893 909l92 525h340l-252 -1434h-340l15 82q-120 -111 -302 -111q-217 0 -325 166q-105 167 -68 389q34 217 185 371q150 156 370 156q196 0 285 -144zM569 289q94 0 163 57.5t89 153.5l4 20q15 98 -34 156q-47 59 -144 59q-98 0 -168 -61q-71 -62 -86 -162
q-17 -100 31 -161.5t145 -61.5z" />
    <glyph glyph-name="e" unicode="e" horiz-adv-x="1163" 
d="M664 1053q228 0 362 -158q131 -155 90 -381q-10 -67 -35 -127h-702q27 -125 196 -125q123 0 203 74l217 -199q-178 -166 -446 -166t-402 162q-134 166 -94 399q38 227 209 373q174 148 402 148zM420 625h387q-9 141 -162 141q-151 0 -225 -141z" />
    <glyph glyph-name="f" unicode="f" horiz-adv-x="677" 
d="M844 1464l-56 -315q-171 12 -198 -125h176l-57 -326h-177l-122 -698h-340l123 698h-127l55 326h129q41 229 191.5 341t402.5 99z" />
    <glyph glyph-name="g" unicode="g" horiz-adv-x="1267" 
d="M903 903l21 121h336l-175 -983q-44 -249 -208 -365q-162 -116 -396 -116q-174 0 -300 64.5t-179 185.5l301 157q58 -110 209 -110q96 0 158.5 47t79.5 137l14 78q-119 -107 -291 -107q-114 0 -202.5 46t-138.5 121.5t-68.5 171t-0.5 196.5q29 201 179 354
q152 152 372 152q200 0 289 -150zM582 322q90 0 159.5 52.5t92.5 137.5l6 41q8 85 -42.5 137.5t-140.5 52.5q-96 0 -166.5 -59t-87.5 -152q-17 -92 32.5 -151t146.5 -59z" />
    <glyph glyph-name="h" unicode="h" horiz-adv-x="1183" 
d="M809 1053q170 0 257 -118t52 -323l-108 -612h-340l100 569q12 80 -22 121t-105 41q-79 0 -130.5 -47.5t-68.5 -138.5v2l-96 -547h-340l252 1434h340l-90 -514q118 133 299 133z" />
    <glyph glyph-name="i" unicode="i" horiz-adv-x="536" 
d="M348 0h-340l180 1024h340zM383 1104q-75 0 -120.5 54t-33.5 128t74 128t139 54q75 0 120 -53.5t32 -128.5q-11 -75 -72 -128.5t-139 -53.5z" />
    <glyph glyph-name="j" unicode="j" horiz-adv-x="567" 
d="M39 0l180 1024h340l-180 -1024q-42 -249 -176.5 -351.5t-390.5 -88.5l55 315q151 -9 172 125zM410 1104q-75 0 -120.5 54t-33.5 128t74 128t139 54q75 0 120 -53.5t32 -128.5q-11 -75 -72 -128.5t-139 -53.5z" />
    <glyph glyph-name="k" unicode="k" horiz-adv-x="1099" 
d="M782 1024h392l-431 -514l267 -510h-365l-217 451l-80 -451h-340l252 1434h340l-143 -816z" />
    <glyph glyph-name="l" unicode="l" horiz-adv-x="538" 
d="M350 0h-340l115 657l147 838h340l-147 -848z" />
    <glyph glyph-name="m" unicode="m" horiz-adv-x="1740" 
d="M1356 1053q176 0 266 -116t55 -310l-108 -627h-342l102 588q27 143 -100 143q-128 0 -166 -139l-105 -592h-340l103 588q21 143 -103 143q-131 0 -169 -158l-101 -573h-340l180 1024h340l-16 -94q114 123 285 123q178 0 245 -138q132 138 314 138z" />
    <glyph glyph-name="n" unicode="n" horiz-adv-x="1183" 
d="M809 1053q170 0 257 -118t52 -323l-108 -612h-340l100 569q12 80 -22 121t-105 41q-79 0 -130.5 -47.5t-68.5 -138.5v2l-96 -547h-340l180 1024h340l-18 -104q118 133 299 133z" />
    <glyph glyph-name="o" unicode="o" horiz-adv-x="1193" 
d="M528 -29q-74 0 -141 17t-118.5 48t-94.5 74t-70 94t-44 108t-16.5 115.5t11.5 117.5q41 212 205 360q168 148 414 148t375 -176q130 -177 90 -394q-38 -212 -205 -360q-172 -152 -406 -152zM555 299q90 0 157.5 59.5t84.5 153.5t-29 153.5t-137 59.5q-88 0 -155.5 -59.5
t-84.5 -153.5q-17 -93 29.5 -153t134.5 -60z" />
    <glyph glyph-name="p" unicode="p" 
d="M805 1053q210 0 323 -168q115 -168 78 -393q-38 -222 -184 -371q-144 -150 -360 -150q-200 0 -293 146l-93 -527h-339l251 1434h340l-14 -84q116 113 291 113zM866 512q19 102 -28 162.5t-144 60.5q-94 0 -164 -58.5t-90 -156.5l-4 -14q-13 -98 35.5 -157.5t142.5 -59.5
q97 0 166 60.5t86 162.5z" />
    <glyph glyph-name="q" unicode="q" 
d="M891 911l20 113h340l-252 -1434h-340l86 490q-121 -109 -299 -109q-217 0 -325 166q-105 167 -68 389q34 217 185 371q150 156 370 156q197 0 283 -142zM645 735q-96 0 -165.5 -61.5t-86.5 -161.5t30.5 -161.5t143.5 -61.5q97 0 167 61.5t87 161.5t-30.5 161.5
t-145.5 61.5z" />
    <glyph glyph-name="r" unicode="r" horiz-adv-x="778" 
d="M528 1024l-34 -193q47 103 138 158t208 55l-64 -376q-119 15 -223 -41q-105 -58 -129 -203l4 33l-80 -457h-340l180 1024h340z" />
    <glyph glyph-name="s" unicode="s" horiz-adv-x="968" 
d="M430 -29q-339 0 -450 252l299 146q47 -117 170 -117q89 0 98 49q5 28 -37.5 49t-130.5 45q-320 81 -273 348q27 156 156 232q132 78 285 78q142 0 249 -59.5t156 -168.5l-288 -139q-37 91 -127 94q-79 3 -91 -55q-4 -22 7 -37t36.5 -25t53.5 -17.5t69.5 -18.5t71.5 -23
q246 -73 203 -328q-27 -156 -156 -231q-127 -74 -301 -74z" />
    <glyph glyph-name="t" unicode="t" horiz-adv-x="806" 
d="M766 698h-213l-51 -297q-12 -66 30 -84t166 -10l-53 -307q-288 -38 -407 58.5t-78 334.5l53 305h-154l58 326h153l33 184l359 103l-52 -287h215z" />
    <glyph glyph-name="u" unicode="u" horiz-adv-x="1183" 
d="M739 477l97 547h340l-181 -1024h-340l19 104q-118 -133 -299 -133q-170 0 -257 118t-52 323l108 612h340l-100 -569q-12 -80 22 -121t105 -41q79 0 130 47.5t68 138.5v-2z" />
    <glyph glyph-name="v" unicode="v" horiz-adv-x="1091" 
d="M520 442l287 582h375l-553 -1024h-346l-193 1024h346z" />
    <glyph glyph-name="w" unicode="w" horiz-adv-x="1617" 
d="M1096 477l229 547h371l-494 -1024h-332l-55 514l-223 -514h-348l-133 1024h340l47 -557l241 557h297z" />
    <glyph glyph-name="x" unicode="x" horiz-adv-x="1124" 
d="M807 1024h393l-450 -512l284 -512h-360l-146 260l-227 -260h-391l467 532l-273 492h361l133 -240z" />
    <glyph glyph-name="y" unicode="y" horiz-adv-x="1124" 
d="M557 432l266 592h391l-520 -993q-131 -253 -300 -356.5t-400 -84.5l57 320q109 0 164.5 27.5t103.5 103.5l-229 983h361z" />
    <glyph glyph-name="z" unicode="z" horiz-adv-x="931" 
d="M162 1024h799l-41 -233l-435 -476h371l-55 -315h-840l43 233l432 476h-330z" />
    <glyph glyph-name="braceleft" unicode="{" horiz-adv-x="743" 
d="M629 96l-58 -315q-224 -13 -329.5 94t-69.5 305l49 275q12 62 -21 86t-108 16l58 326q77 -8 115 13.5t50 88.5l50 275q38 222 168.5 319t369.5 80l-55 -316q-128 18 -143 -83l-50 -275q-19 -105 -61.5 -165t-122.5 -99q124 -76 90 -266l-47 -275q-7 -53 20 -72.5
t95 -11.5z" />
    <glyph glyph-name="bar" unicode="|" horiz-adv-x="567" 
d="M293 -410h-342l332 1885h342z" />
    <glyph glyph-name="braceright" unicode="}" horiz-adv-x="743" 
d="M186 1341l58 316q224 13 329.5 -94.5t69.5 -305.5l-49 -274q-12 -62 21 -86t108 -16l-57 -326q-77 8 -115.5 -14t-50.5 -88l-49 -275q-38 -222 -169 -319t-370 -80l55 315q129 -18 144 84l49 275q19 105 61.5 165t122.5 99q-124 76 -90 266l47 274q7 53 -20 72.5
t-95 11.5z" />
    <glyph glyph-name="asciitilde" unicode="~" horiz-adv-x="1241" 
d="M336 481l-248 125q39 113 102 191.5t138.5 114t160 34t168.5 -42.5q134 -67 201 -61q64 6 117 102l248 -125q-39 -112 -102.5 -191t-139 -115t-160 -34.5t-166.5 43.5q-139 68 -202 62t-117 -103z" />
    <glyph glyph-name="exclamdown" unicode="&#xa1;" horiz-adv-x="602" 
d="M397 1053q88 0 139.5 -63.5t34.5 -153.5q-17 -89 -87.5 -149t-161.5 -60q-88 0 -141 64.5t-36 152.5q17 92 86.5 150.5t165.5 58.5zM158 502h282l-20 -502l-72 -410h-418l72 410z" />
    <glyph glyph-name="cent" unicode="&#xa2;" horiz-adv-x="1089" 
d="M590 508h4q120 0 190 102l271 -172q-77 -127 -205 -194.5t-283 -67.5q-64 0 -135 14l-94 -190h-133l114 231q-133 67 -195 203t-36 303q38 230 209 373q173 147 401 147q68 0 123 -12l94 189h134l-113 -230q135 -68 203 -215l-310 -162q-22 43 -49 64zM428 719
q-18 -112 49 -170l187 377q-89 -2 -156 -59t-80 -148z" />
    <glyph glyph-name="sterling" unicode="&#xa3;" horiz-adv-x="1177" 
d="M940 557h-387l-37 -203h623l-62 -354h-1116l64 354h127l34 203h-104l51 287h105l28 162q40 227 179 342.5t346 115.5q336 0 456 -319l-332 -168q-46 137 -153 137q-112 0 -133 -119l-27 -151h389z" />
    <glyph glyph-name="currency" unicode="&#xa4;" horiz-adv-x="1091" 
d="M1061 1210l82 -92l-166 -139q74 -118 47 -268t-133 -262l115 -140l-99 -80l-114 140q-125 -82 -279 -82q-146 0 -246 80l-168 -144l-80 90l168 142q-74 118 -47 268t133 262l-114 139l94 82l119 -143q131 84 280 84q138 0 242 -78zM563 602q51 0 88 30.5t47 84.5
q8 54 -17 84t-79 30q-51 0 -87 -30t-46 -84t15 -84.5t79 -30.5z" />
    <glyph glyph-name="yen" unicode="&#xa5;" horiz-adv-x="1292" 
d="M1020 1434h434l-502 -672h234l-35 -193h-311l-15 -84h312l-33 -190h-313l-52 -295h-366l51 295h-311l32 190h314l14 84h-313l35 193h233l-266 672h389l154 -461z" />
    <glyph glyph-name="brokenbar" unicode="&#xa6;" horiz-adv-x="567" 
d="M492 717h-342l133 758h342zM293 -410h-342l133 758h342z" />
    <glyph glyph-name="section" unicode="&#xa7;" horiz-adv-x="1124" 
d="M840 948q129 -54 195 -150.5t42 -226.5q-27 -152 -162 -243q52 -88 31 -219q-31 -167 -161.5 -252.5t-327.5 -85.5q-338 0 -443 256l291 151q58 -125 182 -125q108 0 117 68q5 23 -5.5 40t-41.5 34q-28 19 -53 28q-18 9 -76.5 33t-73.5 31q-133 59 -201 158t-44 235
q27 157 163 240q-42 85 -20 210q30 170 156 252q125 82 297 82q303 0 417 -266l-284 -131q-53 121 -150 121q-87 0 -96 -68q-5 -43 47 -82q8 -6 23.5 -14t35.5 -17t29 -14q74 -27 113 -45zM563 549q6 -3 56.5 -22.5t70.5 -28.5q38 25 47 71q-1 47 -21.5 65.5t-86.5 46.5
q-7 3 -11 5l-131 53q-32 -19 -41 -67q-7 -41 20.5 -68t96.5 -55z" />
    <glyph glyph-name="dieresis" unicode="&#xa8;" horiz-adv-x="755" 
d="M365 1423q66 0 105.5 -48t27.5 -115q-4 -51 -41 -92t-84 -59t-96 -10.5t-76 44.5q-26 27 -31 65.5t9.5 76t40.5 70t65 51.5t80 17zM705 1096q-66 0 -106 48.5t-28 115.5q4 50 41 91t84 59.5t96 10.5t76 -47q26 -27 31.5 -65t-9.5 -75t-41 -69.5t-64.5 -51.5t-79.5 -17z
" />
    <glyph glyph-name="copyright" unicode="&#xa9;" horiz-adv-x="1595" 
d="M733 -25q-97 -2 -190.5 25t-169.5 78t-138.5 122.5t-98 156.5t-49 180.5t8.5 195.5q52 310 293 516q241 209 549 209q306 0 496 -227q192 -223 139 -531q-55 -310 -295 -518q-239 -207 -545 -207zM733 59q274 0 488 187q216 188 262 461q47 274 -119 469
q-162 198 -430 198q-270 0 -485 -188q-217 -190 -263 -459q-49 -271 115 -471q164 -197 432 -197zM778 313q-183 0 -278 127q-93 127 -66 297q26 160 152 273q122 110 297 110q102 0 188.5 -55.5t138.5 -149.5l-256 -133q-25 60 -98 60q-55 0 -96 -36.5t-49 -88.5
q-11 -51 16 -88t80 -37q72 0 121 61l227 -143q-65 -93 -166 -145t-211 -52z" />
    <glyph glyph-name="guillemotleft" unicode="&#xab;" horiz-adv-x="1165" 
d="M422 1032h297l-295 -409l151 -390h-284l-158 400zM846 1032h299l-305 -422l149 -377h-284l-154 390z" />
    <glyph glyph-name="logicalnot" unicode="&#xac;" horiz-adv-x="1165" 
d="M137 879h1022l-100 -570h-346l43 246h-676z" />
    <glyph glyph-name="registered" unicode="&#xae;" horiz-adv-x="1595" 
d="M938 1458q306 0 496 -227q192 -223 139 -531q-55 -310 -295 -518q-239 -207 -545 -207q-97 -2 -190.5 25t-169.5 78t-138.5 122.5t-98 156.5t-49 180.5t8.5 195.5q52 310 293 516q241 209 549 209zM934 1374q-270 0 -485 -188q-217 -190 -263 -459q-49 -271 115 -471
q164 -197 432 -197q274 0 488 187q216 188 262 461q47 274 -119 469q-162 198 -430 198zM596 1096h360q115 0 189 -86q76 -85 55 -203q-28 -148 -137 -217l98 -252h-278l-64 199h-53l-35 -199h-268zM872 860h-49l-20 -108h49q64 0 76 55q4 28 -10 40.5t-46 12.5z" />
    <glyph glyph-name="overscore" unicode="&#xaf;" horiz-adv-x="716" 
d="M784 1135h-632l45 266h634z" />
    <glyph glyph-name="degree" unicode="&#xb0;" horiz-adv-x="849" 
d="M508 944q-155 0 -244 109q-88 110 -61 258q24 151 141 250q116 98 277 98q155 0 243 -111q91 -111 64 -258q-27 -149 -144 -248q-113 -98 -276 -98zM655 1300q17 60 -32 84q-45 20 -95 -4q-51 -25 -55 -80q-6 -42 14.5 -67t61.5 -25t70.5 25.5t35.5 66.5z" />
    <glyph glyph-name="plusminus" unicode="&#xb1;" horiz-adv-x="1146" 
d="M885 1362l-49 -279h329l-59 -323h-326l-49 -279h-325l49 279h-328l57 323h328l49 279h324zM981 43h-981l59 326h979z" />
    <glyph glyph-name="acute" unicode="&#xb4;" horiz-adv-x="643" 
d="M152 1137l206 297h406l-279 -297h-333z" />
    <glyph glyph-name="uni00B5" unicode="&#xb5;" horiz-adv-x="1245" 
d="M1190 1024l-115 -657q-9 -62 51 -62h52l-54 -305h-147q-145 0 -217 96q-119 -125 -293 -125q-69 0 -121 21l-70 -402h-339l251 1434h340l-100 -565h2q-13 -83 20.5 -124.5t104.5 -41.5q158 0 195 168l100 563h340z" />
    <glyph glyph-name="paragraph" unicode="&#xb6;" horiz-adv-x="1488" 
d="M664 1434h913l-55 -328h-138l-266 -1516h-323l266 1516h-131l-266 -1516h-324l162 924q-192 3 -301 145q-108 144 -74 334q35 191 186 316q155 125 351 125z" />
    <glyph glyph-name="middot" unicode="&#xb7;" horiz-adv-x="591" 
d="M295 504q-88 0 -139.5 63.5t-34.5 153.5q17 89 88 149t162 60q88 0 139.5 -64.5t34.5 -152.5q-17 -92 -86 -150.5t-164 -58.5z" />
    <glyph glyph-name="cedilla" unicode="&#xb8;" horiz-adv-x="561" 
d="M311 0l-16 -94q109 -51 88 -176q-41 -217 -512 -183l39 224q192 -15 201 28q6 35 -103 41l29 160h274z" />
    <glyph glyph-name="guillemotright" unicode="&#xbb;" horiz-adv-x="1167" 
d="M219 1032h285l153 -389l-295 -410h-299l306 422zM633 1032h285l157 -399l-289 -400h-297l295 410z" />
    <glyph glyph-name="onequarter" unicode="&#xbc;" horiz-adv-x="1673" 
d="M129 0l1069 1434h244l-1069 -1434h-244zM240 614l94 525l-166 -41l-23 241l277 95h233l-145 -820h-270zM1548 350h72l-41 -235h-72l-20 -115h-250l20 115h-376l41 235l311 469h289l-301 -469h79l23 129h248z" />
    <glyph glyph-name="onehalf" unicode="&#xbd;" horiz-adv-x="1662" 
d="M129 0l1069 1434h244l-1069 -1434h-244zM240 614l94 525l-166 -41l-23 241l277 95h233l-145 -820h-270zM1614 563q-12 -64 -53 -118.5t-125 -122.5l-101 -82h228l-41 -240h-627l31 182l344 289q75 66 78 94q9 45 -41 45q-56 0 -115 -92l-205 129q130 201 363 201
q125 0 206 -78q82 -76 58 -207z" />
    <glyph glyph-name="threequarters" unicode="&#xbe;" horiz-adv-x="1794" 
d="M729 854q-47 -268 -364 -268q-251 0 -312 192l228 121q27 -82 110 -82q68 0 74 53q4 26 -9.5 39t-45.5 13h-60l-67 139l135 135h-252l43 238h586l-33 -179l-160 -161q72 -31 106 -95t21 -145zM250 0l1069 1434h244l-1069 -1434h-244zM1669 350h72l-41 -235h-72l-20 -115
h-250l20 115h-377l41 235l312 469h288l-301 -469h80l23 129h248z" />
    <glyph glyph-name="questiondown" unicode="&#xbf;" horiz-adv-x="1122" 
d="M680 1053q88 0 139.5 -63.5t34.5 -153.5q-17 -89 -88 -149t-162 -60q-88 0 -140.5 64.5t-35.5 152.5q17 92 86.5 150.5t165.5 58.5zM410 502h346q-11 -67 -42.5 -125t-72 -95.5t-86.5 -73.5t-85 -63.5t-68.5 -62t-36.5 -70.5q-8 -44 17.5 -71t74.5 -27q135 0 221 170
l295 -186q-83 -163 -234.5 -250.5t-337.5 -87.5q-199 0 -323 121q-120 121 -86 311q12 72 47 134.5t79 103t93.5 79.5t91 66.5t72 61t35.5 65.5z" />
    <glyph glyph-name="Agrave" unicode="&#xc0;" horiz-adv-x="1374" 
d="M928 1843l125 -297h-316l-194 297h385zM1292 0h-391l-22 207h-478l-98 -207h-403l725 1434h446zM791 1018l-238 -496h291z" />
    <glyph glyph-name="Aacute" unicode="&#xc1;" horiz-adv-x="1374" 
d="M891 1843h405l-278 -297h-334zM-100 0l725 1434h446l221 -1434h-391l-22 207h-478l-98 -207h-403zM791 1018l-238 -496h291z" />
    <glyph glyph-name="Acircumflex" unicode="&#xc2;" horiz-adv-x="1374" 
d="M938 1526l-59 114l-103 -114h-309l272 317h342l162 -317h-305zM1292 0h-391l-22 207h-478l-98 -207h-403l725 1434h446zM791 1018l-238 -496h291z" />
    <glyph glyph-name="Atilde" unicode="&#xc3;" horiz-adv-x="1374" 
d="M864 1573q-97 73 -116 -41h-248q10 98 42.5 169.5t77 108.5t97.5 51t106.5 3.5t102.5 -39.5q21 -13 34 -19.5t27.5 -9t23.5 3.5t17.5 21.5t13.5 42.5h250q-8 -83 -32.5 -147t-59 -102.5t-76.5 -60t-87 -24.5t-89 8t-84 35zM-100 0l725 1434h446l221 -1434h-391l-22 207
h-478l-98 -207h-403zM791 1018l-238 -496h291z" />
    <glyph glyph-name="Adieresis" unicode="&#xc4;" horiz-adv-x="1374" 
d="M719 1833q66 0 105.5 -48.5t27.5 -115.5q-4 -51 -41 -92t-84 -59t-96 -10.5t-76 44.5q-26 27 -31 65.5t9.5 76.5t40.5 70.5t65 51.5t80 17zM1059 1505q-66 0 -105.5 48.5t-27.5 115.5q4 50 41 91.5t84 60t96 10.5t76 -47q26 -27 31 -65t-9.5 -75.5t-40.5 -70t-65 -51.5
t-80 -17zM1292 0h-391l-22 207h-478l-98 -207h-403l725 1434h446zM791 1018l-238 -496h291z" />
    <glyph glyph-name="Aring" unicode="&#xc5;" horiz-adv-x="1374" 
d="M1292 0h-391l-22 207h-478l-98 -207h-403l716 1415q-44 67 -28 168q20 117 111.5 190.5t218.5 73.5q124 0 194 -82q70 -79 49 -196q-18 -100 -86 -168zM807 1577q-9 -66 55 -66q73 0 82 64q6 30 -9.5 48.5t-49.5 18.5q-31 0 -52 -18t-26 -47zM791 1018l-238 -496h291z
" />
    <glyph glyph-name="AE" unicode="&#xc6;" horiz-adv-x="1812" 
d="M1903 1434l-62 -344h-473l-35 -199h424l-61 -336h-420l-37 -211h481l-59 -344h-840l37 207h-393l-154 -207h-411l1071 1434h932zM979 895l-279 -373h213z" />
    <glyph glyph-name="Ccedilla" unicode="&#xc7;" horiz-adv-x="1478" 
d="M760 328q207 0 336 172l301 -195q-199 -275 -539 -328l-12 -71q109 -51 88 -176q-41 -217 -512 -183l39 224q192 -15 201 28q6 35 -103 41l27 144q-265 53 -402 260q-135 208 -88 493q53 318 289 523q238 204 557 204q207 0 356.5 -89.5t229.5 -252.5l-336 -178
q-82 162 -285 162q-166 0 -293 -109q-124 -109 -153 -280q-28 -173 53 -281q82 -108 246 -108z" />
    <glyph glyph-name="Egrave" unicode="&#xc8;" horiz-adv-x="1095" 
d="M811 1843l125 -297h-315l-195 297h385zM1186 1434l-62 -342h-542l-37 -201h495l-61 -336h-492l-36 -211h553l-60 -344h-921l251 1434h912z" />
    <glyph glyph-name="Eacute" unicode="&#xc9;" horiz-adv-x="1095" 
d="M774 1843h406l-279 -297h-334zM1186 1434l-62 -342h-542l-37 -201h495l-61 -336h-492l-36 -211h553l-60 -344h-921l251 1434h912z" />
    <glyph glyph-name="Ecircumflex" unicode="&#xca;" horiz-adv-x="1095" 
d="M821 1526l-59 114l-103 -114h-309l273 317h342l161 -317h-305zM1186 1434l-62 -342h-542l-37 -201h495l-61 -336h-492l-36 -211h553l-60 -344h-921l251 1434h912z" />
    <glyph glyph-name="Edieresis" unicode="&#xcb;" horiz-adv-x="1095" 
d="M602 1833q66 0 105.5 -48.5t27.5 -115.5q-4 -51 -41 -92t-84 -59t-96 -10.5t-76 44.5q-26 27 -31 65.5t9.5 76.5t40.5 70.5t65 51.5t80 17zM942 1505q-66 0 -105.5 48.5t-27.5 115.5q4 50 41 91.5t84 60t96 10.5t76 -47q26 -27 31 -65t-9.5 -75.5t-40.5 -70t-65 -51.5
t-80 -17zM1186 1434l-62 -342h-542l-37 -201h495l-61 -336h-492l-36 -211h553l-60 -344h-921l251 1434h912z" />
    <glyph glyph-name="Igrave" unicode="&#xcc;" horiz-adv-x="591" 
d="M664 1546h-316l-194 297h385zM274 1434l-251 -1434h366l252 1434h-367z" />
    <glyph glyph-name="Iacute" unicode="&#xcd;" horiz-adv-x="591" 
d="M295 1546l207 297h405l-278 -297h-334zM274 1434l-251 -1434h366l252 1434h-367z" />
    <glyph glyph-name="Icircumflex" unicode="&#xce;" horiz-adv-x="591" 
d="M549 1526l-60 114l-102 -114h-309l272 317h342l162 -317h-305zM389 0h-366l251 1434h367z" />
    <glyph glyph-name="Idieresis" unicode="&#xcf;" horiz-adv-x="591" 
d="M330 1833q66 0 105.5 -48.5t27.5 -115.5q-4 -51 -41 -92t-84 -59t-96 -10.5t-76 44.5q-26 27 -31 65.5t9.5 76.5t40.5 70.5t65 51.5t80 17zM670 1505q-66 0 -105.5 48.5t-27.5 115.5q4 50 41 91.5t84 60t96 10.5t76 -47q26 -27 31 -65t-9.5 -75.5t-40.5 -70t-65 -51.5
t-80 -17zM23 0l251 1434h367l-252 -1434h-366z" />
    <glyph glyph-name="Eth" unicode="&#xd0;" horiz-adv-x="1513" 
d="M336 1434h584q283 0 452 -217t117 -521q-55 -307 -281 -501q-227 -195 -540 -195h-584l94 539h-151l57 323h152zM1133 723q26 161 -49.5 258.5t-225.5 97.5h-207l-39 -217h271l-58 -323h-270l-33 -185h197q155 0 268 101q116 104 146 268z" />
    <glyph glyph-name="Ntilde" unicode="&#xd1;" horiz-adv-x="1382" 
d="M752 1532h-248q10 98 42.5 169.5t77 108.5t97.5 51t106.5 3.5t102.5 -39.5q27 -16 42.5 -22.5t31.5 -6t26 17t17 50.5h249q-8 -83 -32.5 -147t-59 -102.5t-76.5 -60t-87 -24.5t-89 8t-84 35q-97 73 -116 -41zM389 0h-366l251 1434h285l373 -750l133 750h365l-252 -1434
h-283l-373 750z" />
    <glyph glyph-name="Ograve" unicode="&#xd2;" horiz-adv-x="1617" 
d="M1227 1567h-316l-194 297h385zM737 -31q338 0 570 209q233 208 286 520q52 307 -131 537q-180 229 -506 229q-333 0 -571 -209q-236 -208 -289 -516q-23 -99 -11.5 -195t44 -182t93 -159t136.5 -125.5t174 -81.5t205 -27zM1229 717q-27 -167 -162 -281
q-132 -108 -297 -108q-166 0 -254 108q-85 108 -55 281q30 169 157 278q129 111 295 111q167 0 256 -111q90 -110 60 -278z" />
    <glyph glyph-name="Oacute" unicode="&#xd3;" horiz-adv-x="1617" 
d="M885 1567l207 297h405l-278 -297h-334zM737 -31q338 0 570 209q233 208 286 520q52 307 -131 537q-180 229 -506 229q-333 0 -571 -209q-236 -208 -289 -516q-23 -99 -11.5 -195t44 -182t93 -159t136.5 -125.5t174 -81.5t205 -27zM1229 717q-27 -167 -162 -281
q-132 -108 -297 -108q-166 0 -254 108q-85 108 -55 281q30 169 157 278q129 111 295 111q167 0 256 -111q90 -110 60 -278z" />
    <glyph glyph-name="Ocircumflex" unicode="&#xd4;" horiz-adv-x="1617" 
d="M1130 1546l-59 115l-102 -115h-310l273 318h342l162 -318h-306zM956 1464q326 0 506 -229q183 -230 131 -537q-53 -312 -286 -520q-232 -209 -570 -209q-107 -2 -205 27t-174 81.5t-136.5 125.5t-93 159t-44 182t11.5 195q53 308 289 516q238 209 571 209zM1229 717
q30 168 -60 278q-89 111 -256 111q-166 0 -295 -111q-127 -109 -157 -278q-30 -173 55 -281q89 -108 254 -108t297 108q135 114 162 281z" />
    <glyph glyph-name="Otilde" unicode="&#xd5;" horiz-adv-x="1617" 
d="M903 1552h-248q10 98 42.5 169.5t77 108.5t97.5 51t106.5 3.5t102.5 -39.5q27 -16 42.5 -22.5t31.5 -6t26 17t17 50.5h250q-8 -83 -32.5 -147t-59 -102.5t-76.5 -60t-87 -24.5t-89 8t-84 35q-98 74 -117 -41zM737 -31q-107 -2 -205 27t-174 81.5t-136.5 125.5t-93 159
t-44 182t11.5 195q53 308 289 516q238 209 571 209q326 0 506 -229q183 -230 131 -537q-53 -312 -286 -520q-232 -209 -570 -209zM1229 717q30 168 -60 278q-89 111 -256 111q-166 0 -295 -111q-127 -109 -157 -278q-30 -173 55 -281q89 -108 254 -108t297 108
q135 114 162 281z" />
    <glyph glyph-name="Odieresis" unicode="&#xd6;" horiz-adv-x="1617" 
d="M846 1853q66 0 105.5 -48t27.5 -115q-4 -51 -41 -92t-84 -59t-96 -10.5t-76 44.5q-26 27 -31 65.5t9.5 76t40.5 70t65 51.5t80 17zM1186 1526q-66 0 -105.5 48.5t-27.5 115.5q4 50 41 91t84 59.5t96 10.5t76 -47q26 -27 31 -65t-9.5 -75t-40.5 -69.5t-65 -51.5t-80 -17z
M737 -31q-107 -2 -205 27t-174 81.5t-136.5 125.5t-93 159t-44 182t11.5 195q53 308 289 516q238 209 571 209q326 0 506 -229q183 -230 131 -537q-53 -312 -286 -520q-232 -209 -570 -209zM1229 717q30 168 -60 278q-89 111 -256 111q-166 0 -295 -111q-127 -109 -157 -278
q-30 -173 55 -281q89 -108 254 -108t297 108q135 114 162 281z" />
    <glyph glyph-name="multiply" unicode="&#xd7;" horiz-adv-x="1101" 
d="M891 1184l207 -230l-281 -243l197 -232l-254 -229l-203 237l-274 -237l-205 229l280 244l-196 231l254 230l200 -238z" />
    <glyph glyph-name="Oslash" unicode="&#xd8;" horiz-adv-x="1628" 
d="M1602 1370l-129 -131q184 -227 131 -541q-53 -311 -287 -520q-232 -209 -569 -209q-236 0 -406 129l-127 -129l-149 94l155 158q-167 221 -115 518q53 308 289 516q238 209 572 209q213 0 376 -108l109 108zM471 717q-21 -124 21 -221l577 581q-73 29 -145 29
q-166 0 -295 -111q-128 -110 -158 -278zM1239 717q27 143 -37 250l-592 -598q71 -41 170 -41q165 0 297 108q135 114 162 281z" />
    <glyph glyph-name="Ugrave" unicode="&#xd9;" horiz-adv-x="1320" 
d="M1028 1546h-315l-195 297h385zM594 -31q244 0 414 129q170 132 213 373l170 963h-367l-162 -928q-34 -180 -233 -180q-204 0 -170 180l164 928h-367l-170 -963q-40 -217 102 -360q145 -142 406 -142z" />
    <glyph glyph-name="Uacute" unicode="&#xda;" horiz-adv-x="1320" 
d="M680 1546l207 297h405l-278 -297h-334zM594 -31q244 0 414 129q170 132 213 373l170 963h-367l-162 -928q-34 -180 -233 -180q-204 0 -170 180l164 928h-367l-170 -963q-40 -217 102 -360q145 -142 406 -142z" />
    <glyph glyph-name="Ucircumflex" unicode="&#xdb;" horiz-adv-x="1320" 
d="M913 1526l-59 114l-102 -114h-310l273 317h342l162 -317h-306zM862 506l162 928h367l-170 -963q-43 -241 -213 -373q-170 -129 -414 -129q-261 0 -406 142q-142 143 -102 360l170 963h367l-164 -928q-34 -180 170 -180q199 0 233 180z" />
    <glyph glyph-name="Udieresis" unicode="&#xdc;" horiz-adv-x="1320" 
d="M694 1833q66 0 105.5 -48.5t27.5 -115.5q-4 -51 -41 -92t-84 -59t-96 -10.5t-76 44.5q-26 27 -31 65.5t9.5 76.5t40.5 70.5t65 51.5t80 17zM1034 1505q-66 0 -105.5 48.5t-27.5 115.5q4 50 41 91.5t84 60t96 10.5t76 -47q26 -27 31 -65t-9.5 -75.5t-40.5 -70t-65 -51.5
t-80 -17zM594 -31q-261 0 -406 142q-142 143 -102 360l170 963h367l-164 -928q-34 -180 170 -180q199 0 233 180l162 928h367l-170 -963q-43 -241 -213 -373q-170 -129 -414 -129z" />
    <glyph glyph-name="Yacute" unicode="&#xdd;" horiz-adv-x="1292" 
d="M864 1843h406l-279 -297h-334zM1020 1434h434l-604 -809l-111 -625h-366l110 625l-321 809h389l154 -461z" />
    <glyph glyph-name="Thorn" unicode="&#xde;" horiz-adv-x="1212" 
d="M604 1221h174q215 0 342 -148q128 -149 94 -377q-30 -217 -190 -350q-155 -131 -408 -131h-190l-37 -215h-366l253 1434h365zM850 717q13 71 -23 112t-110 41h-174l-56 -305h181q72 0 121 41.5t61 110.5z" />
    <glyph glyph-name="germandbls" unicode="&#xdf;" horiz-adv-x="1130" 
d="M469 -10l51 303q205 -27 223 90q13 61 -63 209q-73 149 -64 207q9 52 68 135q60 81 70 125q10 49 -14 76.5t-74 27.5q-113 0 -134 -121l-184 -1042h-340l185 1040q70 424 524 424q190 0 303 -110q114 -108 90 -252q-16 -85 -78 -170q-60 -83 -71 -127q-9 -31 11 -92
t48.5 -122t46.5 -144.5t4 -153.5q-70 -381 -602 -303z" />
    <glyph glyph-name="agrave" unicode="&#xe0;" 
d="M846 1434l125 -297h-316l-194 297h385zM891 911l20 113h340l-180 -1024h-340l14 80q-121 -109 -299 -109q-217 0 -325 166q-105 167 -68 389q34 217 185 371q150 156 370 156q197 0 283 -142zM821 506v6q17 100 -30.5 161.5t-145.5 61.5q-96 0 -166 -61q-71 -62 -86 -162
q-15 -101 31 -162t143 -61t166 59.5t88 157.5z" />
    <glyph glyph-name="aacute" unicode="&#xe1;" 
d="M807 1434h405l-278 -297h-334zM891 911l20 113h340l-180 -1024h-340l14 80q-121 -109 -299 -109q-217 0 -325 166q-105 167 -68 389q34 217 185 371q150 156 370 156q197 0 283 -142zM821 506v6q17 100 -30.5 161.5t-145.5 61.5q-96 0 -166 -61q-71 -62 -86 -162
q-15 -101 31 -162t143 -61t166 59.5t88 157.5z" />
    <glyph glyph-name="acircumflex" unicode="&#xe2;" 
d="M881 1116l-60 115l-102 -115h-309l272 318h342l162 -318h-305zM891 911l20 113h340l-180 -1024h-340l14 80q-121 -109 -299 -109q-217 0 -325 166q-105 167 -68 389q34 217 185 371q150 156 370 156q197 0 283 -142zM821 506v6q17 100 -30.5 161.5t-145.5 61.5
q-96 0 -166 -61q-71 -62 -86 -162q-15 -101 31 -162t143 -61t166 59.5t88 157.5z" />
    <glyph glyph-name="atilde" unicode="&#xe3;" 
d="M793 1163q-98 74 -117 -41h-248q10 98 42.5 169.5t77 108.5t97.5 51t106.5 3.5t102.5 -39.5q27 -16 42.5 -22.5t31.5 -6t26 17t17 50.5h250q-8 -83 -32.5 -147t-59 -102.5t-76.5 -60t-87 -24.5t-89 8t-84 35zM891 911l20 113h340l-180 -1024h-340l14 80
q-121 -109 -299 -109q-217 0 -325 166q-105 167 -68 389q34 217 185 371q150 156 370 156q197 0 283 -142zM821 506v6q17 100 -30.5 161.5t-145.5 61.5q-96 0 -166 -61q-71 -62 -86 -162q-15 -101 31 -162t143 -61t166 59.5t88 157.5z" />
    <glyph glyph-name="adieresis" unicode="&#xe4;" 
d="M571 1423q66 0 106 -48t28 -115q-4 -51 -41 -92t-84 -59t-96 -10.5t-76 44.5q-26 27 -31.5 65.5t9.5 76t41 70t64.5 51.5t79.5 17zM911 1096q-66 0 -105.5 48.5t-27.5 115.5q4 50 41 91t84 59.5t96 10.5t76 -47q26 -27 31 -65t-9.5 -75t-40.5 -69.5t-65 -51.5t-80 -17z
M891 911l20 113h340l-180 -1024h-340l14 80q-121 -109 -299 -109q-217 0 -325 166q-105 167 -68 389q34 217 185 371q150 156 370 156q197 0 283 -142zM821 506v6q17 100 -30.5 161.5t-145.5 61.5q-96 0 -166 -61q-71 -62 -86 -162q-15 -101 31 -162t143 -61t166 59.5
t88 157.5z" />
    <glyph glyph-name="aring" unicode="&#xe5;" 
d="M717 1092q-125 0 -195 79t-49 197q20 117 111.5 190.5t218.5 73.5q124 0 194 -82q71 -80 50 -196q-20 -118 -110 -190t-220 -72zM692 1362q-9 -66 56 -66q72 0 81 64q6 30 -9.5 48.5t-49.5 18.5q-31 0 -52 -18t-26 -47zM891 911l20 113h340l-180 -1024h-340l14 80
q-121 -109 -299 -109q-217 0 -325 166q-105 167 -68 389q34 217 185 371q150 156 370 156q197 0 283 -142zM821 506v6q17 100 -30.5 161.5t-145.5 61.5q-96 0 -166 -61q-71 -62 -86 -162q-15 -101 31 -162t143 -61t166 59.5t88 157.5z" />
    <glyph glyph-name="ae" unicode="&#xe6;" horiz-adv-x="1935" 
d="M1505 1053q209 0 314 -156q107 -151 69 -383q-14 -67 -37 -127h-702q27 -125 199 -125q122 0 202 74l217 -199q-178 -166 -387 -166q-219 0 -321 129l-19 -100h-309l14 86q-127 -115 -292 -115q-76 0 -142 22t-113 61t-83 92.5t-52.5 115.5t-21 130t11.5 136
q34 211 189 369q153 156 381 156q184 0 272 -119l16 90h310l-13 -70q126 99 297 99zM1190 625h389q-9 141 -162 141t-227 -141zM567 293q95 0 165 59t89 156v4q17 100 -31 159.5t-145 59.5t-167 -60.5t-87 -158.5q-17 -100 31 -159.5t145 -59.5z" />
    <glyph glyph-name="ccedilla" unicode="&#xe7;" horiz-adv-x="1089" 
d="M559 303q120 0 191 103l270 -173q-119 -204 -367 -251l-14 -76q109 -51 88 -176q-41 -217 -512 -183l39 224q192 -15 201 28q6 35 -103 41l27 152q-179 47 -268 194q-88 149 -58 346q38 230 209 373q174 148 402 148q158 0 270.5 -71.5t169.5 -197.5l-309 -161
q-46 98 -160 98q-92 0 -160.5 -58t-81.5 -149q-17 -91 31 -151t135 -60z" />
    <glyph glyph-name="egrave" unicode="&#xe8;" horiz-adv-x="1163" 
d="M774 1448l125 -297h-315l-195 297h385zM664 1053q228 0 362 -158q131 -155 90 -381q-10 -67 -35 -127h-702q27 -125 196 -125q123 0 203 74l217 -199q-178 -166 -446 -166t-402 162q-134 166 -94 399q38 227 209 373q174 148 402 148zM420 625h387q-9 141 -162 141
q-151 0 -225 -141z" />
    <glyph glyph-name="eacute" unicode="&#xe9;" horiz-adv-x="1163" 
d="M737 1448h406l-279 -297h-334zM664 1053q228 0 362 -158q131 -155 90 -381q-10 -67 -35 -127h-702q27 -125 196 -125q123 0 203 74l217 -199q-178 -166 -446 -166t-402 162q-134 166 -94 399q38 227 209 373q174 148 402 148zM420 625h387q-9 141 -162 141
q-151 0 -225 -141z" />
    <glyph glyph-name="ecircumflex" unicode="&#xea;" horiz-adv-x="1163" 
d="M784 1130l-59 115l-102 -115h-310l273 318h342l162 -318h-306zM664 1053q228 0 362 -158q131 -155 90 -381q-10 -67 -35 -127h-702q27 -125 196 -125q123 0 203 74l217 -199q-178 -166 -446 -166t-402 162q-134 166 -94 399q38 227 209 373q174 148 402 148zM420 625h387
q-9 141 -162 141q-151 0 -225 -141z" />
    <glyph glyph-name="edieresis" unicode="&#xeb;" horiz-adv-x="1163" 
d="M565 1438q66 0 105.5 -48.5t27.5 -115.5q-4 -51 -41 -92t-84 -59t-96 -10.5t-76 44.5q-26 27 -31 65.5t9.5 76.5t40.5 70.5t65 51.5t80 17zM905 1110q-66 0 -105.5 48.5t-27.5 115.5q4 50 41 91.5t84 60t96 10.5t76 -47q26 -27 31 -65t-9.5 -75.5t-40.5 -70t-65 -51.5
t-80 -17zM664 1053q228 0 362 -158q131 -155 90 -381q-10 -67 -35 -127h-702q27 -125 196 -125q123 0 203 74l217 -199q-178 -166 -446 -166t-402 162q-134 166 -94 399q38 227 209 373q174 148 402 148zM420 625h387q-9 141 -162 141q-151 0 -225 -141z" />
    <glyph glyph-name="igrave" unicode="&#xec;" horiz-adv-x="536" 
d="M537 1126h-318l-96 308h371zM348 0l180 1024h-340l-180 -1024h340z" />
    <glyph glyph-name="iacute" unicode="&#xed;" horiz-adv-x="536" 
d="M207 1126l135 308h387l-199 -308h-323zM8 0h340l180 1024h-340z" />
    <glyph glyph-name="icircumflex" unicode="&#xee;" horiz-adv-x="536" 
d="M444 1116l-45 98l-75 -98h-308l244 318h340l133 -318h-289zM348 0h-340l180 1024h340z" />
    <glyph glyph-name="idieresis" unicode="&#xef;" horiz-adv-x="536" 
d="M61 1270q11 64 65.5 110.5t119.5 46.5q66 0 104.5 -45.5t26.5 -111.5q-10 -66 -65.5 -112t-121.5 -46q-65 0 -103 47t-26 111zM426 1270q12 65 67 111t119 46t102.5 -46t28.5 -111q-12 -65 -67 -111.5t-119 -46.5t-102.5 46.5t-28.5 111.5zM348 0h-340l180 1024h340z" />
    <glyph glyph-name="eth" unicode="&#xf0;" horiz-adv-x="1159" 
d="M807 1157l235 -409q83 -139 56 -297q-37 -225 -203 -353q-165 -127 -387 -127q-229 0 -367 144q-137 143 -96 377q35 185 174 307q145 124 330 133l-60 112l-288 -102l43 248l139 49l-104 195h368l47 -82l297 106l-43 -250zM758 467q9 60 -15 106q-46 70 -141 70
q-86 0 -146 -47.5t-73 -128.5q-13 -86 28.5 -135t127.5 -49t146 49.5t73 134.5z" />
    <glyph glyph-name="ntilde" unicode="&#xf1;" horiz-adv-x="1183" 
d="M694 1184q-97 73 -116 -41h-248q10 98 42.5 169.5t77 108.5t97.5 51t106.5 3.5t102.5 -39.5q21 -13 34 -19.5t27.5 -9t23.5 3.5t17.5 21.5t13.5 42.5h250q-8 -83 -32.5 -147t-59 -102.5t-76.5 -60t-87 -24.5t-89 8t-84 35zM809 1053q170 0 257 -118t52 -323l-108 -612
h-340l100 569q12 80 -22 121t-105 41q-79 0 -130.5 -47.5t-68.5 -138.5v2l-96 -547h-340l180 1024h340l-18 -104q118 133 299 133z" />
    <glyph glyph-name="ograve" unicode="&#xf2;" horiz-adv-x="1193" 
d="M895 1157h-315l-195 297h385zM528 -29q234 0 406 152q167 148 205 360q40 217 -90 394q-129 176 -375 176t-414 -148q-164 -148 -205 -360q-11 -59 -11.5 -117.5t16.5 -115.5t44 -108t70 -94t94.5 -74t118.5 -48t141 -17zM555 299q-88 0 -134.5 60t-29.5 153
q17 94 84.5 153.5t155.5 59.5q91 0 137 -59.5t29 -153.5t-84.5 -153.5t-157.5 -59.5z" />
    <glyph glyph-name="oacute" unicode="&#xf3;" horiz-adv-x="1193" 
d="M549 1157l207 297h405l-278 -297h-334zM528 -29q234 0 406 152q167 148 205 360q40 217 -90 394q-129 176 -375 176t-414 -148q-164 -148 -205 -360q-11 -59 -11.5 -117.5t16.5 -115.5t44 -108t70 -94t94.5 -74t118.5 -48t141 -17zM555 299q-88 0 -134.5 60t-29.5 153
q17 94 84.5 153.5t155.5 59.5q91 0 137 -59.5t29 -153.5t-84.5 -153.5t-157.5 -59.5z" />
    <glyph glyph-name="ocircumflex" unicode="&#xf4;" horiz-adv-x="1193" 
d="M821 1137l-59 114l-103 -114h-309l273 317h342l161 -317h-305zM674 1053q246 0 375 -176q130 -177 90 -394q-38 -212 -205 -360q-172 -152 -406 -152q-74 0 -141 17t-118.5 48t-94.5 74t-70 94t-44 108t-16.5 115.5t11.5 117.5q41 212 205 360q168 148 414 148zM631 725
q-88 0 -155.5 -59.5t-84.5 -153.5q-17 -93 29.5 -153t134.5 -60q90 0 157.5 59.5t84.5 153.5t-29 153.5t-137 59.5z" />
    <glyph glyph-name="otilde" unicode="&#xf5;" horiz-adv-x="1193" 
d="M590 1143h-248q10 98 42.5 169.5t77 108.5t97.5 51t106.5 3.5t102.5 -39.5q27 -16 42.5 -22.5t31.5 -6t26 17t17 50.5h250q-8 -83 -32.5 -147t-59 -102.5t-76.5 -60t-87 -24.5t-89 8t-84 35q-98 74 -117 -41zM528 -29q-74 0 -141 17t-118.5 48t-94.5 74t-70 94t-44 108
t-16.5 115.5t11.5 117.5q41 212 205 360q168 148 414 148t375 -176q130 -177 90 -394q-38 -212 -205 -360q-172 -152 -406 -152zM555 299q90 0 157.5 59.5t84.5 153.5t-29 153.5t-137 59.5q-88 0 -155.5 -59.5t-84.5 -153.5q-17 -93 29.5 -153t134.5 -60z" />
    <glyph glyph-name="odieresis" unicode="&#xf6;" horiz-adv-x="1193" 
d="M561 1444q66 0 105.5 -48.5t27.5 -115.5q-4 -51 -41 -92t-84 -59t-96 -10.5t-76 44.5q-26 27 -31 65.5t9.5 76.5t40.5 70.5t65 51.5t80 17zM901 1116q-66 0 -105.5 48.5t-27.5 115.5q4 50 41 91.5t84 60t96 10.5t76 -47q26 -27 31 -65t-9.5 -75.5t-40.5 -70t-65 -51.5
t-80 -17zM528 -29q-74 0 -141 17t-118.5 48t-94.5 74t-70 94t-44 108t-16.5 115.5t11.5 117.5q41 212 205 360q168 148 414 148t375 -176q130 -177 90 -394q-38 -212 -205 -360q-172 -152 -406 -152zM555 299q90 0 157.5 59.5t84.5 153.5t-29 153.5t-137 59.5
q-88 0 -155.5 -59.5t-84.5 -153.5q-17 -93 29.5 -153t134.5 -60z" />
    <glyph glyph-name="divide" unicode="&#xf7;" horiz-adv-x="1128" 
d="M643 940q-82 0 -130 58.5t-34 140.5q17 84 80.5 137t145.5 53t130 -59t31 -140q-14 -82 -76.5 -136t-146.5 -54zM1063 555h-983l57 324h983zM721 295q-17 -85 -80 -138t-145 -53t-130 58.5t-34 140.5q13 82 78 136.5t147 54.5t130 -58.5t34 -140.5z" />
    <glyph glyph-name="oslash" unicode="&#xf8;" horiz-adv-x="1193" 
d="M1022 1049l129 -72l-100 -103q128 -172 88 -391q-38 -213 -203 -362q-164 -150 -408 -150q-163 0 -284 80l-74 -76l-129 70l100 102q-129 170 -86 398q41 212 205 360q168 148 414 148q153 0 274 -80zM395 512q-9 -64 4 -100l297 305q-33 8 -61 8q-90 0 -156.5 -59.5
t-83.5 -153.5zM801 512q8 54 -4 102l-301 -305q38 -10 63 -10q90 0 157.5 59.5t84.5 153.5z" />
    <glyph glyph-name="ugrave" unicode="&#xf9;" horiz-adv-x="1183" 
d="M745 1434l125 -297h-315l-195 297h385zM739 477l97 547h340l-181 -1024h-340l19 104q-118 -133 -299 -133q-170 0 -257 118t-52 323l108 612h340l-100 -569q-12 -80 22 -121t105 -41q79 0 130 47.5t68 138.5v-2z" />
    <glyph glyph-name="uacute" unicode="&#xfa;" horiz-adv-x="1183" 
d="M725 1434h405l-278 -297h-334zM739 477l97 547h340l-181 -1024h-340l19 104q-118 -133 -299 -133q-170 0 -257 118t-52 323l108 612h340l-100 -569q-12 -80 22 -121t105 -41q79 0 130 47.5t68 138.5v-2z" />
    <glyph glyph-name="ucircumflex" unicode="&#xfb;" horiz-adv-x="1183" 
d="M756 1116l-60 115l-102 -115h-309l272 318h342l162 -318h-305zM739 477l97 547h340l-181 -1024h-340l19 104q-118 -133 -299 -133q-170 0 -257 118t-52 323l108 612h340l-100 -569q-12 -80 22 -121t105 -41q79 0 130 47.5t68 138.5v-2z" />
    <glyph glyph-name="udieresis" unicode="&#xfc;" horiz-adv-x="1183" 
d="M537 1423q66 0 105.5 -48t27.5 -115q-4 -51 -41 -92t-84 -59t-96 -10.5t-76 44.5q-26 27 -31 65.5t9.5 76t40.5 70t65 51.5t80 17zM877 1096q-66 0 -106 48.5t-28 115.5q4 50 41 91t84 59.5t96 10.5t76 -47q26 -27 31.5 -65t-9.5 -75t-41 -69.5t-64.5 -51.5t-79.5 -17z
M739 477l97 547h340l-181 -1024h-340l19 104q-118 -133 -299 -133q-170 0 -257 118t-52 323l108 612h340l-100 -569q-12 -80 22 -121t105 -41q79 0 130 47.5t68 138.5v-2z" />
    <glyph glyph-name="yacute" unicode="&#xfd;" horiz-adv-x="1124" 
d="M682 1434h405l-278 -297h-334zM557 432l266 592h391l-520 -993q-131 -253 -300 -356.5t-400 -84.5l57 320q109 0 164.5 27.5t103.5 103.5l-229 983h361z" />
    <glyph glyph-name="thorn" unicode="&#xfe;" 
d="M805 1053q210 0 323 -168q115 -168 78 -393q-38 -222 -184 -371q-144 -150 -360 -150q-200 0 -293 146l-93 -527h-339l323 1844h340l-86 -494q116 113 291 113zM866 512q19 102 -28 162.5t-144 60.5t-167 -60.5t-89 -162.5q-17 -102 31 -162.5t145 -60.5t166 60.5
t86 162.5z" />
    <glyph glyph-name="ydieresis" unicode="&#xff;" horiz-adv-x="1124" 
d="M500 1423q66 0 105.5 -48t27.5 -115q-4 -51 -41 -92t-84 -59t-96 -10.5t-76 44.5q-26 27 -31 65.5t9.5 76t40.5 70t65 51.5t80 17zM840 1096q-66 0 -105.5 48.5t-27.5 115.5q4 50 41 91t84 59.5t96 10.5t76 -47q26 -27 31 -65t-9.5 -75t-40.5 -69.5t-65 -51.5t-80 -17z
M557 432l266 592h391l-520 -993q-131 -253 -300 -356.5t-400 -84.5l57 320q109 0 164.5 27.5t103.5 103.5l-229 983h361z" />
    <glyph glyph-name="Amacron" unicode="&#x100;" horiz-adv-x="1374" 
d="M596 1810h635l-47 -266h-633zM1292 0h-391l-22 207h-478l-98 -207h-403l725 1434h446zM791 1018l-238 -496h291z" />
    <glyph glyph-name="amacron" unicode="&#x101;" 
d="M449 1401h634l-47 -266h-633zM891 911l20 113h340l-180 -1024h-340l14 80q-121 -109 -299 -109q-217 0 -325 166q-105 167 -68 389q34 217 185 371q150 156 370 156q197 0 283 -142zM821 506v6q17 100 -30.5 161.5t-145.5 61.5q-96 0 -166 -61q-71 -62 -86 -162
q-15 -101 31 -162t143 -61t166 59.5t88 157.5z" />
    <glyph glyph-name="Abreve" unicode="&#x102;" horiz-adv-x="1374" 
d="M881 1509q-174 0 -265.5 90.5t-62.5 237.5h287q-15 -90 65 -90q81 0 96 90h287q-52 -328 -407 -328zM1292 0h-391l-22 207h-478l-98 -207h-403l725 1434h446zM791 1018l-238 -496h291z" />
    <glyph glyph-name="abreve" unicode="&#x103;" 
d="M825 1100q-174 0 -265 90t-62 237h286q-15 -90 66 -90t96 90h287q-52 -327 -408 -327zM891 911l20 113h340l-180 -1024h-340l14 80q-121 -109 -299 -109q-217 0 -325 166q-105 167 -68 389q34 217 185 371q150 156 370 156q197 0 283 -142zM821 506v6q17 100 -30.5 161.5
t-145.5 61.5q-96 0 -166 -61q-71 -62 -86 -162q-15 -101 31 -162t143 -61t166 59.5t88 157.5z" />
    <glyph glyph-name="Aogonek" unicode="&#x104;" horiz-adv-x="1374" 
d="M1178 -154q-9 -49 36 -49q22 0 46 6l-39 -206q-93 -35 -187 -35q-95 0 -146.5 55t-33.5 145q20 122 164 238h-117l-22 207h-478l-98 -207h-403l725 1434h446l221 -1434q-98 -85 -114 -154zM791 1018l-238 -496h291z" />
    <glyph glyph-name="aogonek" unicode="&#x105;" 
d="M891 911l20 113h340l-180 -1024q-111 -102 -117 -168q-6 -39 37 -39q21 0 45 6l-37 -202q-78 -35 -174 -35q-95 0 -148 46.5t-46 127.5q6 132 172 264h-72l14 80q-121 -109 -299 -109q-217 0 -325 166q-105 167 -68 389q34 217 185 371q150 156 370 156q197 0 283 -142z
M821 506v6q17 100 -30.5 161.5t-145.5 61.5q-96 0 -166 -61q-71 -62 -86 -162q-15 -101 31 -162t143 -61t166 59.5t88 157.5z" />
    <glyph glyph-name="Cacute" unicode="&#x106;" horiz-adv-x="1478" 
d="M807 1567l207 297h405l-278 -297h-334zM735 -31q201 0 373.5 88t288.5 248l-301 195q-129 -172 -336 -172q-164 0 -246 108q-81 108 -53 281q29 171 153 280q127 109 293 109q203 0 285 -162l336 178q-80 163 -229.5 252.5t-356.5 89.5q-319 0 -557 -204
q-236 -205 -289 -523q-53 -328 127 -547q182 -221 512 -221z" />
    <glyph glyph-name="cacute" unicode="&#x107;" horiz-adv-x="1089" 
d="M500 1147l207 297h405l-278 -297h-334zM532 -29q155 0 283 67.5t205 194.5l-270 173q-71 -103 -191 -103q-87 0 -135 60t-31 151q13 91 81.5 149t160.5 58q114 0 160 -98l309 161q-57 126 -169.5 197.5t-270.5 71.5q-228 0 -402 -148q-171 -143 -209 -373
q-37 -234 99 -399q134 -162 380 -162z" />
    <glyph glyph-name="Cdotaccent" unicode="&#x10a;" horiz-adv-x="1478" 
d="M987 1542q-75 0 -120 54t-31 128q14 75 77 130t138 55t120 -55t33 -130q-17 -74 -80.5 -128t-136.5 -54zM735 -31q-330 0 -512 221q-180 219 -127 547q53 318 289 523q238 204 557 204q207 0 356.5 -89.5t229.5 -252.5l-336 -178q-82 162 -285 162q-166 0 -293 -109
q-124 -109 -153 -280q-28 -173 53 -281q82 -108 246 -108q207 0 336 172l301 -195q-116 -160 -288.5 -248t-373.5 -88z" />
    <glyph glyph-name="cdotaccent" unicode="&#x10b;" horiz-adv-x="1089" 
d="M680 1122q-75 0 -120.5 54.5t-31.5 128.5q14 75 77 129.5t138 54.5t120.5 -54.5t33.5 -129.5q-17 -74 -80.5 -128.5t-136.5 -54.5zM532 -29q-246 0 -380 162q-136 165 -99 399q38 230 209 373q174 148 402 148q158 0 270.5 -71.5t169.5 -197.5l-309 -161q-46 98 -160 98
q-92 0 -160.5 -58t-81.5 -149q-17 -91 31 -151t135 -60q120 0 191 103l270 -173q-77 -127 -205 -194.5t-283 -67.5z" />
    <glyph glyph-name="Ccaron" unicode="&#x10c;" horiz-adv-x="1478" 
d="M1149 1546h-342l-162 318h297l62 -115l100 115h317zM760 328q207 0 336 172l301 -195q-116 -160 -288.5 -248t-373.5 -88q-330 0 -512 221q-180 219 -127 547q53 318 289 523q238 204 557 204q207 0 356.5 -89.5t229.5 -252.5l-336 -178q-82 162 -285 162
q-166 0 -293 -109q-124 -109 -153 -280q-28 -173 53 -281q82 -108 246 -108z" />
    <glyph glyph-name="ccaron" unicode="&#x10d;" horiz-adv-x="1089" 
d="M842 1126h-342l-162 318h297l61 -115l101 115h317zM635 721q-92 0 -160.5 -58t-81.5 -149q-17 -91 31 -151t135 -60q120 0 191 103l270 -173q-77 -127 -205 -194.5t-283 -67.5q-246 0 -380 162q-136 165 -99 399q38 230 209 373q174 148 402 148q158 0 270.5 -71.5
t169.5 -197.5l-309 -161q-46 98 -160 98z" />
    <glyph glyph-name="Dcaron" unicode="&#x10e;" horiz-adv-x="1452" 
d="M995 1526h-342l-161 317h296l62 -114l100 114h318zM274 1434h584q284 0 453 -217q169 -216 116 -521q-56 -308 -280 -501q-227 -195 -541 -195h-583zM1071 723q26 161 -49 258.5t-225 97.5h-207l-129 -725h196q156 0 269 101q115 103 145 268z" />
    <glyph glyph-name="dcaron" unicode="&#x10f;" horiz-adv-x="1552" 
d="M893 909l92 525h340l-252 -1434h-340l15 82q-120 -111 -302 -111q-217 0 -325 166q-105 167 -68 389q34 217 185 371q150 156 370 156q196 0 285 -144zM1329 985l101 449h315l-150 -449h-266zM569 289q94 0 163 57.5t89 153.5l4 20q15 98 -34 156q-47 59 -144 59
q-98 0 -168 -61q-71 -62 -86 -162q-17 -100 31 -161.5t145 -61.5z" />
    <glyph glyph-name="Dcroat" unicode="&#x110;" horiz-adv-x="1513" 
d="M336 1434h584q283 0 452 -217t117 -521q-55 -307 -281 -501q-227 -195 -540 -195h-584l96 553h-108l51 295h108zM1133 723q26 161 -49.5 258.5t-225.5 97.5h-207l-43 -231h240l-51 -295h-240l-35 -199h197q155 0 268 101q116 104 146 268z" />
    <glyph glyph-name="dslash" unicode="&#x111;" horiz-adv-x="1280" 
d="M1305 1321h118l-39 -217h-116l-195 -1104h-340l15 76q-117 -105 -299 -105q-224 0 -332 164q-107 162 -66 389q38 213 189 361q149 149 366 149q196 0 285 -141l37 211h-281l39 217h279l20 113h340zM391 502q-19 -98 30 -157.5t146 -59.5t166 59.5t88 157.5
q17 100 -31 159.5t-145 59.5t-167 -60.5t-87 -158.5z" />
    <glyph glyph-name="Emacron" unicode="&#x112;" horiz-adv-x="1095" 
d="M479 1810h635l-47 -266h-633zM1186 1434l-62 -342h-542l-37 -201h495l-61 -336h-492l-36 -211h553l-60 -344h-921l251 1434h912z" />
    <glyph glyph-name="emacron" unicode="&#x113;" horiz-adv-x="1163" 
d="M442 1415h635l-47 -266h-633zM664 1053q228 0 362 -158q131 -155 90 -381q-10 -67 -35 -127h-702q27 -125 196 -125q123 0 203 74l217 -199q-178 -166 -446 -166t-402 162q-134 166 -94 399q38 227 209 373q174 148 402 148zM420 625h387q-9 141 -162 141
q-151 0 -225 -141z" />
    <glyph glyph-name="Edotaccent" unicode="&#x116;" horiz-adv-x="1095" 
d="M748 1522q-75 0 -120.5 54t-31.5 128q14 75 77 129.5t138 54.5t120.5 -54.5t33.5 -129.5q-17 -74 -80.5 -128t-136.5 -54zM1186 1434l-62 -342h-542l-37 -201h495l-61 -336h-492l-36 -211h553l-60 -344h-921l251 1434h912z" />
    <glyph glyph-name="edotaccent" unicode="&#x117;" horiz-adv-x="1163" 
d="M711 1126q-75 0 -120.5 54.5t-31.5 128.5q14 75 77 129.5t138 54.5t120.5 -54.5t33.5 -129.5q-17 -74 -80.5 -128.5t-136.5 -54.5zM664 1053q228 0 362 -158q131 -155 90 -381q-10 -67 -35 -127h-702q27 -125 196 -125q123 0 203 74l217 -199q-178 -166 -446 -166
t-402 162q-134 166 -94 399q38 227 209 373q174 148 402 148zM420 625h387q-9 141 -162 141q-151 0 -225 -141z" />
    <glyph glyph-name="Eogonek" unicode="&#x118;" horiz-adv-x="1095" 
d="M1186 1434l-62 -342h-542l-37 -201h495l-61 -336h-492l-36 -211h553l-60 -344q-108 -99 -117 -160q-9 -47 35 -47q12 -3 47 6l-37 -202q-69 -27 -140.5 -32.5t-128 10t-85.5 61t-14 112.5q21 119 172 252h-653l251 1434h912z" />
    <glyph glyph-name="eogonek" unicode="&#x119;" horiz-adv-x="1163" 
d="M664 1053q228 0 362 -158q131 -155 90 -381q-10 -67 -35 -127h-702q27 -125 196 -125q123 0 203 74l217 -199q-38 -35 -63 -53q-86 -64 -142.5 -128t-68.5 -106q-18 -57 39 -57q20 0 41 6l-37 -202q-84 -35 -172 -35q-109 0 -161.5 53t-35.5 139q18 103 156 217h-2
q-268 0 -402 162q-134 166 -94 399q38 227 209 373q174 148 402 148zM420 625h387q-9 141 -162 141q-151 0 -225 -141z" />
    <glyph glyph-name="Ecaron" unicode="&#x11a;" horiz-adv-x="1095" 
d="M909 1526h-342l-161 317h296l62 -114l100 114h318zM1186 1434l-62 -342h-542l-37 -201h495l-61 -336h-492l-36 -211h553l-60 -344h-921l251 1434h912z" />
    <glyph glyph-name="ecaron" unicode="&#x11b;" horiz-adv-x="1163" 
d="M872 1130h-342l-161 318h297l61 -115l100 115h318zM664 1053q228 0 362 -158q131 -155 90 -381q-10 -67 -35 -127h-702q27 -125 196 -125q123 0 203 74l217 -199q-178 -166 -446 -166t-402 162q-134 166 -94 399q38 227 209 373q174 148 402 148zM420 625h387
q-9 141 -162 141q-151 0 -225 -141z" />
    <glyph glyph-name="Gbreve" unicode="&#x11e;" horiz-adv-x="1595" 
d="M1004 1530q-174 0 -265.5 90.5t-62.5 237.5h287q-15 -91 65 -91q81 0 96 91h287q-52 -328 -407 -328zM868 821h723l-24 -145q-53 -326 -277 -516q-226 -191 -549 -191q-334 0 -516 221q-181 225 -129 547q52 316 291 523q235 204 557 204q208 0 362.5 -88.5t237.5 -249.5
l-336 -180q-89 160 -301 160q-166 0 -293 -109q-124 -109 -153 -280q-30 -173 55 -287q85 -113 258 -113q262 0 371 189h-332z" />
    <glyph glyph-name="gbreve" unicode="&#x11f;" horiz-adv-x="1267" 
d="M739 1120q-174 0 -265 90.5t-62 237.5h286q-15 -90 66 -90t96 90h287q-52 -328 -408 -328zM903 903l21 121h336l-175 -983q-44 -249 -208 -365q-162 -116 -396 -116q-174 0 -300 64.5t-179 185.5l301 157q58 -110 209 -110q96 0 158.5 47t79.5 137l14 78
q-119 -107 -291 -107q-114 0 -202.5 46t-138.5 121.5t-68.5 171t-0.5 196.5q29 201 179 354q152 152 372 152q200 0 289 -150zM582 322q90 0 159.5 52.5t92.5 137.5l6 41q8 85 -42.5 137.5t-140.5 52.5q-96 0 -166.5 -59t-87.5 -152q-17 -92 32.5 -151t146.5 -59z" />
    <glyph glyph-name="Gdotaccent" unicode="&#x120;" horiz-adv-x="1595" 
d="M987 1542q-75 0 -120 54t-31 128q14 75 77 130t138 55t120 -55t33 -130q-17 -74 -80.5 -128t-136.5 -54zM868 821h723l-24 -145q-53 -326 -277 -516q-226 -191 -549 -191q-334 0 -516 221q-181 225 -129 547q52 316 291 523q235 204 557 204q208 0 362.5 -88.5
t237.5 -249.5l-336 -180q-89 160 -301 160q-166 0 -293 -109q-124 -109 -153 -280q-30 -173 55 -287q85 -113 258 -113q262 0 371 189h-332z" />
    <glyph glyph-name="gdotaccent" unicode="&#x121;" horiz-adv-x="1267" 
d="M723 1133q-75 0 -120.5 54t-31.5 128q14 75 77 129.5t138 54.5t120.5 -54.5t33.5 -129.5q-17 -74 -80.5 -128t-136.5 -54zM903 903l21 121h336l-175 -983q-44 -249 -208 -365q-162 -116 -396 -116q-174 0 -300 64.5t-179 185.5l301 157q58 -110 209 -110q96 0 158.5 47
t79.5 137l14 78q-119 -107 -291 -107q-114 0 -202.5 46t-138.5 121.5t-68.5 171t-0.5 196.5q29 201 179 354q152 152 372 152q200 0 289 -150zM582 322q90 0 159.5 52.5t92.5 137.5l6 41q8 85 -42.5 137.5t-140.5 52.5q-96 0 -166.5 -59t-87.5 -152q-17 -92 32.5 -151
t146.5 -59z" />
    <glyph glyph-name="Gcommaaccent" unicode="&#x122;" horiz-adv-x="1595" 
d="M868 821h723l-24 -145q-53 -326 -277 -516q-226 -191 -549 -191q-334 0 -516 221q-181 225 -129 547q52 316 291 523q235 204 557 204q208 0 362.5 -88.5t237.5 -249.5l-336 -180q-89 160 -301 160q-166 0 -293 -109q-124 -109 -153 -280q-30 -173 55 -287
q85 -113 258 -113q262 0 371 189h-332zM723 -567h-264l98 450h315z" />
    <glyph glyph-name="gcommaaccent" unicode="&#x123;" horiz-adv-x="1267" 
d="M700 1628h265l-101 -450h-315zM903 903l21 121h336l-175 -983q-44 -249 -208 -365q-162 -116 -396 -116q-174 0 -300 64.5t-179 185.5l301 157q58 -110 209 -110q96 0 158.5 47t79.5 137l14 78q-119 -107 -291 -107q-114 0 -202.5 46t-138.5 121.5t-68.5 171t-0.5 196.5
q29 201 179 354q152 152 372 152q200 0 289 -150zM582 322q90 0 159.5 52.5t92.5 137.5l6 41q8 85 -42.5 137.5t-140.5 52.5q-96 0 -166.5 -59t-87.5 -152q-17 -92 32.5 -151t146.5 -59z" />
    <glyph glyph-name="Hbar" unicode="&#x126;" horiz-adv-x="1443" 
d="M1417 1245h123l-45 -266h-125l-172 -979h-364l79 451h-403l-80 -451h-367l173 979h-121l45 266h123l32 189h367l-33 -189h404l32 189h365zM571 805h404l31 174h-404z" />
    <glyph glyph-name="hbar" unicode="&#x127;" horiz-adv-x="1202" 
d="M823 1028q170 0 258 -118t52 -322l-103 -588h-340l94 545q13 81 -20.5 122.5t-106.5 41.5q-148 0 -192 -160l-96 -549h-340l194 1104h-119l39 217h117l21 113h340l-21 -113h279l-39 -217h-277l-37 -207q119 131 297 131z" />
    <glyph glyph-name="Itilde" unicode="&#x128;" horiz-adv-x="591" 
d="M23 0l251 1434h367l-252 -1434h-366zM358 1532h-247q10 98 42.5 169.5t77 108.5t97.5 51t106.5 3.5t102.5 -39.5q21 -13 34 -19.5t27.5 -9t23.5 3.5t17.5 21.5t13.5 42.5h250q-8 -83 -32.5 -147t-59 -102.5t-76.5 -60t-87 -24.5t-89 8t-84 35q-98 74 -117 -41z" />
    <glyph glyph-name="itilde" unicode="&#x129;" horiz-adv-x="536" 
d="M348 0h-340l180 1024h340zM270 1122h-213q11 122 51 202t93.5 108.5t112 24t112.5 -41.5q22 -16 35.5 -22.5t27 -6t22.5 17t15 50.5h215q-9 -99 -37 -171t-67 -108t-85 -49t-92 -2.5t-87 39.5q-87 73 -103 -41z" />
    <glyph glyph-name="Imacron" unicode="&#x12a;" horiz-adv-x="591" 
d="M795 1544h-633l45 266h635zM23 0l251 1434h367l-252 -1434h-366z" />
    <glyph glyph-name="imacron" unicode="&#x12b;" horiz-adv-x="536" 
d="M645 1135h-530l47 276h530zM348 0h-340l180 1024h340z" />
    <glyph glyph-name="Iogonek" unicode="&#x12e;" horiz-adv-x="591" 
d="M641 1434l-252 -1434q-96 -104 -102 -162q-6 -45 39 -45q11 -3 45 6l-37 -202q-93 -35 -187 -35t-144 54t-38 140q18 120 154 244h-96l251 1434h367z" />
    <glyph glyph-name="iogonek" unicode="&#x12f;" horiz-adv-x="536" 
d="M440 1499q82 0 130 -57t34 -137q-12 -82 -77.5 -139.5t-149.5 -57.5q-80 0 -128.5 59t-35.5 138q12 79 77.5 136.5t149.5 57.5zM66 0h-58l180 1024h340l-180 -1024q-85 -99 -94 -162q-6 -45 37 -45q11 -3 45 6l-37 -202q-90 -35 -186 -35q-92 0 -143 53t-40 135
q9 105 136 250z" />
    <glyph glyph-name="Idot" unicode="&#x130;" horiz-adv-x="591" 
d="M475 1522q-75 0 -120 54t-31 128q14 75 77 129.5t138 54.5t120 -54.5t33 -129.5q-17 -74 -80.5 -128t-136.5 -54zM23 0l251 1434h367l-252 -1434h-366z" />
    <glyph glyph-name="dotlessi" unicode="&#x131;" horiz-adv-x="536" 
d="M348 0h-340l180 1024h340z" />
    <glyph glyph-name="Kcommaaccent" unicode="&#x136;" horiz-adv-x="1292" 
d="M1028 1434h428l-610 -713l364 -721h-379l-327 653l-115 -653h-366l251 1434h367l-102 -582zM547 -567h-264l98 450h315z" />
    <glyph glyph-name="kcommaaccent" unicode="&#x137;" horiz-adv-x="1099" 
d="M782 1024h392l-431 -514l267 -510h-365l-217 451l-80 -451h-340l252 1434h340l-143 -816zM492 -567h-265l99 450h315z" />
    <glyph glyph-name="Lacute" unicode="&#x139;" horiz-adv-x="993" 
d="M516 1843h406l-279 -297h-334zM641 1434l-190 -1080h493l-61 -354h-860l251 1434h367z" />
    <glyph glyph-name="lacute" unicode="&#x13a;" horiz-adv-x="538" 
d="M283 1556l206 297h406l-279 -297h-333zM10 0h340l115 647l147 848h-340l-147 -838z" />
    <glyph glyph-name="Lcommaaccent" unicode="&#x13b;" horiz-adv-x="993" 
d="M641 1434l-190 -1080h493l-61 -354h-860l251 1434h367zM446 -567h-264l99 450h315z" />
    <glyph glyph-name="lcommaaccent" unicode="&#x13c;" horiz-adv-x="538" 
d="M350 0h-340l115 657l147 838h340l-147 -848zM166 -567h-264l98 450h315z" />
    <glyph glyph-name="Lcaron" unicode="&#x13d;" horiz-adv-x="993" 
d="M274 1434h367l-190 -1080h493l-61 -354h-860zM670 1026l90 408h336l-142 -408h-284z" />
    <glyph glyph-name="lcaron" unicode="&#x13e;" horiz-adv-x="813" 
d="M350 0h-340l115 657l147 838h340l-147 -848zM866 1047h-264l100 448h316z" />
    <glyph glyph-name="Lslash" unicode="&#x141;" horiz-adv-x="1054" 
d="M561 631l-49 -277h494l-62 -354h-860l72 408l-136 -74l64 362l135 74l117 664h366l-77 -441l272 150l-63 -363z" />
    <glyph glyph-name="lslash" unicode="&#x142;" horiz-adv-x="571" 
d="M539 973l114 65l-55 -321l-117 -66v-4l-114 -647h-340l75 434l-116 -67l57 321l115 66l131 741h340z" />
    <glyph glyph-name="Nacute" unicode="&#x143;" horiz-adv-x="1382" 
d="M688 1546l207 297h405l-278 -297h-334zM23 0h366l133 750l373 -750h283l252 1434h-365l-133 -750l-373 750h-285z" />
    <glyph glyph-name="nacute" unicode="&#x144;" horiz-adv-x="1183" 
d="M721 1454h405l-278 -297h-334zM809 1053q170 0 257 -118t52 -323l-108 -612h-340l100 569q12 80 -22 121t-105 41q-79 0 -130.5 -47.5t-68.5 -138.5v2l-96 -547h-340l180 1024h340l-18 -104q118 133 299 133z" />
    <glyph glyph-name="Ncommaaccent" unicode="&#x145;" horiz-adv-x="1382" 
d="M389 0h-366l251 1434h285l373 -750l133 750h365l-252 -1434h-283l-373 750zM608 -567h-264l98 450h316z" />
    <glyph glyph-name="ncommaaccent" unicode="&#x146;" horiz-adv-x="1183" 
d="M809 1053q170 0 257 -118t52 -323l-108 -612h-340l100 569q12 80 -22 121t-105 41q-79 0 -130.5 -47.5t-68.5 -138.5v2l-96 -547h-340l180 1024h340l-18 -104q118 133 299 133zM518 -567h-264l98 450h316z" />
    <glyph glyph-name="Ncaron" unicode="&#x147;" horiz-adv-x="1382" 
d="M1030 1526h-342l-162 317h297l62 -114l100 114h318zM932 684l133 750h365l-252 -1434h-283l-373 750l-133 -750h-366l251 1434h285z" />
    <glyph glyph-name="ncaron" unicode="&#x148;" horiz-adv-x="1183" 
d="M856 1137h-342l-162 317h297l62 -115l100 115h317zM809 1053q170 0 257 -118t52 -323l-108 -612h-340l100 569q12 80 -22 121t-105 41q-79 0 -130.5 -47.5t-68.5 -138.5v2l-96 -547h-340l180 1024h340l-18 -104q118 133 299 133z" />
    <glyph glyph-name="Eng" unicode="&#x14a;" horiz-adv-x="1382" 
d="M932 684l133 750h365l-252 -1434q-42 -234 -182 -339t-394 -85l57 315q149 -6 170 123l17 86l-324 650l-133 -750h-366l251 1434h285z" />
    <glyph glyph-name="eng" unicode="&#x14b;" horiz-adv-x="1183" 
d="M809 1053q170 0 257 -118t52 -323l-108 -612q-41 -239 -170.5 -342t-364.5 -86l55 307q119 -9 140 121l100 569q12 80 -22 121t-105 41q-79 0 -130.5 -47.5t-68.5 -138.5v2l-96 -547h-340l180 1024h340l-18 -104q118 133 299 133z" />
    <glyph glyph-name="Omacron" unicode="&#x14c;" horiz-adv-x="1617" 
d="M1311 1565h-633l45 266h635zM737 -31q-107 -2 -205 27t-174 81.5t-136.5 125.5t-93 159t-44 182t11.5 195q53 308 289 516q238 209 571 209q326 0 506 -229q183 -230 131 -537q-53 -312 -286 -520q-232 -209 -570 -209zM1229 717q30 168 -60 278q-89 111 -256 111
q-166 0 -295 -111q-127 -109 -157 -278q-30 -173 55 -281q89 -108 254 -108t297 108q135 114 162 281z" />
    <glyph glyph-name="omacron" unicode="&#x14d;" horiz-adv-x="1193" 
d="M1026 1155h-633l45 266h635zM528 -29q-74 0 -141 17t-118.5 48t-94.5 74t-70 94t-44 108t-16.5 115.5t11.5 117.5q41 212 205 360q168 148 414 148t375 -176q130 -177 90 -394q-38 -212 -205 -360q-172 -152 -406 -152zM555 299q90 0 157.5 59.5t84.5 153.5t-29 153.5
t-137 59.5q-88 0 -155.5 -59.5t-84.5 -153.5q-17 -93 29.5 -153t134.5 -60z" />
    <glyph glyph-name="Ohungarumlaut" unicode="&#x150;" horiz-adv-x="1617" 
d="M584 1546l217 307h336l-232 -307h-321zM977 1546l240 307h333l-250 -307h-323zM737 -31q338 0 570 209q233 208 286 520q52 307 -131 537q-180 229 -506 229q-333 0 -571 -209q-236 -208 -289 -516q-23 -99 -11.5 -195t44 -182t93 -159t136.5 -125.5t174 -81.5t205 -27z
M1229 717q-27 -167 -162 -281q-132 -108 -297 -108q-166 0 -254 108q-85 108 -55 281q30 169 157 278q129 111 295 111q167 0 256 -111q90 -110 60 -278z" />
    <glyph glyph-name="ohungarumlaut" unicode="&#x151;" horiz-adv-x="1193" 
d="M299 1137l217 307h336l-231 -307h-322zM692 1137l240 307h334l-250 -307h-324zM528 -29q234 0 406 152q167 148 205 360q40 217 -90 394q-129 176 -375 176t-414 -148q-164 -148 -205 -360q-11 -59 -11.5 -117.5t16.5 -115.5t44 -108t70 -94t94.5 -74t118.5 -48t141 -17z
M555 299q-88 0 -134.5 60t-29.5 153q17 94 84.5 153.5t155.5 59.5q91 0 137 -59.5t29 -153.5t-84.5 -153.5t-157.5 -59.5z" />
    <glyph glyph-name="OE" unicode="&#x152;" horiz-adv-x="1912" 
d="M2003 1434l-59 -344h-463l-35 -199h412l-60 -336h-409l-37 -211h471l-62 -344h-837q-115 -31 -222 -31q-320 0 -489 224q-171 227 -119 536q50 306 289 520q241 215 563 215q131 0 230 -30l-64 -361q-76 33 -209 33q-162 0 -289 -109q-123 -108 -153 -280
q-30 -175 51 -281q82 -108 248 -108q139 0 227 32l189 1074h827z" />
    <glyph glyph-name="oe" unicode="&#x153;" horiz-adv-x="1910" 
d="M1432 1053q216 0 344 -158q128 -159 88 -381q-10 -67 -35 -127h-703q27 -125 197 -125q123 0 203 74l217 -199q-178 -166 -430 -166q-273 0 -393 176q-164 -176 -412 -176q-171 0 -287 84q-109 82 -150.5 206t-17.5 271q38 217 197 367q165 154 407 154q239 0 359 -176
q167 176 416 176zM1167 625h387q-9 141 -161 141q-153 0 -226 -141zM635 725q-90 0 -157.5 -59.5t-84.5 -153.5q-17 -93 30.5 -153t135.5 -60q91 0 159 59.5t85 153.5q17 93 -31 153t-137 60z" />
    <glyph glyph-name="Racute" unicode="&#x154;" horiz-adv-x="1269" 
d="M778 1843h406l-279 -297h-334zM1278 918q-25 -136 -105.5 -239t-205.5 -159l196 -520h-368l-168 463h-156l-82 -463h-366l253 1434h562q212 0 346 -152q134 -153 94 -364zM778 1096h-196l-58 -322h211q67 -1 115.5 43.5t60.5 116.5q12 73 -24 117.5t-109 44.5z" />
    <glyph glyph-name="racute" unicode="&#x155;" horiz-adv-x="778" 
d="M532 1434h406l-279 -297h-333zM528 1024l-34 -193q47 103 138 158t208 55l-64 -376q-119 15 -223 -41q-105 -58 -129 -203l4 33l-80 -457h-340l180 1024h340z" />
    <glyph glyph-name="Rcommaaccent" unicode="&#x156;" horiz-adv-x="1269" 
d="M1278 918q-25 -136 -105.5 -239t-205.5 -159l196 -520h-368l-168 463h-156l-82 -463h-366l253 1434h562q212 0 346 -152q134 -153 94 -364zM778 1096h-196l-58 -322h211q67 -1 115.5 43.5t60.5 116.5q12 73 -24 117.5t-109 44.5zM604 -567h-264l98 450h316z" />
    <glyph glyph-name="rcommaaccent" unicode="&#x157;" horiz-adv-x="778" 
d="M528 1024l-34 -193q47 103 138 158t208 55l-64 -376q-119 15 -223 -41q-105 -58 -129 -203l4 33l-80 -457h-340l180 1024h340zM164 -567h-264l98 450h315z" />
    <glyph glyph-name="Rcaron" unicode="&#x158;" horiz-adv-x="1269" 
d="M913 1526h-342l-161 317h297l61 -114l100 114h318zM1278 918q-25 -136 -105.5 -239t-205.5 -159l196 -520h-368l-168 463h-156l-82 -463h-366l253 1434h562q212 0 346 -152q134 -153 94 -364zM778 1096h-196l-58 -322h211q67 -1 115.5 43.5t60.5 116.5q12 73 -24 117.5
t-109 44.5z" />
    <glyph glyph-name="rcaron" unicode="&#x159;" horiz-adv-x="778" 
d="M668 1116h-342l-162 318h297l61 -115l101 115h317zM528 1024l-34 -193q47 103 138 158t208 55l-64 -376q-119 15 -223 -41q-105 -58 -129 -203l4 33l-80 -457h-340l180 1024h340z" />
    <glyph glyph-name="Sacute" unicode="&#x15a;" horiz-adv-x="1204" 
d="M588 1567l207 297h405l-278 -297h-334zM551 -31q242 0 397 107t191 307q38 226 -92 332q-59 52 -116.5 80.5t-160.5 64.5q-139 49 -186 82.5t-35 83.5q18 92 147 92q150 0 217 -149l314 168q-61 158 -191.5 242.5t-310.5 84.5q-211 0 -363 -110q-152 -109 -186 -305
q-34 -185 64 -297q93 -106 284 -172q145 -51 150 -54q106 -46 94 -112q-18 -99 -186 -99q-204 0 -263 179l-325 -168q45 -169 188.5 -263t368.5 -94z" />
    <glyph glyph-name="sacute" unicode="&#x15b;" horiz-adv-x="968" 
d="M412 1157l206 297h406l-279 -297h-333zM430 -29q174 0 301 74q129 75 156 231q43 255 -203 328q-30 12 -71.5 23t-69.5 18.5t-53.5 17.5t-36.5 25t-7 37q12 58 91 55q90 -3 127 -94l288 139q-49 109 -156 168.5t-249 59.5q-153 0 -285 -78q-129 -76 -156 -232
q-47 -267 273 -348q88 -24 130.5 -45t37.5 -49q-9 -49 -98 -49q-123 0 -170 117l-299 -146q111 -252 450 -252z" />
    <glyph glyph-name="Scedilla" unicode="&#x15e;" horiz-adv-x="1204" 
d="M770 860q103 -36 160.5 -64.5t116.5 -80.5q130 -106 92 -332q-30 -172 -150 -275.5t-311 -130.5l-12 -71q109 -51 88 -176q-41 -217 -512 -183l39 224q191 -15 200 28q6 35 -102 41l24 142q-163 26 -267.5 115.5t-141.5 228.5l325 168q59 -179 263 -179q168 0 186 99
q12 66 -94 112q-5 3 -150 54q-191 66 -284 172q-98 112 -64 297q34 196 186 305q152 110 363 110q180 0 310.5 -84.5t191.5 -242.5l-314 -168q-67 149 -217 149q-129 0 -147 -92q-12 -50 35 -83.5t186 -82.5z" />
    <glyph glyph-name="scedilla" unicode="&#x15f;" horiz-adv-x="968" 
d="M446 725q-4 -22 7 -37t36.5 -25t53.5 -17.5t69.5 -18.5t71.5 -23q246 -73 203 -328q-46 -241 -326 -294l-14 -76q109 -51 88 -176q-41 -217 -512 -183l39 224q191 -15 200 28q6 35 -102 41l27 144q-225 43 -307 239l299 146q47 -117 170 -117q89 0 98 49q5 28 -37.5 49
t-130.5 45q-320 81 -273 348q27 156 156 232q132 78 285 78q142 0 249 -59.5t156 -168.5l-288 -139q-37 91 -127 94q-79 3 -91 -55z" />
    <glyph glyph-name="Scaron" unicode="&#x160;" horiz-adv-x="1204" 
d="M930 1546h-342l-162 318h297l61 -115l101 115h317zM770 860q103 -36 160.5 -64.5t116.5 -80.5q130 -106 92 -332q-36 -200 -191 -307t-397 -107q-225 0 -368.5 94t-188.5 263l325 168q59 -179 263 -179q168 0 186 99q12 66 -94 112q-5 3 -150 54q-191 66 -284 172
q-98 112 -64 297q34 196 186 305q152 110 363 110q180 0 310.5 -84.5t191.5 -242.5l-314 -168q-67 149 -217 149q-129 0 -147 -92q-12 -50 35 -83.5t186 -82.5z" />
    <glyph glyph-name="scaron" unicode="&#x161;" horiz-adv-x="968" 
d="M754 1137h-342l-162 317h297l61 -115l101 115h317zM537 780q-79 3 -91 -55q-4 -22 7 -37t36.5 -25t53.5 -17.5t69.5 -18.5t71.5 -23q246 -73 203 -328q-27 -156 -156 -231q-127 -74 -301 -74q-339 0 -450 252l299 146q47 -117 170 -117q89 0 98 49q5 28 -37.5 49
t-130.5 45q-320 81 -273 348q27 156 156 232q132 78 285 78q142 0 249 -59.5t156 -168.5l-288 -139q-37 91 -127 94z" />
    <glyph glyph-name="uni0162" unicode="&#x162;" horiz-adv-x="1116" 
d="M182 1434h1075l-63 -355h-352l-191 -1079h-366l190 1079h-354zM459 -567h-264l98 450h315z" />
    <glyph glyph-name="uni0163" unicode="&#x163;" horiz-adv-x="806" 
d="M766 698h-213l-51 -297q-12 -66 30 -84t166 -10l-53 -307q-288 -38 -407 58.5t-78 334.5l53 305h-154l58 326h153l33 184l359 103l-52 -287h215zM375 -557h-264l98 451h315z" />
    <glyph glyph-name="Tcaron" unicode="&#x164;" horiz-adv-x="1116" 
d="M897 1526h-342l-162 317h297l62 -114l100 114h317zM182 1434h1075l-63 -355h-352l-191 -1079h-366l190 1079h-354z" />
    <glyph glyph-name="tcaron" unicode="&#x165;" horiz-adv-x="880" 
d="M700 1098l88 389h308l-142 -389h-254zM303 1208l359 103l-52 -287h215l-59 -326h-213l-51 -297q-12 -66 30 -84t166 -10l-53 -307q-288 -38 -407 58.5t-78 334.5l53 305h-154l58 326h153z" />
    <glyph glyph-name="Tbar" unicode="&#x166;" horiz-adv-x="1116" 
d="M1257 1434l-63 -355h-352l-43 -235h215l-58 -324h-213l-92 -520h-366l92 520h-219l57 324h217l43 235h-354l61 355h1075z" />
    <glyph glyph-name="tbar" unicode="&#x167;" horiz-adv-x="806" 
d="M825 1024l-53 -297h-213l-14 -84h147l-43 -246h-147q-10 -64 32 -81t164 -9l-53 -307q-288 -38 -407 58.5t-78 334.5v4h-103l43 246h103l16 84h-156l54 297h153l33 184l359 103l-52 -287h215z" />
    <glyph glyph-name="Utilde" unicode="&#x168;" horiz-adv-x="1320" 
d="M594 -31q-261 0 -406 142q-142 143 -102 360l170 963h367l-164 -928q-34 -180 170 -180q199 0 233 180l162 928h367l-170 -963q-43 -241 -213 -373q-170 -129 -414 -129zM723 1532h-248q10 98 42.5 169.5t77 108.5t97.5 51t106.5 3.5t102.5 -39.5q27 -16 42.5 -22.5
t31.5 -6t26 17t17 50.5h250q-8 -83 -32.5 -147t-59 -102.5t-76.5 -60t-87 -24.5t-89 8t-84 35q-98 74 -117 -41z" />
    <glyph glyph-name="utilde" unicode="&#x169;" horiz-adv-x="1183" 
d="M739 477l97 547h340l-181 -1024h-340l19 104q-118 -133 -299 -133q-170 0 -257 118t-52 323l108 612h340l-100 -569q-12 -80 22 -121t105 -41q79 0 130 47.5t68 138.5v-2zM565 1122h-248q10 98 42.5 169.5t77 108.5t97.5 51t106.5 3.5t102.5 -39.5q27 -16 42.5 -22.5
t31.5 -6t26 17t17 50.5h250q-8 -83 -32.5 -147t-59 -102.5t-76.5 -60t-87 -24.5t-89 8t-84 35q-98 74 -117 -41z" />
    <glyph glyph-name="Umacron" unicode="&#x16a;" horiz-adv-x="1320" 
d="M1159 1544h-633l45 266h635zM594 -31q-261 0 -406 142q-142 143 -102 360l170 963h367l-164 -928q-34 -180 170 -180q199 0 233 180l162 928h367l-170 -963q-43 -241 -213 -373q-170 -129 -414 -129z" />
    <glyph glyph-name="umacron" unicode="&#x16b;" horiz-adv-x="1183" 
d="M414 1401h635l-48 -266h-632zM739 477l97 547h340l-181 -1024h-340l19 104q-118 -133 -299 -133q-170 0 -257 118t-52 323l108 612h340l-100 -569q-12 -80 22 -121t105 -41q79 0 130 47.5t68 138.5v-2z" />
    <glyph glyph-name="Uring" unicode="&#x16e;" horiz-adv-x="1320" 
d="M829 1450q-123 0 -194 80q-70 79 -49 196q20 118 111 191.5t218 73.5q125 0 195 -82q70 -79 49 -197q-20 -118 -110 -190t-220 -72zM860 1655q73 0 82 63q6 30 -9.5 49t-49.5 19q-31 0 -52 -18.5t-26 -47.5q-9 -65 55 -65zM594 -31q-261 0 -406 142q-142 143 -102 360
l170 963h367l-164 -928q-34 -180 170 -180q199 0 233 180l162 928h367l-170 -963q-43 -241 -213 -373q-170 -129 -414 -129z" />
    <glyph glyph-name="uring" unicode="&#x16f;" horiz-adv-x="1183" 
d="M682 1092q-125 0 -195 79t-49 197q20 117 111.5 190.5t218.5 73.5q125 0 195 -82q70 -79 49 -196q-20 -118 -110 -190t-220 -72zM657 1362q-9 -66 56 -66q73 0 82 64q6 30 -9.5 48.5t-50.5 18.5q-31 0 -52 -18t-26 -47zM739 477l97 547h340l-181 -1024h-340l19 104
q-118 -133 -299 -133q-170 0 -257 118t-52 323l108 612h340l-100 -569q-12 -80 22 -121t105 -41q79 0 130 47.5t68 138.5v-2z" />
    <glyph glyph-name="Uhungarumlaut" unicode="&#x170;" horiz-adv-x="1320" 
d="M432 1526l217 307h336l-231 -307h-322zM825 1526l240 307h334l-250 -307h-324zM594 -31q244 0 414 129q170 132 213 373l170 963h-367l-162 -928q-34 -180 -233 -180q-204 0 -170 180l164 928h-367l-170 -963q-40 -217 102 -360q145 -142 406 -142z" />
    <glyph glyph-name="uhungarumlaut" unicode="&#x171;" horiz-adv-x="1183" 
d="M492 1423h335l-231 -307h-322zM1241 1423l-250 -307h-323l239 307h334zM739 479v-2l97 547h340l-181 -1024h-340l19 104q-118 -133 -299 -133q-170 0 -257 118t-52 323l108 612h340l-100 -569q-12 -80 22 -121t105 -41q79 0 130 47.5t68 138.5z" />
    <glyph glyph-name="Uogonek" unicode="&#x172;" horiz-adv-x="1320" 
d="M862 506l162 928h367l-170 -963q-46 -259 -242 -393q-203 -154 -225 -238q-11 -44 34 -47q13 -3 48 6l-37 -202q-93 -35 -174 -35q-105 0 -158.5 57t-36.5 150q21 113 131 200q-246 9 -381 150q-132 140 -94 352l170 963h367l-164 -928q-34 -180 170 -180q199 0 233 180z
" />
    <glyph glyph-name="uogonek" unicode="&#x173;" horiz-adv-x="1183" 
d="M739 477l97 547h340l-181 -1024h-4q-111 -102 -117 -168q-6 -39 37 -39q21 0 45 6l-36 -202q-78 -35 -166 -35q-104 0 -162 51.5t-41 142.5q20 115 168 244h-64l19 104q-118 -133 -299 -133q-170 0 -257 118t-52 323l108 612h340l-100 -569q-12 -80 22 -121t105 -41
q79 0 130 47.5t68 138.5v-2z" />
    <glyph glyph-name="Wcircumflex" unicode="&#x174;" horiz-adv-x="2056" 
d="M1278 1526l-59 114l-103 -114h-309l272 317h342l162 -317h-305zM1419 530l385 904h402l-652 -1434h-387l-88 809l-370 -809h-387l-150 1434h371l71 -904l414 904h293z" />
    <glyph glyph-name="wcircumflex" unicode="&#x175;" horiz-adv-x="1617" 
d="M993 1116l-59 115l-103 -115h-309l273 318h342l161 -318h-305zM1096 477l229 547h371l-494 -1024h-332l-55 514l-223 -514h-348l-133 1024h340l47 -557l241 557h297z" />
    <glyph glyph-name="Ycircumflex" unicode="&#x176;" horiz-adv-x="1292" 
d="M897 1526l-59 114l-103 -114h-309l272 317h342l162 -317h-305zM1020 1434h434l-604 -809l-111 -625h-366l110 625l-321 809h389l154 -461z" />
    <glyph glyph-name="ycircumflex" unicode="&#x177;" horiz-adv-x="1124" 
d="M719 1116l-60 115l-102 -115h-309l272 318h342l162 -318h-305zM557 432l266 592h391l-520 -993q-131 -253 -300 -356.5t-400 -84.5l57 320q109 0 164.5 27.5t103.5 103.5l-229 983h361z" />
    <glyph glyph-name="Ydieresis" unicode="&#x178;" horiz-adv-x="1292" 
d="M678 1833q66 0 105.5 -48.5t27.5 -115.5q-4 -51 -41 -92t-84 -59t-96 -10.5t-76 44.5q-26 27 -31 65.5t9.5 76.5t40.5 70.5t65 51.5t80 17zM1018 1505q-66 0 -105.5 48.5t-27.5 115.5q4 50 41 91.5t84 60t96 10.5t76 -47q26 -27 31 -65t-9.5 -75.5t-40.5 -70t-65 -51.5
t-80 -17zM1020 1434h434l-604 -809l-111 -625h-366l110 625l-321 809h389l154 -461z" />
    <glyph glyph-name="Zacute" unicode="&#x179;" horiz-adv-x="1110" 
d="M774 1843h406l-279 -297h-334zM240 1434h970l-47 -283l-639 -797h512l-61 -354h-998l50 283l641 796h-492z" />
    <glyph glyph-name="zacute" unicode="&#x17a;" horiz-adv-x="931" 
d="M604 1434h406l-279 -297h-334zM436 709h-330l56 315h799l-41 -233l-435 -476h371l-55 -315h-840l43 233z" />
    <glyph glyph-name="Zdotaccent" unicode="&#x17b;" horiz-adv-x="1110" 
d="M748 1522q-75 0 -120.5 54t-31.5 128q14 75 77 129.5t138 54.5t120.5 -54.5t33.5 -129.5q-17 -74 -80.5 -128t-136.5 -54zM240 1434h970l-47 -283l-639 -797h512l-61 -354h-998l50 283l641 796h-492z" />
    <glyph glyph-name="zdotaccent" unicode="&#x17c;" horiz-adv-x="931" 
d="M578 1112q-75 0 -120.5 54t-31.5 128q14 75 77 130t138 55t120.5 -55t33.5 -130q-17 -74 -80.5 -128t-136.5 -54zM162 1024h799l-41 -233l-435 -476h371l-55 -315h-840l43 233l432 476h-330z" />
    <glyph glyph-name="Zcaron" unicode="&#x17d;" horiz-adv-x="1110" 
d="M909 1526h-342l-161 317h296l62 -114l100 114h318zM240 1434h970l-47 -283l-639 -797h512l-61 -354h-998l50 283l641 796h-492z" />
    <glyph glyph-name="zcaron" unicode="&#x17e;" horiz-adv-x="931" 
d="M739 1116h-342l-161 318h296l62 -115l100 115h318zM436 709h-330l56 315h799l-41 -233l-435 -476h371l-55 -315h-840l43 233z" />
    <glyph glyph-name="florin" unicode="&#x192;" horiz-adv-x="944" 
d="M416 883l76 217q57 168 153 254q64 59 141.5 85.5t152.5 26t169 -19.5l-59 -336q-49 32 -123 4t-101 -110l-41 -121h152l-57 -326h-209l-215 -620q-57 -168 -156 -254q-63 -59 -139 -86.5t-154 -25.5t-168 19l60 336q49 -32 122 -4q74 28 101 111l182 524h-141l59 326
h195z" />
    <glyph glyph-name="Ohorn" unicode="&#x1a0;" horiz-adv-x="1617" 
d="M737 -31q-107 -2 -205 27t-174 81.5t-136.5 125.5t-93 159t-44 182t11.5 195q53 308 289 516q238 209 571 209q121 0 220 -30h124q64 0 89 27.5t38 99.5l7 30h274l-6 -30q-24 -133 -77 -212t-165 -112q0 -2 2 -2q183 -230 131 -537q-53 -312 -286 -520
q-232 -209 -570 -209zM1229 717q30 168 -60 278q-89 111 -256 111q-166 0 -295 -111q-127 -109 -157 -278q-30 -173 55 -281q89 -108 254 -108t297 108q135 114 162 281z" />
    <glyph glyph-name="ohorn" unicode="&#x1a1;" horiz-adv-x="1193" 
d="M528 -29q-74 0 -141 17t-118.5 48t-94.5 74t-70 94t-44 108t-16.5 115.5t11.5 117.5q41 212 205 360q168 148 414 148q93 0 178 -29h31q64 0 89 27.5t38 99.5l6 31h274l-6 -31q-22 -123 -69 -199.5t-142 -113.5q101 -158 66 -355q-38 -212 -205 -360q-172 -152 -406 -152
zM555 299q90 0 157.5 59.5t84.5 153.5t-29 153.5t-137 59.5q-88 0 -155.5 -59.5t-84.5 -153.5q-17 -93 29.5 -153t134.5 -60z" />
    <glyph glyph-name="Uhorn" unicode="&#x1af;" horiz-adv-x="1320" 
d="M594 -31q-261 0 -406 142q-142 143 -102 360l170 963h367l-164 -928q-34 -180 170 -180q199 0 233 180l162 928h193q64 0 88.5 27.5t37.5 99.5l7 30h274l-6 -30q-13 -68 -30.5 -117.5t-47 -93.5t-76 -73.5t-110.5 -45.5l-133 -760q-43 -241 -213 -373
q-170 -129 -414 -129z" />
    <glyph glyph-name="uhorn" unicode="&#x1b0;" horiz-adv-x="1228" 
d="M739 477l97 547h180q64 0 89 27.5t38 99.5l6 31h274l-6 -31q-13 -70 -31 -120t-49 -95t-80 -74.5t-118 -44.5l-144 -817h-340l19 104q-118 -133 -299 -133q-170 0 -256.5 117t-52.5 322l108 614h340l-104 -569q-12 -79 24 -120.5t107 -41.5q79 0 130 47.5t68 138.5v-2z
" />
    <glyph glyph-name="Scommaaccent" unicode="&#x218;" horiz-adv-x="1204" 
d="M551 -31q-225 0 -368.5 94t-188.5 263l325 168q59 -179 263 -179q168 0 186 99q12 66 -94 112q-5 3 -150 54q-191 66 -284 172q-98 112 -64 297q34 196 186 305q152 110 363 110q180 0 310.5 -84.5t191.5 -242.5l-314 -168q-67 149 -217 149q-129 0 -147 -92
q-12 -50 35 -83.5t186 -82.5q103 -36 160.5 -64.5t116.5 -80.5q130 -106 92 -332q-36 -200 -191 -307t-397 -107zM543 -567h-264l98 450h315z" />
    <glyph glyph-name="scommaaccent" unicode="&#x219;" horiz-adv-x="968" 
d="M430 -29q-339 0 -450 252l299 146q47 -117 170 -117q89 0 98 49q5 28 -37.5 49t-130.5 45q-320 81 -273 348q27 156 156 232q132 78 285 78q142 0 249 -59.5t156 -168.5l-288 -139q-37 91 -127 94q-79 3 -91 -55q-4 -22 7 -37t36.5 -25t53.5 -17.5t69.5 -18.5t71.5 -23
q246 -73 203 -328q-27 -156 -156 -231q-127 -74 -301 -74zM424 -567h-264l98 450h315z" />
    <glyph glyph-name="uni021A" unicode="&#x21a;" horiz-adv-x="1116" 
d="M182 1434h1075l-63 -355h-352l-191 -1079h-366l190 1079h-354zM459 -567h-264l98 450h315z" />
    <glyph glyph-name="uni021B" unicode="&#x21b;" horiz-adv-x="806" 
d="M766 698h-213l-51 -297q-12 -66 30 -84t166 -10l-53 -307q-288 -38 -407 58.5t-78 334.5l53 305h-154l58 326h153l33 184l359 103l-52 -287h215zM375 -557h-264l98 451h315z" />
    <glyph glyph-name="circumflex" unicode="&#x2c6;" horiz-adv-x="858" 
d="M762 1434l162 -318h-306l-59 115l-102 -115h-310l273 318h342z" />
    <glyph glyph-name="caron" unicode="&#x2c7;" horiz-adv-x="858" 
d="M561 1319l101 115h317l-272 -318h-342l-162 318h297z" />
    <glyph glyph-name="breve" unicode="&#x2d8;" horiz-adv-x="817" 
d="M530 1100q-174 0 -265 90t-62 237h286q-15 -90 66 -90t96 90h287q-52 -327 -408 -327z" />
    <glyph glyph-name="dotaccent" unicode="&#x2d9;" horiz-adv-x="407" 
d="M330 1112q-75 0 -120.5 54t-31.5 128q14 75 77 130t138 55t120.5 -55t33.5 -130q-17 -74 -80.5 -128t-136.5 -54z" />
    <glyph glyph-name="ring" unicode="&#x2da;" horiz-adv-x="657" 
d="M430 1092q-124 0 -194 79q-71 80 -50 197q20 117 111.5 190.5t218.5 73.5q125 0 195 -82q70 -79 49 -196q-20 -118 -110 -190t-220 -72zM461 1296q73 0 82 64q6 30 -9.5 48.5t-50.5 18.5q-31 0 -51.5 -18t-25.5 -47q-9 -66 55 -66z" />
    <glyph glyph-name="ogonek" unicode="&#x2db;" horiz-adv-x="477" 
d="M-94 -252q21 119 172 252h268q-108 -99 -117 -160q-9 -47 35 -47q12 -3 47 6l-37 -202q-69 -27 -140.5 -32.5t-128 10t-85.5 61t-14 112.5z" />
    <glyph glyph-name="tilde" unicode="&#x2dc;" horiz-adv-x="815" 
d="M410 1122h-248q10 98 42.5 169.5t77 108.5t97.5 51t106.5 3.5t102.5 -39.5q27 -16 42.5 -22.5t31.5 -6t26 17t17 50.5h249q-8 -83 -32.5 -147t-59 -102.5t-76.5 -60t-87 -24.5t-89 8t-84 35q-97 73 -116 -41z" />
    <glyph glyph-name="hungarumlaut" unicode="&#x2dd;" horiz-adv-x="995" 
d="M147 1116l218 307h335l-231 -307h-322zM541 1116l239 307h334l-250 -307h-323z" />
    <glyph glyph-name="gravecomb" unicode="&#x300;" horiz-adv-x="0" 
d="M70 1137h-316l-194 297h385z" />
    <glyph glyph-name="acutecomb" unicode="&#x301;" horiz-adv-x="0" 
d="M-463 1137l207 297h406l-279 -297h-334z" />
    <glyph glyph-name="uni0302" unicode="&#x302;" horiz-adv-x="0" 
d="M-96 1434l162 -318h-306l-59 115l-102 -115h-310l273 318h342z" />
    <glyph glyph-name="tildecomb" unicode="&#x303;" horiz-adv-x="0" 
d="M-420 1122h-248q10 98 42.5 169.5t77 108.5t97.5 51t106.5 3.5t102.5 -39.5q27 -16 42.5 -22.5t31.5 -6t26 17t17 50.5h250q-8 -83 -32.5 -147t-59 -102.5t-76.5 -60t-87 -24.5t-89 8t-84 35q-98 74 -117 -41z" />
    <glyph glyph-name="uni0304" unicode="&#x304;" horiz-adv-x="0" 
d="M70 1135h-633l45 266h635z" />
    <glyph glyph-name="uni0306" unicode="&#x306;" horiz-adv-x="0" 
d="M-297 1100q-174 0 -265.5 90t-62.5 237h287q-15 -90 66 -90t96 90h287q-52 -327 -408 -327z" />
    <glyph glyph-name="uni0307" unicode="&#x307;" horiz-adv-x="0" 
d="M-119 1112q-75 0 -120 54t-31 128q14 75 77 130t138 55t120 -55t33 -130q-17 -74 -80.5 -128t-136.5 -54z" />
    <glyph glyph-name="uni0308" unicode="&#x308;" horiz-adv-x="0" 
d="M-442 1423q66 0 105.5 -48t27.5 -115q-4 -51 -41 -92t-84 -59t-96 -10.5t-76 44.5q-26 27 -31 65.5t9.5 76t40.5 70t65 51.5t80 17zM-102 1096q-66 0 -106 48.5t-28 115.5q4 50 41 91t84 59.5t96 10.5t76 -47q26 -27 31.5 -65t-9.5 -75t-41 -69.5t-64.5 -51.5t-79.5 -17z
" />
    <glyph glyph-name="uni030A" unicode="&#x30a;" horiz-adv-x="0" 
d="M-221 1092q-125 0 -195 79t-49 197q20 117 111.5 190.5t218.5 73.5q124 0 194 -82q71 -80 50 -196q-20 -118 -110 -190t-220 -72zM-190 1296q72 0 81 64q6 30 -9.5 48.5t-49.5 18.5q-31 0 -52 -18t-26 -47q-9 -66 56 -66z" />
    <glyph glyph-name="uni030B" unicode="&#x30b;" horiz-adv-x="0" 
d="M-848 1116l217 307h336l-231 -307h-322zM-455 1116l240 307h334l-250 -307h-324z" />
    <glyph glyph-name="uni030C" unicode="&#x30c;" horiz-adv-x="0" 
d="M-297 1319l100 115h318l-273 -318h-342l-161 318h297z" />
    <glyph glyph-name="uni0312" unicode="&#x312;" horiz-adv-x="0" 
d="M-39 2017h264l-100 -450h-315z" />
    <glyph glyph-name="uni0326" unicode="&#x326;" horiz-adv-x="0" 
d="M-303 -567h-264l98 450h315z" />
    <glyph glyph-name="uni0327" unicode="&#x327;" horiz-adv-x="0" 
d="M-252 0l-16 -94q109 -51 88 -176q-41 -217 -512 -183l39 224q191 -15 200 28q6 35 -102 41l29 160h274z" />
    <glyph glyph-name="uni0328" unicode="&#x328;" horiz-adv-x="0" 
d="M-582 -252q21 119 172 252h269q-108 -99 -117 -160q-9 -47 35 -47q12 -3 47 6l-37 -202q-69 -27 -140.5 -32.5t-128.5 10t-86 61t-14 112.5z" />
    <glyph glyph-name="uni0394" unicode="&#x394;" horiz-adv-x="1351" 
d="M618 1434h439l215 -1434h-1372zM782 1018l-323 -701h397z" />
    <glyph glyph-name="uni03A9" unicode="&#x3a9;" horiz-adv-x="1587" 
d="M1585 748q-44 -243 -229 -404h129l-60 -344h-575l24 145l25 136l10 63l2 10q118 41 199 138t104 225q27 170 -61 278q-89 111 -256 111q-166 0 -295 -111t-156 -278q-23 -127 24 -224t148 -139l-12 -73l-49 -281h-575l59 344h149q-147 176 -104 424q56 308 299 502
q247 194 565 194q120 3 229.5 -32t192.5 -100t141 -155.5t75.5 -199t-3.5 -229.5z" />
    <glyph glyph-name="pi" unicode="&#x3c0;" horiz-adv-x="1353" 
d="M121 1024h1290l-55 -322h-154l-123 -702h-340l123 702h-301l-123 -702h-340l123 702h-155z" />
    <glyph glyph-name="uni0401" unicode="&#x401;" horiz-adv-x="1095" 
d="M602 1833q66 0 105.5 -48.5t27.5 -115.5q-4 -51 -41 -92t-84 -59t-96 -10.5t-76 44.5q-26 27 -31 65.5t9.5 76.5t40.5 70.5t65 51.5t80 17zM942 1505q-66 0 -105.5 48.5t-27.5 115.5q4 50 41 91.5t84 60t96 10.5t76 -47q26 -27 31 -65t-9.5 -75.5t-40.5 -70t-65 -51.5
t-80 -17zM1186 1434l-62 -342h-542l-37 -201h495l-61 -336h-492l-36 -211h553l-60 -344h-921l251 1434h912z" />
    <glyph glyph-name="uni0402" unicode="&#x402;" horiz-adv-x="1423" 
d="M1028 922q190 0 279.5 -108t54.5 -294l-19 -106q-47 -255 -172 -357q-126 -99 -385 -84l58 326q67 -4 97.5 22t41.5 93l10 63q10 62 -16.5 89.5t-89.5 27.5q-70 0 -158 -31l-98 -563h-367l191 1079h-334l61 355h1075l-63 -355h-373l-35 -190q115 33 242 33z" />
    <glyph glyph-name="uni0403" unicode="&#x403;" horiz-adv-x="972" 
d="M731 1841h406l-279 -297h-334zM23 0l251 1434h848l-61 -355h-481l-191 -1079h-366z" />
    <glyph glyph-name="uni0404" unicode="&#x404;" horiz-adv-x="1478" 
d="M760 322q210 0 336 178l301 -195q-116 -160 -288.5 -248t-373.5 -88q-330 0 -512 221q-180 219 -127 547q53 318 289 523q238 204 557 204q208 0 359 -90t227 -252l-336 -178q-73 168 -285 168q-124 0 -227.5 -60.5t-163.5 -166.5h514l-61 -336h-510q24 -106 102 -166.5
t199 -60.5z" />
    <glyph glyph-name="uni0405" unicode="&#x405;" horiz-adv-x="1204" 
d="M551 -31q-225 0 -368.5 94t-188.5 263l325 168q59 -179 263 -179q168 0 186 99q12 66 -94 112q-5 3 -150 54q-191 66 -284 172q-98 112 -64 297q34 196 186 305q152 110 363 110q180 0 310.5 -84.5t191.5 -242.5l-314 -168q-67 149 -217 149q-129 0 -147 -92
q-12 -50 35 -83.5t186 -82.5q103 -36 160.5 -64.5t116.5 -80.5q130 -106 92 -332q-36 -200 -191 -307t-397 -107z" />
    <glyph glyph-name="uni0406" unicode="&#x406;" horiz-adv-x="591" 
d="M23 0l251 1434h367l-252 -1434h-366z" />
    <glyph glyph-name="uni0407" unicode="&#x407;" horiz-adv-x="591" 
d="M330 1833q66 0 105.5 -48.5t27.5 -115.5q-4 -51 -41 -92t-84 -59t-96 -10.5t-76 44.5q-26 27 -31 65.5t9.5 76.5t40.5 70.5t65 51.5t80 17zM670 1505q-66 0 -105.5 48.5t-27.5 115.5q4 50 41 91.5t84 60t96 10.5t76 -47q26 -27 31 -65t-9.5 -75.5t-40.5 -70t-65 -51.5
t-80 -17zM23 0l251 1434h367l-252 -1434h-366z" />
    <glyph glyph-name="uni0408" unicode="&#x408;" horiz-adv-x="1165" 
d="M479 -31q-358 0 -471 297l332 178q20 -63 59 -90.5t107 -27.5q168 0 192 145l170 963h367l-172 -969q-42 -247 -191.5 -371.5t-392.5 -124.5z" />
    <glyph glyph-name="uni0409" unicode="&#x409;" horiz-adv-x="1921" 
d="M1307 950h149q201 0 330 -141q132 -141 94 -354q-38 -216 -201 -336q-162 -119 -391 -119h-516l191 1079h-269l-90 -520q-17 -97 -44.5 -177.5t-62.5 -138t-77.5 -102.5t-88.5 -72t-97.5 -46.5t-103.5 -24.5t-105.5 -7t-104.5 5l60 342q116 -12 175 38.5t85 198.5
l151 859h1000zM1395 602h-150l-45 -254h150q145 0 166 127t-121 127z" />
    <glyph glyph-name="uni040A" unicode="&#x40a;" horiz-adv-x="1931" 
d="M1317 952h149q202 0 330 -143q132 -141 94 -354q-38 -217 -200 -336t-392 -119h-516l107 602h-393l-107 -602h-366l251 1434h367l-84 -482h393l84 482h367zM1526 475q21 127 -119 127h-152l-45 -252h150q145 0 166 125z" />
    <glyph glyph-name="uni040B" unicode="&#x40b;" horiz-adv-x="1433" 
d="M1024 932q186 0 275 -106t63 -296l-90 -530h-363l84 485q12 65 -16 92t-98 27q-78 0 -146 -26l-102 -578h-367l191 1079h-334l61 355h1075l-63 -355h-373l-33 -182q122 35 236 35z" />
    <glyph glyph-name="uni040C" unicode="&#x40c;" horiz-adv-x="1292" 
d="M852 1841h405l-278 -297h-334zM1028 1434h428l-610 -713l364 -721h-379l-327 653l-115 -653h-366l251 1434h367l-102 -582z" />
    <glyph glyph-name="uni040E" unicode="&#x40e;" horiz-adv-x="1288" 
d="M549 1829h661l-49 -287h-661zM729 846l318 588h391l-574 -1002q-137 -241 -309 -340q-173 -95 -412 -92l60 342q180 -9 299 119l-309 973h360z" />
    <glyph glyph-name="uni040F" unicode="&#x40f;" horiz-adv-x="1331" 
d="M823 354l191 1080h366l-252 -1434h-370l-49 -274h-365l49 274h-370l251 1434h367l-190 -1080h372z" />
    <glyph glyph-name="uni0410" unicode="&#x410;" horiz-adv-x="1374" 
d="M1292 0h-391l-22 207h-478l-98 -207h-403l725 1434h446zM791 1018l-238 -496h291z" />
    <glyph glyph-name="uni0411" unicode="&#x411;" horiz-adv-x="1212" 
d="M549 905h225q206 0 320 -135q115 -133 80 -336q-37 -208 -182 -321t-378 -113h-591l251 1434h951l-62 -355h-583zM702 575h-213l-40 -239h210q62 0 102 30t50 89t-19 89.5t-90 30.5z" />
    <glyph glyph-name="uni0412" unicode="&#x412;" horiz-adv-x="1232" 
d="M1239 1012q-35 -187 -184 -281q150 -114 123 -325q-25 -186 -173 -296t-389 -110h-593l251 1434h545q213 0 332 -119q118 -118 88 -303zM766 1106h-182l-39 -225h180q57 0 96.5 29.5t46.5 82.5q8 51 -19.5 82t-82.5 31zM819 449q11 56 -17 88t-89 32h-224l-43 -241h222
q59 0 99.5 33t51.5 88z" />
    <glyph glyph-name="uni0413" unicode="&#x413;" horiz-adv-x="972" 
d="M274 1434h848l-61 -355h-481l-191 -1079h-366z" />
    <glyph glyph-name="uni0414" unicode="&#x414;" horiz-adv-x="1458" 
d="M432 1434h998l-191 -1080h156l-113 -628h-364l47 274h-668l-49 -274h-365l111 628h149q125 152 181 455zM537 354h337l132 740h-267l-51 -289q-53 -293 -151 -451z" />
    <glyph glyph-name="uni0415" unicode="&#x415;" horiz-adv-x="1095" 
d="M1186 1434l-62 -342h-542l-37 -201h495l-61 -336h-492l-36 -211h553l-60 -344h-921l251 1434h912z" />
    <glyph glyph-name="uni0416" unicode="&#x416;" horiz-adv-x="1898" 
d="M1626 1434h418l-551 -734l295 -700h-383l-248 639l-113 -639h-366l108 623l-454 -623h-412l567 745l-297 689h383l246 -625l111 625h366l-110 -625z" />
    <glyph glyph-name="uni0417" unicode="&#x417;" horiz-adv-x="1146" 
d="M1153 1014q-35 -198 -199 -291q176 -121 136 -340q-35 -197 -192 -305.5t-409 -108.5q-399 0 -507 336l325 172q49 -162 228 -162q172 0 196 127q18 111 -117 123l-217 2l56 318h143q165 0 186 119q8 57 -25.5 87.5t-105.5 30.5q-136 0 -219 -151l-295 190
q89 143 236.5 223t333.5 80q216 0 348 -129t98 -321z" />
    <glyph glyph-name="uni0418" unicode="&#x418;" horiz-adv-x="1382" 
d="M307 0h-284l251 1434h367l-123 -699l629 699h283l-252 -1434h-365l123 698z" />
    <glyph glyph-name="uni0419" unicode="&#x419;" horiz-adv-x="1382" 
d="M1178 1544h-662l49 287h662zM307 0h-284l251 1434h367l-123 -699l629 699h283l-252 -1434h-365l123 698z" />
    <glyph glyph-name="uni041A" unicode="&#x41a;" horiz-adv-x="1292" 
d="M1028 1434h428l-610 -713l364 -721h-379l-327 653l-115 -653h-366l251 1434h367l-102 -582z" />
    <glyph glyph-name="uni041B" unicode="&#x41b;" horiz-adv-x="1361" 
d="M-80 -4l60 342q116 -12 175 38.5t85 198.5l151 859h1020l-252 -1434h-366l190 1079h-289l-90 -520q-22 -127 -62.5 -225.5t-91.5 -159.5t-114 -103t-130.5 -57.5t-140.5 -21.5t-145 4z" />
    <glyph glyph-name="uni041C" unicode="&#x41c;" horiz-adv-x="1689" 
d="M1348 1434h389l-252 -1434h-365l135 774l-448 -577h-37l-244 587l-137 -784h-366l251 1434h367l233 -619z" />
    <glyph glyph-name="uni041D" unicode="&#x41d;" horiz-adv-x="1361" 
d="M950 903l94 531h365l-252 -1434h-364l96 551h-404l-96 -551h-366l251 1434h367l-94 -531h403z" />
    <glyph glyph-name="uni041E" unicode="&#x41e;" horiz-adv-x="1617" 
d="M737 -31q-107 -2 -205 27t-174 81.5t-136.5 125.5t-93 159t-44 182t11.5 195q53 308 289 516q238 209 571 209q326 0 506 -229q183 -230 131 -537q-53 -312 -286 -520q-232 -209 -570 -209zM1229 717q30 168 -60 278q-89 111 -256 111q-166 0 -295 -111
q-127 -109 -157 -278q-30 -173 55 -281q89 -108 254 -108t297 108q135 114 162 281z" />
    <glyph glyph-name="uni041F" unicode="&#x41f;" horiz-adv-x="1331" 
d="M274 1434h1106l-252 -1434h-366l190 1079h-372l-191 -1079h-366z" />
    <glyph glyph-name="uni0420" unicode="&#x420;" horiz-adv-x="1212" 
d="M274 1434h541q215 0 342 -148q128 -146 94 -375q-30 -217 -190 -350q-155 -131 -408 -131h-188l-76 -430h-366zM887 932q13 69 -23 110t-110 41h-174l-54 -305h179q71 0 120.5 42t61.5 112z" />
    <glyph glyph-name="uni0421" unicode="&#x421;" horiz-adv-x="1478" 
d="M735 -31q-330 0 -512 221q-180 219 -127 547q53 318 289 523q238 204 557 204q207 0 356.5 -89.5t229.5 -252.5l-336 -178q-82 162 -285 162q-166 0 -293 -109q-124 -109 -153 -280q-28 -173 53 -281q82 -108 246 -108q207 0 336 172l301 -195q-116 -160 -288.5 -248
t-373.5 -88z" />
    <glyph glyph-name="uni0422" unicode="&#x422;" horiz-adv-x="1116" 
d="M182 1434h1075l-63 -355h-352l-191 -1079h-366l190 1079h-354z" />
    <glyph glyph-name="uni0423" unicode="&#x423;" horiz-adv-x="1288" 
d="M729 846l318 588h391l-574 -1002q-137 -241 -309 -340q-173 -95 -412 -92l60 342q180 -9 299 119l-309 973h360z" />
    <glyph glyph-name="uni0424" unicode="&#x424;" horiz-adv-x="1705" 
d="M1200 1475l-31 -172q282 -43 426 -207q144 -163 103 -400q-43 -244 -234 -391t-501 -178l-31 -168h-352l30 172q-285 41 -430 205q-144 163 -100 401q43 245 234 392t505 178l29 168h352zM444 717q-41 -212 226 -252l90 510q-275 -40 -316 -258zM1335 717
q19 111 -35 174.5t-188 83.5l-90 -510q272 40 313 252z" />
    <glyph glyph-name="uni0425" unicode="&#x425;" horiz-adv-x="1294" 
d="M1004 1434h426l-541 -717l303 -717h-395l-162 381l-289 -381h-426l561 743l-293 691h398l149 -355z" />
    <glyph glyph-name="uni0426" unicode="&#x426;" horiz-adv-x="1437" 
d="M1399 1434l-191 -1080h164l-110 -628h-367l49 274h-921l251 1434h377l-190 -1080h373l190 1080h375z" />
    <glyph glyph-name="uni0427" unicode="&#x427;" horiz-adv-x="1325" 
d="M899 815l109 619h364l-252 -1434h-364l80 457q-94 -21 -195 -21q-268 0 -394 131t-85 365l88 502h364l-82 -473q-17 -92 26 -131.5t151 -41.5q88 0 190 27z" />
    <glyph glyph-name="uni0428" unicode="&#x428;" horiz-adv-x="1943" 
d="M1438 354l188 1080h367l-252 -1434h-1718l251 1434h367l-190 -1080h311l188 1080h367l-191 -1080h312z" />
    <glyph glyph-name="uni0429" unicode="&#x429;" horiz-adv-x="2031" 
d="M1993 1434l-191 -1080h164l-111 -628h-366l49 274h-1515l251 1434h367l-190 -1080h311l188 1080h367l-191 -1080h312l188 1080h367z" />
    <glyph glyph-name="uni042A" unicode="&#x42a;" horiz-adv-x="1427" 
d="M793 0h-555l190 1079h-328l62 355h694l-76 -430h189q202 0 329 -154q130 -152 93 -369q-41 -226 -199 -353.5t-399 -127.5zM719 655l-55 -305h190q63 0 111.5 42.5t60.5 109.5t-22.5 110t-96.5 43h-188z" />
    <glyph glyph-name="uni042B" unicode="&#x42b;" horiz-adv-x="1779" 
d="M578 0h-555l251 1434h367l-76 -430h191q202 0 329 -154q128 -153 91 -369q-41 -226 -199 -353.5t-399 -127.5zM1575 0h-365l252 1434h365zM504 655l-53 -305h188q66 0 113.5 42t58.5 110q12 67 -22 110t-97 43h-188z" />
    <glyph glyph-name="uni042C" unicode="&#x42c;" horiz-adv-x="1212" 
d="M565 1004h191q202 0 329 -154q128 -153 91 -369q-41 -226 -199 -353.5t-399 -127.5h-555l251 1434h367zM811 502q12 67 -22 110t-97 43h-188l-53 -305h188q66 0 113.5 42t58.5 110z" />
    <glyph glyph-name="uni042D" unicode="&#x42d;" horiz-adv-x="1474" 
d="M815 1464q324 0 506 -221q183 -223 131 -547q-53 -317 -281 -520q-233 -207 -557 -207q-206 0 -362.5 90.5t-231.5 251.5l332 176q82 -165 295 -165q123 0 223.5 60t161.5 167h-514l62 336h514q-23 107 -102 167t-201 60q-217 0 -342 -174l-293 188q111 159 285 248.5
t374 89.5z" />
    <glyph glyph-name="uni042E" unicode="&#x42e;" horiz-adv-x="2187" 
d="M1532 1464q108 1 205.5 -27.5t172 -81.5t133.5 -125.5t90 -158.5t41.5 -181.5t-11.5 -193.5q-52 -305 -291 -518q-238 -209 -576 -209q-266 0 -440 168t-186 424h-183l-98 -561h-366l251 1434h367l-92 -521h182q100 251 313 400q219 151 488 151zM1800 717
q27 170 -61 278q-89 111 -256 111q-166 0 -295 -111q-128 -110 -158 -278q-30 -173 55 -281q89 -108 254 -108t297 108q134 113 164 281z" />
    <glyph glyph-name="uni042F" unicode="&#x42f;" horiz-adv-x="1284" 
d="M766 1434h567l-252 -1434h-366l82 463h-60l-360 -463h-430l418 516q-122 65 -175 189t-26 268q40 193 196 325q160 136 406 136zM522 934q-12 -69 28 -115.5t109 -46.5h193l57 324h-194q-72 0 -126 -45t-67 -117z" />
    <glyph glyph-name="uni0430" unicode="&#x430;" 
d="M891 911l20 113h340l-180 -1024h-340l14 80q-121 -109 -299 -109q-217 0 -325 166q-105 167 -68 389q34 217 185 371q150 156 370 156q197 0 283 -142zM821 506v6q17 100 -30.5 161.5t-145.5 61.5q-96 0 -166 -61q-71 -62 -86 -162q-15 -101 31 -162t143 -61t166 59.5
t88 157.5z" />
    <glyph glyph-name="uni0431" unicode="&#x431;" horiz-adv-x="1167" 
d="M539 -31q-255 0 -389 162q-134 166 -91 414q46 259 150 409q106 151 334 252q32 16 88 39l78 35q9 5 36.5 17.5t50.5 24t31 17.5q63 38 84 62q1 1 27 30.5t37 49.5l256 -160q-50 -111 -150 -186q-97 -72 -276 -136q-147 -54 -211 -92q-66 -41 -102 -98q119 88 274 88
q163 0 281 -133q116 -131 81 -336q-34 -207 -194 -334q-155 -125 -395 -125zM565 264q84 0 147.5 52t75.5 130q14 80 -32.5 132.5t-130.5 52.5q-82 0 -148 -49.5t-78 -128.5q-14 -82 33 -135.5t133 -53.5z" />
    <glyph glyph-name="uni0432" unicode="&#x432;" horiz-adv-x="1062" 
d="M1026 713q-24 -141 -141 -199q126 -82 102 -235q-50 -279 -407 -279h-572l180 1024h537q156 0 240 -90q82 -88 61 -221zM629 770h-160l-23 -135h158q83 0 92 65q15 70 -67 70zM657 330q12 67 -67 67h-187l-24 -139h184q82 0 94 72z" />
    <glyph glyph-name="uni0433" unicode="&#x433;" horiz-adv-x="833" 
d="M188 1024h736l-56 -326h-397l-123 -698h-340l123 698z" />
    <glyph glyph-name="uni0434" unicode="&#x434;" horiz-adv-x="1228" 
d="M1155 1024l-123 -702h131l-104 -596h-328l49 274h-532l-49 -274h-328l106 596h121q102 129 140 348l63 354h854zM457 322h243l70 399h-192l-9 -51q-40 -220 -112 -348z" />
    <glyph glyph-name="uni0435" unicode="&#x435;" horiz-adv-x="1163" 
d="M664 1053q228 0 362 -158q131 -155 90 -381q-10 -67 -35 -127h-702q27 -125 196 -125q123 0 203 74l217 -199q-178 -166 -446 -166t-402 162q-134 166 -94 399q38 227 209 373q174 148 402 148zM420 625h387q-9 141 -162 141q-151 0 -225 -141z" />
    <glyph glyph-name="uni0436" unicode="&#x436;" horiz-adv-x="1595" 
d="M1292 1024h377l-407 -528l225 -496h-348l-187 438l-78 -438h-335l73 422l-325 -422h-367l416 535l-207 489h344l172 -420l74 420h336l-76 -430z" />
    <glyph glyph-name="uni0437" unicode="&#x437;" horiz-adv-x="933" 
d="M899 729q-27 -150 -154 -215q136 -84 109 -254q-25 -137 -145.5 -214t-319.5 -77q-333 0 -422 246l283 145q38 -108 166 -108q100 0 112 70q9 63 -75 63h-123l45 258h102q83 0 92 62q4 30 -17 48.5t-60 18.5q-104 0 -168 -108l-244 155q175 234 461 234q174 0 276 -99
q103 -97 82 -225z" />
    <glyph glyph-name="uni0438" unicode="&#x438;" horiz-adv-x="1187" 
d="M438 559l480 465h262l-181 -1024h-331l82 465l-480 -465h-262l180 1024h332z" />
    <glyph glyph-name="uni0439" unicode="&#x439;" horiz-adv-x="1187" 
d="M1034 1135h-661l49 286h661zM438 559l480 465h262l-181 -1024h-331l82 465l-480 -465h-262l180 1024h332z" />
    <glyph glyph-name="uni043A" unicode="&#x43a;" horiz-adv-x="1099" 
d="M788 1024h386l-429 -512l265 -512h-371l-213 442l-78 -442h-340l180 1024h340l-73 -418z" />
    <glyph glyph-name="uni043B" unicode="&#x43b;" horiz-adv-x="1150" 
d="M258 1024h885l-180 -1024h-340l122 698h-204l-49 -274q-44 -255 -177.5 -354t-382.5 -70l54 315q141 -30 176 158z" />
    <glyph glyph-name="uni043C" unicode="&#x43c;" horiz-adv-x="1327" 
d="M965 1024h354l-180 -1024h-328l86 494l-279 -340h-36l-158 340l-86 -494h-330l180 1024h330l150 -375z" />
    <glyph glyph-name="uni043D" unicode="&#x43d;" horiz-adv-x="1177" 
d="M768 672l61 352h340l-180 -1024h-340l62 352h-301l-62 -352h-340l180 1024h340l-61 -352h301z" />
    <glyph glyph-name="uni043E" unicode="&#x43e;" horiz-adv-x="1193" 
d="M528 -29q-74 0 -141 17t-118.5 48t-94.5 74t-70 94t-44 108t-16.5 115.5t11.5 117.5q41 212 205 360q168 148 414 148t375 -176q130 -177 90 -394q-38 -212 -205 -360q-172 -152 -406 -152zM555 299q90 0 157.5 59.5t84.5 153.5t-29 153.5t-137 59.5q-88 0 -155.5 -59.5
t-84.5 -153.5q-17 -93 29.5 -153t134.5 -60z" />
    <glyph glyph-name="uni043F" unicode="&#x43f;" horiz-adv-x="1177" 
d="M188 1024h981l-180 -1024h-340l123 702h-301l-123 -702h-340z" />
    <glyph glyph-name="uni0440" unicode="&#x440;" 
d="M805 1053q210 0 323 -168q115 -168 78 -393q-38 -222 -184 -371q-144 -150 -360 -150q-200 0 -293 146l-93 -527h-339l251 1434h340l-14 -84q116 113 291 113zM866 512q19 102 -28 162.5t-144 60.5q-94 0 -164 -58.5t-90 -156.5l-4 -14q-13 -98 35.5 -157.5t142.5 -59.5
q97 0 166 60.5t86 162.5z" />
    <glyph glyph-name="uni0441" unicode="&#x441;" horiz-adv-x="1089" 
d="M532 -29q-246 0 -380 162q-136 165 -99 399q38 230 209 373q174 148 402 148q158 0 270.5 -71.5t169.5 -197.5l-309 -161q-46 98 -160 98q-92 0 -160.5 -58t-81.5 -149q-17 -91 31 -151t135 -60q120 0 191 103l270 -173q-77 -127 -205 -194.5t-283 -67.5z" />
    <glyph glyph-name="uni0442" unicode="&#x442;" horiz-adv-x="962" 
d="M106 1024h930l-55 -326h-295l-123 -698h-340l123 698h-297z" />
    <glyph glyph-name="uni0443" unicode="&#x443;" horiz-adv-x="1124" 
d="M557 432l266 592h391l-520 -993q-131 -253 -300 -356.5t-400 -84.5l57 320q109 0 164.5 27.5t103.5 103.5l-229 983h361z" />
    <glyph glyph-name="uni0444" unicode="&#x444;" horiz-adv-x="1452" 
d="M1053 1434l-70 -400q233 -44 340 -192q110 -149 76 -348q-37 -210 -193 -345t-409 -167l-68 -392h-332l70 398q-230 43 -340 192q-108 151 -74 350q37 208 191.5 343t406.5 167l70 394h332zM1063 512q27 161 -135 207l-74 -414q182 50 209 207zM387 512
q-27 -156 135 -205l74 410q-182 -47 -209 -205z" />
    <glyph glyph-name="uni0445" unicode="&#x445;" horiz-adv-x="1124" 
d="M807 1024h393l-450 -512l284 -512h-360l-146 260l-227 -260h-391l467 532l-273 492h361l133 -240z" />
    <glyph glyph-name="uni0446" unicode="&#x446;" horiz-adv-x="1253" 
d="M1139 1024l-123 -702h174l-107 -596h-327l49 274h-797l180 1024h340l-122 -702h268l125 702h340z" />
    <glyph glyph-name="uni0447" unicode="&#x447;" horiz-adv-x="1112" 
d="M686 598l76 426h342l-180 -1024h-342l49 283q-118 -23 -193 -23q-203 0 -297 111q-95 111 -65 276l65 377h342l-57 -324q-21 -125 125 -125q51 0 135 23z" />
    <glyph glyph-name="uni0448" unicode="&#x448;" horiz-adv-x="1710" 
d="M1239 322l123 702h340l-180 -1024h-1514l180 1024h340l-122 -702h249l123 702h336l-123 -702h248z" />
    <glyph glyph-name="uni0449" unicode="&#x449;" horiz-adv-x="1765" 
d="M1671 1024l-123 -702h152l-107 -596h-325l49 274h-1309l180 1024h340l-122 -702h233l123 702h336l-123 -702h233l123 702h340z" />
    <glyph glyph-name="uni044A" unicode="&#x44a;" horiz-adv-x="1193" 
d="M633 735h168q170 0 264 -110q95 -111 68 -277q-65 -348 -463 -348h-508l123 698h-250l55 326h594zM805 369q6 37 -14.5 59.5t-61.5 22.5h-145l-31 -166h147q90 0 105 84z" />
    <glyph glyph-name="uni044B" unicode="&#x44b;" horiz-adv-x="1529" 
d="M477 735h168q172 0 266 -110q95 -111 68 -277q-65 -348 -463 -348h-508l180 1024h340zM1001 0l181 1024h340l-181 -1024h-340zM651 369q6 37 -14.5 59.5t-61.5 22.5h-147l-31 -166h148q41 0 70.5 23t35.5 61z" />
    <glyph glyph-name="uni044C" unicode="&#x44c;" horiz-adv-x="1038" 
d="M477 735h168q172 0 266 -110q95 -111 68 -277q-65 -348 -463 -348h-508l180 1024h340zM651 369q6 37 -14.5 59.5t-61.5 22.5h-147l-31 -166h148q41 0 70.5 23t35.5 61z" />
    <glyph glyph-name="uni044D" unicode="&#x44d;" horiz-adv-x="1089" 
d="M569 1053q243 0 375 -166q132 -164 92 -395q-43 -233 -207 -377q-163 -144 -409 -144q-148 0 -266 73.5t-170 193.5l290 153q43 -112 187 -112q123 0 205 94h-277l49 278h277q-46 94 -172 94q-141 0 -217 -116l-256 162q82 122 214.5 192t284.5 70z" />
    <glyph glyph-name="uni044E" unicode="&#x44e;" horiz-adv-x="1652" 
d="M1137 1053q84 0 158 -22.5t127.5 -63t95 -95t62 -117.5t28 -131.5t-8.5 -136.5q-35 -213 -202 -364q-172 -152 -406 -152q-197 0 -318 104.5t-147 276.5h-116l-62 -352h-340l180 1024h340l-61 -352h102q71 172 221 276.5t347 104.5zM1262 512q17 94 -30 153.5t-138 59.5
q-88 0 -156.5 -60t-85.5 -153q-14 -95 32 -154t136 -59q89 0 159 60t83 153z" />
    <glyph glyph-name="uni044F" unicode="&#x44f;" horiz-adv-x="1089" 
d="M563 1024h518l-180 -1024h-336l51 291h-43l-245 -291h-391l307 352q-78 53 -113.5 139.5t-21.5 180.5q21 148 141 250t313 102zM438 647q-5 -37 16 -61.5t64 -24.5h146l30 176h-145q-43 0 -74 -26t-37 -64z" />
    <glyph glyph-name="uni0451" unicode="&#x451;" horiz-adv-x="1163" 
d="M565 1438q66 0 105.5 -48.5t27.5 -115.5q-4 -51 -41 -92t-84 -59t-96 -10.5t-76 44.5q-26 27 -31 65.5t9.5 76.5t40.5 70.5t65 51.5t80 17zM905 1110q-66 0 -105.5 48.5t-27.5 115.5q4 50 41 91.5t84 60t96 10.5t76 -47q26 -27 31 -65t-9.5 -75.5t-40.5 -70t-65 -51.5
t-80 -17zM664 1053q228 0 362 -158q131 -155 90 -381q-10 -67 -35 -127h-702q27 -125 196 -125q123 0 203 74l217 -199q-178 -166 -446 -166t-402 162q-134 166 -94 399q38 227 209 373q174 148 402 148zM420 625h387q-9 141 -162 141q-151 0 -225 -141z" />
    <glyph glyph-name="uni0452" unicode="&#x452;" horiz-adv-x="1202" 
d="M823 1028q170 0 258 -118t52 -322l-103 -588q-46 -252 -178 -354q-131 -101 -389 -86l55 315q151 -9 172 125l94 545q13 81 -20.5 122.5t-106.5 41.5q-148 0 -192 -160l-96 -549h-340l194 1104h-119l39 217h117l21 113h340l-21 -113h279l-39 -217h-277l-37 -207
q119 131 297 131z" />
    <glyph glyph-name="uni0453" unicode="&#x453;" horiz-adv-x="833" 
d="M557 1434h406l-279 -297h-334zM131 698l57 326h736l-56 -326h-397l-123 -698h-340z" />
    <glyph glyph-name="uni0454" unicode="&#x454;" horiz-adv-x="1089" 
d="M541 279q146 0 225 116l254 -162q-82 -122 -215 -192t-285 -70q-238 0 -373 164q-135 166 -94 397q40 230 211 375q172 146 406 146q148 0 266 -73.5t170 -193.5l-291 -153q-43 112 -182 112q-123 0 -205 -94h272l-49 -278h-276q46 -94 166 -94z" />
    <glyph glyph-name="uni0455" unicode="&#x455;" horiz-adv-x="968" 
d="M430 -29q-339 0 -450 252l299 146q47 -117 170 -117q89 0 98 49q5 28 -37.5 49t-130.5 45q-320 81 -273 348q27 156 156 232q132 78 285 78q142 0 249 -59.5t156 -168.5l-288 -139q-37 91 -127 94q-79 3 -91 -55q-4 -22 7 -37t36.5 -25t53.5 -17.5t69.5 -18.5t71.5 -23
q246 -73 203 -328q-27 -156 -156 -231q-127 -74 -301 -74z" />
    <glyph glyph-name="uni0456" unicode="&#x456;" horiz-adv-x="536" 
d="M377 1108q-80 0 -128.5 59t-35.5 138q12 79 77.5 136.5t149.5 57.5q82 0 130 -57t34 -137q-12 -82 -77.5 -139.5t-149.5 -57.5zM348 0h-340l180 1024h340z" />
    <glyph glyph-name="uni0457" unicode="&#x457;" horiz-adv-x="536" 
d="M227 1423q66 0 105.5 -48t27.5 -115q-4 -51 -41 -92t-84 -59t-96 -10.5t-76 44.5q-26 27 -31 65.5t9.5 76t40.5 70t65 51.5t80 17zM567 1096q-66 0 -105.5 48.5t-27.5 115.5q4 50 41 91t84 59.5t96 10.5t76 -47q26 -27 31 -65t-9.5 -75t-40.5 -69.5t-65 -51.5t-80 -17z
M348 0h-340l180 1024h340z" />
    <glyph glyph-name="uni0458" unicode="&#x458;" horiz-adv-x="567" 
d="M471 1499q82 0 130 -57t34 -137q-12 -82 -77.5 -139.5t-149.5 -57.5q-80 0 -128.5 59t-35.5 138q12 79 77.5 136.5t149.5 57.5zM39 0l180 1024h340l-180 -1024q-42 -249 -176.5 -351.5t-390.5 -88.5l55 315q151 -9 172 125z" />
    <glyph glyph-name="uni0459" unicode="&#x459;" horiz-adv-x="1601" 
d="M1073 715h152q155 0 250 -109q94 -108 65 -268q-31 -165 -145 -251.5t-295 -86.5h-494l123 698h-188l-49 -274q-44 -255 -177.5 -354t-382.5 -70l54 315q141 -30 176 158l96 551h870zM1212 358q6 32 -10.5 52t-46.5 20h-131l-27 -145h131q31 0 54.5 19.5t29.5 53.5z" />
    <glyph glyph-name="uni045A" unicode="&#x45a;" horiz-adv-x="1624" 
d="M1094 715h153q155 0 250 -109t66 -268q-30 -164 -145.5 -251t-295.5 -87h-493l71 403h-280l-72 -403h-340l180 1024h340l-55 -309h281l55 309h340zM1235 358q6 32 -11 52t-48 20h-132l-26 -145h133q31 0 54.5 19.5t29.5 53.5z" />
    <glyph glyph-name="uni045B" unicode="&#x45b;" horiz-adv-x="1202" 
d="M823 1028q170 0 258 -118t52 -322l-103 -588h-340l94 545q13 81 -20.5 122.5t-106.5 41.5q-148 0 -192 -160l-96 -549h-340l194 1104h-119l39 217h117l21 113h340l-21 -113h279l-39 -217h-277l-37 -207q119 131 297 131z" />
    <glyph glyph-name="uni045C" unicode="&#x45c;" horiz-adv-x="1099" 
d="M680 1434h405l-278 -297h-334zM788 1024h386l-429 -512l265 -512h-371l-213 442l-78 -442h-340l180 1024h340l-73 -418z" />
    <glyph glyph-name="uni045E" unicode="&#x45e;" horiz-adv-x="1124" 
d="M367 1421h661l-49 -286h-662zM557 432l266 592h391l-520 -993q-131 -253 -300 -356.5t-400 -84.5l57 320q109 0 164.5 27.5t103.5 103.5l-229 983h361z" />
    <glyph glyph-name="uni045F" unicode="&#x45f;" horiz-adv-x="1177" 
d="M707 322l122 702h340l-180 -1024h-325l-50 -274h-327l49 274h-328l180 1024h340l-122 -702h301z" />
    <glyph glyph-name="uni0490" unicode="&#x490;" horiz-adv-x="972" 
d="M758 1434l45 245h364l-106 -600h-481l-191 -1079h-366l251 1434h484z" />
    <glyph glyph-name="uni0491" unicode="&#x491;" horiz-adv-x="833" 
d="M598 1024l37 209h326l-93 -535h-397l-123 -698h-340l123 698l57 326h410z" />
    <glyph glyph-name="Wgrave" unicode="&#x1e80;" horiz-adv-x="2056" 
d="M1393 1546h-316l-194 297h385zM322 0h387l370 809l88 -809h387l652 1434h-402l-385 -904l-98 904h-293l-414 -904l-71 904h-371z" />
    <glyph glyph-name="wgrave" unicode="&#x1e81;" horiz-adv-x="1617" 
d="M983 1434l125 -297h-315l-195 297h385zM1096 477l229 547h371l-494 -1024h-332l-55 514l-223 -514h-348l-133 1024h340l47 -557l241 557h297z" />
    <glyph glyph-name="Wacute" unicode="&#x1e82;" horiz-adv-x="2056" 
d="M1024 1546l207 297h405l-278 -297h-334zM322 0h387l370 809l88 -809h387l652 1434h-402l-385 -904l-98 904h-293l-414 -904l-71 904h-371z" />
    <glyph glyph-name="wacute" unicode="&#x1e83;" horiz-adv-x="1617" 
d="M946 1434h406l-279 -297h-334zM1096 477l229 547h371l-494 -1024h-332l-55 514l-223 -514h-348l-133 1024h340l47 -557l241 557h297z" />
    <glyph glyph-name="Wdieresis" unicode="&#x1e84;" horiz-adv-x="2056" 
d="M1059 1833q66 0 105.5 -48.5t27.5 -115.5q-4 -51 -41 -92t-84 -59t-96 -10.5t-76 44.5q-26 27 -31 65.5t9.5 76.5t40.5 70.5t65 51.5t80 17zM1399 1505q-66 0 -105.5 48.5t-27.5 115.5q4 50 41 91.5t84 60t96 10.5t76 -47q26 -27 31 -65t-9.5 -75.5t-40.5 -70t-65 -51.5
t-80 -17zM709 0h-387l-150 1434h371l71 -904l414 904h293l98 -904l385 904h402l-652 -1434h-387l-88 809z" />
    <glyph glyph-name="wdieresis" unicode="&#x1e85;" horiz-adv-x="1617" 
d="M774 1423q66 0 105.5 -48t27.5 -115q-4 -51 -41 -92t-84 -59t-96 -10.5t-76 44.5q-26 27 -31 65.5t9.5 76t40.5 70t65 51.5t80 17zM1114 1096q-66 0 -105.5 48.5t-27.5 115.5q4 50 41 91t84 59.5t96 10.5t76 -47q26 -27 31 -65t-9.5 -75t-40.5 -69.5t-65 -51.5t-80 -17z
M1096 477l229 547h371l-494 -1024h-332l-55 514l-223 -514h-348l-133 1024h340l47 -557l241 557h297z" />
    <glyph glyph-name="uni1EA0" unicode="&#x1ea0;" horiz-adv-x="1374" 
d="M502 -481q-75 0 -120.5 54t-33.5 128t74 128t139 54q75 0 120 -53.5t32 -128.5q-11 -75 -72 -128.5t-139 -53.5zM1292 0h-391l-22 207h-478l-98 -207h-403l725 1434h446zM791 1018l-238 -496h291z" />
    <glyph glyph-name="uni1EA1" unicode="&#x1ea1;" 
d="M487 -481q-75 0 -120 54t-33 128t74 128t139 54q75 0 119.5 -53.5t31.5 -128.5q-11 -75 -72 -128.5t-139 -53.5zM891 911l20 113h340l-180 -1024h-340l14 80q-121 -109 -299 -109q-217 0 -325 166q-105 167 -68 389q34 217 185 371q150 156 370 156q197 0 283 -142z
M821 506v6q17 100 -30.5 161.5t-145.5 61.5q-96 0 -166 -61q-71 -62 -86 -162q-15 -101 31 -162t143 -61t166 59.5t88 157.5z" />
    <glyph glyph-name="uni1EA2" unicode="&#x1ea2;" horiz-adv-x="1374" 
d="M993 1526h-256q9 48 23.5 81t36 53t38.5 30t46 22l34 21q1 1 6 6.5t5 7.5q0 14 -21 14q-53 0 -92 -57l-190 72q63 84 138 121.5t181 37.5q120 0 179 -46t46 -130q-10 -60 -44.5 -100.5t-80.5 -59.5q-17 -8 -24.5 -13t-15.5 -20.5t-9 -39.5zM1292 0h-391l-22 207h-478
l-98 -207h-403l725 1434h446zM791 1018l-238 -496h291z" />
    <glyph glyph-name="uni1EA3" unicode="&#x1ea3;" 
d="M913 1137h-256q9 48 23.5 81t36 53t38.5 30t46 22l35 20q1 1 5.5 7t4.5 8q0 14 -21 14q-53 0 -92 -57l-190 71q63 85 138 122.5t181 37.5q120 0 179 -46t46 -130q-10 -60 -44 -100.5t-80 -59.5q-17 -8 -24.5 -13t-16 -20.5t-9.5 -39.5zM891 911l20 113h340l-180 -1024
h-340l14 80q-121 -109 -299 -109q-217 0 -325 166q-105 167 -68 389q34 217 185 371q150 156 370 156q197 0 283 -142zM821 506v6q17 100 -30.5 161.5t-145.5 61.5q-96 0 -166 -61q-71 -62 -86 -162q-15 -101 31 -162t143 -61t166 59.5t88 157.5z" />
    <glyph glyph-name="uni1EA4" unicode="&#x1ea4;" horiz-adv-x="1374" 
d="M1292 0h-391l-22 207h-478l-98 -207h-403l725 1434h446zM791 1018l-238 -496h291zM934 1526l-55 106l-97 -106h-286l254 295h317l152 -295h-285zM1143 1739l192 276h377l-260 -276h-309z" />
    <glyph glyph-name="uni1EA5" unicode="&#x1ea5;" 
d="M877 1116l-56 107l-96 -107h-287l254 295h318l151 -295h-284zM891 911l20 113h340l-180 -1024h-340l14 80q-121 -109 -299 -109q-217 0 -325 166q-105 167 -68 389q34 217 185 371q150 156 370 156q197 0 283 -142zM821 506v6q17 100 -30.5 161.5t-145.5 61.5
q-96 0 -166 -61q-71 -62 -86 -162q-15 -101 31 -162t143 -61t166 59.5t88 157.5zM1085 1329l193 277h377l-260 -277h-310z" />
    <glyph glyph-name="uni1EA6" unicode="&#x1ea6;" horiz-adv-x="1374" 
d="M1292 0h-391l-22 207h-478l-98 -207h-403l725 1434h446zM791 1018l-238 -496h291zM934 1526l-55 106l-97 -106h-286l254 295h317l152 -295h-285zM1475 1739h-293l-183 276h359z" />
    <glyph glyph-name="uni1EA7" unicode="&#x1ea7;" 
d="M877 1116l-56 107l-96 -107h-287l254 295h318l151 -295h-284zM891 911l20 113h340l-180 -1024h-340l14 80q-121 -109 -299 -109q-217 0 -325 166q-105 167 -68 389q34 217 185 371q150 156 370 156q197 0 283 -142zM821 506v6q17 100 -30.5 161.5t-145.5 61.5
q-96 0 -166 -61q-71 -62 -86 -162q-15 -101 31 -162t143 -61t166 59.5t88 157.5zM1417 1329h-293l-182 277h358z" />
    <glyph glyph-name="uni1EA8" unicode="&#x1ea8;" horiz-adv-x="1374" 
d="M1292 0h-391l-22 207h-478l-98 -207h-403l725 1434h446zM791 1018l-238 -496h291zM934 1526l-55 106l-97 -106h-286l254 295h317l152 -295h-285zM1380 1739h-237q8 44 21.5 75t33 49.5t35.5 27.5t43 20l33 20q1 1 5.5 6t4.5 7q0 14 -21 14q-49 0 -86 -53l-176 65
q59 78 129 114t168 36q113 0 167.5 -43t41.5 -121q-16 -105 -115 -150q-23 -9 -34.5 -22t-12.5 -45z" />
    <glyph glyph-name="uni1EA9" unicode="&#x1ea9;" 
d="M877 1116l-56 107l-96 -107h-287l254 295h318l151 -295h-284zM891 911l20 113h340l-180 -1024h-340l14 80q-121 -109 -299 -109q-217 0 -325 166q-105 167 -68 389q34 217 185 371q150 156 370 156q197 0 283 -142zM821 506v6q17 100 -30.5 161.5t-145.5 61.5
q-96 0 -166 -61q-71 -62 -86 -162q-15 -101 31 -162t143 -61t166 59.5t88 157.5zM1323 1329h-238q8 44 21.5 75t33.5 49.5t36 27.5t43 20l32 21q1 2 6 6t5 6q0 14 -21 14q-49 0 -86 -53l-176 66q59 78 129 113.5t168 35.5q113 0 167.5 -43t41.5 -121q-16 -104 -115 -149
q-23 -9 -34.5 -22.5t-12.5 -45.5z" />
    <glyph glyph-name="uni1EAA" unicode="&#x1eaa;" horiz-adv-x="1374" 
d="M1292 0h-391l-22 207h-478l-98 -207h-403l725 1434h446zM791 1018l-238 -496h291zM934 1526l-55 106l-97 -106h-286l254 295h317l152 -295h-285zM811 1858h-217q9 87 37.5 150.5t68 96t86.5 44.5t93.5 3.5t89.5 -34.5q20 -12 31 -17.5t24.5 -9t21 2t15 19t12.5 37.5h221
q-11 -109 -52.5 -180t-97 -95.5t-115.5 -20t-114 37.5q-85 65 -104 -34z" />
    <glyph glyph-name="uni1EAB" unicode="&#x1eab;" 
d="M877 1116l-56 107l-96 -107h-287l254 295h318l151 -295h-284zM891 911l20 113h340l-180 -1024h-340l14 80q-121 -109 -299 -109q-217 0 -325 166q-105 167 -68 389q34 217 185 371q150 156 370 156q197 0 283 -142zM821 506v6q17 100 -30.5 161.5t-145.5 61.5
q-96 0 -166 -61q-71 -62 -86 -162q-15 -101 31 -162t143 -61t166 59.5t88 157.5zM754 1448h-217q9 87 37.5 150.5t67.5 96t86 44.5t93.5 3.5t89.5 -34.5q25 -15 38.5 -20.5t28 -5.5t23.5 14.5t15 44.5h221q-11 -109 -52.5 -180t-97 -95.5t-115.5 -20t-114 37.5
q-85 65 -104 -35z" />
    <glyph glyph-name="uni1EAC" unicode="&#x1eac;" horiz-adv-x="1374" 
d="M1292 0h-391l-22 207h-478l-98 -207h-403l725 1434h446zM791 1018l-238 -496h291zM934 1526l-55 106l-97 -106h-286l254 295h317l152 -295h-285zM502 -481q-75 0 -120.5 54t-33.5 128t74 128t139 54q75 0 120 -53.5t32 -128.5q-11 -75 -72 -128.5t-139 -53.5z" />
    <glyph glyph-name="uni1EAD" unicode="&#x1ead;" 
d="M877 1116l-56 107l-96 -107h-287l254 295h318l151 -295h-284zM891 911l20 113h340l-180 -1024h-340l14 80q-121 -109 -299 -109q-217 0 -325 166q-105 167 -68 389q34 217 185 371q150 156 370 156q197 0 283 -142zM821 506v6q17 100 -30.5 161.5t-145.5 61.5
q-96 0 -166 -61q-71 -62 -86 -162q-15 -101 31 -162t143 -61t166 59.5t88 157.5zM487 -481q-75 0 -120 54t-33 128t74 128t139 54q75 0 119.5 -53.5t31.5 -128.5q-11 -75 -72 -128.5t-139 -53.5z" />
    <glyph glyph-name="uni1EAE" unicode="&#x1eae;" horiz-adv-x="1374" 
d="M1292 0h-391l-22 207h-478l-98 -207h-403l725 1434h446zM791 1018l-238 -496h291zM879 1509q-162 0 -248 85t-58 221h267q-12 -84 61 -84q75 0 90 84h266q-50 -306 -378 -306zM737 1845l193 277h377l-260 -277h-310z" />
    <glyph glyph-name="uni1EAF" unicode="&#x1eaf;" 
d="M825 1100q-162 0 -247.5 84.5t-57.5 220.5h266q-12 -84 62 -84q75 0 90 84h266q-50 -305 -379 -305zM891 911l20 113h340l-180 -1024h-340l14 80q-121 -109 -299 -109q-217 0 -325 166q-105 167 -68 389q34 217 185 371q150 156 370 156q197 0 283 -142zM821 506v6
q17 100 -30.5 161.5t-145.5 61.5q-96 0 -166 -61q-71 -62 -86 -162q-15 -101 31 -162t143 -61t166 59.5t88 157.5zM684 1436l193 276h376l-260 -276h-309z" />
    <glyph glyph-name="uni1EB0" unicode="&#x1eb0;" horiz-adv-x="1374" 
d="M1292 0h-391l-22 207h-478l-98 -207h-403l725 1434h446zM791 1018l-238 -496h291zM879 1509q-162 0 -248 85t-58 221h267q-12 -84 61 -84q75 0 90 84h266q-50 -306 -378 -306zM1102 1845h-293l-182 277h358z" />
    <glyph glyph-name="uni1EB1" unicode="&#x1eb1;" 
d="M825 1100q-162 0 -247.5 84.5t-57.5 220.5h266q-12 -84 62 -84q75 0 90 84h266q-50 -305 -379 -305zM891 911l20 113h340l-180 -1024h-340l14 80q-121 -109 -299 -109q-217 0 -325 166q-105 167 -68 389q34 217 185 371q150 156 370 156q197 0 283 -142zM821 506v6
q17 100 -30.5 161.5t-145.5 61.5q-96 0 -166 -61q-71 -62 -86 -162q-15 -101 31 -162t143 -61t166 59.5t88 157.5zM1049 1436h-293l-183 276h359z" />
    <glyph glyph-name="uni1EB2" unicode="&#x1eb2;" horiz-adv-x="1374" 
d="M1292 0h-391l-22 207h-478l-98 -207h-403l725 1434h446zM791 1018l-238 -496h291zM879 1509q-162 0 -248 85t-58 221h267q-12 -84 61 -84q75 0 90 84h266q-50 -306 -378 -306zM1030 1845h-237q8 44 21.5 75t33 49.5t35.5 27.5t43 20l32 21q1 2 6 6t5 6q0 14 -21 14
q-49 0 -86 -53l-176 66q59 78 129 113.5t168 35.5q113 0 167.5 -43t41.5 -121q-16 -104 -115 -149q-23 -9 -34.5 -22.5t-12.5 -45.5z" />
    <glyph glyph-name="uni1EB3" unicode="&#x1eb3;" 
d="M825 1100q-162 0 -247.5 84.5t-57.5 220.5h266q-12 -84 62 -84q75 0 90 84h266q-50 -305 -379 -305zM891 911l20 113h340l-180 -1024h-340l14 80q-121 -109 -299 -109q-217 0 -325 166q-105 167 -68 389q34 217 185 371q150 156 370 156q197 0 283 -142zM821 506v6
q17 100 -30.5 161.5t-145.5 61.5q-96 0 -166 -61q-71 -62 -86 -162q-15 -101 31 -162t143 -61t166 59.5t88 157.5zM977 1436h-238q8 44 21.5 75t33 49.5t35.5 27.5t43 20l33 20q1 2 5.5 6t4.5 6q0 5 -5 10t-15 5q-49 0 -86 -53l-176 65q59 78 129 114t168 36
q113 0 167.5 -43t41.5 -121q-16 -105 -115 -150q-23 -9 -34.5 -22t-12.5 -45z" />
    <glyph glyph-name="uni1EB4" unicode="&#x1eb4;" horiz-adv-x="1374" 
d="M1292 0h-391l-22 207h-478l-98 -207h-403l725 1434h446zM791 1018l-238 -496h291zM879 1509q-162 0 -248 85t-58 221h267q-12 -84 61 -84q75 0 90 84h266q-50 -306 -378 -306zM817 1849h-225q9 87 38.5 150.5t70 96t89.5 44.5t97 3.5t92 -34.5q26 -15 39.5 -20.5
t28.5 -5.5t23.5 14.5t14.5 44.5h230q-9 -88 -39 -151.5t-71 -95.5t-90.5 -44t-98 -2.5t-92.5 35.5q-88 65 -107 -35z" />
    <glyph glyph-name="uni1EB5" unicode="&#x1eb5;" 
d="M825 1100q-162 0 -247.5 84.5t-57.5 220.5h266q-12 -84 62 -84q75 0 90 84h266q-50 -305 -379 -305zM891 911l20 113h340l-180 -1024h-340l14 80q-121 -109 -299 -109q-217 0 -325 166q-105 167 -68 389q34 217 185 371q150 156 370 156q197 0 283 -142zM821 506v6
q17 100 -30.5 161.5t-145.5 61.5q-96 0 -166 -61q-71 -62 -86 -162q-15 -101 31 -162t143 -61t166 59.5t88 157.5zM764 1440h-225q9 87 38.5 150.5t70 96t89.5 44.5t97 3.5t92 -34.5q26 -15 39.5 -20.5t28.5 -5.5t23.5 14.5t14.5 44.5h230q-11 -109 -54 -180t-100.5 -95.5
t-119.5 -20t-118 37.5q-87 64 -106 -35z" />
    <glyph glyph-name="uni1EB6" unicode="&#x1eb6;" horiz-adv-x="1374" 
d="M1292 0h-391l-22 207h-478l-98 -207h-403l725 1434h446zM791 1018l-238 -496h291zM879 1509q-162 0 -248 85t-58 221h267q-12 -84 61 -84q75 0 90 84h266q-50 -306 -378 -306zM502 -481q-75 0 -120.5 54t-33.5 128t74 128t139 54q75 0 120 -53.5t32 -128.5
q-11 -75 -72 -128.5t-139 -53.5z" />
    <glyph glyph-name="uni1EB7" unicode="&#x1eb7;" 
d="M825 1100q-162 0 -247.5 84.5t-57.5 220.5h266q-12 -84 62 -84q75 0 90 84h266q-50 -305 -379 -305zM891 911l20 113h340l-180 -1024h-340l14 80q-121 -109 -299 -109q-217 0 -325 166q-105 167 -68 389q34 217 185 371q150 156 370 156q197 0 283 -142zM821 506v6
q17 100 -30.5 161.5t-145.5 61.5q-96 0 -166 -61q-71 -62 -86 -162q-15 -101 31 -162t143 -61t166 59.5t88 157.5zM487 -481q-75 0 -120 54t-33 128t74 128t139 54q75 0 119.5 -53.5t31.5 -128.5q-11 -75 -72 -128.5t-139 -53.5z" />
    <glyph glyph-name="uni1EB8" unicode="&#x1eb8;" horiz-adv-x="1095" 
d="M393 -481q-75 0 -120 54t-33 128t74 128t139 54q75 0 119.5 -53.5t31.5 -128.5q-11 -75 -72 -128.5t-139 -53.5zM1186 1434l-62 -342h-542l-37 -201h495l-61 -336h-492l-36 -211h553l-60 -344h-921l251 1434h912z" />
    <glyph glyph-name="uni1EB9" unicode="&#x1eb9;" horiz-adv-x="1163" 
d="M446 -481q-75 0 -120 54t-33 128t74 128t139 54q75 0 119.5 -53.5t31.5 -128.5q-11 -75 -72 -128.5t-139 -53.5zM664 1053q228 0 362 -158q131 -155 90 -381q-10 -67 -35 -127h-702q27 -125 196 -125q123 0 203 74l217 -199q-178 -166 -446 -166t-402 162
q-134 166 -94 399q38 227 209 373q174 148 402 148zM420 625h387q-9 141 -162 141q-151 0 -225 -141z" />
    <glyph glyph-name="uni1EBA" unicode="&#x1eba;" horiz-adv-x="1095" 
d="M872 1526h-256q9 48 23.5 81t36 53t38.5 30t46 22l35 21q1 1 5.5 6.5t4.5 7.5q0 14 -21 14q-53 0 -92 -57l-190 72q63 84 138 121.5t181 37.5q121 0 180 -46t46 -130q-10 -60 -44.5 -100.5t-80.5 -59.5q-17 -8 -24.5 -13t-16 -20.5t-9.5 -39.5zM1186 1434l-62 -342h-542
l-37 -201h495l-61 -336h-492l-36 -211h553l-60 -344h-921l251 1434h912z" />
    <glyph glyph-name="uni1EBB" unicode="&#x1ebb;" horiz-adv-x="1163" 
d="M854 1151h-256q9 48 23.5 81t35.5 53t38.5 30t45.5 22l35 21q1 1 5.5 6.5t4.5 7.5q0 14 -20 14q-53 0 -92 -57l-191 72q63 85 138.5 122.5t181.5 37.5q120 0 179 -46t46 -131q-10 -60 -44.5 -100t-80.5 -59q-16 -8 -24 -13.5t-16 -21t-9 -39.5zM664 1053q228 0 362 -158
q131 -155 90 -381q-10 -67 -35 -127h-702q27 -125 196 -125q123 0 203 74l217 -199q-178 -166 -446 -166t-402 162q-134 166 -94 399q38 227 209 373q174 148 402 148zM420 625h387q-9 141 -162 141q-151 0 -225 -141z" />
    <glyph glyph-name="uni1EBC" unicode="&#x1ebc;" horiz-adv-x="1095" 
d="M631 1532h-248q10 98 42.5 169.5t77 108.5t97.5 51t106.5 3.5t102.5 -39.5q27 -16 42.5 -22.5t31.5 -6t26 17t17 50.5h250q-8 -83 -32.5 -147t-59 -102.5t-76.5 -60t-87 -24.5t-89 8t-84 35q-98 74 -117 -41zM1186 1434l-62 -342h-542l-37 -201h495l-61 -336h-492
l-36 -211h553l-60 -344h-921l251 1434h912z" />
    <glyph glyph-name="uni1EBD" unicode="&#x1ebd;" horiz-adv-x="1163" 
d="M664 1053q228 0 362 -158q131 -155 90 -381q-10 -67 -35 -127h-702q27 -125 196 -125q123 0 203 74l217 -199q-178 -166 -446 -166t-402 162q-134 166 -94 399q38 227 209 373q174 148 402 148zM420 625h387q-9 141 -162 141q-151 0 -225 -141zM594 1137h-248
q10 98 42.5 169.5t77 108.5t97.5 51t106.5 3.5t102.5 -39.5q27 -16 42 -22.5t31.5 -6.5t26.5 16.5t17 50.5h250q-10 -99 -42.5 -170.5t-77.5 -107.5t-99 -49t-107 -2.5t-102 39.5q-98 74 -117 -41z" />
    <glyph glyph-name="uni1EBE" unicode="&#x1ebe;" horiz-adv-x="1095" 
d="M817 1526l-55 106l-96 -106h-287l254 295h317l152 -295h-285zM1186 1434l-62 -342h-542l-37 -201h495l-61 -336h-492l-36 -211h553l-60 -344h-921l251 1434h912zM1026 1739l193 276h376l-260 -276h-309z" />
    <glyph glyph-name="uni1EBF" unicode="&#x1ebf;" horiz-adv-x="1163" 
d="M780 1130l-55 107l-96 -107h-287l254 295h317l152 -295h-285zM664 1053q228 0 362 -158q131 -155 90 -381q-10 -67 -35 -127h-702q27 -125 196 -125q123 0 203 74l217 -199q-178 -166 -446 -166t-402 162q-134 166 -94 399q38 227 209 373q174 148 402 148zM420 625h387
q-9 141 -162 141q-151 0 -225 -141zM989 1343l193 277h377l-261 -277h-309z" />
    <glyph glyph-name="uni1EC0" unicode="&#x1ec0;" horiz-adv-x="1095" 
d="M817 1526l-55 106l-96 -106h-287l254 295h317l152 -295h-285zM1186 1434l-62 -342h-542l-37 -201h495l-61 -336h-492l-36 -211h553l-60 -344h-921l251 1434h912zM1358 1739h-293l-182 276h358z" />
    <glyph glyph-name="uni1EC1" unicode="&#x1ec1;" horiz-adv-x="1163" 
d="M780 1130l-55 107l-96 -107h-287l254 295h317l152 -295h-285zM664 1053q228 0 362 -158q131 -155 90 -381q-10 -67 -35 -127h-702q27 -125 196 -125q123 0 203 74l217 -199q-178 -166 -446 -166t-402 162q-134 166 -94 399q38 227 209 373q174 148 402 148zM420 625h387
q-9 141 -162 141q-151 0 -225 -141zM1321 1343h-293l-182 277h358z" />
    <glyph glyph-name="uni1EC2" unicode="&#x1ec2;" horiz-adv-x="1095" 
d="M817 1526l-55 106l-96 -106h-287l254 295h317l152 -295h-285zM1186 1434l-62 -342h-542l-37 -201h495l-61 -336h-492l-36 -211h553l-60 -344h-921l251 1434h912zM1264 1739h-238q8 44 21.5 75t33 49.5t35.5 27.5t43 20l33 20q1 1 5.5 6t4.5 7q0 14 -20 14q-49 0 -86 -53
l-176 65q59 78 129 114t168 36q112 0 167 -43t41 -121q-16 -106 -114 -150q-23 -9 -34.5 -22t-12.5 -45z" />
    <glyph glyph-name="uni1EC3" unicode="&#x1ec3;" horiz-adv-x="1163" 
d="M780 1130l-55 107l-96 -107h-287l254 295h317l152 -295h-285zM664 1053q228 0 362 -158q131 -155 90 -381q-10 -67 -35 -127h-702q27 -125 196 -125q123 0 203 74l217 -199q-178 -166 -446 -166t-402 162q-134 166 -94 399q38 227 209 373q174 148 402 148zM420 625h387
q-9 141 -162 141q-151 0 -225 -141zM1227 1343h-238q8 44 21.5 75t33 49.5t36 28t42.5 20.5l33 20q1 2 5.5 6t4.5 6q0 5 -5 10t-15 5q-48 0 -86 -54l-176 66q59 78 129 113.5t168 35.5q113 0 167.5 -42.5t41.5 -120.5q-16 -105 -115 -150q-23 -9 -34.5 -22.5t-12.5 -45.5z
" />
    <glyph glyph-name="uni1EC4" unicode="&#x1ec4;" horiz-adv-x="1095" 
d="M817 1526l-55 106l-96 -106h-287l254 295h317l152 -295h-285zM1186 1434l-62 -342h-542l-37 -201h495l-61 -336h-492l-36 -211h553l-60 -344h-921l251 1434h912zM694 1858h-217q9 87 37.5 150.5t68 96t86.5 44.5t93.5 3.5t89.5 -34.5q20 -12 31 -17.5t24.5 -9t21 2t15 19
t12.5 37.5h222q-11 -109 -52.5 -180t-97 -95.5t-115.5 -20t-114 37.5q-86 66 -105 -34z" />
    <glyph glyph-name="uni1EC5" unicode="&#x1ec5;" horiz-adv-x="1163" 
d="M780 1130l-55 107l-96 -107h-287l254 295h317l152 -295h-285zM664 1053q228 0 362 -158q131 -155 90 -381q-10 -67 -35 -127h-702q27 -125 196 -125q123 0 203 74l217 -199q-178 -166 -446 -166t-402 162q-134 166 -94 399q38 227 209 373q174 148 402 148zM420 625h387
q-9 141 -162 141q-151 0 -225 -141zM657 1462h-217q9 87 37.5 150.5t68 96t86.5 44.5t93.5 3.5t89.5 -34.5q25 -15 38.5 -20.5t28 -5.5t23.5 14.5t15 44.5h221q-11 -109 -52.5 -180t-97 -95.5t-115.5 -20t-114 37.5q-86 66 -105 -35z" />
    <glyph glyph-name="uni1EC6" unicode="&#x1ec6;" horiz-adv-x="1095" 
d="M817 1526l-55 106l-96 -106h-287l254 295h317l152 -295h-285zM1186 1434l-62 -342h-542l-37 -201h495l-61 -336h-492l-36 -211h553l-60 -344h-921l251 1434h912zM393 -481q-75 0 -120 54t-33 128t74 128t139 54q75 0 119.5 -53.5t31.5 -128.5q-11 -75 -72 -128.5
t-139 -53.5z" />
    <glyph glyph-name="uni1EC7" unicode="&#x1ec7;" horiz-adv-x="1163" 
d="M780 1130l-55 107l-96 -107h-287l254 295h317l152 -295h-285zM664 1053q228 0 362 -158q131 -155 90 -381q-10 -67 -35 -127h-702q27 -125 196 -125q123 0 203 74l217 -199q-178 -166 -446 -166t-402 162q-134 166 -94 399q38 227 209 373q174 148 402 148zM420 625h387
q-9 141 -162 141q-151 0 -225 -141zM446 -481q-75 0 -120 54t-33 128t74 128t139 54q75 0 119.5 -53.5t31.5 -128.5q-11 -75 -72 -128.5t-139 -53.5z" />
    <glyph glyph-name="uni1EC8" unicode="&#x1ec8;" horiz-adv-x="591" 
d="M606 1526h-256q9 48 23.5 81t36 53t38.5 30t46 22l34 21q1 1 6 6.5t5 7.5q0 14 -21 14q-53 0 -92 -57l-190 72q63 84 138 121.5t181 37.5q120 0 179 -46t46 -130q-10 -60 -44.5 -100.5t-80.5 -59.5q-17 -8 -24.5 -13t-15.5 -20.5t-9 -39.5zM23 0l251 1434h367l-252 -1434
h-366z" />
    <glyph glyph-name="uni1EC9" unicode="&#x1ec9;" horiz-adv-x="536" 
d="M348 0h-340l180 1024h340zM506 1116h-256q9 48 23.5 81t35.5 53.5t38.5 30.5t45.5 22l35 20q1 1 5.5 6.5t4.5 7.5q0 5 -5 10t-15 5q-52 0 -92 -58l-191 72q63 85 138.5 122.5t181.5 37.5q120 0 179 -46t46 -130q-10 -60 -44.5 -100.5t-80.5 -59.5q-16 -8 -24 -13.5
t-16 -21t-9 -39.5z" />
    <glyph glyph-name="uni1ECA" unicode="&#x1eca;" horiz-adv-x="591" 
d="M129 -481q-75 0 -120.5 54t-33.5 128t74 128t139 54q75 0 120 -53.5t32 -128.5q-11 -75 -72 -128.5t-139 -53.5zM23 0l251 1434h367l-252 -1434h-366z" />
    <glyph glyph-name="uni1ECB" unicode="&#x1ecb;" horiz-adv-x="536" 
d="M106 -481q-75 0 -120 54t-33 128t74 128t139 54q75 0 119.5 -53.5t31.5 -128.5q-11 -75 -72 -128.5t-139 -53.5zM348 0h-340l180 1024h340zM383 1104q-75 0 -120.5 54t-33.5 128t74 128t139 54q75 0 120 -53.5t32 -128.5q-11 -75 -72 -128.5t-139 -53.5z" />
    <glyph glyph-name="uni1ECC" unicode="&#x1ecc;" horiz-adv-x="1617" 
d="M612 -481q-75 0 -120 54t-33 128t74 128t139 54q75 0 119.5 -53.5t31.5 -128.5q-11 -75 -72 -128.5t-139 -53.5zM737 -31q-107 -2 -205 27t-174 81.5t-136.5 125.5t-93 159t-44 182t11.5 195q53 308 289 516q238 209 571 209q326 0 506 -229q183 -230 131 -537
q-53 -312 -286 -520q-232 -209 -570 -209zM1229 717q30 168 -60 278q-89 111 -256 111q-166 0 -295 -111q-127 -109 -157 -278q-30 -173 55 -281q89 -108 254 -108t297 108q135 114 162 281z" />
    <glyph glyph-name="uni1ECD" unicode="&#x1ecd;" horiz-adv-x="1193" 
d="M401 -481q-75 0 -120 54t-33 128t74 128t139 54q75 0 119.5 -53.5t31.5 -128.5q-11 -75 -72 -128.5t-139 -53.5zM528 -29q-74 0 -141 17t-118.5 48t-94.5 74t-70 94t-44 108t-16.5 115.5t11.5 117.5q41 212 205 360q168 148 414 148t375 -176q130 -177 90 -394
q-38 -212 -205 -360q-172 -152 -406 -152zM555 299q90 0 157.5 59.5t84.5 153.5t-29 153.5t-137 59.5q-88 0 -155.5 -59.5t-84.5 -153.5q-17 -93 29.5 -153t134.5 -60z" />
    <glyph glyph-name="uni1ECE" unicode="&#x1ece;" horiz-adv-x="1617" 
d="M1163 1567h-256q9 48 23.5 81t36 53t38.5 30t46 22l34 21q1 2 6 7t5 7q0 14 -21 14q-53 0 -92 -57l-190 72q63 84 138 121.5t181 37.5q120 0 179 -46t46 -130q-10 -60 -44.5 -100.5t-80.5 -59.5q-17 -8 -24.5 -13t-15.5 -20.5t-9 -39.5zM737 -31q-107 -2 -205 27
t-174 81.5t-136.5 125.5t-93 159t-44 182t11.5 195q53 308 289 516q238 209 571 209q326 0 506 -229q183 -230 131 -537q-53 -312 -286 -520q-232 -209 -570 -209zM1229 717q30 168 -60 278q-89 111 -256 111q-166 0 -295 -111q-127 -109 -157 -278q-30 -173 55 -281
q89 -108 254 -108t297 108q135 114 162 281z" />
    <glyph glyph-name="uni1ECF" unicode="&#x1ecf;" horiz-adv-x="1193" 
d="M881 1157h-256q9 48 23.5 81t35.5 53t38.5 30t45.5 22l35 21q1 1 5.5 6.5t4.5 7.5q0 5 -5 10t-15 5q-53 0 -93 -58l-190 72q63 85 138 122.5t181 37.5q121 0 180 -46t46 -130q-10 -60 -44.5 -100.5t-80.5 -59.5q-16 -8 -24 -13.5t-16 -21t-9 -39.5zM528 -29
q-74 0 -141 17t-118.5 48t-94.5 74t-70 94t-44 108t-16.5 115.5t11.5 117.5q41 212 205 360q168 148 414 148t375 -176q130 -177 90 -394q-38 -212 -205 -360q-172 -152 -406 -152zM555 299q90 0 157.5 59.5t84.5 153.5t-29 153.5t-137 59.5q-88 0 -155.5 -59.5
t-84.5 -153.5q-17 -93 29.5 -153t134.5 -60z" />
    <glyph glyph-name="uni1ED0" unicode="&#x1ed0;" horiz-adv-x="1617" 
d="M1126 1546l-55 107l-96 -107h-287l254 295h318l151 -295h-285zM956 1464q326 0 506 -229q183 -230 131 -537q-53 -312 -286 -520q-232 -209 -570 -209q-107 -2 -205 27t-174 81.5t-136.5 125.5t-93 159t-44 182t11.5 195q53 308 289 516q238 209 571 209zM1229 717
q30 168 -60 278q-89 111 -256 111q-166 0 -295 -111q-127 -109 -157 -278q-30 -173 55 -281q89 -108 254 -108t297 108q135 114 162 281zM1335 1759l193 277h377l-260 -277h-310z" />
    <glyph glyph-name="uni1ED1" unicode="&#x1ed1;" horiz-adv-x="1193" 
d="M817 1137l-55 106l-96 -106h-287l254 295h317l152 -295h-285zM674 1053q246 0 375 -176q130 -177 90 -394q-38 -212 -205 -360q-172 -152 -406 -152q-74 0 -141 17t-118.5 48t-94.5 74t-70 94t-44 108t-16.5 115.5t11.5 117.5q41 212 205 360q168 148 414 148zM631 725
q-88 0 -155.5 -59.5t-84.5 -153.5q-17 -93 29.5 -153t134.5 -60q90 0 157.5 59.5t84.5 153.5t-29 153.5t-137 59.5zM1026 1350l193 276h376l-260 -276h-309z" />
    <glyph glyph-name="uni1ED2" unicode="&#x1ed2;" horiz-adv-x="1617" 
d="M1126 1546l-55 107l-96 -107h-287l254 295h318l151 -295h-285zM956 1464q326 0 506 -229q183 -230 131 -537q-53 -312 -286 -520q-232 -209 -570 -209q-107 -2 -205 27t-174 81.5t-136.5 125.5t-93 159t-44 182t11.5 195q53 308 289 516q238 209 571 209zM1229 717
q30 168 -60 278q-89 111 -256 111q-166 0 -295 -111q-127 -109 -157 -278q-30 -173 55 -281q89 -108 254 -108t297 108q135 114 162 281zM1667 1759h-293l-182 277h358z" />
    <glyph glyph-name="uni1ED3" unicode="&#x1ed3;" horiz-adv-x="1193" 
d="M817 1137l-55 106l-96 -106h-287l254 295h317l152 -295h-285zM674 1053q246 0 375 -176q130 -177 90 -394q-38 -212 -205 -360q-172 -152 -406 -152q-74 0 -141 17t-118.5 48t-94.5 74t-70 94t-44 108t-16.5 115.5t11.5 117.5q41 212 205 360q168 148 414 148zM631 725
q-88 0 -155.5 -59.5t-84.5 -153.5q-17 -93 29.5 -153t134.5 -60q90 0 157.5 59.5t84.5 153.5t-29 153.5t-137 59.5zM1358 1350h-293l-182 276h358z" />
    <glyph glyph-name="uni1ED4" unicode="&#x1ed4;" horiz-adv-x="1617" 
d="M1126 1546l-55 107l-96 -107h-287l254 295h318l151 -295h-285zM956 1464q326 0 506 -229q183 -230 131 -537q-53 -312 -286 -520q-232 -209 -570 -209q-107 -2 -205 27t-174 81.5t-136.5 125.5t-93 159t-44 182t11.5 195q53 308 289 516q238 209 571 209zM1229 717
q30 168 -60 278q-89 111 -256 111q-166 0 -295 -111q-127 -109 -157 -278q-30 -173 55 -281q89 -108 254 -108t297 108q135 114 162 281zM1573 1759h-238q8 44 21.5 75t33 49.5t35.5 27.5t43 20l33 21q1 2 5.5 6t4.5 6q0 14 -20 14q-49 0 -86 -53l-176 66q59 78 129 113.5
t168 35.5q113 0 167.5 -43t41.5 -121q-16 -104 -115 -149q-23 -9 -34.5 -22.5t-12.5 -45.5z" />
    <glyph glyph-name="uni1ED5" unicode="&#x1ed5;" horiz-adv-x="1193" 
d="M817 1137l-55 106l-96 -106h-287l254 295h317l152 -295h-285zM674 1053q246 0 375 -176q130 -177 90 -394q-38 -212 -205 -360q-172 -152 -406 -152q-74 0 -141 17t-118.5 48t-94.5 74t-70 94t-44 108t-16.5 115.5t11.5 117.5q41 212 205 360q168 148 414 148zM631 725
q-88 0 -155.5 -59.5t-84.5 -153.5q-17 -93 29.5 -153t134.5 -60q90 0 157.5 59.5t84.5 153.5t-29 153.5t-137 59.5zM1264 1350h-238q8 44 21.5 75t33 49.5t35.5 27.5t43 20l33 20q1 2 5.5 6t4.5 6q0 5 -5 10t-15 5q-49 0 -86 -53l-176 65q59 78 129 114t168 36
q112 0 167 -43t41 -121q-16 -106 -114 -150q-23 -9 -34.5 -22t-12.5 -45z" />
    <glyph glyph-name="uni1ED6" unicode="&#x1ed6;" horiz-adv-x="1617" 
d="M1126 1546l-55 107l-96 -107h-287l254 295h318l151 -295h-285zM956 1464q326 0 506 -229q183 -230 131 -537q-53 -312 -286 -520q-232 -209 -570 -209q-107 -2 -205 27t-174 81.5t-136.5 125.5t-93 159t-44 182t11.5 195q53 308 289 516q238 209 571 209zM1229 717
q30 168 -60 278q-89 111 -256 111q-166 0 -295 -111q-127 -109 -157 -278q-30 -173 55 -281q89 -108 254 -108t297 108q135 114 162 281zM1004 1878h-218q9 87 37.5 150.5t68 96t86.5 44.5t93.5 3.5t89.5 -34.5q25 -15 38.5 -20.5t28 -5.5t23.5 14.5t15 44.5h221
q-11 -109 -52.5 -180t-97 -95.5t-115.5 -20t-114 37.5q-85 65 -104 -35z" />
    <glyph glyph-name="uni1ED7" unicode="&#x1ed7;" horiz-adv-x="1193" 
d="M817 1137l-55 106l-96 -106h-287l254 295h317l152 -295h-285zM674 1053q246 0 375 -176q130 -177 90 -394q-38 -212 -205 -360q-172 -152 -406 -152q-74 0 -141 17t-118.5 48t-94.5 74t-70 94t-44 108t-16.5 115.5t11.5 117.5q41 212 205 360q168 148 414 148zM631 725
q-88 0 -155.5 -59.5t-84.5 -153.5q-17 -93 29.5 -153t134.5 -60q90 0 157.5 59.5t84.5 153.5t-29 153.5t-137 59.5zM694 1468h-217q9 87 37.5 150.5t68 96t86.5 45t93.5 4t89.5 -34.5q20 -12 31 -17.5t24.5 -9t21 2t15 19t12.5 37.5h222q-11 -109 -52.5 -180t-97 -95.5
t-115.5 -20t-114 37.5q-86 66 -105 -35z" />
    <glyph glyph-name="uni1ED8" unicode="&#x1ed8;" horiz-adv-x="1617" 
d="M1126 1546l-55 107l-96 -107h-287l254 295h318l151 -295h-285zM956 1464q326 0 506 -229q183 -230 131 -537q-53 -312 -286 -520q-232 -209 -570 -209q-107 -2 -205 27t-174 81.5t-136.5 125.5t-93 159t-44 182t11.5 195q53 308 289 516q238 209 571 209zM1229 717
q30 168 -60 278q-89 111 -256 111q-166 0 -295 -111q-127 -109 -157 -278q-30 -173 55 -281q89 -108 254 -108t297 108q135 114 162 281zM612 -481q-75 0 -120 54t-33 128t74 128t139 54q75 0 119.5 -53.5t31.5 -128.5q-11 -75 -72 -128.5t-139 -53.5z" />
    <glyph glyph-name="uni1ED9" unicode="&#x1ed9;" horiz-adv-x="1193" 
d="M817 1137l-55 106l-96 -106h-287l254 295h317l152 -295h-285zM674 1053q246 0 375 -176q130 -177 90 -394q-38 -212 -205 -360q-172 -152 -406 -152q-74 0 -141 17t-118.5 48t-94.5 74t-70 94t-44 108t-16.5 115.5t11.5 117.5q41 212 205 360q168 148 414 148zM631 725
q-88 0 -155.5 -59.5t-84.5 -153.5q-17 -93 29.5 -153t134.5 -60q90 0 157.5 59.5t84.5 153.5t-29 153.5t-137 59.5zM401 -481q-75 0 -120 54t-33 128t74 128t139 54q75 0 119.5 -53.5t31.5 -128.5q-11 -75 -72 -128.5t-139 -53.5z" />
    <glyph glyph-name="uni1EDA" unicode="&#x1eda;" horiz-adv-x="1617" 
d="M885 1567l207 297h405l-278 -297h-334zM737 -31q-107 -2 -205 27t-174 81.5t-136.5 125.5t-93 159t-44 182t11.5 195q53 308 289 516q238 209 571 209q121 0 220 -30h124q64 0 89 27.5t38 99.5l7 30h274l-6 -30q-24 -133 -77 -212t-165 -112q0 -2 2 -2q183 -230 131 -537
q-53 -312 -286 -520q-232 -209 -570 -209zM1229 717q30 168 -60 278q-89 111 -256 111q-166 0 -295 -111q-127 -109 -157 -278q-30 -173 55 -281q89 -108 254 -108t297 108q135 114 162 281z" />
    <glyph glyph-name="uni1EDB" unicode="&#x1edb;" horiz-adv-x="1193" 
d="M549 1157l207 297h405l-278 -297h-334zM528 -29q-74 0 -141 17t-118.5 48t-94.5 74t-70 94t-44 108t-16.5 115.5t11.5 117.5q41 212 205 360q168 148 414 148q93 0 178 -29h31q64 0 89 27.5t38 99.5l6 31h274l-6 -31q-22 -123 -69 -199.5t-142 -113.5q101 -158 66 -355
q-38 -212 -205 -360q-172 -152 -406 -152zM555 299q90 0 157.5 59.5t84.5 153.5t-29 153.5t-137 59.5q-88 0 -155.5 -59.5t-84.5 -153.5q-17 -93 29.5 -153t134.5 -60z" />
    <glyph glyph-name="uni1EDC" unicode="&#x1edc;" horiz-adv-x="1617" 
d="M1227 1567h-316l-194 297h385zM737 -31q-107 -2 -205 27t-174 81.5t-136.5 125.5t-93 159t-44 182t11.5 195q53 308 289 516q238 209 571 209q121 0 220 -30h124q64 0 89 27.5t38 99.5l7 30h274l-6 -30q-24 -133 -77 -212t-165 -112q0 -2 2 -2q183 -230 131 -537
q-53 -312 -286 -520q-232 -209 -570 -209zM1229 717q30 168 -60 278q-89 111 -256 111q-166 0 -295 -111q-127 -109 -157 -278q-30 -173 55 -281q89 -108 254 -108t297 108q135 114 162 281z" />
    <glyph glyph-name="uni1EDD" unicode="&#x1edd;" horiz-adv-x="1193" 
d="M895 1157h-315l-195 297h385zM528 -29q-74 0 -141 17t-118.5 48t-94.5 74t-70 94t-44 108t-16.5 115.5t11.5 117.5q41 212 205 360q168 148 414 148q93 0 178 -29h31q64 0 89 27.5t38 99.5l6 31h274l-6 -31q-22 -123 -69 -199.5t-142 -113.5q101 -158 66 -355
q-38 -212 -205 -360q-172 -152 -406 -152zM555 299q90 0 157.5 59.5t84.5 153.5t-29 153.5t-137 59.5q-88 0 -155.5 -59.5t-84.5 -153.5q-17 -93 29.5 -153t134.5 -60z" />
    <glyph glyph-name="uni1EDE" unicode="&#x1ede;" horiz-adv-x="1617" 
d="M1163 1567h-256q9 48 23.5 81t36 53t38.5 30t46 22l34 21q1 2 6 7t5 7q0 14 -21 14q-53 0 -92 -57l-190 72q63 84 138 121.5t181 37.5q120 0 179 -46t46 -130q-10 -60 -44.5 -100.5t-80.5 -59.5q-17 -8 -24.5 -13t-15.5 -20.5t-9 -39.5zM737 -31q-107 -2 -205 27
t-174 81.5t-136.5 125.5t-93 159t-44 182t11.5 195q53 308 289 516q238 209 571 209q121 0 220 -30h124q64 0 89 27.5t38 99.5l7 30h274l-6 -30q-24 -133 -77 -212t-165 -112q0 -2 2 -2q183 -230 131 -537q-53 -312 -286 -520q-232 -209 -570 -209zM1229 717q30 168 -60 278
q-89 111 -256 111q-166 0 -295 -111q-127 -109 -157 -278q-30 -173 55 -281q89 -108 254 -108t297 108q135 114 162 281z" />
    <glyph glyph-name="uni1EDF" unicode="&#x1edf;" horiz-adv-x="1193" 
d="M881 1157h-256q9 48 23.5 81t35.5 53t38.5 30t45.5 22l35 21q1 1 5.5 6.5t4.5 7.5q0 5 -5 10t-15 5q-53 0 -93 -58l-190 72q63 85 138 122.5t181 37.5q121 0 180 -46t46 -130q-10 -60 -44.5 -100.5t-80.5 -59.5q-16 -8 -24 -13.5t-16 -21t-9 -39.5zM528 -29
q-74 0 -141 17t-118.5 48t-94.5 74t-70 94t-44 108t-16.5 115.5t11.5 117.5q41 212 205 360q168 148 414 148q93 0 178 -29h31q64 0 89 27.5t38 99.5l6 31h274l-6 -31q-22 -123 -69 -199.5t-142 -113.5q101 -158 66 -355q-38 -212 -205 -360q-172 -152 -406 -152zM555 299
q90 0 157.5 59.5t84.5 153.5t-29 153.5t-137 59.5q-88 0 -155.5 -59.5t-84.5 -153.5q-17 -93 29.5 -153t134.5 -60z" />
    <glyph glyph-name="uni1EE0" unicode="&#x1ee0;" horiz-adv-x="1617" 
d="M903 1552h-248q10 98 42.5 169.5t77 108.5t97.5 51t106.5 3.5t102.5 -39.5q27 -16 42.5 -22.5t31.5 -6t26 17t17 50.5h250q-8 -83 -32.5 -147t-59 -102.5t-76.5 -60t-87 -24.5t-89 8t-84 35q-98 74 -117 -41zM737 -31q-107 -2 -205 27t-174 81.5t-136.5 125.5t-93 159
t-44 182t11.5 195q53 308 289 516q238 209 571 209q121 0 220 -30h124q64 0 89 27.5t38 99.5l7 30h274l-6 -30q-24 -133 -77 -212t-165 -112q0 -2 2 -2q183 -230 131 -537q-53 -312 -286 -520q-232 -209 -570 -209zM1229 717q30 168 -60 278q-89 111 -256 111
q-166 0 -295 -111q-127 -109 -157 -278q-30 -173 55 -281q89 -108 254 -108t297 108q135 114 162 281z" />
    <glyph glyph-name="uni1EE1" unicode="&#x1ee1;" horiz-adv-x="1193" 
d="M569 1143h-239q10 98 40.5 169.5t73.5 108.5t94 51t102.5 3.5t98.5 -39.5q26 -16 41 -22.5t31 -6t25.5 17t15.5 50.5h242q-10 -99 -41 -171t-74.5 -108t-95.5 -49t-103 -2.5t-98 39.5q-96 75 -113 -41zM528 -29q-74 0 -141 17t-118.5 48t-94.5 74t-70 94t-44 108
t-16.5 115.5t11.5 117.5q41 212 205 360q168 148 414 148q93 0 178 -29h31q64 0 89 27.5t38 99.5l6 31h274l-6 -31q-22 -123 -69 -199.5t-142 -113.5q101 -158 66 -355q-38 -212 -205 -360q-172 -152 -406 -152zM555 299q90 0 157.5 59.5t84.5 153.5t-29 153.5t-137 59.5
q-88 0 -155.5 -59.5t-84.5 -153.5q-17 -93 29.5 -153t134.5 -60z" />
    <glyph glyph-name="uni1EE2" unicode="&#x1ee2;" horiz-adv-x="1617" 
d="M612 -481q-75 0 -120 54t-33 128t74 128t139 54q75 0 119.5 -53.5t31.5 -128.5q-11 -75 -72 -128.5t-139 -53.5zM737 -31q-107 -2 -205 27t-174 81.5t-136.5 125.5t-93 159t-44 182t11.5 195q53 308 289 516q238 209 571 209q121 0 220 -30h124q64 0 89 27.5t38 99.5
l7 30h274l-6 -30q-24 -133 -77 -212t-165 -112q0 -2 2 -2q183 -230 131 -537q-53 -312 -286 -520q-232 -209 -570 -209zM1229 717q30 168 -60 278q-89 111 -256 111q-166 0 -295 -111q-127 -109 -157 -278q-30 -173 55 -281q89 -108 254 -108t297 108q135 114 162 281z" />
    <glyph glyph-name="uni1EE3" unicode="&#x1ee3;" horiz-adv-x="1193" 
d="M401 -481q-75 0 -120 54t-33 128t74 128t139 54q75 0 119.5 -53.5t31.5 -128.5q-11 -75 -72 -128.5t-139 -53.5zM528 -29q-74 0 -141 17t-118.5 48t-94.5 74t-70 94t-44 108t-16.5 115.5t11.5 117.5q41 212 205 360q168 148 414 148q93 0 178 -29h31q64 0 89 27.5
t38 99.5l6 31h274l-6 -31q-22 -123 -69 -199.5t-142 -113.5q101 -158 66 -355q-38 -212 -205 -360q-172 -152 -406 -152zM555 299q90 0 157.5 59.5t84.5 153.5t-29 153.5t-137 59.5q-88 0 -155.5 -59.5t-84.5 -153.5q-17 -93 29.5 -153t134.5 -60z" />
    <glyph glyph-name="uni1EE4" unicode="&#x1ee4;" horiz-adv-x="1320" 
d="M467 -481q-75 0 -120.5 54t-33.5 128t74 128t139 54q75 0 120 -53.5t32 -128.5q-11 -75 -72 -128.5t-139 -53.5zM594 -31q-261 0 -406 142q-142 143 -102 360l170 963h367l-164 -928q-34 -180 170 -180q199 0 233 180l162 928h367l-170 -963q-43 -241 -213 -373
q-170 -129 -414 -129z" />
    <glyph glyph-name="uni1EE5" unicode="&#x1ee5;" horiz-adv-x="1183" 
d="M410 -481q-75 0 -120.5 54t-33.5 128t74 128t139 54q75 0 120 -53.5t32 -128.5q-11 -75 -72 -128.5t-139 -53.5zM739 477l97 547h340l-181 -1024h-340l19 104q-118 -133 -299 -133q-170 0 -257 118t-52 323l108 612h340l-100 -569q-12 -80 22 -121t105 -41q79 0 130 47.5
t68 138.5v-2z" />
    <glyph glyph-name="uni1EE6" unicode="&#x1ee6;" horiz-adv-x="1320" 
d="M975 1526h-256q9 48 23.5 81t35.5 53t38.5 30t45.5 22l35 21q1 1 5.5 6.5t4.5 7.5q0 14 -20 14q-53 0 -92 -57l-191 72q63 84 138.5 121.5t181.5 37.5q120 0 179 -46t46 -130q-10 -60 -44.5 -100.5t-80.5 -59.5q-17 -8 -24.5 -13t-15.5 -20.5t-9 -39.5zM594 -31
q-261 0 -406 142q-142 143 -102 360l170 963h367l-164 -928q-34 -180 170 -180q199 0 233 180l162 928h367l-170 -963q-43 -241 -213 -373q-170 -129 -414 -129z" />
    <glyph glyph-name="uni1EE7" unicode="&#x1ee7;" horiz-adv-x="1183" 
d="M827 1116h-256q9 48 23.5 81t36 53.5t39 30.5t45.5 22l35 20q1 1 5.5 6.5t4.5 7.5q0 5 -5.5 10t-15.5 5q-52 0 -92 -58l-190 72q63 85 138 122.5t181 37.5q120 0 179 -46t46 -130q-10 -60 -44 -100.5t-80 -59.5q-16 -8 -24.5 -13.5t-16.5 -21t-9 -39.5zM739 477l97 547
h340l-181 -1024h-340l19 104q-118 -133 -299 -133q-170 0 -257 118t-52 323l108 612h340l-100 -569q-12 -80 22 -121t105 -41q79 0 130 47.5t68 138.5v-2z" />
    <glyph glyph-name="uni1EE8" unicode="&#x1ee8;" horiz-adv-x="1320" 
d="M680 1546l207 297h405l-278 -297h-334zM594 -31q-261 0 -406 142q-142 143 -102 360l170 963h367l-164 -928q-34 -180 170 -180q199 0 233 180l162 928h193q64 0 88.5 27.5t37.5 99.5l7 30h274l-6 -30q-13 -68 -30.5 -117.5t-47 -93.5t-76 -73.5t-110.5 -45.5l-133 -760
q-43 -241 -213 -373q-170 -129 -414 -129z" />
    <glyph glyph-name="uni1EE9" unicode="&#x1ee9;" horiz-adv-x="1228" 
d="M725 1434h405l-278 -297h-334zM739 477l97 547h180q64 0 89 27.5t38 99.5l6 31h274l-6 -31q-13 -70 -31 -120t-49 -95t-80 -74.5t-118 -44.5l-144 -817h-340l19 104q-118 -133 -299 -133q-170 0 -256.5 117t-52.5 322l108 614h340l-104 -569q-12 -79 24 -120.5t107 -41.5
q79 0 130 47.5t68 138.5v-2z" />
    <glyph glyph-name="uni1EEA" unicode="&#x1eea;" horiz-adv-x="1320" 
d="M1028 1546h-315l-195 297h385zM594 -31q-261 0 -406 142q-142 143 -102 360l170 963h367l-164 -928q-34 -180 170 -180q199 0 233 180l162 928h193q64 0 88.5 27.5t37.5 99.5l7 30h274l-6 -30q-13 -68 -30.5 -117.5t-47 -93.5t-76 -73.5t-110.5 -45.5l-133 -760
q-43 -241 -213 -373q-170 -129 -414 -129z" />
    <glyph glyph-name="uni1EEB" unicode="&#x1eeb;" horiz-adv-x="1228" 
d="M745 1434l125 -297h-315l-195 297h385zM739 477l97 547h180q64 0 89 27.5t38 99.5l6 31h274l-6 -31q-13 -70 -31 -120t-49 -95t-80 -74.5t-118 -44.5l-144 -817h-340l19 104q-118 -133 -299 -133q-170 0 -256.5 117t-52.5 322l108 614h340l-104 -569q-12 -79 24 -120.5
t107 -41.5q79 0 130 47.5t68 138.5v-2z" />
    <glyph glyph-name="uni1EEC" unicode="&#x1eec;" horiz-adv-x="1320" 
d="M975 1526h-256q9 48 23.5 81t35.5 53t38.5 30t45.5 22l35 21q1 1 5.5 6.5t4.5 7.5q0 14 -20 14q-53 0 -92 -57l-191 72q63 84 138.5 121.5t181.5 37.5q120 0 179 -46t46 -130q-10 -60 -44.5 -100.5t-80.5 -59.5q-17 -8 -24.5 -13t-15.5 -20.5t-9 -39.5zM594 -31
q-261 0 -406 142q-142 143 -102 360l170 963h367l-164 -928q-34 -180 170 -180q199 0 233 180l162 928h193q64 0 88.5 27.5t37.5 99.5l7 30h274l-6 -30q-13 -68 -30.5 -117.5t-47 -93.5t-76 -73.5t-110.5 -45.5l-133 -760q-43 -241 -213 -373q-170 -129 -414 -129z" />
    <glyph glyph-name="uni1EED" unicode="&#x1eed;" horiz-adv-x="1228" 
d="M827 1116h-256q9 48 23.5 81t36 53.5t39 30.5t45.5 22l35 20q1 1 5.5 6.5t4.5 7.5q0 5 -5.5 10t-15.5 5q-52 0 -92 -58l-190 72q63 85 138 122.5t181 37.5q120 0 179 -46t46 -130q-10 -60 -44 -100.5t-80 -59.5q-16 -8 -24.5 -13.5t-16.5 -21t-9 -39.5zM739 477l97 547
h180q64 0 89 27.5t38 99.5l6 31h274l-6 -31q-13 -70 -31 -120t-49 -95t-80 -74.5t-118 -44.5l-144 -817h-340l19 104q-118 -133 -299 -133q-170 0 -256.5 117t-52.5 322l108 614h340l-104 -569q-12 -79 24 -120.5t107 -41.5q79 0 130 47.5t68 138.5v-2z" />
    <glyph glyph-name="uni1EEE" unicode="&#x1eee;" horiz-adv-x="1320" 
d="M594 -31q-261 0 -406 142q-142 143 -102 360l170 963h367l-164 -928q-34 -180 170 -180q199 0 233 180l162 928h193q64 0 88.5 27.5t37.5 99.5l7 30h274l-6 -30q-13 -68 -30.5 -117.5t-47 -93.5t-76 -73.5t-110.5 -45.5l-133 -760q-43 -241 -213 -373
q-170 -129 -414 -129zM723 1532h-248q10 98 42.5 169.5t77 108.5t97.5 51t106.5 3.5t102.5 -39.5q27 -16 42.5 -22.5t31.5 -6t26 17t17 50.5h250q-8 -83 -32.5 -147t-59 -102.5t-76.5 -60t-87 -24.5t-89 8t-84 35q-98 74 -117 -41z" />
    <glyph glyph-name="uni1EEF" unicode="&#x1eef;" horiz-adv-x="1228" 
d="M739 477l97 547h180q64 0 89 27.5t38 99.5l6 31h274l-6 -31q-13 -70 -31 -120t-49 -95t-80 -74.5t-118 -44.5l-144 -817h-340l19 104q-118 -133 -299 -133q-170 0 -256.5 117t-52.5 322l108 614h340l-104 -569q-12 -79 24 -120.5t107 -41.5q79 0 130 47.5t68 138.5v-2z
M565 1122h-248q10 98 42.5 169.5t77 108.5t97.5 51t106.5 3.5t102.5 -39.5q27 -16 42.5 -22.5t31.5 -6t26 17t17 50.5h250q-8 -83 -32.5 -147t-59 -102.5t-76.5 -60t-87 -24.5t-89 8t-84 35q-98 74 -117 -41z" />
    <glyph glyph-name="uni1EF0" unicode="&#x1ef0;" horiz-adv-x="1320" 
d="M467 -481q-75 0 -120.5 54t-33.5 128t74 128t139 54q75 0 120 -53.5t32 -128.5q-11 -75 -72 -128.5t-139 -53.5zM594 -31q-261 0 -406 142q-142 143 -102 360l170 963h367l-164 -928q-34 -180 170 -180q199 0 233 180l162 928h193q64 0 88.5 27.5t37.5 99.5l7 30h274
l-6 -30q-13 -68 -30.5 -117.5t-47 -93.5t-76 -73.5t-110.5 -45.5l-133 -760q-43 -241 -213 -373q-170 -129 -414 -129z" />
    <glyph glyph-name="uni1EF1" unicode="&#x1ef1;" horiz-adv-x="1228" 
d="M410 -481q-75 0 -120.5 54t-33.5 128t74 128t139 54q75 0 120 -53.5t32 -128.5q-11 -75 -72 -128.5t-139 -53.5zM739 477l97 547h180q64 0 89 27.5t38 99.5l6 31h274l-6 -31q-13 -70 -31 -120t-49 -95t-80 -74.5t-118 -44.5l-144 -817h-340l19 104q-118 -133 -299 -133
q-170 0 -256.5 117t-52.5 322l108 614h340l-104 -569q-12 -79 24 -120.5t107 -41.5q79 0 130 47.5t68 138.5v-2z" />
    <glyph glyph-name="Ygrave" unicode="&#x1ef2;" horiz-adv-x="1292" 
d="M887 1843l125 -297h-316l-194 297h385zM1020 1434h434l-604 -809l-111 -625h-366l110 625l-321 809h389l154 -461z" />
    <glyph glyph-name="ygrave" unicode="&#x1ef3;" horiz-adv-x="1124" 
d="M709 1434l125 -297h-316l-194 297h385zM557 432l266 592h391l-520 -993q-131 -253 -300 -356.5t-400 -84.5l57 320q109 0 164.5 27.5t103.5 103.5l-229 983h361z" />
    <glyph glyph-name="uni1EF4" unicode="&#x1ef4;" horiz-adv-x="1292" 
d="M477 -481q-75 0 -120 54t-33 128t74 128t139 54q75 0 119.5 -53.5t31.5 -128.5q-11 -75 -72 -128.5t-139 -53.5zM1020 1434h434l-604 -809l-111 -625h-366l110 625l-321 809h389l154 -461z" />
    <glyph glyph-name="uni1EF5" unicode="&#x1ef5;" horiz-adv-x="1124" 
d="M774 -481q-75 0 -120 54t-33 128t74 128t139 54q75 0 119.5 -53.5t31.5 -128.5q-11 -75 -72 -128.5t-139 -53.5zM557 432l266 592h391l-520 -993q-131 -253 -300 -356.5t-400 -84.5l57 320q109 0 164.5 27.5t103.5 103.5l-229 983h361z" />
    <glyph glyph-name="uni1EF6" unicode="&#x1ef6;" horiz-adv-x="1292" 
d="M930 1526h-256q9 48 23.5 81t35.5 53t38.5 30t45.5 22l35 21q1 1 5.5 6.5t4.5 7.5q0 14 -20 14q-53 0 -92 -57l-191 72q63 84 138.5 121.5t181.5 37.5q120 0 179 -46t46 -130q-10 -60 -44.5 -100.5t-80.5 -59.5q-17 -8 -24.5 -13t-15.5 -20.5t-9 -39.5zM1020 1434h434
l-604 -809l-111 -625h-366l110 625l-321 809h389l154 -461z" />
    <glyph glyph-name="uni1EF7" unicode="&#x1ef7;" horiz-adv-x="1124" 
d="M782 1116h-256q9 48 23.5 81t36 53.5t39 30.5t45.5 22l35 20q1 1 5.5 6.5t4.5 7.5q0 5 -5.5 10t-15.5 5q-52 0 -92 -58l-190 72q63 85 138 122.5t181 37.5q120 0 179 -46t46 -130q-10 -60 -44.5 -100.5t-80.5 -59.5q-16 -8 -24 -13.5t-16 -21t-9 -39.5zM557 432l266 592
h391l-520 -993q-131 -253 -300 -356.5t-400 -84.5l57 320q109 0 164.5 27.5t103.5 103.5l-229 983h361z" />
    <glyph glyph-name="uni1EF8" unicode="&#x1ef8;" horiz-adv-x="1292" 
d="M1020 1434h434l-604 -809l-111 -625h-366l110 625l-321 809h389l154 -461zM707 1532h-248q10 98 42.5 169.5t77 108.5t97.5 51t106.5 3.5t102.5 -39.5q21 -13 34 -19.5t27.5 -9t23.5 3.5t17.5 21.5t13.5 42.5h250q-8 -83 -32.5 -147t-59 -102.5t-76.5 -60t-87 -24.5
t-89 8t-84 35q-97 73 -116 -41z" />
    <glyph glyph-name="uni1EF9" unicode="&#x1ef9;" horiz-adv-x="1124" 
d="M557 432l266 592h391l-520 -993q-131 -253 -300 -356.5t-400 -84.5l57 320q109 0 164.5 27.5t103.5 103.5l-229 983h361zM528 1122h-247q10 98 42.5 169.5t77 108.5t97.5 51t106.5 3.5t102.5 -39.5q21 -13 34 -19.5t27.5 -9t23.5 3.5t17.5 21.5t13.5 42.5h250
q-8 -83 -32.5 -147t-59 -102.5t-76.5 -60t-87 -24.5t-89 8t-84 35q-98 74 -117 -41z" />
    <glyph glyph-name="endash" unicode="&#x2013;" horiz-adv-x="1253" 
d="M1130 455h-1028l58 323h1028z" />
    <glyph glyph-name="emdash" unicode="&#x2014;" horiz-adv-x="1458" 
d="M1335 455h-1233l58 323h1233z" />
    <glyph glyph-name="quoteleft" unicode="&#x2018;" horiz-adv-x="618" 
d="M508 791h-377l287 643h274z" />
    <glyph glyph-name="quoteright" unicode="&#x2019;" horiz-adv-x="618" 
d="M322 1434h376l-286 -643h-275z" />
    <glyph glyph-name="quotesinglbase" unicode="&#x201a;" horiz-adv-x="618" 
d="M131 356h377l-287 -643h-274z" />
    <glyph glyph-name="quotedblleft" unicode="&#x201c;" horiz-adv-x="1075" 
d="M508 791h-377l287 643h274zM965 791h-377l286 643h275z" />
    <glyph glyph-name="quotedblright" unicode="&#x201d;" horiz-adv-x="1075" 
d="M322 1434h376l-286 -643h-275zM778 1434h377l-287 -643h-274z" />
    <glyph glyph-name="quotedblbase" unicode="&#x201e;" horiz-adv-x="1075" 
d="M131 356h377l-287 -643h-274zM588 356h377l-287 -643h-275z" />
    <glyph glyph-name="dagger" unicode="&#x2020;" horiz-adv-x="964" 
d="M772 1192h240l-58 -324h-237l-154 -868h-342l154 868h-240l58 324h237l43 242h342z" />
    <glyph glyph-name="daggerdbl" unicode="&#x2021;" horiz-adv-x="964" 
d="M1012 1192l-58 -324h-237l-55 -303h239l-57 -323h-238l-43 -242h-342l43 242h-239l57 323h237l56 303h-240l58 324h237l43 242h342l-43 -242h240z" />
    <glyph glyph-name="bullet" unicode="&#x2022;" horiz-adv-x="817" 
d="M387 381q-137 0 -219 102q-81 103 -57 246q24 138 137 229q115 95 256 95q137 0 217 -103q81 -100 57 -237q-24 -144 -135 -238q-110 -94 -256 -94z" />
    <glyph glyph-name="ellipsis" unicode="&#x2026;" horiz-adv-x="1613" 
d="M201 -29q-88 0 -139.5 63.5t-34.5 153.5q17 89 87.5 149t161.5 60q88 0 140 -64.5t35 -152.5q-17 -92 -86 -150.5t-164 -58.5zM711 -29q-88 0 -139.5 63.5t-34.5 153.5q17 89 87.5 149t161.5 60q88 0 140 -64.5t35 -152.5q-17 -92 -86 -150.5t-164 -58.5zM1223 -29
q-88 0 -139.5 63.5t-34.5 153.5q17 89 87.5 149t161.5 60q88 0 140 -64.5t35 -152.5q-17 -92 -86 -150.5t-164 -58.5z" />
    <glyph glyph-name="perthousand" unicode="&#x2030;" horiz-adv-x="2498" 
d="M496 729q-164 0 -252 111q-89 114 -68 260q24 153 141 258q118 106 291 106q167 0 254 -118q89 -118 62 -271q-30 -145 -148 -248q-113 -98 -280 -98zM365 141l-129 86l1118 1024l129 -84zM530 989q35 0 65 19.5t44.5 48t17.5 60.5t-18 57q-18 24 -49.5 29t-61 -6.5
t-53 -38.5t-26.5 -60q-10 -47 13 -78t68 -31zM1155 -29q-166 0 -254 113q-89 115 -65 264t141 254q120 105 289 105q164 0 252 -117q90 -116 63 -268q-27 -147 -145 -250q-113 -101 -281 -101zM1966 -29q-166 0 -254 113q-89 115 -65 264q28 153 143 254q117 105 287 105
q165 0 254 -117q91 -117 61 -268q-27 -147 -145 -250q-113 -101 -281 -101zM1188 231q46 0 81.5 31.5t43.5 75.5q8 48 -15.5 78t-70.5 30q-45 0 -79.5 -30.5t-41.5 -77.5q-10 -44 14 -75.5t68 -31.5zM2124 338q8 47 -16 77.5t-68 30.5t-78 -30.5t-45 -77.5q-8 -45 16 -76
t68 -31t79.5 32t43.5 75z" />
    <glyph glyph-name="guilsinglleft" unicode="&#x2039;" horiz-adv-x="745" 
d="M428 1032h297l-301 -409l156 -390h-285l-162 400z" />
    <glyph glyph-name="guilsinglright" unicode="&#x203a;" horiz-adv-x="747" 
d="M209 1032h285l161 -399l-295 -400h-297l302 410z" />
    <glyph glyph-name="fraction" unicode="&#x2044;" horiz-adv-x="368" 
d="M877 1434l-1070 -1434h-243l1069 1434h244z" />
    <glyph glyph-name="Euro" unicode="&#x20ac;" horiz-adv-x="1294" 
d="M719 326q124 0 223 147l283 -178q-185 -326 -553 -326q-225 0 -358 146.5t-144 396.5h-143l30 172h123q2 27 8 57l2 15h-120l30 172h136q82 255 255.5 395.5t411.5 140.5q165 0 282 -81t173 -230l-322 -170q-55 125 -180 125q-160 0 -242 -180h340l-30 -172h-365
q-5 -16 -8 -39l-6 -33h366l-30 -172h-342q18 -186 180 -186z" />
    <glyph glyph-name="uni20BD" unicode="&#x20bd;" horiz-adv-x="1249" 
d="M317 1434h557q203 0 330 -148q130 -145 92 -354q-38 -223 -192.5 -341t-398.5 -118h-191l-14 -82h420l-35 -203h-422l-33 -188h-367l33 188h-133l35 203h135l14 82h-133l58 326h133zM932 942q12 65 -21.5 104t-97.5 39h-192l-50 -286h191q64 0 112 39t58 104z" />
    <glyph glyph-name="uni2116" unicode="&#x2116;" horiz-adv-x="2160" 
d="M1794 750q-156 0 -244 108q-88 110 -61 258q24 151 141 250q116 98 277 98q155 0 243 -110q91 -111 64 -258q-27 -150 -143 -248q-113 -98 -277 -98zM389 0h-366l251 1434h285l373 -750l133 750h365l-252 -1434h-283l-373 750zM1942 1106q17 60 -32 83q-44 21 -95 -2
q-51 -25 -56 -81q-6 -42 14.5 -67t61.5 -25t71 25.5t36 66.5zM2054 340h-672l58 326h671z" />
    <glyph glyph-name="trademark" unicode="&#x2122;" horiz-adv-x="985" 
d="M584 1434l-27 -142h-102l-47 -268h-150l47 268h-106l24 142h361zM926 1434h159l-71 -410h-144l33 193l-104 -125h-15l-59 122l-33 -190h-143l72 410h143l55 -138z" />
    <glyph glyph-name="estimated" unicode="&#x212e;" horiz-adv-x="1597" 
d="M965 1454q329 0 505 -215q178 -211 123 -522q-6 -31 -37 -31h-1146q-31 0 -37 -31l-68 -393q-7 -23 6 -39q141 -182 447 -182q295 0 512 199q18 18 39 18h71q21 0 25.5 -13t-12.5 -26q-266 -239 -648 -239q-353 0 -538 221q-182 221 -127 536q56 311 299 514
q247 203 586 203zM1296 778l72 398q3 20 -8 38q-138 179 -406 179q-262 0 -469 -183q-17 -17 -20 -39l-70 -393q-6 -30 25 -30h840q30 0 36 30z" />
    <glyph glyph-name="oneeighth" unicode="&#x215b;" horiz-adv-x="1646" 
d="M129 0l1069 1434h244l-1069 -1434h-244zM240 614l94 525l-166 -41l-23 241l277 95h233l-145 -820h-270zM1604 590q-18 -110 -119 -168q98 -76 80 -205q-19 -117 -113.5 -181.5t-249.5 -64.5q-148 0 -227.5 72.5t-59.5 189.5q21 135 156 201q-79 64 -61 174
q20 114 110 177t223 63q125 0 203 -72q79 -73 58 -186zM1233 573q-4 -26 11.5 -40.5t47.5 -14.5q69 0 78 55q12 58 -57 58q-68 0 -80 -58zM1325 260q9 68 -65 68q-82 0 -91 -68q-15 -70 66 -70q75 0 90 70z" />
    <glyph glyph-name="threeeighths" unicode="&#x215c;" horiz-adv-x="1767" 
d="M729 854q-47 -268 -364 -268q-251 0 -312 192l228 121q27 -82 110 -82q68 0 74 53q4 26 -9.5 39t-45.5 13h-60l-67 139l135 135h-252l43 238h586l-33 -179l-160 -161q72 -31 106 -95t21 -145zM250 0l1069 1434h244l-1069 -1434h-244zM1724 590q-18 -111 -118 -168
q98 -76 80 -205q-19 -117 -113.5 -181.5t-249.5 -64.5q-148 0 -227.5 72.5t-59.5 189.5q21 135 156 201q-80 65 -62 174q20 114 110.5 177t223.5 63q125 0 203 -72t57 -186zM1354 573q-4 -26 11.5 -40.5t47.5 -14.5q69 0 78 55q12 58 -57 58q-68 0 -80 -58zM1446 260
q9 68 -66 68q-81 0 -90 -68q-15 -70 66 -70q75 0 90 70z" />
    <glyph glyph-name="fiveeighths" unicode="&#x215d;" horiz-adv-x="1761" 
d="M705 844q-23 -127 -114 -192.5t-229 -65.5q-235 0 -305 190l232 111q24 -78 98 -78q68 0 74 53q9 58 -51 58h-279l123 514h516l-41 -238h-291l-16 -68h37q128 0 199 -76t47 -208zM244 0l1069 1434h243l-1069 -1434h-243zM1718 590q-18 -110 -119 -168q98 -76 80 -205
q-19 -117 -113 -181.5t-249 -64.5q-148 0 -227.5 72.5t-59.5 189.5q21 135 156 201q-80 65 -62 174q20 114 110.5 177t223.5 63q125 0 203 -72t57 -186zM1348 573q-4 -26 11.5 -40.5t47.5 -14.5q69 0 78 55q12 58 -58 58q-67 0 -79 -58zM1440 260q9 68 -66 68q-81 0 -90 -68
q-15 -70 66 -70q75 0 90 70z" />
    <glyph glyph-name="seveneighths" unicode="&#x215e;" horiz-adv-x="1699" 
d="M719 1231l-334 -617h-283l316 582h-297l41 238h592zM182 0l1069 1434h244l-1069 -1434h-244zM1657 590q-18 -110 -119 -168q98 -76 80 -205q-19 -117 -113.5 -181.5t-249.5 -64.5q-148 0 -227 72.5t-59 189.5q21 136 155 201q-79 64 -61 174q20 114 110.5 177t223.5 63
q124 0 202 -72q79 -73 58 -186zM1286 573q-4 -26 12 -40.5t48 -14.5q68 0 77 55q12 58 -57 58q-68 0 -80 -58zM1378 260q9 68 -65 68q-81 0 -90 -68q-15 -70 65 -70q75 0 90 70z" />
    <glyph glyph-name="arrowleft" unicode="&#x2190;" horiz-adv-x="1607" 
d="M768 879h831l-55 -324h-874l372 -453h-428l-505 615l722 614h469z" />
    <glyph glyph-name="arrowup" unicode="&#x2191;" horiz-adv-x="1374" 
d="M848 1434l506 -615l-74 -424l-365 443l-147 -838h-342l141 799l-522 -443l82 463z" />
    <glyph glyph-name="arrowright" unicode="&#x2192;" horiz-adv-x="1607" 
d="M639 1331h428l506 -614l-723 -615h-469l532 453h-833l57 324h875z" />
    <glyph glyph-name="arrowdown" unicode="&#x2193;" horiz-adv-x="1374" 
d="M1020 1434l-139 -799l520 444l-82 -465l-723 -614l-506 614l76 424l364 -442l148 838h342z" />
    <glyph glyph-name="arrowboth" unicode="&#x2194;" horiz-adv-x="2328" 
d="M1812 1300l482 -583l-686 -584h-461l491 422h-972l346 -422h-422l-481 584l686 583h462l-495 -421h973l-346 421h423z" />
    <glyph glyph-name="arrowupdn" unicode="&#x2195;" horiz-adv-x="1310" 
d="M1362 1217l-74 -422l-340 413l-166 -946l486 412l-82 -457l-684 -584l-479 584l73 422l340 -414l166 946l-485 -411l82 457l684 583z" />
    <glyph glyph-name="uni2196" unicode="&#x2196;" horiz-adv-x="1335" 
d="M1077 1284l260 -313h-653l541 -656l-258 -217l-539 654l-115 -650l-258 314l154 868h868z" />
    <glyph glyph-name="uni2197" unicode="&#x2197;" horiz-adv-x="1335" 
d="M162 971l368 313h869l-152 -868l-370 -314l106 607l-731 -619l-215 256l735 625h-610z" />
    <glyph glyph-name="uni2198" unicode="&#x2198;" horiz-adv-x="1335" 
d="M977 668l113 647l260 -314l-154 -868h-868l-258 313h651l-541 656l258 217z" />
    <glyph glyph-name="uni2199" unicode="&#x2199;" horiz-adv-x="1335" 
d="M1153 1325l213 -254l-735 -625h612l-369 -313h-868l154 868l366 314l-106 -613z" />
    <glyph glyph-name="partialdiff" unicode="&#x2202;" horiz-adv-x="1196" 
d="M659 1464q245 0 396 -219q150 -218 92 -549q-62 -358 -245 -542.5t-456 -184.5q-214 0 -321 137q-107 136 -76 328q35 200 176 326q143 131 353 131q136 0 237 -55q6 303 -256 309q-114 3 -248 -64l56 310q128 73 292 73zM502 285q173 0 262 262q-70 49 -174 49
q-75 0 -132.5 -47t-70.5 -125q-10 -62 23.5 -100.5t91.5 -38.5z" />
    <glyph glyph-name="emptyset" unicode="&#x2205;" horiz-adv-x="1646" 
d="M1432 1475h272l-234 -250q180 -223 127 -529q-56 -309 -301 -514q-245 -207 -551 -207q-196 0 -350 101l-108 -117h-273l234 250q-182 226 -127 528q53 308 299 514q251 207 555 207q195 0 348 -100zM352 717q-34 -184 60 -332l745 797q-89 47 -207 47q-210 0 -385 -150
q-172 -147 -213 -362zM1366 717q34 185 -59 332l-746 -797q89 -47 207 -47q213 0 387 149q173 148 211 363z" />
    <glyph glyph-name="product" unicode="&#x220f;" horiz-adv-x="1292" 
d="M293 -410h-342l323 1844h1065l-323 -1844h-340l266 1518h-383z" />
    <glyph glyph-name="summation" unicode="&#x2211;" horiz-adv-x="1148" 
d="M913 -410h-1024l56 312l518 657l-262 617l43 258h962l-57 -334h-547l242 -568l-477 -608h606z" />
    <glyph glyph-name="minus" unicode="&#x2212;" horiz-adv-x="1146" 
d="M1071 555h-981l60 324h978z" />
    <glyph glyph-name="radical" unicode="&#x221a;" horiz-adv-x="1419" 
d="M756 0h-328l-166 367h-225l57 323h398l120 -299l637 1247h369z" />
    <glyph glyph-name="infinity" unicode="&#x221e;" horiz-adv-x="1677" 
d="M1288 1110q174 0 273 -117q98 -112 67 -291q-31 -172 -154 -275t-296 -103q-181 0 -334 176q-197 -176 -379 -176q-174 0 -275 116t-67 291q31 173 154.5 276t297.5 103q181 0 334 -176q197 176 379 176zM539 635q73 0 155 82q-58 82 -127 82q-37 0 -65.5 -23t-34.5 -59
q-7 -36 14 -59t58 -23zM1284 717q6 37 -13.5 59.5t-56.5 22.5q-73 0 -155 -82q55 -82 127 -82q36 0 63.5 23t34.5 59z" />
    <glyph glyph-name="integral" unicode="&#x222b;" horiz-adv-x="944" 
d="M-164 -418l60 336q49 -32 122 -4q74 27 101 111l370 1067q40 117 103.5 198t142.5 120t174 47.5t199 -19.5l-61 -336q-49 32 -123 4t-101 -111l-368 -1067q-57 -168 -156 -254q-64 -59 -141.5 -85.5t-152.5 -26t-169 19.5z" />
    <glyph glyph-name="approxequal" unicode="&#x2248;" horiz-adv-x="1163" 
d="M639 760q-84 40 -154 49q-62 10 -99.5 0t-106.5 -45l-148 78q48 145 130.5 228.5t182.5 94.5t213 -41q118 -63 188 -56t107 93l232 -119q-78 -212 -232 -290q-151 -74 -313 8zM285 268l-236 119q56 143 143.5 226.5t190 96t215.5 -39.5q86 -40 154 -49q63 -7 103.5 3
t100.5 44l150 -80q-49 -145 -131.5 -228.5t-182.5 -95t-214 40.5q-118 63 -187 56t-106 -93z" />
    <glyph glyph-name="notequal" unicode="&#x2260;" horiz-adv-x="1046" 
d="M1077 1104l-59 -326h-332l-76 -123h387l-57 -325h-530l-142 -228h-176l139 228h-190l57 325h336l76 123h-391l59 326h533l139 227h178l-141 -227h190z" />
    <glyph glyph-name="lessequal" unicode="&#x2264;" horiz-adv-x="1067" 
d="M172 1077l979 324l-66 -367l-598 -143l549 -141l-61 -340l-864 323zM911 43h-921l57 326h922z" />
    <glyph glyph-name="greaterequal" unicode="&#x2265;" horiz-adv-x="1067" 
d="M168 1059l61 342l865 -324l-62 -344l-979 -323l66 366l598 142zM911 43h-921l57 326h922z" />
    <glyph glyph-name="lozenge" unicode="&#x25ca;" horiz-adv-x="1204" 
d="M662 0h-300l-253 717l505 717h299l256 -717zM479 690l94 -266l226 319l-94 267z" />
    <glyph glyph-name="NULL" horiz-adv-x="0" 
 />
    <glyph glyph-name="CR" horiz-adv-x="681" 
 />
    <glyph glyph-name="i.loclTRK" horiz-adv-x="536" 
d="M373 1112q-75 0 -120.5 54t-31.5 128q14 75 77 130t138 55t120.5 -55t33.5 -130q-17 -74 -80.5 -128t-136.5 -54zM348 0h-340l180 1024h340z" />
    <glyph glyph-name="f_f_j" horiz-adv-x="1751" 
d="M1169 1024h574l-180 -1024q-42 -250 -176.5 -352t-393.5 -88l58 315q149 -9 170 125l122 698h-231l-123 -698h-342l123 698h-238l-122 -698h-340l123 698h-127l55 326h129q83 470 594 440l-56 -315q-171 12 -198 -125h237l4 20q38 226 183.5 333.5t410.5 107.5
q131 0 261 -31l-52 -297q-117 19 -223 19q-216 0 -237 -132z" />
    <glyph glyph-name="f_j" horiz-adv-x="1171" 
d="M590 1024h573l-180 -1024q-42 -249 -176.5 -351.5t-390.5 -88.5l55 315q151 -9 172 125l123 698h-234l-122 -698h-340l123 698h-127l55 326h129q38 226 183.5 333t410.5 107q134 0 260 -30l-51 -297q-111 18 -224 18q-215 0 -239 -131z" />
    <glyph glyph-name="uni0414.loclBGR" horiz-adv-x="1515" 
d="M1139 1434l159 -1080h168l-112 -628h-365l49 274h-741l-49 -274h-367l113 628h168l538 1080h439zM858 1024l-309 -670h381z" />
    <glyph glyph-name="uni041B.loclBGR" horiz-adv-x="1310" 
d="M309 0h-409l698 1434h438l195 -1434h-385l-90 1008z" />
    <glyph glyph-name="uni0424.loclBGR" horiz-adv-x="1779" 
d="M1262 1638l-35 -196q289 -53 432 -254q148 -204 96 -492q-52 -296 -262 -485q-201 -184 -524 -225l-33 -191h-346l35 197q-286 53 -432 254q-149 205 -97 491q52 296 260 486q201 184 527 225l32 190h347zM1391 717q55 316 -224 387l-137 -774q302 64 361 387zM461 717
q-56 -321 223 -385l137 770q-307 -67 -360 -385z" />
    <glyph glyph-name="uni0414.ss01" horiz-adv-x="1458" 
d="M432 1434h998l-191 -1080h156l-64 -354h-1399l62 354h149q125 152 181 455zM537 354h337l132 740h-267l-51 -289q-53 -293 -151 -451z" />
    <glyph glyph-name="uni0426.ss01" horiz-adv-x="1437" 
d="M1399 1434l-191 -1080h164l-61 -354h-1288l251 1434h377l-190 -1080h373l190 1080h375z" />
    <glyph glyph-name="uni0429.ss01" horiz-adv-x="2031" 
d="M1993 1434l-191 -1080h164l-61 -354h-1882l251 1434h367l-190 -1080h311l188 1080h367l-191 -1080h312l188 1080h367z" />
    <glyph glyph-name="uni0414.loclBGR.ss01" horiz-adv-x="1515" 
d="M1139 1434l159 -1080h168l-63 -354h-1473l64 354h168l538 1080h439zM858 1024l-309 -670h381z" />
    <glyph glyph-name="uni0432.loclBGR" horiz-adv-x="1150" 
d="M1100 1069q-27 -141 -164 -254q195 -122 149 -389q-38 -221 -183.5 -338t-383.5 -117q-221 0 -344 144q-122 146 -82 366l86 490q43 240 183 365.5t362 125.5q184 0 293 -112q111 -111 84 -281zM680 1147q-60 0 -103 -48t-57 -128l-20 -113l43 8q59 11 94 13
q111 80 123 161q10 47 -12.5 77t-67.5 30zM745 446q17 87 -44 122t-183 10l-72 -15l-16 -96q-12 -78 23.5 -125t107.5 -47q76 0 125 40t59 111z" />
    <glyph glyph-name="uni0433.loclBGR" horiz-adv-x="966" 
d="M430 -29q-193 0 -315 101t-92 278q18 99 79.5 166t141.5 92q38 11 91.5 21.5t92 18t75.5 18t58.5 25t24.5 34.5q6 49 -68 49q-85 0 -143 -88l-264 137q134 230 436 230q173 0 289 -107q115 -103 88 -268q-43 -248 -371 -289q-86 -14 -133.5 -31t-52.5 -45
q-6 -30 16 -45.5t66 -15.5q115 0 176 113l268 -154q-135 -240 -463 -240z" />
    <glyph glyph-name="uni0434.loclBGR" horiz-adv-x="1267" 
d="M903 903l21 121h336l-175 -983q-44 -249 -208 -365q-162 -116 -396 -116q-174 0 -300 64.5t-179 185.5l301 157q58 -110 209 -110q96 0 158.5 47t79.5 137l14 78q-119 -107 -291 -107q-114 0 -202.5 46t-138.5 121.5t-68.5 171t-0.5 196.5q29 201 179 354
q152 152 372 152q200 0 289 -150zM582 322q90 0 159.5 52.5t92.5 137.5l6 41q8 85 -42.5 137.5t-140.5 52.5q-96 0 -166.5 -59t-87.5 -152q-17 -92 32.5 -151t146.5 -59z" />
    <glyph glyph-name="uni0436.loclBGR" horiz-adv-x="1595" 
d="M287 0h-367l416 535l-207 489h344l172 -416l146 826h337l-149 -836l313 426h377l-407 -528l225 -496h-348l-187 434l-78 -434h-335l73 420z" />
    <glyph glyph-name="uni0438.loclBGR" horiz-adv-x="1183" 
d="M739 477l97 547h340l-181 -1024h-340l19 104q-118 -133 -299 -133q-170 0 -257 118t-52 323l108 612h340l-100 -569q-12 -80 22 -121t105 -41q79 0 130 47.5t68 138.5v-2z" />
    <glyph glyph-name="uni0439.loclBGR" horiz-adv-x="1183" 
d="M403 1421h662l-49 -286h-662zM739 477l97 547h340l-181 -1024h-340l19 104q-118 -133 -299 -133q-170 0 -257 118t-52 323l108 612h340l-100 -569q-12 -80 22 -121t105 -41q79 0 130 47.5t68 138.5v-2z" />
    <glyph glyph-name="uni043A.loclBGR" horiz-adv-x="1099" 
d="M782 1024h392l-431 -514l267 -510h-365l-217 451l-80 -451h-340l252 1434h340l-143 -816z" />
    <glyph glyph-name="uni043B.loclBGR" horiz-adv-x="1091" 
d="M809 1024l192 -1024h-346l-84 580l-286 -580h-375l553 1024h346z" />
    <glyph glyph-name="uni043F.loclBGR" horiz-adv-x="1183" 
d="M809 1053q170 0 257 -118t52 -323l-108 -612h-340l100 569q12 80 -22 121t-105 41q-79 0 -130.5 -47.5t-68.5 -138.5v2l-96 -547h-340l180 1024h340l-18 -104q118 133 299 133z" />
    <glyph glyph-name="uni0442.loclBGR" horiz-adv-x="1740" 
d="M1356 1053q176 0 266 -116t55 -310l-108 -627h-342l102 588q27 143 -100 143q-128 0 -166 -139l-105 -592h-340l103 588q21 143 -103 143q-131 0 -169 -158l-101 -573h-340l180 1024h340l-16 -94q114 123 285 123q178 0 245 -138q132 138 314 138z" />
    <glyph glyph-name="uni0446.loclBGR" horiz-adv-x="1269" 
d="M1112 311h92l-104 -585h-324l53 305q-65 30 -96 90q-138 -150 -346 -150q-175 0 -266 117q-93 118 -55 324l106 612h342l-100 -569q-13 -80 20.5 -121t106.5 -41q147 0 190 156l103 575h342l-115 -651q-9 -62 51 -62z" />
    <glyph glyph-name="uni0448.loclBGR" horiz-adv-x="1740" 
d="M1292 451l101 573h340l-181 -1024h-340l17 94q-114 -123 -285 -123q-178 0 -246 138q-132 -138 -313 -138q-176 0 -266.5 116t-55.5 310l109 627h342l-102 -588q-27 -143 100 -143q128 0 166 139l104 592h340l-102 -588q-21 -143 102 -143q132 0 170 158z" />
    <glyph glyph-name="uni0449.loclBGR" horiz-adv-x="1826" 
d="M1669 311h92l-104 -585h-322l54 305q-64 27 -95 84q-132 -144 -336 -144q-188 0 -258 135q-129 -135 -315 -135q-176 0 -266.5 116t-55.5 310l109 627h342l-102 -588q-27 -143 100 -143q128 0 166 139l104 592h340l-102 -588q-21 -143 102 -143q132 0 170 160l101 571
h340l-115 -651q-9 -62 51 -62z" />
    <glyph glyph-name="uni044C.loclBGR" horiz-adv-x="1013" 
d="M459 764h139q188 0 287 -117q99 -114 69 -297q-31 -178 -161.5 -279.5t-333.5 -101.5q-213 0 -322 121q-108 121 -74 311l109 623h332zM627 377q11 45 -13 72.5t-77 27.5h-129l-15 -82q-10 -54 16.5 -84t82.5 -30q54 0 91.5 27t43.5 69z" />
    <glyph glyph-name="uni044A.loclBGR" horiz-adv-x="1183" 
d="M629 764h139q196 0 291 -117q95 -115 65 -297q-31 -178 -161.5 -279.5t-333.5 -101.5q-213 0 -322 121q-108 121 -74 311l54 308h-252l55 315h584zM797 377q11 45 -13 72.5t-77 27.5h-129l-15 -82q-10 -54 16.5 -84t82.5 -30q54 0 91.5 27t43.5 69z" />
    <glyph glyph-name="uni044E.loclBGR" horiz-adv-x="1652" 
d="M1137 1053q84 0 158 -22.5t127.5 -63t95 -95t62 -117.5t28 -131.5t-8.5 -136.5q-35 -213 -202 -364q-172 -152 -406 -152q-197 0 -318 104.5t-147 276.5h-116l-62 -352h-340l252 1434h340l-133 -762h102q71 172 221 276.5t347 104.5zM1262 512q17 94 -30 153.5t-138 59.5
q-88 0 -156.5 -60t-85.5 -153q-14 -95 32 -154t136 -59q89 0 159 60t83 153z" />
    <glyph glyph-name="zero.sinf" horiz-adv-x="837" 
d="M279 -356q-169 0 -261 127q-89 127 -55 325q37 201 154.5 312.5t290.5 111.5q166 0 258 -127q94 -126 57 -325q-35 -202 -152.5 -313t-291.5 -111zM446 82q35 170 -73 170q-100 0 -135 -170q-27 -170 75 -170q106 0 133 170z" />
    <glyph glyph-name="one.sinf" horiz-adv-x="571" 
d="M-20 397l276 95h233l-145 -820h-270l94 525l-166 -41z" />
    <glyph glyph-name="two.sinf" horiz-adv-x="722" 
d="M530 -328h-626l30 183l345 288q74 65 77 95q9 45 -41 45q-55 0 -114 -93l-205 129q130 201 362 201q126 0 207 -78q82 -76 58 -206q-12 -64 -53.5 -119t-125.5 -123l-100 -82h227z" />
    <glyph glyph-name="three.sinf" horiz-adv-x="700" 
d="M43 492h586l-33 -179l-160 -161q72 -31 106 -95t21 -145q-47 -268 -364 -268q-251 0 -312 192l228 121q27 -82 110 -82q68 0 74 53q4 26 -9.5 39t-45.5 13h-60l-67 139l135 135h-252z" />
    <glyph glyph-name="four.sinf" horiz-adv-x="741" 
d="M557 23h72l-41 -236h-72l-20 -115h-250l20 115h-377l41 236l312 469h288l-301 -469h80l23 129h248z" />
    <glyph glyph-name="five.sinf" horiz-adv-x="677" 
d="M604 492l-41 -238h-291l-16 -68h37q128 0 199 -76t47 -208q-23 -127 -113.5 -192.5t-228.5 -65.5q-236 0 -306 190l232 111q24 -78 98 -78q68 0 74 53q9 57 -51 57h-279l123 515h516z" />
    <glyph glyph-name="six.sinf" horiz-adv-x="702" 
d="M578 492l-201 -263q106 -26 160.5 -108.5t35.5 -192.5q-23 -131 -120.5 -207.5t-245.5 -76.5q-143 0 -221 90q-79 88 -58 219q15 90 66 156l297 383h287zM328 -59q15 73 -64 73q-75 0 -90 -73q-7 -36 10.5 -56t53.5 -20q78 0 90 76z" />
    <glyph glyph-name="seven.sinf" horiz-adv-x="618" 
d="M-45 254l41 238h592l-35 -203l-334 -617h-282l315 582h-297z" />
    <glyph glyph-name="eight.sinf" horiz-adv-x="714" 
d="M612 262q-18 -111 -118 -168q97 -75 79 -205q-19 -117 -113 -181t-249 -64q-148 0 -227.5 72.5t-59.5 189.5q21 134 156 200q-80 65 -62 175q20 113 110.5 176t223.5 63q126 0 203 -71q78 -72 57 -187zM242 246q-5 -26 11 -41t48 -15q69 0 78 56q12 57 -57 57
q-68 0 -80 -57zM334 -68q9 68 -66 68q-81 0 -90 -68q-15 -69 66 -69q75 0 90 69z" />
    <glyph glyph-name="nine.sinf" horiz-adv-x="702" 
d="M344 520q143 0 221 -90q79 -88 58 -219q-16 -99 -78 -170l-285 -369h-287l201 262q-106 26 -161 109t-36 193q23 131 121 207.5t246 76.5zM223 223q-15 -73 64 -73q75 0 90 73q7 36 -10.5 56t-53.5 20q-78 0 -90 -76z" />
    <glyph glyph-name="zero.tf" horiz-adv-x="1206" 
d="M524 -31q-273 0 -405 215q-129 214 -70 553t244 533t463 194q274 0 403 -215q129 -214 70 -553q-58 -337 -244 -532q-183 -195 -461 -195zM569 326q229 0 297 391t-157 391q-227 0 -295 -391q-71 -391 155 -391z" />
    <glyph glyph-name="one.tf" horiz-adv-x="1206" 
d="M975 1434l-191 -1080h365l-64 -354h-1124l62 354h397l119 678l-260 -63l-33 325l413 140h316z" />
    <glyph glyph-name="two.tf" horiz-adv-x="1206" 
d="M1044 0h-1073l45 266l621 484q167 124 186 223q11 58 -21.5 96.5t-101.5 38.5q-148 0 -249 -180l-293 188q95 169 252 258.5t346 89.5q210 0 342 -141q133 -142 96 -352q-21 -126 -92 -221q-70 -94 -213 -207l-242 -189h459z" />
    <glyph glyph-name="three.tf" horiz-adv-x="1206" 
d="M252 1434h993l-49 -289l-299 -293q138 -55 204 -167t40 -261q-40 -226 -202 -340.5t-411 -114.5q-210 0 -346 91.5t-178 269.5l336 174q49 -178 223 -178q186 0 213 139q11 69 -30 104t-134 35h-73l-107 213l273 266h-512z" />
    <glyph glyph-name="four.tf" horiz-adv-x="1206" 
d="M1040 553h144l-60 -334h-143l-39 -219h-364l38 219h-657l59 334l584 881h422l-586 -881h238l47 268h364z" />
    <glyph glyph-name="five.tf" horiz-adv-x="1206" 
d="M1241 1434l-61 -351h-564l-38 -153h118q228 0 361 -133q130 -130 90 -367q-41 -229 -207 -344q-166 -117 -397 -117q-438 0 -537 348l340 172q46 -163 225 -163q186 0 213 129q11 64 -31.5 99.5t-134.5 35.5h-485l207 844h901z" />
    <glyph glyph-name="six.tf" horiz-adv-x="1206" 
d="M1151 1434l-377 -439q220 -30 322 -180q105 -150 71 -348q-35 -215 -204 -356q-171 -142 -439 -142q-270 0 -403 160q-131 158 -90 381q35 179 149 299l545 625h426zM807 485q13 85 -35 134t-141 49q-97 0 -161 -48.5t-77 -134.5q-17 -85 31 -132.5t143 -47.5t159 47.5
t81 132.5z" />
    <glyph glyph-name="seven.tf" horiz-adv-x="1206" 
d="M141 1079l62 355h1104l-52 -304l-694 -1130h-411l659 1079h-668z" />
    <glyph glyph-name="eight.tf" horiz-adv-x="1206" 
d="M1219 1028q-34 -185 -209 -287q185 -133 145 -350q-35 -199 -200 -309.5t-435 -110.5q-265 0 -403 123q-137 123 -103 322q43 229 269 340q-139 109 -109 293q34 197 197 305t393 108q225 0 356 -119q133 -118 99 -315zM670 885q81 0 133 33t63 90q11 56 -30.5 89
t-122.5 33q-84 0 -136 -32.5t-63 -89.5t30.5 -90t125.5 -33zM801 455q11 72 -35 110.5t-145 38.5q-207 0 -234 -149q-12 -70 33.5 -109t146.5 -39q207 0 234 148z" />
    <glyph glyph-name="nine.tf" horiz-adv-x="1206" 
d="M754 1464q271 0 403 -159q133 -160 92 -381q-35 -184 -155 -306l-541 -618h-426l377 438q-219 30 -324 180q-103 152 -69 349q38 218 204 356q170 141 439 141zM647 766q98 0 162.5 48t77.5 134q13 85 -34 132.5t-142 47.5q-98 0 -161.5 -47.5t-76.5 -132.5t34 -133.5
t140 -48.5z" />
    <glyph glyph-name="zero.dnom" horiz-adv-x="837" 
d="M336 -29q-169 0 -260 125q-90 129 -56 328q37 201 154.5 312.5t290.5 111.5q166 0 258 -127q95 -126 57 -326q-35 -202 -152.5 -313t-291.5 -111zM504 410q35 170 -74 170q-100 0 -135 -170q-27 -170 76 -170q106 0 133 170z" />
    <glyph glyph-name="one.dnom" horiz-adv-x="565" 
d="M37 725l276 94h234l-146 -819h-270l94 524l-166 -41z" />
    <glyph glyph-name="two.dnom" horiz-adv-x="729" 
d="M588 0h-627l31 182l344 289q75 66 78 94q9 45 -41 45q-56 0 -115 -92l-205 129q130 201 363 201q126 0 207 -78q81 -76 57 -207q-12 -64 -53 -118.5t-125 -122.5l-101 -82h228z" />
    <glyph glyph-name="three.dnom" horiz-adv-x="686" 
d="M100 819h586l-33 -178l-159 -162q72 -31 106 -94.5t21 -144.5q-47 -269 -365 -269q-250 0 -311 193l227 121q27 -82 111 -82q67 0 73 53q4 26 -9.5 38.5t-45.5 12.5h-59l-68 139l135 136h-252z" />
    <glyph glyph-name="four.dnom" horiz-adv-x="739" 
d="M614 350h72l-41 -235h-72l-20 -115h-250l21 115h-377l41 235l311 469h289l-301 -469h80l22 129h248z" />
    <glyph glyph-name="five.dnom" horiz-adv-x="679" 
d="M662 819l-41 -237h-291l-17 -68h37q128 0 199 -76.5t47 -208.5q-23 -127 -113.5 -192.5t-228.5 -65.5q-234 0 -305 191l231 110q24 -77 99 -77q67 0 73 53q9 57 -51 57h-278l122 514h517z" />
    <glyph glyph-name="six.dnom" horiz-adv-x="700" 
d="M635 819l-201 -262q106 -26 161 -108.5t36 -192.5q-23 -131 -121 -208t-246 -77q-144 0 -223 88q-76 88 -55 222q15 90 65 155l297 383h287zM385 268q15 74 -63 74q-76 0 -91 -74q-7 -36 10.5 -55.5t53.5 -19.5q78 0 90 75z" />
    <glyph glyph-name="seven.dnom" horiz-adv-x="618" 
d="M12 582l41 237h592l-35 -203l-334 -616h-282l315 582h-297z" />
    <glyph glyph-name="eight.dnom" horiz-adv-x="712" 
d="M670 590q-18 -110 -119 -168q98 -76 80 -205q-19 -117 -113.5 -181.5t-249.5 -64.5q-148 0 -227 72.5t-59 189.5q21 136 155 201q-79 64 -61 174q20 114 110.5 177t223.5 63q124 0 202 -72q79 -73 58 -186zM299 573q-4 -26 11.5 -40.5t47.5 -14.5q69 0 78 55
q12 58 -57 58q-68 0 -80 -58zM391 260q9 68 -65 68q-81 0 -90 -68q-15 -70 65 -70q75 0 90 70z" />
    <glyph glyph-name="nine.dnom" horiz-adv-x="700" 
d="M401 848q144 0 222 -90q78 -87 57 -219q-16 -99 -78 -170l-285 -369h-286l200 262q-106 26 -160.5 108.5t-35.5 192.5q23 132 120.5 208.5t245.5 76.5zM281 551q-15 -74 63 -74q75 0 90 74q7 36 -10 56t-53 20q-78 0 -90 -76z" />
    <glyph glyph-name="zero.numr" horiz-adv-x="837" 
d="M444 586q-169 0 -260 125q-90 127 -55 327q37 202 154 313t290 111q166 0 258 -127q95 -127 58 -325q-35 -201 -153 -312.5t-292 -111.5zM612 1024q35 170 -73 170q-101 0 -136 -170q-27 -170 76 -170q106 0 133 170z" />
    <glyph glyph-name="one.numr" horiz-adv-x="565" 
d="M145 1339l277 95h233l-145 -820h-270l94 525l-166 -41z" />
    <glyph glyph-name="two.numr" horiz-adv-x="729" 
d="M696 614h-626l30 183l344 288q75 66 78 95q9 45 -41 45q-55 0 -114 -92l-205 129q129 200 362 200q126 0 207 -78q81 -75 57 -206q-12 -64 -53 -119t-125 -123l-100 -82h227z" />
    <glyph glyph-name="three.numr" horiz-adv-x="686" 
d="M209 1434h586l-33 -179l-160 -161q72 -31 106 -95t21 -145q-47 -268 -364 -268q-251 0 -312 192l228 121q27 -82 110 -82q68 0 74 53q4 26 -9.5 39t-45.5 13h-60l-67 139l135 135h-252z" />
    <glyph glyph-name="four.numr" horiz-adv-x="739" 
d="M723 965h72l-41 -236h-72l-20 -115h-250l20 115h-377l41 236l312 469h288l-301 -469h80l23 129h247z" />
    <glyph glyph-name="five.numr" horiz-adv-x="679" 
d="M770 1434l-41 -238h-291l-16 -68h37q128 0 199 -76t47 -208q-23 -127 -114 -192.5t-229 -65.5q-235 0 -305 190l232 111q24 -78 98 -78q68 0 74 53q9 58 -51 58h-279l123 514h516z" />
    <glyph glyph-name="six.numr" horiz-adv-x="700" 
d="M743 1434l-200 -263q106 -26 160.5 -108.5t35.5 -192.5q-23 -131 -120.5 -207.5t-245.5 -76.5q-144 0 -223 88q-77 89 -56 221q15 90 66 156l297 383h286zM494 883q15 73 -64 73q-75 0 -90 -73q-7 -36 10 -56t53 -20q79 0 91 76z" />
    <glyph glyph-name="seven.numr" horiz-adv-x="618" 
d="M121 1196l41 238h592l-35 -203l-334 -617h-283l316 582h-297z" />
    <glyph glyph-name="eight.numr" horiz-adv-x="714" 
d="M778 1204q-18 -110 -119 -168q98 -76 80 -205q-19 -117 -113 -181t-249 -64q-148 0 -227.5 72.5t-59.5 189.5q21 135 156 201q-80 65 -62 174q20 113 110.5 176t223.5 63q126 0 203 -71q78 -72 57 -187zM408 1188q-4 -26 11.5 -40.5t47.5 -14.5q69 0 78 55q6 29 -8.5 43
t-49.5 14q-67 0 -79 -57zM500 874q9 68 -66 68q-81 0 -90 -68q-15 -69 66 -69q75 0 90 69z" />
    <glyph glyph-name="nine.numr" horiz-adv-x="700" 
d="M510 1462q143 0 221 -90q78 -87 57 -219q-16 -100 -77 -170l-285 -369h-287l201 263q-106 26 -161 108.5t-36 192.5q23 131 121 207.5t246 76.5zM389 1165q-15 -73 64 -73q75 0 90 73q7 36 -10.5 56t-53.5 20q-78 0 -90 -76z" />
    <glyph glyph-name="zero.sups" horiz-adv-x="837" 
d="M502 913q-169 0 -260 125q-90 129 -56 328q37 201 154.5 312.5t290.5 111.5q166 0 258 -127q95 -126 57 -326q-35 -202 -152.5 -313t-291.5 -111zM670 1352q35 170 -74 170q-100 0 -135 -170q-27 -170 76 -170q106 0 133 170z" />
    <glyph glyph-name="one.sups" horiz-adv-x="565" 
d="M203 1667l276 94h234l-146 -819h-270l94 524l-166 -41z" />
    <glyph glyph-name="two.sups" horiz-adv-x="729" 
d="M754 942h-627l31 182l344 289q75 66 78 94q9 45 -41 45q-56 0 -115 -92l-205 129q130 201 363 201q125 0 206 -78q82 -76 58 -207q-12 -64 -53 -118.5t-125 -122.5l-101 -82h228z" />
    <glyph glyph-name="three.sups" horiz-adv-x="688" 
d="M268 1761h586l-33 -178l-159 -162q72 -31 105.5 -94.5t20.5 -144.5q-47 -269 -364 -269q-250 0 -311 193l227 121q27 -82 111 -82q67 0 73 53q4 26 -9.5 38.5t-45.5 12.5h-59l-68 140l135 135h-252z" />
    <glyph glyph-name="four.sups" horiz-adv-x="739" 
d="M780 1292h72l-41 -235h-72l-20 -115h-250l20 115h-376l41 235l311 469h289l-301 -469h79l23 129h248z" />
    <glyph glyph-name="five.sups" horiz-adv-x="677" 
d="M827 1761l-41 -237h-290l-17 -68h37q128 0 199 -76.5t47 -208.5q-23 -127 -113.5 -192.5t-228.5 -65.5q-234 0 -305 191l231 110q24 -77 98 -77q68 0 74 53q9 57 -51 57h-279l123 514h516z" />
    <glyph glyph-name="six.sups" horiz-adv-x="702" 
d="M801 1761l-201 -262q106 -26 161 -108.5t36 -192.5q-23 -131 -121 -208t-246 -77q-144 0 -223 88q-76 88 -55 222q15 90 65 155l297 383h287zM551 1210q15 74 -64 74q-75 0 -90 -74q-7 -36 10.5 -55.5t53.5 -19.5q78 0 90 75z" />
    <glyph glyph-name="seven.sups" horiz-adv-x="620" 
d="M180 1524l41 237h592l-35 -202l-334 -617h-282l315 582h-297z" />
    <glyph glyph-name="eight.sups" horiz-adv-x="712" 
d="M836 1532q-18 -110 -119 -168q98 -76 80 -205q-19 -117 -113.5 -181.5t-249.5 -64.5q-148 0 -227.5 73t-59.5 190q21 134 156 200q-79 64 -61 174q20 114 110 177t223 63q125 0 203 -72q79 -73 58 -186zM465 1516q-5 -26 11 -41t48 -15q69 0 78 56q12 57 -57 57
q-68 0 -80 -57zM557 1202q9 68 -65 68q-82 0 -91 -68q-15 -69 66 -69q75 0 90 69z" />
    <glyph glyph-name="nine.sups" horiz-adv-x="700" 
d="M567 1790q143 0 221 -90q79 -88 58 -219q-16 -99 -78 -170l-285 -369h-286l200 262q-106 26 -160.5 108.5t-35.5 192.5q23 132 120.5 208.5t245.5 76.5zM446 1493q-15 -74 64 -74q75 0 90 74q7 36 -10 56t-53 20q-79 0 -91 -76z" />
    <glyph glyph-name="cent.tf" horiz-adv-x="1206" 
d="M651 508h4q121 0 191 102l270 -172q-77 -127 -204.5 -194.5t-282.5 -67.5q-64 0 -135 14l-95 -190h-133l115 231q-133 67 -195 203t-36 303q38 231 208 373q172 147 402 147q68 0 123 -12l94 189h133l-113 -230q135 -68 203 -215l-309 -162q-22 43 -49 64zM489 719
q-18 -111 50 -170l186 377q-89 -2 -156 -59t-80 -148z" />
    <glyph glyph-name="dollar.tf" horiz-adv-x="1206" 
d="M772 862q101 -35 159 -64.5t118 -82.5q132 -111 92 -336q-35 -188 -177 -293.5t-364 -116.5l-31 -174h-143l31 178q-367 41 -455 342l326 168q54 -147 190 -168l45 254l-28 11q-203 78 -293.5 190.5t-59.5 292.5q35 196 183 297t356 104l31 174h143l-33 -186
q273 -52 375 -305l-315 -168q-40 99 -121 129l-43 -242q10 0 14 -4zM543 1030q-12 -64 82 -110l34 202q-104 -15 -116 -92zM778 414q9 58 -82 104l-34 -203q101 21 116 99z" />
    <glyph glyph-name="Euro.tf" horiz-adv-x="1206" 
d="M657 326q121 0 209 135l279 -178q-182 -314 -529 -314q-207 0 -323 146t-121 397h-145l30 172h125q1 14 4.5 33t3.5 20q1 2 2 6.5t1.5 8t1.5 4.5h-125l30 172h136q82 259 240.5 397.5t377.5 138.5q316 0 432 -315l-323 -170q-40 129 -154 129q-128 0 -201 -180h281
l-31 -172h-297q-5 -16 -8 -39l-6 -33h299l-31 -172h-280q3 -186 122 -186z" />
    <glyph glyph-name="florin.tf" horiz-adv-x="1206" 
d="M578 883l96 217q75 167 184 254q72 59 154 85.5t157.5 26t169.5 -19.5l-57 -336q-211 62 -281 -106l-53 -121h221l-57 -326h-305l-272 -620q-105 -243 -281 -320q-180 -79 -385 -27l59 336q203 -59 273 107l233 524h-221l59 326h306z" />
    <glyph glyph-name="uni20BD.tf" horiz-adv-x="1206" 
d="M311 1434h516q203 0 330 -148q130 -145 92 -354q-38 -221 -194 -340t-398 -119h-147l-14 -82h376l-34 -203h-379l-33 -188h-367l33 188h-129l35 203h131l14 82h-129l58 326h129zM885 942q12 65 -21.5 104t-97.5 39h-150l-49 -286h148q64 0 112 39t58 104z" />
    <glyph glyph-name="sterling.tf" horiz-adv-x="1206" 
d="M971 557h-418l-37 -203h643l-63 -354h-1135l64 354h127l34 203h-104l51 287h105l28 162q40 225 183.5 341.5t351.5 116.5q345 0 465 -319l-330 -168q-52 137 -164 137q-55 0 -93.5 -34t-49.5 -91l-25 -145h418z" />
    <glyph glyph-name="yen.tf" horiz-adv-x="1206" 
d="M940 1434h428l-471 -672h246l-33 -193h-313l-15 -84h312l-33 -190h-313l-52 -295h-366l51 295h-311l32 190h314l14 84h-311l33 193h245l-235 672h393l117 -433z" />
    <glyph glyph-name="brevecy" horiz-adv-x="825" 
d="M854 1135h-661l49 286h661z" />
    </font>
</defs>
</svg>
