<?xml version="1.0" standalone="no"?>
<!DOCTYPE svg PUBLIC "-//W3C//DTD SVG 1.1//EN" "http://www.w3.org/Graphics/SVG/1.1/DTD/svg11.dtd" >
<svg xmlns="http://www.w3.org/2000/svg" xmlns:xlink="http://www.w3.org/1999/xlink" version="1.1">
<metadata>
Created by FontForge 20170731 at Sat Aug  7 15:00:56 2021
 By Aleksey,,,
Copyright (c) 2016 by Radomir Tinkov. All rights reserved.
</metadata>
<defs>
<font id="SVN-GilroyXLight" horiz-adv-x="1337" >
  <font-face 
    font-family="SVN-Gilroy XLight"
    font-weight="200"
    font-stretch="normal"
    units-per-em="2048"
    panose-1="0 0 3 0 0 0 0 0 0 0"
    ascent="1638"
    descent="-410"
    x-height="1024"
    cap-height="1434"
    bbox="-588 -492 2120 2154"
    underline-thickness="102"
    underline-position="-307"
    unicode-range="U+0020-FB02"
  />
<missing-glyph horiz-adv-x="1024" 
d="M190 1638h650v-2048h-650v2048zM682 1434v67h-338v-67h133v-76h-135v-68h340v68h-135v76h135zM547 1094v143h-205v-213h340v70h-135zM410 1167h67v-73h-67v73zM682 901v68h-340v-68h135v-76h-135v-67h205v143h135zM682 641v205h-68v-135h-272v-70h340zM682 365v231h-205
v-115h70v47h67v-96h-204v164h-68v-231h340zM682 10v232h-340v-232h340zM410 174h204v-96h-204v96zM682 -104v67h-340v-67h143l-143 -97v-67h340v67h-209l143 97h66z" />
    <glyph glyph-name="fi" unicode="fi" horiz-adv-x="1034" 
d="M311 1024h551v-1024h-71v956h-480v-956h-71v956h-183v68h183v68q0 364 387 364q95 0 202 -22v-66q-94 18 -202 18q-166 0 -241 -70t-75 -224v-68z" />
    <glyph glyph-name="fl" unicode="fl" horiz-adv-x="1034" 
d="M627 1456q106 0 235 -22v-1434h-71v1378q-83 13 -164 13q-164 0 -240 -72.5t-76 -226.5v-68h254v-68h-254v-956h-71v956h-183v68h183v68q0 364 387 364z" />
    <glyph glyph-name="f_f" unicode="ff" horiz-adv-x="1177" 
d="M1178 1477v-70q-316 27 -316 -295v-88h316v-68h-316v-956h-71v956h-480v-956h-71v956h-183v68h183v68q0 187 98.5 282t288.5 82v-70q-316 27 -316 -294v-68h480v88q0 187 99.5 282.5t287.5 82.5z" />
    <glyph glyph-name="f_f_i" unicode="ffi" horiz-adv-x="1585" 
d="M862 1024h553v-1024h-74v956h-479v-956h-71v956h-480v-956h-71v956h-183v68h183v68q0 187 98.5 282t288.5 82v-70q-316 27 -316 -294v-68h480v88q0 365 387 365q90 0 202 -23v-65q-94 18 -202 18q-164 0 -240 -71t-76 -224v-88z" />
    <glyph glyph-name="f_f_l" unicode="ffl" horiz-adv-x="1585" 
d="M1178 1477q99 0 237 -23v-1454h-74v1399q-77 12 -163 12q-164 0 -240 -72.5t-76 -226.5v-88h254v-68h-254v-956h-71v956h-480v-956h-71v956h-183v68h183v68q0 187 98.5 282t288.5 82v-70q-316 27 -316 -294v-68h480v88q0 365 387 365z" />
    <glyph glyph-name=".notdef" horiz-adv-x="1024" 
d="M190 1638h650v-2048h-650v2048zM682 1434v67h-338v-67h133v-76h-135v-68h340v68h-135v76h135zM547 1094v143h-205v-213h340v70h-135zM410 1167h67v-73h-67v73zM682 901v68h-340v-68h135v-76h-135v-67h205v143h135zM682 641v205h-68v-135h-272v-70h340zM682 365v231h-205
v-115h70v47h67v-96h-204v164h-68v-231h340zM682 10v232h-340v-232h340zM410 174h204v-96h-204v96zM682 -104v67h-340v-67h143l-143 -97v-67h340v67h-209l143 97h66z" />
    <glyph glyph-name=".null" horiz-adv-x="0" 
 />
    <glyph glyph-name="nonmarkingreturn" horiz-adv-x="682" 
 />
    <glyph glyph-name="space" unicode=" " horiz-adv-x="579" 
 />
    <glyph glyph-name="exclam" unicode="!" horiz-adv-x="430" 
d="M246 348h-62l-10 676v410h82v-410zM266 0q-20 -20 -51 -20t-51 20t-20 51t20 51t51 20t51 -20t20 -51t-20 -51z" />
    <glyph glyph-name="quotedbl" unicode="&#x22;" horiz-adv-x="567" 
d="M184 1079h-61l-6 355h73zM444 1079h-61l-8 355h76z" />
    <glyph glyph-name="numbersign" unicode="#" horiz-adv-x="1245" 
d="M1155 936l-10 -70h-246l-49 -299h246l-13 -69h-245l-66 -396h-70l66 396h-365l-65 -396h-70l66 396h-246l12 69h246l49 299h-248l13 70h248l65 395h70l-66 -395h365l65 395h70l-66 -395h244zM416 567h364l49 299h-364z" />
    <glyph glyph-name="dollar" unicode="$" horiz-adv-x="1126" 
d="M1030 358q0 -159 -109.5 -262t-293.5 -116v-185h-68v182q-174 5 -297.5 79t-165.5 204l64 39q36 -117 140 -181t259 -69v651q-135 45 -231 97q-85 50 -124.5 116.5t-45.5 173.5q0 154 114 259q113 104 287 110v182h68v-184q271 -21 366 -254l-61 -35q-76 196 -305 217
v-630q108 -39 164.5 -65.5t115.5 -70.5q123 -86 123 -258zM233 1087q0 -128 82 -192q79 -62 244 -121v610q-148 -6 -237 -92q-89 -83 -89 -205zM627 678v-627q156 13 242.5 96.5t86.5 210.5q0 126 -82 193q-86 70 -247 127z" />
    <glyph glyph-name="percent" unicode="%" horiz-adv-x="1478" 
d="M451 846q-138 0 -226 88t-88 217t88 217t226 88q135 0 223 -88q90 -90 90 -217q0 -129 -88 -217t-225 -88zM451 911q105 0 173 68.5t68 171.5t-68.5 171.5t-172.5 68.5t-174 -68.5t-70 -171.5t70 -171.5t174 -68.5zM270 145l-49 29l981 1110l51 -29zM1253 66
q-89 -89 -223 -89q-136 0 -225 89q-88 88 -88 217t88 217t225 88q135 0 223 -88q90 -90 90 -217t-90 -217zM856 111q71 -68 174 -68q104 0 172 68q70 70 70 172q0 103 -70 170q-66 69 -172 69q-105 0 -174 -69q-70 -67 -70 -170q0 -102 70 -172z" />
    <glyph glyph-name="ampersand" unicode="&#x26;" 
d="M1077 240l203 -211l-66 -37l-180 186q-160 -201 -438 -201q-213 0 -336 109.5t-123 294.5q0 137 77 249t216 173q-123 141 -123 287q0 162 117 264t285 102q134 0 237.5 -69.5t147.5 -190.5l-64 -35q-36 105 -119.5 164t-201.5 59q-146 0 -237 -82.5t-91 -211.5
q0 -89 43 -156q40 -63 139 -166l459 -475q72 123 96 299l66 -39q-24 -174 -107 -313zM594 49q243 0 387 182l-471 488l-29 29q-130 -50 -200 -148.5t-70 -218.5q0 -153 104.5 -242.5t278.5 -89.5z" />
    <glyph glyph-name="quotesingle" unicode="'" horiz-adv-x="292" 
d="M184 1079h-61l-6 355h73z" />
    <glyph glyph-name="parenleft" unicode="(" horiz-adv-x="522" 
d="M420 -205h-72q-226 450 -226 921.5t226 921.5h72q-226 -450 -226 -921.5t226 -921.5z" />
    <glyph glyph-name="parenright" unicode=")" horiz-adv-x="522" 
d="M174 -205h-72q226 450 226 921.5t-226 921.5h72q226 -450 226 -921.5t-226 -921.5z" />
    <glyph glyph-name="asterisk" unicode="*" horiz-adv-x="780" 
d="M442 1251l203 4v-63l-203 4l111 -170l-57 -35l-105 176l-106 -176l-56 35l111 170l-203 -4v63l203 -4l-111 170l56 35l106 -178l105 178l57 -35z" />
    <glyph glyph-name="plus" unicode="+" horiz-adv-x="1079" 
d="M575 752h367v-70h-367v-369h-71v369h-367v70h367v368h71v-368z" />
    <glyph glyph-name="comma" unicode="," horiz-adv-x="423" 
d="M203 106h90l-98 -393h-66z" />
    <glyph glyph-name="hyphen" unicode="-" horiz-adv-x="1120" 
d="M928 598h-738v70h738v-70z" />
    <glyph glyph-name="period" unicode="." horiz-adv-x="403" 
d="M201 -20q-30 0 -51 20.5t-21 50.5t21 51t51 21q43 0 61 -35.5t0 -71.5t-61 -36z" />
    <glyph glyph-name="slash" unicode="/" horiz-adv-x="1071" 
d="M977 1638l-819 -1843h-62l819 1843h62z" />
    <glyph glyph-name="zero" unicode="0" horiz-adv-x="1290" 
d="M1032 178q-139 -201 -387 -201q-247 0 -389 201q-139 204 -139 539t139 536q141 203 389 203q249 0 387 -203q142 -201 142 -536t-142 -539zM311 227q123 -178 334 -178q212 0 332 178q123 179 123 490t-123 489q-120 178 -332 178q-211 0 -334 -178q-121 -180 -121 -489
q0 -310 121 -490z" />
    <glyph glyph-name="one" unicode="1" horiz-adv-x="663" 
d="M37 1305l375 129h61v-1434h-76v1352l-340 -111z" />
    <glyph glyph-name="two" unicode="2" horiz-adv-x="1081" 
d="M987 0h-891v68l535 561q243 255 243 430q0 147 -94.5 236t-247.5 89q-261 0 -366 -231l-62 37q56 126 170 196t258 70q175 0 295 -108q121 -109 121 -289q0 -200 -266 -481l-483 -506h788v-72z" />
    <glyph glyph-name="three" unicode="3" horiz-adv-x="1122" 
d="M938 1364l-354 -524q187 -12 307 -129q123 -114 123 -299q0 -196 -135 -316q-134 -119 -334 -119q-159 0 -278.5 70.5t-170.5 194.5l62 37q41 -109 143 -169.5t244 -60.5q175 0 282 101q111 102 111 262q0 158 -111 260t-288 102h-23l-31 47l369 543h-729v70h813v-70z
" />
    <glyph glyph-name="four" unicode="4" horiz-adv-x="1161" 
d="M926 383h184v-70h-184v-313h-76v313h-784v70l552 1051h84l-555 -1051h703v463h76v-463z" />
    <glyph glyph-name="five" unicode="5" horiz-adv-x="1110" 
d="M246 846h301q202 0 338 -121q137 -119 137 -313q0 -197 -137 -316q-134 -119 -338 -119q-156 0 -275 73t-170 200l62 37q41 -111 142.5 -174.5t240.5 -63.5q179 0 289 101t110 262q0 159 -110 260q-111 102 -289 102h-377l45 660h748v-70h-682z" />
    <glyph glyph-name="six" unicode="6" horiz-adv-x="1112" 
d="M557 922q209 0 346 -134q135 -132 135 -337q0 -210 -135 -342t-346 -132t-346 132t-135 342q0 159 88 284l489 699h84l-387 -553q96 41 207 41zM963 451q0 172 -111 286q-110 113 -295 113q-187 0 -297 -113t-110 -286q0 -176 110 -289t297 -113q188 0 295 113
q111 114 111 289z" />
    <glyph glyph-name="seven" unicode="7" horiz-adv-x="1003" 
d="M55 1364v70h852v-70l-571 -1364h-78l573 1364h-776z" />
    <glyph glyph-name="eight" unicode="8" horiz-adv-x="1130" 
d="M752 741q132 -43 207 -138.5t75 -227.5q0 -184 -131 -291q-128 -107 -338 -107q-209 0 -340 107q-129 108 -129 291q0 132 75.5 227.5t207.5 138.5q-110 43 -174 132t-64 206q0 172 121 275q120 102 303 102t303 -102q121 -103 121 -275q0 -117 -63.5 -206t-173.5 -132z
M217 1079q0 -136 95.5 -221.5t252.5 -85.5t252.5 85.5t95.5 221.5q0 137 -94.5 221t-253.5 84t-253.5 -84t-94.5 -221zM961 375q0 150 -105.5 238.5t-290.5 88.5t-290 -88.5t-105 -238.5q0 -149 105.5 -237.5t289.5 -88.5t290 88.5t106 237.5z" />
    <glyph glyph-name="nine" unicode="9" horiz-adv-x="1112" 
d="M1038 983q0 -160 -88 -285l-491 -698h-84l387 551q-95 -39 -205 -39q-212 0 -346 131q-135 132 -135 340t135 340q136 133 346 133t346 -133q135 -132 135 -340zM150 983q0 -174 110 -287q109 -112 297 -112q186 0 295 112q111 114 111 287q0 175 -111 289
q-106 112 -295 112q-188 0 -297 -112q-110 -113 -110 -289z" />
    <glyph glyph-name="colon" unicode=":" horiz-adv-x="403" 
d="M201 860q-30 0 -51 21t-21 51t21 51t51 21q43 0 61 -36t0 -72t-61 -36zM201 -20q-30 0 -51 20.5t-21 50.5t21 51t51 21q43 0 61 -35.5t0 -71.5t-61 -36z" />
    <glyph glyph-name="semicolon" unicode=";" horiz-adv-x="440" 
d="M238 860q-30 0 -51 21t-21 51t21 51t51 21q43 0 61 -36t0 -72t-61 -36zM203 106h90l-98 -393h-66z" />
    <glyph glyph-name="less" unicode="&#x3c;" horiz-adv-x="1091" 
d="M135 754l819 368v-78l-737 -327l737 -328v-78l-819 369v74z" />
    <glyph glyph-name="equal" unicode="=" horiz-adv-x="1091" 
d="M956 887h-819v69h819v-69zM956 477h-819v70h819v-70z" />
    <glyph glyph-name="greater" unicode="&#x3e;" horiz-adv-x="1091" 
d="M137 1044v78l819 -368v-74l-819 -369v78l737 328z" />
    <glyph glyph-name="question" unicode="?" horiz-adv-x="1081" 
d="M547 348h-76q0 94 38.5 182t102.5 158q16 18 57.5 62.5t61.5 66.5t52 63t47 71t27.5 69.5t12.5 77.5q0 132 -89 209t-246 77q-129 0 -226 -61t-129 -164l-63 35q42 120 157.5 191t260.5 71q185 0 297 -96t112 -262q0 -155 -141 -303q-3 -3 -33.5 -35.5t-36.5 -39.5
t-33.5 -38t-35.5 -42.5t-30 -41.5t-29.5 -46.5t-22.5 -45.5t-20 -51.5t-10 -50.5t-5 -56zM508 -20q-30 0 -51 20.5t-21 50.5t21 51t51 21q43 0 61 -35.5t0 -71.5t-61 -36z" />
    <glyph glyph-name="at" unicode="@" horiz-adv-x="1681" 
d="M854 1253q219 0 385 -106q163 -101 247.5 -258t84.5 -336q0 -207 -76.5 -313.5t-198.5 -106.5q-91 0 -143.5 54t-58.5 147q-39 -70 -109.5 -110t-157.5 -40q-142 0 -237 95q-94 94 -94 233t94 233q95 95 237 95q178 0 267 -148v133h69v-469q0 -83 36.5 -129.5
t103.5 -46.5q104 0 162.5 96t58.5 277q0 280 -193 467q-193 190 -477 190q-294 0 -496 -202q-200 -200 -200 -496q0 -301 207 -502q208 -196 526 -196q202 0 348 55l8 -43q-152 -55 -356 -55q-335 0 -559 211q-223 207 -223 530q0 308 213 524q214 217 532 217zM831 250
q110 0 187 74q76 76 76 188q0 113 -76 186q-76 76 -187 76q-113 0 -189.5 -75t-76.5 -187t76.5 -187t189.5 -75z" />
    <glyph glyph-name="A" unicode="A" horiz-adv-x="1288" 
d="M1247 0h-80l-147 379h-752l-147 -379h-80l561 1434h82zM643 1346l-348 -897h698z" />
    <glyph glyph-name="B" unicode="B" horiz-adv-x="1284" 
d="M915 739q121 -35 197 -133t76 -223q0 -157 -113 -270t-270 -113h-615v1434h568q151 0 260 -109q108 -108 108 -260q0 -108 -57 -195.5t-154 -130.5zM758 1364h-492v-598h492q121 0 207 86q86 89 86 213q0 122 -86 211q-85 88 -207 88zM266 70h539q127 0 217 90
q90 93 90 223q0 128 -90 221q-89 92 -217 92h-539v-626z" />
    <glyph glyph-name="C" unicode="C" horiz-adv-x="1552" 
d="M852 -23q-320 0 -533 216q-210 213 -210 524t210 524q212 215 533 215q190 0 354 -92q165 -92 254 -246l-65 -39q-80 140 -226 222.5t-317 82.5q-288 0 -479 -194q-189 -195 -189 -473q0 -280 189 -475q190 -193 479 -193q174 0 324 84q147 85 223 229l67 -36
q-88 -159 -253.5 -254t-360.5 -95z" />
    <glyph glyph-name="D" unicode="D" horiz-adv-x="1501" 
d="M190 1434h527q292 0 483 -209q193 -205 193 -508q0 -302 -193 -510q-192 -207 -483 -207h-527v1434zM266 70h451q264 0 432 186q170 188 170 461q0 271 -170 459t-432 188h-451v-1294z" />
    <glyph glyph-name="E" unicode="E" horiz-adv-x="1099" 
d="M266 688v-618h738v-70h-814v1434h803v-70h-727v-606h676v-70h-676z" />
    <glyph glyph-name="F" unicode="F" horiz-adv-x="1069" 
d="M973 1434v-70h-707v-619h690v-69h-690v-676h-76v1434h783z" />
    <glyph glyph-name="G" unicode="G" horiz-adv-x="1658" 
d="M831 655h717v-39q0 -266 -188 -454q-188 -185 -496 -185q-326 0 -542 213q-213 216 -213 527t210 524q212 215 533 215q195 0 358 -94q161 -90 252 -250l-65 -37q-78 142 -225 225.5t-320 83.5q-288 0 -479 -194q-189 -195 -189 -473q0 -281 191 -475q193 -193 489 -193
q264 0 432 154q167 154 179 383h-644v69z" />
    <glyph glyph-name="H" unicode="H" horiz-adv-x="1419" 
d="M1153 772v662h76v-1434h-76v702h-887v-702h-76v1434h76v-662h887z" />
    <glyph glyph-name="I" unicode="I" horiz-adv-x="456" 
d="M190 0v1434h76v-1434h-76z" />
    <glyph glyph-name="J" unicode="J" horiz-adv-x="1134" 
d="M512 -23q-149 0 -259 63t-157 175l62 37q83 -203 354 -203q173 0 275 90t102 242v1053h74v-1053q0 -186 -127 -295t-324 -109z" />
    <glyph glyph-name="K" unicode="K" horiz-adv-x="1153" 
d="M348 737l785 -737h-99l-768 717v-717h-76v1434h76v-676l748 676h98z" />
    <glyph glyph-name="L" unicode="L" horiz-adv-x="1017" 
d="M266 1434v-1364h697v-70h-773v1434h76z" />
    <glyph glyph-name="M" unicode="M" horiz-adv-x="1665" 
d="M1380 1434h95v-1434h-76v1323l-557 -911h-19l-557 911v-1323h-76v1434h97l547 -897z" />
    <glyph glyph-name="N" unicode="N" horiz-adv-x="1419" 
d="M1153 135v1299h76v-1434h-68l-895 1298v-1298h-76v1434h70z" />
    <glyph glyph-name="O" unicode="O" horiz-adv-x="1695" 
d="M1370 193q-216 -216 -522 -216q-305 0 -524 216q-215 218 -215 524q0 307 215 522q217 217 524 217q308 0 522 -217q217 -214 217 -522q0 -307 -217 -524zM377 244q195 -195 471 -195q274 0 469 195q194 197 194 473q0 277 -194 471q-193 196 -469 196q-278 0 -471 -196
q-193 -193 -193 -471q0 -277 193 -473z" />
    <glyph glyph-name="P" unicode="P" horiz-adv-x="1193" 
d="M190 1434h465q193 0 318 -125q127 -124 127 -312q0 -186 -127 -313q-125 -125 -318 -125h-389v-559h-76v1434zM266 629h389q161 0 265 104t104 264q0 159 -104 263t-265 104h-389v-735z" />
    <glyph glyph-name="Q" unicode="Q" horiz-adv-x="1705" 
d="M1587 717q0 -326 -239 -543l174 -172l-49 -47l-177 174q-202 -152 -448 -152q-304 0 -522 218q-217 217 -217 522t217 522t522 217t522 -217t217 -522zM848 49q220 0 397 133l-323 320l49 45l325 -322q215 194 215 492q0 277 -194 471q-193 196 -469 196t-469 -196
q-195 -195 -195 -471q0 -275 195 -473q195 -195 469 -195z" />
    <glyph glyph-name="R" unicode="R" horiz-adv-x="1263" 
d="M848 610l360 -610h-84l-354 600h-18h-486v-600h-76v1434h562q172 0 292 -123q123 -120 123 -293q0 -144 -90 -260q-87 -113 -229 -148zM266 1364v-694h486q137 0 239 102q101 101 101 246q0 143 -101 244q-102 102 -239 102h-486z" />
    <glyph glyph-name="S" unicode="S" horiz-adv-x="1171" 
d="M616 -23q-195 0 -330.5 89t-183.5 239l64 37q39 -136 157.5 -214.5t294.5 -78.5q180 0 281.5 86.5t101.5 226.5q0 63 -23.5 111.5t-75.5 87.5t-121 69t-173 62l-143 45q-72 29 -119 54q-92 46 -135 112t-49 174q0 162 121 271q120 108 307 108q159 0 273.5 -80.5
t170.5 -216.5l-61 -35q-102 260 -383 260q-164 0 -260 -90q-94 -88 -94 -215q0 -137 114 -205q67 -39 117 -59q15 -6 154 -53q165 -55 266 -109q94 -50 138 -116.5t50 -171.5q0 -174 -125 -281t-334 -107z" />
    <glyph glyph-name="T" unicode="T" horiz-adv-x="1105" 
d="M55 1434h996v-70h-461v-1364h-74v1364h-461v70z" />
    <glyph glyph-name="U" unicode="U" horiz-adv-x="1378" 
d="M170 469v965h76v-965q0 -189 117.5 -304.5t326.5 -115.5q207 0 325 116t118 304v965h75v-965q0 -218 -141 -356q-142 -136 -377 -136q-234 0 -379 136q-141 138 -141 356z" />
    <glyph glyph-name="V" unicode="V" horiz-adv-x="1230" 
d="M657 0h-82l-540 1434h80l501 -1340l500 1340h82z" />
    <glyph glyph-name="W" unicode="W" horiz-adv-x="2021" 
d="M582 0h-90l-416 1434h78l383 -1336l430 1336h88l428 -1336l385 1336h78l-416 -1434h-90l-430 1337z" />
    <glyph glyph-name="X" unicode="X" horiz-adv-x="1161" 
d="M625 733l481 -733h-88l-438 668l-439 -668h-86l482 733l-459 701h86l418 -635l415 635h86z" />
    <glyph glyph-name="Y" unicode="Y" horiz-adv-x="1171" 
d="M1067 1434h84l-528 -842v-592h-76v594l-527 840h84l482 -770z" />
    <glyph glyph-name="Z" unicode="Z" horiz-adv-x="1079" 
d="M983 1364l-803 -1294h824v-70h-908v70l805 1294h-784v70h866v-70z" />
    <glyph glyph-name="bracketleft" unicode="[" horiz-adv-x="559" 
d="M518 1638v-69h-309v-1704h309v-70h-381v1843h381z" />
    <glyph glyph-name="backslash" unicode="\" horiz-adv-x="1071" 
d="M977 -205h-62l-819 1843h62z" />
    <glyph glyph-name="bracketright" unicode="]" horiz-adv-x="559" 
d="M41 1638h381v-1843h-381v70h309v1704h-309v69z" />
    <glyph glyph-name="asciicircum" unicode="^" horiz-adv-x="1032" 
d="M481 1434h70l358 -615h-82l-311 533l-311 -533h-82z" />
    <glyph glyph-name="underscore" unicode="_" horiz-adv-x="1009" 
d="M928 -258h-846v70h846v-70z" />
    <glyph glyph-name="grave" unicode="`" horiz-adv-x="329" 
d="M289 1167h-68l-180 252h84z" />
    <glyph glyph-name="a" unicode="a" 
d="M1096 750v274h71v-1024h-71v274q-62 -136 -187.5 -216.5t-279.5 -80.5q-220 0 -377 154q-156 156 -156 381q0 226 156 379q156 156 377 156q154 0 279.5 -80.5t187.5 -216.5zM301 180q136 -133 330 -133t330 133q135 135 135 332q0 198 -135 330q-135 135 -330 135
t-330 -135q-133 -133 -133 -330q0 -196 133 -332z" />
    <glyph glyph-name="b" unicode="b" 
d="M711 1047q220 0 376 -156q156 -153 156 -379q0 -225 -156 -381q-157 -154 -376 -154q-156 0 -279.5 79t-187.5 216v-272h-74v1434h74v-682q64 137 187.5 216t279.5 79zM377 180q136 -133 330 -133t327 133q135 135 135 332q0 198 -135 330q-132 135 -327 135t-330 -135
q-133 -133 -133 -330q0 -196 133 -332z" />
    <glyph glyph-name="c" unicode="c" horiz-adv-x="1167" 
d="M631 -23q-227 0 -381 154t-154 381t154 381t381 154q149 0 270 -69.5t178 -186.5l-59 -35q-50 101 -155 161t-234 60q-198 0 -330 -135q-133 -133 -133 -330q0 -196 133 -332q133 -133 330 -133q129 0 232.5 60t158.5 161l59 -35q-60 -118 -181 -187t-269 -69z" />
    <glyph glyph-name="d" unicode="d" 
d="M1094 752v682h73v-1434h-73v272q-64 -137 -187.5 -216t-279.5 -79q-220 0 -377 154q-156 156 -156 381q0 226 156 379q156 156 377 156q156 0 279.5 -79t187.5 -216zM301 180q136 -133 330 -133t327 133q136 136 136 332q0 197 -136 330q-132 135 -327 135t-330 -135
q-133 -133 -133 -330q0 -196 133 -332z" />
    <glyph glyph-name="e" unicode="e" horiz-adv-x="1216" 
d="M618 1047q226 0 365 -160q141 -159 141 -379q0 -29 -2 -35h-952q12 -189 141 -309q129 -117 318 -117q127 0 227 53.5t150 145.5l63 -37q-62 -107 -178 -169.5t-262 -62.5q-233 0 -383 150t-150 385q0 227 148 381t374 154zM618 977q-189 0 -315 -123
q-126 -120 -135 -313h883q-15 197 -138 317q-119 119 -295 119z" />
    <glyph glyph-name="f" unicode="f" horiz-adv-x="626" 
d="M627 1456v-70q-316 27 -316 -294v-68h316v-68h-316v-956h-71v956h-183v68h183v68q0 187 98.5 282t288.5 82z" />
    <glyph glyph-name="g" unicode="g" horiz-adv-x="1351" 
d="M1108 752v272h74v-969q0 -222 -140 -356q-137 -131 -368 -131q-173 0 -298.5 66.5t-180.5 179.5l61 34q45 -96 152 -153t266 -57q203 0 318.5 112t115.5 305v217q-64 -137 -187.5 -216t-279.5 -79q-220 0 -377 154q-155 155 -155 381q0 227 155 379q156 156 377 156
q156 0 279.5 -79t187.5 -216zM315 180q136 -133 330 -133q195 0 328 133q135 135 135 332q0 198 -135 330q-132 135 -328 135q-195 0 -330 -135q-133 -133 -133 -330q0 -196 133 -332z" />
    <glyph glyph-name="h" unicode="h" horiz-adv-x="1165" 
d="M631 1047q176 0 284 -111q109 -112 109 -293v-643h-72v643q0 151 -88 242.5t-239 91.5q-170 0 -275.5 -116.5t-105.5 -315.5v-545h-74v1434h74v-637q53 123 153.5 186.5t233.5 63.5z" />
    <glyph glyph-name="i" unicode="i" horiz-adv-x="413" 
d="M143 1270q0 40 31.5 56t63.5 0t32 -56q0 -25 -18.5 -44.5t-44.5 -19.5t-45 19.5t-19 44.5zM244 0h-74v1024h74v-1024z" />
    <glyph glyph-name="j" unicode="j" horiz-adv-x="442" 
d="M199 -150v1174h73v-1174q0 -148 -80.5 -221.5t-232.5 -60.5v70q240 -27 240 212zM172 1270q0 40 32 56t63.5 0t31.5 -56q0 -25 -18.5 -44.5t-44.5 -19.5t-45 19.5t-19 44.5z" />
    <glyph glyph-name="k" unicode="k" horiz-adv-x="966" 
d="M319 532l592 -532h-98l-569 510v-510h-74v1434h74v-881l549 471h98z" />
    <glyph glyph-name="l" unicode="l" horiz-adv-x="413" 
d="M244 0h-74v1495h74v-1495z" />
    <glyph glyph-name="m" unicode="m" horiz-adv-x="1773" 
d="M1268 1047q164 0 264 -102.5t100 -285.5v-659h-73v659q0 152 -78 235t-213 83q-149 0 -239.5 -106.5t-90.5 -297.5v-573h-74v659q0 152 -75.5 235t-206.5 83q-152 0 -245 -106.5t-93 -297.5v-573h-74v1024h74v-201q99 224 344 224q120 0 207.5 -61t122.5 -175
q48 114 141.5 175t208.5 61z" />
    <glyph glyph-name="n" unicode="n" horiz-adv-x="1165" 
d="M631 1047q176 0 284 -111q109 -112 109 -293v-643h-72v643q0 151 -88 242.5t-239 91.5q-170 0 -275.5 -116.5t-105.5 -315.5v-545h-74v1024h74v-227q53 123 153.5 186.5t233.5 63.5z" />
    <glyph glyph-name="o" unicode="o" horiz-adv-x="1263" 
d="M631 -23q-222 0 -379 154q-156 156 -156 381q0 226 156 379q156 156 379 156q225 0 381 -156q155 -152 155 -379q0 -226 -155 -381q-157 -154 -381 -154zM301 180q136 -133 330 -133t330 133q135 135 135 332q0 198 -135 330q-135 135 -330 135t-330 -135
q-133 -133 -133 -330q0 -196 133 -332z" />
    <glyph glyph-name="p" unicode="p" 
d="M711 1047q220 0 376 -156q156 -153 156 -379q0 -225 -156 -381q-157 -154 -376 -154q-156 0 -279.5 79t-187.5 216v-682h-74v1434h74v-272q64 137 187.5 216t279.5 79zM377 180q136 -133 330 -133t327 133q135 135 135 332q0 198 -135 330q-132 135 -327 135t-330 -135
q-133 -133 -133 -330q0 -196 133 -332z" />
    <glyph glyph-name="q" unicode="q" 
d="M1094 752v272h73v-1434h-73v682q-64 -137 -187.5 -216t-279.5 -79q-220 0 -377 154q-156 156 -156 381q0 226 156 379q156 156 377 156q156 0 279.5 -79t187.5 -216zM301 180q136 -133 330 -133t327 133q136 136 136 332q0 197 -136 330q-132 135 -327 135t-330 -135
q-133 -133 -133 -330q0 -196 133 -332z" />
    <glyph glyph-name="r" unicode="r" horiz-adv-x="657" 
d="M244 1024v-231q43 120 139.5 182.5t220.5 62.5v-69q-151 0 -256 -105q-104 -101 -104 -295v-569h-74v1024h74z" />
    <glyph glyph-name="s" unicode="s" horiz-adv-x="944" 
d="M207 758q0 -141 227 -197q164 -35 225 -58q165 -62 187 -190q4 -21 4 -45q0 -126 -102 -209q-101 -82 -261 -82q-303 0 -385 224l60 35q65 -189 325 -189q126 0 207.5 61t81.5 160q0 150 -227 199q-12 3 -55 13t-59 13.5t-55.5 14.5t-56.5 18.5t-49.5 22t-47.5 27.5
t-36.5 33t-31.5 41t-17.5 49t-7.5 59q0 123 94 205q96 84 252 84q120 0 209.5 -54t128.5 -147l-59 -35q-32 79 -106 122.5t-173 43.5q-119 0 -195.5 -60.5t-76.5 -158.5z" />
    <glyph glyph-name="t" unicode="t" horiz-adv-x="774" 
d="M678 1024v-68h-316v-714q0 -130 70 -164q73 -36 246 -15v-63q-202 -31 -294.5 26t-92.5 216v714h-236v68h236v264l71 23v-287h316z" />
    <glyph glyph-name="u" unicode="u" horiz-adv-x="1165" 
d="M922 479v545h73v-1024h-73v227q-53 -123 -153.5 -186.5t-233.5 -63.5q-179 0 -287 111q-107 110 -107 293v643h72v-643q0 -151 88.5 -242.5t239.5 -91.5q170 0 275.5 116.5t105.5 315.5z" />
    <glyph glyph-name="v" unicode="v" horiz-adv-x="1046" 
d="M524 76l412 948h78l-449 -1024h-84l-446 1024h76z" />
    <glyph glyph-name="w" unicode="w" horiz-adv-x="1576" 
d="M1133 94l294 930h74l-327 -1024h-80l-306 926l-305 -926h-80l-327 1024h74l294 -930l306 930h77z" />
    <glyph glyph-name="x" unicode="x" horiz-adv-x="1030" 
d="M559 526l418 -526h-88l-373 471l-373 -471h-88l418 526l-395 498h86l352 -442l350 442h88z" />
    <glyph glyph-name="y" unicode="y" horiz-adv-x="1044" 
d="M551 55l385 969h74l-445 -1118q-62 -154 -169 -240t-230 -76v68q101 -10 188 61t142 203l20 45l-481 1057h74z" />
    <glyph glyph-name="z" unicode="z" horiz-adv-x="989" 
d="M874 979l-659 -911h680v-68h-778v45l657 911h-637v68h737v-45z" />
    <glyph glyph-name="braceleft" unicode="{" horiz-adv-x="702" 
d="M662 -154v-69q-153 -13 -232.5 57t-79.5 217v428q0 111 -55 158t-178 47v70q123 0 178 46.5t55 157.5v426q0 147 79.5 217.5t232.5 57.5v-68q-240 24 -240 -207v-426q0 -204 -166 -241q166 -34 166 -238v-428q0 -232 240 -205z" />
    <glyph glyph-name="bar" unicode="|" horiz-adv-x="454" 
d="M264 -410h-74v1885h74v-1885z" />
    <glyph glyph-name="braceright" unicode="}" horiz-adv-x="702" 
d="M41 -223v69q240 -27 240 205v428q0 204 165 238q-165 37 -165 241v426q0 231 -240 207v68q153 13 232 -57.5t79 -217.5v-426q0 -111 55.5 -157.5t178.5 -46.5v-70q-123 0 -178.5 -47t-55.5 -158v-428q0 -147 -79 -217t-232 -57z" />
    <glyph glyph-name="asciitilde" unicode="~" horiz-adv-x="1185" 
d="M985 834l66 -29q-37 -121 -136 -187q-51 -37 -142.5 -20.5t-197.5 88.5q-89 62 -161.5 78t-112.5 -14q-73 -52 -98 -150l-66 29q28 116 133 184q53 39 143.5 23t196.5 -88q91 -62 164 -78t113 14q40 29 63 64t35 86z" />
    <glyph glyph-name="exclamdown" unicode="&#xa1;" horiz-adv-x="430" 
d="M164 1024q20 20 51 20t51 -20t20 -51t-20 -51t-51 -20t-51 20t-20 51t20 51zM174 0l10 676h62l10 -676v-410h-82v410z" />
    <glyph glyph-name="cent" unicode="&#xa2;" horiz-adv-x="1167" 
d="M1022 473l59 -35q-60 -118 -181 -187t-269 -69q-73 0 -160 23l-68 -205h-61l74 225q-147 62 -233.5 194.5t-86.5 297.5q0 227 154 381q153 153 381 153q63 0 121 -12l65 195h62l-70 -211q193 -65 270 -228l-59 -34q-70 143 -234 196l-292 -887q65 -18 137 -18
q129 0 232.5 60t158.5 161zM168 717q0 -142 73 -256t197 -170l293 880q-68 11 -100 11q-198 0 -330 -135q-133 -133 -133 -330z" />
    <glyph glyph-name="sterling" unicode="&#xa3;" horiz-adv-x="1218" 
d="M385 608v-536h797v-72h-1086v72h213v536h-172v68h172v383q0 181 117 289q120 108 291 108q134 0 229.5 -67.5t143.5 -192.5l-62 -35q-76 223 -311 223q-150 0 -241 -89t-91 -236v-383h512v-68h-512z" />
    <glyph glyph-name="currency" unicode="&#xa4;" horiz-adv-x="1132" 
d="M999 717q0 -169 -106 -287l145 -145l-41 -37l-145 141q-119 -104 -285 -104q-168 0 -286 106l-144 -143l-41 37l144 145q-107 122 -107 287t107 287l-144 145l41 37l144 -142q120 105 286 105q168 0 287 -107l143 144l41 -37l-145 -145q106 -121 106 -287zM309 975
q-104 -104 -104 -258t104 -258q108 -105 258 -105q151 0 256 105t105 258t-105 258q-104 104 -256 104q-151 0 -258 -104z" />
    <glyph glyph-name="yen" unicode="&#xa5;" horiz-adv-x="1157" 
d="M1067 1434h84l-463 -738h320v-63h-359l-26 -41v-150h385v-65h-385v-377h-76v377h-393v65h393v152l-25 39h-368v63h329l-463 738h84l461 -738h41z" />
    <glyph glyph-name="brokenbar" unicode="&#xa6;" horiz-adv-x="454" 
d="M264 717h-74v758h74v-758zM264 -410h-74v758h74v-758z" />
    <glyph glyph-name="section" unicode="&#xa7;" horiz-adv-x="1038" 
d="M803 279q98 -88 98 -211q0 -130 -99.5 -213.5t-262.5 -83.5q-148 0 -250 67t-146 195l60 35q70 -230 336 -230q128 0 209 63t81 167q0 42 -20 83t-49 70q-30 30 -82 58q-51 33 -90 49l-105 47q-91 40 -134.5 62.5t-98.5 60.5q-113 82 -113 211q0 150 142 239
q-95 83 -95 207q0 127 97 215q95 86 249 86q128 0 222.5 -60.5t138.5 -172.5l-60 -35q-76 198 -301 198q-119 0 -196.5 -64.5t-77.5 -166.5q0 -32 18 -88q28 -48 91 -96q41 -27 86 -49l47 -23l53 -22q19 -7 51 -23q67 -29 125 -59q34 -15 102 -66q113 -78 113 -213
q0 -148 -139 -237zM209 709q0 -104 94 -168q76 -49 207 -105q169 -67 238 -114q122 70 122 194q0 93 -69.5 152.5t-227.5 124.5q-190 80 -239 114q-125 -70 -125 -198z" />
    <glyph glyph-name="dieresis" unicode="&#xa8;" horiz-adv-x="546" 
d="M98 1184q-23 0 -40 17t-17 42q0 23 17 40t40 17q25 0 42.5 -17t17.5 -40q0 -25 -17.5 -42t-42.5 -17zM446 1184q-23 0 -40 17t-17 42q0 23 17 40t40 17q25 0 42.5 -17t17.5 -40q0 -25 -17.5 -42t-42.5 -17z" />
    <glyph glyph-name="copyright" unicode="&#xa9;" horiz-adv-x="1701" 
d="M1374 193q-219 -216 -524 -216t-524 216q-217 217 -217 524q0 308 217 522q217 217 524 217t524 -217q217 -214 217 -522q0 -307 -217 -524zM360 225q202 -202 490 -202q287 0 489 202q205 202 205 492q0 289 -205 491q-203 203 -489 203q-287 0 -490 -203
q-202 -202 -202 -491q0 -290 202 -492zM856 324q-173 0 -285 112t-112 281q0 166 112 278q115 115 285 115q109 0 197.5 -51t136.5 -139l-62 -35q-35 74 -107.5 115.5t-164.5 41.5q-140 0 -233 -96t-93 -229q0 -136 93 -232q91 -94 233 -94q91 0 164 42t110 116l60 -35
q-44 -88 -134 -139t-200 -51z" />
    <glyph glyph-name="guillemotleft" unicode="&#xab;" horiz-adv-x="915" 
d="M395 975h86l-211 -342l211 -342h-86l-211 342zM645 975h86l-213 -342l213 -342h-86l-213 342z" />
    <glyph glyph-name="logicalnot" unicode="&#xac;" horiz-adv-x="1064" 
d="M137 715v67h791v-342h-72v275h-719z" />
    <glyph glyph-name="registered" unicode="&#xae;" horiz-adv-x="1701" 
d="M326 1239q217 217 524 217t524 -217q217 -214 217 -522q0 -307 -217 -524q-219 -216 -524 -216t-524 216q-217 217 -217 524q0 308 217 522zM360 225q202 -202 490 -202q287 0 489 202q205 202 205 492q0 289 -205 491q-203 203 -489 203q-287 0 -490 -203
q-202 -202 -202 -491q0 -290 202 -492zM1133 866q0 -178 -170 -219l186 -309h-78l-178 299q-6 -2 -35 -2h-149v-297h-70v758h219q129 0 202 -66t73 -164zM709 1030v-330h153q201 0 201 166q0 73 -54.5 118.5t-146.5 45.5h-153z" />
    <glyph glyph-name="overscore" unicode="&#xaf;" horiz-adv-x="587" 
d="M547 1217h-506v61h506v-61z" />
    <glyph glyph-name="degree" unicode="&#xb0;" horiz-adv-x="790" 
d="M395 1071q-127 0 -213 86t-86 209q0 124 86 207q86 86 213 86t213 -86q86 -83 86 -207q0 -123 -86 -209q-83 -86 -213 -86zM625 1366q0 97 -66 162t-164 65t-163.5 -65t-65.5 -162t65.5 -163t163.5 -66t164 65.5t66 163.5z" />
    <glyph glyph-name="plusminus" unicode="&#xb1;" horiz-adv-x="1079" 
d="M575 1235v-358h367v-68h-367v-358h-71v358h-367v68h367v358h71zM942 199h-805v67h805v-67z" />
    <glyph glyph-name="acute" unicode="&#xb4;" horiz-adv-x="329" 
d="M41 1167l164 252h84l-180 -252h-68z" />
    <glyph glyph-name="uni00B5" unicode="&#xb5;" horiz-adv-x="1247" 
d="M1118 68h53v-68h-59q-73 0 -116.5 44.5t-43.5 119.5v67q-54 -124 -154.5 -189t-234.5 -65q-224 0 -319 173v-560h-74v1434h74v-643q0 -151 87 -242.5t238 -91.5q173 0 278 116t105 316v545h72v-860q0 -44 25.5 -70t68.5 -26z" />
    <glyph glyph-name="paragraph" unicode="&#xb6;" horiz-adv-x="1146" 
d="M477 1434h574v-68h-123v-1776h-70v1776h-309v-1776h-72v1080q-157 0 -270 110q-111 114 -111 271q0 159 111 270q113 113 270 113z" />
    <glyph glyph-name="middot" unicode="&#xb7;" horiz-adv-x="403" 
d="M201 625q-30 0 -51 20.5t-21 50.5t21 51t51 21q43 0 61 -36t0 -71.5t-61 -35.5z" />
    <glyph glyph-name="cedilla" unicode="&#xb8;" horiz-adv-x="434" 
d="M223 0v-139q77 0 131 -38t54 -99q0 -85 -95 -125.5t-284 -22.5v59q313 -34 313 89q0 97 -182 88v188h63z" />
    <glyph glyph-name="guillemotright" unicode="&#xbb;" horiz-adv-x="915" 
d="M184 975h86l213 -342l-213 -342h-86l213 342zM434 975h86l211 -342l-211 -342h-86l211 342z" />
    <glyph glyph-name="onequarter" unicode="&#xbc;" horiz-adv-x="1712" 
d="M348 1434v-820h-69v738l-226 -78l-18 59l262 101h51zM285 0l848 1434h67l-846 -1434h-69zM1538 238h121v-64h-121v-174h-70v174h-450v64l313 581h72l-311 -581h376v231h70v-231z" />
    <glyph glyph-name="onehalf" unicode="&#xbd;" horiz-adv-x="1685" 
d="M348 1434v-820h-69v738l-226 -78l-18 59l262 101h51zM285 0l848 1434h67l-846 -1434h-69zM1477 362l-316 -296h451v-66h-555v55l370 351q99 92 99 196q0 76 -53.5 126t-143.5 50q-159 0 -209 -145l-59 33q30 83 100.5 130.5t169.5 47.5q119 0 191.5 -68.5t72.5 -173.5
q0 -128 -118 -240z" />
    <glyph glyph-name="threequarters" unicode="&#xbe;" horiz-adv-x="1916" 
d="M621 848q0 -114 -77 -186t-206 -72q-207 0 -272 158l57 32q52 -125 215 -125q101 0 157 53t56 140q0 84 -56.5 137t-156.5 53h-6l-35 52l211 278h-420v66h500v-66l-207 -272q111 -12 175.5 -80t64.5 -168zM489 0l848 1434h68l-846 -1434h-70zM1743 238h121v-64h-121v-174
h-70v174h-450v64l313 581h72l-312 -581h377v231h70v-231z" />
    <glyph glyph-name="questiondown" unicode="&#xbf;" horiz-adv-x="1081" 
d="M573 1044q30 0 51 -20.5t21 -50.5t-21 -51t-51 -21q-43 0 -61 35.5t0 71.5t61 36zM535 676h75q0 -94 -38.5 -182t-102.5 -158q-16 -18 -57.5 -62.5t-61.5 -66.5t-52 -63t-47 -71t-27.5 -69.5t-12.5 -77.5q0 -132 89.5 -209t246.5 -77q129 0 225.5 61t128.5 164l64 -35
q-42 -120 -157.5 -191t-260.5 -71q-185 0 -297.5 96.5t-112.5 261.5q0 151 139 301q4 5 34.5 37t37.5 40t34 38t35.5 42.5t30.5 42t30 46.5t22 45.5t19.5 51t10.5 50.5t5 56z" />
    <glyph glyph-name="Agrave" unicode="&#xc0;" horiz-adv-x="1288" 
d="M555 1829l164 -252h-68l-180 252h84zM1247 0h-80l-147 379h-752l-147 -379h-80l561 1434h82zM643 1346l-348 -897h698z" />
    <glyph glyph-name="Aacute" unicode="&#xc1;" horiz-adv-x="1288" 
d="M739 1829h84l-180 -252h-68zM1247 0h-80l-147 379h-752l-147 -379h-80l561 1434h82zM643 1346l-348 -897h698z" />
    <glyph glyph-name="Acircumflex" unicode="&#xc2;" horiz-adv-x="1288" 
d="M825 1577l-186 209l-184 -209h-82l225 252h84l225 -252h-82zM1247 0h-80l-147 379h-752l-147 -379h-80l561 1434h82zM643 1346l-348 -897h698z" />
    <glyph glyph-name="Atilde" unicode="&#xc3;" horiz-adv-x="1288" 
d="M637 1675q-91 88 -146 71t-55 -134h-63q0 152 84 190q85 40 194 -65q91 -88 145 -70.5t54 133.5h63q0 -152 -86 -190q-82 -37 -190 65zM1247 0h-80l-147 379h-752l-147 -379h-80l561 1434h82zM643 1346l-348 -897h698z" />
    <glyph glyph-name="Adieresis" unicode="&#xc4;" horiz-adv-x="1288" 
d="M469 1593q-23 0 -40 17.5t-17 42.5q0 23 17 40t40 17q25 0 42 -17t17 -40q0 -25 -17 -42.5t-42 -17.5zM817 1593q-23 0 -40 17.5t-17 42.5q0 23 17 40t40 17q25 0 42.5 -17t17.5 -40q0 -25 -17.5 -42.5t-42.5 -17.5zM1247 0h-80l-147 379h-752l-147 -379h-80l561 1434h82
zM643 1346l-348 -897h698z" />
    <glyph glyph-name="Aring" unicode="&#xc5;" horiz-adv-x="1288" 
d="M1247 0h-80l-147 379h-752l-147 -379h-80l547 1399q-66 17 -106 67t-40 117q0 83 56.5 137t146.5 54t145.5 -54t55.5 -137q0 -69 -40.5 -120t-107.5 -64zM543 1679q-38 -37 -38 -96.5t38 -97.5q38 -37 101.5 -37t100.5 37q38 37 38 98t-38 98q-37 37 -100.5 36.5
t-101.5 -38.5zM643 1346l-348 -897h698z" />
    <glyph glyph-name="AE" unicode="&#xc6;" horiz-adv-x="1771" 
d="M993 688v-618h684v-70h-757v395h-578l-242 -395h-86l877 1434h776v-70h-674v-606h629v-70h-629zM920 1343l-537 -878h537v878z" />
    <glyph glyph-name="Ccedilla" unicode="&#xc7;" horiz-adv-x="1552" 
d="M1399 362l67 -36q-83 -152 -239 -246q-152 -94 -338 -103v-116q77 0 130.5 -38t53.5 -99q0 -85 -95 -125.5t-284 -22.5v59q314 -35 314 89q0 97 -183 88v165q-308 9 -514 224q-202 211 -202 516q0 311 210 524q212 215 533 215q190 0 354 -92q165 -92 254 -246l-65 -39
q-80 140 -226 222.5t-317 82.5q-288 0 -479 -194q-189 -195 -189 -473q0 -280 189 -475q190 -193 479 -193q174 0 324 84q147 85 223 229z" />
    <glyph glyph-name="Egrave" unicode="&#xc8;" horiz-adv-x="1099" 
d="M504 1829l164 -252h-68l-180 252h84zM266 688v-618h738v-70h-814v1434h803v-70h-727v-606h676v-70h-676z" />
    <glyph glyph-name="Eacute" unicode="&#xc9;" horiz-adv-x="1099" 
d="M688 1829h84l-180 -252h-68zM266 688v-618h738v-70h-814v1434h803v-70h-727v-606h676v-70h-676z" />
    <glyph glyph-name="Ecircumflex" unicode="&#xca;" horiz-adv-x="1099" 
d="M774 1577l-186 209l-185 -209h-81l225 252h84l225 -252h-82zM266 688v-618h738v-70h-814v1434h803v-70h-727v-606h676v-70h-676z" />
    <glyph glyph-name="Edieresis" unicode="&#xcb;" horiz-adv-x="1099" 
d="M418 1593q-23 0 -40.5 17.5t-17.5 42.5q0 23 17.5 40t40.5 17q25 0 42 -17t17 -40q0 -25 -17 -42.5t-42 -17.5zM766 1593q-23 0 -40 17.5t-17 42.5q0 23 17 40t40 17q25 0 42 -17t17 -40q0 -25 -17 -42.5t-42 -17.5zM266 688v-618h738v-70h-814v1434h803v-70h-727v-606
h676v-70h-676z" />
    <glyph glyph-name="Igrave" unicode="&#xcc;" horiz-adv-x="456" 
d="M305 1577h-67l-181 252h84zM190 1434v-1434h76v1434h-76z" />
    <glyph glyph-name="Iacute" unicode="&#xcd;" horiz-adv-x="456" 
d="M162 1577l164 252h84l-181 -252h-67zM190 1434v-1434h76v1434h-76z" />
    <glyph glyph-name="Icircumflex" unicode="&#xce;" horiz-adv-x="456" 
d="M184 1829h84l226 -252h-82l-187 209l-184 -209h-82zM266 0h-76v1434h76v-1434z" />
    <glyph glyph-name="Idieresis" unicode="&#xcf;" horiz-adv-x="456" 
d="M55 1593q-23 0 -40 17.5t-17 42.5q0 23 17 40t40 17q25 0 42.5 -17t17.5 -40q0 -25 -17.5 -42.5t-42.5 -17.5zM403 1593q-23 0 -40 17.5t-17 42.5q0 23 17 40t40 17q25 0 42.5 -17t17.5 -40q0 -25 -17.5 -42.5t-42.5 -17.5zM190 0v1434h76v-1434h-76z" />
    <glyph glyph-name="Eth" unicode="&#xd0;" horiz-adv-x="1542" 
d="M231 1434h527q292 0 483 -209q193 -205 193 -508q0 -302 -193 -510q-192 -207 -483 -207h-527v682h-129v70h129v682zM307 70h451q264 0 432 186q170 188 170 461q0 271 -170 459t-432 188h-451v-612h533v-70h-533v-612z" />
    <glyph glyph-name="Ntilde" unicode="&#xd1;" horiz-adv-x="1419" 
d="M489 1612h-63q0 152 84 190q86 41 195 -65q91 -87 144.5 -70t53.5 133h64q0 -152 -86 -190q-82 -37 -191 65q-91 88 -146 71t-55 -134zM1153 135v1299h76v-1434h-68l-895 1298v-1298h-76v1434h70z" />
    <glyph glyph-name="Ograve" unicode="&#xd2;" horiz-adv-x="1695" 
d="M950 1577h-67l-181 252h84zM1370 193q217 217 217 524q0 308 -217 522q-214 217 -522 217q-307 0 -524 -217q-215 -215 -215 -522q0 -306 215 -524q219 -216 524 -216q306 0 522 216zM377 244q-193 196 -193 473q0 278 193 471q193 196 471 196q276 0 469 -196
q194 -194 194 -471q0 -276 -194 -473q-195 -195 -469 -195q-276 0 -471 195z" />
    <glyph glyph-name="Oacute" unicode="&#xd3;" horiz-adv-x="1695" 
d="M834 1577l163 252h84l-180 -252h-67zM1370 193q217 217 217 524q0 308 -217 522q-214 217 -522 217q-307 0 -524 -217q-215 -215 -215 -522q0 -306 215 -524q219 -216 524 -216q306 0 522 216zM377 244q-193 196 -193 473q0 278 193 471q193 196 471 196q276 0 469 -196
q194 -194 194 -471q0 -276 -194 -473q-195 -195 -469 -195q-276 0 -471 195z" />
    <glyph glyph-name="Ocircumflex" unicode="&#xd4;" horiz-adv-x="1695" 
d="M1032 1577l-186 209l-184 -209h-82l225 252h84l225 -252h-82zM324 1239q217 217 524 217q308 0 522 -217q217 -214 217 -522q0 -307 -217 -524q-216 -216 -522 -216q-305 0 -524 216q-215 218 -215 524q0 307 215 522zM377 244q195 -195 471 -195q274 0 469 195
q194 197 194 473q0 277 -194 471q-193 196 -469 196q-278 0 -471 -196q-193 -193 -193 -471q0 -277 193 -473z" />
    <glyph glyph-name="Otilde" unicode="&#xd5;" horiz-adv-x="1695" 
d="M641 1612h-63q0 152 84 190q85 40 194 -65q91 -88 145 -70.5t54 133.5h63q0 -152 -86 -190q-82 -37 -190 65q-91 88 -146 71t-55 -134zM1370 193q-216 -216 -522 -216q-305 0 -524 216q-215 218 -215 524q0 307 215 522q217 217 524 217q308 0 522 -217
q217 -214 217 -522q0 -307 -217 -524zM377 244q195 -195 471 -195q274 0 469 195q194 197 194 473q0 277 -194 471q-193 196 -469 196q-278 0 -471 -196q-193 -193 -193 -471q0 -277 193 -473z" />
    <glyph glyph-name="Odieresis" unicode="&#xd6;" horiz-adv-x="1695" 
d="M674 1593q-23 0 -40.5 17.5t-17.5 42.5q0 23 17.5 40t40.5 17q25 0 42 -17t17 -40q0 -25 -17 -42.5t-42 -17.5zM1022 1593q-23 0 -40 17.5t-17 42.5q0 23 17 40t40 17q25 0 42 -17t17 -40q0 -25 -17 -42.5t-42 -17.5zM1370 193q-216 -216 -522 -216q-305 0 -524 216
q-215 218 -215 524q0 307 215 522q217 217 524 217q308 0 522 -217q217 -214 217 -522q0 -307 -217 -524zM377 244q195 -195 471 -195q274 0 469 195q194 197 194 473q0 277 -194 471q-193 196 -469 196q-278 0 -471 -196q-193 -193 -193 -471q0 -277 193 -473z" />
    <glyph glyph-name="multiply" unicode="&#xd7;" horiz-adv-x="954" 
d="M776 1063l49 -45l-301 -301l301 -301l-49 -45l-299 299l-297 -299l-51 45l301 301l-301 301l51 45l297 -299z" />
    <glyph glyph-name="Oslash" unicode="&#xd8;" horiz-adv-x="1716" 
d="M1497 1403l-125 -146q236 -217 236 -540q0 -307 -217 -524q-216 -216 -523 -216q-256 0 -458 158l-117 -135l-51 31l123 143q-236 217 -236 543q0 307 215 522q217 217 524 217q257 0 459 -158l117 136zM205 717q0 -287 207 -488l868 1012q-177 143 -412 143
q-278 0 -471 -196q-192 -192 -192 -471zM868 49q274 0 469 195q195 198 195 473q0 287 -207 485l-868 -1012q181 -141 411 -141z" />
    <glyph glyph-name="Ugrave" unicode="&#xd9;" horiz-adv-x="1378" 
d="M758 1577h-68l-180 252h84zM170 469q0 -218 141 -356q145 -136 379 -136q235 0 377 136q141 138 141 356v965h-75v-965q0 -188 -118 -304t-325 -116q-209 0 -326.5 115.5t-117.5 304.5v965h-76v-965z" />
    <glyph glyph-name="Uacute" unicode="&#xda;" horiz-adv-x="1378" 
d="M647 1577l164 252h84l-180 -252h-68zM170 469q0 -218 141 -356q145 -136 379 -136q235 0 377 136q141 138 141 356v965h-75v-965q0 -188 -118 -304t-325 -116q-209 0 -326.5 115.5t-117.5 304.5v965h-76v-965z" />
    <glyph glyph-name="Ucircumflex" unicode="&#xdb;" horiz-adv-x="1378" 
d="M864 1577l-186 209l-184 -209h-82l225 252h84l225 -252h-82zM1133 469v965h75v-965q0 -218 -141 -356q-142 -136 -377 -136q-234 0 -379 136q-141 138 -141 356v965h76v-965q0 -189 117.5 -304.5t326.5 -115.5q207 0 325 116t118 304z" />
    <glyph glyph-name="Udieresis" unicode="&#xdc;" horiz-adv-x="1378" 
d="M508 1593q-23 0 -40 17.5t-17 42.5q0 23 17 40t40 17q25 0 42 -17t17 -40q0 -25 -17 -42.5t-42 -17.5zM856 1593q-23 0 -40 17.5t-17 42.5q0 23 17 40t40 17q25 0 42 -17t17 -40q0 -25 -17 -42.5t-42 -17.5zM170 469v965h76v-965q0 -189 117.5 -304.5t326.5 -115.5
q207 0 325 116t118 304v965h75v-965q0 -218 -141 -356q-142 -136 -377 -136q-234 0 -379 136q-141 138 -141 356z" />
    <glyph glyph-name="Yacute" unicode="&#xdd;" horiz-adv-x="1171" 
d="M698 1829h84l-180 -252h-67zM1067 1434h84l-528 -842v-592h-76v594l-527 840h84l482 -770z" />
    <glyph glyph-name="Thorn" unicode="&#xde;" horiz-adv-x="1193" 
d="M266 1153h389q193 0 318 -125q127 -124 127 -311t-127 -314q-125 -122 -318 -122h-389v-281h-76v1434h76v-281zM266 350h389q159 0 265 103q104 104 104 264q0 161 -104 262q-104 104 -265 104h-389v-733z" />
    <glyph glyph-name="germandbls" unicode="&#xdf;" horiz-adv-x="1056" 
d="M594 -8v65q158 -8 247 53.5t89 178.5q0 67 -45 141t-109 135q-151 147 -151 242q0 35 19.5 69.5t47.5 63.5t56 59.5t47.5 70t19.5 81.5q0 106 -70.5 170.5t-191.5 64.5q-143 0 -226 -87.5t-83 -241.5v-1057h-74v1057q0 185 104 292t279 107q154 0 244 -86t90 -219
q0 -49 -20 -93t-48.5 -76t-56.5 -60.5t-48 -58t-20 -56.5q0 -63 109 -172q33 -33 54.5 -56t51.5 -61t48 -70.5t31 -75t13 -83.5q0 -144 -110 -225.5t-297 -71.5z" />
    <glyph glyph-name="agrave" unicode="&#xe0;" 
d="M629 1419l164 -252h-68l-180 252h84zM1096 750v274h71v-1024h-71v274q-62 -136 -187.5 -216.5t-279.5 -80.5q-220 0 -377 154q-156 156 -156 381q0 226 156 379q156 156 377 156q154 0 279.5 -80.5t187.5 -216.5zM301 180q136 -133 330 -133t330 133q135 135 135 332
q0 198 -135 330q-135 135 -330 135t-330 -135q-133 -133 -133 -330q0 -196 133 -332z" />
    <glyph glyph-name="aacute" unicode="&#xe1;" 
d="M825 1419h84l-180 -252h-67zM1096 750v274h71v-1024h-71v274q-62 -136 -187.5 -216.5t-279.5 -80.5q-220 0 -377 154q-156 156 -156 381q0 226 156 379q156 156 377 156q154 0 279.5 -80.5t187.5 -216.5zM301 180q136 -133 330 -133t330 133q135 135 135 332
q0 198 -135 330q-135 135 -330 135t-330 -135q-133 -133 -133 -330q0 -196 133 -332z" />
    <glyph glyph-name="acircumflex" unicode="&#xe2;" 
d="M915 1167l-186 209l-184 -209h-82l225 252h84l225 -252h-82zM1096 750v274h71v-1024h-71v274q-62 -136 -187.5 -216.5t-279.5 -80.5q-220 0 -377 154q-156 156 -156 381q0 226 156 379q156 156 377 156q154 0 279.5 -80.5t187.5 -216.5zM301 180q136 -133 330 -133
t330 133q135 135 135 332q0 198 -135 330q-135 135 -330 135t-330 -135q-133 -133 -133 -330q0 -196 133 -332z" />
    <glyph glyph-name="atilde" unicode="&#xe3;" 
d="M717 1266q-91 88 -146 70.5t-55 -134.5h-63q0 153 84 191q85 40 194 -66q91 -87 145 -69.5t54 133.5h63q0 -153 -86 -191q-81 -37 -190 66zM1096 750v274h71v-1024h-71v274q-62 -136 -187.5 -216.5t-279.5 -80.5q-220 0 -377 154q-156 156 -156 381q0 226 156 379
q156 156 377 156q154 0 279.5 -80.5t187.5 -216.5zM301 180q136 -133 330 -133t330 133q135 135 135 332q0 198 -135 330q-135 135 -330 135t-330 -135q-133 -133 -133 -330q0 -196 133 -332z" />
    <glyph glyph-name="adieresis" unicode="&#xe4;" 
d="M457 1184q-23 0 -40.5 17t-17.5 42q0 23 17.5 40t40.5 17q25 0 42 -17t17 -40q0 -25 -17 -42t-42 -17zM805 1184q-23 0 -40 17t-17 42q0 23 17 40t40 17q25 0 42 -17t17 -40q0 -25 -17 -42t-42 -17zM1096 750v274h71v-1024h-71v274q-62 -136 -187.5 -216.5t-279.5 -80.5
q-220 0 -377 154q-156 156 -156 381q0 226 156 379q156 156 377 156q154 0 279.5 -80.5t187.5 -216.5zM301 180q136 -133 330 -133t330 133q135 135 135 332q0 198 -135 330q-135 135 -330 135t-330 -135q-133 -133 -133 -330q0 -196 133 -332z" />
    <glyph glyph-name="aring" unicode="&#xe5;" 
d="M776 1194q-56 -53 -145 -53t-148 53q-55 55 -55 137q0 83 55 135q59 56 148 56t145 -56q55 -52 55 -135q0 -82 -55 -137zM731 1430q-37 37 -101 36t-102 -39q-38 -37 -38 -96.5t38 -97.5q38 -37 102 -37t101 37q38 37 38 98.5t-38 98.5zM1096 750v274h71v-1024h-71v274
q-62 -136 -187.5 -216.5t-279.5 -80.5q-220 0 -377 154q-156 156 -156 381q0 226 156 379q156 156 377 156q154 0 279.5 -80.5t187.5 -216.5zM301 180q136 -133 330 -133t330 133q135 135 135 332q0 198 -135 330q-135 135 -330 135t-330 -135q-133 -133 -133 -330
q0 -196 133 -332z" />
    <glyph glyph-name="ae" unicode="&#xe6;" horiz-adv-x="2211" 
d="M1622 1047q227 0 363 -160q135 -156 135 -379q0 -29 -2 -35h-949q12 -192 138 -309t319 -117q132 0 233.5 53t151.5 146l64 -37q-64 -107 -181.5 -169.5t-261.5 -62.5q-163 0 -284.5 77.5t-182.5 215.5v-270h-69v274q-62 -136 -187.5 -216.5t-279.5 -80.5
q-220 0 -377 154q-156 156 -156 381q0 226 156 379q156 156 377 156q154 0 279.5 -80.5t187.5 -216.5v274h69v-270q58 136 178.5 214.5t278.5 78.5zM301 180q136 -133 330 -133t330 133q135 135 135 332q0 198 -135 330q-135 135 -330 135t-330 -135q-133 -133 -133 -330
q0 -196 133 -332zM1620 977q-190 0 -317 -121t-136 -315h881q-13 200 -130.5 318t-297.5 118z" />
    <glyph glyph-name="ccedilla" unicode="&#xe7;" horiz-adv-x="1167" 
d="M1022 268l59 -35q-54 -108 -163 -175t-246 -78v-119q77 0 130.5 -38t53.5 -99q0 -85 -95 -125.5t-284 -22.5v59q314 -35 314 89q0 97 -183 88v165q-219 9 -366 162q-146 155 -146 373q0 227 154 381t381 154q149 0 270 -69.5t178 -186.5l-59 -35q-50 101 -155 161
t-234 60q-198 0 -330 -135q-133 -133 -133 -330q0 -196 133 -332q133 -133 330 -133q129 0 232.5 60t158.5 161z" />
    <glyph glyph-name="egrave" unicode="&#xe8;" horiz-adv-x="1216" 
d="M518 1419l164 -252h-68l-180 252h84zM618 1047q226 0 365 -160q141 -159 141 -379q0 -29 -2 -35h-952q12 -189 141 -309q129 -117 318 -117q127 0 227 53.5t150 145.5l63 -37q-62 -107 -178 -169.5t-262 -62.5q-233 0 -383 150t-150 385q0 227 148 381t374 154zM618 977
q-189 0 -315 -123q-126 -120 -135 -313h883q-15 197 -138 317q-119 119 -295 119z" />
    <glyph glyph-name="eacute" unicode="&#xe9;" horiz-adv-x="1216" 
d="M748 1419h83l-180 -252h-67zM618 1047q226 0 365 -160q141 -159 141 -379q0 -29 -2 -35h-952q12 -189 141 -309q129 -117 318 -117q127 0 227 53.5t150 145.5l63 -37q-62 -107 -178 -169.5t-262 -62.5q-233 0 -383 150t-150 385q0 227 148 381t374 154zM618 977
q-189 0 -315 -123q-126 -120 -135 -313h883q-15 197 -138 317q-119 119 -295 119z" />
    <glyph glyph-name="ecircumflex" unicode="&#xea;" horiz-adv-x="1216" 
d="M805 1167l-187 209l-184 -209h-82l226 252h84l225 -252h-82zM618 1047q226 0 365 -160q141 -159 141 -379q0 -29 -2 -35h-952q12 -189 141 -309q129 -117 318 -117q127 0 227 53.5t150 145.5l63 -37q-62 -107 -178 -169.5t-262 -62.5q-233 0 -383 150t-150 385
q0 227 148 381t374 154zM618 977q-189 0 -315 -123q-126 -120 -135 -313h883q-15 197 -138 317q-119 119 -295 119z" />
    <glyph glyph-name="edieresis" unicode="&#xeb;" horiz-adv-x="1216" 
d="M432 1184q-23 0 -40 17t-17 42q0 23 17 40t40 17q25 0 42.5 -17t17.5 -40q0 -25 -17.5 -42t-42.5 -17zM780 1184q-23 0 -40 17t-17 42q0 23 17 40t40 17q25 0 42.5 -17t17.5 -40q0 -25 -17.5 -42t-42.5 -17zM618 1047q226 0 365 -160q141 -159 141 -379q0 -29 -2 -35
h-952q12 -189 141 -309q129 -117 318 -117q127 0 227 53.5t150 145.5l63 -37q-62 -107 -178 -169.5t-262 -62.5q-233 0 -383 150t-150 385q0 227 148 381t374 154zM618 977q-189 0 -315 -123q-126 -120 -135 -313h883q-15 197 -138 317q-119 119 -295 119z" />
    <glyph glyph-name="igrave" unicode="&#xec;" horiz-adv-x="413" 
d="M289 1167h-68l-139 252h84zM244 0v1024h-74v-1024h74z" />
    <glyph glyph-name="iacute" unicode="&#xed;" horiz-adv-x="413" 
d="M133 1167l123 252h82l-137 -252h-68zM170 0h74v1024h-74v-1024z" />
    <glyph glyph-name="icircumflex" unicode="&#xee;" horiz-adv-x="413" 
d="M166 1419h82l172 -252h-82l-131 195l-131 -195h-82zM244 0h-74v1024h74v-1024z" />
    <glyph glyph-name="idieresis" unicode="&#xef;" horiz-adv-x="413" 
d="M78 1184q-25 0 -42.5 17t-17.5 42q0 23 17.5 40t42.5 17q23 0 40 -17t17 -40q0 -25 -17 -42t-40 -17zM336 1184q-23 0 -40 17t-17 42q0 23 17 40t40 17q25 0 42 -17t17 -40q0 -25 -17 -42t-42 -17zM244 0h-74v1024h74v-1024z" />
    <glyph glyph-name="eth" unicode="&#xf0;" horiz-adv-x="1206" 
d="M653 1245l363 -487q94 -125 94 -287q0 -219 -149 -356q-150 -138 -355 -138q-210 0 -360 138t-150 356q0 209 148 342q147 135 346 135q145 0 246 -61l-240 323l-258 -159v69l223 137l-131 177h82l104 -142l228 140v-70zM606 47q182 0 307 119t125 305q0 149 -75 246
q-123 166 -365 166q-182 0 -307 -119q-123 -117 -123 -293q0 -186 125 -305t313 -119z" />
    <glyph glyph-name="ntilde" unicode="&#xf1;" horiz-adv-x="1165" 
d="M594 1266q-91 88 -146 70.5t-55 -134.5h-63q0 153 84 191q85 40 194 -66q88 -88 143.5 -70t55.5 134h63q0 -153 -86 -191q-81 -37 -190 66zM631 1047q176 0 284 -111q109 -112 109 -293v-643h-72v643q0 151 -88 242.5t-239 91.5q-170 0 -275.5 -116.5t-105.5 -315.5v-545
h-74v1024h74v-227q53 123 153.5 186.5t233.5 63.5z" />
    <glyph glyph-name="ograve" unicode="&#xf2;" horiz-adv-x="1263" 
d="M707 1167h-68l-180 252h84zM631 -23q224 0 381 154q155 155 155 381q0 227 -155 379q-156 156 -381 156q-223 0 -379 -156q-156 -153 -156 -379q0 -225 156 -381q157 -154 379 -154zM301 180q-133 136 -133 332q0 197 133 330q135 135 330 135t330 -135
q135 -132 135 -330q0 -197 -135 -332q-136 -133 -330 -133t-330 133z" />
    <glyph glyph-name="oacute" unicode="&#xf3;" horiz-adv-x="1263" 
d="M590 1167l164 252h84l-181 -252h-67zM631 -23q224 0 381 154q155 155 155 381q0 227 -155 379q-156 156 -381 156q-223 0 -379 -156q-156 -153 -156 -379q0 -225 156 -381q157 -154 379 -154zM301 180q-133 136 -133 332q0 197 133 330q135 135 330 135t330 -135
q135 -132 135 -330q0 -197 -135 -332q-136 -133 -330 -133t-330 133z" />
    <glyph glyph-name="ocircumflex" unicode="&#xf4;" horiz-adv-x="1263" 
d="M819 1167l-186 209l-184 -209h-82l225 252h84l225 -252h-82zM631 1047q225 0 381 -156q155 -152 155 -379q0 -226 -155 -381q-157 -154 -381 -154q-222 0 -379 154q-156 156 -156 381q0 226 156 379q156 156 379 156zM301 180q136 -133 330 -133t330 133q135 135 135 332
q0 198 -135 330q-135 135 -330 135t-330 -135q-133 -133 -133 -330q0 -196 133 -332z" />
    <glyph glyph-name="otilde" unicode="&#xf5;" horiz-adv-x="1263" 
d="M414 1202h-64q0 153 84 191q85 40 195 -66q88 -88 143 -70t55 134h64q0 -153 -86 -191q-82 -37 -191 66q-91 88 -145.5 70.5t-54.5 -134.5zM631 -23q-222 0 -379 154q-156 156 -156 381q0 226 156 379q156 156 379 156q225 0 381 -156q155 -152 155 -379
q0 -226 -155 -381q-157 -154 -381 -154zM301 180q136 -133 330 -133t330 133q135 135 135 332q0 198 -135 330q-135 135 -330 135t-330 -135q-133 -133 -133 -330q0 -196 133 -332z" />
    <glyph glyph-name="odieresis" unicode="&#xf6;" horiz-adv-x="1263" 
d="M446 1184q-23 0 -40 17t-17 42q0 23 17 40t40 17q25 0 42.5 -17t17.5 -40q0 -25 -17.5 -42t-42.5 -17zM795 1184q-23 0 -40.5 17t-17.5 42q0 23 17.5 40t40.5 17q25 0 42 -17t17 -40q0 -25 -17 -42t-42 -17zM631 -23q-222 0 -379 154q-156 156 -156 381q0 226 156 379
q156 156 379 156q225 0 381 -156q155 -152 155 -379q0 -226 -155 -381q-157 -154 -381 -154zM301 180q136 -133 330 -133t330 133q135 135 135 332q0 198 -135 330q-135 135 -330 135t-330 -135q-133 -133 -133 -330q0 -196 133 -332z" />
    <glyph glyph-name="divide" unicode="&#xf7;" horiz-adv-x="1187" 
d="M645 1049q-20 -20 -51 -20t-51 20t-20 51t20 51t51 20t51 -20t20 -51t-20 -51zM1051 682h-914v70h914v-70zM645 283q-20 -20 -51 -20t-51 20t-20 51t20 51t51 20t51 -20t20 -51t-20 -51z" />
    <glyph glyph-name="oslash" unicode="&#xf8;" horiz-adv-x="1263" 
d="M1112 999l-98 -108q153 -156 153 -379q0 -226 -155 -381q-157 -154 -381 -154q-191 0 -340 119l-92 -100l-49 29l100 110q-154 151 -154 377t156 379q156 156 379 156q193 0 342 -119l92 100zM168 512q0 -194 129 -326l629 688q-130 103 -295 103q-195 0 -330 -135
q-133 -133 -133 -330zM631 47q194 0 330 133q135 135 135 332q0 195 -131 326l-627 -688q127 -103 293 -103z" />
    <glyph glyph-name="ugrave" unicode="&#xf9;" horiz-adv-x="1165" 
d="M479 1419l164 -252h-68l-180 252h84zM922 479v545h73v-1024h-73v227q-53 -123 -153.5 -186.5t-233.5 -63.5q-179 0 -287 111q-107 110 -107 293v643h72v-643q0 -151 88.5 -242.5t239.5 -91.5q170 0 275.5 116.5t105.5 315.5z" />
    <glyph glyph-name="uacute" unicode="&#xfa;" horiz-adv-x="1165" 
d="M700 1419h84l-180 -252h-67zM922 479v545h73v-1024h-73v227q-53 -123 -153.5 -186.5t-233.5 -63.5q-179 0 -287 111q-107 110 -107 293v643h72v-643q0 -151 88.5 -242.5t239.5 -91.5q170 0 275.5 116.5t105.5 315.5z" />
    <glyph glyph-name="ucircumflex" unicode="&#xfb;" horiz-adv-x="1165" 
d="M750 1167l-187 209l-184 -209h-82l225 252h84l225 -252h-81zM922 479v545h73v-1024h-73v227q-53 -123 -153.5 -186.5t-233.5 -63.5q-179 0 -287 111q-107 110 -107 293v643h72v-643q0 -151 88.5 -242.5t239.5 -91.5q170 0 275.5 116.5t105.5 315.5z" />
    <glyph glyph-name="udieresis" unicode="&#xfc;" horiz-adv-x="1165" 
d="M393 1184q-23 0 -40 17t-17 42q0 23 17 40t40 17q25 0 42.5 -17t17.5 -40q0 -25 -17.5 -42t-42.5 -17zM741 1184q-23 0 -40 17t-17 42q0 23 17 40t40 17q25 0 42.5 -17t17.5 -40q0 -25 -17.5 -42t-42.5 -17zM922 479v545h73v-1024h-73v227q-53 -123 -153.5 -186.5
t-233.5 -63.5q-179 0 -287 111q-107 110 -107 293v643h72v-643q0 -151 88.5 -242.5t239.5 -91.5q170 0 275.5 116.5t105.5 315.5z" />
    <glyph glyph-name="yacute" unicode="&#xfd;" horiz-adv-x="1044" 
d="M659 1419h84l-180 -252h-67zM551 55l385 969h74l-445 -1118q-62 -154 -169 -240t-230 -76v68q101 -10 188 61t142 203l20 45l-481 1057h74z" />
    <glyph glyph-name="thorn" unicode="&#xfe;" 
d="M711 1047q220 0 376 -156q156 -153 156 -379q0 -225 -156 -381q-157 -154 -376 -154q-156 0 -279.5 79t-187.5 216v-682h-74v1844h74v-682q64 137 187.5 216t279.5 79zM377 180q136 -133 330 -133t327 133q135 135 135 332q0 198 -135 330q-132 135 -327 135t-330 -135
q-133 -133 -133 -330q0 -196 133 -332z" />
    <glyph glyph-name="ydieresis" unicode="&#xff;" horiz-adv-x="1044" 
d="M365 1184q-23 0 -40.5 17t-17.5 42q0 23 17.5 40t40.5 17q25 0 42 -17t17 -40q0 -25 -17 -42t-42 -17zM713 1184q-23 0 -40.5 17t-17.5 42q0 23 17.5 40t40.5 17q25 0 42 -17t17 -40q0 -25 -17 -42t-42 -17zM551 55l385 969h74l-445 -1118q-62 -154 -169 -240t-230 -76
v68q101 -10 188 61t142 203l20 45l-481 1057h74z" />
    <glyph glyph-name="Amacron" unicode="&#x100;" horiz-adv-x="1288" 
d="M391 1688h506v-62h-506v62zM1247 0h-80l-147 379h-752l-147 -379h-80l561 1434h82zM643 1346l-348 -897h698z" />
    <glyph glyph-name="amacron" unicode="&#x101;" 
d="M379 1278h506v-61h-506v61zM1096 750v274h71v-1024h-71v274q-62 -136 -187.5 -216.5t-279.5 -80.5q-220 0 -377 154q-156 156 -156 381q0 226 156 379q156 156 377 156q154 0 279.5 -80.5t187.5 -216.5zM301 180q136 -133 330 -133t330 133q135 135 135 332
q0 198 -135 330q-135 135 -330 135t-330 -135q-133 -133 -133 -330q0 -196 133 -332z" />
    <glyph glyph-name="Abreve" unicode="&#x102;" horiz-adv-x="1288" 
d="M643 1575q-117 0 -188.5 63t-71.5 168h70q0 -79 51 -124.5t139 -45.5t139.5 45.5t51.5 124.5h69q0 -106 -70.5 -168.5t-189.5 -62.5zM1247 0h-80l-147 379h-752l-147 -379h-80l561 1434h82zM643 1346l-348 -897h698z" />
    <glyph glyph-name="abreve" unicode="&#x103;" 
d="M745 1165q-117 0 -188.5 63.5t-71.5 168.5h70q0 -79 51 -124.5t139 -45.5t139.5 45.5t51.5 124.5h70q0 -106 -71 -169t-190 -63zM1096 750v274h71v-1024h-71v274q-62 -136 -187.5 -216.5t-279.5 -80.5q-220 0 -377 154q-156 156 -156 381q0 226 156 379q156 156 377 156
q154 0 279.5 -80.5t187.5 -216.5zM301 180q136 -133 330 -133t330 133q135 135 135 332q0 198 -135 330q-135 135 -330 135t-330 -135q-133 -133 -133 -330q0 -196 133 -332z" />
    <glyph glyph-name="Aogonek" unicode="&#x104;" horiz-adv-x="1288" 
d="M1063 -281q0 -42 25.5 -66t68.5 -24q51 0 90 17v-60q-41 -18 -102 -18q-69 0 -110.5 38.5t-41.5 104.5q0 134 172 293l-145 375h-752l-147 -379h-80l561 1434h82l563 -1434q-184 -156 -184 -281zM643 1346l-348 -897h698z" />
    <glyph glyph-name="aogonek" unicode="&#x105;" 
d="M1167 1024v-1024q-184 -156 -184 -281q0 -42 25.5 -66t68.5 -24q44 0 90 17v-60q-43 -18 -102 -18q-69 0 -110.5 38.5t-41.5 104.5q0 134 183 305v258q-62 -136 -187.5 -216.5t-279.5 -80.5q-220 0 -377 154q-156 156 -156 381q0 226 156 379q156 156 377 156
q154 0 279.5 -80.5t187.5 -216.5v274h71zM301 180q136 -133 330 -133t330 133q135 135 135 332q0 198 -135 330q-135 135 -330 135t-330 -135q-133 -133 -133 -330q0 -196 133 -332z" />
    <glyph glyph-name="Cacute" unicode="&#x106;" horiz-adv-x="1552" 
d="M784 1577l164 252h84l-180 -252h-68zM852 -23q195 0 360.5 95t253.5 254l-67 36q-76 -144 -223 -229q-150 -84 -324 -84q-289 0 -479 193q-189 195 -189 475q0 278 189 473q191 194 479 194q171 0 317 -82.5t226 -222.5l65 39q-89 154 -254 246q-164 92 -354 92
q-321 0 -533 -215q-210 -213 -210 -524t210 -524q213 -216 533 -216z" />
    <glyph glyph-name="cacute" unicode="&#x107;" horiz-adv-x="1167" 
d="M557 1167l164 252h84l-180 -252h-68zM631 -23q148 0 269 69t181 187l-59 35q-55 -101 -158.5 -161t-232.5 -60q-197 0 -330 133q-133 136 -133 332q0 197 133 330q132 135 330 135q129 0 234 -60t155 -161l59 35q-57 117 -178 186.5t-270 69.5q-227 0 -381 -154
t-154 -381t154 -381t381 -154z" />
    <glyph glyph-name="Cdotaccent" unicode="&#x10a;" horiz-adv-x="1552" 
d="M852 1591q-47 -3 -66.5 37.5t0 81t66.5 37.5q49 3 69.5 -37.5t0 -81t-69.5 -37.5zM852 -23q-320 0 -533 216q-210 213 -210 524t210 524q212 215 533 215q190 0 354 -92q165 -92 254 -246l-65 -39q-80 140 -226 222.5t-317 82.5q-288 0 -479 -194q-189 -195 -189 -473
q0 -280 189 -475q190 -193 479 -193q174 0 324 84q147 85 223 229l67 -36q-88 -159 -253.5 -254t-360.5 -95z" />
    <glyph glyph-name="cdotaccent" unicode="&#x10b;" horiz-adv-x="1167" 
d="M625 1182q-47 -3 -66.5 37.5t0 80.5t66.5 37q49 3 69.5 -37t0 -80.5t-69.5 -37.5zM631 -23q-227 0 -381 154t-154 381t154 381t381 154q149 0 270 -69.5t178 -186.5l-59 -35q-50 101 -155 161t-234 60q-198 0 -330 -135q-133 -133 -133 -330q0 -196 133 -332
q133 -133 330 -133q129 0 232.5 60t158.5 161l59 -35q-60 -118 -181 -187t-269 -69z" />
    <glyph glyph-name="Ccaron" unicode="&#x10c;" horiz-adv-x="1552" 
d="M891 1577h-82l-225 252h80l186 -209l186 209h80zM1399 362l67 -36q-88 -159 -253.5 -254t-360.5 -95q-320 0 -533 216q-210 213 -210 524t210 524q212 215 533 215q190 0 354 -92q165 -92 254 -246l-65 -39q-80 140 -226 222.5t-317 82.5q-288 0 -479 -194
q-189 -195 -189 -473q0 -280 189 -475q190 -193 479 -193q174 0 324 84q147 85 223 229z" />
    <glyph glyph-name="ccaron" unicode="&#x10d;" horiz-adv-x="1167" 
d="M664 1167h-82l-226 252h80l187 -209l186 209h80zM1022 268l59 -35q-60 -118 -181 -187t-269 -69q-227 0 -381 154t-154 381t154 381t381 154q149 0 270 -69.5t178 -186.5l-59 -35q-50 101 -155 161t-234 60q-198 0 -330 -135q-133 -133 -133 -330q0 -196 133 -332
q133 -133 330 -133q129 0 232.5 60t158.5 161z" />
    <glyph glyph-name="Dcaron" unicode="&#x10e;" horiz-adv-x="1501" 
d="M756 1577h-82l-225 252h79l187 -209l186 209h80zM190 1434h527q292 0 483 -209q193 -205 193 -508q0 -302 -193 -510q-192 -207 -483 -207h-527v1434zM266 70h451q264 0 432 186q170 188 170 461q0 271 -170 459t-432 188h-451v-1294z" />
    <glyph glyph-name="dcaron" unicode="&#x10f;" horiz-adv-x="1415" 
d="M1094 752v682h73v-1434h-73v272q-64 -137 -187.5 -216t-279.5 -79q-220 0 -377 154q-156 156 -156 381q0 226 156 379q156 156 377 156q156 0 279.5 -79t187.5 -216zM1329 1085l21 349h73l-41 -349h-53zM301 180q136 -133 330 -133t327 133q136 136 136 332
q0 197 -136 330q-132 135 -327 135t-330 -135q-133 -133 -133 -330q0 -196 133 -332z" />
    <glyph glyph-name="Dcroat" unicode="&#x110;" horiz-adv-x="1542" 
d="M231 1434h527q292 0 483 -209q193 -205 193 -508q0 -302 -193 -510q-192 -207 -483 -207h-527v678h-125v65h125v691zM307 70h451q264 0 432 186q170 188 170 461q0 271 -170 459t-432 188h-451v-621h418v-65h-418v-608z" />
    <glyph glyph-name="dslash" unicode="&#x111;" horiz-adv-x="1349" 
d="M1167 1266h136v-60h-136v-1206h-71v276q-62 -137 -186.5 -218t-280.5 -81q-220 0 -377 154q-156 156 -156 381q0 226 156 379q156 156 377 156q156 0 280.5 -81t186.5 -218v458h-449v60h449v168h71v-168zM301 180q136 -133 330 -133t330 133q135 135 135 332
q0 198 -135 330q-135 135 -330 135t-330 -135q-133 -133 -133 -330q0 -196 133 -332z" />
    <glyph glyph-name="Emacron" unicode="&#x112;" horiz-adv-x="1099" 
d="M340 1688h506v-62h-506v62zM266 688v-618h738v-70h-814v1434h803v-70h-727v-606h676v-70h-676z" />
    <glyph glyph-name="emacron" unicode="&#x113;" horiz-adv-x="1216" 
d="M354 1278h506v-61h-506v61zM618 1047q226 0 365 -160q141 -159 141 -379q0 -29 -2 -35h-952q12 -189 141 -309q129 -117 318 -117q127 0 227 53.5t150 145.5l63 -37q-62 -107 -178 -169.5t-262 -62.5q-233 0 -383 150t-150 385q0 227 148 381t374 154zM618 977
q-189 0 -315 -123q-126 -120 -135 -313h883q-15 197 -138 317q-119 119 -295 119z" />
    <glyph glyph-name="Edotaccent" unicode="&#x116;" horiz-adv-x="1099" 
d="M592 1591q-47 -3 -66.5 37.5t0 81t66.5 37.5q49 3 69.5 -37.5t0 -81t-69.5 -37.5zM266 688v-618h738v-70h-814v1434h803v-70h-727v-606h676v-70h-676z" />
    <glyph glyph-name="edotaccent" unicode="&#x117;" horiz-adv-x="1216" 
d="M606 1182q-47 -3 -66.5 37.5t0 80.5t66.5 37q49 3 69.5 -37t0 -80.5t-69.5 -37.5zM618 1047q226 0 365 -160q141 -159 141 -379q0 -29 -2 -35h-952q12 -189 141 -309q129 -117 318 -117q127 0 227 53.5t150 145.5l63 -37q-62 -107 -178 -169.5t-262 -62.5
q-233 0 -383 150t-150 385q0 227 148 381t374 154zM618 977q-189 0 -315 -123q-126 -120 -135 -313h883q-15 197 -138 317q-119 119 -295 119z" />
    <glyph glyph-name="Eogonek" unicode="&#x118;" horiz-adv-x="1101" 
d="M918 -371q44 0 90 17v-60q-43 -18 -103 -18q-72 0 -112.5 38.5t-40.5 104.5q0 137 174 289h-736v1434h803v-70h-727v-606h676v-70h-676v-618h738v-70h2q-185 -156 -185 -281q0 -42 26.5 -66t70.5 -24z" />
    <glyph glyph-name="eogonek" unicode="&#x119;" horiz-adv-x="1216" 
d="M618 1047q226 0 365 -160q141 -159 141 -379q0 -29 -2 -35h-952q12 -189 141 -309q129 -117 318 -117q127 0 227 53.5t150 145.5l63 -37q-24 -44 -74 -94q-151 -167 -211 -252q-57 -80 -57 -144q0 -42 26.5 -66t69.5 -24q44 0 90 17v-60q-44 -18 -100 -18
q-73 0 -114.5 38.5t-41.5 104.5q0 121 174 301q-96 -35 -202 -35q-233 0 -383 150t-150 385q0 227 148 381t374 154zM618 977q-189 0 -315 -123q-126 -120 -135 -313h883q-15 197 -138 317q-119 119 -295 119z" />
    <glyph glyph-name="Ecaron" unicode="&#x11a;" horiz-adv-x="1099" 
d="M631 1577h-82l-225 252h79l187 -209l186 209h80zM266 688v-618h738v-70h-814v1434h803v-70h-727v-606h676v-70h-676z" />
    <glyph glyph-name="ecaron" unicode="&#x11b;" horiz-adv-x="1216" 
d="M645 1167h-82l-225 252h80l186 -209l187 209h79zM618 1047q226 0 365 -160q141 -159 141 -379q0 -29 -2 -35h-952q12 -189 141 -309q129 -117 318 -117q127 0 227 53.5t150 145.5l63 -37q-62 -107 -178 -169.5t-262 -62.5q-233 0 -383 150t-150 385q0 227 148 381
t374 154zM618 977q-189 0 -315 -123q-126 -120 -135 -313h883q-15 197 -138 317q-119 119 -295 119z" />
    <glyph glyph-name="Gbreve" unicode="&#x11e;" horiz-adv-x="1658" 
d="M842 1575q-117 0 -188.5 63t-71.5 168h69q0 -79 51.5 -124.5t139.5 -45.5t139 45.5t51 124.5h70q0 -106 -70.5 -168.5t-189.5 -62.5zM831 655h717v-39q0 -266 -188 -454q-188 -185 -496 -185q-326 0 -542 213q-213 216 -213 527t210 524q212 215 533 215q195 0 358 -94
q161 -90 252 -250l-65 -37q-78 142 -225 225.5t-320 83.5q-288 0 -479 -194q-189 -195 -189 -473q0 -281 191 -475q193 -193 489 -193q264 0 432 154q167 154 179 383h-644v69z" />
    <glyph glyph-name="gbreve" unicode="&#x11f;" horiz-adv-x="1351" 
d="M657 1165q-117 0 -188.5 63.5t-71.5 168.5h70q0 -79 51 -124.5t139 -45.5t139.5 45.5t51.5 124.5h70q0 -106 -71 -169t-190 -63zM1108 752v272h74v-969q0 -222 -140 -356q-137 -131 -368 -131q-173 0 -298.5 66.5t-180.5 179.5l61 34q45 -96 152 -153t266 -57
q203 0 318.5 112t115.5 305v217q-64 -137 -187.5 -216t-279.5 -79q-220 0 -377 154q-155 155 -155 381q0 227 155 379q156 156 377 156q156 0 279.5 -79t187.5 -216zM315 180q136 -133 330 -133q195 0 328 133q135 135 135 332q0 198 -135 330q-132 135 -328 135
q-195 0 -330 -135q-133 -133 -133 -330q0 -196 133 -332z" />
    <glyph glyph-name="Gdotaccent" unicode="&#x120;" horiz-adv-x="1658" 
d="M842 1591q-47 -3 -66.5 37.5t0 81t66.5 37.5q49 3 69.5 -37.5t0 -81t-69.5 -37.5zM831 655h717v-39q0 -266 -188 -454q-188 -185 -496 -185q-326 0 -542 213q-213 216 -213 527t210 524q212 215 533 215q195 0 358 -94q161 -90 252 -250l-65 -37q-78 142 -225 225.5
t-320 83.5q-288 0 -479 -194q-189 -195 -189 -473q0 -281 191 -475q193 -193 489 -193q264 0 432 154q167 154 179 383h-644v69z" />
    <glyph glyph-name="gdotaccent" unicode="&#x121;" horiz-adv-x="1351" 
d="M657 1182q-47 -3 -66.5 37.5t0 80.5t66.5 37q49 3 69.5 -37t0 -80.5t-69.5 -37.5zM1108 752v272h74v-969q0 -222 -140 -356q-137 -131 -368 -131q-173 0 -298.5 66.5t-180.5 179.5l61 34q45 -96 152 -153t266 -57q203 0 318.5 112t115.5 305v217q-64 -137 -187.5 -216
t-279.5 -79q-220 0 -377 154q-155 155 -155 381q0 227 155 379q156 156 377 156q156 0 279.5 -79t187.5 -216zM315 180q136 -133 330 -133q195 0 328 133q135 135 135 332q0 198 -135 330q-132 135 -328 135q-195 0 -330 -135q-133 -133 -133 -330q0 -196 133 -332z" />
    <glyph glyph-name="Gcommaaccent" unicode="&#x122;" horiz-adv-x="1658" 
d="M831 655h717v-39q0 -266 -188 -454q-188 -185 -496 -185q-326 0 -542 213q-213 216 -213 527t210 524q212 215 533 215q195 0 358 -94q161 -90 252 -250l-65 -37q-78 142 -225 225.5t-320 83.5q-288 0 -479 -194q-189 -195 -189 -473q0 -281 191 -475q193 -193 489 -193
q264 0 432 154q167 154 179 383h-644v69zM879 -492h-54l21 349h72z" />
    <glyph glyph-name="gcommaaccent" unicode="&#x123;" horiz-adv-x="1351" 
d="M643 1556h53l-20 -348h-72zM1108 752v272h74v-969q0 -222 -140 -356q-137 -131 -368 -131q-173 0 -298.5 66.5t-180.5 179.5l61 34q45 -96 152 -153t266 -57q203 0 318.5 112t115.5 305v217q-64 -137 -187.5 -216t-279.5 -79q-220 0 -377 154q-155 155 -155 381
q0 227 155 379q156 156 377 156q156 0 279.5 -79t187.5 -216zM315 180q136 -133 330 -133q195 0 328 133q135 135 135 332q0 198 -135 330q-132 135 -328 135q-195 0 -330 -135q-133 -133 -133 -330q0 -196 133 -332z" />
    <glyph glyph-name="Hbar" unicode="&#x126;" horiz-adv-x="1536" 
d="M1286 1137h141v-62h-141v-1075h-74v702h-888v-702h-74v1075h-141v62h141v297h74v-297h888v297h74v-297zM324 772h888v303h-888v-303z" />
    <glyph glyph-name="hbar" unicode="&#x127;" horiz-adv-x="1200" 
d="M666 1047q176 0 284 -111q109 -112 109 -293v-643h-74v643q0 151 -87.5 242.5t-238.5 91.5q-173 0 -278 -116t-105 -316v-545h-71v1206h-158v60h158v168h71v-168h345v-60h-345v-413q54 124 155 189t235 65z" />
    <glyph glyph-name="Itilde" unicode="&#x128;" horiz-adv-x="456" 
d="M190 0v1434h76v-1434h-76zM23 1612h-64q0 152 86 190q84 41 193 -65q91 -87 144.5 -70t53.5 133h64q0 -152 -84 -190q-85 -37 -193 65q-91 88 -145.5 71t-54.5 -134z" />
    <glyph glyph-name="itilde" unicode="&#x129;" horiz-adv-x="413" 
d="M244 0h-74v1024h74v-1024zM33 1202h-60q0 153 74 191q34 21 80.5 4t89.5 -70q72 -88 117 -70t45 134h57q0 -153 -71 -191q-36 -20 -83 -2.5t-89 68.5q-72 88 -116 70.5t-44 -134.5z" />
    <glyph glyph-name="Imacron" unicode="&#x12a;" horiz-adv-x="456" 
d="M483 1626h-506v62h506v-62zM190 0v1434h76v-1434h-76z" />
    <glyph glyph-name="imacron" unicode="&#x12b;" horiz-adv-x="413" 
d="M385 1217h-356v61h356v-61zM244 0h-74v1024h74v-1024z" />
    <glyph glyph-name="Iogonek" unicode="&#x12e;" horiz-adv-x="456" 
d="M262 -371q44 0 90 17v-60q-46 -18 -102 -18q-72 0 -113 38.5t-41 104.5q0 111 94 289v1434h76v-1434l-39 -76q-18 -31 -32 -69q-2 -5 -8.5 -25.5t-9 -29.5t-6.5 -25t-5.5 -29.5t-1.5 -26.5q0 -42 26.5 -66t71.5 -24z" />
    <glyph glyph-name="iogonek" unicode="&#x12f;" horiz-adv-x="413" 
d="M143 1366q0 40 31.5 56t63.5 0t32 -56q0 -25 -18.5 -44t-44.5 -19t-45 19t-19 44zM242 -371q44 0 90 17v-60q-47 -18 -103 -18q-68 0 -110.5 44t-42.5 112q0 111 94 286v1014h74v-1024q-59 -105 -80 -158t-21 -110q0 -43 28.5 -73t70.5 -30z" />
    <glyph glyph-name="Idot" unicode="&#x130;" horiz-adv-x="456" 
d="M229 1591q-47 -3 -66.5 37.5t0 81t66.5 37.5q49 3 69.5 -37.5t0 -81t-69.5 -37.5zM190 0v1434h76v-1434h-76z" />
    <glyph glyph-name="dotlessi" unicode="&#x131;" horiz-adv-x="413" 
d="M244 0h-74v1024h74v-1024z" />
    <glyph glyph-name="Kcommaaccent" unicode="&#x136;" horiz-adv-x="1153" 
d="M1112 1434l-764 -697l785 -737h-99l-768 717v-717h-76v1434h76v-676l748 676h98zM643 -492h-53l20 349h72z" />
    <glyph glyph-name="kcommaaccent" unicode="&#x137;" horiz-adv-x="966" 
d="M891 1024l-572 -492l592 -532h-98l-569 510v-510h-74v1434h74v-881l549 471h98zM528 -492h-53l21 349h71z" />
    <glyph glyph-name="Lacute" unicode="&#x139;" horiz-adv-x="1017" 
d="M352 1829h84l-180 -252h-68zM266 1434v-1364h697v-70h-773v1434h76z" />
    <glyph glyph-name="lacute" unicode="&#x13a;" horiz-adv-x="413" 
d="M172 1577l164 252h84l-180 -252h-68zM170 0h74v1495h-74v-1495z" />
    <glyph glyph-name="Lcommaaccent" unicode="&#x13b;" horiz-adv-x="1017" 
d="M266 1434v-1364h697v-70h-773v1434h76zM584 -492h-54l21 349h72z" />
    <glyph glyph-name="lcommaaccent" unicode="&#x13c;" horiz-adv-x="413" 
d="M244 0h-74v1495h74v-1495zM205 -492h-53l20 349h72z" />
    <glyph glyph-name="Lcaron" unicode="&#x13d;" horiz-adv-x="1017" 
d="M266 1434v-1364h697v-70h-773v1434h76zM571 1434h74l-41 -349h-53z" />
    <glyph glyph-name="lcaron" unicode="&#x13e;" horiz-adv-x="493" 
d="M244 0h-74v1495h74v-1495zM461 1147h-53l20 348h74z" />
    <glyph glyph-name="Lslash" unicode="&#x141;" horiz-adv-x="1044" 
d="M293 567v-497h696v-70h-772v522l-121 -71v69l121 72v842h76v-797l403 237v-69z" />
    <glyph glyph-name="lslash" unicode="&#x142;" horiz-adv-x="491" 
d="M283 801l168 114v-71l-168 -115v-729h-74v678l-168 -115v72l168 115v745h74v-694z" />
    <glyph glyph-name="Nacute" unicode="&#x143;" horiz-adv-x="1419" 
d="M629 1577l164 252h84l-181 -252h-67zM1153 1434v-1299l-893 1299h-70v-1434h76v1298l895 -1298h68v1434h-76z" />
    <glyph glyph-name="nacute" unicode="&#x144;" horiz-adv-x="1165" 
d="M696 1419h84l-180 -252h-68zM631 1047q176 0 284 -111q109 -112 109 -293v-643h-72v643q0 151 -88 242.5t-239 91.5q-170 0 -275.5 -116.5t-105.5 -315.5v-545h-74v1024h74v-227q53 123 153.5 186.5t233.5 63.5z" />
    <glyph glyph-name="Ncommaaccent" unicode="&#x145;" horiz-adv-x="1419" 
d="M1153 135v1299h76v-1434h-68l-895 1298v-1298h-76v1434h70zM696 -492h-53l21 349h71z" />
    <glyph glyph-name="ncommaaccent" unicode="&#x146;" horiz-adv-x="1165" 
d="M631 1047q176 0 284 -111q109 -112 109 -293v-643h-72v643q0 151 -88 242.5t-239 91.5q-170 0 -275.5 -116.5t-105.5 -315.5v-545h-74v1024h74v-227q53 123 153.5 186.5t233.5 63.5zM606 -492h-53l20 349h72z" />
    <glyph glyph-name="Ncaron" unicode="&#x147;" horiz-adv-x="1419" 
d="M735 1577h-82l-225 252h80l186 -209l187 209h80zM1153 135v1299h76v-1434h-68l-895 1298v-1298h-76v1434h70z" />
    <glyph glyph-name="ncaron" unicode="&#x148;" horiz-adv-x="1165" 
d="M639 1167h-82l-225 252h80l186 -209l186 209h80zM631 1047q176 0 284 -111q109 -112 109 -293v-643h-72v643q0 151 -88 242.5t-239 91.5q-170 0 -275.5 -116.5t-105.5 -315.5v-545h-74v1024h74v-227q53 123 153.5 186.5t233.5 63.5z" />
    <glyph glyph-name="Eng" unicode="&#x14a;" horiz-adv-x="1419" 
d="M1153 135v1299h76v-1434q0 -410 -410 -410v72q173 0 253.5 78.5t80.5 259.5v12l-887 1286v-1298h-76v1434h70z" />
    <glyph glyph-name="eng" unicode="&#x14b;" horiz-adv-x="1165" 
d="M631 1047q176 0 284 -111q109 -112 109 -293v-793q0 -148 -80.5 -221.5t-232.5 -60.5v70q241 -27 241 212v793q0 151 -88 242.5t-239 91.5q-170 0 -275.5 -116.5t-105.5 -315.5v-545h-74v1024h74v-227q53 123 153.5 186.5t233.5 63.5z" />
    <glyph glyph-name="Omacron" unicode="&#x14c;" horiz-adv-x="1695" 
d="M1102 1626h-506v62h506v-62zM1370 193q-216 -216 -522 -216q-305 0 -524 216q-215 218 -215 524q0 307 215 522q217 217 524 217q308 0 522 -217q217 -214 217 -522q0 -307 -217 -524zM377 244q195 -195 471 -195q274 0 469 195q194 197 194 473q0 277 -194 471
q-193 196 -469 196q-278 0 -471 -196q-193 -193 -193 -471q0 -277 193 -473z" />
    <glyph glyph-name="omacron" unicode="&#x14d;" horiz-adv-x="1263" 
d="M874 1217h-505v61h505v-61zM631 -23q-222 0 -379 154q-156 156 -156 381q0 226 156 379q156 156 379 156q225 0 381 -156q155 -152 155 -379q0 -226 -155 -381q-157 -154 -381 -154zM301 180q136 -133 330 -133t330 133q135 135 135 332q0 198 -135 330
q-135 135 -330 135t-330 -135q-133 -133 -133 -330q0 -196 133 -332z" />
    <glyph glyph-name="Ohungarumlaut" unicode="&#x150;" horiz-adv-x="1695" 
d="M608 1577l144 266h79l-153 -266h-70zM895 1577l164 266h80l-174 -266h-70zM1370 193q217 217 217 524q0 308 -217 522q-214 217 -522 217q-307 0 -524 -217q-215 -215 -215 -522q0 -306 215 -524q219 -216 524 -216q306 0 522 216zM377 244q-193 196 -193 473
q0 278 193 471q193 196 471 196q276 0 469 -196q194 -194 194 -471q0 -276 -194 -473q-195 -195 -469 -195q-276 0 -471 195z" />
    <glyph glyph-name="ohungarumlaut" unicode="&#x151;" horiz-adv-x="1263" 
d="M381 1167l143 267h80l-153 -267h-70zM668 1167l163 267h80l-174 -267h-69zM631 -23q224 0 381 154q155 155 155 381q0 227 -155 379q-156 156 -381 156q-223 0 -379 -156q-156 -153 -156 -379q0 -225 156 -381q157 -154 379 -154zM301 180q-133 136 -133 332
q0 197 133 330q135 135 330 135t330 -135q135 -132 135 -330q0 -197 -135 -332q-136 -133 -330 -133t-330 133z" />
    <glyph glyph-name="OE" unicode="&#x152;" horiz-adv-x="1861" 
d="M1098 688v-618h667v-70h-743q-97 -23 -195 -23q-312 0 -516 213q-202 214 -202 527t202 524q203 215 516 215q102 0 195 -22h733v-70h-657v-606h614v-70h-614zM1022 74v1286q-86 24 -195 24q-282 0 -462 -192q-181 -193 -181 -475t181 -475t462 -193q106 0 195 25z" />
    <glyph glyph-name="oe" unicode="&#x153;" horiz-adv-x="2209" 
d="M1614 1047q223 0 362 -160q142 -160 142 -379l-2 -35h-953q12 -187 140 -309q129 -117 319 -117q127 0 227 53.5t150 145.5l63 -37q-64 -107 -180 -169.5t-260 -62.5q-180 0 -314 97t-184 262q-52 -158 -184 -260q-132 -99 -309 -99q-224 0 -381 154q-154 157 -154 381
q0 225 154 379q156 156 381 156q178 0 309 -101q131 -99 184 -258q52 163 183 261t307 98zM631 47q192 0 325 133q131 134 131 332q0 199 -131 330q-132 135 -325 135q-198 0 -330 -135q-133 -133 -133 -330q0 -196 133 -332q133 -133 330 -133zM1612 977q-190 0 -316 -123
q-126 -120 -135 -313h883q-15 198 -137 317q-119 119 -295 119z" />
    <glyph glyph-name="Racute" unicode="&#x154;" horiz-adv-x="1263" 
d="M745 1829h84l-180 -252h-67zM848 610l360 -610h-84l-354 600h-18h-486v-600h-76v1434h562q172 0 292 -123q123 -120 123 -293q0 -144 -90 -260q-87 -113 -229 -148zM266 1364v-694h486q137 0 239 102q101 101 101 246q0 143 -101 244q-102 102 -239 102h-486z" />
    <glyph glyph-name="racute" unicode="&#x155;" horiz-adv-x="657" 
d="M483 1419h84l-180 -252h-68zM244 1024v-231q43 120 139.5 182.5t220.5 62.5v-69q-151 0 -256 -105q-104 -101 -104 -295v-569h-74v1024h74z" />
    <glyph glyph-name="Rcommaaccent" unicode="&#x156;" horiz-adv-x="1263" 
d="M848 610l360 -610h-84l-354 600h-18h-486v-600h-76v1434h562q172 0 292 -123q123 -120 123 -293q0 -144 -90 -260q-87 -113 -229 -148zM266 1364v-694h486q137 0 239 102q101 101 101 246q0 143 -101 244q-102 102 -239 102h-486zM690 -492h-53l20 349h72z" />
    <glyph glyph-name="rcommaaccent" unicode="&#x157;" horiz-adv-x="657" 
d="M244 1024v-231q43 120 139.5 182.5t220.5 62.5v-69q-151 0 -256 -105q-104 -101 -104 -295v-569h-74v1024h74zM205 -492h-53l20 349h72z" />
    <glyph glyph-name="Rcaron" unicode="&#x158;" horiz-adv-x="1263" 
d="M688 1577h-82l-225 252h80l186 -209l187 209h79zM848 610l360 -610h-84l-354 600h-18h-486v-600h-76v1434h562q172 0 292 -123q123 -120 123 -293q0 -144 -90 -260q-87 -113 -229 -148zM266 1364v-694h486q137 0 239 102q101 101 101 246q0 143 -101 244
q-102 102 -239 102h-486z" />
    <glyph glyph-name="rcaron" unicode="&#x159;" horiz-adv-x="657" 
d="M426 1167h-82l-225 252h80l186 -209l186 209h80zM244 1024v-231q43 120 139.5 182.5t220.5 62.5v-69q-151 0 -256 -105q-104 -101 -104 -295v-569h-74v1024h74z" />
    <glyph glyph-name="Sacute" unicode="&#x15a;" horiz-adv-x="1171" 
d="M502 1577l164 252h84l-181 -252h-67zM616 -23q209 0 334 107t125 281q-6 105 -50 171.5t-138 116.5q-101 54 -266 109q-139 47 -154 53q-50 20 -117 59q-114 68 -114 205q0 127 94 215q96 90 260 90q281 0 383 -260l61 35q-56 136 -170.5 216.5t-273.5 80.5
q-187 0 -307 -108q-121 -109 -121 -271q6 -108 49 -174t135 -112q47 -25 119 -54l143 -45q104 -32 173 -62t121 -69t75.5 -87.5t23.5 -111.5q0 -140 -101.5 -226.5t-281.5 -86.5q-176 0 -294.5 78.5t-157.5 214.5l-64 -37q48 -150 183.5 -239t330.5 -89z" />
    <glyph glyph-name="sacute" unicode="&#x15b;" horiz-adv-x="944" 
d="M567 1419h84l-180 -252h-68zM207 758q0 -141 227 -197q164 -35 225 -58q165 -62 187 -190q4 -21 4 -45q0 -126 -102 -209q-101 -82 -261 -82q-303 0 -385 224l60 35q65 -189 325 -189q126 0 207.5 61t81.5 160q0 150 -227 199q-12 3 -55 13t-59 13.5t-55.5 14.5
t-56.5 18.5t-49.5 22t-47.5 27.5t-36.5 33t-31.5 41t-17.5 49t-7.5 59q0 123 94 205q96 84 252 84q120 0 209.5 -54t128.5 -147l-59 -35q-32 79 -106 122.5t-173 43.5q-119 0 -195.5 -60.5t-76.5 -158.5z" />
    <glyph glyph-name="Scedilla" unicode="&#x15e;" horiz-adv-x="1171" 
d="M1075 365q0 -173 -123 -280t-329 -108v-116q77 0 130.5 -38t53.5 -99q0 -85 -95 -125.5t-284 -22.5v59q313 -34 313 89q0 97 -182 88v168q-171 13 -292.5 100.5t-164.5 224.5l64 37q39 -136 157.5 -214.5t294.5 -78.5q180 0 281.5 86.5t101.5 226.5q0 63 -23.5 111.5
t-75.5 87.5t-121 69t-173 62l-143 45q-72 29 -119 54q-92 46 -135 112t-49 174q0 162 121 271q120 108 307 108q159 0 273.5 -80.5t170.5 -216.5l-61 -35q-102 260 -383 260q-164 0 -260 -90q-94 -88 -94 -215q0 -137 114 -205q67 -39 117 -59q15 -6 154 -53
q165 -55 266 -109q94 -50 138 -116.5t50 -171.5z" />
    <glyph glyph-name="scedilla" unicode="&#x15f;" horiz-adv-x="944" 
d="M850 268q0 -118 -91.5 -199.5t-236.5 -88.5v-119q77 0 131 -38t54 -99q0 -85 -95 -125.5t-284 -22.5v59q313 -34 313 89q0 97 -182 88v165q-280 12 -357 224l60 35q65 -189 325 -189q126 0 207.5 61t81.5 160q0 150 -227 199q-12 3 -55 13t-59 13.5t-55.5 14.5
t-56.5 18.5t-49.5 22t-47.5 27.5t-36.5 33t-31.5 41t-17.5 49t-7.5 59q0 123 94 205q96 84 252 84q120 0 209.5 -54t128.5 -147l-59 -35q-32 79 -106 122.5t-173 43.5q-119 0 -195.5 -60.5t-76.5 -158.5q0 -141 227 -197q164 -35 225 -58q165 -62 187 -190q4 -21 4 -45z" />
    <glyph glyph-name="Scaron" unicode="&#x160;" horiz-adv-x="1171" 
d="M608 1577h-82l-225 252h80l186 -209l187 209h80zM621 762q165 -55 266 -109q94 -50 138 -116.5t50 -171.5q0 -174 -125 -281t-334 -107q-195 0 -330.5 89t-183.5 239l64 37q39 -136 157.5 -214.5t294.5 -78.5q180 0 281.5 86.5t101.5 226.5q0 63 -23.5 111.5t-75.5 87.5
t-121 69t-173 62l-143 45q-72 29 -119 54q-92 46 -135 112t-49 174q0 162 121 271q120 108 307 108q159 0 273.5 -80.5t170.5 -216.5l-61 -35q-102 260 -383 260q-164 0 -260 -90q-94 -88 -94 -215q0 -137 114 -205q67 -39 117 -59q15 -6 154 -53z" />
    <glyph glyph-name="scaron" unicode="&#x161;" horiz-adv-x="944" 
d="M510 1167h-82l-225 252h80l186 -209l186 209h80zM207 758q0 -141 227 -197q164 -35 225 -58q165 -62 187 -190q4 -21 4 -45q0 -126 -102 -209q-101 -82 -261 -82q-303 0 -385 224l60 35q65 -189 325 -189q126 0 207.5 61t81.5 160q0 150 -227 199q-12 3 -55 13t-59 13.5
t-55.5 14.5t-56.5 18.5t-49.5 22t-47.5 27.5t-36.5 33t-31.5 41t-17.5 49t-7.5 59q0 123 94 205q96 84 252 84q120 0 209.5 -54t128.5 -147l-59 -35q-32 79 -106 122.5t-173 43.5q-119 0 -195.5 -60.5t-76.5 -158.5z" />
    <glyph glyph-name="uni0162" unicode="&#x162;" horiz-adv-x="1105" 
d="M55 1434h996v-70h-461v-1364h-74v1364h-461v70zM553 -492h-53l20 349h72z" />
    <glyph glyph-name="uni0163" unicode="&#x163;" horiz-adv-x="774" 
d="M678 1024v-68h-316v-714q0 -130 70 -164q73 -36 246 -15v-63q-202 -31 -294.5 26t-92.5 216v714h-236v68h236v264l71 23v-287h316zM483 -492h-53l21 349h71z" />
    <glyph glyph-name="Tcaron" unicode="&#x164;" horiz-adv-x="1105" 
d="M592 1577h-82l-225 252h80l186 -209l186 209h80zM55 1434h996v-70h-461v-1364h-74v1364h-461v70z" />
    <glyph glyph-name="tcaron" unicode="&#x165;" horiz-adv-x="774" 
d="M510 1460h74l-41 -313h-54zM678 1024v-68h-316v-714q0 -130 70 -164q73 -36 246 -15v-63q-202 -31 -294.5 26t-92.5 216v714h-236v68h236v264l71 23v-287h316z" />
    <glyph glyph-name="Tbar" unicode="&#x166;" horiz-adv-x="1105" 
d="M1051 1434v-70h-461v-612h332v-70h-332v-682h-74v682h-332v70h332v612h-461v70h996z" />
    <glyph glyph-name="tbar" unicode="&#x167;" horiz-adv-x="774" 
d="M678 1024v-68h-316v-387h209v-59h-209v-268q0 -130 70 -164q73 -36 246 -15v-63q-202 -31 -294.5 26t-92.5 216v268h-150v59h150v387h-236v68h236v264l71 23v-287h316z" />
    <glyph glyph-name="Utilde" unicode="&#x168;" horiz-adv-x="1378" 
d="M170 469v965h76v-965q0 -189 117.5 -304.5t326.5 -115.5q207 0 325 116t118 304v965h75v-965q0 -218 -141 -356q-142 -136 -377 -136q-234 0 -379 136q-141 138 -141 356zM475 1612h-63q0 152 86 190q83 41 192 -65q91 -88 145 -70.5t54 133.5h63q0 -152 -84 -190
q-84 -37 -192 65q-91 88 -146 71t-55 -134z" />
    <glyph glyph-name="utilde" unicode="&#x169;" horiz-adv-x="1165" 
d="M922 479v545h73v-1024h-73v227q-53 -123 -153.5 -186.5t-233.5 -63.5q-179 0 -287 111q-107 110 -107 293v643h72v-643q0 -151 88.5 -242.5t239.5 -91.5q170 0 275.5 116.5t105.5 315.5zM360 1202h-63q0 153 86 191q82 40 192 -66q91 -87 145 -69.5t54 133.5h64
q0 -153 -84 -191q-84 -37 -193 66q-91 88 -146 70.5t-55 -134.5z" />
    <glyph glyph-name="Umacron" unicode="&#x16a;" horiz-adv-x="1378" 
d="M936 1626h-506v62h506v-62zM170 469v965h76v-965q0 -189 117.5 -304.5t326.5 -115.5q207 0 325 116t118 304v965h75v-965q0 -218 -141 -356q-142 -136 -377 -136q-234 0 -379 136q-141 138 -141 356z" />
    <glyph glyph-name="umacron" unicode="&#x16b;" horiz-adv-x="1165" 
d="M315 1278h506v-61h-506v61zM922 479v545h73v-1024h-73v227q-53 -123 -153.5 -186.5t-233.5 -63.5q-179 0 -287 111q-107 110 -107 293v643h72v-643q0 -151 88.5 -242.5t239.5 -91.5q170 0 275.5 116.5t105.5 315.5z" />
    <glyph glyph-name="Uring" unicode="&#x16e;" horiz-adv-x="1378" 
d="M829 1528q-56 -53 -145 -53q-88 0 -147 53q-56 56 -56 137q0 82 56 135q58 55 147 55q90 0 145 -55q56 -53 56 -135q0 -81 -56 -137zM582 1567q38 -37 101.5 -37t100.5 37q38 37 38 98t-38 98q-37 37 -100.5 36.5t-101.5 -38.5q-38 -37 -38 -96.5t38 -97.5zM170 469v965
h76v-965q0 -189 117.5 -304.5t326.5 -115.5q207 0 325 116t118 304v965h75v-965q0 -218 -141 -356q-142 -136 -377 -136q-234 0 -379 136q-141 138 -141 356z" />
    <glyph glyph-name="uring" unicode="&#x16f;" horiz-adv-x="1165" 
d="M713 1194q-56 -53 -146 -53q-88 0 -147 53q-55 55 -55 137q0 83 55 135q59 56 147 56q90 0 146 -56q55 -52 55 -135q0 -82 -55 -137zM668 1430q-37 37 -101 36t-102 -39q-38 -37 -38 -96.5t38 -97.5q38 -37 102 -37t101 37q38 37 38 98.5t-38 98.5zM922 479v545h73v-1024
h-73v227q-53 -123 -153.5 -186.5t-233.5 -63.5q-179 0 -287 111q-107 110 -107 293v643h72v-643q0 -151 88.5 -242.5t239.5 -91.5q170 0 275.5 116.5t105.5 315.5z" />
    <glyph glyph-name="Uhungarumlaut" unicode="&#x170;" horiz-adv-x="1378" 
d="M442 1577l144 266h80l-154 -266h-70zM729 1577l164 266h80l-174 -266h-70zM170 469q0 -218 141 -356q145 -136 379 -136q235 0 377 136q141 138 141 356v965h-75v-965q0 -188 -118 -304t-325 -116q-209 0 -326.5 115.5t-117.5 304.5v965h-76v-965z" />
    <glyph glyph-name="uhungarumlaut" unicode="&#x171;" horiz-adv-x="1165" 
d="M471 1434h80l-154 -267h-69zM778 1434h80l-174 -267h-70zM922 479v545h73v-1024h-73v227q-53 -123 -153.5 -186.5t-233.5 -63.5q-179 0 -287 111q-107 110 -107 293v643h72v-643q0 -151 88.5 -242.5t239.5 -91.5q170 0 275.5 116.5t105.5 315.5z" />
    <glyph glyph-name="Uogonek" unicode="&#x172;" horiz-adv-x="1378" 
d="M1133 469v965h75v-965q0 -253 -182 -391q-150 -130 -217 -211q-57 -72 -57 -148q0 -42 26.5 -66t71.5 -24q44 0 90 17v-60q-46 -18 -102 -18q-72 0 -113 38.5t-41 104.5q0 134 172 287q-86 -21 -166 -21q-234 0 -379 136q-141 138 -141 356v965h76v-965
q0 -189 117.5 -304.5t326.5 -115.5q207 0 325 116t118 304z" />
    <glyph glyph-name="uogonek" unicode="&#x173;" horiz-adv-x="1165" 
d="M995 1024v-1024q-184 -156 -184 -281q0 -42 25.5 -66t68.5 -24q44 0 90 17v-60q-43 -18 -102 -18q-69 0 -110.5 38.5t-41.5 104.5q0 129 181 301v215q-53 -123 -153.5 -186.5t-233.5 -63.5q-179 0 -287 111q-107 110 -107 293v643h72v-643q0 -151 88.5 -242.5
t239.5 -91.5q170 0 275.5 116.5t105.5 315.5v545h73z" />
    <glyph glyph-name="Wcircumflex" unicode="&#x174;" horiz-adv-x="2021" 
d="M1100 1577l-187 209l-184 -209h-82l225 252h84l226 -252h-82zM1483 98l385 1336h78l-416 -1434h-90l-430 1337l-428 -1337h-90l-416 1434h78l383 -1336l430 1336h88z" />
    <glyph glyph-name="wcircumflex" unicode="&#x175;" horiz-adv-x="1576" 
d="M971 1167l-187 209l-184 -209h-82l225 252h84l226 -252h-82zM1133 94l294 930h74l-327 -1024h-80l-306 926l-305 -926h-80l-327 1024h74l294 -930l306 930h77z" />
    <glyph glyph-name="Ycircumflex" unicode="&#x176;" horiz-adv-x="1171" 
d="M766 1577l-186 209l-185 -209h-82l226 252h84l225 -252h-82zM1067 1434h84l-528 -842v-592h-76v594l-527 840h84l482 -770z" />
    <glyph glyph-name="ycircumflex" unicode="&#x177;" horiz-adv-x="1044" 
d="M721 1167l-186 209l-185 -209h-82l226 252h84l225 -252h-82zM551 55l385 969h74l-445 -1118q-62 -154 -169 -240t-230 -76v68q101 -10 188 61t142 203l20 45l-481 1057h74z" />
    <glyph glyph-name="Ydieresis" unicode="&#x178;" horiz-adv-x="1171" 
d="M410 1593q-23 0 -40.5 17.5t-17.5 42.5q0 23 17.5 40t40.5 17q25 0 42 -17t17 -40q0 -25 -17 -42.5t-42 -17.5zM758 1593q-23 0 -40.5 17.5t-17.5 42.5q0 23 17.5 40t40.5 17q25 0 42 -17t17 -40q0 -25 -17 -42.5t-42 -17.5zM1067 1434h84l-528 -842v-592h-76v594
l-527 840h84l482 -770z" />
    <glyph glyph-name="Zacute" unicode="&#x179;" horiz-adv-x="1079" 
d="M645 1829h84l-180 -252h-68zM983 1364l-803 -1294h824v-70h-908v70l805 1294h-784v70h866v-70z" />
    <glyph glyph-name="zacute" unicode="&#x17a;" horiz-adv-x="989" 
d="M602 1419h84l-180 -252h-68zM874 979l-659 -911h680v-68h-778v45l657 911h-637v68h737v-45z" />
    <glyph glyph-name="Zdotaccent" unicode="&#x17b;" horiz-adv-x="1079" 
d="M549 1591q-47 -3 -66.5 37.5t0 81t66.5 37.5q49 3 69.5 -37.5t0 -81t-69.5 -37.5zM983 1364l-803 -1294h824v-70h-908v70l805 1294h-784v70h866v-70z" />
    <glyph glyph-name="zdotaccent" unicode="&#x17c;" horiz-adv-x="989" 
d="M506 1182q-47 -3 -66.5 37.5t0 80.5t66.5 37q49 3 69.5 -37t0 -80.5t-69.5 -37.5zM874 979l-659 -911h680v-68h-778v45l657 911h-637v68h737v-45z" />
    <glyph glyph-name="Zcaron" unicode="&#x17d;" horiz-adv-x="1079" 
d="M588 1577h-82l-225 252h79l187 -209l186 209h80zM983 1364l-803 -1294h824v-70h-908v70l805 1294h-784v70h866v-70z" />
    <glyph glyph-name="zcaron" unicode="&#x17e;" horiz-adv-x="989" 
d="M545 1167h-82l-225 252h79l187 -209l186 209h80zM874 979l-659 -911h680v-68h-778v45l657 911h-637v68h737v-45z" />
    <glyph glyph-name="florin" unicode="&#x192;" horiz-adv-x="888" 
d="M449 754l75 442q26 152 129.5 219.5t235.5 22.5v-70q-109 44 -190 -5t-101 -173l-76 -436h258v-70h-270l-148 -860q-26 -153 -128 -220t-234 -22v70q106 -45 188.5 4.5t102.5 173.5l145 854h-243v70h256z" />
    <glyph glyph-name="Ohorn" unicode="&#x1a0;" horiz-adv-x="1695" 
d="M1370 193q-216 -216 -522 -216q-305 0 -524 216q-215 218 -215 524q0 307 215 522q217 217 524 217q95 0 188 -22h144q74 0 96 31t22 112v10h70v-10q0 -200 -164 -211q89 -50 166 -127q217 -214 217 -522q0 -307 -217 -524zM377 244q195 -195 471 -195q274 0 469 195
q194 197 194 473q0 277 -194 471q-193 196 -469 196q-278 0 -471 -196q-193 -193 -193 -471q0 -277 193 -473z" />
    <glyph glyph-name="ohorn" unicode="&#x1a1;" horiz-adv-x="1263" 
d="M631 -23q-222 0 -379 154q-156 156 -156 381q0 226 156 379q156 156 379 156q78 0 162 -23h88q74 0 96 31t22 112v11h70v-11q0 -184 -141 -209q35 -22 84 -67q155 -152 155 -379q0 -226 -155 -381q-157 -154 -381 -154zM301 180q136 -133 330 -133t330 133
q135 135 135 332q0 198 -135 330q-135 135 -330 135t-330 -135q-133 -133 -133 -330q0 -196 133 -332z" />
    <glyph glyph-name="Uhorn" unicode="&#x1af;" horiz-adv-x="1378" 
d="M170 469v965h76v-965q0 -189 117.5 -304.5t326.5 -115.5q207 0 325 116t118 304v965h47q74 0 96 31t22 112v10h70v-10q0 -196 -160 -211v-897q0 -218 -141 -356q-142 -136 -377 -136q-234 0 -379 136q-141 138 -141 356z" />
    <glyph glyph-name="uhorn" unicode="&#x1b0;" horiz-adv-x="1165" 
d="M922 479v545h67q65 3 85 34t20 109v11h69v-11q0 -204 -168 -211v-956h-73v227q-53 -123 -153.5 -186.5t-233.5 -63.5q-179 0 -287 111q-107 110 -107 293v643h72v-643q0 -151 88.5 -242.5t239.5 -91.5q170 0 275.5 116.5t105.5 315.5z" />
    <glyph glyph-name="Scommaaccent" unicode="&#x218;" horiz-adv-x="1171" 
d="M616 -23q-195 0 -330.5 89t-183.5 239l64 37q39 -136 157.5 -214.5t294.5 -78.5q180 0 281.5 86.5t101.5 226.5q0 63 -23.5 111.5t-75.5 87.5t-121 69t-173 62l-143 45q-72 29 -119 54q-92 46 -135 112t-49 174q0 162 121 271q120 108 307 108q159 0 273.5 -80.5
t170.5 -216.5l-61 -35q-102 260 -383 260q-164 0 -260 -90q-94 -88 -94 -215q0 -137 114 -205q67 -39 117 -59q15 -6 154 -53q165 -55 266 -109q94 -50 138 -116.5t50 -171.5q0 -174 -125 -281t-334 -107zM596 -492h-53l20 349h72z" />
    <glyph glyph-name="scommaaccent" unicode="&#x219;" horiz-adv-x="944" 
d="M207 758q0 -141 227 -197q164 -35 225 -58q165 -62 187 -190q4 -21 4 -45q0 -126 -102 -209q-101 -82 -261 -82q-303 0 -385 224l60 35q65 -189 325 -189q126 0 207.5 61t81.5 160q0 150 -227 199q-12 3 -55 13t-59 13.5t-55.5 14.5t-56.5 18.5t-49.5 22t-47.5 27.5
t-36.5 33t-31.5 41t-17.5 49t-7.5 59q0 123 94 205q96 84 252 84q120 0 209.5 -54t128.5 -147l-59 -35q-32 79 -106 122.5t-173 43.5q-119 0 -195.5 -60.5t-76.5 -158.5zM496 -492h-54l21 349h72z" />
    <glyph glyph-name="uni021A" unicode="&#x21a;" horiz-adv-x="1105" 
d="M55 1434h996v-70h-461v-1364h-74v1364h-461v70zM553 -492h-53l20 349h72z" />
    <glyph glyph-name="uni021B" unicode="&#x21b;" horiz-adv-x="774" 
d="M678 1024v-68h-316v-714q0 -130 70 -164q73 -36 246 -15v-63q-202 -31 -294.5 26t-92.5 216v714h-236v68h236v264l71 23v-287h316zM483 -492h-53l21 349h71z" />
    <glyph glyph-name="circumflex" unicode="&#x2c6;" horiz-adv-x="616" 
d="M350 1419l225 -252h-81l-187 209l-184 -209h-82l225 252h84z" />
    <glyph glyph-name="caron" unicode="&#x2c7;" horiz-adv-x="616" 
d="M309 1210l187 209h79l-225 -252h-82l-225 252h80z" />
    <glyph glyph-name="breve" unicode="&#x2d8;" horiz-adv-x="600" 
d="M301 1165q-117 0 -188.5 63.5t-71.5 168.5h70q0 -79 51 -124.5t139 -45.5t139.5 45.5t51.5 124.5h69q0 -106 -70.5 -169t-189.5 -63z" />
    <glyph glyph-name="dotaccent" unicode="&#x2d9;" horiz-adv-x="239" 
d="M119 1182q-47 -3 -66.5 37.5t0 80.5t66.5 37q49 3 69.5 -37t0 -80.5t-69.5 -37.5z" />
    <glyph glyph-name="ring" unicode="&#x2da;" horiz-adv-x="485" 
d="M389 1194q-56 -53 -145 -53t-148 53q-55 55 -55 137q0 83 55 135q59 56 148 56t145 -56q55 -52 55 -135q0 -82 -55 -137zM141 1233q38 -37 102 -37t101 37q38 37 38 98.5t-38 98.5q-37 37 -101 36t-102 -39q-38 -37 -38 -96.5t38 -97.5z" />
    <glyph glyph-name="ogonek" unicode="&#x2db;" horiz-adv-x="337" 
d="M195 -432q-72 0 -113 38.5t-41 104.5q0 137 174 289h80q-184 -156 -184 -281q0 -42 26.5 -66t69.5 -24q44 0 90 17v-60q-43 -18 -102 -18z" />
    <glyph glyph-name="tilde" unicode="&#x2dc;" horiz-adv-x="622" 
d="M104 1202h-63q0 153 84 191q85 40 194 -66q91 -87 145 -69.5t54 133.5h64q0 -153 -86 -191q-82 -37 -191 66q-91 88 -146 70.5t-55 -134.5z" />
    <glyph glyph-name="hungarumlaut" unicode="&#x2dd;" horiz-adv-x="612" 
d="M41 1167l143 267h80l-153 -267h-70zM328 1167l164 267h79l-174 -267h-69z" />
    <glyph glyph-name="gravecomb" unicode="&#x300;" horiz-adv-x="0" 
d="M-41 1167h-68l-180 252h84z" />
    <glyph glyph-name="acutecomb" unicode="&#x301;" horiz-adv-x="0" 
d="M-289 1167l164 252h84l-180 -252h-68z" />
    <glyph glyph-name="uni0302" unicode="&#x302;" horiz-adv-x="0" 
d="M-266 1419l225 -252h-82l-186 209l-185 -209h-81l225 252h84z" />
    <glyph glyph-name="tildecomb" unicode="&#x303;" horiz-adv-x="0" 
d="M-518 1202h-64q0 153 86 191q83 41 193 -66q91 -87 145 -69.5t54 133.5h63q0 -153 -84 -191q-83 -37 -192 66q-91 88 -146 70.5t-55 -134.5z" />
    <glyph glyph-name="uni0304" unicode="&#x304;" horiz-adv-x="0" 
d="M-41 1217h-506v61h506v-61z" />
    <glyph glyph-name="uni0306" unicode="&#x306;" horiz-adv-x="0" 
d="M-328 1165q-117 0 -188.5 63.5t-71.5 168.5h70q0 -79 51 -124.5t139 -45.5t139.5 45.5t51.5 124.5h69q0 -106 -70.5 -169t-189.5 -63z" />
    <glyph glyph-name="uni0307" unicode="&#x307;" horiz-adv-x="0" 
d="M-121 1182q-47 -3 -66.5 37.5t0 80.5t66.5 37q49 3 69.5 -37t0 -80.5t-69.5 -37.5z" />
    <glyph glyph-name="uni0308" unicode="&#x308;" horiz-adv-x="0" 
d="M-449 1184q-23 0 -40 17t-17 42q0 23 17 40t40 17q25 0 42.5 -17t17.5 -40q0 -25 -17.5 -42t-42.5 -17zM-100 1184q-24 0 -41 17t-17 42q0 23 17.5 40t40.5 17q25 0 42 -17t17 -40q0 -25 -17 -42t-42 -17z" />
    <glyph glyph-name="uni030A" unicode="&#x30a;" horiz-adv-x="0" 
d="M-96 1194q-56 -53 -146 -53q-89 0 -145 53q-57 54 -57 137q0 84 57 135q56 56 145 56q90 0 146 -56q55 -52 55 -135q0 -82 -55 -137zM-344 1233q38 -37 102.5 -37t102.5 37q37 37 37 98.5t-37 98.5q-38 37 -102.5 36t-102.5 -39q-38 -37 -38 -96.5t38 -97.5z" />
    <glyph glyph-name="uni030B" unicode="&#x30b;" horiz-adv-x="0" 
d="M-557 1167l143 267h80l-153 -267h-70zM-270 1167l164 267h79l-174 -267h-69z" />
    <glyph glyph-name="uni030C" unicode="&#x30c;" horiz-adv-x="0" 
d="M-307 1210l186 209h80l-225 -252h-82l-225 252h79z" />
    <glyph glyph-name="uni0312" unicode="&#x312;" horiz-adv-x="0" 
d="M-94 1966h53l-20 -348h-72z" />
    <glyph glyph-name="uni0326" unicode="&#x326;" horiz-adv-x="0" 
d="M-80 -492h-53l20 349h72z" />
    <glyph glyph-name="uni0327" unicode="&#x327;" horiz-adv-x="0" 
d="M-225 0v-139q77 0 130.5 -38t53.5 -99q0 -85 -95 -125.5t-284 -22.5v59q314 -35 314 89q0 97 -183 88v188h64z" />
    <glyph glyph-name="uni0328" unicode="&#x328;" horiz-adv-x="0" 
d="M-143 -432q-72 0 -113 38.5t-41 104.5q0 137 174 289h80q-184 -156 -184 -281q0 -42 26.5 -66t69.5 -24q44 0 90 17v-60q-43 -18 -102 -18z" />
    <glyph glyph-name="uni0394" unicode="&#x394;" horiz-adv-x="1273" 
d="M596 1434h82l561 -1434h-1204zM637 1346l-498 -1276h996z" />
    <glyph glyph-name="uni03A9" unicode="&#x3a9;" horiz-adv-x="1695" 
d="M1587 717q0 -215 -112 -387q-110 -171 -295 -260h385v-70h-553v70q222 57 358 233q141 181 141 414q0 277 -194 471q-193 196 -469 196q-278 0 -471 -196q-193 -193 -193 -471q0 -230 140 -414q140 -177 360 -233v-70h-553v70h385q-186 88 -297 260q-110 174 -110 387
q0 307 215 522q217 217 524 217q308 0 522 -217q217 -214 217 -522z" />
    <glyph glyph-name="pi" unicode="&#x3c0;" horiz-adv-x="1331" 
d="M76 1024h1179v-68h-170v-956h-71v956h-688v-956h-72v956h-178v68z" />
    <glyph glyph-name="uni0401" unicode="&#x401;" horiz-adv-x="1099" 
d="M418 1593q-23 0 -40.5 17.5t-17.5 42.5q0 23 17.5 40t40.5 17q25 0 42 -17t17 -40q0 -25 -17 -42.5t-42 -17.5zM766 1593q-23 0 -40 17.5t-17 42.5q0 23 17 40t40 17q25 0 42 -17t17 -40q0 -25 -17 -42.5t-42 -17.5zM266 688v-618h738v-70h-814v1434h803v-70h-727v-606
h676v-70h-676z" />
    <glyph glyph-name="uni0402" unicode="&#x402;" horiz-adv-x="1431" 
d="M924 965q164 0 266 -97t102 -270v-330q0 -147 -81 -220t-232 -60v67q238 -21 238 213v330q0 138 -80.5 217.5t-210.5 79.5q-180 0 -377 -96v-799h-74v1364h-420v70h989v-70h-495v-496q192 97 375 97z" />
    <glyph glyph-name="uni0403" unicode="&#x403;" horiz-adv-x="1017" 
d="M662 1827h83l-180 -252h-67zM190 1434h773v-70h-697v-1364h-76v1434z" />
    <glyph glyph-name="uni0404" unicode="&#x404;" horiz-adv-x="1548" 
d="M1397 362l65 -36q-88 -160 -253 -254.5t-361 -94.5q-318 0 -531 216q-208 214 -208 524t208 524q212 215 531 215q190 0 354 -92q165 -92 254 -246l-65 -39q-75 136 -224 221q-147 84 -319 84q-279 0 -467 -182q-185 -182 -197 -450h834v-70h-834q12 -269 197 -451
q188 -182 467 -182q173 0 323 84q150 85 226 229z" />
    <glyph glyph-name="uni0405" unicode="&#x405;" horiz-adv-x="1171" 
d="M616 -23q-195 0 -330.5 89t-183.5 239l64 37q39 -136 157.5 -214.5t294.5 -78.5q180 0 281.5 86.5t101.5 226.5q0 63 -23.5 111.5t-75.5 87.5t-121 69t-173 62l-143 45q-72 29 -119 54q-92 46 -135 112t-49 174q0 162 121 271q120 108 307 108q159 0 273.5 -80.5
t170.5 -216.5l-61 -35q-102 260 -383 260q-164 0 -260 -90q-94 -88 -94 -215q0 -137 114 -205q67 -39 117 -59q15 -6 154 -53q165 -55 266 -109q94 -50 138 -116.5t50 -171.5q0 -174 -125 -281t-334 -107z" />
    <glyph glyph-name="uni0406" unicode="&#x406;" horiz-adv-x="456" 
d="M190 0v1434h76v-1434h-76z" />
    <glyph glyph-name="uni0407" unicode="&#x407;" horiz-adv-x="456" 
d="M55 1593q-23 0 -40 17.5t-17 42.5q0 23 17 40t40 17q25 0 42.5 -17t17.5 -40q0 -25 -17.5 -42.5t-42.5 -17.5zM403 1593q-23 0 -40 17.5t-17 42.5q0 23 17 40t40 17q25 0 42.5 -17t17.5 -40q0 -25 -17.5 -42.5t-42.5 -17.5zM190 0v1434h76v-1434h-76z" />
    <glyph glyph-name="uni0408" unicode="&#x408;" horiz-adv-x="1134" 
d="M512 -23q-149 0 -259 63t-157 175l62 37q83 -203 354 -203q173 0 275 90t102 242v1053h74v-1053q0 -186 -127 -295t-324 -109z" />
    <glyph glyph-name="uni0409" unicode="&#x409;" horiz-adv-x="2037" 
d="M1171 793h355q174 0 295 -115t121 -283q0 -167 -121 -282q-119 -113 -295 -113h-430v1364h-658v-784q0 -306 -98 -452t-295 -132v67q157 -14 237 109t80 410v852h809v-641zM1171 70h355q141 0 241 92q101 91 101 233q0 143 -101 234q-98 94 -241 94h-355v-653z" />
    <glyph glyph-name="uni040A" unicode="&#x40a;" horiz-adv-x="2021" 
d="M1153 793h356q174 0 295 -115t121 -283q0 -167 -121 -282q-119 -113 -295 -113h-430v723h-813v-723h-76v1434h76v-641h813v641h74v-641zM1153 70h356q140 0 240 92q100 90 100 233q0 144 -100 234q-98 94 -240 94h-356v-653z" />
    <glyph glyph-name="uni040B" unicode="&#x40b;" horiz-adv-x="1449" 
d="M924 965q164 0 266 -97t102 -270v-598h-75v598q0 138 -80.5 217.5t-210.5 79.5q-180 0 -377 -96v-799h-74v1364h-420v70h989v-70h-495v-496q192 97 375 97z" />
    <glyph glyph-name="uni040C" unicode="&#x40c;" horiz-adv-x="1153" 
d="M682 1827h84l-180 -252h-68zM348 737l785 -737h-99l-768 717v-717h-76v1434h76v-676l748 676h98z" />
    <glyph glyph-name="uni040E" unicode="&#x40e;" horiz-adv-x="1153" 
d="M338 1686h506v-62h-506v62zM627 461l415 973h76l-477 -1121q-144 -334 -416 -313v68q224 -18 344 260l21 47l-514 1059h76z" />
    <glyph glyph-name="uni040F" unicode="&#x40f;" horiz-adv-x="1406" 
d="M1141 70v1364h73v-1434h-473v-274h-75v274h-476v1434h76v-1364h875z" />
    <glyph glyph-name="uni0410" unicode="&#x410;" horiz-adv-x="1288" 
d="M1247 0h-80l-147 379h-752l-147 -379h-80l561 1434h82zM643 1346l-348 -897h698z" />
    <glyph glyph-name="uni0411" unicode="&#x411;" horiz-adv-x="1198" 
d="M266 834h430q173 0 293 -123q123 -123 123 -295t-123 -295q-121 -121 -293 -121h-506v1434h814v-70h-738v-530zM266 70h430q142 0 242 100t100 246t-100 246q-102 102 -242 102h-430v-694z" />
    <glyph glyph-name="uni0412" unicode="&#x412;" horiz-adv-x="1284" 
d="M915 739q121 -35 197 -133t76 -223q0 -157 -113 -270t-270 -113h-615v1434h568q151 0 260 -109q108 -108 108 -260q0 -108 -57 -195.5t-154 -130.5zM758 1364h-492v-598h492q121 0 207 86q86 89 86 213q0 122 -86 211q-85 88 -207 88zM266 70h539q127 0 217 90
q90 93 90 223q0 128 -90 221q-89 92 -217 92h-539v-626z" />
    <glyph glyph-name="uni0413" unicode="&#x413;" horiz-adv-x="1017" 
d="M190 1434h773v-70h-697v-1364h-76v1434z" />
    <glyph glyph-name="uni0414" unicode="&#x414;" horiz-adv-x="1413" 
d="M1182 1434v-1364h145v-344h-74v274h-1134v-274h-74v344h111q151 171 151 518v846h875zM383 1364v-778q0 -338 -135 -516h858v1294h-723z" />
    <glyph glyph-name="uni0415" unicode="&#x415;" horiz-adv-x="1099" 
d="M266 688v-618h738v-70h-814v1434h803v-70h-727v-606h676v-70h-676z" />
    <glyph glyph-name="uni0416" unicode="&#x416;" horiz-adv-x="1683" 
d="M956 737l686 -737h-90l-673 719v-719h-74v719l-674 -719h-90l686 737l-666 697h91l653 -680v680h74v-680l653 680h90z" />
    <glyph glyph-name="uni0417" unicode="&#x417;" horiz-adv-x="1122" 
d="M754 737q133 -35 209.5 -133t76.5 -229q0 -173 -129 -287q-129 -111 -340 -111q-381 0 -489 308l63 37q86 -275 426 -275q178 0 287 92t109 236q0 141 -97.5 231t-259.5 90h-159v70h118q156 0 250 86t94 221q0 137 -97.5 225t-252.5 88q-285 0 -387 -249l-61 37
q120 282 448 282q186 0 305 -110q121 -109 121 -275q0 -117 -62 -205t-173 -129z" />
    <glyph glyph-name="uni0418" unicode="&#x418;" horiz-adv-x="1419" 
d="M1229 0h-76v1298l-893 -1298h-70v1434h76v-1299l895 1299h68v-1434z" />
    <glyph glyph-name="uni0419" unicode="&#x419;" horiz-adv-x="1419" 
d="M965 1626h-506v62h506v-62zM1229 0h-76v1298l-893 -1298h-70v1434h76v-1299l895 1299h68v-1434z" />
    <glyph glyph-name="uni041A" unicode="&#x41a;" horiz-adv-x="1153" 
d="M348 737l785 -737h-99l-768 717v-717h-76v1434h76v-676l748 676h98z" />
    <glyph glyph-name="uni041B" unicode="&#x41b;" horiz-adv-x="1437" 
d="M45 0v68q157 -18 237 104.5t80 409.5v852h883v-1434h-74v1364h-733v-784q0 -312 -97.5 -454.5t-295.5 -125.5z" />
    <glyph glyph-name="uni041C" unicode="&#x41c;" horiz-adv-x="1665" 
d="M1380 1434h95v-1434h-76v1323l-557 -911h-19l-557 911v-1323h-76v1434h97l547 -897z" />
    <glyph glyph-name="uni041D" unicode="&#x41d;" horiz-adv-x="1419" 
d="M1153 772v662h76v-1434h-76v702h-887v-702h-76v1434h76v-662h887z" />
    <glyph glyph-name="uni041E" unicode="&#x41e;" horiz-adv-x="1695" 
d="M1370 193q-216 -216 -522 -216q-305 0 -524 216q-215 218 -215 524q0 307 215 522q217 217 524 217q308 0 522 -217q217 -214 217 -522q0 -307 -217 -524zM377 244q195 -195 471 -195q274 0 469 195q194 197 194 473q0 277 -194 471q-193 196 -469 196q-278 0 -471 -196
q-193 -193 -193 -471q0 -277 193 -473z" />
    <glyph glyph-name="uni041F" unicode="&#x41f;" horiz-adv-x="1406" 
d="M190 1434h1024v-1434h-73v1364h-875v-1364h-76v1434z" />
    <glyph glyph-name="uni0420" unicode="&#x420;" horiz-adv-x="1193" 
d="M190 1434h465q193 0 318 -125q127 -124 127 -312q0 -186 -127 -313q-125 -125 -318 -125h-389v-559h-76v1434zM266 629h389q161 0 265 104t104 264q0 159 -104 263t-265 104h-389v-735z" />
    <glyph glyph-name="uni0421" unicode="&#x421;" horiz-adv-x="1552" 
d="M852 -23q-320 0 -533 216q-210 213 -210 524t210 524q212 215 533 215q190 0 354 -92q165 -92 254 -246l-65 -39q-80 140 -226 222.5t-317 82.5q-288 0 -479 -194q-189 -195 -189 -473q0 -280 189 -475q190 -193 479 -193q174 0 324 84q147 85 223 229l67 -36
q-88 -159 -253.5 -254t-360.5 -95z" />
    <glyph glyph-name="uni0422" unicode="&#x422;" horiz-adv-x="1105" 
d="M55 1434h996v-70h-461v-1364h-74v1364h-461v70z" />
    <glyph glyph-name="uni0423" unicode="&#x423;" horiz-adv-x="1153" 
d="M627 461l415 973h76l-477 -1121q-144 -334 -416 -313v68q224 -18 344 260l21 47l-514 1059h76z" />
    <glyph glyph-name="uni0424" unicode="&#x424;" horiz-adv-x="1646" 
d="M860 160v-160h-74v160q-320 9 -514 151q-196 144 -196 406q0 259 196 403q198 145 514 154v160h74v-160q316 -9 514 -154q197 -144 197 -403q0 -262 -197 -406q-194 -142 -514 -151zM786 227v979q-297 -8 -466.5 -136.5t-169.5 -352.5t169.5 -353t466.5 -137zM860 1206
v-979q297 8 467 137t170 353t-170 352.5t-467 136.5z" />
    <glyph glyph-name="uni0425" unicode="&#x425;" horiz-adv-x="1161" 
d="M625 733l481 -733h-88l-438 668l-439 -668h-86l482 733l-459 701h86l418 -635l415 635h86z" />
    <glyph glyph-name="uni0426" unicode="&#x426;" horiz-adv-x="1413" 
d="M1188 1434v-1364h147v-344h-75v274h-1070v1434h76v-1364h846v1364h76z" />
    <glyph glyph-name="uni0427" unicode="&#x427;" horiz-adv-x="1286" 
d="M1020 707v727h76v-1434h-76v633q-198 -94 -416 -94q-213 0 -332 110q-118 112 -118 287v498h75v-498q0 -150 99.5 -239t275.5 -89q216 0 416 99z" />
    <glyph glyph-name="uni0428" unicode="&#x428;" horiz-adv-x="1972" 
d="M1706 70v1364h76v-1434h-1592v1434h76v-1364h682v1364h76v-1364h682z" />
    <glyph glyph-name="uni0429" unicode="&#x429;" horiz-adv-x="2007" 
d="M1782 1434v-1364h147v-344h-76v274h-1663v1434h76v-1364h682v1364h76v-1364h682v1364h76z" />
    <glyph glyph-name="uni042A" unicode="&#x42a;" horiz-adv-x="1406" 
d="M866 0h-463v1364h-403v70h477v-560h389q194 0 318 -124q127 -127 127 -314q0 -186 -127 -313q-126 -123 -318 -123zM477 805v-735h389q163 0 264 104q105 105 105 262q0 159 -105 264t-264 105h-389z" />
    <glyph glyph-name="uni042B" unicode="&#x42b;" horiz-adv-x="1540" 
d="M655 0h-465v1434h76v-560h389q194 0 318 -124q127 -127 127 -314q0 -186 -127 -313q-126 -123 -318 -123zM1348 0h-74v1434h74v-1434zM266 805v-735h389q161 0 265 104t104 262q0 160 -104 264q-105 105 -265 105h-389z" />
    <glyph glyph-name="uni042C" unicode="&#x42c;" horiz-adv-x="1193" 
d="M266 874h389q194 0 318 -124q127 -127 127 -314q0 -186 -127 -313q-126 -123 -318 -123h-465v1434h76v-560zM266 70h389q161 0 265 104t104 262q0 160 -104 264q-105 105 -265 105h-389v-735z" />
    <glyph glyph-name="uni042D" unicode="&#x42d;" horiz-adv-x="1548" 
d="M700 1456q320 0 529 -215q211 -214 211 -524t-211 -524q-210 -216 -529 -216q-196 0 -361 94.5t-253 254.5l66 36q76 -144 223 -229q153 -84 325 -84q280 0 465 182q187 181 199 451h-834v70h834q-12 269 -199 450q-185 182 -465 182q-172 0 -319 -84t-223 -221l-66 39
q90 155 252 246q164 92 356 92z" />
    <glyph glyph-name="uni042E" unicode="&#x42e;" horiz-adv-x="2156" 
d="M1309 1456q308 0 522 -217q217 -214 217 -522q0 -307 -217 -524q-216 -216 -522 -216q-305 0 -516 211q-214 214 -220 514h-307v-702h-76v1434h76v-662h309q21 283 232 485q211 199 502 199zM838 244q195 -195 471 -195q274 0 469 195q194 197 194 473q0 277 -194 471
q-193 196 -469 196q-278 0 -471 -196q-193 -193 -193 -471q0 -277 193 -473z" />
    <glyph glyph-name="uni042F" unicode="&#x42f;" horiz-adv-x="1296" 
d="M547 1434h559v-1434h-76v600h-444l-412 -600h-86l414 602q-158 15 -266 135q-107 119 -107 281q0 173 123 293q123 123 295 123zM547 670h483v694h-483q-140 0 -242 -102q-100 -100 -100 -244q0 -146 100 -246q102 -102 242 -102z" />
    <glyph glyph-name="uni0430" unicode="&#x430;" 
d="M1096 750v274h71v-1024h-71v274q-62 -136 -187.5 -216.5t-279.5 -80.5q-220 0 -377 154q-156 156 -156 381q0 226 156 379q156 156 377 156q154 0 279.5 -80.5t187.5 -216.5zM301 180q136 -133 330 -133t330 133q135 135 135 332q0 198 -135 330q-135 135 -330 135
t-330 -135q-133 -133 -133 -330q0 -196 133 -332z" />
    <glyph glyph-name="uni0431" unicode="&#x431;" horiz-adv-x="1179" 
d="M608 -23q-222 0 -366 144q-146 146 -146 381q0 250 72 391q74 141 301 252q53 27 129 57q24 11 65 28.5t56 24.5q40 18 71 36.5t60.5 42.5t47 55t20.5 65l57 -33q-22 -111 -121 -170q-80 -46 -96 -53t-57.5 -24.5t-67.5 -28.5l-127 -55q-159 -75 -236 -170
q-74 -92 -92 -252q72 125 193 193.5t256 68.5q202 0 340 -135q137 -134 137 -342q0 -206 -139 -342q-140 -134 -357 -134zM608 47q186 0 305 113t119 293q0 178 -117 292q-114 117 -294 117q-165 0 -295 -106q-129 -105 -156 -267q0 -193 123 -319q123 -123 315 -123z" />
    <glyph glyph-name="uni0432" unicode="&#x432;" horiz-adv-x="1050" 
d="M782 530q93 -26 144 -93.5t51 -160.5q0 -125 -81 -200.5t-230 -75.5h-496v1024h459q140 0 218.5 -72.5t78.5 -191.5q0 -166 -144 -230zM629 956h-385v-399h385q106 0 165.5 53.5t59.5 147.5q0 92 -59.5 145t-165.5 53zM244 68h422q112 0 174.5 56.5t62.5 156.5
q0 98 -62.5 153t-174.5 55h-422v-421z" />
    <glyph glyph-name="uni0433" unicode="&#x433;" horiz-adv-x="825" 
d="M170 1024h629v-68h-555v-956h-74v1024z" />
    <glyph glyph-name="uni0434" unicode="&#x434;" horiz-adv-x="1208" 
d="M989 1024v-956h144v-342h-72v274h-934v-274h-72v342h113q117 163 117 436v520h704zM258 68h660v888h-560v-452q0 -267 -100 -436z" />
    <glyph glyph-name="uni0435" unicode="&#x435;" horiz-adv-x="1216" 
d="M618 1047q226 0 365 -160q141 -159 141 -379q0 -29 -2 -35h-952q12 -189 141 -309q129 -117 318 -117q127 0 227 53.5t150 145.5l63 -37q-62 -107 -178 -169.5t-262 -62.5q-233 0 -383 150t-150 385q0 227 148 381t374 154zM618 977q-189 0 -315 -123
q-126 -120 -135 -313h883q-15 197 -138 317q-119 119 -295 119z" />
    <glyph glyph-name="uni0436" unicode="&#x436;" 
d="M772 532l510 -532h-90l-487 512v-512h-72v512l-488 -512h-90l508 532l-487 492h90l467 -471v471h72v-471l466 471h91z" />
    <glyph glyph-name="uni0437" unicode="&#x437;" horiz-adv-x="911" 
d="M627 530q99 -26 154 -96.5t55 -165.5q0 -122 -99 -207q-96 -84 -270 -84q-311 0 -391 240l59 35q64 -205 332 -205q136 0 216.5 61.5t80.5 161.5q0 99 -70 159t-186 60h-131v68h94q112 0 177 57t65 152q0 93 -73.5 152t-190.5 59q-108 0 -185 -46.5t-110 -129.5l-60 35
q42 99 133 155t222 56q154 0 245 -82q92 -80 92 -195q0 -81 -41.5 -145.5t-117.5 -94.5z" />
    <glyph glyph-name="uni0438" unicode="&#x438;" horiz-adv-x="1173" 
d="M244 123l694 901h66v-1024h-72v901l-696 -901h-66v1024h74v-901z" />
    <glyph glyph-name="uni0439" unicode="&#x439;" horiz-adv-x="1173" 
d="M842 1217h-506v61h506v-61zM244 123l694 901h66v-1024h-72v901l-696 -901h-66v1024h74v-901z" />
    <glyph glyph-name="uni043A" unicode="&#x43a;" horiz-adv-x="966" 
d="M319 532l592 -532h-98l-569 510v-510h-74v1024h74v-471l549 471h98z" />
    <glyph glyph-name="uni043B" unicode="&#x43b;" horiz-adv-x="1167" 
d="M285 1024h712v-1024h-73v956h-566v-534q0 -224 -81 -330t-242 -92v68q129 -11 189.5 73.5t60.5 280.5v602z" />
    <glyph glyph-name="uni043C" unicode="&#x43c;" horiz-adv-x="1316" 
d="M1059 1024h88v-1024h-72v924l-409 -633h-15l-407 629v-920h-74v1024h90l399 -612z" />
    <glyph glyph-name="uni043D" unicode="&#x43d;" horiz-adv-x="1173" 
d="M932 547v477h72v-1024h-72v477h-688v-477h-74v1024h74v-477h688z" />
    <glyph glyph-name="uni043E" unicode="&#x43e;" horiz-adv-x="1263" 
d="M631 -23q-222 0 -379 154q-156 156 -156 381q0 226 156 379q156 156 379 156q225 0 381 -156q155 -152 155 -379q0 -226 -155 -381q-157 -154 -381 -154zM301 180q136 -133 330 -133t330 133q135 135 135 332q0 198 -135 330q-135 135 -330 135t-330 -135
q-133 -133 -133 -330q0 -196 133 -332z" />
    <glyph glyph-name="uni043F" unicode="&#x43f;" horiz-adv-x="1173" 
d="M170 1024h834v-1024h-72v956h-688v-956h-74v1024z" />
    <glyph glyph-name="uni0440" unicode="&#x440;" 
d="M711 1047q220 0 376 -156q156 -153 156 -379q0 -225 -156 -381q-157 -154 -376 -154q-156 0 -279.5 79t-187.5 216v-682h-74v1434h74v-272q64 137 187.5 216t279.5 79zM377 180q136 -133 330 -133t327 133q135 135 135 332q0 198 -135 330q-132 135 -327 135t-330 -135
q-133 -133 -133 -330q0 -196 133 -332z" />
    <glyph glyph-name="uni0441" unicode="&#x441;" horiz-adv-x="1167" 
d="M631 -23q-227 0 -381 154t-154 381t154 381t381 154q149 0 270 -69.5t178 -186.5l-59 -35q-50 101 -155 161t-234 60q-198 0 -330 -135q-133 -133 -133 -330q0 -196 133 -332q133 -133 330 -133q129 0 232.5 60t158.5 161l59 -35q-60 -118 -181 -187t-269 -69z" />
    <glyph glyph-name="uni0442" unicode="&#x442;" horiz-adv-x="901" 
d="M35 1024h831v-68h-379v-956h-73v956h-379v68z" />
    <glyph glyph-name="uni0443" unicode="&#x443;" horiz-adv-x="1044" 
d="M551 55l385 969h74l-445 -1118q-62 -154 -169 -240t-230 -76v68q101 -10 188 61t142 203l20 45l-481 1057h74z" />
    <glyph glyph-name="uni0444" unicode="&#x444;" horiz-adv-x="1372" 
d="M723 -25v-385h-74v385q-244 12 -399 164q-154 151 -154 373t154 373q155 152 399 164v385h74v-385q244 -12 399 -164q154 -151 154 -373t-154 -373q-155 -152 -399 -164zM649 43v938q-217 -12 -348 -143q-133 -133 -133 -326t133 -326q131 -131 348 -143zM723 981v-938
q217 12 348 143q133 133 133 326t-133 326q-131 131 -348 143z" />
    <glyph glyph-name="uni0445" unicode="&#x445;" horiz-adv-x="1030" 
d="M559 526l418 -526h-88l-373 471l-373 -471h-88l418 526l-395 498h86l352 -442l350 442h88z" />
    <glyph glyph-name="uni0446" unicode="&#x446;" horiz-adv-x="1222" 
d="M983 1024v-956h164v-342h-72v274h-905v1024h74v-956h667v956h72z" />
    <glyph glyph-name="uni0447" unicode="&#x447;" horiz-adv-x="1112" 
d="M870 481v543h72v-1024h-72v414q-153 -72 -333 -72q-192 0 -300 89.5t-108 250.5v342h74v-342q0 -133 86 -203.5t248 -70.5q175 0 333 73z" />
    <glyph glyph-name="uni0448" unicode="&#x448;" horiz-adv-x="1685" 
d="M1444 68v956h72v-1024h-1346v1024h74v-956h563v956h72v-956h565z" />
    <glyph glyph-name="uni0449" unicode="&#x449;" horiz-adv-x="1734" 
d="M1516 1024v-956h143v-342h-72v274h-1417v1024h74v-956h563v956h72v-956h565v956h72z" />
    <glyph glyph-name="uni044A" unicode="&#x44a;" horiz-adv-x="1105" 
d="M373 618h323q141 0 236 -86q98 -82 98 -221q0 -137 -98 -225q-100 -86 -236 -86h-395v956h-301v68h373v-406zM373 68h323q113 0 187.5 69t74.5 174q0 104 -74.5 172t-187.5 68h-323v-483z" />
    <glyph glyph-name="uni044B" unicode="&#x44b;" horiz-adv-x="1314" 
d="M244 618h321q138 0 238 -86q98 -82 98 -221q0 -137 -98 -225q-100 -86 -238 -86h-395v1024h74v-406zM1071 0v1024h74v-1024h-74zM244 68h321q113 0 188.5 69t75.5 174q0 104 -75.5 172t-188.5 68h-321v-483z" />
    <glyph glyph-name="uni044C" unicode="&#x44c;" horiz-adv-x="976" 
d="M244 618h321q138 0 238 -86q98 -82 98 -221q0 -137 -98 -225q-100 -86 -238 -86h-395v1024h74v-406zM244 68h321q113 0 188.5 69t75.5 174q0 104 -75.5 172t-188.5 68h-321v-483z" />
    <glyph glyph-name="uni044D" unicode="&#x44d;" horiz-adv-x="1144" 
d="M528 1047q232 0 377 -154q144 -150 144 -381q0 -228 -146 -383q-146 -152 -377 -152q-158 0 -280 69.5t-178 189.5l61 34q50 -104 154 -163.5t243 -59.5q192 0 316 121t133 309h-547v70h547q-9 188 -133 309q-121 121 -314 121q-136 0 -240.5 -59.5t-154.5 -163.5l-61 37
q60 119 181 187.5t275 68.5z" />
    <glyph glyph-name="uni044E" unicode="&#x44e;" horiz-adv-x="1652" 
d="M1020 1047q225 0 381 -156q155 -152 155 -379q0 -226 -155 -381q-157 -154 -381 -154q-214 0 -367 144q-152 146 -164 356h-245v-477h-74v1024h74v-477h245q12 210 164 356q153 144 367 144zM690 180q136 -133 330 -133t330 133q135 135 135 332q0 198 -135 330
q-135 135 -330 135t-330 -135q-133 -133 -133 -330q0 -196 133 -332z" />
    <glyph glyph-name="uni044F" unicode="&#x44f;" horiz-adv-x="1024" 
d="M459 1024h395v-1024h-74v408h-266l-326 -408h-92l332 410q-132 11 -218.5 94t-86.5 209q0 138 98 223q98 88 238 88zM459 473h321v483h-321q-113 0 -188.5 -69t-75.5 -174q0 -104 75.5 -172t188.5 -68z" />
    <glyph glyph-name="uni0451" unicode="&#x451;" horiz-adv-x="1216" 
d="M432 1184q-23 0 -40 17t-17 42q0 23 17 40t40 17q25 0 42.5 -17t17.5 -40q0 -25 -17.5 -42t-42.5 -17zM780 1184q-23 0 -40 17t-17 42q0 23 17 40t40 17q25 0 42.5 -17t17.5 -40q0 -25 -17.5 -42t-42.5 -17zM618 1047q226 0 365 -160q141 -159 141 -379q0 -29 -2 -35
h-952q12 -189 141 -309q129 -117 318 -117q127 0 227 53.5t150 145.5l63 -37q-62 -107 -178 -169.5t-262 -62.5q-233 0 -383 150t-150 385q0 227 148 381t374 154zM618 977q-189 0 -315 -123q-126 -120 -135 -313h883q-15 197 -138 317q-119 119 -295 119z" />
    <glyph glyph-name="uni0452" unicode="&#x452;" horiz-adv-x="1200" 
d="M666 1047q176 0 284 -111q109 -112 109 -293v-793q0 -148 -81 -221.5t-233 -60.5v70q240 -27 240 212v793q0 151 -87.5 242.5t-238.5 91.5q-173 0 -278 -116t-105 -316v-545h-71v1206h-158v60h158v168h71v-168h345v-60h-345v-413q54 124 155 189t235 65z" />
    <glyph glyph-name="uni0453" unicode="&#x453;" horiz-adv-x="825" 
d="M532 1419h84l-180 -252h-67zM170 1024h629v-68h-555v-956h-74v1024z" />
    <glyph glyph-name="uni0454" unicode="&#x454;" horiz-adv-x="1144" 
d="M1016 270l61 -34q-56 -119 -178.5 -189t-280.5 -70q-232 0 -378 152q-144 153 -144 383q0 231 144 381q145 154 376 154q154 0 275.5 -68.5t181.5 -187.5l-61 -37q-50 103 -155 163t-241 60q-191 0 -315 -121q-122 -122 -131 -309h547v-70h-547q9 -188 133 -309t315 -121
q139 0 243.5 59.5t154.5 163.5z" />
    <glyph glyph-name="uni0455" unicode="&#x455;" horiz-adv-x="944" 
d="M207 758q0 -141 227 -197q164 -35 225 -58q165 -62 187 -190q4 -21 4 -45q0 -126 -102 -209q-101 -82 -261 -82q-303 0 -385 224l60 35q65 -189 325 -189q126 0 207.5 61t81.5 160q0 150 -227 199q-12 3 -55 13t-59 13.5t-55.5 14.5t-56.5 18.5t-49.5 22t-47.5 27.5
t-36.5 33t-31.5 41t-17.5 49t-7.5 59q0 123 94 205q96 84 252 84q120 0 209.5 -54t128.5 -147l-59 -35q-32 79 -106 122.5t-173 43.5q-119 0 -195.5 -60.5t-76.5 -158.5z" />
    <glyph glyph-name="uni0456" unicode="&#x456;" horiz-adv-x="413" 
d="M143 1366q0 40 31.5 56t63.5 0t32 -56q0 -25 -18.5 -44t-44.5 -19t-45 19t-19 44zM244 0h-74v1024h74v-1024z" />
    <glyph glyph-name="uni0457" unicode="&#x457;" horiz-adv-x="413" 
d="M33 1184q-23 0 -40.5 17t-17.5 42q0 23 17.5 40t40.5 17q25 0 42 -17t17 -40q0 -25 -17 -42t-42 -17zM381 1184q-23 0 -40 17t-17 42q0 23 17 40t40 17q25 0 42 -17t17 -40q0 -25 -17 -42t-42 -17zM244 0h-74v1024h74v-1024z" />
    <glyph glyph-name="uni0458" unicode="&#x458;" horiz-adv-x="442" 
d="M299 1366q0 -25 -18.5 -44t-44.5 -19t-45 19t-19 44q0 40 32 56t63.5 0t31.5 -56zM199 -150v1174h73v-1174q0 -148 -80.5 -221.5t-232.5 -60.5v70q240 -27 240 212z" />
    <glyph glyph-name="uni0459" unicode="&#x459;" horiz-adv-x="1671" 
d="M977 578h305q138 0 226.5 -77.5t88.5 -209.5q0 -136 -92 -213q-90 -78 -223 -78h-379v956h-545v-534q0 -224 -81 -330t-242 -92v68q129 -11 189.5 73.5t60.5 280.5v602h692v-446zM977 68h305q108 0 175 60t67 163q0 101 -67 160t-175 59h-305v-442z" />
    <glyph glyph-name="uni045A" unicode="&#x45a;" horiz-adv-x="1644" 
d="M948 578h307q137 0 225.5 -77.5t88.5 -209.5t-89 -211.5t-225 -79.5h-378v510h-648v-510h-71v1024h71v-446h648v446h71v-446zM948 68h307q108 0 175 60t67 163q0 101 -67 160t-175 59h-307v-442z" />
    <glyph glyph-name="uni045B" unicode="&#x45b;" horiz-adv-x="1200" 
d="M666 1047q176 0 284 -111q109 -112 109 -293v-643h-74v643q0 151 -87.5 242.5t-238.5 91.5q-173 0 -278 -116t-105 -316v-545h-71v1206h-158v60h158v168h71v-168h345v-60h-345v-413q54 124 155 189t235 65z" />
    <glyph glyph-name="uni045C" unicode="&#x45c;" horiz-adv-x="966" 
d="M586 1419h84l-181 -252h-67zM319 532l592 -532h-98l-569 510v-510h-74v1024h74v-471l549 471h98z" />
    <glyph glyph-name="uni045E" unicode="&#x45e;" horiz-adv-x="1044" 
d="M287 1278h506v-61h-506v61zM551 55l385 969h74l-445 -1118q-62 -154 -169 -240t-230 -76v68q101 -10 188 61t142 203l20 45l-481 1057h74z" />
    <glyph glyph-name="uni045F" unicode="&#x45f;" horiz-adv-x="1173" 
d="M932 68v956h72v-1024h-381v-274h-72v274h-381v1024h74v-956h688z" />
    <glyph glyph-name="uni0490" unicode="&#x490;" horiz-adv-x="1017" 
d="M887 1434v245h76v-315h-697v-1364h-76v1434h697z" />
    <glyph glyph-name="uni0491" unicode="&#x491;" horiz-adv-x="825" 
d="M727 1024v213h72v-281h-555v-956h-74v1024h557z" />
    <glyph glyph-name="Wgrave" unicode="&#x1e80;" horiz-adv-x="2021" 
d="M993 1577h-67l-181 252h84zM492 0h90l428 1337l430 -1337h90l416 1434h-78l-385 -1336l-428 1336h-88l-430 -1336l-383 1336h-78z" />
    <glyph glyph-name="wgrave" unicode="&#x1e81;" horiz-adv-x="1576" 
d="M700 1419l164 -252h-67l-181 252h84zM1133 94l294 930h74l-327 -1024h-80l-306 926l-305 -926h-80l-327 1024h74l294 -930l306 930h77z" />
    <glyph glyph-name="Wacute" unicode="&#x1e82;" horiz-adv-x="2021" 
d="M850 1577l164 252h84l-180 -252h-68zM492 0h90l428 1337l430 -1337h90l416 1434h-78l-385 -1336l-428 1336h-88l-430 -1336l-383 1336h-78z" />
    <glyph glyph-name="wacute" unicode="&#x1e83;" horiz-adv-x="1576" 
d="M885 1419h84l-181 -252h-67zM1133 94l294 930h74l-327 -1024h-80l-306 926l-305 -926h-80l-327 1024h74l294 -930l306 930h77z" />
    <glyph glyph-name="Wdieresis" unicode="&#x1e84;" horiz-adv-x="2021" 
d="M743 1593q-23 0 -40 17.5t-17 42.5q0 23 17 40t40 17q25 0 42.5 -17t17.5 -40q0 -25 -17.5 -42.5t-42.5 -17.5zM1092 1593q-23 0 -40.5 17.5t-17.5 42.5q0 23 17.5 40t40.5 17q25 0 42 -17t17 -40q0 -25 -17 -42.5t-42 -17.5zM582 0h-90l-416 1434h78l383 -1336l430 1336
h88l428 -1336l385 1336h78l-416 -1434h-90l-430 1337z" />
    <glyph glyph-name="wdieresis" unicode="&#x1e85;" horiz-adv-x="1576" 
d="M614 1184q-23 0 -40 17t-17 42q0 23 17 40t40 17q25 0 42.5 -17t17.5 -40q0 -25 -17.5 -42t-42.5 -17zM963 1184q-23 0 -40.5 17t-17.5 42q0 23 17.5 40t40.5 17q25 0 42 -17t17 -40q0 -25 -17 -42t-42 -17zM1133 94l294 930h74l-327 -1024h-80l-306 926l-305 -926h-80
l-327 1024h74l294 -930l306 930h77z" />
    <glyph glyph-name="uni1EA0" unicode="&#x1ea0;" horiz-adv-x="1288" 
d="M569 -244q0 40 31.5 56t63.5 0t32 -56q0 -25 -18.5 -44t-44.5 -19t-45 19t-19 44zM1247 0h-80l-147 379h-752l-147 -379h-80l561 1434h82zM643 1346l-348 -897h698z" />
    <glyph glyph-name="uni1EA1" unicode="&#x1ea1;" 
d="M592 -244q0 40 32 56t63.5 0t31.5 -56q0 -25 -19 -44t-45 -19t-44.5 19t-18.5 44zM1096 750v274h71v-1024h-71v274q-62 -136 -187.5 -216.5t-279.5 -80.5q-220 0 -377 154q-156 156 -156 381q0 226 156 379q156 156 377 156q154 0 279.5 -80.5t187.5 -216.5zM301 180
q136 -133 330 -133t330 133q135 135 135 332q0 198 -135 330q-135 135 -330 135t-330 -135q-133 -133 -133 -330q0 -196 133 -332z" />
    <glyph glyph-name="uni1EA2" unicode="&#x1ea2;" horiz-adv-x="1288" 
d="M670 1577h-60v2q0 30 0.5 40t4.5 22.5t14 19.5q21 21 41 31q3 2 14 8.5t15 9t13 9t13 11.5t9 12.5t7 16.5t2 19q0 37 -25 58.5t-73 21.5q-67 0 -113 -72q-4 3 -19 10t-30 16q24 45 67 72t95 27q63 0 110.5 -34t47.5 -97q0 -74 -84 -123q-25 -13 -35.5 -26t-12 -21.5
t-1.5 -32.5zM1247 0h-80l-147 379h-752l-147 -379h-80l561 1434h82zM643 1346l-348 -897h698z" />
    <glyph glyph-name="uni1EA3" unicode="&#x1ea3;" 
d="M764 1167h-59v2v11q0 23 0.5 33.5t4.5 21t13 16.5q21 21 41 31q4 2 14.5 8t15 9t13 9.5t13 11.5t9.5 12.5t7 16.5t2 19q0 36 -25.5 58t-73.5 22q-66 0 -112 -72q-4 3 -19.5 11t-29.5 16q24 45 66.5 71.5t94.5 26.5q63 0 110.5 -34t47.5 -97q0 -74 -84 -123
q-25 -13 -35.5 -26t-12 -21.5t-1.5 -32.5zM1096 750v274h71v-1024h-71v274q-62 -136 -187.5 -216.5t-279.5 -80.5q-220 0 -377 154q-156 156 -156 381q0 226 156 379q156 156 377 156q154 0 279.5 -80.5t187.5 -216.5zM301 180q136 -133 330 -133t330 133q135 135 135 332
q0 198 -135 330q-135 135 -330 135t-330 -135q-133 -133 -133 -330q0 -196 133 -332z" />
    <glyph glyph-name="uni1EA4" unicode="&#x1ea4;" horiz-adv-x="1288" 
d="M1247 0h-80l-147 379h-752l-147 -379h-80l561 1434h82zM643 1346l-348 -897h698zM815 1577l-174 195l-172 -195h-76l211 233h78l209 -233h-76zM848 1739l151 233h78l-168 -233h-61z" />
    <glyph glyph-name="uni1EA5" unicode="&#x1ea5;" 
d="M903 1167l-174 195l-172 -195h-76l211 234h78l209 -234h-76zM1096 750v274h71v-1024h-71v274q-62 -136 -187.5 -216.5t-279.5 -80.5q-220 0 -377 154q-156 156 -156 381q0 226 156 379q156 156 377 156q154 0 279.5 -80.5t187.5 -216.5zM301 180q136 -133 330 -133
t330 133q135 135 135 332q0 198 -135 330q-135 135 -330 135t-330 -135q-133 -133 -133 -330q0 -196 133 -332zM936 1329l151 234h78l-168 -234h-61z" />
    <glyph glyph-name="uni1EA6" unicode="&#x1ea6;" horiz-adv-x="1288" 
d="M1247 0h-80l-147 379h-752l-147 -379h-80l561 1434h82zM643 1346l-348 -897h698zM815 1577l-174 195l-172 -195h-76l211 233h78l209 -233h-76zM944 1739h-63l-168 233h78z" />
    <glyph glyph-name="uni1EA7" unicode="&#x1ea7;" 
d="M903 1167l-174 195l-172 -195h-76l211 234h78l209 -234h-76zM1096 750v274h71v-1024h-71v274q-62 -136 -187.5 -216.5t-279.5 -80.5q-220 0 -377 154q-156 156 -156 381q0 226 156 379q156 156 377 156q154 0 279.5 -80.5t187.5 -216.5zM301 180q136 -133 330 -133
t330 133q135 135 135 332q0 198 -135 330q-135 135 -330 135t-330 -135q-133 -133 -133 -330q0 -196 133 -332zM1032 1329h-63l-168 234h78z" />
    <glyph glyph-name="uni1EA8" unicode="&#x1ea8;" horiz-adv-x="1288" 
d="M1247 0h-80l-147 379h-752l-147 -379h-80l561 1434h82zM643 1346l-348 -897h698zM815 1577l-174 195l-172 -195h-76l211 233h78l209 -233h-76zM899 1739h-55v2v10q0 22 0.5 31.5t4.5 19.5t13 15q10 13 37 28q1 1 13 7.5t14.5 8.5t12.5 8.5t13 11l8 12t7 15.5t2 17
q0 35 -23.5 55.5t-68.5 20.5q-60 0 -105 -68q-3 2 -47 25q22 42 62.5 67t89.5 25q58 0 102.5 -32t44.5 -91q0 -65 -80 -115q-23 -12 -32.5 -23.5t-11 -19.5t-1.5 -30z" />
    <glyph glyph-name="uni1EA9" unicode="&#x1ea9;" 
d="M903 1167l-174 195l-172 -195h-76l211 234h78l209 -234h-76zM1096 750v274h71v-1024h-71v274q-62 -136 -187.5 -216.5t-279.5 -80.5q-220 0 -377 154q-156 156 -156 381q0 226 156 379q156 156 377 156q154 0 279.5 -80.5t187.5 -216.5zM301 180q136 -133 330 -133
t330 133q135 135 135 332q0 198 -135 330q-135 135 -330 135t-330 -135q-133 -133 -133 -330q0 -196 133 -332zM987 1329h-55v2v10q0 22 0.5 31.5t4.5 19.5t13 15q12 14 37 29q1 1 13 7.5t14.5 8.5t12.5 8.5t13 11l8 12t7 15.5t2 17q0 35 -23.5 55t-68.5 20q-61 0 -105 -67
q-4 3 -9 5.5l-16 8t-22 10.5q22 42 62.5 67t89.5 25q58 0 102.5 -31.5t44.5 -90.5q0 -65 -80 -115q-23 -12 -32.5 -23.5t-11 -20t-1.5 -30.5z" />
    <glyph glyph-name="uni1EAA" unicode="&#x1eaa;" horiz-adv-x="1288" 
d="M1247 0h-80l-147 379h-752l-147 -379h-80l561 1434h82zM643 1346l-348 -897h698zM815 1577l-174 195l-172 -195h-76l211 233h78l209 -233h-76zM444 1872h-59q0 141 78 176q78 37 182 -59q85 -81 134.5 -65t49.5 122h60q0 -141 -80 -176q-75 -34 -178 61q-85 82 -136 66
t-51 -125z" />
    <glyph glyph-name="uni1EAB" unicode="&#x1eab;" 
d="M903 1167l-174 195l-172 -195h-76l211 234h78l209 -234h-76zM1096 750v274h71v-1024h-71v274q-62 -136 -187.5 -216.5t-279.5 -80.5q-220 0 -377 154q-156 156 -156 381q0 226 156 379q156 156 377 156q154 0 279.5 -80.5t187.5 -216.5zM301 180q136 -133 330 -133
t330 133q135 135 135 332q0 198 -135 330q-135 135 -330 135t-330 -135q-133 -133 -133 -330q0 -196 133 -332zM532 1462h-59q0 141 78 176q78 37 182 -59q85 -81 135 -65t50 122h59q0 -141 -80 -176q-75 -34 -178 62q-85 82 -136 65.5t-51 -125.5z" />
    <glyph glyph-name="uni1EAC" unicode="&#x1eac;" horiz-adv-x="1288" 
d="M1247 0h-80l-147 379h-752l-147 -379h-80l561 1434h82zM643 1346l-348 -897h698zM815 1577l-174 195l-172 -195h-76l211 233h78l209 -233h-76zM569 -244q0 40 31.5 56t63.5 0t32 -56q0 -25 -18.5 -44t-44.5 -19t-45 19t-19 44z" />
    <glyph glyph-name="uni1EAD" unicode="&#x1ead;" 
d="M903 1167l-174 195l-172 -195h-76l211 234h78l209 -234h-76zM1096 750v274h71v-1024h-71v274q-62 -136 -187.5 -216.5t-279.5 -80.5q-220 0 -377 154q-156 156 -156 381q0 226 156 379q156 156 377 156q154 0 279.5 -80.5t187.5 -216.5zM301 180q136 -133 330 -133
t330 133q135 135 135 332q0 198 -135 330q-135 135 -330 135t-330 -135q-133 -133 -133 -330q0 -196 133 -332zM592 -244q0 40 32 56t63.5 0t31.5 -56q0 -25 -19 -44t-45 -19t-44.5 19t-18.5 44z" />
    <glyph glyph-name="uni1EAE" unicode="&#x1eae;" horiz-adv-x="1288" 
d="M1247 0h-80l-147 379h-752l-147 -379h-80l561 1434h82zM643 1346l-348 -897h698zM643 1575q-109 0 -175.5 58.5t-66.5 156.5h66q0 -73 47 -115.5t129 -42.5t130 42.5t48 115.5h64q0 -98 -66 -156.5t-176 -58.5zM600 1843l152 234h77l-167 -234h-62z" />
    <glyph glyph-name="uni1EAF" unicode="&#x1eaf;" 
d="M745 1165q-109 0 -175 58.5t-66 156.5h65q0 -73 47 -115t129 -42t130.5 42t48.5 115h63q0 -98 -66 -156.5t-176 -58.5zM1096 750v274h71v-1024h-71v274q-62 -136 -187.5 -216.5t-279.5 -80.5q-220 0 -377 154q-156 156 -156 381q0 226 156 379q156 156 377 156
q154 0 279.5 -80.5t187.5 -216.5zM301 180q136 -133 330 -133t330 133q135 135 135 332q0 198 -135 330q-135 135 -330 135t-330 -135q-133 -133 -133 -330q0 -196 133 -332zM702 1434l152 233h78l-168 -233h-62z" />
    <glyph glyph-name="uni1EB0" unicode="&#x1eb0;" horiz-adv-x="1288" 
d="M1247 0h-80l-147 379h-752l-147 -379h-80l561 1434h82zM643 1346l-348 -897h698zM643 1575q-109 0 -175.5 58.5t-66.5 156.5h66q0 -73 47 -115.5t129 -42.5t130 42.5t48 115.5h64q0 -98 -66 -156.5t-176 -58.5zM702 1843h-63l-168 234h78z" />
    <glyph glyph-name="uni1EB1" unicode="&#x1eb1;" 
d="M745 1165q-109 0 -175 58.5t-66 156.5h65q0 -73 47 -115t129 -42t130.5 42t48.5 115h63q0 -98 -66 -156.5t-176 -58.5zM1096 750v274h71v-1024h-71v274q-62 -136 -187.5 -216.5t-279.5 -80.5q-220 0 -377 154q-156 156 -156 381q0 226 156 379q156 156 377 156
q154 0 279.5 -80.5t187.5 -216.5zM301 180q136 -133 330 -133t330 133q135 135 135 332q0 198 -135 330q-135 135 -330 135t-330 -135q-133 -133 -133 -330q0 -196 133 -332zM805 1434h-64l-168 233h78z" />
    <glyph glyph-name="uni1EB2" unicode="&#x1eb2;" horiz-adv-x="1288" 
d="M1247 0h-80l-147 379h-752l-147 -379h-80l561 1434h82zM643 1346l-348 -897h698zM643 1575q-109 0 -175.5 58.5t-66.5 156.5h66q0 -73 47 -115.5t129 -42.5t130 42.5t48 115.5h64q0 -98 -66 -156.5t-176 -58.5zM680 1843h-55v2v10q0 22 0.5 31.5t4.5 19.5t13 15
q12 14 37 29q1 1 13 7.5t14.5 8.5t12.5 8.5t13 11l8 12t7 15.5t2 17q0 35 -24 55t-69 20q-60 0 -104 -67q-4 3 -9 5.5l-16 8t-22 10.5q22 42 62 67t89 25q59 0 103.5 -31.5t44.5 -90.5q0 -65 -80 -115q-23 -12 -32.5 -23.5t-11 -20t-1.5 -30.5z" />
    <glyph glyph-name="uni1EB3" unicode="&#x1eb3;" 
d="M745 1165q-109 0 -175 58.5t-66 156.5h65q0 -73 47 -115t129 -42t130.5 42t48.5 115h63q0 -98 -66 -156.5t-176 -58.5zM1096 750v274h71v-1024h-71v274q-62 -136 -187.5 -216.5t-279.5 -80.5q-220 0 -377 154q-156 156 -156 381q0 226 156 379q156 156 377 156
q154 0 279.5 -80.5t187.5 -216.5zM301 180q136 -133 330 -133t330 133q135 135 135 332q0 198 -135 330q-135 135 -330 135t-330 -135q-133 -133 -133 -330q0 -196 133 -332zM782 1434h-55v2v10q0 22 0.5 31t4.5 19t13 15q12 14 37 29q1 1 13 7.5t14.5 8.5t12.5 8.5t13 11
l8 12t7 15.5t2 17q0 35 -23.5 55.5t-68.5 20.5q-60 0 -105 -68q-3 2 -47 25q22 42 62.5 67t89.5 25q58 0 102.5 -32t44.5 -91q0 -65 -80 -115q-23 -12 -32.5 -23.5t-11 -19.5t-1.5 -30z" />
    <glyph glyph-name="uni1EB4" unicode="&#x1eb4;" horiz-adv-x="1288" 
d="M1247 0h-80l-147 379h-752l-147 -379h-80l561 1434h82zM643 1346l-348 -897h698zM643 1575q-109 0 -175.5 58.5t-66.5 156.5h66q0 -73 47 -115.5t129 -42.5t130 42.5t48 115.5h64q0 -98 -66 -156.5t-176 -58.5zM459 1851h-60q0 142 78 177q78 37 182 -60q85 -81 135 -65
t50 122h59q0 -141 -80 -176q-75 -34 -178 62q-85 82 -135.5 65.5t-50.5 -125.5z" />
    <glyph glyph-name="uni1EB5" unicode="&#x1eb5;" 
d="M745 1165q-109 0 -175 58.5t-66 156.5h65q0 -73 47 -115t129 -42t130.5 42t48.5 115h63q0 -98 -66 -156.5t-176 -58.5zM1096 750v274h71v-1024h-71v274q-62 -136 -187.5 -216.5t-279.5 -80.5q-220 0 -377 154q-156 156 -156 381q0 226 156 379q156 156 377 156
q154 0 279.5 -80.5t187.5 -216.5zM301 180q136 -133 330 -133t330 133q135 135 135 332q0 198 -135 330q-135 135 -330 135t-330 -135q-133 -133 -133 -330q0 -196 133 -332zM561 1442h-59q0 141 78 176q78 37 182 -59q85 -81 134.5 -65t49.5 122h60q0 -141 -80 -176
q-75 -34 -178 61q-85 82 -136 66t-51 -125z" />
    <glyph glyph-name="uni1EB6" unicode="&#x1eb6;" horiz-adv-x="1288" 
d="M1247 0h-80l-147 379h-752l-147 -379h-80l561 1434h82zM643 1346l-348 -897h698zM643 1575q-109 0 -175.5 58.5t-66.5 156.5h66q0 -73 47 -115.5t129 -42.5t130 42.5t48 115.5h64q0 -98 -66 -156.5t-176 -58.5zM569 -244q0 40 31.5 56t63.5 0t32 -56q0 -25 -18.5 -44
t-44.5 -19t-45 19t-19 44z" />
    <glyph glyph-name="uni1EB7" unicode="&#x1eb7;" 
d="M745 1165q-109 0 -175 58.5t-66 156.5h65q0 -73 47 -115t129 -42t130.5 42t48.5 115h63q0 -98 -66 -156.5t-176 -58.5zM1096 750v274h71v-1024h-71v274q-62 -136 -187.5 -216.5t-279.5 -80.5q-220 0 -377 154q-156 156 -156 381q0 226 156 379q156 156 377 156
q154 0 279.5 -80.5t187.5 -216.5zM301 180q136 -133 330 -133t330 133q135 135 135 332q0 198 -135 330q-135 135 -330 135t-330 -135q-133 -133 -133 -330q0 -196 133 -332zM592 -244q0 40 32 56t63.5 0t31.5 -56q0 -25 -19 -44t-45 -19t-44.5 19t-18.5 44z" />
    <glyph glyph-name="uni1EB8" unicode="&#x1eb8;" horiz-adv-x="1099" 
d="M530 -244q0 40 32 56t63.5 0t31.5 -56q0 -25 -18.5 -44t-44.5 -19t-45 19t-19 44zM266 688v-618h738v-70h-814v1434h803v-70h-727v-606h676v-70h-676z" />
    <glyph glyph-name="uni1EB9" unicode="&#x1eb9;" horiz-adv-x="1216" 
d="M561 -244q0 40 31.5 56t63.5 0t32 -56q0 -25 -18.5 -44t-44.5 -19t-45 19t-19 44zM618 1047q226 0 365 -160q141 -159 141 -379q0 -29 -2 -35h-952q12 -189 141 -309q129 -117 318 -117q127 0 227 53.5t150 145.5l63 -37q-62 -107 -178 -169.5t-262 -62.5
q-233 0 -383 150t-150 385q0 227 148 381t374 154zM618 977q-189 0 -315 -123q-126 -120 -135 -313h883q-15 197 -138 317q-119 119 -295 119z" />
    <glyph glyph-name="uni1EBA" unicode="&#x1eba;" horiz-adv-x="1099" 
d="M651 1577h-59v2v11q0 23 0.5 33.5t4.5 21t13 16.5q21 21 41 31q4 2 14.5 8t15 9t13 9.5t13 11.5t9.5 12.5t7 16.5t2 19q0 37 -25 58.5t-73 21.5q-67 0 -113 -72q-4 3 -19 10t-30 16q24 45 67 72t95 27q63 0 110 -34t47 -97q0 -74 -84 -123q-25 -13 -35.5 -26t-12 -21.5
t-1.5 -32.5zM266 688v-618h738v-70h-814v1434h803v-70h-727v-606h676v-70h-676z" />
    <glyph glyph-name="uni1EBB" unicode="&#x1ebb;" horiz-adv-x="1216" 
d="M670 1167h-60v2q0 30 0.5 40t4.5 22.5t14 19.5q21 21 41 31q3 2 14 8.5t15 9t13 9t13 11.5t9 12.5t7 16.5t2 19q0 37 -25 58.5t-73 21.5q-67 0 -113 -72q-4 3 -19.5 11t-29.5 16q24 45 67 71.5t95 26.5q63 0 110.5 -34t47.5 -97q0 -74 -84 -123q-25 -13 -35.5 -26
t-12 -21.5t-1.5 -32.5zM618 1047q226 0 365 -160q141 -159 141 -379q0 -29 -2 -35h-952q12 -189 141 -309q129 -117 318 -117q127 0 227 53.5t150 145.5l63 -37q-62 -107 -178 -169.5t-262 -62.5q-233 0 -383 150t-150 385q0 227 148 381t374 154zM618 977q-189 0 -315 -123
q-126 -120 -135 -313h883q-15 197 -138 317q-119 119 -295 119z" />
    <glyph glyph-name="uni1EBC" unicode="&#x1ebc;" horiz-adv-x="1099" 
d="M266 688v-618h738v-70h-814v1434h803v-70h-727v-606h676v-70h-676zM385 1612h-63q0 152 86 190q83 41 192 -65q91 -88 145 -70.5t54 133.5h63q0 -152 -84 -190q-84 -37 -192 65q-91 88 -146 71t-55 -134z" />
    <glyph glyph-name="uni1EBD" unicode="&#x1ebd;" horiz-adv-x="1216" 
d="M618 1047q226 0 365 -160q141 -159 141 -379q0 -29 -2 -35h-952q12 -189 141 -309q129 -117 318 -117q127 0 227 53.5t150 145.5l63 -37q-62 -107 -178 -169.5t-262 -62.5q-233 0 -383 150t-150 385q0 227 148 381t374 154zM618 977q-189 0 -315 -123
q-126 -120 -135 -313h883q-15 197 -138 317q-119 119 -295 119zM399 1202h-63q0 153 86 191q82 40 192 -66q91 -87 145 -69.5t54 133.5h64q0 -153 -84 -191q-84 -37 -193 66q-91 88 -146 70.5t-55 -134.5z" />
    <glyph glyph-name="uni1EBE" unicode="&#x1ebe;" horiz-adv-x="1099" 
d="M762 1577l-174 195l-172 -195h-76l211 233h78l209 -233h-76zM266 688v-618h738v-70h-814v1434h803v-70h-727v-606h676v-70h-676zM795 1739l151 233h78l-168 -233h-61z" />
    <glyph glyph-name="uni1EBF" unicode="&#x1ebf;" horiz-adv-x="1216" 
d="M793 1167l-175 195l-172 -195h-75l211 234h77l209 -234h-75zM618 1047q226 0 365 -160q141 -159 141 -379q0 -29 -2 -35h-952q12 -189 141 -309q129 -117 318 -117q127 0 227 53.5t150 145.5l63 -37q-62 -107 -178 -169.5t-262 -62.5q-233 0 -383 150t-150 385
q0 227 148 381t374 154zM618 977q-189 0 -315 -123q-126 -120 -135 -313h883q-15 197 -138 317q-119 119 -295 119zM825 1329l152 234h78l-168 -234h-62z" />
    <glyph glyph-name="uni1EC0" unicode="&#x1ec0;" horiz-adv-x="1099" 
d="M762 1577l-174 195l-172 -195h-76l211 233h78l209 -233h-76zM266 688v-618h738v-70h-814v1434h803v-70h-727v-606h676v-70h-676zM891 1739h-64l-168 233h78z" />
    <glyph glyph-name="uni1EC1" unicode="&#x1ec1;" horiz-adv-x="1216" 
d="M793 1167l-175 195l-172 -195h-75l211 234h77l209 -234h-75zM618 1047q226 0 365 -160q141 -159 141 -379q0 -29 -2 -35h-952q12 -189 141 -309q129 -117 318 -117q127 0 227 53.5t150 145.5l63 -37q-62 -107 -178 -169.5t-262 -62.5q-233 0 -383 150t-150 385
q0 227 148 381t374 154zM618 977q-189 0 -315 -123q-126 -120 -135 -313h883q-15 197 -138 317q-119 119 -295 119zM922 1329h-64l-168 234h78z" />
    <glyph glyph-name="uni1EC2" unicode="&#x1ec2;" horiz-adv-x="1099" 
d="M762 1577l-174 195l-172 -195h-76l211 233h78l209 -233h-76zM266 688v-618h738v-70h-814v1434h803v-70h-727v-606h676v-70h-676zM846 1739h-55v2v10q0 22 0.5 31.5t4.5 19.5t13 15q10 13 37 28q2 1 10 5.5t11.5 6.5t10 6.5t10 7.5t9 8t8 9.5t5.5 10.5t4 12.5t1 13.5
q0 35 -23.5 55.5t-68.5 20.5q-59 0 -104 -68q-3 2 -47 25q22 42 62 67t89 25q58 0 103 -32t45 -91q0 -65 -80 -115q-23 -12 -32.5 -23.5t-11 -19.5t-1.5 -30z" />
    <glyph glyph-name="uni1EC3" unicode="&#x1ec3;" horiz-adv-x="1216" 
d="M793 1167l-175 195l-172 -195h-75l211 234h77l209 -234h-75zM618 1047q226 0 365 -160q141 -159 141 -379q0 -29 -2 -35h-952q12 -189 141 -309q129 -117 318 -117q127 0 227 53.5t150 145.5l63 -37q-62 -107 -178 -169.5t-262 -62.5q-233 0 -383 150t-150 385
q0 227 148 381t374 154zM618 977q-189 0 -315 -123q-126 -120 -135 -313h883q-15 197 -138 317q-119 119 -295 119zM877 1329h-56v2q0 27 0.5 37t4.5 21.5t14 17.5q12 14 37 29q2 1 10 5.5t11.5 6.5t10 6.5t10 7.5t9 8t8 9.5t5.5 10.5t4 12.5t1 13.5q0 35 -23.5 55t-68.5 20
q-60 0 -104 -67q-3 3 -9 5.5t-17 7.5t-22 11q22 42 62.5 67t89.5 25q58 0 102.5 -31.5t44.5 -90.5q0 -66 -79 -115q-23 -12 -32.5 -23.5t-11 -20t-1.5 -30.5z" />
    <glyph glyph-name="uni1EC4" unicode="&#x1ec4;" horiz-adv-x="1099" 
d="M762 1577l-174 195l-172 -195h-76l211 233h78l209 -233h-76zM266 688v-618h738v-70h-814v1434h803v-70h-727v-606h676v-70h-676zM391 1872h-59q0 141 78 176q78 37 182 -59q85 -81 134.5 -65t49.5 122h60q0 -141 -80 -176q-75 -34 -178 61q-85 82 -136 66t-51 -125z" />
    <glyph glyph-name="uni1EC5" unicode="&#x1ec5;" horiz-adv-x="1216" 
d="M793 1167l-175 195l-172 -195h-75l211 234h77l209 -234h-75zM618 1047q226 0 365 -160q141 -159 141 -379q0 -29 -2 -35h-952q12 -189 141 -309q129 -117 318 -117q127 0 227 53.5t150 145.5l63 -37q-62 -107 -178 -169.5t-262 -62.5q-233 0 -383 150t-150 385
q0 227 148 381t374 154zM618 977q-189 0 -315 -123q-126 -120 -135 -313h883q-15 197 -138 317q-119 119 -295 119zM422 1462h-60q0 141 78 176q79 37 183 -59q85 -81 134.5 -65t49.5 122h59q0 -141 -80 -176q-75 -34 -178 62q-85 82 -135.5 65.5t-50.5 -125.5z" />
    <glyph glyph-name="uni1EC6" unicode="&#x1ec6;" horiz-adv-x="1099" 
d="M762 1577l-174 195l-172 -195h-76l211 233h78l209 -233h-76zM266 688v-618h738v-70h-814v1434h803v-70h-727v-606h676v-70h-676zM530 -244q0 40 32 56t63.5 0t31.5 -56q0 -25 -18.5 -44t-44.5 -19t-45 19t-19 44z" />
    <glyph glyph-name="uni1EC7" unicode="&#x1ec7;" horiz-adv-x="1216" 
d="M793 1167l-175 195l-172 -195h-75l211 234h77l209 -234h-75zM618 1047q226 0 365 -160q141 -159 141 -379q0 -29 -2 -35h-952q12 -189 141 -309q129 -117 318 -117q127 0 227 53.5t150 145.5l63 -37q-62 -107 -178 -169.5t-262 -62.5q-233 0 -383 150t-150 385
q0 227 148 381t374 154zM618 977q-189 0 -315 -123q-126 -120 -135 -313h883q-15 197 -138 317q-119 119 -295 119zM561 -244q0 40 31.5 56t63.5 0t32 -56q0 -25 -18.5 -44t-44.5 -19t-45 19t-19 44z" />
    <glyph glyph-name="uni1EC8" unicode="&#x1ec8;" horiz-adv-x="456" 
d="M258 1577h-59v2v11q0 23 0.5 33.5t4.5 21t13 16.5q21 21 41 31q4 2 14.5 8t15 9t13 9.5t13 11.5t9.5 12.5t7 16.5t2 19q0 36 -25.5 58t-73.5 22q-66 0 -112 -72q-4 3 -19 10t-30 16q24 45 66.5 72t94.5 27q63 0 110.5 -34t47.5 -97q0 -74 -84 -123q-25 -13 -35.5 -26
t-12 -21.5t-1.5 -32.5zM190 0v1434h76v-1434h-76z" />
    <glyph glyph-name="uni1EC9" unicode="&#x1ec9;" horiz-adv-x="413" 
d="M244 0h-74v1024h74v-1024zM238 1167h-60v2q0 30 0.5 40t4.5 22.5t14 19.5q21 21 41 31q3 2 14 8.5t15 9t13 9t13 11.5t9 12.5t7 16.5t2 19q0 37 -25 58.5t-73 21.5q-67 0 -113 -72q-4 3 -19.5 11t-29.5 16q24 45 67 71.5t95 26.5q63 0 110.5 -34t47.5 -97q0 -74 -84 -123
q-25 -13 -35.5 -26t-12 -21.5t-1.5 -32.5z" />
    <glyph glyph-name="uni1ECA" unicode="&#x1eca;" horiz-adv-x="456" 
d="M166 -244q0 40 32 56t63.5 0t31.5 -56q0 -25 -19 -44t-45 -19t-44.5 19t-18.5 44zM190 0v1434h76v-1434h-76z" />
    <glyph glyph-name="uni1ECB" unicode="&#x1ecb;" horiz-adv-x="413" 
d="M143 -244q0 40 31.5 56t63.5 0t32 -56q0 -25 -18.5 -44t-44.5 -19t-45 19t-19 44zM143 1270q0 40 31.5 56t63.5 0t32 -56q0 -25 -18.5 -44.5t-44.5 -19.5t-45 19.5t-19 44.5zM244 0h-74v1024h74v-1024z" />
    <glyph glyph-name="uni1ECC" unicode="&#x1ecc;" horiz-adv-x="1695" 
d="M782 -244q0 40 32 56t63.5 0t31.5 -56q0 -25 -18.5 -44t-44.5 -19t-45 19t-19 44zM1370 193q-216 -216 -522 -216q-305 0 -524 216q-215 218 -215 524q0 307 215 522q217 217 524 217q308 0 522 -217q217 -214 217 -522q0 -307 -217 -524zM377 244q195 -195 471 -195
q274 0 469 195q194 197 194 473q0 277 -194 471q-193 196 -469 196q-278 0 -471 -196q-193 -193 -193 -471q0 -277 193 -473z" />
    <glyph glyph-name="uni1ECD" unicode="&#x1ecd;" horiz-adv-x="1263" 
d="M565 -244q0 40 31.5 56t63.5 0t32 -56q0 -25 -18.5 -44t-44.5 -19t-45 19t-19 44zM631 -23q-222 0 -379 154q-156 156 -156 381q0 226 156 379q156 156 379 156q225 0 381 -156q155 -152 155 -379q0 -226 -155 -381q-157 -154 -381 -154zM301 180q136 -133 330 -133
t330 133q135 135 135 332q0 198 -135 330q-135 135 -330 135t-330 -135q-133 -133 -133 -330q0 -196 133 -332z" />
    <glyph glyph-name="uni1ECE" unicode="&#x1ece;" horiz-adv-x="1695" 
d="M1370 193q-216 -216 -522 -216q-305 0 -524 216q-215 218 -215 524q0 307 215 522q217 217 524 217q308 0 522 -217q217 -214 217 -522q0 -307 -217 -524zM377 244q195 -195 471 -195q274 0 469 195q194 197 194 473q0 277 -194 471q-193 196 -469 196q-278 0 -471 -196
q-193 -193 -193 -471q0 -277 193 -473zM920 1577h-60v2q0 30 0.5 40t4.5 22.5t14 19.5q21 21 41 31q3 2 14 8.5t15 9t13 9t13 11.5t9 12.5t7 16.5t2 19q0 37 -25 58.5t-73 21.5q-67 0 -113 -72q-4 3 -19 10t-30 16q24 45 67 72t95 27q63 0 110.5 -34t47.5 -97
q0 -74 -84 -123q-25 -13 -35.5 -26t-12 -21.5t-1.5 -32.5z" />
    <glyph glyph-name="uni1ECF" unicode="&#x1ecf;" horiz-adv-x="1263" 
d="M705 1167h-60v2q0 30 0.5 40t4.5 22.5t14 19.5q21 21 41 31q3 2 14 8.5t15 9t13 9t13 11.5t9 12.5t7 16.5t2 19q0 37 -25 58.5t-73 21.5q-67 0 -113 -72q-4 3 -19.5 11t-29.5 16q24 45 67 71.5t95 26.5q63 0 110.5 -34t47.5 -97q0 -74 -84 -123q-25 -13 -35.5 -26
t-12 -21.5t-1.5 -32.5zM631 -23q-222 0 -379 154q-156 156 -156 381q0 226 156 379q156 156 379 156q225 0 381 -156q155 -152 155 -379q0 -226 -155 -381q-157 -154 -381 -154zM301 180q136 -133 330 -133t330 133q135 135 135 332q0 198 -135 330q-135 135 -330 135
t-330 -135q-133 -133 -133 -330q0 -196 133 -332z" />
    <glyph glyph-name="uni1ED0" unicode="&#x1ed0;" horiz-adv-x="1695" 
d="M1020 1577l-174 195l-172 -195h-76l211 233h78l209 -233h-76zM324 1239q217 217 524 217q308 0 522 -217q217 -214 217 -522q0 -307 -217 -524q-216 -216 -522 -216q-305 0 -524 216q-215 218 -215 524q0 307 215 522zM377 244q195 -195 471 -195q274 0 469 195
q194 197 194 473q0 277 -194 471q-193 196 -469 196q-278 0 -471 -196q-193 -193 -193 -471q0 -277 193 -473zM1053 1739l151 233h78l-168 -233h-61z" />
    <glyph glyph-name="uni1ED1" unicode="&#x1ed1;" horiz-adv-x="1263" 
d="M631 1047q225 0 381 -156q155 -152 155 -379q0 -226 -155 -381q-157 -154 -381 -154q-222 0 -379 154q-156 156 -156 381q0 226 156 379q156 156 379 156zM301 180q136 -133 330 -133t330 133q135 135 135 332q0 198 -135 330q-135 135 -330 135t-330 -135
q-133 -133 -133 -330q0 -196 133 -332zM807 1167l-174 195l-172 -195h-76l211 234h78l209 -234h-76zM840 1329l151 234h78l-168 -234h-61z" />
    <glyph glyph-name="uni1ED2" unicode="&#x1ed2;" horiz-adv-x="1695" 
d="M1020 1577l-174 195l-172 -195h-76l211 233h78l209 -233h-76zM324 1239q217 217 524 217q308 0 522 -217q217 -214 217 -522q0 -307 -217 -524q-216 -216 -522 -216q-305 0 -524 216q-215 218 -215 524q0 307 215 522zM377 244q195 -195 471 -195q274 0 469 195
q194 197 194 473q0 277 -194 471q-193 196 -469 196q-278 0 -471 -196q-193 -193 -193 -471q0 -277 193 -473zM1149 1739h-64l-167 233h77z" />
    <glyph glyph-name="uni1ED3" unicode="&#x1ed3;" horiz-adv-x="1263" 
d="M631 1047q225 0 381 -156q155 -152 155 -379q0 -226 -155 -381q-157 -154 -381 -154q-222 0 -379 154q-156 156 -156 381q0 226 156 379q156 156 379 156zM301 180q136 -133 330 -133t330 133q135 135 135 332q0 198 -135 330q-135 135 -330 135t-330 -135
q-133 -133 -133 -330q0 -196 133 -332zM807 1167l-174 195l-172 -195h-76l211 234h78l209 -234h-76zM936 1329h-64l-167 234h77z" />
    <glyph glyph-name="uni1ED4" unicode="&#x1ed4;" horiz-adv-x="1695" 
d="M1020 1577l-174 195l-172 -195h-76l211 233h78l209 -233h-76zM324 1239q217 217 524 217q308 0 522 -217q217 -214 217 -522q0 -307 -217 -524q-216 -216 -522 -216q-305 0 -524 216q-215 218 -215 524q0 307 215 522zM377 244q195 -195 471 -195q274 0 469 195
q194 197 194 473q0 277 -194 471q-193 196 -469 196q-278 0 -471 -196q-193 -193 -193 -471q0 -277 193 -473zM1104 1739h-55v2v10q0 22 0.5 31.5t4.5 19.5t13 15q10 13 37 28q1 1 13 7.5t14.5 8.5t12.5 8.5t13 11l8 12t7 15.5t2 17q0 35 -24 55.5t-69 20.5q-59 0 -104 -68
q-3 2 -47 25q22 42 62 67t89 25q58 0 103 -32t45 -91q0 -65 -80 -115q-23 -12 -32.5 -23.5t-11 -19.5t-1.5 -30z" />
    <glyph glyph-name="uni1ED5" unicode="&#x1ed5;" horiz-adv-x="1263" 
d="M631 1047q225 0 381 -156q155 -152 155 -379q0 -226 -155 -381q-157 -154 -381 -154q-222 0 -379 154q-156 156 -156 381q0 226 156 379q156 156 379 156zM301 180q136 -133 330 -133t330 133q135 135 135 332q0 198 -135 330q-135 135 -330 135t-330 -135
q-133 -133 -133 -330q0 -196 133 -332zM807 1167l-174 195l-172 -195h-76l211 234h78l209 -234h-76zM891 1329h-55v2v10q0 22 0.5 31.5t4.5 19.5t13 15q12 14 37 29q1 1 13 7.5t14.5 8.5t12.5 8.5t13 11l8 12t7 15.5t2 17q0 35 -24 55t-69 20q-60 0 -104 -67q-4 3 -9 5.5
l-16 8t-22 10.5q22 42 62 67t89 25q59 0 103.5 -31.5t44.5 -90.5q0 -65 -80 -115q-23 -12 -32.5 -23.5t-11 -20t-1.5 -30.5z" />
    <glyph glyph-name="uni1ED6" unicode="&#x1ed6;" horiz-adv-x="1695" 
d="M1020 1577l-174 195l-172 -195h-76l211 233h78l209 -233h-76zM324 1239q217 217 524 217q308 0 522 -217q217 -214 217 -522q0 -307 -217 -524q-216 -216 -522 -216q-305 0 -524 216q-215 218 -215 524q0 307 215 522zM377 244q195 -195 471 -195q274 0 469 195
q194 197 194 473q0 277 -194 471q-193 196 -469 196q-278 0 -471 -196q-193 -193 -193 -471q0 -277 193 -473zM649 1872h-59q0 141 78 176q78 37 182 -59q85 -81 134.5 -65t49.5 122h60q0 -141 -80 -176q-75 -34 -178 61q-85 82 -136 66t-51 -125z" />
    <glyph glyph-name="uni1ED7" unicode="&#x1ed7;" horiz-adv-x="1263" 
d="M631 1047q225 0 381 -156q155 -152 155 -379q0 -226 -155 -381q-157 -154 -381 -154q-222 0 -379 154q-156 156 -156 381q0 226 156 379q156 156 379 156zM301 180q136 -133 330 -133t330 133q135 135 135 332q0 198 -135 330q-135 135 -330 135t-330 -135
q-133 -133 -133 -330q0 -196 133 -332zM807 1167l-174 195l-172 -195h-76l211 234h78l209 -234h-76zM436 1462h-59q0 141 78 176q78 37 182 -59q85 -81 134.5 -65t49.5 122h60q0 -141 -80 -176q-75 -34 -178 62q-85 82 -136 65.5t-51 -125.5z" />
    <glyph glyph-name="uni1ED8" unicode="&#x1ed8;" horiz-adv-x="1695" 
d="M1020 1577l-174 195l-172 -195h-76l211 233h78l209 -233h-76zM324 1239q217 217 524 217q308 0 522 -217q217 -214 217 -522q0 -307 -217 -524q-216 -216 -522 -216q-305 0 -524 216q-215 218 -215 524q0 307 215 522zM377 244q195 -195 471 -195q274 0 469 195
q194 197 194 473q0 277 -194 471q-193 196 -469 196q-278 0 -471 -196q-193 -193 -193 -471q0 -277 193 -473zM782 -244q0 40 32 56t63.5 0t31.5 -56q0 -25 -18.5 -44t-44.5 -19t-45 19t-19 44z" />
    <glyph glyph-name="uni1ED9" unicode="&#x1ed9;" horiz-adv-x="1263" 
d="M819 1167l-186 209l-184 -209h-82l225 252h84l225 -252h-82zM631 1047q225 0 381 -156q155 -152 155 -379q0 -226 -155 -381q-157 -154 -381 -154q-222 0 -379 154q-156 156 -156 381q0 226 156 379q156 156 379 156zM301 180q136 -133 330 -133t330 133q135 135 135 332
q0 198 -135 330q-135 135 -330 135t-330 -135q-133 -133 -133 -330q0 -196 133 -332zM565 -244q0 40 31.5 56t63.5 0t32 -56q0 -25 -18.5 -44t-44.5 -19t-45 19t-19 44z" />
    <glyph glyph-name="uni1EDA" unicode="&#x1eda;" horiz-adv-x="1695" 
d="M834 1577l163 252h84l-180 -252h-67zM1370 193q-216 -216 -522 -216q-305 0 -524 216q-215 218 -215 524q0 307 215 522q217 217 524 217q95 0 188 -22h144q74 0 96 31t22 112v10h70v-10q0 -200 -164 -211q89 -50 166 -127q217 -214 217 -522q0 -307 -217 -524zM377 244
q195 -195 471 -195q274 0 469 195q194 197 194 473q0 277 -194 471q-193 196 -469 196q-278 0 -471 -196q-193 -193 -193 -471q0 -277 193 -473z" />
    <glyph glyph-name="uni1EDB" unicode="&#x1edb;" horiz-adv-x="1263" 
d="M590 1167l164 252h84l-181 -252h-67zM631 -23q-222 0 -379 154q-156 156 -156 381q0 226 156 379q156 156 379 156q78 0 162 -23h88q74 0 96 31t22 112v11h70v-11q0 -184 -141 -209q35 -22 84 -67q155 -152 155 -379q0 -226 -155 -381q-157 -154 -381 -154zM301 180
q136 -133 330 -133t330 133q135 135 135 332q0 198 -135 330q-135 135 -330 135t-330 -135q-133 -133 -133 -330q0 -196 133 -332z" />
    <glyph glyph-name="uni1EDC" unicode="&#x1edc;" horiz-adv-x="1695" 
d="M950 1577h-67l-181 252h84zM1370 193q-216 -216 -522 -216q-305 0 -524 216q-215 218 -215 524q0 307 215 522q217 217 524 217q95 0 188 -22h144q74 0 96 31t22 112v10h70v-10q0 -200 -164 -211q89 -50 166 -127q217 -214 217 -522q0 -307 -217 -524zM377 244
q195 -195 471 -195q274 0 469 195q194 197 194 473q0 277 -194 471q-193 196 -469 196q-278 0 -471 -196q-193 -193 -193 -471q0 -277 193 -473z" />
    <glyph glyph-name="uni1EDD" unicode="&#x1edd;" horiz-adv-x="1263" 
d="M707 1167h-68l-180 252h84zM631 -23q-222 0 -379 154q-156 156 -156 381q0 226 156 379q156 156 379 156q78 0 162 -23h88q74 0 96 31t22 112v11h70v-11q0 -184 -141 -209q35 -22 84 -67q155 -152 155 -379q0 -226 -155 -381q-157 -154 -381 -154zM301 180
q136 -133 330 -133t330 133q135 135 135 332q0 198 -135 330q-135 135 -330 135t-330 -135q-133 -133 -133 -330q0 -196 133 -332z" />
    <glyph glyph-name="uni1EDE" unicode="&#x1ede;" horiz-adv-x="1695" 
d="M920 1577h-60v2q0 30 0.5 40t4.5 22.5t14 19.5q21 21 41 31q3 2 14 8.5t15 9t13 9t13 11.5t9 12.5t7 16.5t2 19q0 37 -25 58.5t-73 21.5q-67 0 -113 -72q-4 3 -19 10t-30 16q24 45 67 72t95 27q63 0 110.5 -34t47.5 -97q0 -74 -84 -123q-25 -13 -35.5 -26t-12 -21.5
t-1.5 -32.5zM1370 193q-216 -216 -522 -216q-305 0 -524 216q-215 218 -215 524q0 307 215 522q217 217 524 217q95 0 188 -22h144q74 0 96 31t22 112v10h70v-10q0 -200 -164 -211q89 -50 166 -127q217 -214 217 -522q0 -307 -217 -524zM377 244q195 -195 471 -195
q274 0 469 195q194 197 194 473q0 277 -194 471q-193 196 -469 196q-278 0 -471 -196q-193 -193 -193 -471q0 -277 193 -473z" />
    <glyph glyph-name="uni1EDF" unicode="&#x1edf;" horiz-adv-x="1263" 
d="M705 1167h-60v2q0 30 0.5 40t4.5 22.5t14 19.5q21 21 41 31q3 2 14 8.5t15 9t13 9t13 11.5t9 12.5t7 16.5t2 19q0 37 -25 58.5t-73 21.5q-67 0 -113 -72q-4 3 -19.5 11t-29.5 16q24 45 67 71.5t95 26.5q63 0 110.5 -34t47.5 -97q0 -74 -84 -123q-25 -13 -35.5 -26
t-12 -21.5t-1.5 -32.5zM631 -23q-222 0 -379 154q-156 156 -156 381q0 226 156 379q156 156 379 156q78 0 162 -23h88q74 0 96 31t22 112v11h70v-11q0 -184 -141 -209q35 -22 84 -67q155 -152 155 -379q0 -226 -155 -381q-157 -154 -381 -154zM301 180q136 -133 330 -133
t330 133q135 135 135 332q0 198 -135 330q-135 135 -330 135t-330 -135q-133 -133 -133 -330q0 -196 133 -332z" />
    <glyph glyph-name="uni1EE0" unicode="&#x1ee0;" horiz-adv-x="1695" 
d="M641 1612h-63q0 152 84 190q85 40 194 -65q91 -88 145 -70.5t54 133.5h63q0 -152 -86 -190q-82 -37 -190 65q-91 88 -146 71t-55 -134zM1370 193q-216 -216 -522 -216q-305 0 -524 216q-215 218 -215 524q0 307 215 522q217 217 524 217q95 0 188 -22h144q74 0 96 31
t22 112v10h70v-10q0 -200 -164 -211q89 -50 166 -127q217 -214 217 -522q0 -307 -217 -524zM377 244q195 -195 471 -195q274 0 469 195q194 197 194 473q0 277 -194 471q-193 196 -469 196q-278 0 -471 -196q-193 -193 -193 -471q0 -277 193 -473z" />
    <glyph glyph-name="uni1EE1" unicode="&#x1ee1;" horiz-adv-x="1263" 
d="M414 1202h-64q0 153 84 191q85 40 195 -66q88 -88 143 -70t55 134h64q0 -153 -86 -191q-82 -37 -191 66q-91 88 -145.5 70.5t-54.5 -134.5zM631 -23q-222 0 -379 154q-156 156 -156 381q0 226 156 379q156 156 379 156q78 0 162 -23h88q74 0 96 31t22 112v11h70v-11
q0 -184 -141 -209q35 -22 84 -67q155 -152 155 -379q0 -226 -155 -381q-157 -154 -381 -154zM301 180q136 -133 330 -133t330 133q135 135 135 332q0 198 -135 330q-135 135 -330 135t-330 -135q-133 -133 -133 -330q0 -196 133 -332z" />
    <glyph glyph-name="uni1EE2" unicode="&#x1ee2;" horiz-adv-x="1695" 
d="M782 -244q0 40 32 56t63.5 0t31.5 -56q0 -25 -18.5 -44t-44.5 -19t-45 19t-19 44zM1370 193q-216 -216 -522 -216q-305 0 -524 216q-215 218 -215 524q0 307 215 522q217 217 524 217q95 0 188 -22h144q74 0 96 31t22 112v10h70v-10q0 -200 -164 -211q89 -50 166 -127
q217 -214 217 -522q0 -307 -217 -524zM377 244q195 -195 471 -195q274 0 469 195q194 197 194 473q0 277 -194 471q-193 196 -469 196q-278 0 -471 -196q-193 -193 -193 -471q0 -277 193 -473z" />
    <glyph glyph-name="uni1EE3" unicode="&#x1ee3;" horiz-adv-x="1263" 
d="M565 -244q0 40 31.5 56t63.5 0t32 -56q0 -25 -18.5 -44t-44.5 -19t-45 19t-19 44zM631 -23q-222 0 -379 154q-156 156 -156 381q0 226 156 379q156 156 379 156q78 0 162 -23h88q74 0 96 31t22 112v11h70v-11q0 -184 -141 -209q35 -22 84 -67q155 -152 155 -379
q0 -226 -155 -381q-157 -154 -381 -154zM301 180q136 -133 330 -133t330 133q135 135 135 332q0 198 -135 330q-135 135 -330 135t-330 -135q-133 -133 -133 -330q0 -196 133 -332z" />
    <glyph glyph-name="uni1EE4" unicode="&#x1ee4;" horiz-adv-x="1378" 
d="M170 469v965h76v-965q0 -189 117.5 -304.5t326.5 -115.5q207 0 325 116t118 304v965h75v-965q0 -218 -141 -356q-142 -136 -377 -136q-234 0 -379 136q-141 138 -141 356zM629 -244q0 40 31.5 56t63.5 0t32 -56q0 -25 -19 -44t-45 -19t-44.5 19t-18.5 44z" />
    <glyph glyph-name="uni1EE5" unicode="&#x1ee5;" horiz-adv-x="1165" 
d="M463 -244q0 40 31.5 56t63.5 0t32 -56q0 -25 -19 -44t-45 -19t-44.5 19t-18.5 44zM922 479v545h73v-1024h-73v227q-53 -123 -153.5 -186.5t-233.5 -63.5q-179 0 -287 111q-107 110 -107 293v643h72v-643q0 -151 88.5 -242.5t239.5 -91.5q170 0 275.5 116.5t105.5 315.5z
" />
    <glyph glyph-name="uni1EE6" unicode="&#x1ee6;" horiz-adv-x="1378" 
d="M748 1577h-60v2q0 30 0.5 40t4.5 22.5t14 19.5q21 21 41 31q3 2 14 8.5t15 9t13 9t13 11.5t9 12.5t7 16.5t2 19q0 37 -25 58.5t-73 21.5q-67 0 -113 -72q-4 3 -19 10t-30 16q24 45 67 72t95 27q63 0 110.5 -34t47.5 -97q0 -74 -84 -123q-25 -13 -35.5 -26t-12 -21.5
t-1.5 -32.5zM170 469v965h76v-965q0 -189 117.5 -304.5t326.5 -115.5q207 0 325 116t118 304v965h75v-965q0 -218 -141 -356q-142 -136 -377 -136q-234 0 -379 136q-141 138 -141 356z" />
    <glyph glyph-name="uni1EE7" unicode="&#x1ee7;" horiz-adv-x="1165" 
d="M633 1167h-60v2q0 30 0.5 40t4.5 22.5t14 19.5q21 21 41 31q4 2 14.5 8t15 9t13 9.5t13 11.5t9.5 12.5t7 16.5t2 19q0 36 -25.5 58t-73.5 22q-66 0 -112 -72q-4 3 -20 11t-30 16q24 45 67 71.5t95 26.5q63 0 110.5 -34t47.5 -97q0 -74 -84 -123q-25 -13 -35.5 -26
t-12 -21.5t-1.5 -32.5zM922 479v545h73v-1024h-73v227q-53 -123 -153.5 -186.5t-233.5 -63.5q-179 0 -287 111q-107 110 -107 293v643h72v-643q0 -151 88.5 -242.5t239.5 -91.5q170 0 275.5 116.5t105.5 315.5z" />
    <glyph glyph-name="uni1EE8" unicode="&#x1ee8;" horiz-adv-x="1378" 
d="M647 1577l164 252h84l-180 -252h-68zM170 469v965h76v-965q0 -189 117.5 -304.5t326.5 -115.5q207 0 325 116t118 304v965h47q74 0 96 31t22 112v10h70v-10q0 -196 -160 -211v-897q0 -218 -141 -356q-142 -136 -377 -136q-234 0 -379 136q-141 138 -141 356z" />
    <glyph glyph-name="uni1EE9" unicode="&#x1ee9;" horiz-adv-x="1165" 
d="M700 1419h84l-180 -252h-67zM922 479v545h67q65 3 85 34t20 109v11h69v-11q0 -204 -168 -211v-956h-73v227q-53 -123 -153.5 -186.5t-233.5 -63.5q-179 0 -287 111q-107 110 -107 293v643h72v-643q0 -151 88.5 -242.5t239.5 -91.5q170 0 275.5 116.5t105.5 315.5z" />
    <glyph glyph-name="uni1EEA" unicode="&#x1eea;" horiz-adv-x="1378" 
d="M758 1577h-68l-180 252h84zM170 469v965h76v-965q0 -189 117.5 -304.5t326.5 -115.5q207 0 325 116t118 304v965h47q74 0 96 31t22 112v10h70v-10q0 -196 -160 -211v-897q0 -218 -141 -356q-142 -136 -377 -136q-234 0 -379 136q-141 138 -141 356z" />
    <glyph glyph-name="uni1EEB" unicode="&#x1eeb;" horiz-adv-x="1165" 
d="M479 1419l164 -252h-68l-180 252h84zM922 479v545h67q65 3 85 34t20 109v11h69v-11q0 -204 -168 -211v-956h-73v227q-53 -123 -153.5 -186.5t-233.5 -63.5q-179 0 -287 111q-107 110 -107 293v643h72v-643q0 -151 88.5 -242.5t239.5 -91.5q170 0 275.5 116.5t105.5 315.5
z" />
    <glyph glyph-name="uni1EEC" unicode="&#x1eec;" horiz-adv-x="1378" 
d="M748 1577h-60v2q0 30 0.5 40t4.5 22.5t14 19.5q21 21 41 31q3 2 14 8.5t15 9t13 9t13 11.5t9 12.5t7 16.5t2 19q0 37 -25 58.5t-73 21.5q-67 0 -113 -72q-4 3 -19 10t-30 16q24 45 67 72t95 27q63 0 110.5 -34t47.5 -97q0 -74 -84 -123q-25 -13 -35.5 -26t-12 -21.5
t-1.5 -32.5zM170 469v965h76v-965q0 -189 117.5 -304.5t326.5 -115.5q207 0 325 116t118 304v965h47q74 0 96 31t22 112v10h70v-10q0 -196 -160 -211v-897q0 -218 -141 -356q-142 -136 -377 -136q-234 0 -379 136q-141 138 -141 356z" />
    <glyph glyph-name="uni1EED" unicode="&#x1eed;" horiz-adv-x="1165" 
d="M633 1167h-60v2q0 30 0.5 40t4.5 22.5t14 19.5q21 21 41 31q4 2 14.5 8t15 9t13 9.5t13 11.5t9.5 12.5t7 16.5t2 19q0 36 -25.5 58t-73.5 22q-66 0 -112 -72q-4 3 -20 11t-30 16q24 45 67 71.5t95 26.5q63 0 110.5 -34t47.5 -97q0 -74 -84 -123q-25 -13 -35.5 -26
t-12 -21.5t-1.5 -32.5zM922 479v545h67q65 3 85 34t20 109v11h69v-11q0 -204 -168 -211v-956h-73v227q-53 -123 -153.5 -186.5t-233.5 -63.5q-179 0 -287 111q-107 110 -107 293v643h72v-643q0 -151 88.5 -242.5t239.5 -91.5q170 0 275.5 116.5t105.5 315.5z" />
    <glyph glyph-name="uni1EEE" unicode="&#x1eee;" horiz-adv-x="1378" 
d="M170 469v965h76v-965q0 -189 117.5 -304.5t326.5 -115.5q207 0 325 116t118 304v965h47q74 0 96 31t22 112v10h70v-10q0 -196 -160 -211v-897q0 -218 -141 -356q-142 -136 -377 -136q-234 0 -379 136q-141 138 -141 356zM475 1612h-63q0 152 86 190q83 41 192 -65
q91 -88 145 -70.5t54 133.5h63q0 -152 -84 -190q-84 -37 -192 65q-91 88 -146 71t-55 -134z" />
    <glyph glyph-name="uni1EEF" unicode="&#x1eef;" horiz-adv-x="1165" 
d="M922 479v545h67q65 3 85 34t20 109v11h69v-11q0 -204 -168 -211v-956h-73v227q-53 -123 -153.5 -186.5t-233.5 -63.5q-179 0 -287 111q-107 110 -107 293v643h72v-643q0 -151 88.5 -242.5t239.5 -91.5q170 0 275.5 116.5t105.5 315.5zM360 1202h-63q0 153 86 191
q82 40 192 -66q91 -87 145 -69.5t54 133.5h64q0 -153 -84 -191q-84 -37 -193 66q-91 88 -146 70.5t-55 -134.5z" />
    <glyph glyph-name="uni1EF0" unicode="&#x1ef0;" horiz-adv-x="1378" 
d="M629 -244q0 40 31.5 56t63.5 0t32 -56q0 -25 -19 -44t-45 -19t-44.5 19t-18.5 44zM170 469v965h76v-965q0 -189 117.5 -304.5t326.5 -115.5q207 0 325 116t118 304v965h47q74 0 96 31t22 112v10h70v-10q0 -196 -160 -211v-897q0 -218 -141 -356q-142 -136 -377 -136
q-234 0 -379 136q-141 138 -141 356z" />
    <glyph glyph-name="uni1EF1" unicode="&#x1ef1;" horiz-adv-x="1165" 
d="M463 -244q0 40 31.5 56t63.5 0t32 -56q0 -25 -19 -44t-45 -19t-44.5 19t-18.5 44zM922 479v545h67q65 3 85 34t20 109v11h69v-11q0 -204 -168 -211v-956h-73v227q-53 -123 -153.5 -186.5t-233.5 -63.5q-179 0 -287 111q-107 110 -107 293v643h72v-643q0 -151 88.5 -242.5
t239.5 -91.5q170 0 275.5 116.5t105.5 315.5z" />
    <glyph glyph-name="Ygrave" unicode="&#x1ef2;" horiz-adv-x="1171" 
d="M496 1829l163 -252h-67l-180 252h84zM1067 1434h84l-528 -842v-592h-76v594l-527 840h84l482 -770z" />
    <glyph glyph-name="ygrave" unicode="&#x1ef3;" horiz-adv-x="1044" 
d="M451 1419l163 -252h-67l-180 252h84zM551 55l385 969h74l-445 -1118q-62 -154 -169 -240t-230 -76v68q101 -10 188 61t142 203l20 45l-481 1057h74z" />
    <glyph glyph-name="uni1EF4" unicode="&#x1ef4;" horiz-adv-x="1171" 
d="M520 -244q0 40 32 56t63.5 0t31.5 -56q0 -25 -18.5 -44t-44.5 -19t-45 19t-19 44zM1067 1434h84l-528 -842v-592h-76v594l-527 840h84l482 -770z" />
    <glyph glyph-name="uni1EF5" unicode="&#x1ef5;" horiz-adv-x="1044" 
d="M668 -244q0 40 32 56t63.5 0t31.5 -56q0 -25 -19 -44t-45 -19t-44.5 19t-18.5 44zM551 55l385 969h74l-445 -1118q-62 -154 -169 -240t-230 -76v68q101 -10 188 61t142 203l20 45l-481 1057h74z" />
    <glyph glyph-name="uni1EF6" unicode="&#x1ef6;" horiz-adv-x="1171" 
d="M616 1577h-59v2v11q0 23 0.5 33.5t4.5 21t13 16.5q21 21 41 31q4 2 14.5 8t15 9t13 9.5t13 11.5t9.5 12.5t7 16.5t2 19q0 37 -25 58.5t-73 21.5q-67 0 -113 -72q-4 3 -19 10t-30 16q24 45 67 72t95 27q63 0 110.5 -34t47.5 -97q0 -74 -84 -123q-25 -13 -36 -25.5
t-12.5 -22t-1.5 -32.5zM1067 1434h84l-528 -842v-592h-76v594l-527 840h84l482 -770z" />
    <glyph glyph-name="uni1EF7" unicode="&#x1ef7;" horiz-adv-x="1044" 
d="M571 1167h-59v2v11q0 23 0.5 33.5t4.5 21t13 16.5q21 21 41 31q4 2 14.5 8t15 9t13 9.5t13 11.5t9.5 12.5t7 16.5t2 19q0 37 -25 58.5t-73 21.5q-67 0 -113 -72q-4 3 -19.5 11t-29.5 16q24 45 67 71.5t95 26.5q63 0 110.5 -34t47.5 -97q0 -74 -84 -123q-25 -13 -36 -25.5
t-12.5 -22t-1.5 -32.5zM551 55l385 969h74l-445 -1118q-62 -154 -169 -240t-230 -76v68q101 -10 188 61t142 203l20 45l-481 1057h74z" />
    <glyph glyph-name="uni1EF8" unicode="&#x1ef8;" horiz-adv-x="1171" 
d="M1067 1434h84l-528 -842v-592h-76v594l-527 840h84l482 -770zM377 1612h-64q0 152 86 190q84 41 193 -65q91 -88 145 -70.5t54 133.5h63q0 -152 -84 -190q-84 -37 -192 65q-91 88 -146 71t-55 -134z" />
    <glyph glyph-name="uni1EF9" unicode="&#x1ef9;" horiz-adv-x="1044" 
d="M551 55l385 969h74l-445 -1118q-62 -154 -169 -240t-230 -76v68q101 -10 188 61t142 203l20 45l-481 1057h74zM332 1202h-64q0 153 86 191q83 41 193 -66q91 -87 144.5 -69.5t53.5 133.5h64q0 -153 -84 -191q-84 -37 -193 66q-91 88 -145.5 70.5t-54.5 -134.5z" />
    <glyph glyph-name="endash" unicode="&#x2013;" horiz-adv-x="1406" 
d="M1214 598h-1024v70h1024v-70z" />
    <glyph glyph-name="emdash" unicode="&#x2014;" horiz-adv-x="1611" 
d="M1419 598h-1229v70h1229v-70z" />
    <glyph glyph-name="quoteleft" unicode="&#x2018;" horiz-adv-x="423" 
d="M221 1040h-90l98 394h66z" />
    <glyph glyph-name="quoteright" unicode="&#x2019;" horiz-adv-x="423" 
d="M203 1434h90l-98 -394h-66z" />
    <glyph glyph-name="quotesinglbase" unicode="&#x201a;" horiz-adv-x="423" 
d="M203 106h90l-98 -393h-66z" />
    <glyph glyph-name="quotedblleft" unicode="&#x201c;" horiz-adv-x="655" 
d="M221 1040h-90l98 394h66zM453 1040h-91l99 394h65z" />
    <glyph glyph-name="quotedblright" unicode="&#x201d;" horiz-adv-x="655" 
d="M203 1434h90l-98 -394h-66zM434 1434h90l-98 -394h-66z" />
    <glyph glyph-name="quotedblbase" unicode="&#x201e;" horiz-adv-x="655" 
d="M203 106h90l-98 -393h-66zM434 106h90l-98 -393h-66z" />
    <glyph glyph-name="dagger" unicode="&#x2020;" horiz-adv-x="956" 
d="M514 1065h305v-70h-305v-995h-72v995h-305v70h305v369h72v-369z" />
    <glyph glyph-name="daggerdbl" unicode="&#x2021;" horiz-adv-x="956" 
d="M819 1065v-70h-305v-557h305v-69h-305v-369h-72v369h-305v69h305v557h-305v70h305v369h72v-369h305z" />
    <glyph glyph-name="bullet" unicode="&#x2022;" horiz-adv-x="532" 
d="M268 567q-63 0 -107 44.5t-44 107.5q0 61 44 104t107 43q62 0 105 -43t43 -104q0 -63 -43.5 -107.5t-104.5 -44.5z" />
    <glyph glyph-name="ellipsis" unicode="&#x2026;" horiz-adv-x="1181" 
d="M201 -20q-30 0 -51 20.5t-21 50.5t21 51t51 21q43 0 61 -35.5t0 -71.5t-61 -36zM590 -20q-30 0 -51 20.5t-21 50.5t21 51t51 21q43 0 61 -35.5t0 -71.5t-61 -36zM979 -20q-30 0 -51 20.5t-21 50.5t21 51t51 21q43 0 61 -35.5t0 -71.5t-61 -36z" />
    <glyph glyph-name="perthousand" unicode="&#x2030;" horiz-adv-x="2226" 
d="M451 846q-138 0 -226 88t-88 217t88 217t226 88q135 0 223 -88q90 -90 90 -217q0 -129 -88 -217t-225 -88zM451 911q105 0 173 68.5t68 171.5t-68.5 171.5t-172.5 68.5t-174 -68.5t-70 -171.5t70 -171.5t174 -68.5zM270 145l-49 29l981 1110l51 -29zM1253 66
q-89 -89 -223 -89q-136 0 -225 89q-88 88 -88 217t88 217t225 88q135 0 223 -88q90 -90 90 -217t-90 -217zM2001 66q-89 -89 -223 -89q-137 0 -226 89q-88 88 -88 217t88 217t226 88q135 0 223 -88q90 -90 90 -217t-90 -217zM856 111q71 -68 174 -68q104 0 172 68
q70 70 70 172q0 103 -70 170q-66 69 -172 69q-105 0 -174 -69q-70 -67 -70 -170q0 -102 70 -172zM1604 111q71 -68 174 -68q104 0 172 68q69 69 69 172q0 104 -69 170q-66 69 -172 69q-105 0 -174 -69q-70 -67 -70 -170q0 -102 70 -172z" />
    <glyph glyph-name="guilsinglleft" unicode="&#x2039;" horiz-adv-x="665" 
d="M395 975h86l-211 -342l211 -342h-86l-211 342z" />
    <glyph glyph-name="guilsinglright" unicode="&#x203a;" horiz-adv-x="665" 
d="M184 975h86l211 -342l-211 -342h-86l211 342z" />
    <glyph glyph-name="fraction" unicode="&#x2044;" horiz-adv-x="477" 
d="M696 1434l-846 -1434h-69l848 1434h67z" />
    <glyph glyph-name="Euro" unicode="&#x20ac;" horiz-adv-x="1251" 
d="M764 49q124 0 215.5 62t138.5 178l62 -33q-54 -134 -161.5 -206.5t-254.5 -72.5q-215 0 -353.5 154t-174.5 422h-181v63h174q-4 86 -4 101q0 10 4 104h-174v66h181q37 266 175.5 417.5t352.5 151.5q147 0 254.5 -72t161.5 -204l-64 -35q-94 239 -352 239
q-180 0 -300.5 -131.5t-152.5 -365.5h576v-66h-582q-4 -86 -4 -104q0 -15 4 -101h582v-63h-576q32 -238 151 -371t302 -133z" />
    <glyph glyph-name="uni20BD" unicode="&#x20bd;" horiz-adv-x="1153" 
d="M670 600h-398v-229h562v-66h-562v-305h-73v305h-185v66h185v229h-185v70h185v764h471q173 0 293 -123q122 -119 122 -293q0 -173 -122 -295q-120 -123 -293 -123zM670 1364h-398v-694h398q137 0 239 102q101 101 101 246q0 143 -101 244q-102 102 -239 102z" />
    <glyph glyph-name="uni2116" unicode="&#x2116;" horiz-adv-x="2095" 
d="M1700 868q-127 0 -213 86t-86 209q0 124 86 207q86 86 213 86t213 -86q86 -83 86 -207q0 -123 -86 -209q-83 -86 -213 -86zM1153 135v1299h76v-1434h-68l-895 1298v-1298h-76v1434h70zM1929 1163q0 97 -65.5 162.5t-163.5 65.5t-164 -65.5t-66 -162.5t66 -163t164 -66
t163.5 65.5t65.5 163.5zM1976 618h-555v68h555v-68z" />
    <glyph glyph-name="trademark" unicode="&#x2122;" horiz-adv-x="1007" 
d="M123 1434h299v-52h-123v-358h-55v358h-121v52zM684 1198l145 236h56v-410h-56v315l-141 -227h-8l-141 227v-315h-56v410h56z" />
    <glyph glyph-name="estimated" unicode="&#x212e;" horiz-adv-x="1734" 
d="M1624 717q0 -31 -31 -31h-1147q-30 0 -30 -31v-393q0 -25 14 -39q173 -182 477 -182q298 0 473 199q15 18 37 18h76q20 0 26 -13t-8 -26q-224 -239 -604 -239q-363 0 -579 210q-219 213 -219 527t210 524q213 213 547 213q332 0 545 -213t213 -524zM1317 778v393
q0 25 -14 39q-174 183 -437 183q-262 0 -436 -183q-14 -14 -14 -39v-393q0 -30 30 -30h840q31 0 31 30z" />
    <glyph glyph-name="oneeighth" unicode="&#x215b;" horiz-adv-x="1693" 
d="M348 1434v-820h-69v738l-226 -78l-18 59l262 101h51zM285 0l848 1434h67l-846 -1434h-69zM1466 430q73 -30 115.5 -87.5t42.5 -131.5q0 -105 -80 -170.5t-205 -65.5q-129 0 -207.5 65t-78.5 171q0 74 42 131.5t115 87.5q-131 58 -131 186q0 102 74 165t186 63
q111 0 184.5 -63t73.5 -165q0 -128 -131 -186zM1149 616q0 -68 54.5 -111.5t135.5 -43.5t135 43.5t54 111.5q0 74 -53 119t-136 45q-85 0 -137.5 -44.5t-52.5 -119.5zM1339 41q97 0 156 47.5t59 126.5q0 81 -60 130.5t-155 49.5q-99 0 -158 -48t-59 -132q0 -79 59.5 -126.5
t157.5 -47.5z" />
    <glyph glyph-name="threeeighths" unicode="&#x215c;" horiz-adv-x="1898" 
d="M621 848q0 -114 -77 -186t-206 -72q-207 0 -272 158l57 32q52 -125 215 -125q101 0 157 53t56 140q0 84 -56.5 137t-156.5 53h-6l-35 52l211 278h-420v66h500v-66l-207 -272q111 -12 175.5 -80t64.5 -168zM489 0l848 1434h68l-846 -1434h-70zM1671 430
q73 -30 115.5 -87.5t42.5 -131.5q0 -105 -80 -170.5t-205 -65.5q-129 0 -208 65t-79 171q0 74 42.5 131.5t115.5 87.5q-131 58 -131 186q0 102 74 165t186 63q111 0 184.5 -63t73.5 -165q0 -128 -131 -186zM1354 616q0 -68 54.5 -111.5t135.5 -43.5t135 43.5t54 111.5
q0 74 -53 119t-136 45q-85 0 -137.5 -44.5t-52.5 -119.5zM1544 41q97 0 156 47.5t59 126.5q0 81 -60 130.5t-155 49.5q-99 0 -158 -48t-59 -132q0 -79 59.5 -126.5t157.5 -47.5z" />
    <glyph glyph-name="fiveeighths" unicode="&#x215d;" horiz-adv-x="1882" 
d="M330 590q-199 0 -269 155l58 31q56 -121 211 -121q96 0 152.5 52.5t56.5 140.5t-56.5 141t-152.5 53h-234l31 392h448v-64h-387l-22 -262h166q123 0 199.5 -72t76.5 -188t-75.5 -187t-202.5 -71zM473 0l848 1434h68l-846 -1434h-70zM1655 430q73 -30 115 -87.5t42 -131.5
q0 -105 -79.5 -170.5t-204.5 -65.5q-129 0 -208 65t-79 171q0 74 42.5 131.5t115.5 87.5q-131 58 -131 186q0 102 74 165t186 63q111 0 184.5 -63t73.5 -165q0 -128 -131 -186zM1337 616q0 -68 55 -111.5t136 -43.5q80 0 134 43.5t54 111.5q0 74 -52.5 119t-135.5 45
q-85 0 -138 -45t-53 -119zM1528 41q97 0 156 47.5t59 126.5q0 81 -60 130.5t-155 49.5q-99 0 -158 -48t-59 -132q0 -79 59.5 -126.5t157.5 -47.5z" />
    <glyph glyph-name="seveneighths" unicode="&#x215e;" horiz-adv-x="1851" 
d="M47 1434h545v-56l-330 -764h-76l328 754h-467v66zM442 0l848 1434h68l-846 -1434h-70zM1624 430q73 -30 115.5 -87.5t42.5 -131.5q0 -105 -80 -170.5t-205 -65.5q-129 0 -208 65t-79 171q0 74 42.5 131.5t115.5 87.5q-131 58 -131 186q0 102 74 165t186 63
q111 0 184.5 -63t73.5 -165q0 -128 -131 -186zM1307 616q0 -68 54.5 -111.5t135.5 -43.5t135 43.5t54 111.5q0 74 -53 119t-136 45q-85 0 -137.5 -44.5t-52.5 -119.5zM1497 41q97 0 156 47.5t59 126.5q0 81 -60 130.5t-155 49.5q-99 0 -158 -48t-59 -132q0 -79 59.5 -126.5
t157.5 -47.5z" />
    <glyph glyph-name="arrowleft" unicode="&#x2190;" horiz-adv-x="1705" 
d="M270 752h1301v-70h-1301l580 -580h-98l-615 615l615 614h98z" />
    <glyph glyph-name="arrowup" unicode="&#x2191;" horiz-adv-x="1501" 
d="M752 1434l614 -615v-98l-580 579v-1300h-71v1298l-578 -577v98z" />
    <glyph glyph-name="arrowright" unicode="&#x2192;" horiz-adv-x="1705" 
d="M858 1331h98l615 -614l-615 -615h-98l580 580h-1301v70h1301z" />
    <glyph glyph-name="arrowdown" unicode="&#x2193;" horiz-adv-x="1501" 
d="M786 1434v-1301l580 580v-99l-614 -614l-615 614v99l578 -578v1299h71z" />
    <glyph glyph-name="arrowboth" unicode="&#x2194;" horiz-adv-x="2103" 
d="M1370 1214h98l498 -497l-498 -498h-98l463 463h-1563l463 -463h-98l-498 498l498 497h98l-463 -462h1563z" />
    <glyph glyph-name="arrowupdn" unicode="&#x2195;" horiz-adv-x="1296" 
d="M1147 1135v-99l-463 463v-1565l463 463v-98l-498 -498l-499 498v98l462 -460v1560l-462 -461v99l499 497z" />
    <glyph glyph-name="uni2196" unicode="&#x2196;" horiz-adv-x="1312" 
d="M258 1133l918 -918l-54 -51l-917 919v-819l-68 70v868h869l67 -69h-815z" />
    <glyph glyph-name="uni2197" unicode="&#x2197;" horiz-adv-x="1312" 
d="M238 1133l69 69h869v-868l-70 -70v817l-918 -917l-51 51l918 918h-817z" />
    <glyph glyph-name="uni2198" unicode="&#x2198;" horiz-adv-x="1312" 
d="M1106 303v817l70 -69v-869h-869l-69 70h817l-918 917l51 52z" />
    <glyph glyph-name="uni2199" unicode="&#x2199;" horiz-adv-x="1312" 
d="M1122 1221l54 -52l-918 -917h815l-67 -70h-869v869l68 69v-819z" />
    <glyph glyph-name="partialdiff" unicode="&#x2202;" horiz-adv-x="1185" 
d="M481 1456q241 0 404 -205q164 -203 164 -534q0 -346 -146 -545q-145 -195 -371 -195q-189 0 -303 123q-112 121 -112 310q0 211 123 340q125 131 338 131q225 0 399 -119q-9 268 -146 446q-135 178 -350 178q-148 0 -254 -69v74q112 65 254 65zM532 47q196 0 316 170
q120 169 129 465q-174 131 -399 131q-179 0 -284.5 -108.5t-105.5 -294.5q0 -161 93.5 -262t250.5 -101z" />
    <glyph glyph-name="emptyset" unicode="&#x2205;" horiz-adv-x="1701" 
d="M1520 1475l-172 -209q243 -220 243 -549q0 -307 -217 -524q-219 -216 -524 -216q-250 0 -449 150l-139 -168h-80l172 207q-116 103 -180.5 247t-64.5 304q0 308 217 522q217 217 524 217q253 0 448 -151l142 170h80zM178 717q0 -299 219 -500l860 1038q-183 136 -407 136
q-280 0 -477 -197q-195 -198 -195 -477zM850 43q280 0 477 197t197 477q0 296 -219 497l-861 -1036q182 -135 406 -135z" />
    <glyph glyph-name="product" unicode="&#x220f;" horiz-adv-x="1310" 
d="M264 -410h-74v1844h930v-1844h-73v1776h-783v-1776z" />
    <glyph glyph-name="summation" unicode="&#x2211;" horiz-adv-x="1107" 
d="M1034 -410h-905v68l545 874l-516 834v68h846v-68h-764l518 -834l-547 -874h823v-68z" />
    <glyph glyph-name="minus" unicode="&#x2212;" horiz-adv-x="1105" 
d="M969 682h-832v70h832v-70z" />
    <glyph glyph-name="radical" unicode="&#x221a;" horiz-adv-x="1298" 
d="M700 0h-77l-322 547h-164v67h203l315 -532l514 1556h74z" />
    <glyph glyph-name="infinity" unicode="&#x221e;" horiz-adv-x="1665" 
d="M1223 1030q133 0 221 -88q88 -85 88 -225t-88 -228q-89 -86 -221 -86q-87 0 -166 43q-73 40 -115.5 83t-107.5 130q-66 -83 -103 -120q-48 -53 -128.5 -94.5t-160.5 -41.5q-132 0 -221 86q-88 88 -88 228t88 225q88 88 221 88q89 0 166 -45q80 -43 123 -90
q33 -33 103 -121q64 84 98 121q50 53 130.5 94t160.5 41zM442 469q73 0 144 41q66 40 108 86q55 63 97 121q-49 67 -97 119q-43 50 -113.5 89.5t-138.5 39.5q-105 0 -171 -69t-66 -179t66 -179t171 -69zM1223 469q105 0 170 68q67 70 67 180q0 111 -67 178q-64 70 -170 70
q-98 0 -177.5 -61t-168.5 -187q53 -74 92 -119q48 -51 117 -90t137 -39z" />
    <glyph glyph-name="integral" unicode="&#x222b;" horiz-adv-x="888" 
d="M0 -416v70q105 -44 180.5 4.5t98.5 173.5l233 1366q26 159 127 223t250 19v-70q-122 42 -201 -5t-102 -173l-236 -1366q-26 -154 -123 -220.5t-227 -21.5z" />
    <glyph glyph-name="approxequal" unicode="&#x2248;" horiz-adv-x="1185" 
d="M575 850q-54 37 -101 57t-81.5 23t-64 -6t-49 -25.5t-35.5 -41t-25 -46.5t-16 -47l-66 29q28 116 133 184q53 39 145 22.5t195 -88.5q91 -62 163 -77.5t112 14.5q77 52 100 149l66 -28q-13 -43 -34 -81.5t-61.5 -74t-91 -48.5t-126 6.5t-163.5 78.5zM203 436l-66 29
q28 116 133 184q53 39 145 23t195 -88q91 -62 163 -78t112 14q76 52 100 150l66 -29q-13 -43 -34 -81.5t-61.5 -74t-91 -48.5t-126 6.5t-163.5 78.5q-54 37 -101 57t-81.5 23t-64 -6t-49 -25.5t-35.5 -41t-25 -46.5t-16 -47z" />
    <glyph glyph-name="notequal" unicode="&#x2260;" horiz-adv-x="1091" 
d="M956 956v-69h-292l-158 -340h450v-70h-481l-151 -327h-62l152 327h-277v70h307l158 340h-465v69h496l151 328h62l-152 -328h262z" />
    <glyph glyph-name="lessequal" unicode="&#x2264;" horiz-adv-x="1091" 
d="M135 872l819 330v-78l-731 -286l731 -287v-78l-819 330v69zM954 231h-819v70h819v-70z" />
    <glyph glyph-name="greaterequal" unicode="&#x2265;" horiz-adv-x="1091" 
d="M137 1124v78l819 -330v-69l-819 -330v78l731 287zM956 231h-819v70h819v-70z" />
    <glyph glyph-name="lozenge" unicode="&#x25ca;" horiz-adv-x="1097" 
d="M586 0h-74l-383 717l383 717h74l383 -717zM209 717l340 -637l340 637l-340 637z" />
    <glyph glyph-name="NULL" horiz-adv-x="0" 
 />
    <glyph glyph-name="CR" horiz-adv-x="681" 
 />
    <glyph glyph-name="i.loclTRK" horiz-adv-x="413" 
d="M207 1182q-47 -3 -66.5 37.5t0 80.5t66.5 37q49 3 69.5 -37t0 -80.5t-69.5 -37.5zM244 0h-74v1024h74v-1024z" />
    <glyph glyph-name="f_f_j" horiz-adv-x="1585" 
d="M862 1024h553v-1174q0 -148 -80.5 -221.5t-232.5 -60.5v70q239 -27 239 212v1106h-479v-956h-71v956h-480v-956h-71v956h-183v68h183v68q0 187 98.5 282t288.5 82v-70q-316 27 -316 -294v-68h480v88q0 365 387 365q90 0 202 -23v-65q-94 18 -202 18q-164 0 -240 -71
t-76 -224v-88z" />
    <glyph glyph-name="f_j" horiz-adv-x="1034" 
d="M311 1024h551v-1174q0 -149 -80 -222t-231 -60v70q240 -27 240 212v1106h-480v-956h-71v956h-183v68h183v68q0 364 387 364q95 0 202 -22v-66q-94 18 -202 18q-166 0 -241 -70t-75 -224v-68z" />
    <glyph glyph-name="uni0414.loclBGR" horiz-adv-x="1447" 
d="M764 1434l496 -1364h129v-344h-74v274h-1182v-274h-76v344h129l496 1364h82zM723 1346l-457 -1276h916z" />
    <glyph glyph-name="uni041B.loclBGR" horiz-adv-x="1230" 
d="M35 0l540 1434h82l541 -1434h-82l-500 1339l-501 -1339h-80z" />
    <glyph glyph-name="uni0424.loclBGR" horiz-adv-x="1755" 
d="M915 -23v-182h-75v182q-322 12 -529 213q-202 202 -202 527t202 524q206 203 529 215v182h75v-182q324 -12 527 -215q205 -199 205 -524t-205 -527q-204 -201 -527 -213zM915 1386v-1339q302 12 478 197q178 184 178 473t-178 473q-175 184 -478 196zM840 47v1339
q-302 -12 -480 -196q-176 -182 -176 -473q0 -290 176 -475q180 -183 480 -195z" />
    <glyph glyph-name="uni0414.ss01" horiz-adv-x="1413" 
d="M1182 1434v-1364h145v-70h-1282v70h111q151 171 151 518v846h875zM383 1364v-778q0 -338 -135 -516h858v1294h-723z" />
    <glyph glyph-name="uni0426.ss01" horiz-adv-x="1413" 
d="M1188 1434v-1364h147v-70h-1145v1434h76v-1364h846v1364h76z" />
    <glyph glyph-name="uni0429.ss01" horiz-adv-x="2007" 
d="M1782 1434v-1364h147v-70h-1739v1434h76v-1364h682v1364h76v-1364h682v1364h76z" />
    <glyph glyph-name="uni0414.loclBGR.ss01" horiz-adv-x="1447" 
d="M764 1434l496 -1364h129v-70h-1332v70h129l496 1364h82zM723 1346l-457 -1276h916z" />
    <glyph glyph-name="uni0432.loclBGR" horiz-adv-x="1181" 
d="M774 825q149 -29 230 -138t81 -277q0 -203 -120.5 -318t-335.5 -115q-216 0 -337.5 131t-121.5 363v496q0 229 114 359t316 130q158 0 253 -91t95 -230q0 -185 -174 -310zM600 1386q-170 0 -263 -110t-93 -309v-197l260 51q93 17 172 17q97 56 149 135t52 162
q0 107 -75.5 179t-201.5 72zM1014 410q0 202 -134 296t-376 48l-260 -52v-231q0 -201 101 -312.5t284 -111.5t284 95.5t101 267.5z" />
    <glyph glyph-name="uni0433.loclBGR" horiz-adv-x="944" 
d="M793 246l59 -35q-38 -108 -138 -171t-245 -63q-160 0 -261.5 79.5t-101.5 203.5q0 99 62 163t162 91q26 7 68.5 18t72 18.5t67.5 19.5t64.5 23t54 28.5t44.5 37t27.5 46.5t10.5 59q0 95 -73 154t-185 59q-106 0 -184.5 -47t-110.5 -129l-59 35q43 97 135 154t219 57
q147 0 238 -82q92 -80 92 -201q0 -97 -61.5 -159.5t-163.5 -90.5l-68 -17t-71.5 -17.5t-67 -19t-65 -24t-54 -29.5t-44.5 -38t-27 -48t-11 -61q0 -98 80.5 -155.5t210.5 -57.5q123 0 208 53t116 146z" />
    <glyph glyph-name="uni0434.loclBGR" horiz-adv-x="1351" 
d="M1108 752v272h74v-969q0 -222 -140 -356q-137 -131 -368 -131q-173 0 -298.5 66.5t-180.5 179.5l61 34q45 -96 152 -153t266 -57q203 0 318.5 112t115.5 305v217q-64 -137 -187.5 -216t-279.5 -79q-220 0 -377 154q-155 155 -155 381q0 227 155 379q156 156 377 156
q156 0 279.5 -79t187.5 -216zM315 180q136 -133 330 -133q195 0 328 133q135 135 135 332q0 198 -135 330q-132 135 -328 135q-195 0 -330 -135q-133 -133 -133 -330q0 -196 133 -332z" />
    <glyph glyph-name="uni0436.loclBGR" 
d="M772 532l510 -532h-90l-487 510v-510h-72v510l-488 -510h-90l508 532l-487 492h90l467 -469v879h72v-879l466 469h91z" />
    <glyph glyph-name="uni0438.loclBGR" horiz-adv-x="1165" 
d="M922 479v545h73v-1024h-73v227q-53 -123 -153.5 -186.5t-233.5 -63.5q-179 0 -287 111q-107 110 -107 293v643h72v-643q0 -151 88.5 -242.5t239.5 -91.5q170 0 275.5 116.5t105.5 315.5z" />
    <glyph glyph-name="uni0439.loclBGR" horiz-adv-x="1165" 
d="M315 1278h506v-61h-506v61zM922 479v545h73v-1024h-73v227q-53 -123 -153.5 -186.5t-233.5 -63.5q-179 0 -287 111q-107 110 -107 293v643h72v-643q0 -151 88.5 -242.5t239.5 -91.5q170 0 275.5 116.5t105.5 315.5z" />
    <glyph glyph-name="uni043A.loclBGR" horiz-adv-x="966" 
d="M319 532l592 -532h-98l-569 510v-510h-74v1434h74v-881l549 471h98z" />
    <glyph glyph-name="uni043B.loclBGR" horiz-adv-x="1046" 
d="M565 1024l449 -1024h-78l-412 948l-413 -948h-76l446 1024h84z" />
    <glyph glyph-name="uni043F.loclBGR" horiz-adv-x="1165" 
d="M631 1047q176 0 284 -111q109 -112 109 -293v-643h-72v643q0 151 -88 242.5t-239 91.5q-170 0 -275.5 -116.5t-105.5 -315.5v-545h-74v1024h74v-227q53 123 153.5 186.5t233.5 63.5z" />
    <glyph glyph-name="uni0442.loclBGR" horiz-adv-x="1773" 
d="M1268 1047q164 0 264 -102.5t100 -285.5v-659h-73v659q0 152 -78 235t-213 83q-149 0 -239.5 -106.5t-90.5 -297.5v-573h-74v659q0 152 -75.5 235t-206.5 83q-152 0 -245 -106.5t-93 -297.5v-573h-74v1024h74v-201q99 224 344 224q120 0 207.5 -61t122.5 -175
q48 114 141.5 175t208.5 61z" />
    <glyph glyph-name="uni0446.loclBGR" horiz-adv-x="1218" 
d="M1090 68h53v-342h-72v274q-68 5 -107.5 48.5t-39.5 115.5v67q-54 -124 -154.5 -189t-234.5 -65q-179 0 -287 111q-107 110 -107 293v643h74v-643q0 -151 87.5 -242.5t238.5 -91.5q173 0 278 116t105 316v545h71v-860q0 -44 26 -70t69 -26z" />
    <glyph glyph-name="uni0448.loclBGR" horiz-adv-x="1773" 
d="M1530 451v573h74v-1024h-74v201q-99 -224 -344 -224q-120 0 -207.5 61t-122.5 175q-48 -114 -141.5 -175t-208.5 -61q-165 0 -265 102.5t-100 285.5v659h74v-659q0 -152 78 -235t213 -83q149 0 239.5 106.5t90.5 297.5v573h73v-659q0 -152 76 -235t207 -83
q152 0 245 106.5t93 297.5z" />
    <glyph glyph-name="uni0449.loclBGR" horiz-adv-x="1824" 
d="M1696 68h55v-342h-74v274q-69 4 -108 48t-39 116v37q-99 -224 -344 -224q-120 0 -207.5 61t-122.5 175q-48 -114 -141.5 -175t-208.5 -61q-165 0 -265 102.5t-100 285.5v659h74v-659q0 -152 78 -235t213 -83q149 0 239.5 106.5t90.5 297.5v573h73v-659q0 -152 76 -235
t207 -83q152 0 245 106.5t93 297.5v573h74v-860q0 -44 24.5 -70t67.5 -26z" />
    <glyph glyph-name="uni044C.loclBGR" horiz-adv-x="989" 
d="M215 668h313q177 0 281 -90.5t104 -243.5q0 -152 -108 -254q-109 -103 -277 -103q-183 0 -285 97t-102 260v690h74v-356zM528 47q136 0 226 84q88 82 88 203t-85.5 193.5t-228.5 72.5h-313v-266q0 -128 82.5 -207.5t230.5 -79.5z" />
    <glyph glyph-name="uni044A.loclBGR" horiz-adv-x="1161" 
d="M387 668h313q177 0 281 -90.5t104 -243.5q0 -152 -108 -254q-109 -103 -277 -103q-183 0 -285 97t-102 260v622h-313v68h387v-356zM700 47q136 0 226 84q88 82 88 203t-85.5 193.5t-228.5 72.5h-313v-266q0 -128 82.5 -207.5t230.5 -79.5z" />
    <glyph glyph-name="uni044E.loclBGR" horiz-adv-x="1652" 
d="M1020 1047q225 0 381 -156q155 -152 155 -379q0 -226 -155 -381q-157 -154 -381 -154q-214 0 -367 144q-152 146 -164 356h-245v-477h-74v1434h74v-887h245q12 210 164 356q153 144 367 144zM690 180q136 -133 330 -133t330 133q135 135 135 332q0 198 -135 330
q-135 135 -330 135t-330 -135q-133 -133 -133 -330q0 -196 133 -332z" />
    <glyph glyph-name="zero.sinf" horiz-adv-x="839" 
d="M670 -231q-92 -121 -250 -121q-157 0 -252 121q-92 121 -92 313t92 313q95 121 252 121q158 0 250 -121q94 -119 94 -313t-94 -313zM219 -188q73 -99 201 -99t201 99q73 98 73 270t-73 270q-73 99 -201 99t-201 -99q-74 -100 -74 -270t74 -270z" />
    <glyph glyph-name="one.sinf" horiz-adv-x="483" 
d="M35 391l262 101h51v-820h-69v738l-226 -78z" />
    <glyph glyph-name="two.sinf" horiz-adv-x="704" 
d="M631 -328h-555v56l370 350q99 92 99 196q0 76 -53.5 126.5t-143.5 50.5q-159 0 -209 -146l-59 33q30 83 100.5 130.5t169.5 47.5q119 0 191.5 -68.5t72.5 -173.5q0 -127 -118 -239l-316 -297h451v-66z" />
    <glyph glyph-name="three.sinf" horiz-adv-x="698" 
d="M588 426l-207 -272q111 -12 175.5 -80t64.5 -168q0 -114 -77 -186t-206 -72q-207 0 -272 157l57 33q52 -125 215 -125q101 0 157 53t56 140q0 84 -56.5 137t-156.5 53h-6l-35 51l211 279h-420v66h500v-66z" />
    <glyph glyph-name="four.sinf" horiz-adv-x="731" 
d="M557 -90h121v-64h-121v-174h-70v174h-450v64l313 582h72l-311 -582h376v231h70v-231z" />
    <glyph glyph-name="five.sinf" horiz-adv-x="661" 
d="M170 166h166q123 0 199.5 -72t76.5 -188t-75.5 -187t-202.5 -71q-198 0 -268 155l57 31q56 -121 211 -121q96 0 152.5 52.5t56.5 140.5t-56.5 141t-152.5 53h-234l31 392h449v-64h-387z" />
    <glyph glyph-name="six.sinf" horiz-adv-x="686" 
d="M342 193q121 0 205 -78t84 -195q0 -116 -84 -194t-205 -78q-123 0 -205 77.5t-82 194.5q0 72 37 139l279 433h82l-209 -314q52 15 98 15zM342 -287q97 0 158 57.5t61 149.5t-61 149.5t-158 57.5q-94 0 -155.5 -57.5t-61.5 -149.5t61.5 -149.5t155.5 -57.5z" />
    <glyph glyph-name="seven.sinf" horiz-adv-x="661" 
d="M47 426v66h545v-56l-330 -764h-76l328 754h-467z" />
    <glyph glyph-name="eight.sinf" horiz-adv-x="712" 
d="M485 102q73 -30 115.5 -87.5t42.5 -131.5q0 -105 -80 -170t-205 -65q-129 0 -207.5 64.5t-78.5 170.5q0 74 42 131.5t115 87.5q-131 58 -131 187q0 102 74 164.5t186 62.5q111 0 184.5 -62.5t73.5 -164.5q0 -129 -131 -187zM168 289q0 -68 54.5 -112t135.5 -44
q80 0 134.5 44t54.5 112q0 74 -53 119t-136 45q-85 0 -137.5 -44.5t-52.5 -119.5zM358 -287q97 0 156 47.5t59 126.5q0 81 -60 131t-155 50q-99 0 -158 -48.5t-59 -132.5q0 -79 59.5 -126.5t157.5 -47.5z" />
    <glyph glyph-name="nine.sinf" horiz-adv-x="686" 
d="M631 244q0 -73 -37 -140l-279 -432h-82l209 314q-52 -15 -98 -15q-123 0 -207 78q-82 76 -82 195q0 118 82 194q84 78 207 78t205 -77.5t82 -194.5zM344 37q94 0 155.5 57.5t61.5 149.5t-61.5 149.5t-155.5 57.5q-97 0 -158 -57.5t-61 -149.5t61 -149.5t158 -57.5z" />
    <glyph glyph-name="zero.tf" horiz-adv-x="1167" 
d="M971 178q-139 -201 -387 -201q-247 0 -389 201q-140 205 -140 539t140 536q141 203 389 203q249 0 387 -203q141 -199 141 -536t-141 -539zM250 227q123 -178 334 -178t331 178q123 179 123 490t-123 489q-120 178 -331 178t-334 -178q-121 -180 -121 -489
q0 -310 121 -490z" />
    <glyph glyph-name="one.tf" horiz-adv-x="1167" 
d="M666 1434v-1362h446v-72h-1024v72h502v1280l-340 -111l-19 64l373 129h62z" />
    <glyph glyph-name="two.tf" horiz-adv-x="1167" 
d="M1085 0h-972v68l577 510q144 130 213.5 232.5t69.5 207.5q0 167 -105 266.5t-284 99.5q-134 0 -237.5 -67.5t-147.5 -183.5l-64 36q55 133 177 210t272 77q206 0 334 -119q131 -119 131 -319q0 -228 -310 -492l-522 -454h868v-72z" />
    <glyph glyph-name="three.tf" horiz-adv-x="1167" 
d="M999 1364l-385 -524q207 -12 334 -127t127 -301q0 -197 -143 -316q-140 -119 -367 -119q-169 0 -297 74.5t-182 202.5l64 37q43 -112 152.5 -177t262.5 -65q200 0 317 100t117 263t-117 262.5t-317 99.5h-20l-33 47l401 543h-794v70h880v-70z" />
    <glyph glyph-name="four.tf" horiz-adv-x="1167" 
d="M915 383h185v-70h-185v-313h-75v313h-785v70l553 1051h82l-555 -1051h705v451h75v-451z" />
    <glyph glyph-name="five.tf" horiz-adv-x="1167" 
d="M250 846h334q217 0 354 -119q141 -120 141 -315q0 -196 -141 -316q-137 -119 -354 -119q-167 0 -294 75t-181 206l63 35q42 -112 151 -178t261 -66q191 0 305.5 100.5t114.5 262.5t-114.5 262t-305.5 100h-412l47 660h801v-70h-735z" />
    <glyph glyph-name="six.tf" horiz-adv-x="1167" 
d="M578 922q229 0 366 -131q141 -132 141 -340q0 -210 -141 -342q-138 -132 -366 -132q-230 0 -371 132q-139 133 -139 342q0 166 88 282l516 701h86l-404 -551q101 39 224 39zM578 49q200 0 316 110.5t116 291.5q0 174 -115 286q-113 113 -317 113q-207 0 -320 -113
q-115 -112 -115 -286q0 -181 117 -291.5t318 -110.5z" />
    <glyph glyph-name="seven.tf" horiz-adv-x="1167" 
d="M82 1364v70h977v-70l-629 -1364h-76l627 1364h-899z" />
    <glyph glyph-name="eight.tf" horiz-adv-x="1167" 
d="M793 741q137 -43 212.5 -138t75.5 -228q0 -184 -134.5 -291t-362.5 -107t-363 107t-135 291q0 133 76 228t213 138q-113 43 -178.5 132.5t-65.5 205.5q0 174 125 275q126 102 328 102q199 0 325 -102q127 -103 127 -275q0 -116 -65 -205.5t-178 -132.5zM207 1079
q0 -137 101.5 -222t275.5 -85t275.5 85t101.5 222q0 138 -100.5 221.5t-276.5 83.5t-276.5 -83.5t-100.5 -221.5zM1008 375q0 151 -111.5 239t-312.5 88t-312.5 -88t-111.5 -239q0 -150 111.5 -238t312.5 -88t312.5 88t111.5 238z" />
    <glyph glyph-name="nine.tf" horiz-adv-x="1167" 
d="M1100 983q0 -167 -88 -283l-516 -700h-86l403 551q-101 -39 -223 -39q-229 0 -369 131q-139 133 -139 340q0 209 139 342q140 131 369 131q231 0 368 -131q142 -133 142 -342zM158 983q0 -175 114 -289q113 -110 318 -110q206 0 319 110q115 115 115 289
q0 181 -116.5 291t-317.5 110q-200 0 -316 -110t-116 -291z" />
    <glyph glyph-name="zero.dnom" horiz-adv-x="839" 
d="M670 94q-91 -119 -250 -119q-158 0 -252 119q-92 121 -92 316q0 192 92 313q95 121 252 121q158 0 250 -121q94 -119 94 -313q0 -197 -94 -316zM219 139q73 -98 201 -98t201 98t73 271q0 172 -73 270t-201 98t-201 -98q-74 -100 -74 -270q0 -171 74 -271z" />
    <glyph glyph-name="one.dnom" horiz-adv-x="503" 
d="M35 719l262 100h51v-819h-69v737l-226 -78z" />
    <glyph glyph-name="two.dnom" horiz-adv-x="704" 
d="M631 0h-555v55l370 351q99 92 99 196q0 76 -53.5 126t-143.5 50q-159 0 -209 -145l-59 33q30 83 100.5 130.5t169.5 47.5q119 0 191.5 -68.5t72.5 -173.5q0 -128 -118 -240l-316 -296h451v-66z" />
    <glyph glyph-name="three.dnom" horiz-adv-x="708" 
d="M588 754l-207 -273q111 -12 175.5 -80t64.5 -168q0 -114 -77 -186t-206 -72q-207 0 -272 158l57 33q52 -125 215 -125q101 0 157 52.5t56 139.5q0 84 -56.5 137.5t-156.5 53.5h-6l-35 51l211 279h-420v65h500v-65z" />
    <glyph glyph-name="four.dnom" horiz-adv-x="731" 
d="M557 238h121v-64h-121v-174h-70v174h-450v64l313 581h72l-311 -581h376v231h70v-231z" />
    <glyph glyph-name="five.dnom" horiz-adv-x="692" 
d="M166 494h166q123 0 199.5 -72.5t76.5 -188.5t-75.5 -187t-202.5 -71q-198 0 -269 156l58 31q56 -121 211 -121q96 0 152.5 52t56.5 140t-56.5 141.5t-152.5 53.5h-234l31 391h448v-63h-387z" />
    <glyph glyph-name="six.dnom" horiz-adv-x="686" 
d="M342 520q121 0 205 -78t84 -194q0 -117 -84 -195t-205 -78q-123 0 -205 78t-82 195q0 72 37 139l279 432h82l-209 -313q49 14 98 14zM342 41q97 0 158 57.5t61 149.5t-61 149.5t-158 57.5q-94 0 -155.5 -57.5t-61.5 -149.5t61.5 -149.5t155.5 -57.5z" />
    <glyph glyph-name="seven.dnom" horiz-adv-x="661" 
d="M47 754v65h545v-55l-330 -764h-76l328 754h-467z" />
    <glyph glyph-name="eight.dnom" horiz-adv-x="712" 
d="M485 430q73 -30 115.5 -87.5t42.5 -131.5q0 -105 -80 -170.5t-205 -65.5q-129 0 -207.5 65t-78.5 171q0 74 42 131.5t115 87.5q-131 58 -131 186q0 102 74 165t186 63q111 0 184.5 -63t73.5 -165q0 -128 -131 -186zM168 616q0 -68 54.5 -111.5t135.5 -43.5t135 43.5
t54 111.5q0 74 -53 119t-136 45q-85 0 -137.5 -44.5t-52.5 -119.5zM358 41q97 0 156 47.5t59 126.5q0 81 -60 130.5t-155 49.5q-99 0 -158 -48t-59 -132q0 -79 59.5 -126.5t157.5 -47.5z" />
    <glyph glyph-name="nine.dnom" horiz-adv-x="686" 
d="M631 571q0 -72 -37 -139l-279 -432h-82l209 313q-49 -14 -98 -14q-123 0 -207 78q-82 76 -82 194q0 119 82 195q84 78 207 78t205 -78t82 -195zM344 365q95 0 156 57.5t61 148.5q0 92 -61.5 149.5t-155.5 57.5q-97 0 -158 -57.5t-61 -149.5t61 -149t158 -57z" />
    <glyph glyph-name="zero.numr" horiz-adv-x="839" 
d="M670 709q-91 -119 -250 -119q-158 0 -252 119q-92 121 -92 315q0 192 92 313q95 121 252 121q158 0 250 -121q94 -119 94 -313q0 -196 -94 -315zM219 754q73 -99 201 -99t201 99q73 98 73 270t-73 270q-73 99 -201 99t-201 -99q-74 -100 -74 -270t74 -270z" />
    <glyph glyph-name="one.numr" horiz-adv-x="503" 
d="M35 1333l262 101h51v-820h-69v738l-226 -78z" />
    <glyph glyph-name="two.numr" horiz-adv-x="704" 
d="M631 614h-555v56l370 350q99 92 99 197q0 76 -53.5 126t-143.5 50q-159 0 -209 -146l-59 33q30 83 100.5 130.5t169.5 47.5q119 0 191.5 -68t72.5 -173q0 -128 -118 -240l-316 -297h451v-66z" />
    <glyph glyph-name="three.numr" horiz-adv-x="708" 
d="M588 1368l-207 -272q111 -12 175.5 -80t64.5 -168q0 -114 -77 -186t-206 -72q-207 0 -272 158l57 32q52 -125 215 -125q101 0 157 53t56 140q0 84 -56.5 137t-156.5 53h-6l-35 52l211 278h-420v66h500v-66z" />
    <glyph glyph-name="four.numr" horiz-adv-x="731" 
d="M557 852h121v-64h-121v-174h-70v174h-450v64l313 582h72l-311 -582h376v231h70v-231z" />
    <glyph glyph-name="five.numr" horiz-adv-x="692" 
d="M166 1108h166q123 0 199.5 -72t76.5 -188t-75.5 -187t-202.5 -71q-199 0 -269 155l58 31q56 -121 211 -121q96 0 152.5 52.5t56.5 140.5t-56.5 141t-152.5 53h-234l31 392h448v-64h-387z" />
    <glyph glyph-name="six.numr" horiz-adv-x="686" 
d="M342 1135q121 0 205 -78t84 -195q0 -116 -84 -194t-205 -78q-123 0 -205 77.5t-82 194.5q0 72 37 139l279 433h82l-209 -314q53 15 98 15zM342 655q97 0 158 57.5t61 149.5t-61 149.5t-158 57.5q-94 0 -155.5 -57.5t-61.5 -149.5t61.5 -149.5t155.5 -57.5z" />
    <glyph glyph-name="seven.numr" horiz-adv-x="661" 
d="M47 1368v66h545v-56l-330 -764h-76l328 754h-467z" />
    <glyph glyph-name="eight.numr" horiz-adv-x="712" 
d="M485 1044q73 -30 115.5 -87.5t42.5 -131.5q0 -105 -80 -170t-205 -65q-129 0 -207.5 64.5t-78.5 170.5q0 74 42 131.5t115 87.5q-131 58 -131 187q0 102 74 164.5t186 62.5q111 0 184.5 -62.5t73.5 -164.5q0 -129 -131 -187zM168 1231q0 -68 54.5 -112t135.5 -44
q80 0 134.5 44t54.5 112q0 74 -53 119t-136 45q-85 0 -137.5 -44.5t-52.5 -119.5zM358 655q97 0 156 47.5t59 126.5q0 81 -60 131t-155 50q-99 0 -158 -48.5t-59 -132.5q0 -79 59.5 -126.5t157.5 -47.5z" />
    <glyph glyph-name="nine.numr" horiz-adv-x="686" 
d="M631 1186q0 -72 -37 -139l-279 -433h-82l209 314q-53 -15 -98 -15q-123 0 -207 78q-82 76 -82 195q0 118 82 194q84 78 207 78t205 -77.5t82 -194.5zM344 979q94 0 155.5 57.5t61.5 149.5t-61.5 149.5t-155.5 57.5q-97 0 -158 -57.5t-61 -149.5t61 -149.5t158 -57.5z" />
    <glyph glyph-name="zero.sups" horiz-adv-x="839" 
d="M670 1036q-90 -118 -250 -118q-159 0 -252 118q-92 121 -92 316q0 192 92 313q95 121 252 121q158 0 250 -121q94 -119 94 -313q0 -197 -94 -316zM219 1081q73 -98 201 -98t201 98t73 271q0 172 -73 270t-201 98t-201 -98q-74 -100 -74 -270q0 -171 74 -271z" />
    <glyph glyph-name="one.sups" horiz-adv-x="503" 
d="M35 1661l262 100h51v-819h-69v737l-226 -77z" />
    <glyph glyph-name="two.sups" horiz-adv-x="704" 
d="M631 942h-555v55l370 351q99 92 99 196q0 76 -53.5 126t-143.5 50q-159 0 -209 -145l-59 33q30 83 100.5 130.5t169.5 47.5q119 0 191.5 -68.5t72.5 -173.5q0 -127 -118 -239l-316 -297h451v-66z" />
    <glyph glyph-name="three.sups" horiz-adv-x="708" 
d="M588 1696l-207 -273q111 -12 175.5 -79.5t64.5 -167.5q0 -114 -77 -186t-206 -72q-207 0 -272 157l57 33q52 -125 215 -125q101 0 157 53t56 140q0 84 -56.5 137t-156.5 53h-6l-35 51l211 279h-420v65h500v-65z" />
    <glyph glyph-name="four.sups" horiz-adv-x="731" 
d="M557 1180h121v-64h-121v-174h-70v174h-450v64l313 581h72l-311 -581h376v231h70v-231z" />
    <glyph glyph-name="five.sups" horiz-adv-x="692" 
d="M166 1436h166q123 0 199.5 -72t76.5 -188t-75.5 -187t-202.5 -71q-199 0 -269 155l58 31q56 -121 211 -121q96 0 152.5 52.5t56.5 140.5t-56.5 141t-152.5 53h-234l31 391h448v-63h-387z" />
    <glyph glyph-name="six.sups" horiz-adv-x="686" 
d="M342 1462q121 0 205 -78t84 -194q0 -117 -84 -195q-83 -77 -205 -77q-123 0 -205 77.5t-82 194.5q0 72 37 139l279 432h82l-209 -313q49 14 98 14zM342 983q97 0 158 57.5t61 149.5t-61 149.5t-158 57.5q-94 0 -155.5 -57.5t-61.5 -149.5t61.5 -149.5t155.5 -57.5z" />
    <glyph glyph-name="seven.sups" horiz-adv-x="661" 
d="M47 1696v65h545v-55l-330 -764h-76l328 754h-467z" />
    <glyph glyph-name="eight.sups" horiz-adv-x="712" 
d="M485 1372q73 -30 115.5 -87.5t42.5 -131.5q0 -105 -80 -170t-205 -65q-129 0 -207.5 64.5t-78.5 170.5q0 74 42 131.5t115 87.5q-131 58 -131 187q0 102 74 164.5t186 62.5q111 0 184.5 -62.5t73.5 -164.5q0 -129 -131 -187zM168 1559q0 -68 54.5 -112t135.5 -44
q80 0 134.5 44t54.5 112q0 74 -53 118.5t-136 44.5q-85 0 -137.5 -44.5t-52.5 -118.5zM358 983q97 0 156 47.5t59 126.5q0 81 -60 130.5t-155 49.5q-99 0 -158 -48t-59 -132q0 -79 59.5 -126.5t157.5 -47.5z" />
    <glyph glyph-name="nine.sups" horiz-adv-x="686" 
d="M631 1513q0 -72 -37 -139l-279 -432h-82l209 313q-49 -14 -98 -14q-123 0 -207 78q-82 76 -82 194q0 119 82 195q84 78 207 78t205 -78t82 -195zM344 1307q95 0 156 57.5t61 148.5q0 92 -61.5 149.5t-155.5 57.5q-97 0 -158 -57.5t-61 -149.5t61 -149t158 -57z" />
    <glyph glyph-name="cent.tf" horiz-adv-x="1167" 
d="M1028 473l59 -35q-60 -118 -181 -187t-269 -69q-73 0 -160 23l-67 -205h-62l74 225q-147 62 -233.5 194.5t-86.5 297.5q0 227 154 381q153 153 381 153q63 0 121 -12l65 195h62l-70 -211q193 -65 270 -228l-59 -34q-70 144 -233 196l-293 -887q64 -18 137 -18
q129 0 232.5 60t158.5 161zM174 717q0 -142 73 -256t197 -170l293 880q-68 11 -100 11q-198 0 -330 -135q-133 -133 -133 -330z" />
    <glyph glyph-name="dollar.tf" horiz-adv-x="1167" 
d="M1069 350q0 -159 -118.5 -260.5t-311.5 -112.5v-182h-68v182q-182 7 -305 88.5t-166 221.5l64 37q33 -124 137 -196t270 -79v656q-107 37 -155 57q-58 25 -123 67q-125 84 -125 258q0 158 113 259t290 110v182h68v-184q306 -18 395 -295l-63 -37q-70 242 -332 260v-624
q98 -31 168 -62q64 -28 129 -73q133 -85 133 -273zM244 1087q0 -125 80 -190q81 -63 247 -117v604q-150 -6 -238.5 -89t-88.5 -208zM639 684v-635q165 7 259.5 89.5t94.5 211.5q0 148 -104 217q-53 37 -104.5 61t-145.5 56z" />
    <glyph glyph-name="Euro.tf" horiz-adv-x="1167" 
d="M1032 315l62 -34q-47 -143 -153 -223.5t-247 -80.5q-209 0 -339.5 152.5t-161.5 423.5h-156v63h151q-4 86 -4 101q0 10 4 104h-151v66h158q31 267 161.5 418t337.5 151q139 0 243.5 -78t154.5 -219l-62 -35q-43 124 -131.5 192t-204.5 68q-176 0 -285.5 -129t-138.5 -368
h543v-66h-549q-4 -86 -4 -104q0 -15 4 -101h549v-63h-545q29 -241 139.5 -372.5t286.5 -131.5q118 0 207.5 69t130.5 197z" />
    <glyph glyph-name="florin.tf" horiz-adv-x="1167" 
d="M1092 1438v-70q-118 42 -199.5 -5.5t-110.5 -172.5l-102 -436h317v-70h-335l-203 -860q-37 -156 -139 -221t-244 -21v70q118 -42 199 5t112 173l201 854h-314v70h330l105 442q37 156 139 221t244 21z" />
    <glyph glyph-name="uni20BD.tf" horiz-adv-x="1167" 
d="M690 600h-409v-229h573v-66h-573v-305h-76v305h-185v66h185v229h-185v70h185v764h485q173 0 293 -123q123 -120 123 -293q0 -172 -123 -295q-120 -123 -293 -123zM690 1364h-409v-694h409q138 0 240 102q100 100 100 246q0 144 -100 244q-102 102 -240 102z" />
    <glyph glyph-name="sterling.tf" horiz-adv-x="1167" 
d="M365 608v-536h796v-72h-1085v72h213v536h-172v68h172v383q0 183 114 291q115 106 285 106q145 0 244.5 -72t142.5 -206l-61 -33q-73 239 -326 239q-147 0 -235 -88t-88 -237v-383h512v-68h-512z" />
    <glyph glyph-name="yen.tf" horiz-adv-x="1167" 
d="M1047 1434h81l-491 -738h375v-63h-391v-191h391v-65h-391v-377h-74v377h-387v65h387v191h-387v63h370l-491 738h84l461 -695z" />
    <glyph glyph-name="brevecy" horiz-adv-x="587" 
d="M547 1217h-506v61h506v-61z" />
    </font>
</defs>
</svg>
