<?xml version="1.0" standalone="no"?>
<!DOCTYPE svg PUBLIC "-//W3C//DTD SVG 1.1//EN" "http://www.w3.org/Graphics/SVG/1.1/DTD/svg11.dtd" >
<svg xmlns="http://www.w3.org/2000/svg" xmlns:xlink="http://www.w3.org/1999/xlink" version="1.1">
<metadata>
Created by FontForge 20170731 at Sat Aug  7 15:00:50 2021
 By Aleksey,,,
Copyright (c) 2015 by Radomir Tinkov. All rights reserved.
</metadata>
<defs>
<font id="SVN-GilroyBoldItalic" horiz-adv-x="1177" >
  <font-face 
    font-family="SVN-Gilroy"
    font-weight="700"
    font-style="italic"
    font-stretch="normal"
    units-per-em="2048"
    panose-1="0 0 8 0 0 0 0 0 0 0"
    ascent="1638"
    descent="-410"
    x-height="1024"
    cap-height="1434"
    bbox="-739 -539 2210.63 2214"
    underline-thickness="102"
    underline-position="-307"
    slope="-10"
    unicode-range="U+0020-FB02"
  />
<missing-glyph horiz-adv-x="1024" 
d="M190 1638h650v-2048h-650v2048zM682 1434v67h-338v-67h133v-76h-135v-68h340v68h-135v76h135zM547 1094v143h-205v-213h340v70h-135zM410 1167h67v-73h-67v73zM682 901v68h-340v-68h135v-76h-135v-67h205v143h135zM682 641v205h-68v-135h-272v-70h340zM682 365v231h-205
v-115h70v47h67v-96h-204v164h-68v-231h340zM682 10v232h-340v-232h340zM410 174h204v-96h-204v96zM682 -104v67h-340v-67h143l-143 -97v-67h340v67h-209l143 97h66z" />
    <glyph glyph-name="fi" unicode="fi" horiz-adv-x="1140" 
d="M545 1024h565l-180 -1024h-264l135 770h-301l-135 -770h-265l136 770h-146l43 254h148l2 10q38 220 174 324t383 104q102 0 233 -28l-41 -242q-94 16 -203 16q-252 0 -282 -174z" />
    <glyph glyph-name="fl" unicode="fl" horiz-adv-x="1140" 
d="M840 1462q137 0 340 -43l-250 -1419h-264l215 1229q-18 2 -82 2q-217 0 -252 -197l-2 -10h170l-43 -254h-172l-135 -770h-265l136 770h-146l43 254h148l2 10q38 220 174 324t383 104z" />
    <glyph glyph-name="f_f" unicode="ff" horiz-adv-x="1239" 
d="M848 1024l6 31q77 458 557 428l-45 -254q-214 15 -248 -174l-6 -31h217l-43 -254h-219l-135 -770h-264l135 770h-303l-135 -770h-265l136 770h-146l43 254h148l2 10q77 458 557 428l-45 -254q-214 15 -248 -174l-2 -10h303z" />
    <glyph glyph-name="f_f_i" unicode="ffi" horiz-adv-x="1708" 
d="M1112 1024h565l-180 -1024h-264l135 770h-301l-135 -770h-264l135 770h-303l-135 -770h-265l136 770h-146l43 254h148l2 10q77 458 557 428l-45 -254q-214 15 -248 -174l-2 -10h303l6 31q36 219 170.5 323.5t370.5 104.5q117 0 252 -29l-43 -242q-100 17 -201 17
q-255 0 -285 -174z" />
    <glyph glyph-name="f_f_l" unicode="ffl" horiz-adv-x="1708" 
d="M1411 1483q140 0 340 -43l-254 -1440h-264l219 1249q-18 2 -82 2q-218 0 -252 -196l-6 -31h172l-45 -254h-172l-135 -770h-264l135 770h-303l-135 -770h-265l136 770h-146l43 254h148l2 10q77 458 557 428l-45 -254q-214 15 -248 -174l-2 -10h303l6 31q38 220 174 324
t383 104z" />
    <glyph glyph-name=".notdef" horiz-adv-x="1024" 
d="M190 1638h650v-2048h-650v2048zM682 1434v67h-338v-67h133v-76h-135v-68h340v68h-135v76h135zM547 1094v143h-205v-213h340v70h-135zM410 1167h67v-73h-67v73zM682 901v68h-340v-68h135v-76h-135v-67h205v143h135zM682 641v205h-68v-135h-272v-70h340zM682 365v231h-205
v-115h70v47h67v-96h-204v164h-68v-231h340zM682 10v232h-340v-232h340zM410 174h204v-96h-204v96zM682 -104v67h-340v-67h143l-143 -97v-67h340v67h-209l143 97h66z" />
    <glyph glyph-name=".null" horiz-adv-x="0" 
 />
    <glyph glyph-name="nonmarkingreturn" horiz-adv-x="682" 
 />
    <glyph glyph-name="space" unicode=" " horiz-adv-x="512" 
 />
    <glyph glyph-name="exclam" unicode="!" horiz-adv-x="548" 
d="M375 481h-211l41 543l71 410h318l-72 -410zM178 -27q-71 0 -113 53t-30 126q12 72 71 121t134 49q72 0 114.5 -53.5t28.5 -125.5q-12 -73 -70 -121.5t-135 -48.5z" />
    <glyph glyph-name="quotedbl" unicode="&#x22;" horiz-adv-x="774" 
d="M381 963h-178l47 471h250zM729 963h-178l47 471h250z" />
    <glyph glyph-name="numbersign" unicode="#" horiz-adv-x="1261" 
d="M1303 1010l-68 -201h-223l-62 -184h224l-68 -199h-225l-111 -324h-209l111 324h-209l-111 -324h-207l111 324h-225l69 199h226l61 184h-225l67 201h228l110 321h207l-110 -321h208l111 321h209l-111 -321h222zM532 625h209l62 184h-209z" />
    <glyph glyph-name="dollar" unicode="$" horiz-adv-x="1146" 
d="M778 1169l-59 -338q184 -84 246 -137q142 -123 104 -332q-32 -177 -166 -277.5t-336 -111.5l-30 -178h-140l33 182q-161 20 -269.5 105t-146.5 219l256 131q50 -155 207 -182l64 358q-33 14 -58.5 26t-56.5 28t-55 32t-50 35.5t-44.5 41t-36.5 46t-28.5 52.5t-17 60
t-6 69t8.5 77q35 188 176 285q140 99 319 102l31 176h139l-33 -190q234 -59 324 -281l-250 -129q-51 96 -125 131zM483 1053q-15 -96 109 -160l51 295q-139 -18 -160 -135zM780 393q18 96 -110 160l-54 -303q140 27 164 143z" />
    <glyph glyph-name="percent" unicode="%" horiz-adv-x="1568" 
d="M496 786q-150 0 -232 101q-81 100 -63 235q21 140 127 240t270 100q154 0 236 -110q81 -108 53 -252q-27 -134 -133 -223q-108 -91 -258 -91zM303 141l-121 78l1116 1041l121 -76zM438 1030q29 -37 84 -37t96 37q43 38 53.5 94t-18.5 93t-84 37t-98 -37
q-42 -37 -52 -92.5t19 -94.5zM1044 -25q-150 0 -233 105q-78 103 -57 239q22 142 127 234q107 98 268 98q151 0 233 -108q83 -109 56 -246t-133 -229q-107 -93 -261 -93zM1071 182q56 0 98.5 38t53.5 93q11 57 -18.5 94t-86.5 37q-55 0 -95.5 -37.5t-51.5 -93.5t17 -93.5
t83 -37.5z" />
    <glyph glyph-name="ampersand" unicode="&#x26;" horiz-adv-x="1400" 
d="M1077 721l230 -141q-84 -184 -187 -308l158 -213l-238 -125l-116 158q-186 -121 -412 -121q-232 0 -352 129t-82 324q46 254 321 393q-63 123 -39 262q30 176 166 279q137 104 330 104q336 0 438 -307l-256 -135q-52 168 -204 168q-75 0 -130 -42t-67 -114
q-14 -85 82 -217l246 -332q69 115 112 238zM569 231q113 0 207 58l-244 329l-8 13q-135 -67 -162 -201q-14 -89 41 -144t166 -55z" />
    <glyph glyph-name="quotesingle" unicode="'" horiz-adv-x="425" 
d="M381 963h-178l47 471h250z" />
    <glyph glyph-name="parenleft" unicode="(" horiz-adv-x="628" 
d="M471 -205h-264q-148 445 -60 940q83 473 385 903h265q-304 -446 -387 -921.5t61 -921.5z" />
    <glyph glyph-name="parenright" unicode=")" horiz-adv-x="626" 
d="M229 1638h265q147 -443 59 -940q-83 -473 -385 -903h-264q304 446 386.5 921.5t-61.5 921.5z" />
    <glyph glyph-name="asterisk" unicode="*" horiz-adv-x="815" 
d="M651 1231l187 16l-29 -164l-182 15l86 -144l-146 -86l-59 172l-117 -172l-131 86l135 144l-186 -15l29 164l182 -16l-86 145l145 86l58 -172l118 172l131 -86z" />
    <glyph glyph-name="plus" unicode="+" horiz-adv-x="1136" 
d="M750 842h337l-45 -248h-335l-60 -338h-248l60 338h-338l45 248h336l59 336h248z" />
    <glyph glyph-name="comma" unicode="," horiz-adv-x="569" 
d="M141 283h287l-254 -570h-215z" />
    <glyph glyph-name="hyphen" unicode="-" horiz-adv-x="1034" 
d="M897 492h-768l45 253h768z" />
    <glyph glyph-name="period" unicode="." horiz-adv-x="548" 
d="M178 -27q-72 0 -112.5 52.5t-28.5 126.5q12 73 70 121.5t133 48.5q72 0 114.5 -53.5t28.5 -125.5q-12 -73 -70 -121.5t-135 -48.5z" />
    <glyph glyph-name="slash" unicode="/" horiz-adv-x="1071" 
d="M1202 1638l-1134 -1843h-129l1136 1843h127z" />
    <glyph glyph-name="zero" unicode="0" horiz-adv-x="1292" 
d="M567 -29q-271 0 -395 213q-120 214 -61 553q59 337 237 531q182 194 451 194q270 0 391 -213q122 -210 63 -551q-59 -340 -239 -532q-180 -195 -447 -195zM600 248q141 0 235.5 120t135.5 349t-12 350t-195 121q-140 0 -235 -120.5t-136 -350.5q-41 -229 12 -349
t195 -120z" />
    <glyph glyph-name="one" unicode="1" horiz-adv-x="794" 
d="M162 1300l401 134h246l-252 -1434h-283l197 1124l-283 -75z" />
    <glyph glyph-name="two" unicode="2" horiz-adv-x="1089" 
d="M926 0h-961l37 211l580 504q195 171 215 286q13 84 -29 135.5t-121 51.5q-152 0 -262 -174l-225 145q93 148 228.5 225.5t295.5 77.5q188 0 309 -133q123 -133 86 -338q-23 -120 -93 -221t-204 -217l-329 -281h520z" />
    <glyph glyph-name="three" unicode="3" horiz-adv-x="1116" 
d="M252 1434h901l-39 -234l-328 -354q136 -52 204 -164.5t44 -257.5q-41 -221 -198 -336q-159 -117 -375 -117q-169 0 -290 78t-167 225l256 138q47 -164 232 -164q108 0 176.5 51.5t85.5 142.5q14 90 -36 142.5t-157 52.5h-63l-80 164l338 368h-549z" />
    <glyph glyph-name="four" unicode="4" horiz-adv-x="1183" 
d="M1006 506h153l-45 -262h-156l-43 -244h-284l43 244h-678l47 262l627 928h317l-629 -928h363l59 340h285z" />
    <glyph glyph-name="five" unicode="5" horiz-adv-x="1122" 
d="M1159 1434l-47 -265h-545l-65 -258h143q192 0 318 -135q127 -133 86 -352q-41 -222 -199 -338q-157 -115 -369 -115q-174 0 -296 78.5t-175 229.5l260 135q46 -166 242 -166q104 0 172 53t82 141q17 89 -32 142t-152 53h-435l197 797h815z" />
    <glyph glyph-name="six" unicode="6" horiz-adv-x="1132" 
d="M1075 1434l-399 -467q199 -15 319 -162q118 -145 80 -352q-41 -221 -198 -351q-155 -131 -390 -131q-229 0 -356 148q-128 152 -88 370q34 193 160 316l534 629h338zM793 471q20 103 -34.5 167t-158.5 64q-105 0 -180.5 -63t-95.5 -168q-19 -105 35.5 -169t158.5 -64
t180 64t95 169z" />
    <glyph glyph-name="seven" unicode="7" horiz-adv-x="1003" 
d="M141 1163l47 271h926l-41 -240l-682 -1194h-313l665 1163h-602z" />
    <glyph glyph-name="eight" unicode="8" horiz-adv-x="1163" 
d="M1141 1030q-35 -194 -207 -293q85 -62 122 -155t17 -201q-35 -196 -185 -303t-388 -107q-236 0 -361 125t-90 322q40 226 260 338q-134 116 -100 299q34 197 182 303q146 104 348 104q197 0 316 -116q120 -117 86 -316zM487 1028q-12 -77 31.5 -123.5t122.5 -46.5
q83 0 143 46.5t72 123.5q13 77 -30 122.5t-124 45.5q-83 0 -142.5 -45.5t-72.5 -122.5zM801 436q13 91 -41.5 144t-155.5 53q-106 0 -180.5 -53t-87.5 -144q-18 -92 36.5 -145t159.5 -53t177.5 52.5t91.5 145.5z" />
    <glyph glyph-name="nine" unicode="9" horiz-adv-x="1132" 
d="M717 1462q231 0 356 -149q127 -149 90 -369q-34 -180 -147 -299l-547 -645h-340l399 469q-199 15 -319 162q-118 145 -80 352q41 219 197 348q158 131 391 131zM412 965q-20 -105 34 -169.5t158 -64.5q105 0 181.5 64.5t95.5 169.5q20 105 -34.5 168t-160.5 63
q-103 0 -179 -63.5t-95 -167.5z" />
    <glyph glyph-name="colon" unicode=":" horiz-adv-x="548" 
d="M307 707q-72 0 -112.5 52t-28.5 126q12 73 70 121.5t133 48.5q72 0 114.5 -53t28.5 -125q-12 -73 -70 -121.5t-135 -48.5zM178 -27q-72 0 -112.5 52.5t-28.5 126.5q12 73 70 121.5t133 48.5q72 0 114.5 -53.5t28.5 -125.5q-12 -73 -70 -121.5t-135 -48.5z" />
    <glyph glyph-name="semicolon" unicode=";" horiz-adv-x="571" 
d="M332 707q-72 0 -113 52t-29 126q12 73 70 121.5t133 48.5q72 0 115 -53t29 -125q-12 -73 -70 -121.5t-135 -48.5zM141 283h287l-254 -570h-215z" />
    <glyph glyph-name="less" unicode="&#x3c;" horiz-adv-x="1081" 
d="M150 836l964 389l-51 -289l-635 -234l553 -231l-45 -260l-827 389l20 117z" />
    <glyph glyph-name="equal" unicode="=" horiz-adv-x="1075" 
d="M1034 805h-889l43 248h889zM958 381h-888l45 248h889z" />
    <glyph glyph-name="greater" unicode="&#x3e;" horiz-adv-x="1081" 
d="M172 965l47 260l825 -389l-20 -119l-20 -117l-965 -389l53 289l637 231z" />
    <glyph glyph-name="question" unicode="?" horiz-adv-x="1132" 
d="M676 481h-283q16 96 79.5 179.5t143.5 136.5q83 54 143.5 117t71.5 124q12 68 -27.5 109t-115.5 41q-173 0 -276 -189l-230 146q74 150 220 233.5t321 83.5q192 0 311 -116q119 -113 84 -306q-18 -97 -83.5 -184.5t-147.5 -142.5q-194 -133 -211 -232zM444 -27
q-72 0 -112.5 52.5t-28.5 126.5q12 73 70 121.5t133 48.5q72 0 114.5 -53.5t28.5 -125.5q-12 -73 -70 -121.5t-135 -48.5z" />
    <glyph glyph-name="at" unicode="@" horiz-adv-x="1595" 
d="M938 1253q158 0 286.5 -62.5t202.5 -168.5q73 -104 101.5 -230t5.5 -253q-37 -210 -144 -320t-257 -110q-92 0 -154.5 41.5t-81.5 115.5q-96 -90 -221 -90q-130 0 -201 103q-69 100 -45 247q26 142 121.5 232t220.5 90q118 0 189 -92l12 69h219l-84 -473
q-24 -149 94 -149q90 0 158.5 89t99.5 261q47 267 -106 448q-151 183 -422 183q-283 0 -510 -193q-225 -193 -277 -477q-52 -291 113 -483q170 -191 473 -191q199 0 342 51l-12 -73q-149 -47 -340 -47q-333 0 -522 219q-187 218 -129 540q53 309 301 514q250 209 567 209z
M762 373q57 0 100.5 39t55.5 100q10 61 -20 100t-87 39q-60 0 -103.5 -38.5t-54.5 -100.5t19 -100.5t90 -38.5z" />
    <glyph glyph-name="A" unicode="A" horiz-adv-x="1368" 
d="M1272 0h-305l-37 258h-574l-133 -258h-309l756 1434h350zM805 1120l-311 -598h397z" />
    <glyph glyph-name="B" unicode="B" horiz-adv-x="1239" 
d="M1223 1020q-27 -177 -183 -285q156 -111 129 -329q-27 -184 -167 -295t-367 -111h-592l252 1434h543q187 0 301 -117q111 -114 84 -297zM805 1169h-275l-55 -315h277q71 0 123.5 45t64.5 113q12 67 -24.5 112t-110.5 45zM893 434q12 74 -27 121t-116 47h-318l-59 -338
h313q79 0 136 48t71 122z" />
    <glyph glyph-name="C" unicode="C" horiz-adv-x="1492" 
d="M735 -29q-158 -3 -291 59t-216 167t-117.5 247t-4.5 293q52 316 291 520q242 205 557 205q202 0 351.5 -89.5t222.5 -250.5l-258 -135q-95 201 -342 201q-208 0 -357 -131q-150 -132 -184 -340q-37 -204 66 -338q101 -131 301 -131q265 0 415 209l232 -150
q-118 -157 -294 -246.5t-372 -89.5z" />
    <glyph glyph-name="D" unicode="D" horiz-adv-x="1464" 
d="M295 1434h569q280 0 451 -220q168 -215 115 -518q-53 -305 -283 -501q-230 -195 -535 -195h-569zM1159 725q34 196 -61 317t-281 121h-287l-157 -893h270q196 0 338 127q143 125 178 328z" />
    <glyph glyph-name="E" unicode="E" horiz-adv-x="1085" 
d="M1171 1434l-47 -271h-594l-55 -307h545l-49 -264h-541l-57 -322h604l-47 -270h-887l252 1434h876z" />
    <glyph glyph-name="F" unicode="F" horiz-adv-x="1062" 
d="M1151 1434l-49 -271h-572l-59 -340h557l-49 -270h-557l-96 -553h-283l252 1434h856z" />
    <glyph glyph-name="G" unicode="G" horiz-adv-x="1609" 
d="M868 770h719l-18 -111q-52 -312 -279 -501q-224 -187 -542 -187q-334 0 -515 224q-182 226 -127 544q52 312 293 518q239 205 557 205q212 0 365 -90.5t233 -257.5l-258 -135q-108 209 -366 209q-210 0 -359 -131q-149 -128 -184 -338q-37 -208 68 -340
q107 -131 319 -131q351 0 471 272h-420z" />
    <glyph glyph-name="H" unicode="H" horiz-adv-x="1361" 
d="M1010 864l100 570h281l-252 -1434h-281l105 594h-533l-104 -594h-283l252 1434h283l-101 -570h533z" />
    <glyph glyph-name="I" unicode="I" horiz-adv-x="548" 
d="M43 0l252 1434h283l-252 -1434h-283z" />
    <glyph glyph-name="J" unicode="J" horiz-adv-x="1159" 
d="M467 -29q-344 0 -447 281l259 141q23 -77 73.5 -111t139.5 -34q226 0 260 198l174 988h282l-174 -988q-42 -234 -190.5 -354.5t-376.5 -120.5z" />
    <glyph glyph-name="K" unicode="K" horiz-adv-x="1257" 
d="M1073 1434h338l-690 -705l442 -729h-297l-420 692l-120 -692h-283l252 1434h283l-109 -615z" />
    <glyph glyph-name="L" unicode="L" horiz-adv-x="989" 
d="M578 1434l-205 -1164h547l-48 -270h-829l47 270l205 1164h283z" />
    <glyph glyph-name="M" unicode="M" horiz-adv-x="1669" 
d="M1386 1434h312l-252 -1434h-281l164 932l-528 -668h-33l-276 676l-166 -940h-283l252 1434h289l270 -686z" />
    <glyph glyph-name="N" unicode="N" horiz-adv-x="1378" 
d="M326 0h-283l252 1434h213l461 -895l155 895h283l-252 -1434h-213l-459 895z" />
    <glyph glyph-name="O" unicode="O" horiz-adv-x="1624" 
d="M725 -29q-312 0 -494 226q-183 230 -125 540q53 317 293 520q242 205 572 205q308 0 489 -227q184 -228 129 -541q-56 -318 -295 -520q-241 -203 -569 -203zM758 248q201 0 356 131q158 134 195 336q34 205 -74 338q-108 135 -307 135t-353 -133q-150 -132 -188 -338
q-37 -205 68 -338q107 -131 303 -131z" />
    <glyph glyph-name="P" unicode="P" horiz-adv-x="1208" 
d="M295 1434h514q216 0 336 -144q120 -141 86 -352q-30 -205 -187 -338q-156 -129 -397 -129h-239l-82 -471h-283zM950 958q19 98 -29 154.5t-155 56.5h-236l-75 -434h221q110 0 182.5 60.5t91.5 162.5z" />
    <glyph glyph-name="Q" unicode="Q" horiz-adv-x="1634" 
d="M1589 694q-49 -283 -256 -481l111 -139l-215 -164l-117 149q-180 -88 -387 -88q-144 -4 -273 58.5t-215 167t-124 248t-7 292.5q52 313 297 520q245 205 568 205q308 0 489 -227q184 -228 129 -541zM745 526l216 164l206 -262q112 121 142 287q34 205 -74 338
q-108 135 -307 135t-353 -133q-150 -132 -188 -338q-37 -205 68 -338q107 -131 303 -131q94 0 182 31z" />
    <glyph glyph-name="R" unicode="R" horiz-adv-x="1257" 
d="M1262 938q-26 -142 -117.5 -249t-226.5 -154l217 -535h-287l-199 498h-235l-88 -498h-283l252 1434h559q194 0 317 -150q126 -149 91 -346zM807 1169h-277l-73 -424h291q85 0 150.5 60.5t82.5 152.5q17 91 -32.5 151t-141.5 60z" />
    <glyph glyph-name="S" unicode="S" horiz-adv-x="1200" 
d="M551 -29q-215 0 -354.5 94.5t-178.5 260.5l256 131q53 -213 299 -213q110 0 176 40t78 109q16 74 -39.5 117t-214.5 96q-201 68 -303 170q-102 105 -67 293q35 194 182 293q147 100 340 100q176 0 300.5 -83t180.5 -236l-248 -131q-76 178 -256 178q-86 0 -142.5 -37
t-70.5 -100q-16 -71 38.5 -116t205.5 -99q14 -5 39.5 -14t43.5 -16t40 -17q100 -43 166 -101q132 -118 94 -321q-35 -190 -185.5 -294t-379.5 -104z" />
    <glyph glyph-name="T" unicode="T" horiz-adv-x="1105" 
d="M188 1434h1055l-47 -271h-387l-205 -1163h-282l204 1163h-385z" />
    <glyph glyph-name="U" unicode="U" horiz-adv-x="1323" 
d="M596 -29q-253 0 -393 140q-138 138 -97 358l170 965h281l-166 -942q-19 -114 36 -179t187 -65t211.5 65.5t98.5 178.5l166 942h282l-170 -965q-42 -238 -204.5 -368t-401.5 -130z" />
    <glyph glyph-name="V" unicode="V" horiz-adv-x="1294" 
d="M733 0h-350l-215 1434h291l143 -1104l528 1104h322z" />
    <glyph glyph-name="W" unicode="W" horiz-adv-x="2045" 
d="M664 0h-322l-149 1434h280l92 -1063l488 1063h241l115 -1063l463 1063h305l-653 -1434h-322l-104 946z" />
    <glyph glyph-name="X" unicode="X" horiz-adv-x="1249" 
d="M1028 1434h334l-541 -711l314 -723h-306l-202 469l-357 -469h-336l572 750l-295 684h303l186 -430z" />
    <glyph glyph-name="Y" unicode="Y" horiz-adv-x="1230" 
d="M1053 1434h336l-611 -799l-112 -635h-281l113 639l-330 795h301l201 -529z" />
    <glyph glyph-name="Z" unicode="Z" horiz-adv-x="1095" 
d="M250 1434h942l-39 -224l-760 -940h606l-47 -270h-968l41 225l759 938h-581z" />
    <glyph glyph-name="bracketleft" unicode="[" horiz-adv-x="634" 
d="M793 1638l-43 -254h-224l-235 -1335h223l-47 -254h-487l327 1843h486z" />
    <glyph glyph-name="backslash" unicode="\" horiz-adv-x="1071" 
d="M877 -205h-115l-496 1843h115z" />
    <glyph glyph-name="bracketright" unicode="]" horiz-adv-x="634" 
d="M240 1638h487l-326 -1843h-487l45 254h223l236 1335h-221z" />
    <glyph glyph-name="asciicircum" unicode="^" horiz-adv-x="1146" 
d="M635 1434h201l272 -676h-277l-137 372l-276 -372h-293z" />
    <glyph glyph-name="underscore" unicode="_" horiz-adv-x="1064" 
d="M846 -350h-932l45 254h932z" />
    <glyph glyph-name="grave" unicode="`" horiz-adv-x="563" 
d="M637 1153h-250l-184 281h307z" />
    <glyph glyph-name="a" unicode="a" horiz-adv-x="1284" 
d="M965 887l24 137h264l-180 -1024h-264l16 94q-132 -123 -340 -123q-230 0 -344 170q-113 168 -69 396q41 220 196 366q159 150 381 150q217 0 316 -166zM567 223q119 0 211.5 75.5t118.5 197.5l4 32q17 123 -50.5 198t-186.5 75q-123 0 -214 -77.5t-114 -209.5
q-23 -128 42 -209.5t189 -81.5z" />
    <glyph glyph-name="b" unicode="b" horiz-adv-x="1282" 
d="M795 1053q219 0 335 -168q119 -165 82 -389q-35 -219 -190 -371q-157 -154 -383 -154q-222 0 -320 168l-24 -139h-264l252 1434h264l-92 -521q140 140 340 140zM948 514q23 128 -41 207.5t-188 79.5q-122 0 -217 -80q-96 -81 -117 -209q-23 -128 44.5 -208.5t191.5 -80.5
q123 0 215 81t112 210z" />
    <glyph glyph-name="c" unicode="c" horiz-adv-x="1105" 
d="M539 -29q-239 0 -373 162q-134 166 -94 399q35 226 207 373q177 148 405 148q156 0 269 -71.5t163 -195.5l-239 -127q-56 134 -215 134q-117 0 -213 -78q-92 -77 -113 -197q-20 -123 43.5 -204t181.5 -81q159 0 254 138l213 -138q-77 -126 -206 -194t-283 -68z" />
    <glyph glyph-name="d" unicode="d" horiz-adv-x="1286" 
d="M969 883l96 551h264l-252 -1434h-264l16 98q-133 -127 -344 -127q-230 0 -344 170q-113 168 -69 396q41 220 196 366q159 150 381 150q221 0 320 -170zM569 223q125 0 218.5 80t113.5 207q24 131 -42 211t-191 80q-124 0 -216.5 -78t-115.5 -209q-23 -128 43 -209.5
t190 -81.5z" />
    <glyph glyph-name="e" unicode="e" horiz-adv-x="1193" 
d="M1128 512q-3 -41 -28 -109h-774q7 -95 72.5 -143.5t172.5 -48.5q154 0 252 104l187 -149q-174 -195 -459 -195q-256 0 -387 162q-132 164 -92 399q34 225 209 371q176 150 401 150q224 0 358 -158q131 -155 88 -383zM362 610h521q-1 101 -60 153t-157 52
q-103 0 -182 -53.5t-122 -151.5z" />
    <glyph glyph-name="f" unicode="f" horiz-adv-x="673" 
d="M840 1462l-45 -254q-214 15 -248 -174l-2 -10h217l-45 -254h-217l-135 -770h-265l136 770h-146l43 254h148l2 10q38 222 179.5 331.5t377.5 96.5z" />
    <glyph glyph-name="g" unicode="g" horiz-adv-x="1286" 
d="M971 877l26 147h258l-172 -975q-41 -243 -197.5 -365t-393.5 -122q-171 0 -292.5 64t-176.5 186l235 122q64 -137 252 -137q130 0 212.5 65t102.5 187l17 90q-135 -135 -340 -135q-237 0 -350 162q-115 165 -78 385q35 211 190 354q157 148 375 148q237 0 332 -176z
M575 252q122 0 214.5 74t117.5 192l4 21q18 120 -51 193t-192 73t-217 -76t-115 -199q-21 -120 47 -200q69 -78 192 -78z" />
    <glyph glyph-name="h" unicode="h" 
d="M772 1053q171 0 266 -115q95 -114 60 -309l-111 -629h-264l104 596q18 102 -26.5 156.5t-138.5 54.5q-96 0 -166 -56.5t-99 -166.5l-102 -584h-264l252 1434h264l-92 -523q121 142 317 142z" />
    <glyph glyph-name="i" unicode="i" horiz-adv-x="505" 
d="M295 0h-264l180 1024h264zM229 1274q9 66 64 113t121 47q67 0 105.5 -47.5t29.5 -112.5q-12 -67 -66.5 -113.5t-120.5 -46.5t-105 47t-28 113z" />
    <glyph glyph-name="j" unicode="j" horiz-adv-x="540" 
d="M61 -20l185 1044h264l-184 -1044q-41 -237 -164.5 -334.5t-354.5 -83.5l46 254q181 -12 208 164zM274 1274q9 66 64 113t121 47q67 0 105.5 -47.5t29.5 -112.5q-12 -67 -66 -113.5t-120 -46.5t-105.5 47t-28.5 113z" />
    <glyph glyph-name="k" unicode="k" horiz-adv-x="1058" 
d="M813 1024h313l-493 -506l325 -518h-286l-293 481l-84 -481h-264l252 1434h264l-148 -842z" />
    <glyph glyph-name="l" unicode="l" horiz-adv-x="507" 
d="M297 0h-264l112 643l150 852h264l-151 -862z" />
    <glyph glyph-name="m" unicode="m" horiz-adv-x="1740" 
d="M1339 1053q177 0 265 -117q93 -119 59 -305l-113 -631h-264l107 612q17 92 -19.5 143.5t-118.5 51.5q-172 0 -225 -195l-106 -612h-265l107 612q17 92 -19 143.5t-116 51.5q-92 0 -153.5 -58t-80.5 -167l-102 -582h-264l180 1024h264l-18 -102q119 131 297 131
q189 0 260 -154q127 154 325 154z" />
    <glyph glyph-name="n" unicode="n" 
d="M772 1053q171 0 266 -115q95 -114 60 -309l-111 -629h-264l104 596q18 102 -26.5 156.5t-138.5 54.5q-96 0 -166 -56.5t-99 -164.5l-102 -586h-264l180 1024h264l-20 -111q122 140 317 140z" />
    <glyph glyph-name="o" unicode="o" horiz-adv-x="1216" 
d="M541 -29q-254 0 -383 170q-130 174 -84 404q44 218 213 362q172 146 405 146q239 0 365 -172q129 -169 88 -396q-38 -218 -211 -366q-174 -148 -393 -148zM559 229q116 0 209 78q94 76 115 207q24 125 -40.5 203t-183.5 78q-117 0 -207 -78t-114 -205q-23 -127 40 -205
t181 -78z" />
    <glyph glyph-name="p" unicode="p" horiz-adv-x="1284" 
d="M797 1053q216 0 333 -170q119 -168 82 -391q-35 -222 -188 -369q-158 -152 -377 -152q-226 0 -328 172l-96 -553h-264l252 1434h264l-18 -106q135 135 340 135zM948 510q23 129 -41.5 210t-187.5 81q-117 0 -208 -71.5t-122 -188.5l-8 -52q-13 -121 55 -193.5t187 -72.5
q120 0 211 76q93 78 114 211z" />
    <glyph glyph-name="q" unicode="q" horiz-adv-x="1284" 
d="M965 887l24 137h264l-252 -1434h-264l88 504q-132 -123 -340 -123q-230 0 -344 170q-110 168 -69 396q41 220 196 366q159 150 381 150q217 0 316 -166zM567 223q120 0 211 73t117 193l8 41q13 123 -53.5 197t-185.5 74q-123 0 -214 -77.5t-114 -209.5
q-23 -128 42 -209.5t189 -81.5z" />
    <glyph glyph-name="r" unicode="r" horiz-adv-x="731" 
d="M475 1024l-29 -164q111 187 345 184l-52 -294q-51 8 -104.5 -2t-104.5 -37.5t-90.5 -82t-56.5 -128.5l-88 -500h-264l180 1024h264z" />
    <glyph glyph-name="s" unicode="s" horiz-adv-x="962" 
d="M422 -29q-314 0 -416 252l238 119q40 -131 200 -131q135 0 150 80q5 39 -38.5 65t-133.5 54q-51 13 -91 28t-85 42.5t-72.5 62.5t-41 89t-1.5 120q27 146 145 221q121 80 271 80q133 0 233.5 -57t147.5 -160l-238 -119q-38 102 -158 102q-119 0 -137 -88q-7 -43 37 -70
t131 -51q25 -6 46 -11.5t46.5 -14t45.5 -18t42.5 -21.5t39 -27.5t32.5 -33.5t26 -40.5t16 -48.5t6 -57.5t-7 -67.5q-26 -146 -142 -222.5t-292 -76.5z" />
    <glyph glyph-name="t" unicode="t" horiz-adv-x="790" 
d="M752 770h-230l-76 -426q-13 -76 31 -94t182 -10l-41 -240q-258 -31 -365.5 53t-70.5 291l76 426h-178l45 254h176l37 207l278 80l-51 -287h234z" />
    <glyph glyph-name="u" unicode="u" 
d="M780 438l103 586h264l-180 -1024h-265l21 111q-122 -140 -317 -140q-172 0 -267 115q-94 113 -59 309l110 629h265l-105 -596q-18 -102 27 -156.5t139 -54.5q96 0 165.5 56.5t98.5 164.5z" />
    <glyph glyph-name="v" unicode="v" horiz-adv-x="1024" 
d="M471 326l346 698h293l-553 -1024h-270l-191 1024h271z" />
    <glyph glyph-name="w" unicode="w" horiz-adv-x="1593" 
d="M1081 393l281 631h291l-506 -1024h-252l-80 618l-283 -618h-266l-145 1024h264l74 -629l286 629h256z" />
    <glyph glyph-name="x" unicode="x" horiz-adv-x="1075" 
d="M825 1024h314l-451 -510l287 -514h-287l-176 315l-279 -315h-313l471 532l-274 492h286l164 -293z" />
    <glyph glyph-name="y" unicode="y" horiz-adv-x="1075" 
d="M518 334l350 690h293l-553 -1024q-122 -229 -270 -325t-344 -85l43 246q109 -1 172 40.5t119 150.5l6 10l-238 987h271z" />
    <glyph glyph-name="z" unicode="z" horiz-adv-x="929" 
d="M178 1024h768l-31 -176l-528 -600h442l-43 -248h-811l33 176l527 600h-402z" />
    <glyph glyph-name="braceleft" unicode="{" horiz-adv-x="737" 
d="M610 35l-45 -254q-202 -17 -299 84.5t-65 296.5l53 303q17 81 -15.5 107t-121.5 20l45 256q86 -6 126.5 19.5t57.5 107.5l53 303q37 218 156 308t342 73l-47 -254q-85 11 -129 -17t-57 -110l-54 -303q-18 -102 -57.5 -161t-110.5 -95q110 -75 76 -254l-53 -303
q-13 -83 21 -110.5t124 -16.5z" />
    <glyph glyph-name="bar" unicode="|" horiz-adv-x="530" 
d="M236 -410h-265l332 1885h264z" />
    <glyph glyph-name="braceright" unicode="}" horiz-adv-x="735" 
d="M199 1403l45 254q202 17 299 -84.5t65 -296.5l-53 -303q-17 -81 15.5 -107t121.5 -20l-45 -256q-86 6 -126.5 -19.5t-57.5 -107.5l-53 -303q-37 -218 -156 -308t-342 -73l47 254q85 -11 129 17t57 110l54 303q18 102 57.5 161t110.5 95q-110 75 -76 254l53 303
q13 83 -21 110.5t-124 16.5z" />
    <glyph glyph-name="asciitilde" unicode="~" horiz-adv-x="1226" 
d="M309 522l-196 103q74 203 225 262q149 61 311 -29q140 -76 211 -67t129 116l195 -104q-77 -204 -226 -262q-150 -59 -309 30q-144 75 -213 66q-73 -9 -127 -115z" />
    <glyph glyph-name="exclamdown" unicode="&#xa1;" horiz-adv-x="548" 
d="M371 1051q71 0 113 -53t30 -126q-12 -72 -71 -121t-134 -49q-72 0 -114.5 53.5t-28.5 125.5q12 73 70 121.5t135 48.5zM174 543h211l-41 -543l-72 -410h-317l72 410z" />
    <glyph glyph-name="cent" unicode="&#xa2;" horiz-adv-x="1105" 
d="M596 438q160 0 254 137l213 -137q-77 -126 -206.5 -194t-283.5 -68q-55 0 -135 17l-94 -193h-123l115 231q-131 68 -193.5 204.5t-36.5 301.5q35 226 207 373q175 147 406 147q63 0 119 -12l94 189h123l-111 -224q147 -72 207 -219l-240 -127q-28 69 -88 103l-260 -527
q6 -2 33 -2zM371 723q-27 -168 88 -246l256 520h-19q-118 0 -213 -77q-91 -76 -112 -197z" />
    <glyph glyph-name="sterling" unicode="&#xa3;" horiz-adv-x="1189" 
d="M924 561h-418l-49 -289h667l-47 -272h-1102l50 272h149l51 289h-123l43 248h123l35 201q41 222 174.5 337t335.5 115q148 0 257 -79.5t157 -219.5l-250 -131q-55 156 -197 156q-75 0 -128 -47t-66 -131l-35 -201h418z" />
    <glyph glyph-name="currency" unicode="&#xa4;" horiz-adv-x="1112" 
d="M1077 1206l78 -78l-168 -143q72 -122 45 -270q-28 -155 -139 -266l117 -144l-90 -74l-115 144q-131 -88 -289 -88q-145 0 -246 82l-166 -142l-73 78l168 144q-72 122 -45 270q28 157 139 268l-117 141l84 76l119 -145q137 90 291 90q142 0 243 -82zM416 717
q-14 -78 26.5 -129t118.5 -51q79 0 136.5 50t74.5 130q12 80 -28 130t-119 50t-138 -50.5t-71 -129.5z" />
    <glyph glyph-name="yen" unicode="&#xa5;" horiz-adv-x="1230" 
d="M1053 1434h336l-531 -693h270l-30 -163h-330l-16 -93h329l-26 -166h-332l-57 -319h-281l57 319h-329l26 166h332l16 93h-331l30 163h269l-287 693h301l201 -529z" />
    <glyph glyph-name="brokenbar" unicode="&#xa6;" horiz-adv-x="530" 
d="M434 717h-264l133 758h264zM236 -410h-265l133 758h265z" />
    <glyph glyph-name="section" unicode="&#xa7;" horiz-adv-x="1118" 
d="M788 930q139 -54 213 -149.5t52 -223.5q-28 -153 -172 -248q58 -88 37 -215q-30 -160 -150 -241.5t-305 -81.5q-322 0 -430 258l237 129q59 -154 217 -154q149 0 164 96q11 68 -73 119q-32 19 -72 35l-39 18q-8 4 -24.5 11.5t-35.5 15.5t-24 10q-291 131 -250 381
q27 151 174 242q-49 87 -28 213q29 154 143 235.5t283 81.5q133 0 235.5 -66t155.5 -192l-224 -112q-58 137 -186 137q-58 0 -97 -27t-46 -74q-8 -45 37 -94q24 -20 57 -37q52 -26 151 -67zM537 520l174 -74q59 41 71 105q10 57 -26 94t-127 74q-125 48 -158 67
q-61 -42 -72 -106q-10 -53 24.5 -90.5t113.5 -69.5z" />
    <glyph glyph-name="dieresis" unicode="&#xa8;" horiz-adv-x="702" 
d="M391 1163q-47 -38 -104.5 -38t-89.5 38q-32 41 -22.5 98.5t56.5 98.5t105 41t90 -41q35 -41 25 -98.5t-60 -98.5zM780 1163q-47 -38 -104.5 -38t-89.5 38q-32 41 -22 98.5t57 98.5t104.5 41t89.5 -41q35 -41 25 -98.5t-60 -98.5z" />
    <glyph glyph-name="copyright" unicode="&#xa9;" horiz-adv-x="1615" 
d="M727 -25q-302 0 -489 224q-188 225 -132 530q52 308 297 518q245 211 560 211q299 0 487 -225q187 -225 135 -528q-55 -310 -301 -521q-244 -209 -557 -209zM733 45q277 0 504 195q222 194 272 477q47 278 -118 473q-163 199 -437 199q-275 0 -501 -197
q-223 -192 -273 -475q-49 -276 117 -475q167 -197 436 -197zM780 315q-170 0 -268 125q-96 128 -66 295q27 164 156 275q126 108 295 108q104 0 192 -54.5t136 -145.5l-207 -109q-43 82 -144 82q-77 0 -133 -50.5t-67 -123.5q-14 -70 24 -122t109 -52q109 0 168 86l186 -117
q-67 -92 -169 -144.5t-212 -52.5z" />
    <glyph glyph-name="guillemotleft" unicode="&#xab;" horiz-adv-x="1118" 
d="M432 1018h252l-289 -393l150 -375h-242l-153 383zM827 1018h252l-295 -402l150 -366h-242l-151 375z" />
    <glyph glyph-name="logicalnot" unicode="&#xac;" horiz-adv-x="1126" 
d="M150 842h942l-86 -492h-265l43 244h-678z" />
    <glyph glyph-name="registered" unicode="&#xae;" horiz-adv-x="1615" 
d="M963 1458q299 0 487 -225q187 -225 135 -528q-55 -310 -301 -521q-244 -209 -557 -209q-302 0 -489 224q-188 225 -132 530q52 308 297 518q245 211 560 211zM1509 717q47 278 -118 473q-163 199 -437 199q-275 0 -501 -197q-223 -192 -273 -475q-49 -276 117 -475
q167 -197 436 -197q277 0 504 195q222 194 272 477zM633 1096h307q120 0 193 -82q74 -83 53 -195q-27 -151 -150 -215l105 -266h-230l-69 225h-84l-39 -225h-219zM887 897h-70l-26 -149h69q88 0 103 73q12 76 -76 76z" />
    <glyph glyph-name="overscore" unicode="&#xaf;" horiz-adv-x="677" 
d="M750 1155h-594l37 215h593z" />
    <glyph glyph-name="degree" unicode="&#xb0;" horiz-adv-x="821" 
d="M498 983q-148 0 -230 102q-84 107 -57 246q21 143 135 234q113 94 264 94q145 0 228 -103q83 -102 59 -245q-24 -142 -135 -236q-109 -92 -264 -92zM674 1321q11 54 -17 88.5t-82 34.5q-53 0 -91.5 -34t-49.5 -89q-11 -54 16 -88.5t82 -34.5t94.5 34.5t47.5 88.5z" />
    <glyph glyph-name="plusminus" unicode="&#xb1;" horiz-adv-x="1136" 
d="M836 1327l-54 -299h338l-43 -248h-338l-53 -299h-248l54 299h-336l43 248h336l53 299h248zM958 109h-921l43 247h921z" />
    <glyph glyph-name="acute" unicode="&#xb4;" horiz-adv-x="563" 
d="M156 1153l204 281h324l-268 -281h-260z" />
    <glyph glyph-name="uni00B5" unicode="&#xb5;" horiz-adv-x="1263" 
d="M1098 248h73l-45 -248h-122q-144 0 -205 102q-119 -131 -310 -131q-108 0 -190 52l-76 -433h-264l252 1434h264l-104 -600q-17 -101 28.5 -154t139.5 -53q95 0 163 54.5t97 160.5l104 592h264l-125 -711q-9 -65 56 -65z" />
    <glyph glyph-name="paragraph" unicode="&#xb6;" horiz-adv-x="1370" 
d="M653 1434h783l-39 -232h-127l-283 -1612h-248l283 1612h-162l-282 -1612h-248l170 963q-183 3 -289 139q-106 140 -72 320q35 182 180 301q151 121 334 121z" />
    <glyph glyph-name="middot" unicode="&#xb7;" horiz-adv-x="546" 
d="M276 537q-72 0 -112.5 52t-28.5 126q12 73 70 121.5t133 48.5q72 0 114.5 -53t28.5 -125q-12 -73 -70 -121.5t-135 -48.5z" />
    <glyph glyph-name="cedilla" unicode="&#xb8;" horiz-adv-x="532" 
d="M258 0l-16 -94q59 -18 92 -64t22 -112q-41 -206 -483 -172l33 186q217 -15 229 41q6 45 -121 51l29 164h215z" />
    <glyph glyph-name="guillemotright" unicode="&#xbb;" horiz-adv-x="1120" 
d="M227 1016h242l152 -375l-287 -393h-252l295 401zM616 1016h242l154 -383l-283 -385h-252l289 393z" />
    <glyph glyph-name="onequarter" unicode="&#xbc;" horiz-adv-x="1665" 
d="M150 0l1060 1434h195l-1061 -1434h-194zM242 614l104 584l-174 -47l-20 195l262 88h192l-145 -820h-219zM1520 332h79l-32 -201h-84l-23 -131h-209l23 131h-381l33 201l342 487h241l-331 -487h133l24 141h209z" />
    <glyph glyph-name="onehalf" unicode="&#xbd;" horiz-adv-x="1665" 
d="M150 0l1060 1434h195l-1061 -1434h-194zM242 614l104 584l-174 -47l-20 195l262 88h192l-145 -820h-219zM1602 563q-12 -60 -53.5 -113t-127.5 -124l-149 -127h276l-35 -199h-614l25 143l364 314q88 76 94 118q6 32 -12 52t-55 20q-79 0 -144 -108l-172 108
q55 94 144.5 147.5t199.5 53.5q133 0 208 -79t51 -206z" />
    <glyph glyph-name="threequarters" unicode="&#xbe;" horiz-adv-x="1830" 
d="M715 848q-23 -129 -114.5 -195.5t-240.5 -66.5q-229 0 -294 182l192 102q35 -92 127 -92q99 0 111 84q8 38 -16.5 60t-73.5 22h-39l-60 117l166 174h-291l35 199h563l-28 -162l-174 -180q78 -31 114 -95t23 -149zM315 0l1061 1434h195l-1061 -1434h-195zM1686 332h79
l-32 -201h-84l-23 -131h-209l23 131h-381l33 201l342 487h241l-332 -487h134l24 141h209z" />
    <glyph glyph-name="questiondown" unicode="&#xbf;" horiz-adv-x="1132" 
d="M688 1051q72 0 112.5 -52.5t28.5 -126.5q-12 -73 -69.5 -121.5t-132.5 -48.5q-72 0 -115 53.5t-29 125.5q12 73 70 121.5t135 48.5zM457 543h282q-16 -96 -80 -180t-145 -136q-82 -54 -142 -117t-71 -124q-12 -68 27.5 -109t115.5 -41q174 0 277 189l229 -146
q-74 -150 -219.5 -233.5t-320.5 -83.5q-193 0 -312 116q-119 113 -84 306q18 105 88 190q67 85 142 137q195 132 213 232z" />
    <glyph glyph-name="Agrave" unicode="&#xc0;" horiz-adv-x="1368" 
d="M901 1843l127 -280h-250l-184 280h307zM1272 0h-305l-37 258h-574l-133 -258h-309l756 1434h350zM805 1120l-311 -598h397z" />
    <glyph glyph-name="Aacute" unicode="&#xc1;" horiz-adv-x="1368" 
d="M911 1843h324l-268 -280h-260zM1272 0h-305l-37 258h-574l-133 -258h-309l756 1434h350zM805 1120l-311 -598h397z" />
    <glyph glyph-name="Acircumflex" unicode="&#xc2;" horiz-adv-x="1368" 
d="M950 1546l-61 133l-119 -133h-262l268 297h266l166 -297h-258zM1272 0h-305l-37 258h-574l-133 -258h-309l756 1434h350zM805 1120l-311 -598h397z" />
    <glyph glyph-name="Atilde" unicode="&#xc3;" horiz-adv-x="1368" 
d="M858 1606q-54 43 -83.5 32.5t-41.5 -82.5h-213q10 92 41 158.5t73.5 99.5t93.5 43t103 -4.5t99 -48.5q51 -43 81 -33t42 82h213q-10 -92 -40.5 -158t-73 -99t-93 -43t-102 4.5t-99.5 48.5zM1272 0h-305l-37 258h-574l-133 -258h-309l756 1434h350zM805 1120l-311 -598
h397z" />
    <glyph glyph-name="Adieresis" unicode="&#xc4;" horiz-adv-x="1368" 
d="M772 1573q-47 -38 -104.5 -38t-89.5 38q-32 41 -22.5 98t56.5 98t105 41t90 -41q35 -41 25 -98t-60 -98zM1161 1573q-47 -38 -104.5 -38t-89.5 38q-32 41 -22.5 98t56.5 98t105 41t90 -41q35 -41 25 -98t-60 -98zM1272 0h-305l-37 258h-574l-133 -258h-309l756 1434h350z
M805 1120l-311 -598h397z" />
    <glyph glyph-name="Aring" unicode="&#xc5;" horiz-adv-x="1368" 
d="M1272 0h-305l-37 258h-574l-133 -258h-309l739 1403q-61 70 -43 176q18 105 101 170q84 66 194 66q111 0 176 -74q63 -72 45 -176q-18 -106 -100 -170zM788 1573q-6 -33 12 -55.5t54 -22.5q81 0 96 76q6 35 -12 56.5t-55 21.5q-80 0 -95 -76zM805 1120l-311 -598h397z
" />
    <glyph glyph-name="AE" unicode="&#xc6;" horiz-adv-x="1802" 
d="M1888 1434l-47 -271h-530l-56 -307h486l-47 -264h-484l-57 -322h541l-47 -270h-816l46 258h-447l-201 -258h-319l1100 1434h878zM1008 1006l-375 -484h291z" />
    <glyph glyph-name="Ccedilla" unicode="&#xc7;" horiz-adv-x="1492" 
d="M754 248q265 0 415 209l232 -150q-100 -136 -247.5 -223t-313.5 -107l-13 -71q60 -19 93 -65t22 -111q-41 -206 -483 -172l33 186q217 -15 229 41q6 45 -121 51l25 144q-282 41 -424 253q-144 215 -95 504q52 316 291 520q242 205 557 205q202 0 351.5 -89.5
t222.5 -250.5l-258 -135q-95 201 -342 201q-208 0 -357 -131q-150 -132 -184 -340q-37 -204 66 -338q101 -131 301 -131z" />
    <glyph glyph-name="Egrave" unicode="&#xc8;" horiz-adv-x="1085" 
d="M788 1843l127 -280h-249l-185 280h307zM1171 1434l-47 -271h-594l-55 -307h545l-49 -264h-541l-57 -322h604l-47 -270h-887l252 1434h876z" />
    <glyph glyph-name="Eacute" unicode="&#xc9;" horiz-adv-x="1085" 
d="M799 1843h323l-268 -280h-260zM1171 1434l-47 -271h-594l-55 -307h545l-49 -264h-541l-57 -322h604l-47 -270h-887l252 1434h876z" />
    <glyph glyph-name="Ecircumflex" unicode="&#xca;" horiz-adv-x="1085" 
d="M838 1546l-62 133l-119 -133h-262l269 297h266l166 -297h-258zM1171 1434l-47 -271h-594l-55 -307h545l-49 -264h-541l-57 -322h604l-47 -270h-887l252 1434h876z" />
    <glyph glyph-name="Edieresis" unicode="&#xcb;" horiz-adv-x="1085" 
d="M659 1573q-47 -38 -104.5 -38t-89.5 38q-32 41 -22 98t57 98t104.5 41t89.5 -41q35 -41 25 -98t-60 -98zM1049 1573q-47 -38 -105 -38t-90 38q-32 41 -22 98t57 98t104.5 41t89.5 -41q35 -41 25.5 -98t-59.5 -98zM1171 1434l-47 -271h-594l-55 -307h545l-49 -264h-541
l-57 -322h604l-47 -270h-887l252 1434h876z" />
    <glyph glyph-name="Igrave" unicode="&#xcc;" horiz-adv-x="548" 
d="M618 1563h-249l-185 280h308zM295 1434l-252 -1434h283l252 1434h-283z" />
    <glyph glyph-name="Iacute" unicode="&#xcd;" horiz-adv-x="548" 
d="M297 1563l205 280h323l-268 -280h-260zM295 1434l-252 -1434h283l252 1434h-283z" />
    <glyph glyph-name="Icircumflex" unicode="&#xce;" horiz-adv-x="548" 
d="M541 1546l-62 133l-119 -133h-262l269 297h266l166 -297h-258zM326 0h-283l252 1434h283z" />
    <glyph glyph-name="Idieresis" unicode="&#xcf;" horiz-adv-x="548" 
d="M362 1573q-47 -38 -104.5 -38t-89.5 38q-32 41 -22 98t57 98t104.5 41t89.5 -41q35 -41 25 -98t-60 -98zM752 1573q-47 -38 -105 -38t-90 38q-32 41 -22 98t57 98t104.5 41t89.5 -41q35 -41 25.5 -98t-59.5 -98zM43 0l252 1434h283l-252 -1434h-283z" />
    <glyph glyph-name="Eth" unicode="&#xd0;" horiz-adv-x="1536" 
d="M369 1434h569q280 0 451 -220q167 -214 114 -518q-53 -306 -282 -501q-230 -195 -535 -195h-569l100 575h-160l45 254h160zM1233 725q34 195 -62 317q-95 121 -280 121h-287l-59 -334h325l-45 -254h-325l-54 -305h271q196 0 338 127q143 125 178 328z" />
    <glyph glyph-name="Ntilde" unicode="&#xd1;" horiz-adv-x="1378" 
d="M737 1556h-213q10 92 41 158.5t73.5 99.5t93.5 43t103 -4.5t99 -48.5q51 -43 81 -33t42 82h213q-10 -92 -40.5 -158t-73 -99t-93 -43t-102 4.5t-99.5 48.5q-54 43 -83.5 32.5t-41.5 -82.5zM326 0h-283l252 1434h213l461 -895l155 895h283l-252 -1434h-213l-459 895z" />
    <glyph glyph-name="Ograve" unicode="&#xd2;" horiz-adv-x="1624" 
d="M1214 1579h-249l-185 281h307zM725 -29q328 0 569 203q239 202 295 520q55 313 -129 541q-181 227 -489 227q-330 0 -572 -205q-240 -203 -293 -520q-58 -310 125 -540q182 -226 494 -226zM758 248q-196 0 -303 131q-105 133 -68 338q38 206 188 338q154 133 353 133
t307 -135q108 -133 74 -338q-37 -202 -195 -336q-155 -131 -356 -131z" />
    <glyph glyph-name="Oacute" unicode="&#xd3;" horiz-adv-x="1624" 
d="M905 1579l205 281h324l-269 -281h-260zM725 -29q328 0 569 203q239 202 295 520q55 313 -129 541q-181 227 -489 227q-330 0 -572 -205q-240 -203 -293 -520q-58 -310 125 -540q182 -226 494 -226zM758 248q-196 0 -303 131q-105 133 -68 338q38 206 188 338
q154 133 353 133t307 -135q108 -133 74 -338q-37 -202 -195 -336q-155 -131 -356 -131z" />
    <glyph glyph-name="Ocircumflex" unicode="&#xd4;" horiz-adv-x="1624" 
d="M1135 1563l-62 133l-119 -133h-262l269 297h266l166 -297h-258zM971 1462q308 0 489 -227q184 -228 129 -541q-56 -318 -295 -520q-241 -203 -569 -203q-312 0 -494 226q-183 230 -125 540q53 317 293 520q242 205 572 205zM1309 715q34 205 -74 338q-108 135 -307 135
t-353 -133q-150 -132 -188 -338q-37 -205 68 -338q107 -131 303 -131q201 0 356 131q158 134 195 336z" />
    <glyph glyph-name="Otilde" unicode="&#xd5;" horiz-adv-x="1624" 
d="M885 1573h-213q10 92 41 158.5t73.5 99.5t93 43t102.5 -4.5t99 -48.5q51 -43 81 -33t42 82h213q-13 -114 -56 -187.5t-101.5 -98t-124 -15t-125.5 52.5q-54 43 -83.5 33t-41.5 -82zM725 -29q-312 0 -494 226q-183 230 -125 540q53 317 293 520q242 205 572 205
q308 0 489 -227q184 -228 129 -541q-56 -318 -295 -520q-241 -203 -569 -203zM758 248q201 0 356 131q158 134 195 336q34 205 -74 338q-108 135 -307 135t-353 -133q-150 -132 -188 -338q-37 -205 68 -338q107 -131 303 -131z" />
    <glyph glyph-name="Odieresis" unicode="&#xd6;" horiz-adv-x="1624" 
d="M903 1589q-47 -38 -104.5 -38t-89.5 38q-32 41 -22.5 98.5t56.5 98.5t105 41t90 -41q35 -41 25 -98.5t-60 -98.5zM1292 1589q-47 -38 -104.5 -38t-89.5 38q-32 41 -22 98.5t57 98.5t104.5 41t89.5 -41q35 -41 25 -98.5t-60 -98.5zM725 -29q-312 0 -494 226
q-183 230 -125 540q53 317 293 520q242 205 572 205q308 0 489 -227q184 -228 129 -541q-56 -318 -295 -520q-241 -203 -569 -203zM758 248q201 0 356 131q158 134 195 336q34 205 -74 338q-108 135 -307 135t-353 -133q-150 -132 -188 -338q-37 -205 68 -338
q107 -131 303 -131z" />
    <glyph glyph-name="multiply" unicode="&#xd7;" horiz-adv-x="1048" 
d="M866 1137l160 -172l-293 -254l205 -242l-193 -172l-206 246l-285 -246l-158 172l291 252l-205 244l191 172l209 -246z" />
    <glyph glyph-name="Oslash" unicode="&#xd8;" horiz-adv-x="1636" 
d="M1604 1370l-131 -131q186 -230 131 -545q-59 -319 -297 -520q-241 -203 -570 -203q-223 0 -393 129l-121 -123l-135 86l148 148q-170 221 -117 526q56 318 295 520q239 205 569 205q213 0 375 -116l110 110zM399 717q-30 -171 41 -297l711 717q-89 51 -211 51
q-198 0 -352 -133q-152 -133 -189 -338zM1321 715q34 182 -55 315l-717 -723q95 -59 221 -59q201 0 356 131q158 134 195 336z" />
    <glyph glyph-name="Ugrave" unicode="&#xd9;" horiz-adv-x="1323" 
d="M1006 1563h-250l-185 280h308zM596 -29q239 0 401.5 130t204.5 368l170 965h-282l-166 -942q-19 -113 -98.5 -178.5t-211.5 -65.5t-187 65t-36 179l166 942h-281l-170 -965q-41 -220 97 -358q140 -140 393 -140z" />
    <glyph glyph-name="Uacute" unicode="&#xda;" horiz-adv-x="1323" 
d="M700 1563l205 280h324l-268 -280h-261zM596 -29q239 0 401.5 130t204.5 368l170 965h-282l-166 -942q-19 -113 -98.5 -178.5t-211.5 -65.5t-187 65t-36 179l166 942h-281l-170 -965q-41 -220 97 -358q140 -140 393 -140z" />
    <glyph glyph-name="Ucircumflex" unicode="&#xdb;" horiz-adv-x="1323" 
d="M928 1546l-62 133l-118 -133h-263l269 297h266l166 -297h-258zM924 492l166 942h282l-170 -965q-42 -238 -204.5 -368t-401.5 -130q-253 0 -393 140q-138 138 -97 358l170 965h281l-166 -942q-19 -114 36 -179t187 -65t211.5 65.5t98.5 178.5z" />
    <glyph glyph-name="Udieresis" unicode="&#xdc;" horiz-adv-x="1323" 
d="M750 1573q-47 -38 -105 -38t-90 38q-32 41 -22 98t57 98t104.5 41t89.5 -41q35 -41 25.5 -98t-59.5 -98zM1139 1573q-47 -38 -105 -38t-90 38q-32 41 -22 98t57 98t105 41t90 -41q35 -41 25 -98t-60 -98zM596 -29q-253 0 -393 140q-138 138 -97 358l170 965h281
l-166 -942q-19 -114 36 -179t187 -65t211.5 65.5t98.5 178.5l166 942h282l-170 -965q-42 -238 -204.5 -368t-401.5 -130z" />
    <glyph glyph-name="Yacute" unicode="&#xdd;" horiz-adv-x="1230" 
d="M866 1843h324l-268 -280h-260zM1053 1434h336l-611 -799l-112 -635h-281l113 639l-330 795h301l201 -529z" />
    <glyph glyph-name="Thorn" unicode="&#xde;" horiz-adv-x="1208" 
d="M537 1198h231q217 0 336 -143q118 -139 88 -353q-30 -205 -186 -337q-156 -129 -398 -129h-241l-41 -236h-283l252 1434h283zM911 723q19 98 -29.5 154.5t-156.5 56.5h-236l-75 -434h223q109 0 182 61t92 162z" />
    <glyph glyph-name="germandbls" unicode="&#xdf;" horiz-adv-x="1099" 
d="M479 -12l41 233q228 -27 252 119q12 69 -82 227q-92 160 -80 232q9 56 90 153q84 96 93 140q13 60 -22 94.5t-103 34.5q-73 0 -123.5 -42t-63.5 -126l-186 -1053h-264l186 1055q33 195 158 301t336 106q172 0 274 -102q103 -103 76 -244q-11 -56 -53 -122t-81 -118.5
t-44 -78.5q-13 -64 75 -219q38 -61 58.5 -144.5t9.5 -154.5q-26 -162 -164 -241.5t-383 -49.5z" />
    <glyph glyph-name="agrave" unicode="&#xe0;" horiz-adv-x="1284" 
d="M827 1434l127 -281h-249l-185 281h307zM965 887l24 137h264l-180 -1024h-264l16 94q-132 -123 -340 -123q-230 0 -344 170q-113 168 -69 396q41 220 196 366q159 150 381 150q217 0 316 -166zM567 223q119 0 211.5 75.5t118.5 197.5l4 32q17 123 -50.5 198t-186.5 75
q-123 0 -214 -77.5t-114 -209.5q-23 -128 42 -209.5t189 -81.5z" />
    <glyph glyph-name="aacute" unicode="&#xe1;" horiz-adv-x="1284" 
d="M838 1434h323l-268 -281h-260zM965 887l24 137h264l-180 -1024h-264l16 94q-132 -123 -340 -123q-230 0 -344 170q-113 168 -69 396q41 220 196 366q159 150 381 150q217 0 316 -166zM567 223q119 0 211.5 75.5t118.5 197.5l4 32q17 123 -50.5 198t-186.5 75
q-123 0 -214 -77.5t-114 -209.5q-23 -128 42 -209.5t189 -81.5z" />
    <glyph glyph-name="acircumflex" unicode="&#xe2;" horiz-adv-x="1284" 
d="M885 1137l-62 133l-118 -133h-263l269 297h266l166 -297h-258zM965 887l24 137h264l-180 -1024h-264l16 94q-132 -123 -340 -123q-230 0 -344 170q-113 168 -69 396q41 220 196 366q159 150 381 150q217 0 316 -166zM567 223q119 0 211.5 75.5t118.5 197.5l4 32
q17 123 -50.5 198t-186.5 75q-123 0 -214 -77.5t-114 -209.5q-23 -128 42 -209.5t189 -81.5z" />
    <glyph glyph-name="atilde" unicode="&#xe3;" horiz-adv-x="1284" 
d="M782 1196q-54 43 -83.5 33t-41.5 -82h-213q10 92 41 158.5t73.5 99.5t93.5 43t103 -4.5t99 -48.5q51 -43 81 -33t42 82h213q-13 -114 -56 -187.5t-102 -98t-124.5 -15t-125.5 52.5zM965 887l24 137h264l-180 -1024h-264l16 94q-132 -123 -340 -123q-230 0 -344 170
q-113 168 -69 396q41 220 196 366q159 150 381 150q217 0 316 -166zM567 223q119 0 211.5 75.5t118.5 197.5l4 32q17 123 -50.5 198t-186.5 75q-123 0 -214 -77.5t-114 -209.5q-23 -128 42 -209.5t189 -81.5z" />
    <glyph glyph-name="adieresis" unicode="&#xe4;" horiz-adv-x="1284" 
d="M633 1163q-47 -38 -105 -38t-90 38q-32 41 -22 98.5t57 98.5t105 41t90 -41q35 -41 25 -98.5t-60 -98.5zM1022 1163q-47 -38 -105 -38t-90 38q-32 41 -22 98.5t57 98.5t105 41t90 -41q35 -41 25 -98.5t-60 -98.5zM965 887l24 137h264l-180 -1024h-264l16 94
q-132 -123 -340 -123q-230 0 -344 170q-113 168 -69 396q41 220 196 366q159 150 381 150q217 0 316 -166zM567 223q119 0 211.5 75.5t118.5 197.5l4 32q17 123 -50.5 198t-186.5 75q-123 0 -214 -77.5t-114 -209.5q-23 -128 42 -209.5t189 -81.5z" />
    <glyph glyph-name="aring" unicode="&#xe5;" horiz-adv-x="1284" 
d="M727 1104q-110 0 -176 72q-63 72 -45 178t100 170q83 65 195 65t176 -73q63 -72 45 -177q-17 -105 -98.5 -170t-196.5 -65zM684 1348q-6 -33 12 -55.5t54 -22.5q81 0 96 76q6 35 -12.5 56t-55.5 21q-79 0 -94 -75zM965 887l24 137h264l-180 -1024h-264l16 94
q-132 -123 -340 -123q-230 0 -344 170q-113 168 -69 396q41 220 196 366q159 150 381 150q217 0 316 -166zM567 223q119 0 211.5 75.5t118.5 197.5l4 32q17 123 -50.5 198t-186.5 75q-123 0 -214 -77.5t-114 -209.5q-23 -128 42 -209.5t189 -81.5z" />
    <glyph glyph-name="ae" unicode="&#xe6;" horiz-adv-x="2025" 
d="M1567 1053q212 0 323 -156q110 -155 70 -385q-8 -55 -29 -109h-774q7 -95 73.5 -143.5t170.5 -48.5q156 0 254 104l188 -149q-180 -195 -428 -195q-225 0 -336 150l-20 -121h-250l20 113q-145 -142 -344 -142q-230 0 -344 170q-113 168 -69 396q41 220 196 366
q159 150 381 150q223 0 318 -156l22 127h250l-16 -90q140 119 344 119zM1196 610h516q-1 100 -60 152.5t-155 52.5q-102 0 -181 -54t-120 -151zM567 223q119 0 211.5 75.5t118.5 197.5l4 32q17 123 -50.5 198t-186.5 75q-123 0 -215.5 -77.5t-116.5 -209.5q-20 -129 46 -210
t189 -81z" />
    <glyph glyph-name="ccedilla" unicode="&#xe7;" horiz-adv-x="1105" 
d="M561 233q159 0 254 138l213 -138q-132 -215 -395 -256l-12 -71q59 -18 92 -64t22 -112q-41 -206 -483 -172l33 186q217 -15 229 41q6 45 -121 51l27 148q-185 40 -285 192q-97 157 -63 356q35 226 207 373q177 148 405 148q156 0 269 -71.5t163 -195.5l-239 -127
q-56 134 -215 134q-117 0 -213 -78q-92 -77 -113 -197q-20 -123 43.5 -204t181.5 -81z" />
    <glyph glyph-name="egrave" unicode="&#xe8;" horiz-adv-x="1193" 
d="M766 1442l127 -281h-250l-184 281h307zM1128 512q-3 -41 -28 -109h-774q7 -95 72.5 -143.5t172.5 -48.5q154 0 252 104l187 -149q-174 -195 -459 -195q-256 0 -387 162q-132 164 -92 399q34 225 209 371q176 150 401 150q224 0 358 -158q131 -155 88 -383zM362 610h521
q-1 101 -60 153t-157 52q-103 0 -182 -53.5t-122 -151.5z" />
    <glyph glyph-name="eacute" unicode="&#xe9;" horiz-adv-x="1193" 
d="M795 1442h323l-268 -281h-260zM1128 512q-3 -41 -28 -109h-774q7 -95 72.5 -143.5t172.5 -48.5q154 0 252 104l187 -149q-174 -195 -459 -195q-256 0 -387 162q-132 164 -92 399q34 225 209 371q176 150 401 150q224 0 358 -158q131 -155 88 -383zM362 610h521
q-1 101 -60 153t-157 52q-103 0 -182 -53.5t-122 -151.5z" />
    <glyph glyph-name="ecircumflex" unicode="&#xea;" horiz-adv-x="1193" 
d="M827 1145l-61 133l-119 -133h-262l268 297h267l165 -297h-258zM1128 512q-3 -41 -28 -109h-774q7 -95 72.5 -143.5t172.5 -48.5q154 0 252 104l187 -149q-174 -195 -459 -195q-256 0 -387 162q-132 164 -92 399q34 225 209 371q176 150 401 150q224 0 358 -158
q131 -155 88 -383zM362 610h521q-1 101 -60 153t-157 52q-103 0 -182 -53.5t-122 -151.5z" />
    <glyph glyph-name="edieresis" unicode="&#xeb;" horiz-adv-x="1193" 
d="M637 1171q-47 -38 -105 -38t-90 38q-32 41 -22 98.5t57 98.5t105 41t90 -41q35 -41 25 -98.5t-60 -98.5zM1026 1171q-47 -38 -105 -38t-90 38q-32 41 -22 98.5t57 98.5t105 41t90 -41q35 -41 25 -98.5t-60 -98.5zM1128 512q-3 -41 -28 -109h-774q7 -95 72.5 -143.5
t172.5 -48.5q154 0 252 104l187 -149q-174 -195 -459 -195q-256 0 -387 162q-132 164 -92 399q34 225 209 371q176 150 401 150q224 0 358 -158q131 -155 88 -383zM362 610h521q-1 101 -60 153t-157 52q-103 0 -182 -53.5t-122 -151.5z" />
    <glyph glyph-name="igrave" unicode="&#xec;" horiz-adv-x="505" 
d="M487 1137h-247l-90 297h286zM295 0l180 1024h-264l-180 -1024h264z" />
    <glyph glyph-name="iacute" unicode="&#xed;" horiz-adv-x="505" 
d="M233 1137l138 297h303l-187 -297h-254zM31 0h264l180 1024h-264z" />
    <glyph glyph-name="icircumflex" unicode="&#xee;" horiz-adv-x="505" 
d="M434 1137l-47 108l-80 -108h-268l242 297h268l139 -297h-254zM295 0h-264l180 1024h264z" />
    <glyph glyph-name="idieresis" unicode="&#xef;" horiz-adv-x="505" 
d="M350 1270q-7 -56 -55.5 -96.5t-106.5 -40.5q-57 0 -90.5 40t-23.5 97q11 57 58 98t104 41t90.5 -41t23.5 -98zM639 1171q-47 -38 -105 -38t-90 38q-32 41 -22 98.5t57 98.5t105 41t90 -41q35 -41 25 -98.5t-60 -98.5zM295 0h-264l180 1024h264z" />
    <glyph glyph-name="eth" unicode="&#xf0;" horiz-adv-x="1175" 
d="M780 1196l254 -436q88 -155 64 -311q-41 -227 -205 -351q-163 -123 -381 -123q-213 0 -352 148q-137 146 -97 371q35 204 203 329q172 128 375 107l-90 166l-291 -129l33 190l180 80l-108 197h276l55 -97l281 125l-33 -192zM834 467q15 87 -21 147q-60 97 -195 97
q-116 0 -193.5 -62.5t-96.5 -171.5q-20 -114 39.5 -184t173.5 -70t193.5 65t99.5 179z" />
    <glyph glyph-name="ntilde" unicode="&#xf1;" 
d="M690 1212q-54 43 -83.5 33t-41.5 -82h-213q10 92 41 158.5t73.5 99.5t93.5 43t103 -4.5t99 -48.5q51 -43 81 -33t42 82h213q-13 -114 -56 -187.5t-102 -98t-124.5 -15t-125.5 52.5zM772 1053q171 0 266 -115q95 -114 60 -309l-111 -629h-264l104 596q18 102 -26.5 156.5
t-138.5 54.5q-96 0 -166 -56.5t-99 -164.5l-102 -586h-264l180 1024h264l-20 -111q122 140 317 140z" />
    <glyph glyph-name="ograve" unicode="&#xf2;" horiz-adv-x="1216" 
d="M901 1169h-250l-184 281h307zM541 -29q219 0 393 148q173 148 211 366q41 227 -88 396q-126 172 -365 172q-233 0 -405 -146q-169 -144 -213 -362q-46 -230 84 -404q129 -170 383 -170zM559 229q-118 0 -181 78t-40 205q24 127 114 205t207 78q119 0 183.5 -78t40.5 -203
q-21 -131 -115 -207q-93 -78 -209 -78z" />
    <glyph glyph-name="oacute" unicode="&#xf3;" horiz-adv-x="1216" 
d="M604 1169l205 281h324l-269 -281h-260zM541 -29q219 0 393 148q173 148 211 366q41 227 -88 396q-126 172 -365 172q-233 0 -405 -146q-169 -144 -213 -362q-46 -230 84 -404q129 -170 383 -170zM559 229q-118 0 -181 78t-40 205q24 127 114 205t207 78q119 0 183.5 -78
t40.5 -203q-21 -131 -115 -207q-93 -78 -209 -78z" />
    <glyph glyph-name="ocircumflex" unicode="&#xf4;" horiz-adv-x="1216" 
d="M825 1153l-61 133l-119 -133h-262l268 297h267l165 -297h-258zM692 1053q239 0 365 -172q129 -169 88 -396q-38 -218 -211 -366q-174 -148 -393 -148q-254 0 -383 170q-130 174 -84 404q44 218 213 362q172 146 405 146zM883 514q24 125 -40.5 203t-183.5 78
q-117 0 -207 -78t-114 -205q-23 -127 40 -205t181 -78q116 0 209 78q94 76 115 207z" />
    <glyph glyph-name="otilde" unicode="&#xf5;" horiz-adv-x="1216" 
d="M610 1163h-213q10 92 41 158.5t73.5 99.5t93.5 43t103 -4.5t99 -48.5q51 -43 81 -33t42 82h213q-13 -114 -56 -187.5t-102 -98t-124.5 -15t-125.5 52.5q-54 43 -83.5 33t-41.5 -82zM541 -29q-254 0 -383 170q-130 174 -84 404q44 218 213 362q172 146 405 146
q239 0 365 -172q129 -169 88 -396q-38 -218 -211 -366q-174 -148 -393 -148zM559 229q116 0 209 78q94 76 115 207q24 125 -40.5 203t-183.5 78q-117 0 -207 -78t-114 -205q-23 -127 40 -205t181 -78z" />
    <glyph glyph-name="odieresis" unicode="&#xf6;" horiz-adv-x="1216" 
d="M629 1180q-47 -38 -105 -38t-90 38q-32 41 -22 98t57 98t105 41t90 -41q35 -41 25 -98t-60 -98zM1018 1180q-47 -38 -105 -38t-90 38q-32 41 -22 98t57 98t105 41t90 -41q35 -41 25 -98t-60 -98zM541 -29q-254 0 -383 170q-130 174 -84 404q44 218 213 362
q172 146 405 146q239 0 365 -172q129 -169 88 -396q-38 -218 -211 -366q-174 -148 -393 -148zM559 229q116 0 209 78q94 76 115 207q24 125 -40.5 203t-183.5 78q-117 0 -207 -78t-114 -205q-23 -127 40 -205t181 -78z" />
    <glyph glyph-name="divide" unicode="&#xf7;" horiz-adv-x="1157" 
d="M657 948q-69 0 -110 51.5t-29 120.5t67.5 115.5t127.5 46.5q69 0 110 -49t29 -121q-13 -72 -68 -118t-127 -46zM1079 594h-973l44 248h972zM516 152q-69 0 -109 50t-28 122q12 69 67 115t127 46q69 0 109.5 -50.5t28.5 -119.5q-12 -72 -67 -117.5t-128 -45.5z" />
    <glyph glyph-name="oslash" unicode="&#xf8;" horiz-adv-x="1216" 
d="M1055 1042l116 -67l-104 -105q119 -167 78 -385q-38 -221 -207 -368q-172 -146 -397 -146q-169 0 -293 86l-76 -75l-119 65l101 100q-126 167 -80 398q44 218 213 362q172 146 405 146q164 0 283 -90zM338 512q-16 -98 16 -166l424 422q-58 27 -119 27q-117 0 -207 -78
t-114 -205zM883 514q19 94 -15 160l-422 -420q52 -25 113 -25q116 0 209 78q94 76 115 207z" />
    <glyph glyph-name="ugrave" unicode="&#xf9;" 
d="M713 1434l127 -281h-250l-184 281h307zM780 438l103 586h264l-180 -1024h-265l21 111q-122 -140 -317 -140q-172 0 -267 115q-94 113 -59 309l110 629h265l-105 -596q-18 -102 27 -156.5t139 -54.5q96 0 165.5 56.5t98.5 164.5z" />
    <glyph glyph-name="uacute" unicode="&#xfa;" 
d="M745 1434h324l-268 -281h-260zM780 438l103 586h264l-180 -1024h-265l21 111q-122 -140 -317 -140q-172 0 -267 115q-94 113 -59 309l110 629h265l-105 -596q-18 -102 27 -156.5t139 -54.5q96 0 165.5 56.5t98.5 164.5z" />
    <glyph glyph-name="ucircumflex" unicode="&#xfb;" 
d="M762 1137l-62 133l-118 -133h-263l269 297h266l166 -297h-258zM780 438l103 586h264l-180 -1024h-265l21 111q-122 -140 -317 -140q-172 0 -267 115q-94 113 -59 309l110 629h265l-105 -596q-18 -102 27 -156.5t139 -54.5q96 0 165.5 56.5t98.5 164.5z" />
    <glyph glyph-name="udieresis" unicode="&#xfc;" 
d="M584 1163q-47 -38 -105 -38t-90 38q-32 41 -22 98.5t57 98.5t104.5 41t89.5 -41q35 -41 25 -98.5t-59 -98.5zM973 1163q-47 -38 -105 -38t-90 38q-32 41 -22 98.5t57 98.5t105 41t90 -41q35 -41 25 -98.5t-60 -98.5zM780 438l103 586h264l-180 -1024h-265l21 111
q-122 -140 -317 -140q-172 0 -267 115q-94 113 -59 309l110 629h265l-105 -596q-18 -102 27 -156.5t139 -54.5q96 0 165.5 56.5t98.5 164.5z" />
    <glyph glyph-name="yacute" unicode="&#xfd;" horiz-adv-x="1075" 
d="M690 1434h324l-269 -281h-260zM518 334l350 690h293l-553 -1024q-122 -229 -270 -325t-344 -85l43 246q109 -1 172 40.5t119 150.5l6 10l-238 987h271z" />
    <glyph glyph-name="thorn" unicode="&#xfe;" horiz-adv-x="1284" 
d="M797 1053q216 0 333 -170q119 -168 82 -391q-35 -222 -188 -369q-158 -152 -377 -152q-226 0 -328 172l-96 -553h-264l324 1844h264l-90 -516q135 135 340 135zM948 510q23 129 -41.5 210t-187.5 81q-119 0 -210 -72t-120 -190l-8 -47q-13 -123 55 -196t187 -73
q120 0 211 76q93 78 114 211z" />
    <glyph glyph-name="ydieresis" unicode="&#xff;" horiz-adv-x="1075" 
d="M524 1163q-47 -38 -104.5 -38t-89.5 38q-32 41 -22 98.5t57 98.5t104.5 41t89.5 -41q35 -41 25 -98.5t-60 -98.5zM913 1163q-47 -38 -104.5 -38t-89.5 38q-32 41 -22 98.5t57 98.5t104.5 41t89.5 -41q35 -41 25 -98.5t-60 -98.5zM518 334l350 690h293l-553 -1024
q-122 -229 -270 -325t-344 -85l43 246q109 -1 172 40.5t119 150.5l6 10l-238 987h271z" />
    <glyph glyph-name="Amacron" unicode="&#x100;" horiz-adv-x="1368" 
d="M610 1780h594l-37 -215h-594zM1272 0h-305l-37 258h-574l-133 -258h-309l756 1434h350zM805 1120l-311 -598h397z" />
    <glyph glyph-name="amacron" unicode="&#x101;" horiz-adv-x="1284" 
d="M471 1370h594l-37 -215h-594zM965 887l24 137h264l-180 -1024h-264l16 94q-132 -123 -340 -123q-230 0 -344 170q-113 168 -69 396q41 220 196 366q159 150 381 150q217 0 316 -166zM567 223q119 0 211.5 75.5t118.5 197.5l4 32q17 123 -50.5 198t-186.5 75
q-123 0 -214 -77.5t-114 -209.5q-23 -128 42 -209.5t189 -81.5z" />
    <glyph glyph-name="Abreve" unicode="&#x102;" horiz-adv-x="1368" 
d="M877 1530q-162 0 -244.5 80.5t-57.5 216.5h236q-18 -107 86 -107q107 0 125 107h235q-23 -144 -120 -220.5t-260 -76.5zM1272 0h-305l-37 258h-574l-133 -258h-309l756 1434h350zM805 1120l-311 -598h397z" />
    <glyph glyph-name="abreve" unicode="&#x103;" horiz-adv-x="1284" 
d="M829 1120q-162 0 -244 80.5t-57 216.5h236q-18 -106 86 -106q107 0 125 106h235q-23 -144 -120.5 -220.5t-260.5 -76.5zM965 887l24 137h264l-180 -1024h-264l16 94q-132 -123 -340 -123q-230 0 -344 170q-113 168 -69 396q41 220 196 366q159 150 381 150
q217 0 316 -166zM567 223q119 0 211.5 75.5t118.5 197.5l4 32q17 123 -50.5 198t-186.5 75q-123 0 -214 -77.5t-114 -209.5q-23 -128 42 -209.5t189 -81.5z" />
    <glyph glyph-name="Aogonek" unicode="&#x104;" horiz-adv-x="1368" 
d="M1130 -184q-6 -26 5 -43t36 -17q27 0 60 11l-31 -173q-79 -32 -170 -32q-88 0 -135.5 54.5t-30.5 141.5q21 121 172 242h-69l-37 258h-574l-133 -258h-309l756 1434h350l252 -1434q-127 -109 -142 -184zM805 1120l-311 -598h397z" />
    <glyph glyph-name="aogonek" unicode="&#x105;" horiz-adv-x="1284" 
d="M965 887l24 137h264l-180 -1024q-58 -50 -100 -109.5t-43 -95.5q-6 -45 43 -45q27 0 57 10l-29 -166q-63 -32 -151 -32q-96 0 -148.5 49t-35.5 135q17 108 176 254h-33l16 94q-132 -123 -340 -123q-230 0 -344 170q-113 168 -69 396q41 220 196 366q159 150 381 150
q217 0 316 -166zM567 223q119 0 211.5 75.5t118.5 197.5l4 32q17 123 -50.5 198t-186.5 75q-123 0 -214 -77.5t-114 -209.5q-23 -128 42 -209.5t189 -81.5z" />
    <glyph glyph-name="Cacute" unicode="&#x106;" horiz-adv-x="1492" 
d="M840 1579l204 281h324l-268 -281h-260zM735 -29q196 0 372 89.5t294 246.5l-232 150q-150 -209 -415 -209q-200 0 -301 131q-103 134 -66 338q34 208 184 340q149 131 357 131q247 0 342 -201l258 135q-73 161 -222.5 250.5t-351.5 89.5q-315 0 -557 -205
q-239 -204 -291 -520q-30 -151 4.5 -293t117.5 -247t216 -167t291 -59z" />
    <glyph glyph-name="cacute" unicode="&#x107;" horiz-adv-x="1105" 
d="M535 1153l204 281h324l-268 -281h-260zM539 -29q154 0 283 68t206 194l-213 138q-95 -138 -254 -138q-118 0 -181.5 81t-43.5 204q21 120 113 197q96 78 213 78q159 0 215 -134l239 127q-50 124 -163 195.5t-269 71.5q-228 0 -405 -148q-172 -147 -207 -373
q-40 -233 94 -399q134 -162 373 -162z" />
    <glyph glyph-name="Cdotaccent" unicode="&#x10a;" horiz-adv-x="1492" 
d="M999 1554q-66 0 -104.5 47t-26.5 113q11 64 65.5 111t119.5 47t104.5 -47t28.5 -111q-12 -66 -68 -113t-119 -47zM735 -29q-158 -3 -291 59t-216 167t-117.5 247t-4.5 293q52 316 291 520q242 205 557 205q202 0 351.5 -89.5t222.5 -250.5l-258 -135q-95 201 -342 201
q-208 0 -357 -131q-150 -132 -184 -340q-37 -204 66 -338q101 -131 301 -131q265 0 415 209l232 -150q-118 -157 -294 -246.5t-372 -89.5z" />
    <glyph glyph-name="cdotaccent" unicode="&#x10b;" horiz-adv-x="1105" 
d="M694 1128q-66 0 -104.5 47t-26.5 113q11 64 65.5 111t119.5 47t104.5 -47t28.5 -111q-12 -66 -68 -113t-119 -47zM539 -29q-239 0 -373 162q-134 166 -94 399q35 226 207 373q177 148 405 148q156 0 269 -71.5t163 -195.5l-239 -127q-56 134 -215 134q-117 0 -213 -78
q-92 -77 -113 -197q-20 -123 43.5 -204t181.5 -81q159 0 254 138l213 -138q-77 -126 -206 -194t-283 -68z" />
    <glyph glyph-name="Ccaron" unicode="&#x10c;" horiz-adv-x="1492" 
d="M1126 1563h-268l-166 297h252l66 -134l112 134h273zM754 248q265 0 415 209l232 -150q-118 -157 -294 -246.5t-372 -89.5q-158 -3 -291 59t-216 167t-117.5 247t-4.5 293q52 316 291 520q242 205 557 205q202 0 351.5 -89.5t222.5 -250.5l-258 -135q-95 201 -342 201
q-208 0 -357 -131q-150 -132 -184 -340q-37 -204 66 -338q101 -131 301 -131z" />
    <glyph glyph-name="ccaron" unicode="&#x10d;" horiz-adv-x="1105" 
d="M821 1137h-268l-166 297h252l66 -134l112 134h273zM561 233q159 0 254 138l213 -138q-77 -126 -206 -194t-283 -68q-239 0 -373 162q-134 166 -94 399q35 226 207 373q177 148 405 148q156 0 269 -71.5t163 -195.5l-239 -127q-56 134 -215 134q-117 0 -213 -78
q-92 -77 -113 -197q-20 -123 43.5 -204t181.5 -81z" />
    <glyph glyph-name="Dcaron" unicode="&#x10e;" horiz-adv-x="1464" 
d="M975 1546h-268l-166 297h252l65 -133l113 133h272zM295 1434h569q280 0 451 -220q168 -215 115 -518q-53 -305 -283 -501q-230 -195 -535 -195h-569zM1159 725q34 196 -61 317t-281 121h-287l-157 -893h270q196 0 338 127q143 125 178 328z" />
    <glyph glyph-name="dcaron" unicode="&#x10f;" horiz-adv-x="1513" 
d="M969 883l96 551h264l-252 -1434h-264l16 98q-133 -127 -344 -127q-230 0 -344 170q-113 168 -69 396q41 220 196 366q159 150 381 150q221 0 320 -170zM1354 1024l94 410h248l-133 -410h-209zM569 223q125 0 218.5 80t113.5 207q24 131 -42 211t-191 80
q-124 0 -216.5 -78t-115.5 -209q-23 -128 43 -209.5t190 -81.5z" />
    <glyph glyph-name="Dcroat" unicode="&#x110;" horiz-adv-x="1536" 
d="M369 1434h569q280 0 451 -220q167 -214 114 -518q-53 -306 -282 -501q-230 -195 -535 -195h-569l102 584h-113l37 231h113zM1233 725q34 195 -62 317q-95 121 -280 121h-287l-65 -348h288l-36 -231h-289l-56 -314h271q196 0 338 127q143 125 178 328z" />
    <glyph glyph-name="dslash" unicode="&#x111;" horiz-adv-x="1296" 
d="M1305 1307h127l-31 -172h-127l-199 -1135h-264l16 96q-131 -125 -342 -125q-230 0 -344 170q-113 168 -69 396q41 220 196 366q159 150 381 150q220 0 318 -168l43 250h-312l31 172h311l23 127h264zM569 223q118 0 207.5 70t118.5 186l10 56q13 121 -53.5 193.5
t-183.5 72.5q-124 0 -216.5 -78t-115.5 -209q-23 -128 43 -209.5t190 -81.5z" />
    <glyph glyph-name="Emacron" unicode="&#x112;" horiz-adv-x="1085" 
d="M498 1780h594l-37 -215h-594zM1171 1434l-47 -271h-594l-55 -307h545l-49 -264h-541l-57 -322h604l-47 -270h-887l252 1434h876z" />
    <glyph glyph-name="emacron" unicode="&#x113;" horiz-adv-x="1193" 
d="M475 1378h594l-37 -215h-594zM1128 512q-3 -41 -28 -109h-774q7 -95 72.5 -143.5t172.5 -48.5q154 0 252 104l187 -149q-174 -195 -459 -195q-256 0 -387 162q-132 164 -92 399q34 225 209 371q176 150 401 150q224 0 358 -158q131 -155 88 -383zM362 610h521
q-1 101 -60 153t-157 52q-103 0 -182 -53.5t-122 -151.5z" />
    <glyph glyph-name="Edotaccent" unicode="&#x116;" horiz-adv-x="1085" 
d="M754 1538q-66 0 -104.5 47t-26.5 113q11 64 65 110.5t119 46.5q66 0 105 -47t28 -110q-12 -66 -67.5 -113t-118.5 -47zM1171 1434l-47 -271h-594l-55 -307h545l-49 -264h-541l-57 -322h604l-47 -270h-887l252 1434h876z" />
    <glyph glyph-name="edotaccent" unicode="&#x117;" horiz-adv-x="1193" 
d="M731 1137q-66 0 -104.5 46.5t-26.5 112.5q11 64 65 111t119 47q66 0 105.5 -47.5t28.5 -110.5q-12 -65 -67.5 -112t-119.5 -47zM1128 512q-3 -41 -28 -109h-774q7 -95 72.5 -143.5t172.5 -48.5q154 0 252 104l187 -149q-174 -195 -459 -195q-256 0 -387 162
q-132 164 -92 399q34 225 209 371q176 150 401 150q224 0 358 -158q131 -155 88 -383zM362 610h521q-1 101 -60 153t-157 52q-103 0 -182 -53.5t-122 -151.5z" />
    <glyph glyph-name="Eogonek" unicode="&#x118;" horiz-adv-x="1085" 
d="M1171 1434l-47 -271h-594l-55 -307h545l-49 -264h-541l-57 -322h604l-47 -270q-130 -114 -144 -193q-9 -57 41 -57q24 -3 60 10l-29 -166q-79 -32 -170 -32q-89 0 -134 49.5t-32 134.5q21 117 183 254h-662l252 1434h876z" />
    <glyph glyph-name="eogonek" unicode="&#x119;" horiz-adv-x="1193" 
d="M1128 512q-3 -41 -28 -109h-774q7 -95 72.5 -143.5t172.5 -48.5q154 0 252 104l187 -149q-25 -31 -74 -70h2q-213 -167 -233 -284q-12 -62 45 -62q25 0 55 10l-29 -166q-71 -32 -155 -32q-100 0 -148.5 51t-34.5 131q14 103 162 229q-10 -2 -49 -2q-256 0 -387 162
q-132 164 -92 399q34 225 209 371q176 150 401 150q224 0 358 -158q131 -155 88 -383zM362 610h521q-1 101 -60 153t-157 52q-103 0 -182 -53.5t-122 -151.5z" />
    <glyph glyph-name="Ecaron" unicode="&#x11a;" horiz-adv-x="1085" 
d="M881 1546h-269l-166 297h252l66 -133l113 133h272zM1171 1434l-47 -271h-594l-55 -307h545l-49 -264h-541l-57 -322h604l-47 -270h-887l252 1434h876z" />
    <glyph glyph-name="ecaron" unicode="&#x11b;" horiz-adv-x="1193" 
d="M858 1145h-268l-166 297h252l65 -133l113 133h272zM1128 512q-3 -41 -28 -109h-774q7 -95 72.5 -143.5t172.5 -48.5q154 0 252 104l187 -149q-174 -195 -459 -195q-256 0 -387 162q-132 164 -92 399q34 225 209 371q176 150 401 150q224 0 358 -158q131 -155 88 -383z
M362 610h521q-1 101 -60 153t-157 52q-103 0 -182 -53.5t-122 -151.5z" />
    <glyph glyph-name="Gbreve" unicode="&#x11e;" horiz-adv-x="1609" 
d="M1004 1546q-162 0 -244.5 80.5t-57.5 216.5h236q-18 -106 86 -106q107 0 125 106h235q-23 -144 -120 -220.5t-260 -76.5zM868 770h719l-18 -111q-52 -312 -279 -501q-224 -187 -542 -187q-334 0 -515 224q-182 226 -127 544q52 312 293 518q239 205 557 205
q212 0 365 -90.5t233 -257.5l-258 -135q-108 209 -366 209q-210 0 -359 -131q-149 -128 -184 -338q-37 -208 68 -340q107 -131 319 -131q351 0 471 272h-420z" />
    <glyph glyph-name="gbreve" unicode="&#x11f;" horiz-adv-x="1286" 
d="M735 1137q-162 0 -244 80.5t-57 216.5h236q-18 -107 86 -107q107 0 125 107h235q-23 -144 -120.5 -220.5t-260.5 -76.5zM971 877l26 147h258l-172 -975q-41 -243 -197.5 -365t-393.5 -122q-171 0 -292.5 64t-176.5 186l235 122q64 -137 252 -137q130 0 212.5 65
t102.5 187l17 90q-135 -135 -340 -135q-237 0 -350 162q-115 165 -78 385q35 211 190 354q157 148 375 148q237 0 332 -176zM575 252q122 0 214.5 74t117.5 192l4 21q18 120 -51 193t-192 73t-217 -76t-115 -199q-21 -120 47 -200q69 -78 192 -78z" />
    <glyph glyph-name="Gdotaccent" unicode="&#x120;" horiz-adv-x="1609" 
d="M993 1554q-66 0 -104.5 47t-26.5 113q11 64 65.5 111t119.5 47t104.5 -47t28.5 -111q-12 -66 -68 -113t-119 -47zM868 770h719l-18 -111q-52 -312 -279 -501q-224 -187 -542 -187q-334 0 -515 224q-182 226 -127 544q52 312 293 518q239 205 557 205q212 0 365 -90.5
t233 -257.5l-258 -135q-108 209 -366 209q-210 0 -359 -131q-149 -128 -184 -338q-37 -208 68 -340q107 -131 319 -131q351 0 471 272h-420z" />
    <glyph glyph-name="gdotaccent" unicode="&#x121;" horiz-adv-x="1286" 
d="M725 1145q-66 0 -104.5 47t-26.5 113q11 64 65 110.5t119 46.5q66 0 105 -47t28 -110q-12 -66 -67.5 -113t-118.5 -47zM971 877l26 147h258l-172 -975q-41 -243 -197.5 -365t-393.5 -122q-171 0 -292.5 64t-176.5 186l235 122q64 -137 252 -137q130 0 212.5 65t102.5 187
l17 90q-135 -135 -340 -135q-237 0 -350 162q-115 165 -78 385q35 211 190 354q157 148 375 148q237 0 332 -176zM575 252q122 0 214.5 74t117.5 192l4 21q18 120 -51 193t-192 73t-217 -76t-115 -199q-21 -120 47 -200q69 -78 192 -78z" />
    <glyph glyph-name="Gcommaaccent" unicode="&#x122;" horiz-adv-x="1609" 
d="M868 770h719l-18 -111q-52 -312 -279 -501q-224 -187 -542 -187q-334 0 -515 224q-182 226 -127 544q52 312 293 518q239 205 557 205q212 0 365 -90.5t233 -257.5l-258 -135q-108 209 -366 209q-210 0 -359 -131q-149 -128 -184 -338q-37 -208 68 -340
q107 -131 319 -131q351 0 471 272h-420zM715 -539h-209l94 410h248z" />
    <glyph glyph-name="gcommaaccent" unicode="&#x123;" horiz-adv-x="1286" 
d="M727 1604h209l-94 -410h-248zM971 877l26 147h258l-172 -975q-41 -243 -197.5 -365t-393.5 -122q-171 0 -292.5 64t-176.5 186l235 122q64 -137 252 -137q130 0 212.5 65t102.5 187l17 90q-135 -135 -340 -135q-237 0 -350 162q-115 165 -78 385q35 211 190 354
q157 148 375 148q237 0 332 -176zM575 252q122 0 214.5 74t117.5 192l4 21q18 120 -51 193t-192 73t-217 -76t-115 -199q-21 -120 47 -200q69 -78 192 -78z" />
    <glyph glyph-name="Hbar" unicode="&#x126;" horiz-adv-x="1449" 
d="M1399 1233h127l-37 -207h-127l-180 -1026h-281l98 557h-532l-98 -557h-283l180 1026h-123l35 207h125l35 201h283l-35 -201h532l35 201h281zM514 827h533l34 199h-532z" />
    <glyph glyph-name="hbar" unicode="&#x127;" horiz-adv-x="1189" 
d="M786 1053q170 0 265 -115q96 -115 61 -309l-111 -629h-264l105 596q18 102 -27 156.5t-141 54.5q-104 0 -176 -64.5t-92 -189.5v6l-99 -559h-264l199 1135h-127l30 172h127l23 127h264l-22 -127h290l-30 -172h-291l-39 -224q121 142 319 142z" />
    <glyph glyph-name="Itilde" unicode="&#x128;" horiz-adv-x="548" 
d="M43 0l252 1434h283l-252 -1434h-283zM324 1556h-213q10 92 41 158.5t73.5 99.5t93 43t102.5 -4.5t99 -48.5q51 -43 81 -33t42 82h213q-13 -114 -56 -187.5t-101.5 -98t-124 -14.5t-125.5 53q-54 43 -83.5 32.5t-41.5 -82.5z" />
    <glyph glyph-name="itilde" unicode="&#x129;" horiz-adv-x="505" 
d="M295 0h-264l180 1024h264zM240 1147h-181q9 92 35.5 158.5t63 99.5t80 43t87 -4.5t83.5 -48.5q44 -43 69 -33t37 82h180q-11 -114 -48.5 -187.5t-87.5 -98t-105.5 -15t-106.5 52.5q-44 43 -69 33t-37 -82z" />
    <glyph glyph-name="Imacron" unicode="&#x12a;" horiz-adv-x="548" 
d="M758 1565h-594l37 215h594zM43 0l252 1434h283l-252 -1434h-283z" />
    <glyph glyph-name="imacron" unicode="&#x12b;" horiz-adv-x="505" 
d="M602 1155h-471l39 229h471zM295 0h-264l180 1024h264z" />
    <glyph glyph-name="Iogonek" unicode="&#x12e;" horiz-adv-x="548" 
d="M578 1434l-252 -1434q-100 -114 -109 -193q-6 -57 45 -57q20 -3 60 10l-29 -166q-79 -32 -172 -32q-86 0 -130 51t-36 131q17 122 139 256h-51l252 1434h283z" />
    <glyph glyph-name="iogonek" unicode="&#x12f;" horiz-adv-x="505" 
d="M557 1309q-12 -68 -67.5 -115t-122.5 -47t-107 48t-29 114q11 68 66.5 116t122.5 48t107.5 -49t29.5 -115zM59 0h-28l180 1024h264l-180 -1024q-93 -116 -105 -193q-9 -57 41 -57q20 -3 60 10l-31 -166q-77 -32 -170 -32q-83 0 -128.5 50.5t-37.5 125.5q12 109 135 262z
" />
    <glyph glyph-name="Idot" unicode="&#x130;" horiz-adv-x="548" 
d="M457 1538q-66 0 -104.5 47t-26.5 113q11 64 65 110.5t119 46.5q66 0 105 -47t28 -110q-12 -66 -67.5 -113t-118.5 -47zM43 0l252 1434h283l-252 -1434h-283z" />
    <glyph glyph-name="dotlessi" unicode="&#x131;" horiz-adv-x="505" 
d="M295 0h-264l180 1024h264z" />
    <glyph glyph-name="Kcommaaccent" unicode="&#x136;" horiz-adv-x="1257" 
d="M1073 1434h338l-690 -705l442 -729h-297l-420 692l-120 -692h-283l252 1434h283l-109 -615zM518 -539h-209l94 410h248z" />
    <glyph glyph-name="kcommaaccent" unicode="&#x137;" horiz-adv-x="1058" 
d="M813 1024h313l-493 -506l325 -518h-286l-293 481l-84 -481h-264l252 1434h264l-148 -842zM463 -539h-209l94 410h248z" />
    <glyph glyph-name="Lacute" unicode="&#x139;" horiz-adv-x="989" 
d="M528 1843h324l-268 -280h-260zM578 1434l-205 -1164h547l-48 -270h-829l47 270l205 1164h283z" />
    <glyph glyph-name="lacute" unicode="&#x13a;" horiz-adv-x="507" 
d="M303 1563l205 280h323l-268 -280h-260zM33 0h264l111 633l151 862h-264l-150 -852z" />
    <glyph glyph-name="Lcommaaccent" unicode="&#x13b;" horiz-adv-x="989" 
d="M578 1434l-205 -1164h547l-48 -270h-829l47 270l205 1164h283zM434 -539h-209l94 410h248z" />
    <glyph glyph-name="lcommaaccent" unicode="&#x13c;" horiz-adv-x="507" 
d="M297 0h-264l112 643l150 852h264l-151 -862zM135 -539h-209l94 410h248z" />
    <glyph glyph-name="Lcaron" unicode="&#x13d;" horiz-adv-x="989" 
d="M295 1434h283l-205 -1164h547l-48 -270h-829l47 270zM737 1434h264l-127 -379h-223z" />
    <glyph glyph-name="lcaron" unicode="&#x13e;" horiz-adv-x="712" 
d="M297 0h-264l112 643l150 852h264l-151 -862zM772 1085h-207l92 410h250z" />
    <glyph glyph-name="Lslash" unicode="&#x141;" horiz-adv-x="1050" 
d="M496 623l-62 -353h547l-47 -270h-830l48 270l30 168l-143 -84l49 285l143 84l125 711h283l-92 -525l297 174l-51 -286z" />
    <glyph glyph-name="lslash" unicode="&#x142;" horiz-adv-x="538" 
d="M473 928l125 76l-43 -254l-127 -78l-6 -39l-111 -633h-264l86 492l-123 -76l43 256l125 76l131 747h264z" />
    <glyph glyph-name="Nacute" unicode="&#x143;" horiz-adv-x="1378" 
d="M711 1563l204 280h324l-268 -280h-260zM43 0h283l157 895l459 -895h213l252 1434h-283l-155 -895l-461 895h-213z" />
    <glyph glyph-name="nacute" unicode="&#x144;" 
d="M743 1450h324l-268 -281h-260zM772 1053q171 0 266 -115q95 -114 60 -309l-111 -629h-264l104 596q18 102 -26.5 156.5t-138.5 54.5q-96 0 -166 -56.5t-99 -164.5l-102 -586h-264l180 1024h264l-20 -111q122 140 317 140z" />
    <glyph glyph-name="Ncommaaccent" unicode="&#x145;" horiz-adv-x="1378" 
d="M326 0h-283l252 1434h213l461 -895l155 895h283l-252 -1434h-213l-459 895zM578 -539h-209l94 410h248z" />
    <glyph glyph-name="ncommaaccent" unicode="&#x146;" 
d="M772 1053q171 0 266 -115q95 -114 60 -309l-111 -629h-264l104 596q18 102 -26.5 156.5t-138.5 54.5q-96 0 -166 -56.5t-99 -164.5l-102 -586h-264l180 1024h264l-20 -111q122 140 317 140zM500 -539h-209l94 410h248z" />
    <glyph glyph-name="Ncaron" unicode="&#x147;" horiz-adv-x="1378" 
d="M997 1546h-268l-166 297h252l66 -133l112 133h273zM969 539l155 895h283l-252 -1434h-213l-459 895l-157 -895h-283l252 1434h213z" />
    <glyph glyph-name="ncaron" unicode="&#x148;" 
d="M825 1153h-268l-166 297h252l66 -133l112 133h273zM772 1053q171 0 266 -115q95 -114 60 -309l-111 -629h-264l104 596q18 102 -26.5 156.5t-138.5 54.5q-96 0 -166 -56.5t-99 -164.5l-102 -586h-264l180 1024h264l-20 -111q122 140 317 140z" />
    <glyph glyph-name="Eng" unicode="&#x14a;" horiz-adv-x="1378" 
d="M969 539l155 895h283l-252 -1434q-77 -448 -549 -410l47 258q98 -5 151.5 36.5t72.5 138.5l14 77l-408 795l-157 -895h-283l252 1434h213z" />
    <glyph glyph-name="eng" unicode="&#x14b;" 
d="M772 1053q171 0 266 -115q95 -114 60 -309l-113 -649q-76 -448 -504 -418l45 254q161 -15 195 164l106 616q18 102 -26.5 156.5t-138.5 54.5q-96 0 -166 -56.5t-99 -164.5l-102 -586h-264l180 1024h264l-20 -111q122 140 317 140z" />
    <glyph glyph-name="Omacron" unicode="&#x14c;" horiz-adv-x="1624" 
d="M1298 1581h-593l36 215h594zM725 -29q-312 0 -494 226q-183 230 -125 540q53 317 293 520q242 205 572 205q308 0 489 -227q184 -228 129 -541q-56 -318 -295 -520q-241 -203 -569 -203zM758 248q201 0 356 131q158 134 195 336q34 205 -74 338q-108 135 -307 135
t-353 -133q-150 -132 -188 -338q-37 -205 68 -338q107 -131 303 -131z" />
    <glyph glyph-name="omacron" unicode="&#x14d;" horiz-adv-x="1216" 
d="M1024 1171h-594l37 215h594zM541 -29q-254 0 -383 170q-130 174 -84 404q44 218 213 362q172 146 405 146q239 0 365 -172q129 -169 88 -396q-38 -218 -211 -366q-174 -148 -393 -148zM559 229q116 0 209 78q94 76 115 207q24 125 -40.5 203t-183.5 78q-117 0 -207 -78
t-114 -205q-23 -127 40 -205t181 -78z" />
    <glyph glyph-name="Ohungarumlaut" unicode="&#x150;" horiz-adv-x="1624" 
d="M639 1563l207 282h276l-219 -282h-264zM993 1563l228 282h276l-240 -282h-264zM725 -29q328 0 569 203q239 202 295 520q55 313 -129 541q-181 227 -489 227q-330 0 -572 -205q-240 -203 -293 -520q-58 -310 125 -540q182 -226 494 -226zM758 248q-196 0 -303 131
q-105 133 -68 338q38 206 188 338q154 133 353 133t307 -135q108 -133 74 -338q-37 -202 -195 -336q-155 -131 -356 -131z" />
    <glyph glyph-name="ohungarumlaut" unicode="&#x151;" horiz-adv-x="1216" 
d="M365 1153l206 283h277l-219 -283h-264zM719 1153l227 283h277l-240 -283h-264zM541 -29q219 0 393 148q173 148 211 366q41 227 -88 396q-126 172 -365 172q-233 0 -405 -146q-169 -144 -213 -362q-46 -230 84 -404q129 -170 383 -170zM559 229q-118 0 -181 78t-40 205
q24 127 114 205t207 78q119 0 183.5 -78t40.5 -203q-21 -131 -115 -207q-93 -78 -209 -78z" />
    <glyph glyph-name="OE" unicode="&#x152;" horiz-adv-x="1875" 
d="M1962 1434l-47 -271h-522l-56 -307h478l-48 -264h-475l-57 -322h532l-47 -270h-815q-113 -29 -209 -29q-305 0 -477 224q-171 227 -113 540q53 312 293 518q244 209 545 209q118 0 213 -28h805zM954 279l154 878q-88 31 -199 31q-197 0 -340 -131q-145 -133 -182 -340
q-37 -204 59 -338q94 -131 291 -131q129 0 217 31z" />
    <glyph glyph-name="oe" unicode="&#x153;" horiz-adv-x="2009" 
d="M1516 1053q214 0 342 -158t88 -383q-10 -54 -29 -109h-776q21 -192 245 -192q158 0 252 104l189 -149q-174 -195 -449 -195q-299 0 -411 219q-177 -219 -445 -219q-250 0 -370 166q-119 169 -82 393q38 221 202 369q168 154 410 154q125 0 221.5 -57.5t151.5 -159.5
q175 217 461 217zM1180 610h518q-1 101 -60 153t-157 52q-100 0 -179 -54t-122 -151zM887 512q23 122 -43 202.5t-185 80.5q-121 0 -211.5 -79t-113.5 -204q-20 -124 43 -203.5t182 -79.5q118 0 213 80q94 79 115 203z" />
    <glyph glyph-name="Racute" unicode="&#x154;" horiz-adv-x="1257" 
d="M807 1843h323l-268 -280h-260zM1262 938q-26 -142 -117.5 -249t-226.5 -154l217 -535h-287l-199 498h-235l-88 -498h-283l252 1434h559q194 0 317 -150q126 -149 91 -346zM807 1169h-277l-73 -424h291q85 0 150.5 60.5t82.5 152.5q17 91 -32.5 151t-141.5 60z" />
    <glyph glyph-name="racute" unicode="&#x155;" horiz-adv-x="731" 
d="M551 1434h323l-268 -281h-260zM475 1024l-29 -164q111 187 345 184l-52 -294q-51 8 -104.5 -2t-104.5 -37.5t-90.5 -82t-56.5 -128.5l-88 -500h-264l180 1024h264z" />
    <glyph glyph-name="Rcommaaccent" unicode="&#x156;" horiz-adv-x="1257" 
d="M1262 938q-26 -142 -117.5 -249t-226.5 -154l217 -535h-287l-199 498h-235l-88 -498h-283l252 1434h559q194 0 317 -150q126 -149 91 -346zM807 1169h-277l-73 -424h291q85 0 150.5 60.5t82.5 152.5q17 91 -32.5 151t-141.5 60zM575 -539h-208l94 410h248z" />
    <glyph glyph-name="rcommaaccent" unicode="&#x157;" horiz-adv-x="731" 
d="M475 1024l-29 -164q111 187 345 184l-52 -294q-51 8 -104.5 -2t-104.5 -37.5t-90.5 -82t-56.5 -128.5l-88 -500h-264l180 1024h264zM135 -539h-209l94 410h248z" />
    <glyph glyph-name="Rcaron" unicode="&#x158;" horiz-adv-x="1257" 
d="M889 1546h-268l-166 297h252l65 -133l113 133h272zM1262 938q-26 -142 -117.5 -249t-226.5 -154l217 -535h-287l-199 498h-235l-88 -498h-283l252 1434h559q194 0 317 -150q126 -149 91 -346zM807 1169h-277l-73 -424h291q85 0 150.5 60.5t82.5 152.5q17 91 -32.5 151
t-141.5 60z" />
    <glyph glyph-name="rcaron" unicode="&#x159;" horiz-adv-x="731" 
d="M633 1137h-268l-166 297h252l65 -134l113 134h272zM475 1024l-29 -164q111 187 345 184l-52 -294q-51 8 -104.5 -2t-104.5 -37.5t-90.5 -82t-56.5 -128.5l-88 -500h-264l180 1024h264z" />
    <glyph glyph-name="Sacute" unicode="&#x15a;" horiz-adv-x="1200" 
d="M627 1579l204 281h324l-268 -281h-260zM551 -29q229 0 379.5 104t185.5 294q38 203 -94 321q-66 58 -166 101q-22 10 -40 17t-43.5 16t-39.5 14q-151 54 -205.5 99t-38.5 116q14 63 70.5 100t142.5 37q180 0 256 -178l248 131q-56 153 -180.5 236t-300.5 83
q-193 0 -340 -100q-147 -99 -182 -293q-35 -188 67 -293q102 -102 303 -170q159 -53 214.5 -96t39.5 -117q-12 -69 -78 -109t-176 -40q-246 0 -299 213l-256 -131q39 -166 178.5 -260.5t354.5 -94.5z" />
    <glyph glyph-name="sacute" unicode="&#x15b;" horiz-adv-x="962" 
d="M436 1169l205 281h324l-269 -281h-260zM422 -29q176 0 292 76.5t142 222.5q7 36 7 67.5t-6 57.5t-16 48.5t-26 40.5t-32.5 33.5t-39 27.5t-42.5 21.5t-45.5 18t-46.5 14t-46 11.5q-87 24 -131 51t-37 70q18 88 137 88q120 0 158 -102l238 119q-47 103 -147.5 160
t-233.5 57q-150 0 -271 -80q-118 -75 -145 -221q-12 -66 1.5 -120t41 -89t72.5 -62.5t85 -42.5t91 -28q90 -28 133.5 -54t38.5 -65q-15 -80 -150 -80q-160 0 -200 131l-238 -119q102 -252 416 -252z" />
    <glyph glyph-name="Scedilla" unicode="&#x15e;" horiz-adv-x="1200" 
d="M733 838q14 -5 39.5 -14t43.5 -16t40 -17q100 -43 166 -101q132 -118 94 -321q-30 -170 -155 -271.5t-318 -122.5l-12 -69q59 -18 92 -64t22 -112q-41 -206 -483 -172l33 186q217 -15 229 41q6 45 -121 51l25 144q-165 26 -271.5 116t-138.5 230l256 131
q53 -213 299 -213q110 0 176 40t78 109q16 74 -39.5 117t-214.5 96q-201 68 -303 170q-102 105 -67 293q35 194 182 293q147 100 340 100q176 0 300.5 -83t180.5 -236l-248 -131q-76 178 -256 178q-86 0 -142.5 -37t-70.5 -100q-16 -71 38.5 -116t205.5 -99z" />
    <glyph glyph-name="scedilla" unicode="&#x15f;" horiz-adv-x="962" 
d="M395 731q-7 -43 37 -70t131 -51q25 -6 46 -11.5t46.5 -14t45.5 -18t42.5 -21.5t39 -27.5t32.5 -33.5t26 -40.5t16 -48.5t6 -57.5t-7 -67.5q-23 -123 -109.5 -197t-222.5 -93l-12 -74q60 -19 93 -65t22 -111q-41 -206 -484 -172l33 186q218 -15 230 41q6 45 -121 51
l24 146q-222 41 -303 241l238 119q40 -131 200 -131q135 0 150 80q5 39 -38.5 65t-133.5 54q-51 13 -91 28t-85 42.5t-72.5 62.5t-41 89t-1.5 120q27 146 145 221q121 80 271 80q133 0 233.5 -57t147.5 -160l-238 -119q-38 102 -158 102q-119 0 -137 -88z" />
    <glyph glyph-name="Scaron" unicode="&#x160;" horiz-adv-x="1200" 
d="M913 1563h-268l-166 297h252l66 -134l112 134h273zM733 838q14 -5 39.5 -14t43.5 -16t40 -17q100 -43 166 -101q132 -118 94 -321q-35 -190 -185.5 -294t-379.5 -104q-215 0 -354.5 94.5t-178.5 260.5l256 131q53 -213 299 -213q110 0 176 40t78 109q16 74 -39.5 117
t-214.5 96q-201 68 -303 170q-102 105 -67 293q35 194 182 293q147 100 340 100q176 0 300.5 -83t180.5 -236l-248 -131q-76 178 -256 178q-86 0 -142.5 -37t-70.5 -100q-16 -71 38.5 -116t205.5 -99z" />
    <glyph glyph-name="scaron" unicode="&#x161;" horiz-adv-x="962" 
d="M723 1153h-268l-166 297h252l65 -133l113 133h272zM532 819q-119 0 -137 -88q-7 -43 37 -70t131 -51q25 -6 46 -11.5t46.5 -14t45.5 -18t42.5 -21.5t39 -27.5t32.5 -33.5t26 -40.5t16 -48.5t6 -57.5t-7 -67.5q-26 -146 -142 -222.5t-292 -76.5q-314 0 -416 252l238 119
q40 -131 200 -131q135 0 150 80q5 39 -38.5 65t-133.5 54q-51 13 -91 28t-85 42.5t-72.5 62.5t-41 89t-1.5 120q27 146 145 221q121 80 271 80q133 0 233.5 -57t147.5 -160l-238 -119q-38 102 -158 102z" />
    <glyph glyph-name="uni0162" unicode="&#x162;" horiz-adv-x="1105" 
d="M188 1434h1055l-47 -271h-387l-205 -1163h-282l204 1163h-385zM434 -539h-209l94 410h248z" />
    <glyph glyph-name="uni0163" unicode="&#x163;" horiz-adv-x="790" 
d="M752 770h-230l-76 -426q-13 -76 31 -94t182 -10l-41 -240q-258 -31 -365.5 53t-70.5 291l76 426h-178l45 254h176l37 207l278 80l-51 -287h234zM356 -539h-209l95 410h247z" />
    <glyph glyph-name="Tcaron" unicode="&#x164;" horiz-adv-x="1105" 
d="M862 1546h-268l-166 297h252l65 -133l113 133h272zM188 1434h1055l-47 -271h-387l-205 -1163h-282l204 1163h-385z" />
    <glyph glyph-name="tcaron" unicode="&#x165;" horiz-adv-x="831" 
d="M674 1114l86 373h248l-127 -373h-207zM338 1231l278 80l-51 -287h234l-47 -254h-230l-76 -426q-13 -76 31 -94t182 -10l-41 -240q-258 -31 -365.5 53t-70.5 291l76 426h-178l45 254h176z" />
    <glyph glyph-name="Tbar" unicode="&#x166;" horiz-adv-x="1105" 
d="M1243 1434l-47 -271h-387l-59 -334h243l-45 -254h-243l-101 -575h-282l100 575h-242l45 254h242l59 334h-385l47 271h1055z" />
    <glyph glyph-name="tbar" unicode="&#x167;" horiz-adv-x="790" 
d="M799 1024l-47 -254h-230l-26 -149h163l-36 -213h-166l-11 -64q-13 -76 31 -94t182 -10l-41 -240q-258 -31 -365.5 53t-70.5 291l11 64h-117l37 213h118l27 149h-178l45 254h176l37 207l278 80l-51 -287h234z" />
    <glyph glyph-name="Utilde" unicode="&#x168;" horiz-adv-x="1323" 
d="M596 -29q-253 0 -393 140q-138 138 -97 358l170 965h281l-166 -942q-19 -114 36 -179t187 -65t211.5 65.5t98.5 178.5l166 942h282l-170 -965q-42 -238 -204.5 -368t-401.5 -130zM711 1556h-213q10 92 41 158.5t73.5 99.5t93 43t102.5 -4.5t99 -48.5q51 -43 81 -33t42 82
h213q-13 -114 -56 -187.5t-101.5 -98t-124 -14.5t-125.5 53q-54 43 -83.5 32.5t-41.5 -82.5z" />
    <glyph glyph-name="utilde" unicode="&#x169;" 
d="M780 438l103 586h264l-180 -1024h-265l21 111q-122 -140 -317 -140q-172 0 -267 115q-94 113 -59 309l110 629h265l-105 -596q-18 -102 27 -156.5t139 -54.5q96 0 165.5 56.5t98.5 164.5zM545 1147h-213q10 92 41 158.5t73.5 99.5t93 43t102.5 -4.5t99 -48.5
q51 -43 81 -33t42 82h213q-13 -114 -56 -187.5t-101.5 -98t-124 -15t-125.5 52.5q-54 43 -83.5 33t-41.5 -82z" />
    <glyph glyph-name="Umacron" unicode="&#x16a;" horiz-adv-x="1323" 
d="M1145 1565h-594l37 215h594zM596 -29q-253 0 -393 140q-138 138 -97 358l170 965h281l-166 -942q-19 -114 36 -179t187 -65t211.5 65.5t98.5 178.5l166 942h282l-170 -965q-42 -238 -204.5 -368t-401.5 -130z" />
    <glyph glyph-name="umacron" unicode="&#x16b;" 
d="M422 1370h594l-37 -215h-594zM780 438l103 586h264l-180 -1024h-265l21 111q-122 -140 -317 -140q-172 0 -267 115q-94 113 -59 309l110 629h265l-105 -596q-18 -102 27 -156.5t139 -54.5q96 0 165.5 56.5t98.5 164.5z" />
    <glyph glyph-name="Uring" unicode="&#x16e;" horiz-adv-x="1323" 
d="M834 1452q-111 0 -177 72q-63 72 -45 178q18 105 101 170t194 65q112 0 176 -73q63 -72 45 -176q-17 -105 -98 -170.5t-196 -65.5zM856 1618q81 0 96 76q6 35 -12 56.5t-55 21.5q-79 0 -94 -76q-6 -33 11.5 -55.5t53.5 -22.5zM596 -29q-253 0 -393 140q-138 138 -97 358
l170 965h281l-166 -942q-19 -114 36 -179t187 -65t211.5 65.5t98.5 178.5l166 942h282l-170 -965q-42 -238 -204.5 -368t-401.5 -130z" />
    <glyph glyph-name="uring" unicode="&#x16f;" 
d="M678 1104q-110 0 -176 72q-63 72 -45 178t100 170q83 65 195 65t176 -73q63 -72 45 -177q-17 -105 -98.5 -170t-196.5 -65zM635 1348q-6 -33 11.5 -55.5t53.5 -22.5q82 0 97 76q6 35 -12.5 56t-55.5 21q-79 0 -94 -75zM780 438l103 586h264l-180 -1024h-265l21 111
q-122 -140 -317 -140q-172 0 -267 115q-94 113 -59 309l110 629h265l-105 -596q-18 -102 27 -156.5t139 -54.5q96 0 165.5 56.5t98.5 164.5z" />
    <glyph glyph-name="Uhungarumlaut" unicode="&#x170;" horiz-adv-x="1323" 
d="M485 1546l207 283h277l-219 -283h-265zM840 1546l227 283h276l-239 -283h-264zM596 -29q239 0 401.5 130t204.5 368l170 965h-282l-166 -942q-19 -113 -98.5 -178.5t-211.5 -65.5t-187 65t-36 179l166 942h-281l-170 -965q-41 -220 97 -358q140 -140 393 -140z" />
    <glyph glyph-name="uhungarumlaut" unicode="&#x171;" 
d="M526 1419h277l-219 -282h-265zM1178 1419l-240 -282h-264l227 282h277zM780 438l103 586h264l-180 -1024h-265l21 111q-122 -140 -317 -140q-172 0 -267 115q-94 113 -59 309l110 629h265l-105 -596q-18 -102 27 -156.5t139 -54.5q96 0 165.5 56.5t98.5 164.5z" />
    <glyph glyph-name="Uogonek" unicode="&#x172;" horiz-adv-x="1323" 
d="M924 492l166 942h282l-170 -965q-46 -264 -244 -397q-123 -92 -179 -152t-66 -115q-12 -52 43 -55q20 -3 57 10l-31 -166q-79 -32 -155 -32q-102 0 -149.5 56t-28.5 140q21 115 143 213q-252 3 -391 142q-135 139 -95 356l170 965h281l-166 -942q-19 -114 36 -179
t187 -65t211.5 65.5t98.5 178.5z" />
    <glyph glyph-name="uogonek" unicode="&#x173;" 
d="M780 438l103 586h264l-180 -1024h-4q-58 -50 -100 -108.5t-46 -96.5q-3 -45 43 -45q30 0 60 10l-29 -166q-65 -32 -150 -32q-98 0 -150.5 48t-35.5 136q21 112 178 254h-31l21 111q-122 -140 -317 -140q-172 0 -267 115q-94 113 -59 309l110 629h265l-105 -596
q-18 -102 27 -156.5t139 -54.5q96 0 165.5 56.5t98.5 164.5z" />
    <glyph glyph-name="Wcircumflex" unicode="&#x174;" horiz-adv-x="2045" 
d="M1288 1546l-61 133l-119 -133h-262l268 297h266l166 -297h-258zM1409 371l463 1063h305l-653 -1434h-322l-104 946l-434 -946h-322l-149 1434h280l92 -1063l488 1063h241z" />
    <glyph glyph-name="wcircumflex" unicode="&#x175;" horiz-adv-x="1593" 
d="M991 1137l-61 133l-119 -133h-262l268 297h266l166 -297h-258zM1081 393l281 631h291l-506 -1024h-252l-80 618l-283 -618h-266l-145 1024h264l74 -629l286 629h256z" />
    <glyph glyph-name="Ycircumflex" unicode="&#x176;" horiz-adv-x="1230" 
d="M881 1546l-62 133l-119 -133h-262l269 297h266l166 -297h-258zM1053 1434h336l-611 -799l-112 -635h-281l113 639l-330 795h301l201 -529z" />
    <glyph glyph-name="ycircumflex" unicode="&#x177;" horiz-adv-x="1075" 
d="M702 1137l-61 133l-119 -133h-262l268 297h267l166 -297h-259zM518 334l350 690h293l-553 -1024q-122 -229 -270 -325t-344 -85l43 246q109 -1 172 40.5t119 150.5l6 10l-238 987h271z" />
    <glyph glyph-name="Ydieresis" unicode="&#x178;" horiz-adv-x="1230" 
d="M702 1573q-47 -38 -104.5 -38t-89.5 38q-32 41 -22 98t57 98t104.5 41t89.5 -41q35 -41 25 -98t-60 -98zM1092 1573q-47 -38 -105 -38t-90 38q-32 41 -22 98t57 98t104.5 41t89.5 -41q35 -41 25.5 -98t-59.5 -98zM1053 1434h336l-611 -799l-112 -635h-281l113 639
l-330 795h301l201 -529z" />
    <glyph glyph-name="Zacute" unicode="&#x179;" horiz-adv-x="1095" 
d="M786 1843h324l-268 -280h-260zM250 1434h942l-39 -224l-760 -940h606l-47 -270h-968l41 225l759 938h-581z" />
    <glyph glyph-name="zacute" unicode="&#x17a;" horiz-adv-x="929" 
d="M629 1434h323l-268 -281h-260zM535 776h-402l45 248h768l-31 -176l-528 -600h442l-43 -248h-811l33 176z" />
    <glyph glyph-name="Zdotaccent" unicode="&#x17b;" horiz-adv-x="1095" 
d="M741 1538q-66 0 -104.5 47t-26.5 113q11 64 65.5 110.5t119.5 46.5q66 0 105 -47t28 -110q-12 -66 -68 -113t-119 -47zM250 1434h942l-39 -224l-760 -940h606l-47 -270h-968l41 225l759 938h-581z" />
    <glyph glyph-name="zdotaccent" unicode="&#x17c;" horiz-adv-x="929" 
d="M584 1128q-66 0 -104.5 47t-26.5 113q11 64 65 111t119 47t104.5 -47t28.5 -111q-12 -66 -67.5 -113t-118.5 -47zM178 1024h768l-31 -176l-528 -600h442l-43 -248h-811l33 176l527 600h-402z" />
    <glyph glyph-name="Zcaron" unicode="&#x17d;" horiz-adv-x="1095" 
d="M868 1546h-268l-166 297h252l66 -133l112 133h273zM250 1434h942l-39 -224l-760 -940h606l-47 -270h-968l41 225l759 938h-581z" />
    <glyph glyph-name="zcaron" unicode="&#x17e;" horiz-adv-x="929" 
d="M711 1137h-269l-166 297h252l66 -134l113 134h272zM535 776h-402l45 248h768l-31 -176l-528 -600h442l-43 -248h-811l33 176z" />
    <glyph glyph-name="florin" unicode="&#x192;" horiz-adv-x="903" 
d="M430 848l92 268q77 220 218.5 299.5t326.5 28.5l-45 -264q-57 37 -135 6q-76 -30 -107 -121l-75 -217h186l-45 -254h-230l-233 -678q-76 -220 -217 -299.5t-328 -28.5l45 262q57 -37 135 -6q76 30 107 121l217 629h-174l47 254h215z" />
    <glyph glyph-name="Ohorn" unicode="&#x1a0;" horiz-adv-x="1624" 
d="M725 -29q-312 0 -494 226q-183 230 -125 540q53 317 293 520q242 205 572 205q105 0 203 -28h153q48 1 67 25.5t29 84.5l7 35h212l-6 -35q-22 -124 -68 -189t-134 -89q6 -6 26 -31q184 -228 129 -541q-56 -318 -295 -520q-241 -203 -569 -203zM758 248q201 0 356 131
q158 134 195 336q34 205 -74 338q-108 135 -307 135t-353 -133q-150 -132 -188 -338q-37 -205 68 -338q107 -131 303 -131z" />
    <glyph glyph-name="ohorn" unicode="&#x1a1;" horiz-adv-x="1216" 
d="M541 -29q-254 0 -383 170q-130 174 -84 404q44 218 213 362q172 146 405 146q91 0 176 -29h99q48 1 67 26t29 85l6 34h213l-6 -34q-22 -124 -68.5 -189.5t-134.5 -89.5q110 -162 72 -371q-38 -218 -211 -366q-174 -148 -393 -148zM559 229q116 0 209 78q94 76 115 207
q24 125 -40.5 203t-183.5 78q-117 0 -207 -78t-114 -205q-23 -127 40 -205t181 -78z" />
    <glyph glyph-name="Uhorn" unicode="&#x1af;" horiz-adv-x="1323" 
d="M596 -29q-253 0 -393 140q-138 138 -97 358l170 965h281l-166 -942q-19 -114 36 -179t187 -65t211.5 65.5t98.5 178.5l166 942h174q48 1 67 25.5t29 84.5l6 35h213l-6 -35q-24 -132 -76 -198t-156 -86l-139 -791q-42 -238 -204.5 -368t-401.5 -130z" />
    <glyph glyph-name="uhorn" unicode="&#x1b0;" 
d="M780 438l103 586h164q45 3 63.5 28t28.5 83l6 34h213l-6 -34q-24 -133 -77.5 -200t-158.5 -87l-149 -848h-265l21 111q-122 -140 -317 -140q-172 0 -267 115q-94 113 -59 309l110 629h265l-105 -596q-18 -102 27 -156.5t139 -54.5q96 0 165.5 56.5t98.5 164.5z" />
    <glyph glyph-name="Scommaaccent" unicode="&#x218;" horiz-adv-x="1200" 
d="M551 -29q-215 0 -354.5 94.5t-178.5 260.5l256 131q53 -213 299 -213q110 0 176 40t78 109q16 74 -39.5 117t-214.5 96q-201 68 -303 170q-102 105 -67 293q35 194 182 293q147 100 340 100q176 0 300.5 -83t180.5 -236l-248 -131q-76 178 -256 178q-86 0 -142.5 -37
t-70.5 -100q-16 -71 38.5 -116t205.5 -99q14 -5 39.5 -14t43.5 -16t40 -17q100 -43 166 -101q132 -118 94 -321q-35 -190 -185.5 -294t-379.5 -104zM516 -539h-209l94 410h248z" />
    <glyph glyph-name="scommaaccent" unicode="&#x219;" horiz-adv-x="962" 
d="M422 -29q-314 0 -416 252l238 119q40 -131 200 -131q135 0 150 80q5 39 -38.5 65t-133.5 54q-51 13 -91 28t-85 42.5t-72.5 62.5t-41 89t-1.5 120q27 146 145 221q121 80 271 80q133 0 233.5 -57t147.5 -160l-238 -119q-38 102 -158 102q-119 0 -137 -88q-7 -43 37 -70
t131 -51q25 -6 46 -11.5t46.5 -14t45.5 -18t42.5 -21.5t39 -27.5t32.5 -33.5t26 -40.5t16 -48.5t6 -57.5t-7 -67.5q-26 -146 -142 -222.5t-292 -76.5zM397 -539h-209l95 410h247z" />
    <glyph glyph-name="uni021A" unicode="&#x21a;" horiz-adv-x="1105" 
d="M188 1434h1055l-47 -271h-387l-205 -1163h-282l204 1163h-385zM434 -539h-209l94 410h248z" />
    <glyph glyph-name="uni021B" unicode="&#x21b;" horiz-adv-x="790" 
d="M752 770h-230l-76 -426q-13 -76 31 -94t182 -10l-41 -240q-258 -31 -365.5 53t-70.5 291l76 426h-178l45 254h176l37 207l278 80l-51 -287h234zM356 -539h-209l95 410h247z" />
    <glyph glyph-name="circumflex" unicode="&#x2c6;" horiz-adv-x="784" 
d="M686 1434l166 -297h-258l-62 133l-118 -133h-262l268 297h266z" />
    <glyph glyph-name="caron" unicode="&#x2c7;" horiz-adv-x="784" 
d="M520 1300l113 134h272l-268 -297h-268l-166 297h252z" />
    <glyph glyph-name="breve" unicode="&#x2d8;" horiz-adv-x="763" 
d="M502 1120q-162 0 -244 80.5t-57 216.5h235q-18 -106 86 -106q107 0 125 106h236q-23 -144 -120.5 -220.5t-260.5 -76.5z" />
    <glyph glyph-name="dotaccent" unicode="&#x2d9;" horiz-adv-x="358" 
d="M307 1128q-66 0 -104.5 47t-26.5 113q11 64 65 111t119 47q66 0 105.5 -47.5t28.5 -110.5q-12 -66 -68 -113t-119 -47z" />
    <glyph glyph-name="ring" unicode="&#x2da;" horiz-adv-x="600" 
d="M403 1104q-110 0 -176 72q-63 72 -45 178q18 105 101 170t194 65q112 0 176 -73q63 -72 45 -177q-17 -105 -98.5 -170t-196.5 -65zM426 1270q81 0 96 76q6 35 -12 56t-55 21q-80 0 -95 -75q-6 -33 12 -55.5t54 -22.5z" />
    <glyph glyph-name="ogonek" unicode="&#x2db;" horiz-adv-x="444" 
d="M72 -438q-89 0 -134 49.5t-32 134.5q21 118 182 254h225q-128 -113 -143 -193q-9 -57 41 -57q23 -3 59 10l-28 -166q-79 -32 -170 -32z" />
    <glyph glyph-name="tilde" unicode="&#x2dc;" horiz-adv-x="776" 
d="M383 1147h-213q10 92 41 158.5t73.5 99.5t93.5 43t103 -4.5t99 -48.5q51 -43 80.5 -33t41.5 82h213q-13 -114 -56 -187.5t-101.5 -98t-124 -15t-125.5 52.5q-54 43 -83.5 33t-41.5 -82z" />
    <glyph glyph-name="hungarumlaut" unicode="&#x2dd;" horiz-adv-x="888" 
d="M152 1137l206 282h277l-219 -282h-264zM506 1137l227 282h277l-240 -282h-264z" />
    <glyph glyph-name="gravecomb" unicode="&#x300;" horiz-adv-x="0" 
d="M74 1153h-250l-184 281h307z" />
    <glyph glyph-name="acutecomb" unicode="&#x301;" horiz-adv-x="0" 
d="M-408 1153l205 281h324l-268 -281h-261z" />
    <glyph glyph-name="uni0302" unicode="&#x302;" horiz-adv-x="0" 
d="M-98 1434l166 -297h-258l-62 133l-119 -133h-262l268 297h267z" />
    <glyph glyph-name="tildecomb" unicode="&#x303;" horiz-adv-x="0" 
d="M-412 1147h-213q10 92 41 158.5t73.5 99.5t93.5 43t103 -4.5t99 -48.5q51 -43 81 -33t42 82h213q-13 -114 -56 -187.5t-102 -98t-124.5 -15t-125.5 52.5q-54 43 -83.5 33t-41.5 -82z" />
    <glyph glyph-name="uni0304" unicode="&#x304;" horiz-adv-x="0" 
d="M74 1155h-594l37 215h594z" />
    <glyph glyph-name="uni0306" unicode="&#x306;" horiz-adv-x="0" 
d="M-262 1120q-162 0 -244 80.5t-57 216.5h235q-18 -106 86 -106q107 0 125 106h236q-23 -144 -120.5 -220.5t-260.5 -76.5z" />
    <glyph glyph-name="uni0307" unicode="&#x307;" horiz-adv-x="0" 
d="M-90 1128q-66 0 -104.5 47t-26.5 113q11 64 65 111t119 47t104.5 -47t28.5 -111q-12 -66 -67.5 -113t-118.5 -47z" />
    <glyph glyph-name="uni0308" unicode="&#x308;" horiz-adv-x="0" 
d="M-354 1163q-49 -38 -107 -38t-90 38q-32 41 -22 98.5t57 98.5t104.5 41t92.5 -41q32 -41 22 -98.5t-57 -98.5zM33 1163q-47 -38 -105 -38t-90 38q-32 41 -22 98.5t57 98.5t105 41t90 -41q35 -41 25 -98.5t-60 -98.5z" />
    <glyph glyph-name="uni030A" unicode="&#x30a;" horiz-adv-x="0" 
d="M-190 1104q-111 0 -177 72q-63 72 -45 178q18 105 101 170t194 65q112 0 176 -73q63 -72 45 -177q-17 -105 -98 -170t-196 -65zM-168 1270q81 0 96 76q6 35 -12 56t-55 21q-79 0 -94 -75q-6 -33 11.5 -55.5t53.5 -22.5z" />
    <glyph glyph-name="uni030B" unicode="&#x30b;" horiz-adv-x="0" 
d="M-739 1137l207 282h276l-219 -282h-264zM-385 1137l227 282h277l-240 -282h-264z" />
    <glyph glyph-name="uni030C" unicode="&#x30c;" horiz-adv-x="0" 
d="M-264 1300l112 134h273l-268 -297h-269l-166 297h252z" />
    <glyph glyph-name="uni0312" unicode="&#x312;" horiz-adv-x="0" 
d="M12 1997h209l-94 -410h-248z" />
    <glyph glyph-name="uni0326" unicode="&#x326;" horiz-adv-x="0" 
d="M-289 -539h-209l95 410h247z" />
    <glyph glyph-name="uni0327" unicode="&#x327;" horiz-adv-x="0" 
d="M-276 0l-17 -94q60 -19 93 -65t22 -111q-41 -206 -484 -172l33 186q218 -15 230 41q6 45 -121 51l28 164h216z" />
    <glyph glyph-name="uni0328" unicode="&#x328;" horiz-adv-x="0" 
d="M-387 -438q-89 0 -134 49.5t-32 134.5q21 118 182 254h226q-130 -114 -144 -193q-9 -57 41 -57q24 -3 60 10l-29 -166q-79 -32 -170 -32z" />
    <glyph glyph-name="uni0394" unicode="&#x394;" horiz-adv-x="1337" 
d="M655 1434h351l235 -1434h-1327zM786 1120l-421 -856h544z" />
    <glyph glyph-name="uni03A9" unicode="&#x3a9;" horiz-adv-x="1593" 
d="M1579 729q-50 -285 -285 -459h176l-47 -270h-567l47 270q150 45 256.5 166t132.5 281q37 205 -71 338q-109 133 -306 133q-198 0 -352 -133q-152 -131 -190 -338q-26 -162 36 -282.5t195 -164.5l-29 -166l-18 -104h-567l47 270h205q-198 204 -146 498q52 304 293 498
q239 196 559 196q304 0 494 -217t137 -516z" />
    <glyph glyph-name="pi" unicode="&#x3c0;" horiz-adv-x="1361" 
d="M137 1024h1270l-45 -248h-162l-137 -776h-264l137 776h-408l-137 -776h-264l137 776h-172z" />
    <glyph glyph-name="uni0401" unicode="&#x401;" horiz-adv-x="1085" 
d="M659 1573q-47 -38 -104.5 -38t-89.5 38q-32 41 -22 98t57 98t104.5 41t89.5 -41q35 -41 25 -98t-60 -98zM1049 1573q-47 -38 -105 -38t-90 38q-32 41 -22 98t57 98t104.5 41t89.5 -41q35 -41 25.5 -98t-59.5 -98zM1171 1434l-47 -271h-594l-55 -307h545l-49 -264h-541
l-57 -322h604l-47 -270h-887l252 1434h876z" />
    <glyph glyph-name="uni0402" unicode="&#x402;" horiz-adv-x="1419" 
d="M1012 954q185 0 275.5 -107.5t58.5 -291.5l-27 -158q-43 -234 -166.5 -332.5t-353.5 -84.5l47 262q90 -6 131.5 28.5t58.5 126.5l23 129q13 95 -22.5 134.5t-123.5 39.5q-110 0 -221 -51l-114 -649h-281l205 1163h-361l47 271h1049l-47 -271h-408l-45 -254q139 45 275 45
z" />
    <glyph glyph-name="uni0403" unicode="&#x403;" horiz-adv-x="972" 
d="M778 1841h324l-268 -280h-261zM295 1434h815l-47 -271h-533l-204 -1163h-283z" />
    <glyph glyph-name="uni0404" unicode="&#x404;" horiz-adv-x="1492" 
d="M754 248q265 0 415 209l232 -150q-118 -157 -294 -246.5t-372 -89.5q-158 -3 -291 59t-216 167t-117.5 247t-4.5 293q52 316 291 520q242 205 557 205q202 0 351.5 -89.5t222.5 -250.5l-258 -135q-95 201 -342 201q-170 0 -304.5 -91t-197.5 -247h637l-49 -264h-635
q11 -155 111.5 -246.5t263.5 -91.5z" />
    <glyph glyph-name="uni0405" unicode="&#x405;" horiz-adv-x="1200" 
d="M551 -29q-215 0 -354.5 94.5t-178.5 260.5l256 131q53 -213 299 -213q110 0 176 40t78 109q16 74 -39.5 117t-214.5 96q-201 68 -303 170q-102 105 -67 293q35 194 182 293q147 100 340 100q176 0 300.5 -83t180.5 -236l-248 -131q-76 178 -256 178q-86 0 -142.5 -37
t-70.5 -100q-16 -71 38.5 -116t205.5 -99q14 -5 39.5 -14t43.5 -16t40 -17q100 -43 166 -101q132 -118 94 -321q-35 -190 -185.5 -294t-379.5 -104z" />
    <glyph glyph-name="uni0406" unicode="&#x406;" horiz-adv-x="548" 
d="M43 0l252 1434h283l-252 -1434h-283z" />
    <glyph glyph-name="uni0407" unicode="&#x407;" horiz-adv-x="548" 
d="M362 1573q-47 -38 -104.5 -38t-89.5 38q-32 41 -22 98t57 98t104.5 41t89.5 -41q35 -41 25 -98t-60 -98zM752 1573q-47 -38 -105 -38t-90 38q-32 41 -22 98t57 98t104.5 41t89.5 -41q35 -41 25.5 -98t-59.5 -98zM43 0l252 1434h283l-252 -1434h-283z" />
    <glyph glyph-name="uni0408" unicode="&#x408;" horiz-adv-x="1159" 
d="M467 -29q-344 0 -447 281l259 141q23 -77 73.5 -111t139.5 -34q226 0 260 198l174 988h282l-174 -988q-42 -234 -190.5 -354.5t-376.5 -120.5z" />
    <glyph glyph-name="uni0409" unicode="&#x409;" horiz-adv-x="1970" 
d="M1288 897h213q197 0 316 -137q123 -135 88 -330q-34 -195 -189 -313q-153 -117 -373 -117h-493l205 1163h-383l-101 -569q-18 -101 -44.5 -184.5t-59 -144.5t-71.5 -109t-81.5 -77t-89.5 -50t-95 -28t-98.5 -9.5t-99.5 4.5l45 262q129 -14 202.5 59t109.5 269l149 848
h944zM1456 633h-215l-63 -369h213q89 0 153.5 50t77.5 135t-32 134.5t-134 49.5z" />
    <glyph glyph-name="uni040A" unicode="&#x40a;" horiz-adv-x="1961" 
d="M1282 897h211q196 0 315 -137q123 -135 88 -330q-34 -195 -188 -313q-153 -117 -373 -117h-493l110 633h-516l-110 -633h-283l252 1434h283l-95 -537h516l95 537h282zM1614 449q17 85 -29.5 134.5t-136.5 49.5h-213l-64 -369h211q89 0 154 50t78 135z" />
    <glyph glyph-name="uni040B" unicode="&#x40b;" horiz-adv-x="1429" 
d="M997 954q192 0 285 -105.5t61 -293.5l-96 -555h-280l92 526q17 94 -22.5 134t-135.5 40q-118 0 -209 -49l-114 -651h-281l205 1163h-361l47 271h1049l-47 -271h-408l-45 -252q125 43 260 43z" />
    <glyph glyph-name="uni040C" unicode="&#x40c;" horiz-adv-x="1257" 
d="M860 1841h324l-269 -280h-260zM1073 1434h338l-690 -705l442 -729h-297l-420 692l-120 -692h-283l252 1434h283l-109 -615z" />
    <glyph glyph-name="uni040E" unicode="&#x40e;" horiz-adv-x="1228" 
d="M549 1792h594l-39 -229h-594zM688 739l391 695h291l-592 -1039q-126 -223 -278 -314.5t-357 -80.5l45 262q110 -10 187.5 33t140.5 143l-307 996h270z" />
    <glyph glyph-name="uni040F" unicode="&#x40f;" horiz-adv-x="1337" 
d="M879 270l204 1164h283l-252 -1434h-395l-49 -274h-281l47 274h-393l252 1434h283l-205 -1164h506z" />
    <glyph glyph-name="uni0410" unicode="&#x410;" horiz-adv-x="1368" 
d="M1272 0h-305l-37 258h-574l-133 -258h-309l756 1434h350zM805 1120l-311 -598h397z" />
    <glyph glyph-name="uni0411" unicode="&#x411;" horiz-adv-x="1200" 
d="M481 891h269q197 0 311 -135q117 -135 82 -330q-35 -198 -182 -312t-369 -114h-549l252 1434h901l-47 -271h-619zM866 446q13 85 -32.5 133t-133.5 48h-264l-63 -363h264q86 0 149 48.5t80 133.5z" />
    <glyph glyph-name="uni0412" unicode="&#x412;" horiz-adv-x="1239" 
d="M1223 1020q-27 -177 -183 -285q156 -111 129 -329q-27 -184 -167 -295t-367 -111h-592l252 1434h543q187 0 301 -117q111 -114 84 -297zM805 1169h-275l-55 -315h277q71 0 123.5 45t64.5 113q12 67 -24.5 112t-110.5 45zM893 434q12 74 -27 121t-116 47h-318l-59 -338
h313q79 0 136 48t71 122z" />
    <glyph glyph-name="uni0413" unicode="&#x413;" horiz-adv-x="972" 
d="M295 1434h815l-47 -271h-533l-204 -1163h-283z" />
    <glyph glyph-name="uni0414" unicode="&#x414;" horiz-adv-x="1443" 
d="M451 1434h946l-205 -1164h154l-97 -544h-282l49 274h-795l-47 -274h-283l97 544h139q146 158 205 486zM440 270h469l160 899h-383l-74 -417q-55 -316 -172 -482z" />
    <glyph glyph-name="uni0415" unicode="&#x415;" horiz-adv-x="1085" 
d="M1171 1434l-47 -271h-594l-55 -307h545l-49 -264h-541l-57 -322h604l-47 -270h-887l252 1434h876z" />
    <glyph glyph-name="uni0416" unicode="&#x416;" horiz-adv-x="1851" 
d="M1647 1434h327l-610 -727l373 -707h-297l-346 659l-115 -659h-281l115 653l-553 -653h-326l635 745l-370 689h297l342 -643l112 643h281l-113 -641z" />
    <glyph glyph-name="uni0417" unicode="&#x417;" horiz-adv-x="1146" 
d="M1135 1026q-35 -197 -207 -297q186 -119 143 -346q-35 -196 -187 -304t-395 -108q-191 0 -314.5 89t-174.5 249l258 133q28 -102 90.5 -153t181.5 -51q108 0 178 49t87 135q17 85 -36 132.5t-165 47.5h-178l45 252h133q105 0 173.5 47t82.5 127q14 79 -32.5 124.5
t-145.5 45.5q-167 0 -275 -184l-229 145q85 141 225.5 222t323.5 81q205 0 327 -125q125 -128 91 -311z" />
    <glyph glyph-name="uni0418" unicode="&#x418;" horiz-adv-x="1378" 
d="M258 0h-215l252 1434h283l-152 -856l766 856h215l-252 -1434h-283l152 856z" />
    <glyph glyph-name="uni0419" unicode="&#x419;" horiz-adv-x="1378" 
d="M1157 1565h-594l39 229h594zM258 0h-215l252 1434h283l-152 -856l766 856h215l-252 -1434h-283l152 856z" />
    <glyph glyph-name="uni041A" unicode="&#x41a;" horiz-adv-x="1257" 
d="M1073 1434h338l-690 -705l442 -729h-297l-420 692l-120 -692h-283l252 1434h283l-109 -615z" />
    <glyph glyph-name="uni041B" unicode="&#x41b;" horiz-adv-x="1384" 
d="M-68 -4l45 262q129 -14 202.5 59t109.5 269l149 848h975l-252 -1434h-280l204 1163h-413l-101 -569q-18 -101 -44.5 -185t-59 -144.5t-72 -108.5t-82.5 -77.5t-90 -50.5t-95 -27.5t-98 -9t-98 4.5z" />
    <glyph glyph-name="uni041C" unicode="&#x41c;" horiz-adv-x="1669" 
d="M1386 1434h312l-252 -1434h-281l164 932l-528 -668h-33l-276 676l-166 -940h-283l252 1434h289l270 -686z" />
    <glyph glyph-name="uni041D" unicode="&#x41d;" horiz-adv-x="1361" 
d="M1010 864l100 570h281l-252 -1434h-281l105 594h-533l-104 -594h-283l252 1434h283l-101 -570h533z" />
    <glyph glyph-name="uni041E" unicode="&#x41e;" horiz-adv-x="1624" 
d="M725 -29q-312 0 -494 226q-183 230 -125 540q53 317 293 520q242 205 572 205q308 0 489 -227q184 -228 129 -541q-56 -318 -295 -520q-241 -203 -569 -203zM758 248q201 0 356 131q158 134 195 336q34 205 -74 338q-108 135 -307 135t-353 -133q-150 -132 -188 -338
q-37 -205 68 -338q107 -131 303 -131z" />
    <glyph glyph-name="uni041F" unicode="&#x41f;" horiz-adv-x="1337" 
d="M295 1434h1071l-252 -1434h-283l205 1163h-506l-204 -1163h-283z" />
    <glyph glyph-name="uni0420" unicode="&#x420;" horiz-adv-x="1208" 
d="M295 1434h514q216 0 336 -144q120 -141 86 -352q-30 -205 -187 -338q-156 -129 -397 -129h-239l-82 -471h-283zM950 958q19 98 -29 154.5t-155 56.5h-236l-75 -434h221q110 0 182.5 60.5t91.5 162.5z" />
    <glyph glyph-name="uni0421" unicode="&#x421;" horiz-adv-x="1492" 
d="M735 -29q-158 -3 -291 59t-216 167t-117.5 247t-4.5 293q52 316 291 520q242 205 557 205q202 0 351.5 -89.5t222.5 -250.5l-258 -135q-95 201 -342 201q-208 0 -357 -131q-150 -132 -184 -340q-37 -204 66 -338q101 -131 301 -131q265 0 415 209l232 -150
q-118 -157 -294 -246.5t-372 -89.5z" />
    <glyph glyph-name="uni0422" unicode="&#x422;" horiz-adv-x="1105" 
d="M188 1434h1055l-47 -271h-387l-205 -1163h-282l204 1163h-385z" />
    <glyph glyph-name="uni0423" unicode="&#x423;" horiz-adv-x="1228" 
d="M688 739l391 695h291l-592 -1039q-126 -223 -278 -314.5t-357 -80.5l45 262q110 -10 187.5 33t140.5 143l-307 996h270z" />
    <glyph glyph-name="uni0424" unicode="&#x424;" horiz-adv-x="1679" 
d="M1145 1464l-31 -170q291 -38 440 -196q154 -160 111 -400q-43 -245 -244 -393t-512 -172l-28 -164h-275l31 170q-288 37 -442 197q-152 161 -109 399q43 245 244 393t512 172l28 164h275zM367 717q-53 -280 315 -324l115 649q-381 -43 -430 -325zM1384 717
q50 283 -313 323l-115 -647q375 43 428 324z" />
    <glyph glyph-name="uni0425" unicode="&#x425;" horiz-adv-x="1249" 
d="M1028 1434h334l-541 -711l314 -723h-306l-202 469l-357 -469h-336l572 750l-295 684h303l186 -430z" />
    <glyph glyph-name="uni0426" unicode="&#x426;" horiz-adv-x="1413" 
d="M1366 1434l-205 -1164h154l-96 -544h-283l49 274h-942l252 1434h283l-205 -1164h506l204 1164h283z" />
    <glyph glyph-name="uni0427" unicode="&#x427;" horiz-adv-x="1296" 
d="M928 784l114 650h283l-252 -1434h-282l88 502q-115 -33 -240 -33q-251 0 -376.5 121.5t-88.5 331.5l90 512h283l-84 -476q-20 -116 31 -167.5t182 -51.5q139 0 252 45z" />
    <glyph glyph-name="uni0428" unicode="&#x428;" horiz-adv-x="1931" 
d="M1473 270l204 1164h283l-252 -1434h-1665l252 1434h283l-205 -1164h409l205 1164h281l-205 -1164h410z" />
    <glyph glyph-name="uni0429" unicode="&#x429;" horiz-adv-x="2007" 
d="M1960 1434l-205 -1164h154l-97 -544h-282l49 274h-1536l252 1434h283l-205 -1164h409l205 1164h281l-205 -1164h410l204 1164h283z" />
    <glyph glyph-name="uni042A" unicode="&#x42a;" horiz-adv-x="1419" 
d="M784 0h-530l203 1163h-342l47 271h624l-81 -471h245q195 0 320 -152q123 -150 88 -350q-38 -212 -191 -338q-153 -123 -383 -123zM657 698l-75 -434h249q91 0 160 61t86 156q17 94 -31.5 155.5t-140.5 61.5h-248z" />
    <glyph glyph-name="uni042B" unicode="&#x42b;" horiz-adv-x="1701" 
d="M575 0h-532l252 1434h283l-84 -471h247q193 0 318 -152q124 -152 90 -350q-38 -214 -192.5 -337.5t-381.5 -123.5zM1479 0h-281l252 1434h281zM449 698l-78 -434h250q93 0 160.5 61t84.5 156q17 94 -31 155.5t-139 61.5h-247z" />
    <glyph glyph-name="uni042C" unicode="&#x42c;" horiz-adv-x="1208" 
d="M496 963h245q193 0 318 -152q124 -152 90 -350q-38 -214 -192.5 -337.5t-381.5 -123.5h-532l252 1434h283zM696 698h-247l-76 -434h248q93 0 160.5 61t84.5 156q17 94 -31 155.5t-139 61.5z" />
    <glyph glyph-name="uni042D" unicode="&#x42d;" horiz-adv-x="1484" 
d="M831 1462q327 0 498 -223q174 -223 121 -541t-285 -522q-230 -205 -555 -205q-203 0 -357.5 90.5t-223.5 251.5l260 136q41 -97 131 -149t215 -52q169 0 301 91.5t194 246.5h-636l49 264h635q-11 156 -109.5 247t-263.5 91q-260 0 -414 -213l-227 147q110 158 288 249
t379 91z" />
    <glyph glyph-name="uni042E" unicode="&#x42e;" horiz-adv-x="2162" 
d="M1509 1462q309 0 490 -227q184 -228 129 -541q-58 -315 -301 -520q-244 -203 -563 -203q-276 0 -451 181t-172 450h-209l-106 -602h-283l252 1434h283l-99 -562h209q88 262 313 426q226 164 508 164zM1845 715q37 205 -71 338q-108 135 -308 135q-198 0 -352 -133
q-153 -132 -188 -338q-38 -206 67 -338q104 -131 301 -131q204 0 359 131q158 134 192 336z" />
    <glyph glyph-name="uni042F" unicode="&#x42f;" horiz-adv-x="1277" 
d="M743 1434h564l-252 -1434h-283l88 498h-143l-410 -498h-344l449 530q-134 53 -196.5 177t-37.5 274q34 187 184 319q152 134 381 134zM633 745h270l74 424h-272q-92 0 -162.5 -60t-87.5 -151q-17 -90 35 -151.5t143 -61.5z" />
    <glyph glyph-name="uni0430" unicode="&#x430;" horiz-adv-x="1284" 
d="M965 887l24 137h264l-180 -1024h-264l16 94q-132 -123 -340 -123q-230 0 -344 170q-113 168 -69 396q41 220 196 366q159 150 381 150q217 0 316 -166zM567 223q119 0 211.5 75.5t118.5 197.5l4 32q17 123 -50.5 198t-186.5 75q-123 0 -214 -77.5t-114 -209.5
q-23 -128 42 -209.5t189 -81.5z" />
    <glyph glyph-name="uni0431" unicode="&#x431;" horiz-adv-x="1161" 
d="M528 -29q-238 0 -370 156q-131 154 -90 395q31 185 75 287q93 229 422 377l107 47l94 41l74 37q59 34 93.5 68.5t67.5 93.5l201 -125q-50 -126 -155 -195q-109 -70 -304 -139q-136 -50 -205.5 -99.5t-107.5 -119.5q131 110 315 110q164 0 281 -135q120 -132 82 -336
q-34 -208 -193 -336q-157 -127 -387 -127zM633 694q-107 0 -193 -63q-88 -61 -106 -168q-21 -110 43 -180t174 -70q111 0 194 68q86 70 103 172q19 104 -42 172.5t-173 68.5z" />
    <glyph glyph-name="uni0432" unicode="&#x432;" horiz-adv-x="1046" 
d="M995 721q-24 -143 -135 -205q128 -82 101 -240q-25 -132 -124.5 -204t-267.5 -72h-538l180 1024h498q148 0 227 -88q80 -86 59 -215zM645 807h-225l-31 -184h221q116 0 131 92q8 45 -16.5 68.5t-79.5 23.5zM709 322q8 43 -18.5 67.5t-80.5 24.5h-258l-35 -191h261
q52 0 88 26.5t43 72.5z" />
    <glyph glyph-name="uni0433" unicode="&#x433;" horiz-adv-x="825" 
d="M211 1024h700l-43 -254h-438l-135 -770h-264l135 770z" />
    <glyph glyph-name="uni0434" unicode="&#x434;" horiz-adv-x="1224" 
d="M330 1024h803l-138 -776h138l-95 -522h-258l49 274h-636l-48 -274h-260l95 522h126q109 130 152 362zM393 248h344l97 538h-287l-31 -176q-40 -227 -123 -362z" />
    <glyph glyph-name="uni0435" unicode="&#x435;" horiz-adv-x="1193" 
d="M1128 512q-3 -41 -28 -109h-774q7 -95 72.5 -143.5t172.5 -48.5q154 0 252 104l187 -149q-174 -195 -459 -195q-256 0 -387 162q-132 164 -92 399q34 225 209 371q176 150 401 150q224 0 358 -158q131 -155 88 -383zM362 610h521q-1 101 -60 153t-157 52
q-103 0 -182 -53.5t-122 -151.5z" />
    <glyph glyph-name="uni0436" unicode="&#x436;" horiz-adv-x="1527" 
d="M1286 1024h293l-451 -516l283 -508h-268l-258 471l-84 -471h-258l82 467l-406 -467h-285l472 543l-267 481h264l242 -442l78 442h258l-78 -449z" />
    <glyph glyph-name="uni0437" unicode="&#x437;" horiz-adv-x="923" 
d="M872 731q-27 -150 -149 -219q138 -89 111 -250q-25 -136 -141 -213.5t-310 -77.5q-321 0 -397 246l227 117q37 -129 199 -129q151 0 172 106q8 44 -19 69.5t-86 25.5h-147l41 225h108q116 0 137 94q8 45 -22 71.5t-90 26.5q-132 0 -209 -127l-201 125q164 232 434 232
q176 0 271 -99q93 -93 71 -223z" />
    <glyph glyph-name="uni0438" unicode="&#x438;" 
d="M369 455l581 569h197l-180 -1024h-258l100 569l-582 -569h-196l180 1024h258z" />
    <glyph glyph-name="uni0439" unicode="&#x439;" 
d="M1001 1155h-593l38 229h594zM369 455l581 569h197l-180 -1024h-258l100 569l-582 -569h-196l180 1024h258z" />
    <glyph glyph-name="uni043A" unicode="&#x43a;" horiz-adv-x="1058" 
d="M813 1024h313l-493 -506l325 -518h-286l-293 481l-84 -481h-264l180 1024h264l-76 -432z" />
    <glyph glyph-name="uni043B" unicode="&#x43b;" horiz-adv-x="1118" 
d="M279 1024h811l-181 -1024h-264l135 770h-282l-60 -342q-44 -250 -168 -351.5t-338 -76.5l41 248q162 -34 203 194z" />
    <glyph glyph-name="uni043C" unicode="&#x43c;" horiz-adv-x="1306" 
d="M997 1024h279l-180 -1024h-256l106 600l-336 -412h-30l-189 414l-106 -602h-254l180 1024h258l180 -438z" />
    <glyph glyph-name="uni043D" unicode="&#x43d;" 
d="M815 637l68 387h264l-180 -1024h-265l68 389h-408l-67 -389h-264l180 1024h264l-67 -387h407z" />
    <glyph glyph-name="uni043E" unicode="&#x43e;" horiz-adv-x="1216" 
d="M541 -29q-254 0 -383 170q-130 174 -84 404q44 218 213 362q172 146 405 146q239 0 365 -172q129 -169 88 -396q-38 -218 -211 -366q-174 -148 -393 -148zM559 229q116 0 209 78q94 76 115 207q24 125 -40.5 203t-183.5 78q-117 0 -207 -78t-114 -205q-23 -127 40 -205
t181 -78z" />
    <glyph glyph-name="uni043F" unicode="&#x43f;" 
d="M211 1024h936l-180 -1024h-265l138 776h-408l-137 -776h-264z" />
    <glyph glyph-name="uni0440" unicode="&#x440;" horiz-adv-x="1284" 
d="M797 1053q216 0 333 -170q119 -168 82 -391q-35 -222 -188 -369q-158 -152 -377 -152q-226 0 -328 172l-96 -553h-264l252 1434h264l-18 -106q135 135 340 135zM948 510q23 129 -41.5 210t-187.5 81q-117 0 -208 -71.5t-122 -188.5l-8 -52q-13 -121 55 -193.5t187 -72.5
q120 0 211 76q93 78 114 211z" />
    <glyph glyph-name="uni0441" unicode="&#x441;" horiz-adv-x="1105" 
d="M539 -29q-239 0 -373 162q-134 166 -94 399q35 226 207 373q177 148 405 148q156 0 269 -71.5t163 -195.5l-239 -127q-56 134 -215 134q-117 0 -213 -78q-92 -77 -113 -197q-20 -123 43.5 -204t181.5 -81q159 0 254 138l213 -138q-77 -126 -206 -194t-283 -68z" />
    <glyph glyph-name="uni0442" unicode="&#x442;" horiz-adv-x="948" 
d="M111 1024h907l-45 -254h-320l-135 -770h-264l135 770h-321z" />
    <glyph glyph-name="uni0443" unicode="&#x443;" horiz-adv-x="1075" 
d="M518 334l350 690h293l-553 -1024q-122 -229 -270 -325t-344 -85l43 246q109 -1 172 40.5t119 150.5l6 10l-238 987h271z" />
    <glyph glyph-name="uni0444" unicode="&#x444;" horiz-adv-x="1404" 
d="M993 1434l-69 -398q218 -41 331 -192q113 -148 78 -350q-34 -205 -192 -344q-156 -138 -402 -168l-69 -392h-258l69 398q-221 41 -334 190q-112 150 -77 352q34 205 192 344q163 141 404 168l69 392h258zM1075 512q19 105 -31.5 177.5t-162.5 98.5l-99 -552
q123 26 199.5 99t93.5 177zM328 512q-17 -104 34 -177t162 -99l99 552q-122 -26 -199 -98.5t-96 -177.5z" />
    <glyph glyph-name="uni0445" unicode="&#x445;" horiz-adv-x="1075" 
d="M825 1024h314l-451 -510l287 -514h-287l-176 315l-279 -315h-313l471 532l-274 492h286l164 -293z" />
    <glyph glyph-name="uni0446" unicode="&#x446;" horiz-adv-x="1239" 
d="M1112 1024l-137 -776h172l-92 -522h-258l49 274h-815l180 1024h264l-137 -776h373l137 776h264z" />
    <glyph glyph-name="uni0447" unicode="&#x447;" horiz-adv-x="1107" 
d="M737 575l78 449h264l-180 -1024h-264l57 322q-126 -33 -239 -33q-187 0 -286.5 101t-68.5 267l64 367h264l-59 -336q-12 -74 27.5 -113.5t129.5 -39.5q94 0 213 40z" />
    <glyph glyph-name="uni0448" unicode="&#x448;" horiz-adv-x="1705" 
d="M1274 248l137 776h264l-180 -1024h-1464l180 1024h264l-137 -776h336l137 776h264l-137 -776h336z" />
    <glyph glyph-name="uni0449" unicode="&#x449;" horiz-adv-x="1736" 
d="M1380 1024h265l-138 -776h138l-95 -522h-258l49 274h-1310l180 1024h264l-137 -776h319l138 776h264l-137 -776h321z" />
    <glyph glyph-name="uni044A" unicode="&#x44a;" horiz-adv-x="1175" 
d="M575 696h201q164 0 254 -106q95 -105 68 -260q-29 -159 -144 -244.5t-301 -85.5h-465l136 770h-277l43 254h543zM735 465h-200l-41 -232h200q56 0 98.5 32.5t49.5 82.5q8 51 -22 84t-85 33z" />
    <glyph glyph-name="uni044B" unicode="&#x44b;" horiz-adv-x="1468" 
d="M418 696h198q164 0 254 -106q95 -105 68 -260q-29 -159 -144 -244.5t-300 -85.5h-463l180 1024h264zM993 0l181 1024h264l-181 -1024h-264zM578 465h-201l-41 -232h201q56 0 98 32t49 83q8 51 -21.5 84t-84.5 33z" />
    <glyph glyph-name="uni044C" unicode="&#x44c;" horiz-adv-x="1017" 
d="M418 696h198q164 0 254 -106q95 -105 68 -260q-29 -159 -144 -244.5t-300 -85.5h-463l180 1024h264zM578 465h-201l-41 -232h201q56 0 98 32t49 83q8 51 -21.5 84t-84.5 33z" />
    <glyph glyph-name="uni044D" unicode="&#x44d;" horiz-adv-x="1105" 
d="M575 1053q233 0 365 -166q134 -166 94 -395q-41 -234 -209 -377q-169 -144 -407 -144q-149 0 -266 72.5t-164 194.5l233 122q53 -135 228 -135q87 0 164 45t124 123h-346l43 238h344q-17 79 -77.5 123.5t-151.5 44.5q-168 0 -264 -140l-207 132q80 122 212.5 192
t284.5 70z" />
    <glyph glyph-name="uni044E" unicode="&#x44e;" horiz-adv-x="1660" 
d="M1141 1053q236 0 362 -172q127 -170 86 -396q-37 -217 -209 -366q-174 -148 -393 -148q-206 0 -332 117q-124 118 -139 301h-154l-67 -389h-264l180 1024h264l-67 -387h143q64 183 223 299q156 117 367 117zM1331 514q23 125 -42.5 203t-184.5 78t-210.5 -78t-115.5 -205
q-20 -127 44.5 -205t181.5 -78q114 0 210 78t117 207z" />
    <glyph glyph-name="uni044F" unicode="&#x44f;" horiz-adv-x="1062" 
d="M553 1024h479l-180 -1024h-258l55 319h-92l-285 -319h-311l326 356q-92 47 -138.5 140.5t-27.5 193.5q24 142 139 238q116 96 293 96zM377 664q-8 -52 22.5 -86.5t89.5 -34.5h201l43 245h-201q-59 0 -101.5 -34.5t-53.5 -89.5z" />
    <glyph glyph-name="uni0451" unicode="&#x451;" horiz-adv-x="1193" 
d="M637 1171q-47 -38 -105 -38t-90 38q-32 41 -22 98.5t57 98.5t105 41t90 -41q35 -41 25 -98.5t-60 -98.5zM1026 1171q-47 -38 -105 -38t-90 38q-32 41 -22 98.5t57 98.5t105 41t90 -41q35 -41 25 -98.5t-60 -98.5zM1128 512q-3 -41 -28 -109h-774q7 -95 72.5 -143.5
t172.5 -48.5q154 0 252 104l187 -149q-174 -195 -459 -195q-256 0 -387 162q-132 164 -92 399q34 225 209 371q176 150 401 150q224 0 358 -158q131 -155 88 -383zM362 610h521q-1 101 -60 153t-157 52q-103 0 -182 -53.5t-122 -151.5z" />
    <glyph glyph-name="uni0452" unicode="&#x452;" horiz-adv-x="1189" 
d="M786 1053q170 0 265 -115q96 -115 61 -309l-115 -649q-43 -233 -166.5 -331.5t-353.5 -86.5l47 254q91 -6 141.5 33t67.5 131l109 616q18 102 -27 156.5t-141 54.5q-104 0 -176 -64.5t-92 -189.5v6l-99 -559h-264l199 1135h-127l30 172h127l23 127h264l-22 -127h290
l-30 -172h-291l-39 -224q121 142 319 142z" />
    <glyph glyph-name="uni0453" unicode="&#x453;" horiz-adv-x="825" 
d="M594 1434h324l-269 -281h-260zM166 770l45 254h700l-43 -254h-438l-135 -770h-264z" />
    <glyph glyph-name="uni0454" unicode="&#x454;" horiz-adv-x="1105" 
d="M549 225q177 0 270 140l209 -132q-80 -122 -213 -192t-285 -70q-231 0 -366 166q-132 167 -92 395q40 230 211 375q175 146 403 146q149 0 266 -72.5t164 -194.5l-231 -120q-56 133 -223 133q-89 0 -166 -45.5t-125 -122.5h342l-43 -238h-342q19 -76 78 -122t143 -46z
" />
    <glyph glyph-name="uni0455" unicode="&#x455;" horiz-adv-x="962" 
d="M422 -29q-314 0 -416 252l238 119q40 -131 200 -131q135 0 150 80q5 39 -38.5 65t-133.5 54q-51 13 -91 28t-85 42.5t-72.5 62.5t-41 89t-1.5 120q27 146 145 221q121 80 271 80q133 0 233.5 -57t147.5 -160l-238 -119q-38 102 -158 102q-119 0 -137 -88q-7 -43 37 -70
t131 -51q25 -6 46 -11.5t46.5 -14t45.5 -18t42.5 -21.5t39 -27.5t32.5 -33.5t26 -40.5t16 -48.5t6 -57.5t-7 -67.5q-26 -146 -142 -222.5t-292 -76.5z" />
    <glyph glyph-name="uni0456" unicode="&#x456;" horiz-adv-x="505" 
d="M231 1309q11 68 66.5 116t122.5 48t107.5 -49t29.5 -115q-12 -68 -67.5 -115t-122.5 -47t-107 48t-29 114zM295 0h-264l180 1024h264z" />
    <glyph glyph-name="uni0457" unicode="&#x457;" horiz-adv-x="505" 
d="M268 1163q-47 -38 -104.5 -38t-89.5 38q-32 41 -22 98.5t57 98.5t104.5 41t89.5 -41q35 -41 25 -98.5t-60 -98.5zM657 1163q-47 -38 -104.5 -38t-89.5 38q-32 41 -22 98.5t57 98.5t104.5 41t89.5 -41q35 -41 25 -98.5t-60 -98.5zM295 0h-264l180 1024h264z" />
    <glyph glyph-name="uni0458" unicode="&#x458;" horiz-adv-x="540" 
d="M592 1309q-10 -67 -66 -114.5t-125 -47.5q-67 0 -106.5 48t-28.5 114q11 68 66.5 116t122.5 48t107.5 -49t29.5 -115zM61 -20l185 1044h264l-184 -1044q-41 -237 -164.5 -334.5t-354.5 -83.5l46 254q181 -12 208 164z" />
    <glyph glyph-name="uni0459" unicode="&#x459;" horiz-adv-x="1581" 
d="M1008 672h188q154 0 242 -101t61 -254q-26 -152 -137.5 -234.5t-284.5 -82.5h-452l135 770h-262l-60 -342q-44 -250 -168 -351.5t-338 -76.5l41 248q163 -30 203 194l103 582h790zM1245 336q7 48 -18.5 75t-71.5 27h-188l-37 -205h190q46 0 80.5 27.5t44.5 75.5z" />
    <glyph glyph-name="uni045A" unicode="&#x45a;" horiz-adv-x="1634" 
d="M1061 672h188q154 0 242 -101t61 -254q-26 -152 -137.5 -234.5t-284.5 -82.5h-452l74 424h-383l-74 -424h-264l180 1024h264l-61 -352h383l61 352h264zM1210 438h-190l-37 -205h191q46 0 81.5 27.5t42.5 75.5t-17.5 75t-70.5 27z" />
    <glyph glyph-name="uni045B" unicode="&#x45b;" horiz-adv-x="1189" 
d="M786 1053q170 0 265 -115q96 -115 61 -309l-111 -629h-264l105 596q18 102 -27 156.5t-141 54.5q-104 0 -176 -64.5t-92 -189.5v6l-99 -559h-264l199 1135h-127l30 172h127l23 127h264l-22 -127h290l-30 -172h-291l-39 -224q121 142 319 142z" />
    <glyph glyph-name="uni045C" unicode="&#x45c;" horiz-adv-x="1058" 
d="M707 1434h323l-268 -281h-260zM813 1024h313l-493 -506l325 -518h-286l-293 481l-84 -481h-264l180 1024h264l-76 -432z" />
    <glyph glyph-name="uni045E" unicode="&#x45e;" horiz-adv-x="1075" 
d="M365 1384h593l-38 -229h-594zM518 334l350 690h293l-553 -1024q-122 -229 -270 -325t-344 -85l43 246q109 -1 172 40.5t119 150.5l6 10l-238 987h271z" />
    <glyph glyph-name="uni045F" unicode="&#x45f;" 
d="M745 248l138 776h264l-180 -1024h-338l-49 -274h-258l49 274h-340l180 1024h264l-137 -776h407z" />
    <glyph glyph-name="uni0490" unicode="&#x490;" horiz-adv-x="972" 
d="M829 1434l43 245h283l-92 -516h-533l-204 -1163h-283l252 1434h534z" />
    <glyph glyph-name="uni0491" unicode="&#x491;" horiz-adv-x="825" 
d="M653 1024l37 207h258l-80 -461h-438l-135 -770h-264l135 770l45 254h442z" />
    <glyph glyph-name="Wgrave" unicode="&#x1e80;" horiz-adv-x="2045" 
d="M1366 1563h-250l-184 280h307zM342 0h322l434 946l104 -946h322l653 1434h-305l-463 -1063l-115 1063h-241l-488 -1063l-92 1063h-280z" />
    <glyph glyph-name="wgrave" unicode="&#x1e81;" horiz-adv-x="1593" 
d="M942 1434l127 -281h-250l-184 281h307zM1081 393l281 631h291l-506 -1024h-252l-80 618l-283 -618h-266l-145 1024h264l74 -629l286 629h256z" />
    <glyph glyph-name="Wacute" unicode="&#x1e82;" horiz-adv-x="2045" 
d="M1044 1563l205 280h324l-268 -280h-261zM342 0h322l434 946l104 -946h322l653 1434h-305l-463 -1063l-115 1063h-241l-488 -1063l-92 1063h-280z" />
    <glyph glyph-name="wacute" unicode="&#x1e83;" horiz-adv-x="1593" 
d="M952 1434h324l-268 -281h-260zM1081 393l281 631h291l-506 -1024h-252l-80 618l-283 -618h-266l-145 1024h264l74 -629l286 629h256z" />
    <glyph glyph-name="Wdieresis" unicode="&#x1e84;" horiz-adv-x="2045" 
d="M1110 1573q-47 -38 -105 -38t-90 38q-32 41 -22 98t57 98t105 41t90 -41q35 -41 25 -98t-60 -98zM1499 1573q-47 -38 -104.5 -38t-89.5 38q-32 41 -22.5 98t56.5 98t105 41t90 -41q35 -41 25 -98t-60 -98zM664 0h-322l-149 1434h280l92 -1063l488 1063h241l115 -1063
l463 1063h305l-653 -1434h-322l-104 946z" />
    <glyph glyph-name="wdieresis" unicode="&#x1e85;" horiz-adv-x="1593" 
d="M813 1163q-47 -38 -105 -38t-90 38q-32 41 -22 98.5t57 98.5t105 41t90 -41q35 -41 25 -98.5t-60 -98.5zM1202 1163q-47 -38 -104.5 -38t-89.5 38q-32 41 -22.5 98.5t56.5 98.5t105 41t90 -41q35 -41 25 -98.5t-60 -98.5zM1081 393l281 631h291l-506 -1024h-252l-80 618
l-283 -618h-266l-145 1024h264l74 -629l286 629h256z" />
    <glyph glyph-name="uni1EA0" unicode="&#x1ea0;" horiz-adv-x="1368" 
d="M367 -309q9 66 63.5 112.5t120.5 46.5q67 0 105.5 -47t29.5 -112q-12 -67 -66 -113.5t-120 -46.5t-105 47t-28 113zM1272 0h-305l-37 258h-574l-133 -258h-309l756 1434h350zM805 1120l-311 -598h397z" />
    <glyph glyph-name="uni1EA1" unicode="&#x1ea1;" horiz-adv-x="1284" 
d="M356 -309q9 66 64 112.5t121 46.5q67 0 105.5 -47t29.5 -112q-12 -67 -66.5 -113.5t-120.5 -46.5t-105 47t-28 113zM965 887l24 137h264l-180 -1024h-264l16 94q-132 -123 -340 -123q-230 0 -344 170q-113 168 -69 396q41 220 196 366q159 150 381 150q217 0 316 -166z
M567 223q119 0 211.5 75.5t118.5 197.5l4 32q17 123 -50.5 198t-186.5 75q-123 0 -214 -77.5t-114 -209.5q-23 -128 42 -209.5t189 -81.5z" />
    <glyph glyph-name="uni1EA2" unicode="&#x1ea2;" horiz-adv-x="1368" 
d="M948 1546h-174q14 83 34.5 112.5t68.5 51.5l20 12q28 17 33 43q2 10 -5 17.5t-24 7.5q-29 0 -50.5 -12t-41.5 -47l-141 57q95 154 264 154q90 0 139.5 -45t34.5 -125q-19 -108 -109 -152q-25 -10 -36.5 -24.5t-12.5 -49.5zM1272 0h-305l-37 258h-574l-133 -258h-309
l756 1434h350zM805 1120l-311 -598h397z" />
    <glyph glyph-name="uni1EA3" unicode="&#x1ea3;" horiz-adv-x="1284" 
d="M881 1137h-174q14 83 34 112t68 51l20 13q28 17 33 43q2 10 -4.5 17t-23.5 7q-29 0 -51 -12t-42 -47l-141 57q95 154 264 154q90 0 139.5 -45t34.5 -125q-19 -108 -108 -152q-26 -10 -37 -24.5t-12 -48.5zM965 887l24 137h264l-180 -1024h-264l16 94q-132 -123 -340 -123
q-230 0 -344 170q-113 168 -69 396q41 220 196 366q159 150 381 150q217 0 316 -166zM567 223q119 0 211.5 75.5t118.5 197.5l4 32q17 123 -50.5 198t-186.5 75q-123 0 -214 -77.5t-114 -209.5q-23 -128 42 -209.5t189 -81.5z" />
    <glyph glyph-name="uni1EA4" unicode="&#x1ea4;" horiz-adv-x="1368" 
d="M1272 0h-305l-37 258h-574l-133 -258h-309l756 1434h350zM805 1120l-311 -598h397zM944 1546l-57 125l-111 -125h-244l248 277h248l156 -277h-240zM1108 1751l190 260h301l-249 -260h-242z" />
    <glyph glyph-name="uni1EA5" unicode="&#x1ea5;" horiz-adv-x="1284" 
d="M879 1137l-58 125l-110 -125h-244l248 276h248l155 -276h-239zM965 887l24 137h264l-180 -1024h-264l16 94q-132 -123 -340 -123q-230 0 -344 170q-113 168 -69 396q41 220 196 366q159 150 381 150q217 0 316 -166zM567 223q119 0 211.5 75.5t118.5 197.5l4 32
q17 123 -50.5 198t-186.5 75q-123 0 -214 -77.5t-114 -209.5q-23 -128 42 -209.5t189 -81.5zM1042 1341l191 261h301l-250 -261h-242z" />
    <glyph glyph-name="uni1EA6" unicode="&#x1ea6;" horiz-adv-x="1368" 
d="M1272 0h-305l-37 258h-574l-133 -258h-309l756 1434h350zM805 1120l-311 -598h397zM944 1546l-57 125l-111 -125h-244l248 277h248l156 -277h-240zM1364 1751h-231l-172 260h284z" />
    <glyph glyph-name="uni1EA7" unicode="&#x1ea7;" horiz-adv-x="1284" 
d="M879 1137l-58 125l-110 -125h-244l248 276h248l155 -276h-239zM965 887l24 137h264l-180 -1024h-264l16 94q-132 -123 -340 -123q-230 0 -344 170q-113 168 -69 396q41 220 196 366q159 150 381 150q217 0 316 -166zM567 223q119 0 211.5 75.5t118.5 197.5l4 32
q17 123 -50.5 198t-186.5 75q-123 0 -214 -77.5t-114 -209.5q-23 -128 42 -209.5t189 -81.5zM1298 1341h-231l-172 261h285z" />
    <glyph glyph-name="uni1EA8" unicode="&#x1ea8;" horiz-adv-x="1368" 
d="M1272 0h-305l-37 258h-574l-133 -258h-309l756 1434h350zM805 1120l-311 -598h397zM944 1546l-57 125l-111 -125h-244l248 277h248l156 -277h-240zM1270 1751h-162q13 77 31 104.5t63 49.5l19 10q26 15 30 41q2 9 -4 15.5t-22 6.5q-27 0 -47 -11t-39 -44l-131 53
q90 144 245 144q84 0 129.5 -42.5t32.5 -117.5q-8 -52 -36 -87t-64 -52q-23 -10 -33.5 -24t-11.5 -46z" />
    <glyph glyph-name="uni1EA9" unicode="&#x1ea9;" horiz-adv-x="1284" 
d="M879 1137l-58 125l-110 -125h-244l248 276h248l155 -276h-239zM965 887l24 137h264l-180 -1024h-264l16 94q-132 -123 -340 -123q-230 0 -344 170q-113 168 -69 396q41 220 196 366q159 150 381 150q217 0 316 -166zM567 223q119 0 211.5 75.5t118.5 197.5l4 32
q17 123 -50.5 198t-186.5 75q-123 0 -214 -77.5t-114 -209.5q-23 -128 42 -209.5t189 -81.5zM1204 1341h-162q13 77 31.5 104.5t63.5 49.5l18 10q27 16 31 41q2 9 -4.5 16t-22.5 7q-54 0 -86 -56l-131 54q90 143 246 143q84 0 129.5 -42.5t32.5 -117.5q-8 -52 -36.5 -87
t-64.5 -52q-23 -10 -33.5 -24t-11.5 -46z" />
    <glyph glyph-name="uni1EAA" unicode="&#x1eaa;" horiz-adv-x="1368" 
d="M1272 0h-305l-37 258h-574l-133 -258h-309l756 1434h350zM805 1120l-311 -598h397zM944 1546l-57 125l-111 -125h-244l248 277h248l156 -277h-240zM795 1874h-193q12 104 51.5 170.5t93 88.5t112.5 13t114 -47q45 -40 71.5 -31.5t38.5 74.5h193q-12 -102 -51.5 -168.5
t-92.5 -88.5t-112.5 -13t-114.5 49q-47 38 -73.5 28.5t-36.5 -75.5z" />
    <glyph glyph-name="uni1EAB" unicode="&#x1eab;" horiz-adv-x="1284" 
d="M879 1137l-58 125l-110 -125h-244l248 276h248l155 -276h-239zM965 887l24 137h264l-180 -1024h-264l16 94q-132 -123 -340 -123q-230 0 -344 170q-113 168 -69 396q41 220 196 366q159 150 381 150q217 0 316 -166zM567 223q119 0 211.5 75.5t118.5 197.5l4 32
q17 123 -50.5 198t-186.5 75q-123 0 -214 -77.5t-114 -209.5q-23 -128 42 -209.5t189 -81.5zM729 1464h-192q12 104 51.5 171t92.5 88.5t112 13t114 -46.5q45 -40 72 -31.5t39 74.5h192q-12 -103 -51 -169t-92 -88.5t-112.5 -13.5t-114.5 49q-47 38 -74 28.5t-37 -75.5z" />
    <glyph glyph-name="uni1EAC" unicode="&#x1eac;" horiz-adv-x="1368" 
d="M1272 0h-305l-37 258h-574l-133 -258h-309l756 1434h350zM805 1120l-311 -598h397zM944 1546l-57 125l-111 -125h-244l248 277h248l156 -277h-240zM367 -309q9 66 63.5 112.5t120.5 46.5q67 0 105.5 -47t29.5 -112q-12 -67 -66 -113.5t-120 -46.5t-105 47t-28 113z" />
    <glyph glyph-name="uni1EAD" unicode="&#x1ead;" horiz-adv-x="1284" 
d="M879 1137l-58 125l-110 -125h-244l248 276h248l155 -276h-239zM965 887l24 137h264l-180 -1024h-264l16 94q-132 -123 -340 -123q-230 0 -344 170q-113 168 -69 396q41 220 196 366q159 150 381 150q217 0 316 -166zM567 223q119 0 211.5 75.5t118.5 197.5l4 32
q17 123 -50.5 198t-186.5 75q-123 0 -214 -77.5t-114 -209.5q-23 -128 42 -209.5t189 -81.5zM356 -309q9 66 64 112.5t121 46.5q67 0 105.5 -47t29.5 -112q-12 -67 -66.5 -113.5t-120.5 -46.5t-105 47t-28 113z" />
    <glyph glyph-name="uni1EAE" unicode="&#x1eae;" horiz-adv-x="1368" 
d="M1272 0h-305l-37 258h-574l-133 -258h-309l756 1434h350zM805 1120l-311 -598h397zM877 1530q-151 0 -227.5 74.5t-53.5 201.5h219q-15 -100 80 -100q99 0 117 100h219q-22 -134 -111.5 -205t-242.5 -71zM774 1845l191 260h301l-250 -260h-242z" />
    <glyph glyph-name="uni1EAF" unicode="&#x1eaf;" horiz-adv-x="1284" 
d="M829 1120q-151 0 -227 75t-53 202h219q-15 -101 80 -101q99 0 117 101h219q-22 -134 -112 -205.5t-243 -71.5zM965 887l24 137h264l-180 -1024h-264l16 94q-132 -123 -340 -123q-230 0 -344 170q-113 168 -69 396q41 220 196 366q159 150 381 150q217 0 316 -166z
M567 223q119 0 211.5 75.5t118.5 197.5l4 32q17 123 -50.5 198t-186.5 75q-123 0 -214 -77.5t-114 -209.5q-23 -128 42 -209.5t189 -81.5zM727 1436l191 260h301l-250 -260h-242z" />
    <glyph glyph-name="uni1EB0" unicode="&#x1eb0;" horiz-adv-x="1368" 
d="M1272 0h-305l-37 258h-574l-133 -258h-309l756 1434h350zM805 1120l-311 -598h397zM877 1530q-151 0 -227.5 74.5t-53.5 201.5h219q-15 -100 80 -100q99 0 117 100h219q-22 -134 -111.5 -205t-242.5 -71zM1049 1845h-232l-172 260h285z" />
    <glyph glyph-name="uni1EB1" unicode="&#x1eb1;" horiz-adv-x="1284" 
d="M829 1120q-151 0 -227 75t-53 202h219q-15 -101 80 -101q99 0 117 101h219q-22 -134 -112 -205.5t-243 -71.5zM965 887l24 137h264l-180 -1024h-264l16 94q-132 -123 -340 -123q-230 0 -344 170q-113 168 -69 396q41 220 196 366q159 150 381 150q217 0 316 -166z
M567 223q119 0 211.5 75.5t118.5 197.5l4 32q17 123 -50.5 198t-186.5 75q-123 0 -214 -77.5t-114 -209.5q-23 -128 42 -209.5t189 -81.5zM1001 1436h-231l-172 260h285z" />
    <glyph glyph-name="uni1EB2" unicode="&#x1eb2;" horiz-adv-x="1368" 
d="M1272 0h-305l-37 258h-574l-133 -258h-309l756 1434h350zM805 1120l-311 -598h397zM877 1530q-151 0 -227.5 74.5t-53.5 201.5h219q-15 -100 80 -100q99 0 117 100h219q-22 -134 -111.5 -205t-242.5 -71zM997 1845h-161q13 77 31 104.5t63 49.5l18 10q27 16 31 41
q2 9 -4.5 16t-22.5 7q-54 0 -86 -56l-131 54q90 143 246 143q84 0 129.5 -42.5t32.5 -117.5q-8 -52 -36.5 -87t-64.5 -52q-23 -10 -33.5 -24t-11.5 -46z" />
    <glyph glyph-name="uni1EB3" unicode="&#x1eb3;" horiz-adv-x="1284" 
d="M829 1120q-151 0 -227 75t-53 202h219q-15 -101 80 -101q99 0 117 101h219q-22 -134 -112 -205.5t-243 -71.5zM965 887l24 137h264l-180 -1024h-264l16 94q-132 -123 -340 -123q-230 0 -344 170q-113 168 -69 396q41 220 196 366q159 150 381 150q217 0 316 -166z
M567 223q119 0 211.5 75.5t118.5 197.5l4 32q17 123 -50.5 198t-186.5 75q-123 0 -214 -77.5t-114 -209.5q-23 -128 42 -209.5t189 -81.5zM950 1436h-162q13 77 31.5 104t63.5 49l18 10q27 16 31 41q2 9 -4.5 16t-22.5 7q-27 0 -47 -11t-39 -44l-131 53q90 143 246 143
q84 0 129.5 -42t32.5 -117q-8 -52 -36.5 -87.5t-64.5 -52.5q-24 -10 -34 -23.5t-11 -45.5z" />
    <glyph glyph-name="uni1EB4" unicode="&#x1eb4;" horiz-adv-x="1368" 
d="M1272 0h-305l-37 258h-574l-133 -258h-309l756 1434h350zM805 1120l-311 -598h397zM877 1530q-151 0 -227.5 74.5t-53.5 201.5h219q-15 -100 80 -100q99 0 117 100h219q-22 -134 -111.5 -205t-242.5 -71zM803 1839h-195q12 104 52 171.5t93.5 89.5t113 13t114.5 -47
q45 -40 72 -31.5t39 74.5h194q-10 -83 -37.5 -143t-66 -90t-84.5 -39t-93.5 4.5t-91.5 44.5q-47 38 -73.5 28.5t-36.5 -75.5z" />
    <glyph glyph-name="uni1EB5" unicode="&#x1eb5;" horiz-adv-x="1284" 
d="M829 1120q-151 0 -227 75t-53 202h219q-15 -101 80 -101q99 0 117 101h219q-22 -134 -112 -205.5t-243 -71.5zM965 887l24 137h264l-180 -1024h-264l16 94q-132 -123 -340 -123q-230 0 -344 170q-113 168 -69 396q41 220 196 366q159 150 381 150q217 0 316 -166z
M567 223q119 0 211.5 75.5t118.5 197.5l4 32q17 123 -50.5 198t-186.5 75q-123 0 -214 -77.5t-114 -209.5q-23 -128 42 -209.5t189 -81.5zM756 1430h-195q12 104 52 171.5t93.5 89.5t113 13t114.5 -47q45 -40 71.5 -31.5t38.5 74.5h195q-10 -83 -37.5 -143t-66 -90
t-84.5 -39t-93.5 4.5t-91.5 44.5q-47 38 -73.5 28.5t-36.5 -75.5z" />
    <glyph glyph-name="uni1EB6" unicode="&#x1eb6;" horiz-adv-x="1368" 
d="M1272 0h-305l-37 258h-574l-133 -258h-309l756 1434h350zM805 1120l-311 -598h397zM877 1530q-151 0 -227.5 74.5t-53.5 201.5h219q-15 -100 80 -100q99 0 117 100h219q-22 -134 -111.5 -205t-242.5 -71zM367 -309q9 66 63.5 112.5t120.5 46.5q67 0 105.5 -47t29.5 -112
q-12 -67 -66 -113.5t-120 -46.5t-105 47t-28 113z" />
    <glyph glyph-name="uni1EB7" unicode="&#x1eb7;" horiz-adv-x="1284" 
d="M829 1120q-151 0 -227 75t-53 202h219q-15 -101 80 -101q99 0 117 101h219q-22 -134 -112 -205.5t-243 -71.5zM965 887l24 137h264l-180 -1024h-264l16 94q-132 -123 -340 -123q-230 0 -344 170q-113 168 -69 396q41 220 196 366q159 150 381 150q217 0 316 -166z
M567 223q119 0 211.5 75.5t118.5 197.5l4 32q17 123 -50.5 198t-186.5 75q-123 0 -214 -77.5t-114 -209.5q-23 -128 42 -209.5t189 -81.5zM356 -309q9 66 64 112.5t121 46.5q67 0 105.5 -47t29.5 -112q-12 -67 -66.5 -113.5t-120.5 -46.5t-105 47t-28 113z" />
    <glyph glyph-name="uni1EB8" unicode="&#x1eb8;" horiz-adv-x="1085" 
d="M270 -309q9 66 64 112.5t121 46.5q67 0 105.5 -47t29.5 -112q-12 -67 -66.5 -113.5t-120.5 -46.5t-105 47t-28 113zM1171 1434l-47 -271h-594l-55 -307h545l-49 -264h-541l-57 -322h604l-47 -270h-887l252 1434h876z" />
    <glyph glyph-name="uni1EB9" unicode="&#x1eb9;" horiz-adv-x="1193" 
d="M330 -309q9 66 63.5 112.5t120.5 46.5q67 0 105.5 -47t29.5 -112q-12 -67 -66 -113.5t-120 -46.5t-105 47t-28 113zM1128 512q-3 -41 -28 -109h-774q7 -95 72.5 -143.5t172.5 -48.5q154 0 252 104l187 -149q-174 -195 -459 -195q-256 0 -387 162q-132 164 -92 399
q34 225 209 371q176 150 401 150q224 0 358 -158q131 -155 88 -383zM362 610h521q-1 101 -60 153t-157 52q-103 0 -182 -53.5t-122 -151.5z" />
    <glyph glyph-name="uni1EBA" unicode="&#x1eba;" horiz-adv-x="1085" 
d="M860 1546h-174q14 83 34 112.5t68 51.5l21 12q28 17 33 43q2 10 -5 17.5t-24 7.5q-29 0 -50.5 -12t-41.5 -47l-141 57q95 154 264 154q90 0 139.5 -45t34.5 -125q-19 -108 -109 -152q-25 -10 -36.5 -24.5t-12.5 -49.5zM1171 1434l-47 -271h-594l-55 -307h545l-49 -264
h-541l-57 -322h604l-47 -270h-887l252 1434h876z" />
    <glyph glyph-name="uni1EBB" unicode="&#x1ebb;" horiz-adv-x="1193" 
d="M827 1137h-174q14 83 34.5 112t68.5 51l20 13q28 17 33 43q2 10 -5 17t-24 7q-29 0 -50.5 -12t-41.5 -47l-141 57q95 154 264 154q90 0 139.5 -45t34.5 -125q-19 -108 -108 -152q-26 -10 -37.5 -24.5t-12.5 -48.5zM1128 512q-3 -41 -28 -109h-774q7 -95 72.5 -143.5
t172.5 -48.5q154 0 252 104l187 -149q-174 -195 -459 -195q-256 0 -387 162q-132 164 -92 399q34 225 209 371q176 150 401 150q224 0 358 -158q131 -155 88 -383zM362 610h521q-1 101 -60 153t-157 52q-103 0 -182 -53.5t-122 -151.5z" />
    <glyph glyph-name="uni1EBC" unicode="&#x1ebc;" horiz-adv-x="1085" 
d="M1171 1434l-47 -271h-594l-55 -307h545l-49 -264h-541l-57 -322h604l-47 -270h-887l252 1434h876zM621 1556h-213q10 92 41 158.5t73.5 99.5t93 43t102.5 -4.5t99 -48.5q51 -43 81 -33t42 82h213q-10 -92 -40.5 -158t-73 -99t-93 -43t-102 4.5t-99.5 48.5
q-54 43 -83 32.5t-41 -82.5z" />
    <glyph glyph-name="uni1EBD" unicode="&#x1ebd;" horiz-adv-x="1193" 
d="M1128 512q-3 -41 -28 -109h-774q7 -95 72.5 -143.5t172.5 -48.5q154 0 252 104l187 -149q-174 -195 -459 -195q-256 0 -387 162q-132 164 -92 399q34 225 209 371q176 150 401 150q224 0 358 -158q131 -155 88 -383zM362 610h521q-1 101 -60 153t-157 52
q-103 0 -182 -53.5t-122 -151.5zM598 1155h-213q10 92 41 158.5t73.5 99.5t93.5 43t103 -4.5t99 -48.5q51 -43 81 -33t42 82h212q-13 -114 -56 -187.5t-101.5 -98t-124 -15t-125.5 52.5q-54 43 -83.5 33t-41.5 -82z" />
    <glyph glyph-name="uni1EBE" unicode="&#x1ebe;" horiz-adv-x="1085" 
d="M831 1546l-57 125l-110 -125h-244l248 277h247l156 -277h-240zM1171 1434l-47 -271h-594l-55 -307h545l-49 -264h-541l-57 -322h604l-47 -270h-887l252 1434h876zM995 1751l191 260h301l-250 -260h-242z" />
    <glyph glyph-name="uni1EBF" unicode="&#x1ebf;" horiz-adv-x="1193" 
d="M821 1145l-57 125l-111 -125h-243l247 276h248l156 -276h-240zM1128 512q-3 -41 -28 -109h-774q7 -95 72.5 -143.5t172.5 -48.5q154 0 252 104l187 -149q-174 -195 -459 -195q-256 0 -387 162q-132 164 -92 399q34 225 209 371q176 150 401 150q224 0 358 -158
q131 -155 88 -383zM362 610h521q-1 101 -60 153t-157 52q-103 0 -182 -53.5t-122 -151.5zM985 1350l191 260h301l-250 -260h-242z" />
    <glyph glyph-name="uni1EC0" unicode="&#x1ec0;" horiz-adv-x="1085" 
d="M831 1546l-57 125l-110 -125h-244l248 277h247l156 -277h-240zM1171 1434l-47 -271h-594l-55 -307h545l-49 -264h-541l-57 -322h604l-47 -270h-887l252 1434h876zM1251 1751h-231l-172 260h285z" />
    <glyph glyph-name="uni1EC1" unicode="&#x1ec1;" horiz-adv-x="1193" 
d="M821 1145l-57 125l-111 -125h-243l247 276h248l156 -276h-240zM1128 512q-3 -41 -28 -109h-774q7 -95 72.5 -143.5t172.5 -48.5q154 0 252 104l187 -149q-174 -195 -459 -195q-256 0 -387 162q-132 164 -92 399q34 225 209 371q176 150 401 150q224 0 358 -158
q131 -155 88 -383zM362 610h521q-1 101 -60 153t-157 52q-103 0 -182 -53.5t-122 -151.5zM1241 1350h-231l-172 260h284z" />
    <glyph glyph-name="uni1EC2" unicode="&#x1ec2;" horiz-adv-x="1085" 
d="M831 1546l-57 125l-110 -125h-244l248 277h247l156 -277h-240zM1171 1434l-47 -271h-594l-55 -307h545l-49 -264h-541l-57 -322h604l-47 -270h-887l252 1434h876zM1157 1751h-162q13 77 31.5 104.5t63.5 49.5l18 10q27 16 31 41q2 9 -4.5 15.5t-22.5 6.5q-27 0 -47 -11
t-39 -44l-131 53q90 144 246 144q84 0 129.5 -42.5t32.5 -117.5q-8 -52 -36.5 -87t-64.5 -52q-23 -10 -33.5 -24t-11.5 -46z" />
    <glyph glyph-name="uni1EC3" unicode="&#x1ec3;" horiz-adv-x="1193" 
d="M821 1145l-57 125l-111 -125h-243l247 276h248l156 -276h-240zM1128 512q-3 -41 -28 -109h-774q7 -95 72.5 -143.5t172.5 -48.5q154 0 252 104l187 -149q-174 -195 -459 -195q-256 0 -387 162q-132 164 -92 399q34 225 209 371q176 150 401 150q224 0 358 -158
q131 -155 88 -383zM362 610h521q-1 101 -60 153t-157 52q-103 0 -182 -53.5t-122 -151.5zM1147 1350h-162q13 77 31 104t63 49l19 10q26 15 30 41q2 9 -4 16t-22 7q-27 0 -47 -11t-39 -44l-131 53q90 143 245 143q84 0 129.5 -42t32.5 -117q-8 -52 -36 -87.5t-64 -52.5
q-24 -10 -34 -23.5t-11 -45.5z" />
    <glyph glyph-name="uni1EC4" unicode="&#x1ec4;" horiz-adv-x="1085" 
d="M831 1546l-57 125l-110 -125h-244l248 277h247l156 -277h-240zM1171 1434l-47 -271h-594l-55 -307h545l-49 -264h-541l-57 -322h604l-47 -270h-887l252 1434h876zM682 1874h-193q12 104 51.5 170.5t93 88.5t112.5 13t114 -47q45 -40 72 -31.5t39 74.5h192
q-12 -103 -51 -169t-92 -88t-112.5 -13t-114.5 49q-47 38 -74 28.5t-37 -75.5z" />
    <glyph glyph-name="uni1EC5" unicode="&#x1ec5;" horiz-adv-x="1193" 
d="M821 1145l-57 125l-111 -125h-243l247 276h248l156 -276h-240zM1128 512q-3 -41 -28 -109h-774q7 -95 72.5 -143.5t172.5 -48.5q154 0 252 104l187 -149q-174 -195 -459 -195q-256 0 -387 162q-132 164 -92 399q34 225 209 371q176 150 401 150q224 0 358 -158
q131 -155 88 -383zM362 610h521q-1 101 -60 153t-157 52q-103 0 -182 -53.5t-122 -151.5zM672 1473h-193q12 104 51.5 170.5t93 88.5t112.5 13t114 -47q45 -40 72 -31.5t39 74.5h192q-12 -102 -51.5 -168.5t-92.5 -88.5t-112.5 -13t-114.5 49q-47 38 -73.5 28.5t-36.5 -75.5
z" />
    <glyph glyph-name="uni1EC6" unicode="&#x1ec6;" horiz-adv-x="1085" 
d="M831 1546l-57 125l-110 -125h-244l248 277h247l156 -277h-240zM1171 1434l-47 -271h-594l-55 -307h545l-49 -264h-541l-57 -322h604l-47 -270h-887l252 1434h876zM270 -309q9 66 64 112.5t121 46.5q67 0 105.5 -47t29.5 -112q-12 -67 -66.5 -113.5t-120.5 -46.5t-105 47
t-28 113z" />
    <glyph glyph-name="uni1EC7" unicode="&#x1ec7;" horiz-adv-x="1193" 
d="M821 1145l-57 125l-111 -125h-243l247 276h248l156 -276h-240zM1128 512q-3 -41 -28 -109h-774q7 -95 72.5 -143.5t172.5 -48.5q154 0 252 104l187 -149q-174 -195 -459 -195q-256 0 -387 162q-132 164 -92 399q34 225 209 371q176 150 401 150q224 0 358 -158
q131 -155 88 -383zM362 610h521q-1 101 -60 153t-157 52q-103 0 -182 -53.5t-122 -151.5zM330 -309q9 66 63.5 112.5t120.5 46.5q67 0 105.5 -47t29.5 -112q-12 -67 -66 -113.5t-120 -46.5t-105 47t-28 113z" />
    <glyph glyph-name="uni1EC8" unicode="&#x1ec8;" horiz-adv-x="548" 
d="M539 1546h-174q14 83 34 112.5t68 51.5l20 12q28 17 33 43q2 11 -4.5 18t-23.5 7q-29 0 -51 -12t-42 -47l-141 57q95 154 264 154q90 0 139.5 -45t34.5 -125q-19 -108 -108 -152q-25 -10 -36.5 -24.5t-12.5 -49.5zM43 0l252 1434h283l-252 -1434h-283z" />
    <glyph glyph-name="uni1EC9" unicode="&#x1ec9;" horiz-adv-x="505" 
d="M295 0h-264l180 1024h264zM449 1137h-175q14 83 34.5 112t68.5 51l20 13q28 17 33 43q2 10 -5 17t-24 7q-29 0 -50.5 -12t-41.5 -47l-141 57q95 154 264 154q90 0 139.5 -45t34.5 -125q-19 -108 -108 -152q-26 -10 -37 -24.5t-12 -48.5z" />
    <glyph glyph-name="uni1ECA" unicode="&#x1eca;" horiz-adv-x="548" 
d="M-29 -309q9 66 64 112.5t121 46.5q67 0 105.5 -47t29.5 -112q-12 -67 -66.5 -113.5t-120.5 -46.5t-105 47t-28 113zM43 0l252 1434h283l-252 -1434h-283z" />
    <glyph glyph-name="uni1ECB" unicode="&#x1ecb;" horiz-adv-x="505" 
d="M-53 -309q9 66 63.5 112.5t120.5 46.5q67 0 105.5 -47t29.5 -112q-12 -67 -66 -113.5t-120 -46.5t-105 47t-28 113zM295 0h-264l180 1024h264zM229 1274q9 66 64 113t121 47q67 0 105.5 -47.5t29.5 -112.5q-12 -67 -66.5 -113.5t-120.5 -46.5t-105 47t-28 113z" />
    <glyph glyph-name="uni1ECC" unicode="&#x1ecc;" horiz-adv-x="1624" 
d="M473 -309q9 66 63.5 112.5t120.5 46.5q67 0 106 -47t30 -112q-12 -67 -66.5 -113.5t-120.5 -46.5t-105 47t-28 113zM725 -29q-312 0 -494 226q-183 230 -125 540q53 317 293 520q242 205 572 205q308 0 489 -227q184 -228 129 -541q-56 -318 -295 -520
q-241 -203 -569 -203zM758 248q201 0 356 131q158 134 195 336q34 205 -74 338q-108 135 -307 135t-353 -133q-150 -132 -188 -338q-37 -205 68 -338q107 -131 303 -131z" />
    <glyph glyph-name="uni1ECD" unicode="&#x1ecd;" horiz-adv-x="1216" 
d="M299 -309q9 66 63.5 112.5t120.5 46.5q67 0 105.5 -47t29.5 -112q-12 -67 -66 -113.5t-120 -46.5t-105 47t-28 113zM541 -29q-254 0 -383 170q-130 174 -84 404q44 218 213 362q172 146 405 146q239 0 365 -172q129 -169 88 -396q-38 -218 -211 -366q-174 -148 -393 -148
zM559 229q116 0 209 78q94 76 115 207q24 125 -40.5 203t-183.5 78q-117 0 -207 -78t-114 -205q-23 -127 40 -205t181 -78z" />
    <glyph glyph-name="uni1ECE" unicode="&#x1ece;" horiz-adv-x="1624" 
d="M1161 1546h-174q14 83 34.5 112.5t68.5 51.5l20 12q28 17 33 43q2 10 -5 17.5t-24 7.5q-29 0 -50.5 -12t-41.5 -47l-141 57q95 154 264 154q90 0 139.5 -45t34.5 -125q-19 -108 -109 -152q-25 -10 -36.5 -24.5t-12.5 -49.5zM725 -29q-312 0 -494 226q-183 230 -125 540
q53 317 293 520q242 205 572 205q308 0 489 -227q184 -228 129 -541q-56 -318 -295 -520q-241 -203 -569 -203zM758 248q201 0 356 131q158 134 195 336q34 205 -74 338q-108 135 -307 135t-353 -133q-150 -132 -188 -338q-37 -205 68 -338q107 -131 303 -131z" />
    <glyph glyph-name="uni1ECF" unicode="&#x1ecf;" horiz-adv-x="1216" 
d="M850 1137h-174q14 83 34 112t68 51l21 13q27 16 32 43q2 10 -4.5 17t-23.5 7q-29 0 -50.5 -12t-41.5 -47l-142 57q95 154 265 154q90 0 139.5 -45t34.5 -125q-19 -108 -109 -152q-26 -10 -37 -24.5t-12 -48.5zM541 -29q-254 0 -383 170q-130 174 -84 404q44 218 213 362
q172 146 405 146q239 0 365 -172q129 -169 88 -396q-38 -218 -211 -366q-174 -148 -393 -148zM559 229q116 0 209 78q94 76 115 207q24 125 -40.5 203t-183.5 78q-117 0 -207 -78t-114 -205q-23 -127 40 -205t181 -78z" />
    <glyph glyph-name="uni1ED0" unicode="&#x1ed0;" horiz-adv-x="1624" 
d="M1128 1563l-57 125l-110 -125h-244l248 276h247l156 -276h-240zM971 1462q308 0 489 -227q184 -228 129 -541q-56 -318 -295 -520q-241 -203 -569 -203q-312 0 -494 226q-183 230 -125 540q53 317 293 520q242 205 572 205zM1309 715q34 205 -74 338q-108 135 -307 135
t-353 -133q-150 -132 -188 -338q-37 -205 68 -338q107 -131 303 -131q201 0 356 131q158 134 195 336zM1292 1767l191 261h301l-250 -261h-242z" />
    <glyph glyph-name="uni1ED1" unicode="&#x1ed1;" horiz-adv-x="1216" 
d="M819 1153l-57 125l-111 -125h-243l247 277h248l156 -277h-240zM692 1053q239 0 365 -172q129 -169 88 -396q-38 -218 -211 -366q-174 -148 -393 -148q-254 0 -383 170q-130 174 -84 404q44 218 213 362q172 146 405 146zM883 514q24 125 -40.5 203t-183.5 78
q-117 0 -207 -78t-114 -205q-23 -127 40 -205t181 -78q116 0 209 78q94 76 115 207zM983 1358l191 260h301l-250 -260h-242z" />
    <glyph glyph-name="uni1ED2" unicode="&#x1ed2;" horiz-adv-x="1624" 
d="M1128 1563l-57 125l-110 -125h-244l248 276h247l156 -276h-240zM971 1462q308 0 489 -227q184 -228 129 -541q-56 -318 -295 -520q-241 -203 -569 -203q-312 0 -494 226q-183 230 -125 540q53 317 293 520q242 205 572 205zM1309 715q34 205 -74 338q-108 135 -307 135
t-353 -133q-150 -132 -188 -338q-37 -205 68 -338q107 -131 303 -131q201 0 356 131q158 134 195 336zM1548 1767h-231l-172 261h285z" />
    <glyph glyph-name="uni1ED3" unicode="&#x1ed3;" horiz-adv-x="1216" 
d="M819 1153l-57 125l-111 -125h-243l247 277h248l156 -277h-240zM692 1053q239 0 365 -172q129 -169 88 -396q-38 -218 -211 -366q-174 -148 -393 -148q-254 0 -383 170q-130 174 -84 404q44 218 213 362q172 146 405 146zM883 514q24 125 -40.5 203t-183.5 78
q-117 0 -207 -78t-114 -205q-23 -127 40 -205t181 -78q116 0 209 78q94 76 115 207zM1239 1358h-231l-172 260h284z" />
    <glyph glyph-name="uni1ED4" unicode="&#x1ed4;" horiz-adv-x="1624" 
d="M1128 1563l-57 125l-110 -125h-244l248 276h247l156 -276h-240zM971 1462q308 0 489 -227q184 -228 129 -541q-56 -318 -295 -520q-241 -203 -569 -203q-312 0 -494 226q-183 230 -125 540q53 317 293 520q242 205 572 205zM1309 715q34 205 -74 338q-108 135 -307 135
t-353 -133q-150 -132 -188 -338q-37 -205 68 -338q107 -131 303 -131q201 0 356 131q158 134 195 336zM1454 1767h-162q13 77 31 104.5t63 49.5l19 10q27 16 31 41q2 9 -4.5 16t-22.5 7q-54 0 -86 -56l-131 54q90 143 246 143q84 0 129 -42.5t32 -117.5q-8 -52 -36 -87
t-64 -52q-23 -10 -33.5 -24t-11.5 -46z" />
    <glyph glyph-name="uni1ED5" unicode="&#x1ed5;" horiz-adv-x="1216" 
d="M819 1153l-57 125l-111 -125h-243l247 277h248l156 -277h-240zM692 1053q239 0 365 -172q129 -169 88 -396q-38 -218 -211 -366q-174 -148 -393 -148q-254 0 -383 170q-130 174 -84 404q44 218 213 362q172 146 405 146zM883 514q24 125 -40.5 203t-183.5 78
q-117 0 -207 -78t-114 -205q-23 -127 40 -205t181 -78q116 0 209 78q94 76 115 207zM1145 1358h-162q13 77 31 104t63 49l19 11q26 15 30 41q2 9 -4 15.5t-22 6.5q-27 0 -47 -11t-39 -44l-131 53q90 143 245 143q84 0 129.5 -42t32.5 -117q-8 -52 -36 -87.5t-64 -52.5
q-24 -10 -34 -23.5t-11 -45.5z" />
    <glyph glyph-name="uni1ED6" unicode="&#x1ed6;" horiz-adv-x="1624" 
d="M1128 1563l-57 125l-110 -125h-244l248 276h247l156 -276h-240zM971 1462q308 0 489 -227q184 -228 129 -541q-56 -318 -295 -520q-241 -203 -569 -203q-312 0 -494 226q-183 230 -125 540q53 317 293 520q242 205 572 205zM1309 715q34 205 -74 338q-108 135 -307 135
t-353 -133q-150 -132 -188 -338q-37 -205 68 -338q107 -131 303 -131q201 0 356 131q158 134 195 336zM979 1890h-193q10 84 37.5 144t66 89.5t84.5 39t93 -3.5t90 -43q45 -40 72 -31.5t39 74.5h192q-12 -103 -51 -169t-92 -88.5t-112.5 -13.5t-114.5 49q-47 38 -74 28.5
t-37 -75.5z" />
    <glyph glyph-name="uni1ED7" unicode="&#x1ed7;" horiz-adv-x="1216" 
d="M819 1153l-57 125l-111 -125h-243l247 277h248l156 -277h-240zM692 1053q239 0 365 -172q129 -169 88 -396q-38 -218 -211 -366q-174 -148 -393 -148q-254 0 -383 170q-130 174 -84 404q44 218 213 362q172 146 405 146zM883 514q24 125 -40.5 203t-183.5 78
q-117 0 -207 -78t-114 -205q-23 -127 40 -205t181 -78q116 0 209 78q94 76 115 207zM670 1481h-193q12 104 51.5 170.5t93 88.5t112.5 13t114 -47q45 -40 71.5 -31.5t38.5 74.5h193q-12 -102 -51.5 -168.5t-92.5 -88.5t-112.5 -13t-114.5 49q-47 38 -73.5 28.5t-36.5 -75.5z
" />
    <glyph glyph-name="uni1ED8" unicode="&#x1ed8;" horiz-adv-x="1624" 
d="M1128 1563l-57 125l-110 -125h-244l248 276h247l156 -276h-240zM971 1462q308 0 489 -227q184 -228 129 -541q-56 -318 -295 -520q-241 -203 -569 -203q-312 0 -494 226q-183 230 -125 540q53 317 293 520q242 205 572 205zM1309 715q34 205 -74 338q-108 135 -307 135
t-353 -133q-150 -132 -188 -338q-37 -205 68 -338q107 -131 303 -131q201 0 356 131q158 134 195 336zM473 -309q9 66 63.5 112.5t120.5 46.5q67 0 106 -47t30 -112q-12 -67 -66.5 -113.5t-120.5 -46.5t-105 47t-28 113z" />
    <glyph glyph-name="uni1ED9" unicode="&#x1ed9;" horiz-adv-x="1216" 
d="M819 1153l-57 125l-111 -125h-243l247 277h248l156 -277h-240zM692 1053q239 0 365 -172q129 -169 88 -396q-38 -218 -211 -366q-174 -148 -393 -148q-254 0 -383 170q-130 174 -84 404q44 218 213 362q172 146 405 146zM883 514q24 125 -40.5 203t-183.5 78
q-117 0 -207 -78t-114 -205q-23 -127 40 -205t181 -78q116 0 209 78q94 76 115 207zM299 -309q9 66 63.5 112.5t120.5 46.5q67 0 105.5 -47t29.5 -112q-12 -67 -66 -113.5t-120 -46.5t-105 47t-28 113z" />
    <glyph glyph-name="uni1EDA" unicode="&#x1eda;" horiz-adv-x="1624" 
d="M905 1579l205 281h324l-269 -281h-260zM725 -29q-312 0 -494 226q-183 230 -125 540q53 317 293 520q242 205 572 205q105 0 203 -28h153q48 1 67 25.5t29 84.5l7 35h212l-6 -35q-22 -124 -68 -189t-134 -89q6 -6 26 -31q184 -228 129 -541q-56 -318 -295 -520
q-241 -203 -569 -203zM758 248q201 0 356 131q158 134 195 336q34 205 -74 338q-108 135 -307 135t-353 -133q-150 -132 -188 -338q-37 -205 68 -338q107 -131 303 -131z" />
    <glyph glyph-name="uni1EDB" unicode="&#x1edb;" horiz-adv-x="1216" 
d="M604 1169l205 281h324l-269 -281h-260zM541 -29q-254 0 -383 170q-130 174 -84 404q44 218 213 362q172 146 405 146q91 0 176 -29h99q48 1 67 26t29 85l6 34h213l-6 -34q-22 -124 -68.5 -189.5t-134.5 -89.5q110 -162 72 -371q-38 -218 -211 -366q-174 -148 -393 -148z
M559 229q116 0 209 78q94 76 115 207q24 125 -40.5 203t-183.5 78q-117 0 -207 -78t-114 -205q-23 -127 40 -205t181 -78z" />
    <glyph glyph-name="uni1EDC" unicode="&#x1edc;" horiz-adv-x="1624" 
d="M1214 1579h-249l-185 281h307zM725 -29q-312 0 -494 226q-183 230 -125 540q53 317 293 520q242 205 572 205q105 0 203 -28h153q48 1 67 25.5t29 84.5l7 35h212l-6 -35q-22 -124 -68 -189t-134 -89q6 -6 26 -31q184 -228 129 -541q-56 -318 -295 -520
q-241 -203 -569 -203zM758 248q201 0 356 131q158 134 195 336q34 205 -74 338q-108 135 -307 135t-353 -133q-150 -132 -188 -338q-37 -205 68 -338q107 -131 303 -131z" />
    <glyph glyph-name="uni1EDD" unicode="&#x1edd;" horiz-adv-x="1216" 
d="M901 1169h-250l-184 281h307zM541 -29q-254 0 -383 170q-130 174 -84 404q44 218 213 362q172 146 405 146q91 0 176 -29h99q48 1 67 26t29 85l6 34h213l-6 -34q-22 -124 -68.5 -189.5t-134.5 -89.5q110 -162 72 -371q-38 -218 -211 -366q-174 -148 -393 -148zM559 229
q116 0 209 78q94 76 115 207q24 125 -40.5 203t-183.5 78q-117 0 -207 -78t-114 -205q-23 -127 40 -205t181 -78z" />
    <glyph glyph-name="uni1EDE" unicode="&#x1ede;" horiz-adv-x="1624" 
d="M1161 1546h-174q14 83 34.5 112.5t68.5 51.5l20 12q28 17 33 43q2 10 -5 17.5t-24 7.5q-29 0 -50.5 -12t-41.5 -47l-141 57q95 154 264 154q90 0 139.5 -45t34.5 -125q-19 -108 -109 -152q-25 -10 -36.5 -24.5t-12.5 -49.5zM725 -29q-312 0 -494 226q-183 230 -125 540
q53 317 293 520q242 205 572 205q105 0 203 -28h153q48 1 67 25.5t29 84.5l7 35h212l-6 -35q-22 -124 -68 -189t-134 -89q6 -6 26 -31q184 -228 129 -541q-56 -318 -295 -520q-241 -203 -569 -203zM758 248q201 0 356 131q158 134 195 336q34 205 -74 338q-108 135 -307 135
t-353 -133q-150 -132 -188 -338q-37 -205 68 -338q107 -131 303 -131z" />
    <glyph glyph-name="uni1EDF" unicode="&#x1edf;" horiz-adv-x="1216" 
d="M850 1137h-174q14 83 34 112t68 51l21 13q27 16 32 43q2 10 -4.5 17t-23.5 7q-29 0 -50.5 -12t-41.5 -47l-142 57q95 154 265 154q90 0 139.5 -45t34.5 -125q-19 -108 -109 -152q-26 -10 -37 -24.5t-12 -48.5zM541 -29q-254 0 -383 170q-130 174 -84 404q44 218 213 362
q172 146 405 146q91 0 176 -29h99q48 1 67 26t29 85l6 34h213l-6 -34q-22 -124 -68.5 -189.5t-134.5 -89.5q110 -162 72 -371q-38 -218 -211 -366q-174 -148 -393 -148zM559 229q116 0 209 78q94 76 115 207q24 125 -40.5 203t-183.5 78q-117 0 -207 -78t-114 -205
q-23 -127 40 -205t181 -78z" />
    <glyph glyph-name="uni1EE0" unicode="&#x1ee0;" horiz-adv-x="1624" 
d="M885 1573h-213q10 92 41 158.5t73.5 99.5t93 43t102.5 -4.5t99 -48.5q51 -43 81 -33t42 82h213q-13 -114 -56 -187.5t-101.5 -98t-124 -15t-125.5 52.5q-54 43 -83.5 33t-41.5 -82zM725 -29q-312 0 -494 226q-183 230 -125 540q53 317 293 520q242 205 572 205
q105 0 203 -28h153q48 1 67 25.5t29 84.5l7 35h212l-6 -35q-22 -124 -68 -189t-134 -89q6 -6 26 -31q184 -228 129 -541q-56 -318 -295 -520q-241 -203 -569 -203zM758 248q201 0 356 131q158 134 195 336q34 205 -74 338q-108 135 -307 135t-353 -133q-150 -132 -188 -338
q-37 -205 68 -338q107 -131 303 -131z" />
    <glyph glyph-name="uni1EE1" unicode="&#x1ee1;" horiz-adv-x="1216" 
d="M610 1163h-213q10 92 41 158.5t73.5 99.5t93.5 43t103 -4.5t99 -48.5q51 -43 81 -33t42 82h213q-13 -114 -56 -187.5t-102 -98t-124.5 -15t-125.5 52.5q-54 43 -83.5 33t-41.5 -82zM541 -29q-254 0 -383 170q-130 174 -84 404q44 218 213 362q172 146 405 146
q91 0 176 -29h99q48 1 67 26t29 85l6 34h213l-6 -34q-22 -124 -68.5 -189.5t-134.5 -89.5q110 -162 72 -371q-38 -218 -211 -366q-174 -148 -393 -148zM559 229q116 0 209 78q94 76 115 207q24 125 -40.5 203t-183.5 78q-117 0 -207 -78t-114 -205q-23 -127 40 -205t181 -78
z" />
    <glyph glyph-name="uni1EE2" unicode="&#x1ee2;" horiz-adv-x="1624" 
d="M473 -309q9 66 63.5 112.5t120.5 46.5q67 0 106 -47t30 -112q-12 -67 -66.5 -113.5t-120.5 -46.5t-105 47t-28 113zM725 -29q-312 0 -494 226q-183 230 -125 540q53 317 293 520q242 205 572 205q105 0 203 -28h153q48 1 67 25.5t29 84.5l7 35h212l-6 -35
q-22 -124 -68 -189t-134 -89q6 -6 26 -31q184 -228 129 -541q-56 -318 -295 -520q-241 -203 -569 -203zM758 248q201 0 356 131q158 134 195 336q34 205 -74 338q-108 135 -307 135t-353 -133q-150 -132 -188 -338q-37 -205 68 -338q107 -131 303 -131z" />
    <glyph glyph-name="uni1EE3" unicode="&#x1ee3;" horiz-adv-x="1216" 
d="M299 -309q9 66 63.5 112.5t120.5 46.5q67 0 105.5 -47t29.5 -112q-12 -67 -66 -113.5t-120 -46.5t-105 47t-28 113zM541 -29q-254 0 -383 170q-130 174 -84 404q44 218 213 362q172 146 405 146q91 0 176 -29h99q48 1 67 26t29 85l6 34h213l-6 -34q-22 -124 -68.5 -189.5
t-134.5 -89.5q110 -162 72 -371q-38 -218 -211 -366q-174 -148 -393 -148zM559 229q116 0 209 78q94 76 115 207q24 125 -40.5 203t-183.5 78q-117 0 -207 -78t-114 -205q-23 -127 40 -205t181 -78z" />
    <glyph glyph-name="uni1EE4" unicode="&#x1ee4;" horiz-adv-x="1323" 
d="M330 -309q9 66 63.5 112.5t120.5 46.5q67 0 105.5 -47t29.5 -112q-12 -67 -66 -113.5t-120 -46.5t-105 47t-28 113zM596 -29q-253 0 -393 140q-138 138 -97 358l170 965h281l-166 -942q-19 -114 36 -179t187 -65t211.5 65.5t98.5 178.5l166 942h282l-170 -965
q-42 -238 -204.5 -368t-401.5 -130z" />
    <glyph glyph-name="uni1EE5" unicode="&#x1ee5;" 
d="M260 -309q9 66 63.5 112.5t120.5 46.5q67 0 106 -47t30 -112q-12 -67 -66.5 -113.5t-120.5 -46.5t-105 47t-28 113zM780 438l103 586h264l-180 -1024h-265l21 111q-122 -140 -317 -140q-172 0 -267 115q-94 113 -59 309l110 629h265l-105 -596q-18 -102 27 -156.5
t139 -54.5q96 0 165.5 56.5t98.5 164.5z" />
    <glyph glyph-name="uni1EE6" unicode="&#x1ee6;" horiz-adv-x="1323" 
d="M940 1546h-174q14 83 34 112.5t68 51.5l21 12q28 17 33 43q2 10 -5 17.5t-24 7.5q-29 0 -50.5 -12t-41.5 -47l-142 57q95 154 265 154q90 0 139.5 -45t34.5 -125q-19 -108 -109 -152q-25 -10 -36.5 -24.5t-12.5 -49.5zM596 -29q-253 0 -393 140q-138 138 -97 358l170 965
h281l-166 -942q-19 -114 36 -179t187 -65t211.5 65.5t98.5 178.5l166 942h282l-170 -965q-42 -238 -204.5 -368t-401.5 -130z" />
    <glyph glyph-name="uni1EE7" unicode="&#x1ee7;" 
d="M784 1137h-174q14 83 34.5 112t68.5 51l20 13q28 17 33 43q2 10 -5 17t-24 7q-29 0 -50.5 -12t-41.5 -47l-141 57q95 154 264 154q90 0 139.5 -45t34.5 -125q-19 -108 -108 -152q-26 -10 -37.5 -24.5t-12.5 -48.5zM780 438l103 586h264l-180 -1024h-265l21 111
q-122 -140 -317 -140q-172 0 -267 115q-94 113 -59 309l110 629h265l-105 -596q-18 -102 27 -156.5t139 -54.5q96 0 165.5 56.5t98.5 164.5z" />
    <glyph glyph-name="uni1EE8" unicode="&#x1ee8;" horiz-adv-x="1323" 
d="M700 1563l205 280h324l-268 -280h-261zM596 -29q-253 0 -393 140q-138 138 -97 358l170 965h281l-166 -942q-19 -114 36 -179t187 -65t211.5 65.5t98.5 178.5l166 942h174q48 1 67 25.5t29 84.5l6 35h213l-6 -35q-24 -132 -76 -198t-156 -86l-139 -791
q-42 -238 -204.5 -368t-401.5 -130z" />
    <glyph glyph-name="uni1EE9" unicode="&#x1ee9;" 
d="M745 1434h324l-268 -281h-260zM780 438l103 586h164q45 3 63.5 28t28.5 83l6 34h213l-6 -34q-24 -133 -77.5 -200t-158.5 -87l-149 -848h-265l21 111q-122 -140 -317 -140q-172 0 -267 115q-94 113 -59 309l110 629h265l-105 -596q-18 -102 27 -156.5t139 -54.5
q96 0 165.5 56.5t98.5 164.5z" />
    <glyph glyph-name="uni1EEA" unicode="&#x1eea;" horiz-adv-x="1323" 
d="M1006 1563h-250l-185 280h308zM596 -29q-253 0 -393 140q-138 138 -97 358l170 965h281l-166 -942q-19 -114 36 -179t187 -65t211.5 65.5t98.5 178.5l166 942h174q48 1 67 25.5t29 84.5l6 35h213l-6 -35q-24 -132 -76 -198t-156 -86l-139 -791q-42 -238 -204.5 -368
t-401.5 -130z" />
    <glyph glyph-name="uni1EEB" unicode="&#x1eeb;" 
d="M713 1434l127 -281h-250l-184 281h307zM780 438l103 586h164q45 3 63.5 28t28.5 83l6 34h213l-6 -34q-24 -133 -77.5 -200t-158.5 -87l-149 -848h-265l21 111q-122 -140 -317 -140q-172 0 -267 115q-94 113 -59 309l110 629h265l-105 -596q-18 -102 27 -156.5t139 -54.5
q96 0 165.5 56.5t98.5 164.5z" />
    <glyph glyph-name="uni1EEC" unicode="&#x1eec;" horiz-adv-x="1323" 
d="M940 1546h-174q14 83 34 112.5t68 51.5l21 12q28 17 33 43q2 10 -5 17.5t-24 7.5q-29 0 -50.5 -12t-41.5 -47l-142 57q95 154 265 154q90 0 139.5 -45t34.5 -125q-19 -108 -109 -152q-25 -10 -36.5 -24.5t-12.5 -49.5zM596 -29q-253 0 -393 140q-138 138 -97 358l170 965
h281l-166 -942q-19 -114 36 -179t187 -65t211.5 65.5t98.5 178.5l166 942h174q48 1 67 25.5t29 84.5l6 35h213l-6 -35q-24 -132 -76 -198t-156 -86l-139 -791q-42 -238 -204.5 -368t-401.5 -130z" />
    <glyph glyph-name="uni1EED" unicode="&#x1eed;" 
d="M784 1137h-174q14 83 34.5 112t68.5 51l20 13q28 17 33 43q2 10 -5 17t-24 7q-29 0 -50.5 -12t-41.5 -47l-141 57q95 154 264 154q90 0 139.5 -45t34.5 -125q-19 -108 -108 -152q-26 -10 -37.5 -24.5t-12.5 -48.5zM780 438l103 586h164q45 3 63.5 28t28.5 83l6 34h213
l-6 -34q-24 -133 -77.5 -200t-158.5 -87l-149 -848h-265l21 111q-122 -140 -317 -140q-172 0 -267 115q-94 113 -59 309l110 629h265l-105 -596q-18 -102 27 -156.5t139 -54.5q96 0 165.5 56.5t98.5 164.5z" />
    <glyph glyph-name="uni1EEE" unicode="&#x1eee;" horiz-adv-x="1323" 
d="M596 -29q-253 0 -393 140q-138 138 -97 358l170 965h281l-166 -942q-19 -114 36 -179t187 -65t211.5 65.5t98.5 178.5l166 942h174q48 1 67 25.5t29 84.5l6 35h213l-6 -35q-24 -132 -76 -198t-156 -86l-139 -791q-42 -238 -204.5 -368t-401.5 -130zM711 1556h-213
q10 92 41 158.5t73.5 99.5t93 43t102.5 -4.5t99 -48.5q51 -43 81 -33t42 82h213q-13 -114 -56 -187.5t-101.5 -98t-124 -14.5t-125.5 53q-54 43 -83.5 32.5t-41.5 -82.5z" />
    <glyph glyph-name="uni1EEF" unicode="&#x1eef;" 
d="M780 438l103 586h164q45 3 63.5 28t28.5 83l6 34h213l-6 -34q-24 -133 -77.5 -200t-158.5 -87l-149 -848h-265l21 111q-122 -140 -317 -140q-172 0 -267 115q-94 113 -59 309l110 629h265l-105 -596q-18 -102 27 -156.5t139 -54.5q96 0 165.5 56.5t98.5 164.5zM545 1147
h-213q10 92 41 158.5t73.5 99.5t93 43t102.5 -4.5t99 -48.5q51 -43 81 -33t42 82h213q-13 -114 -56 -187.5t-101.5 -98t-124 -15t-125.5 52.5q-54 43 -83.5 33t-41.5 -82z" />
    <glyph glyph-name="uni1EF0" unicode="&#x1ef0;" horiz-adv-x="1323" 
d="M330 -309q9 66 63.5 112.5t120.5 46.5q67 0 105.5 -47t29.5 -112q-12 -67 -66 -113.5t-120 -46.5t-105 47t-28 113zM596 -29q-253 0 -393 140q-138 138 -97 358l170 965h281l-166 -942q-19 -114 36 -179t187 -65t211.5 65.5t98.5 178.5l166 942h174q48 1 67 25.5t29 84.5
l6 35h213l-6 -35q-24 -132 -76 -198t-156 -86l-139 -791q-42 -238 -204.5 -368t-401.5 -130z" />
    <glyph glyph-name="uni1EF1" unicode="&#x1ef1;" 
d="M260 -309q9 66 63.5 112.5t120.5 46.5q67 0 106 -47t30 -112q-12 -67 -66.5 -113.5t-120.5 -46.5t-105 47t-28 113zM780 438l103 586h164q45 3 63.5 28t28.5 83l6 34h213l-6 -34q-24 -133 -77.5 -200t-158.5 -87l-149 -848h-265l21 111q-122 -140 -317 -140
q-172 0 -267 115q-94 113 -59 309l110 629h265l-105 -596q-18 -102 27 -156.5t139 -54.5q96 0 165.5 56.5t98.5 164.5z" />
    <glyph glyph-name="Ygrave" unicode="&#x1ef2;" horiz-adv-x="1230" 
d="M831 1843l127 -280h-249l-185 280h307zM1053 1434h336l-611 -799l-112 -635h-281l113 639l-330 795h301l201 -529z" />
    <glyph glyph-name="ygrave" unicode="&#x1ef3;" horiz-adv-x="1075" 
d="M653 1434l127 -281h-250l-184 281h307zM518 334l350 690h293l-553 -1024q-122 -229 -270 -325t-344 -85l43 246q109 -1 172 40.5t119 150.5l6 10l-238 987h271z" />
    <glyph glyph-name="uni1EF4" unicode="&#x1ef4;" horiz-adv-x="1230" 
d="M311 -309q9 66 64 112.5t121 46.5q67 0 105.5 -47t29.5 -112q-12 -67 -66.5 -113.5t-120.5 -46.5t-105 47t-28 113zM1053 1434h336l-611 -799l-112 -635h-281l113 639l-330 795h301l201 -529z" />
    <glyph glyph-name="uni1EF5" unicode="&#x1ef5;" horiz-adv-x="1075" 
d="M586 -309q9 66 63.5 112.5t120.5 46.5q67 0 105.5 -47t29.5 -112q-12 -67 -66 -113.5t-120 -46.5t-105 47t-28 113zM518 334l350 690h293l-553 -1024q-122 -229 -270 -325t-344 -85l43 246q109 -1 172 40.5t119 150.5l6 10l-238 987h271z" />
    <glyph glyph-name="uni1EF6" unicode="&#x1ef6;" horiz-adv-x="1230" 
d="M866 1546h-174q14 83 34.5 112.5t68.5 51.5l20 12q28 17 33 43q2 10 -5 17.5t-24 7.5q-29 0 -50.5 -12t-41.5 -47l-141 57q95 154 264 154q90 0 139.5 -45t34.5 -125q-19 -108 -109 -152q-25 -10 -36.5 -24.5t-12.5 -49.5zM1053 1434h336l-611 -799l-112 -635h-281
l113 639l-330 795h301l201 -529z" />
    <glyph glyph-name="uni1EF7" unicode="&#x1ef7;" horiz-adv-x="1075" 
d="M727 1137h-174q14 83 34 112t68 51l21 13q28 17 33 43q2 10 -5 17t-24 7q-29 0 -50.5 -12t-41.5 -47l-142 57q95 154 265 154q90 0 139.5 -45t34.5 -125q-19 -108 -109 -152q-26 -10 -37 -24.5t-12 -48.5zM518 334l350 690h293l-553 -1024q-122 -229 -270 -325t-344 -85
l43 246q109 -1 172 40.5t119 150.5l6 10l-238 987h271z" />
    <glyph glyph-name="uni1EF8" unicode="&#x1ef8;" horiz-adv-x="1230" 
d="M1053 1434h336l-611 -799l-112 -635h-281l113 639l-330 795h301l201 -529zM664 1556h-213q10 92 41 158.5t73.5 99.5t93 43t102.5 -4.5t99 -48.5q51 -43 81 -33t42 82h213q-10 -92 -40.5 -158t-73 -99t-93 -43t-102 4.5t-99.5 48.5q-54 43 -83 32.5t-41 -82.5z" />
    <glyph glyph-name="uni1EF9" unicode="&#x1ef9;" horiz-adv-x="1075" 
d="M518 334l350 690h293l-553 -1024q-122 -229 -270 -325t-344 -85l43 246q109 -1 172 40.5t119 150.5l6 10l-238 987h271zM485 1147h-213q10 92 41 158.5t73.5 99.5t93.5 43t103 -4.5t99 -48.5q51 -43 81 -33t42 82h213q-13 -114 -56 -187.5t-102 -98t-124.5 -15
t-125.5 52.5q-54 43 -83.5 33t-41.5 -82z" />
    <glyph glyph-name="endash" unicode="&#x2013;" horiz-adv-x="1277" 
d="M1141 492h-1012l45 253h1010z" />
    <glyph glyph-name="emdash" unicode="&#x2014;" horiz-adv-x="1482" 
d="M1346 492h-1217l45 253h1215z" />
    <glyph glyph-name="quoteleft" unicode="&#x2018;" horiz-adv-x="569" 
d="M449 864h-287l254 570h215z" />
    <glyph glyph-name="quoteright" unicode="&#x2019;" horiz-adv-x="569" 
d="M344 1436h287l-254 -570h-215z" />
    <glyph glyph-name="quotesinglbase" unicode="&#x201a;" horiz-adv-x="569" 
d="M141 283h287l-254 -570h-215z" />
    <glyph glyph-name="quotedblleft" unicode="&#x201c;" horiz-adv-x="948" 
d="M449 864h-287l254 570h215zM827 864h-286l254 570h215z" />
    <glyph glyph-name="quotedblright" unicode="&#x201d;" horiz-adv-x="948" 
d="M344 1436h287l-254 -570h-215zM723 1436h287l-254 -570h-215z" />
    <glyph glyph-name="quotedblbase" unicode="&#x201e;" horiz-adv-x="948" 
d="M141 283h287l-254 -570h-215zM520 283h287l-254 -570h-215z" />
    <glyph glyph-name="dagger" unicode="&#x2020;" horiz-adv-x="983" 
d="M737 1157h267l-43 -254h-269l-157 -903h-265l158 903h-266l43 254h268l49 277h264z" />
    <glyph glyph-name="daggerdbl" unicode="&#x2021;" horiz-adv-x="983" 
d="M1004 1157l-43 -254h-269l-63 -373h264l-43 -254h-266l-49 -276h-265l49 276h-268l43 254h271l63 373h-266l43 254h268l49 277h264l-49 -277h267z" />
    <glyph glyph-name="bullet" unicode="&#x2022;" horiz-adv-x="737" 
d="M356 436q-116 0 -184 86q-66 87 -45 207q21 117 115 193q95 77 217 77q115 0 180 -86q68 -83 47 -200q-23 -120 -115.5 -198.5t-214.5 -78.5z" />
    <glyph glyph-name="ellipsis" unicode="&#x2026;" horiz-adv-x="1480" 
d="M178 -27q-72 0 -112.5 52.5t-28.5 126.5q12 73 70 121.5t133 48.5q72 0 114.5 -53.5t28.5 -125.5q-12 -73 -70 -121.5t-135 -48.5zM645 -27q-72 0 -112.5 52.5t-28.5 126.5q12 73 70 121.5t133 48.5q72 0 114.5 -53.5t28.5 -125.5q-12 -73 -70 -121.5t-135 -48.5z
M1110 -27q-72 0 -112.5 52.5t-28.5 126.5q12 73 69.5 121.5t132.5 48.5q72 0 115 -53.5t29 -125.5q-12 -73 -70 -121.5t-135 -48.5z" />
    <glyph glyph-name="perthousand" unicode="&#x2030;" horiz-adv-x="2332" 
d="M496 786q-150 0 -232 101q-81 100 -63 235q21 140 127 240t270 100q154 0 236 -110q81 -108 53 -252q-27 -134 -133 -223q-108 -91 -258 -91zM303 141l-121 78l1116 1041l121 -76zM438 1030q29 -37 84 -37t96 37q43 38 53.5 94t-18.5 93t-84 37t-98 -37
q-42 -37 -52 -92.5t19 -94.5zM1044 -25q-150 0 -233 105q-78 103 -57 239q22 142 127 234q107 98 268 98q151 0 233 -108q83 -109 56 -246t-133 -229q-107 -93 -261 -93zM1810 -25q-150 0 -233 105q-80 105 -59 239q22 142 129 236q110 96 268 96q151 0 233 -108
q83 -109 56 -246t-133 -229q-107 -93 -261 -93zM1071 182q56 0 98.5 38t53.5 93q11 57 -18.5 94t-86.5 37q-55 0 -95.5 -37.5t-51.5 -93.5t17 -93.5t83 -37.5zM1989 313q11 56 -19.5 93.5t-85.5 37.5t-96.5 -37.5t-52.5 -93.5t18 -93.5t84 -37.5t98 38t54 93z" />
    <glyph glyph-name="guilsinglleft" unicode="&#x2039;" horiz-adv-x="729" 
d="M438 1018h252l-295 -393l154 -375h-242l-157 383z" />
    <glyph glyph-name="guilsinglright" unicode="&#x203a;" horiz-adv-x="731" 
d="M223 1016h242l158 -383l-289 -385h-252l295 393z" />
    <glyph glyph-name="fraction" unicode="&#x2044;" horiz-adv-x="389" 
d="M858 1434l-1061 -1434h-194l1061 1434h194z" />
    <glyph glyph-name="Euro" unicode="&#x20ac;" horiz-adv-x="1261" 
d="M688 248q160 0 268 166l222 -135q-179 -308 -529 -308q-221 0 -345 149.5t-124 405.5h-143l29 160h124l9 49l6 31h-127l28 158h140q82 255 251 396.5t396 141.5q150 0 261 -79.5t161 -217.5l-246 -129q-59 152 -215 152q-212 0 -317 -264h419l-28 -158h-439
q-1 -3 -10 -49q-4 -28 -4 -31h440l-28 -160h-424q3 -278 225 -278z" />
    <glyph glyph-name="uni20BD" unicode="&#x20bd;" horiz-adv-x="1232" 
d="M342 1434h535q191 0 311 -150q120 -148 86 -344q-35 -200 -187 -322q-150 -120 -374 -120h-254l-21 -113h457l-33 -180h-454l-37 -205h-281l37 205h-156l33 180h154l20 113h-153l43 247h153zM831 1169h-256l-73 -424h254q86 0 154 61t85 152q17 90 -30 150.5t-134 60.5z
" />
    <glyph glyph-name="uni2116" unicode="&#x2116;" horiz-adv-x="2129" 
d="M1769 784q-146 0 -229 103q-84 107 -57 246q21 142 135 233q113 94 264 94q144 0 227 -102q84 -104 60 -246q-24 -140 -135 -235q-110 -93 -265 -93zM326 0h-283l252 1434h213l461 -895l155 895h283l-252 -1434h-213l-459 895zM1946 1122q11 54 -17 88.5t-82 34.5
q-53 0 -91.5 -34t-49.5 -89q-11 -54 16 -88.5t82 -34.5t94.5 34.5t47.5 88.5zM2025 426h-639l44 248h638z" />
    <glyph glyph-name="trademark" unicode="&#x2122;" horiz-adv-x="970" 
d="M580 1434l-21 -115h-113l-51 -295h-123l52 295h-115l20 115h351zM930 1434h135l-72 -410h-119l39 221l-125 -147h-10l-69 147l-39 -221h-119l72 410h118l66 -158z" />
    <glyph glyph-name="estimated" unicode="&#x212e;" horiz-adv-x="1617" 
d="M975 1454q330 0 506 -215q179 -211 123 -522q-6 -31 -37 -31h-1147q-31 0 -37 -31l-68 -393q-6 -22 7 -39q141 -182 446 -182q295 0 512 199q18 18 39 18h72q21 0 25 -13t-13 -26q-266 -239 -647 -239q-354 0 -539 221q-182 221 -127 536q56 311 299 514q247 203 586 203
zM1307 778l71 398q3 20 -8 38q-138 179 -405 179q-262 0 -469 -183q-18 -18 -21 -39l-69 -393q-6 -30 24 -30h840q31 0 37 30z" />
    <glyph glyph-name="oneeighth" unicode="&#x215b;" horiz-adv-x="1650" 
d="M150 0l1060 1434h195l-1061 -1434h-194zM242 614l104 584l-174 -47l-20 195l262 88h192l-145 -820h-219zM1595 594q-18 -112 -120 -170q99 -75 81 -209q-19 -116 -111 -180t-241 -64q-141 0 -217.5 72.5t-56.5 187.5q21 135 157 203q-81 66 -63 178q20 111 107.5 173.5
t218.5 62.5q120 0 192 -72q74 -71 53 -182zM1208 584q-7 -38 15.5 -59t70.5 -21q96 0 111 80q6 36 -16.5 57t-67.5 21q-101 0 -113 -78zM1356 254q8 43 -16.5 67.5t-73.5 24.5q-110 0 -125 -92q-8 -43 16 -68.5t74 -25.5q110 0 125 94z" />
    <glyph glyph-name="threeeighths" unicode="&#x215c;" horiz-adv-x="1816" 
d="M715 848q-23 -129 -114.5 -195.5t-240.5 -66.5q-229 0 -294 182l192 102q35 -92 127 -92q99 0 111 84q8 38 -16.5 60t-73.5 22h-39l-60 117l166 174h-291l35 199h563l-28 -162l-174 -180q78 -31 114 -95t23 -149zM315 0l1061 1434h195l-1061 -1434h-195zM1761 594
q-18 -111 -121 -170q100 -75 82 -209q-19 -116 -111 -180t-241 -64q-141 0 -217.5 72.5t-56.5 187.5q21 135 157 203q-81 66 -63 178q20 111 107.5 173.5t218.5 62.5q120 0 192 -72q74 -71 53 -182zM1374 584q-7 -38 15.5 -59t70.5 -21q96 0 111 80q6 36 -16.5 57t-67.5 21
q-101 0 -113 -78zM1522 254q8 43 -16.5 67.5t-73.5 24.5q-110 0 -125 -92q-8 -43 16 -68.5t74 -25.5q110 0 125 94z" />
    <glyph glyph-name="fiveeighths" unicode="&#x215d;" horiz-adv-x="1789" 
d="M700 842q-23 -127 -112 -191.5t-228 -64.5q-221 0 -286 182l188 98q30 -92 125 -92q100 0 115 84q6 39 -16 63.5t-68 24.5h-271l121 488h496l-35 -199h-309l-27 -111h66q125 0 194.5 -76t46.5 -206zM289 0l1061 1434h194l-1061 -1434h-194zM1735 594q-18 -111 -121 -170
q100 -75 82 -209q-19 -116 -111.5 -180t-241.5 -64q-141 0 -217.5 72.5t-56.5 187.5q21 134 158 203q-82 67 -64 178q20 111 107.5 173.5t218.5 62.5q120 0 192 -72q74 -71 54 -182zM1348 584q-7 -38 15.5 -59t70.5 -21q95 0 110 80q6 36 -16.5 57t-67.5 21q-100 0 -112 -78
zM1495 254q8 43 -16.5 67.5t-73.5 24.5q-110 0 -125 -92q-8 -43 16 -68.5t74 -25.5q110 0 125 94z" />
    <glyph glyph-name="seveneighths" unicode="&#x215e;" horiz-adv-x="1708" 
d="M705 1266l-367 -652h-234l351 621h-322l35 199h565zM207 0l1061 1434h194l-1061 -1434h-194zM1653 594q-18 -111 -121 -170q100 -75 82 -209q-19 -116 -111 -180t-241 -64q-141 0 -218 72.5t-57 187.5q21 134 158 203q-82 67 -64 178q20 111 107.5 173.5t218.5 62.5
q120 0 192 -72q74 -71 54 -182zM1266 584q-7 -38 15.5 -59t70.5 -21q95 0 110 80q6 36 -16.5 57t-67.5 21q-100 0 -112 -78zM1413 254q8 43 -16.5 67.5t-73.5 24.5q-110 0 -125 -92q-8 -43 16 -68.5t74 -25.5q110 0 125 94z" />
    <glyph glyph-name="arrowleft" unicode="&#x2190;" horiz-adv-x="1634" 
d="M649 844h950l-45 -254h-983l402 -488h-338l-506 615l723 614h371z" />
    <glyph glyph-name="arrowup" unicode="&#x2191;" horiz-adv-x="1413" 
d="M868 1434l506 -615l-57 -334l-397 484l-170 -969h-265l166 934l-569 -481l63 366z" />
    <glyph glyph-name="arrowright" unicode="&#x2192;" horiz-adv-x="1634" 
d="M735 1331h338l506 -614l-721 -615h-371l572 488h-953l44 254h989z" />
    <glyph glyph-name="arrowdown" unicode="&#x2193;" horiz-adv-x="1413" 
d="M1001 1434l-165 -934l567 483l-64 -369l-723 -614l-505 614l59 334l397 -481l170 967h264z" />
    <glyph glyph-name="arrowboth" unicode="&#x2194;" horiz-adv-x="2222" 
d="M1896 729v-2l271 -10l-658 -557h-360l502 430h-1088l355 -430h-330l-459 557l655 559h365l-508 -432h1090l-355 432h332l459 -559z" />
    <glyph glyph-name="arrowupdn" unicode="&#x2195;" horiz-adv-x="1300" 
d="M1325 1178l-57 -330l-350 426l-193 -1084l502 424l-64 -358l-655 -559l-459 559l57 330l351 -426l190 1087l-500 -428l64 359l655 559z" />
    <glyph glyph-name="uni2196" unicode="&#x2196;" horiz-adv-x="1316" 
d="M1094 1255l202 -245h-700l586 -715l-197 -166l-586 713l-125 -701l-202 246l153 868h869z" />
    <glyph glyph-name="uni2197" unicode="&#x2197;" horiz-adv-x="1318" 
d="M197 1010l292 245h869l-154 -868l-293 -248l119 670l-817 -692l-164 194l821 699h-673z" />
    <glyph glyph-name="uni2198" unicode="&#x2198;" horiz-adv-x="1316" 
d="M987 565l123 699l205 -246l-154 -868h-868l-205 245h703l-588 715l196 166z" />
    <glyph glyph-name="uni2199" unicode="&#x2199;" horiz-adv-x="1318" 
d="M1174 1288l163 -192l-823 -701h674l-291 -245h-868l153 868l291 246l-119 -672z" />
    <glyph glyph-name="partialdiff" unicode="&#x2202;" horiz-adv-x="1196" 
d="M659 1462q243 0 388 -219q148 -219 90 -545q-60 -351 -241.5 -539t-440.5 -188q-202 0 -310 135q-108 134 -73 322q38 209 180 334q145 127 352 127q170 0 283 -82q12 191 -66.5 297.5t-238.5 107.5q-121 3 -248 -65l43 242q128 73 282 73zM492 221q121 0 212.5 95.5
t139.5 265.5q-88 73 -230 73q-106 0 -183 -63.5t-95 -173.5q-17 -90 26 -143.5t130 -53.5z" />
    <glyph glyph-name="emptyset" unicode="&#x2205;" horiz-adv-x="1648" 
d="M1483 1475h227l-237 -244q179 -225 126 -533q-56 -309 -303 -516q-251 -207 -557 -207q-209 0 -372 117l-129 -133h-228l238 246q-182 231 -127 532q53 305 303 512q250 209 559 209q212 0 371 -117zM303 717q-41 -221 76 -377l844 866q-119 72 -265 72q-229 0 -423 -164
q-192 -165 -232 -397zM1417 717q41 218 -76 377l-841 -867q115 -71 262 -71q232 0 422 163q192 162 233 398z" />
    <glyph glyph-name="product" unicode="&#x220f;" horiz-adv-x="1310" 
d="M236 -410h-265l324 1844h1044l-323 -1844h-264l280 1590h-516z" />
    <glyph glyph-name="summation" unicode="&#x2211;" horiz-adv-x="1153" 
d="M913 -410h-1003l43 248l565 721l-289 676l35 199h942l-43 -254h-633l277 -650l-537 -686h688z" />
    <glyph glyph-name="minus" unicode="&#x2212;" horiz-adv-x="1136" 
d="M1042 594h-921l45 248h921z" />
    <glyph glyph-name="radical" unicode="&#x221a;" horiz-adv-x="1384" 
d="M717 0h-256l-178 408h-209l45 254h342l143 -355l682 1331h287z" />
    <glyph glyph-name="infinity" unicode="&#x221e;" horiz-adv-x="1654" 
d="M1270 1075q161 0 248 -106q92 -108 65 -267q-29 -159 -144 -251.5t-278 -92.5q-175 0 -325 179q-203 -179 -377 -179q-161 0 -252 107t-64 266q29 159 145 251.5t281 92.5q177 0 324 -178q196 178 377 178zM504 596q87 0 205 121q-71 121 -162 121q-50 0 -89 -34.5
t-50 -86.5q-11 -51 17 -86t79 -35zM1223 838q-88 0 -203 -121q71 -121 162 -121q50 0 88 34.5t49 86.5t-16 86.5t-80 34.5z" />
    <glyph glyph-name="integral" unicode="&#x222b;" horiz-adv-x="903" 
d="M-164 -418l45 264q57 -37 135 -6q76 30 107 121l395 1149q148 436 549 328l-47 -262q-63 34 -139 4q-74 -27 -105 -119l-395 -1151q-151 -436 -545 -328z" />
    <glyph glyph-name="approxequal" unicode="&#x2248;" horiz-adv-x="1165" 
d="M637 776q-72 34 -120.5 49t-86 11t-63 -18.5t-60.5 -45.5l-160 57q49 134 128 207t174.5 78t205.5 -51q121 -65 194.5 -55.5t115.5 104.5l194 -104q-74 -195 -217 -256t-305 24zM274 322l-196 104q49 128 132.5 201t182 79t207.5 -49q90 -46 154 -55q60 -7 94 6t82 54
l157 -58q-49 -134 -127.5 -207t-173.5 -77.5t-204 51.5q-121 65 -194.5 55.5t-113.5 -104.5z" />
    <glyph glyph-name="notequal" unicode="&#x2260;" horiz-adv-x="1075" 
d="M1077 1053l-43 -248h-321l-109 -176h400l-46 -248h-509l-166 -268h-168l166 268h-211l45 248h321l109 176h-400l43 248h512l166 268h168l-166 -268h209z" />
    <glyph glyph-name="lessequal" unicode="&#x2264;" horiz-adv-x="1081" 
d="M178 995l957 342l-52 -288l-624 -183l559 -184l-45 -260l-836 340zM918 113h-895l43 247h897z" />
    <glyph glyph-name="greaterequal" unicode="&#x2265;" horiz-adv-x="1081" 
d="M193 1073l45 264l835 -342l-41 -233l-956 -340l51 285l625 184zM918 113h-895l43 247h897z" />
    <glyph glyph-name="lozenge" unicode="&#x25ca;" horiz-adv-x="1136" 
d="M580 0h-201l-254 717l506 717h200l256 -717zM406 694l122 -346l277 391l-123 346z" />
    <glyph glyph-name="NULL" horiz-adv-x="0" 
 />
    <glyph glyph-name="CR" horiz-adv-x="681" 
 />
    <glyph glyph-name="i.loclTRK" horiz-adv-x="505" 
d="M362 1128q-66 0 -104.5 47t-26.5 113q11 64 65.5 111t119.5 47t104.5 -47t28.5 -111q-12 -66 -68 -113t-119 -47zM295 0h-264l180 1024h264z" />
    <glyph glyph-name="f_f_j" horiz-adv-x="1708" 
d="M1112 1024h565l-182 -1044q-41 -233 -166 -332.5t-354 -85.5l45 254q93 -6 143.5 33t67.5 131l137 790h-301l-135 -770h-264l135 770h-303l-135 -770h-265l136 770h-146l43 254h148l2 10q77 458 557 428l-45 -254q-214 15 -248 -174l-2 -10h303l6 31q38 220 174 324
t383 104q101 0 236 -29l-43 -242q-100 17 -201 17q-255 0 -285 -174z" />
    <glyph glyph-name="f_j" horiz-adv-x="1140" 
d="M545 1024h565l-184 -1044q-41 -233 -165 -332.5t-353 -85.5l45 254q182 -12 209 164l139 790h-301l-135 -770h-265l136 770h-146l43 254h148l2 10q38 220 174 324t383 104q102 0 233 -28l-41 -242q-94 16 -203 16q-252 0 -282 -174z" />
    <glyph glyph-name="uni0414.loclBGR" horiz-adv-x="1495" 
d="M1085 1434l170 -1164h162l-96 -544h-283l49 274h-860l-49 -274h-282l98 544h162l579 1164h350zM862 1114l-405 -844h512z" />
    <glyph glyph-name="uni041B.loclBGR" horiz-adv-x="1294" 
d="M229 0h-315l721 1434h350l215 -1434h-299l-135 1106z" />
    <glyph glyph-name="uni0424.loclBGR" horiz-adv-x="1761" 
d="M1212 1638l-32 -190q297 -44 446 -248q152 -205 100 -502q-55 -309 -270 -497q-213 -189 -536 -219l-33 -187h-266l32 191q-297 44 -448 247q-151 207 -99 504q55 308 269 498q218 190 538 217l33 186h266zM387 717q-35 -202 43.5 -322t269.5 -151l168 948
q-408 -61 -481 -475zM1446 717q70 413 -311 475l-168 -948q200 29 322 150t157 323z" />
    <glyph glyph-name="uni0414.ss01" horiz-adv-x="1443" 
d="M451 1434h946l-205 -1164h154l-50 -270h-1353l45 270h139q146 158 205 486zM440 270h469l160 899h-383l-74 -417q-55 -316 -172 -482z" />
    <glyph glyph-name="uni0426.ss01" horiz-adv-x="1413" 
d="M1366 1434l-205 -1164h154l-47 -270h-1225l252 1434h283l-205 -1164h506l204 1164h283z" />
    <glyph glyph-name="uni0429.ss01" horiz-adv-x="2007" 
d="M1960 1434l-205 -1164h154l-47 -270h-1819l252 1434h283l-205 -1164h409l205 1164h281l-205 -1164h410l204 1164h283z" />
    <glyph glyph-name="uni0414.loclBGR.ss01" horiz-adv-x="1495" 
d="M1085 1434l170 -1164h162l-47 -270h-1425l49 270h162l579 1164h350zM862 1114l-405 -844h512z" />
    <glyph glyph-name="uni0432.loclBGR" horiz-adv-x="1161" 
d="M1090 1083q-24 -143 -181 -264q102 -57 148 -160t22 -239q-38 -220 -179.5 -334.5t-373.5 -114.5q-212 0 -333 142q-118 142 -78 364l86 490q41 238 178.5 366.5t351.5 128.5q176 0 281 -108t78 -271zM705 1214q-89 0 -155.5 -68.5t-86.5 -184.5l-21 -123l103 20
q61 12 123 12q144 102 159 205q12 62 -21.5 100.5t-100.5 38.5zM815 438q20 121 -62.5 168t-250.5 12l-103 -20l-22 -129q-19 -113 29 -177.5t151 -64.5q105 0 173 55.5t85 155.5z" />
    <glyph glyph-name="uni0433.loclBGR" horiz-adv-x="958" 
d="M418 -29q-184 0 -297 101q-112 101 -82 262q18 98 80 162.5t147 89.5q44 13 119.5 29t119.5 26.5t82 33t42 54.5q7 40 -23 64t-82 24q-116 0 -180 -108l-209 127q129 217 410 217q166 0 274 -105q107 -104 80 -258q-18 -94 -80.5 -158t-148.5 -88q-37 -10 -94 -22
t-97.5 -21t-80.5 -21t-63 -30t-26 -41q-7 -47 26 -72.5t99 -25.5q150 0 223 137l207 -137q-63 -116 -178.5 -178t-267.5 -62z" />
    <glyph glyph-name="uni0434.loclBGR" horiz-adv-x="1286" 
d="M971 877l26 147h258l-172 -975q-41 -243 -197.5 -365t-393.5 -122q-171 0 -292.5 64t-176.5 186l235 122q64 -137 252 -137q130 0 212.5 65t102.5 187l17 90q-135 -135 -340 -135q-237 0 -350 162q-115 165 -78 385q35 211 190 354q157 148 375 148q237 0 332 -176z
M575 252q122 0 214.5 74t117.5 192l4 21q18 120 -51 193t-192 73t-217 -76t-115 -199q-21 -120 47 -200q69 -78 192 -78z" />
    <glyph glyph-name="uni0436.loclBGR" horiz-adv-x="1527" 
d="M219 0h-285l472 543l-267 481h264l242 -438l152 848h258l-154 -856l385 446h293l-451 -516l283 -508h-268l-258 469l-84 -469h-258l82 465z" />
    <glyph glyph-name="uni0438.loclBGR" 
d="M780 438l103 586h264l-180 -1024h-265l21 111q-122 -140 -317 -140q-172 0 -267 115q-94 113 -59 309l110 629h265l-105 -596q-18 -102 27 -156.5t139 -54.5q96 0 165.5 56.5t98.5 164.5z" />
    <glyph glyph-name="uni0439.loclBGR" 
d="M424 1384h594l-39 -229h-594zM780 438l103 586h264l-180 -1024h-265l21 111q-122 -140 -317 -140q-172 0 -267 115q-94 113 -59 309l110 629h265l-105 -596q-18 -102 27 -156.5t139 -54.5q96 0 165.5 56.5t98.5 164.5z" />
    <glyph glyph-name="uni043A.loclBGR" horiz-adv-x="1058" 
d="M813 1024h313l-493 -506l325 -518h-286l-293 481l-84 -481h-264l252 1434h264l-148 -842z" />
    <glyph glyph-name="uni043B.loclBGR" horiz-adv-x="1024" 
d="M737 1024l193 -1024h-273l-102 698l-348 -698h-293l553 1024h270z" />
    <glyph glyph-name="uni043F.loclBGR" 
d="M772 1053q171 0 266 -115q95 -114 60 -309l-111 -629h-264l104 596q18 102 -26.5 156.5t-138.5 54.5q-96 0 -166 -56.5t-99 -164.5l-102 -586h-264l180 1024h264l-20 -111q122 140 317 140z" />
    <glyph glyph-name="uni0442.loclBGR" horiz-adv-x="1740" 
d="M1339 1053q177 0 265 -117q93 -119 59 -305l-113 -631h-264l107 612q17 92 -19.5 143.5t-118.5 51.5q-172 0 -225 -195l-106 -612h-265l107 612q17 92 -19 143.5t-116 51.5q-92 0 -153.5 -58t-80.5 -167l-102 -582h-264l180 1024h264l-18 -102q119 131 297 131
q189 0 260 -154q127 154 325 154z" />
    <glyph glyph-name="uni0446.loclBGR" horiz-adv-x="1257" 
d="M1075 248h90l-94 -522h-258l51 294q-75 29 -102 101q-141 -150 -346 -150q-185 0 -277.5 115t-60.5 309l110 629h265l-105 -594q-18 -104 27 -158.5t141 -54.5q104 0 176 64.5t92 189.5v-2l99 555h264l-125 -711q-9 -65 53 -65z" />
    <glyph glyph-name="uni0448.loclBGR" horiz-adv-x="1740" 
d="M1343 442l103 582h264l-180 -1024h-264l18 102q-119 -131 -297 -131q-189 0 -260 154q-127 -154 -326 -154q-175 0 -266 117q-91 120 -57 305l112 631h265l-107 -612q-17 -92 19 -143.5t118 -51.5q173 0 226 195l106 612h264l-106 -612q-17 -92 19 -143.5t116 -51.5
q92 0 153 58t80 167z" />
    <glyph glyph-name="uni0449.loclBGR" horiz-adv-x="1820" 
d="M1638 248h91l-95 -522h-258l51 294q-70 27 -98 93q-130 -142 -328 -142q-199 0 -270 150q-126 -150 -330 -150q-175 0 -266 117q-91 120 -57 305l110 631h265l-107 -610q-17 -92 20 -144.5t119 -52.5q89 0 149.5 59t80.5 168v-2l102 582h264l-106 -610q-17 -94 18 -145.5
t117 -51.5q87 0 146.5 53.5t82.5 155.5l107 598h264l-125 -711q-9 -65 53 -65z" />
    <glyph glyph-name="uni044C.loclBGR" horiz-adv-x="1005" 
d="M397 739h189q184 0 278 -110q96 -112 66 -285q-30 -169 -158 -271t-317 -102q-194 0 -301 119q-105 117 -78 293l112 641h258zM676 365q11 63 -24.5 102t-108.5 39h-187l-22 -123q-12 -74 28 -118t119 -44q73 0 128.5 42.5t66.5 101.5z" />
    <glyph glyph-name="uni044A.loclBGR" horiz-adv-x="1185" 
d="M578 739h188q184 0 278 -110q96 -113 66 -287q-29 -168 -157.5 -269.5t-317.5 -101.5q-194 0 -301 119q-105 117 -78 293l70 393h-279l43 248h537zM856 362q11 64 -24 104t-109 40h-186l-23 -123q-12 -74 28.5 -118t119.5 -44q73 0 128 41.5t66 99.5z" />
    <glyph glyph-name="uni044E.loclBGR" horiz-adv-x="1660" 
d="M1141 1053q236 0 362 -172q127 -170 86 -396q-37 -217 -209 -366q-174 -148 -393 -148q-206 0 -332 117q-124 118 -139 301h-154l-67 -389h-264l252 1434h264l-139 -797h143q64 183 223 299q156 117 367 117zM1331 514q23 125 -42.5 203t-184.5 78t-210.5 -78
t-115.5 -205q-20 -127 44.5 -205t181.5 -78q114 0 210 78t117 207z" />
    <glyph glyph-name="zero.sinf" horiz-adv-x="837" 
d="M274 -356q-164 0 -249 125q-88 129 -54 325q37 201 153.5 313.5t287.5 112.5q161 0 250 -127q87 -124 53 -323q-35 -201 -152 -313.5t-289 -112.5zM489 82q19 106 -8.5 162.5t-99.5 56.5q-71 0 -119 -57q-47 -60 -65 -162t10 -162q26 -57 98 -57q69 0 117 57.5t67 161.5z
" />
    <glyph glyph-name="one.sinf" horiz-adv-x="544" 
d="M-14 403l262 89h192l-145 -820h-219l104 584l-174 -47z" />
    <glyph glyph-name="two.sinf" horiz-adv-x="720" 
d="M520 -328h-614l24 144l365 313q88 76 94 119q6 32 -12 51.5t-55 19.5q-80 0 -144 -108l-172 108q55 94 144.5 147.5t199.5 53.5q133 0 207.5 -78.5t50.5 -205.5q-12 -61 -53.5 -114t-126.5 -124l-149 -127h276z" />
    <glyph glyph-name="three.sinf" horiz-adv-x="704" 
d="M51 492h563l-28 -162l-174 -180q78 -31 114 -95t23 -149q-23 -129 -114 -195.5t-240 -66.5q-230 0 -295 182l192 102q35 -92 127 -92q99 0 111 84q8 38 -16.5 60t-73.5 22h-39l-60 117l166 174h-291z" />
    <glyph glyph-name="four.sinf" horiz-adv-x="731" 
d="M526 4h80l-33 -201h-84l-22 -131h-209l23 131h-381l32 201l342 488h242l-332 -488h133l25 141h209z" />
    <glyph glyph-name="five.sinf" horiz-adv-x="684" 
d="M598 492l-35 -199h-309l-27 -111h66q125 0 195 -76t47 -206q-23 -127 -112 -191.5t-228 -64.5q-222 0 -287 182l188 98q30 -92 125 -92q100 0 115 84q6 39 -16 63.5t-68 24.5h-270l120 488h496z" />
    <glyph glyph-name="six.sinf" horiz-adv-x="700" 
d="M553 492l-217 -267q121 -13 184 -98t43 -203q-23 -130 -119.5 -205t-242.5 -75q-137 0 -213 88q-75 87 -54 217q14 85 64 147l315 396h240zM362 -63q15 104 -96 104q-108 0 -129 -104q-10 -50 15 -79.5t77 -29.5q112 0 133 109z" />
    <glyph glyph-name="seven.sinf" horiz-adv-x="606" 
d="M-33 293l35 199h565l-28 -168l-367 -652h-233l350 621h-322z" />
    <glyph glyph-name="eight.sinf" horiz-adv-x="716" 
d="M602 266q-18 -111 -121 -170q100 -75 82 -209q-19 -116 -111 -179.5t-241 -63.5q-141 0 -217.5 72.5t-56.5 187.5q21 134 157 202q-81 66 -63 179q20 111 107 173t218 62q122 0 193 -71q74 -71 53 -183zM215 256q-7 -38 15.5 -59t70.5 -21q96 0 111 80q6 36 -16.5 57
t-67.5 21q-101 0 -113 -78zM362 -74q8 43 -16.5 67.5t-73.5 24.5q-110 0 -125 -92q-8 -43 16.5 -68.5t74.5 -25.5q109 0 124 94z" />
    <glyph glyph-name="nine.sinf" horiz-adv-x="700" 
d="M348 520q135 0 211 -88t55 -217q-18 -104 -82 -168l-296 -375h-238l215 267q-119 15 -184 98q-64 85 -43 203q23 130 119.5 205t242.5 75zM186 227q-7 -51 18 -77.5t79 -26.5q108 0 129 104q10 50 -15.5 79.5t-77.5 29.5q-112 0 -133 -109z" />
    <glyph glyph-name="zero.tf" horiz-adv-x="1183" 
d="M510 -29q-262 0 -389 213q-123 214 -64 551q59 340 240 533q182 194 451 194q264 0 387 -215q122 -210 63 -549t-240 -532q-180 -195 -448 -195zM918 717q41 228 -12 349.5t-195 121.5t-237 -120.5t-136 -350.5q-41 -229 12 -349t195 -120t237 120t136 349z" />
    <glyph glyph-name="one.tf" horiz-adv-x="1183" 
d="M918 1434l-205 -1164h389l-47 -270h-1086l47 270h416l150 854l-283 -75l-27 251l400 134h246z" />
    <glyph glyph-name="two.tf" horiz-adv-x="1183" 
d="M1012 0h-1032l36 211l605 473q126 98 186.5 165.5t71.5 137.5q14 89 -31 145t-146 56q-168 0 -294 -193l-224 146q92 156 239.5 238.5t321.5 82.5q209 0 330 -139q123 -138 88 -338q-21 -133 -108 -240q-78 -100 -252 -235l-311 -238h567z" />
    <glyph glyph-name="three.tf" horiz-adv-x="1183" 
d="M252 1434h967l-39 -234l-342 -340q149 -52 222.5 -169.5t47.5 -274.5q-37 -216 -198 -330.5t-402 -114.5q-198 0 -327 85.5t-173 250.5l258 135q56 -194 264 -194q126 0 202 52.5t93 150.5q17 95 -41 148.5t-184 53.5h-55l-84 168l348 348h-602z" />
    <glyph glyph-name="four.tf" horiz-adv-x="1183" 
d="M993 506h156l-45 -262h-158l-43 -244h-285l44 244h-691l45 262l627 928h318l-629 -928h377l57 330h285z" />
    <glyph glyph-name="five.tf" horiz-adv-x="1183" 
d="M1219 1434l-45 -265h-613l-65 -258h182q215 0 342 -133q128 -134 88 -354q-41 -224 -201 -338q-165 -115 -387 -115q-411 0 -506 336l258 135q53 -194 273 -194q121 0 193.5 51t90.5 143q18 89 -38 142t-177 53h-462l196 797h871z" />
    <glyph glyph-name="six.tf" horiz-adv-x="1183" 
d="M1083 1434l-401 -451q243 -9 362 -162q121 -151 86 -358q-38 -212 -198 -350q-165 -142 -424 -142q-265 0 -391 156q-127 157 -86 375q35 171 145 289l576 643h331zM623 719q-126 0 -210 -64t-104 -178q-20 -111 43 -175t187 -64q125 0 209 63.5t104 175.5
q20 111 -43 176.5t-186 65.5z" />
    <glyph glyph-name="seven.tf" horiz-adv-x="1183" 
d="M166 1163l47 271h1065l-41 -240l-737 -1194h-314l717 1163h-737z" />
    <glyph glyph-name="eight.tf" horiz-adv-x="1183" 
d="M1190 1034q-34 -190 -219 -295q93 -62 133 -153.5t20 -196.5q-35 -198 -197 -308t-421 -110q-254 0 -387 121t-99 320q41 226 275 340q-149 115 -115 299q34 196 195 305q156 106 379 106q216 0 342 -114q129 -114 94 -314zM459 1028q-12 -79 39 -124.5t153 -45.5
q104 0 173 46t81 124q14 78 -37.5 123t-154.5 45q-105 0 -172.5 -45t-81.5 -123zM543 238q130 0 210 52t97 146t-44.5 145.5t-191.5 51.5t-210 -51.5t-97 -145.5t45 -146t191 -52z" />
    <glyph glyph-name="nine.tf" horiz-adv-x="1183" 
d="M748 1462q262 0 389 -157q128 -159 88 -371q-27 -158 -142 -285l-579 -649h-332l401 451q-244 9 -364 159q-119 152 -84 361q35 210 197 350q163 141 426 141zM633 717q126 0 209.5 62.5t103.5 176.5q20 112 -42.5 176t-186.5 64q-125 0 -209.5 -64t-104.5 -176
q-20 -111 43 -175t187 -64z" />
    <glyph glyph-name="zero.dnom" horiz-adv-x="837" 
d="M332 -29q-165 0 -250 125q-87 128 -53 326q37 201 153.5 313.5t286.5 112.5q161 0 250 -127q87 -125 53 -324q-35 -201 -151.5 -313.5t-288.5 -112.5zM547 410q19 106 -9 162.5t-100 56.5q-70 0 -119 -58q-48 -60 -65 -161q-18 -102 10 -162q27 -58 98 -58q69 0 117.5 58
t67.5 162z" />
    <glyph glyph-name="one.dnom" horiz-adv-x="546" 
d="M43 731l262 88h193l-146 -819h-219l105 584l-175 -47z" />
    <glyph glyph-name="two.dnom" horiz-adv-x="729" 
d="M578 0h-615l25 143l364 314q88 76 94 118q6 32 -12 52t-55 20q-79 0 -143 -108l-173 108q55 94 144.5 147.5t200.5 53.5q133 0 207.5 -79t50.5 -206q-12 -60 -53.5 -113t-127.5 -124l-149 -127h276z" />
    <glyph glyph-name="three.dnom" horiz-adv-x="712" 
d="M109 819h563l-29 -162l-174 -180q78 -31 114 -95t23 -149q-23 -129 -114 -195.5t-240 -66.5q-230 0 -295 183l193 102q35 -92 126 -92q99 0 111 84q8 38 -16.5 60t-73.5 22h-39l-59 116l166 175h-291z" />
    <glyph glyph-name="four.dnom" horiz-adv-x="729" 
d="M584 332h80l-33 -201h-84l-23 -131h-209l23 131h-381l33 201l342 487h241l-331 -487h133l24 141h209z" />
    <glyph glyph-name="five.dnom" horiz-adv-x="686" 
d="M655 819l-34 -198h-310l-26 -111h65q125 0 195 -76.5t47 -206.5q-23 -127 -112 -191.5t-228 -64.5q-222 0 -287 183l189 98q30 -92 125 -92q99 0 114 84q6 39 -16 63.5t-68 24.5h-270l121 487h495z" />
    <glyph glyph-name="six.dnom" horiz-adv-x="698" 
d="M610 819l-217 -266q121 -13 184.5 -98t43.5 -203q-23 -130 -120 -205.5t-243 -75.5q-137 0 -213 88q-74 86 -53 217q15 87 63 148l316 395h239zM420 264q7 51 -17.5 78t-78.5 27q-108 0 -129 -105q-10 -50 15 -79t77 -29q112 0 133 108z" />
    <glyph glyph-name="seven.dnom" horiz-adv-x="604" 
d="M25 621l34 198h566l-29 -168l-367 -651h-233l350 621h-321z" />
    <glyph glyph-name="eight.dnom" horiz-adv-x="714" 
d="M659 594q-18 -112 -120 -170q100 -75 82 -209q-19 -116 -111.5 -180t-241.5 -64q-141 0 -217.5 72.5t-56.5 187.5q21 134 158 203q-82 67 -64 178q20 111 107.5 173.5t218.5 62.5q120 0 192 -72q74 -71 53 -182zM272 584q-7 -38 15.5 -59t70.5 -21q96 0 111 80
q6 36 -16.5 57t-67.5 21q-101 0 -113 -78zM420 254q8 43 -16.5 67.5t-73.5 24.5q-110 0 -125 -92q-8 -43 16 -68.5t74 -25.5q110 0 125 94z" />
    <glyph glyph-name="nine.dnom" horiz-adv-x="698" 
d="M406 848q134 0 210 -88q77 -89 56 -217q-18 -104 -82 -168l-297 -375h-238l215 266q-118 15 -184 99q-64 85 -43 202q23 130 120 205.5t243 75.5zM244 555q-15 -104 96 -104q108 0 129 104q10 50 -15 79.5t-77 29.5q-112 0 -133 -109z" />
    <glyph glyph-name="zero.numr" horiz-adv-x="837" 
d="M440 586q-165 0 -250 125q-87 128 -53 325q37 201 153.5 313.5t287.5 112.5q160 0 249 -127q88 -126 54 -323q-35 -201 -152 -313.5t-289 -112.5zM655 1024q19 106 -8.5 162.5t-99.5 56.5q-71 0 -119 -57q-49 -61 -66 -162t11 -162q26 -57 98 -57q69 0 117 57.5t67 161.5
z" />
    <glyph glyph-name="one.numr" horiz-adv-x="546" 
d="M152 1346l262 88h192l-145 -820h-219l104 584l-174 -47z" />
    <glyph glyph-name="two.numr" horiz-adv-x="729" 
d="M686 614h-614l24 144l365 313q88 76 94 119q6 32 -12.5 52t-55.5 20q-78 0 -143 -109l-172 109q55 94 144 147t200 53q133 0 207.5 -78.5t50.5 -205.5q-12 -61 -53.5 -114t-126.5 -124l-150 -127h277z" />
    <glyph glyph-name="three.numr" horiz-adv-x="712" 
d="M217 1434h563l-28 -162l-174 -180q78 -31 114 -95t23 -149q-23 -129 -114.5 -195.5t-240.5 -66.5q-229 0 -294 182l192 102q35 -92 127 -92q99 0 111 84q8 38 -16.5 60t-73.5 22h-39l-60 117l166 174h-291z" />
    <glyph glyph-name="four.numr" horiz-adv-x="729" 
d="M692 946h80l-33 -201h-84l-22 -131h-209l22 131h-380l32 201l342 488h242l-332 -488h133l25 141h209z" />
    <glyph glyph-name="five.numr" horiz-adv-x="686" 
d="M764 1434l-35 -199h-309l-27 -111h66q125 0 194.5 -76t46.5 -206q-23 -127 -112 -191.5t-228 -64.5q-221 0 -286 182l188 98q30 -92 125 -92q100 0 115 84q6 39 -16 63.5t-68 24.5h-271l121 488h496z" />
    <glyph glyph-name="six.numr" horiz-adv-x="698" 
d="M719 1434l-217 -267q121 -13 184 -98t43 -203q-23 -130 -119.5 -205t-242.5 -75q-137 0 -213 88q-75 87 -54 217q14 85 64 147l315 396h240zM528 879q15 104 -96 104q-108 0 -129 -104q-10 -50 15 -79.5t77 -29.5q112 0 133 109z" />
    <glyph glyph-name="seven.numr" horiz-adv-x="604" 
d="M133 1235l35 199h565l-28 -168l-367 -652h-234l351 621h-322z" />
    <glyph glyph-name="eight.numr" horiz-adv-x="716" 
d="M768 1208q-18 -111 -121 -170q100 -75 82 -209q-19 -116 -111 -179.5t-241 -63.5q-141 0 -218 72.5t-57 187.5q21 134 158 203q-81 66 -63 178q20 111 107 173t218 62q122 0 193 -71q74 -71 53 -183zM381 1198q-7 -38 15.5 -59t70.5 -21q96 0 111 80q6 36 -16.5 57
t-67.5 21q-101 0 -113 -78zM528 868q8 43 -16.5 68t-73.5 25q-110 0 -125 -93q-8 -43 16 -68.5t74 -25.5q110 0 125 94z" />
    <glyph glyph-name="nine.numr" horiz-adv-x="698" 
d="M514 1462q135 0 211 -88t55 -217q-18 -104 -82 -168l-297 -375h-237l215 267q-119 15 -184 98q-64 85 -43 203q23 130 119.5 205t242.5 75zM352 1169q-7 -51 18 -77.5t79 -26.5q108 0 129 104q10 50 -15.5 79.5t-77.5 29.5q-112 0 -133 -109z" />
    <glyph glyph-name="zero.sups" horiz-adv-x="837" 
d="M498 913q-165 0 -250 125q-87 128 -53 326q37 201 153.5 313.5t286.5 112.5q161 0 250 -127q87 -125 53 -324q-35 -201 -151.5 -313.5t-288.5 -112.5zM713 1352q19 106 -9 162.5t-100 56.5q-70 0 -119 -58q-48 -60 -65 -161q-18 -102 10 -162q26 -57 98 -57
q69 0 117.5 57.5t67.5 161.5z" />
    <glyph glyph-name="one.sups" horiz-adv-x="548" 
d="M209 1673l262 88h193l-146 -819h-219l104 584l-174 -47z" />
    <glyph glyph-name="two.sups" horiz-adv-x="729" 
d="M743 942h-614l25 143l364 314q88 76 94 119q6 32 -12 51.5t-55 19.5q-79 0 -144 -108l-172 108q55 94 144.5 147.5t199.5 53.5q133 0 207.5 -79t50.5 -206q-12 -61 -53 -113.5t-127 -123.5l-149 -127h276z" />
    <glyph glyph-name="three.sups" horiz-adv-x="714" 
d="M276 1761h564l-29 -162l-174 -180q78 -31 114 -94.5t23 -148.5q-23 -130 -114 -196.5t-240 -66.5q-230 0 -295 183l192 102q35 -92 127 -92q99 0 111 84q8 38 -16.5 60t-73.5 22h-39l-59 117l165 174h-290z" />
    <glyph glyph-name="four.sups" horiz-adv-x="729" 
d="M750 1274h79l-32 -201h-84l-23 -131h-209l23 131h-381l33 201l342 487h241l-331 -487h133l24 141h209z" />
    <glyph glyph-name="five.sups" horiz-adv-x="684" 
d="M821 1761l-35 -198h-309l-26 -111h65q125 0 195 -76.5t47 -206.5q-23 -127 -112 -191.5t-228 -64.5q-222 0 -287 183l188 98q30 -92 125 -92q100 0 115 84q6 39 -16 63.5t-68 24.5h-270l121 487h495z" />
    <glyph glyph-name="six.sups" horiz-adv-x="698" 
d="M776 1761l-217 -266q121 -13 184 -98t43 -203q-23 -130 -120 -205.5t-242 -75.5q-137 0 -213 88q-74 86 -53 218q15 86 63 147l316 395h239zM586 1206q7 51 -18 78t-79 27q-108 0 -129 -105q-10 -50 15.5 -79t77.5 -29q112 0 133 108z" />
    <glyph glyph-name="seven.sups" horiz-adv-x="606" 
d="M193 1563l34 198h566l-29 -168l-367 -651h-233l350 621h-321z" />
    <glyph glyph-name="eight.sups" horiz-adv-x="714" 
d="M825 1536q-18 -112 -120 -170q99 -75 81 -209q-19 -116 -111 -180t-241 -64q-141 0 -217.5 73t-56.5 188q21 134 157 202q-81 66 -63 178q20 111 107.5 173.5t218.5 62.5q120 0 192 -72q74 -71 53 -182zM438 1526q-7 -38 15.5 -59t70.5 -21q96 0 111 80q6 36 -16.5 57
t-67.5 21q-101 0 -113 -78zM586 1196q8 43 -16.5 67.5t-73.5 24.5q-110 0 -125 -92q-8 -43 16 -68.5t74 -25.5q110 0 125 94z" />
    <glyph glyph-name="nine.sups" horiz-adv-x="698" 
d="M571 1790q135 0 211 -88q77 -89 56 -217q-18 -104 -82 -168l-297 -375h-238l215 266q-118 15 -184 99q-64 85 -43 202q23 130 120 205.5t242 75.5zM410 1497q-15 -104 96 -104q108 0 129 104q10 50 -15 79.5t-77 29.5q-112 0 -133 -109z" />
    <glyph glyph-name="cent.tf" horiz-adv-x="1183" 
d="M631 438q160 0 254 137l213 -137q-77 -126 -206.5 -194t-283.5 -68q-55 0 -135 17l-94 -193h-123l115 231q-131 68 -193.5 204.5t-36.5 301.5q35 226 207 373q175 147 406 147q62 0 118 -12l95 189h123l-111 -224q147 -72 207 -219l-240 -127q-28 69 -88 103l-260 -527
q6 -2 33 -2zM406 723q-27 -168 88 -246l256 520h-19q-118 0 -213 -77q-91 -76 -112 -197z" />
    <glyph glyph-name="dollar.tf" horiz-adv-x="1183" 
d="M807 1180l-59 -346q45 -17 112 -50q89 -41 156 -102q123 -123 88 -320q-35 -176 -170.5 -277t-339.5 -112l-31 -178h-137l33 180q-175 17 -289 102.5t-156 223.5l256 131q53 -167 236 -188l63 364q-95 38 -155.5 72.5t-118.5 87.5q-120 111 -86 307q35 192 180 287
q141 97 332 100l31 176h137l-33 -188q259 -53 350 -283l-248 -129q-54 113 -151 142zM496 1053q-15 -102 122 -166l56 305q-74 -6 -121 -42t-57 -97zM817 393q21 97 -119 162l-55 -309q153 31 174 147z" />
    <glyph glyph-name="Euro.tf" horiz-adv-x="1183" 
d="M633 248q153 0 254 174l219 -139q-80 -149 -211 -230.5t-295 -81.5q-197 0 -308 150t-106 405h-139l29 160h123q0 9 8 49l6 31h-125l29 158h135q79 260 230.5 399t365.5 139q142 0 247.5 -80.5t153.5 -222.5l-245 -127q-44 156 -189 156q-185 0 -276 -264h356l-29 -158
h-368q-5 -20 -11 -49l-6 -31h373l-29 -160h-360q-9 -278 168 -278z" />
    <glyph glyph-name="florin.tf" horiz-adv-x="1183" 
d="M600 848l121 268q193 433 579 328l-45 -264q-87 34 -162.5 4t-113.5 -119l-96 -217h247l-47 -254h-315l-303 -678q-193 -433 -582 -328l47 262q86 -33 162.5 -2.5t114.5 117.5l280 629h-243l47 254h309z" />
    <glyph glyph-name="uni20BD.tf" horiz-adv-x="1183" 
d="M336 1434h479q191 0 311 -150q120 -148 86 -344q-34 -198 -188 -322q-150 -120 -373 -120h-196l-21 -113h400l-33 -180h-398l-36 -205h-283l37 205h-154l31 180h154l20 113h-154l43 247h154zM770 1169h-199l-73 -424h196q86 0 154.5 61t85.5 152q17 90 -30 150.5
t-134 60.5z" />
    <glyph glyph-name="sterling.tf" horiz-adv-x="1183" 
d="M934 561h-432l-51 -289h669l-47 -272h-1102l47 272h152l49 289h-123l45 248h123l35 201q41 222 173.5 337t334.5 115q149 0 259 -79.5t157 -219.5l-252 -131q-55 156 -195 156q-75 0 -127 -46.5t-69 -131.5l-35 -201h434z" />
    <glyph glyph-name="yen.tf" horiz-adv-x="1183" 
d="M1008 1434h333l-510 -693h273l-29 -163h-332l-16 -93h332l-29 -166h-332l-55 -319h-283l58 319h-330l29 166h329l17 93h-330l29 163h274l-270 693h305l178 -516z" />
    <glyph glyph-name="brevecy" horiz-adv-x="737" 
d="M780 1155h-594l39 229h594z" />
    </font>
</defs>
</svg>
