<?xml version="1.0" standalone="no"?>
<!DOCTYPE svg PUBLIC "-//W3C//DTD SVG 1.1//EN" "http://www.w3.org/Graphics/SVG/1.1/DTD/svg11.dtd" >
<svg xmlns="http://www.w3.org/2000/svg" xmlns:xlink="http://www.w3.org/1999/xlink" version="1.1">
<metadata>
Created by FontForge 20170731 at Sat Aug  7 15:00:57 2021
 By Aleksey,,,
Copyright (c) 2016 by Radomir Tinkov. All rights reserved.
</metadata>
<defs>
<font id="SVN-GilroyXBold" horiz-adv-x="1187" >
  <font-face 
    font-family="SVN-Gilroy XBold"
    font-weight="800"
    font-stretch="normal"
    units-per-em="2048"
    panose-1="0 0 9 0 0 0 0 0 0 0"
    ascent="1638"
    descent="-410"
    x-height="1024"
    cap-height="1434"
    bbox="-915 -553 2302 2220"
    underline-thickness="102"
    underline-position="-307"
    unicode-range="U+0020-FB02"
  />
<missing-glyph horiz-adv-x="1024" 
d="M190 1638h650v-2048h-650v2048zM682 1434v67h-338v-67h133v-76h-135v-68h340v68h-135v76h135zM547 1094v143h-205v-213h340v70h-135zM410 1167h67v-73h-67v73zM682 901v68h-340v-68h135v-76h-135v-67h205v143h135zM682 641v205h-68v-135h-272v-70h340zM682 365v231h-205
v-115h70v47h67v-96h-204v164h-68v-231h340zM682 10v232h-340v-232h340zM410 174h204v-96h-204v96zM682 -104v67h-340v-67h143l-143 -97v-67h340v67h-209l143 97h66z" />
    <glyph glyph-name="fi" unicode="fi" horiz-adv-x="1167" 
d="M485 1024h570v-1024h-307v729h-263v-729h-307v729h-137v295h137q0 438 498 438q113 0 256 -28v-283q-157 16 -256 16t-145 -31t-46 -112z" />
    <glyph glyph-name="fl" unicode="fl" horiz-adv-x="1167" 
d="M676 1462q164 0 379 -49v-1413h-307v1194q-16 2 -72 2q-191 0 -191 -172h150v-295h-150v-729h-307v729h-137v295h137q0 438 498 438z" />
    <glyph glyph-name="f_f" unicode="ff" horiz-adv-x="1249" 
d="M1249 1483v-295q-190 15 -190 -144v-20h190v-295h-190v-729h-307v729h-267v-729h-307v729h-137v295h137q0 224 126.5 337.5t371.5 100.5v-295q-191 15 -191 -143h267v20q0 224 126 338t371 101z" />
    <glyph glyph-name="f_f_i" unicode="ffi" horiz-adv-x="1740" 
d="M1059 1024h569v-1024h-307v729h-262v-729h-307v729h-267v-729h-307v729h-137v295h137q0 224 126.5 337.5t371.5 100.5v-295q-191 15 -191 -143h267v20q0 439 497 439q108 0 256 -29v-283q-167 17 -256 17q-99 0 -144.5 -31.5t-45.5 -112.5v-20z" />
    <glyph glyph-name="f_f_l" unicode="ffl" horiz-adv-x="1740" 
d="M1249 1483q164 0 379 -49v-1434h-307v1214q-24 3 -72 3q-190 0 -190 -173v-20h149v-295h-149v-729h-307v729h-267v-729h-307v729h-137v295h137q0 224 126.5 337.5t371.5 100.5v-295q-191 15 -191 -143h267v20q0 439 497 439z" />
    <glyph glyph-name=".notdef" horiz-adv-x="1024" 
d="M190 1638h650v-2048h-650v2048zM682 1434v67h-338v-67h133v-76h-135v-68h340v68h-135v76h135zM547 1094v143h-205v-213h340v70h-135zM410 1167h67v-73h-67v73zM682 901v68h-340v-68h135v-76h-135v-67h205v143h135zM682 641v205h-68v-135h-272v-70h340zM682 365v231h-205
v-115h70v47h67v-96h-204v164h-68v-231h340zM682 10v232h-340v-232h340zM410 174h204v-96h-204v96zM682 -104v67h-340v-67h143l-143 -97v-67h340v67h-209l143 97h66z" />
    <glyph glyph-name=".null" horiz-adv-x="0" 
 />
    <glyph glyph-name="nonmarkingreturn" horiz-adv-x="682" 
 />
    <glyph glyph-name="space" unicode=" " horiz-adv-x="512" 
 />
    <glyph glyph-name="exclam" unicode="!" horiz-adv-x="573" 
d="M410 512h-246l-62 512v410h369v-410zM424 29q-57 -57 -137 -57t-137 57t-57 137t57 137t137 57t137 -57t57 -137t-57 -137z" />
    <glyph glyph-name="quotedbl" unicode="&#x22;" horiz-adv-x="819" 
d="M328 942h-205l-41 492h287zM696 942h-204l-41 492h286z" />
    <glyph glyph-name="numbersign" unicode="#" horiz-adv-x="1271" 
d="M1231 1024l-37 -225h-215l-29 -164h217l-34 -225h-220l-51 -308h-233l51 308h-188l-52 -308h-233l51 308h-217l37 225h217l29 164h-220l37 225h219l52 307h233l-51 -307h188l52 307h233l-51 -307h215zM528 635h189l28 164h-188z" />
    <glyph glyph-name="dollar" unicode="$" horiz-adv-x="1122" 
d="M1081 412q0 -183 -113.5 -298t-305.5 -139v-180h-144v178q-173 12 -297.5 98t-179.5 234l283 164q65 -151 194 -172v283l-26 10q-128 51 -213 108q-179 124 -179 338q0 188 121 297q121 112 297 127v178h144v-182q290 -38 403 -297l-277 -162q-41 104 -126 133v-276
l67 -29q60 -21 74 -30q34 -17 67 -35q46 -22 70 -43q85 -79 102 -123q39 -93 39 -182zM428 1034q0 -59 90 -112v215q-90 -21 -90 -103zM662 520v-219q92 24 92 107q0 65 -92 112z" />
    <glyph glyph-name="percent" unicode="%" horiz-adv-x="1605" 
d="M793 1114q0 -145 -103 -248q-100 -100 -252 -100q-154 0 -254 100q-102 102 -102 248q0 144 102 246t254 102t252 -100q103 -100 103 -248zM387 145l-135 80l926 1024l135 -78zM547 1114q0 50 -31 81.5t-80 31.5q-35 0 -62.5 -20.5t-38.5 -49.5t-6 -63.5t29 -59.5
q22 -27 56.5 -31.5t64.5 8.5t50.5 41t17.5 62zM1421 76q-101 -101 -252 -101q-153 0 -254 101q-102 102 -102 248q0 143 102 245q103 103 254 103q149 0 252 -103t103 -245q0 -145 -103 -248zM1278 324q0 50 -31 81t-80 31q-35 0 -62 -20.5t-38.5 -49.5t-6 -63t29.5 -59
q22 -27 56 -31.5t64 8.5t50.5 41t17.5 62z" />
    <glyph glyph-name="ampersand" unicode="&#x26;" horiz-adv-x="1388" 
d="M1167 295l181 -201l-256 -147l-127 137q-162 -113 -371 -113q-225 0 -369 117q-143 116 -143 315q0 125 60.5 234t168.5 178q-59 103 -59 227q0 180 127 301q128 119 334 119q161 0 283.5 -80.5t187.5 -232.5l-281 -162q-59 156 -186 156q-61 0 -99 -33.5t-38 -87.5
q0 -33 16 -76q18 -35 35.5 -58t60.5 -69l264 -293q44 100 68 226l274 -156q-47 -171 -131 -301zM621 270q81 0 143 33l-262 283l-13 12q-75 -60 -75 -160q0 -77 53 -122.5t154 -45.5z" />
    <glyph glyph-name="quotesingle" unicode="'" horiz-adv-x="450" 
d="M328 942h-205l-41 492h287z" />
    <glyph glyph-name="parenleft" unicode="(" horiz-adv-x="655" 
d="M635 -205h-307q-226 450 -226 921.5t226 921.5h307q-226 -450 -226 -921.5t226 -921.5z" />
    <glyph glyph-name="parenright" unicode=")" horiz-adv-x="655" 
d="M328 -205h-308q226 450 226 921.5t-226 921.5h308q226 -450 226 -921.5t-226 -921.5z" />
    <glyph glyph-name="asterisk" unicode="*" horiz-adv-x="819" 
d="M532 1227l185 18v-180l-185 18l113 -141l-149 -94l-86 174l-86 -174l-150 94l113 141l-185 -18v180l185 -18l-113 141l150 94l86 -174l86 174l149 -94z" />
    <glyph glyph-name="plus" unicode="+" horiz-adv-x="1146" 
d="M717 860h327v-287h-327v-327h-287v327h-328v287h328v328h287v-328z" />
    <glyph glyph-name="comma" unicode="," horiz-adv-x="593" 
d="M174 317h328l-164 -604h-246z" />
    <glyph glyph-name="hyphen" unicode="-" horiz-adv-x="1024" 
d="M901 465h-778v295h778v-295z" />
    <glyph glyph-name="period" unicode="." horiz-adv-x="573" 
d="M424 29q-57 -57 -137 -57t-137 57t-57 137t57 137t137 57t137 -57t57 -137t-57 -137z" />
    <glyph glyph-name="slash" unicode="/" horiz-adv-x="1064" 
d="M1004 1638l-820 -1843h-123l820 1843h123z" />
    <glyph glyph-name="zero" unicode="0" horiz-adv-x="1290" 
d="M1073 174q-153 -203 -428 -203q-274 0 -430 203q-154 207 -154 543t154 540q156 205 430 205q275 0 428 -205q156 -203 156 -540t-156 -543zM389 717q0 -426 256 -426t256 426t-256 426t-256 -426z" />
    <glyph glyph-name="one" unicode="1" horiz-adv-x="825" 
d="M20 1298l375 136h287v-1434h-328v1087l-254 -69z" />
    <glyph glyph-name="two" unicode="2" horiz-adv-x="1091" 
d="M1020 0h-975v238l481 499q146 152 146 254q0 68 -41.5 110t-112.5 42q-144 0 -211 -156l-276 162q65 150 194.5 231.5t288.5 81.5q202 0 342 -125q143 -122 143 -331q0 -228 -223 -451l-237 -240h481v-315z" />
    <glyph glyph-name="three" unicode="3" horiz-adv-x="1126" 
d="M1008 1167l-248 -315q139 -48 222 -154.5t83 -246.5q0 -225 -152 -353q-151 -127 -370 -127q-174 0 -307 79.5t-195 228.5l283 163q53 -151 219 -151q121 -8 172 75.5t0 167.5t-172 76h-68l-125 187l260 329h-524v308h922v-267z" />
    <glyph glyph-name="four" unicode="4" 
d="M1024 532h143v-303h-143v-229h-332v229h-651v303l457 902h352l-457 -902h299v308h332v-308z" />
    <glyph glyph-name="five" unicode="5" horiz-adv-x="1126" 
d="M467 930h117q211 0 350 -127q141 -126 141 -352t-151 -353t-371 -127q-182 0 -316 78.5t-196 229.5l283 163q53 -151 229 -151q122 -7 172 76t1.5 167t-163.5 76h-448l59 824h830v-308h-523z" />
    <glyph glyph-name="six" unicode="6" horiz-adv-x="1146" 
d="M940 1434l-311 -453q209 -15 344 -156q133 -139 133 -348q0 -223 -150 -364q-148 -142 -383 -142q-237 0 -385 142q-147 141 -147 364q0 163 84 291l438 666h377zM428 332q60 -54 145.5 -54t145.5 54q59 56 59 145q0 91 -59 144q-60 55 -145.5 55.5t-145.5 -53.5
q-59 -53 -59 -146q0 -92 59 -145z" />
    <glyph glyph-name="seven" unicode="7" horiz-adv-x="1003" 
d="M20 1118v316h943v-275l-467 -1159h-349l451 1118h-578z" />
    <glyph glyph-name="eight" unicode="8" horiz-adv-x="1175" 
d="M928 748q186 -119 186 -345q0 -200 -139 -316t-387 -116t-387.5 116t-139.5 316q0 225 187 345q-137 107 -137 288q0 200 135 314q133 112 342 112t342 -112q135 -114 135 -314q0 -181 -137 -288zM696 1116q-41 38 -108.5 38t-108.5 -38t-41 -100.5t41 -100.5t108.5 -38
t108.5 38t41 100.5t-41 100.5zM444 324q54 -45 144 -45q89 0 143 45q55 46 55 127q0 78 -55 124q-57 48 -143 48q-87 0 -144 -48q-55 -46 -55 -124q0 -81 55 -127z" />
    <glyph glyph-name="nine" unicode="9" horiz-adv-x="1146" 
d="M1106 956q0 -162 -84 -290l-438 -666h-377l311 453q-212 15 -346 155q-131 137 -131 348q0 224 147 365q150 141 385 141q238 0 385 -141q148 -142 148 -365zM428 1100q-59 -53 -59 -144q0 -89 59 -145q60 -54 145.5 -54t145.5 54q59 53 59 145q0 93 -59 146
q-60 54 -145.5 53.5t-145.5 -55.5z" />
    <glyph glyph-name="colon" unicode=":" horiz-adv-x="573" 
d="M424 725q-57 -57 -137 -57t-137 57t-57 137t57 137t137 57t137 -57t57 -137t-57 -137zM424 29q-57 -57 -137 -57t-137 57t-57 137t57 137t137 57t137 -57t57 -137t-57 -137z" />
    <glyph glyph-name="semicolon" unicode=";" horiz-adv-x="593" 
d="M444 725q-57 -57 -137 -57t-137 57t-57 137t57 137t137 57t137 -57t57 -137t-57 -137zM174 317h328l-164 -604h-246z" />
    <glyph glyph-name="less" unicode="&#x3c;" horiz-adv-x="1085" 
d="M82 850l922 399v-315l-574 -217l574 -217v-316l-922 400v266z" />
    <glyph glyph-name="equal" unicode="=" horiz-adv-x="1064" 
d="M983 788h-901v287h901v-287zM983 358h-901v287h901v-287z" />
    <glyph glyph-name="greater" unicode="&#x3e;" horiz-adv-x="1085" 
d="M82 934v315l922 -399v-266l-922 -400v316l573 217z" />
    <glyph glyph-name="question" unicode="?" horiz-adv-x="1146" 
d="M717 512h-328q0 65 34 125.5t82 106.5t96 89.5t82 92.5t34 98q0 119 -152 119q-148 0 -221 -172l-283 162q67 154 205.5 241.5t311.5 87.5q190 0 327 -110q139 -112 139 -299q0 -71 -24 -135t-60.5 -108.5t-79 -88t-79 -75.5t-60.5 -67t-24 -67zM690 29q-57 -57 -137 -57
t-137 57t-57 137t57 137t137 57t137 -57t57 -137t-57 -137z" />
    <glyph glyph-name="at" unicode="@" horiz-adv-x="1585" 
d="M807 1253q219 0 385 -106q163 -101 247.5 -258t84.5 -336q0 -210 -92 -329.5t-244 -119.5q-213 0 -281 160q-75 -90 -196 -90q-129 0 -210 95t-81 243t81 243t210 95q105 0 176 -68v43h250v-483q0 -135 114 -135q88 0 139.5 89.5t51.5 256.5q0 262 -185 444
q-183 183 -450 183q-280 0 -473 -193q-191 -194 -191 -475q0 -289 199 -479q201 -189 502 -189q183 0 325 50v-78q-136 -45 -325 -45q-335 0 -559 211q-224 208 -224 530q0 308 213 524q214 217 533 217zM780 395q47 0 76 33t29 84q0 54 -28.5 85.5t-76.5 31.5
q-49 0 -77.5 -31.5t-28.5 -85.5q0 -52 28.5 -84.5t77.5 -32.5z" />
    <glyph glyph-name="A" unicode="A" horiz-adv-x="1392" 
d="M1393 0h-359l-71 225h-533l-72 -225h-358l487 1434h418zM696 1059l-168 -527h336z" />
    <glyph glyph-name="B" unicode="B" horiz-adv-x="1228" 
d="M1012 743q176 -114 176 -323q0 -185 -133 -303q-132 -117 -330 -117h-602v1434h561q192 0 322 -115q131 -113 131 -295q0 -174 -125 -281zM684 1126h-233v-254h233q55 0 90 35.5t35 91.5t-35 91.5t-90 35.5zM451 307h274q61 0 98 37.5t37 99.5t-37 100t-98 38h-274v-275z
" />
    <glyph glyph-name="C" unicode="C" horiz-adv-x="1472" 
d="M807 -29q-322 0 -535 213q-211 214 -211 533t211 530q212 215 535 215q192 0 356 -89t258 -243l-282 -163q-47 84 -134.5 130t-197.5 46q-191 0 -305 -117q-113 -116 -113 -309t113 -309q114 -117 305 -117q109 0 198.5 47t133.5 129l282 -164q-93 -154 -256.5 -243
t-357.5 -89z" />
    <glyph glyph-name="D" unicode="D" horiz-adv-x="1454" 
d="M123 1434h573q295 0 496 -207t201 -510q0 -305 -201 -512q-199 -205 -496 -205h-573v1434zM451 315h245q169 0 275 109t106 293q0 185 -106 291q-104 110 -275 110h-245v-803z" />
    <glyph glyph-name="E" unicode="E" horiz-adv-x="1085" 
d="M451 569v-254h573v-315h-901v1434h891v-316h-563v-237h512v-312h-512z" />
    <glyph glyph-name="F" unicode="F" horiz-adv-x="1064" 
d="M993 1434v-316h-542v-276h532v-316h-532v-526h-328v1434h870z" />
    <glyph glyph-name="G" unicode="G" horiz-adv-x="1603" 
d="M823 799h719v-123q0 -319 -201 -514q-200 -191 -505 -191q-334 0 -555 215q-220 217 -220 529t218 530q217 217 534 217q199 0 366.5 -88.5t260.5 -238.5l-279 -160q-48 75 -142 121.5t-208 46.5q-182 0 -303 -121q-119 -119 -119 -309q0 -185 123 -305
q123 -117 328 -117q283 0 366 221h-383v287z" />
    <glyph glyph-name="H" unicode="H" horiz-adv-x="1351" 
d="M901 885v549h328v-1434h-328v569h-450v-569h-328v1434h328v-549h450z" />
    <glyph glyph-name="I" unicode="I" horiz-adv-x="573" 
d="M123 0v1434h328v-1434h-328z" />
    <glyph glyph-name="J" unicode="J" horiz-adv-x="1175" 
d="M547 -29q-342 0 -486 279l285 164q38 -67 82.5 -95t120.5 -28q186 0 186 170v973h328v-973q0 -228 -145 -361q-144 -129 -371 -129z" />
    <glyph glyph-name="K" unicode="K" horiz-adv-x="1282" 
d="M778 735l504 -735h-373l-458 664v-664h-328v1434h328v-623l438 623h373z" />
    <glyph glyph-name="L" unicode="L" horiz-adv-x="983" 
d="M451 1434v-1119h512v-315h-840v1434h328z" />
    <glyph glyph-name="M" unicode="M" horiz-adv-x="1679" 
d="M1229 1434h327v-1434h-327v834l-371 -609h-37l-370 609v-834h-328v1434h328l389 -637z" />
    <glyph glyph-name="N" unicode="N" horiz-adv-x="1372" 
d="M922 655v779h327v-1434h-245l-553 778v-778h-328v1434h246z" />
    <glyph glyph-name="O" unicode="O" horiz-adv-x="1613" 
d="M1335 186q-218 -215 -528 -215t-528 215t-218 531q0 315 218 530t528 215t528 -215q217 -214 217 -530q0 -317 -217 -531zM508 410q119 -119 299 -119q178 0 297 119q121 121 121 307t-121 307q-119 119 -297 119q-180 0 -299 -119t-119 -307t119 -307z" />
    <glyph glyph-name="P" unicode="P" horiz-adv-x="1208" 
d="M123 1434h543q212 0 356 -144q145 -145 145 -348t-145 -348q-143 -143 -356 -143h-215v-451h-328v1434zM451 758h215q75 0 124.5 53t49.5 131t-49.5 131t-124.5 53h-215v-368z" />
    <glyph glyph-name="Q" unicode="Q" horiz-adv-x="1624" 
d="M1552 717q0 -267 -163 -469l143 -152l-236 -209l-153 162q-162 -78 -336 -78q-310 0 -528 215t-218 531q0 315 218 530t528 215t528 -215q217 -214 217 -530zM807 291q38 0 100 10l-207 219l236 209l229 -244q60 111 60 232q0 186 -121 307q-119 119 -297 119
q-180 0 -299 -119t-119 -307t119 -307t299 -119z" />
    <glyph glyph-name="R" unicode="R" horiz-adv-x="1259" 
d="M1229 0h-352l-271 471h-155v-471h-328v1434h573q204 0 348 -144t144 -348q0 -129 -72 -241.5t-192 -174.5zM696 1126h-245v-368h245q68 0 116 53.5t48 130.5t-48 130.5t-116 53.5z" />
    <glyph glyph-name="S" unicode="S" horiz-adv-x="1198" 
d="M625 -29q-216 0 -363.5 94t-210.5 261l283 163q85 -198 301 -198q194 0 194 117q0 64 -63 98q-62 38 -234 84q-173 47 -290 135q-131 106 -131 301q0 197 141 317q143 119 340 119q177 0 311.5 -82.5t212.5 -240.5l-276 -162q-39 84 -98 125t-150 41q-71 0 -112.5 -31.5
t-41.5 -77.5q0 -52 49 -92q50 -39 209 -86l133 -43q53 -17 119 -55q75 -38 111 -80q42 -46 70 -115t28 -151q0 -204 -147 -324q-147 -117 -385 -117z" />
    <glyph glyph-name="T" unicode="T" horiz-adv-x="1105" 
d="M20 1434h1065v-316h-368v-1118h-328v1118h-369v316z" />
    <glyph glyph-name="U" unicode="U" horiz-adv-x="1331" 
d="M113 463v971h327v-942q0 -201 226 -201q225 0 225 201v942h328v-971q0 -227 -156 -359q-157 -133 -397 -133q-241 0 -398 133q-155 131 -155 359z" />
    <glyph glyph-name="V" unicode="V" horiz-adv-x="1351" 
d="M885 0h-418l-467 1434h358l318 -1055l317 1055h359z" />
    <glyph glyph-name="W" unicode="W" horiz-adv-x="2043" 
d="M788 0h-372l-396 1434h345l247 -1004l277 1004h266l277 -1004l247 1004h344l-395 -1434h-373l-233 846z" />
    <glyph glyph-name="X" unicode="X" horiz-adv-x="1269" 
d="M821 735l428 -735h-372l-242 414l-242 -414h-373l429 735l-408 699h373l221 -379l221 379h373z" />
    <glyph glyph-name="Y" unicode="Y" horiz-adv-x="1290" 
d="M918 1434h372l-481 -883v-551h-328v551l-481 883h373l272 -553z" />
    <glyph glyph-name="Z" unicode="Z" horiz-adv-x="1105" 
d="M1044 1180l-548 -865h559v-315h-983v254l549 864h-539v316h962v-254z" />
    <glyph glyph-name="bracketleft" unicode="[" horiz-adv-x="655" 
d="M614 1638v-295h-204v-1253h204v-295h-512v1843h512z" />
    <glyph glyph-name="backslash" unicode="\" horiz-adv-x="1064" 
d="M1004 -205h-123l-820 1843h123z" />
    <glyph glyph-name="bracketright" unicode="]" horiz-adv-x="655" 
d="M41 1638h512v-1843h-512v295h205v1253h-205v295z" />
    <glyph glyph-name="asciicircum" unicode="^" 
d="M483 1434h222l401 -697h-328l-184 342l-184 -342h-328z" />
    <glyph glyph-name="underscore" unicode="_" horiz-adv-x="1064" 
d="M1004 -371h-943v295h943v-295z" />
    <glyph glyph-name="grave" unicode="`" horiz-adv-x="614" 
d="M573 1147h-294l-238 287h369z" />
    <glyph glyph-name="a" unicode="a" horiz-adv-x="1275" 
d="M856 928v96h307v-1024h-307v96q-107 -125 -305 -125q-202 0 -346 156t-144 385q0 227 144 383q146 158 346 158q198 0 305 -125zM436 330q68 -68 176 -68t176 68t68 182t-68 182t-176 68t-176 -68q-67 -67 -67 -182t67 -182z" />
    <glyph glyph-name="b" unicode="b" horiz-adv-x="1275" 
d="M725 1053q200 0 346 -158q143 -155 143 -383q0 -230 -143 -385q-144 -156 -346 -156q-198 0 -305 125v-96h-307v1434h307v-506q107 125 305 125zM487 330q71 -68 177 -68t174 68q69 66 69 182t-69 182q-68 68 -174 68t-177 -68q-67 -67 -67 -182t67 -182z" />
    <glyph glyph-name="c" unicode="c" horiz-adv-x="1087" 
d="M604 -29q-233 0 -389 156q-154 157 -154 385t154 385q156 156 389 156q146 0 270.5 -71t192.5 -191l-268 -156q-56 115 -199 115q-100 0 -165.5 -67t-65.5 -171t65.5 -171t165.5 -67q146 0 199 115l268 -153q-68 -122 -191.5 -193.5t-271.5 -71.5z" />
    <glyph glyph-name="d" unicode="d" horiz-adv-x="1275" 
d="M856 928v506h307v-1434h-307v96q-107 -125 -305 -125q-202 0 -346 156t-144 385q0 227 144 383q146 158 346 158q198 0 305 -125zM436 330q68 -68 176 -68t176 68t68 182t-68 182t-176 68t-176 -68q-67 -67 -67 -182t67 -182z" />
    <glyph glyph-name="e" unicode="e" 
d="M1114 389h-727q52 -143 246 -143q124 0 196 78l246 -142q-150 -211 -446 -211q-257 0 -414 154q-154 154 -154 387q0 230 152 385q153 156 393 156q224 0 371 -156q149 -152 149 -385q0 -64 -12 -123zM381 618h440q-46 162 -217 162q-177 0 -223 -162z" />
    <glyph glyph-name="f" unicode="f" horiz-adv-x="675" 
d="M676 1462v-295q-191 15 -191 -143h191v-295h-191v-729h-307v729h-137v295h137q0 224 126.5 337.5t371.5 100.5z" />
    <glyph glyph-name="g" unicode="g" horiz-adv-x="1275" 
d="M864 920v104h299v-973q0 -240 -157 -364q-155 -125 -383 -125q-349 0 -486 248l262 151q71 -129 234 -129q109 0 170 57t61 162v94q-109 -133 -299 -133q-214 0 -360 152q-144 153 -144 368q0 217 144 367q145 154 360 154q190 0 299 -133zM438 360q71 -65 178 -65
q108 0 179 65q69 63 69 172q0 110 -69 173q-71 65 -179 65q-107 0 -178 -65q-69 -63 -69 -173q0 -109 69 -172z" />
    <glyph glyph-name="h" unicode="h" horiz-adv-x="1193" 
d="M713 1053q165 0 272 -113q111 -114 111 -311v-629h-308v584q0 89 -49 137.5t-129 48.5q-89 0 -139.5 -54t-50.5 -157v-559h-307v1434h307v-506q91 125 293 125z" />
    <glyph glyph-name="i" unicode="i" horiz-adv-x="532" 
d="M395 1165q-54 -51 -127 -51t-129 51q-53 54 -53 125.5t53 124.5q55 53 128.5 53t127.5 -53t54 -124.5t-54 -125.5zM420 0h-307v1024h307v-1024z" />
    <glyph glyph-name="j" unicode="j" horiz-adv-x="563" 
d="M143 0v1024h308v-1024q0 -239 -114.5 -345.5t-356.5 -92.5v295q86 -4 124.5 29.5t38.5 113.5zM424 1165q-54 -51 -127.5 -51t-128.5 51q-52 54 -52 125.5t52 124.5q56 53 129 53t127 -53t54 -124.5t-54 -125.5z" />
    <glyph glyph-name="k" unicode="k" horiz-adv-x="1095" 
d="M713 512l383 -512h-348l-328 453v-453h-307v1434h307v-859l307 449h358z" />
    <glyph glyph-name="l" unicode="l" horiz-adv-x="532" 
d="M420 0h-307v1495h307v-1495z" />
    <glyph glyph-name="m" unicode="m" horiz-adv-x="1746" 
d="M1260 1053q174 0 282 -117q107 -113 107 -307v-629h-308v602q0 79 -38 123.5t-109 44.5q-75 0 -117.5 -50.5t-42.5 -141.5v-578h-307v602q0 79 -38 123.5t-109 44.5q-75 0 -117.5 -50.5t-42.5 -141.5v-578h-307v1024h307v-94q82 123 274 123q181 0 269 -135
q95 135 297 135z" />
    <glyph glyph-name="n" unicode="n" horiz-adv-x="1193" 
d="M713 1053q165 0 272 -113q111 -114 111 -311v-629h-308v584q0 89 -49 137.5t-129 48.5q-89 0 -139.5 -54t-50.5 -157v-559h-307v1024h307v-96q91 125 293 125z" />
    <glyph glyph-name="o" unicode="o" horiz-adv-x="1208" 
d="M989 127q-156 -156 -385 -156t-385 156q-158 158 -158 385q0 225 158 383t385 158t385 -158t158 -383q0 -227 -158 -385zM436 338q68 -68 168 -68t168 68t68 174t-68 174t-168 68t-168 -68q-67 -67 -67 -174t67 -174z" />
    <glyph glyph-name="p" unicode="p" horiz-adv-x="1275" 
d="M725 1053q200 0 346 -158q143 -155 143 -383q0 -230 -143 -385q-144 -156 -346 -156q-198 0 -305 125v-506h-307v1434h307v-96q107 125 305 125zM487 330q71 -68 177 -68t174 68q69 66 69 182t-69 182q-68 68 -174 68t-177 -68q-67 -67 -67 -182t67 -182z" />
    <glyph glyph-name="q" unicode="q" horiz-adv-x="1275" 
d="M856 928v96h307v-1434h-307v506q-107 -125 -305 -125q-202 0 -346 156t-144 385q0 227 144 383q146 158 346 158q198 0 305 -125zM436 330q68 -68 176 -68t176 68t68 182t-68 182t-176 68t-176 -68q-67 -67 -67 -182t67 -182z" />
    <glyph glyph-name="r" unicode="r" horiz-adv-x="757" 
d="M420 1024v-182q28 95 113.5 148.5t193.5 53.5v-348q-114 18 -211 -39q-96 -56 -96 -194v-463h-307v1024h307z" />
    <glyph glyph-name="s" unicode="s" horiz-adv-x="958" 
d="M403 725q0 -28 42.5 -46t136.5 -44q327 -72 325 -328q0 -167 -123 -252q-125 -84 -303 -84q-323 0 -440 244l266 152q41 -121 174 -121q111 0 111 63q0 28 -44.5 47.5t-133.5 42.5q-50 14 -89 28t-86 40.5t-77.5 58.5t-52 81.5t-21.5 109.5q0 159 115 248q116 88 286 88
q128 0 232.5 -57t167.5 -162l-262 -142q-50 90 -138 90q-86 0 -86 -57z" />
    <glyph glyph-name="t" unicode="t" horiz-adv-x="794" 
d="M713 1024v-295h-211v-362q0 -59 46.5 -76.5t164.5 -11.5v-279q-293 -30 -406 55q-112 87 -112 312v362h-164v295h164v195l307 92v-287h211z" />
    <glyph glyph-name="u" unicode="u" horiz-adv-x="1193" 
d="M774 465v559h307v-1024h-307v96q-91 -125 -293 -125q-164 0 -274 113q-109 115 -109 311v629h308v-584q0 -89 49 -137.5t129 -48.5q89 0 139.5 54t50.5 157z" />
    <glyph glyph-name="v" unicode="v" horiz-adv-x="1105" 
d="M553 375l213 649h340l-379 -1024h-348l-379 1024h340z" />
    <glyph glyph-name="w" unicode="w" horiz-adv-x="1576" 
d="M1092 475l147 549h328l-328 -1024h-287l-164 547l-163 -547h-287l-328 1024h328l147 -549l160 549h287z" />
    <glyph glyph-name="x" unicode="x" horiz-adv-x="1085" 
d="M719 520l366 -520h-352l-190 270l-191 -270h-352l367 520l-355 504h353l178 -254l178 254h352z" />
    <glyph glyph-name="y" unicode="y" horiz-adv-x="1085" 
d="M565 397l193 627h327l-350 -993q-86 -241 -226 -346.5t-357 -94.5v287q106 0 163.5 38t92.5 132l-408 977h338z" />
    <glyph glyph-name="z" unicode="z" horiz-adv-x="972" 
d="M881 819l-387 -532h407v-287h-819v205l387 532h-367v287h779v-205z" />
    <glyph glyph-name="braceleft" unicode="{" horiz-adv-x="737" 
d="M696 76v-295q-450 -27 -450 397v291q0 66 -34 88t-110 14v297q75 -8 109.5 14t34.5 89v291q0 424 450 397v-295q-75 8 -109 -14t-34 -88v-291q0 -173 -109 -250q109 -77 109 -252v-291q0 -66 34 -88t109 -14z" />
    <glyph glyph-name="bar" unicode="|" horiz-adv-x="552" 
d="M430 -410h-307v1885h307v-1885z" />
    <glyph glyph-name="braceright" unicode="}" horiz-adv-x="737" 
d="M41 -219v295q75 -8 109 14t34 88v291q0 175 109 252q-109 77 -109 250v291q0 66 -34 88t-109 14v295q451 27 451 -397v-291q0 -67 34 -89t109 -14v-297q-75 8 -109 -14t-34 -88v-291q0 -424 -451 -397z" />
    <glyph glyph-name="asciitilde" unicode="~" horiz-adv-x="1228" 
d="M901 926l246 -119q-28 -107 -80.5 -178t-120.5 -100.5t-146.5 -26.5t-162.5 39q-148 68 -213 65q-56 -3 -96 -106l-246 118q28 107 80 178t120 101t146.5 27t163.5 -39q150 -69 211 -66q57 3 98 107z" />
    <glyph glyph-name="exclamdown" unicode="&#xa1;" horiz-adv-x="573" 
d="M150 995q57 57 137 57t137 -57t57 -137t-57 -137t-137 -57t-137 57t-57 137t57 137zM102 0l62 512h246l61 -512v-410h-369v410z" />
    <glyph glyph-name="cent" unicode="&#xa2;" horiz-adv-x="1087" 
d="M578 479h22q146 0 199 115l268 -154q-68 -122 -191.5 -193t-271.5 -71q-62 0 -121 12l-61 -188h-123l72 225q-142 63 -226 195t-84 297q0 228 154 385q155 155 389 155q59 0 98 -8l60 185h123l-70 -217q168 -70 252 -222l-268 -155q-23 48 -78 84zM369 717
q0 -135 98 -199l139 436h-6q-100 0 -165.5 -66.5t-65.5 -170.5z" />
    <glyph glyph-name="sterling" unicode="&#xa3;" 
d="M524 551v-236h643v-315h-1106v315h136v236h-115v287h115v172q0 223 137 336q137 116 323 116q161 0 282 -79.5t181 -225.5l-284 -164q-25 80 -63.5 115t-104.5 35q-64 0 -104 -40t-40 -108v-157h398v-287h-398z" />
    <glyph glyph-name="currency" unicode="&#xa4;" horiz-adv-x="1105" 
d="M993 717q0 -147 -92 -268l143 -142l-81 -82l-144 146q-119 -84 -266 -84q-148 0 -264 84l-146 -146l-82 82l144 144q-92 115 -92 266t92 266l-144 143l82 82l146 -145q116 84 264 84t264 -84l146 145l81 -82l-143 -143q92 -115 92 -266zM453 614q37 -37 100 -37t100 37
q37 38 37 102t-37 101q-37 38 -100 38t-100 -38q-37 -37 -37 -101t37 -102z" />
    <glyph glyph-name="yen" unicode="&#xa5;" horiz-adv-x="1249" 
d="M918 1434h372l-372 -682h188v-181h-287l-10 -20v-62h297v-180h-297v-309h-328v309h-338v180h338v62l-10 20h-328v181h230l-373 682h373l272 -553z" />
    <glyph glyph-name="brokenbar" unicode="&#xa6;" horiz-adv-x="552" 
d="M430 717h-307v758h307v-758zM430 -410h-307v758h307v-758z" />
    <glyph glyph-name="section" unicode="&#xa7;" horiz-adv-x="1130" 
d="M1059 598q0 -161 -119 -268q61 -85 61 -203q0 -176 -122 -264q-121 -92 -304 -92q-348 0 -462 254l276 157q53 -145 186 -145q119 0 119 90q0 43 -61 76l-62 30q-22 9 -168 66q-75 32 -128.5 64.5t-96.5 75t-64.5 96.5t-21.5 120q0 163 123 258q-55 82 -55 201
q0 170 119 258q122 90 286 90q140 0 251.5 -67t170.5 -195l-254 -137q-65 133 -168 133q-98 0 -98 -82q0 -46 63 -86q33 -18 72 -35l39 -16l92 -35q131 -50 219 -121q107 -76 107 -223zM399 676q0 -82 144 -135q6 -3 17.5 -7t30.5 -10.5t34 -11.5q63 -21 94 -35q33 26 33 80
q0 49 -37 78.5t-127 62.5l-68 25l-88 33q-33 -26 -33 -80z" />
    <glyph glyph-name="dieresis" unicode="&#xa8;" horiz-adv-x="778" 
d="M303 1151q-44 -44 -108.5 -44t-108.5 44t-44 108.5t44 108.5t108.5 44t108.5 -44t44 -108.5t-44 -108.5zM692 1151q-44 -44 -108.5 -44t-108.5 44t-44 108.5t44 108.5t108.5 44t108.5 -44t44 -108.5t-44 -108.5z" />
    <glyph glyph-name="copyright" unicode="&#xa9;" horiz-adv-x="1605" 
d="M1327 193q-218 -218 -524 -218t-524 218t-218 524t218 524q217 217 524 217t524 -217t217 -524t-217 -524zM336 244q195 -195 467 -195q270 0 465 195q194 197 194 473q0 277 -194 471q-193 196 -465 196q-274 0 -467 -196q-193 -193 -193 -471q0 -277 193 -473zM809 313
q-170 0 -289 119t-119 285q0 163 119 282q121 121 289 121q106 0 198.5 -52.5t147.5 -145.5l-225 -131q-43 69 -127 69q-62 0 -103 -42.5t-41 -100.5t41 -101t103 -43q84 0 127 70l225 -131q-54 -92 -147 -145.5t-199 -53.5z" />
    <glyph glyph-name="guillemotleft" unicode="&#xab;" horiz-adv-x="1150" 
d="M348 1022h270l-225 -389l225 -389h-270l-225 389zM758 1022h270l-225 -389l225 -389h-270l-226 389z" />
    <glyph glyph-name="logicalnot" unicode="&#xac;" horiz-adv-x="1146" 
d="M82 573v287h983v-532h-307v245h-676z" />
    <glyph glyph-name="registered" unicode="&#xae;" horiz-adv-x="1605" 
d="M279 1241q217 217 524 217t524 -217t217 -524t-217 -524q-218 -218 -524 -218t-524 218t-218 524t218 524zM336 244q195 -195 467 -195q270 0 465 195q194 197 194 473q0 277 -194 471q-193 196 -465 196q-274 0 -467 -196q-193 -193 -193 -471q0 -277 193 -473z
M1128 842q0 -146 -104 -228l156 -276h-269l-98 209h-57v-209h-250v758h328q118 0 206 -70t88 -184zM807 870h-51v-118h51q32 0 52 16.5t20 42.5q0 59 -72 59z" />
    <glyph glyph-name="overscore" unicode="&#xaf;" horiz-adv-x="696" 
d="M655 1145h-614v246h614v-246z" />
    <glyph glyph-name="degree" unicode="&#xb0;" horiz-adv-x="831" 
d="M416 963q-154 0 -254 100q-101 101 -101 248q0 144 101 245q103 103 254 103q149 0 252 -103q102 -102 102 -245q0 -148 -100 -248t-254 -100zM516 1311q0 44 -28 73t-72 29t-72.5 -29t-28.5 -73q-6 -63 47.5 -89.5t106.5 0t47 89.5z" />
    <glyph glyph-name="plusminus" unicode="&#xb1;" horiz-adv-x="1146" 
d="M717 1352v-287h327v-287h-327v-286h-287v286h-328v287h328v287h287zM1044 82h-942v287h942v-287z" />
    <glyph glyph-name="acute" unicode="&#xb4;" horiz-adv-x="614" 
d="M41 1147l164 287h368l-237 -287h-295z" />
    <glyph glyph-name="uni00B5" unicode="&#xb5;" horiz-adv-x="1269" 
d="M1157 287h72v-287h-133q-150 0 -232 88q-88 -117 -286 -117q-91 0 -158 33v-414h-307v1434h307v-584q0 -89 49 -137.5t129 -48.5q89 0 139.5 54t50.5 157v559h308v-676q0 -61 61 -61z" />
    <glyph glyph-name="paragraph" unicode="&#xb6;" horiz-adv-x="1429" 
d="M492 1434h839v-267h-127v-1577h-286v1577h-140v-1577h-286v942q-188 0 -320 132q-131 131 -131 319q0 189 131 320t320 131z" />
    <glyph glyph-name="middot" unicode="&#xb7;" horiz-adv-x="573" 
d="M424 571q-57 -57 -137 -57t-137 57t-57 137.5t57 137.5t137 57t137 -57t57 -137.5t-57 -137.5z" />
    <glyph glyph-name="cedilla" unicode="&#xb8;" horiz-adv-x="542" 
d="M373 0v-94q55 -13 92 -53.5t37 -104.5q0 -217 -461 -190v213q195 -15 195 28q0 32 -109 41v160h246z" />
    <glyph glyph-name="guillemotright" unicode="&#xbb;" horiz-adv-x="1150" 
d="M123 1022h270l225 -389l-225 -389h-270l225 389zM532 1022h271l225 -389l-225 -389h-271l226 389z" />
    <glyph glyph-name="onequarter" unicode="&#xbc;" horiz-adv-x="1662" 
d="M469 1434v-820h-250v572l-162 -45l-57 202l250 91h219zM233 0l820 1434h204l-819 -1434h-205zM1556 350h76v-225h-76v-125h-237v125h-369v225l250 469h266l-239 -469h92v125h237v-125z" />
    <glyph glyph-name="onehalf" unicode="&#xbd;" horiz-adv-x="1669" 
d="M469 1434v-820h-250v572l-162 -45l-57 202l250 91h219zM233 0l820 1434h204l-819 -1434h-205zM1444 322l-96 -97h251v-225h-626v158l297 301q65 65 65 108q0 56 -63 56q-67 0 -109 -97l-202 115q89 207 315 207q132 0 221 -74q90 -72 90 -186q0 -123 -143 -266z" />
    <glyph glyph-name="threequarters" unicode="&#xbe;" horiz-adv-x="1810" 
d="M664 864q0 -134 -84.5 -206t-239.5 -72q-248 0 -330 184l211 123q30 -92 119 -92q72 0 72 63q0 62 -82 62h-49l-86 127l127 155h-273v226h576v-174l-138 -162q177 -59 177 -234zM381 0l819 1434h205l-819 -1434h-205zM1704 350h76v-225h-76v-125h-238v125h-368v225
l250 469h266l-240 -469h92v125h238v-125z" />
    <glyph glyph-name="questiondown" unicode="&#xbf;" horiz-adv-x="1146" 
d="M457 995q57 57 137 57t137 -57t57 -137t-57 -137t-137 -57t-137 57t-57 137t57 137zM430 512h328q0 -65 -34 -125.5t-82 -106.5t-96 -89.5t-82 -92.5t-34 -98q0 -119 152 -119q148 0 221 172l282 -162q-67 -154 -205 -241.5t-311 -87.5q-190 0 -327 110
q-140 113 -140 299q0 84 34 157.5t82 124.5t96 94.5t82 85.5t34 79z" />
    <glyph glyph-name="Agrave" unicode="&#xc0;" horiz-adv-x="1392" 
d="M717 1843l164 -287h-295l-238 287h369zM1393 0h-359l-71 225h-533l-72 -225h-358l487 1434h418zM696 1059l-168 -527h336z" />
    <glyph glyph-name="Aacute" unicode="&#xc1;" horiz-adv-x="1392" 
d="M676 1843h368l-237 -287h-295zM1393 0h-359l-71 225h-533l-72 -225h-358l487 1434h418zM696 1059l-168 -527h336z" />
    <glyph glyph-name="Acircumflex" unicode="&#xc2;" horiz-adv-x="1392" 
d="M758 1536l-72 113l-72 -113h-297l218 307h303l217 -307h-297zM1393 0h-359l-71 225h-533l-72 -225h-358l487 1434h418zM696 1059l-168 -527h336z" />
    <glyph glyph-name="Atilde" unicode="&#xc3;" horiz-adv-x="1392" 
d="M1393 0h-359l-71 225h-533l-72 -225h-358l487 1434h418zM696 1059l-168 -527h336zM662 1585q-47 31 -64.5 21t-17.5 -68h-234q0 95 22.5 163t60.5 102t87 44.5t103 -3.5t108 -48q51 -30 66.5 -21t15.5 68h233q0 -95 -22.5 -163t-60 -102t-87 -44.5t-103 3.5t-107.5 48z
" />
    <glyph glyph-name="Adieresis" unicode="&#xc4;" horiz-adv-x="1392" 
d="M610 1561q-44 -44 -108.5 -44t-108.5 44t-44 108.5t44 108.5t108.5 44t108.5 -44t44 -108.5t-44 -108.5zM999 1561q-44 -44 -108.5 -44t-108.5 44t-44 108.5t44 108.5t108.5 44t108.5 -44t44 -108.5t-44 -108.5zM1393 0h-359l-71 225h-533l-72 -225h-358l487 1434h418z
M696 1059l-168 -527h336z" />
    <glyph glyph-name="Aring" unicode="&#xc5;" horiz-adv-x="1392" 
d="M1393 0h-359l-71 225h-533l-72 -225h-358l481 1415q-57 66 -57 162q0 111 77 183.5t195 72.5q121 0 197 -72.5t76 -183.5q0 -94 -58 -164zM750 1626q-19 20 -53.5 20t-53.5 -20q-19 -19 -19 -49.5t19 -50.5q19 -19 53.5 -19t53.5 19q20 20 20 50.5t-20 49.5zM696 1059
l-168 -527h336z" />
    <glyph glyph-name="AE" unicode="&#xc6;" horiz-adv-x="1802" 
d="M1239 569v-254h502v-315h-819v225h-422l-131 -225h-369l838 1434h893v-316h-492v-237h440v-312h-440zM922 950l-244 -418h244v418z" />
    <glyph glyph-name="Ccedilla" unicode="&#xc7;" horiz-adv-x="1472" 
d="M807 291q109 0 198.5 47t133.5 129l282 -164q-75 -125 -200 -209t-277 -110v-78q55 -13 92 -53.5t37 -104.5q0 -217 -461 -190v213q195 -15 195 28q0 32 -109 41v137q-279 37 -458 244q-179 206 -179 496q0 319 211 530q212 215 535 215q192 0 356 -89t258 -243
l-282 -163q-47 84 -134.5 130t-197.5 46q-191 0 -305 -117q-113 -116 -113 -309t113 -309q114 -117 305 -117z" />
    <glyph glyph-name="Egrave" unicode="&#xc8;" horiz-adv-x="1085" 
d="M590 1843l164 -287h-295l-238 287h369zM451 569v-254h573v-315h-901v1434h891v-316h-563v-237h512v-312h-512z" />
    <glyph glyph-name="Eacute" unicode="&#xc9;" horiz-adv-x="1085" 
d="M549 1843h369l-238 -287h-295zM451 569v-254h573v-315h-901v1434h891v-316h-563v-237h512v-312h-512z" />
    <glyph glyph-name="Ecircumflex" unicode="&#xca;" horiz-adv-x="1085" 
d="M631 1536l-72 113l-72 -113h-297l218 307h303l217 -307h-297zM451 569v-254h573v-315h-901v1434h891v-316h-563v-237h512v-312h-512z" />
    <glyph glyph-name="Edieresis" unicode="&#xcb;" horiz-adv-x="1085" 
d="M483 1561q-44 -44 -108.5 -44t-108.5 44t-44 108.5t44 108.5t108.5 44t108.5 -44t44 -108.5t-44 -108.5zM872 1561q-44 -44 -108.5 -44t-108.5 44t-44 108.5t44 108.5t108.5 44t108.5 -44t44 -108.5t-44 -108.5zM451 569v-254h573v-315h-901v1434h891v-316h-563v-237h512
v-312h-512z" />
    <glyph glyph-name="Igrave" unicode="&#xcc;" horiz-adv-x="573" 
d="M471 1556h-295l-237 287h368zM123 1434v-1434h328v1434h-328z" />
    <glyph glyph-name="Iacute" unicode="&#xcd;" horiz-adv-x="573" 
d="M102 1556l164 287h369l-238 -287h-295zM123 1434v-1434h328v1434h-328z" />
    <glyph glyph-name="Icircumflex" unicode="&#xce;" horiz-adv-x="573" 
d="M348 1536l-72 113l-71 -113h-297l217 307h303l217 -307h-297zM451 0h-328v1434h328v-1434z" />
    <glyph glyph-name="Idieresis" unicode="&#xcf;" horiz-adv-x="573" 
d="M201 1561q-44 -44 -108.5 -44t-108.5 44t-44 108.5t44 108.5t108.5 44t108.5 -44t44 -108.5t-44 -108.5zM590 1561q-44 -44 -108.5 -44t-108.5 44t-44 108.5t44 108.5t108.5 44t108.5 -44t44 -108.5t-44 -108.5zM123 0v1434h328v-1434h-328z" />
    <glyph glyph-name="Eth" unicode="&#xd0;" horiz-adv-x="1536" 
d="M205 1434h573q295 0 496 -207t201 -510q0 -305 -201 -512q-199 -205 -496 -205h-573v549h-164v295h164v590zM532 315h246q169 0 275 109t106 293q0 185 -106 291q-104 110 -275 110h-246v-274h287v-295h-287v-234z" />
    <glyph glyph-name="Ntilde" unicode="&#xd1;" horiz-adv-x="1372" 
d="M543 1542h-246q0 100 24 172t64 108t91.5 47t108 -3.5t113.5 -50.5q51 -32 69.5 -22t18.5 71h246q0 -100 -24 -172t-64 -108t-91.5 -47t-108 3.5t-113.5 50.5q-54 32 -71 22.5t-17 -71.5zM922 655v779h327v-1434h-245l-553 778v-778h-328v1434h246z" />
    <glyph glyph-name="Ograve" unicode="&#xd2;" horiz-adv-x="1613" 
d="M1040 1577h-295l-237 287h369zM1335 186q217 214 217 531q0 316 -217 530q-218 215 -528 215t-528 -215t-218 -530q0 -316 218 -531t528 -215t528 215zM508 410q-119 119 -119 307t119 307t299 119q178 0 297 -119q121 -121 121 -307t-121 -307q-119 -119 -297 -119
q-180 0 -299 119z" />
    <glyph glyph-name="Oacute" unicode="&#xd3;" horiz-adv-x="1613" 
d="M692 1577l164 287h369l-238 -287h-295zM1335 186q217 214 217 531q0 316 -217 530q-218 215 -528 215t-528 -215t-218 -530q0 -316 218 -531t528 -215t528 215zM508 410q-119 119 -119 307t119 307t299 119q178 0 297 -119q121 -121 121 -307t-121 -307
q-119 -119 -297 -119q-180 0 -299 119z" />
    <glyph glyph-name="Ocircumflex" unicode="&#xd4;" horiz-adv-x="1613" 
d="M881 1556l-72 113l-72 -113h-297l217 308h304l217 -308h-297zM279 1247q218 215 528 215t528 -215q217 -214 217 -530q0 -317 -217 -531q-218 -215 -528 -215t-528 215t-218 531q0 315 218 530zM508 410q119 -119 299 -119q178 0 297 119q121 121 121 307t-121 307
q-119 119 -297 119q-180 0 -299 -119t-119 -307t119 -307z" />
    <glyph glyph-name="Otilde" unicode="&#xd5;" horiz-adv-x="1613" 
d="M1335 186q-218 -215 -528 -215t-528 215t-218 531q0 315 218 530t528 215t528 -215q217 -214 217 -530q0 -317 -217 -531zM508 410q119 -119 299 -119q178 0 297 119q121 121 121 307t-121 307q-119 119 -297 119q-180 0 -299 -119t-119 -307t119 -307zM791 1610
q-47 31 -64.5 21t-17.5 -68h-234q0 95 22.5 163t60.5 102t87 44.5t103 -3.5t108 -48q51 -30 66.5 -21t15.5 68h233q0 -95 -22.5 -163t-60 -102t-87 -44.5t-103 3.5t-107.5 48z" />
    <glyph glyph-name="Odieresis" unicode="&#xd6;" horiz-adv-x="1613" 
d="M721 1581q-44 -44 -108.5 -44t-108.5 44t-44 108.5t44 108.5t108.5 44t108.5 -44t44 -108.5t-44 -108.5zM1110 1581q-44 -44 -108.5 -44t-108.5 44t-44 108.5t44 108.5t108.5 44t108.5 -44t44 -108.5t-44 -108.5zM1335 186q-218 -215 -528 -215t-528 215t-218 531
q0 315 218 530t528 215t528 -215q217 -214 217 -530q0 -317 -217 -531zM508 410q119 -119 299 -119q178 0 297 119q121 121 121 307t-121 307q-119 119 -297 119q-180 0 -299 -119t-119 -307t119 -307z" />
    <glyph glyph-name="multiply" unicode="&#xd7;" horiz-adv-x="1075" 
d="M770 1151l203 -201l-234 -233l234 -234l-203 -200l-231 233l-234 -233l-203 200l234 234l-234 233l203 201l234 -231z" />
    <glyph glyph-name="Oslash" unicode="&#xd8;" horiz-adv-x="1624" 
d="M1468 1374l-112 -137q207 -213 207 -520q0 -317 -217 -531q-218 -215 -529 -215q-214 0 -403 115l-95 -115l-153 88l113 138q-207 213 -207 520q0 316 217 530q218 215 528 215q217 0 404 -114l94 114zM399 717q0 -156 86 -268l531 647q-89 47 -199 47q-180 0 -299 -119
t-119 -307zM817 291q178 0 297 119q121 121 121 307q0 156 -86 268l-531 -647q89 -47 199 -47z" />
    <glyph glyph-name="Ugrave" unicode="&#xd9;" horiz-adv-x="1331" 
d="M850 1556h-295l-238 287h369zM113 463q0 -228 155 -359q157 -133 398 -133q240 0 397 133q156 132 156 359v971h-328v-942q0 -201 -225 -201q-226 0 -226 201v942h-327v-971z" />
    <glyph glyph-name="Uacute" unicode="&#xda;" horiz-adv-x="1331" 
d="M512 1556l164 287h368l-237 -287h-295zM113 463q0 -228 155 -359q157 -133 398 -133q240 0 397 133q156 132 156 359v971h-328v-942q0 -201 -225 -201q-226 0 -226 201v942h-327v-971z" />
    <glyph glyph-name="Ucircumflex" unicode="&#xdb;" horiz-adv-x="1331" 
d="M727 1536l-72 113l-71 -113h-297l217 307h303l217 -307h-297zM891 492v942h328v-971q0 -227 -156 -359q-157 -133 -397 -133q-241 0 -398 133q-155 131 -155 359v971h327v-942q0 -201 226 -201q225 0 225 201z" />
    <glyph glyph-name="Udieresis" unicode="&#xdc;" horiz-adv-x="1331" 
d="M580 1561q-44 -44 -109 -44t-109 44t-44 108.5t44 108.5t109 44t109 -44t44 -108.5t-44 -108.5zM969 1561q-44 -44 -108.5 -44t-108.5 44t-44 108.5t44 108.5t108.5 44t108.5 -44t44 -108.5t-44 -108.5zM113 463v971h327v-942q0 -201 226 -201q225 0 225 201v942h328
v-971q0 -227 -156 -359q-157 -133 -397 -133q-241 0 -398 133q-155 131 -155 359z" />
    <glyph glyph-name="Yacute" unicode="&#xdd;" horiz-adv-x="1290" 
d="M655 1843h369l-238 -287h-294zM918 1434h372l-481 -883v-551h-328v551l-481 883h373l272 -553z" />
    <glyph glyph-name="Thorn" unicode="&#xde;" horiz-adv-x="1208" 
d="M451 1208h225q205 0 348 -143t143 -348t-143 -348q-144 -144 -348 -144h-225v-225h-328v1434h328v-226zM451 532h225q68 0 116 53.5t48 131.5q0 77 -48 130.5t-116 53.5h-225v-369z" />
    <glyph glyph-name="germandbls" unicode="&#xdf;" horiz-adv-x="1114" 
d="M565 -14v270q211 -21 211 104q0 60 -112 213q-113 155 -113 224q0 53 55 135q56 83 56 141q0 46 -31 78.5t-80 32.5q-61 0 -96 -37.5t-35 -108.5v-1038h-307v1034q0 196 122 312t330 116q186 0 293 -98q111 -94 111 -236q0 -102 -51 -188q-52 -88 -52 -123
q-3 -27 31.5 -88t77 -125t77 -150t31.5 -155q0 -365 -518 -313z" />
    <glyph glyph-name="agrave" unicode="&#xe0;" horiz-adv-x="1275" 
d="M717 1434l164 -287h-295l-238 287h369zM856 928v96h307v-1024h-307v96q-107 -125 -305 -125q-202 0 -346 156t-144 385q0 227 144 383q146 158 346 158q198 0 305 -125zM436 330q68 -68 176 -68t176 68t68 182t-68 182t-176 68t-176 -68q-67 -67 -67 -182t67 -182z" />
    <glyph glyph-name="aacute" unicode="&#xe1;" horiz-adv-x="1275" 
d="M684 1434h369l-238 -287h-295zM856 928v96h307v-1024h-307v96q-107 -125 -305 -125q-202 0 -346 156t-144 385q0 227 144 383q146 158 346 158q198 0 305 -125zM436 330q68 -68 176 -68t176 68t68 182t-68 182t-176 68t-176 -68q-67 -67 -67 -182t67 -182z" />
    <glyph glyph-name="acircumflex" unicode="&#xe2;" horiz-adv-x="1275" 
d="M768 1126l-72 113l-71 -113h-297l217 308h303l217 -308h-297zM856 928v96h307v-1024h-307v96q-107 -125 -305 -125q-202 0 -346 156t-144 385q0 227 144 383q146 158 346 158q198 0 305 -125zM436 330q68 -68 176 -68t176 68t68 182t-68 182t-176 68t-176 -68
q-67 -67 -67 -182t67 -182z" />
    <glyph glyph-name="atilde" unicode="&#xe3;" horiz-adv-x="1275" 
d="M856 928v96h307v-1024h-307v96q-107 -125 -305 -125q-202 0 -346 156t-144 385q0 227 144 383q146 158 346 158q198 0 305 -125zM436 330q68 -68 176 -68t176 68t68 182t-68 182t-176 68t-176 -68q-67 -67 -67 -182t67 -182zM662 1180q-47 31 -64.5 21t-17.5 -68h-234
q0 95 22.5 163t60.5 102t87 44.5t103 -3.5t108 -48q51 -30 66.5 -21t15.5 68h233q0 -95 -22.5 -163t-60 -102t-87 -44.5t-103 3.5t-107.5 48z" />
    <glyph glyph-name="adieresis" unicode="&#xe4;" horiz-adv-x="1275" 
d="M549 1151q-44 -44 -108.5 -44t-108.5 44t-44 108.5t44 108.5t108.5 44t108.5 -44t44 -108.5t-44 -108.5zM938 1151q-44 -44 -108.5 -44t-108.5 44t-44 108.5t44 108.5t108.5 44t108.5 -44t44 -108.5t-44 -108.5zM856 928v96h307v-1024h-307v96q-107 -125 -305 -125
q-202 0 -346 156t-144 385q0 227 144 383q146 158 346 158q198 0 305 -125zM436 330q68 -68 176 -68t176 68t68 182t-68 182t-176 68t-176 -68q-67 -67 -67 -182t67 -182z" />
    <glyph glyph-name="aring" unicode="&#xe5;" horiz-adv-x="1275" 
d="M635 1096q-118 0 -195.5 73t-77.5 183t77.5 183t195.5 73q120 0 196 -72.5t76 -183.5t-76 -183.5t-196 -72.5zM688 1401q-19 20 -53 20t-53 -20q-19 -19 -19 -50t19 -51q19 -19 53 -19t53 19q20 20 20 51t-20 50zM856 928v96h307v-1024h-307v96q-107 -125 -305 -125
q-202 0 -346 156t-144 385q0 227 144 383q146 158 346 158q198 0 305 -125zM436 330q68 -68 176 -68t176 68t68 182t-68 182t-176 68t-176 -68q-67 -67 -67 -182t67 -182z" />
    <glyph glyph-name="ae" unicode="&#xe6;" horiz-adv-x="1986" 
d="M1913 389h-727q55 -143 246 -143q124 0 196 78l246 -142q-80 -111 -173.5 -161t-232.5 -50q-197 0 -325 140v-111h-287v96q-107 -125 -305 -125q-202 0 -346 156t-144 385q0 227 144 383q146 158 346 158q198 0 305 -125v96h287v-109q126 138 317 138q217 0 342 -152
q123 -150 123 -389q0 -64 -12 -123zM1180 623h440q-47 157 -213 157q-174 0 -227 -157zM436 330q68 -68 176 -68t176 68t68 182t-68 182t-176 68t-176 -68q-67 -67 -67 -182t67 -182z" />
    <glyph glyph-name="ccedilla" unicode="&#xe7;" horiz-adv-x="1087" 
d="M600 274q146 0 199 115l268 -153q-104 -189 -326 -248v-82q55 -13 92 -53.5t37 -104.5q0 -217 -460 -190v213q194 -15 194 28q0 32 -108 41v142q-194 35 -314 182q-121 148 -121 348q0 228 154 385q156 156 389 156q146 0 270.5 -71t192.5 -191l-268 -156
q-56 115 -199 115q-100 0 -165.5 -67t-65.5 -171t65.5 -171t165.5 -67z" />
    <glyph glyph-name="egrave" unicode="&#xe8;" 
d="M651 1444l164 -287h-295l-237 287h368zM1114 389h-727q52 -143 246 -143q124 0 196 78l246 -142q-150 -211 -446 -211q-257 0 -414 154q-154 154 -154 387q0 230 152 385q153 156 393 156q224 0 371 -156q149 -152 149 -385q0 -64 -12 -123zM381 618h440
q-46 162 -217 162q-177 0 -223 -162z" />
    <glyph glyph-name="eacute" unicode="&#xe9;" 
d="M612 1444h369l-238 -287h-294zM1114 389h-727q52 -143 246 -143q124 0 196 78l246 -142q-150 -211 -446 -211q-257 0 -414 154q-154 154 -154 387q0 230 152 385q153 156 393 156q224 0 371 -156q149 -152 149 -385q0 -64 -12 -123zM381 618h440q-46 162 -217 162
q-177 0 -223 -162z" />
    <glyph glyph-name="ecircumflex" unicode="&#xea;" 
d="M686 1137l-72 112l-71 -112h-297l217 307h303l217 -307h-297zM1114 389h-727q52 -143 246 -143q124 0 196 78l246 -142q-150 -211 -446 -211q-257 0 -414 154q-154 154 -154 387q0 230 152 385q153 156 393 156q224 0 371 -156q149 -152 149 -385q0 -64 -12 -123z
M381 618h440q-46 162 -217 162q-177 0 -223 -162z" />
    <glyph glyph-name="edieresis" unicode="&#xeb;" 
d="M508 1161q-44 -44 -108.5 -44t-108.5 44t-44 108.5t44 108.5t108.5 44t108.5 -44t44 -108.5t-44 -108.5zM897 1161q-44 -44 -108.5 -44t-108.5 44t-44 108.5t44 108.5t108.5 44t108.5 -44t44 -108.5t-44 -108.5zM1114 389h-727q52 -143 246 -143q124 0 196 78l246 -142
q-150 -211 -446 -211q-257 0 -414 154q-154 154 -154 387q0 230 152 385q153 156 393 156q224 0 371 -156q149 -152 149 -385q0 -64 -12 -123zM381 618h440q-46 162 -217 162q-177 0 -223 -162z" />
    <glyph glyph-name="igrave" unicode="&#xec;" horiz-adv-x="532" 
d="M410 1126h-295l-135 308h348zM420 0v1024h-307v-1024h307z" />
    <glyph glyph-name="iacute" unicode="&#xed;" horiz-adv-x="532" 
d="M113 1126l82 308h348l-135 -308h-295zM113 0h307v1024h-307v-1024z" />
    <glyph glyph-name="icircumflex" unicode="&#xee;" horiz-adv-x="532" 
d="M317 1126l-51 91l-51 -91h-297l197 308h303l196 -308h-297zM420 0h-307v1024h307v-1024z" />
    <glyph glyph-name="idieresis" unicode="&#xef;" horiz-adv-x="532" 
d="M190 1161q-44 -44 -108.5 -44t-108.5 44t-44 108.5t44 108.5t108.5 44t108.5 -44t44 -108.5t-44 -108.5zM559 1161q-44 -44 -108.5 -44t-108.5 44t-44 108.5t44 108.5t108.5 44t108.5 -44t44 -108.5t-44 -108.5zM420 0h-307v1024h307v-1024z" />
    <glyph glyph-name="eth" unicode="&#xf0;" horiz-adv-x="1159" 
d="M676 1196l328 -438q94 -128 94 -287q0 -225 -152 -362q-152 -134 -366 -134q-215 0 -367 134q-152 137 -152 362q0 188 129 320q133 136 322 139l-104 141l-271 -125v205l160 74l-150 209h353l63 -84l244 112v-205zM791 471q0 69 -37 121q-62 80 -174 80
q-94 0 -152.5 -54.5t-58.5 -146.5q0 -98 57 -153.5t154 -55.5t154 55.5t57 153.5z" />
    <glyph glyph-name="ntilde" unicode="&#xf1;" horiz-adv-x="1193" 
d="M582 1202q-54 32 -71 22.5t-17 -71.5h-246q0 100 24 172t64 107.5t91.5 46.5t108 -3.5t113.5 -50.5q51 -32 69.5 -21.5t18.5 71.5h246q0 -100 -24 -172t-64 -108t-91.5 -47t-108 3.5t-113.5 50.5zM713 1053q165 0 272 -113q111 -114 111 -311v-629h-308v584
q0 89 -49 137.5t-129 48.5q-89 0 -139.5 -54t-50.5 -157v-559h-307v1024h307v-96q91 125 293 125z" />
    <glyph glyph-name="ograve" unicode="&#xf2;" horiz-adv-x="1208" 
d="M813 1167h-295l-237 287h368zM989 127q158 158 158 385q0 225 -158 383t-385 158t-385 -158t-158 -383q0 -227 158 -385q156 -156 385 -156t385 156zM436 338q-67 67 -67 174t67 174q68 68 168 68t168 -68t68 -174t-68 -174t-168 -68t-168 68z" />
    <glyph glyph-name="oacute" unicode="&#xf3;" horiz-adv-x="1208" 
d="M467 1167l164 287h368l-237 -287h-295zM989 127q158 158 158 385q0 225 -158 383t-385 158t-385 -158t-158 -383q0 -227 158 -385q156 -156 385 -156t385 156zM436 338q-67 67 -67 174t67 174q68 68 168 68t168 -68t68 -174t-68 -174t-168 -68t-168 68z" />
    <glyph glyph-name="ocircumflex" unicode="&#xf4;" horiz-adv-x="1208" 
d="M678 1147l-72 113l-71 -113h-297l217 307h303l217 -307h-297zM219 895q158 158 385 158t385 -158t158 -383q0 -227 -158 -385q-156 -156 -385 -156t-385 156q-158 158 -158 385q0 225 158 383zM436 338q68 -68 168 -68t168 68t68 174t-68 174t-168 68t-168 -68
q-67 -67 -67 -174t67 -174z" />
    <glyph glyph-name="otilde" unicode="&#xf5;" horiz-adv-x="1208" 
d="M989 127q-156 -156 -385 -156t-385 156q-158 158 -158 385q0 225 158 383t385 158t385 -158t158 -383q0 -227 -158 -385zM436 338q68 -68 168 -68t168 68t68 174t-68 174t-168 68t-168 -68q-67 -67 -67 -174t67 -174zM602 1200q-47 31 -64.5 21t-17.5 -68h-233
q0 95 22.5 163t60.5 102t87 44.5t103 -3.5t108 -48q51 -30 66.5 -21t15.5 68h233q0 -95 -22.5 -163t-60.5 -102t-87 -44.5t-103 3.5t-108 48z" />
    <glyph glyph-name="odieresis" unicode="&#xf6;" horiz-adv-x="1208" 
d="M518 1171q-44 -44 -108.5 -44t-108.5 44t-44 109t44 109t108.5 44t108.5 -44t44 -109t-44 -109zM907 1171q-44 -44 -108.5 -44t-108.5 44t-44 109t44 109t108.5 44t108.5 -44t44 -109t-44 -109zM989 127q-156 -156 -385 -156t-385 156q-158 158 -158 385q0 225 158 383
t385 158t385 -158t158 -383q0 -227 -158 -385zM436 338q68 -68 168 -68t168 68t68 174t-68 174t-168 68t-168 -68q-67 -67 -67 -174t67 -174z" />
    <glyph glyph-name="divide" unicode="&#xf7;" horiz-adv-x="1146" 
d="M705 989q-54 -54 -131.5 -54t-131.5 54t-54 131t54 131t131.5 54t131.5 -54t54 -131t-54 -131zM1065 573h-983v287h983v-287zM705 182q-54 -54 -131.5 -54t-131.5 54t-54 131t54 131t131.5 54t131.5 -54t54 -131t-54 -131z" />
    <glyph glyph-name="oslash" unicode="&#xf8;" horiz-adv-x="1208" 
d="M1079 973l-75 -92q143 -152 143 -369q0 -227 -158 -385q-156 -156 -385 -156q-156 0 -289 80l-59 -71l-125 69l76 92q-146 158 -146 371q0 225 158 383t385 158q164 0 289 -82l61 73zM369 512q0 -75 34 -133l295 356q-46 19 -94 19q-100 0 -167.5 -68.5t-67.5 -173.5z
M604 270q101 0 168.5 68.5t67.5 173.5q0 75 -33 131l-295 -356q49 -17 92 -17z" />
    <glyph glyph-name="ugrave" unicode="&#xf9;" horiz-adv-x="1193" 
d="M610 1434l164 -287h-295l-237 287h368zM774 465v559h307v-1024h-307v96q-91 -125 -293 -125q-164 0 -274 113q-109 115 -109 311v629h308v-584q0 -89 49 -137.5t129 -48.5q89 0 139.5 54t50.5 157z" />
    <glyph glyph-name="uacute" unicode="&#xfa;" horiz-adv-x="1193" 
d="M598 1434h369l-238 -287h-295zM774 465v559h307v-1024h-307v96q-91 -125 -293 -125q-164 0 -274 113q-109 115 -109 311v629h308v-584q0 -89 49 -137.5t129 -48.5q89 0 139.5 54t50.5 157z" />
    <glyph glyph-name="ucircumflex" unicode="&#xfb;" horiz-adv-x="1193" 
d="M651 1126l-71 113l-72 -113h-297l217 308h303l217 -308h-297zM774 465v559h307v-1024h-307v96q-91 -125 -293 -125q-164 0 -274 113q-109 115 -109 311v629h308v-584q0 -89 49 -137.5t129 -48.5q89 0 139.5 54t50.5 157z" />
    <glyph glyph-name="udieresis" unicode="&#xfc;" horiz-adv-x="1193" 
d="M504 1151q-44 -44 -108.5 -44t-108.5 44t-44 108.5t44 108.5t108.5 44t108.5 -44t44 -108.5t-44 -108.5zM893 1151q-44 -44 -108.5 -44t-108.5 44t-44 108.5t44 108.5t108.5 44t108.5 -44t44 -108.5t-44 -108.5zM774 465v559h307v-1024h-307v96q-91 -125 -293 -125
q-164 0 -274 113q-109 115 -109 311v629h308v-584q0 -89 49 -137.5t129 -48.5q89 0 139.5 54t50.5 157z" />
    <glyph glyph-name="yacute" unicode="&#xfd;" horiz-adv-x="1085" 
d="M553 1434h369l-238 -287h-295zM565 397l193 627h327l-350 -993q-86 -241 -226 -346.5t-357 -94.5v287q106 0 163.5 38t92.5 132l-408 977h338z" />
    <glyph glyph-name="thorn" unicode="&#xfe;" horiz-adv-x="1275" 
d="M725 1053q200 0 346 -158q143 -155 143 -383q0 -230 -143 -385q-144 -156 -346 -156q-198 0 -305 125v-506h-307v1844h307v-506q107 125 305 125zM487 330q71 -68 177 -68t174 68q69 66 69 182t-69 182q-68 68 -174 68t-177 -68q-67 -67 -67 -182t67 -182z" />
    <glyph glyph-name="ydieresis" unicode="&#xff;" horiz-adv-x="1085" 
d="M459 1151q-44 -44 -108.5 -44t-108.5 44t-44 108.5t44 108.5t108.5 44t108.5 -44t44 -108.5t-44 -108.5zM848 1151q-44 -44 -108.5 -44t-108.5 44t-44 108.5t44 108.5t108.5 44t108.5 -44t44 -108.5t-44 -108.5zM565 397l193 627h327l-350 -993q-86 -241 -226 -346.5
t-357 -94.5v287q106 0 163.5 38t92.5 132l-408 977h338z" />
    <glyph glyph-name="Amacron" unicode="&#x100;" horiz-adv-x="1392" 
d="M389 1800h615v-246h-615v246zM1393 0h-359l-71 225h-533l-72 -225h-358l487 1434h418zM696 1059l-168 -527h336z" />
    <glyph glyph-name="amacron" unicode="&#x101;" horiz-adv-x="1275" 
d="M328 1391h614v-246h-614v246zM856 928v96h307v-1024h-307v96q-107 -125 -305 -125q-202 0 -346 156t-144 385q0 227 144 383q146 158 346 158q198 0 305 -125zM436 330q68 -68 176 -68t176 68t68 182t-68 182t-176 68t-176 -68q-67 -67 -67 -182t67 -182z" />
    <glyph glyph-name="Abreve" unicode="&#x102;" horiz-adv-x="1392" 
d="M338 1827h270q0 -94 88 -94t88 94h271q0 -148 -93.5 -227.5t-265.5 -79.5t-265 79.5t-93 227.5zM1393 0h-359l-71 225h-533l-72 -225h-358l487 1434h418zM696 1059l-168 -527h336z" />
    <glyph glyph-name="abreve" unicode="&#x103;" horiz-adv-x="1275" 
d="M356 1417h271q0 -94 88 -94t88 94h270q0 -148 -93 -227.5t-265 -79.5t-265.5 79.5t-93.5 227.5zM856 928v96h307v-1024h-307v96q-107 -125 -305 -125q-202 0 -346 156t-144 385q0 227 144 383q146 158 346 158q198 0 305 -125zM436 330q68 -68 176 -68t176 68t68 182
t-68 182t-176 68t-176 -68q-67 -67 -67 -182t67 -182z" />
    <glyph glyph-name="Aogonek" unicode="&#x104;" horiz-adv-x="1392" 
d="M1346 -227q9 -2 47 8v-184q-87 -35 -181 -35q-93 0 -148.5 48t-55.5 138q0 115 131 252h-105l-71 225h-533l-72 -225h-358l487 1434h418l488 -1434q-93 -104 -93 -174q-3 -53 46 -53zM696 1059l-168 -527h336z" />
    <glyph glyph-name="aogonek" unicode="&#x105;" horiz-adv-x="1275" 
d="M1163 1024v-1024q-92 -103 -92 -174q-3 -53 45 -53q9 -2 47 8v-184q-87 -35 -180 -35t-149 48t-56 138q0 115 131 252h-53v96q-107 -125 -305 -125q-202 0 -346 156t-144 385q0 227 144 383q146 158 346 158q198 0 305 -125v96h307zM436 330q68 -68 176 -68t176 68
t68 182t-68 182t-176 68t-176 -68q-67 -67 -67 -182t67 -182z" />
    <glyph glyph-name="Cacute" unicode="&#x106;" horiz-adv-x="1472" 
d="M623 1577l163 287h369l-237 -287h-295zM807 -29q194 0 357.5 89t256.5 243l-282 164q-44 -82 -133.5 -129t-198.5 -47q-191 0 -305 117q-113 116 -113 309t113 309q114 117 305 117q110 0 197.5 -46t134.5 -130l282 163q-94 154 -258 243t-356 89q-323 0 -535 -215
q-211 -211 -211 -530t211 -533q213 -213 535 -213z" />
    <glyph glyph-name="cacute" unicode="&#x107;" horiz-adv-x="1087" 
d="M424 1147l164 287h368l-237 -287h-295zM604 -29q148 0 271.5 71.5t191.5 193.5l-268 153q-53 -115 -199 -115q-100 0 -165.5 67t-65.5 171t65.5 171t165.5 67q143 0 199 -115l268 156q-68 120 -192.5 191t-270.5 71q-233 0 -389 -156q-154 -157 -154 -385t154 -385
q156 -156 389 -156z" />
    <glyph glyph-name="Cdotaccent" unicode="&#x10a;" horiz-adv-x="1472" 
d="M928 1597q-51 -51 -120.5 -51t-123.5 51q-51 54 -51 123.5t51 120.5q54 54 123.5 54t120.5 -54q54 -51 54 -120.5t-54 -123.5zM807 -29q-322 0 -535 213q-211 214 -211 533t211 530q212 215 535 215q192 0 356 -89t258 -243l-282 -163q-47 84 -134.5 130t-197.5 46
q-191 0 -305 -117q-113 -116 -113 -309t113 -309q114 -117 305 -117q109 0 198.5 47t133.5 129l282 -164q-93 -154 -256.5 -243t-357.5 -89z" />
    <glyph glyph-name="cdotaccent" unicode="&#x10b;" horiz-adv-x="1087" 
d="M731 1167q-51 -51 -123 -51t-123 51q-51 54 -51 123.5t51 120.5q51 54 123 54t123 -54q51 -51 51 -120.5t-51 -123.5zM604 -29q-233 0 -389 156q-154 157 -154 385t154 385q156 156 389 156q146 0 270.5 -71t192.5 -191l-268 -156q-56 115 -199 115q-100 0 -165.5 -67
t-65.5 -171t65.5 -171t165.5 -67q146 0 199 115l268 -153q-68 -122 -191.5 -193.5t-271.5 -71.5z" />
    <glyph glyph-name="Ccaron" unicode="&#x10c;" horiz-adv-x="1472" 
d="M948 1556h-303l-217 308h297l72 -113l71 113h297zM807 291q109 0 198.5 47t133.5 129l282 -164q-93 -154 -256.5 -243t-357.5 -89q-322 0 -535 213q-211 214 -211 533t211 530q212 215 535 215q192 0 356 -89t258 -243l-282 -163q-47 84 -134.5 130t-197.5 46
q-191 0 -305 -117q-113 -116 -113 -309t113 -309q114 -117 305 -117z" />
    <glyph glyph-name="ccaron" unicode="&#x10d;" horiz-adv-x="1087" 
d="M750 1126h-304l-217 308h297l72 -113l72 113h297zM600 274q146 0 199 115l268 -153q-68 -122 -191.5 -193.5t-271.5 -71.5q-233 0 -389 156q-154 157 -154 385t154 385q156 156 389 156q146 0 270.5 -71t192.5 -191l-268 -156q-56 115 -199 115q-100 0 -165.5 -67
t-65.5 -171t65.5 -171t165.5 -67z" />
    <glyph glyph-name="Dcaron" unicode="&#x10e;" horiz-adv-x="1454" 
d="M817 1536h-303l-217 307h297l72 -112l71 112h297zM123 1434h573q295 0 496 -207t201 -510q0 -305 -201 -512q-199 -205 -496 -205h-573v1434zM451 315h245q169 0 275 109t106 293q0 185 -106 291q-104 110 -275 110h-245v-803z" />
    <glyph glyph-name="dcaron" unicode="&#x10f;" horiz-adv-x="1527" 
d="M856 928v506h307v-1434h-307v96q-107 -125 -305 -125q-202 0 -346 156t-144 385q0 227 144 383q146 158 346 158q198 0 305 -125zM1241 1004l21 430h286l-61 -430h-246zM436 330q68 -68 176 -68t176 68t68 182t-68 182t-176 68t-176 -68q-67 -67 -67 -182t67 -182z" />
    <glyph glyph-name="Dcroat" unicode="&#x110;" horiz-adv-x="1536" 
d="M205 1434h573q295 0 496 -207t201 -510q0 -305 -201 -512q-199 -205 -496 -205h-573v569h-115v262h115v603zM532 315h246q169 0 275 109t106 293q0 185 -106 291q-104 110 -275 110h-246v-287h263v-262h-263v-254z" />
    <glyph glyph-name="dslash" unicode="&#x111;" horiz-adv-x="1286" 
d="M1163 1311h123v-193h-123v-1118h-307v96q-107 -125 -305 -125q-202 0 -346 156t-144 385q0 227 144 383q146 158 346 158q198 0 305 -125v190h-287v193h287v123h307v-123zM436 330q68 -68 176 -68t176 68t68 182t-68 182t-176 68t-176 -68q-67 -67 -67 -182t67 -182z" />
    <glyph glyph-name="Emacron" unicode="&#x112;" horiz-adv-x="1085" 
d="M262 1800h615v-246h-615v246zM451 569v-254h573v-315h-901v1434h891v-316h-563v-237h512v-312h-512z" />
    <glyph glyph-name="emacron" unicode="&#x113;" 
d="M287 1401h614v-246h-614v246zM1114 389h-727q52 -143 246 -143q124 0 196 78l246 -142q-150 -211 -446 -211q-257 0 -414 154q-154 154 -154 387q0 230 152 385q153 156 393 156q224 0 371 -156q149 -152 149 -385q0 -64 -12 -123zM381 618h440q-46 162 -217 162
q-177 0 -223 -162z" />
    <glyph glyph-name="Edotaccent" unicode="&#x116;" horiz-adv-x="1085" 
d="M690 1577q-51 -51 -120.5 -51t-123.5 51q-51 54 -51 123.5t51 120.5q54 54 123.5 54t120.5 -54q54 -51 54 -120.5t-54 -123.5zM451 569v-254h573v-315h-901v1434h891v-316h-563v-237h512v-312h-512z" />
    <glyph glyph-name="edotaccent" unicode="&#x117;" 
d="M715 1178q-51 -51 -120.5 -51t-123.5 51q-51 51 -51 122.5t51 122.5q54 51 123.5 51t120.5 -51q54 -51 54 -122.5t-54 -122.5zM1114 389h-727q52 -143 246 -143q124 0 196 78l246 -142q-150 -211 -446 -211q-257 0 -414 154q-154 154 -154 387q0 230 152 385
q153 156 393 156q224 0 371 -156q149 -152 149 -385q0 -64 -12 -123zM381 618h440q-46 162 -217 162q-177 0 -223 -162z" />
    <glyph glyph-name="Eogonek" unicode="&#x118;" horiz-adv-x="1085" 
d="M1024 315v-315q-92 -103 -92 -174q-3 -53 45 -53q9 -2 47 8v-184q-87 -35 -180 -35t-149 48t-56 138q0 115 131 252h-647v1434h891v-316h-563v-237h512v-312h-512v-254h573z" />
    <glyph glyph-name="eogonek" unicode="&#x119;" 
d="M1114 389h-727q52 -143 246 -143q124 0 196 78l246 -142q-25 -37 -74 -82q-151 -165 -151 -274q0 -53 45 -53q9 -2 47 8v-184q-87 -35 -180 -35t-149 48t-56 138q0 118 137 225q-14 -2 -65 -2q-257 0 -414 154q-154 154 -154 387q0 230 152 385q153 156 393 156
q224 0 371 -156q149 -152 149 -385q0 -64 -12 -123zM381 618h440q-46 162 -217 162q-177 0 -223 -162z" />
    <glyph glyph-name="Ecaron" unicode="&#x11a;" horiz-adv-x="1085" 
d="M711 1536h-303l-218 307h297l72 -112l72 112h297zM451 569v-254h573v-315h-901v1434h891v-316h-563v-237h512v-312h-512z" />
    <glyph glyph-name="ecaron" unicode="&#x11b;" 
d="M735 1137h-303l-217 307h297l72 -113l71 113h297zM1114 389h-727q52 -143 246 -143q124 0 196 78l246 -142q-150 -211 -446 -211q-257 0 -414 154q-154 154 -154 387q0 230 152 385q153 156 393 156q224 0 371 -156q149 -152 149 -385q0 -64 -12 -123zM381 618h440
q-46 162 -217 162q-177 0 -223 -162z" />
    <glyph glyph-name="Gbreve" unicode="&#x11e;" horiz-adv-x="1603" 
d="M459 1847h270q0 -94 88 -94t88 94h271q0 -148 -93.5 -227.5t-265.5 -79.5t-265 79.5t-93 227.5zM823 799h719v-123q0 -319 -201 -514q-200 -191 -505 -191q-334 0 -555 215q-220 217 -220 529t218 530q217 217 534 217q199 0 366.5 -88.5t260.5 -238.5l-279 -160
q-48 75 -142 121.5t-208 46.5q-182 0 -303 -121q-119 -119 -119 -309q0 -185 123 -305q123 -117 328 -117q283 0 366 221h-383v287z" />
    <glyph glyph-name="gbreve" unicode="&#x11f;" horiz-adv-x="1275" 
d="M242 1438h270q0 -95 88 -95t88 95h270q0 -148 -93 -228t-265 -80t-265 80t-93 228zM864 920v104h299v-973q0 -240 -157 -364q-155 -125 -383 -125q-349 0 -486 248l262 151q71 -129 234 -129q109 0 170 57t61 162v94q-109 -133 -299 -133q-214 0 -360 152
q-144 153 -144 368q0 217 144 367q145 154 360 154q190 0 299 -133zM438 360q71 -65 178 -65q108 0 179 65q69 63 69 172q0 110 -69 173q-71 65 -179 65q-107 0 -178 -65q-69 -63 -69 -173q0 -109 69 -172z" />
    <glyph glyph-name="Gdotaccent" unicode="&#x120;" horiz-adv-x="1603" 
d="M940 1597q-51 -51 -123 -51t-123 51q-51 54 -51 123.5t51 120.5q51 54 123 54t123 -54q51 -51 51 -120.5t-51 -123.5zM823 799h719v-123q0 -319 -201 -514q-200 -191 -505 -191q-334 0 -555 215q-220 217 -220 529t218 530q217 217 534 217q199 0 366.5 -88.5
t260.5 -238.5l-279 -160q-48 75 -142 121.5t-208 46.5q-182 0 -303 -121q-119 -119 -119 -309q0 -185 123 -305q123 -117 328 -117q283 0 366 221h-383v287z" />
    <glyph glyph-name="gdotaccent" unicode="&#x121;" horiz-adv-x="1275" 
d="M723 1188q-51 -51 -123 -51t-123 51q-51 54 -51 123.5t51 120.5q51 54 123 54t123 -54q51 -51 51 -120.5t-51 -123.5zM864 920v104h299v-973q0 -240 -157 -364q-155 -125 -383 -125q-349 0 -486 248l262 151q71 -129 234 -129q109 0 170 57t61 162v94
q-109 -133 -299 -133q-214 0 -360 152q-144 153 -144 368q0 217 144 367q145 154 360 154q190 0 299 -133zM438 360q71 -65 178 -65q108 0 179 65q69 63 69 172q0 110 -69 173q-71 65 -179 65q-107 0 -178 -65q-69 -63 -69 -173q0 -109 69 -172z" />
    <glyph glyph-name="Gcommaaccent" unicode="&#x122;" horiz-adv-x="1603" 
d="M823 799h719v-123q0 -319 -201 -514q-200 -191 -505 -191q-334 0 -555 215q-220 217 -220 529t218 530q217 217 534 217q199 0 366.5 -88.5t260.5 -238.5l-279 -160q-48 75 -142 121.5t-208 46.5q-182 0 -303 -121q-119 -119 -119 -309q0 -185 123 -305
q123 -117 328 -117q283 0 366 221h-383v287zM915 -553h-245l20 430h287z" />
    <glyph glyph-name="gcommaaccent" unicode="&#x123;" horiz-adv-x="1275" 
d="M504 1618h246l-21 -430h-287zM864 920v104h299v-973q0 -240 -157 -364q-155 -125 -383 -125q-349 0 -486 248l262 151q71 -129 234 -129q109 0 170 57t61 162v94q-109 -133 -299 -133q-214 0 -360 152q-144 153 -144 368q0 217 144 367q145 154 360 154q190 0 299 -133z
M438 360q71 -65 178 -65q108 0 179 65q69 63 69 172q0 110 -69 173q-71 65 -179 65q-107 0 -178 -65q-69 -63 -69 -173q0 -109 69 -172z" />
    <glyph glyph-name="Hbar" unicode="&#x126;" horiz-adv-x="1433" 
d="M1270 1255h123v-237h-123v-1018h-328v518h-450v-518h-328v1018h-123v237h123v179h328v-179h450v179h328v-179zM492 834h450v184h-450v-184z" />
    <glyph glyph-name="hbar" unicode="&#x127;" horiz-adv-x="1204" 
d="M723 1053q165 0 272 -113q111 -114 111 -311v-629h-307v584q0 89 -49 137.5t-129 48.5q-89 0 -140 -54.5t-51 -156.5v-559h-307v1118h-123v193h123v123h307v-123h287v-193h-287v-190q91 125 293 125z" />
    <glyph glyph-name="Itilde" unicode="&#x128;" horiz-adv-x="573" 
d="M250 1589q-47 31 -64.5 21t-17.5 -68h-234q0 95 22.5 163t60.5 102t87 44.5t103 -3.5t108 -48q51 -30 66.5 -21t15.5 68h234q0 -95 -22.5 -163t-60.5 -102t-87 -44.5t-103 3.5t-108 48zM123 0v1434h328v-1434h-328z" />
    <glyph glyph-name="itilde" unicode="&#x129;" horiz-adv-x="532" 
d="M420 0h-307v1024h307v-1024zM164 1133h-209q0 100 20.5 172t54.5 107.5t78 46.5t91.5 -3.5t95.5 -50.5q44 -32 60 -22t16 71h209q0 -100 -20.5 -172t-54.5 -107.5t-78 -46.5t-91.5 3.5t-95.5 50.5q-46 32 -61 22.5t-15 -71.5z" />
    <glyph glyph-name="Imacron" unicode="&#x12a;" horiz-adv-x="573" 
d="M594 1554h-614v246h614v-246zM123 0v1434h328v-1434h-328z" />
    <glyph glyph-name="imacron" unicode="&#x12b;" horiz-adv-x="532" 
d="M512 1145h-492v266h492v-266zM420 0h-307v1024h307v-1024z" />
    <glyph glyph-name="Iogonek" unicode="&#x12e;" horiz-adv-x="573" 
d="M434 -227q9 -2 47 8v-184q-87 -35 -180 -35t-149 48t-56 138q0 121 101 252h-74v1434h328v-1434q-62 -95 -62 -174q-3 -53 45 -53z" />
    <glyph glyph-name="iogonek" unicode="&#x12f;" horiz-adv-x="532" 
d="M395 1167q-54 -54 -129.5 -54t-130.5 54q-54 55 -54 130.5t54 129.5q55 55 130.5 55t129.5 -55q55 -54 55 -129.5t-55 -130.5zM399 -227q9 -2 47 8v-184q-87 -35 -180 -35t-149 48t-56 138q0 116 95 252h-43v1024h307v-1024q-66 -111 -66 -174q-3 -53 45 -53z" />
    <glyph glyph-name="Idot" unicode="&#x130;" horiz-adv-x="573" 
d="M408 1577q-51 -51 -120.5 -51t-123.5 51q-51 54 -51 123.5t51 120.5q54 54 123.5 54t120.5 -54q54 -51 54 -120.5t-54 -123.5zM123 0v1434h328v-1434h-328z" />
    <glyph glyph-name="dotlessi" unicode="&#x131;" horiz-adv-x="532" 
d="M420 0h-307v1024h307v-1024z" />
    <glyph glyph-name="Kcommaaccent" unicode="&#x136;" horiz-adv-x="1282" 
d="M1262 1434l-484 -699l504 -735h-373l-458 664v-664h-328v1434h328v-623l438 623h373zM727 -553h-246l21 430h286z" />
    <glyph glyph-name="kcommaaccent" unicode="&#x137;" horiz-adv-x="1095" 
d="M1085 1024l-372 -512l383 -512h-348l-328 453v-453h-307v1434h307v-859l307 449h358zM682 -553h-246l21 430h286z" />
    <glyph glyph-name="Lacute" unicode="&#x139;" horiz-adv-x="983" 
d="M291 1843h368l-237 -287h-295zM451 1434v-1119h512v-315h-840v1434h328z" />
    <glyph glyph-name="lacute" unicode="&#x13a;" horiz-adv-x="532" 
d="M106 1556l164 287h369l-238 -287h-295zM113 0h307v1495h-307v-1495z" />
    <glyph glyph-name="Lcommaaccent" unicode="&#x13b;" horiz-adv-x="983" 
d="M451 1434v-1119h512v-315h-840v1434h328zM651 -553h-245l20 430h287z" />
    <glyph glyph-name="lcommaaccent" unicode="&#x13c;" horiz-adv-x="532" 
d="M420 0h-307v1495h307v-1495zM354 -553h-245l20 430h287z" />
    <glyph glyph-name="Lcaron" unicode="&#x13d;" horiz-adv-x="983" 
d="M451 1434v-1119h512v-315h-840v1434h328zM575 1434h308l-62 -390h-266z" />
    <glyph glyph-name="lcaron" unicode="&#x13e;" horiz-adv-x="780" 
d="M420 0h-307v1495h307v-1495zM739 1065h-245l20 430h287z" />
    <glyph glyph-name="Lslash" unicode="&#x141;" horiz-adv-x="1024" 
d="M492 602v-287h512v-315h-840v408l-123 -74v334l123 73v693h328v-498l245 147v-333z" />
    <glyph glyph-name="lslash" unicode="&#x142;" horiz-adv-x="552" 
d="M430 954l102 70v-293l-102 -69v-662h-307v451l-103 -70v293l103 69v752h307v-541z" />
    <glyph glyph-name="Nacute" unicode="&#x143;" horiz-adv-x="1372" 
d="M481 1556l164 287h369l-238 -287h-295zM922 1434v-779l-553 779h-246v-1434h328v778l553 -778h245v1434h-327z" />
    <glyph glyph-name="nacute" unicode="&#x144;" horiz-adv-x="1193" 
d="M596 1454h369l-238 -287h-295zM713 1053q165 0 272 -113q111 -114 111 -311v-629h-308v584q0 89 -49 137.5t-129 48.5q-89 0 -139.5 -54t-50.5 -157v-559h-307v1024h307v-96q91 125 293 125z" />
    <glyph glyph-name="Ncommaaccent" unicode="&#x145;" horiz-adv-x="1372" 
d="M922 655v779h327v-1434h-245l-553 778v-778h-328v1434h246zM784 -553h-245l20 430h287z" />
    <glyph glyph-name="ncommaaccent" unicode="&#x146;" horiz-adv-x="1193" 
d="M713 1053q165 0 272 -113q111 -114 111 -311v-629h-308v584q0 89 -49 137.5t-129 48.5q-89 0 -139.5 -54t-50.5 -157v-559h-307v1024h307v-96q91 125 293 125zM698 -553h-245l20 430h287z" />
    <glyph glyph-name="Ncaron" unicode="&#x147;" horiz-adv-x="1372" 
d="M807 1536h-303l-217 307h297l71 -112l72 112h297zM922 655v779h327v-1434h-245l-553 778v-778h-328v1434h246z" />
    <glyph glyph-name="ncaron" unicode="&#x148;" horiz-adv-x="1193" 
d="M758 1147h-303l-217 307h297l71 -113l72 113h297zM713 1053q165 0 272 -113q111 -114 111 -311v-629h-308v584q0 89 -49 137.5t-129 48.5q-89 0 -139.5 -54t-50.5 -157v-559h-307v1024h307v-96q91 125 293 125z" />
    <glyph glyph-name="Eng" unicode="&#x14a;" horiz-adv-x="1372" 
d="M922 655v779h327v-1434q0 -206 -127.5 -314.5t-363.5 -95.5v297q86 0 125 30.5t39 102.5v95l-471 663v-778h-328v1434h246z" />
    <glyph glyph-name="eng" unicode="&#x14b;" horiz-adv-x="1193" 
d="M713 1053q165 0 272 -113q111 -114 111 -311v-629q0 -226 -113 -338.5t-338 -99.5v295q71 -8 107 25.5t36 117.5v584q0 89 -49 137.5t-129 48.5q-89 0 -139.5 -54t-50.5 -157v-559h-307v1024h307v-96q91 125 293 125z" />
    <glyph glyph-name="Omacron" unicode="&#x14c;" horiz-adv-x="1613" 
d="M1114 1575h-614v246h614v-246zM1335 186q-218 -215 -528 -215t-528 215t-218 531q0 315 218 530t528 215t528 -215q217 -214 217 -530q0 -317 -217 -531zM508 410q119 -119 299 -119q178 0 297 119q121 121 121 307t-121 307q-119 119 -297 119q-180 0 -299 -119
t-119 -307t119 -307z" />
    <glyph glyph-name="omacron" unicode="&#x14d;" horiz-adv-x="1208" 
d="M911 1165h-614v246h614v-246zM989 127q-156 -156 -385 -156t-385 156q-158 158 -158 385q0 225 158 383t385 158t385 -158t158 -383q0 -227 -158 -385zM436 338q68 -68 168 -68t168 68t68 174t-68 174t-168 68t-168 -68q-67 -67 -67 -174t67 -174z" />
    <glyph glyph-name="Ohungarumlaut" unicode="&#x150;" horiz-adv-x="1613" 
d="M418 1556l164 287h315l-176 -287h-303zM793 1556l184 287h315l-196 -287h-303zM1335 186q217 214 217 531q0 316 -217 530q-218 215 -528 215t-528 -215t-218 -530q0 -316 218 -531t528 -215t528 215zM508 410q-119 119 -119 307t119 307t299 119q178 0 297 -119
q121 -121 121 -307t-121 -307q-119 -119 -297 -119q-180 0 -299 119z" />
    <glyph glyph-name="ohungarumlaut" unicode="&#x151;" horiz-adv-x="1208" 
d="M215 1147l164 287h315l-176 -287h-303zM590 1147l184 287h316l-197 -287h-303zM989 127q158 158 158 385q0 225 -158 383t-385 158t-385 -158t-158 -383q0 -227 158 -385q156 -156 385 -156t385 156zM436 338q-67 67 -67 174t67 174q68 68 168 68t168 -68t68 -174
t-68 -174t-168 -68t-168 68z" />
    <glyph glyph-name="OE" unicode="&#x152;" horiz-adv-x="1875" 
d="M1323 569v-254h492v-315h-820q-110 -29 -209 -29q-308 0 -518 213q-207 216 -207 533t207 530q209 215 518 215q103 0 209 -28h809v-316h-481v-237h430v-312h-430zM995 322v790q-85 31 -209 31q-176 0 -286 -119q-111 -117 -111 -307q0 -189 111 -309q111 -117 286 -117
q124 0 209 31z" />
    <glyph glyph-name="oe" unicode="&#x153;" horiz-adv-x="1966" 
d="M1892 389h-727q55 -143 236 -143q135 0 207 78l245 -142q-150 -211 -446 -211q-277 0 -416 207q-139 -207 -397 -207q-226 0 -379 156q-154 157 -154 385t154 385q153 156 379 156q258 0 397 -207q133 207 408 207q222 0 364 -154t142 -387q0 -60 -13 -123zM1159 623h440
q-47 157 -213 157q-174 0 -227 -157zM436 338q68 -68 168 -68t168 68t68 174t-68 174t-168 68t-168 -68q-67 -67 -67 -174t67 -174z" />
    <glyph glyph-name="Racute" unicode="&#x154;" horiz-adv-x="1259" 
d="M573 1843h369l-237 -287h-295zM1229 0h-352l-271 471h-155v-471h-328v1434h573q204 0 348 -144t144 -348q0 -129 -72 -241.5t-192 -174.5zM696 1126h-245v-368h245q68 0 116 53.5t48 130.5t-48 130.5t-116 53.5z" />
    <glyph glyph-name="racute" unicode="&#x155;" horiz-adv-x="757" 
d="M383 1434h369l-238 -287h-295zM420 1024v-182q28 95 113.5 148.5t193.5 53.5v-348q-114 18 -211 -39q-96 -56 -96 -194v-463h-307v1024h307z" />
    <glyph glyph-name="Rcommaaccent" unicode="&#x156;" horiz-adv-x="1259" 
d="M924 526l305 -526h-352l-271 471h-155v-471h-328v1434h573q204 0 348 -144t144 -348q0 -129 -72 -241.5t-192 -174.5zM696 1126h-245v-368h245q68 0 116 53.5t48 130.5t-48 130.5t-116 53.5zM754 -553h-246l20 430h287z" />
    <glyph glyph-name="rcommaaccent" unicode="&#x157;" horiz-adv-x="757" 
d="M420 1024v-182q28 95 113.5 148.5t193.5 53.5v-348q-114 18 -211 -39q-96 -56 -96 -194v-463h-307v1024h307zM356 -553h-245l20 430h287z" />
    <glyph glyph-name="Rcaron" unicode="&#x158;" horiz-adv-x="1259" 
d="M735 1536h-303l-217 307h297l72 -112l71 112h297zM1229 0h-352l-271 471h-155v-471h-328v1434h573q204 0 348 -144t144 -348q0 -129 -72 -241.5t-192 -174.5zM696 1126h-245v-368h245q68 0 116 53.5t48 130.5t-48 130.5t-116 53.5z" />
    <glyph glyph-name="rcaron" unicode="&#x159;" horiz-adv-x="757" 
d="M545 1126h-303l-217 308h297l71 -113l72 113h297zM420 1024v-182q28 95 113.5 148.5t193.5 53.5v-348q-114 18 -211 -39q-96 -56 -96 -194v-463h-307v1024h307z" />
    <glyph glyph-name="Sacute" unicode="&#x15a;" horiz-adv-x="1198" 
d="M422 1577l164 287h368l-237 -287h-295zM625 -29q238 0 385 117q147 120 147 324q0 82 -28 151t-70 115q-36 42 -111 80q-66 38 -119 55l-133 43q-159 47 -209 86q-49 40 -49 92q0 46 41.5 77.5t112.5 31.5q91 0 150 -41t98 -125l276 162q-78 158 -212.5 240.5
t-311.5 82.5q-197 0 -340 -119q-141 -120 -141 -317q0 -195 131 -301q117 -88 290 -135q172 -46 234 -84q63 -34 63 -98q0 -117 -194 -117q-216 0 -301 198l-283 -163q63 -167 210.5 -261t363.5 -94z" />
    <glyph glyph-name="sacute" unicode="&#x15b;" horiz-adv-x="958" 
d="M455 1454h368l-237 -287h-295zM403 725q0 -28 42.5 -46t136.5 -44q327 -72 325 -328q0 -167 -123 -252q-125 -84 -303 -84q-323 0 -440 244l266 152q41 -121 174 -121q111 0 111 63q0 28 -44.5 47.5t-133.5 42.5q-50 14 -89 28t-86 40.5t-77.5 58.5t-52 81.5t-21.5 109.5
q0 159 115 248q116 88 286 88q128 0 232.5 -57t167.5 -162l-262 -142q-50 90 -138 90q-86 0 -86 -57z" />
    <glyph glyph-name="Scedilla" unicode="&#x15e;" horiz-adv-x="1198" 
d="M1157 412q0 -170 -106 -283.5t-291 -146.5v-76q55 -13 92 -53.5t37 -104.5q0 -217 -461 -190v213q195 -15 195 28q0 32 -109 41v137q-349 49 -463 349l283 163q85 -198 301 -198q194 0 194 117q0 64 -63 98q-62 38 -234 84q-173 47 -290 135q-131 106 -131 301
q0 197 141 317q143 119 340 119q177 0 311.5 -82.5t212.5 -240.5l-276 -162q-39 84 -98 125t-150 41q-71 0 -112.5 -31.5t-41.5 -77.5q0 -52 49 -92q50 -39 209 -86l133 -43q53 -17 119 -55q75 -38 111 -80q42 -46 70 -115t28 -151z" />
    <glyph glyph-name="scedilla" unicode="&#x15f;" horiz-adv-x="958" 
d="M907 307q0 -125 -72.5 -206t-201.5 -113v-82q55 -13 92 -53.5t37 -104.5q0 -217 -461 -190v213q195 -15 195 28q0 32 -109 41v137q-245 34 -346 238l266 152q41 -121 174 -121q111 0 111 63q0 28 -44.5 47.5t-133.5 42.5q-50 14 -89 28t-86 40.5t-77.5 58.5t-52 81.5
t-21.5 109.5q0 159 115 248q116 88 286 88q128 0 232.5 -57t167.5 -162l-262 -142q-50 90 -138 90q-86 0 -86 -57q0 -28 42.5 -46t136.5 -44q327 -72 325 -328z" />
    <glyph glyph-name="Scaron" unicode="&#x160;" horiz-adv-x="1198" 
d="M748 1556h-304l-217 308h297l72 -113l72 113h297zM696 856l133 -43q53 -17 119 -55q75 -38 111 -80q42 -46 70 -115t28 -151q0 -204 -147 -324q-147 -117 -385 -117q-216 0 -363.5 94t-210.5 261l283 163q85 -198 301 -198q194 0 194 117q0 64 -63 98q-62 38 -234 84
q-173 47 -290 135q-131 106 -131 301q0 197 141 317q143 119 340 119q177 0 311.5 -82.5t212.5 -240.5l-276 -162q-39 84 -98 125t-150 41q-71 0 -112.5 -31.5t-41.5 -77.5q0 -52 49 -92q50 -39 209 -86z" />
    <glyph glyph-name="scaron" unicode="&#x161;" horiz-adv-x="958" 
d="M616 1147h-303l-217 307h297l72 -113l72 113h297zM403 725q0 -28 42.5 -46t136.5 -44q327 -72 325 -328q0 -167 -123 -252q-125 -84 -303 -84q-323 0 -440 244l266 152q41 -121 174 -121q111 0 111 63q0 28 -44.5 47.5t-133.5 42.5q-50 14 -89 28t-86 40.5t-77.5 58.5
t-52 81.5t-21.5 109.5q0 159 115 248q116 88 286 88q128 0 232.5 -57t167.5 -162l-262 -142q-50 90 -138 90q-86 0 -86 -57z" />
    <glyph glyph-name="uni0162" unicode="&#x162;" horiz-adv-x="1105" 
d="M20 1434h1065v-316h-368v-1118h-328v1118h-369v316zM651 -553h-245l20 430h287z" />
    <glyph glyph-name="uni0163" unicode="&#x163;" horiz-adv-x="794" 
d="M713 1024v-295h-211v-362q0 -59 46.5 -76.5t164.5 -11.5v-279q-293 -30 -406 55q-112 87 -112 312v362h-164v295h164v195l307 92v-287h211zM557 -553h-246l21 430h286z" />
    <glyph glyph-name="Tcaron" unicode="&#x164;" horiz-adv-x="1105" 
d="M694 1536h-303l-217 307h297l72 -112l71 112h297zM20 1434h1065v-316h-368v-1118h-328v1118h-369v316z" />
    <glyph glyph-name="tcaron" unicode="&#x165;" horiz-adv-x="851" 
d="M586 1106l20 389h287l-62 -389h-245zM195 1219l307 92v-287h211v-295h-211v-362q0 -59 46.5 -76.5t164.5 -11.5v-279q-293 -30 -406 55q-112 87 -112 312v362h-164v295h164v195z" />
    <glyph glyph-name="Tbar" unicode="&#x166;" horiz-adv-x="1105" 
d="M1085 1434v-316h-368v-274h225v-295h-225v-549h-328v549h-225v295h225v274h-369v316h1065z" />
    <glyph glyph-name="tbar" unicode="&#x167;" horiz-adv-x="794" 
d="M713 1024v-295h-211v-98h153v-246h-153v-18q0 -59 46.5 -76.5t164.5 -11.5v-279q-293 -30 -406 55q-112 87 -112 312v18h-113v246h113v98h-164v295h164v195l307 92v-287h211z" />
    <glyph glyph-name="Utilde" unicode="&#x168;" horiz-adv-x="1331" 
d="M635 1589q-47 31 -64.5 21t-17.5 -68h-234q0 95 22.5 163t60.5 102t87 44.5t103 -3.5t108 -48q51 -30 66.5 -21t15.5 68h234q0 -95 -22.5 -163t-60.5 -102t-87 -44.5t-103 3.5t-108 48zM113 463v971h327v-942q0 -201 226 -201q225 0 225 201v942h328v-971
q0 -227 -156 -359q-157 -133 -397 -133q-241 0 -398 133q-155 131 -155 359z" />
    <glyph glyph-name="utilde" unicode="&#x169;" horiz-adv-x="1193" 
d="M555 1180q-47 31 -64.5 21t-17.5 -68h-233q0 95 22.5 163t60.5 102t87 44.5t103 -3.5t108 -48q51 -30 66 -21t15 68h234q0 -95 -22.5 -163t-60.5 -102t-87 -44.5t-103 3.5t-108 48zM774 465v559h307v-1024h-307v96q-91 -125 -293 -125q-164 0 -274 113q-109 115 -109 311
v629h308v-584q0 -89 49 -137.5t129 -48.5q89 0 139.5 54t50.5 157z" />
    <glyph glyph-name="Umacron" unicode="&#x16a;" horiz-adv-x="1331" 
d="M973 1554h-615v246h615v-246zM113 463v971h327v-942q0 -201 226 -201q225 0 225 201v942h328v-971q0 -227 -156 -359q-157 -133 -397 -133q-241 0 -398 133q-155 131 -155 359z" />
    <glyph glyph-name="umacron" unicode="&#x16b;" horiz-adv-x="1193" 
d="M283 1391h614v-246h-614v246zM774 465v559h307v-1024h-307v96q-91 -125 -293 -125q-164 0 -274 113q-109 115 -109 311v629h308v-584q0 -89 49 -137.5t129 -48.5q89 0 139.5 54t50.5 157z" />
    <glyph glyph-name="Uring" unicode="&#x16e;" horiz-adv-x="1331" 
d="M666 1444q-118 0 -195.5 73t-77.5 183t77.5 183t195.5 73q120 0 196 -72.5t76 -183.5t-76 -183.5t-196 -72.5zM612 1649q19 -19 53.5 -19t53.5 19q20 20 20 50.5t-20 49.5q-19 20 -53.5 20t-53.5 -20q-19 -19 -19 -49.5t19 -50.5zM113 463v971h327v-942q0 -201 226 -201
q225 0 225 201v942h328v-971q0 -227 -156 -359q-157 -133 -397 -133q-241 0 -398 133q-155 131 -155 359z" />
    <glyph glyph-name="uring" unicode="&#x16f;" horiz-adv-x="1193" 
d="M590 1096q-118 0 -195.5 73t-77.5 183t77.5 183t195.5 73q120 0 196 -72.5t76 -183.5t-76 -183.5t-196 -72.5zM643 1401q-19 20 -53 20t-53 -20q-19 -19 -19 -50t19 -51q19 -19 53 -19t53 19q20 20 20 51t-20 50zM774 465v559h307v-1024h-307v96q-91 -125 -293 -125
q-164 0 -274 113q-109 115 -109 311v629h308v-584q0 -89 49 -137.5t129 -48.5q89 0 139.5 54t50.5 157z" />
    <glyph glyph-name="Uhungarumlaut" unicode="&#x170;" horiz-adv-x="1331" 
d="M276 1536l164 287h316l-176 -287h-304zM651 1536l185 287h315l-197 -287h-303zM113 463q0 -228 155 -359q157 -133 398 -133q240 0 397 133q156 132 156 359v971h-328v-942q0 -201 -225 -201q-226 0 -226 201v942h-327v-971z" />
    <glyph glyph-name="uhungarumlaut" unicode="&#x171;" horiz-adv-x="1193" 
d="M365 1413h315l-176 -287h-303zM1075 1413l-196 -287h-304l185 287h315zM774 465v559h307v-1024h-307v96q-91 -125 -293 -125q-164 0 -274 113q-109 115 -109 311v629h308v-584q0 -89 49 -137.5t129 -48.5q89 0 139.5 54t50.5 157z" />
    <glyph glyph-name="Uogonek" unicode="&#x172;" horiz-adv-x="1331" 
d="M891 492v942h328v-971q0 -236 -177 -375q-97 -89 -135 -146.5t-43 -115.5q-3 -47 45 -53q9 -2 47 8v-184q-87 -35 -180 -35t-149 48t-56 138q0 103 105 223h-10q-241 0 -398 133q-155 131 -155 359v971h327v-942q0 -201 226 -201q225 0 225 201z" />
    <glyph glyph-name="uogonek" unicode="&#x173;" horiz-adv-x="1193" 
d="M1081 1024v-1024q-92 -103 -92 -174q-3 -53 45 -53q9 -2 47 8v-184q-87 -35 -180 -35t-149 48t-56 138q0 115 131 252h-53v96q-91 -125 -293 -125q-164 0 -274 113q-109 115 -109 311v629h308v-584q0 -89 49 -137.5t129 -48.5q89 0 139.5 54t50.5 157v559h307z" />
    <glyph glyph-name="Wcircumflex" unicode="&#x174;" horiz-adv-x="2043" 
d="M1163 1536l-71 113l-72 -113h-297l217 307h303l217 -307h-297zM1432 430l247 1004h344l-395 -1434h-373l-233 846l-234 -846h-372l-396 1434h345l247 -1004l277 1004h266z" />
    <glyph glyph-name="wcircumflex" unicode="&#x175;" horiz-adv-x="1576" 
d="M850 1126l-72 113l-71 -113h-297l217 308h303l217 -308h-297zM1092 475l147 549h328l-328 -1024h-287l-164 547l-163 -547h-287l-328 1024h328l147 -549l160 549h287z" />
    <glyph glyph-name="Ycircumflex" unicode="&#x176;" horiz-adv-x="1290" 
d="M707 1536l-72 113l-72 -113h-297l217 307h303l218 -307h-297zM918 1434h372l-481 -883v-551h-328v551l-481 883h373l272 -553z" />
    <glyph glyph-name="ycircumflex" unicode="&#x177;" horiz-adv-x="1085" 
d="M606 1126l-71 113l-72 -113h-297l217 308h303l217 -308h-297zM565 397l193 627h327l-350 -993q-86 -241 -226 -346.5t-357 -94.5v287q106 0 163.5 38t92.5 132l-408 977h338z" />
    <glyph glyph-name="Ydieresis" unicode="&#x178;" horiz-adv-x="1290" 
d="M559 1561q-44 -44 -108.5 -44t-108.5 44t-44 108.5t44 108.5t108.5 44t108.5 -44t44 -108.5t-44 -108.5zM948 1561q-44 -44 -108.5 -44t-108.5 44t-44 108.5t44 108.5t108.5 44t108.5 -44t44 -108.5t-44 -108.5zM918 1434h372l-481 -883v-551h-328v551l-481 883h373
l272 -553z" />
    <glyph glyph-name="Zacute" unicode="&#x179;" horiz-adv-x="1105" 
d="M543 1843h368l-237 -287h-295zM1044 1180l-548 -865h559v-315h-983v254l549 864h-539v316h962v-254z" />
    <glyph glyph-name="zacute" unicode="&#x17a;" horiz-adv-x="972" 
d="M471 1434h369l-238 -287h-295zM881 819l-387 -532h407v-287h-819v205l387 532h-367v287h779v-205z" />
    <glyph glyph-name="Zdotaccent" unicode="&#x17b;" horiz-adv-x="1105" 
d="M686 1577q-51 -51 -123 -51t-123 51q-51 54 -51 123.5t51 120.5q51 54 123 54t123 -54q51 -51 51 -120.5t-51 -123.5zM1044 1180l-548 -865h559v-315h-983v254l549 864h-539v316h962v-254z" />
    <glyph glyph-name="zdotaccent" unicode="&#x17c;" horiz-adv-x="972" 
d="M612 1167q-51 -51 -120 -51t-123 51q-51 54 -51 123.5t51 120.5q54 54 123 54t120 -54q54 -51 54 -120.5t-54 -123.5zM881 819l-387 -532h407v-287h-819v205l387 532h-367v287h779v-205z" />
    <glyph glyph-name="Zcaron" unicode="&#x17d;" horiz-adv-x="1105" 
d="M705 1536h-304l-217 307h297l72 -112l72 112h297zM1044 1180l-548 -865h559v-315h-983v254l549 864h-539v316h962v-254z" />
    <glyph glyph-name="zcaron" unicode="&#x17e;" horiz-adv-x="972" 
d="M633 1126h-303l-217 308h297l71 -113l72 113h297zM881 819l-387 -532h407v-287h-819v205l387 532h-367v287h779v-205z" />
    <glyph glyph-name="florin" unicode="&#x192;" horiz-adv-x="905" 
d="M905 1444v-307q-28 15 -59.5 17.5t-61 -8t-53 -41t-31.5 -75.5l-26 -162h168v-295h-219l-109 -639q-37 -223 -174.5 -310t-339.5 -36v308q28 -15 59.5 -17.5t61 8t53 40.5t31.5 75l96 571h-156v295h207l39 230q37 223 174.5 310t339.5 36z" />
    <glyph glyph-name="Ohorn" unicode="&#x1a0;" horiz-adv-x="1613" 
d="M1335 186q-218 -215 -528 -215t-528 215t-218 531q0 315 218 530t528 215q107 0 213 -28h145q64 0 84.5 27.5t20.5 99.5v24h239v-24q0 -64 -6.5 -109t-24.5 -88t-54 -72t-91 -45h2q217 -214 217 -530q0 -317 -217 -531zM508 410q119 -119 299 -119q178 0 297 119
q121 121 121 307t-121 307q-119 119 -297 119q-180 0 -299 -119t-119 -307t119 -307z" />
    <glyph glyph-name="ohorn" unicode="&#x1a1;" horiz-adv-x="1208" 
d="M989 127q-156 -156 -385 -156t-385 156q-158 158 -158 385q0 225 158 383t385 158q91 0 180 -29h68q64 0 84 27.5t20 99.5v25h240v-25q0 -124 -33.5 -199t-128.5 -108q113 -144 113 -332q0 -227 -158 -385zM436 338q68 -68 168 -68t168 68t68 174t-68 174t-168 68
t-168 -68q-67 -67 -67 -174t67 -174z" />
    <glyph glyph-name="Uhorn" unicode="&#x1af;" horiz-adv-x="1331" 
d="M113 463v971h327v-942q0 -201 226 -201q225 0 225 201v942h201q64 0 84 27.5t20 99.5v24h240v-24q0 -68 -8 -116.5t-30.5 -92.5t-66.5 -72t-112 -41v-776q0 -227 -156 -359q-157 -133 -397 -133q-241 0 -398 133q-155 131 -155 359z" />
    <glyph glyph-name="uhorn" unicode="&#x1b0;" horiz-adv-x="1228" 
d="M774 465v559h189q57 1 74.5 29.5t17.5 97.5v25h239v-25q0 -54 -4.5 -93.5t-17.5 -79.5t-36 -67.5t-62 -49t-93 -32.5v-829h-307v96q-91 -125 -293 -125q-164 0 -274 113q-109 115 -109 311v629h308v-584q0 -89 49 -137.5t129 -48.5q89 0 139.5 54t50.5 157z" />
    <glyph glyph-name="Scommaaccent" unicode="&#x218;" horiz-adv-x="1198" 
d="M625 -29q-216 0 -363.5 94t-210.5 261l283 163q85 -198 301 -198q194 0 194 117q0 64 -63 98q-62 38 -234 84q-173 47 -290 135q-131 106 -131 301q0 197 141 317q143 119 340 119q177 0 311.5 -82.5t212.5 -240.5l-276 -162q-39 84 -98 125t-150 41q-71 0 -112.5 -31.5
t-41.5 -77.5q0 -52 49 -92q50 -39 209 -86l133 -43q53 -17 119 -55q75 -38 111 -80q42 -46 70 -115t28 -151q0 -204 -147 -324q-147 -117 -385 -117zM721 -553h-246l21 430h286z" />
    <glyph glyph-name="scommaaccent" unicode="&#x219;" horiz-adv-x="958" 
d="M403 725q0 -28 42.5 -46t136.5 -44q327 -72 325 -328q0 -167 -123 -252q-125 -84 -303 -84q-323 0 -440 244l266 152q41 -121 174 -121q111 0 111 63q0 28 -44.5 47.5t-133.5 42.5q-50 14 -89 28t-86 40.5t-77.5 58.5t-52 81.5t-21.5 109.5q0 159 115 248q116 88 286 88
q128 0 232.5 -57t167.5 -162l-262 -142q-50 90 -138 90q-86 0 -86 -57zM594 -553h-246l21 430h286z" />
    <glyph glyph-name="uni021A" unicode="&#x21a;" horiz-adv-x="1105" 
d="M20 1434h1065v-316h-368v-1118h-328v1118h-369v316zM651 -553h-245l20 430h287z" />
    <glyph glyph-name="uni021B" unicode="&#x21b;" horiz-adv-x="794" 
d="M713 1024v-295h-211v-362q0 -59 46.5 -76.5t164.5 -11.5v-279q-293 -30 -406 55q-112 87 -112 312v362h-164v295h164v195l307 92v-287h211zM557 -553h-246l21 430h286z" />
    <glyph glyph-name="circumflex" unicode="&#x2c6;" horiz-adv-x="819" 
d="M561 1434l217 -308h-297l-71 113l-72 -113h-297l217 308h303z" />
    <glyph glyph-name="caron" unicode="&#x2c7;" horiz-adv-x="819" 
d="M410 1321l71 113h297l-217 -308h-303l-217 308h297z" />
    <glyph glyph-name="breve" unicode="&#x2d8;" horiz-adv-x="798" 
d="M41 1417h270q0 -94 88 -94t88 94h271q0 -148 -93.5 -227.5t-265.5 -79.5t-265 79.5t-93 227.5z" />
    <glyph glyph-name="dotaccent" unicode="&#x2d9;" horiz-adv-x="450" 
d="M338 1167q-51 -51 -123 -51t-123 51q-51 54 -51 123.5t51 120.5q51 54 123 54t123 -54q51 -51 51 -120.5t-51 -123.5z" />
    <glyph glyph-name="ring" unicode="&#x2da;" horiz-adv-x="626" 
d="M313 1096q-118 0 -195 72.5t-77 183.5t77 183.5t195 72.5q121 0 197 -72.5t76 -183.5t-76 -183.5t-197 -72.5zM260 1300q19 -19 53.5 -19t53.5 19q20 20 20 51t-20 50q-19 20 -53.5 20t-53.5 -20q-19 -19 -19 -50t19 -51z" />
    <glyph glyph-name="ogonek" unicode="&#x2db;" horiz-adv-x="466" 
d="M246 -438q-93 0 -149 48t-56 138q0 115 131 252h254q-92 -103 -92 -174q-3 -53 45 -53q9 -2 47 8v-184q-87 -35 -180 -35z" />
    <glyph glyph-name="tilde" unicode="&#x2dc;" horiz-adv-x="817" 
d="M287 1133h-246q0 100 24 172t64 107.5t91.5 46.5t108 -3.5t113.5 -50.5q54 -32 71 -22.5t17 71.5h246q0 -100 -24 -172t-64 -107.5t-91.5 -46.5t-108 3.5t-113.5 50.5q-51 32 -69.5 22t-18.5 -71z" />
    <glyph glyph-name="hungarumlaut" unicode="&#x2dd;" horiz-adv-x="956" 
d="M41 1126l164 287h315l-176 -287h-303zM416 1126l184 287h315l-196 -287h-303z" />
    <glyph glyph-name="gravecomb" unicode="&#x300;" horiz-adv-x="0" 
d="M-41 1147h-295l-237 287h368z" />
    <glyph glyph-name="acutecomb" unicode="&#x301;" horiz-adv-x="0" 
d="M-573 1147l163 287h369l-238 -287h-294z" />
    <glyph glyph-name="uni0302" unicode="&#x302;" horiz-adv-x="0" 
d="M-258 1434l217 -308h-297l-72 113l-71 -113h-297l217 308h303z" />
    <glyph glyph-name="tildecomb" unicode="&#x303;" horiz-adv-x="0" 
d="M-510 1133h-246q0 100 24 172t64 107.5t92 46.5t108.5 -3.5t113.5 -50.5q51 -32 69.5 -22t18.5 71h246q0 -100 -24 -172t-64 -107.5t-92 -46.5t-108.5 3.5t-113.5 50.5q-54 32 -71 22.5t-17 -71.5z" />
    <glyph glyph-name="uni0304" unicode="&#x304;" horiz-adv-x="0" 
d="M-41 1145h-614v246h614v-246z" />
    <glyph glyph-name="uni0306" unicode="&#x306;" horiz-adv-x="0" 
d="M-758 1417h271q0 -94 88 -94t88 94h270q0 -148 -93 -227.5t-265 -79.5t-265.5 79.5t-93.5 227.5z" />
    <glyph glyph-name="uni0307" unicode="&#x307;" horiz-adv-x="0" 
d="M-92 1167q-51 -51 -123 -51t-123 51q-51 54 -51 123.5t51 120.5q51 54 123 54t123 -54q51 -51 51 -120.5t-51 -123.5z" />
    <glyph glyph-name="uni0308" unicode="&#x308;" horiz-adv-x="0" 
d="M-475 1151q-44 -44 -108.5 -44t-108.5 44t-44 108.5t44 108.5t108.5 44t108.5 -44t44 -108.5t-44 -108.5zM-86 1151q-44 -44 -108.5 -44t-108.5 44t-44 108.5t44 108.5t108.5 44t108.5 -44t44 -108.5t-44 -108.5z" />
    <glyph glyph-name="uni030A" unicode="&#x30a;" horiz-adv-x="0" 
d="M-324 1096q-118 0 -195 72.5t-77 183.5t77 183.5t195 72.5q121 0 197 -72.5t76 -183.5t-76 -183.5t-197 -72.5zM-377 1300q19 -19 54 -19t55 19q19 20 19 51t-19 50q-20 20 -55 20t-54 -20q-19 -19 -19 -50t19 -51z" />
    <glyph glyph-name="uni030B" unicode="&#x30b;" horiz-adv-x="0" 
d="M-915 1126l163 287h316l-176 -287h-303zM-541 1126l185 287h315l-197 -287h-303z" />
    <glyph glyph-name="uni030C" unicode="&#x30c;" horiz-adv-x="0" 
d="M-410 1321l72 113h297l-217 -308h-303l-217 308h297z" />
    <glyph glyph-name="uni0312" unicode="&#x312;" horiz-adv-x="0" 
d="M-287 2007h246l-20 -430h-287z" />
    <glyph glyph-name="uni0326" unicode="&#x326;" horiz-adv-x="0" 
d="M-102 -553h-246l20 430h287z" />
    <glyph glyph-name="uni0327" unicode="&#x327;" horiz-adv-x="0" 
d="M-170 0v-94q55 -13 92 -53.5t37 -104.5q0 -217 -461 -190v213q195 -15 195 28q0 32 -109 41v160h246z" />
    <glyph glyph-name="uni0328" unicode="&#x328;" horiz-adv-x="0" 
d="M-242 -438q-93 0 -148.5 48t-55.5 138q0 115 131 252h254q-93 -104 -93 -174q-3 -53 45 -53q10 -2 48 8v-184q-87 -35 -181 -35z" />
    <glyph glyph-name="uni0394" unicode="&#x394;" horiz-adv-x="1351" 
d="M467 1434h418l467 -1434h-1352zM676 1075l-227 -768h454z" />
    <glyph glyph-name="uni03A9" unicode="&#x3a9;" horiz-adv-x="1572" 
d="M1532 758q0 -262 -193 -443h164v-315h-569v315q124 43 197 150t73 252q0 186 -121 307q-119 119 -297 119q-180 0 -299 -119q-118 -118 -118 -307q0 -145 73 -252t197 -150v-315h-569v315h163q-192 180 -192 443q0 300 217 502t528 202q312 0 529 -202t217 -502z" />
    <glyph glyph-name="pi" unicode="&#x3c0;" horiz-adv-x="1372" 
d="M41 1024h1290v-287h-160v-737h-307v737h-348v-737h-307v737h-168v287z" />
    <glyph glyph-name="uni0401" unicode="&#x401;" horiz-adv-x="1085" 
d="M483 1561q-44 -44 -108.5 -44t-108.5 44t-44 108.5t44 108.5t108.5 44t108.5 -44t44 -108.5t-44 -108.5zM872 1561q-44 -44 -108.5 -44t-108.5 44t-44 108.5t44 108.5t108.5 44t108.5 -44t44 -108.5t-44 -108.5zM451 569v-254h573v-315h-901v1434h891v-316h-563v-237h512
v-312h-512z" />
    <glyph glyph-name="uni0402" unicode="&#x402;" horiz-adv-x="1443" 
d="M967 950q181 0 283 -104.5t102 -298.5v-129q0 -239 -114.5 -345.5t-356.5 -92.5v305q80 -4 111.5 26.5t31.5 106.5v92q0 145 -139 145q-94 0 -189 -32v-623h-327v1118h-349v316h1065v-316h-389v-205q136 37 271 37z" />
    <glyph glyph-name="uni0403" unicode="&#x403;" horiz-adv-x="962" 
d="M524 1841h369l-238 -287h-295zM123 1434h819v-316h-491v-1118h-328v1434z" />
    <glyph glyph-name="uni0404" unicode="&#x404;" horiz-adv-x="1472" 
d="M807 291q109 0 198.5 47t133.5 129l282 -164q-93 -154 -256.5 -243t-357.5 -89q-322 0 -535 213q-211 214 -211 533t211 530q212 215 535 215q192 0 356 -89t258 -243l-282 -163q-47 84 -134.5 130t-197.5 46q-147 0 -250 -72.5t-145 -200.5h585v-307h-585
q42 -128 145 -200t250 -72z" />
    <glyph glyph-name="uni0405" unicode="&#x405;" horiz-adv-x="1198" 
d="M625 -29q-216 0 -363.5 94t-210.5 261l283 163q85 -198 301 -198q194 0 194 117q0 64 -63 98q-62 38 -234 84q-173 47 -290 135q-131 106 -131 301q0 197 141 317q143 119 340 119q177 0 311.5 -82.5t212.5 -240.5l-276 -162q-39 84 -98 125t-150 41q-71 0 -112.5 -31.5
t-41.5 -77.5q0 -52 49 -92q50 -39 209 -86l133 -43q53 -17 119 -55q75 -38 111 -80q42 -46 70 -115t28 -151q0 -204 -147 -324q-147 -117 -385 -117z" />
    <glyph glyph-name="uni0406" unicode="&#x406;" horiz-adv-x="573" 
d="M123 0v1434h328v-1434h-328z" />
    <glyph glyph-name="uni0407" unicode="&#x407;" horiz-adv-x="573" 
d="M201 1561q-44 -44 -108.5 -44t-108.5 44t-44 108.5t44 108.5t108.5 44t108.5 -44t44 -108.5t-44 -108.5zM590 1561q-44 -44 -108.5 -44t-108.5 44t-44 108.5t44 108.5t108.5 44t108.5 -44t44 -108.5t-44 -108.5zM123 0v1434h328v-1434h-328z" />
    <glyph glyph-name="uni0408" unicode="&#x408;" horiz-adv-x="1175" 
d="M547 -29q-342 0 -486 279l285 164q38 -67 82.5 -95t120.5 -28q186 0 186 170v973h328v-973q0 -228 -145 -361q-144 -129 -371 -129z" />
    <glyph glyph-name="uni0409" unicode="&#x409;" horiz-adv-x="1945" 
d="M1229 922h174q214 0 358 -129t144 -332t-144 -332t-358 -129h-502v1118h-315v-536q0 -84 -10.5 -156t-30.5 -127.5t-47.5 -101.5t-61 -78t-72 -57.5t-80.5 -38.5t-86 -22t-89 -8.5t-89 3.5v307q126 -14 182 43.5t56 222.5v865h971v-512zM1229 307h174q80 0 127 40t47 114
q0 73 -47 113t-127 40h-174v-307z" />
    <glyph glyph-name="uni040A" unicode="&#x40a;" horiz-adv-x="1945" 
d="M1229 922h174q214 0 358 -129t144 -332t-144 -332t-358 -129h-502v614h-450v-614h-328v1434h328v-512h450v512h328v-512zM1229 307h174q80 0 127 40t47 114q0 73 -47 113t-127 40h-174v-307z" />
    <glyph glyph-name="uni040B" unicode="&#x40b;" horiz-adv-x="1454" 
d="M967 950q181 0 283 -104.5t102 -298.5v-547h-328v510q0 145 -139 145q-94 0 -189 -32v-623h-327v1118h-349v316h1065v-316h-389v-205q136 37 271 37z" />
    <glyph glyph-name="uni040C" unicode="&#x40c;" horiz-adv-x="1282" 
d="M627 1841h368l-237 -287h-295zM778 735l504 -735h-373l-458 664v-664h-328v1434h328v-623l438 623h373z" />
    <glyph glyph-name="uni040E" unicode="&#x40e;" horiz-adv-x="1249" 
d="M319 1819h615v-267h-615v267zM649 807l252 627h328l-414 -1012q-180 -443 -602 -422v307q198 -18 287 142l-459 985h328z" />
    <glyph glyph-name="uni040F" unicode="&#x40f;" horiz-adv-x="1331" 
d="M881 315v1119h327v-1434h-379v-274h-327v274h-379v1434h328v-1119h430z" />
    <glyph glyph-name="uni0410" unicode="&#x410;" horiz-adv-x="1392" 
d="M1393 0h-359l-71 225h-533l-72 -225h-358l487 1434h418zM696 1059l-168 -527h336z" />
    <glyph glyph-name="uni0411" unicode="&#x411;" horiz-adv-x="1198" 
d="M451 901h225q222 0 356 -125q135 -123 135 -325t-135 -328q-135 -123 -356 -123h-553v1434h921v-316h-593v-217zM451 307h225q164 0 164 144q0 143 -164 143h-225v-287z" />
    <glyph glyph-name="uni0412" unicode="&#x412;" horiz-adv-x="1228" 
d="M1012 743q176 -114 176 -323q0 -185 -133 -303q-132 -117 -330 -117h-602v1434h561q192 0 322 -115q131 -113 131 -295q0 -174 -125 -281zM684 1126h-233v-254h233q55 0 90 35.5t35 91.5t-35 91.5t-90 35.5zM451 307h274q61 0 98 37.5t37 99.5t-37 100t-98 38h-274v-275z
" />
    <glyph glyph-name="uni0413" unicode="&#x413;" horiz-adv-x="962" 
d="M123 1434h819v-316h-491v-1118h-328v1434z" />
    <glyph glyph-name="uni0414" unicode="&#x414;" horiz-adv-x="1454" 
d="M1249 1434v-1119h154v-589h-328v274h-717v-274h-327v589h145q113 162 113 476v643h960zM524 315h398v811h-306v-340q0 -304 -92 -471z" />
    <glyph glyph-name="uni0415" unicode="&#x415;" horiz-adv-x="1085" 
d="M451 569v-254h573v-315h-901v1434h891v-316h-563v-237h512v-312h-512z" />
    <glyph glyph-name="uni0416" unicode="&#x416;" horiz-adv-x="1888" 
d="M1405 729l463 -729h-363l-397 635v-635h-328v635l-397 -635h-363l463 729l-442 705h362l377 -631v631h328v-631l377 631h362z" />
    <glyph glyph-name="uni0417" unicode="&#x417;" horiz-adv-x="1146" 
d="M911 741q195 -109 195 -335q0 -196 -150 -316q-149 -119 -381 -119q-403 0 -544 340l282 162q65 -194 262 -194q203 0 203 151q0 152 -205 152h-182v290h141q195 0 195 142q0 141 -166 141q-159 0 -227 -164l-281 162q155 309 508 309q217 0 354 -116q140 -116 140 -308
q0 -186 -144 -297z" />
    <glyph glyph-name="uni0418" unicode="&#x418;" horiz-adv-x="1372" 
d="M1249 0h-327v778l-553 -778h-246v1434h328v-779l553 779h245v-1434z" />
    <glyph glyph-name="uni0419" unicode="&#x419;" horiz-adv-x="1372" 
d="M993 1554h-614v267h614v-267zM1249 0h-327v778l-553 -778h-246v1434h328v-779l553 779h245v-1434z" />
    <glyph glyph-name="uni041A" unicode="&#x41a;" horiz-adv-x="1282" 
d="M778 735l504 -735h-373l-458 664v-664h-328v1434h328v-623l438 623h373z" />
    <glyph glyph-name="uni041B" unicode="&#x41b;" horiz-adv-x="1372" 
d="M20 0v307q123 -19 180.5 39t57.5 223v865h991v-1434h-327v1118h-336v-536q0 -180 -49.5 -307.5t-137.5 -188.5q-163 -110 -379 -86z" />
    <glyph glyph-name="uni041C" unicode="&#x41c;" horiz-adv-x="1679" 
d="M1229 1434h327v-1434h-327v834l-371 -609h-37l-370 609v-834h-328v1434h328l389 -637z" />
    <glyph glyph-name="uni041D" unicode="&#x41d;" horiz-adv-x="1351" 
d="M901 885v549h328v-1434h-328v569h-450v-569h-328v1434h328v-549h450z" />
    <glyph glyph-name="uni041E" unicode="&#x41e;" horiz-adv-x="1613" 
d="M1335 186q-218 -215 -528 -215t-528 215t-218 531q0 315 218 530t528 215t528 -215q217 -214 217 -530q0 -317 -217 -531zM508 410q119 -119 299 -119q178 0 297 119q121 121 121 307t-121 307q-119 119 -297 119q-180 0 -299 -119t-119 -307t119 -307z" />
    <glyph glyph-name="uni041F" unicode="&#x41f;" horiz-adv-x="1331" 
d="M123 1434h1085v-1434h-327v1118h-430v-1118h-328v1434z" />
    <glyph glyph-name="uni0420" unicode="&#x420;" horiz-adv-x="1208" 
d="M123 1434h543q212 0 356 -144q145 -145 145 -348t-145 -348q-143 -143 -356 -143h-215v-451h-328v1434zM451 758h215q75 0 124.5 53t49.5 131t-49.5 131t-124.5 53h-215v-368z" />
    <glyph glyph-name="uni0421" unicode="&#x421;" horiz-adv-x="1472" 
d="M807 -29q-322 0 -535 213q-211 214 -211 533t211 530q212 215 535 215q192 0 356 -89t258 -243l-282 -163q-47 84 -134.5 130t-197.5 46q-191 0 -305 -117q-113 -116 -113 -309t113 -309q114 -117 305 -117q109 0 198.5 47t133.5 129l282 -164q-93 -154 -256.5 -243
t-357.5 -89z" />
    <glyph glyph-name="uni0422" unicode="&#x422;" horiz-adv-x="1105" 
d="M20 1434h1065v-316h-368v-1118h-328v1118h-369v316z" />
    <glyph glyph-name="uni0423" unicode="&#x423;" horiz-adv-x="1249" 
d="M649 807l252 627h328l-414 -1012q-180 -443 -602 -422v307q198 -18 287 142l-459 985h328z" />
    <glyph glyph-name="uni0424" unicode="&#x424;" horiz-adv-x="1687" 
d="M1004 127v-168h-320v168q-294 34 -469 190q-174 155 -174 400q0 242 174 397q179 159 469 193v168h320v-168q290 -34 469 -193q174 -155 174 -397q0 -245 -174 -400q-175 -156 -469 -190zM684 428v578q-315 -43 -315 -289t315 -289zM1004 1006v-578q315 43 315 289
t-315 289z" />
    <glyph glyph-name="uni0425" unicode="&#x425;" horiz-adv-x="1269" 
d="M821 735l428 -735h-372l-242 414l-242 -414h-373l429 735l-408 699h373l221 -379l221 379h373z" />
    <glyph glyph-name="uni0426" unicode="&#x426;" horiz-adv-x="1413" 
d="M1208 1434v-1119h154v-589h-328v274h-911v1434h328v-1119h430v1119h327z" />
    <glyph glyph-name="uni0427" unicode="&#x427;" horiz-adv-x="1300" 
d="M850 817v617h328v-1434h-328v500q-113 -45 -244 -45q-221 0 -368 123q-146 128 -146 344v512h328v-463q0 -95 52.5 -148t141.5 -53q127 0 236 47z" />
    <glyph glyph-name="uni0428" unicode="&#x428;" horiz-adv-x="1925" 
d="M1475 315v1119h327v-1434h-1679v1434h328v-1119h348v1119h327v-1119h349z" />
    <glyph glyph-name="uni0429" unicode="&#x429;" horiz-adv-x="2007" 
d="M1802 1434v-1119h154v-589h-328v274h-1505v1434h328v-1119h348v1119h327v-1119h349v1119h327z" />
    <glyph glyph-name="uni042A" unicode="&#x42a;" horiz-adv-x="1413" 
d="M870 0h-542v1118h-328v316h655v-451h215q214 0 357 -143q145 -145 145 -348q0 -204 -145 -349q-143 -143 -357 -143zM655 676v-369h215q75 0 124.5 53.5t49.5 131.5t-49.5 131t-124.5 53h-215z" />
    <glyph glyph-name="uni042B" unicode="&#x42b;" horiz-adv-x="1740" 
d="M666 0h-543v1434h328v-451h215q213 0 356 -143q145 -145 145 -348q0 -204 -145 -349q-143 -143 -356 -143zM1618 0h-328v1434h328v-1434zM451 676v-369h215q75 0 124.5 53.5t49.5 131.5t-49.5 131t-124.5 53h-215z" />
    <glyph glyph-name="uni042C" unicode="&#x42c;" horiz-adv-x="1208" 
d="M451 983h215q213 0 356 -143q145 -145 145 -348q0 -204 -145 -349q-143 -143 -356 -143h-543v1434h328v-451zM451 307h215q75 0 124.5 53.5t49.5 131.5t-49.5 131t-124.5 53h-215v-369z" />
    <glyph glyph-name="uni042D" unicode="&#x42d;" horiz-adv-x="1472" 
d="M666 1462q320 0 532 -215q213 -213 213 -530t-213 -533q-213 -213 -532 -213q-194 0 -358 89t-257 243l283 164q44 -82 133.5 -129t198.5 -47q147 0 250 72t145 200h-586v307h586q-42 128 -145 200.5t-250 72.5q-110 0 -197.5 -46t-134.5 -130l-283 163q94 154 258.5 243
t356.5 89z" />
    <glyph glyph-name="uni042E" unicode="&#x42e;" horiz-adv-x="2170" 
d="M1364 1462q310 0 528 -215q217 -214 217 -530q0 -310 -219 -529q-217 -217 -526 -217q-274 0 -477 170q-202 175 -248 439h-188v-580h-328v1434h328v-539h196q60 255 256 408q199 159 461 159zM1364 1143q-179 0 -299 -117q-119 -113 -119 -309q0 -188 119 -307t299 -119
q178 0 297 119q121 121 121 307t-121 307q-119 119 -297 119z" />
    <glyph glyph-name="uni042F" unicode="&#x42f;" horiz-adv-x="1280" 
d="M584 1434h573v-1434h-328v471h-104l-305 -471h-369l336 512q-130 55 -213 172q-82 119 -82 258q0 204 144 348t348 144zM584 758h245v368h-245q-68 0 -116 -53.5t-48 -130.5t48 -130.5t116 -53.5z" />
    <glyph glyph-name="uni0430" unicode="&#x430;" horiz-adv-x="1275" 
d="M856 928v96h307v-1024h-307v96q-107 -125 -305 -125q-202 0 -346 156t-144 385q0 227 144 383q146 158 346 158q198 0 305 -125zM436 330q68 -68 176 -68t176 68t68 182t-68 182t-176 68t-176 -68q-67 -67 -67 -182t67 -182z" />
    <glyph glyph-name="uni0431" unicode="&#x431;" horiz-adv-x="1161" 
d="M608 -29q-247 0 -399 158q-148 157 -148 399q0 259 78 406q76 142 314 260l84 41q58 27 75 37l58 31q11 7 19 12t15.5 10.5t11.5 8.5t10.5 9t9 8.5l10.5 10.5l12 12q37 35 63 101l254 -146q-27 -118 -119 -192q-89 -71 -266 -138q-123 -46 -180.5 -90.5t-83.5 -107.5
q110 96 281 96q158 0 290 -123q133 -121 133 -323q0 -213 -143 -347q-142 -133 -379 -133zM823 451q0 90 -63 148t-160 58q-89 0 -153 -55t-64 -143q0 -91 64 -151t159 -60q94 0 155.5 57.5t61.5 145.5z" />
    <glyph glyph-name="uni0432" unicode="&#x432;" horiz-adv-x="1054" 
d="M877 524q137 -73 137 -231q0 -133 -92.5 -213t-255.5 -80h-553v1024h512q163 0 255.5 -80t92.5 -213q0 -135 -96 -207zM592 778h-193v-143h193q90 0 90 70q0 73 -90 73zM399 254h226q90 0 90 76q0 71 -90 71h-226v-147z" />
    <glyph glyph-name="uni0433" unicode="&#x433;" horiz-adv-x="849" 
d="M113 1024h716v-295h-409v-729h-307v1024z" />
    <glyph glyph-name="uni0434" unicode="&#x434;" horiz-adv-x="1228" 
d="M1055 1024v-737h133v-561h-299v274h-570v-274h-299v561h127q82 125 82 354v383h826zM469 287h287v463h-228v-109q0 -212 -59 -354z" />
    <glyph glyph-name="uni0435" unicode="&#x435;" 
d="M1114 389h-727q52 -143 246 -143q124 0 196 78l246 -142q-150 -211 -446 -211q-257 0 -414 154q-154 154 -154 387q0 230 152 385q153 156 393 156q224 0 371 -156q149 -152 149 -385q0 -64 -12 -123zM381 618h440q-46 162 -217 162q-177 0 -223 -162z" />
    <glyph glyph-name="uni0436" unicode="&#x436;" horiz-adv-x="1576" 
d="M1217 512l339 -512h-339l-279 444v-444h-299v444l-279 -444h-340l340 512l-319 512h340l258 -438v438h299v-438l258 438h340z" />
    <glyph glyph-name="uni0437" unicode="&#x437;" horiz-adv-x="925" 
d="M735 520q150 -80 150 -241q0 -137 -113.5 -222.5t-310.5 -85.5q-313 0 -430 244l248 147q46 -124 186 -124q121 0 121 79q0 72 -97 72h-143v258h111q96 0 96 70q0 74 -96 74q-116 0 -168 -119l-248 141q126 240 410 240q176 0 286 -90q107 -88 107 -218q0 -148 -109 -225
z" />
    <glyph glyph-name="uni0438" unicode="&#x438;" 
d="M412 512l438 512h225v-1024h-299v512l-438 -512h-225v1024h299v-512z" />
    <glyph glyph-name="uni0439" unicode="&#x439;" 
d="M901 1145h-614v266h614v-266zM412 512l438 512h225v-1024h-299v512l-438 -512h-225v1024h299v-512z" />
    <glyph glyph-name="uni043A" unicode="&#x43a;" horiz-adv-x="1095" 
d="M713 512l383 -512h-348l-328 453v-453h-307v1024h307v-449l307 449h358z" />
    <glyph glyph-name="uni043B" unicode="&#x43b;" horiz-adv-x="1116" 
d="M168 1024h836v-1024h-308v729h-221v-305q0 -233 -116 -341.5t-339 -82.5v287q72 -20 110 20t38 137v580z" />
    <glyph glyph-name="uni043C" unicode="&#x43c;" horiz-adv-x="1310" 
d="M903 1024h295v-1024h-295v528l-229 -356h-37l-229 356v-528h-295v1024h295l247 -387z" />
    <glyph glyph-name="uni043D" unicode="&#x43d;" 
d="M768 655v369h307v-1024h-307v369h-348v-369h-307v1024h307v-369h348z" />
    <glyph glyph-name="uni043E" unicode="&#x43e;" horiz-adv-x="1208" 
d="M989 127q-156 -156 -385 -156t-385 156q-158 158 -158 385q0 225 158 383t385 158t385 -158t158 -383q0 -227 -158 -385zM436 338q68 -68 168 -68t168 68t68 174t-68 174t-168 68t-168 -68q-67 -67 -67 -174t67 -174z" />
    <glyph glyph-name="uni043F" unicode="&#x43f;" 
d="M113 1024h962v-1024h-307v737h-348v-737h-307v1024z" />
    <glyph glyph-name="uni0440" unicode="&#x440;" horiz-adv-x="1275" 
d="M725 1053q200 0 346 -158q143 -155 143 -383q0 -230 -143 -385q-144 -156 -346 -156q-198 0 -305 125v-506h-307v1434h307v-96q107 125 305 125zM487 330q71 -68 177 -68t174 68q69 66 69 182t-69 182q-68 68 -174 68t-177 -68q-67 -67 -67 -182t67 -182z" />
    <glyph glyph-name="uni0441" unicode="&#x441;" horiz-adv-x="1087" 
d="M604 -29q-233 0 -389 156q-154 157 -154 385t154 385q156 156 389 156q146 0 270.5 -71t192.5 -191l-268 -156q-56 115 -199 115q-100 0 -165.5 -67t-65.5 -171t65.5 -171t165.5 -67q146 0 199 115l268 -153q-68 -122 -191.5 -193.5t-271.5 -71.5z" />
    <glyph glyph-name="uni0442" unicode="&#x442;" horiz-adv-x="962" 
d="M20 1024h922v-295h-305v-729h-307v729h-310v295z" />
    <glyph glyph-name="uni0443" unicode="&#x443;" horiz-adv-x="1085" 
d="M565 395l193 629h327l-350 -993q-163 -462 -583 -441v287q104 0 159 31t90 110l-401 1006h328z" />
    <glyph glyph-name="uni0444" unicode="&#x444;" horiz-adv-x="1413" 
d="M856 -12v-398h-299v398q-234 38 -364 180q-132 144 -132 344t132 344q130 142 364 180v398h299v-398q233 -38 363 -180q133 -145 133 -344t-133 -344q-130 -142 -363 -180zM557 281v462q-192 -52 -192 -231t192 -231zM856 743v-462q193 52 193 231t-193 231z" />
    <glyph glyph-name="uni0445" unicode="&#x445;" horiz-adv-x="1085" 
d="M719 520l366 -520h-352l-190 270l-191 -270h-352l367 520l-355 504h353l178 -254l178 254h352z" />
    <glyph glyph-name="uni0446" unicode="&#x446;" horiz-adv-x="1249" 
d="M1034 1024v-737h174v-561h-299v274h-796v1024h307v-737h307v737h307z" />
    <glyph glyph-name="uni0447" unicode="&#x447;" horiz-adv-x="1116" 
d="M696 594v430h308v-1024h-308v307q-106 -33 -225 -33q-187 0 -298.5 97t-111.5 274v379h308v-338q0 -125 163 -125q97 0 164 33z" />
    <glyph glyph-name="uni0448" unicode="&#x448;" horiz-adv-x="1720" 
d="M1300 287v737h308v-1024h-1495v1024h307v-737h287v737h307v-737h286z" />
    <glyph glyph-name="uni0449" unicode="&#x449;" horiz-adv-x="1740" 
d="M1567 1024v-737h133v-561h-299v274h-1288v1024h307v-737h266v737h307v-737h267v737h307z" />
    <glyph glyph-name="uni044A" unicode="&#x44a;" horiz-adv-x="1198" 
d="M584 717h172q183 0 292 -98.5t109 -260.5t-108.5 -260t-292.5 -98h-480v729h-276v295h584v-307zM584 266h174q62 -6 87.5 43.5t0 98.5t-87.5 43h-174v-185z" />
    <glyph glyph-name="uni044B" unicode="&#x44b;" horiz-adv-x="1515" 
d="M420 717h172q183 0 292 -98.5t109 -260.5t-108.5 -260t-292.5 -98h-479v1024h307v-307zM1096 0v1024h307v-1024h-307zM420 266h174q62 -6 87.5 43.5t0 98.5t-87.5 43h-174v-185z" />
    <glyph glyph-name="uni044C" unicode="&#x44c;" horiz-adv-x="1034" 
d="M420 717h172q183 0 292 -98.5t109 -260.5t-108.5 -260t-292.5 -98h-479v1024h307v-307zM420 266h174q62 -6 87.5 43.5t0 98.5t-87.5 43h-174v-185z" />
    <glyph glyph-name="uni044D" unicode="&#x44d;" horiz-adv-x="1097" 
d="M494 1053q236 0 389 -150t153 -391t-153 -391t-389 -150q-154 0 -280 71t-194 194l261 147q55 -119 217 -119q128 0 196 111h-284v274h284q-68 111 -196 111q-159 0 -217 -119l-261 150q68 122 193.5 192t280.5 70z" />
    <glyph glyph-name="uni044E" unicode="&#x44e;" horiz-adv-x="1669" 
d="M1065 1053q227 0 385 -158t158 -383q0 -227 -158 -385q-156 -156 -385 -156q-189 0 -330 111q-139 109 -186 287h-129v-369h-307v1024h307v-369h129q47 178 186 287q141 111 330 111zM895 338q68 -68 170 -68q103 0 168 68q67 67 67 174t-67 174q-65 68 -168 68
q-102 0 -170 -68q-66 -69 -66 -174t66 -174z" />
    <glyph glyph-name="uni044F" unicode="&#x44f;" horiz-adv-x="1075" 
d="M463 1024h500v-1024h-299v295h-64l-211 -295h-348l240 338q-92 47 -145.5 134.5t-53.5 186.5q0 146 102 254q102 111 279 111zM664 754h-175q-50 0 -79 -28t-29 -77q0 -47 29 -73.5t79 -26.5h175v205z" />
    <glyph glyph-name="uni0451" unicode="&#x451;" 
d="M508 1161q-44 -44 -108.5 -44t-108.5 44t-44 108.5t44 108.5t108.5 44t108.5 -44t44 -108.5t-44 -108.5zM897 1161q-44 -44 -108.5 -44t-108.5 44t-44 108.5t44 108.5t108.5 44t108.5 -44t44 -108.5t-44 -108.5zM1114 389h-727q52 -143 246 -143q124 0 196 78l246 -142
q-150 -211 -446 -211q-257 0 -414 154q-154 154 -154 387q0 230 152 385q153 156 393 156q224 0 371 -156q149 -152 149 -385q0 -64 -12 -123zM381 618h440q-46 162 -217 162q-177 0 -223 -162z" />
    <glyph glyph-name="uni0452" unicode="&#x452;" horiz-adv-x="1204" 
d="M723 1053q165 0 272 -113q111 -114 111 -311v-629q0 -239 -114.5 -345.5t-356.5 -92.5v295q86 -4 125 29.5t39 113.5v584q0 89 -49 137.5t-129 48.5q-89 0 -140 -54.5t-51 -156.5v-559h-307v1118h-123v193h123v123h307v-123h287v-193h-287v-190q91 125 293 125z" />
    <glyph glyph-name="uni0453" unicode="&#x453;" horiz-adv-x="849" 
d="M422 1434h369l-238 -287h-295zM113 1024h716v-295h-409v-729h-307v1024z" />
    <glyph glyph-name="uni0454" unicode="&#x454;" horiz-adv-x="1097" 
d="M600 264q162 0 217 119l260 -147q-68 -123 -193.5 -194t-279.5 -71q-236 0 -389 150q-154 151 -154 391t154 391q153 150 389 150q154 0 279.5 -70t193.5 -192l-260 -150q-58 119 -217 119q-130 0 -197 -111h285v-274h-285q68 -111 197 -111z" />
    <glyph glyph-name="uni0455" unicode="&#x455;" horiz-adv-x="958" 
d="M403 725q0 -28 42.5 -46t136.5 -44q327 -72 325 -328q0 -167 -123 -252q-125 -84 -303 -84q-323 0 -440 244l266 152q41 -121 174 -121q111 0 111 63q0 28 -44.5 47.5t-133.5 42.5q-50 14 -89 28t-86 40.5t-77.5 58.5t-52 81.5t-21.5 109.5q0 159 115 248q116 88 286 88
q128 0 232.5 -57t167.5 -162l-262 -142q-50 90 -138 90q-86 0 -86 -57z" />
    <glyph glyph-name="uni0456" unicode="&#x456;" horiz-adv-x="532" 
d="M395 1167q-54 -54 -129.5 -54t-130.5 54q-54 55 -54 130.5t54 129.5q55 55 130.5 55t129.5 -55q55 -54 55 -129.5t-55 -130.5zM420 0h-307v1024h307v-1024z" />
    <glyph glyph-name="uni0457" unicode="&#x457;" horiz-adv-x="532" 
d="M180 1151q-44 -44 -108.5 -44t-108.5 44t-44 108.5t44 108.5t108.5 44t108.5 -44t44 -108.5t-44 -108.5zM569 1151q-44 -44 -108.5 -44t-108.5 44t-44 108.5t44 108.5t108.5 44t108.5 -44t44 -108.5t-44 -108.5zM420 0h-307v1024h307v-1024z" />
    <glyph glyph-name="uni0458" unicode="&#x458;" horiz-adv-x="563" 
d="M426 1167q-54 -54 -129 -54t-131 54q-54 55 -54 130.5t54 129.5q56 55 131 55t129 -55q56 -54 56 -129.5t-56 -130.5zM143 0v1024h308v-1024q0 -239 -114.5 -345.5t-356.5 -92.5v295q86 -4 124.5 29.5t38.5 113.5z" />
    <glyph glyph-name="uni0459" unicode="&#x459;" horiz-adv-x="1546" 
d="M983 696h162q169 0 264.5 -93t95.5 -255q0 -161 -97 -254.5t-263 -93.5h-469v729h-201v-305q0 -232 -114.5 -342.5t-340.5 -97.5v286q74 -9 111 34.5t37 139.5v580h815v-328zM983 266h164q33 0 56.5 22.5t23.5 59.5t-23.5 59.5t-56.5 22.5h-164v-164z" />
    <glyph glyph-name="uni045A" unicode="&#x45a;" horiz-adv-x="1617" 
d="M1034 696h162q173 0 277 -94.5t104 -253.5q0 -158 -106 -253t-275 -95h-469v410h-328v-410h-307v1024h307v-328h328v328h307v-328zM1034 266h164q33 0 56.5 22.5t23.5 59.5t-23.5 59.5t-56.5 22.5h-164v-164z" />
    <glyph glyph-name="uni045B" unicode="&#x45b;" horiz-adv-x="1204" 
d="M723 1053q165 0 272 -113q111 -114 111 -311v-629h-307v584q0 89 -49 137.5t-129 48.5q-89 0 -140 -54.5t-51 -156.5v-559h-307v1118h-123v193h123v123h307v-123h287v-193h-287v-190q91 125 293 125z" />
    <glyph glyph-name="uni045C" unicode="&#x45c;" horiz-adv-x="1095" 
d="M545 1434h368l-237 -287h-295zM713 512l383 -512h-348l-328 453v-453h-307v1024h307v-449l307 449h358z" />
    <glyph glyph-name="uni045E" unicode="&#x45e;" horiz-adv-x="1085" 
d="M238 1411h614v-266h-614v266zM565 395l193 629h327l-350 -993q-163 -462 -583 -441v287q104 0 159 31t90 110l-401 1006h328z" />
    <glyph glyph-name="uni045F" unicode="&#x45f;" 
d="M768 287v737h307v-1024h-332v-274h-299v274h-331v1024h307v-737h348z" />
    <glyph glyph-name="uni0490" unicode="&#x490;" horiz-adv-x="962" 
d="M614 1434v245h328v-561h-491v-1118h-328v1434h491z" />
    <glyph glyph-name="uni0491" unicode="&#x491;" horiz-adv-x="849" 
d="M530 1024v205h299v-500h-409v-729h-307v1024h417z" />
    <glyph glyph-name="Wgrave" unicode="&#x1e80;" horiz-adv-x="2043" 
d="M1286 1556h-295l-237 287h368zM416 0h372l234 846l233 -846h373l395 1434h-344l-247 -1004l-277 1004h-266l-277 -1004l-247 1004h-345z" />
    <glyph glyph-name="wgrave" unicode="&#x1e81;" horiz-adv-x="1576" 
d="M809 1434l164 -287h-295l-238 287h369zM1092 475l147 549h328l-328 -1024h-287l-164 547l-163 -547h-287l-328 1024h328l147 -549l160 549h287z" />
    <glyph glyph-name="Wacute" unicode="&#x1e82;" horiz-adv-x="2043" 
d="M918 1556l163 287h369l-238 -287h-294zM416 0h372l234 846l233 -846h373l395 1434h-344l-247 -1004l-277 1004h-266l-277 -1004l-247 1004h-345z" />
    <glyph glyph-name="wacute" unicode="&#x1e83;" horiz-adv-x="1576" 
d="M768 1434h369l-238 -287h-295zM1092 475l147 549h328l-328 -1024h-287l-164 547l-163 -547h-287l-328 1024h328l147 -549l160 549h287z" />
    <glyph glyph-name="Wdieresis" unicode="&#x1e84;" horiz-adv-x="2043" 
d="M1016 1561q-44 -44 -108.5 -44t-108.5 44t-44 108.5t44 108.5t108.5 44t108.5 -44t44 -108.5t-44 -108.5zM1405 1561q-44 -44 -108.5 -44t-108.5 44t-44 108.5t44 108.5t108.5 44t108.5 -44t44 -108.5t-44 -108.5zM788 0h-372l-396 1434h345l247 -1004l277 1004h266
l277 -1004l247 1004h344l-395 -1434h-373l-233 846z" />
    <glyph glyph-name="wdieresis" unicode="&#x1e85;" horiz-adv-x="1576" 
d="M702 1151q-44 -44 -108.5 -44t-108.5 44t-44 108.5t44 108.5t108.5 44t108.5 -44t44 -108.5t-44 -108.5zM1092 1151q-44 -44 -109 -44t-109 44t-44 108.5t44 108.5t109 44t109 -44t44 -108.5t-44 -108.5zM1092 475l147 549h328l-328 -1024h-287l-164 547l-163 -547h-287
l-328 1024h328l147 -549l160 549h287z" />
    <glyph glyph-name="uni1EA0" unicode="&#x1ea0;" horiz-adv-x="1392" 
d="M821 -442q-54 -51 -127.5 -51t-128.5 51q-53 54 -53 125t53 124q55 53 128.5 53t127.5 -53t54 -124t-54 -125zM1393 0h-359l-71 225h-533l-72 -225h-358l487 1434h418zM696 1059l-168 -527h336z" />
    <glyph glyph-name="uni1EA1" unicode="&#x1ea1;" horiz-adv-x="1275" 
d="M756 -442q-54 -51 -127 -51t-129 51q-52 54 -52 125t52 124q55 53 128.5 53t127.5 -53t54 -124t-54 -125zM856 928v96h307v-1024h-307v96q-107 -125 -305 -125q-202 0 -346 156t-144 385q0 227 144 383q146 158 346 158q198 0 305 -125zM436 330q68 -68 176 -68t176 68
t68 182t-68 182t-176 68t-176 -68q-67 -67 -67 -182t67 -182z" />
    <glyph glyph-name="uni1EA2" unicode="&#x1ea2;" horiz-adv-x="1392" 
d="M809 1536h-215q0 61 11.5 97t28 51t50.5 30l29 15q1 1 5.5 5t6 5.5t3 5.5t1.5 8q0 8 -9.5 14.5t-21.5 6.5q-58 0 -84 -56l-184 68q41 81 105.5 117t166.5 36q110 0 174 -46t64 -128q0 -58 -26 -97t-66 -58q-24 -10 -33.5 -25t-5.5 -49zM1393 0h-359l-71 225h-533
l-72 -225h-358l487 1434h418zM696 1059l-168 -527h336z" />
    <glyph glyph-name="uni1EA3" unicode="&#x1ea3;" horiz-adv-x="1275" 
d="M817 1147h-215q0 61 11.5 97t28 51t50.5 30l29 14q16 16 16 25q0 8 -9 14t-21 6q-58 0 -84 -55l-185 68q41 81 106 117t167 36q110 0 173.5 -46t63.5 -128q0 -58 -26 -97t-66 -58q-24 -10 -33.5 -25t-5.5 -49zM856 928v96h307v-1024h-307v96q-107 -125 -305 -125
q-202 0 -346 156t-144 385q0 227 144 383q146 158 346 158q198 0 305 -125zM436 330q68 -68 176 -68t176 68t68 182t-68 182t-176 68t-176 -68q-67 -67 -67 -182t67 -182z" />
    <glyph glyph-name="uni1EA4" unicode="&#x1ea4;" horiz-adv-x="1392" 
d="M1393 0h-359l-71 225h-533l-72 -225h-358l487 1434h418zM696 1059l-168 -527h336zM752 1536l-66 106l-68 -106h-276l203 287h280l203 -287h-276zM926 1743l153 266h342l-221 -266h-274z" />
    <glyph glyph-name="uni1EA5" unicode="&#x1ea5;" horiz-adv-x="1275" 
d="M762 1126l-66 107l-67 -107h-277l203 287h281l202 -287h-276zM856 928v96h307v-1024h-307v96q-107 -125 -305 -125q-202 0 -346 156t-144 385q0 227 144 383q146 158 346 158q198 0 305 -125zM436 330q68 -68 176 -68t176 68t68 182t-68 182t-176 68t-176 -68
q-67 -67 -67 -182t67 -182zM936 1333l154 266h342l-222 -266h-274z" />
    <glyph glyph-name="uni1EA6" unicode="&#x1ea6;" horiz-adv-x="1392" 
d="M1393 0h-359l-71 225h-533l-72 -225h-358l487 1434h418zM696 1059l-168 -527h336zM752 1536l-66 106l-68 -106h-276l203 287h280l203 -287h-276zM1223 1743h-275l-221 266h344z" />
    <glyph glyph-name="uni1EA7" unicode="&#x1ea7;" horiz-adv-x="1275" 
d="M762 1126l-66 107l-67 -107h-277l203 287h281l202 -287h-276zM856 928v96h307v-1024h-307v96q-107 -125 -305 -125q-202 0 -346 156t-144 385q0 227 144 383q146 158 346 158q198 0 305 -125zM436 330q68 -68 176 -68t176 68t68 182t-68 182t-176 68t-176 -68
q-67 -67 -67 -182t67 -182zM1233 1333h-275l-221 266h344z" />
    <glyph glyph-name="uni1EA8" unicode="&#x1ea8;" horiz-adv-x="1392" 
d="M1393 0h-359l-71 225h-533l-72 -225h-358l487 1434h418zM696 1059l-168 -527h336zM752 1536l-66 106l-68 -106h-276l203 287h280l203 -287h-276zM1124 1743h-198q0 83 18.5 114t65.5 52l1 1q1 0 3.5 1.5t4.5 2.5t4.5 2.5l5 3t4.5 2.5t3 1q2 2 6.5 6t6.5 8t2 9
q0 7 -8.5 12.5t-20.5 5.5q-56 0 -78 -51l-172 63q40 75 100.5 109.5t153.5 34.5q102 0 161.5 -43t59.5 -119q0 -55 -24.5 -92t-61.5 -54q-15 -7 -22 -13t-12 -20t-3 -36z" />
    <glyph glyph-name="uni1EA9" unicode="&#x1ea9;" horiz-adv-x="1275" 
d="M762 1126l-66 107l-67 -107h-277l203 287h281l202 -287h-276zM856 928v96h307v-1024h-307v96q-107 -125 -305 -125q-202 0 -346 156t-144 385q0 227 144 383q146 158 346 158q198 0 305 -125zM436 330q68 -68 176 -68t176 68t68 182t-68 182t-176 68t-176 -68
q-67 -67 -67 -182t67 -182zM1135 1333h-199q0 83 18.5 114t65.5 52l1 1q1 0 3.5 1.5t4.5 2.5l5 2.5t5.5 3t4.5 2.5l2 1h1l6 6t6 8t2 9q0 7 -8.5 12.5t-20.5 5.5q-56 0 -78 -51l-172 64q40 75 100 109t154 34q102 0 161.5 -43t59.5 -119q0 -55 -24.5 -91.5t-61.5 -53.5
q-22 -10 -30.5 -24t-5.5 -46z" />
    <glyph glyph-name="uni1EAA" unicode="&#x1eaa;" horiz-adv-x="1392" 
d="M1393 0h-359l-71 225h-533l-72 -225h-358l487 1434h418zM696 1059l-168 -527h336zM752 1536l-66 106l-68 -106h-276l203 287h280l203 -287h-276zM666 1901q-43 28 -58.5 19t-15.5 -62h-211q0 86 20.5 147t54.5 91.5t79 40t94 -3t98 -42.5q44 -27 59 -18.5t15 61.5h211
q0 -107 -31 -175t-81.5 -90.5t-111 -14t-122.5 46.5z" />
    <glyph glyph-name="uni1EAB" unicode="&#x1eab;" horiz-adv-x="1275" 
d="M762 1126l-66 107l-67 -107h-277l203 287h281l202 -287h-276zM856 928v96h307v-1024h-307v96q-107 -125 -305 -125q-202 0 -346 156t-144 385q0 227 144 383q146 158 346 158q198 0 305 -125zM436 330q68 -68 176 -68t176 68t68 182t-68 182t-176 68t-176 -68
q-67 -67 -67 -182t67 -182zM676 1491q-43 28 -58.5 19t-15.5 -62h-211q0 86 20.5 147t54.5 91.5t79 40t94 -3t98 -42.5q44 -27 59 -18.5t15 61.5h211q0 -107 -31 -175t-81.5 -90.5t-111 -14t-122.5 46.5z" />
    <glyph glyph-name="uni1EAC" unicode="&#x1eac;" horiz-adv-x="1392" 
d="M1393 0h-359l-71 225h-533l-72 -225h-358l487 1434h418zM696 1059l-168 -527h336zM752 1536l-66 106l-68 -106h-276l203 287h280l203 -287h-276zM821 -442q-54 -51 -127.5 -51t-128.5 51q-53 54 -53 125t53 124q55 53 128.5 53t127.5 -53t54 -124t-54 -125z" />
    <glyph glyph-name="uni1EAD" unicode="&#x1ead;" horiz-adv-x="1275" 
d="M762 1126l-66 107l-67 -107h-277l203 287h281l202 -287h-276zM856 928v96h307v-1024h-307v96q-107 -125 -305 -125q-202 0 -346 156t-144 385q0 227 144 383q146 158 346 158q198 0 305 -125zM436 330q68 -68 176 -68t176 68t68 182t-68 182t-176 68t-176 -68
q-67 -67 -67 -182t67 -182zM756 -442q-54 -51 -127 -51t-129 51q-52 54 -52 125t52 124q55 53 128.5 53t127.5 -53t54 -124t-54 -125z" />
    <glyph glyph-name="uni1EAE" unicode="&#x1eae;" horiz-adv-x="1392" 
d="M1393 0h-359l-71 225h-533l-72 -225h-358l487 1434h418zM696 1059l-168 -527h336zM362 1806h252q0 -88 82 -88t82 88h252q0 -138 -87 -212t-247 -74t-247 74t-87 212zM535 1843l153 266h342l-221 -266h-274z" />
    <glyph glyph-name="uni1EAF" unicode="&#x1eaf;" horiz-adv-x="1275" 
d="M381 1397h252q0 -88 82 -88t82 88h252q0 -138 -87 -212.5t-247 -74.5t-247 74.5t-87 212.5zM856 928v96h307v-1024h-307v96q-107 -125 -305 -125q-202 0 -346 156t-144 385q0 227 144 383q146 158 346 158q198 0 305 -125zM436 330q68 -68 176 -68t176 68t68 182t-68 182
t-176 68t-176 -68q-67 -67 -67 -182t67 -182zM553 1434l154 266h342l-222 -266h-274z" />
    <glyph glyph-name="uni1EB0" unicode="&#x1eb0;" horiz-adv-x="1392" 
d="M1393 0h-359l-71 225h-533l-72 -225h-358l487 1434h418zM696 1059l-168 -527h336zM362 1806h252q0 -88 82 -88t82 88h252q0 -138 -87 -212t-247 -74t-247 74t-87 212zM866 1843h-274l-221 266h344z" />
    <glyph glyph-name="uni1EB1" unicode="&#x1eb1;" horiz-adv-x="1275" 
d="M381 1397h252q0 -88 82 -88t82 88h252q0 -138 -87 -212.5t-247 -74.5t-247 74.5t-87 212.5zM856 928v96h307v-1024h-307v96q-107 -125 -305 -125q-202 0 -346 156t-144 385q0 227 144 383q146 158 346 158q198 0 305 -125zM436 330q68 -68 176 -68t176 68t68 182t-68 182
t-176 68t-176 -68q-67 -67 -67 -182t67 -182zM885 1434h-275l-221 266h344z" />
    <glyph glyph-name="uni1EB2" unicode="&#x1eb2;" horiz-adv-x="1392" 
d="M1393 0h-359l-71 225h-533l-72 -225h-358l487 1434h418zM696 1059l-168 -527h336zM362 1806h252q0 -88 82 -88t82 88h252q0 -138 -87 -212t-247 -74t-247 74t-87 212zM799 1843h-199q0 83 18.5 114t65.5 52l1 1q1 0 3.5 1.5t4.5 2.5l5 2.5t5.5 3t4.5 2.5l2 1h1l6 6t6 8
t2 9q0 7 -8.5 12.5t-20.5 5.5q-56 0 -78 -51l-172 64q40 75 100 109t154 34q102 0 162 -43t60 -119q0 -55 -24.5 -91.5t-61.5 -53.5q-15 -7 -22.5 -13t-12 -20.5t-2.5 -36.5z" />
    <glyph glyph-name="uni1EB3" unicode="&#x1eb3;" horiz-adv-x="1275" 
d="M381 1397h252q0 -88 82 -88t82 88h252q0 -138 -87 -212.5t-247 -74.5t-247 74.5t-87 212.5zM856 928v96h307v-1024h-307v96q-107 -125 -305 -125q-202 0 -346 156t-144 385q0 227 144 383q146 158 346 158q198 0 305 -125zM436 330q68 -68 176 -68t176 68t68 182t-68 182
t-176 68t-176 -68q-67 -67 -67 -182t67 -182zM817 1434h-199q0 83 18.5 113.5t65.5 51.5l1 1q1 0 3.5 1.5t4.5 3t5 3t5.5 2.5t4.5 2.5l2 1.5h1l5 5l4.5 4.5t3 5t1.5 7.5q0 8 -8 13.5t-20 5.5q-56 0 -78 -51l-172 63q40 75 100 109t154 34q102 0 161.5 -42.5t59.5 -118.5
q0 -55 -24.5 -92t-61.5 -54q-15 -7 -22 -13t-12 -20t-3 -36z" />
    <glyph glyph-name="uni1EB4" unicode="&#x1eb4;" horiz-adv-x="1392" 
d="M1393 0h-359l-71 225h-533l-72 -225h-358l487 1434h418zM696 1059l-168 -527h336zM362 1806h252q0 -88 82 -88t82 88h252q0 -138 -87 -212t-247 -74t-247 74t-87 212zM674 1886q-43 28 -58.5 19t-15.5 -62h-211q0 86 20.5 147t54.5 92t79 40.5t94 -3t98 -42.5
q44 -27 59 -18.5t15 61.5h211q0 -86 -20.5 -147.5t-54.5 -92.5t-79 -40t-94 3.5t-98 42.5z" />
    <glyph glyph-name="uni1EB5" unicode="&#x1eb5;" horiz-adv-x="1275" 
d="M381 1397h252q0 -88 82 -88t82 88h252q0 -138 -87 -212.5t-247 -74.5t-247 74.5t-87 212.5zM856 928v96h307v-1024h-307v96q-107 -125 -305 -125q-202 0 -346 156t-144 385q0 227 144 383q146 158 346 158q198 0 305 -125zM436 330q68 -68 176 -68t176 68t68 182t-68 182
t-176 68t-176 -68q-67 -67 -67 -182t67 -182zM692 1477q-43 28 -58.5 19t-15.5 -62h-210q0 86 20.5 147t54.5 91.5t79 40t94 -3t98 -42.5q44 -27 58.5 -18.5t14.5 61.5h211q0 -107 -31 -175t-81.5 -90.5t-111 -14t-122.5 46.5z" />
    <glyph glyph-name="uni1EB6" unicode="&#x1eb6;" horiz-adv-x="1392" 
d="M1393 0h-359l-71 225h-533l-72 -225h-358l487 1434h418zM696 1059l-168 -527h336zM821 -442q-54 -51 -127.5 -51t-128.5 51q-53 54 -53 125t53 124q55 53 128.5 53t127.5 -53t54 -124t-54 -125zM362 1806h252q0 -88 82 -88t82 88h252q0 -138 -87 -212t-247 -74t-247 74
t-87 212z" />
    <glyph glyph-name="uni1EB7" unicode="&#x1eb7;" horiz-adv-x="1275" 
d="M381 1397h252q0 -88 82 -88t82 88h252q0 -138 -87 -212.5t-247 -74.5t-247 74.5t-87 212.5zM856 928v96h307v-1024h-307v96q-107 -125 -305 -125q-202 0 -346 156t-144 385q0 227 144 383q146 158 346 158q198 0 305 -125zM436 330q68 -68 176 -68t176 68t68 182t-68 182
t-176 68t-176 -68q-67 -67 -67 -182t67 -182zM756 -442q-54 -51 -127 -51t-129 51q-52 54 -52 125t52 124q55 53 128.5 53t127.5 -53t54 -124t-54 -125z" />
    <glyph glyph-name="uni1EB8" unicode="&#x1eb8;" horiz-adv-x="1085" 
d="M676 -442q-54 -51 -127 -51t-129 51q-52 54 -52 125t52 124q56 53 129 53t127 -53t54 -124t-54 -125zM451 569v-254h573v-315h-901v1434h891v-316h-563v-237h512v-312h-512z" />
    <glyph glyph-name="uni1EB9" unicode="&#x1eb9;" 
d="M725 -442q-54 -51 -127.5 -51t-128.5 51q-53 54 -53 125t53 124q55 53 128.5 53t127.5 -53t54 -124t-54 -125zM1114 389h-727q52 -143 246 -143q124 0 196 78l246 -142q-150 -211 -446 -211q-257 0 -414 154q-154 154 -154 387q0 230 152 385q153 156 393 156
q224 0 371 -156q149 -152 149 -385q0 -64 -12 -123zM381 618h440q-46 162 -217 162q-177 0 -223 -162z" />
    <glyph glyph-name="uni1EBA" unicode="&#x1eba;" horiz-adv-x="1085" 
d="M688 1536h-215q0 61 11.5 97t28 51t50.5 30l29 15q2 1 6 5l5.5 5.5t3 5.5t1.5 8q0 8 -9 14.5t-21 6.5q-58 0 -84 -56l-185 68q41 81 106 117t167 36q110 0 173.5 -46t63.5 -128q0 -58 -26 -97t-66 -58q-24 -10 -33.5 -25t-5.5 -49zM451 569v-254h573v-315h-901v1434h891
v-316h-563v-237h512v-312h-512z" />
    <glyph glyph-name="uni1EBB" unicode="&#x1ebb;" 
d="M750 1157h-215q0 61 11.5 97t28 51t50.5 30l1 1q1 0 3.5 1.5l5 3t5.5 3l5 2.5t4 2.5t3 1.5h1q2 2 5 4.5t4.5 4t3.5 4t3 5.5t1 6q0 8 -9.5 14.5t-21.5 6.5q-58 0 -84 -56l-184 68q41 81 105.5 117.5t166.5 36.5q110 0 174 -46.5t64 -128.5q0 -58 -26 -97t-67 -58
q-23 -10 -32.5 -25t-5.5 -49zM1114 389h-727q52 -143 246 -143q124 0 196 78l246 -142q-150 -211 -446 -211q-257 0 -414 154q-154 154 -154 387q0 230 152 385q153 156 393 156q224 0 371 -156q149 -152 149 -385q0 -64 -12 -123zM381 618h440q-46 162 -217 162
q-177 0 -223 -162z" />
    <glyph glyph-name="uni1EBC" unicode="&#x1ebc;" horiz-adv-x="1085" 
d="M557 1589q-47 31 -64.5 21t-17.5 -68h-233q0 95 22.5 163t60.5 102t87 44.5t103 -3.5t108 -48q51 -30 66.5 -21t15.5 68h233q0 -95 -22.5 -163t-60.5 -102t-87 -44.5t-103 3.5t-108 48zM451 569v-254h573v-315h-901v1434h891v-316h-563v-237h512v-312h-512z" />
    <glyph glyph-name="uni1EBD" unicode="&#x1ebd;" 
d="M596 1180q-47 31 -64.5 21t-17.5 -68h-233q0 95 22.5 163t60.5 102t87 44.5t103 -3.5t108 -48q51 -30 66 -21t15 68h234q0 -95 -22.5 -163t-60.5 -102t-87 -44.5t-103 3.5t-108 48zM1114 389h-727q52 -143 246 -143q124 0 196 78l246 -142q-150 -211 -446 -211
q-257 0 -414 154q-154 154 -154 387q0 230 152 385q153 156 393 156q224 0 371 -156q149 -152 149 -385q0 -64 -12 -123zM381 618h440q-46 162 -217 162q-177 0 -223 -162z" />
    <glyph glyph-name="uni1EBE" unicode="&#x1ebe;" horiz-adv-x="1085" 
d="M625 1536l-66 106l-67 -106h-277l203 287h280l203 -287h-276zM451 569v-254h573v-315h-901v1434h891v-316h-563v-237h512v-312h-512zM799 1743l153 266h342l-221 -266h-274z" />
    <glyph glyph-name="uni1EBF" unicode="&#x1ebf;" 
d="M680 1137l-66 106l-67 -106h-277l203 286h281l202 -286h-276zM1114 389h-727q52 -143 246 -143q124 0 196 78l246 -142q-150 -211 -446 -211q-257 0 -414 154q-154 154 -154 387q0 230 152 385q153 156 393 156q224 0 371 -156q149 -152 149 -385q0 -64 -12 -123z
M381 618h440q-46 162 -217 162q-177 0 -223 -162zM854 1343l154 267h342l-222 -267h-274z" />
    <glyph glyph-name="uni1EC0" unicode="&#x1ec0;" horiz-adv-x="1085" 
d="M625 1536l-66 106l-67 -106h-277l203 287h280l203 -287h-276zM451 569v-254h573v-315h-901v1434h891v-316h-563v-237h512v-312h-512zM1096 1743h-275l-221 266h344z" />
    <glyph glyph-name="uni1EC1" unicode="&#x1ec1;" 
d="M680 1137l-66 106l-67 -106h-277l203 286h281l202 -286h-276zM1114 389h-727q52 -143 246 -143q124 0 196 78l246 -142q-150 -211 -446 -211q-257 0 -414 154q-154 154 -154 387q0 230 152 385q153 156 393 156q224 0 371 -156q149 -152 149 -385q0 -64 -12 -123z
M381 618h440q-46 162 -217 162q-177 0 -223 -162zM1151 1343h-274l-222 267h344z" />
    <glyph glyph-name="uni1EC2" unicode="&#x1ec2;" horiz-adv-x="1085" 
d="M625 1536l-66 106l-67 -106h-277l203 287h280l203 -287h-276zM451 569v-254h573v-315h-901v1434h891v-316h-563v-237h512v-312h-512zM997 1743h-198q0 83 18.5 114t65.5 52l1 1q1 0 3.5 1.5t4.5 2.5t4.5 2.5l5 3t4.5 2.5l2 1h1q2 2 6.5 6t6.5 8t2 9q0 7 -8.5 12.5
t-20.5 5.5q-56 0 -78 -51l-172 63q40 75 100.5 109.5t153.5 34.5q102 0 161.5 -43t59.5 -119q0 -55 -24.5 -92t-61.5 -54q-15 -7 -22 -13t-12 -20t-3 -36z" />
    <glyph glyph-name="uni1EC3" unicode="&#x1ec3;" 
d="M680 1137l-66 106l-67 -106h-277l203 286h281l202 -286h-276zM1114 389h-727q52 -143 246 -143q124 0 196 78l246 -142q-150 -211 -446 -211q-257 0 -414 154q-154 154 -154 387q0 230 152 385q153 156 393 156q224 0 371 -156q149 -152 149 -385q0 -64 -12 -123z
M381 618h440q-46 162 -217 162q-177 0 -223 -162zM1053 1343h-199q0 83 18.5 114t65.5 52l1 1q1 0 3.5 1.5t4.5 3t5 3t5.5 2.5t4.5 2.5l2 1.5h1l5 5l4.5 4.5t3 5t1.5 7.5q0 8 -8.5 13.5t-20.5 5.5q-55 0 -78 -52l-172 64q40 75 100 109t154 34q102 0 162 -42.5t60 -118.5
q0 -55 -24.5 -92t-61.5 -54q-15 -7 -22.5 -13t-12 -20.5t-2.5 -36.5z" />
    <glyph glyph-name="uni1EC4" unicode="&#x1ec4;" horiz-adv-x="1085" 
d="M625 1536l-66 106l-67 -106h-277l203 287h280l203 -287h-276zM451 569v-254h573v-315h-901v1434h891v-316h-563v-237h512v-312h-512zM539 1901q-43 28 -58.5 19t-15.5 -62h-211q0 86 20.5 147t54.5 91.5t79 40t94 -3t98 -42.5q44 -27 59 -18.5t15 61.5h211
q0 -107 -31 -175t-81.5 -90.5t-111 -14t-122.5 46.5z" />
    <glyph glyph-name="uni1EC5" unicode="&#x1ec5;" 
d="M680 1137l-66 106l-67 -106h-277l203 286h281l202 -286h-276zM1114 389h-727q52 -143 246 -143q124 0 196 78l246 -142q-150 -211 -446 -211q-257 0 -414 154q-154 154 -154 387q0 230 152 385q153 156 393 156q224 0 371 -156q149 -152 149 -385q0 -64 -12 -123z
M381 618h440q-46 162 -217 162q-177 0 -223 -162zM594 1501q-43 28 -58.5 19t-15.5 -62h-211q0 86 20.5 147t54.5 92t79 40.5t94 -3t98 -42.5q44 -27 59 -18.5t15 61.5h211q0 -86 -20.5 -147.5t-54.5 -92.5t-79 -40t-94 3.5t-98 42.5z" />
    <glyph glyph-name="uni1EC6" unicode="&#x1ec6;" horiz-adv-x="1085" 
d="M625 1536l-66 106l-67 -106h-277l203 287h280l203 -287h-276zM451 569v-254h573v-315h-901v1434h891v-316h-563v-237h512v-312h-512zM676 -442q-54 -51 -127 -51t-129 51q-52 54 -52 125t52 124q56 53 129 53t127 -53t54 -124t-54 -125z" />
    <glyph glyph-name="uni1EC7" unicode="&#x1ec7;" 
d="M680 1137l-66 106l-67 -106h-277l203 286h281l202 -286h-276zM1114 389h-727q52 -143 246 -143q124 0 196 78l246 -142q-150 -211 -446 -211q-257 0 -414 154q-154 154 -154 387q0 230 152 385q153 156 393 156q224 0 371 -156q149 -152 149 -385q0 -64 -12 -123z
M381 618h440q-46 162 -217 162q-177 0 -223 -162zM725 -442q-54 -51 -127.5 -51t-128.5 51q-53 54 -53 125t53 124q55 53 128.5 53t127.5 -53t54 -124t-54 -125z" />
    <glyph glyph-name="uni1EC8" unicode="&#x1ec8;" horiz-adv-x="573" 
d="M395 1536h-215q0 61 11.5 97t28 51t50.5 30l29 15q2 1 6 5l5.5 5.5t3 5.5t1.5 8q0 8 -9 14.5t-21 6.5q-58 0 -84 -56l-185 68q41 81 106 117t167 36q110 0 173.5 -46t63.5 -128q0 -58 -26 -97t-66 -58q-24 -10 -33.5 -25t-5.5 -49zM123 0v1434h328v-1434h-328z" />
    <glyph glyph-name="uni1EC9" unicode="&#x1ec9;" horiz-adv-x="532" 
d="M420 0h-307v1024h307v-1024zM375 1126h-215q0 61 11.5 97t28 51.5t50.5 30.5l29 14q2 2 6 5.5t5.5 5t3 5.5t1.5 8q0 8 -9.5 14.5t-21.5 6.5q-58 0 -84 -55l-184 67q41 81 105.5 117.5t166.5 36.5q110 0 174 -46t64 -128q0 -58 -26 -97.5t-66 -58.5q-24 -10 -33.5 -25
t-5.5 -49z" />
    <glyph glyph-name="uni1ECA" unicode="&#x1eca;" horiz-adv-x="573" 
d="M416 -442q-54 -51 -127 -51t-129 51q-52 54 -52 125t52 124q56 53 129 53t127 -53t54 -124t-54 -125zM123 0v1434h328v-1434h-328z" />
    <glyph glyph-name="uni1ECB" unicode="&#x1ecb;" horiz-adv-x="532" 
d="M395 -442q-54 -51 -127.5 -51t-128.5 51q-53 54 -53 125t53 124q55 53 128.5 53t127.5 -53t54 -124t-54 -125zM395 1165q-54 -51 -127 -51t-129 51q-53 54 -53 125.5t53 124.5q55 53 128.5 53t127.5 -53t54 -124.5t-54 -125.5zM420 0h-307v1024h307v-1024z" />
    <glyph glyph-name="uni1ECC" unicode="&#x1ecc;" horiz-adv-x="1613" 
d="M932 -442q-54 -51 -127 -51t-129 51q-52 54 -52 125t52 124q56 53 129 53t127 -53t54 -124t-54 -125zM1335 186q-218 -215 -528 -215t-528 215t-218 531q0 315 218 530t528 215t528 -215q217 -214 217 -530q0 -317 -217 -531zM508 410q119 -119 299 -119q178 0 297 119
q121 121 121 307t-121 307q-119 119 -297 119q-180 0 -299 -119t-119 -307t119 -307z" />
    <glyph glyph-name="uni1ECD" unicode="&#x1ecd;" horiz-adv-x="1208" 
d="M729 -442q-54 -51 -127.5 -51t-128.5 51q-53 54 -53 125t53 124q56 53 129 53t127 -53t54 -124t-54 -125zM989 127q-156 -156 -385 -156t-385 156q-158 158 -158 385q0 225 158 383t385 158t385 -158t158 -383q0 -227 -158 -385zM436 338q68 -68 168 -68t168 68t68 174
t-68 174t-168 68t-168 -68q-67 -67 -67 -174t67 -174z" />
    <glyph glyph-name="uni1ECE" unicode="&#x1ece;" horiz-adv-x="1613" 
d="M971 1536h-215q0 61 11.5 97t28 51t50.5 30h1q1 1 3.5 2.5l5 3t5.5 3l5 2.5t4 2.5t3 1.5h1q2 2 5 4.5t4.5 4t3.5 4t3 5.5t1 6q0 8 -9.5 14.5t-21.5 6.5q-58 0 -84 -56l-184 68q41 81 105.5 117t166.5 36q110 0 174 -46t64 -128q0 -58 -26 -97t-66 -58q-24 -10 -33.5 -25
t-5.5 -49zM1335 186q-218 -215 -528 -215t-528 215t-218 531q0 315 218 530t528 215t528 -215q217 -214 217 -530q0 -317 -217 -531zM508 410q119 -119 299 -119q178 0 297 119q121 121 121 307t-121 307q-119 119 -297 119q-180 0 -299 -119t-119 -307t119 -307z" />
    <glyph glyph-name="uni1ECF" unicode="&#x1ecf;" horiz-adv-x="1208" 
d="M756 1167h-215q0 61 11.5 97t28 51.5t50.5 30.5h1q1 1 3.5 2.5t5 2.5t5.5 2.5t5 3t4 2.5t3 1h1q2 2 5 4.5t4.5 4t3.5 4t3 5.5t1 6q0 8 -9.5 14.5t-21.5 6.5q-58 0 -84 -55l-184 67q41 81 105.5 117.5t166.5 36.5q110 0 174 -46t64 -128q0 -58 -26 -97.5t-66 -58.5
q-24 -10 -33.5 -25t-5.5 -49zM989 127q-156 -156 -385 -156t-385 156q-158 158 -158 385q0 225 158 383t385 158t385 -158t158 -383q0 -227 -158 -385zM436 338q68 -68 168 -68t168 68t68 174t-68 174t-168 68t-168 -68q-67 -67 -67 -174t67 -174z" />
    <glyph glyph-name="uni1ED0" unicode="&#x1ed0;" horiz-adv-x="1613" 
d="M874 1556l-65 107l-68 -107h-276l203 287h280l203 -287h-277zM279 1247q218 215 528 215t528 -215q217 -214 217 -530q0 -317 -217 -531q-218 -215 -528 -215t-528 215t-218 531q0 315 218 530zM508 410q119 -119 299 -119q178 0 297 119q121 121 121 307t-121 307
q-119 119 -297 119q-180 0 -299 -119t-119 -307t119 -307zM1049 1763l153 267h342l-221 -267h-274z" />
    <glyph glyph-name="uni1ED1" unicode="&#x1ed1;" horiz-adv-x="1208" 
d="M672 1147l-66 106l-67 -106h-277l203 287h280l203 -287h-276zM219 895q158 158 385 158t385 -158t158 -383q0 -227 -158 -385q-156 -156 -385 -156t-385 156q-158 158 -158 385q0 225 158 383zM436 338q68 -68 168 -68t168 68t68 174t-68 174t-168 68t-168 -68
q-67 -67 -67 -174t67 -174zM846 1354l153 266h342l-221 -266h-274z" />
    <glyph glyph-name="uni1ED2" unicode="&#x1ed2;" horiz-adv-x="1613" 
d="M874 1556l-65 107l-68 -107h-276l203 287h280l203 -287h-277zM279 1247q218 215 528 215t528 -215q217 -214 217 -530q0 -317 -217 -531q-218 -215 -528 -215t-528 215t-218 531q0 315 218 530zM508 410q119 -119 299 -119q178 0 297 119q121 121 121 307t-121 307
q-119 119 -297 119q-180 0 -299 -119t-119 -307t119 -307zM1346 1763h-275l-221 267h344z" />
    <glyph glyph-name="uni1ED3" unicode="&#x1ed3;" horiz-adv-x="1208" 
d="M672 1147l-66 106l-67 -106h-277l203 287h280l203 -287h-276zM219 895q158 158 385 158t385 -158t158 -383q0 -227 -158 -385q-156 -156 -385 -156t-385 156q-158 158 -158 385q0 225 158 383zM436 338q68 -68 168 -68t168 68t68 174t-68 174t-168 68t-168 -68
q-67 -67 -67 -174t67 -174zM1143 1354h-275l-221 266h344z" />
    <glyph glyph-name="uni1ED4" unicode="&#x1ed4;" horiz-adv-x="1613" 
d="M874 1556l-65 107l-68 -107h-276l203 287h280l203 -287h-277zM279 1247q218 215 528 215t528 -215q217 -214 217 -530q0 -317 -217 -531q-218 -215 -528 -215t-528 215t-218 531q0 315 218 530zM508 410q119 -119 299 -119q178 0 297 119q121 121 121 307t-121 307
q-119 119 -297 119q-180 0 -299 -119t-119 -307t119 -307zM1247 1763h-198q0 83 18.5 114t65.5 52l1 1q1 0 3.5 1.5t4.5 3t4.5 3t5 2.5t4.5 2.5l2 1.5h1l5 5t5 4.5t3.5 5t1.5 7.5q0 8 -8.5 13.5t-20.5 5.5q-55 0 -78 -52l-172 64q40 75 100 109t154 34q102 0 161.5 -43
t59.5 -119q0 -55 -24.5 -91.5t-61.5 -53.5q-15 -7 -22.5 -13t-12 -20.5t-2.5 -36.5z" />
    <glyph glyph-name="uni1ED5" unicode="&#x1ed5;" horiz-adv-x="1208" 
d="M672 1147l-66 106l-67 -106h-277l203 287h280l203 -287h-276zM219 895q158 158 385 158t385 -158t158 -383q0 -227 -158 -385q-156 -156 -385 -156t-385 156q-158 158 -158 385q0 225 158 383zM436 338q68 -68 168 -68t168 68t68 174t-68 174t-168 68t-168 -68
q-67 -67 -67 -174t67 -174zM1044 1354h-198q0 83 18.5 114t65.5 52h1q1 1 3.5 2.5t4.5 2.5t4.5 2.5l5 3t4.5 2.5t3 1l5 5t5 4.5t3.5 5t1.5 7.5q0 8 -8.5 13.5t-20.5 5.5q-56 0 -78 -51l-172 63q40 75 100.5 109.5t153.5 34.5q102 0 161.5 -43t59.5 -119q0 -55 -24.5 -92
t-61.5 -54q-15 -7 -22 -13t-12 -20t-3 -36z" />
    <glyph glyph-name="uni1ED6" unicode="&#x1ed6;" horiz-adv-x="1613" 
d="M874 1556l-65 107l-68 -107h-276l203 287h280l203 -287h-277zM279 1247q218 215 528 215t528 -215q217 -214 217 -530q0 -317 -217 -531q-218 -215 -528 -215t-528 215t-218 531q0 315 218 530zM508 410q119 -119 299 -119q178 0 297 119q121 121 121 307t-121 307
q-119 119 -297 119q-180 0 -299 -119t-119 -307t119 -307zM788 1921q-43 28 -58 19t-15 -62h-211q0 86 20.5 147t54.5 91.5t79 40t94 -3t98 -42.5q44 -27 59 -18.5t15 61.5h211q0 -86 -20.5 -147.5t-55 -92t-79.5 -40t-94 3.5t-98 43z" />
    <glyph glyph-name="uni1ED7" unicode="&#x1ed7;" horiz-adv-x="1208" 
d="M672 1147l-66 106l-67 -106h-277l203 287h280l203 -287h-276zM219 895q158 158 385 158t385 -158t158 -383q0 -227 -158 -385q-156 -156 -385 -156t-385 156q-158 158 -158 385q0 225 158 383zM436 338q68 -68 168 -68t168 68t68 174t-68 174t-168 68t-168 -68
q-67 -67 -67 -174t67 -174zM586 1511q-43 28 -58.5 19t-15.5 -62h-211q0 86 20.5 147t54.5 92t79 40.5t94 -3t98 -42.5q44 -27 59 -18.5t15 61.5h211q0 -86 -20.5 -147.5t-54.5 -92.5t-79 -40t-94 3.5t-98 42.5z" />
    <glyph glyph-name="uni1ED8" unicode="&#x1ed8;" horiz-adv-x="1613" 
d="M874 1556l-65 107l-68 -107h-276l203 287h280l203 -287h-277zM279 1247q218 215 528 215t528 -215q217 -214 217 -530q0 -317 -217 -531q-218 -215 -528 -215t-528 215t-218 531q0 315 218 530zM508 410q119 -119 299 -119q178 0 297 119q121 121 121 307t-121 307
q-119 119 -297 119q-180 0 -299 -119t-119 -307t119 -307zM932 -442q-54 -51 -127 -51t-129 51q-52 54 -52 125t52 124q56 53 129 53t127 -53t54 -124t-54 -125z" />
    <glyph glyph-name="uni1ED9" unicode="&#x1ed9;" horiz-adv-x="1208" 
d="M672 1147l-66 106l-67 -106h-277l203 287h280l203 -287h-276zM219 895q158 158 385 158t385 -158t158 -383q0 -227 -158 -385q-156 -156 -385 -156t-385 156q-158 158 -158 385q0 225 158 383zM436 338q68 -68 168 -68t168 68t68 174t-68 174t-168 68t-168 -68
q-67 -67 -67 -174t67 -174zM729 -442q-54 -51 -127.5 -51t-128.5 51q-53 54 -53 125t53 124q56 53 129 53t127 -53t54 -124t-54 -125z" />
    <glyph glyph-name="uni1EDA" unicode="&#x1eda;" horiz-adv-x="1613" 
d="M692 1577l164 287h369l-238 -287h-295zM1335 186q-218 -215 -528 -215t-528 215t-218 531q0 315 218 530t528 215q107 0 213 -28h145q64 0 84.5 27.5t20.5 99.5v24h239v-24q0 -64 -6.5 -109t-24.5 -88t-54 -72t-91 -45h2q217 -214 217 -530q0 -317 -217 -531zM508 410
q119 -119 299 -119q178 0 297 119q121 121 121 307t-121 307q-119 119 -297 119q-180 0 -299 -119t-119 -307t119 -307z" />
    <glyph glyph-name="uni1EDB" unicode="&#x1edb;" horiz-adv-x="1208" 
d="M467 1167l164 287h368l-237 -287h-295zM989 127q-156 -156 -385 -156t-385 156q-158 158 -158 385q0 225 158 383t385 158q91 0 180 -29h68q64 0 84 27.5t20 99.5v25h240v-25q0 -124 -33.5 -199t-128.5 -108q113 -144 113 -332q0 -227 -158 -385zM436 338q68 -68 168 -68
t168 68t68 174t-68 174t-168 68t-168 -68q-67 -67 -67 -174t67 -174z" />
    <glyph glyph-name="uni1EDC" unicode="&#x1edc;" horiz-adv-x="1613" 
d="M1040 1577h-295l-237 287h369zM1335 186q-218 -215 -528 -215t-528 215t-218 531q0 315 218 530t528 215q107 0 213 -28h145q64 0 84.5 27.5t20.5 99.5v24h239v-24q0 -64 -6.5 -109t-24.5 -88t-54 -72t-91 -45h2q217 -214 217 -530q0 -317 -217 -531zM508 410
q119 -119 299 -119q178 0 297 119q121 121 121 307t-121 307q-119 119 -297 119q-180 0 -299 -119t-119 -307t119 -307z" />
    <glyph glyph-name="uni1EDD" unicode="&#x1edd;" horiz-adv-x="1208" 
d="M813 1167h-295l-237 287h368zM989 127q-156 -156 -385 -156t-385 156q-158 158 -158 385q0 225 158 383t385 158q91 0 180 -29h68q64 0 84 27.5t20 99.5v25h240v-25q0 -124 -33.5 -199t-128.5 -108q113 -144 113 -332q0 -227 -158 -385zM436 338q68 -68 168 -68t168 68
t68 174t-68 174t-168 68t-168 -68q-67 -67 -67 -174t67 -174z" />
    <glyph glyph-name="uni1EDE" unicode="&#x1ede;" horiz-adv-x="1613" 
d="M971 1536h-215q0 61 11.5 97t28 51t50.5 30h1q1 1 3.5 2.5l5 3t5.5 3l5 2.5t4 2.5t3 1.5h1q2 2 5 4.5t4.5 4t3.5 4t3 5.5t1 6q0 8 -9.5 14.5t-21.5 6.5q-58 0 -84 -56l-184 68q41 81 105.5 117t166.5 36q110 0 174 -46t64 -128q0 -58 -26 -97t-66 -58q-24 -10 -33.5 -25
t-5.5 -49zM1335 186q-218 -215 -528 -215t-528 215t-218 531q0 315 218 530t528 215q107 0 213 -28h145q64 0 84.5 27.5t20.5 99.5v24h239v-24q0 -64 -6.5 -109t-24.5 -88t-54 -72t-91 -45h2q217 -214 217 -530q0 -317 -217 -531zM508 410q119 -119 299 -119q178 0 297 119
q121 121 121 307t-121 307q-119 119 -297 119q-180 0 -299 -119t-119 -307t119 -307z" />
    <glyph glyph-name="uni1EDF" unicode="&#x1edf;" horiz-adv-x="1208" 
d="M756 1167h-215q0 61 11.5 97t28 51.5t50.5 30.5h1q1 1 3.5 2.5t5 2.5t5.5 2.5t5 3t4 2.5t3 1h1q2 2 5 4.5t4.5 4t3.5 4t3 5.5t1 6q0 8 -9.5 14.5t-21.5 6.5q-58 0 -84 -55l-184 67q41 81 105.5 117.5t166.5 36.5q110 0 174 -46t64 -128q0 -58 -26 -97.5t-66 -58.5
q-24 -10 -33.5 -25t-5.5 -49zM989 127q-156 -156 -385 -156t-385 156q-158 158 -158 385q0 225 158 383t385 158q91 0 180 -29h68q64 0 84 27.5t20 99.5v25h240v-25q0 -124 -33.5 -199t-128.5 -108q113 -144 113 -332q0 -227 -158 -385zM436 338q68 -68 168 -68t168 68
t68 174t-68 174t-168 68t-168 -68q-67 -67 -67 -174t67 -174z" />
    <glyph glyph-name="uni1EE0" unicode="&#x1ee0;" horiz-adv-x="1613" 
d="M791 1610q-47 31 -64.5 21t-17.5 -68h-234q0 95 22.5 163t60.5 102t87 44.5t103 -3.5t108 -48q51 -30 66.5 -21t15.5 68h233q0 -95 -22.5 -163t-60 -102t-87 -44.5t-103 3.5t-107.5 48zM1335 186q-218 -215 -528 -215t-528 215t-218 531q0 315 218 530t528 215
q107 0 213 -28h145q64 0 84.5 27.5t20.5 99.5v24h239v-24q0 -64 -6.5 -109t-24.5 -88t-54 -72t-91 -45h2q217 -214 217 -530q0 -317 -217 -531zM508 410q119 -119 299 -119q178 0 297 119q121 121 121 307t-121 307q-119 119 -297 119q-180 0 -299 -119t-119 -307t119 -307z
" />
    <glyph glyph-name="uni1EE1" unicode="&#x1ee1;" horiz-adv-x="1208" 
d="M602 1200q-47 31 -64.5 21t-17.5 -68h-233q0 95 22.5 163t60.5 102t87 44.5t103 -3.5t108 -48q51 -30 66.5 -21t15.5 68h233q0 -95 -22.5 -163t-60.5 -102t-87 -44.5t-103 3.5t-108 48zM989 127q-156 -156 -385 -156t-385 156q-158 158 -158 385q0 225 158 383t385 158
q91 0 180 -29h68q64 0 84 27.5t20 99.5v25h240v-25q0 -124 -33.5 -199t-128.5 -108q113 -144 113 -332q0 -227 -158 -385zM436 338q68 -68 168 -68t168 68t68 174t-68 174t-168 68t-168 -68q-67 -67 -67 -174t67 -174z" />
    <glyph glyph-name="uni1EE2" unicode="&#x1ee2;" horiz-adv-x="1613" 
d="M932 -442q-54 -51 -127 -51t-129 51q-52 54 -52 125t52 124q56 53 129 53t127 -53t54 -124t-54 -125zM1335 186q-218 -215 -528 -215t-528 215t-218 531q0 315 218 530t528 215q107 0 213 -28h145q64 0 84.5 27.5t20.5 99.5v24h239v-24q0 -64 -6.5 -109t-24.5 -88
t-54 -72t-91 -45h2q217 -214 217 -530q0 -317 -217 -531zM508 410q119 -119 299 -119q178 0 297 119q121 121 121 307t-121 307q-119 119 -297 119q-180 0 -299 -119t-119 -307t119 -307z" />
    <glyph glyph-name="uni1EE3" unicode="&#x1ee3;" horiz-adv-x="1208" 
d="M729 -442q-54 -51 -127.5 -51t-128.5 51q-53 54 -53 125t53 124q56 53 129 53t127 -53t54 -124t-54 -125zM989 127q-156 -156 -385 -156t-385 156q-158 158 -158 385q0 225 158 383t385 158q91 0 180 -29h68q64 0 84 27.5t20 99.5v25h240v-25q0 -124 -33.5 -199
t-128.5 -108q113 -144 113 -332q0 -227 -158 -385zM436 338q68 -68 168 -68t168 68t68 174t-68 174t-168 68t-168 -68q-67 -67 -67 -174t67 -174z" />
    <glyph glyph-name="uni1EE4" unicode="&#x1ee4;" horiz-adv-x="1331" 
d="M113 463v971h327v-942q0 -201 226 -201q225 0 225 201v942h328v-971q0 -227 -156 -359q-157 -133 -397 -133q-241 0 -398 133q-155 131 -155 359zM793 -442q-54 -51 -127.5 -51t-128.5 51q-53 54 -53 125t53 124q55 53 128.5 53t127.5 -53t54 -124t-54 -125z" />
    <glyph glyph-name="uni1EE5" unicode="&#x1ee5;" horiz-adv-x="1193" 
d="M694 -442q-54 -51 -127 -51t-129 51q-52 54 -52 125t52 124q56 53 129 53t127 -53t54 -124t-54 -125zM774 465v559h307v-1024h-307v96q-91 -125 -293 -125q-164 0 -274 113q-109 115 -109 311v629h308v-584q0 -89 49 -137.5t129 -48.5q89 0 139.5 54t50.5 157z" />
    <glyph glyph-name="uni1EE6" unicode="&#x1ee6;" horiz-adv-x="1331" 
d="M780 1536h-215q0 61 11.5 97t28 51t50.5 30l29 15q1 1 5.5 5t6 5.5t3 5.5t1.5 8q0 8 -9 14.5t-21 6.5q-58 0 -84 -56l-185 68q41 81 106 117t167 36q110 0 173.5 -46t63.5 -128q0 -58 -26 -97t-66 -58q-24 -10 -33.5 -25t-5.5 -49zM113 463v971h327v-942q0 -201 226 -201
q225 0 225 201v942h328v-971q0 -227 -156 -359q-157 -133 -397 -133q-241 0 -398 133q-155 131 -155 359z" />
    <glyph glyph-name="uni1EE7" unicode="&#x1ee7;" horiz-adv-x="1193" 
d="M709 1126h-215q0 61 11.5 97t28 51.5t50.5 30.5l1 1q1 0 3.5 1.5t5 2.5t5.5 2.5t5 3t4 2.5t3 1h1q2 2 5 4.5t4.5 4t3.5 4t3 5.5t1 6q0 8 -9.5 14.5t-21.5 6.5q-58 0 -84 -55l-184 67q41 81 105.5 117.5t166.5 36.5q110 0 174 -46t64 -128q0 -58 -26 -97.5t-66 -58.5
q-24 -10 -33.5 -25t-5.5 -49zM774 465v559h307v-1024h-307v96q-91 -125 -293 -125q-164 0 -274 113q-109 115 -109 311v629h308v-584q0 -89 49 -137.5t129 -48.5q89 0 139.5 54t50.5 157z" />
    <glyph glyph-name="uni1EE8" unicode="&#x1ee8;" horiz-adv-x="1331" 
d="M512 1556l164 287h368l-237 -287h-295zM113 463v971h327v-942q0 -201 226 -201q225 0 225 201v942h201q64 0 84 27.5t20 99.5v24h240v-24q0 -68 -8 -116.5t-30.5 -92.5t-66.5 -72t-112 -41v-776q0 -227 -156 -359q-157 -133 -397 -133q-241 0 -398 133q-155 131 -155 359
z" />
    <glyph glyph-name="uni1EE9" unicode="&#x1ee9;" horiz-adv-x="1228" 
d="M598 1434h369l-238 -287h-295zM774 465v559h189q57 1 74.5 29.5t17.5 97.5v25h239v-25q0 -54 -4.5 -93.5t-17.5 -79.5t-36 -67.5t-62 -49t-93 -32.5v-829h-307v96q-91 -125 -293 -125q-164 0 -274 113q-109 115 -109 311v629h308v-584q0 -89 49 -137.5t129 -48.5
q89 0 139.5 54t50.5 157z" />
    <glyph glyph-name="uni1EEA" unicode="&#x1eea;" horiz-adv-x="1331" 
d="M850 1556h-295l-238 287h369zM113 463v971h327v-942q0 -201 226 -201q225 0 225 201v942h201q64 0 84 27.5t20 99.5v24h240v-24q0 -68 -8 -116.5t-30.5 -92.5t-66.5 -72t-112 -41v-776q0 -227 -156 -359q-157 -133 -397 -133q-241 0 -398 133q-155 131 -155 359z" />
    <glyph glyph-name="uni1EEB" unicode="&#x1eeb;" horiz-adv-x="1228" 
d="M610 1434l164 -287h-295l-237 287h368zM774 465v559h189q57 1 74.5 29.5t17.5 97.5v25h239v-25q0 -54 -4.5 -93.5t-17.5 -79.5t-36 -67.5t-62 -49t-93 -32.5v-829h-307v96q-91 -125 -293 -125q-164 0 -274 113q-109 115 -109 311v629h308v-584q0 -89 49 -137.5t129 -48.5
q89 0 139.5 54t50.5 157z" />
    <glyph glyph-name="uni1EEC" unicode="&#x1eec;" horiz-adv-x="1331" 
d="M780 1536h-215q0 61 11.5 97t28 51t50.5 30l29 15q1 1 5.5 5t6 5.5t3 5.5t1.5 8q0 8 -9 14.5t-21 6.5q-58 0 -84 -56l-185 68q41 81 106 117t167 36q110 0 173.5 -46t63.5 -128q0 -58 -26 -97t-66 -58q-24 -10 -33.5 -25t-5.5 -49zM113 463v971h327v-942q0 -201 226 -201
q225 0 225 201v942h201q64 0 84 27.5t20 99.5v24h240v-24q0 -68 -8 -116.5t-30.5 -92.5t-66.5 -72t-112 -41v-776q0 -227 -156 -359q-157 -133 -397 -133q-241 0 -398 133q-155 131 -155 359z" />
    <glyph glyph-name="uni1EED" unicode="&#x1eed;" horiz-adv-x="1228" 
d="M709 1126h-215q0 61 11.5 97t28 51.5t50.5 30.5l1 1q1 0 3.5 1.5t5 2.5t5.5 2.5t5 3t4 2.5t3 1h1q2 2 5 4.5t4.5 4t3.5 4t3 5.5t1 6q0 8 -9.5 14.5t-21.5 6.5q-58 0 -84 -55l-184 67q41 81 105.5 117.5t166.5 36.5q110 0 174 -46t64 -128q0 -58 -26 -97.5t-66 -58.5
q-24 -10 -33.5 -25t-5.5 -49zM774 465v559h189q57 1 74.5 29.5t17.5 97.5v25h239v-25q0 -54 -4.5 -93.5t-17.5 -79.5t-36 -67.5t-62 -49t-93 -32.5v-829h-307v96q-91 -125 -293 -125q-164 0 -274 113q-109 115 -109 311v629h308v-584q0 -89 49 -137.5t129 -48.5
q89 0 139.5 54t50.5 157z" />
    <glyph glyph-name="uni1EEE" unicode="&#x1eee;" horiz-adv-x="1331" 
d="M635 1589q-47 31 -64.5 21t-17.5 -68h-234q0 95 22.5 163t60.5 102t87 44.5t103 -3.5t108 -48q51 -30 66.5 -21t15.5 68h234q0 -95 -22.5 -163t-60.5 -102t-87 -44.5t-103 3.5t-108 48zM113 463v971h327v-942q0 -201 226 -201q225 0 225 201v942h201q64 0 84 27.5
t20 99.5v24h240v-24q0 -68 -8 -116.5t-30.5 -92.5t-66.5 -72t-112 -41v-776q0 -227 -156 -359q-157 -133 -397 -133q-241 0 -398 133q-155 131 -155 359z" />
    <glyph glyph-name="uni1EEF" unicode="&#x1eef;" horiz-adv-x="1228" 
d="M555 1180q-47 31 -64.5 21t-17.5 -68h-233q0 95 22.5 163t60.5 102t87 44.5t103 -3.5t108 -48q51 -30 66 -21t15 68h234q0 -95 -22.5 -163t-60.5 -102t-87 -44.5t-103 3.5t-108 48zM774 465v559h189q57 1 74.5 29.5t17.5 97.5v25h239v-25q0 -54 -4.5 -93.5t-17.5 -79.5
t-36 -67.5t-62 -49t-93 -32.5v-829h-307v96q-91 -125 -293 -125q-164 0 -274 113q-109 115 -109 311v629h308v-584q0 -89 49 -137.5t129 -48.5q89 0 139.5 54t50.5 157z" />
    <glyph glyph-name="uni1EF0" unicode="&#x1ef0;" horiz-adv-x="1331" 
d="M793 -442q-54 -51 -127.5 -51t-128.5 51q-53 54 -53 125t53 124q55 53 128.5 53t127.5 -53t54 -124t-54 -125zM113 463v971h327v-942q0 -201 226 -201q225 0 225 201v942h201q64 0 84 27.5t20 99.5v24h240v-24q0 -68 -8 -116.5t-30.5 -92.5t-66.5 -72t-112 -41v-776
q0 -227 -156 -359q-157 -133 -397 -133q-241 0 -398 133q-155 131 -155 359z" />
    <glyph glyph-name="uni1EF1" unicode="&#x1ef1;" horiz-adv-x="1228" 
d="M694 -442q-54 -51 -127 -51t-129 51q-52 54 -52 125t52 124q56 53 129 53t127 -53t54 -124t-54 -125zM774 465v559h189q57 1 74.5 29.5t17.5 97.5v25h239v-25q0 -54 -4.5 -93.5t-17.5 -79.5t-36 -67.5t-62 -49t-93 -32.5v-829h-307v96q-91 -125 -293 -125
q-164 0 -274 113q-109 115 -109 311v629h308v-584q0 -89 49 -137.5t129 -48.5q89 0 139.5 54t50.5 157z" />
    <glyph glyph-name="Ygrave" unicode="&#x1ef2;" horiz-adv-x="1290" 
d="M655 1843l164 -287h-295l-237 287h368zM918 1434h372l-481 -883v-551h-328v551l-481 883h373l272 -553z" />
    <glyph glyph-name="ygrave" unicode="&#x1ef3;" horiz-adv-x="1085" 
d="M557 1434l164 -287h-295l-238 287h369zM565 397l193 627h327l-350 -993q-86 -241 -226 -346.5t-357 -94.5v287q106 0 163.5 38t92.5 132l-408 977h338z" />
    <glyph glyph-name="uni1EF4" unicode="&#x1ef4;" horiz-adv-x="1290" 
d="M776 -442q-54 -51 -127 -51t-129 51q-52 54 -52 125t52 124q56 53 129 53t127 -53t54 -124t-54 -125zM918 1434h372l-481 -883v-551h-328v551l-481 883h373l272 -553z" />
    <glyph glyph-name="uni1EF5" unicode="&#x1ef5;" horiz-adv-x="1085" 
d="M1030 -442q-54 -51 -127.5 -51t-128.5 51q-52 54 -52 125t52 124q56 53 129 53t127 -53t54 -124t-54 -125zM565 397l193 627h327l-350 -993q-86 -241 -226 -346.5t-357 -94.5v287q106 0 163.5 38t92.5 132l-408 977h338z" />
    <glyph glyph-name="uni1EF6" unicode="&#x1ef6;" horiz-adv-x="1290" 
d="M754 1536h-215q0 61 11.5 97t28 51t50.5 30h1q1 1 3.5 2.5l5 3t5.5 3l5 2.5t4 2.5t3 1.5h1q2 2 5 4.5t4.5 4t3.5 4t3 5.5t1 6q0 8 -9.5 14.5t-21.5 6.5q-58 0 -84 -56l-184 68q41 81 105.5 117t166.5 36q110 0 174 -46t64 -128q0 -58 -26 -97t-66 -58q-24 -10 -33.5 -25
t-5.5 -49zM918 1434h372l-481 -883v-551h-328v551l-481 883h373l272 -553z" />
    <glyph glyph-name="uni1EF7" unicode="&#x1ef7;" horiz-adv-x="1085" 
d="M666 1126h-215q0 61 11.5 97t28 51.5t50.5 30.5l1 1q1 0 3.5 1.5t5 2.5t5.5 2.5t5 3t4 2.5t3 1h1q2 2 5 4.5t4.5 4t3.5 4t3 5.5t1 6q0 8 -9.5 14.5t-21.5 6.5q-58 0 -84 -55l-184 67q41 81 105.5 117.5t166.5 36.5q110 0 174 -46t64 -128q0 -58 -26 -97.5t-66 -58.5
q-24 -10 -33.5 -25t-5.5 -49zM565 397l193 627h327l-350 -993q-86 -241 -226 -346.5t-357 -94.5v287q106 0 163.5 38t92.5 132l-408 977h338z" />
    <glyph glyph-name="uni1EF8" unicode="&#x1ef8;" horiz-adv-x="1290" 
d="M606 1589q-47 31 -64.5 21t-17.5 -68h-233q0 95 22.5 163t60.5 102t87 44.5t103 -3.5t108 -48q51 -30 66.5 -21t15.5 68h233q0 -95 -22.5 -163t-60.5 -102t-87 -44.5t-103 3.5t-108 48zM918 1434h372l-481 -883v-551h-328v551l-481 883h373l272 -553z" />
    <glyph glyph-name="uni1EF9" unicode="&#x1ef9;" horiz-adv-x="1085" 
d="M541 1180q-47 31 -64.5 21t-17.5 -68h-234q0 95 22.5 163t60.5 102t87 44.5t103 -3.5t108 -48q51 -30 66.5 -21t15.5 68h234q0 -95 -22.5 -163t-60.5 -102t-87 -44.5t-103 3.5t-108 48zM565 397l193 627h327l-350 -993q-86 -241 -226 -346.5t-357 -94.5v287
q106 0 163.5 38t92.5 132l-408 977h338z" />
    <glyph glyph-name="endash" unicode="&#x2013;" horiz-adv-x="1310" 
d="M1188 465h-1065v295h1065v-295z" />
    <glyph glyph-name="emdash" unicode="&#x2014;" horiz-adv-x="1515" 
d="M1393 465h-1270v295h1270v-295z" />
    <glyph glyph-name="quoteleft" unicode="&#x2018;" horiz-adv-x="593" 
d="M420 829h-328l164 605h246z" />
    <glyph glyph-name="quoteright" unicode="&#x2019;" horiz-adv-x="593" 
d="M174 1434h328l-164 -605h-246z" />
    <glyph glyph-name="quotesinglbase" unicode="&#x201a;" horiz-adv-x="593" 
d="M174 317h328l-164 -604h-246z" />
    <glyph glyph-name="quotedblleft" unicode="&#x201c;" horiz-adv-x="1003" 
d="M420 829h-328l164 605h246zM829 829h-327l164 605h245z" />
    <glyph glyph-name="quotedblright" unicode="&#x201d;" horiz-adv-x="1003" 
d="M174 1434h328l-164 -605h-246zM584 1434h327l-163 -605h-246z" />
    <glyph glyph-name="quotedblbase" unicode="&#x201e;" horiz-adv-x="1003" 
d="M174 317h328l-164 -604h-246zM584 317h327l-163 -604h-246z" />
    <glyph glyph-name="dagger" unicode="&#x2020;" horiz-adv-x="983" 
d="M645 1178h256v-295h-256v-883h-307v883h-256v295h256v256h307v-256z" />
    <glyph glyph-name="daggerdbl" unicode="&#x2021;" horiz-adv-x="983" 
d="M901 1178v-295h-256v-332h256v-295h-256v-256h-307v256h-256v295h256v332h-256v295h256v256h307v-256h256z" />
    <glyph glyph-name="bullet" unicode="&#x2022;" horiz-adv-x="778" 
d="M393 410q-128 0 -221 90q-90 93 -90 221q0 123 90 213q93 90 221 90q127 0 215 -88t88 -215q0 -128 -90 -221q-90 -90 -213 -90z" />
    <glyph glyph-name="ellipsis" unicode="&#x2026;" horiz-adv-x="1556" 
d="M424 29q-57 -57 -137 -57t-137 57t-57 137t57 137t137 57t137 -57t57 -137t-57 -137zM915 29q-57 -57 -137 -57t-137 57t-57 137t57 137t137 57t137 -57t57 -137t-57 -137zM1407 29q-57 -57 -137 -57t-137 57t-57 137t57 137t137 57t137 -57t57 -137t-57 -137z" />
    <glyph glyph-name="perthousand" unicode="&#x2030;" horiz-adv-x="2383" 
d="M793 1114q0 -145 -103 -248q-100 -100 -252 -100q-154 0 -254 100q-102 102 -102 248q0 144 102 246t254 102t252 -100q103 -100 103 -248zM387 145l-135 80l926 1024l135 -78zM547 1114q0 50 -31 81.5t-80 31.5q-35 0 -62.5 -20.5t-38.5 -49.5t-6 -63.5t29 -59.5
q22 -27 56.5 -31.5t64.5 8.5t50.5 41t17.5 62zM1421 76q-101 -101 -252 -101q-153 0 -254 101q-102 102 -102 248q0 143 102 245q103 103 254 103q149 0 252 -103t103 -245q0 -145 -103 -248zM2200 76q-101 -101 -252 -101q-153 0 -254 101q-103 103 -103 248q0 142 103 245
t254 103q149 0 252 -103q102 -102 102 -245q0 -146 -102 -248zM1278 324q0 50 -31 81t-80 31q-35 0 -62 -20.5t-38.5 -49.5t-6 -63t29.5 -59q22 -27 56 -31.5t64 8.5t50.5 41t17.5 62zM2056 324q0 50 -30.5 81t-79.5 31q-35 0 -62.5 -20.5t-38.5 -49.5t-6 -63t29 -59
q22 -27 56 -31.5t64 8.5t50.5 41t17.5 62z" />
    <glyph glyph-name="guilsinglleft" unicode="&#x2039;" horiz-adv-x="741" 
d="M348 1022h270l-225 -389l225 -389h-270l-225 389z" />
    <glyph glyph-name="guilsinglright" unicode="&#x203a;" horiz-adv-x="741" 
d="M123 1022h270l225 -389l-225 -389h-270l225 389z" />
    <glyph glyph-name="fraction" unicode="&#x2044;" horiz-adv-x="368" 
d="M696 1434l-819 -1434h-205l820 1434h204z" />
    <glyph glyph-name="Euro" unicode="&#x20ac;" horiz-adv-x="1261" 
d="M948 451l273 -156q-151 -324 -484 -324q-229 0 -377 146t-190 403h-139v172h123v25v41h-123v172h141q45 249 193 390.5t372 141.5q320 0 473 -305l-272 -158q-38 75 -86 109.5t-115 34.5q-180 0 -233 -213h387v-172h-410v-41v-25h410v-172h-391q52 -229 237 -229
q72 0 121 37.5t90 122.5z" />
    <glyph glyph-name="uni20BD" unicode="&#x20bd;" horiz-adv-x="1239" 
d="M707 471h-215v-84h430v-201h-430v-186h-328v186h-144v201h144v84h-144v287h144v676h543q212 0 356 -144q145 -145 145 -348q0 -202 -145 -338q-145 -133 -356 -133zM707 1126h-215v-368h215q75 0 124.5 53t49.5 131t-49.5 131t-124.5 53z" />
    <glyph glyph-name="uni2116" unicode="&#x2116;" horiz-adv-x="2142" 
d="M1726 766q-153 0 -253 100q-101 101 -101 248q0 145 101 246q102 102 253 102q150 0 252 -102q103 -103 103 -246q0 -147 -101 -248q-100 -100 -254 -100zM922 655v779h327v-1434h-245l-553 778v-778h-328v1434h246zM1827 1114q0 44 -28.5 73.5t-72.5 29.5t-72 -29
t-28 -74q-6 -63 47.5 -89.5t106.5 0t47 89.5zM2060 377h-659v287h659v-287z" />
    <glyph glyph-name="trademark" unicode="&#x2122;" horiz-adv-x="974" 
d="M61 1434h363v-127h-113v-283h-137v283h-113v127zM688 1292l94 142h131v-410h-131v205l-88 -131h-12l-88 131v-205h-131v410h131z" />
    <glyph glyph-name="estimated" unicode="&#x212e;" horiz-adv-x="1597" 
d="M1556 717q0 -31 -30 -31h-1147q-31 0 -31 -31v-393q0 -25 14 -39q173 -182 478 -182q298 0 473 199q15 18 37 18h75q20 0 26.5 -13t-7.5 -26q-224 -239 -604 -239q-364 0 -580 210q-219 213 -219 527q0 313 211 524q213 213 547 213q331 0 544 -213t213 -524zM1249 778
v393q0 25 -14 39q-174 183 -436 183q-263 0 -437 -183q-14 -14 -14 -39v-393q0 -30 31 -30h840q30 0 30 30z" />
    <glyph glyph-name="oneeighth" unicode="&#x215b;" horiz-adv-x="1654" 
d="M469 1434v-820h-250v572l-162 -45l-57 202l250 91h219zM233 0l820 1434h204l-819 -1434h-205zM1499 430q115 -71 115 -205q0 -118 -85 -186t-237 -68t-236.5 68t-84.5 186q0 135 114 205q-86 65 -86 168q0 114 81 182t212 68t212 -68t81 -182q0 -103 -86 -168zM1292 641
q-84 0 -84 -68q0 -65 84 -65q36 0 60 17.5t24 47.5q0 31 -24 49.5t-60 18.5zM1380 260q7 48 -40.5 68t-95 0t-40.5 -68q-7 -49 40.5 -69.5t95 0t40.5 69.5z" />
    <glyph glyph-name="threeeighths" unicode="&#x215c;" horiz-adv-x="1802" 
d="M664 864q0 -134 -84.5 -206t-239.5 -72q-248 0 -330 184l211 123q30 -92 119 -92q72 0 72 63q0 62 -82 62h-49l-86 127l127 155h-273v226h576v-174l-138 -162q177 -59 177 -234zM381 0l819 1434h205l-819 -1434h-205zM1647 430q114 -70 114 -205q0 -118 -84.5 -186
t-236.5 -68t-237 68t-85 186q0 134 115 205q-86 65 -86 168q0 114 81 182t212 68t212 -68t81 -182q0 -103 -86 -168zM1440 641q-84 0 -84 -68q0 -65 84 -65q36 0 60 17.5t24 47.5q0 32 -23 50t-61 18zM1528 260q7 48 -40.5 68t-95 0t-40.5 -68q-7 -49 40.5 -69.5t95 0
t40.5 69.5z" />
    <glyph glyph-name="fiveeighths" unicode="&#x215d;" horiz-adv-x="1773" 
d="M653 854q0 -128 -83 -198t-220 -70q-248 0 -330 184l205 117q30 -92 117 -92q84 0 84 65q0 66 -84 66h-266l35 508h499v-226h-291l-6 -84h47q139 0 216 -67t77 -203zM352 0l819 1434h205l-819 -1434h-205zM1618 430q115 -71 115 -205q0 -118 -85 -186t-237 -68t-236.5 68
t-84.5 186q0 135 114 205q-86 65 -86 168q0 114 81 182t212 68t212 -68t81 -182q0 -103 -86 -168zM1411 641q-84 0 -84 -68q0 -65 84 -65q36 0 60 17.5t24 47.5q0 31 -24 49.5t-60 18.5zM1499 260q7 48 -40.5 68t-95 0t-40.5 -68q-7 -49 40.5 -69.5t95 0t40.5 69.5z" />
    <glyph glyph-name="seveneighths" unicode="&#x215e;" horiz-adv-x="1697" 
d="M573 1243l-243 -629h-258l231 594h-303v226h573v-191zM276 0l820 1434h204l-819 -1434h-205zM1542 430q115 -71 115 -205q0 -118 -85 -186t-237 -68t-236.5 68t-84.5 186q0 135 114 205q-86 65 -86 168q0 114 81 182t212 68t212 -68t81 -182q0 -103 -86 -168zM1335 641
q-84 0 -84 -68q0 -65 84 -65q36 0 60 17.5t24 47.5q0 32 -23 50t-61 18zM1423 260q7 48 -40.5 68t-95 0t-40.5 -68q-7 -49 40.5 -69.5t95 0t40.5 69.5z" />
    <glyph glyph-name="arrowleft" unicode="&#x2190;" horiz-adv-x="1617" 
d="M635 864h901v-295h-901l467 -467h-406l-614 615l614 614h406z" />
    <glyph glyph-name="arrowup" unicode="&#x2191;" horiz-adv-x="1392" 
d="M696 1434l615 -615v-405l-461 460v-874h-307v874l-461 -460v405z" />
    <glyph glyph-name="arrowright" unicode="&#x2192;" horiz-adv-x="1617" 
d="M516 1331h406l614 -614l-614 -615h-406l467 467h-901v295h901z" />
    <glyph glyph-name="arrowdown" unicode="&#x2193;" horiz-adv-x="1392" 
d="M850 1434v-875l461 461v-406l-615 -614l-614 614v406l461 -461v875h307z" />
    <glyph glyph-name="arrowboth" unicode="&#x2194;" horiz-adv-x="2252" 
d="M1200 1290h397l574 -573l-574 -574h-397l420 426h-993l426 -426h-398l-573 574l573 573h398l-426 -426h999z" />
    <glyph glyph-name="arrowupdn" unicode="&#x2195;" horiz-adv-x="1310" 
d="M1229 1188v-397l-420 419v-987l420 420v-397l-574 -574l-573 574v397l420 -420v987l-420 -419v397l573 573z" />
    <glyph glyph-name="uni2196" unicode="&#x2196;" horiz-adv-x="1320" 
d="M578 987l661 -663l-207 -207l-663 661v-659l-287 287v868h868l287 -287h-659z" />
    <glyph glyph-name="uni2197" unicode="&#x2197;" horiz-adv-x="1320" 
d="M84 987l287 287h868v-868l-287 -287v659l-663 -661l-207 207l661 663h-659z" />
    <glyph glyph-name="uni2198" unicode="&#x2198;" horiz-adv-x="1320" 
d="M952 633v659l287 -286v-869h-868l-287 287h659l-661 663l207 207z" />
    <glyph glyph-name="uni2199" unicode="&#x2199;" horiz-adv-x="1320" 
d="M1032 1294l207 -207l-661 -663h659l-287 -287h-868v869l287 286v-659z" />
    <glyph glyph-name="partialdiff" unicode="&#x2202;" horiz-adv-x="1200" 
d="M496 1462q251 0 436 -209q186 -207 186 -536q0 -360 -166 -553q-163 -193 -417 -193q-213 0 -332 125q-121 127 -121 314q0 212 125 346q126 135 338 135q142 0 258 -72q-24 172 -112 264t-238 93q-105 3 -226 -64v277q113 73 269 73zM547 258q209 0 256 305
q-89 62 -211 62q-88 0 -145.5 -56.5t-57.5 -148.5q0 -74 44.5 -118t113.5 -44z" />
    <glyph glyph-name="emptyset" unicode="&#x2205;" horiz-adv-x="1646" 
d="M1544 1475l-190 -240q211 -217 211 -518q0 -307 -217 -524q-218 -218 -525 -218q-203 0 -379 105l-96 -121h-246l191 240q-211 217 -211 518q0 307 217 524t524 217q205 0 379 -104l96 121h246zM287 717q0 -208 131 -357l659 834q-114 63 -254 63q-224 0 -381 -157
q-155 -155 -155 -383zM823 176q221 0 379 158t158 383q0 207 -131 356l-660 -833q116 -64 254 -64z" />
    <glyph glyph-name="product" unicode="&#x220f;" horiz-adv-x="1310" 
d="M430 -410h-307v1844h1065v-1844h-307v1549h-451v-1549z" />
    <glyph glyph-name="summation" unicode="&#x2211;" horiz-adv-x="1167" 
d="M1085 -410h-1024v256l418 686l-387 644v258h963v-295h-598l364 -607l-393 -647h657v-295z" />
    <glyph glyph-name="minus" unicode="&#x2212;" horiz-adv-x="1146" 
d="M1044 573h-942v287h942v-287z" />
    <glyph glyph-name="radical" unicode="&#x221a;" horiz-adv-x="1404" 
d="M834 0h-295l-240 381h-217v295h393l187 -322l432 1284h311z" />
    <glyph glyph-name="infinity" unicode="&#x221e;" horiz-adv-x="1658" 
d="M829 514q-175 -166 -342 -166q-169 0 -276 101q-109 103 -109 268q0 163 109 266q108 102 276 102t342 -165q174 165 342 165q169 0 277 -102t108 -266q0 -166 -108 -268q-107 -101 -277 -101q-167 0 -342 166zM504 625q69 0 143 92q-74 92 -143 92q-58 4 -82 -44t0 -96
t82 -44zM1155 625q58 -4 82 44t0 96t-82 44q-69 0 -143 -92q74 -92 143 -92z" />
    <glyph glyph-name="integral" unicode="&#x222b;" horiz-adv-x="905" 
d="M0 -418v307q28 -15 59.5 -17.5t61 8t53 41t31.5 75.5l186 1096q37 223 174.5 310t339.5 36v-308q-28 15 -59.5 17.5t-61 -8t-53 -40.5t-31.5 -75l-186 -1096q-37 -223 -174.5 -310t-339.5 -36z" />
    <glyph glyph-name="approxequal" unicode="&#x2248;" horiz-adv-x="1146" 
d="M596 760q-104 43 -164 51q-69 10 -92 2q-28 -9 -74 -33l-184 58q108 406 469 266q94 -39 156 -49q47 -7 72 13.5t40 76.5l246 -119q-41 -200 -172 -270q-130 -70 -297 4zM328 289l-246 119q41 200 172 270q130 70 297 -4q105 -43 162 -51q33 -5 53.5 -6.5t41 4.5t31.5 11
t42 21l184 -57q-108 -406 -469 -266q-94 39 -156 49q-47 7 -72 -13.5t-40 -76.5z" />
    <glyph glyph-name="notequal" unicode="&#x2260;" horiz-adv-x="1064" 
d="M983 1075v-287h-326l-65 -143h391v-287h-520l-115 -256h-184l115 256h-197v287h326l65 143h-391v287h520l115 256h184l-115 -256h197z" />
    <glyph glyph-name="lessequal" unicode="&#x2264;" horiz-adv-x="1085" 
d="M82 1024l922 348v-315l-574 -166l574 -166v-315l-922 348v266zM1004 82h-922v287h922v-287z" />
    <glyph glyph-name="greaterequal" unicode="&#x2265;" horiz-adv-x="1085" 
d="M82 1057v315l922 -348v-266l-922 -348v315l573 166zM1004 82h-922v287h922v-287z" />
    <glyph glyph-name="lozenge" unicode="&#x25ca;" horiz-adv-x="1146" 
d="M684 0h-221l-381 717l381 717h221l381 -717zM414 717l159 -301l160 301l-160 301z" />
    <glyph glyph-name="NULL" horiz-adv-x="0" 
 />
    <glyph glyph-name="CR" horiz-adv-x="681" 
 />
    <glyph glyph-name="i.loclTRK" horiz-adv-x="532" 
d="M387 1167q-51 -51 -120.5 -51t-123.5 51q-51 54 -51 123.5t51 120.5q54 54 123.5 54t120.5 -54q54 -51 54 -120.5t-54 -123.5zM420 0h-307v1024h307v-1024z" />
    <glyph glyph-name="f_f_j" horiz-adv-x="1740" 
d="M1059 1024h569v-1024q0 -239 -114.5 -345.5t-356.5 -92.5v295q86 -4 125 29.5t39 113.5v729h-262v-729h-307v729h-267v-729h-307v729h-137v295h137q0 224 126.5 337.5t371.5 100.5v-295q-191 15 -191 -143h267v20q0 439 497 439q108 0 256 -29v-283q-167 17 -256 17
q-99 0 -144.5 -31.5t-45.5 -112.5v-20z" />
    <glyph glyph-name="f_j" horiz-adv-x="1167" 
d="M485 1024h570v-1024q0 -239 -114.5 -345.5t-356.5 -92.5v295q86 -4 125 29.5t39 113.5v729h-263v-729h-307v729h-137v295h137q0 438 498 438q113 0 256 -28v-283q-157 16 -256 16t-145 -31t-46 -112z" />
    <glyph glyph-name="uni0414.loclBGR" horiz-adv-x="1515" 
d="M967 1434l348 -1119h170v-589h-328v274h-799v-274h-327v589h170l348 1119h418zM758 1067l-215 -752h430z" />
    <glyph glyph-name="uni041B.loclBGR" horiz-adv-x="1351" 
d="M0 0l467 1434h418l467 -1434h-359l-317 1055l-318 -1055h-358z" />
    <glyph glyph-name="uni0424.loclBGR" horiz-adv-x="1769" 
d="M1038 -14v-191h-307v191q-306 40 -489 235q-181 193 -181 496q0 302 181 495q184 196 489 236v190h307v-190q306 -40 490 -236q180 -192 180 -495q0 -304 -180 -496q-183 -195 -490 -235zM731 287v860q-342 -62 -342 -430t342 -430zM1038 1147v-860q342 62 342 430
t-342 430z" />
    <glyph glyph-name="uni0414.ss01" horiz-adv-x="1454" 
d="M1249 1434v-1119h154v-315h-1372v315h145q113 162 113 476v643h960zM524 315h398v811h-306v-340q0 -304 -92 -471z" />
    <glyph glyph-name="uni0426.ss01" horiz-adv-x="1413" 
d="M1208 1434v-1119h154v-315h-1239v1434h328v-1119h430v1119h327z" />
    <glyph glyph-name="uni0429.ss01" horiz-adv-x="2007" 
d="M1802 1434v-1119h154v-315h-1833v1434h328v-1119h348v1119h327v-1119h349v1119h327z" />
    <glyph glyph-name="uni0414.loclBGR.ss01" horiz-adv-x="1515" 
d="M967 1434l348 -1119h170v-315h-1454v315h170l348 1119h418zM758 1067l-215 -752h430z" />
    <glyph glyph-name="uni0432.loclBGR" horiz-adv-x="1157" 
d="M870 844q226 -102 226 -398q0 -223 -130 -349t-362 -126q-221 0 -356 135q-135 138 -135 361v489q0 229 129 367q133 139 342 139q179 0 295 -96q114 -94 114 -264q0 -129 -123 -258zM584 1176q-73 0 -118.5 -61t-45.5 -159v-102l59 12q26 7 109 17q106 84 106 178
q0 54 -29.5 84.5t-80.5 30.5zM604 266q87 0 135.5 47.5t48.5 132.5q0 102 -82.5 139.5t-226.5 6.5l-59 -12v-113q0 -91 50 -146t134 -55z" />
    <glyph glyph-name="uni0433.loclBGR" horiz-adv-x="958" 
d="M662 367l266 -152q-117 -244 -441 -244q-178 0 -303 84q-123 85 -123 252q0 68 21 122t56 87t79.5 59t90.5 40t90.5 27t79.5 22.5t56 25t21 35.5q0 57 -86 57q-87 0 -137 -90l-262 142q63 105 167 162t232 57q172 0 285 -88q116 -88 116 -248q0 -98 -48.5 -165.5
t-125.5 -98.5q-46 -18 -137.5 -42t-136.5 -45t-45 -51q0 -69 110 -69q134 0 175 121z" />
    <glyph glyph-name="uni0434.loclBGR" horiz-adv-x="1275" 
d="M864 920v104h299v-973q0 -240 -157 -364q-155 -125 -383 -125q-349 0 -486 248l262 151q71 -129 234 -129q109 0 170 57t61 162v94q-109 -133 -299 -133q-214 0 -360 152q-144 153 -144 368q0 217 144 367q145 154 360 154q190 0 299 -133zM438 360q71 -65 178 -65
q108 0 179 65q69 63 69 172q0 110 -69 173q-71 65 -179 65q-107 0 -178 -65q-69 -63 -69 -173q0 -109 69 -172z" />
    <glyph glyph-name="uni0436.loclBGR" horiz-adv-x="1576" 
d="M1217 512l339 -512h-339l-279 444v-444h-299v444l-279 -444h-340l340 512l-319 512h340l258 -438v848h299v-848l258 438h340z" />
    <glyph glyph-name="uni0438.loclBGR" horiz-adv-x="1193" 
d="M774 465v559h307v-1024h-307v96q-91 -125 -293 -125q-164 0 -274 113q-109 115 -109 311v629h308v-584q0 -89 49 -137.5t129 -48.5q89 0 139.5 54t50.5 157z" />
    <glyph glyph-name="uni0439.loclBGR" horiz-adv-x="1193" 
d="M283 1411h614v-266h-614v266zM774 465v559h307v-1024h-307v96q-91 -125 -293 -125q-164 0 -274 113q-109 115 -109 311v629h308v-584q0 -89 49 -137.5t129 -48.5q89 0 139.5 54t50.5 157z" />
    <glyph glyph-name="uni043A.loclBGR" horiz-adv-x="1095" 
d="M713 512l383 -512h-348l-328 453v-453h-307v1434h307v-859l307 449h358z" />
    <glyph glyph-name="uni043B.loclBGR" horiz-adv-x="1105" 
d="M727 1024l379 -1024h-340l-213 649l-213 -649h-340l379 1024h348z" />
    <glyph glyph-name="uni043F.loclBGR" horiz-adv-x="1193" 
d="M713 1053q165 0 272 -113q111 -114 111 -311v-629h-308v584q0 89 -49 137.5t-129 48.5q-89 0 -139.5 -54t-50.5 -157v-559h-307v1024h307v-96q91 125 293 125z" />
    <glyph glyph-name="uni0442.loclBGR" horiz-adv-x="1746" 
d="M1260 1053q174 0 282 -117q107 -113 107 -307v-629h-308v602q0 79 -38 123.5t-109 44.5q-75 0 -117.5 -50.5t-42.5 -141.5v-578h-307v602q0 79 -38 123.5t-109 44.5q-75 0 -117.5 -50.5t-42.5 -141.5v-578h-307v1024h307v-94q82 123 274 123q181 0 269 -135
q95 135 297 135z" />
    <glyph glyph-name="uni0446.loclBGR" horiz-adv-x="1275" 
d="M1143 287h92v-561h-299v301q-74 31 -113 94q-102 -150 -342 -150q-164 0 -274 113q-109 115 -109 311v629h308v-584q0 -89 49 -137.5t129 -48.5q89 0 139.5 54t50.5 157v559h307v-676q0 -61 62 -61z" />
    <glyph glyph-name="uni0448.loclBGR" horiz-adv-x="1746" 
d="M1327 446v578h307v-1024h-307v94q-83 -123 -274 -123q-181 0 -269 135q-94 -135 -297 -135q-173 0 -282 115q-107 116 -107 309v629h308v-602q0 -79 38 -123.5t109 -44.5q75 0 117.5 50.5t42.5 141.5v578h307v-602q0 -79 38 -123.5t109 -44.5q75 0 117.5 50.5t42.5 141.5
z" />
    <glyph glyph-name="uni0449.loclBGR" horiz-adv-x="1828" 
d="M1696 287h92v-561h-299v301q-67 31 -107 86q-106 -142 -309 -142q-195 0 -287 138q-94 -138 -299 -138q-173 0 -282 115q-107 116 -107 309v629h308v-602q0 -79 38 -123.5t109 -44.5q75 0 117.5 50.5t42.5 141.5v578h307v-602q0 -79 38 -123.5t109 -44.5q75 0 117.5 50.5
t42.5 141.5v578h307v-676q0 -61 62 -61z" />
    <glyph glyph-name="uni044C.loclBGR" horiz-adv-x="1019" 
d="M397 754h162q203 0 311.5 -100t108.5 -281q0 -175 -123 -289q-119 -113 -317 -113q-207 0 -324 112.5t-117 309.5v631h299v-270zM539 258q58 0 99.5 36.5t41.5 82.5q0 51 -31 80.5t-90 29.5h-162v-94q0 -62 38 -98.5t104 -36.5z" />
    <glyph glyph-name="uni044A.loclBGR" horiz-adv-x="1198" 
d="M575 754h162q203 0 311.5 -100t108.5 -281q0 -175 -123 -289q-119 -113 -317 -113q-207 0 -324 112.5t-117 309.5v344h-276v287h575v-270zM717 258q58 0 99.5 36.5t41.5 82.5q0 51 -31 80.5t-90 29.5h-162v-94q0 -62 38 -98.5t104 -36.5z" />
    <glyph glyph-name="uni044E.loclBGR" horiz-adv-x="1669" 
d="M1065 1053q227 0 385 -158t158 -383q0 -227 -158 -385q-156 -156 -385 -156q-189 0 -330 111q-139 109 -186 287h-129v-369h-307v1434h307v-779h129q47 178 186 287q141 111 330 111zM895 338q68 -68 170 -68q103 0 168 68q67 67 67 174t-67 174q-65 68 -168 68
q-102 0 -170 -68q-66 -69 -66 -174t66 -174z" />
    <glyph glyph-name="zero.sinf" horiz-adv-x="835" 
d="M692 -238q-100 -118 -274 -118q-175 0 -275 118q-102 117 -102 320q0 202 102 319q101 119 275 119q173 0 274 -119q103 -118 103 -319q0 -202 -103 -320zM299 82q0 -188 119 -188t119 188t-119 188t-119 -188z" />
    <glyph glyph-name="one.sinf" horiz-adv-x="561" 
d="M0 401l250 91h219v-820h-250v572l-162 -45z" />
    <glyph glyph-name="two.sinf" horiz-adv-x="720" 
d="M670 -328h-627v158l297 301q66 66 66 109q0 55 -64 55q-68 0 -109 -96l-202 114q89 207 315 207q132 0 221 -74q90 -72 90 -186q0 -123 -143 -266l-96 -96h252v-226z" />
    <glyph glyph-name="three.sinf" horiz-adv-x="704" 
d="M625 317l-138 -161q177 -59 177 -234q0 -134 -84.5 -206t-239.5 -72q-248 0 -330 184l211 123q30 -92 119 -92q72 0 72 63q0 62 -82 62h-49l-86 127l127 155h-273v226h576v-175z" />
    <glyph glyph-name="four.sinf" horiz-adv-x="733" 
d="M627 23h75v-226h-75v-125h-238v125h-369v226l250 469h267l-240 -469h92v124h238v-124z" />
    <glyph glyph-name="five.sinf" horiz-adv-x="694" 
d="M313 182h47q139 0 216 -67t77 -203q0 -128 -83 -198t-220 -70q-248 0 -330 184l205 117q30 -92 117 -92q84 0 84 65q0 66 -84 66h-266l35 508h499v-226h-291z" />
    <glyph glyph-name="six.sinf" horiz-adv-x="700" 
d="M571 492l-170 -265q124 -17 196.5 -94.5t72.5 -195.5q0 -131 -87.5 -212t-232.5 -81t-232 81t-87 212q0 86 39 151l252 404h249zM440 -63q0 86 -90 86t-90 -86q0 -89 90 -89t90 89z" />
    <glyph glyph-name="seven.sinf" horiz-adv-x="604" 
d="M0 266v226h573v-191l-243 -629h-258l231 594h-303z" />
    <glyph glyph-name="eight.sinf" horiz-adv-x="724" 
d="M569 102q115 -71 115 -204q0 -118 -85 -186t-237 -68t-236.5 68t-84.5 186q0 133 115 204q-86 65 -86 168q0 114 81 182t211 68q131 0 212 -68t81 -182q0 -103 -86 -168zM362 313q-83 0 -83 -67q0 -66 83 -66q36 0 60 18t24 48q0 31 -23.5 49t-60.5 18zM451 -68
q7 48 -40.5 68t-95.5 0t-41 -68q-7 -49 40.5 -69.5t95.5 0t41 69.5z" />
    <glyph glyph-name="nine.sinf" horiz-adv-x="700" 
d="M670 227q0 -86 -39 -151l-252 -404h-250l170 265q-124 17 -196 94.5t-72 195.5q0 131 87 212t232 81t232.5 -81t87.5 -212zM260 227q0 -86 90 -86t90 86q0 88 -90 88t-90 -88z" />
    <glyph glyph-name="zero.tf" 
d="M1022 174q-153 -203 -428 -203q-274 0 -430 203q-154 207 -154 543t154 540q156 205 430 205q275 0 428 -205q156 -203 156 -540t-156 -543zM338 717q0 -426 256 -426t256 426t-256 426t-256 -426z" />
    <glyph glyph-name="one.tf" 
d="M778 1434v-1119h379v-315h-1106v315h400v772l-254 -69l-80 280l375 136h286z" />
    <glyph glyph-name="two.tf" 
d="M1106 0h-1045v238l525 481q90 83 131 142.5t41 119.5q0 68 -47.5 115t-135.5 47q-76 0 -131 -39.5t-106 -126.5l-277 162q77 157 213 240t306 83q227 0 364 -131q141 -132 141 -330q0 -127 -65.5 -237.5t-210.5 -243.5l-223 -205h520v-315z" />
    <glyph glyph-name="three.tf" 
d="M1069 1167l-252 -293q150 -51 235 -157t85 -256q0 -227 -152 -361q-150 -129 -381 -129q-419 0 -563 338l283 164q68 -182 260 -182q110 0 167.5 45t57.5 125t-57.5 125t-167.5 45h-64l-129 190l264 305h-569v308h983v-267z" />
    <glyph glyph-name="four.tf" 
d="M1014 532h143v-303h-143v-229h-332v229h-672v303l457 902h352l-457 -902h320v308h332v-308z" />
    <glyph glyph-name="five.tf" 
d="M467 930h147q234 0 377 -125q146 -128 146 -354q0 -228 -154 -355q-149 -125 -379 -125q-419 0 -563 338l283 164q68 -182 270 -182q107 0 161 42.5t54 117.5q0 74 -54 116.5t-161 42.5h-471l59 824h883v-308h-584z" />
    <glyph glyph-name="six.tf" 
d="M961 1434l-314 -433q236 -15 373 -155q137 -137 137 -359q0 -230 -153 -374q-151 -142 -410 -142q-258 0 -412 142q-151 142 -151 374q0 184 96 312l457 635h377zM594 279q107 0 171 55.5t64 152.5t-64 153t-171 56q-110 0 -173 -55t-63 -154t63 -153.5t173 -54.5z" />
    <glyph glyph-name="seven.tf" 
d="M41 1118v316h1085v-275l-528 -1159h-348l506 1118h-715z" />
    <glyph glyph-name="eight.tf" 
d="M958 748q203 -123 203 -345q0 -199 -151.5 -315.5t-415.5 -116.5t-415.5 116.5t-151.5 315.5q0 222 202 345q-153 105 -153 288q0 200 147 314q144 112 371 112t371 -112q147 -114 147 -314q0 -182 -154 -288zM733 1116q-48 39 -139 39q-90 0 -141 -39
q-49 -38 -49 -100.5t49 -100.5t141 -38q93 0 139 38q51 38 51 100.5t-51 100.5zM416 324q60 -45 178 -45t178 45q62 47 62 127t-62 127q-60 45 -178 45t-178 -45q-62 -47 -62 -127t62 -127z" />
    <glyph glyph-name="nine.tf" 
d="M1157 946q0 -183 -96 -311l-457 -635h-377l314 432q-234 15 -373 154q-137 140 -137 360q0 231 151 373q152 143 412 143t410 -141q153 -141 153 -375zM594 737q110 0 172.5 55t62.5 154t-62.5 154t-172.5 55q-107 0 -171.5 -56t-64.5 -153t64.5 -153t171.5 -56z" />
    <glyph glyph-name="zero.dnom" horiz-adv-x="835" 
d="M692 88q-102 -117 -274 -117q-173 0 -275 117q-102 120 -102 322t102 319q101 119 275 119q173 0 274 -119q103 -118 103 -319t-103 -322zM299 410q0 -189 119 -189t119 189q0 188 -119 188t-119 -188z" />
    <glyph glyph-name="one.dnom" horiz-adv-x="561" 
d="M0 729l250 90h219v-819h-250v571l-162 -45z" />
    <glyph glyph-name="two.dnom" horiz-adv-x="739" 
d="M670 0h-627v158l297 301q66 66 66 108q0 56 -64 56q-67 0 -109 -97l-202 115q89 207 315 207q132 0 221 -74q90 -72 90 -186q0 -123 -143 -266l-96 -97h252v-225z" />
    <glyph glyph-name="three.dnom" horiz-adv-x="708" 
d="M625 645l-138 -162q177 -59 177 -233q0 -134 -85 -206.5t-239 -72.5q-247 0 -330 185l211 123q30 -93 119 -93q72 0 72 64q0 61 -82 61h-49l-86 127l127 156h-273v225h576v-174z" />
    <glyph glyph-name="four.dnom" horiz-adv-x="733" 
d="M627 350h75v-225h-75v-125h-238v125h-369v225l250 469h267l-240 -469h92v125h238v-125z" />
    <glyph glyph-name="five.dnom" horiz-adv-x="679" 
d="M313 510h47q139 0 216 -67t77 -203q0 -128 -83 -198.5t-220 -70.5q-247 0 -330 185l205 116q30 -92 117 -92q84 0 84 66q0 65 -84 65h-266l35 508h499v-225h-291z" />
    <glyph glyph-name="six.dnom" horiz-adv-x="700" 
d="M571 819l-170 -264q124 -17 196.5 -95t72.5 -196q0 -131 -87.5 -212t-232.5 -81t-232 81t-87 212q0 87 39 152l252 403h249zM440 264q0 86 -90 86t-90 -86q0 -88 90 -88t90 88z" />
    <glyph glyph-name="seven.dnom" horiz-adv-x="604" 
d="M0 594v225h573v-190l-243 -629h-258l231 594h-303z" />
    <glyph glyph-name="eight.dnom" horiz-adv-x="724" 
d="M569 430q115 -71 115 -205q0 -118 -85 -186t-237 -68t-236.5 68t-84.5 186q0 134 115 205q-86 65 -86 168q0 114 81 182t211 68q131 0 212 -68t81 -182q0 -103 -86 -168zM362 641q-83 0 -83 -68q0 -65 83 -65q36 0 60 17.5t24 47.5q0 31 -24 49.5t-60 18.5zM451 260
q7 48 -40.5 68t-95.5 0t-41 -68q-7 -49 40.5 -69.5t95.5 0t41 69.5z" />
    <glyph glyph-name="nine.dnom" horiz-adv-x="700" 
d="M670 555q0 -87 -39 -152l-252 -403h-250l170 264q-124 17 -196 95t-72 196q0 131 87 212t232 81t232.5 -81t87.5 -212zM260 555q0 -86 90 -86t90 86q0 88 -90 88t-90 -88z" />
    <glyph glyph-name="zero.numr" horiz-adv-x="835" 
d="M692 702q-101 -116 -274 -116q-174 0 -275 116q-102 120 -102 322t102 319q101 119 275 119q173 0 274 -119q103 -118 103 -319t-103 -322zM299 1024q0 -188 119 -188t119 188t-119 188t-119 -188z" />
    <glyph glyph-name="one.numr" horiz-adv-x="561" 
d="M0 1343l250 91h219v-820h-250v572l-162 -45z" />
    <glyph glyph-name="two.numr" horiz-adv-x="739" 
d="M670 614h-627v158l297 301q66 66 66 109q0 55 -64 55q-68 0 -109 -96l-202 114q89 207 315 207q133 0 221 -73q90 -72 90 -187q0 -123 -143 -266l-96 -96h252v-226z" />
    <glyph glyph-name="three.numr" horiz-adv-x="708" 
d="M625 1260l-138 -162q177 -59 177 -234q0 -134 -84.5 -206t-239.5 -72q-248 0 -330 184l211 123q30 -92 119 -92q72 0 72 63q0 62 -82 62h-49l-86 127l127 155h-273v226h576v-174z" />
    <glyph glyph-name="four.numr" horiz-adv-x="733" 
d="M627 965h75v-226h-75v-125h-238v125h-369v226l250 469h267l-240 -469h92v125h238v-125z" />
    <glyph glyph-name="five.numr" horiz-adv-x="679" 
d="M313 1124h47q139 0 216 -67t77 -203q0 -128 -83 -198t-220 -70q-248 0 -330 184l205 117q30 -92 117 -92q84 0 84 65q0 66 -84 66h-266l35 508h499v-226h-291z" />
    <glyph glyph-name="six.numr" horiz-adv-x="700" 
d="M571 1434l-170 -265q124 -17 196.5 -94.5t72.5 -195.5q0 -131 -87.5 -212t-232.5 -81t-232 81t-87 212q0 86 39 151l252 404h249zM440 879q0 86 -90 86t-90 -86q0 -88 90 -88t90 88z" />
    <glyph glyph-name="seven.numr" horiz-adv-x="604" 
d="M0 1208v226h573v-191l-243 -629h-258l231 594h-303z" />
    <glyph glyph-name="eight.numr" horiz-adv-x="724" 
d="M569 1044q115 -71 115 -204q0 -118 -85 -186t-237 -68t-236.5 68t-84.5 186q0 133 115 204q-86 65 -86 168q0 114 81 182t211 68q131 0 212 -68t81 -182q0 -103 -86 -168zM362 1255q-83 0 -83 -67q0 -66 83 -66q36 0 60 18t24 48q0 31 -23.5 49t-60.5 18zM451 874
q7 48 -40.5 68t-95.5 0t-41 -68q-7 -49 40.5 -69.5t95.5 0t41 69.5z" />
    <glyph glyph-name="nine.numr" horiz-adv-x="700" 
d="M670 1169q0 -86 -39 -151l-252 -404h-250l170 265q-124 17 -196 94.5t-72 195.5q0 131 87 212t232 81t232.5 -81t87.5 -212zM260 1169q0 -86 90 -86t90 86q0 88 -90 88t-90 -88z" />
    <glyph glyph-name="zero.sups" horiz-adv-x="835" 
d="M692 1030q-102 -117 -274 -117q-173 0 -275 117q-102 120 -102 322t102 319q101 119 275 119q173 0 274 -119q103 -118 103 -319t-103 -322zM299 1352q0 -189 119 -189t119 189q0 188 -119 188t-119 -188z" />
    <glyph glyph-name="one.sups" horiz-adv-x="561" 
d="M0 1671l250 90h219v-819h-250v571l-162 -45z" />
    <glyph glyph-name="two.sups" horiz-adv-x="739" 
d="M670 942h-627v158l297 301q66 66 66 108q0 56 -64 56q-67 0 -109 -97l-202 115q89 207 315 207q132 0 221 -74q90 -72 90 -186q0 -123 -143 -266l-96 -97h252v-225z" />
    <glyph glyph-name="three.sups" horiz-adv-x="708" 
d="M625 1587l-138 -162q177 -59 177 -233q0 -134 -85 -206.5t-239 -72.5q-247 0 -330 185l211 123q30 -93 119 -93q72 0 72 64q0 61 -82 61h-49l-86 127l127 156h-273v225h576v-174z" />
    <glyph glyph-name="four.sups" horiz-adv-x="733" 
d="M627 1292h75v-225h-75v-125h-238v125h-369v225l250 469h267l-240 -469h92v125h238v-125z" />
    <glyph glyph-name="five.sups" horiz-adv-x="679" 
d="M313 1452h47q139 0 216 -67t77 -203q0 -128 -83 -198.5t-220 -70.5q-247 0 -330 185l205 116q30 -92 117 -92q84 0 84 66q0 65 -84 65h-266l35 508h499v-225h-291z" />
    <glyph glyph-name="six.sups" horiz-adv-x="700" 
d="M571 1761l-170 -264q124 -17 196.5 -95t72.5 -196q0 -131 -87.5 -212t-232.5 -81t-232 81t-87 212q0 87 39 152l252 403h249zM440 1206q0 86 -90 86t-90 -86q0 -88 90 -88t90 88z" />
    <glyph glyph-name="seven.sups" horiz-adv-x="604" 
d="M0 1536v225h573v-190l-243 -629h-258l231 594h-303z" />
    <glyph glyph-name="eight.sups" horiz-adv-x="724" 
d="M569 1372q115 -71 115 -205q0 -118 -85 -186t-237 -68t-236.5 68t-84.5 186q0 134 115 205q-86 65 -86 168q0 114 81 182t211 68q131 0 212 -68t81 -182q0 -103 -86 -168zM362 1583q-83 0 -83 -67q0 -66 83 -66q36 0 60 18t24 48q0 31 -23.5 49t-60.5 18zM451 1202
q7 48 -40.5 68t-95.5 0t-41 -68q-7 -49 40.5 -69.5t95.5 0t41 69.5z" />
    <glyph glyph-name="nine.sups" horiz-adv-x="700" 
d="M670 1497q0 -86 -39 -151l-252 -404h-250l170 264q-124 17 -196 95t-72 196q0 131 87 212t232 81t232.5 -81t87.5 -212zM260 1497q0 -86 90 -86t90 86q0 88 -90 88t-90 -88z" />
    <glyph glyph-name="cent.tf" 
d="M627 479h22q146 0 199 115l268 -154q-68 -122 -191.5 -193t-271.5 -71q-63 0 -121 12l-61 -188h-123l72 225q-142 63 -225.5 195t-83.5 297q0 229 153 385q155 155 389 155q60 0 99 -8l59 185h123l-70 -217q168 -70 252 -222l-268 -155q-23 48 -78 84zM418 717
q0 -135 98 -199l139 436h-6q-100 0 -165.5 -66.5t-65.5 -170.5z" />
    <glyph glyph-name="dollar.tf" 
d="M1147 408q0 -184 -120.5 -298.5t-326.5 -134.5v-180h-143v178q-192 12 -323.5 104t-192.5 249l283 163q76 -175 233 -202v282q-1 0 -7.5 3.5t-15 7t-12.5 4.5q-8 3 -30.5 12t-29 11.5t-25 10t-26 11l-22.5 10.5t-24.5 12.5t-23 12.5t-26 15t-26.5 17q-89 57 -136 139.5
t-53 204.5q0 193 129 301q135 110 328 119v178h143v-182q299 -44 416 -307l-276 -162q-44 115 -140 150v-283q223 -86 289 -133q155 -113 158 -313zM428 1044q0 -37 28 -65.5t101 -63.5v236q-129 -15 -129 -107zM700 512v-227q119 18 119 106q0 39 -26 65.5t-93 55.5z" />
    <glyph glyph-name="Euro.tf" 
d="M887 449l270 -156q-61 -149 -179.5 -235.5t-270.5 -86.5q-215 0 -353.5 145.5t-175.5 403.5h-137v172h123v25v41h-123v172h139q42 250 179 391t348 141q145 0 262 -82t178 -221l-275 -158q-24 64 -67.5 103t-97.5 39q-156 0 -197 -213h307v-172h-325v-41v-25h325v-172
h-311q40 -229 201 -229q58 0 105.5 43t74.5 115z" />
    <glyph glyph-name="florin.tf" 
d="M1147 1444v-307q-81 33 -151 5t-93 -112l-45 -162h227v-295h-311l-180 -639q-62 -223 -207.5 -310t-345.5 -36v308q81 -33 151 -5.5t93 111.5l161 571h-221v295h303l66 230q62 223 207.5 310t345.5 36z" />
    <glyph glyph-name="uni20BD.tf" 
d="M645 471h-153v-84h368v-201h-368v-186h-328v186h-144v201h144v84h-144v287h144v676h481q212 0 356 -144q146 -146 146 -348q0 -201 -146 -338q-145 -133 -356 -133zM645 1126h-153v-368h153q75 0 124.5 53t49.5 131t-49.5 131t-124.5 53z" />
    <glyph glyph-name="sterling.tf" 
d="M524 551v-236h643v-315h-1106v315h136v236h-115v287h115v172q0 223 137 336q137 116 323 116q161 0 282 -79.5t181 -225.5l-284 -164q-25 80 -63.5 115t-104.5 35q-64 0 -104 -40t-40 -108v-157h418v-287h-418z" />
    <glyph glyph-name="yen.tf" 
d="M815 1434h373l-367 -682h254v-181h-317v-82h317v-180h-317v-309h-328v309h-317v180h317v82h-317v181h254l-367 682h373l221 -465z" />
    <glyph glyph-name="brevecy" horiz-adv-x="778" 
d="M696 1145h-614v266h614v-266z" />
    </font>
</defs>
</svg>
