<svg width="55" height="54" viewBox="0 0 55 54" fill="none" xmlns="http://www.w3.org/2000/svg">
<path d="M5.19092 28.6069C4.23799 15.4175 14.9671 4.44619 28.104 5.02979L28.7319 5.06592C38.496 5.75871 46.8158 13.1274 48.7095 22.6919L48.7954 23.1489C49.2351 25.6779 49.2346 28.1366 48.8413 30.4604C48.7667 30.8444 48.391 31.0524 48.0708 30.9546L48.0073 30.9312L47.7104 30.8032C46.2171 30.1817 44.5856 29.8521 42.8755 29.8521C39.9729 29.8521 37.1186 30.8579 34.8481 32.6821C31.7564 35.118 30.0006 38.7734 30.0005 42.7271C30.0005 44.4161 30.3291 46.0657 30.9497 47.5786L31.0776 47.8794C31.2083 48.1929 31.0197 48.5799 30.6909 48.6763L30.6226 48.6909L30.6196 48.6919C28.2691 49.0873 25.8058 49.0875 23.2729 48.647H23.272C13.6393 46.9576 6.13241 38.7859 5.229 29.0708L5.19092 28.6069ZM27.6001 19.9067C25.8304 18.8853 24.1064 18.735 22.7935 19.4966C21.4811 20.258 20.7524 21.8303 20.7524 23.8726V30.105C20.7524 32.1574 21.4806 33.7309 22.7944 34.4897C24.1081 35.2483 25.8318 35.0914 27.6001 34.0708L27.5991 34.0698L32.9995 30.9663L33.0024 30.9644C34.7697 29.9324 35.764 28.5168 35.7642 26.9976C35.7642 25.5739 34.8911 24.2355 33.3267 23.2144L33.0044 23.0142L32.9995 23.0112L30.2993 21.4595L27.5991 19.9067H27.6001Z" fill="white" stroke="white"/>
<path d="M42.875 33.75C40.76 33.75 38.8025 34.4925 37.25 35.73C35.18 37.3725 33.875 39.915 33.875 42.75C33.875 44.4375 34.3475 46.035 35.18 47.385C36.7325 49.995 39.59 51.75 42.875 51.75C45.1475 51.75 47.2175 50.9175 48.7925 49.5C49.49 48.915 50.0975 48.195 50.57 47.385C51.4025 46.035 51.875 44.4375 51.875 42.75C51.875 37.7775 47.8475 33.75 42.875 33.75ZM46.25 44.3925H44.5625V46.1475C44.5625 47.07 43.7975 47.835 42.875 47.835C41.9525 47.835 41.1875 47.07 41.1875 46.1475V44.3925H39.5C38.5775 44.3925 37.8125 43.6275 37.8125 42.705C37.8125 41.7825 38.5775 41.0175 39.5 41.0175H41.1875V39.42C41.1875 38.4975 41.9525 37.7325 42.875 37.7325C43.7975 37.7325 44.5625 38.4975 44.5625 39.42V41.0175H46.25C47.1725 41.0175 47.9375 41.7825 47.9375 42.705C47.9375 43.6275 47.1725 44.3925 46.25 44.3925Z" fill="white"/>
</svg>
