<svg width="55" height="54" viewBox="0 0 55 54" fill="none" xmlns="http://www.w3.org/2000/svg">
<path d="M33.5176 5V13.8096H22.2324V5H33.5176Z" fill="white" stroke="white"/>
<path d="M37.8926 5.00977C41.0665 5.10202 43.6663 5.97311 45.6162 7.48828C47.5271 8.97322 48.8489 11.1029 49.4678 13.8096H37.8926V5.00977Z" fill="white" stroke="white"/>
<path d="M5.375 17.6851V36.4276C5.375 44.6176 10.2575 49.5001 18.4475 49.5001H37.3025C45.4925 49.5001 50.375 44.6176 50.375 36.4276V17.6851H5.375ZM33.365 36.4051L28.685 39.1051C27.695 39.6676 26.7275 39.9601 25.8275 39.9601C25.1525 39.9601 24.545 39.8026 23.9825 39.4876C22.6775 38.7451 21.9575 37.2151 21.9575 35.2351V29.8351C21.9575 27.8551 22.6775 26.3251 23.9825 25.5826C25.2875 24.8176 26.9525 24.9526 28.685 25.9651L33.365 28.6651C35.0975 29.6551 36.0425 31.0501 36.0425 32.5576C36.0425 34.0651 35.075 35.3926 33.365 36.4051Z" fill="white"/>
<path d="M18.358 4.5C11.383 4.5225 6.81547 8.1225 5.66797 14.31H18.358V4.5Z" fill="white"/>
</svg>
