<svg width="55" height="54" viewBox="0 0 55 54" fill="none" xmlns="http://www.w3.org/2000/svg">
<path d="M17.1621 9.18506H38.0879C42.6826 9.1851 45.5077 9.8939 47.2119 11.5981C48.9162 13.3024 49.625 16.1275 49.625 20.7222V22.8149C49.625 23.4163 49.1512 23.8901 48.5498 23.8901C46.2489 23.8902 44.383 25.7563 44.3828 28.0571C44.3828 30.3582 46.2487 32.225 48.5498 32.2251C49.1512 32.2251 49.625 32.6989 49.625 33.3003C49.625 37.895 48.9161 40.72 47.2119 42.4243C45.5077 44.1286 42.6826 44.8374 38.0879 44.8374H17.1621C12.5674 44.8374 9.74233 44.1286 8.03809 42.4243C6.33388 40.72 5.62502 37.895 5.625 33.3003V32.2427C5.625 31.6413 6.09884 31.1675 6.7002 31.1675C8.9971 31.1674 10.867 29.3278 10.8672 27.0229C10.8672 24.7219 9.00125 22.8551 6.7002 22.855C6.09884 22.855 5.625 22.3811 5.625 21.7798V20.7222C5.62504 16.1275 6.33385 13.3024 8.03809 11.5981C9.63582 10.0004 12.2187 9.27797 16.3213 9.19385L17.1621 9.18506ZM36.7539 18.5913C35.959 17.7964 34.6812 17.7471 33.8262 18.4429L33.6611 18.5913L18.5186 33.7339C17.6711 34.5815 17.6712 35.9779 18.5186 36.8257C18.9548 37.2619 19.5125 37.4673 20.0654 37.4673C20.5492 37.4672 21.0361 37.3105 21.4424 36.979L21.6113 36.8257L36.7539 21.6841C37.6016 20.8363 37.6016 19.4391 36.7539 18.5913ZM34.3525 30.73C32.8389 30.73 31.6026 31.9664 31.6025 33.48C31.6025 34.9969 32.8421 36.23 34.375 36.23C35.9209 36.23 37.1025 34.9837 37.1025 33.48C37.1025 31.9664 35.8661 30.73 34.3525 30.73ZM20.875 19.48C19.3356 19.48 18.125 20.7196 18.125 22.23C18.125 23.7436 19.3614 24.98 20.875 24.98C22.4144 24.98 23.625 23.7404 23.625 22.23C23.625 20.7164 22.3886 19.48 20.875 19.48Z" fill="white" stroke="white"/>
</svg>
