<svg width="55" height="54" viewBox="0 0 55 54" fill="none" xmlns="http://www.w3.org/2000/svg">
<path d="M23.3452 6.73486C25.4778 5.02493 28.9535 4.97046 31.1919 6.59521L31.4038 6.75732L31.4048 6.7583L46.9976 19.2231C47.7775 19.8517 48.4468 20.8547 48.8765 21.981C49.306 23.1068 49.4757 24.3033 49.314 25.2974L46.3218 43.2065C45.8224 46.1393 42.9478 48.5726 39.9751 48.5728H14.7749C11.8726 48.5728 9.10598 46.3096 8.48193 43.4819L8.42822 43.2065L5.43506 25.2974V25.2944L5.40674 25.106C5.28455 24.1525 5.45443 23.036 5.85693 21.981C6.25944 20.9259 6.87682 19.9784 7.604 19.3462L7.75146 19.2241L7.75244 19.2231L23.3452 6.73584V6.73486ZM29.3208 35.1919C28.3147 34.1908 26.7114 34.1295 25.6323 35.0083L25.4233 35.1968C24.418 36.2025 24.3551 37.7894 25.2349 38.8677L25.4233 39.0767L25.4331 39.0854C25.9728 39.598 26.6573 39.8754 27.3745 39.8755C28.0936 39.8755 28.783 39.5959 29.3257 39.0532C30.3957 37.9831 30.4031 36.2456 29.3218 35.1919H29.3208ZM33.6382 30.7788C30.0513 27.3528 25.0705 27.2443 21.4155 30.4585L21.0659 30.7798L21.0649 30.7808C20.2477 31.5708 20.1693 32.8273 20.8599 33.7026L21.0083 33.8726C21.8498 34.7429 23.2198 34.7746 24.0952 33.9321L24.0962 33.9331C25.1193 32.9622 26.2603 32.5006 27.3716 32.5005C28.4133 32.5005 29.476 32.9057 30.438 33.7554L30.6284 33.9312L30.6333 33.936C31.0607 34.335 31.5873 34.5425 32.145 34.5425C32.6602 34.5424 33.1477 34.3609 33.5474 34.0298L33.7134 33.8784L33.7192 33.8726C34.5598 33.003 34.5402 31.6046 33.6372 30.7788H33.6382ZM33.8901 22.8364C29.8339 20.8767 25.335 20.8159 21.2319 22.6528L20.8364 22.8364C19.3948 23.5268 18.043 24.4304 16.812 25.5454L16.2915 26.0356L16.2886 26.0396C15.4992 26.8292 15.4223 28.0818 16.1118 28.9556L16.2603 29.1255C17.1058 30 18.5006 30.0018 19.3501 29.1606L19.3511 29.1616C20.2665 28.2843 21.2438 27.5614 22.2827 27.0044L22.7319 26.7759C25.7213 25.3349 29.0044 25.3331 32.0181 26.7749V26.7759C33.0771 27.2865 34.0884 27.9631 35.0073 28.7925L35.395 29.1577C35.8118 29.5723 36.3688 29.7729 36.9146 29.7729C37.5035 29.7729 38.0572 29.5356 38.4839 29.1089C39.3379 28.2547 39.3064 26.8483 38.4263 26.0269H38.4253C37.0612 24.688 35.5347 23.6235 33.8911 22.8364H33.8901Z" fill="white" stroke="white"/>
</svg>
