<svg width="33" height="32" viewBox="0 0 33 32" fill="none" xmlns="http://www.w3.org/2000/svg">
<path d="M22.153 2.66699H10.8463C7.16634 2.66699 5.83301 4.00033 5.83301 7.74699V24.2537C5.83301 28.0003 7.16634 29.3337 10.8463 29.3337H22.1397C25.833 29.3337 27.1663 28.0003 27.1663 24.2537V7.74699C27.1663 4.00033 25.833 2.66699 22.153 2.66699ZM16.4997 25.7337C15.2197 25.7337 14.1663 24.6803 14.1663 23.4003C14.1663 22.1203 15.2197 21.067 16.4997 21.067C17.7797 21.067 18.833 22.1203 18.833 23.4003C18.833 24.6803 17.7797 25.7337 16.4997 25.7337ZM19.1663 8.33366H13.833C13.2863 8.33366 12.833 7.88033 12.833 7.33366C12.833 6.78699 13.2863 6.33366 13.833 6.33366H19.1663C19.713 6.33366 20.1663 6.78699 20.1663 7.33366C20.1663 7.88033 19.713 8.33366 19.1663 8.33366Z" fill="white"/>
</svg>
