<svg width="33" height="32" viewBox="0 0 33 32" fill="none" xmlns="http://www.w3.org/2000/svg">
<path d="M23.9132 2.66699H9.0465C5.8065 2.66699 3.1665 5.30699 3.1665 8.54699V17.2137V17.4803C3.1665 20.7337 5.8065 23.3603 9.0465 23.3603H14.1665C14.8998 23.3603 15.4998 23.9603 15.4998 24.6937V25.987C15.4998 26.7203 14.8998 27.3203 14.1665 27.3203H10.9398C10.3932 27.3203 9.93984 27.7737 9.93984 28.3203C9.93984 28.867 10.3798 29.3337 10.9398 29.3337H22.0732C22.6198 29.3337 23.0732 28.8803 23.0732 28.3337C23.0732 27.787 22.6198 27.3337 22.0732 27.3337H18.8465C18.1132 27.3337 17.5132 26.7337 17.5132 26.0003V24.707C17.5132 23.9737 18.1132 23.3737 18.8465 23.3737H23.9265C27.1798 23.3737 29.8065 20.7337 29.8065 17.4937V17.227V8.56033C29.7932 5.30699 27.1532 2.66699 23.9132 2.66699Z" fill="white"/>
<circle cx="16.5" cy="22" r="1" fill="#121212"/>
</svg>
