<svg width="33" height="32" viewBox="0 0 33 32" fill="none" xmlns="http://www.w3.org/2000/svg">
<path d="M23.1667 28.9997H9.83333C9.28133 28.9997 8.83333 28.5517 8.83333 27.9997C8.83333 27.4477 9.28133 26.9997 9.83333 26.9997H23.1667C23.7187 26.9997 24.1667 27.4477 24.1667 27.9997C24.1667 28.5517 23.7187 28.9997 23.1667 28.9997ZM28.5 9.64095V19.693C28.5 22.565 27.1667 24.001 24.5 24.001H8.5C5.83333 24.001 4.5 22.565 4.5 19.693V9.64095C4.5 6.76895 5.83333 5.33301 8.5 5.33301H24.5C27.1667 5.33301 28.5 6.76895 28.5 9.64095ZM19.9427 13.6715L15.7441 11.1022C14.9081 10.5915 13.8333 11.1903 13.8333 12.1676V17.1624C13.8333 18.1398 14.9081 18.7395 15.7441 18.2275L19.9427 15.6582C20.6867 15.2049 20.6867 14.1275 19.9427 13.6715Z" fill="white"/>
</svg>
