<svg width="80" height="80" viewBox="0 0 80 80" fill="none" xmlns="http://www.w3.org/2000/svg">
<path d="M43.692 59.524C39.8653 62.9863 35.6483 65.9909 31.1263 68.4771C29.9116 69.1892 28.655 69.8489 27.3565 70.4562C22.674 68.515 18.5014 65.5217 15.162 61.7083C11.8225 57.8949 9.40595 53.3638 8.09953 48.4662C9.41893 49.2829 10.8012 50.0683 12.1834 50.7908C21.8914 56.0456 32.6641 59.0314 43.692 59.524ZM24.8434 52.927C19.7912 43.2005 16.979 32.4669 16.6128 21.5126C16.6128 19.9419 16.6128 18.3712 16.6128 16.8319C10.4836 22.9816 7.02911 31.3018 7.00002 39.9843C6.99825 41.4131 7.0927 42.8405 7.28275 44.2566C8.45556 45.0525 9.6493 45.8064 10.864 46.5185C15.2739 49.1833 19.9749 51.3335 24.8748 52.927H24.8434ZM44.2889 10.4548C45.6397 9.63802 47.0219 8.82125 48.4356 8.09872C43.5654 6.80797 38.464 6.65221 33.5242 7.64344C28.5843 8.63467 23.9379 10.7464 19.9427 13.8161C19.9427 15.2298 19.7543 16.6434 19.7228 18.0571C19.6519 23.2058 20.147 28.3467 21.1993 33.3873C27.0851 24.1134 34.9751 16.2771 44.2889 10.4548ZM67.7554 28.9893C69.1376 29.7118 70.5199 30.4972 71.8393 31.3139C70.5328 26.4163 68.1163 21.8852 64.7768 18.0718C61.4374 14.2584 57.2647 11.2651 52.5823 9.32388C51.2838 9.93122 50.0272 10.5909 48.8125 11.303C44.2944 13.7954 40.0781 16.7996 36.2468 20.2561C47.2747 20.7487 58.0474 23.7345 67.7554 28.9893ZM63.326 63.2623C69.4974 57.0869 72.9659 48.7148 72.9702 39.9843C72.972 38.5554 72.8775 37.1281 72.6875 35.7119C71.5146 34.9371 70.3209 34.1831 69.1062 33.4501C64.6906 30.8288 59.9898 28.7208 55.0954 27.1672C60.1476 36.8938 62.9598 47.6273 63.326 58.5816C63.5459 60.1523 63.5459 61.723 63.326 63.2623ZM35.6813 69.5452C34.3305 70.362 32.9483 71.1788 31.5346 71.9013C36.4048 73.192 41.5062 73.3478 46.446 72.3566C51.3859 71.3653 56.0323 69.2536 60.0275 66.1839C60.0275 64.7702 60.216 63.3566 60.2474 61.9429C60.3183 56.7942 59.8232 51.6533 58.7709 46.6127C52.8815 55.8752 44.9917 63.7005 35.6813 69.5138V69.5452Z" fill="#F47323"/>
<path d="M32.3924 46.8568C31.3935 46.8568 30.5173 46.6996 29.7637 46.3851C29.016 46.0706 28.4231 45.6269 27.985 45.0541C27.5469 44.4757 27.2957 43.8018 27.2314 43.0324L27.2227 42.9313H30.2895L30.307 43.024C30.3654 43.4283 30.5757 43.7653 30.9379 44.0348C31.3 44.2988 31.782 44.4308 32.3836 44.4308C32.7809 44.4308 33.1226 44.3662 33.4088 44.237C33.7009 44.1022 33.9258 43.9197 34.0835 43.6895C34.2412 43.4592 34.3201 43.1953 34.3201 42.8976V42.8808C34.3201 42.3866 34.1302 42.0103 33.7505 41.752C33.3708 41.4936 32.8305 41.3645 32.1295 41.3645H30.7626V39.267H32.112C32.5268 39.267 32.8802 39.208 33.1722 39.0901C33.4702 38.9721 33.698 38.8064 33.8557 38.593C34.0193 38.3796 34.101 38.1325 34.101 37.8517V37.8349C34.101 37.5373 34.0309 37.2817 33.8907 37.0683C33.7564 36.8493 33.5578 36.6836 33.2949 36.5713C33.0379 36.4534 32.7283 36.3944 32.3661 36.3944C31.9981 36.3944 31.6739 36.4562 31.3935 36.5798C31.1189 36.6977 30.8999 36.869 30.7363 37.0936C30.5786 37.3126 30.4822 37.571 30.4472 37.8686L30.4384 37.9528H27.5206L27.5293 37.8349C27.5878 37.0711 27.8214 36.4113 28.2303 35.8553C28.6451 35.2937 29.2029 34.8613 29.9039 34.558C30.6107 34.2492 31.4315 34.0947 32.3661 34.0947C33.33 34.0947 34.1653 34.2351 34.8721 34.5159C35.5789 34.7911 36.1251 35.1758 36.5107 35.67C36.8962 36.1642 37.089 36.7426 37.089 37.4053V37.4221C37.089 37.9332 36.9692 38.3796 36.7297 38.7615C36.4961 39.1378 36.1806 39.4467 35.7834 39.6881C35.392 39.9296 34.9568 40.0981 34.4778 40.1936V40.2525C35.43 40.3424 36.1865 40.6316 36.7472 41.1202C37.308 41.6088 37.5884 42.2546 37.5884 43.0577V43.0745C37.5884 43.8383 37.3752 44.5066 36.9488 45.0794C36.5223 45.6466 35.9207 46.0846 35.1437 46.3935C34.3668 46.7024 33.4497 46.8568 32.3924 46.8568Z" fill="#F47323"/>
<path d="M40.1295 46.5536V34.398H43.7921L46.8589 42.6365H47.0166L50.0571 34.398H53.7285V46.5536H50.8983V38.8205H49.3123L52.2302 34.7349L47.849 46.5536H46.009L41.6278 34.7349L44.5457 38.8205H42.9597V46.5536H40.1295Z" fill="#F47323"/>
</svg>
