<svg width="80" height="80" viewBox="0 0 80 80" fill="none" xmlns="http://www.w3.org/2000/svg">
<path fill-rule="evenodd" clip-rule="evenodd" d="M40 80C17.9083 80 0 62.0917 0 40C0 17.9083 17.9083 0 40 0C62.0917 0 80 17.9083 80 40C80 62.0917 62.0917 80 40 80ZM35 48.0833C34.9998 48.1732 35.0239 48.2614 35.0696 48.3387C35.1153 48.416 35.1811 48.4796 35.2598 48.5227C35.3386 48.5659 35.4276 48.587 35.5174 48.5839C35.6071 48.5807 35.6944 48.5535 35.77 48.505L48.345 40.4217C48.4155 40.3764 48.4736 40.3142 48.5137 40.2406C48.5539 40.1671 48.575 40.0846 48.575 40.0008C48.575 39.917 48.5539 39.8346 48.5137 39.761C48.4736 39.6875 48.4155 39.6253 48.345 39.58L35.77 31.4967C35.6945 31.4482 35.6074 31.421 35.5178 31.4178C35.4281 31.4146 35.3393 31.4356 35.2606 31.4785C35.1818 31.5215 35.1161 31.5848 35.0703 31.6619C35.0244 31.739 35.0001 31.827 35 31.9167V48.0833Z" fill="white"/>
</svg>
