<svg width="70" height="35" viewBox="0 0 70 35" fill="none" xmlns="http://www.w3.org/2000/svg">
<g clip-path="url(#clip0_3698_13860)">
<g clip-path="url(#clip1_3698_13860)">
<path d="M20.0605 13.9382L19.9107 13.2079L18.3372 7.6573L20.8847 7L21.9337 10.7978L23.0576 8.97191L25.3055 10.2865L24.2565 12.1124L28.1527 11.0899L28.8271 13.573L23.1326 15.0337L22.3833 15.2528L20.2853 18.7584H24.4063L24.9308 18.1742L29.1268 14.1573L31 15.9101L28.1527 18.7584H30.3256V21.3146H28.1527L31 24.0899L29.1268 25.9157L24.9308 21.8258L24.4063 21.3146H20.2853L22.3084 24.7472L23.0576 24.9663L28.8271 26.427L28.1527 28.9101L24.1816 27.8876L25.3055 29.7865L23.0576 31.0281L21.9337 29.2022L20.8847 33L18.3372 32.3427L19.8357 26.7921L20.0605 26.0618L18.0375 22.5562L15.9395 26.0618L16.1643 26.7921L17.6628 32.3427L15.1902 33L14.1412 29.2022L13.0173 31.0281L10.6945 29.7865L11.8184 27.8876L7.92219 28.9101L7.24784 26.427L12.9424 24.9663L13.6916 24.7472L15.7147 21.3146H11.5937L11.0692 21.8258L6.8732 25.9157L5 24.0899L7.84726 21.3146H5.67435V18.7584H7.84726L5 15.9101L6.8732 14.1573L11.0692 18.1742L11.5937 18.7584H15.7147L13.6916 15.2528L12.9424 15.0337L7.17291 13.573L7.92219 11.0899L11.8184 12.1124L10.6945 10.2865L13.0173 8.97191L14.0663 10.7978L15.1153 7L17.6628 7.6573L16.1643 13.2079L15.9395 13.9382L18.0375 17.4438L20.0605 13.9382Z" fill="white"/>
</g>
<g opacity="0.8" clip-path="url(#clip2_3698_13860)">
<path d="M49.268 1.26966L49.1758 0.820225L48.2075 -2.59551L49.7752 -3L50.4207 -0.662921L51.1124 -1.78652L52.4957 -0.977528L51.8501 0.146069L54.2478 -0.483146L54.6628 1.04494L51.1585 1.94382L50.6974 2.07865L49.4063 4.23596H51.9424L52.2651 3.8764L54.8473 1.4045L56 2.48315L54.2478 4.23596H55.585V5.80899H54.2478L56 7.51685L54.8473 8.64045L52.2651 6.1236L51.9424 5.80899H49.4063L50.6513 7.92135L51.1124 8.05618L54.6628 8.95506L54.2478 10.4831L51.804 9.85393L52.4957 11.0225L51.1124 11.7865L50.4207 10.6629L49.7752 13L48.2075 12.5955L49.1297 9.17978L49.268 8.73034L48.0231 6.57303L46.732 8.73034L46.8703 9.17978L47.7925 12.5955L46.2709 13L45.6254 10.6629L44.9337 11.7865L43.5043 11.0225L44.196 9.85393L41.7983 10.4831L41.3833 8.95506L44.8876 8.05618L45.3487 7.92135L46.5937 5.80899H44.0576L43.7349 6.1236L41.1527 8.64045L40 7.51685L41.7522 5.80899H40.415V4.23596H41.7522L40 2.48315L41.1527 1.4045L43.7349 3.8764L44.0576 4.23596H46.5937L45.3487 2.07865L44.8876 1.94382L41.3372 1.04494L41.7983 -0.483146L44.196 0.146069L43.5043 -0.977528L44.9337 -1.78652L45.5793 -0.662921L46.2248 -3L47.7925 -2.59551L46.8703 0.820225L46.732 1.26966L48.0231 3.42697L49.268 1.26966Z" fill="white"/>
</g>
<g opacity="0.5" clip-path="url(#clip3_3698_13860)">
<path d="M65.7925 19.6685L65.7349 19.3876L65.1297 17.2528L66.1095 17L66.513 18.4607L66.9452 17.7584L67.8098 18.264L67.4063 18.9663L68.9049 18.573L69.1643 19.5281L66.9741 20.0899L66.6859 20.1742L65.879 21.5225H67.464L67.6657 21.2978L69.2795 19.7528L70 20.427L68.9049 21.5225H69.7406V22.5056H68.9049L70 23.573L69.2795 24.2753L67.6657 22.7022L67.464 22.5056H65.879L66.6571 23.8258L66.9452 23.9101L69.1643 24.4719L68.9049 25.427L67.3775 25.0337L67.8098 25.764L66.9452 26.2416L66.513 25.5393L66.1095 27L65.1297 26.7472L65.7061 24.6124L65.7925 24.3315L65.0144 22.9831L64.2075 24.3315L64.2939 24.6124L64.8703 26.7472L63.9193 27L63.5159 25.5393L63.0836 26.2416L62.1902 25.764L62.6225 25.0337L61.1239 25.427L60.8646 24.4719L63.0548 23.9101L63.3429 23.8258L64.121 22.5056H62.536L62.3343 22.7022L60.7205 24.2753L60 23.573L61.0951 22.5056H60.2594V21.5225H61.0951L60 20.427L60.7205 19.7528L62.3343 21.2978L62.536 21.5225H64.121L63.3429 20.1742L63.0548 20.0899L60.8357 19.5281L61.1239 18.573L62.6225 18.9663L62.1902 18.264L63.0836 17.7584L63.487 18.4607L63.8905 17L64.8703 17.2528L64.2939 19.3876L64.2075 19.6685L65.0144 21.0169L65.7925 19.6685Z" fill="white"/>
</g>
</g>
<defs>
<clipPath id="clip0_3698_13860">
<rect width="70" height="35" fill="white"/>
</clipPath>
<clipPath id="clip1_3698_13860">
<rect width="26" height="26" fill="white" transform="matrix(1 0 0 -1 5 33)"/>
</clipPath>
<clipPath id="clip2_3698_13860">
<rect width="16" height="16" fill="white" transform="matrix(1 0 0 -1 40 13)"/>
</clipPath>
<clipPath id="clip3_3698_13860">
<rect width="10" height="10" fill="white" transform="matrix(1 0 0 -1 60 27)"/>
</clipPath>
</defs>
</svg>
